<svg xmlns="http://www.w3.org/2000/svg" width="120.61" height="68.55" viewBox="0 0 120.61 68.55">
  <defs>
    <style>
      .cls-1 {
        fill: #66421f;
      }

      .cls-2 {
        fill: #845a38;
      }
    </style>
  </defs>
  <title>DirstVeryVeryShort</title>
  <g id="Layer_2" data-name="Layer 2">
    <g id="Layer_1-2" data-name="Layer 1">
      <g>
        <path class="cls-1" d="M107.61,54.46c6.33-10,14-42.51-10.34-42.51-3.71,0-1.56-3.64-5-6.41C89.37,4.5,81,4.32,78.09,2.84S76.53,1.43,73.46,1C73.42,1,69,.13,69,.14c-3.5-1-9.72,4.23-13.46,4.12a31.93,31.93,0,0,0-4.05.14,10.51,10.51,0,0,0-3.69.52c-1.63.3-3.23.7-4.84,1.14-6.39,1.45-8.28,0-16.53,0C2.05,6,6.67,44.44,13,54.46s-6.26,7.92-2,10.88,13,3.21,13,3.21H45.52V44.06h9.09V68.55h42s8.74-.25,13-3.21S101.27,64.49,107.61,54.46Z"/>
        <path class="cls-2" d="M97.27,4.89a84,84,0,0,0-18.16,2c-3.47-1.78-7.41-1.21-11.35-.79A20.91,20.91,0,0,0,56,10.93c-2.43.14-7.92-2.33-10.24-.94-1.27.76-1.27.76-4.43-.38-6.39-1.72-9.75-4.72-18-4.72C-1,4.89-3.33,31.89,3,40.22s3.74,23.21,8,25.67,13,2.66,13,2.66H96.61s8.74-.2,13-2.66,1.66-17.34,8-25.67S121.61,4.89,97.27,4.89Z"/>
      </g>
    </g>
  </g>
</svg>
