<svg xmlns="http://www.w3.org/2000/svg" width="522.85" height="81.19" viewBox="0 0 522.85 81.19">
  <defs>
    <style>
      .cls-1 {
        fill: #66421f;
      }

      .cls-2 {
        fill: #845a38;
      }
    </style>
  </defs>
  <title>DirtstonePath</title>
  <g id="Layer_2" data-name="Layer 2">
    <g id="Layer_1-2" data-name="Layer 1">
      <g>
        <g>
          <path class="cls-1" d="M498.23,13.24s.53-5.25-10.56-8.45-20.48-3.4-221.8-3.4h-.7c-201.32,0-210.73.2-221.8,3.4s-10.56,8.45-10.56,8.45L29.38,42.56H501.66Z"/>
          <path class="cls-2" d="M30.16,52.23c6.33,7.42,3.74,20.67,8,22.86s13,2.37,13,2.37H87.06c9.85,1.26,31.05,3.73,46.28,3.73,20.45,0,62.48-3.27,104.89-3.27S340.14,80,385.89,80c31.82,0,57.33-1.58,69.92-2.54h24.08s8.74-.18,13-2.37,1.66-15.44,8-22.86,4-31.47-20.32-31.47a95.64,95.64,0,0,0-22.28,2.72,31.43,31.43,0,0,0-12.49-2.54c-5.4,0-7.77,4.27-10,9.09-2.87,1.42-4.87,2.52-4.87,2.52a5.11,5.11,0,0,1-2.57,3.23,4.84,4.84,0,0,1-2.81.43,6,6,0,0,1-4.65-.32c-1.81-1-2.76-3.32-3.53-5.17s-.91-3.11-2-3.65a3.41,3.41,0,0,0-2.65.08,6.46,6.46,0,0,0-2.95,1c-2.26,1.48-2.24,3.75-4.3,4.83a5.21,5.21,0,0,1-3.47.34A10,10,0,0,1,399.72,32c-1.61-1.25-1.44-2-2.71-2.89s-1.92-.48-4.64-1.47c-1.29-.47-2.32-.91-3-1.22a5.7,5.7,0,0,0-5.74,2.66A13.39,13.39,0,0,0,379,21.93c-4.37-3.28-7.84-3.89-10.22-3.83-2.6.06-4.68.94-8.06.25a14.62,14.62,0,0,1-5-2,8.72,8.72,0,0,0-2.42-1.06c-6.56-1.74-13,5.07-13.67,5.84a4.16,4.16,0,0,1-2,.9c-2.16.33-3.53-1.44-6.7-2.74a16.57,16.57,0,0,0-4.11-1.07,15,15,0,0,0-9.14,4.62c-3,.24-4.14-.46-4.67-1.17-.67-.91-.42-2-1.4-2.92a3.6,3.6,0,0,0-2.16-.78c-4.63-.47-5.74-2.2-11.68-2.39a32.68,32.68,0,0,0-8.07.77,7.64,7.64,0,0,0-4.06,2.25c-1.32,1.49-1.23,2.82-2.51,4.85a11.79,11.79,0,0,1-3.28,3.38A12.13,12.13,0,0,0,273.81,22a12.35,12.35,0,0,0-7.81-.1A26.76,26.76,0,0,1,261.41,24a26.84,26.84,0,0,1-4.58,1.15,8.5,8.5,0,0,1-2-2,8.81,8.81,0,0,1-1-1.75,7.26,7.26,0,0,0-1.9-3.12c-2.09-2-4.88-2-9.72-1.94a31.56,31.56,0,0,0-8.47.86,26.42,26.42,0,0,0-8.53,4.08,3.45,3.45,0,0,1-2.51.67c-1.21-.25-2-1.41-3.81-5.52-2.15-4.91-5.6.35-7.08-.71a6.91,6.91,0,0,0-4.75-1,11.56,11.56,0,0,0-6.69,1.52c-4.34,2.67-.83.79-4.89,3-1.45.8-3.81,1.47-7.67.53-.36-.5-3.34-4.46-8-4.36a8.6,8.6,0,0,0-3.61.92,19.72,19.72,0,0,0-2.95,1.46c-3.78,2.29-7.82,7.58-8.18,8.05-.34-.34-.8-.82-1.34-1.41-1.77-2-2.23-2.57-2.23-3.07a6.7,6.7,0,0,0-.24-1.82c-.41-1.5-1.23-2.38-2.84-4.13-3.06-3.33-3.08-3.39-3.37-3.46-1.55-.38-1.91,1.11-6.95,4.17-1.79,1.09-3.14,1.75-3.87,3.38-.07.16-.23.88-.56,2.33a42.27,42.27,0,0,1-1.09,4.56,15,15,0,0,1-.81,2A14.9,14.9,0,0,1,138,33.09a39.44,39.44,0,0,0-3.87-2.53,3.23,3.23,0,0,1-1-.86,3.15,3.15,0,0,1-.6-2.18A3.65,3.65,0,0,0,132,25c-1.58-2.28-6.16-1.79-9-.54a10.69,10.69,0,0,0-3.71,2.72,9,9,0,0,1-4.13,4.4,8.36,8.36,0,0,1-3.32.87,5.46,5.46,0,0,1-1.22.09,34.55,34.55,0,0,0-5.53-5.16,6.63,6.63,0,0,0-1.11-3c-2.42-3.47-8.17-3.78-13.77-3.11a32.78,32.78,0,0,0-4.29-.28,7.91,7.91,0,0,0-5.76,2.31l-1.59.42c-.78.21-1.58.44-2.39.69a96.37,96.37,0,0,0-25.67-3.6C26.16,20.76,23.83,44.81,30.16,52.23Z"/>
        </g>
        <path class="cls-2" d="M30.5,36.8,27,29.63a5,5,0,0,1-.34-3.53L30.8,10.71A5,5,0,0,1,34,7.31L47.56,2.54A5.13,5.13,0,0,1,49,2.26l22.9-1.21a5,5,0,0,1,3.84,1.5l7.39,7.56a5,5,0,0,1,1.41,3.14l1,13.41a5,5,0,0,1-1.59,4l-8.65,8A5,5,0,0,1,71.74,40l-36.81-.44A5,5,0,0,1,30.5,36.8Z"/>
        <path class="cls-2" d="M446.84,36.8l-3.55-7.17a5,5,0,0,1-.35-3.53l4.19-15.39a5,5,0,0,1,3.17-3.4l13.6-4.77a5,5,0,0,1,1.39-.28l22.89-1.21A5,5,0,0,1,492,2.55l7.39,7.56a5.08,5.08,0,0,1,1.41,3.14l.95,13.41a5,5,0,0,1-1.59,4l-8.66,8A5,5,0,0,1,488.08,40l-36.82-.44A5,5,0,0,1,446.84,36.8Z"/>
        <path class="cls-2" d="M474.35,22l9.74-3.56c1.48-.54,14.35-7.86,16-7.54l11,9.63c2.15.44,5.59,7.91,6.33,9.46l5.09,15.17a3.78,3.78,0,0,1,.37,1.39V63.34a4.39,4.39,0,0,1-2,3.85l-10.26,7.38A8,8,0,0,1,506.29,76l-18.18,1a8.13,8.13,0,0,1-5.45-1.59l-10.87-8.65A4.38,4.38,0,0,1,470,63.23l.6-36.81C470.61,24.54,472.07,22.83,474.35,22Z"/>
        <path class="cls-2" d="M48.5,12,38.77,7.83A7.7,7.7,0,0,0,34,7.42L14.9,16.13c-2.15.51-3.88,3.51-4.62,5.34L2.42,37.87a5.5,5.5,0,0,0-.37,1.64L0,60.87a5.54,5.54,0,0,0,2,4.54l10.27,8.73a7.25,7.25,0,0,0,4.25,1.67l18.18,1.12a7.32,7.32,0,0,0,5.46-1.88L51.06,64.83a5.51,5.51,0,0,0,1.81-4.08l-.6-43.5A5.9,5.9,0,0,0,48.5,12Z"/>
        <path class="cls-2" d="M264.75,36.8l-3.55-7.17a5,5,0,0,1-.34-3.53l4.19-15.39a5,5,0,0,1,3.17-3.4l13.59-4.77a5.13,5.13,0,0,1,1.39-.28l22.9-1.21a5,5,0,0,1,3.84,1.5l7.39,7.56a5,5,0,0,1,1.41,3.14l.95,13.41a5,5,0,0,1-1.59,4l-8.65,8A5,5,0,0,1,306,40l-36.81-.44A5,5,0,0,1,264.75,36.8Z"/>
        <path class="cls-2" d="M129.63,33.85l-3.14-7.36a5,5,0,0,1-.14-3.55l5-15.12a5,5,0,0,1,3.35-3.22l13.84-4A4.81,4.81,0,0,1,150,.4l22.93.07a5,5,0,0,1,3.75,1.71l7,8a5,5,0,0,1,1.24,3.21l.19,13.44a5,5,0,0,1-1.81,3.93l-9.09,7.52a5,5,0,0,1-3.52,1.13l-36.74-2.5A5,5,0,0,1,129.63,33.85Z"/>
        <path class="cls-2" d="M130.9,3.15l3.65,7.12a5,5,0,0,1,.4,3.53l-4,15.44a5,5,0,0,1-3.12,3.45l-13.52,5A5.06,5.06,0,0,1,113,38L90.07,39.5a5,5,0,0,1-3.86-1.45l-7.5-7.46a5,5,0,0,1-1.45-3.12L76.11,14.08a5,5,0,0,1,1.53-4L86.18,1.9A5,5,0,0,1,89.62.52L126.44.43A5,5,0,0,1,130.9,3.15Z"/>
        <path class="cls-2" d="M336.65,3.15l3.65,7.12a5,5,0,0,1,.4,3.53l-4,15.44a5,5,0,0,1-3.12,3.45l-13.52,5a5.06,5.06,0,0,1-1.39.29L295.82,39.5A5,5,0,0,1,292,38.05l-7.5-7.46A5,5,0,0,1,283,27.47l-1.15-13.39a5,5,0,0,1,1.53-4l8.54-8.14A5,5,0,0,1,295.37.52L332.19.43A5,5,0,0,1,336.65,3.15Z"/>
        <path class="cls-2" d="M426.82,3.15l3.65,7.12a5,5,0,0,1,.39,3.53l-4,15.44a5,5,0,0,1-3.12,3.45l-13.53,5a5,5,0,0,1-1.38.29L386,39.5a5,5,0,0,1-3.86-1.45l-7.5-7.46a5,5,0,0,1-1.46-3.12L372,14.08a5,5,0,0,1,1.53-4L382.1,1.9A5,5,0,0,1,385.53.52L422.35.43A5,5,0,0,1,426.82,3.15Z"/>
        <path class="cls-2" d="M223.65,3.15l3.65,7.12a5,5,0,0,1,.4,3.53l-4,15.44a5,5,0,0,1-3.12,3.45l-13.52,5a5.06,5.06,0,0,1-1.39.29L182.82,39.5A5,5,0,0,1,179,38.05l-7.5-7.46A5,5,0,0,1,170,27.47l-1.15-13.39a5,5,0,0,1,1.53-4l8.54-8.14A5,5,0,0,1,182.37.52L219.19.43A5,5,0,0,1,223.65,3.15Z"/>
        <path class="cls-2" d="M224.56,4.2,231.69.55a4.94,4.94,0,0,1,3.52-.39l15.44,4a5,5,0,0,1,3.45,3.12l5,13.53a5,5,0,0,1,.29,1.38L260.91,45a5,5,0,0,1-1.44,3.87L252,56.39a5,5,0,0,1-3.12,1.46L235.5,59a5,5,0,0,1-4.05-1.53l-8.14-8.54a5,5,0,0,1-1.38-3.43l-.09-36.82A5,5,0,0,1,224.56,4.2Z"/>
        <path class="cls-2" d="M382.31,55.6,375,58.8a5,5,0,0,1-3.54.18l-15.17-4.92A5,5,0,0,1,353,50.73L348.9,36.92a5.58,5.58,0,0,1-.21-1.4l-.11-22.93a5,5,0,0,1,1.68-3.77l7.91-7A5,5,0,0,1,361.38.55L374.81.24A5,5,0,0,1,378.75,2l7.59,9a5,5,0,0,1,1.17,3.51L385.3,51.32A5,5,0,0,1,382.31,55.6Z"/>
        <path class="cls-2" d="M263.58.46l8-.15a5,5,0,0,1,3.34,1.19l12.13,10.35a5,5,0,0,1,1.72,4.32L287.3,30.5a5.09,5.09,0,0,1-.35,1.38l-8.66,21.23a5,5,0,0,1-3,2.83l-10,3.46a5,5,0,0,1-3.44-.07l-12.53-4.85a5,5,0,0,1-3-3.16l-3.55-11.24a5,5,0,0,1,.27-3.7l16.1-33.11A5,5,0,0,1,263.58.46Z"/>
        <path class="cls-2" d="M476.42,11.85,455.48,1.5A13,13,0,0,0,449.71.31L435.89.46c-3.25,0-6.19,1.12-7.61,2.81l-27.8,33.11a3.15,3.15,0,0,0-.46,3.7l6.14,11.24c.79,1.45,2.67,2.61,5.11,3.16l21.63,4.85a14.67,14.67,0,0,0,5.94.07l17.26-3.46a8.3,8.3,0,0,0,5.18-2.83l15-21.23a3.4,3.4,0,0,0,.59-1.38l2.57-14.33C479.69,14.54,478.58,12.92,476.42,11.85Z"/>
        <path class="cls-2" d="M341.58.46l8-.15a5,5,0,0,1,3.34,1.19l12.13,10.35a5,5,0,0,1,1.72,4.32L365.3,30.5a5.09,5.09,0,0,1-.35,1.38l-8.66,21.23a5,5,0,0,1-3,2.83l-10,3.46a5,5,0,0,1-3.44-.07l-12.53-4.85a5,5,0,0,1-3-3.16l-3.55-11.24a5,5,0,0,1,.27-3.7l16.1-33.11A5,5,0,0,1,341.58.46Z"/>
      </g>
    </g>
  </g>
</svg>
