<svg xmlns="http://www.w3.org/2000/svg" width="476.72" height="81.38" viewBox="0 0 476.72 81.38">
  <defs>
    <style>
      .cls-1 {
        fill: #66421f;
      }

      .cls-2 {
        fill: #845a38;
      }
    </style>
  </defs>
  <title>DirtbrickPath</title>
  <g id="Layer_2" data-name="Layer 2">
    <g id="Layer_1-2" data-name="Layer 1">
      <g>
        <path class="cls-1" d="M471.07,13.43S471.6,8.19,460.51,5,440,1.58,238.71,1.58H238C36.69,1.58,27.28,1.78,16.2,5S5.65,13.43,5.65,13.43L2.22,42.75H474.5Z"/>
        <path class="cls-2" d="M.64,41.56S3.62,0,8.08,0H50.24c3.8,0,7.11,41.56,7.11,41.56Z"/>
        <path class="cls-2" d="M51.72,41.56S54,0,57.35,0H89.22C92.1,0,94.6,41.56,94.6,41.56Z"/>
        <path class="cls-2" d="M89,41.56S91.22,0,94.6,0h31.87c2.88,0,5.38,41.56,5.38,41.56Z"/>
        <path class="cls-2" d="M126.22,41.56S128.41,0,131.68,0h30.9c2.78,0,5.21,41.56,5.21,41.56Z"/>
        <path class="cls-2" d="M164.5,41.56S166.19,0,168.72,0h23.95c2.16,0,4,41.56,4,41.56Z"/>
        <path class="cls-2" d="M191.64,41.56S194.37,0,198.46,0h38.63c3.48,0,6.51,41.56,6.51,41.56Z"/>
        <path class="cls-2" d="M238,41.56S239.92,0,242.83,0h27.51C272.82,0,275,41.56,275,41.56Z"/>
        <path class="cls-2" d="M267.72,41.56S270.37,0,274.33,0h37.45c3.38,0,6.32,41.56,6.32,41.56Z"/>
        <path class="cls-2" d="M312.47,41.56S314.72,0,318.1,0H350c2.88,0,5.38,41.56,5.38,41.56Z"/>
        <path class="cls-2" d="M349.72,41.56S352,0,355.35,0h31.87c2.88,0,5.38,41.56,5.38,41.56Z"/>
        <path class="cls-2" d="M387,41.56S389.22,0,392.6,0h31.87c2.88,0,5.38,41.56,5.38,41.56Z"/>
        <path class="cls-2" d="M424.22,41.56S426.94,0,431,0h38.48C473,0,476,41.56,476,41.56Z"/>
        <path class="cls-2" d="M3,52.42c6.33,7.42,3.74,20.67,8,22.86s13,2.37,13,2.37H59.9c9.85,1.27,31,3.73,46.27,3.73,20.46,0,62.49-3.26,104.89-3.26S313,80.19,358.73,80.19c31.82,0,57.32-1.57,69.92-2.54h24.08s8.74-.18,13-2.37,1.67-15.44,8-22.86S477.71,21,453.4,21a95.6,95.6,0,0,0-22.28,2.71,31.47,31.47,0,0,0-12.49-2.54c-5.41,0-7.77,4.27-10,9.09-2.86,1.42-4.86,2.52-4.86,2.52A5.08,5.08,0,0,1,401.2,36a4.85,4.85,0,0,1-2.81.43,6,6,0,0,1-4.65-.31c-1.81-1-2.76-3.32-3.53-5.17s-.91-3.12-2-3.65a3.36,3.36,0,0,0-2.65.07,6.49,6.49,0,0,0-2.95,1c-2.26,1.47-2.24,3.75-4.3,4.82a5.16,5.16,0,0,1-3.47.34,9.62,9.62,0,0,1-2.31-1.32c-1.61-1.25-1.44-2-2.71-2.89s-1.93-.48-4.64-1.46c-1.29-.47-2.32-.92-3-1.22a5.58,5.58,0,0,0-2.89.3,5.75,5.75,0,0,0-2.85,2.35,13.43,13.43,0,0,0-2.19-4.6,13.23,13.23,0,0,0-2.45-2.53c-4.37-3.28-7.84-3.89-10.21-3.83-2.6.06-4.68.94-8.07.26a15.07,15.07,0,0,1-5-2,8.82,8.82,0,0,0-2.43-1.07c-6.56-1.73-13,5.08-13.66,5.85a4.21,4.21,0,0,1-2,.89c-2.16.33-3.53-1.44-6.7-2.73a16.31,16.31,0,0,0-4.11-1.08,15,15,0,0,0-5,1.52A14.76,14.76,0,0,0,290.59,23c-3,.24-4.15-.46-4.68-1.18-.67-.91-.41-2-1.39-2.91a3.57,3.57,0,0,0-2.16-.79c-4.63-.46-5.74-2.19-11.68-2.39a32.29,32.29,0,0,0-8.07.78,7.47,7.47,0,0,0-4.06,2.25c-1.33,1.48-1.23,2.81-2.51,4.84A11.79,11.79,0,0,1,252.76,27a12.16,12.16,0,0,0-13.92-4.89,27.89,27.89,0,0,1-4.59,2.08,28.69,28.69,0,0,1-4.59,1.15,8.9,8.9,0,0,1-2-2,8.37,8.37,0,0,1-1-1.76,7.41,7.41,0,0,0-1.91-3.12c-2.08-1.95-4.87-2-9.71-1.93a30.7,30.7,0,0,0-8.47.86,26.22,26.22,0,0,0-8.53,4.07,3.42,3.42,0,0,1-2.52.67c-1.21-.25-2-1.41-3.8-5.52-2.15-4.91-5.6.35-7.08-.7a7,7,0,0,0-4.76-1,11.54,11.54,0,0,0-6.68,1.52c-4.35,2.67-.83.8-4.89,3-1.45.79-3.82,1.46-7.67.53-.36-.5-3.34-4.46-8-4.36a8.46,8.46,0,0,0-3.62.92,20.23,20.23,0,0,0-3,1.45c-3.78,2.3-7.82,7.59-8.17,8.05-.34-.34-.8-.82-1.34-1.41-1.77-1.95-2.24-2.57-2.23-3.06a6.71,6.71,0,0,0-.24-1.83c-.41-1.5-1.24-2.38-2.84-4.12-3.07-3.34-3.08-3.4-3.37-3.47-1.55-.37-1.92,1.11-7,4.18-1.78,1.08-3.13,1.75-3.86,3.37-.07.16-.24.89-.56,2.34a42.9,42.9,0,0,1-1.09,4.56,16.5,16.5,0,0,1-.81,2,14.79,14.79,0,0,1-3.81,4.68A38.12,38.12,0,0,0,107,30.75a3.32,3.32,0,0,1-1-.86,3.15,3.15,0,0,1-.6-2.18,3.68,3.68,0,0,0-.53-2.55c-1.58-2.28-6.16-1.79-9-.54a11,11,0,0,0-3.71,2.72A8.94,8.94,0,0,1,88,31.75a8.76,8.76,0,0,1-3.33.87,7,7,0,0,1-1.22.09,34.41,34.41,0,0,0-5.52-5.17,6.67,6.67,0,0,0-1.11-3c-2.43-3.46-8.18-3.77-13.78-3.1a32.58,32.58,0,0,0-4.28-.29A8,8,0,0,0,53,23.44l-1.58.42c-.78.21-1.59.45-2.4.69A96.26,96.26,0,0,0,23.32,21C-1,21-3.33,45,3,52.42Z"/>
      </g>
    </g>
  </g>
</svg>
