<svg xmlns="http://www.w3.org/2000/svg" xmlns:xlink="http://www.w3.org/1999/xlink" width="471.93" height="71.04" viewBox="0 0 471.93 71.04">
  <defs>
    <style>
      .cls-1 {
        fill: url(#linear-gradient);
      }

      .cls-2 {
        fill: url(#linear-gradient-2);
      }
    </style>
    <linearGradient id="linear-gradient" x1="235.97" y1="95.31" x2="235.97" y2="207.15" gradientUnits="userSpaceOnUse">
      <stop offset="0" stop-color="#92a83f"/>
      <stop offset="1" stop-color="#a4bd47"/>
    </linearGradient>
    <linearGradient id="linear-gradient-2" x1="235.97" y1="-13.74" x2="235.97" y2="76.66" gradientUnits="userSpaceOnUse">
      <stop offset="0" stop-color="#c5d654"/>
      <stop offset="1" stop-color="#a4bd47"/>
    </linearGradient>
  </defs>
  <title>Grass</title>
  <g id="Layer_2" data-name="Layer 2">
    <g id="Layer_1-2" data-name="Layer 1">
      <g>
        <path class="cls-1" d="M446.3,8.25v2H25.63v-2H11.8V32.83c4.42,0,5.75-6.62,13.83-6.62,7.5,0,6.09,17.58,10.75,19.08S41.47,30.79,44.05,30s2.25,18.5,20.42,25.84c0,0-6.17-15.92,2.66-22.67,3.09-2.36,7.09-1.47,10.62,1.28C69.48,47,79.52,69.32,79.52,69.32c11.6-3.51,18.3-9.22,22.15-15.09a13.5,13.5,0,0,0,5.55,3.69,33.74,33.74,0,0,1,2.5-11c2.35,4.95,7.1,8.48,12.17,11A83.42,83.42,0,0,0,126.05,71,33.87,33.87,0,0,1,128,60.42a68.18,68.18,0,0,0,12.45,3c2.77-10.79,1.79-19-.73-25.18.14-.65.25-1.29.36-1.9,2.81.32,5.94-.34,9.38-1.19,1.52,28.58,15.12,32.05,15.12,32.05s0-9.25,7.25-20a20.31,20.31,0,0,0,3.57-11.86,17.11,17.11,0,0,1,6.65,5c0-3.92,3.19-6.38,7.42-7.77-3,12.51,4.33,28.76,4.33,28.76,27.07-8.18,27.54-28.4,27-34.44a10.8,10.8,0,0,1,4.9,1.45c7.17,4.09,1.26,29.55,1.26,29.55,3.24-4.79,8-9,13.63-12.67,8.92,9.64,27.57,11.93,27.57,11.93,2.67-10.39,1.86-18.39-.45-24.49q2.88-1,5.73-1.84c2.21,26.09,14.93,29.34,14.93,29.34s0-9.25,7.25-20a20.51,20.51,0,0,0,3.45-14h11.68a35.67,35.67,0,0,0-3.27,10.47c-4,22.34,31.93,26.75,31.93,26.75,2.34-9.12,2-16.42.33-22.18a21.26,21.26,0,0,0,8.77-1.59,51.09,51.09,0,0,0-1,11.54,23.87,23.87,0,0,0,14.28-3.43,67.35,67.35,0,0,0,11.32,13.65c7.73-6.72,11.62-13.46,13.31-19.57a31.15,31.15,0,0,0,3.43,4.9A51.17,51.17,0,0,0,388.55,60a23.29,23.29,0,0,0,17-5.41,68.38,68.38,0,0,0,4.29,14.28c24.86-7.51,27.29-25.18,27.13-32.69.33-3.35,1.93-9.92,9.35-9.92,8.08,0,9.42,6.62,13.83,6.62V8.25Z"/>
        <path class="cls-2" d="M463.57,3.65l-.6-.32a16.91,16.91,0,0,0-3.4-1.58,10.61,10.61,0,0,0-1-.35c-.14,0-.3-.08-.45-.12l-.32-.08A46.42,46.42,0,0,0,446.3,0H25.63A46.47,46.47,0,0,0,14.17,1.2l-.31.08c-.15,0-.31.07-.46.12a10.61,10.61,0,0,0-1,.35A16.91,16.91,0,0,0,9,3.33l-.6.32C-4.79,11,1.51,31.43,1.51,31.43a22.12,22.12,0,0,0,4.93-1.56A13.4,13.4,0,0,0,10,33.92C16.22,37.71,17.47,16,25.63,16c7.42,0,9,6.57,9.35,9.92-.15,7.51,2.27,25.18,27.13,32.69,0,0,11.79-26.25-.69-37.72a7,7,0,0,1,7,.8c8.84,6.75,2.67,22.67,2.67,22.67C89.22,37,88.88,17.77,91.47,18.52s3,16.75,7.66,15.25c1.35-.43,2.19-2.21,2.88-4.51,4,6.3,10.81,12.34,22.37,11.73a50.39,50.39,0,0,0-2-15.58C134,29.1,145.5,35.5,147.67,46.53,152.33,70.2,154.49,60.3,157,60.3s-4.91-17.84,8.23-21.76c4.7-1.4,8.14-5.07,10.64-9.19.13.21.26.42.4.63,7.25,10.75,7.25,20,7.25,20s12.72-3.25,14.93-29.34c1.9.58,3.81,1.19,5.73,1.85-2.31,6.09-3.11,14.09-.45,24.48,0,0,18.65-2.29,27.58-11.93C237,38.72,241.72,42.92,245,47.71c0,0-5.91-25.46,1.26-29.55a10.66,10.66,0,0,1,4.9-1.44c-.5,6,0,26.25,27,34.43,0,0,7.29-16.25,4.33-28.76,4.23,1.39,7.42,3.85,7.42,7.77a17.22,17.22,0,0,1,6.65-5A20.39,20.39,0,0,0,300.13,37c7.25,10.75,7.25,20,7.25,20S321,53.53,322.5,25c3.45.85,6.57,1.51,9.38,1.19.82,4.91,2.64,11.16,6.67,15.19,7.5,7.5,7.33,19.5,7.33,19.5S356,37.66,349.36,23.57l5.69-.63a20.44,20.44,0,0,0,2.42,4.77c7.25,10.75,7.25,20,7.25,20s5.06-1.29,9.35-8.78a22.43,22.43,0,0,0,14.48,11.4C379.63,36,396,16.25,404.8,23s2.67,22.67,2.67,22.67c18.16-7.34,17.83-26.59,20.41-25.84s3,16.75,7.67,15.25S438.8,16,446.3,16c8.17,0,9.42,21.71,15.67,17.92a13.56,13.56,0,0,0,3.52-4.05,22.29,22.29,0,0,0,4.93,1.56S476.72,11,463.57,3.65Z"/>
      </g>
    </g>
  </g>
</svg>
