<svg xmlns="http://www.w3.org/2000/svg" width="226.37" height="64.3" viewBox="0 0 226.37 64.3">
  <defs>
    <style>
      .cls-1 {
        fill: #845a38;
      }
    </style>
  </defs>
  <title>ReversedTerrain</title>
  <g id="Layer_2" data-name="Layer 2">
    <g id="Layer_1-2" data-name="Layer 1">
      <path class="cls-1" d="M23.33,63.67A84,84,0,0,0,41.5,61.62c3.46,1.79,7.13,3,11.07,2.59,5.07-.53,8.4-3.81,12-6.58a15.55,15.55,0,0,0,7.16-2.18c3.2-1.92,4.81-5.22,8.82-5.57a11.21,11.21,0,0,1,3.26.26c4.47,2.66,9.27,4.84,14.59,4.73,6.9-.14,11.93-3.28,18.72,0,5.73,2.74,10,3.81,16,1s11-3.89,17-2.08A14.69,14.69,0,0,1,153,56.18c3.44,3.66,6.41,5.49,11.61,5.8a59.86,59.86,0,0,0,7.35.13,9.56,9.56,0,0,0,1.4-1.23L175,60.4c.78-.24,1.58-.5,2.39-.77a86.72,86.72,0,0,0,25.69,4c24.33,0,26.66-27,20.33-35.34s-3.74-23.2-8-25.66-13-2.67-13-2.67H24S15.26.21,11,2.67,9.33,20,3,28.33-1,63.67,23.33,63.67Z"/>
    </g>
  </g>
</svg>
