<svg xmlns="http://www.w3.org/2000/svg" width="71.47" height="82.87" viewBox="0 0 71.47 82.87">
  <defs>
    <style>
      .cls-1 {
        fill: #fff;
      }
    </style>
  </defs>
  <title>DesWall Part4</title>
  <g id="Layer_2" data-name="Layer 2">
    <g id="Layer_1-2" data-name="Layer 1">
      <path class="cls-1" d="M68.47,47.54c-6.33-8.34-3.74-43.21-8-45.67C57.83.34,54.11,0,51.68,0a11.77,11.77,0,0,0-4.35.8L43.11,3.41c-.19,2.52-.25,2.87-1.4,6.92-1.79,6.24-3.59,36.09-3.59,36.09s-6.11-25.84-5-31.9c.57-3.2-.76-6.5-2.13-8.9L20,12c-.7,2.26-4.51,9-4.64,12.36-.11,3-8.8,31.75-15.31,52.9a14.73,14.73,0,0,0,9.72,4,61.93,61.93,0,0,0,7.35.12,8.51,8.51,0,0,0,1.4-1.23l1.59-.47c.78-.24,1.58-.5,2.39-.78a86.72,86.72,0,0,0,25.69,4C72.47,82.87,74.8,55.87,68.47,47.54Z"/>
    </g>
  </g>
</svg>
