<svg xmlns="http://www.w3.org/2000/svg" width="373.22" height="86.03" viewBox="0 0 373.22 86.03">
  <defs>
    <style>
      .cls-1 {
        fill: #fff;
      }
    </style>
  </defs>
  <title>DesWall3</title>
  <g id="Layer_2" data-name="Layer 2">
    <g id="Layer_1-2" data-name="Layer 1">
      <path class="cls-1" d="M370.22,50.07c-6.33-8.33-3.74-43.21-8-45.67-2.64-1.52-6.36-1.85-8.8-1.87a11.76,11.76,0,0,0-4.34.8l-4.22,2.61c-.19,2.52-.25,2.87-1.4,6.92C341.67,19.1,339.87,49,339.87,49s-6.11-25.84-5.05-31.9c.57-3.2-.76-6.5-2.13-8.9l-11,6.35c-.7,2.25-4.51,9-4.64,12.35-.18,4.81-15,47.76-15,47.76s9-60.41,9.39-64c.23-2.34-2.07-6.38-3.67-8.89L286.18,4.58c1.32,2.4,2.13,4.08,2.13,6.94,0,4-1.66,16.88-1.66,16.88s-2.26-11.65-2.74-16.52c-.36-3.75-3.82-8.26-5.39-10.14L259.44,3.52c.61,8.77-.72,20.18,1.42,21.37,4.07,2.25,4.16,45.68,4.16,45.68-1.66-4.08-7.74-44.16-12.16-45.2-2.47-.58-3-9.79-4.11-19.9-1.56.48-4.19-.72-5.17,1.24-1.31,2.62-9.21,47.47-9.21,47.47S229.74,21.62,231,13.07a15.43,15.43,0,0,0,0-5.23l-13-2.72c-1.4.11-2.8.17-4.2.17l-12.42,1.9a38,38,0,0,1,3.71,11.58c.71,5.86-15,59.65-15,59.65s2.5-49.82,2.14-56.8c-.27-5.21-2.71-16.9-4.62-19.88H179c-1.76,2-4.42,5.65-4.42,9.07,0,5.11-1.07,20.85-1.07,20.85s-5.71-17.94-5.82-20.91c-.08-1.95,1.17-6.16,2.25-8.67-5.09-.24-6.28-.5-11.32.26L148.51,4c.19,2.72,1.18,4.74.61,7.16-.81,3.45-4.54,19.87-4.54,19.87s-2.41-13.57-2.41-18c0-2.7.39-1.71-.47-5-2.55,2.68-7.64,8.38-8.11,11.45-.62,4.1,2.43,11.15,2.25,14.27s-14.58,29.41-14.58,29.41,9.68-26.73,8.79-31-7.13-11.32-5.7-17.11c1.09-4.42,7.36-10.82,8.71-13.35l-23.92-.31c-2.61,3.41-9.36,15.78-10,17.82C98,22.46,94.65,33.5,94.65,33.5s-2.56-15.56-2.38-21.26c.12-3.74.59-9.38,2.14-11.88L79.94,1.43c.26,3.55-.65,13.49-.74,16.15C79.08,21.15,76,32,74.69,34s2.37,32.55,2.37,32.55S66,33.86,65.54,30.77,71.45,18.65,72.4,14.5C73,11.75,71.44,6.87,70,3L50.42,5.54c-1.89.93-4.09,2.24-4.49,3.49-.71,2.26-1.42,13.31-2.49,18.89S31.2,74.38,31.2,74.38s1.9-46.22,1.9-51.09,2-17.35,1.07-19.13C33.84,3.54,31.62.9,31.2,0L26.54,1.12A29.2,29.2,0,0,1,22,1.85c-2.84.21-8,.83-11,2.55C6.74,6.86,9.33,41.74,3,50.07S-1,85.4,23.33,85.4a84.07,84.07,0,0,0,18.17-2c3.46,1.78,7.13,3,11.07,2.59,5.07-.53,8.4-3.81,12-6.59a15.55,15.55,0,0,0,7.16-2.18c3.2-1.92,4.81-5.21,8.82-5.56a10.87,10.87,0,0,1,3.26.26c4.47,2.65,9.27,4.84,14.59,4.73,6.9-.15,11.93-3.28,18.72,0,5.73,2.74,10,3.81,16,1s11-3.89,17-2.07c.44.28.87.59,1.29.92,3.65,5.17,9.67,9,18.78,9a83,83,0,0,0,16.41-1.68c1.32.27,2.67.5,4.06.71A17.74,17.74,0,0,0,199.42,86a13.26,13.26,0,0,0,2.68-.57l.94,0c11.05,0,17.55-5.57,20.77-12.43a7.35,7.35,0,0,1,3.62-1.35,10.85,10.85,0,0,1,3.26.26c4.47,2.65,9.27,4.84,14.59,4.73,6.9-.15,11.93-3.28,18.72,0,5.73,2.74,10,3.81,16,1s11-3.89,17-2.07a14.69,14.69,0,0,1,2.89,2.39c3.44,3.65,6.41,5.49,11.61,5.8a59.87,59.87,0,0,0,7.35.12,8.51,8.51,0,0,0,1.4-1.23l1.59-.47c.78-.24,1.58-.5,2.39-.78a86.72,86.72,0,0,0,25.69,4C374.22,85.4,376.55,58.4,370.22,50.07Z"/>
    </g>
  </g>
</svg>
