<svg xmlns="http://www.w3.org/2000/svg" width="120.53" height="84.29" viewBox="0 0 120.53 84.29">
  <defs>
    <style>
      .cls-1 {
        fill: #fff;
      }
    </style>
  </defs>
  <title>DesWall Part3</title>
  <g id="Layer_2" data-name="Layer 2">
    <g id="Layer_1-2" data-name="Layer 1">
      <path class="cls-1" d="M116.84,0,95.22,2.84c1.32,2.4,2.13,4.08,2.13,7,0,4-1.67,16.87-1.67,16.87S93.43,15,93,10.15C92.59,6.4,89.13,1.89,87.56,0L68.48,1.79c.61,8.77-.72,20.18,1.42,21.37C74,25.4,74.06,68.84,74.06,68.84c-1.66-4.09-7.74-44.16-12.16-45.2-2.47-.58-3-9.79-4.12-19.91C56.23,4.22,53.6,3,52.62,5c-1.31,2.61-9.21,47.46-9.21,47.46s-4.64-32.55-3.33-41.11a15.63,15.63,0,0,0,0-5.22l-13-2.73c-1.4.11-2.8.17-4.2.17L10.47,5.46A38.17,38.17,0,0,1,14.18,17C14.67,21.09,5.63,59.48,0,82.82a17.44,17.44,0,0,0,8.46,1.39,13.26,13.26,0,0,0,2.68-.56l.93,0c11.06,0,17.56-5.58,20.78-12.44a7.35,7.35,0,0,1,3.62-1.35,11.21,11.21,0,0,1,3.26.26C44.2,72.8,49,75,54.32,74.87c6.9-.14,11.93-3.28,18.72,0,5.72,2.74,10,3.81,16,1s11-3.89,17-2.08a14.59,14.59,0,0,1,2.39,1.89c4.87-26.37,11.88-64.46,12.12-66.78S118.45,2.51,116.84,0Z"/>
    </g>
  </g>
</svg>
