<svg xmlns="http://www.w3.org/2000/svg" width="373.22" height="88.29" viewBox="0 0 373.22 88.29">
  <defs>
    <style>
      .cls-1 {
        fill: #fff;
      }
    </style>
  </defs>
  <title>DesWall1</title>
  <g id="Layer_2" data-name="Layer 2">
    <g id="Layer_1-2" data-name="Layer 1">
      <path class="cls-1" d="M370.22,52.33c-6.33-8.34-3.74-43.21-8-45.67-2.64-1.53-6.36-1.85-8.8-1.87a11.75,11.75,0,0,0-4.34.79L343,7.93c-.19,2.52-.25,2.87-1.4,6.92-1.79,6.24-1.07,16.58-1.07,16.58S336.78,19,337.85,12.89c.57-3.2-.76-6.5-2.13-8.9L320,1.43c-.69,2.25-4.51,9-4.63,12.35-.18,4.81-10.16,27.27-10.16,27.27s5.88-24.59,6.24-28.16c.23-2.34-2.07-6.39-3.67-8.9L286.18,6.84c1.32,2.39,2.13,4.08,2.13,6.94,0,4-1.66,16.87-1.66,16.87S284.39,19,283.91,14.14c-.36-3.75-3.82-8.26-5.39-10.15L255.28,2.14c.61,8.77-.72,20.18,1.42,21.37,4.07,2.25,7.74,25.09,7.74,25.09-1.66-4.09-7.16-19.93-11.58-21-2.47-.58-4.3-12.16-5.43-22.28-1.56.49-4.83,1.71-5.81,3.68-1.31,2.61-5.23,23.76-5.23,23.76s-2.14-13.07-.83-21.62a16,16,0,0,0,0-5.23l-31.84.59L195,7.17a38.45,38.45,0,0,1,3.71,11.58c.71,5.85-2.5,28.72-2.5,28.72S194,25.72,193.68,18.75c-.27-5.21-4.08-11.77-6-14.76H179c-1.76,2-4.42,5.66-4.42,9.08A46.78,46.78,0,0,1,172.94,24s-1.18-8.55-1.3-11.52c-.08-2,1.17-6.16,2.25-8.68a77,77,0,0,0-15.24.8L146,6.53c.19,2.73,1.18,4.74.61,7.16-.81,3.46-2,19.61-2,19.61s-2.41-13.58-2.41-18c0-2.7-1.1-7.39-2-10.65-2.55,2.69-7.64,8.39-8.11,11.45-.62,4.1,3.92,16.84,3.74,20s-10,14.67-10,14.67S133,40.51,132.1,36.24s-5.88-13.64-4.45-19.43c1.08-4.42,4.06-10.28,5.41-12.82L103.68,0a88.24,88.24,0,0,0-8,14.5C94.59,17.7,93.87,30,93.87,30s-1.78-9.8-1.6-15.5c.12-3.74.59-9.38,2.14-11.89L76.23,1.43c.26,3.55-.65,13.49-.74,16.15-.12,3.57-3.83,6.92-5.14,8.94s.87,12.33.87,12.33-3.09-9.38-3.57-12.47,3.8-5.47,4.75-9.63C73,14,71.44,9.13,70,5.26L45.91,4c-1.9.93-4.1,2.25-4.49,3.5-.71,2.25.24,15.2-.83,20.79s-5.11,15.21-5.11,15.21,1.66-11.89,1.66-16.76-2-18.53-3-20.31c-.33-.63-2.55-3.26-3-4.16L26.54,3.38A28.16,28.16,0,0,1,22,4.1c-2.84.22-8,.84-11,2.56C6.74,9.12,9.33,44,3,52.33S-1,87.66,23.33,87.66a84.7,84.7,0,0,0,18.17-2c3.46,1.78,7.13,3,11.07,2.59,5.07-.54,8.4-3.82,12-6.59a15.55,15.55,0,0,0,7.16-2.18c3.2-1.92,4.81-5.22,8.82-5.56a10.56,10.56,0,0,1,3.26.26c4.47,2.65,9.27,4.83,14.59,4.72,6.9-.14,11.93-3.28,18.72,0,5.73,2.75,10,3.81,16,1s11-3.89,17-2.07c.44.28.87.59,1.29.92,3.65,5.17,9.67,9,18.78,9A83,83,0,0,0,186.6,86c1.32.26,2.67.5,4.06.71a17.74,17.74,0,0,0,8.76,1.52,13.26,13.26,0,0,0,2.68-.57l.94,0c11.05,0,17.55-5.58,20.77-12.44a7.25,7.25,0,0,1,3.62-1.34,10.53,10.53,0,0,1,3.26.26c4.47,2.65,9.27,4.83,14.59,4.72,6.9-.14,11.93-3.28,18.72,0,5.73,2.75,10,3.81,16,1s11-3.89,17-2.07a14.63,14.63,0,0,1,2.89,2.38c3.44,3.66,6.41,5.49,11.61,5.81a61.93,61.93,0,0,0,7.35.12,8.51,8.51,0,0,0,1.4-1.23l1.59-.48c.78-.23,1.58-.49,2.39-.77a86.72,86.72,0,0,0,25.69,4C374.22,87.66,376.55,60.66,370.22,52.33Z"/>
    </g>
  </g>
</svg>
