<svg xmlns="http://www.w3.org/2000/svg" width="117.75" height="85.05" viewBox="0 0 117.75 85.05">
  <defs>
    <style>
      .cls-1 {
        fill: #fff;
      }
    </style>
  </defs>
  <title>DesWall Part2</title>
  <g id="Layer_2" data-name="Layer 2">
    <g id="Layer_1-2" data-name="Layer 1">
      <path class="cls-1" d="M117.74,21.27c-.27-5.21-2.71-16.9-4.62-19.89h-8.66C102.7,3.41,100,7,100,10.46,100,15.56,99,31.31,99,31.31S93.26,13.37,93.14,10.4c-.07-2,1.18-6.16,2.26-8.68-5.09-.23-6.28-.5-11.33.27L73.94,3.65c.19,2.72,1.18,4.74.61,7.16C73.74,14.27,70,30.68,70,30.68s-2.41-13.57-2.41-18c0-2.69.39-1.7-.48-5-2.54,2.69-7.63,8.39-8.1,11.45-.62,4.1,2.43,11.16,2.25,14.28s-14.58,29.4-14.58,29.4,9.68-26.73,8.79-31-7.13-11.32-5.7-17.11c1.09-4.42,7.36-10.82,8.71-13.35L34.57,1.07c-2.61,3.42-9.36,15.79-10,17.82-1.07,3.21-4.46,14.26-4.46,14.26S17.52,17.58,17.7,11.88c.11-3.74.59-9.38,2.14-11.88L5.37,1.07c.26,3.56-.65,13.49-.74,16.16C4.51,20.79,1.42,31.6.11,33.62c-.73,1.14,2.23,20.84,5,37.79A8.8,8.8,0,0,1,6,71.26a11.21,11.21,0,0,1,3.26.26c4.47,2.66,9.27,4.84,14.59,4.73,6.9-.14,11.93-3.28,18.72,0,5.72,2.74,10,3.81,16,1s11-3.89,17-2.08a14,14,0,0,1,1.29.93c3.65,5.17,9.67,9,18.77,9A83.85,83.85,0,0,0,112,83.37l1.49.27C115.28,61.3,118,26,117.74,21.27Z"/>
    </g>
  </g>
</svg>
