<svg xmlns="http://www.w3.org/2000/svg" width="373.22" height="86.86" viewBox="0 0 373.22 86.86">
  <defs>
    <style>
      .cls-1 {
        fill: #fff;
      }
    </style>
  </defs>
  <title>DesWall2</title>
  <g id="Layer_2" data-name="Layer 2">
    <g id="Layer_1-2" data-name="Layer 1">
      <path class="cls-1" d="M370.22,50.9c-6.33-8.33-3.74-43.21-8-45.67-2.64-1.52-6.36-1.84-8.8-1.87a11.76,11.76,0,0,0-4.34.8L343,6.51c-.19,2.52-.25,2.86-1.4,6.92-1.79,6.23-4.1,23-4.1,23s-3.74-12.48-2.68-18.54c.57-3.2-.76-6.5-2.13-8.9l-10.34-7.2c-.7,2.26-4.51,9-4.63,12.36C317.54,19,301.5,57.62,301.5,57.62s9.62-42.59,10-46.15c.23-2.35-2.07-6.39-3.67-8.9L286.18,5.41c1.32,2.4,2.13,4.08,2.13,7,0,4-1.66,16.87-1.66,16.87s-2.26-11.65-2.74-16.52c-.36-3.75-3.82-8.26-5.39-10.14L259.44,4.35c.61,8.77-.72,20.19,1.42,21.37,4.07,2.25,5,32.79,5,32.79-1.65-4.08-8.57-31.26-13-32.3-2.47-.58-3-9.79-4.11-19.91-1.56.48-4.19-.72-5.17,1.24-1.31,2.62-7,35.89-7,35.89s-3.75-20.62-2.44-29.17a15.69,15.69,0,0,0,0-5.23L218.05,6c-1.4.11-2.8.17-4.2.17H199.59A38.26,38.26,0,0,1,203.3,17.7c.71,5.86-10.87,44.2-10.87,44.2s1.6-37.6,1.25-44.58c-.27-5.21-4.08-11.77-6-14.75H179c-1.76,2-4.42,5.65-4.42,9.07,0,5.11-1.07,20.86-1.07,20.86s-5.71-17.95-5.82-20.92c-.08-1.95,1.17-6.15,2.25-8.67-5.09-.24-6.28-.5-11.32.27L148.51,4.84c.19,2.72,1.18,4.74.61,7.16-.81,3.45-4.54,19.87-4.54,19.87s-2.41-13.57-2.41-18c0-2.7-1.1-7.39-2-10.64-2.55,2.68-7.64,8.38-8.11,11.44-.62,4.1,3.92,16.84,3.74,20s-10,14.68-10,14.68,5.08-12,4.19-16.28-7.13-11.32-5.7-17.11c1.09-4.42,7.36-10.82,8.71-13.35L108.31.42c-2.61,3.41-9.3,11.86-10,13.9-1.07,3.2-4.46,14.25-4.46,14.25s-1.78-9.8-1.6-15.5c.12-3.74.59-9.38,2.14-11.88L76.23,0c.26,3.56-.65,13.5-.74,16.16-.12,3.56-1.87,10.57-3.18,12.59S74.8,56.2,74.8,56.2,66,34.69,65.54,31.6s5.91-12.11,6.86-16.27c.63-2.74-1-7.63-2.43-11.5L45.91,2.57c-1.9.93-4.1,2.24-4.49,3.49-.71,2.26,3.09,17.11,2,22.69S31.32,58.69,31.32,58.69,33.1,29,33.1,24.12,35.12,6.77,34.17,5c-.33-.62-2.55-3.25-3-4.16L26.54,2A29.18,29.18,0,0,1,22,2.68c-2.84.21-8,.83-11,2.55C6.74,7.69,9.33,42.57,3,50.9S-1,86.23,23.33,86.23a84.07,84.07,0,0,0,18.17-2c3.46,1.78,7.13,3,11.07,2.59,5.07-.53,8.4-3.81,12-6.59A15.43,15.43,0,0,0,71.76,78c3.2-1.91,4.81-5.21,8.82-5.56a11.21,11.21,0,0,1,3.26.26c4.47,2.66,9.27,4.84,14.59,4.73,6.9-.15,11.93-3.28,18.72,0,5.73,2.74,10,3.81,16,1s11-3.89,17-2.07a14,14,0,0,1,1.29.93c3.65,5.16,9.67,8.94,18.78,8.94a83,83,0,0,0,16.41-1.68c1.32.27,2.67.5,4.06.71a17.74,17.74,0,0,0,8.76,1.52,13.26,13.26,0,0,0,2.68-.57l.94,0c11.05,0,17.55-5.57,20.77-12.43a7.35,7.35,0,0,1,3.62-1.35,11.18,11.18,0,0,1,3.26.26c4.47,2.66,9.27,4.84,14.59,4.73,6.9-.15,11.93-3.28,18.72,0,5.73,2.74,10,3.81,16,1s11-3.89,17-2.07a14.69,14.69,0,0,1,2.89,2.39c3.44,3.66,6.41,5.49,11.61,5.8a59.86,59.86,0,0,0,7.35.13,9.08,9.08,0,0,0,1.4-1.24l1.59-.47c.78-.24,1.58-.5,2.39-.77a87.06,87.06,0,0,0,25.69,4C374.22,86.23,376.55,59.23,370.22,50.9Z"/>
    </g>
  </g>
</svg>
