<svg xmlns="http://www.w3.org/2000/svg" width="77.1" height="86.03" viewBox="0 0 77.1 86.03">
  <defs>
    <style>
      .cls-1 {
        fill: #fff;
      }
    </style>
  </defs>
  <title>ShortDesWall Part1</title>
  <g id="Layer_2" data-name="Layer 2">
    <g id="Layer_1-2" data-name="Layer 1">
      <path class="cls-1" d="M72.4,14.5C73,11.75,71.44,6.87,70,3L50.42,5.54c-1.89.93-4.09,2.24-4.49,3.49-.71,2.26-1.42,13.31-2.49,18.89S31.2,74.38,31.2,74.38s1.9-46.22,1.9-51.09,2-17.35,1.07-19.13C33.84,3.54,31.62.9,31.2,0L26.54,1.12A29.2,29.2,0,0,1,22,1.85c-2.84.21-8,.83-11,2.55C6.74,6.86,9.33,41.74,3,50.07S-1,85.4,23.33,85.4a84.07,84.07,0,0,0,18.17-2c3.46,1.78,7.13,3,11.07,2.59,5.07-.53,8.4-3.81,12-6.59a15.55,15.55,0,0,0,7.16-2.18c2.09-1.25,3.5-3.08,5.34-4.3C72,54.8,65.82,32.58,65.54,30.77,65.06,27.68,71.45,18.65,72.4,14.5Z"/>
    </g>
  </g>
</svg>
