<svg xmlns="http://www.w3.org/2000/svg" width="58.49" height="77.8" viewBox="0 0 58.49 77.8">
  <defs>
    <style>
      .cls-1 {
        fill: #fff;
      }
    </style>
  </defs>
  <title>ShortDesWall Part2</title>
  <g id="Layer_2" data-name="Layer 2">
    <g id="Layer_1-2" data-name="Layer 1">
      <path class="cls-1" d="M55.48,31.84c-.89-4.28-7.13-11.32-5.7-17.11,1.09-4.42,7.36-10.82,8.71-13.35L34.57,1.07c-2.61,3.42-9.36,15.79-10,17.82-1.07,3.21-4.46,14.26-4.46,14.26S17.52,17.58,17.7,11.88c.11-3.74.59-9.38,2.14-11.88L5.37,1.07c.26,3.56-.65,13.49-.74,16.16C4.51,20.79,1.42,31.6.11,33.62c-.73,1.14,2.23,20.84,5,37.79A8.8,8.8,0,0,1,6,71.26a11.21,11.21,0,0,1,3.26.26c4.47,2.66,9.27,4.84,14.59,4.73,6.9-.14,11.93-3.28,18.72,0a19.6,19.6,0,0,0,5.3,1.57C50.3,63.92,56.16,35.1,55.48,31.84Z"/>
    </g>
  </g>
</svg>
