<svg xmlns="http://www.w3.org/2000/svg" width="73.24" height="83.67" viewBox="0 0 73.24 83.67">
  <defs>
    <style>
      .cls-1 {
        fill: #fff;
      }
    </style>
  </defs>
  <title>ShortDesWall Part3</title>
  <g id="Layer_2" data-name="Layer 2">
    <g id="Layer_1-2" data-name="Layer 1">
      <path class="cls-1" d="M71.92,49.87c-5.17-14.51-4.41-26.81-4.58-30C67.08,14.68,64.63,3,62.72,0H54.06c-1.76,2-4.42,5.65-4.42,9.08,0,5.11.59,55.22.59,55.22S42.87,12,42.75,9c-.08-2,1.18-6.16,2.26-8.68-5.1-.23-6.29-.5-11.33.27L23.54,2.27C23.73,5,24.73,7,24.16,9.43c-.82,3.46-4.55,19.87-4.55,19.87s-2.4-13.57-2.4-18c0-2.69.38-1.7-.48-5C14.19,9,9.09,14.73,8.63,17.79,8,21.89,11.06,29,10.88,32.07,10.74,34.45,3.77,63.74,0,77.42c2.88.52,4.73,0,8.15-1.55,5.91-2.75,11-3.89,17-2.08a14.66,14.66,0,0,1,1.3.93c3.64,5.17,9.67,9,18.77,9,5.89,0,4.94-2.32,10-3.33,4.76-1.43,7-4.36,7.42-5.58C65.51,65.51,77.12,64.47,71.92,49.87Z"/>
    </g>
  </g>
</svg>
