<svg xmlns="http://www.w3.org/2000/svg" width="211.01" height="86.86" viewBox="0 0 211.01 86.86">
  <defs>
    <style>
      .cls-1 {
        fill: #fff;
      }
    </style>
  </defs>
  <title>ShortDesWall2</title>
  <g id="Layer_2" data-name="Layer 2">
    <g id="Layer_1-2" data-name="Layer 1">
      <path class="cls-1" d="M209.68,56.39c-5.17-14.51-4.41-26.81-4.57-30-.27-5.21-2.71-16.9-4.62-19.89h-8.66l0,3.94a54.12,54.12,0,0,0-4.19-7.89H179c-1.76,2-4.42,5.65-4.42,9.07,0,5.11-1.07,20.86-1.07,20.86s-5.71-17.95-5.82-20.92c-.08-1.95,1.17-6.15,2.25-8.67-5.09-.24-6.28-.5-11.32.27L148.51,4.84c.19,2.72,1.18,4.74.61,7.16-.81,3.45-4.54,19.87-4.54,19.87s-2.41-13.57-2.41-18c0-2.7-1.1-7.39-2-10.64-2.55,2.68-7.64,8.38-8.11,11.44-.62,4.1,3.92,16.84,3.74,20s-10,14.68-10,14.68,5.08-12,4.19-16.28-7.13-11.32-5.7-17.11c1.09-4.42,7.36-10.82,8.71-13.35L108.31.42c-2.61,3.41-9.3,11.86-10,13.9-1.07,3.2-4.46,14.25-4.46,14.25s-1.78-9.8-1.6-15.5c.12-3.74.59-9.38,2.14-11.88L76.23,0c.26,3.56-.65,13.5-.74,16.16-.12,3.56-1.87,10.57-3.18,12.59S74.8,56.2,74.8,56.2,66,34.69,65.54,31.6,68.75,19,69.7,14.88c.62-2.74,1.74-7.18.27-11L45.91,2.57c-1.9.93-4.1,2.24-4.49,3.49-.71,2.26,3.09,17.11,2,22.69S31.32,58.69,31.32,58.69,33.1,29,33.1,24.12,35.12,6.77,34.17,5c-.33-.62-2.55-3.25-3-4.16L26.54,2A30.16,30.16,0,0,1,22,2.68c-2.84.21-8,.83-11,2.55C6.74,7.69,9.33,42.57,3,50.9S-1,86.23,23.33,86.23a84.07,84.07,0,0,0,18.17-2c3.46,1.78,7.13,3,11.07,2.59,5.07-.53,8.4-3.81,12-6.59A15.43,15.43,0,0,0,71.76,78c3.2-1.91,4.81-5.21,8.82-5.56a11.21,11.21,0,0,1,3.26.26c4.47,2.66,9.27,4.84,14.59,4.73,6.9-.15,11.93-3.28,18.72,0,5.73,2.74,10,3.81,16,1s11-3.89,17-2.07a14,14,0,0,1,1.29.93c3.65,5.16,9.67,8.94,18.78,8.94a83,83,0,0,0,16.41-1.68h0a39,39,0,0,0,21.65-13.94C210.75,67.42,212.22,63.52,209.68,56.39Z"/>
    </g>
  </g>
</svg>
