<svg xmlns="http://www.w3.org/2000/svg" width="211.01" height="88.29" viewBox="0 0 211.01 88.29">
  <defs>
    <style>
      .cls-1 {
        fill: #fff;
      }
    </style>
  </defs>
  <title>ShortDesWall1</title>
  <g id="Layer_2" data-name="Layer 2">
    <g id="Layer_1-2" data-name="Layer 1">
      <path class="cls-1" d="M209.68,57.58c-5.17-14.5-4.41-26.8-4.57-30-.27-5.21-2.71-16.9-4.62-19.88h-8.66l0,4.17A53.86,53.86,0,0,0,187.69,4H179c-1.76,2-4.42,5.66-4.42,9.08A46.78,46.78,0,0,1,172.94,24s-1.18-8.55-1.3-11.52c-.08-2,1.17-6.16,2.25-8.68a77,77,0,0,0-15.24.8L146,6.53c.19,2.73,1.18,4.74.61,7.16-.81,3.46-2,19.61-2,19.61s-2.41-13.58-2.41-18c0-2.7-1.1-7.39-2-10.65-2.55,2.69-7.64,8.39-8.11,11.45-.62,4.1,3.92,16.84,3.74,20s-10,14.67-10,14.67S133,40.51,132.1,36.24s-5.88-13.64-4.45-19.43c1.08-4.42,4.06-10.28,5.41-12.82L103.68,0a88.24,88.24,0,0,0-8,14.5C94.59,17.7,93.87,30,93.87,30s-1.78-9.8-1.6-15.5c.12-3.74.59-9.38,2.14-11.89L76.23,1.43c.26,3.55-.65,13.49-.74,16.15-.12,3.57-3.83,6.93-5.14,8.94s.87,12.33.87,12.33-3.09-9.38-3.57-12.47,3.8-5.47,4.75-9.63C73,14,71.44,9.13,70,5.26L45.91,4c-1.9.93-4.1,2.25-4.49,3.5-.71,2.25.24,15.2-.83,20.79s-5.11,15.21-5.11,15.21,1.66-11.89,1.66-16.76-2-18.53-3-20.31c-.33-.63-2.55-3.26-3-4.16L26.54,3.38A27.8,27.8,0,0,1,22,4.1c-2.84.22-8,.83-11,2.56C6.74,9.12,9.33,44,3,52.33S-1,87.66,23.33,87.66a84.7,84.7,0,0,0,18.17-2c3.46,1.78,7.13,3,11.07,2.59,5.07-.54,8.4-3.82,12-6.59a15.55,15.55,0,0,0,7.16-2.18c3.2-1.92,4.81-5.22,8.82-5.56a10.56,10.56,0,0,1,3.26.26c4.47,2.65,9.27,4.83,14.59,4.72,6.9-.14,11.93-3.28,18.72,0,5.73,2.75,10,3.81,16,1s11-3.89,17-2.07c.44.28.87.59,1.29.92,3.65,5.17,9.67,9,18.78,9A83,83,0,0,0,186.6,86h0a39.65,39.65,0,0,0,18.91-11.13C209.34,70.84,213.07,67.08,209.68,57.58Z"/>
    </g>
  </g>
</svg>
