<svg xmlns="http://www.w3.org/2000/svg" width="211.01" height="86.03" viewBox="0 0 211.01 86.03">
  <defs>
    <style>
      .cls-1 {
        fill: #fff;
      }
    </style>
  </defs>
  <title>ShortDesWall3</title>
  <g id="Layer_2" data-name="Layer 2">
    <g id="Layer_1-2" data-name="Layer 1">
      <path class="cls-1" d="M209.68,55c-5.17-14.51-4.41-26.8-4.57-30-.27-5.21-2.71-16.9-4.62-19.89h-8.66L192,18.6c-.76-5.79-2.72-14.37-4.32-16.86H179c-1.76,2-4.42,5.65-4.42,9.07,0,5.11.59,37,.59,37s-7.37-34.07-7.48-37c-.08-1.95,1.17-6.16,2.25-8.67-5.09-.24-6.28-.5-11.32.26L148.51,4c.19,2.72,1.18,4.74.61,7.16-.81,3.45-4.54,19.87-4.54,19.87s-2.41-13.57-2.41-18c0-2.7.39-1.71-.47-5-2.55,2.68-7.64,8.38-8.11,11.45-.62,4.1,2.43,11.15,2.25,14.27s-14.58,29.41-14.58,29.41,9.68-26.73,8.79-31-7.13-11.32-5.7-17.11c1.09-4.42,7.36-10.82,8.71-13.35l-23.92-.31c-2.61,3.41-9.36,15.78-10,17.82C98,22.46,94.65,33.5,94.65,33.5s-2.56-15.56-2.38-21.26c.12-3.74.59-9.38,2.14-11.88L79.94,1.43c.26,3.55-.65,13.49-.74,16.15C79.08,21.15,76,32,74.69,34s2.37,32.55,2.37,32.55S66,33.86,65.54,30.77,71.45,18.65,72.4,14.5C73,11.75,71.44,6.87,70,3L50.42,5.54c-1.89.93-4.09,2.24-4.49,3.49-.71,2.26-1.42,13.31-2.49,18.89S31.2,74.38,31.2,74.38s1.9-46.22,1.9-51.09,2-17.35,1.07-19.13C33.84,3.54,31.62.9,31.2,0L26.54,1.12A28.89,28.89,0,0,1,22,1.85c-2.83.21-8,.83-11,2.55C6.74,6.86,9.33,41.74,3,50.07S-1,85.4,23.33,85.4a84.07,84.07,0,0,0,18.17-2c3.46,1.78,7.13,3,11.07,2.59,5.07-.53,8.4-3.81,12-6.59a15.55,15.55,0,0,0,7.16-2.18c3.2-1.92,4.81-5.21,8.82-5.56a10.87,10.87,0,0,1,3.26.26c4.47,2.65,9.27,4.84,14.59,4.73,6.9-.15,11.93-3.28,18.72,0,5.73,2.74,10,3.81,16,1s11-3.89,17-2.07c.44.28.87.59,1.29.92,3.65,5.17,9.67,9,18.78,9a83,83,0,0,0,16.41-1.68h0a41.48,41.48,0,0,0,18.81-11.37C209.27,68.29,213.1,64.55,209.68,55Z"/>
    </g>
  </g>
</svg>
