<svg xmlns="http://www.w3.org/2000/svg" width="43.29" height="94.94" viewBox="0 0 43.29 94.94">
  <defs>
    <style>
      .cls-1 {
        fill: #845a38;
      }
    </style>
  </defs>
  <title>Roots_9</title>
  <g id="Layer_2" data-name="Layer 2">
    <g id="Resources">
      <g>
        <path class="cls-1" d="M22.72,0H41.61S32.7,10.33,32.17,18.7a92.08,92.08,0,0,0,1.25,23.6c1.42,7.22-.45,30.12-3.66,32.35S1.87,87.93,1.87,92.56,0,93.9,0,92.29a8.69,8.69,0,0,1,3.92-6.5C6.59,84.18,25,73.58,26,71.71S29.76,56.38,28.78,53s-3.29-10.88-4.45-16.22.35-17-.81-20.94S20.32,3.86,22.72,0Z"/>
        <path class="cls-1" d="M36.48,7.21s-2.28,8,0,10.71,7,6.65,6.8,10.57-1.55,13.9-2.38,13.9.24-10.57.24-13.42-4.46-6.16-6.77-7.13-4.64-7.73-4.64-7.73Z"/>
        <path class="cls-1" d="M24,33.91s.81,4.8-2.22,7.89-4.45,8.34-3.83,9.5.54,9.63,1.34,9.72.8-8.38.35-10.07,1.52-5.08,3.57-5.88,3.92-5.89,3.92-5.89Z"/>
      </g>
    </g>
  </g>
</svg>
