<svg xmlns="http://www.w3.org/2000/svg" width="35.78" height="138.92" viewBox="0 0 35.78 138.92">
  <defs>
    <style>
      .cls-1 {
        fill: #845a38;
      }
    </style>
  </defs>
  <title>Roots_7</title>
  <g id="Layer_2" data-name="Layer 2">
    <g id="Resources">
      <g>
        <path class="cls-1" d="M2.38,0H21.86s-10,22.08-9.74,32.06,5.46,15.44,8.08,28,7.1,28.28,5.69,32.32-14,44.44-16.15,46.34-.24-12.36,2.85-21.39,8.8-20.91,7.13-26.85S15.21,65.8,12.59,63.18,0,42,0,34.67,2.38,0,2.38,0Z"/>
        <path class="cls-1" d="M19.12,6.49S15,24.93,22.81,30.15s10.46,21,12.12,24.74S35.64,77.68,33.5,81s1.19-15.45-1-22.34S25.19,40.13,20.91,38,9.27,24,9.27,24Z"/>
      </g>
    </g>
  </g>
</svg>
