<svg xmlns="http://www.w3.org/2000/svg" width="33.8" height="97.35" viewBox="0 0 33.8 97.35">
  <defs>
    <style>
      .cls-1 {
        fill: #845a38;
      }
    </style>
  </defs>
  <title>Roots_4</title>
  <g id="Layer_2" data-name="Layer 2">
    <g id="Resources">
      <g>
        <path class="cls-1" d="M15.43,0s6.42,10.81,6.06,18.48-6.24,10.41-8.2,17.86,2.32,28.83,2.5,34.17S1,95.47,2.24,97.25s17.47-19.9,17.83-23.94S16.68,43,18.82,39.54s10-6.09,11.05-9.48,4.81-13.9,3.74-18.54A63.64,63.64,0,0,1,32.54,0Z"/>
        <path class="cls-1" d="M15.43,0s.95,5.12-1.78,8.74-8.2,6.71-7.72,9S-1,35.88.11,37.31s6.94-14.38,7.69-17,7.12-4.52,7.79-6.42,3.88-8.67,3.88-8.67Z"/>
        <path class="cls-1" d="M29.87,30.06S26.6,37.54,27.2,40.51s2.48,10.82,1.3,13-1.42-7.24-3.92-11.17,1.07-12.24,1.07-12.24Z"/>
      </g>
    </g>
  </g>
</svg>
