<svg xmlns="http://www.w3.org/2000/svg" width="32.65" height="98.26" viewBox="0 0 32.65 98.26">
  <defs>
    <style>
      .cls-1 {
        fill: #845a38;
      }
    </style>
  </defs>
  <title>Roots_3</title>
  <g id="Layer_2" data-name="Layer 2">
    <g id="Resources">
      <g>
        <path class="cls-1" d="M14.66,0H31.24s-2,6.23-2,10.13S24.82,32.37,22.15,38.7s13,25.07,10.15,31.47-19.06,29.8-20,28,16.58-24,14.26-28S12.28,48.59,12.31,43.07,17.87,20.36,16.8,17,13.77,3.45,14.66,0Z"/>
        <path class="cls-1" d="M28.74,10.87s-1.31,12.3.83,14.2.71,11,0,14.85S32.07,53,31.24,53.58,26.84,44,26.84,41s1.22-10.06,0-11.67-4.36-5.19-4.36-5.19Z"/>
        <path class="cls-1" d="M12.39,41.8s-.16,9.71-3.13,10.81S-1,65,.11,65.7,7.24,56.32,9.85,56,16,45.39,16,45.39Z"/>
      </g>
    </g>
  </g>
</svg>
