<svg xmlns="http://www.w3.org/2000/svg" width="125.41" height="298.43" viewBox="0 0 125.41 298.43">
  <defs>
    <style>
      .cls-1 {
        fill: #845a38;
      }
    </style>
  </defs>
  <title>Roots_15</title>
  <g id="Layer_2" data-name="Layer 2">
    <g id="Resources">
      <path class="cls-1" d="M74,0h34.69a97,97,0,0,0,3.55,20.29C114,26.83,119,34,121.11,41c3.85,12.54,4.65,24.25,4.18,27.87-.4,3-.42,6-2.87,9.62-1.6,2.34-5.34,5.06-7.13,7.72-2.07,3.09-3.34,7.61-5.47,10.34-6.62,8.53-12.31,14.2-10.67,19.37,3.33,10.45,0,41.82-5.23,53.7s-50.85,65.11-53.7,76.51S4.1,298.43.3,298.43s29.94-43.25,31.84-55.13,48.48-63.21,48.48-76,2.85-39-1.91-48.47c-2.86-5.74,3.65-17.17,10.08-27.92C90.36,88.26,90.61,84.43,92,82c2.38-4.22,5.72-6.71,7.63-8.65,3-3.09.09-15.05-6-28.57-1.55-3.45-5.63-7-7.13-10.55C79.17,16.84,74,0,74,0Z"/>
    </g>
  </g>
</svg>
