<svg xmlns="http://www.w3.org/2000/svg" width="48.24" height="153.2" viewBox="0 0 48.24 153.2">
  <defs>
    <style>
      .cls-1 {
        fill: #845a38;
      }
    </style>
  </defs>
  <title>Roots_8</title>
  <g id="Layer_2" data-name="Layer 2">
    <g id="Resources">
      <g>
        <path class="cls-1" d="M18.53,0H36.71s.72,28.37-2.49,35.5S30.3,48.69,29.94,56.89s-10.69,41.7-14.26,47.4.72,39.92,0,47.77-8.55-26.74-7.84-35.65,2.85-21,6.42-27.44S21,62.23,20.67,56.89,20,34.08,22.29,28.73,18.53,0,18.53,0Z"/>
        <path class="cls-1" d="M35.51,30.44s-3,15.4,0,22.53,4.17,18.75,4.41,23.63,8.32,16.05,8.32,18.9S38.15,84.33,36.78,79.34s-1.61-13.19-4.23-17.82S28,48.69,28,48.69Z"/>
        <path class="cls-1" d="M20.08,6.54s-.48,11-3.15,14.7-8,12.66-8,15.69S0,55.64,0,58,12.3,43.31,12.83,39.67s3.39-7.33,4.64-9.23S24.77,27,25,23,20.08,6.54,20.08,6.54Z"/>
      </g>
    </g>
  </g>
</svg>
