<svg xmlns="http://www.w3.org/2000/svg" width="43.5" height="105.21" viewBox="0 0 43.5 105.21">
  <defs>
    <style>
      .cls-1 {
        fill: #845a38;
      }
    </style>
  </defs>
  <title>Roots_6</title>
  <g id="Layer_2" data-name="Layer 2">
    <g id="Resources">
      <g>
        <path class="cls-1" d="M0,0S15.45,22.14,13.07,30s-5.7,4.5-7.37,14.95,9,25.92,8.8,32.57S4.51,97,3.33,103.6s6.41-9.26,9.74-12.35S20,79.37,19.49,75.56s-13-25-9.73-30.41S21.62,35.45,22.1,30,15.45,0,15.45,0Z"/>
        <path class="cls-1" d="M16.87,8.74A65.33,65.33,0,0,0,24.36,19.9c4.71,5.62,21.38,18.71,18.89,24.24S32.2,58.93,36.12,62s4.1,10,3.38,11.23-2.13-7.49-5.7-10.34,5.88-16,6.6-19.42S25.07,32.08,20.79,27.15,16.87,8.74,16.87,8.74Z"/>
      </g>
    </g>
  </g>
</svg>
