<svg xmlns="http://www.w3.org/2000/svg" width="172.52" height="237.02" viewBox="0 0 172.52 237.02">
  <defs>
    <style>
      .cls-1 {
        fill: #845a38;
      }
    </style>
  </defs>
  <title>Roots_11</title>
  <g id="Layer_2" data-name="Layer 2">
    <g id="Resources">
      <path class="cls-1" d="M0,0H46.58s-.37,6.37,0,16.85c.09,2.45,1.84,5.82,1.9,8.55.25,11.34-1.84,23.43-6.65,30.15-2.34,3.27-2.67,6.49-4.28,11.2-.84,2.46-3.8,6.13-3.8,8.73,0,4.57,3.93,9.2,4.28,13.37.84,10,1.27,17,2.85,21.29,3.33,9.12,1.42,44.29,11.88,53.8,4.47,4.06,12.1,10.8,21.15,15,3.83,1.76,6.67.35,10.69,1.66,8.73,2.84,18.57,7.74,24.71,10,5.6,2,13.19,1.63,23.29,3.33,3.86.65,8.43,3.79,12.36,4.51a204.5,204.5,0,0,0,27.56,3.09V237a164.34,164.34,0,0,0-25.9-8c-7.67-1.62-15-.44-22.81-2.38-10-2.48-18-6.56-23-7.6-16.16-3.33-39.45-10.94-48-17.11-3-2.21-13.45-14.19-20.91-20.91-3.14-2.83-7.07-3.38-7.6-4-4.62-5.69-6.18-12.25-6.18-15.45,0-2.6-2.71-8.31-3.33-14-.48-4.41,1.25-8.74.48-12.12C13.52,128,11.15,126.57,10,122c-1.29-5.09-.77-17-1.67-29.09-.24-3.3-2.7-6.55-3.08-9.75a40.65,40.65,0,0,1,2.37-18c5.7-16.65,6.66-20.45,5.23-32.33-.45-3.71-.59-10.19-3.33-15.21C8,14.85,3.88,13.44,2.86,11.14-.3,4.07,0,0,0,0Z"/>
    </g>
  </g>
</svg>
