<svg xmlns="http://www.w3.org/2000/svg" width="36.47" height="78.16" viewBox="0 0 36.47 78.16">
  <defs>
    <style>
      .cls-1 {
        fill: #845a38;
      }
    </style>
  </defs>
  <title>Roots</title>
  <g id="Layer_2" data-name="Layer 2">
    <g id="Resources">
      <g>
        <path class="cls-1" d="M0,0H25.45S18.07,18.77,19.5,23.05s-.71,22.57-2.85,26.38,11.9,25.66,8.8,28.51S8.86,55.13,9.31,50.38,14,31.6,11.9,26.38,10,14,10.47,10.46-.46,7.84,0,0Z"/>
        <path class="cls-1" d="M25.45,0s.47,10.51,5.63,15.68,6.24,15.33,4.82,18S33.52,46.87,31,47.94s2-14.64,1.63-19.27-4.21-5.15-6.69-8.53a72.87,72.87,0,0,0-6.64-7.43Z"/>
      </g>
    </g>
  </g>
</svg>
