<svg xmlns="http://www.w3.org/2000/svg" width="147.08" height="150.95" viewBox="0 0 147.08 150.95">
  <defs>
    <style>
      .cls-1 {
        fill: #845a38;
      }
    </style>
  </defs>
  <title>Roots_10</title>
  <g id="Layer_2" data-name="Layer 2">
    <g id="Resources">
      <path class="cls-1" d="M111.91,0a106,106,0,0,1,3.8,22.46c.48,11.26-11.88,27.21-12.35,37.29s-1,12.35-10,24.52-23.29,25-32.79,25.49-1,.47-20.44,4.28C34.28,115.18,29.48,119.33,24,120a72.44,72.44,0,0,1-24-1.47V147.3s15,2.76,28.74,2.14c4.8-.22,7.38-3.56,11.41-4.36,6.35-1.27,13.28-.1,15.21,0,6.65.32,12.83,7.45,19,5.55s8.08-14.73,12.35-19,17.59-7.69,20.92-13.11,10.93-14,12.83-21.58S137.1,81.72,137.1,79.34s1.9-16.3,0-17.66,5.7-10.16,6.18-15.5,3.8-26.65,3.8-31V0Z"/>
    </g>
  </g>
</svg>
