<svg xmlns="http://www.w3.org/2000/svg" width="50.28" height="84.6" viewBox="0 0 50.28 84.6">
  <defs>
    <style>
      .cls-1 {
        fill: #845a38;
      }
    </style>
  </defs>
  <title>Roots_5</title>
  <g id="Layer_2" data-name="Layer 2">
    <g id="Resources">
      <g>
        <path class="cls-1" d="M30.06,0a23.42,23.42,0,0,1-1.19,17.58c-4.52,9-8.32,20.39-3.8,22s8.77,16.06,6.17,19.15S15.09,84.12,16.75,84.59,30.29,65.82,34.33,62s-.23-20.09-1.18-21.09S27,36,28.63,33.32,37.9,25.19,39.09,20,42.41,0,42.41,0Z"/>
        <path class="cls-1" d="M32.67,3.68S31.6,13.66,25,15.45,9.15,23.29,9.15,26.32-.83,43.43.06,44.67,12,30.24,12.53,27.21s10.51-8.11,13-8,8-3,8-3Z"/>
        <path class="cls-1" d="M42.41,0s1.31,9.21,3.27,11.7,5.35,10,4.46,13.9-1.82,19.12-3.79,19.14c-1,0,.87-15.6,1.29-18.6.71-5.11-3-8-3.46-10.34s-6.1-4.69-6.1-4.69Z"/>
      </g>
    </g>
  </g>
</svg>
