<svg xmlns="http://www.w3.org/2000/svg" width="104" height="237.02" viewBox="0 0 104 237.02">
  <defs>
    <style>
      .cls-1 {
        fill: #845a38;
      }
    </style>
  </defs>
  <title>Roots_13</title>
  <g id="Layer_2" data-name="Layer 2">
    <g id="Resources">
      <g>
        <g>
          <path class="cls-1" d="M60.5,48.68s15.44,22.14,13.07,30-5.7,4.49-7.37,15,9,25.92,8.79,32.56-10,19.48-11.16,26.13,6.41-9.27,9.74-12.36S80.46,128,80,124.24,67,99.29,70.26,93.82,82.12,84.13,82.6,78.64s-6.66-30-6.66-30Z"/>
          <path class="cls-1" d="M77.37,57.41a65.62,65.62,0,0,0,7.49,11.17c4.71,5.62,21.38,18.71,18.89,24.23s-11,14.8-7.13,17.83,4.1,10,3.38,11.22-2.13-7.48-5.7-10.33,5.88-16,6.6-19.43S85.57,80.76,81.29,75.83,77.37,57.41,77.37,57.41Z"/>
        </g>
        <path class="cls-1" d="M23.88,0H47.52s-7.6,13.19-6.89,21.74,3.56,27.45-1.07,29.59S21,79.84,20,83.05,2.85,110.14.35,110.14s8.91-25,13.19-29.94,8.7-28.87,15.58-31,.46-22.81-3.82-24.95S23.88,0,23.88,0Z"/>
        <path class="cls-1" d="M24.87,0H59.09s20,44.85,17.58,53.78-21.86,29.36-20,37,6.18,43,4.28,49.07-36.6,27.92-36.12,33.62S42,232.85,39.13,236.65s-5.72-22.81-14.27-33.27a57.64,57.64,0,0,1-12.35-30.89c-.47-7.6,10.93-17.79,16.64-23.86s20.14-20.89,15.53-30.12S33,88.85,33,81.72,48.81,50,44.68,42.82,24.87,0,24.87,0Z"/>
      </g>
    </g>
  </g>
</svg>
