<svg xmlns="http://www.w3.org/2000/svg" width="225.02" height="290.15" viewBox="0 0 225.02 290.15">
  <defs>
    <style>
      .cls-1 {
        fill: #845a38;
      }
    </style>
  </defs>
  <title>Roots_12</title>
  <g id="Layer_2" data-name="Layer 2">
    <g id="Resources">
      <path class="cls-1" d="M0,0H54.89S40.63,41,43.49,53.61,61.31,77.48,62.73,89.7c.52,4.4-1.38,13.44-2.15,23.39-.33,4.13,1.05,8.39.47,12.59-1.9,13.71-5.39,26.28-2.59,31.86,1.84,3.68,5,12.55,10.19,19.94,3.5,5,7.71,7.29,11.89,11.88,2.2,2.42,1.61,7.18,3.8,9.51,6.55,7,15.57,10.49,19.74,10.54,12.12.15,72.77,60,83.79,61.46s45,18.53,35.49,19.24-28.55-9.26-39.7-9.26-54.88-41.11-71.15-48-36.23-6.61-42.65-13.17c-3.38-3.46-11.53-18-20.93-30.79-2.33-3.18-7.17-5.69-9.5-8.56-6.09-7.48-9-14.38-9.49-19.24-1.43-14.26,7.84-46.18.71-59.81-2.11-4-7.83-7.37-11.42-11.58-3.94-4.62-5.23-9.47-8.08-14.22C7.85,70,3.3,64.56,3.56,59.75,4.28,47,0,0,0,0Z"/>
    </g>
  </g>
</svg>
