<svg xmlns="http://www.w3.org/2000/svg" viewBox="0 0 395.77 338.49"><defs><style>.cls-1{fill:#e7a217;}.cls-2{fill:#d64e07;}.cls-3{fill:#10736a;}.cls-4{fill:#27d7e0;}.cls-5{fill:#fff;}</style></defs><title>4everfreebrony</title><g id="Layer_2" data-name="Layer 2"><g id="Layer_1-2" data-name="Layer 1"><path class="cls-1" d="M140.15,172.39l-2,2.79-4,5.58-4,5.63c-22.22-10.09-35.28-5.67-42.11,4.43-.13.29-9.55,21.58,10.1,41.58A27.32,27.32,0,0,1,83.69,231a42.25,42.25,0,0,0,5.46,13.42,46.22,46.22,0,0,1,8,25.95c0,18.51-11.38,36.5-33.78,42.53h-.06A63.27,63.27,0,0,1,48.24,315s-32.78,0-45.73-19.76a45,45,0,0,0,10.91,3c-8.06-11.65-5.1-31.7-5.1-31.7,0,16.06,16.49,22.22,27.4,17.34,5.4-2.4,9.43-7.51,9.43-15.45,0-24-22-19-27-55a81.53,81.53,0,0,1,1.36-30.33A31.21,31.21,0,0,0,8.26,198.84c0-33.74,38-55.84,38-55.84v0a61.05,61.05,0,0,1,34.89-10.64A58.45,58.45,0,0,1,111.93,141a61.26,61.26,0,0,0-9.39-15.36C128.91,135.39,140.15,172.39,140.15,172.39Z"/><path class="cls-2" d="M140.15,172.39l-2,2.79c-8-9.6-29.62-30.45-62.12-24.17-41.82,8.08-52.28,56.68-34,90.48s-6.34,42.36-6.34,42.36h0c5.4-2.4,9.43-7.51,9.43-15.45,0-24-22-19-27-55a81.53,81.53,0,0,1,1.36-30.33A31.21,31.21,0,0,0,8.26,198.84c0-33.74,38-55.84,38-55.84v0a61.05,61.05,0,0,1,34.89-10.64A58.45,58.45,0,0,1,111.93,141a61.26,61.26,0,0,0-9.39-15.36C128.91,135.39,140.15,172.39,140.15,172.39Z"/><path class="cls-2" d="M134.17,180.76l-4,5.63c-22.22-10.09-35.28-5.67-42.11,4.43-.13.29-9.55,21.58,10.1,41.58A27.32,27.32,0,0,1,83.69,231a42.25,42.25,0,0,0,5.46,13.42,46.22,46.22,0,0,1,8,25.95c0,18.51-11.38,36.5-33.78,42.53,30.42-9.63,22.58-49.7,13.83-65-10-17.43-26.85-52.43,3.8-69.94C103.21,165.27,124.23,174.62,134.17,180.76Z"/><path d="M47.51,317.48c-1.13,0-2.85-.12-5.6-.4-11.24-1.16-31.58-5.37-41.5-20.51A2.5,2.5,0,0,1,3.6,293a31.62,31.62,0,0,0,5.05,1.68c-5.12-12.15-2.91-27.75-2.8-28.5a2.5,2.5,0,0,1,5,.36c0,10.82,8.56,16.48,17,16.48a15.55,15.55,0,0,0,10.32-3.6c3-2.58,4.5-6.38,4.5-11,0-10.21-4.3-14.56-9.74-20.07-6.45-6.52-14.46-14.62-17.23-34.59a85.19,85.19,0,0,1-.07-23.49,28.66,28.66,0,0,0-4.93,9.23,2.5,2.5,0,0,1-4.92-.64c0-34.78,37.65-57.07,39.25-58l.13-.07a63.91,63.91,0,0,1,36-10.87,60.87,60.87,0,0,1,25.07,5.3,57.2,57.2,0,0,0-5.56-7.89,2.5,2.5,0,0,1,2.75-4c27.22,10.06,38.66,46.8,39.14,48.36a2.52,2.52,0,0,1-.36,2.18l-10,14a2.5,2.5,0,0,1-3.07.82c-18.21-8.27-31.64-7.11-38.87,3.37-.92,2.21-7.86,20.76,9.68,38.62a2.49,2.49,0,0,1-1.26,4.19,29.86,29.86,0,0,1-11.33-.17A34.67,34.67,0,0,0,91.22,243a47.65,47.65,0,0,1,3.39,48.54c-8.23,16-25.11,25.44-46.31,25.94h0C48.08,317.48,47.82,317.48,47.51,317.48ZM10.15,300.13C24.26,312.31,48,312.48,48.24,312.48c19.26-.46,34.56-8.93,41.92-23.24a42.61,42.61,0,0,0-3.08-43.44,44.45,44.45,0,0,1-5.82-14.24,2.5,2.5,0,0,1,3.37-2.9,24,24,0,0,0,8.27,1.63c-16-19.81-7.53-39.59-7.14-40.48a2.82,2.82,0,0,1,.21-.38c6-8.81,18.28-16.87,43.33-6.14L137.38,172c-1.83-5.32-10.35-27.78-26.82-39.28a56.24,56.24,0,0,1,3.69,7.37,2.5,2.5,0,0,1-3.61,3.08,56.15,56.15,0,0,0-29.49-8.25,58.86,58.86,0,0,0-33.47,10.19,2.91,2.91,0,0,1-.42.23c-2.84,1.74-27.23,17.21-34.48,40.51a32.12,32.12,0,0,1,5.28-4.8A2.5,2.5,0,0,1,22,183.65a78.62,78.62,0,0,0-1.32,29.4c2.54,18.32,9.6,25.46,15.83,31.76,5.76,5.82,11.19,11.32,11.19,23.59,0,6.08-2.14,11.18-6.2,14.74A20.56,20.56,0,0,1,27.83,288a22.68,22.68,0,0,1-17.35-7.91c.43,5.64,1.73,12,5,16.72A2.5,2.5,0,0,1,13,300.67C12,300.5,11,300.31,10.15,300.13Z"/><path class="cls-1" d="M342.66,130.34s-11.41,19-11.41,42.52c0,0-5.66-4.46-7.82-14.15v.11c.34,2.64,3.44,29.4-8.11,49.93,0,0-7.44.16-16.39-12.46a78.56,78.56,0,0,1-6.53-11.3c-11.54-24,0-55.6,0-55.6l6.48.12,21,.4Z"/><path class="cls-2" d="M342.66,130.34s-11.41,19-11.41,42.52c0,0-5.66-4.46-7.82-14.15l0-.1a126.18,126.18,0,0,1-3.5-28.7Z"/><path class="cls-2" d="M298.94,196.29a78.56,78.56,0,0,1-6.53-11.3c-11.54-24,0-55.6,0-55.6l6.48.12C301.67,142.71,305.5,169.34,298.94,196.29Z"/><path d="M315.3,211.26c-1.7,0-13.47-.92-25.14-25.18-11.86-24.67-.58-56.22-.09-57.55a2.53,2.53,0,0,1,2.39-1.64l50.25,1a2.51,2.51,0,0,1,2.09,3.79c-.11.18-11.05,18.71-11.05,41.24a2.5,2.5,0,0,1-1.41,2.25,2.53,2.53,0,0,1-2.64-.29,20.39,20.39,0,0,1-3.11-3.33c-.12,10.54-1.82,25.59-9.08,38.48a2.5,2.5,0,0,1-2.13,1.28Zm-21.09-79.33c-2.1,6.72-9,32.3.46,52C302.92,201.07,310.9,205.06,314,206c10.59-20.44,7-46.74,6.95-47a2.5,2.5,0,0,1,4.91-.89,27,27,0,0,0,3.19,8.13,95.84,95.84,0,0,1,9.49-33.45Z"/><path class="cls-3" d="M265.87,89.87S244,79.82,245.65,67.93s3.47-32.83,12-43.77c5.23-6.68,13.51-10.27,16.08-6.89a49.84,49.84,0,0,1,8.87,38.55C278.52,78.48,265.87,89.87,265.87,89.87Z"/><path d="M266.32,92.83l-1.5-.69c-2.41-1.11-23.47-11.2-21.65-24.54.17-1.24.34-2.58.52-4,1.57-12.21,3.93-30.65,12-41,4.23-5.41,10.47-9.2,15.08-9.14a6,6,0,0,1,5,2.28,52.56,52.56,0,0,1,9.34,40.51c-4.21,23.23-17,35-17.55,35.46Zm4.4-74.35c-2.67,0-7.53,2.69-11.07,7.22-7.24,9.26-9.5,26.88-11,38.54-.18,1.43-.35,2.78-.53,4-1,7.55,10.91,15.33,17.23,18.56,3.11-3.37,11.65-14,14.82-31.45a47.51,47.51,0,0,0-8.4-36.6c-.2-.26-.72-.3-1-.3Z"/><path class="cls-3" d="M204.05,247s3.7,71.8,6,81c2,8-4,8-4,8h-57V239h55Z"/><path d="M206.05,338.49h-59.5v-102h60v10.44c1.28,24.77,4.16,73.37,5.93,80.46.89,3.59.54,6.44-1,8.48A7.16,7.16,0,0,1,206.05,338.49Zm-54.5-5h54.5a2.16,2.16,0,0,0,1.46-.72c.56-.75.6-2.23.12-4.17-2.34-9.33-5.92-78.53-6.07-81.48v-5.63h-50Z"/><path class="cls-3" d="M225.07,247.89s-14,32-14,60,6,28,6,28h45v-87Z"/><path d="M264.57,338.39h-47.5c-3.17,0-8.5-4-8.5-30.5,0-28.2,13.63-59.68,14.21-61l.68-1.54,41.11,1.11Zm-47-5h42V251.32l-32.85-.89c-2.73,6.67-13.15,33.75-13.15,57.46C213.57,328.37,216.85,332.69,217.57,333.39Z"/><path class="cls-4" d="M364.92,87.9c-1.42-7.07-37-22-37-22l-73-24s-11.67,20.16-13.78,28.59a236.21,236.21,0,0,0-5.72,81.84,5,5,0,0,1-4.6,5.55c-21.68,1.59-92.28,6.71-98.9,10-8,4-12,16-12,35s4,25,4,35a16.63,16.63,0,0,1-5.55,12.92,4.84,4.84,0,0,0-1.64,3.29c-.53,6.13-2,23.78-2.81,36.79-1,16-.83,45,5,45,4.77,0,45.78.19,50,0,5-.22-5-7-5-46s2-50,2-50,35.09,8.4,47,10c8.55,1.15,28.63,2.1,41.18,2.6.54,24.58,2.49,83.4,8.82,83.4h41s7,0,6-4c-1.21-4.82-12.43-45-13-86.85,3.66-5.51,8-15.17,8-30.15,0-25.75-10.78-36.8-4.19-71,26.31-1.47,60.21-5.09,62.19-14C366.92,111.9,366.92,97.9,364.92,87.9Z"/><path d="M152.74,338.49c-13.54,0-30.86-.06-33.84-.09a4.52,4.52,0,0,1-3.32-1.55c-6.52-7-4.26-44.51-4.16-46.11.8-12.79,2.24-30,2.82-36.84a7.34,7.34,0,0,1,2.49-5,14.16,14.16,0,0,0,4.69-11,54.76,54.76,0,0,0-1.48-11.26,107.11,107.11,0,0,1-2.52-23.74c0-20.27,4.5-32.8,13.38-37.24,4.75-2.37,34.94-5.5,97.89-10.13l1.95-.15a2.45,2.45,0,0,0,1.74-.9,2.42,2.42,0,0,0,.55-1.86,239.24,239.24,0,0,1,5.78-82.73c2.17-8.68,13.56-28.41,14-29.24l1-1.76L328.88,63.6c11.07,4.64,37,16.25,38.49,23.81h0c2.34,11.7,1.64,26.58-2,43-1.16,5.2-8.77,8.91-24,11.7a330.3,330.3,0,0,1-38.57,4.14c-3.46,19.4-1.12,30.78,1.36,42.81,1.59,7.7,3.23,15.67,3.23,25.81,0,15-4.24,25-8,30.87.29,17.76,2.72,46.55,12.51,84.07.17.64.3,1.13.38,1.45a4.89,4.89,0,0,1-.84,4.31c-2.08,2.67-6.68,2.8-7.58,2.8h-41c-3.53,0-6.64-2.62-9.08-34.79-1.28-17-1.91-37-2.18-48.71-12-.5-30.83-1.41-39.08-2.52C202.49,251,176.55,245,168,243c-.56,5.18-1.62,18.72-1.62,46.93,0,23.35,3.62,34.89,5.35,40.44,1,3.18,1.55,4.93.42,6.55A3.84,3.84,0,0,1,169,338.4C167.41,338.47,160.74,338.49,152.74,338.49Zm-33.56-5.09c5.27,0,40.27.17,48.32,0-.15-.5-.33-1.07-.5-1.61-1.81-5.78-5.58-17.82-5.58-41.93,0-38.78,2-50,2-50.45l.47-2.6,2.57.62c.35.08,35.1,8.39,46.75,9.95,8.61,1.16,29.35,2.12,40.95,2.58l2.35.1.05,2.35c1.19,54.33,4.41,77.38,6.91,80.95h40.41a7.48,7.48,0,0,0,3.59-.82.64.64,0,0,1,0-.07l-.36-1.41c-10.06-38.54-12.45-68.05-12.69-86v-.77l.43-.65c3.45-5.18,7.56-14.38,7.56-28.76,0-9.63-1.52-17-3.13-24.8-2.54-12.35-5.17-25.12-1-46.68l.37-1.91,1.95-.11c55.14-3.09,59.56-10.57,59.89-12,4.43-19.93,3.52-33.28,2-41C361.78,85.25,345.57,76,327,68.24l-71-23.33C253.23,50,245.21,64.52,243.56,71.1A234,234,0,0,0,237.9,152a7.48,7.48,0,0,1-6.89,8.33l-2,.14c-59.73,4.4-92,7.64-96,9.63-6.94,3.47-10.61,14.8-10.61,32.76a101.57,101.57,0,0,0,2.42,22.75,58.11,58.11,0,0,1,1.58,12.25A19.12,19.12,0,0,1,120,252.71a2.31,2.31,0,0,0-.79,1.61c-.58,6.8-2,24-2.81,36.74C115.05,312.76,116.75,331.08,119.18,333.4Z"/><ellipse class="cls-5" cx="292.42" cy="99.9" rx="14.88" ry="18.6" transform="translate(-10.57 39.19) rotate(-7.53)"/><path d="M293.25,121A16.24,16.24,0,0,1,282,116.13,24.5,24.5,0,0,1,278.12,87a15.38,15.38,0,0,1,24.74-3.27,24.5,24.5,0,0,1,3.85,29.17,15.89,15.89,0,0,1-11.53,8A13.91,13.91,0,0,1,293.25,121Zm-1.69-37.09a8.65,8.65,0,0,0-1.25.08,11,11,0,0,0-7.91,5.59,19.54,19.54,0,0,0,3,23,10.4,10.4,0,0,0,17-2.25,18.49,18.49,0,0,0,2.26-12h0a18.53,18.53,0,0,0-5.3-11A11.35,11.35,0,0,0,291.56,83.86Z"/><ellipse cx="293.88" cy="98.86" rx="9.31" ry="11.63" transform="translate(-10.42 39.37) rotate(-7.53)"/><path d="M344.78,91.29s6-1,8,1,1.6,3.32,1.36,3.57-2.12,2-4.8.11A21.37,21.37,0,0,1,344.78,91.29Z"/><path class="cls-1" d="M248.07,128.33c.23.74,9.7,31.31-22.16,56.66,0,0,.36-1,.81-2.89A67.28,67.28,0,0,0,220,134a58.66,58.66,0,0,1-3.56-50.12s-6.78,1.74-12.83,12.93c0,0-2.14-45.32,31-59l4,29.78,2.61,19.27s-1.23,14,6.75,25.45,11.51,18.18,11.51,29.58C259.57,141.86,256.12,131.89,248.07,128.33Z"/><path class="cls-2" d="M229.31,114.06c11.23,20.5,6.91,55.78-1.09,67.19a1.69,1.69,0,0,1-1.5.85A67.28,67.28,0,0,0,220,134a58.66,58.66,0,0,1-3.56-50.12s-6.78,1.74-12.83,12.93c0,0-2.14-45.32,31-59l4,29.78-7.11,3S218.08,93.57,229.31,114.06Z"/><path d="M225.92,187.49a2.47,2.47,0,0,1-1.45-.46,2.5,2.5,0,0,1-.92-2.86,64.8,64.8,0,0,0-5.68-48.95,61,61,0,0,1-6-45.38,32.48,32.48,0,0,0-6,8.16,2.52,2.52,0,0,1-2.76,1.24,2.49,2.49,0,0,1-1.94-2.31c-.09-1.93-1.82-47.25,32.55-61.45a2.49,2.49,0,0,1,2.21.14,2.52,2.52,0,0,1,1.23,1.83l6.65,49.05a2.53,2.53,0,0,1,0,.55h0c0,.13-1,13.31,6.31,23.8,8.27,11.82,12,19.1,12,31a2.5,2.5,0,0,1-4.86.81,26.93,26.93,0,0,0-5.57-8.82c1.24,10.82.28,33.64-24.17,53.09A2.48,2.48,0,0,1,225.92,187.49ZM216.48,81.38a2.5,2.5,0,0,1,2.27,3.54,56.67,56.67,0,0,0,3.47,47.85,69.29,69.29,0,0,1,7.92,45.17c23.54-23.12,15.63-48.57,15.55-48.84a2.5,2.5,0,0,1,3.38-3.06,20.28,20.28,0,0,1,6.36,4.54c-1.69-5.21-4.73-10.18-9.42-16.86-7.85-11.23-7.35-24.6-7.21-26.81l-6.16-45.44c-20.17,10.28-25,34.07-26.18,46.81,4.87-5.6,9.16-6.76,9.4-6.82A2.2,2.2,0,0,1,216.48,81.38Z"/><path d="M364.87,120a14.81,14.81,0,0,0-5.54.3c-2.64.64-5.79,2.14-5.73,3.07,0,.56,1.25.64,5.69,1.43,2,.35,3.63.67,4.69.88Z"/><path class="cls-1" d="M364.86,73.25s-26.23,9.28-43.95-4.64c0,0-1.07,6.18,2.85,15.24,0,0-13,1.91-24.23-11.43C292.41,64,284.59,61.8,284.59,61.8a81.88,81.88,0,0,1,1.07,13s-12.15-12.19-33.9-12.19l-2.17-16.9-1.67-13.07-.65-5.08s5.21-5.12,20.53-10.53A91.11,91.11,0,0,0,293.88,2.5S293,14.4,283.51,20.79c.29-.09,1.5-.51,3.53-1.08h0c9.79-2.77,38.62-9.14,74.85-1.23,0,0-15.09,2.89-27.21,9.26,0,0,45.75-3.65,58.58,45.88,0,0-13.34-10.58-38.93-7.4C354.34,66.22,357.09,71.29,364.86,73.25Z"/><path class="cls-2" d="M283.47,20.81h0a218.2,218.2,0,0,0-35.53,11.85l-.65-5.08s5.21-5.12,20.53-10.53A91.11,91.11,0,0,0,293.88,2.5S293,14.43,283.47,20.81Z"/><path class="cls-2" d="M320.91,68.61s-1.07,6.18,2.85,15.24c0,0-13,1.91-24.23-11.43C292.41,64,284.59,61.8,284.59,61.8a81.88,81.88,0,0,1,1.07,13s-12.15-12.19-33.9-12.19l-2.17-16.9C269,41,314.24,35,354.34,66.22c0,0,2.75,5.07,10.52,7C364.86,73.25,338.63,82.53,320.91,68.61Z"/><path d="M322,86.45c-4.46,0-15-1.32-24.33-12.42a34.63,34.63,0,0,0-9.95-8.17,87.27,87.27,0,0,1,.49,9,2.5,2.5,0,0,1-4.27,1.76c-.11-.11-11.77-11.46-32.12-11.46A2.49,2.49,0,0,1,249.29,63l-4.5-35a2.5,2.5,0,0,1,.73-2.1c.23-.22,5.78-5.57,21.46-11.1A89.1,89.1,0,0,0,292.26.6a2.5,2.5,0,0,1,4.12,2.08,30.56,30.56,0,0,1-4.66,13.23,163.51,163.51,0,0,1,70.72.13,2.49,2.49,0,0,1-.06,4.89,124.89,124.89,0,0,0-17.07,4.88,64.85,64.85,0,0,1,14.8,4c12.43,5,28.69,16.61,35.58,43.21a2.49,2.49,0,0,1-4,2.58c-.11-.08-11.15-8.51-32-7.33a17.24,17.24,0,0,0,5.76,2.58,2.48,2.48,0,0,1,1.88,2.3,2.51,2.51,0,0,1-1.66,2.48c-1,.37-24.09,8.31-42.26-2.26a33.54,33.54,0,0,0,2.62,9.51,2.49,2.49,0,0,1-.11,2.21,2.52,2.52,0,0,1-1.82,1.26A18.55,18.55,0,0,1,322,86.45ZM284.59,59.3a2.18,2.18,0,0,1,.67.1c.35.09,8.66,2.49,16.18,11.41,7,8.27,14.51,10.19,18.71,10.57-2.59-7.75-1.74-12.94-1.7-13.19a2.5,2.5,0,0,1,4-1.54c11.13,8.75,26.19,7.61,34.8,6a16.39,16.39,0,0,1-5.11-5.19A2.49,2.49,0,0,1,354,63.75c16.85-2.1,28.6,1.54,35,4.56-5.65-16.43-15.93-27.79-30.65-33.81a57.43,57.43,0,0,0-23.53-4.26,2.5,2.5,0,0,1-1.36-4.71,97.73,97.73,0,0,1,16.67-6.64c-38-5.54-65.6,4.17-65.9,4.28a2.5,2.5,0,0,1-2.23-4.43,21,21,0,0,0,7.77-10.12,94.59,94.59,0,0,1-21.2,10.8c-11.08,3.91-16.68,7.66-18.71,9.22l4,31.54a54.6,54.6,0,0,1,29,9.31c-.3-4.2-.83-7.2-.84-7.24a2.52,2.52,0,0,1,2.46-3Z"/><path class="cls-4" d="M246.92,88.9s-21.17-6.05-21-18-1-33,6-45c4.27-7.33,12-12,15-9s22,21,15,49"/><path d="M246.92,91.4a2.35,2.35,0,0,1-.69-.1c-.94-.26-23-6.73-22.81-20.43,0-1.67,0-3.52,0-5.49,0-12.59,0-29.84,6.32-40.74,3.46-5.94,9.09-10.5,13.7-11.09a5.94,5.94,0,0,1,5.22,1.58l.24.24C263.49,29.84,269,48,264.34,66.51c-.33,1.34-2.58,6.23-3.92,5.89s-1.26-5.77-.93-7.11c4.18-16.73-.82-33.2-14.09-46.37l-.25-.25c-.23-.23-.76-.2-1.05-.16-2.64.34-7.12,3.67-10,8.65-5.68,9.73-5.66,26.19-5.64,38.21,0,2,0,3.87,0,5.57-.12,8.23,13.87,13.82,19.18,15.56,5.82,1.9,6.82,16.9,6.82,16.9S248,91.4,246.92,91.4Z"/><path d="M247.05,16.86a70.52,70.52,0,0,0-5.31,13.22,53.47,53.47,0,0,0-2.06,14.06,83.18,83.18,0,0,0,1.44,14.33c.83,4.8,1.85,9.51,3.06,14.29a.7.7,0,0,1-1.34.37l0-.07c-1.39-4.62-2.65-9.41-3.7-14.19A86.27,86.27,0,0,1,237,44.18a56.43,56.43,0,0,1,1.52-14.93,74.43,74.43,0,0,1,4.95-14.15,2,2,0,0,1,3.64,1.67.16.16,0,0,1,0,.07Z"/></g></g></svg>