<svg xmlns="http://www.w3.org/2000/svg" viewBox="0 0 536.1 357.4"><defs><style>.cls-1{fill:#ddd;}.cls-2{fill:#262626;}.cls-3{fill:#3a3a3a;}.cls-4{fill:#565656;}.cls-5{fill:#6d6d6d;}.cls-6{fill:#6e81f4;}.cls-7{fill:#fff;}.cls-8{fill:#efefef;}.cls-9{fill:#8e8e8e;}.cls-10{fill:#4c4c4c;}.cls-11{fill:#c1c1c1;}.cls-12{fill:#e8e8e8;}.cls-13{fill:#ffd230;}</style></defs><title>Ignis</title><g id="Layer_2" data-name="Layer 2"><g id="Layer_1-2" data-name="Layer 1"><path class="cls-1" d="M362.28,130.48s.79,13.81-2.63,21.27c0,0-9.08.39-11.09-4.87,0,0-5.37-18.83,8.63-34.35Z"/><path d="M359.08,154.26c-2.54,0-10.56-.49-12.86-6.49a1.59,1.59,0,0,1-.07-.2c-.23-.83-5.57-20.36,9.18-36.71a2.5,2.5,0,0,1,4.26,1l5.1,18a2.54,2.54,0,0,1,.09.54c0,.59.78,14.51-2.86,22.45a2.5,2.5,0,0,1-2.16,1.46Zm-8.15-8.17c1,2.23,4.7,2.94,7,3.12,2.23-6.47,1.91-16.56,1.83-18.32l-3.68-13C347.32,130.78,350.58,144.73,350.93,146.09Z"/><path class="cls-2" d="M164.93,113.17s11.9,6,18.37,15c-29.5,2.17-51.47,24.06-57.39,53.11h0l0,.17-.09.43c-.08.44-.2,1.11-.34,2s-.26,1.6-.37,2.41c-1.85,12.72-5,46.66,10,65a67.58,67.58,0,0,1,1-15.18c7.62,9.27,16.07,13,16.07,27.88,0,24-36,27-36,3,0,0-10,40,37,40a74.23,74.23,0,0,0,13.15-1.13,32.05,32.05,0,0,1-12.77,10.7c39.49,0,48.18-31,50.09-44.83a40.88,40.88,0,0,0,.53-6c0-.34,0-.53,0-.53h0a44.91,44.91,0,0,0-8-25.24c-12.91-19-14-83,41-58l10-14S228.91,113.17,164.93,113.17Z"/><path d="M153.52,319a2.5,2.5,0,0,1-.92-4.82,28,28,0,0,0,7.42-5c-2.25.2-4.55.29-6.88.29-15.73,0-27.11-4.36-33.82-12.95-9.84-12.6-5.78-29.44-5.6-30.16a2.5,2.5,0,0,1,4.92.61c0,4.5,1.45,8.18,4.19,10.65a14.24,14.24,0,0,0,9.64,3.42c8.32,0,17.17-6,17.17-17.07,0-10.21-4.3-14.56-9.74-20.07-.69-.69-1.38-1.4-2.08-2.12a61.43,61.43,0,0,0-.22,9.3,2.5,2.5,0,0,1-4.43,1.77c-15.56-19-12.57-53.12-10.57-66.93.11-.82.24-1.65.38-2.47s.27-1.57.36-2l.12-.64,0-.16c6.08-29.53,27.36-50.43,54.91-54.44a60.81,60.81,0,0,0-14.59-10.76,2.5,2.5,0,0,1,1.12-4.74c34,0,55.14,15.34,66.94,28.2,12.77,13.93,17.45,27.71,17.65,28.29a2.52,2.52,0,0,1-.34,2.24l-10,14a2.51,2.51,0,0,1-3.07.83C219,176.45,206,177,198.57,185.84c-11,13.1-8.12,41.27-.36,52.71a47.21,47.21,0,0,1,8.44,26.64h0q0,.31,0,.6a43.13,43.13,0,0,1-.56,6.31C204.13,286.16,195.09,319,153.52,319Zm12.77-15.7a2.51,2.51,0,0,1,2,4,36.72,36.72,0,0,1-5.47,6.07c29.71-4.49,36.66-30.31,38.28-42a37.56,37.56,0,0,0,.51-5.66c0-.32,0-.48,0-.5a42.46,42.46,0,0,0-7.57-23.84c-8.58-12.63-12.15-43.54.66-58.74,6.15-7.28,18.31-13.71,41.55-3.77l8.05-11.26A85.91,85.91,0,0,0,228,142.1c-14.14-15.35-32.17-24.07-53.7-26a48.91,48.91,0,0,1,11,10.6,2.49,2.49,0,0,1-1.85,3.95c-27.57,2-49.21,22.1-55.12,51.12a.35.35,0,0,1,0,.13l-.08.46c-.08.39-.19,1-.33,1.9s-.26,1.56-.37,2.35c-1.69,11.63-4.15,38.32,5.15,56.39a66.34,66.34,0,0,1,.91-7.36,2.52,2.52,0,0,1,1.84-2,2.48,2.48,0,0,1,2.55.84c1.79,2.17,3.65,4,5.45,5.87,5.76,5.83,11.19,11.32,11.19,23.59,0,14.34-11.42,22.07-22.17,22.07a19.22,19.22,0,0,1-13-4.71,16,16,0,0,1-1.47-1.5,26.9,26.9,0,0,0,5.27,13.64c5.72,7.3,15.76,11,29.86,11a72.29,72.29,0,0,0,12.71-1.09A2.12,2.12,0,0,1,166.29,303.32Z"/><path class="cls-1" d="M247.14,168s18.27,4.06,23.57,18.34l-10.46,12.28s-18.49.06-23.11-16.62C237.14,182,237.34,170.45,247.14,168Z"/><path d="M260.25,201.07c-.28,0-20.46-.18-25.52-18.45a2.82,2.82,0,0,1-.09-.71c.08-4.64,2.67-14,11.89-16.38a2.4,2.4,0,0,1,1.16,0c.8.18,19.65,4.54,25.37,19.91a2.51,2.51,0,0,1-.45,2.49l-10.46,12.28a2.48,2.48,0,0,1-1.9.88Zm-20.59-19.41c3.61,12.21,15.71,14.08,19.47,14.36l8.69-10.19c-4.8-10.5-17.74-14.51-20.64-15.29C240.69,172.6,239.78,180,239.66,181.66Z"/><path class="cls-3" d="M403.16,108.78s-21.85-10-20.22-21.94S386.41,54,395,43.07c5.23-6.69,13.51-10.27,16.08-6.89a49.81,49.81,0,0,1,8.86,38.55C415.81,97.38,403.16,108.78,403.16,108.78Z"/><path d="M403.61,111.74l-1.5-.69c-2.41-1.11-23.47-11.21-21.65-24.55.17-1.24.34-2.57.52-4,1.57-12.2,3.93-30.65,12-41,4.23-5.42,10.47-9.2,15.08-9.14a6,6,0,0,1,5,2.27,52.57,52.57,0,0,1,9.33,40.52c-4.2,23.22-17,35-17.54,35.45ZM408,37.39c-2.67,0-7.53,2.69-11.07,7.22-7.24,9.25-9.5,26.88-11,38.54-.18,1.43-.36,2.78-.53,4-1,7.54,10.91,15.33,17.23,18.56,3.11-3.38,11.65-14,14.81-31.45a47.46,47.46,0,0,0-8.39-36.6c-.2-.26-.72-.3-1-.3Z"/><path class="cls-4" d="M341.34,265.9s3.7,71.8,6,81c2,8-4,8-4,8h-57v-97h55Z"/><path d="M343.34,357.4h-59.5v-102h60v10.44c1.28,24.77,4.15,73.37,5.93,80.45.89,3.59.54,6.45-1,8.48A7.14,7.14,0,0,1,343.34,357.4Zm-54.5-5h54.5a2.19,2.19,0,0,0,1.46-.73c.56-.75.6-2.22.12-4.16C342.58,338.18,339,269,338.84,266V260.4h-50Z"/><path class="cls-4" d="M362.36,266.79s-14,32-14,60,6,28,6,28h45v-87Z"/><path d="M401.86,357.29h-47.5c-3.17,0-8.5-4-8.5-30.5,0-28.2,13.63-59.67,14.21-61l.68-1.54,41.11,1.11Zm-47-5h42V270.23L364,269.34c-2.73,6.67-13.15,33.74-13.15,57.45C350.86,347.28,354.14,351.59,354.86,352.29Z"/><path class="cls-5" d="M502.15,119.65c-1.45-2.56-14.09-6-21.42-10-6.26-3.41-7.2-19.7-10.28-28.69-2-6-7.84-8.92-7.84-8.92l-70.4-11.25S380.53,81,378.43,89.4c-11.86,47.43-4.94,95.34-4.77,96.25-36,.91-74.12-23.57-104.45,1.16-6.94,5.65-12,16-12,35s4,25,4,35a16.64,16.64,0,0,1-5.56,12.92A4.81,4.81,0,0,0,254,273c-.52,6.12-2,23.78-2.81,36.8-1,16-.84,44.95,5,45,4.77,0,45.78.18,50,0,5-.22-5-7-5-46s2-50,2-50,35.09,8.4,47,10c8.55,1.15,28.63,2.09,41.18,2.6.54,24.57,2.49,83.4,8.82,83.4h41s7,0,6-4c-1.21-4.83-12.43-45-13-86.86,3.66-5.5,8-15.16,8-30.14,0-25.75-10.78-36.8-4.19-71,26.3-1.47,57.72-4.85,59.7-13.75C501.72,131.05,503.54,122.08,502.15,119.65Z"/><path d="M290,357.4c-13.54,0-30.86-.07-33.84-.09a4.49,4.49,0,0,1-3.32-1.56c-6.52-7-4.26-44.51-4.16-46.1.81-12.89,2.24-30.07,2.82-36.86a7.31,7.31,0,0,1,2.49-5,14.16,14.16,0,0,0,4.69-11,54.67,54.67,0,0,0-1.48-11.26,107.11,107.11,0,0,1-2.52-23.74c0-17.77,4.22-29.85,12.92-36.94,20.83-17,45.35-11.75,69.07-6.7,11.26,2.4,22.88,4.88,34.11,5-1.35-11.17-5.22-52.72,5.19-94.38,2.17-8.67,13.56-28.4,14-29.24l.86-1.48,72.49,11.58.35.18c.27.14,6.73,3.48,9.08,10.33a96.8,96.8,0,0,1,2.58,10.31c1.44,6.78,3.24,15.22,6.52,17a101.56,101.56,0,0,0,10.82,4.69c6.78,2.64,10.38,4.12,11.59,6.25h0c1.74,3.06.67,9.4-4.17,31.19-1.27,5.69-9.28,12.58-60,15.58C436.66,184.59,439,196,441.48,208c1.59,7.71,3.23,15.67,3.23,25.82,0,15-4.24,25-8,30.87.29,17.76,2.72,46.56,12.52,84.07.16.64.29,1.12.37,1.45a4.86,4.86,0,0,1-.84,4.3c-2.08,2.67-6.68,2.81-7.58,2.81h-41c-3.53,0-6.64-2.62-9.08-34.8-1.28-17-1.91-37-2.19-48.7-12-.5-30.82-1.42-39.07-2.53-10.09-1.35-36-7.39-44.54-9.4-.56,5.17-1.62,18.71-1.62,46.93,0,23.34,3.61,34.89,5.35,40.43,1,3.18,1.55,4.94.42,6.55a3.81,3.81,0,0,1-3.16,1.51C304.7,357.38,298,357.4,290,357.4Zm-33.56-5.09c5.27,0,40.27.16,48.32,0-.15-.5-.33-1.06-.5-1.6-1.81-5.79-5.58-17.82-5.58-41.93,0-38.78,2-50,2-50.45l.47-2.6,2.57.62c.35.08,35.1,8.38,46.75,9.95,8.61,1.16,29.35,2.11,40.95,2.58l2.35.09.05,2.35c1.19,54.33,4.41,77.38,6.91,81h40.41a7.6,7.6,0,0,0,3.59-.82s0-.05,0-.08l-.36-1.39C434.36,311.48,432,282,431.73,264v-.78l.43-.64c3.45-5.19,7.56-14.39,7.56-28.76,0-9.64-1.52-17-3.13-24.81-2.54-12.35-5.17-25.12-1-46.67l.37-1.92,1.95-.11c51.47-2.88,56.94-9.75,57.4-11.79,2.49-11.21,5.58-25.13,4.72-27.58-1-1-5.65-2.77-9.08-4.11a105.25,105.25,0,0,1-11.39-5c-5.3-2.88-7.19-11.76-9-20.34a89.07,89.07,0,0,0-2.42-9.73c-1.43-4.18-5.22-6.68-6.32-7.33L393.52,63.55c-2.7,4.77-11,19.75-12.67,26.46-11.81,47.24-4.81,94.76-4.73,95.22l.47,2.84-2.87.08c-12.68.32-25.58-2.43-38.06-5.09-23.61-5-45.9-9.78-64.88,5.68-7.35,6-11.07,17.12-11.07,33.07a101.57,101.57,0,0,0,2.42,22.75,58,58,0,0,1,1.58,12.25,19.07,19.07,0,0,1-6.42,14.81,2.34,2.34,0,0,0-.78,1.6c-.58,6.77-2,23.9-2.81,36.74C252.34,331.67,254,350,256.47,352.31Z"/><path class="cls-6" d="M406.45,101a27.83,27.83,0,0,1,22.1-11.16c14.61,0,29.11,11.77,29.11,11.77s2.61,27.41-3.92,41.57a113,113,0,0,1-26.62,3.69,39.45,39.45,0,0,1-22.45-7S400.62,117.73,406.45,101Z"/><path class="cls-6" d="M403.3,145.89a36.46,36.46,0,0,0,11.47,4.9l-1.43,6.87s-9.53,1.15-13.1-3.3S403.3,145.89,403.3,145.89Z"/><ellipse class="cls-7" cx="429.71" cy="118.81" rx="14.88" ry="18.6" transform="translate(-11.87 57.35) rotate(-7.53)"/><path d="M430.54,139.86A16.25,16.25,0,0,1,419.27,135a24.5,24.5,0,0,1-3.86-29.18,15.38,15.38,0,0,1,24.73-3.27A24.5,24.5,0,0,1,444,131.76a15.89,15.89,0,0,1-11.53,8A15.64,15.64,0,0,1,430.54,139.86Zm-1.69-37.1a10.66,10.66,0,0,0-1.26.08,11,11,0,0,0-7.9,5.6,19.52,19.52,0,0,0,3,23,10.4,10.4,0,0,0,17-2.24,18.51,18.51,0,0,0,2.26-12h0a18.59,18.59,0,0,0-5.3-11A11.35,11.35,0,0,0,428.85,102.76Z"/><ellipse cx="431.17" cy="117.77" rx="9.31" ry="11.63" transform="matrix(0.99, -0.13, 0.13, 0.99, -11.72, 57.53)"/><path d="M499.2,140.2a15,15,0,0,0-5.54.29c-2.64.65-5.79,2.15-5.72,3.08,0,.56,1.24.64,5.68,1.42,2,.36,3.63.67,4.69.88Z"/><path class="cls-2" d="M533.6,94.94s-11-61.22-62.12-53.91c0,0,2.48-6.14,14.12-10.25,0,0-29.94-14.74-64.86,1.15,0,0,1.16-5.29,10.43-13,0,0-16.89-1.3-32.55,14.38a20.15,20.15,0,0,0-11.22-8.94c1.25,11.66.85,19.25.05,24.06q-.78,1.41-1.53,2.91c-18.25,36.44,9.14,30.36,9.14,30.36s9.27,12.83,33.15,12.83,35.41-2.44,42.18,6.48a18.17,18.17,0,0,0-.83-17.35S500.09,75.33,533.6,94.94Z"/><path d="M470.39,103.49a2.51,2.51,0,0,1-2-1c-4.69-6.17-12.33-6-27.57-5.66-3.73.08-7.95.17-12.62.17-20.71,0-31-9.23-34.15-12.64-3.16.39-10.36.63-14.35-4.48-4.47-5.73-3.17-15.44,4-29.69.42-.83.87-1.69,1.37-2.61.91-5.86.87-13.58-.14-23a2.53,2.53,0,0,1,.87-2.17,2.48,2.48,0,0,1,2.27-.51,22.79,22.79,0,0,1,11,7.5c15.63-14.12,31.62-13.08,32.33-13a2.5,2.5,0,0,1,1.41,4.41,47.09,47.09,0,0,0-6.1,6c32.48-11.53,58.85,1.11,60,1.69a2.52,2.52,0,0,1,1.4,2.39,2.49,2.49,0,0,1-1.67,2.21A30.59,30.59,0,0,0,477.34,38c19.18-.77,35.17,8.1,46.49,25.92a94.67,94.67,0,0,1,12.23,30.59,2.49,2.49,0,0,1-3.72,2.6,89.93,89.93,0,0,0-59.06-11.65,20.82,20.82,0,0,1-.69,16.75,2.52,2.52,0,0,1-2,1.3ZM449.08,91.72c9,0,15.46.75,20.29,4.63A15.16,15.16,0,0,0,467.44,85a2.49,2.49,0,0,1,1.46-3.73c1.23-.34,29-7.59,60.94,8.78a90,90,0,0,0-10.31-23.55c-11.54-18.11-27.59-25.83-47.7-23a2.5,2.5,0,0,1-2.67-3.41c.24-.61,2.28-5.15,9.84-9.17a79.54,79.54,0,0,0-57.22,3.28,2.51,2.51,0,0,1-3.48-2.82c.1-.48,1-4,5.93-9.36a45.87,45.87,0,0,0-23.84,13,2.49,2.49,0,0,1-3.94-.54,17.18,17.18,0,0,0-6.16-6.14,86.55,86.55,0,0,1-.37,20.44,2.54,2.54,0,0,1-.28.8c-.5.91-1,1.85-1.49,2.82-5.93,11.84-7.53,20.49-4.5,24.37s10.8,2.45,10.87,2.43a2.5,2.5,0,0,1,2.57,1c.35.48,9,11.8,31.12,11.8,4.61,0,8.81-.09,12.51-.17C443.73,91.78,446.5,91.72,449.08,91.72Z"/><path class="cls-2" d="M388.17,101.35s-16.74,15.41-16.74,41.83c0,0-15.81-14.06-15.81-40.42S371.9,64,371.9,64Z"/><path d="M371.43,145.68a2.49,2.49,0,0,1-1.66-.64c-.68-.6-16.65-15.11-16.65-42.28s16.56-40.17,17.26-40.71a2.52,2.52,0,0,1,3.81,1l16.27,37.31a2.5,2.5,0,0,1-.59,2.84,58,58,0,0,0-15.94,40,2.52,2.52,0,0,1-1.47,2.28A2.65,2.65,0,0,1,371.43,145.68ZM371,68.28c-4.3,4.52-12.9,15.87-12.9,34.48a56.36,56.36,0,0,0,11.11,34.13,62.67,62.67,0,0,1,16-36.1Z"/><path class="cls-5" d="M399.21,84.81c7-28-12-46-15-49s-10.73,1.67-15,9c-7,12-5.83,33-6,45s21,18,21,18l16.53-2.07Z"/><path d="M384.21,110.31a2.35,2.35,0,0,1-.69-.1c-.94-.27-23-6.74-22.81-20.44,0-1.67,0-3.51,0-5.49,0-12.59,0-29.83,6.33-40.73,3.46-5.94,9.09-10.5,13.7-11.1A6,6,0,0,1,386,34l.24.24c14.57,14.46,20.05,32.62,15.42,51.13-.33,1.34-2.58,6.23-3.92,5.9s-1.26-5.77-.93-7.11C401,67.47,396,51,382.69,37.83l-.25-.25a1.42,1.42,0,0,0-1.05-.17c-2.65.34-7.12,3.68-10,8.66-5.68,9.73-5.66,26.19-5.65,38.21,0,2,0,3.87,0,5.56-.11,8.23,13.88,13.82,19.19,15.56,5.82,1.91,6.82,16.91,6.82,16.91S385.29,110.31,384.21,110.31Z"/><path d="M384.33,35.77A71.16,71.16,0,0,0,379,49,53.46,53.46,0,0,0,377,63a82.31,82.31,0,0,0,1.44,14.34c.83,4.79,1.85,9.51,3.06,14.29a.7.7,0,0,1-1.34.37l0-.07c-1.39-4.62-2.65-9.41-3.7-14.2a86.13,86.13,0,0,1-2.14-14.69,56.35,56.35,0,0,1,1.52-14.92A74.19,74.19,0,0,1,380.74,34a2,2,0,1,1,3.64,1.67l0,.07Z"/><path class="cls-8" d="M358.63,194.67c-35.46-13.51-66.65-1.24-66.65-1.24,2.51,4,5,4.76,5.89,4.91-15.38-2.27-29.14,8.66-29.14,8.66,3.09,2.47,9.3,4.94,9.3,4.94-18.61,2.47-26.36,11.1-26.36,11.1,35.66,18.51,85.26,6.17,85.26,6.17S402.28,211.3,358.63,194.67Z"/><path d="M300.22,235.79c-15.69,0-33.92-2.34-49.7-10.53a2.53,2.53,0,0,1-1.31-1.77,2.56,2.56,0,0,1,.6-2.12c.3-.32,6.4-7,20.3-10.47a22.7,22.7,0,0,1-2.94-1.94,2.5,2.5,0,0,1,0-3.91c.5-.4,10.51-8.23,23.29-9.39q-.3-.42-.6-.9a2.49,2.49,0,0,1,1.2-3.65c1.31-.52,32.51-12.48,68.46,1.22,11.47,4.37,16.91,9.33,16.63,15.18-.64,13.06-32.23,22.38-38.56,24.11A168.85,168.85,0,0,1,300.22,235.79Zm-44-13.32c34.1,15.44,79.64,4.43,80.11,4.31,14.22-3.9,34.49-12.55,34.82-19.51.16-3.27-4.6-6.91-13.41-10.27-27.61-10.51-52.76-4.92-61.54-2.32a4.55,4.55,0,0,0,2.08,1.19,2.5,2.5,0,0,1-.78,4.94c-10.05-1.49-19.58,3.26-24.24,6.13a61.14,61.14,0,0,0,5.69,2.68,2.5,2.5,0,0,1-.59,4.8C266.89,215.94,259.76,219.93,256.22,222.47Z"/><path class="cls-8" d="M388.17,211.65c0,24.11-28.49,26.3-37.26,26.3S318,238,318,231.38s28.5-11,28.5-11-19.73,0-19.73-8.77,19.73-11,19.73-11S340,198.5,340,191.92,388.17,170,388.17,211.65Z"/><path d="M350.91,240.45c-21.24,0-35.39-1.54-35.39-9.07,0-4.93,8.08-8.38,16.88-10.67-4.4-1.6-8.11-4.34-8.11-9.06,0-7.36,9.32-10.84,15.88-12.37a10.85,10.85,0,0,1-2.72-7.36c0-5.8,13.7-10.76,24.91-10.76,7.8,0,14.47,2.23,19.28,6.44,6,5.25,9,13.34,9,24.05C390.67,232.89,370.13,240.45,350.91,240.45Zm-30.39-9s.86,2.08,10.94,3.24a181,181,0,0,0,19.45.8c8.15,0,34.76-1.71,34.76-23.8,0-14-5.54-22.28-16.46-24.76-12.37-2.81-25.37,3-26.76,5.25.14,4.48,4.68,6.11,4.88,6.18a2.5,2.5,0,0,1-.53,4.85c-5.71.64-17.51,3.56-17.51,8.48,0,4.69,11.83,6.27,17.23,6.27a2.5,2.5,0,0,1,.38,5c-13.19,2-25.76,6.09-26.38,8.52Z"/><path class="cls-2" d="M360.47,151.22s18.84,16.21,21.2,51.68-28.56,69.93,11.39,98.2c0,0-58-21.48-63.58-75.42-2.15-20.69-3.6-46.82,19.23-77.38l.07,0a25,25,0,0,0,11.69,2.88Z"/><path d="M393.06,303.6a2.61,2.61,0,0,1-.87-.15,122,122,0,0,1-30.37-17.88c-20.42-16.27-32.46-36.9-34.83-59.63-2.33-22.4-2.92-48.84,19.71-79.13a2.51,2.51,0,0,1,3.17-.72,22.71,22.71,0,0,0,10.55,2.63h.05a2.52,2.52,0,0,1,1.63.6c.8.69,19.66,17.31,22.07,53.42.79,11.94-2,23.62-4.76,34.92C373.8,260.91,369,281,394.5,299.06a2.5,2.5,0,0,1-1.44,4.54ZM349.49,151.45c-20.32,28.13-19.81,52-17.52,74,3.58,34.43,29.59,55.42,46.75,65.68-13.21-17.17-8.63-36.14-4.17-54.61,2.64-10.93,5.37-22.24,4.63-33.42-2-30.28-16.53-46.2-19.73-49.37A27.63,27.63,0,0,1,349.49,151.45Z"/><path d="M485.87,122.06s6-1,8,1,1.6,3.33,1.36,3.58-2.12,2-4.8.11A21.62,21.62,0,0,1,485.87,122.06Z"/><path class="cls-9" d="M78.66,169.07s.71-8.07-3.09-14.25-51.81-36-51.81-36S29.47,130.6,28,139.86c0,0-7.6-2.23-20.43,4.7,0,0-11.41,33.07,0,65.39l14.73-2.1L4.75,236.33s18.06.23,30.42-11.65l5.45,9.5s21.6-23.36,28-34.49S78.66,169.07,78.66,169.07Z"/><path d="M4.87,238.83H4.72A2.49,2.49,0,0,1,2.63,235l14.78-23.94L8,212.42a2.5,2.5,0,0,1-2.71-1.64c-11.56-32.77-.48-65.65,0-67a2.53,2.53,0,0,1,1.18-1.39c9-4.87,15.74-5.48,19.35-5.31.14-7.93-4.21-17.06-4.26-17.16a2.5,2.5,0,0,1,3.57-3.21c8.1,5,48.7,30.47,52.61,36.83,4.19,6.8,3.49,15.42,3.46,15.78a1.85,1.85,0,0,1,0,.23c-.14.81-3.71,20-10.29,31.42s-27.47,34-28.36,34.94a2.5,2.5,0,0,1-4-.45l-3.92-6.85C22.28,238.54,6.65,238.83,4.87,238.83Zm17.47-33.48a2.51,2.51,0,0,1,2.13,3.82l-15,24.31c5.9-.77,16.23-3.15,24-10.6a2.46,2.46,0,0,1,2.08-.68,2.53,2.53,0,0,1,1.82,1.23L41.08,230c5.71-6.31,20.41-22.88,25.41-31.52,5.87-10.16,9.36-28,9.68-29.69.06-.92.35-7.61-2.73-12.62-2.27-3.69-26.45-19.72-44.68-31.24,1.36,4.4,2.55,10.17,1.75,15.35a2.5,2.5,0,0,1-3.17,2s-6.6-1.67-17.66,4C8,151.66.39,179.65,9.31,207.18L22,205.38A2.07,2.07,0,0,1,22.34,205.35Z"/><path class="cls-10" d="M78.66,169.07s18.26,4.06,23.56,18.34L91.76,199.69s-18.49.06-23.1-16.62C68.66,183.07,68.85,171.57,78.66,169.07Z"/><path d="M91.76,202.19c-.28,0-20.46-.18-25.51-18.45a2.13,2.13,0,0,1-.09-.71c.08-4.64,2.66-14,11.88-16.38a2.4,2.4,0,0,1,1.16,0c.8.18,19.66,4.53,25.37,19.9a2.54,2.54,0,0,1-.44,2.5L93.66,201.31a2.52,2.52,0,0,1-1.9.88ZM71.17,182.78c3.59,12.11,15.75,14,19.48,14.35L99.33,187c-4.8-10.5-17.74-14.51-20.64-15.29C72.2,173.72,71.29,181.12,71.17,182.78Z"/><path class="cls-11" d="M234,108.78s-21.85-10-20.22-21.94,3.47-32.83,12-43.77c5.22-6.69,13.51-10.27,16.08-6.89a49.81,49.81,0,0,1,8.86,38.55C246.69,97.38,234,108.78,234,108.78Z"/><path d="M234.49,111.74l-1.5-.69c-2.41-1.11-23.47-11.21-21.65-24.55.17-1.24.34-2.57.52-4,1.57-12.2,3.93-30.65,12-41,4.23-5.42,10.47-9.2,15.08-9.14a6,6,0,0,1,5,2.27,52.57,52.57,0,0,1,9.33,40.52c-4.2,23.22-17,35-17.54,35.45Zm4.4-74.35c-2.67,0-7.53,2.69-11.07,7.22-7.24,9.25-9.5,26.88-11,38.54-.18,1.43-.36,2.78-.53,4-1,7.54,10.91,15.33,17.23,18.56,3.11-3.38,11.65-14,14.81-31.45a47.46,47.46,0,0,0-8.39-36.6c-.2-.26-.72-.3-1-.3Z"/><path class="cls-11" d="M172.22,265.9s3.7,71.8,6,81c2,8-4,8-4,8h-57v-97h55Z"/><path d="M174.22,357.4h-59.5v-102h60v10.44c1.28,24.77,4.15,73.37,5.93,80.45.89,3.59.54,6.45-1.05,8.48A7.14,7.14,0,0,1,174.22,357.4Zm-54.5-5h54.5a2.19,2.19,0,0,0,1.46-.73c.56-.75.6-2.22.12-4.16-2.34-9.33-5.92-78.54-6.08-81.48V260.4h-50Z"/><path class="cls-11" d="M193.24,266.79s-14,32-14,60,6,28,6,28h45v-87Z"/><path d="M232.74,357.29h-47.5c-3.17,0-8.5-4-8.5-30.5,0-28.2,13.63-59.67,14.21-61l.68-1.54,41.11,1.11Zm-47-5h42V270.23l-32.85-.89c-2.73,6.67-13.15,33.74-13.15,57.45C181.74,347.28,185,351.59,185.74,352.29Z"/><path class="cls-12" d="M333.08,106.81c-1.41-7.07-37-22-37-22l-73-24S211.41,81,209.31,89.4a236.16,236.16,0,0,0-5.72,81.83,5,5,0,0,1-4.6,5.55c-21.68,1.6-92.28,6.72-98.91,10-8,4-12,16-12,35s4,25,4,35a16.61,16.61,0,0,1-5.54,12.91A4.89,4.89,0,0,0,84.9,273c-.53,6.14-2,23.78-2.82,36.8-1,16-.83,44.95,5,45,4.78,0,45.79.18,50,0,5-.22-5-7-5-46s2-50,2-50,35.1,8.4,47,10c8.56,1.15,28.64,2.09,41.19,2.6.54,24.57,2.49,83.4,8.81,83.4h41s7,0,6-4c-1.2-4.83-12.42-45-13-86.86,3.66-5.5,8-15.16,8-30.14,0-25.75-10.77-36.8-4.18-71,26.3-1.47,60.21-5.1,62.18-14C335.08,130.81,335.08,116.81,333.08,106.81Z"/><path d="M120.91,357.4c-13.54,0-30.86-.07-33.85-.09a4.5,4.5,0,0,1-3.31-1.55c-6.52-7-4.26-44.52-4.16-46.11.8-12.79,2.23-30,2.81-36.85a7.37,7.37,0,0,1,2.5-5,14.16,14.16,0,0,0,4.68-11,54.66,54.66,0,0,0-1.47-11.26,107,107,0,0,1-2.53-23.74c0-20.27,4.51-32.8,13.39-37.24,4.75-2.38,34.94-5.5,97.89-10.14l1.95-.14a2.49,2.49,0,0,0,2.29-2.77,239,239,0,0,1,5.78-82.73c2.17-8.67,13.56-28.4,14-29.24l1-1.75,75.11,24.7c11.07,4.65,37,16.26,38.49,23.82h0c2.34,11.7,1.64,26.58-2,43-1.16,5.19-8.77,8.91-24,11.7A332.8,332.8,0,0,1,271,165.18c-3.46,19.41-1.12,30.79,1.36,42.81,1.58,7.71,3.22,15.67,3.22,25.82,0,15-4.23,25-8,30.87.29,17.76,2.72,46.55,12.51,84.06.17.64.3,1.13.38,1.46a4.89,4.89,0,0,1-.84,4.3c-2.08,2.67-6.68,2.81-7.59,2.81h-41c-3.52,0-6.63-2.62-9.07-34.8-1.28-17-1.91-37-2.19-48.7-12-.5-30.82-1.42-39.07-2.53-10.09-1.35-36-7.39-44.54-9.4-.56,5.17-1.63,18.71-1.63,46.93,0,23.34,3.62,34.89,5.36,40.43,1,3.18,1.55,4.94.42,6.55a3.82,3.82,0,0,1-3.17,1.51C135.58,357.38,128.9,357.4,120.91,357.4Zm-33.56-5.09c5.27,0,40.27.17,48.31,0-.14-.5-.32-1.06-.49-1.6-1.81-5.79-5.59-17.82-5.59-41.93,0-38.78,2-50,2-50.45l.48-2.6,2.57.62c.35.08,35.1,8.38,46.75,9.95,8.61,1.16,29.35,2.11,41,2.58l2.35.09.05,2.35c1.19,54.34,4.41,77.38,6.91,81h40.4a7.53,7.53,0,0,0,3.59-.82.25.25,0,0,0,0-.08c-.08-.31-.2-.79-.36-1.4-10.06-38.55-12.45-68.06-12.69-86v-.78l.43-.64c3.45-5.18,7.55-14.38,7.55-28.76,0-9.64-1.51-17-3.12-24.81-2.54-12.35-5.17-25.12-1-46.67l.37-1.92,1.95-.11c55.14-3.08,59.56-10.57,59.88-12,4.43-19.94,3.53-33.28,2-41-.68-3.15-16.89-12.36-35.42-20.15l-71-23.33c-2.85,5.05-10.87,19.6-12.52,26.19a233.66,233.66,0,0,0-5.66,80.93,7.39,7.39,0,0,1-1.66,5.63,7.51,7.51,0,0,1-5.24,2.71l-1.95.14c-59.74,4.4-92,7.64-96,9.62-6.94,3.48-10.62,14.81-10.62,32.77A101.45,101.45,0,0,0,93,244.56a58.68,58.68,0,0,1,1.57,12.25,19.08,19.08,0,0,1-6.4,14.8,2.35,2.35,0,0,0-.79,1.62c-.58,6.8-2,24-2.81,36.73C83.22,331.66,84.91,350,87.35,352.31Z"/><path class="cls-13" d="M236.64,100.57a27.85,27.85,0,0,1,22.1-11.15c14.61,0,29.11,11.76,29.11,11.76s2.61,27.42-3.92,41.57a112.74,112.74,0,0,1-26.62,3.7,39.41,39.41,0,0,1-22.45-7S230.82,117.31,236.64,100.57Z"/><path class="cls-13" d="M230.24,120.88s-6.88-5.53-8.86,1.72,4,18.19,4,18.19L232,138.1A70.31,70.31,0,0,1,230.24,120.88Z"/><ellipse class="cls-7" cx="260.58" cy="118.81" rx="14.88" ry="18.6" transform="translate(-13.32 35.18) rotate(-7.53)"/><path d="M261.42,139.86A16.25,16.25,0,0,1,250.15,135a24.5,24.5,0,0,1-3.86-29.18A15.38,15.38,0,0,1,271,102.58a24.5,24.5,0,0,1,3.86,29.18,15.34,15.34,0,0,1-13.46,8.1Zm-1.69-37.1a10.66,10.66,0,0,0-1.26.08,11,11,0,0,0-7.9,5.6,19.52,19.52,0,0,0,3,23,10.4,10.4,0,0,0,17-2.24,18.51,18.51,0,0,0,2.26-12h0a18.59,18.59,0,0,0-5.3-11A11.35,11.35,0,0,0,259.73,102.76Z"/><ellipse cx="262.05" cy="117.77" rx="9.31" ry="11.63" transform="matrix(0.99, -0.13, 0.13, 0.99, -13.17, 35.36)"/><path d="M313,110.2s6-1,8,1,1.6,3.32,1.35,3.57-2.11,2-4.79.11A21.37,21.37,0,0,1,313,110.2Z"/><path d="M333,138.88a15,15,0,0,0-5.53.3c-2.64.64-5.8,2.15-5.73,3.08.05.56,1.25.64,5.69,1.42,2,.36,3.63.67,4.69.88Z"/><path class="cls-9" d="M203.35,169.07S190,170.44,184,156.36h7.6l-8.67-9.27s-4.27-7.3-2.14-26.19h5.53l-5.17-6.06s.42-33.18,16.25-51.35l18.85,39.27S203.35,131.52,203.35,169.07Z"/><path d="M202.13,171.63c-5.66,0-15.54-2.88-20.44-14.28a2.5,2.5,0,0,1,2.29-3.49h1.84l-4.73-5.06a2,2,0,0,1-.33-.44c-.2-.33-4.68-8.25-2.47-27.75a2.49,2.49,0,0,1,2.48-2.21h.11l-1.65-1.94a2.5,2.5,0,0,1-.6-1.65c0-1.4.62-34.32,16.87-53a2.51,2.51,0,0,1,2.22-.83,2.47,2.47,0,0,1,1.91,1.39l18.85,39.27a2.49,2.49,0,0,1,0,2.1,178.16,178.16,0,0,0-12.66,65.29,2.5,2.5,0,0,1-2.24,2.49C203.15,171.6,202.66,171.63,202.13,171.63Zm-14-12.77a16.86,16.86,0,0,0,12.72,7.68,181.53,181.53,0,0,1,12.62-63.72L196.86,68.19c-11.41,15.92-13,40.7-13.2,45.76l4.54,5.32a2.51,2.51,0,0,1-1.9,4.13H183c-1.3,14.36,1.38,21,1.95,22.25l8.43,9a2.5,2.5,0,0,1-1.83,4.21Z"/><path class="cls-9" d="M226.22,79.37s12.3,12.12,29.94,12.12,41.74-5.9,41.74-5.9S327,88.23,337.67,97.76c0,0,.35-17.68-3.27-25.7l-7-5.64h7s-5-16.16-19.31-24.71L333,37.39s-17.94-23.48-62.61-13c0,0,1-14.2,7.62-21.86,0,0-28.14,1.53-39.35,42.3,0,0-8.19-10.52-9.26-20.32C229.43,24.48,211.61,44.8,226.22,79.37Z"/><path d="M337.66,100.26a2.53,2.53,0,0,1-1.66-.63c-9.31-8.3-34.44-11.16-37.93-11.52-3.39.82-25.24,5.88-41.91,5.88C237.7,94,225,81.68,224.46,81.15a2.41,2.41,0,0,1-.54-.8c-15-35.61,2.86-56.64,3.63-57.52a2.5,2.5,0,0,1,2.63-.73,2.46,2.46,0,0,1,1.73,2.11c.59,5.38,3.58,11.11,5.91,14.87C250.19,1.94,276.73.07,277.91,0a2.48,2.48,0,0,1,2.37,1.4,2.48,2.48,0,0,1-.34,2.73c-4.12,4.79-5.9,12.59-6.6,17,43.18-8.74,60.93,13.71,61.68,14.7a2.5,2.5,0,0,1-1.4,4l-12.56,3c11.35,9.18,15.53,22.22,15.72,22.83a2.5,2.5,0,0,1-2.3,3.25L336,70.11a2.68,2.68,0,0,1,.71.92c3.81,8.43,3.5,26,3.48,26.78a2.5,2.5,0,0,1-2.5,2.45ZM297.9,83.09h.23c1.08.1,24.09,2.27,37,9.8-.15-5.46-.73-14.24-2.77-19.28l-6.52-5.25a2.51,2.51,0,0,1,1.57-4.45h3.32c-2.21-4.94-7.43-14.38-16.92-20.07a2.5,2.5,0,0,1,.7-4.57L328.19,36c-6.41-5.69-24-16.95-57.2-9.18a2.51,2.51,0,0,1-3.07-2.62c0-.49.78-10,4.77-18-8.32,2.67-23.9,11.34-31.58,39.29a2.52,2.52,0,0,1-1.93,1.79,2.48,2.48,0,0,1-2.46-.92,58.56,58.56,0,0,1-8.44-15.63c-4.07,7.46-9.71,23.75,0,47.21C230.37,79.76,241.37,89,256.16,89c17.13,0,40.91-5.77,41.14-5.83A2.46,2.46,0,0,1,297.9,83.09Z"/><path class="cls-12" d="M230.08,84.81c7-28-12-46-15-49s-10.72,1.67-15,9c-7,12-5.82,33-6,45s21,18,21,18l14.53-4.2Z"/><path d="M215.09,110.31a2.35,2.35,0,0,1-.69-.1c-.94-.27-23-6.74-22.81-20.44,0-1.67,0-3.51,0-5.49,0-12.59,0-29.83,6.33-40.73,3.46-5.94,9.09-10.5,13.7-11.1A6,6,0,0,1,216.85,34l.24.24c14.57,14.46,20,32.62,15.42,51.13-.33,1.34-2.58,6.23-3.93,5.9s-1.26-5.77-.92-7.11c4.18-16.73-.82-33.2-14.09-46.37l-.25-.25a1.42,1.42,0,0,0-1-.17c-2.65.34-7.12,3.68-10,8.66-5.67,9.73-5.65,26.19-5.64,38.21,0,2,0,3.87,0,5.56-.11,8.23,13.88,13.82,19.19,15.56,5.81,1.91,6.81,16.91,6.81,16.91S216.17,110.31,215.09,110.31Z"/><path d="M215.21,35.77A71.16,71.16,0,0,0,209.91,49a53,53,0,0,0-2.06,14,82.31,82.31,0,0,0,1.44,14.34c.83,4.79,1.85,9.51,3.06,14.29A.7.7,0,0,1,211,92l0-.07c-1.4-4.62-2.65-9.41-3.7-14.2a85.14,85.14,0,0,1-2.14-14.69,56.35,56.35,0,0,1,1.52-14.92,74.19,74.19,0,0,1,5-14.15,2,2,0,1,1,3.64,1.67l0,.07Z"/><path class="cls-3" d="M178.38,197.76c-35.46-13.51-66.65-1.23-66.65-1.23,2.51,4,5,4.76,5.88,4.9-15.37-2.27-29.14,8.67-29.14,8.67,3.1,2.47,9.3,4.93,9.3,4.93-18.6,2.47-26.35,11.11-26.35,11.11,35.66,18.5,85.26,6.17,85.26,6.17S222,214.39,178.38,197.76Z"/><path d="M120,238.89c-15.69,0-33.92-2.34-49.7-10.53a2.5,2.5,0,0,1-.71-3.89c.3-.33,6.4-7,20.29-10.47a25.67,25.67,0,0,1-2.93-1.94,2.5,2.5,0,0,1,0-3.92c.5-.39,10.51-8.23,23.29-9.38-.2-.29-.4-.58-.6-.9a2.49,2.49,0,0,1-.26-2.11,2.52,2.52,0,0,1,1.46-1.55c1.31-.51,32.51-12.47,68.46,1.23h0c11.47,4.37,16.91,9.33,16.62,15.17-.63,13.07-32.22,22.38-38.55,24.12A169.54,169.54,0,0,1,120,238.89ZM76,225.56c34.1,15.45,79.66,4.44,80.13,4.32,14.22-3.9,34.49-12.56,34.82-19.52.16-3.26-4.61-6.91-13.41-10.26h0c-27.55-10.49-52.73-4.91-61.54-2.32A4.51,4.51,0,0,0,118,199a2.5,2.5,0,0,1-.77,4.94c-10.09-1.49-19.6,3.26-24.25,6.13a57.46,57.46,0,0,0,5.7,2.68,2.5,2.5,0,0,1-.6,4.8C86.54,219.05,79.45,223,76,225.56Z"/><path class="cls-3" d="M207.92,214.74c0,24.12-28.5,26.31-37.26,26.31s-32.89,0-32.89-6.58,28.5-11,28.5-11-19.73,0-19.73-8.77,19.73-11,19.73-11-6.58-2.19-6.58-8.77S207.92,173.09,207.92,214.74Z"/><path d="M170.66,243.55c-21.24,0-35.39-1.54-35.39-9.08,0-4.92,8.08-8.37,16.88-10.67-4.4-1.59-8.11-4.34-8.11-9.06,0-7.35,9.32-10.83,15.88-12.37a10.84,10.84,0,0,1-2.73-7.36c0-5.79,13.71-10.75,24.92-10.75,7.8,0,14.47,2.22,19.28,6.43,6,5.25,9,13.34,9,24.05C210.42,236,189.88,243.55,170.66,243.55Zm-30.39-9s.86,2.07,10.94,3.23a178.64,178.64,0,0,0,19.45.81c8.15,0,34.76-1.72,34.76-23.81,0-13.94-5.54-22.27-16.47-24.76-12.36-2.81-25.36,3-26.75,5.25.14,4.48,4.68,6.12,4.88,6.19a2.5,2.5,0,0,1-.53,4.85c-5.71.64-17.51,3.55-17.51,8.47,0,4.69,11.83,6.27,17.23,6.27a2.5,2.5,0,0,1,.38,5c-13.19,2-25.76,6.1-26.38,8.53Z"/></g></g></svg>