<svg xmlns="http://www.w3.org/2000/svg" viewBox="0 0 358.45 337.99"><defs><style>.cls-1{fill:#2f6ba7;}.cls-2{fill:#46659c;}.cls-3{fill:#bfbab4;}.cls-4{fill:#f5e8d5;}.cls-5{fill:#74b6d9;}.cls-6{fill:#e1477d;}.cls-7{fill:#fff;}.cls-8{fill:#73b7da;}</style></defs><title>Mixup</title><g id="Layer_2" data-name="Layer 2"><g id="Layer_1-2" data-name="Layer 1"><path class="cls-1" d="M129,172.49s-4-29-29-39-26-22-26-22-7,11,0,23c0,0-39-10-53,20s31,49,13,68-31-10-31-10-8,56,45,53,59-33,45-59,9-39,25-27Z"/><path d="M43.93,268.11c-13.83,0-24.64-4.15-32.18-12.36C-3.23,239.44.32,213.25.48,212.14a2.5,2.5,0,0,1,4.75-.67c.06.13,6.12,13.36,14.87,14.85,3.88.65,7.93-1.21,12-5.55,7-7.44,3-14.35-4.71-25.92-7.36-11-16.52-24.75-8.75-41.41,11.65-25,39.64-23.85,51-22.26a25.74,25.74,0,0,1,2.17-21,2.5,2.5,0,0,1,4.6,1.14c0,.06,1.55,10.73,24.44,19.88,26.05,10.42,30.37,39.74,30.55,41a2.49,2.49,0,0,1-1.14,2.45l-11,7a2.48,2.48,0,0,1-2.84-.11c-6.8-5.1-15.35-5.39-20.8-.7-5.86,5.05-6.05,14.21-.5,24.52,8,14.85,9,29.15,2.75,40.28-5.16,9.22-18,20.6-49.81,22.4C46.67,268.07,45.29,268.11,43.93,268.11ZM5,220.88c.11,8.57,1.8,22.15,10.41,31.51,7.21,7.85,18.11,11.42,32.36,10.61,23.39-1.33,39.2-8.19,45.73-19.85,5.36-9.58,4.37-22.18-2.79-35.47-6.74-12.52-6.13-24,1.64-30.68,6.84-5.89,17.17-6,25.63-.51l8.17-5.2c-1.25-6-7.08-27.44-27.17-35.48-15.11-6-21.94-13-25-17.85a19.85,19.85,0,0,0,2.12,15.27,2.5,2.5,0,0,1-2.78,3.69c-1.51-.39-37.17-9.11-50.11,18.63-6.59,14.11,1,25.5,8.37,36.52,7,10.54,14.31,21.44,4.17,32.14-5.32,5.62-10.88,8-16.5,7C13.09,230.2,8.24,225.28,5,220.88Z"/><path class="cls-2" d="M253.18,89.37S231.34,79.32,233,67.43s3.47-32.83,12-43.77c5.23-6.69,13.51-10.27,16.08-6.89a49.8,49.8,0,0,1,8.87,38.55C265.84,78,253.18,89.37,253.18,89.37Z"/><path d="M253.63,92.33l-1.5-.69c-2.4-1.11-23.47-11.21-21.65-24.55.17-1.23.34-2.57.53-4,1.56-12.2,3.93-30.64,12-41,4.24-5.42,10.47-9.2,15.08-9.14a6,6,0,0,1,5,2.28,52.52,52.52,0,0,1,9.34,40.51c-4.21,23.23-17,35-17.55,35.46ZM258,18c-2.68,0-7.54,2.69-11.08,7.22-7.24,9.25-9.5,26.88-11,38.54-.18,1.43-.35,2.78-.52,4-1,7.55,10.91,15.33,17.22,18.56,3.11-3.37,11.65-14,14.82-31.45a47.46,47.46,0,0,0-8.4-36.6c-.2-.26-.72-.3-1-.3Z"/><path class="cls-2" d="M156.45,309c9,7,11-4,23-7,5.82-1.45,11.41,1.1,15.62,4.1-1.88-24.27-3.71-59.6-3.71-59.6v-8h-55V309C141.85,306.19,149.94,303.93,156.45,309Z"/><path class="cls-3" d="M151.36,335.49h42s6,0,4-8c-.68-2.74-1.49-11.07-2.29-21.4-4.21-3-9.8-5.55-15.62-4.1-12,3-14,14-23,7-6.51-5.06-14.6-2.8-20.09,0v26.52Z"/><path class="cls-2" d="M151.45,312c5.21,3.72,0,11-4,8S144.45,307,151.45,312Z"/><path class="cls-2" d="M179.45,306c-3,3,0,7,3,5S182.45,303,179.45,306Z"/><path class="cls-2" d="M159.45,315c1.58,1.58,0,6-2,4S157.45,313,159.45,315Z"/><path d="M193.36,338h-59.5V236h60v10.44c1.28,24.77,4.16,73.37,5.93,80.46.9,3.58.54,6.44-1,8.48A7.14,7.14,0,0,1,193.36,338Zm-54.5-5h54.5a2.19,2.19,0,0,0,1.46-.73c.56-.74.6-2.22.12-4.16-2.33-9.33-5.92-78.54-6.07-81.48V241h-50Z"/><path class="cls-2" d="M209.45,290c14,2,9,14,19,14,9.51,0,8.18-11.75,20.94-12.9V248.38l-37-1s-9.3,21.25-12.74,44.26A16.77,16.77,0,0,1,209.45,290Z"/><path class="cls-3" d="M204.39,335.38h45V291.09C236.63,292.24,238,304,228.45,304c-10,0-5-12-19-14a16.77,16.77,0,0,0-9.8,1.65,107.7,107.7,0,0,0-1.26,15.74C198.39,335.38,204.39,335.38,204.39,335.38Z"/><path class="cls-2" d="M216.45,304c1.24,1.86-3,6-4,3S214.45,301,216.45,304Z"/><path class="cls-2" d="M222.3,307.82c3.27.86,2.62,9.79-1.52,7.4S217,306.42,222.3,307.82Z"/><path class="cls-2" d="M236.45,304c-2.55,2.55,1,7,4,5S240.45,300,236.45,304Z"/><path d="M251.89,337.88h-47.5c-3.18,0-8.5-4-8.5-30.5,0-28.19,13.62-59.67,14.2-61l.68-1.54L251.89,246Zm-47-5h42V250.82L214,249.93c-2.72,6.67-13.14,33.75-13.14,57.45C200.89,327.87,204.16,332.19,204.88,332.88Z"/><path class="cls-4" d="M276.45,305c-8,7-14-3-23-3-4.45,0-7.43,3.42-9.31,6.88,1.34,15,3.29,26.53,6.09,26.53h41s7,0,6-4a416.64,416.64,0,0,1-10-49.69h0C269.92,282.42,284.45,298,276.45,305Z"/><path class="cls-4" d="M132.45,299c-16,5-6-16-20-24a10.43,10.43,0,0,0-10.11-.33c-.41,5.33-.81,10.86-1.11,15.74-1,16-.83,45,5,45,4.77,0,45.78.19,50,0,4.81-.21-4.28-6.52-5-41.81C145.35,292.78,143.12,295.66,132.45,299Z"/><path class="cls-5" d="M135.75,305.35c-1.82.51-3,4.17,0,4.17S139.92,304.15,135.75,305.35Z"/><path class="cls-5" d="M111.08,280.55c5.1.09,6.77,10.88,1.11,8.88S104.76,280.44,111.08,280.55Z"/><path class="cls-5" d="M127.45,303c5.31.89,2,8-2,7S121.45,302,127.45,303Z"/><path class="cls-5" d="M250.75,308.35c-1.82.51-3,4.17,0,4.17S254.92,307.15,250.75,308.35Z"/><path class="cls-5" d="M263.45,315c1.61,4.84-8,10-8,4S261.45,309,263.45,315Z"/><path class="cls-5" d="M279.42,309.33c1.35-3.16,5.26,0,4,2.3S277.89,312.9,279.42,309.33Z"/><path class="cls-5" d="M308.45,131c9-6-16-8-15-21s25-2,29-9-12-12-4-21c4.13-4.64,9.86-6.09,14.43-6.4-9-4.54-17.65-8.19-17.65-8.19l-73-24S230.56,61.56,228.45,70a236.41,236.41,0,0,0-5.72,81.83,5,5,0,0,1-4.59,5.56c-21.69,1.59-92.29,6.71-98.91,10-8,4-12,16-12,35s4,25,4,35a16.63,16.63,0,0,1-5.55,12.92,4.89,4.89,0,0,0-1.64,3.29c-.33,3.83-1,12.16-1.7,21.05a10.43,10.43,0,0,1,10.11.33c14,8,4,29,20,24,10.67-3.33,12.9-6.21,18.82-5.4,0-1.36,0-2.74,0-4.19,0-39,2-50,2-50s35.09,8.4,47,10c8.56,1.15,28.63,2.09,41.19,2.6.29,13.69,1,38,2.72,56.87C246,305.41,249,302,253.45,302c9,0,15,10,23,3s-6.53-22.57,10.74-23.28h0a303.43,303.43,0,0,1-2.93-37.16c3.65-5.51,8-15.17,8-30.15,0-25.75-10.78-36.8-4.19-71l5.49-.33C293.81,138.27,302.29,135.1,308.45,131Z"/><path class="cls-4" d="M350.23,129.4c4-18,4-32,2-42-.72-3.58-10.17-9.16-19.35-13.81-4.57.31-10.3,1.76-14.43,6.4-8,9,8,14,4,21s-28-4-29,9,24,15,15,21c-6.16,4.11-14.64,7.28-14.92,12.07C318.83,141.4,348.39,137.69,350.23,129.4Z"/><path class="cls-4" d="M286.45,126c-4,2-2,8,1,7s5-3,4-6S286.45,126,286.45,126Z"/><path class="cls-4" d="M303.45,94c-2.25,2.82,1,6,6,5S307.45,89,303.45,94Z"/><path class="cls-4" d="M289.45,108c0,2-5,2-5,0S289.45,105,289.45,108Z"/><path class="cls-4" d="M313.45,99c-1.58,1.58,1,3,2,2S314.45,98,313.45,99Z"/><path d="M140.05,338c-13.54,0-30.86-.07-33.84-.09a4.53,4.53,0,0,1-3.32-1.55c-6.52-7-4.26-44.51-4.16-46.11.84-13.29,2.37-31.56,2.82-36.85a7.34,7.34,0,0,1,2.49-5,14.16,14.16,0,0,0,4.69-11,54.76,54.76,0,0,0-1.48-11.26,107.72,107.72,0,0,1-2.52-23.74c0-20.27,4.5-32.8,13.38-37.24,4.76-2.38,35-5.51,98-10.14l1.87-.14a2.49,2.49,0,0,0,1.75-.9,2.46,2.46,0,0,0,.55-1.86A239.16,239.16,0,0,1,226,69.39c2.17-8.68,13.56-28.41,14-29.24l1-1.76,75.12,24.7c11.06,4.65,37,16.26,38.48,23.82h0c2.34,11.7,1.65,26.58-2,43-1.15,5.2-8.77,8.91-24,11.7a332.5,332.5,0,0,1-38.57,4.14c-3.46,19.4-1.11,30.78,1.36,42.81,1.59,7.7,3.23,15.66,3.23,25.81,0,15-4.23,25-8,30.87.28,17.77,2.72,46.56,12.51,84.07.17.64.29,1.13.37,1.45a4.89,4.89,0,0,1-.83,4.3c-2.09,2.67-6.69,2.81-7.59,2.81h-41c-3.52,0-6.64-2.62-9.07-34.8-1.29-17-1.91-37-2.19-48.7-12-.5-30.82-1.41-39.07-2.52-10.09-1.36-36-7.4-44.55-9.41-.56,5.17-1.62,18.71-1.62,46.93,0,23.35,3.62,34.89,5.36,40.43,1,3.19,1.54,4.94.41,6.55a3.85,3.85,0,0,1-3.16,1.52C154.73,338,148.05,338,140.05,338ZM106.5,332.9c5.27,0,40.26.17,48.31,0-.15-.49-.32-1.06-.49-1.6-1.82-5.78-5.59-17.82-5.59-41.93,0-38.78,2-50,2-50.45l.47-2.6,2.57.62c.35.08,35.11,8.39,46.75,9.95,8.61,1.16,29.36,2.11,41,2.58l2.34.1,0,2.34c1.19,54.34,4.42,77.38,6.91,81h40.41a7.42,7.42,0,0,0,3.59-.82.19.19,0,0,0,0-.07c-.07-.32-.2-.79-.36-1.4-10.06-38.54-12.45-68.06-12.68-86v-.77l.42-.65c3.45-5.18,7.56-14.38,7.56-28.76,0-9.64-1.52-17-3.12-24.81-2.55-12.34-5.18-25.11-1-46.67L286,141l1.94-.1c55.14-3.09,59.56-10.57,59.89-12,4.43-19.94,3.53-33.28,2-41-.68-3.14-16.89-12.36-35.43-20.15l-71-23.33C240.54,49.46,232.52,64,230.88,70.6a234,234,0,0,0-5.67,80.93,7.48,7.48,0,0,1-6.89,8.34l-1.87.14c-59.79,4.4-92.12,7.64-96.1,9.63-6.95,3.47-10.62,14.8-10.62,32.76a102.17,102.17,0,0,0,2.42,22.75,58,58,0,0,1,1.58,12.25,19.12,19.12,0,0,1-6.41,14.81,2.39,2.39,0,0,0-.79,1.61c-.45,5.27-2,23.49-2.81,36.74C102.37,312.26,104.06,330.58,106.5,332.9Z"/><path class="cls-6" d="M218,149.53s54-2.32,70,6.94S311,219,292,219s-41-54.41-74-54.41Z"/><path d="M292,221.49c-9.34,0-18.36-10.43-28.8-22.51-12.93-14.95-27.58-31.9-45.2-31.9a2.5,2.5,0,0,1-2.5-2.5V149.53a2.5,2.5,0,0,1,2.39-2.5c2.24-.1,54.92-2.24,71.36,7.28,12.94,7.49,19.82,38.41,15.32,55.16C302.44,217.22,298,221.49,292,221.49Zm-71.5-59.32c18.71,1.41,33.43,18.44,46.48,33.54,9.24,10.69,18,20.78,25,20.78,3.66,0,6.26-2.8,7.75-8.31,4.28-16-3-43.75-13-49.54-13.33-7.72-55.7-7-66.25-6.69Z"/><ellipse class="cls-7" cx="279.73" cy="99.4" rx="14.88" ry="18.6" transform="translate(-10.62 37.52) rotate(-7.53)"/><path d="M280.56,120.45a16.27,16.27,0,0,1-11.27-4.83,24.53,24.53,0,0,1-3.86-29.17,15.38,15.38,0,0,1,24.74-3.27A24.53,24.53,0,0,1,294,112.35a15.93,15.93,0,0,1-11.53,8A14.15,14.15,0,0,1,280.56,120.45Zm-1.69-37.1a8.76,8.76,0,0,0-1.25.09A11,11,0,0,0,269.71,89a19.54,19.54,0,0,0,3,23,10.41,10.41,0,0,0,17-2.25,18.55,18.55,0,0,0,2.25-12h0a18.52,18.52,0,0,0-5.29-11A11.39,11.39,0,0,0,278.87,83.35Z"/><ellipse cx="281.19" cy="98.36" rx="9.31" ry="11.63" transform="translate(-10.47 37.7) rotate(-7.53)"/><path class="cls-1" d="M243,59.49s11-4,18,6-1,13,4,16,37,10,55,5c0,0,1-5-2-13,0,0,12,0,14,8,0,0,6-14,24-13,0,0-17-33-45-37,0,0,21-5,21-16,0,0-18.39,6-30.69,2.49S279,14.49,271,19.49c0,0,7-6,0-17,0,0,0,14-18,18-9.43,2.1-14.87,17.9-14.87,17.9Z"/><path d="M304.27,90.77c-17.29,0-36.41-4.61-40.61-7.13-3.75-2.26-3.05-5.26-2.58-7.25.52-2.24,1.11-4.77-2.18-9.46-5.78-8.26-14.73-5.22-15.11-5.08a2.55,2.55,0,0,1-2-.17,2.51,2.51,0,0,1-1.24-1.62L235.65,39a2.46,2.46,0,0,1,.07-1.37c.24-.7,6-17.15,16.69-19.53,15.7-3.49,16-15.08,16-15.57a2.51,2.51,0,0,1,4.61-1.33c3.3,5.18,3.88,9.68,3.26,13.18,7-2.1,15.32-1.67,25.62,1.24,11.42,3.23,29.06-2.4,29.24-2.45a2.49,2.49,0,0,1,3.27,2.37c0,7.86-8,12.86-14.57,15.66,23.74,8.43,37.65,34.95,38.29,36.2a2.49,2.49,0,0,1-.12,2.5A2.53,2.53,0,0,1,355.81,71c-16-.89-21.51,11.36-21.56,11.49a2.5,2.5,0,0,1-4.73-.38c-.91-3.65-5-5.12-8-5.71,1.7,6.4.94,10.4.9,10.59a2.48,2.48,0,0,1-1.78,1.92A62.67,62.67,0,0,1,304.27,90.77ZM265.69,79a4.74,4.74,0,0,0,.55.39C270.58,82,300,88.48,317.6,84.5a28.08,28.08,0,0,0-2-10.13A2.51,2.51,0,0,1,318,71c.47,0,9.54.08,14.16,5.47A26.16,26.16,0,0,1,351.63,66C346.37,57.57,331.58,37,310.6,34a2.5,2.5,0,0,1-.23-4.91c4.39-1,14.56-4.59,18-10-6.41,1.61-18.52,3.9-27.75,1.28-12.37-3.5-21.36-3.11-28.3,1.23a2.5,2.5,0,0,1-3-4c.38-.35,2.91-2.83,2.11-7.54-2.32,4.79-7.29,10.51-17.94,12.87-6.28,1.4-11.15,11.18-12.81,15.61l4.13,17.91A18.08,18.08,0,0,1,263,64.06c4.57,6.53,3.55,10.87,2.95,13.46a7.26,7.26,0,0,0-.26,1.44Z"/><path d="M332.09,90.79s6-1,8,1,1.61,3.32,1.36,3.57-2.12,2-4.79.11A21.28,21.28,0,0,1,332.09,90.79Z"/><path class="cls-6" d="M200.63,149.24s-11,7-18.34,8,1.07,18.13,8.92,16.32,18-21.72,18-21.72Z"/><path d="M190.05,176.18c-2.88,0-5.88-1.58-8.46-4.53-3.2-3.66-5.66-9.43-4.18-13.37a5.4,5.4,0,0,1,4.55-3.53c6.72-.89,17.22-7.55,17.33-7.62a2.49,2.49,0,0,1,2.06-.29l8.62,2.6a2.49,2.49,0,0,1,1.5,3.53c-1.09,2.14-11,21-19.69,23A7.77,7.77,0,0,1,190.05,176.18ZM201,152c-3,1.79-11.82,6.89-18.37,7.76-.43.06-.47.17-.53.33-.5,1.34.5,5.15,3.27,8.32,1.81,2.07,3.79,3.1,5.29,2.76,4.34-1,10.92-10.54,14.95-17.78Z"/><path class="cls-6" d="M212.51,145.49s-15.18,4-21.93-9-11,11-5.9,16,21.08,9,27.83-3S212.51,145.49,212.51,145.49Z"/><path d="M198.44,159.87c-6.42,0-12.55-2.67-15.52-5.6-3.88-3.84-3.48-13.93-1.5-19.19,1.46-3.88,3.57-4.8,5.08-4.89,3.51-.23,5.62,3.83,6.3,5.15,5,9.6,15.52,8.41,18.35,7.89,1.59-1.84,3.62-3.82,5.7-2.38,2.33,1.62.94,4.34-2.16,9.87a17.38,17.38,0,0,1-13.19,8.94A21,21,0,0,1,198.44,159.87Zm-11.61-24.5c-.57.78-1.45,3-1.77,6.38-.42,4.52.4,8,1.38,9,2.56,2.54,8.78,4.79,14.36,4a12.37,12.37,0,0,0,9.43-6.26c-6.52.75-16.67-.79-21.86-10.81A8.89,8.89,0,0,0,186.83,135.37Z"/><path d="M352.18,119.48a15,15,0,0,0-5.54.29c-2.64.65-5.79,2.15-5.72,3.08,0,.56,1.24.64,5.68,1.42,2,.36,3.64.67,4.69.88Z"/><path class="cls-8" d="M194.41,174c-35.46-13.51-66.66-1.23-66.66-1.23,2.52,4,5,4.76,5.89,4.9-15.37-2.27-29.14,8.67-29.14,8.67,3.1,2.47,9.3,4.93,9.3,4.93-18.6,2.47-26.35,11.11-26.35,11.11,35.65,18.5,85.26,6.17,85.26,6.17S238.06,190.63,194.41,174Z"/><path d="M136,215.13c-15.69,0-33.92-2.34-49.7-10.53A2.5,2.5,0,0,1,85,202.83a2.48,2.48,0,0,1,.6-2.12c.29-.33,6.4-7,20.29-10.47A25.67,25.67,0,0,1,103,188.3a2.5,2.5,0,0,1,0-3.92c.5-.39,10.51-8.23,23.28-9.38-.2-.29-.4-.58-.59-.9a2.49,2.49,0,0,1-.26-2.11,2.52,2.52,0,0,1,1.46-1.55c1.31-.51,32.51-12.47,68.46,1.23,11.47,4.37,16.9,9.33,16.62,15.17-.63,13.07-32.23,22.38-38.55,24.12A169.76,169.76,0,0,1,136,215.13ZM92,201.81c34.09,15.44,79.63,4.42,80.1,4.31,14.23-3.9,34.49-12.56,34.83-19.52.15-3.26-4.61-6.91-13.41-10.26h0c-27.61-10.52-52.76-4.92-61.55-2.33a4.53,4.53,0,0,0,2.08,1.19,2.5,2.5,0,0,1-.77,4.94c-10.1-1.49-19.6,3.26-24.25,6.13a57.46,57.46,0,0,0,5.7,2.68,2.5,2.5,0,0,1-.6,4.8C102.67,195.27,95.53,199.26,92,201.81Z"/><path class="cls-8" d="M224,191c0,24.12-28.5,26.31-37.27,26.31s-32.88,0-32.88-6.58,28.5-11,28.5-11-19.73,0-19.73-8.77,19.73-11,19.73-11-6.58-2.19-6.58-8.77S224,149.33,224,191Z"/><path d="M186.68,219.79c-21.23,0-35.38-1.54-35.38-9.08,0-4.92,8.08-8.37,16.88-10.67-4.4-1.59-8.11-4.34-8.11-9.06,0-7.35,9.32-10.83,15.87-12.37a10.88,10.88,0,0,1-2.72-7.36c0-5.79,13.7-10.75,24.92-10.75,8.51,0,28.31,3,28.31,30.48C226.45,212.22,205.91,219.79,186.68,219.79Zm-30.38-9s.86,2.07,10.94,3.23a178.56,178.56,0,0,0,19.44.81c8.16,0,34.77-1.72,34.77-23.81,0-13.94-5.54-22.27-16.47-24.76-12.37-2.81-25.36,3-26.75,5.25.14,4.48,4.68,6.12,4.87,6.19a2.5,2.5,0,0,1-.52,4.85c-5.72.64-17.51,3.55-17.51,8.47,0,4.69,11.83,6.27,17.23,6.27a2.5,2.5,0,0,1,.38,5c-13.19,2-25.76,6.1-26.38,8.53Z"/><path class="cls-1" d="M218,57.49a48,48,0,0,0-18,11c-8,8,9,30,6,46s-19,5-19,5,3,30,21,24c0,0-4,22-21,32,0,0,12,15,24,11,0,0,14-10,16-27,0,0,16,15,15,28,0,0,18-29-3-54s-6-53-6-53Z"/><path d="M242,190a2.64,2.64,0,0,1-.78-.12,2.5,2.5,0,0,1-1.71-2.57c.63-8.17-6.56-17.61-11-22.55-3.81,14.84-15.56,23.38-16.11,23.78a2.27,2.27,0,0,1-.66.33c-13.5,4.51-26.21-11.14-26.74-11.81a2.47,2.47,0,0,1-.51-2,2.52,2.52,0,0,1,1.19-1.7c11.72-6.9,16.94-20.15,18.86-26.59a13.28,13.28,0,0,1-8.46-2.13c-9.65-6.25-11.54-24.12-11.62-24.88a2.51,2.51,0,0,1,3.91-2.31c1.9,1.3,7.66,4.36,11.32,2.84,1.89-.79,3.17-2.88,3.8-6.24,1.29-6.88-1.66-15.55-4.26-23.2-3.28-9.65-6.39-18.77-1-24.1a50.28,50.28,0,0,1,19-11.63,2.49,2.49,0,0,1,2.81,1l15,23a2.49,2.49,0,0,1,.11,2.54c-.57,1.09-13.91,26.86,5.71,50.22,21.92,26.08,3.4,56.62,3.21,56.92A2.48,2.48,0,0,1,242,190Zm-51.17-14c3.52,3.6,11.43,10.46,19,8.24,1.94-1.52,13-10.71,14.68-25a2.5,2.5,0,0,1,4.19-1.53c.55.51,10.9,10.33,14.56,21.38,3.73-9.69,7.51-27.65-6.18-44-19.15-22.79-9.68-48.28-6.95-54.41L216.93,60.51a46,46,0,0,0-15.21,9.75c-3.14,3.14-.53,10.82,2.24,19s6,17.57,4.45,25.73c-1,5.13-3.26,8.47-6.82,9.94-3.82,1.58-8.14.53-11.34-.81,1.23,5.61,3.86,13.31,8.55,16.34,2.39,1.55,5.13,1.78,8.36.7a2.52,2.52,0,0,1,2.43.48,2.5,2.5,0,0,1,.82,2.34C210.25,144.84,206.41,165,190.78,176Z"/><path class="cls-5" d="M234.23,88.4s-21.17-6.06-21-18-1-33,6-45c4.27-7.33,12-12,15-9s22,21,15,49"/><path d="M234.23,90.9a2.35,2.35,0,0,1-.69-.1c-.94-.27-23-6.74-22.81-20.44,0-1.67,0-3.51,0-5.48,0-12.59,0-29.84,6.32-40.74,3.46-5.94,9.1-10.5,13.7-11.1A6,6,0,0,1,236,14.63l.23.24c14.58,14.47,20,32.63,15.42,51.14-.33,1.34-2.58,6.22-3.92,5.89s-1.26-5.77-.93-7.11c4.19-16.73-.82-33.2-14.09-46.37l-.25-.25a1.41,1.41,0,0,0-1.05-.17c-2.64.35-7.12,3.68-10,8.66-5.68,9.73-5.66,26.19-5.64,38.21,0,2,0,3.87,0,5.57-.12,8.23,13.87,13.81,19.19,15.56,5.81,1.9,6.81,16.9,6.81,16.9S235.32,90.9,234.23,90.9Z"/><path d="M234.36,16.36a71.2,71.2,0,0,0-5.31,13.22A53.47,53.47,0,0,0,227,43.64,84.18,84.18,0,0,0,228.43,58c.84,4.8,1.85,9.51,3.06,14.29a.68.68,0,0,1-.5.84.7.7,0,0,1-.84-.47l0-.07c-1.39-4.62-2.65-9.41-3.7-14.2a85,85,0,0,1-2.13-14.69,56.35,56.35,0,0,1,1.51-14.92,75.16,75.16,0,0,1,5-14.15,2,2,0,1,1,3.63,1.67l0,.07Z"/></g></g></svg>