<svg xmlns="http://www.w3.org/2000/svg" viewBox="0 0 356.22 353"><defs><style>.cls-1{fill:#bd7a89;}.cls-2{fill:#91c280;}.cls-3{fill:#ccc;}.cls-4{fill:#9f9f9f;}.cls-5{fill:#fff;}.cls-6{fill:#494d62;}.cls-7{fill:#b29d77;}.cls-8{fill:#dfd1b6;}.cls-9{fill:#6c6c6c;}</style></defs><title>Salad</title><g id="Layer_2" data-name="Layer 2"><g id="Layer_1-2" data-name="Layer 1"><path class="cls-1" d="M75.41,148.5s-51.8-1.89-72.9,42.55c0,0,5.5-4.45,17-7.55-6.64,13.21-9.43,29.14-7.08,46,5,36,27,31,27,55s-36,27-36,3c0,0-10,40,37,40A74.33,74.33,0,0,0,54,326.29a40.29,40.29,0,0,1-18,14.46c49.67,0,54.91-49.22,54.91-49.22h0a44,44,0,0,0-7.57-31c-12.92-19-14-83,41-58l10-14S116.41,148.5,75.41,148.5Z"/><path class="cls-2" d="M3.41,287.5s-1.32,26.43,26.72,23.09,29.47-29.48,12.6-61.32-14.48-82.12,25.66-84.83,63.11,28.13,63.11,28.13l-3.23,4.66s-36.83-28-58.69-13.07-10,54.15-2.13,80.78S71,321.27,31.08,318.89,3.41,287.5,3.41,287.5Z"/><path d="M36.07,343.25a2.5,2.5,0,0,1-.81-4.86A37.54,37.54,0,0,0,48,329.65c-2.48.23-5,.35-7.62.35-15.74,0-27.12-4.36-33.83-12.95C-3.26,304.45.8,287.6,1,286.89a2.5,2.5,0,0,1,4.93.61c0,4.5,1.44,8.18,4.18,10.65a14.24,14.24,0,0,0,9.64,3.42c8.32,0,17.18-6,17.18-17.07,0-10.21-4.31-14.56-9.75-20.07-6.44-6.51-14.46-14.62-17.23-34.59a81.48,81.48,0,0,1,5-42.28A41.2,41.2,0,0,0,4.08,193a2.5,2.5,0,0,1-3.82-3C9.18,171.17,25,157.6,46.1,150.73A93.55,93.55,0,0,1,75.45,146c42.1,0,61.05,41.06,61.24,41.47a2.5,2.5,0,0,1-.25,2.48l-10,14a2.5,2.5,0,0,1-3.07.83c-17.11-7.78-30.09-7.23-37.54,1.61-11,13.1-8.12,41.26-.36,52.71a46.45,46.45,0,0,1,8,32.79h0a68,68,0,0,1-9.16,25.56C77.09,329.22,62.89,343.25,36.07,343.25Zm18-19.46a2.5,2.5,0,0,1,2.06,3.92,43.62,43.62,0,0,1-9.2,9.67c14.36-2.44,25.47-10,33.14-22.54a63.81,63.81,0,0,0,8.48-23.57,41.59,41.59,0,0,0-7.16-29.37c-8.57-12.63-12.15-43.54.67-58.74,6.14-7.28,18.31-13.72,41.54-3.77l8-11.12C128.05,181.63,110.22,151,75.41,151h-.09C74.84,151,31,149.89,9,184.56a67.64,67.64,0,0,1,9.89-3.47,2.49,2.49,0,0,1,2.88,3.53c-6.67,13.28-9,28.68-6.84,44.54,2.55,18.32,9.61,25.46,15.84,31.76,5.75,5.82,11.19,11.31,11.19,23.58,0,14.34-11.43,22.07-22.18,22.07a19.22,19.22,0,0,1-13-4.71,17.34,17.34,0,0,1-1.47-1.5A26.9,26.9,0,0,0,10.54,314c5.72,7.3,15.77,11,29.87,11a71.25,71.25,0,0,0,13.15-1.17A2.45,2.45,0,0,1,54,323.79Z"/><path class="cls-3" d="M252.64,104.38s-21.85-10-20.22-21.94,3.47-32.83,12-43.78C249.67,32,258,28.4,260.53,31.78a49.79,49.79,0,0,1,8.86,38.55C265.29,93,252.64,104.38,252.64,104.38Z"/><path d="M253.08,107.33l-1.49-.68c-2.41-1.11-23.47-11.21-21.65-24.55.17-1.24.34-2.57.52-4,1.57-12.2,3.93-30.65,12-41,4.23-5.41,10.47-9.19,15.08-9.13a5.93,5.93,0,0,1,5,2.27,52.56,52.56,0,0,1,9.33,40.51c-4.2,23.23-17,35-17.54,35.46ZM257.49,33c-2.67,0-7.53,2.7-11.07,7.22-7.24,9.26-9.5,26.88-11,38.55-.18,1.43-.36,2.78-.53,4-1,7.54,10.91,15.32,17.22,18.56,3.12-3.38,11.66-14,14.82-31.46a47.43,47.43,0,0,0-8.39-36.59c-.2-.26-.73-.3-1-.3Z"/><path class="cls-4" d="M190.82,261.5s3.7,71.8,6,81c2,8-4,8-4,8h-57v-97h55Z"/><path d="M192.82,353h-59.5V251h60v10.44c1.28,24.76,4.15,73.37,5.93,80.45.89,3.59.54,6.45-1.05,8.48A7.14,7.14,0,0,1,192.82,353Zm-54.5-5h54.5a2.19,2.19,0,0,0,1.46-.73c.56-.75.6-2.23.11-4.16-2.33-9.33-5.92-78.54-6.07-81.48V256h-50Z"/><path class="cls-4" d="M211.84,262.39s-14,32-14,60,6,28,6,28h45v-87Z"/><path d="M251.34,352.89h-47.5c-3.17,0-8.5-4-8.5-30.5,0-28.2,13.63-59.67,14.21-61l.67-1.54L251.34,261Zm-47-5h42V265.82l-32.85-.88c-2.73,6.67-13.15,33.74-13.15,57.45C200.34,342.88,203.62,347.19,204.34,347.89Z"/><path class="cls-3" d="M351.68,102.41c-1.41-7.07-37-22-37-22l-73-24S230,76.57,227.91,85a236.16,236.16,0,0,0-5.72,81.83,5,5,0,0,1-4.6,5.55c-21.68,1.6-92.28,6.72-98.91,10-8,4-12,16-12,35s4,25,4,35a16.63,16.63,0,0,1-5.54,12.91,4.87,4.87,0,0,0-1.64,3.29c-.53,6.13-2,23.78-2.82,36.8-1,16-.83,44.95,5,45,4.78,0,45.79.18,50,0,5-.23-5-7-5-46s2-50,2-50,35.1,8.4,47,10c8.56,1.15,28.64,2.09,41.19,2.6.54,24.57,2.49,83.4,8.81,83.4h41s7,0,6-4c-1.2-4.83-12.42-45-13-86.86,3.66-5.5,8-15.16,8-30.14,0-25.75-10.77-36.8-4.18-71,26.3-1.47,60.21-5.1,62.18-14C353.68,126.41,353.68,112.41,351.68,102.41Z"/><path d="M139.5,353c-13.53,0-30.85-.07-33.84-.09a4.52,4.52,0,0,1-3.31-1.56c-6.52-7-4.26-44.51-4.16-46.1C99,292,100.55,273.68,101,268.4a7.37,7.37,0,0,1,2.5-5,14.16,14.16,0,0,0,4.68-11,54.66,54.66,0,0,0-1.47-11.26,107,107,0,0,1-2.53-23.74c0-20.27,4.51-32.8,13.39-37.24,4.76-2.38,35-5.51,98-10.14l1.87-.14a2.48,2.48,0,0,0,1.74-.9,2.44,2.44,0,0,0,.55-1.87,239,239,0,0,1,5.78-82.73c2.17-8.67,13.56-28.4,14-29.24l1-1.75,75.11,24.7c11.07,4.64,37,16.26,38.49,23.82h0c2.34,11.7,1.64,26.58-2,43-1.16,5.19-8.77,8.91-24,11.7a332.8,332.8,0,0,1-38.57,4.13c-3.46,19.41-1.12,30.79,1.36,42.81,1.58,7.71,3.22,15.67,3.22,25.82,0,15-4.23,25-8,30.87.29,17.76,2.72,46.56,12.52,84.07.16.64.29,1.12.37,1.45a4.9,4.9,0,0,1-.84,4.3c-2.08,2.67-6.68,2.81-7.59,2.81h-41c-3.52,0-6.63-2.62-9.07-34.8-1.28-17-1.91-37-2.19-48.7-13.92-.58-31.16-1.46-39.07-2.53-10.09-1.35-36-7.39-44.54-9.4-.56,5.17-1.63,18.71-1.63,46.93,0,23.34,3.62,34.88,5.36,40.43,1,3.18,1.55,4.94.42,6.55a3.81,3.81,0,0,1-3.16,1.51C154.18,353,147.5,353,139.5,353ZM106,347.91c5.27,0,40.26.16,48.31,0-.14-.5-.32-1.07-.49-1.6-1.81-5.79-5.59-17.82-5.59-41.93,0-38.78,2-50,2-50.45l.48-2.6,2.57.62c.35.08,35.1,8.38,46.75,10,8.6,1.15,29.35,2.11,40.95,2.58l2.35.09.05,2.35c1.19,54.34,4.41,77.38,6.91,81h40.4a7.4,7.4,0,0,0,3.59-.83.2.2,0,0,0,0-.07l-.36-1.39c-10.06-38.54-12.45-68.06-12.69-86v-.78l.43-.64c3.45-5.19,7.55-14.39,7.55-28.76,0-9.64-1.51-17-3.12-24.81-2.54-12.35-5.17-25.12-1-46.67l.37-1.92,1.95-.11c55.14-3.09,59.56-10.57,59.88-12,4.43-19.93,3.53-33.28,2-41-.68-3.15-16.89-12.37-35.42-20.15l-71-23.33C240,64.47,232,79,230.33,85.61a233.66,233.66,0,0,0-5.66,80.93,7.39,7.39,0,0,1-1.66,5.63,7.48,7.48,0,0,1-5.23,2.71l-1.88.13c-59.78,4.4-92.12,7.64-96.1,9.63-6.94,3.48-10.62,14.81-10.62,32.77a101.45,101.45,0,0,0,2.43,22.75,58.68,58.68,0,0,1,1.57,12.25,19.08,19.08,0,0,1-6.4,14.8,2.35,2.35,0,0,0-.79,1.62c-.45,5.27-2,23.49-2.81,36.73C101.82,327.26,103.51,345.58,106,347.91Z"/><ellipse class="cls-5" cx="279.18" cy="114.41" rx="14.88" ry="18.6" transform="translate(-12.59 37.58) rotate(-7.53)"/><path d="M280,135.45a16.24,16.24,0,0,1-11.27-4.82,24.5,24.5,0,0,1-3.86-29.18,15.38,15.38,0,0,1,24.73-3.27,24.5,24.5,0,0,1,3.86,29.18,15.94,15.94,0,0,1-11.53,8A15.75,15.75,0,0,1,280,135.45Zm-1.69-37.09a10.66,10.66,0,0,0-1.26.08,11,11,0,0,0-7.9,5.6,19.52,19.52,0,0,0,3,23,10.4,10.4,0,0,0,17-2.24,18.57,18.57,0,0,0,2.26-12h0a18.56,18.56,0,0,0-5.3-11A11.35,11.35,0,0,0,278.33,98.36Z"/><ellipse cx="280.65" cy="113.37" rx="9.31" ry="11.63" transform="translate(-12.44 37.76) rotate(-7.53)"/><path d="M331.55,105.8s6-1,8,1,1.6,3.33,1.35,3.58-2.11,2-4.79.11A21.37,21.37,0,0,1,331.55,105.8Z"/><path class="cls-6" d="M232.41,98.5s-6,38,8,58,50,33,50,33a104.27,104.27,0,0,1,6,48c-3,27-15,32-19,33s-50,5-76,0-97-15-99-25-6-63,9-67,58-12,88-12-4.84-44.54,18-84Z"/><path d="M235.22,275.47c-12.06,0-24.52-.64-34.29-2.51-4.87-.94-11.25-2-18.64-3.32C127.83,260.26,101.62,254.32,100,246c-1.29-6.48-7.6-65,10.81-69.91C126.07,172,169.16,164,199.41,164c4,0,6.73-.86,8.27-2.62,3.3-3.76,2.15-12.48.82-22.59-2.07-15.79-4.91-37.41,6.74-57.54a2.51,2.51,0,0,1,4-.46l15,16a2.53,2.53,0,0,1,.65,2.1c-.06.37-5.68,37.25,7.57,56.18,13.38,19.11,48.45,32,48.8,32.08a2.45,2.45,0,0,1,1.45,1.37c.38.88,9.23,21.92,6.19,49.26-3.09,27.78-15.63,33.83-20.88,35.15C275.27,273.61,255.84,275.47,235.22,275.47ZM218,86.74c-8.91,17.77-6.48,36.33-4.5,51.4,1.55,11.78,2.77,21.08-2,26.53-2.55,2.92-6.49,4.33-12,4.33-29.79,0-72.27,7.89-87.36,11.92-11.86,3.16-9.64,51.87-7.19,64.09.11.39,1.89,4.05,27.45,10,15.78,3.67,35.21,7,50.82,9.71,7.42,1.28,13.83,2.38,18.75,3.33,25.24,4.85,70.87,1,74.92,0,3.3-.82,14.3-5.49,17.12-30.85a104.06,104.06,0,0,0-5.43-45.77c-6.25-2.38-37.05-14.82-50.13-33.52s-9.53-51.73-8.6-58.6Z"/><path class="cls-7" d="M316.41,61.5s-16-42-52-59c0,0-26,10-43,56Z"/><path d="M316.41,64h-.08l-95-3a2.5,2.5,0,0,1-2.27-3.37C236.25,11.11,262.4.59,263.51.17a2.47,2.47,0,0,1,2,.07c36.49,17.23,52.6,58.62,53.27,60.37A2.5,2.5,0,0,1,316.41,64ZM225,56.11l87.56,2.77C307.89,48.69,292.36,19,264.38,5.26,259.82,7.51,239.49,19.32,225,56.11Z"/><path class="cls-8" d="M242.41,70.5s22-2,34,2,32,15,38,11,10-16,10-24-56-22-86-11Z"/><path d="M310.84,86.84c-6,0-14.67-3.62-23.69-7.41-4.22-1.77-8.2-3.45-11.54-4.56-11.37-3.79-32.76-1.9-33-1.88A2.48,2.48,0,0,1,240,71l-4-22a2.49,2.49,0,0,1,1.6-2.8c26.64-9.77,73.22-.72,85.74,8,2.43,1.7,3.62,3.44,3.62,5.33,0,9-4.47,21.65-11.12,26.08A8.79,8.79,0,0,1,310.84,86.84Zm-56-19.35c7.2,0,16,.53,22.32,2.64,3.51,1.17,7.58,2.88,11.89,4.69,8.26,3.47,20.75,8.72,23.93,6.6,5.06-3.37,8.84-14.25,8.89-21.8-1-2.12-12.13-7.38-31.26-10.55-19.29-3.2-37.12-2.79-49.4,1.1l3.21,17.67C246.74,67.69,250.52,67.49,254.88,67.49Z"/><path class="cls-3" d="M233.68,103.41s-21.17-6.06-21-18-1-33,6-45c4.28-7.33,12-12,15-9s22,21,15,49"/><path d="M233.69,105.91a2.35,2.35,0,0,1-.69-.1c-.94-.27-23-6.74-22.82-20.44,0-1.67,0-3.51,0-5.49,0-12.59,0-29.83,6.32-40.73,3.47-5.94,9.1-10.5,13.71-11.1a5.94,5.94,0,0,1,5.22,1.59l.24.24C250.26,44.34,255.74,62.5,251.11,81c-.33,1.34-2.58,6.23-3.93,5.9s-1.26-5.77-.92-7.11c4.18-16.73-.82-33.2-14.09-46.38l-.25-.25c-.23-.23-.76-.2-1-.16-2.65.34-7.12,3.67-10,8.66-5.67,9.73-5.65,26.19-5.64,38.21,0,2,0,3.87,0,5.56-.11,8.23,13.88,13.82,19.19,15.56,5.81,1.91,6.81,16.91,6.81,16.91S234.77,105.91,233.69,105.91Z"/><path d="M233.81,31.37a70.89,70.89,0,0,0-5.3,13.22,53,53,0,0,0-2.06,14A82.31,82.31,0,0,0,227.89,73c.83,4.79,1.85,9.5,3.06,14.29a.7.7,0,0,1-1.34.37l0-.07c-1.4-4.62-2.65-9.41-3.7-14.2a84.18,84.18,0,0,1-2.14-14.69,56.35,56.35,0,0,1,1.52-14.92,74.28,74.28,0,0,1,4.95-14.16,2,2,0,1,1,3.64,1.68l0,.07Z"/><path class="cls-1" d="M353,125.23s-5.53,47.52.72,75.56c0,0-14.5-4.95-16.81-17.85,0,0-3.15,1.46-4.4,8.05,0,0-7-4.39-15-15.5-7.37-10.33-30-17.09-30-17.09s-12.38-6.8,5.8-14.64S353,125.23,353,125.23Z"/><path d="M353.72,203.29a2.5,2.5,0,0,1-.81-.13c-.57-.2-12.4-4.35-17-14.95a15.94,15.94,0,0,0-.94,3.24,2.5,2.5,0,0,1-3.78,1.66c-.31-.19-7.55-4.78-15.69-16.17-6.78-9.5-28.5-16.08-28.72-16.15a2.3,2.3,0,0,1-.49-.2c-.57-.32-5.63-3.24-5.4-8.19.2-4.13,3.93-7.7,11.42-10.93,18.15-7.83,58.36-18.22,60.06-18.66a2.49,2.49,0,0,1,3.11,2.71c-.05.47-5.4,47.43.68,74.73a2.5,2.5,0,0,1-2.44,3Zm-16.81-22.85a2.51,2.51,0,0,1,2.46,2.06c1.27,7.11,6.92,11.57,10.95,13.91-4-23.82-1.27-56.89-.19-67.84-10.36,2.75-41.1,11.13-55.84,17.49-7.66,3.31-8.37,5.87-8.4,6.58-.07,1.48,1.84,3,2.62,3.45,2.87.89,23.67,7.59,31.06,17.94a69.48,69.48,0,0,0,11.52,12.75c1.76-4.59,4.41-5.94,4.77-6.11A2.58,2.58,0,0,1,336.91,180.44Z"/><path class="cls-7" d="M290.21,184.75s-64.39.6-85.9-23.4l-9,1.66s-9.09,38,27,61.07,41.35,52.51,41.35,52.51l27.92-5.46,6.53-23.76V211.25Z"/><path d="M263.72,279.09a2.57,2.57,0,0,1-1.42-.43,2.49,2.49,0,0,1-1-1.63c-.05-.28-5.57-28.72-40.23-50.84-37.19-23.74-28.22-63.36-28.12-63.76a2.5,2.5,0,0,1,2-1.88l9-1.66a2.49,2.49,0,0,1,2.31.79c20.5,22.88,83.38,22.58,84,22.57h0a2.51,2.51,0,0,1,2.4,1.78l8,26.5a2.46,2.46,0,0,1,.1.72v36.12a2.5,2.5,0,0,1-.09.66l-6.53,23.76a2.49,2.49,0,0,1-1.93,1.79l-27.92,5.47A2.59,2.59,0,0,1,263.72,279.09ZM197.46,165.16c-1.23,7.26-4.23,37.36,26.26,56.81,31,19.76,39.76,44,41.88,51.71l24-4.71,6-21.94V211.62l-7.32-24.37c-10.9-.1-64-1.68-84.93-23.2Z"/><polygon class="cls-8" points="298.17 196.51 270.22 218.97 298.17 262.39 302.69 229.45 298.17 196.51"/><path d="M298.17,264.89a2.5,2.5,0,0,1-2.1-1.15l-27.95-43.42a2.5,2.5,0,0,1,.53-3.3l28-22.45a2.49,2.49,0,0,1,4,1.61l4.51,32.93a1.94,1.94,0,0,1,0,.68l-4.51,32.94a2.51,2.51,0,0,1-2.48,2.16Zm-24.63-45.38,23.07,35.84,3.55-25.9-3.86-28.22Z"/><path class="cls-9" d="M290.09,292.75s6.18,19.65,5,36.36A269.66,269.66,0,0,1,240,321.74s-2.74-15.58-1.55-27.45C238.41,294.29,264.67,290.57,290.09,292.75Z"/><path d="M295.08,331.61h0a275.33,275.33,0,0,1-55.7-7.44,2.5,2.5,0,0,1-1.88-2c-.11-.65-2.78-16.06-1.57-28.13a2.53,2.53,0,0,1,2.14-2.23c.27,0,26.83-3.73,52.25-1.55a2.52,2.52,0,0,1,2.17,1.74c.26.82,6.31,20.3,5.1,37.29A2.51,2.51,0,0,1,295.08,331.61ZM242.16,319.7a275.73,275.73,0,0,0,50.55,6.85c.37-12.75-3.22-26.78-4.53-31.44-20.36-1.54-41.07.63-47.44,1.4C240.19,305.36,241.57,315.76,242.16,319.7Z"/></g></g></svg>