<svg xmlns="http://www.w3.org/2000/svg" xmlns:xlink="http://www.w3.org/1999/xlink" width="959.962" height="1457.982" viewBox="0 0 959.962 1457.982">
  <defs>
    <linearGradient id="a" x1="369.762" y1="1272.258" x2="673.345" y2="1272.258" gradientUnits="userSpaceOnUse">
      <stop offset="0" stop-color="#998675"/>
      <stop offset="1" stop-color="#c7b299"/>
    </linearGradient>
    <linearGradient id="b" x1="433.406" y1="1338.155" x2="928.47" y2="1338.155" xlink:href="#a"/>
    <linearGradient id="c" x1="662.063" y1="927.618" x2="667.082" y2="927.618" gradientTransform="matrix(0.947, -0.321, 0.347, 1.022, -295.501, 178.157)" xlink:href="#a"/>
    <linearGradient id="d" x1="662.063" y1="932.349" x2="667.082" y2="932.349" gradientTransform="matrix(0.947, -0.321, 0.347, 1.022, -295.501, 178.157)" xlink:href="#a"/>
    <linearGradient id="e" x1="662.063" y1="937.081" x2="667.082" y2="937.081" gradientTransform="matrix(0.947, -0.321, 0.347, 1.022, -295.501, 178.157)" xlink:href="#a"/>
    <linearGradient id="f" x1="662.063" y1="941.813" x2="667.082" y2="941.813" gradientTransform="matrix(0.947, -0.321, 0.347, 1.022, -295.501, 178.157)" xlink:href="#a"/>
    <linearGradient id="g" x1="662.063" y1="946.544" x2="667.082" y2="946.544" gradientTransform="matrix(0.947, -0.321, 0.347, 1.022, -295.501, 178.157)" xlink:href="#a"/>
    <linearGradient id="h" x1="662.063" y1="951.276" x2="667.082" y2="951.276" gradientTransform="matrix(0.947, -0.321, 0.347, 1.022, -295.501, 178.157)" xlink:href="#a"/>
    <linearGradient id="i" x1="662.063" y1="956.007" x2="667.082" y2="956.007" gradientTransform="matrix(0.947, -0.321, 0.347, 1.022, -295.501, 178.157)" xlink:href="#a"/>
    <linearGradient id="j" x1="662.063" y1="960.739" x2="667.082" y2="960.739" gradientTransform="matrix(0.947, -0.321, 0.347, 1.022, -295.501, 178.157)" xlink:href="#a"/>
    <linearGradient id="k" x1="662.063" y1="965.47" x2="667.082" y2="965.47" gradientTransform="matrix(0.947, -0.321, 0.347, 1.022, -295.501, 178.157)" xlink:href="#a"/>
    <linearGradient id="l" x1="662.063" y1="970.202" x2="667.082" y2="970.202" gradientTransform="matrix(0.947, -0.321, 0.347, 1.022, -295.501, 178.157)" xlink:href="#a"/>
    <linearGradient id="m" x1="662.063" y1="974.933" x2="667.082" y2="974.933" gradientTransform="matrix(0.947, -0.321, 0.347, 1.022, -295.501, 178.157)" xlink:href="#a"/>
    <linearGradient id="n" x1="662.063" y1="979.665" x2="667.082" y2="979.665" gradientTransform="matrix(0.947, -0.321, 0.347, 1.022, -295.501, 178.157)" xlink:href="#a"/>
    <linearGradient id="o" x1="662.063" y1="984.397" x2="667.082" y2="984.397" gradientTransform="matrix(0.947, -0.321, 0.347, 1.022, -295.501, 178.157)" xlink:href="#a"/>
    <linearGradient id="p" x1="662.063" y1="989.128" x2="667.082" y2="989.128" gradientTransform="matrix(0.947, -0.321, 0.347, 1.022, -295.501, 178.157)" xlink:href="#a"/>
    <linearGradient id="q" x1="662.063" y1="993.86" x2="667.082" y2="993.86" gradientTransform="matrix(0.947, -0.321, 0.347, 1.022, -295.501, 178.157)" xlink:href="#a"/>
    <linearGradient id="r" x1="662.063" y1="998.591" x2="667.082" y2="998.591" gradientTransform="matrix(0.947, -0.321, 0.347, 1.022, -295.501, 178.157)" xlink:href="#a"/>
    <linearGradient id="s" x1="662.063" y1="1003.323" x2="667.082" y2="1003.323" gradientTransform="matrix(0.947, -0.321, 0.347, 1.022, -295.501, 178.157)" xlink:href="#a"/>
    <linearGradient id="t" x1="662.063" y1="1008.054" x2="667.082" y2="1008.054" gradientTransform="matrix(0.947, -0.321, 0.347, 1.022, -295.501, 178.157)" xlink:href="#a"/>
    <linearGradient id="u" x1="662.063" y1="1012.786" x2="667.082" y2="1012.786" gradientTransform="matrix(0.947, -0.321, 0.347, 1.022, -295.501, 178.157)" xlink:href="#a"/>
    <linearGradient id="v" x1="662.063" y1="1017.517" x2="667.082" y2="1017.517" gradientTransform="matrix(0.947, -0.321, 0.347, 1.022, -295.501, 178.157)" xlink:href="#a"/>
    <linearGradient id="w" x1="662.063" y1="1022.249" x2="667.082" y2="1022.249" gradientTransform="matrix(0.947, -0.321, 0.347, 1.022, -295.501, 178.157)" xlink:href="#a"/>
    <linearGradient id="x" x1="662.063" y1="1026.981" x2="667.082" y2="1026.981" gradientTransform="matrix(0.947, -0.321, 0.347, 1.022, -295.501, 178.157)" xlink:href="#a"/>
    <linearGradient id="y" x1="662.063" y1="1031.712" x2="667.082" y2="1031.712" gradientTransform="matrix(0.947, -0.321, 0.347, 1.022, -295.501, 178.157)" xlink:href="#a"/>
    <linearGradient id="z" x1="662.063" y1="1036.444" x2="667.082" y2="1036.444" gradientTransform="matrix(0.947, -0.321, 0.347, 1.022, -295.501, 178.157)" xlink:href="#a"/>
    <linearGradient id="aa" x1="662.063" y1="1041.175" x2="667.082" y2="1041.175" gradientTransform="matrix(0.947, -0.321, 0.347, 1.022, -295.501, 178.157)" xlink:href="#a"/>
    <linearGradient id="ab" x1="662.063" y1="1045.907" x2="667.082" y2="1045.907" gradientTransform="matrix(0.947, -0.321, 0.347, 1.022, -295.501, 178.157)" xlink:href="#a"/>
    <linearGradient id="ac" x1="662.063" y1="1050.638" x2="667.082" y2="1050.638" gradientTransform="matrix(0.947, -0.321, 0.347, 1.022, -295.501, 178.157)" xlink:href="#a"/>
    <linearGradient id="ad" x1="662.063" y1="1055.37" x2="667.082" y2="1055.37" gradientTransform="matrix(0.947, -0.321, 0.347, 1.022, -295.501, 178.157)" xlink:href="#a"/>
    <linearGradient id="ae" x1="662.063" y1="1060.101" x2="667.082" y2="1060.101" gradientTransform="matrix(0.947, -0.321, 0.347, 1.022, -295.501, 178.157)" xlink:href="#a"/>
    <linearGradient id="af" x1="662.063" y1="1064.833" x2="667.082" y2="1064.833" gradientTransform="matrix(0.947, -0.321, 0.347, 1.022, -295.501, 178.157)" xlink:href="#a"/>
    <linearGradient id="ag" x1="662.063" y1="1069.564" x2="667.082" y2="1069.564" gradientTransform="matrix(0.947, -0.321, 0.347, 1.022, -295.501, 178.157)" xlink:href="#a"/>
    <linearGradient id="ah" x1="662.063" y1="1074.296" x2="667.082" y2="1074.296" gradientTransform="matrix(0.947, -0.321, 0.347, 1.022, -295.501, 178.157)" xlink:href="#a"/>
    <linearGradient id="ai" x1="662.063" y1="1079.252" x2="667.082" y2="1079.252" gradientTransform="matrix(0.947, -0.321, 0.347, 1.022, -295.501, 178.157)" xlink:href="#a"/>
    <linearGradient id="aj" x1="662.063" y1="1083.983" x2="667.082" y2="1083.983" gradientTransform="matrix(0.947, -0.321, 0.347, 1.022, -295.501, 178.157)" xlink:href="#a"/>
    <linearGradient id="ak" x1="662.063" y1="1088.715" x2="667.082" y2="1088.715" gradientTransform="matrix(0.947, -0.321, 0.347, 1.022, -295.501, 178.157)" xlink:href="#a"/>
    <linearGradient id="al" x1="662.063" y1="1093.446" x2="667.082" y2="1093.446" gradientTransform="matrix(0.947, -0.321, 0.347, 1.022, -295.501, 178.157)" xlink:href="#a"/>
    <linearGradient id="am" x1="662.063" y1="1098.178" x2="667.082" y2="1098.178" gradientTransform="matrix(0.947, -0.321, 0.347, 1.022, -295.501, 178.157)" xlink:href="#a"/>
    <linearGradient id="an" x1="662.063" y1="1102.91" x2="667.082" y2="1102.91" gradientTransform="matrix(0.947, -0.321, 0.347, 1.022, -295.501, 178.157)" xlink:href="#a"/>
    <linearGradient id="ao" x1="662.063" y1="1107.641" x2="667.082" y2="1107.641" gradientTransform="matrix(0.947, -0.321, 0.347, 1.022, -295.501, 178.157)" xlink:href="#a"/>
    <linearGradient id="ap" x1="662.063" y1="1112.373" x2="667.082" y2="1112.373" gradientTransform="matrix(0.947, -0.321, 0.347, 1.022, -295.501, 178.157)" xlink:href="#a"/>
    <linearGradient id="aq" x1="662.063" y1="1117.104" x2="667.082" y2="1117.104" gradientTransform="matrix(0.947, -0.321, 0.347, 1.022, -295.501, 178.157)" xlink:href="#a"/>
    <linearGradient id="ar" x1="662.063" y1="1121.836" x2="667.082" y2="1121.836" gradientTransform="matrix(0.947, -0.321, 0.347, 1.022, -295.501, 178.157)" xlink:href="#a"/>
    <linearGradient id="as" x1="662.063" y1="1126.567" x2="667.082" y2="1126.567" gradientTransform="matrix(0.947, -0.321, 0.347, 1.022, -295.501, 178.157)" xlink:href="#a"/>
    <linearGradient id="at" x1="662.063" y1="1131.299" x2="667.082" y2="1131.299" gradientTransform="matrix(0.947, -0.321, 0.347, 1.022, -295.501, 178.157)" xlink:href="#a"/>
    <linearGradient id="au" x1="662.063" y1="1136.03" x2="667.082" y2="1136.03" gradientTransform="matrix(0.947, -0.321, 0.347, 1.022, -295.501, 178.157)" xlink:href="#a"/>
    <linearGradient id="av" x1="662.063" y1="1140.762" x2="667.082" y2="1140.762" gradientTransform="matrix(0.947, -0.321, 0.347, 1.022, -295.501, 178.157)" xlink:href="#a"/>
    <linearGradient id="aw" x1="662.063" y1="1145.493" x2="667.082" y2="1145.493" gradientTransform="matrix(0.947, -0.321, 0.347, 1.022, -295.501, 178.157)" xlink:href="#a"/>
    <linearGradient id="ax" x1="662.063" y1="1150.225" x2="667.082" y2="1150.225" gradientTransform="matrix(0.947, -0.321, 0.347, 1.022, -295.501, 178.157)" xlink:href="#a"/>
    <linearGradient id="ay" x1="662.063" y1="1154.957" x2="667.082" y2="1154.957" gradientTransform="matrix(0.947, -0.321, 0.347, 1.022, -295.501, 178.157)" xlink:href="#a"/>
    <linearGradient id="az" x1="662.063" y1="1159.688" x2="667.082" y2="1159.688" gradientTransform="matrix(0.947, -0.321, 0.347, 1.022, -295.501, 178.157)" xlink:href="#a"/>
    <linearGradient id="ba" x1="662.063" y1="1164.42" x2="667.082" y2="1164.42" gradientTransform="matrix(0.947, -0.321, 0.347, 1.022, -295.501, 178.157)" xlink:href="#a"/>
    <linearGradient id="bb" x1="662.063" y1="1169.151" x2="667.082" y2="1169.151" gradientTransform="matrix(0.947, -0.321, 0.347, 1.022, -295.501, 178.157)" xlink:href="#a"/>
    <linearGradient id="bc" x1="662.063" y1="1173.883" x2="667.082" y2="1173.883" gradientTransform="matrix(0.947, -0.321, 0.347, 1.022, -295.501, 178.157)" xlink:href="#a"/>
    <linearGradient id="bd" x1="662.063" y1="1178.614" x2="667.082" y2="1178.614" gradientTransform="matrix(0.947, -0.321, 0.347, 1.022, -295.501, 178.157)" xlink:href="#a"/>
    <linearGradient id="be" x1="662.063" y1="1183.346" x2="667.082" y2="1183.346" gradientTransform="matrix(0.947, -0.321, 0.347, 1.022, -295.501, 178.157)" xlink:href="#a"/>
    <linearGradient id="bf" x1="662.063" y1="1188.077" x2="667.082" y2="1188.077" gradientTransform="matrix(0.947, -0.321, 0.347, 1.022, -295.501, 178.157)" xlink:href="#a"/>
    <linearGradient id="bg" x1="662.063" y1="1192.809" x2="667.082" y2="1192.809" gradientTransform="matrix(0.947, -0.321, 0.347, 1.022, -295.501, 178.157)" xlink:href="#a"/>
    <linearGradient id="bh" x1="662.063" y1="1197.541" x2="667.082" y2="1197.541" gradientTransform="matrix(0.947, -0.321, 0.347, 1.022, -295.501, 178.157)" xlink:href="#a"/>
    <linearGradient id="bi" x1="506.094" y1="878.613" x2="511.112" y2="878.613" gradientTransform="matrix(-0.947, -0.321, -0.347, 1.022, 1440.078, 178.157)" xlink:href="#a"/>
    <linearGradient id="bj" x1="506.094" y1="883.344" x2="511.112" y2="883.344" gradientTransform="matrix(-0.947, -0.321, -0.347, 1.022, 1440.078, 178.157)" xlink:href="#a"/>
    <linearGradient id="bk" x1="506.094" y1="888.076" x2="511.112" y2="888.076" gradientTransform="matrix(-0.947, -0.321, -0.347, 1.022, 1440.078, 178.157)" xlink:href="#a"/>
    <linearGradient id="bl" x1="506.094" y1="892.808" x2="511.112" y2="892.808" gradientTransform="matrix(-0.947, -0.321, -0.347, 1.022, 1440.078, 178.157)" xlink:href="#a"/>
    <linearGradient id="bm" x1="506.094" y1="897.539" x2="511.112" y2="897.539" gradientTransform="matrix(-0.947, -0.321, -0.347, 1.022, 1440.078, 178.157)" xlink:href="#a"/>
    <linearGradient id="bn" x1="506.094" y1="902.271" x2="511.112" y2="902.271" gradientTransform="matrix(-0.947, -0.321, -0.347, 1.022, 1440.078, 178.157)" xlink:href="#a"/>
    <linearGradient id="bo" x1="506.094" y1="907.002" x2="511.112" y2="907.002" gradientTransform="matrix(-0.947, -0.321, -0.347, 1.022, 1440.078, 178.157)" xlink:href="#a"/>
    <linearGradient id="bp" x1="506.094" y1="911.734" x2="511.112" y2="911.734" gradientTransform="matrix(-0.947, -0.321, -0.347, 1.022, 1440.078, 178.157)" xlink:href="#a"/>
    <linearGradient id="bq" x1="506.094" y1="916.465" x2="511.112" y2="916.465" gradientTransform="matrix(-0.947, -0.321, -0.347, 1.022, 1440.078, 178.157)" xlink:href="#a"/>
    <linearGradient id="br" x1="506.094" y1="921.197" x2="511.112" y2="921.197" gradientTransform="matrix(-0.947, -0.321, -0.347, 1.022, 1440.078, 178.157)" xlink:href="#a"/>
    <linearGradient id="bs" x1="506.094" y1="925.928" x2="511.112" y2="925.928" gradientTransform="matrix(-0.947, -0.321, -0.347, 1.022, 1440.078, 178.157)" xlink:href="#a"/>
    <linearGradient id="bt" x1="506.094" y1="930.66" x2="511.112" y2="930.66" gradientTransform="matrix(-0.947, -0.321, -0.347, 1.022, 1440.078, 178.157)" xlink:href="#a"/>
    <linearGradient id="bu" x1="506.094" y1="935.391" x2="511.112" y2="935.391" gradientTransform="matrix(-0.947, -0.321, -0.347, 1.022, 1440.078, 178.157)" xlink:href="#a"/>
    <linearGradient id="bv" x1="506.094" y1="940.123" x2="511.112" y2="940.123" gradientTransform="matrix(-0.947, -0.321, -0.347, 1.022, 1440.078, 178.157)" xlink:href="#a"/>
    <linearGradient id="bw" x1="506.094" y1="944.855" x2="511.112" y2="944.855" gradientTransform="matrix(-0.947, -0.321, -0.347, 1.022, 1440.078, 178.157)" xlink:href="#a"/>
    <linearGradient id="bx" x1="506.094" y1="949.586" x2="511.112" y2="949.586" gradientTransform="matrix(-0.947, -0.321, -0.347, 1.022, 1440.078, 178.157)" xlink:href="#a"/>
    <linearGradient id="by" x1="506.094" y1="954.318" x2="511.112" y2="954.318" gradientTransform="matrix(-0.947, -0.321, -0.347, 1.022, 1440.078, 178.157)" xlink:href="#a"/>
    <linearGradient id="bz" x1="506.094" y1="959.049" x2="511.112" y2="959.049" gradientTransform="matrix(-0.947, -0.321, -0.347, 1.022, 1440.078, 178.157)" xlink:href="#a"/>
    <linearGradient id="ca" x1="506.094" y1="963.781" x2="511.112" y2="963.781" gradientTransform="matrix(-0.947, -0.321, -0.347, 1.022, 1440.078, 178.157)" xlink:href="#a"/>
    <linearGradient id="cb" x1="506.094" y1="968.512" x2="511.112" y2="968.512" gradientTransform="matrix(-0.947, -0.321, -0.347, 1.022, 1440.078, 178.157)" xlink:href="#a"/>
    <linearGradient id="cc" x1="506.094" y1="973.244" x2="511.112" y2="973.244" gradientTransform="matrix(-0.947, -0.321, -0.347, 1.022, 1440.078, 178.157)" xlink:href="#a"/>
    <linearGradient id="cd" x1="506.094" y1="977.975" x2="511.112" y2="977.975" gradientTransform="matrix(-0.947, -0.321, -0.347, 1.022, 1440.078, 178.157)" xlink:href="#a"/>
    <linearGradient id="ce" x1="506.094" y1="982.707" x2="511.112" y2="982.707" gradientTransform="matrix(-0.947, -0.321, -0.347, 1.022, 1440.078, 178.157)" xlink:href="#a"/>
    <linearGradient id="cf" x1="506.094" y1="987.439" x2="511.112" y2="987.439" gradientTransform="matrix(-0.947, -0.321, -0.347, 1.022, 1440.078, 178.157)" xlink:href="#a"/>
    <linearGradient id="cg" x1="506.094" y1="992.17" x2="511.112" y2="992.17" gradientTransform="matrix(-0.947, -0.321, -0.347, 1.022, 1440.078, 178.157)" xlink:href="#a"/>
    <linearGradient id="ch" x1="506.094" y1="996.902" x2="511.112" y2="996.902" gradientTransform="matrix(-0.947, -0.321, -0.347, 1.022, 1440.078, 178.157)" xlink:href="#a"/>
    <linearGradient id="ci" x1="506.094" y1="1001.633" x2="511.112" y2="1001.633" gradientTransform="matrix(-0.947, -0.321, -0.347, 1.022, 1440.078, 178.157)" xlink:href="#a"/>
    <linearGradient id="cj" x1="506.094" y1="1006.365" x2="511.112" y2="1006.365" gradientTransform="matrix(-0.947, -0.321, -0.347, 1.022, 1440.078, 178.157)" xlink:href="#a"/>
    <linearGradient id="ck" x1="506.094" y1="1011.096" x2="511.112" y2="1011.096" gradientTransform="matrix(-0.947, -0.321, -0.347, 1.022, 1440.078, 178.157)" xlink:href="#a"/>
    <linearGradient id="cl" x1="506.094" y1="1015.828" x2="511.112" y2="1015.828" gradientTransform="matrix(-0.947, -0.321, -0.347, 1.022, 1440.078, 178.157)" xlink:href="#a"/>
    <linearGradient id="cm" x1="506.094" y1="1020.559" x2="511.112" y2="1020.559" gradientTransform="matrix(-0.947, -0.321, -0.347, 1.022, 1440.078, 178.157)" xlink:href="#a"/>
    <linearGradient id="cn" x1="506.094" y1="1025.291" x2="511.112" y2="1025.291" gradientTransform="matrix(-0.947, -0.321, -0.347, 1.022, 1440.078, 178.157)" xlink:href="#a"/>
    <linearGradient id="co" x1="506.094" y1="1030.247" x2="511.112" y2="1030.247" gradientTransform="matrix(-0.947, -0.321, -0.347, 1.022, 1440.078, 178.157)" xlink:href="#a"/>
    <linearGradient id="cp" x1="506.094" y1="1034.978" x2="511.112" y2="1034.978" gradientTransform="matrix(-0.947, -0.321, -0.347, 1.022, 1440.078, 178.157)" xlink:href="#a"/>
    <linearGradient id="cq" x1="506.094" y1="1039.71" x2="511.112" y2="1039.71" gradientTransform="matrix(-0.947, -0.321, -0.347, 1.022, 1440.078, 178.157)" xlink:href="#a"/>
    <linearGradient id="cr" x1="506.094" y1="1044.441" x2="511.112" y2="1044.441" gradientTransform="matrix(-0.947, -0.321, -0.347, 1.022, 1440.078, 178.157)" xlink:href="#a"/>
    <linearGradient id="cs" x1="506.094" y1="1049.173" x2="511.112" y2="1049.173" gradientTransform="matrix(-0.947, -0.321, -0.347, 1.022, 1440.078, 178.157)" xlink:href="#a"/>
    <linearGradient id="ct" x1="506.094" y1="1053.904" x2="511.112" y2="1053.904" gradientTransform="matrix(-0.947, -0.321, -0.347, 1.022, 1440.078, 178.157)" xlink:href="#a"/>
    <linearGradient id="cu" x1="506.094" y1="1058.636" x2="511.112" y2="1058.636" gradientTransform="matrix(-0.947, -0.321, -0.347, 1.022, 1440.078, 178.157)" xlink:href="#a"/>
    <linearGradient id="cv" x1="506.094" y1="1063.368" x2="511.112" y2="1063.368" gradientTransform="matrix(-0.947, -0.321, -0.347, 1.022, 1440.078, 178.157)" xlink:href="#a"/>
    <linearGradient id="cw" x1="506.094" y1="1068.099" x2="511.112" y2="1068.099" gradientTransform="matrix(-0.947, -0.321, -0.347, 1.022, 1440.078, 178.157)" xlink:href="#a"/>
    <linearGradient id="cx" x1="506.094" y1="1072.831" x2="511.112" y2="1072.831" gradientTransform="matrix(-0.947, -0.321, -0.347, 1.022, 1440.078, 178.157)" xlink:href="#a"/>
    <linearGradient id="cy" x1="506.094" y1="1077.562" x2="511.112" y2="1077.562" gradientTransform="matrix(-0.947, -0.321, -0.347, 1.022, 1440.078, 178.157)" xlink:href="#a"/>
    <linearGradient id="cz" x1="506.094" y1="1082.294" x2="511.112" y2="1082.294" gradientTransform="matrix(-0.947, -0.321, -0.347, 1.022, 1440.078, 178.157)" xlink:href="#a"/>
    <linearGradient id="da" x1="506.094" y1="1087.025" x2="511.112" y2="1087.025" gradientTransform="matrix(-0.947, -0.321, -0.347, 1.022, 1440.078, 178.157)" xlink:href="#a"/>
    <linearGradient id="db" x1="506.094" y1="1091.757" x2="511.112" y2="1091.757" gradientTransform="matrix(-0.947, -0.321, -0.347, 1.022, 1440.078, 178.157)" xlink:href="#a"/>
    <linearGradient id="dc" x1="506.094" y1="1096.488" x2="511.112" y2="1096.488" gradientTransform="matrix(-0.947, -0.321, -0.347, 1.022, 1440.078, 178.157)" xlink:href="#a"/>
    <linearGradient id="dd" x1="506.094" y1="1101.22" x2="511.112" y2="1101.22" gradientTransform="matrix(-0.947, -0.321, -0.347, 1.022, 1440.078, 178.157)" xlink:href="#a"/>
    <linearGradient id="de" x1="506.094" y1="1105.952" x2="511.112" y2="1105.952" gradientTransform="matrix(-0.947, -0.321, -0.347, 1.022, 1440.078, 178.157)" xlink:href="#a"/>
    <linearGradient id="df" x1="506.094" y1="1110.683" x2="511.112" y2="1110.683" gradientTransform="matrix(-0.947, -0.321, -0.347, 1.022, 1440.078, 178.157)" xlink:href="#a"/>
    <linearGradient id="dg" x1="506.094" y1="1115.415" x2="511.112" y2="1115.415" gradientTransform="matrix(-0.947, -0.321, -0.347, 1.022, 1440.078, 178.157)" xlink:href="#a"/>
    <linearGradient id="dh" x1="506.094" y1="1120.146" x2="511.112" y2="1120.146" gradientTransform="matrix(-0.947, -0.321, -0.347, 1.022, 1440.078, 178.157)" xlink:href="#a"/>
    <linearGradient id="di" x1="506.094" y1="1124.878" x2="511.112" y2="1124.878" gradientTransform="matrix(-0.947, -0.321, -0.347, 1.022, 1440.078, 178.157)" xlink:href="#a"/>
    <linearGradient id="dj" x1="506.094" y1="1129.609" x2="511.112" y2="1129.609" gradientTransform="matrix(-0.947, -0.321, -0.347, 1.022, 1440.078, 178.157)" xlink:href="#a"/>
    <linearGradient id="dk" x1="506.094" y1="1134.341" x2="511.112" y2="1134.341" gradientTransform="matrix(-0.947, -0.321, -0.347, 1.022, 1440.078, 178.157)" xlink:href="#a"/>
    <linearGradient id="dl" x1="506.094" y1="1139.072" x2="511.112" y2="1139.072" gradientTransform="matrix(-0.947, -0.321, -0.347, 1.022, 1440.078, 178.157)" xlink:href="#a"/>
    <linearGradient id="dm" x1="506.094" y1="1143.804" x2="511.112" y2="1143.804" gradientTransform="matrix(-0.947, -0.321, -0.347, 1.022, 1440.078, 178.157)" xlink:href="#a"/>
    <linearGradient id="dn" x1="506.094" y1="1148.535" x2="511.112" y2="1148.535" gradientTransform="matrix(-0.947, -0.321, -0.347, 1.022, 1440.078, 178.157)" xlink:href="#a"/>
    <linearGradient id="do" x1="652.152" y1="884.351" x2="655.836" y2="884.351" xlink:href="#a"/>
    <linearGradient id="dp" x1="649.569" y1="885.007" x2="654.143" y2="885.007" xlink:href="#a"/>
    <linearGradient id="dq" x1="647.444" y1="888.151" x2="652.089" y2="888.151" xlink:href="#a"/>
    <linearGradient id="dr" x1="646.232" y1="891.989" x2="650.142" y2="891.989" xlink:href="#a"/>
    <linearGradient id="ds" x1="645.79" y1="895.48" x2="648.988" y2="895.48" xlink:href="#a"/>
    <linearGradient id="dt" x1="645.985" y1="899.002" x2="648.709" y2="899.002" xlink:href="#a"/>
    <linearGradient id="du" x1="646.663" y1="902.466" x2="649.207" y2="902.466" xlink:href="#a"/>
    <linearGradient id="dv" x1="647.875" y1="905.777" x2="650.613" y2="905.777" xlink:href="#a"/>
    <linearGradient id="dw" x1="649.737" y1="907.994" x2="652.97" y2="907.994" xlink:href="#a"/>
    <linearGradient id="dx" x1="652.453" y1="908.741" x2="654.976" y2="908.741" xlink:href="#a"/>
    <linearGradient id="dy" x1="652.913" y1="909.06" x2="656.597" y2="909.06" xlink:href="#a"/>
    <linearGradient id="dz" x1="654.606" y1="908.404" x2="659.18" y2="908.404" xlink:href="#a"/>
    <linearGradient id="ea" x1="656.66" y1="905.26" x2="661.305" y2="905.26" xlink:href="#a"/>
    <linearGradient id="eb" x1="658.608" y1="901.423" x2="662.517" y2="901.423" xlink:href="#a"/>
    <linearGradient id="ec" x1="659.761" y1="897.932" x2="662.96" y2="897.932" xlink:href="#a"/>
    <linearGradient id="ed" x1="660.04" y1="894.409" x2="662.764" y2="894.409" xlink:href="#a"/>
    <linearGradient id="ee" x1="659.543" y1="890.945" x2="662.087" y2="890.945" xlink:href="#a"/>
    <linearGradient id="ef" x1="658.136" y1="887.634" x2="660.874" y2="887.634" xlink:href="#a"/>
    <linearGradient id="eg" x1="655.779" y1="885.417" x2="659.012" y2="885.417" xlink:href="#a"/>
    <linearGradient id="eh" x1="653.773" y1="884.67" x2="656.296" y2="884.67" xlink:href="#a"/>
  </defs>
  <title>Back</title>
  <path d="M103.65,287.459s54.5,24.527,181.225,24.527S466.1,287.459,466.1,287.459L346.192,234.318H182.681Z" fill="#603813"/>
  <g>
    <polygon points="542.311 1435.927 548.896 1240.383 437.601 1108.588 357.954 1240.383 347.666 1435.927 542.311 1435.927" fill="url(#a)"/>
    <polygon points="912.161 1333.26 898.868 1330.244 889.802 1240.383 523.643 1240.383 536.269 1435.927 879.544 1435.927 909.531 1435.927 928.47 1435.927 912.161 1333.26" fill="url(#b)"/>
    <g>
      <polygon points="522.854 1256.141 537.848 1257.574 437.627 1102.858 435.26 1111.453 522.854 1256.141" fill="#66421f"/>
      <polygon points="354.673 1256.141 344.509 1257.574 437.601 1102.858 439.206 1111.453 354.673 1256.141" fill="#66421f"/>
      <polygon points="437.601 1102.858 820.095 1111.692 916.896 1259.723 537.848 1257.574 437.601 1102.858" fill="#754c24"/>
    </g>
    <polygon points="602.967 1299.372 607.796 1356.667 657.122 1355.728 657.122 1300.311 602.967 1299.372" fill="#333"/>
    <polygon points="770.835 1299.372 772.214 1357.293 829.806 1358.252 824.989 1300.311 770.835 1299.372" fill="#333"/>
    <polygon points="649.563 1300.18 649.563 1355.868 657.122 1355.728 657.122 1300.311 649.563 1300.18" fill="#847263"/>
    <polygon points="824.989 1300.311 829.806 1358.252 822.028 1358.122 818.321 1300.18 824.989 1300.311" fill="#847263"/>
  </g>
  <polygon points="533.903 1209.037 509.448 1200.885 483.634 887.043 466.007 881.167 434.724 281.097 304.296 169.69 266.254 169.69 135.826 281.097 97.862 1009.319 81.481 1009.319 59.216 1234.85 43.44 1234.85 32.571 1435.927 39.364 1435.927 39.364 1435.927 76.047 1435.927 118.164 1435.927 266.254 1435.927 304.296 1435.927 448.31 1435.927 494.503 1435.927 552.924 1435.927 533.903 1209.037" fill="#96816e"/>
  <g>
    <g>
      <path d="M657.268,914.63l-1.832,2.153c-.538.633-1.412-.128-1.942-1.691h0c-.53-1.563-.523-3.359.015-3.991l1.832-2.153c.538-.633,1.412.128,1.942,1.691h0C657.813,912.2,657.806,914,657.268,914.63Z" fill="url(#c)"/>
      <path d="M658.908,919.466l-1.832,2.153c-.538.633-1.412-.128-1.942-1.691h0c-.53-1.563-.523-3.359.015-3.991l1.832-2.153c.538-.633,1.412.128,1.942,1.691h0C659.453,917.038,659.446,918.834,658.908,919.466Z" fill="url(#d)"/>
      <path d="M660.548,924.3l-1.832,2.153c-.538.632-1.412-.129-1.942-1.692h0c-.53-1.562-.523-3.358.015-3.991l1.832-2.153c.538-.632,1.412.129,1.942,1.691h0C661.093,921.874,661.086,923.67,660.548,924.3Z" fill="url(#e)"/>
      <path d="M662.188,929.139l-1.832,2.153c-.538.632-1.412-.129-1.942-1.692h0c-.53-1.562-.523-3.358.015-3.991l1.832-2.153c.538-.632,1.412.129,1.942,1.692h0C662.733,926.71,662.726,928.506,662.188,929.139Z" fill="url(#f)"/>
      <path d="M663.828,933.975,662,936.128c-.538.632-1.412-.129-1.942-1.691h0c-.53-1.563-.523-3.359.015-3.992l1.832-2.153c.538-.632,1.412.129,1.942,1.692h0C664.373,931.546,664.366,933.342,663.828,933.975Z" fill="url(#g)"/>
      <path d="M665.468,938.811l-1.832,2.153c-.538.633-1.412-.128-1.942-1.691h0c-.53-1.563-.523-3.359.015-3.991l1.832-2.153c.538-.633,1.412.128,1.942,1.691h0C666.013,936.383,666.006,938.179,665.468,938.811Z" fill="url(#h)"/>
      <path d="M667.108,943.647l-1.832,2.153c-.538.633-1.412-.128-1.942-1.691h0c-.53-1.563-.523-3.359.015-3.991l1.832-2.153c.538-.633,1.412.128,1.942,1.691h0C667.653,941.219,667.646,943.015,667.108,943.647Z" fill="url(#i)"/>
      <path d="M668.748,948.483l-1.832,2.154c-.538.632-1.412-.129-1.942-1.692h0c-.53-1.562-.523-3.359.015-3.991l1.832-2.153c.538-.633,1.412.129,1.942,1.691h0C669.293,946.055,669.286,947.851,668.748,948.483Z" fill="url(#j)"/>
      <path d="M670.388,953.32l-1.832,2.153c-.538.632-1.412-.129-1.942-1.692h0c-.53-1.562-.523-3.358.015-3.991l1.832-2.153c.538-.632,1.412.129,1.942,1.691h0C670.933,950.891,670.926,952.687,670.388,953.32Z" fill="url(#k)"/>
      <path d="M672.028,958.156l-1.832,2.153c-.538.632-1.412-.129-1.942-1.691h0c-.53-1.563-.523-3.359.015-3.992l1.832-2.153c.538-.632,1.412.129,1.942,1.692h0C672.573,955.727,672.566,957.523,672.028,958.156Z" fill="url(#l)"/>
      <path d="M673.668,962.992l-1.832,2.153c-.538.633-1.412-.129-1.942-1.691h0c-.53-1.563-.523-3.359.015-3.991l1.832-2.153c.538-.633,1.412.128,1.942,1.691h0C674.213,960.564,674.206,962.36,673.668,962.992Z" fill="url(#m)"/>
      <path d="M675.308,967.828l-1.832,2.153c-.538.633-1.412-.128-1.942-1.691h0c-.53-1.563-.523-3.359.015-3.991l1.832-2.153c.538-.633,1.412.128,1.942,1.691h0C675.853,965.4,675.846,967.2,675.308,967.828Z" fill="url(#n)"/>
      <path d="M676.948,972.664l-1.832,2.154c-.538.632-1.412-.129-1.942-1.692h0c-.53-1.563-.523-3.359.015-3.991l1.832-2.153c.538-.633,1.412.129,1.942,1.691h0C677.493,970.236,677.486,972.032,676.948,972.664Z" fill="url(#o)"/>
      <path d="M678.588,977.5l-1.832,2.153c-.539.632-1.412-.129-1.942-1.692h0c-.53-1.562-.523-3.358.015-3.991l1.832-2.153c.538-.632,1.412.129,1.942,1.691h0C679.133,975.072,679.126,976.868,678.588,977.5Z" fill="url(#p)"/>
      <path d="M680.228,982.337,678.4,984.49c-.539.632-1.412-.129-1.942-1.691h0c-.53-1.563-.524-3.359.015-3.992l1.832-2.153c.538-.632,1.412.129,1.942,1.692h0C680.773,979.908,680.766,981.7,680.228,982.337Z" fill="url(#q)"/>
      <path d="M681.868,987.173l-1.832,2.153c-.539.633-1.412-.129-1.942-1.691h0c-.53-1.563-.524-3.359.015-3.991l1.832-2.153c.538-.633,1.412.128,1.942,1.691h0C682.413,984.745,682.406,986.541,681.868,987.173Z" fill="url(#r)"/>
      <path d="M683.508,992.009l-1.832,2.153c-.539.633-1.412-.128-1.942-1.691h0c-.53-1.563-.524-3.359.015-3.991l1.832-2.153c.538-.633,1.412.128,1.942,1.691h0C684.053,989.581,684.046,991.377,683.508,992.009Z" fill="url(#s)"/>
      <path d="M685.148,996.845,683.316,999c-.539.633-1.412-.128-1.942-1.691h0c-.53-1.563-.524-3.359.015-3.991l1.832-2.153c.538-.633,1.412.129,1.942,1.691h0C685.693,994.417,685.686,996.213,685.148,996.845Z" fill="url(#t)"/>
      <path d="M686.788,1001.682l-1.832,2.153c-.539.632-1.412-.129-1.942-1.692h0c-.53-1.562-.524-3.358.015-3.991L684.861,996c.538-.632,1.412.129,1.942,1.691h0C687.333,999.253,687.326,1001.049,686.788,1001.682Z" fill="url(#u)"/>
      <path d="M688.428,1006.518l-1.832,2.153c-.539.632-1.412-.129-1.942-1.691h0c-.53-1.563-.524-3.359.015-3.992l1.832-2.153c.538-.632,1.412.129,1.942,1.692h0C688.973,1004.089,688.966,1005.885,688.428,1006.518Z" fill="url(#v)"/>
      <path d="M690.068,1011.354l-1.832,2.153c-.539.633-1.412-.129-1.942-1.691h0c-.53-1.563-.524-3.359.015-3.991l1.832-2.154c.538-.632,1.412.129,1.942,1.692h0C690.613,1008.925,690.606,1010.722,690.068,1011.354Z" fill="url(#w)"/>
      <path d="M691.708,1016.19l-1.832,2.153c-.539.633-1.412-.128-1.942-1.691h0c-.53-1.563-.524-3.359.015-3.991l1.832-2.153c.538-.633,1.412.128,1.942,1.691h0C692.253,1013.762,692.246,1015.558,691.708,1016.19Z" fill="url(#x)"/>
      <path d="M693.348,1021.026l-1.832,2.153c-.539.633-1.413-.128-1.942-1.691h0c-.53-1.563-.524-3.359.015-3.991l1.832-2.153c.538-.633,1.412.128,1.942,1.691h0C693.893,1018.6,693.886,1020.394,693.348,1021.026Z" fill="url(#y)"/>
      <path d="M694.988,1025.863l-1.832,2.153c-.539.632-1.413-.129-1.942-1.692h0c-.53-1.562-.524-3.358.015-3.991l1.832-2.153c.538-.632,1.412.129,1.942,1.691h0C695.533,1023.434,695.526,1025.23,694.988,1025.863Z" fill="url(#z)"/>
      <path d="M696.628,1030.7l-1.832,2.153c-.539.632-1.413-.129-1.942-1.691h0c-.53-1.562-.524-3.358.015-3.991l1.832-2.153c.538-.632,1.412.129,1.942,1.692h0C697.173,1028.27,697.166,1030.066,696.628,1030.7Z" fill="url(#aa)"/>
      <path d="M698.268,1035.535l-1.832,2.153c-.539.632-1.413-.129-1.942-1.691h0c-.53-1.563-.524-3.359.015-3.992l1.832-2.153c.538-.632,1.412.129,1.942,1.692h0C698.813,1033.106,698.806,1034.9,698.268,1035.535Z" fill="url(#ab)"/>
      <path d="M699.908,1040.371l-1.832,2.153c-.539.633-1.413-.128-1.942-1.691h0c-.53-1.563-.524-3.359.015-3.991l1.832-2.153c.538-.633,1.412.128,1.942,1.691h0C700.453,1037.943,700.446,1039.739,699.908,1040.371Z" fill="url(#ac)"/>
      <path d="M701.548,1045.207l-1.832,2.153c-.539.633-1.413-.128-1.942-1.691h0c-.53-1.563-.524-3.359.015-3.991l1.832-2.153c.538-.633,1.412.128,1.942,1.691h0C702.093,1042.779,702.086,1044.575,701.548,1045.207Z" fill="url(#ad)"/>
      <path d="M703.188,1050.044l-1.832,2.153c-.539.632-1.413-.129-1.942-1.692h0c-.53-1.562-.524-3.358.015-3.991l1.832-2.153c.538-.632,1.412.129,1.942,1.691h0C703.733,1047.615,703.726,1049.411,703.188,1050.044Z" fill="url(#ae)"/>
      <path d="M704.828,1054.88,703,1057.033c-.539.632-1.413-.129-1.943-1.692h0c-.529-1.562-.523-3.358.016-3.991l1.832-2.153c.538-.632,1.412.129,1.942,1.692h0C705.373,1052.451,705.366,1054.247,704.828,1054.88Z" fill="url(#af)"/>
      <path d="M706.468,1059.716l-1.832,2.153c-.539.632-1.413-.129-1.943-1.691h0c-.529-1.563-.523-3.359.016-3.992l1.832-2.153c.538-.632,1.412.129,1.942,1.692h0C707.013,1057.287,707.006,1059.083,706.468,1059.716Z" fill="url(#ag)"/>
      <path d="M708.108,1064.552l-1.833,2.153c-.538.633-1.412-.128-1.942-1.691h0c-.529-1.563-.523-3.359.016-3.991l1.832-2.153c.538-.633,1.412.128,1.942,1.691h0C708.653,1062.124,708.646,1063.92,708.108,1064.552Z" fill="url(#ah)"/>
    </g>
    <g>
      <path d="M709.825,1069.617l-1.832,2.154c-.538.632-1.412-.129-1.942-1.692h0c-.53-1.563-.523-3.359.015-3.991l1.832-2.153c.539-.633,1.412.129,1.942,1.691h0C710.37,1067.189,710.364,1068.985,709.825,1069.617Z" fill="url(#ai)"/>
      <path d="M711.465,1074.454l-1.832,2.153c-.538.632-1.412-.129-1.942-1.692h0c-.53-1.562-.523-3.358.015-3.991l1.832-2.153c.539-.632,1.412.129,1.942,1.691h0C712.01,1072.025,712,1073.821,711.465,1074.454Z" fill="url(#aj)"/>
      <path d="M713.105,1079.29l-1.832,2.153c-.538.632-1.412-.129-1.942-1.691h0c-.53-1.563-.523-3.359.015-3.992l1.832-2.153c.539-.632,1.412.129,1.942,1.692h0C713.65,1076.861,713.643,1078.657,713.105,1079.29Z" fill="url(#ak)"/>
      <path d="M714.745,1084.126l-1.832,2.153c-.538.633-1.412-.129-1.942-1.691h0c-.53-1.563-.523-3.359.015-3.991l1.832-2.154c.538-.632,1.412.129,1.942,1.692h0C715.29,1081.7,715.283,1083.494,714.745,1084.126Z" fill="url(#al)"/>
      <path d="M716.385,1088.962l-1.832,2.153c-.538.633-1.412-.128-1.942-1.691h0c-.53-1.563-.523-3.359.015-3.991l1.832-2.153c.538-.633,1.412.128,1.942,1.691h0C716.93,1086.534,716.923,1088.33,716.385,1088.962Z" fill="url(#am)"/>
      <path d="M718.025,1093.8l-1.832,2.153c-.538.633-1.412-.128-1.942-1.691h0c-.53-1.563-.523-3.359.015-3.991l1.832-2.153c.538-.633,1.412.129,1.942,1.691h0C718.57,1091.37,718.563,1093.166,718.025,1093.8Z" fill="url(#an)"/>
      <path d="M719.665,1098.635l-1.832,2.153c-.538.632-1.412-.129-1.942-1.692h0c-.53-1.562-.523-3.358.015-3.991l1.832-2.153c.538-.632,1.412.129,1.942,1.691h0C720.21,1096.206,720.2,1098,719.665,1098.635Z" fill="url(#ao)"/>
      <path d="M721.305,1103.471l-1.832,2.153c-.538.632-1.412-.129-1.942-1.691h0c-.53-1.563-.523-3.359.015-3.992l1.832-2.153c.538-.632,1.412.129,1.942,1.692h0C721.85,1101.042,721.843,1102.838,721.305,1103.471Z" fill="url(#ap)"/>
      <path d="M722.945,1108.307l-1.832,2.153c-.538.633-1.412-.129-1.942-1.691h0c-.53-1.563-.523-3.359.015-3.991l1.832-2.154c.538-.632,1.412.129,1.942,1.692h0C723.49,1105.878,723.483,1107.675,722.945,1108.307Z" fill="url(#aq)"/>
      <path d="M724.585,1113.143l-1.832,2.153c-.538.633-1.412-.128-1.942-1.691h0c-.53-1.563-.523-3.359.015-3.991l1.832-2.153c.538-.633,1.412.128,1.942,1.691h0C725.13,1110.715,725.123,1112.511,724.585,1113.143Z" fill="url(#ar)"/>
      <path d="M726.225,1117.979l-1.832,2.153c-.538.633-1.412-.128-1.942-1.691h0c-.53-1.563-.523-3.359.015-3.991l1.832-2.153c.538-.633,1.412.128,1.942,1.691h0C726.77,1115.551,726.763,1117.347,726.225,1117.979Z" fill="url(#as)"/>
      <path d="M727.865,1122.816l-1.832,2.153c-.538.632-1.412-.129-1.942-1.692h0c-.53-1.562-.523-3.358.015-3.991l1.832-2.153c.538-.632,1.412.129,1.942,1.691h0C728.41,1120.387,728.4,1122.183,727.865,1122.816Z" fill="url(#at)"/>
      <path d="M729.505,1127.652l-1.832,2.153c-.538.632-1.412-.129-1.942-1.692h0c-.53-1.562-.523-3.358.015-3.991l1.832-2.153c.538-.632,1.412.129,1.942,1.692h0C730.05,1125.223,730.043,1127.019,729.505,1127.652Z" fill="url(#au)"/>
      <path d="M731.145,1132.488l-1.832,2.153c-.538.632-1.412-.129-1.942-1.691h0c-.53-1.563-.523-3.359.015-3.992l1.832-2.153c.538-.632,1.412.129,1.942,1.692h0C731.69,1130.059,731.683,1131.855,731.145,1132.488Z" fill="url(#av)"/>
      <path d="M732.785,1137.324l-1.832,2.153c-.538.633-1.412-.128-1.942-1.691h0c-.53-1.563-.523-3.359.015-3.991l1.832-2.153c.538-.633,1.412.128,1.942,1.691h0C733.33,1134.9,733.323,1136.692,732.785,1137.324Z" fill="url(#aw)"/>
      <path d="M734.425,1142.16l-1.832,2.153c-.538.633-1.412-.128-1.942-1.691h0c-.53-1.563-.523-3.359.015-3.991l1.832-2.153c.538-.633,1.412.128,1.942,1.691h0C734.97,1139.732,734.963,1141.528,734.425,1142.16Z" fill="url(#ax)"/>
      <path d="M736.065,1147l-1.832,2.153c-.538.632-1.412-.129-1.942-1.692h0c-.53-1.562-.523-3.358.015-3.991l1.832-2.153c.538-.632,1.412.129,1.942,1.691h0C736.61,1144.568,736.6,1146.364,736.065,1147Z" fill="url(#ay)"/>
      <path d="M737.705,1151.833l-1.832,2.153c-.538.632-1.412-.129-1.942-1.692h0c-.53-1.562-.523-3.358.015-3.991l1.832-2.153c.538-.632,1.412.129,1.942,1.692h0C738.25,1149.4,738.243,1151.2,737.705,1151.833Z" fill="url(#az)"/>
      <path d="M739.345,1156.669l-1.832,2.153c-.538.632-1.412-.129-1.942-1.691h0c-.53-1.563-.523-3.359.015-3.992l1.832-2.153c.538-.632,1.412.129,1.942,1.692h0C739.89,1154.24,739.883,1156.036,739.345,1156.669Z" fill="url(#ba)"/>
      <path d="M740.985,1161.505l-1.832,2.153c-.538.633-1.412-.128-1.942-1.691h0c-.53-1.563-.523-3.359.015-3.991l1.832-2.153c.538-.633,1.412.128,1.942,1.691h0C741.53,1159.077,741.523,1160.873,740.985,1161.505Z" fill="url(#bb)"/>
      <path d="M742.625,1166.341l-1.832,2.153c-.538.633-1.412-.128-1.942-1.691h0c-.53-1.563-.523-3.359.015-3.991l1.832-2.153c.538-.633,1.412.128,1.942,1.691h0C743.17,1163.913,743.163,1165.709,742.625,1166.341Z" fill="url(#bc)"/>
      <path d="M744.265,1171.177l-1.832,2.154c-.538.632-1.412-.129-1.942-1.692h0c-.53-1.562-.523-3.359.015-3.991l1.832-2.153c.538-.633,1.412.129,1.942,1.691h0C744.81,1168.749,744.8,1170.545,744.265,1171.177Z" fill="url(#bd)"/>
      <path d="M745.905,1176.014l-1.832,2.153c-.538.632-1.412-.129-1.942-1.692h0c-.53-1.562-.523-3.358.015-3.991l1.832-2.153c.538-.632,1.412.129,1.942,1.691h0C746.45,1173.585,746.443,1175.381,745.905,1176.014Z" fill="url(#be)"/>
      <path d="M747.545,1180.85,745.713,1183c-.538.632-1.412-.129-1.942-1.691h0c-.53-1.563-.523-3.359.015-3.992l1.832-2.153c.538-.632,1.412.129,1.942,1.692h0C748.09,1178.421,748.083,1180.217,747.545,1180.85Z" fill="url(#bf)"/>
      <path d="M749.185,1185.686l-1.832,2.153c-.538.633-1.412-.128-1.942-1.691h0c-.53-1.563-.523-3.359.015-3.991l1.832-2.153c.538-.633,1.412.128,1.942,1.691h0C749.73,1183.258,749.723,1185.054,749.185,1185.686Z" fill="url(#bg)"/>
      <path d="M750.825,1190.522l-1.832,2.153c-.538.633-1.412-.128-1.942-1.691h0c-.53-1.563-.523-3.359.015-3.991l1.832-2.153c.538-.633,1.412.128,1.942,1.691h0C751.37,1188.094,751.363,1189.89,750.825,1190.522Z" fill="url(#bh)"/>
    </g>
  </g>
  <g>
    <g>
      <path d="M652,914.63l1.832,2.153c.539.633,1.413-.128,1.942-1.691h0c.53-1.563.524-3.359-.015-3.991l-1.832-2.153c-.538-.633-1.412.128-1.942,1.691h0C651.457,912.2,651.464,914,652,914.63Z" fill="url(#bi)"/>
      <path d="M650.362,919.466l1.832,2.153c.539.633,1.413-.128,1.942-1.691h0c.53-1.563.524-3.359-.015-3.991l-1.832-2.153c-.538-.633-1.412.128-1.942,1.691h0C649.817,917.038,649.824,918.834,650.362,919.466Z" fill="url(#bj)"/>
      <path d="M648.722,924.3l1.832,2.153c.539.632,1.413-.129,1.943-1.692h0c.529-1.562.523-3.358-.016-3.991l-1.832-2.153c-.538-.632-1.412.129-1.942,1.691h0C648.177,921.874,648.184,923.67,648.722,924.3Z" fill="url(#bk)"/>
      <path d="M647.082,929.139l1.832,2.153c.539.632,1.413-.129,1.943-1.692h0c.529-1.562.523-3.358-.016-3.991l-1.832-2.153c-.538-.632-1.412.129-1.942,1.692h0C646.537,926.71,646.544,928.506,647.082,929.139Z" fill="url(#bl)"/>
      <path d="M645.442,933.975l1.833,2.153c.538.632,1.412-.129,1.942-1.691h0c.529-1.563.523-3.359-.016-3.992l-1.832-2.153c-.538-.632-1.412.129-1.942,1.692h0C644.9,931.546,644.9,933.342,645.442,933.975Z" fill="url(#bm)"/>
      <path d="M643.8,938.811l1.833,2.153c.538.633,1.412-.128,1.942-1.691h0c.529-1.563.523-3.359-.015-3.991l-1.833-2.153c-.538-.633-1.412.128-1.942,1.691h0C643.257,936.383,643.264,938.179,643.8,938.811Z" fill="url(#bn)"/>
      <path d="M642.162,943.647,644,945.8c.538.633,1.412-.128,1.942-1.691h0c.529-1.563.523-3.359-.015-3.991l-1.833-2.153c-.538-.633-1.412.128-1.942,1.691h0C641.617,941.219,641.624,943.015,642.162,943.647Z" fill="url(#bo)"/>
      <path d="M640.522,948.483l1.833,2.154c.538.632,1.412-.129,1.942-1.692h0c.529-1.562.523-3.359-.015-3.991l-1.833-2.153c-.538-.633-1.412.129-1.942,1.691h0C639.977,946.055,639.984,947.851,640.522,948.483Z" fill="url(#bp)"/>
      <path d="M638.882,953.32l1.833,2.153c.538.632,1.412-.129,1.942-1.692h0c.529-1.562.523-3.358-.015-3.991l-1.833-2.153c-.538-.632-1.412.129-1.942,1.691h0C638.337,950.891,638.344,952.687,638.882,953.32Z" fill="url(#bq)"/>
      <path d="M637.242,958.156l1.833,2.153c.538.632,1.412-.129,1.942-1.691h0c.53-1.563.523-3.359-.015-3.992l-1.833-2.153c-.538-.632-1.412.129-1.942,1.692h0C636.7,955.727,636.7,957.523,637.242,958.156Z" fill="url(#br)"/>
      <path d="M635.6,962.992l1.833,2.153c.538.633,1.412-.129,1.942-1.691h0c.53-1.563.523-3.359-.015-3.991l-1.833-2.153c-.538-.633-1.412.128-1.942,1.691h0C635.057,960.564,635.064,962.36,635.6,962.992Z" fill="url(#bs)"/>
      <path d="M633.962,967.828l1.833,2.153c.538.633,1.412-.128,1.942-1.691h0c.53-1.563.523-3.359-.015-3.991l-1.833-2.153c-.538-.633-1.412.128-1.942,1.691h0C633.417,965.4,633.424,967.2,633.962,967.828Z" fill="url(#bt)"/>
      <path d="M632.322,972.664l1.833,2.154c.538.632,1.412-.129,1.942-1.692h0c.53-1.563.523-3.359-.015-3.991l-1.833-2.153c-.538-.633-1.412.129-1.942,1.691h0C631.777,970.236,631.784,972.032,632.322,972.664Z" fill="url(#bu)"/>
      <path d="M630.682,977.5l1.833,2.153c.538.632,1.412-.129,1.942-1.692h0c.53-1.562.523-3.358-.015-3.991l-1.833-2.153c-.538-.632-1.412.129-1.942,1.691h0C630.138,975.072,630.144,976.868,630.682,977.5Z" fill="url(#bv)"/>
      <path d="M629.042,982.337l1.833,2.153c.538.632,1.412-.129,1.942-1.691h0c.53-1.563.523-3.359-.015-3.992l-1.833-2.153c-.538-.632-1.412.129-1.942,1.692h0C628.5,979.908,628.5,981.7,629.042,982.337Z" fill="url(#bw)"/>
      <path d="M627.4,987.173l1.833,2.153c.538.633,1.412-.129,1.942-1.691h0c.53-1.563.523-3.359-.015-3.991l-1.833-2.153c-.538-.633-1.412.128-1.942,1.691h0C626.858,984.745,626.864,986.541,627.4,987.173Z" fill="url(#bx)"/>
      <path d="M625.762,992.009l1.833,2.153c.538.633,1.412-.128,1.942-1.691h0c.53-1.563.523-3.359-.015-3.991l-1.833-2.153c-.538-.633-1.412.128-1.942,1.691h0C625.218,989.581,625.224,991.377,625.762,992.009Z" fill="url(#by)"/>
      <path d="M624.123,996.845,625.955,999c.538.633,1.412-.128,1.942-1.691h0c.53-1.563.523-3.359-.015-3.991l-1.833-2.153c-.538-.633-1.412.129-1.942,1.691h0C623.578,994.417,623.584,996.213,624.123,996.845Z" fill="url(#bz)"/>
      <path d="M622.483,1001.682l1.832,2.153c.538.632,1.412-.129,1.942-1.692h0c.53-1.562.523-3.358-.015-3.991L624.41,996c-.539-.632-1.413.129-1.943,1.691h0C621.938,999.253,621.944,1001.049,622.483,1001.682Z" fill="url(#ca)"/>
      <path d="M620.843,1006.518l1.832,2.153c.538.632,1.412-.129,1.942-1.691h0c.53-1.563.523-3.359-.015-3.992l-1.832-2.153c-.539-.632-1.413.129-1.943,1.692h0C620.3,1004.089,620.3,1005.885,620.843,1006.518Z" fill="url(#cb)"/>
      <path d="M619.2,1011.354l1.832,2.153c.538.633,1.412-.129,1.942-1.691h0c.53-1.563.523-3.359-.015-3.991l-1.832-2.154c-.539-.632-1.413.129-1.942,1.692h0C618.658,1008.925,618.664,1010.722,619.2,1011.354Z" fill="url(#cc)"/>
      <path d="M617.563,1016.19l1.832,2.153c.538.633,1.412-.128,1.942-1.691h0c.53-1.563.523-3.359-.015-3.991l-1.832-2.153c-.539-.633-1.413.128-1.942,1.691h0C617.018,1013.762,617.024,1015.558,617.563,1016.19Z" fill="url(#cd)"/>
      <path d="M615.923,1021.026l1.832,2.153c.538.633,1.412-.128,1.942-1.691h0c.53-1.563.523-3.359-.015-3.991l-1.832-2.153c-.539-.633-1.413.128-1.942,1.691h0C615.378,1018.6,615.384,1020.394,615.923,1021.026Z" fill="url(#ce)"/>
      <path d="M614.283,1025.863l1.832,2.153c.538.632,1.412-.129,1.942-1.692h0c.53-1.562.523-3.358-.015-3.991l-1.832-2.153c-.539-.632-1.413.129-1.942,1.691h0C613.738,1023.434,613.744,1025.23,614.283,1025.863Z" fill="url(#cf)"/>
      <path d="M612.643,1030.7l1.832,2.153c.538.632,1.412-.129,1.942-1.691h0c.53-1.562.523-3.358-.015-3.991l-1.832-2.153c-.539-.632-1.413.129-1.942,1.692h0C612.1,1028.27,612.1,1030.066,612.643,1030.7Z" fill="url(#cg)"/>
      <path d="M611,1035.535l1.832,2.153c.538.632,1.412-.129,1.942-1.691h0c.53-1.563.523-3.359-.015-3.992l-1.832-2.153c-.539-.632-1.413.129-1.942,1.692h0C610.458,1033.106,610.464,1034.9,611,1035.535Z" fill="url(#ch)"/>
      <path d="M609.363,1040.371l1.832,2.153c.538.633,1.412-.128,1.942-1.691h0c.53-1.563.523-3.359-.015-3.991l-1.832-2.153c-.539-.633-1.413.128-1.942,1.691h0C608.818,1037.943,608.824,1039.739,609.363,1040.371Z" fill="url(#ci)"/>
      <path d="M607.723,1045.207l1.832,2.153c.538.633,1.412-.128,1.942-1.691h0c.53-1.563.523-3.359-.015-3.991l-1.832-2.153c-.539-.633-1.412.128-1.942,1.691h0C607.178,1042.779,607.184,1044.575,607.723,1045.207Z" fill="url(#cj)"/>
      <path d="M606.083,1050.044l1.832,2.153c.538.632,1.412-.129,1.942-1.692h0c.53-1.562.523-3.358-.015-3.991l-1.832-2.153c-.539-.632-1.412.129-1.942,1.691h0C605.538,1047.615,605.544,1049.411,606.083,1050.044Z" fill="url(#ck)"/>
      <path d="M604.443,1054.88l1.832,2.153c.538.632,1.412-.129,1.942-1.692h0c.53-1.562.523-3.358-.015-3.991l-1.832-2.153c-.539-.632-1.412.129-1.942,1.692h0C603.9,1052.451,603.9,1054.247,604.443,1054.88Z" fill="url(#cl)"/>
      <path d="M602.8,1059.716l1.832,2.153c.538.632,1.412-.129,1.942-1.691h0c.53-1.563.523-3.359-.015-3.992l-1.832-2.153c-.539-.632-1.412.129-1.942,1.692h0C602.258,1057.287,602.264,1059.083,602.8,1059.716Z" fill="url(#cm)"/>
      <path d="M601.163,1064.552l1.832,2.153c.538.633,1.412-.128,1.942-1.691h0c.53-1.563.523-3.359-.015-3.991l-1.832-2.153c-.539-.633-1.412.128-1.942,1.691h0C600.618,1062.124,600.624,1063.92,601.163,1064.552Z" fill="url(#cn)"/>
    </g>
    <g>
      <path d="M599.445,1069.617l1.832,2.154c.538.632,1.412-.129,1.942-1.692h0c.53-1.563.523-3.359-.015-3.991l-1.832-2.153c-.538-.633-1.412.129-1.942,1.691h0C598.9,1067.189,598.907,1068.985,599.445,1069.617Z" fill="url(#co)"/>
      <path d="M597.8,1074.454l1.832,2.153c.538.632,1.412-.129,1.942-1.692h0c.53-1.562.523-3.358-.015-3.991l-1.832-2.153c-.538-.632-1.412.129-1.942,1.691h0C597.26,1072.025,597.267,1073.821,597.8,1074.454Z" fill="url(#cp)"/>
      <path d="M596.165,1079.29l1.832,2.153c.538.632,1.412-.129,1.942-1.691h0c.53-1.563.523-3.359-.015-3.992l-1.832-2.153c-.538-.632-1.412.129-1.942,1.692h0C595.62,1076.861,595.627,1078.657,596.165,1079.29Z" fill="url(#cq)"/>
      <path d="M594.525,1084.126l1.832,2.153c.538.633,1.412-.129,1.942-1.691h0c.53-1.563.523-3.359-.015-3.991l-1.832-2.154c-.538-.632-1.412.129-1.942,1.692h0C593.98,1081.7,593.987,1083.494,594.525,1084.126Z" fill="url(#cr)"/>
      <path d="M592.885,1088.962l1.832,2.153c.538.633,1.412-.128,1.942-1.691h0c.53-1.563.523-3.359-.015-3.991l-1.832-2.153c-.538-.633-1.412.128-1.942,1.691h0C592.34,1086.534,592.347,1088.33,592.885,1088.962Z" fill="url(#cs)"/>
      <path d="M591.245,1093.8l1.832,2.153c.538.633,1.412-.128,1.942-1.691h0c.53-1.563.523-3.359-.015-3.991l-1.832-2.153c-.538-.633-1.412.129-1.942,1.691h0C590.7,1091.37,590.707,1093.166,591.245,1093.8Z" fill="url(#ct)"/>
      <path d="M589.605,1098.635l1.832,2.153c.538.632,1.412-.129,1.942-1.692h0c.53-1.562.523-3.358-.015-3.991l-1.832-2.153c-.538-.632-1.412.129-1.942,1.691h0C589.06,1096.206,589.067,1098,589.605,1098.635Z" fill="url(#cu)"/>
      <path d="M587.965,1103.471l1.832,2.153c.538.632,1.412-.129,1.942-1.691h0c.53-1.563.523-3.359-.015-3.992l-1.832-2.153c-.538-.632-1.412.129-1.942,1.692h0C587.42,1101.042,587.427,1102.838,587.965,1103.471Z" fill="url(#cv)"/>
      <path d="M586.325,1108.307l1.832,2.153c.538.633,1.412-.129,1.942-1.691h0c.53-1.563.523-3.359-.015-3.991l-1.832-2.154c-.538-.632-1.412.129-1.942,1.692h0C585.78,1105.878,585.787,1107.675,586.325,1108.307Z" fill="url(#cw)"/>
      <path d="M584.685,1113.143l1.832,2.153c.538.633,1.412-.128,1.942-1.691h0c.53-1.563.523-3.359-.015-3.991l-1.832-2.153c-.538-.633-1.412.128-1.942,1.691h0C584.14,1110.715,584.147,1112.511,584.685,1113.143Z" fill="url(#cx)"/>
      <path d="M583.045,1117.979l1.832,2.153c.538.633,1.412-.128,1.942-1.691h0c.53-1.563.523-3.359-.015-3.991l-1.832-2.153c-.538-.633-1.412.128-1.942,1.691h0C582.5,1115.551,582.507,1117.347,583.045,1117.979Z" fill="url(#cy)"/>
      <path d="M581.405,1122.816l1.832,2.153c.538.632,1.412-.129,1.942-1.692h0c.53-1.562.523-3.358-.015-3.991l-1.832-2.153c-.538-.632-1.412.129-1.942,1.691h0C580.86,1120.387,580.867,1122.183,581.405,1122.816Z" fill="url(#cz)"/>
      <path d="M579.765,1127.652l1.832,2.153c.538.632,1.412-.129,1.942-1.692h0c.53-1.562.523-3.358-.015-3.991l-1.832-2.153c-.538-.632-1.412.129-1.942,1.692h0C579.22,1125.223,579.227,1127.019,579.765,1127.652Z" fill="url(#da)"/>
      <path d="M578.125,1132.488l1.832,2.153c.538.632,1.412-.129,1.942-1.691h0c.53-1.563.523-3.359-.015-3.992l-1.832-2.153c-.538-.632-1.412.129-1.942,1.692h0C577.58,1130.059,577.587,1131.855,578.125,1132.488Z" fill="url(#db)"/>
      <path d="M576.485,1137.324l1.832,2.153c.538.633,1.412-.128,1.942-1.691h0c.53-1.563.523-3.359-.015-3.991l-1.832-2.153c-.538-.633-1.412.128-1.942,1.691h0C575.94,1134.9,575.947,1136.692,576.485,1137.324Z" fill="url(#dc)"/>
      <path d="M574.845,1142.16l1.832,2.153c.538.633,1.412-.128,1.942-1.691h0c.53-1.563.523-3.359-.015-3.991l-1.832-2.153c-.538-.633-1.412.128-1.942,1.691h0C574.3,1139.732,574.307,1141.528,574.845,1142.16Z" fill="url(#dd)"/>
      <path d="M573.205,1147l1.832,2.153c.538.632,1.412-.129,1.942-1.692h0c.53-1.562.523-3.358-.015-3.991l-1.832-2.153c-.538-.632-1.412.129-1.942,1.691h0C572.66,1144.568,572.667,1146.364,573.205,1147Z" fill="url(#de)"/>
      <path d="M571.565,1151.833l1.832,2.153c.538.632,1.412-.129,1.942-1.692h0c.53-1.562.523-3.358-.015-3.991l-1.832-2.153c-.538-.632-1.412.129-1.942,1.692h0C571.02,1149.4,571.027,1151.2,571.565,1151.833Z" fill="url(#df)"/>
      <path d="M569.925,1156.669l1.832,2.153c.538.632,1.412-.129,1.942-1.691h0c.53-1.563.523-3.359-.015-3.992l-1.832-2.153c-.538-.632-1.412.129-1.942,1.692h0C569.38,1154.24,569.387,1156.036,569.925,1156.669Z" fill="url(#dg)"/>
      <path d="M568.285,1161.505l1.832,2.153c.539.633,1.412-.128,1.942-1.691h0c.53-1.563.523-3.359-.015-3.991l-1.832-2.153c-.538-.633-1.412.128-1.942,1.691h0C567.74,1159.077,567.747,1160.873,568.285,1161.505Z" fill="url(#dh)"/>
      <path d="M566.645,1166.341l1.832,2.153c.539.633,1.412-.128,1.942-1.691h0c.53-1.563.524-3.359-.015-3.991l-1.832-2.153c-.538-.633-1.412.128-1.942,1.691h0C566.1,1163.913,566.107,1165.709,566.645,1166.341Z" fill="url(#di)"/>
      <path d="M565.005,1171.177l1.832,2.154c.539.632,1.412-.129,1.942-1.692h0c.53-1.562.524-3.359-.015-3.991l-1.832-2.153c-.538-.633-1.412.129-1.942,1.691h0C564.46,1168.749,564.467,1170.545,565.005,1171.177Z" fill="url(#dj)"/>
      <path d="M563.365,1176.014l1.832,2.153c.539.632,1.412-.129,1.942-1.692h0c.53-1.562.524-3.358-.015-3.991l-1.832-2.153c-.538-.632-1.412.129-1.942,1.691h0C562.82,1173.585,562.827,1175.381,563.365,1176.014Z" fill="url(#dk)"/>
      <path d="M561.725,1180.85l1.832,2.153c.539.632,1.412-.129,1.942-1.691h0c.53-1.563.524-3.359-.015-3.992l-1.832-2.153c-.538-.632-1.412.129-1.942,1.692h0C561.18,1178.421,561.187,1180.217,561.725,1180.85Z" fill="url(#dl)"/>
      <path d="M560.085,1185.686l1.832,2.153c.539.633,1.412-.128,1.942-1.691h0c.53-1.563.524-3.359-.015-3.991L562.012,1180c-.538-.633-1.412.128-1.942,1.691h0C559.54,1183.258,559.547,1185.054,560.085,1185.686Z" fill="url(#dm)"/>
      <path d="M558.445,1190.522l1.832,2.153c.539.633,1.412-.128,1.942-1.691h0c.53-1.563.524-3.359-.015-3.991l-1.832-2.153c-.538-.633-1.412.128-1.942,1.691h0C557.9,1188.094,557.907,1189.89,558.445,1190.522Z" fill="url(#dn)"/>
    </g>
  </g>
  <rect x="475.037" y="890.043" width="194.354" height="19.365" transform="translate(-34.045 22.58) rotate(-2.195)" fill="#66421f"/>
  <polygon points="546.233 906.07 482.871 948.999 476.306 939.308 525.933 904.905 546.233 906.07" fill="#66421f"/>
  <g>
    <g>
      <path d="M653.687,885.663c-.455-.718-.847-1.246-1.363-1.933s.261-1.26.632-1.367c.166-.05-.371.107,0,0s1.386-.128,1.735.539a17.6,17.6,0,0,1,1.013,1.841c.28.717.105,1.271-.416,1.534.055.033.04-.02,0,0A1.207,1.207,0,0,1,653.687,885.663Z" fill="url(#do)"/>
      <path d="M651.518,886.456c-.526-.3-1.124.09-1.74-.152s.283-1.75.653-2.209c.067-.029-.37.459,0,0s1.716-1.288,2.258-.5a9.559,9.559,0,0,1,1.343,2.092c.36.9-.24,1.058-.628,1.052-.135.027.388.006,0,0A4.472,4.472,0,0,1,651.518,886.456Z" fill="url(#dp)"/>
      <path d="M649.521,889.852c-.589.184-1.126.736-1.777.756s-.085-1.646.234-2.264c.066-.091-.319.618,0,0s1.526-2.628,2.2-2.631,1.172-.156,1.706.474-.115,1.273-.462,1.707c-.087.123.347-.434,0,0S650.11,889.668,649.521,889.852Z" fill="url(#dq)"/>
      <path d="M648.324,893.705c-.555.3-1.022.864-1.631.975s-.507-1.074-.3-1.819c.063-.249-.2.745,0,0s1-2.679,1.637-2.883,1.145-.7,1.783-.688.2,1.284-.038,1.865c-.061.169.239-.581,0,0S648.879,893.4,648.324,893.705Z" fill="url(#dr)"/>
      <path d="M647.97,897.1a4.691,4.691,0,0,1-1.424.735c-.488.109-.828-.52-.735-1.439-.043.036-.009.093,0,0a3.285,3.285,0,0,1,1.028-2.266,6.817,6.817,0,0,1,1.647-1.006c.556-.126.561.725.435,1.555.029-.049.012-.08,0,0C648.795,895.508,648.464,896.782,647.97,897.1Z" fill="url(#ds)"/>
      <path d="M648.19,900.293a9.962,9.962,0,0,1-1.2,1.045c-.454.37-.9-1.037-.979-1.658-.049-.295.08.621,0,0s-.012-2.1.506-2.321.966-.525,1.464-.722.707.541.715,1.347c0,.144.024-.009,0,0A3.89,3.89,0,0,1,648.19,900.293Z" fill="url(#dt)"/>
      <path d="M649.022,903.478a16.814,16.814,0,0,1-.864,1.572c-.4.545-1.053-.9-1.221-1.46-.078-.261.168.557,0,0s-.5-2.294-.049-2.794a4.183,4.183,0,0,1,1.229-.988c.464-.259.741.6.887,1.293.025.116.012-.017,0,0A3.937,3.937,0,0,1,649.022,903.478Z" fill="url(#du)"/>
      <path d="M650.579,906.3a12.1,12.1,0,0,1-.506,2.059c-.294.816-1.209-.419-1.471-.883-.115-.243.262.464,0,0s-.973-2.2-.64-2.939a3.7,3.7,0,0,1,.9-1.51c.44-.374.835.42,1.119.99.01-.036-.018-.037,0,0A3.823,3.823,0,0,1,650.579,906.3Z" fill="url(#dv)"/>
      <path d="M652.906,907.4a7.527,7.527,0,0,1-.042,2.2c-.2.916-1.127.842-1.642.617-.084-.036-.013-.023,0,0-.516-.225-1.6-1.218-1.474-2.214a7.451,7.451,0,0,1,.552-2.042c.257-.708,1.12-.079,1.415.1.155.068-.3-.18,0,0S652.889,906.563,652.906,907.4Z" fill="url(#dw)"/>
      <path d="M654.967,907.742a15.212,15.212,0,0,1-.114,2.5c-.112.909-.652.953-1.1.776,0,.023.017.007,0,0A1.843,1.843,0,0,1,652.5,909.5a8.267,8.267,0,0,1,.05-2.152,1.165,1.165,0,0,1,1.288-.955c-.018-.035-.031,0,0,0A1.277,1.277,0,0,1,654.967,907.742Z" fill="url(#dx)"/>
    </g>
    <g>
      <path d="M655.063,907.748c.454.718.846,1.246,1.363,1.933s-.261,1.26-.633,1.367c-.166.05.372-.107,0,0s-1.385.128-1.734-.539a17.51,17.51,0,0,1-1.014-1.841c-.28-.717-.1-1.271.416-1.534-.055-.032-.04.02,0,0A1.21,1.21,0,0,1,655.063,907.748Z" fill="url(#dy)"/>
      <path d="M657.231,906.955c.526.3,1.125-.09,1.74.152s-.283,1.75-.653,2.209c-.067.029.37-.459,0,0s-1.715,1.288-2.258.5a9.6,9.6,0,0,1-1.343-2.092c-.36-.9.24-1.058.628-1.052.135-.027-.388-.006,0,0A4.472,4.472,0,0,1,657.231,906.955Z" fill="url(#dz)"/>
      <path d="M659.228,903.559c.589-.183,1.126-.736,1.777-.756s.085,1.646-.234,2.264c-.066.092.319-.618,0,0s-1.525,2.628-2.2,2.631-1.172.156-1.706-.474.115-1.273.462-1.706c.087-.124-.347.433,0,0S658.639,903.743,659.228,903.559Z" fill="url(#ea)"/>
      <path d="M660.425,899.706c.555-.3,1.023-.864,1.631-.975s.507,1.074.3,1.82c-.063.248.2-.746,0,0s-1,2.678-1.637,2.882-1.145.7-1.783.688-.2-1.284.038-1.864c.061-.17-.239.58,0,0S659.87,900.008,660.425,899.706Z" fill="url(#eb)"/>
      <path d="M660.779,896.311a4.684,4.684,0,0,1,1.425-.735c.487-.109.827.52.734,1.439.044-.036.009-.093,0,0a3.285,3.285,0,0,1-1.027,2.266,6.841,6.841,0,0,1-1.648,1.006c-.556.126-.56-.725-.435-1.555-.029.05-.012.08,0,0C659.954,897.9,660.285,896.629,660.779,896.311Z" fill="url(#ec)"/>
      <path d="M660.559,893.118a9.962,9.962,0,0,1,1.2-1.045c.455-.37.9,1.037.979,1.659.049.294-.08-.622,0,0s.012,2.1-.5,2.32-.967.525-1.465.722-.707-.541-.715-1.347c0-.144-.023.009,0,0A3.892,3.892,0,0,1,660.559,893.118Z" fill="url(#ed)"/>
      <path d="M659.727,889.933a16.942,16.942,0,0,1,.864-1.572c.4-.545,1.053.9,1.221,1.46.078.261-.168-.557,0,0s.5,2.294.05,2.794a4.2,4.2,0,0,1-1.229.988c-.465.259-.742-.6-.888-1.293-.025-.116-.012.017,0,0A3.937,3.937,0,0,1,659.727,889.933Z" fill="url(#ee)"/>
      <path d="M658.17,887.115a12.124,12.124,0,0,1,.506-2.059c.295-.816,1.209.419,1.471.883.115.243-.262-.464,0,0s.973,2.2.64,2.939a3.7,3.7,0,0,1-.9,1.51c-.439.374-.835-.42-1.119-.99-.009.036.018.037,0,0A3.823,3.823,0,0,1,658.17,887.115Z" fill="url(#ef)"/>
      <path d="M655.844,886.014a7.484,7.484,0,0,1,.041-2.2c.2-.916,1.127-.843,1.642-.618.084.036.013.024,0,0,.516.225,1.6,1.218,1.474,2.214a7.441,7.441,0,0,1-.552,2.042c-.257.709-1.119.079-1.415-.1-.154-.068.3.18,0,0S655.861,886.848,655.844,886.014Z" fill="url(#eg)"/>
      <path d="M653.782,885.669a15.1,15.1,0,0,1,.115-2.5c.111-.909.651-.953,1.1-.776,0-.022-.017-.007,0,0a1.842,1.842,0,0,1,1.253,1.522,8.266,8.266,0,0,1-.05,2.152,1.165,1.165,0,0,1-1.288.955c.018.035.031,0,0,0A1.277,1.277,0,0,1,653.782,885.669Z" fill="url(#eh)"/>
    </g>
  </g>
  <polygon points="652.758 886.948 668.949 886.328 669.691 905.679 652.647 906.332 652.758 886.948" fill="#66421f"/>
  <g>
    <polygon points="371.847 367.163 399.421 367.163 397.336 420.962 409.655 476.391 382.08 476.391 371.847 367.163" fill="#42210b"/>
    <polygon points="342.125 522.181 369.699 522.181 369.699 495.321 341.567 495.321 342.125 522.181" fill="#42210b"/>
    <polygon points="303.125 341.334 325.912 341.334 324.808 337.352 352.382 337.352 352.382 382.641 299.658 382.641 303.125 341.334" fill="#42210b"/>
    <polygon points="263.17 387.124 297.702 387.124 297.702 403.514 270.143 399.111 263.17 387.124" fill="#42210b"/>
    <polygon points="273.404 496.351 304.713 496.351 320.442 526.163 348.017 526.163 344.665 496.136 299.495 475.916 275.361 480.808 273.404 496.351" fill="#42210b"/>
    <path d="M409.655,476.391l7.972-41.577-11.554-5.746a107.327,107.327,0,0,0-1.39-14.895l10.1-9.718-15.361-37.292-11.065,7.373a62.572,62.572,0,0,0-8.513-9.144l2.235-16.879-29.7-11.161-4.1,16.177a40.692,40.692,0,0,0-10.639,1.945l-6.94-14.14-26.635,21.507,5.265,15.493a80.624,80.624,0,0,0-6.53,11.918l-12.056-3.128L282.773,428.7l11.553,5.745a107.48,107.48,0,0,0,1.39,14.9l-10.1,9.717,15.361,37.292,11.065-7.372a62.563,62.563,0,0,0,8.513,9.143L318.321,515l29.7,11.161,4.1-16.176a40.72,40.72,0,0,0,10.639-1.946l6.94,14.14,26.635-21.508-5.265-15.492a80.543,80.543,0,0,0,6.53-11.919Z" fill="#42210b"/>
    <path d="M382.08,476.391l7.972-41.577L378.5,429.069a107.479,107.479,0,0,0-1.389-14.9l10.1-9.718-15.361-37.292-11.066,7.373a62.621,62.621,0,0,0-8.512-9.144l2.235-16.879-29.7-11.161-4.1,16.177a40.677,40.677,0,0,0-10.639,1.945l-6.941-14.14L276.49,362.841l5.266,15.493a80.629,80.629,0,0,0-6.531,11.918l-12.055-3.128L255.2,428.7l11.554,5.745a107.479,107.479,0,0,0,1.389,14.9l-10.1,9.717L273.4,496.351l11.065-7.372a62.672,62.672,0,0,0,8.512,9.144L290.747,515l29.695,11.161,4.1-16.176a40.72,40.72,0,0,0,10.639-1.946l6.941,14.14,26.635-21.508-5.266-15.492a80.548,80.548,0,0,0,6.531-11.919Z" fill="#603813"/>
    <ellipse cx="320.844" cy="431.758" rx="3.763" ry="5.544" fill="#42210b"/>
    <ellipse cx="162.125" cy="431.758" rx="3.763" ry="5.544" fill="#42210b"/>
    <rect x="162.125" y="426.213" width="158.719" height="11.089" fill="#42210b"/>
  </g>
  <g>
    <g>
      <polygon points="374.782 549.126 402.356 549.126 400.271 602.925 412.59 658.354 385.016 658.354 374.782 549.126" fill="#42210b"/>
      <polygon points="345.06 704.144 372.634 704.144 372.634 677.283 344.502 677.283 345.06 704.144" fill="#42210b"/>
      <polygon points="306.061 523.297 328.847 523.297 327.743 519.314 355.318 519.314 355.318 564.604 302.594 564.604 306.061 523.297" fill="#42210b"/>
      <polygon points="266.105 569.086 300.637 569.086 300.637 585.477 273.078 581.074 266.105 569.086" fill="#42210b"/>
      <polygon points="276.339 678.314 307.649 678.314 323.378 708.126 350.952 708.126 347.6 678.099 302.431 657.878 278.297 662.77 276.339 678.314" fill="#42210b"/>
      <path d="M412.59,658.354l7.972-41.577-11.554-5.746a107.327,107.327,0,0,0-1.39-14.895l10.1-9.718-15.362-37.292L391.291,556.5a62.724,62.724,0,0,0-8.512-9.144l2.234-16.878-29.695-11.162-4.1,16.177a40.72,40.72,0,0,0-10.638,1.946l-6.941-14.14L307,544.8l5.266,15.493a80.537,80.537,0,0,0-6.531,11.918l-12.055-3.129-7.972,41.578,11.554,5.745a107.507,107.507,0,0,0,1.389,14.9l-10.1,9.717,15.361,37.292,11.065-7.372a62.673,62.673,0,0,0,8.513,9.143l-2.235,16.879,29.7,11.162,4.1-16.177A40.72,40.72,0,0,0,365.694,690l6.94,14.141,26.635-21.508L394,667.143a80.629,80.629,0,0,0,6.531-11.918Z" fill="#42210b"/>
    </g>
    <path d="M385.016,658.354l7.971-41.577-11.553-5.745a107.48,107.48,0,0,0-1.39-14.9l10.1-9.718-15.361-37.292L363.717,556.5a62.784,62.784,0,0,0-8.513-9.144l2.235-16.878-29.7-11.162-4.1,16.177A40.72,40.72,0,0,0,313,537.437l-6.94-14.14L279.426,544.8l5.265,15.493a80.532,80.532,0,0,0-6.53,11.918l-12.056-3.129-7.972,41.578,11.554,5.745a107.356,107.356,0,0,0,1.39,14.9l-10.1,9.717,15.361,37.292,11.065-7.372a62.672,62.672,0,0,0,8.512,9.144l-2.234,16.878,29.7,11.162,4.1-16.177A40.735,40.735,0,0,0,338.12,690l6.94,14.141L371.7,682.636l-5.266-15.493a80.537,80.537,0,0,0,6.531-11.918Z" fill="#603813"/>
    <g>
      <ellipse cx="323.779" cy="613.72" rx="3.763" ry="5.544" fill="#42210b"/>
      <ellipse cx="314.104" cy="613.72" rx="3.763" ry="5.544" fill="#42210b"/>
      <rect x="314.104" y="608.176" width="9.675" height="11.089" fill="#42210b"/>
    </g>
  </g>
  <g>
    <g>
      <polygon points="374.782 732.651 402.356 732.651 400.271 786.45 412.59 841.878 385.016 841.878 374.782 732.651" fill="#42210b"/>
      <polygon points="345.06 887.669 372.634 887.669 372.634 860.808 344.502 860.808 345.06 887.669" fill="#42210b"/>
      <polygon points="306.061 706.822 328.847 706.822 327.743 702.839 355.318 702.839 355.318 748.129 302.594 748.129 306.061 706.822" fill="#42210b"/>
      <polygon points="266.105 752.611 300.637 752.611 300.637 769.001 273.078 764.598 266.105 752.611" fill="#42210b"/>
      <polygon points="276.339 861.839 307.649 861.839 323.378 891.651 350.952 891.651 347.6 861.624 302.431 841.403 278.297 846.295 276.339 861.839" fill="#42210b"/>
      <path d="M412.59,841.878l7.972-41.577-11.554-5.745a107.313,107.313,0,0,0-1.39-14.9l10.1-9.718-15.362-37.292-11.065,7.372a62.672,62.672,0,0,0-8.512-9.144L385.013,714l-29.695-11.161-4.1,16.177a40.719,40.719,0,0,0-10.638,1.945l-6.941-14.139L307,728.329l5.266,15.492a80.6,80.6,0,0,0-6.531,11.919l-12.055-3.129-7.972,41.578,11.554,5.745a107.507,107.507,0,0,0,1.389,14.9l-10.1,9.717,15.361,37.292,11.065-7.373a62.63,62.63,0,0,0,8.513,9.144l-2.235,16.879,29.7,11.162,4.1-16.177a40.72,40.72,0,0,0,10.639-1.946l6.94,14.141,26.635-21.508L394,850.668a80.629,80.629,0,0,0,6.531-11.918Z" fill="#42210b"/>
    </g>
    <path d="M385.016,841.878l7.971-41.577-11.553-5.745a107.466,107.466,0,0,0-1.39-14.9l10.1-9.718-15.361-37.292-11.065,7.372a62.733,62.733,0,0,0-8.513-9.144L357.439,714l-29.7-11.161-4.1,16.177A40.718,40.718,0,0,0,313,720.961l-6.94-14.139-26.635,21.507,5.265,15.492a80.594,80.594,0,0,0-6.53,11.919l-12.056-3.129-7.972,41.578,11.554,5.745a107.356,107.356,0,0,0,1.39,14.9l-10.1,9.717,15.361,37.292,11.065-7.373a62.57,62.57,0,0,0,8.512,9.144l-2.234,16.879,29.7,11.162,4.1-16.177a40.735,40.735,0,0,0,10.639-1.946l6.94,14.141L371.7,866.161l-5.266-15.493a80.537,80.537,0,0,0,6.531-11.918Z" fill="#603813"/>
    <g>
      <ellipse cx="323.779" cy="797.245" rx="3.763" ry="5.544" fill="#42210b"/>
      <ellipse cx="314.104" cy="797.245" rx="3.763" ry="5.544" fill="#42210b"/>
      <rect x="314.104" y="791.701" width="9.675" height="11.089" fill="#42210b"/>
    </g>
  </g>
  <g>
    <g>
      <polygon points="374.782 916.156 402.356 916.156 400.271 969.955 412.59 1025.384 385.016 1025.384 374.782 916.156" fill="#42210b"/>
      <polygon points="345.06 1071.174 372.634 1071.174 372.634 1044.314 344.502 1044.314 345.06 1071.174" fill="#42210b"/>
      <polygon points="306.061 890.327 328.847 890.327 327.743 886.344 355.318 886.344 355.318 931.634 302.594 931.634 306.061 890.327" fill="#42210b"/>
      <polygon points="266.105 936.116 300.637 936.116 300.637 952.507 273.078 948.104 266.105 936.116" fill="#42210b"/>
      <polygon points="276.339 1045.344 307.649 1045.344 323.378 1075.156 350.952 1075.156 347.6 1045.129 302.431 1024.908 278.297 1029.801 276.339 1045.344" fill="#42210b"/>
      <path d="M412.59,1025.384l7.972-41.577-11.554-5.746a107.327,107.327,0,0,0-1.39-14.895l10.1-9.718-15.362-37.292-11.065,7.372a62.724,62.724,0,0,0-8.512-9.144l2.234-16.878-29.695-11.162-4.1,16.177a40.72,40.72,0,0,0-10.638,1.946l-6.941-14.14L307,911.834l5.266,15.493a80.537,80.537,0,0,0-6.531,11.918l-12.055-3.129-7.972,41.578,11.554,5.745a107.493,107.493,0,0,0,1.389,14.9l-10.1,9.717,15.361,37.292,11.065-7.372a62.673,62.673,0,0,0,8.513,9.143l-2.235,16.879,29.7,11.162,4.1-16.177a40.679,40.679,0,0,0,10.639-1.946l6.94,14.141,26.635-21.508L394,1034.173a80.629,80.629,0,0,0,6.531-11.918Z" fill="#42210b"/>
    </g>
    <path d="M385.016,1025.384l7.971-41.577-11.553-5.745a107.48,107.48,0,0,0-1.39-14.9l10.1-9.718-15.361-37.292-11.065,7.372a62.784,62.784,0,0,0-8.513-9.144l2.235-16.878-29.7-11.162-4.1,16.177A40.72,40.72,0,0,0,313,904.467l-6.94-14.14-26.635,21.507,5.265,15.493a80.532,80.532,0,0,0-6.53,11.918l-12.056-3.129-7.972,41.578,11.554,5.745a107.341,107.341,0,0,0,1.39,14.9l-10.1,9.717,15.361,37.292,11.065-7.372a62.672,62.672,0,0,0,8.512,9.144l-2.234,16.878,29.7,11.162,4.1-16.177a40.694,40.694,0,0,0,10.639-1.946l6.94,14.141,26.635-21.508-5.266-15.493a80.537,80.537,0,0,0,6.531-11.918Z" fill="#603813"/>
    <g>
      <ellipse cx="323.779" cy="980.75" rx="3.763" ry="5.544" fill="#42210b"/>
      <ellipse cx="314.104" cy="980.75" rx="3.763" ry="5.544" fill="#42210b"/>
      <rect x="314.104" y="975.206" width="9.675" height="11.089" fill="#42210b"/>
    </g>
  </g>
  <g>
    <g>
      <polygon points="374.782 1100.444 402.356 1100.444 400.271 1154.243 412.59 1209.672 385.016 1209.672 374.782 1100.444" fill="#42210b"/>
      <polygon points="345.06 1255.462 372.634 1255.462 372.634 1228.602 344.502 1228.602 345.06 1255.462" fill="#42210b"/>
      <polygon points="306.061 1074.615 328.847 1074.615 327.743 1070.633 355.318 1070.633 355.318 1115.922 302.594 1115.922 306.061 1074.615" fill="#42210b"/>
      <polygon points="266.105 1120.405 300.637 1120.405 300.637 1136.795 273.078 1132.392 266.105 1120.405" fill="#42210b"/>
      <polygon points="276.339 1229.633 307.649 1229.633 323.378 1259.445 350.952 1259.445 347.6 1229.417 302.431 1209.197 278.297 1214.089 276.339 1229.633" fill="#42210b"/>
      <path d="M412.59,1209.672l7.972-41.577-11.554-5.746a107.341,107.341,0,0,0-1.39-14.895l10.1-9.718-15.362-37.292-11.065,7.373a62.621,62.621,0,0,0-8.512-9.144l2.234-16.879-29.695-11.161-4.1,16.177a40.719,40.719,0,0,0-10.638,1.945l-6.941-14.14L307,1096.122l5.266,15.493a80.548,80.548,0,0,0-6.531,11.919l-12.055-3.129-7.972,41.578,11.554,5.744a107.479,107.479,0,0,0,1.389,14.9l-10.1,9.717,15.361,37.293,11.065-7.373a62.621,62.621,0,0,0,8.513,9.143l-2.235,16.88,29.7,11.162,4.1-16.177a40.72,40.72,0,0,0,10.639-1.946l6.94,14.14,26.635-21.507L394,1218.462a80.64,80.64,0,0,0,6.531-11.919Z" fill="#42210b"/>
    </g>
    <path d="M385.016,1209.672l7.971-41.577-11.553-5.745a107.5,107.5,0,0,0-1.39-14.9l10.1-9.718-15.361-37.292-11.065,7.373a62.681,62.681,0,0,0-8.513-9.144l2.235-16.879-29.7-11.161-4.1,16.177A40.718,40.718,0,0,0,313,1088.755l-6.94-14.14-26.635,21.507,5.265,15.493a80.543,80.543,0,0,0-6.53,11.919l-12.056-3.129-7.972,41.578,11.554,5.744a107.327,107.327,0,0,0,1.39,14.9l-10.1,9.717,15.361,37.293,11.065-7.373a62.621,62.621,0,0,0,8.512,9.144l-2.234,16.879,29.7,11.162,4.1-16.177a40.735,40.735,0,0,0,10.639-1.946l6.94,14.14,26.635-21.507-5.266-15.493a80.548,80.548,0,0,0,6.531-11.919Z" fill="#603813"/>
    <g>
      <ellipse cx="323.779" cy="1165.039" rx="3.763" ry="5.544" fill="#42210b"/>
      <ellipse cx="314.104" cy="1165.039" rx="3.763" ry="5.544" fill="#42210b"/>
      <rect x="314.104" y="1159.494" width="9.675" height="11.089" fill="#42210b"/>
    </g>
  </g>
  <g>
    <g>
      <polygon points="374.782 1284.733 402.356 1284.733 400.271 1338.532 412.59 1393.961 385.016 1393.961 374.782 1284.733" fill="#42210b"/>
      <polygon points="345.06 1439.751 372.634 1439.751 372.634 1412.89 344.502 1412.89 345.06 1439.751" fill="#42210b"/>
      <polygon points="306.061 1258.904 328.847 1258.904 327.743 1254.921 355.318 1254.921 355.318 1300.211 302.594 1300.211 306.061 1258.904" fill="#42210b"/>
      <polygon points="266.105 1304.693 300.637 1304.693 300.637 1321.083 273.078 1316.681 266.105 1304.693" fill="#42210b"/>
      <polygon points="276.339 1413.921 307.649 1413.921 323.378 1443.733 350.952 1443.733 347.6 1413.706 302.431 1393.485 278.297 1398.377 276.339 1413.921" fill="#42210b"/>
      <path d="M412.59,1393.961l7.972-41.578-11.554-5.745a107.327,107.327,0,0,0-1.39-14.895l10.1-9.718-15.362-37.292-11.065,7.372a62.724,62.724,0,0,0-8.512-9.144l2.234-16.878-29.695-11.162-4.1,16.177a40.72,40.72,0,0,0-10.638,1.946l-6.941-14.14L307,1280.411l5.266,15.493a80.537,80.537,0,0,0-6.531,11.918l-12.055-3.129-7.972,41.578,11.554,5.745a107.507,107.507,0,0,0,1.389,14.9l-10.1,9.717,15.361,37.292,11.065-7.372a62.673,62.673,0,0,0,8.513,9.143l-2.235,16.879,29.7,11.162,4.1-16.177a40.72,40.72,0,0,0,10.639-1.946l6.94,14.141,26.635-21.508L394,1402.75a80.629,80.629,0,0,0,6.531-11.918Z" fill="#42210b"/>
    </g>
    <path d="M385.016,1393.961l7.971-41.578-11.553-5.744a107.48,107.48,0,0,0-1.39-14.9l10.1-9.718-15.361-37.292-11.065,7.372a62.784,62.784,0,0,0-8.513-9.144l2.235-16.878-29.7-11.162-4.1,16.177A40.72,40.72,0,0,0,313,1273.044l-6.94-14.14-26.635,21.507,5.265,15.493a80.532,80.532,0,0,0-6.53,11.918l-12.056-3.129-7.972,41.578,11.554,5.745a107.356,107.356,0,0,0,1.39,14.9l-10.1,9.717,15.361,37.292,11.065-7.372a62.672,62.672,0,0,0,8.512,9.144l-2.234,16.878,29.7,11.162,4.1-16.177a40.735,40.735,0,0,0,10.639-1.946l6.94,14.141,26.635-21.508-5.266-15.493a80.537,80.537,0,0,0,6.531-11.918Z" fill="#603813"/>
    <g>
      <ellipse cx="323.779" cy="1349.327" rx="3.763" ry="5.544" fill="#42210b"/>
      <ellipse cx="314.104" cy="1349.327" rx="3.763" ry="5.544" fill="#42210b"/>
      <rect x="314.104" y="1343.783" width="9.675" height="11.089" fill="#42210b"/>
    </g>
  </g>
  <g>
    <g>
      <polygon points="472.853 1305.624 490.922 1305.624 489.556 1340.878 497.628 1377.2 479.559 1377.2 472.853 1305.624" fill="#42210b"/>
      <polygon points="453.376 1407.205 471.446 1407.205 471.446 1389.604 453.011 1389.604 453.376 1407.205" fill="#42210b"/>
      <polygon points="427.821 1288.699 442.753 1288.699 442.029 1286.089 460.098 1286.089 460.098 1315.767 425.549 1315.767 427.821 1288.699" fill="#42210b"/>
      <polygon points="401.638 1318.704 424.266 1318.704 424.266 1329.444 406.208 1326.559 401.638 1318.704" fill="#42210b"/>
      <polygon points="408.344 1390.28 428.861 1390.28 439.168 1409.815 457.238 1409.815 455.041 1390.139 425.442 1376.888 409.627 1380.094 408.344 1390.28" fill="#42210b"/>
      <path d="M497.628,1377.2l5.224-27.245-7.571-3.765a70.41,70.41,0,0,0-.911-9.761l6.618-6.368-10.066-24.437-7.251,4.831a41.054,41.054,0,0,0-5.578-5.992l1.464-11.06-19.459-7.314-2.689,10.6a26.684,26.684,0,0,0-6.971,1.274l-4.548-9.265-17.454,14.093,3.451,10.152a52.848,52.848,0,0,0-4.28,7.81l-7.9-2.05-5.224,27.245,7.571,3.765a70.408,70.408,0,0,0,.91,9.761l-6.617,6.368,10.066,24.437,7.25-4.831a41.054,41.054,0,0,0,5.579,5.991l-1.465,11.061,19.46,7.314,2.688-10.6a26.688,26.688,0,0,0,6.972-1.276l4.548,9.266,17.453-14.093-3.45-10.152a52.754,52.754,0,0,0,4.279-7.811Z" fill="#42210b"/>
    </g>
    <path d="M479.559,1377.2l5.224-27.245-7.571-3.765a70.41,70.41,0,0,0-.911-9.761l6.618-6.368-10.066-24.437-7.251,4.831a41.109,41.109,0,0,0-5.578-5.992l1.464-11.06-19.459-7.314-2.689,10.6a26.677,26.677,0,0,0-6.971,1.274l-4.548-9.265-17.454,14.093,3.451,10.152a52.848,52.848,0,0,0-4.28,7.81l-7.9-2.05-5.223,27.245,7.571,3.765a70.408,70.408,0,0,0,.91,9.761l-6.618,6.368,10.066,24.437,7.251-4.831a41.049,41.049,0,0,0,5.578,5.991l-1.464,11.061,19.459,7.314,2.689-10.6a26.673,26.673,0,0,0,6.971-1.276l4.548,9.266,17.454-14.093-3.45-10.152a52.846,52.846,0,0,0,4.279-7.811Z" fill="#603813"/>
    <g>
      <ellipse cx="439.432" cy="1347.952" rx="2.466" ry="3.633" fill="#42210b"/>
      <ellipse cx="433.091" cy="1347.952" rx="2.466" ry="3.633" fill="#42210b"/>
      <rect x="433.091" y="1344.319" width="6.34" height="7.266" fill="#42210b"/>
    </g>
  </g>
</svg>
