<svg xmlns="http://www.w3.org/2000/svg" width="740.132" height="361.995" viewBox="0 0 740.132 361.995">
  <title>Back</title>
  <g>
    <g>
      <polygon points="615.343 223.306 615.676 240.956 708.755 240.956 708.255 222.307 615.343 223.306" fill="#603813"/>
      <polygon points="618.757 223.306 619.09 240.956 712.168 240.956 711.669 222.307 618.757 223.306" fill="#754c24"/>
    </g>
    <g>
      <polygon points="618.799 319.881 619.132 337.531 712.21 337.531 711.71 318.882 618.799 319.881" fill="#603813"/>
      <polygon points="622.212 319.881 622.545 337.531 715.623 337.531 715.124 318.882 622.212 319.881" fill="#754c24"/>
    </g>
    <g>
      <g>
        <polygon points="624.962 204.213 628.594 347.936 647.771 347.936 646.772 204.213 624.962 204.213" fill="#603813"/>
        <polygon points="696.828 204.213 700.461 347.936 719.638 347.936 718.638 204.213 696.828 204.213" fill="#603813"/>
        <polygon points="697.502 347.936 693.869 204.213 674.692 204.213 675.692 347.936 697.502 347.936" fill="#603813"/>
        <polygon points="650.271 204.213 649.991 348.188 673.08 347.936 672.081 204.213 650.271 204.213" fill="#603813"/>
      </g>
      <g>
        <polygon points="629.125 204.213 632.757 347.936 651.934 347.936 650.935 204.213 629.125 204.213" fill="#754c24"/>
        <polygon points="700.991 204.213 704.624 347.936 723.8 347.936 722.801 204.213 700.991 204.213" fill="#754c24"/>
        <polygon points="701.664 347.936 698.032 204.213 678.855 204.213 679.854 347.936 701.664 347.936" fill="#754c24"/>
        <polygon points="654.434 204.213 654.154 348.188 677.243 347.936 676.244 204.213 654.434 204.213" fill="#754c24"/>
      </g>
    </g>
  </g>
  <g>
    <g>
      <polygon points="127.264 223.306 126.931 240.956 33.852 240.956 34.352 222.307 127.264 223.306" fill="#603813"/>
      <polygon points="123.85 223.306 123.517 240.956 30.439 240.956 30.938 222.307 123.85 223.306" fill="#754c24"/>
    </g>
    <g>
      <polygon points="116.704 319.881 116.371 337.531 23.293 337.531 23.792 318.882 116.704 319.881" fill="#603813"/>
      <polygon points="113.291 319.881 112.958 337.531 19.879 337.531 20.379 318.882 113.291 319.881" fill="#754c24"/>
    </g>
    <g>
      <g>
        <polygon points="115.869 204.213 106.908 347.936 87.732 347.936 92.727 204.213 115.869 204.213" fill="#603813"/>
        <polygon points="42.67 204.213 35.042 347.936 15.865 347.936 20.86 204.213 42.67 204.213" fill="#603813"/>
        <polygon points="38.001 347.936 45.63 204.213 64.806 204.213 59.811 347.936 38.001 347.936" fill="#603813"/>
        <polygon points="89.228 204.213 85.512 348.188 62.422 347.936 67.418 204.213 89.228 204.213" fill="#603813"/>
      </g>
      <g>
        <polygon points="111.706 204.213 102.746 347.936 83.569 347.936 88.564 204.213 111.706 204.213" fill="#754c24"/>
        <polygon points="38.508 204.213 30.879 347.936 11.702 347.936 16.698 204.213 38.508 204.213" fill="#754c24"/>
        <polygon points="33.838 347.936 41.467 204.213 60.644 204.213 55.648 347.936 33.838 347.936" fill="#754c24"/>
        <polygon points="85.065 204.213 81.349 348.188 58.26 347.936 63.255 204.213 85.065 204.213" fill="#754c24"/>
      </g>
    </g>
  </g>
  <path d="M618.059,161.365,597.99,159.8l-.578-12.419h-452.9l-.776,8.659H127.192l-17.317,191.9H624.054ZM262.952,269.473l-61.016-1.5L200.123,209.1l62.829.432Zm266.58-1.5-60.823,1.5L466.426,209.1l67.38.432Z" fill="#96816e"/>
</svg>
