<svg xmlns="http://www.w3.org/2000/svg" width="733.155" height="754.976" viewBox="0 0 733.155 754.976">
  <title>Back</title>
  <polygon points="332.807 747.168 363.444 148.07 545.938 148.07 577.848 746.916 332.807 747.168" fill="#7f6d5e"/>
  <g>
    <g>
      <polygon points="615.093 622.286 615.426 639.936 708.505 639.936 708.005 621.287 615.093 622.286" fill="#603813"/>
      <polygon points="618.507 622.286 618.84 639.936 711.918 639.936 711.419 621.287 618.507 622.286" fill="#754c24"/>
    </g>
    <g>
      <polygon points="618.549 718.861 618.882 736.511 711.96 736.511 711.46 717.862 618.549 718.861" fill="#603813"/>
      <polygon points="621.962 718.861 622.295 736.511 715.373 736.511 714.874 717.862 621.962 718.861" fill="#754c24"/>
    </g>
    <g>
      <g>
        <polygon points="624.712 603.193 628.344 746.916 647.521 746.916 646.522 603.193 624.712 603.193" fill="#603813"/>
        <polygon points="696.578 603.193 700.211 746.916 719.388 746.916 718.388 603.193 696.578 603.193" fill="#603813"/>
        <polygon points="697.252 746.916 693.619 603.193 674.442 603.193 675.441 746.916 697.252 746.916" fill="#603813"/>
        <polygon points="650.021 603.193 649.741 747.168 672.83 746.916 671.831 603.193 650.021 603.193" fill="#603813"/>
      </g>
      <g>
        <polygon points="628.875 603.193 632.507 746.916 651.684 746.916 650.685 603.193 628.875 603.193" fill="#754c24"/>
        <polygon points="700.741 603.193 704.374 746.916 723.55 746.916 722.551 603.193 700.741 603.193" fill="#754c24"/>
        <polygon points="701.414 746.916 697.782 603.193 678.605 603.193 679.604 746.916 701.414 746.916" fill="#754c24"/>
        <polygon points="654.184 603.193 653.904 747.168 676.993 746.916 675.994 603.193 654.184 603.193" fill="#754c24"/>
      </g>
    </g>
  </g>
  <g>
    <g>
      <polygon points="127.014 622.286 126.681 639.936 33.602 639.936 34.102 621.287 127.014 622.286" fill="#603813"/>
      <polygon points="123.6 622.286 123.267 639.936 30.189 639.936 30.688 621.287 123.6 622.286" fill="#754c24"/>
    </g>
    <g>
      <polygon points="116.454 718.861 116.121 736.511 23.043 736.511 23.542 717.862 116.454 718.861" fill="#603813"/>
      <polygon points="113.041 718.861 112.708 736.511 19.629 736.511 20.129 717.862 113.041 718.861" fill="#754c24"/>
    </g>
    <g>
      <g>
        <polygon points="115.619 603.193 106.658 746.916 87.482 746.916 92.477 603.193 115.619 603.193" fill="#603813"/>
        <polygon points="42.42 603.193 34.792 746.916 15.615 746.916 20.61 603.193 42.42 603.193" fill="#603813"/>
        <polygon points="37.751 746.916 45.38 603.193 64.556 603.193 59.561 746.916 37.751 746.916" fill="#603813"/>
        <polygon points="88.978 603.193 85.262 747.168 62.172 746.916 67.168 603.193 88.978 603.193" fill="#603813"/>
      </g>
      <g>
        <polygon points="111.456 603.193 102.496 746.916 83.319 746.916 88.314 603.193 111.456 603.193" fill="#754c24"/>
        <polygon points="38.258 603.193 30.629 746.916 11.452 746.916 16.448 603.193 38.258 603.193" fill="#754c24"/>
        <polygon points="33.588 746.916 41.217 603.193 60.394 603.193 55.398 746.916 33.588 746.916" fill="#754c24"/>
        <polygon points="84.815 603.193 81.099 747.168 58.01 746.916 63.005 603.193 84.815 603.193" fill="#754c24"/>
      </g>
    </g>
  </g>
  <g>
    <polygon points="617.81 560.345 597.74 558.777 597.163 546.359 552.274 546.359 562.96 746.916 577.848 746.916 606.487 746.916 623.804 746.916 617.81 560.345" fill="#96816e"/>
    <path d="M357.85,546.359H144.259l-.776,8.658H126.942l-17.317,191.9H347.593Zm-156.164,120.6-1.813-58.88,62.829.432v59.943Z" fill="#96816e"/>
  </g>
  <polygon points="695.573 235.473 543.116 242.918 542.534 223.567 694.991 216.122 695.573 235.473" fill="#66421f"/>
  <polygon points="598.658 235.864 548.919 278.793 543.765 269.102 582.722 234.699 598.658 235.864" fill="#66421f"/>
</svg>
