<svg xmlns="http://www.w3.org/2000/svg" xmlns:xlink="http://www.w3.org/1999/xlink" width="959.962" height="1457.982" viewBox="0 0 959.962 1457.982">
  <defs>
    <linearGradient id="a" x1="86.837" y1="801.863" x2="502.152" y2="801.863" gradientUnits="userSpaceOnUse">
      <stop offset="0" stop-color="#998675"/>
      <stop offset="1" stop-color="#c7b299"/>
    </linearGradient>
    <linearGradient id="b" x1="86.837" y1="1222.305" x2="502.152" y2="1222.305" xlink:href="#a"/>
    <linearGradient id="c" x1="86.837" y1="1155.633" x2="502.152" y2="1155.633" xlink:href="#a"/>
    <linearGradient id="d" x1="86.837" y1="1335.239" x2="502.152" y2="1335.239" xlink:href="#a"/>
  </defs>
  <title>Front</title>
  <g>
    <path d="M103.909,287.537s54.426,24.492,180.966,24.492,180.967-24.492,180.967-24.492L346.105,234.471H182.826Z" fill="#603813"/>
    <polygon points="434.547 279.373 303.925 167.8 265.826 167.8 135.204 279.373 75.335 1427.763 75.335 1435.927 265.826 1435.927 303.925 1435.927 494.416 1435.927 494.416 1427.763 434.547 279.373" fill="url(#a)"/>
    <path d="M284.875,27.718S238.746,141.5,95.745,269.129l7.688,18.452s64.581-20.454,181.442-20.454,181.443,20.454,181.443,20.454l7.688-18.452C331.005,141.5,284.875,27.718,284.875,27.718Z" fill="#754c24"/>
    <polygon points="177.384 469.864 177.384 488.913 56.286 498.438 38.597 498.438 38.597 475.307 177.384 469.864" fill="#66421f"/>
    <polygon points="80.778 492.995 161.056 573.274 171.941 573.274 171.941 554.225 103.909 487.553 80.778 492.995" fill="#66421f"/>
    <polygon points="38.597 1435.927 80.778 1008.682 117.515 1008.682 117.515 1435.927 38.597 1435.927" fill="url(#b)"/>
    <polygon points="450.875 875.339 483.531 886.224 509.383 1200.534 533.875 1208.698 552.924 1435.927 448.154 1435.927 450.875 875.339" fill="url(#c)"/>
    <polygon points="69.892 1234.551 42.679 1234.551 31.794 1435.927 95.064 1435.927 69.892 1234.551" fill="url(#d)"/>
  </g>
</svg>
