<svg xmlns="http://www.w3.org/2000/svg" width="740.132" height="361.995" viewBox="0 0 740.132 361.995">
  <title>Inside</title>
  <g>
    <polygon points="622.722 344.208 111.706 344.208 113.038 335.314 621.39 335.314 622.722 344.208" fill="#754c24"/>
    <rect x="446.215" y="339.042" width="22.829" height="8.894" fill="#754c24"/>
    <rect x="264.884" y="339.042" width="22.829" height="8.894" fill="#754c24"/>
  </g>
  <g>
    <polygon points="619.527 207.045 618.059 161.365 575.433 158.035 576.11 206.278 619.527 207.045" fill="#726256"/>
    <polygon points="578.012 341.86 578.097 347.936 624.054 347.936 623.859 341.86 578.012 341.86" fill="#726256"/>
  </g>
  <g>
    <polygon points="166.497 207.045 169.152 156.037 127.192 156.037 122.589 207.045 166.497 207.045" fill="#726256"/>
    <polygon points="110.424 341.86 109.875 347.936 159.162 347.936 159.478 341.86 110.424 341.86" fill="#726256"/>
  </g>
  <polygon points="109.209 171.732 630.048 171.732 580.163 18.168 144.721 20.597 109.209 171.732" fill="#754c24"/>
</svg>
