<svg xmlns="http://www.w3.org/2000/svg" width="959.962" height="1457.982" viewBox="0 0 959.962 1457.982">
  <title>Inside</title>
  <g>
    <g>
      <polygon points="319.718 1167.029 300.66 1178.021 285.682 1146.544 299.975 1138.301 319.718 1167.029" fill="#603813"/>
      <polygon points="301.16 1178.887 320.218 1167.896 335.196 1199.372 320.903 1207.615 301.16 1178.887" fill="#603813"/>
    </g>
    <g>
      <polygon points="321.193 1175.327 299.945 1169.623 311.61 1136.775 327.546 1141.052 321.193 1175.327" fill="#603813"/>
      <polygon points="299.686 1170.589 320.933 1176.293 309.268 1209.142 293.332 1204.864 299.686 1170.589" fill="#603813"/>
    </g>
    <g>
      <polygon points="316.368 1182.237 305.377 1163.18 336.853 1148.201 345.096 1162.494 316.368 1182.237" fill="#603813"/>
      <polygon points="304.51 1163.679 315.502 1182.737 284.025 1197.716 275.782 1183.422 304.51 1163.679" fill="#603813"/>
    </g>
    <g>
      <polygon points="308.07 1183.712 313.774 1162.464 346.623 1174.129 342.345 1190.065 308.07 1183.712" fill="#603813"/>
      <polygon points="312.808 1162.205 307.104 1183.452 274.255 1171.787 278.533 1155.851 312.808 1162.205" fill="#603813"/>
    </g>
    <circle cx="310.439" cy="1172.958" r="30" fill="#603813"/>
  </g>
  <g>
    <rect x="139.731" y="910.97" width="286.999" height="17.285" fill="#754c24"/>
    <g>
      <rect x="362.481" y="927.277" width="22.829" height="17.285" fill="#754c24"/>
      <rect x="181.15" y="927.277" width="22.829" height="17.285" fill="#754c24"/>
    </g>
  </g>
  <g>
    <rect x="83.635" y="1156.653" width="399.189" height="17.285" fill="#754c24"/>
    <g>
      <rect x="362.481" y="1172.959" width="22.829" height="17.285" fill="#754c24"/>
      <rect x="181.15" y="1172.959" width="22.829" height="17.285" fill="#754c24"/>
    </g>
  </g>
  <g>
    <rect x="53.631" y="1402.335" width="459.198" height="17.285" fill="#754c24"/>
    <g>
      <rect x="362.481" y="1418.642" width="22.829" height="17.285" fill="#754c24"/>
      <rect x="181.15" y="1418.642" width="22.829" height="17.285" fill="#754c24"/>
    </g>
  </g>
  <g>
    <rect x="139.731" y="665.288" width="286.999" height="17.285" fill="#754c24"/>
    <g>
      <rect x="362.481" y="681.594" width="22.829" height="17.285" fill="#754c24"/>
      <rect x="181.15" y="681.594" width="22.829" height="17.285" fill="#754c24"/>
    </g>
  </g>
  <g>
    <polygon points="483.634 887.043 466.007 881.167 434.724 281.097 304.296 169.69 266.254 169.69 135.826 281.097 97.862 1009.319 81.482 1009.319 59.216 1234.85 43.44 1234.85 42.692 1248.689 105.041 1248.689 105.952 1239.464 134.473 1056.283 142.441 1056.283 144.762 1011.764 165.193 619.851 174.301 616.208 178.867 489.668 172.061 488.108 184.155 256.125 283.582 216.653 286.969 216.653 386.125 250.945 419.107 883.612 416.293 959.302 443.041 966.423 445.365 994.671 493.146 1002.687 483.634 887.043" fill="#726256"/>
    <polygon points="34.544 1399.436 32.571 1435.927 94.581 1435.927 90.513 1400.206 34.544 1399.436" fill="#726256"/>
    <polygon points="552.924 1435.927 533.903 1209.037 509.448 1200.885 505.494 1152.815 458.265 1151.513 462.642 1204.735 465.184 1235.635 489.689 1243.803 501.858 1388.964 499.176 1435.927 552.924 1435.927" fill="#726256"/>
  </g>
  <g>
    <g>
      <rect x="527.116" y="1174.484" width="224.454" height="12.655" fill="#42210b"/>
      <rect x="533.277" y="1184.974" width="23.311" height="6.993" fill="#42210b"/>
      <rect x="560.085" y="1184.974" width="23.311" height="6.993" fill="#42210b"/>
      <rect x="586.892" y="1184.974" width="23.311" height="6.993" fill="#42210b"/>
      <rect x="613.7" y="1184.974" width="23.311" height="6.993" fill="#42210b"/>
      <rect x="640.508" y="1184.974" width="23.311" height="6.993" fill="#42210b"/>
      <rect x="667.316" y="1184.974" width="23.311" height="6.993" fill="#42210b"/>
      <rect x="694.124" y="1184.974" width="23.311" height="6.993" fill="#42210b"/>
      <rect x="720.932" y="1184.974" width="23.311" height="6.993" fill="#42210b"/>
    </g>
    <g>
      <rect x="549.463" y="1174.484" width="224.454" height="12.655" fill="#603813"/>
      <rect x="555.623" y="1184.974" width="23.311" height="6.993" fill="#603813"/>
      <rect x="582.431" y="1184.974" width="23.311" height="6.993" fill="#603813"/>
      <rect x="609.239" y="1184.974" width="23.311" height="6.993" fill="#603813"/>
      <rect x="636.047" y="1184.974" width="23.311" height="6.993" fill="#603813"/>
      <rect x="662.855" y="1184.974" width="23.311" height="6.993" fill="#603813"/>
      <rect x="689.663" y="1184.974" width="23.311" height="6.993" fill="#603813"/>
      <rect x="716.471" y="1184.974" width="23.311" height="6.993" fill="#603813"/>
      <rect x="743.279" y="1184.974" width="23.311" height="6.993" fill="#603813"/>
    </g>
  </g>
  <path d="M284.875,28.106s-46.06,113.616-188.848,241.05l7.677,18.425s64.484-20.423,181.171-20.423,181.172,20.423,181.172,20.423l7.677-18.425C330.936,141.722,284.875,28.106,284.875,28.106Z" fill="#754c24"/>
</svg>
