<svg xmlns="http://www.w3.org/2000/svg" xmlns:xlink="http://www.w3.org/1999/xlink" width="733.155" height="754.976" viewBox="0 0 733.155 754.976">
  <defs>
    <linearGradient id="a" x1="332.807" y1="313.579" x2="577.848" y2="313.579" gradientUnits="userSpaceOnUse">
      <stop offset="0" stop-color="#998675"/>
      <stop offset="1" stop-color="#c7b299"/>
    </linearGradient>
  </defs>
  <title>Inside</title>
  <g>
    <polygon points="622.472 743.188 111.456 743.188 112.788 734.294 621.14 734.294 622.472 743.188" fill="#754c24"/>
    <rect x="445.965" y="738.022" width="22.829" height="8.894" fill="#754c24"/>
    <rect x="264.634" y="738.022" width="22.829" height="8.894" fill="#754c24"/>
  </g>
  <g>
    <polygon points="619.277 606.025 617.809 560.345 575.183 557.015 575.86 605.258 619.277 606.025" fill="#726256"/>
    <polygon points="577.762 740.841 577.847 746.916 623.804 746.916 623.609 740.841 577.762 740.841" fill="#726256"/>
  </g>
  <g>
    <polygon points="166.247 606.025 168.902 555.017 126.942 555.017 122.339 606.025 166.247 606.025" fill="#726256"/>
    <polygon points="110.174 740.841 109.625 746.916 158.912 746.916 159.228 740.841 110.174 740.841" fill="#726256"/>
  </g>
  <path d="M545.938,148.07H363.444L346.516,479.088h217.06ZM492.655,298.594H426.646l-1.927-75.262L492.655,222Z" fill="url(#a)"/>
  <polygon points="343.79 180.04 568.442 180.04 525.343 18.415 379.25 20.972 343.79 180.04" fill="#754c24"/>
  <polygon points="108.959 570.712 629.798 570.712 595.897 417.148 131.15 419.577 108.959 570.712" fill="#754c24"/>
</svg>
