<svg xmlns="http://www.w3.org/2000/svg" xmlns:xlink="http://www.w3.org/1999/xlink" width="1294.96" height="7170.86" viewBox="0 0 1294.96 7170.86">
  <defs>
    <style>
      .cls-1 {
        fill: #ed1e79;
      }

      .cls-2 {
        fill: #8cc63f;
      }

      .cls-3 {
        fill: #f7931e;
      }

      .cls-4 {
        fill: #3fa9f5;
      }

      .cls-5 {
        fill: url(#linear-gradient);
      }
    </style>
    <linearGradient id="linear-gradient" y1="6981.66" x2="764.89" y2="6981.66" gradientUnits="userSpaceOnUse">
      <stop offset="0" stop-color="#c5d654"/>
      <stop offset="1" stop-color="#a4bd47"/>
    </linearGradient>
  </defs>
  <title>Asset 185</title>
  <g id="Layer_2" data-name="Layer 2">
    <g id="Layer_1-2" data-name="Layer 1">
      <g>
        <g>
          <rect class="cls-1" x="1283.46" y="92" width="11.5" height="11.5"/>
          <rect class="cls-2" x="1283.46" y="80.5" width="11.5" height="11.5"/>
          <rect x="1283.46" y="69" width="11.5" height="11.5"/>
        </g>
        <g>
          <rect class="cls-1" x="1283.46" y="57.5" width="11.5" height="11.5"/>
          <rect class="cls-3" x="1283.46" y="46" width="11.5" height="11.5"/>
          <rect x="1283.46" y="34.5" width="11.5" height="11.5"/>
        </g>
        <g>
          <rect class="cls-1" x="1283.46" y="23" width="11.5" height="11.5"/>
          <rect class="cls-4" x="1283.46" y="11.5" width="11.5" height="11.5"/>
          <rect x="1283.46" width="11.5" height="11.5"/>
        </g>
      </g>
      <path class="cls-5" d="M763.13,6992.8c-10.85-18.59-25.7-7.24-25.7-7.24s3.86-43.29-22.34-46.78S679.66,6976,679.66,6976s-6.61-21.83-23.71-22.21-23.33,17.85-23.33,17.85S632,6962,625,6957.25s-17.09-.37-17.09-.37,12.72-9.74,1.37-24.58c-9-11.8-16.23-10.13-18.81-8.94,1.79-1.32,4.61-5.23-2.78-14.89C578,6895.74,569,6906,569,6906a13.4,13.4,0,0,0-6-12.22c-7-4.74-16,5.49-16,5.49s1.5-11.23-17.22-13.73a22.81,22.81,0,0,0-10.83.93c-.71-9.27-9.26-15.73-9.26-15.73s16.67-1.33,16.73-20.77-16.58-20.88-16.58-20.88c1.49-31.92-31.86-22.32-31.86-22.32s-9.69-8.36-33.29-8.44-29.21,16.56-29.21,16.56-18-23.67-34.62-22.34-20.94,33.25-20.94,33.25-4.13-9.73-12.47-7c-7.54,2.48-4.89,9.53-4.31,10.87-.56-1.15-3.55-6.29-11-2.6-8.35,4.14-4.22,15.26-4.22,15.26s-6.92-5.58-12.47-7-11.13,6.91-11.13,6.91-2.71-19.45-24.92-19.52-27.87,29.05-27.87,29.05-4.14-7-16.64-4.22-8.42,26.35-8.42,26.35-13.85-9.77-23.63,8.25a31.73,31.73,0,0,0-1.92,4.21c-2.93-1.19-6.71-1.55-11.59-.39-19.68,4.67-21.73,29.27-21.73,29.27s-15-7.24-34.43,16.08-7.48,43.76-7.48,43.76-12.17-7.5-22,10.63-.24,28.74-.24,28.74S89.23,7000,69,7014.73s-14.22,32.89-14.22,32.89-15.28-10.09-30.8,8.57-2.31,37.54-2.31,37.54S2.55,7088.31.23,7110.06s13.48,21.74,13.48,21.74-14.23,17.09,4.42,32.62c6.16,5.12,12.14,6.65,17.39,6.42H687.91s34.41-4.7,18.69-34.51c7.58-4.14,14-9.3,16.62-15.52,8.36-19.84-20.09-35.06-20.09-35.06s24.58,1.37,33.43-22.21-5.61-29.33-5.61-29.33S774,7011.39,763.13,6992.8Z"/>
    </g>
  </g>
</svg>
