<svg xmlns="http://www.w3.org/2000/svg" xmlns:xlink="http://www.w3.org/1999/xlink" width="111.58" height="402.81" viewBox="0 0 111.58 402.81">
  <defs>
    <style>
      .cls-1 {
        fill: url(#linear-gradient);
      }

      .cls-2 {
        fill: url(#linear-gradient-2);
      }

      .cls-3 {
        fill: url(#linear-gradient-3);
      }

      .cls-4 {
        fill: url(#linear-gradient-4);
      }

      .cls-5 {
        fill: url(#linear-gradient-5);
      }

      .cls-6 {
        fill: url(#linear-gradient-6);
      }

      .cls-7 {
        fill: url(#linear-gradient-7);
      }

      .cls-8 {
        fill: url(#linear-gradient-8);
      }

      .cls-9 {
        fill: #fff;
      }
    </style>
    <linearGradient id="linear-gradient" x1="48.46" y1="204.56" x2="64.96" y2="204.56" gradientUnits="userSpaceOnUse">
      <stop offset="0" stop-color="#5a8539"/>
      <stop offset="1" stop-color="#46952f"/>
    </linearGradient>
    <linearGradient id="linear-gradient-2" x1="54.66" y1="216.86" x2="96.9" y2="216.86" xlink:href="#linear-gradient"/>
    <linearGradient id="linear-gradient-3" x1="58.76" y1="112.28" x2="106.76" y2="112.28" xlink:href="#linear-gradient"/>
    <linearGradient id="linear-gradient-4" x1="26.68" y1="91.42" x2="58.24" y2="91.42" xlink:href="#linear-gradient"/>
    <linearGradient id="linear-gradient-5" x1="10.9" y1="182.69" x2="58.9" y2="182.69" xlink:href="#linear-gradient"/>
    <linearGradient id="linear-gradient-6" x1="2.96" y1="59.87" x2="59.66" y2="59.87" xlink:href="#linear-gradient"/>
    <linearGradient id="linear-gradient-7" x1="54.87" y1="297.93" x2="111.58" y2="297.93" xlink:href="#linear-gradient"/>
    <linearGradient id="linear-gradient-8" x1="0" y1="256.53" x2="56.71" y2="256.53" xlink:href="#linear-gradient"/>
  </defs>
  <title>Bamboo_3</title>
  <g id="Layer_2" data-name="Layer 2">
    <g id="Layer_1-2" data-name="Layer 1">
      <g>
        <polygon class="cls-1" points="48.45 402.81 56.95 402.81 64.95 7.81 56.7 6.31 48.45 402.81"/>
        <path class="cls-2" d="M56.83,190.26c-13.46,30.92,40.07,53.2,40.07,53.2C86.8,205.94,56.83,190.26,56.83,190.26Z"/>
        <path class="cls-3" d="M58.76,91s4,31.44,48,43.69C106.76,134.7,78.62,81.41,58.76,91Z"/>
        <path class="cls-4" d="M57.82,63s6.49,31-31.14,57C26.68,119.93,35.91,60.38,57.82,63Z"/>
        <path class="cls-5" d="M58.9,161.42s-4,31.44-48,43.69C10.9,205.11,39,151.82,58.9,161.42Z"/>
        <path class="cls-6" d="M59.66,46.07S53,70.28,3,75.46C3,75.46,34.62,35.51,59.66,46.07Z"/>
        <path class="cls-7" d="M54.87,284.12s6.62,24.21,56.71,29.39C111.58,313.51,79.91,273.57,54.87,284.12Z"/>
        <path class="cls-8" d="M56.71,242.72S50.08,266.93,0,272.11C0,272.11,31.66,232.17,56.71,242.72Z"/>
        <g>
          <path class="cls-9" d="M59.46,1.36c4.62,4.62-11,9.25-11,9.25S53.58-4.52,59.46,1.36Z"/>
          <path class="cls-9" d="M60.54,3.09c7.76,2.21-6.3,16.59-6.3,16.59S50.67.29,60.54,3.09Z"/>
          <path class="cls-9" d="M64.09,1.73c7.66-4.63,8.7,17.66,8.7,17.66S54.35,7.63,64.09,1.73Z"/>
          <path class="cls-9" d="M62,1c6.41-1.26,1.54,14.29,1.54,14.29S53.86,2.58,62,1Z"/>
          <path class="cls-9" d="M65,1.14c3.86-5.28,10.82,9.46,10.82,9.46S60.05,7.84,65,1.14Z"/>
        </g>
      </g>
    </g>
  </g>
</svg>
