<svg xmlns="http://www.w3.org/2000/svg" xmlns:xlink="http://www.w3.org/1999/xlink" width="112.22" height="346.74" viewBox="0 0 112.22 346.74">
  <defs>
    <style>
      .cls-1 {
        fill: url(#linear-gradient);
      }

      .cls-2 {
        fill: url(#linear-gradient-2);
      }

      .cls-3 {
        fill: url(#linear-gradient-3);
      }

      .cls-4 {
        fill: url(#linear-gradient-4);
      }

      .cls-5 {
        fill: url(#linear-gradient-5);
      }

      .cls-6 {
        fill: url(#linear-gradient-6);
      }

      .cls-7 {
        fill: url(#linear-gradient-7);
      }

      .cls-8 {
        fill: #fff;
      }
    </style>
    <linearGradient id="linear-gradient" x1="51" y1="175.74" x2="62" y2="175.74" gradientUnits="userSpaceOnUse">
      <stop offset="0" stop-color="#5a8539"/>
      <stop offset="1" stop-color="#46952f"/>
    </linearGradient>
    <linearGradient id="linear-gradient-2" x1="57.47" y1="268.41" x2="112.22" y2="268.41" xlink:href="#linear-gradient"/>
    <linearGradient id="linear-gradient-3" x1="58.25" y1="44.8" x2="110.25" y2="44.8" xlink:href="#linear-gradient"/>
    <linearGradient id="linear-gradient-4" x1="56.5" y1="192.3" x2="84.85" y2="192.3" xlink:href="#linear-gradient"/>
    <linearGradient id="linear-gradient-5" x1="10.39" y1="141.8" x2="58.39" y2="141.8" xlink:href="#linear-gradient"/>
    <linearGradient id="linear-gradient-6" x1="8.5" y1="84.29" x2="56.5" y2="84.29" xlink:href="#linear-gradient"/>
    <linearGradient id="linear-gradient-7" x1="0" y1="239.03" x2="56.71" y2="239.03" xlink:href="#linear-gradient"/>
  </defs>
  <title>Bamboo_4</title>
  <g id="Layer_2" data-name="Layer 2">
    <g id="Layer_1-2" data-name="Layer 1">
      <g>
        <polygon class="cls-1" points="51 346.75 60.5 346.75 62 4.75 52.5 4.75 51 346.75"/>
        <path class="cls-2" d="M57.89,246.24c-6,35,54.33,44.34,54.33,44.34C92.47,254.74,57.89,246.24,57.89,246.24Z"/>
        <path class="cls-3" d="M58.65,23.74C53,57,110.25,65.85,110.25,65.85,91.49,31.82,58.65,23.74,58.65,23.74Z"/>
        <path class="cls-4" d="M57.36,162.9s-8.43,30.56,27.49,58.81C84.85,221.71,79.39,161.69,57.36,162.9Z"/>
        <path class="cls-5" d="M58.39,120.53s-4,31.45-48,43.69C10.39,164.22,38.53,110.93,58.39,120.53Z"/>
        <path class="cls-6" d="M56.5,63s-4,31.45-48,43.7C8.5,106.72,36.64,53.42,56.5,63Z"/>
        <path class="cls-7" d="M56.71,225.22S50.08,249.44,0,254.61C0,254.61,31.66,214.67,56.71,225.22Z"/>
        <g>
          <path class="cls-8" d="M53.84,1.36c4.62,4.62-11,9.25-11,9.25S48-4.52,53.84,1.36Z"/>
          <path class="cls-8" d="M54.92,3.09c7.77,2.21-6.3,16.59-6.3,16.59S45.06.29,54.92,3.09Z"/>
          <path class="cls-8" d="M58.47,1.73c7.67-4.63,8.71,17.66,8.71,17.66S48.74,7.63,58.47,1.73Z"/>
          <path class="cls-8" d="M56.4,1C62.82-.29,58,15.26,58,15.26S48.25,2.58,56.4,1Z"/>
          <path class="cls-8" d="M59.34,1.14C63.2-4.14,70.16,10.6,70.16,10.6S54.43,7.84,59.34,1.14Z"/>
        </g>
      </g>
    </g>
  </g>
</svg>
