<svg xmlns="http://www.w3.org/2000/svg" xmlns:xlink="http://www.w3.org/1999/xlink" width="111.577" height="402.808" viewBox="0 0 111.577 402.808">
  <defs>
    <linearGradient id="a" x1="48.455" y1="204.558" x2="64.955" y2="204.558" gradientUnits="userSpaceOnUse">
      <stop offset="0" stop-color="#5a8539"/>
      <stop offset="1" stop-color="#46952f"/>
    </linearGradient>
    <linearGradient id="b" x1="54.661" y1="216.859" x2="96.898" y2="216.859" xlink:href="#a"/>
    <linearGradient id="c" x1="58.756" y1="112.276" x2="106.756" y2="112.276" xlink:href="#a"/>
    <linearGradient id="d" x1="26.677" y1="91.416" x2="58.243" y2="91.416" xlink:href="#a"/>
    <linearGradient id="e" x1="10.897" y1="182.686" x2="58.897" y2="182.686" xlink:href="#a"/>
    <linearGradient id="f" x1="2.955" y1="59.874" x2="59.661" y2="59.874" xlink:href="#a"/>
    <linearGradient id="g" x1="54.872" y1="297.926" x2="111.577" y2="297.926" xlink:href="#a"/>
    <linearGradient id="h" x1="0" y1="256.526" x2="56.705" y2="256.526" xlink:href="#a"/>
  </defs>
  <title>Bamboo_3</title>
  <g>
    <polygon points="48.455 402.808 56.955 402.808 64.955 7.808 56.705 6.308 48.455 402.808" fill="url(#a)"/>
    <path d="M56.833,190.259c-13.465,30.92,40.065,53.2,40.065,53.2C86.8,205.935,56.833,190.259,56.833,190.259Z" fill="url(#b)"/>
    <path d="M58.756,91.006s3.972,31.448,48,43.7C106.756,134.7,78.618,81.406,58.756,91.006Z" fill="url(#c)"/>
    <path d="M57.816,62.98s6.493,31.026-31.139,56.954C26.677,119.934,35.909,60.377,57.816,62.98Z" fill="url(#d)"/>
    <path d="M58.9,161.416s-3.972,31.449-48,43.7C10.9,205.113,39.035,151.816,58.9,161.416Z" fill="url(#e)"/>
    <path d="M59.661,46.068S53.038,70.282,2.955,75.456C2.955,75.456,34.619,35.514,59.661,46.068Z" fill="url(#f)"/>
    <path d="M54.872,284.12s6.623,24.214,56.705,29.388C111.577,313.508,79.913,273.565,54.872,284.12Z" fill="url(#g)"/>
    <path d="M56.705,242.72S50.083,266.934,0,272.108C0,272.108,31.664,232.166,56.705,242.72Z" fill="url(#h)"/>
    <g>
      <path d="M59.455,1.355c4.625,4.625-11,9.25-11,9.25S53.58-4.52,59.455,1.355Z" fill="#fff"/>
      <path d="M60.538,3.094c7.766,2.207-6.3,16.583-6.3,16.583S50.674.29,60.538,3.094Z" fill="#fff"/>
      <path d="M64.09,1.735c7.664-4.639,8.7,17.658,8.7,17.658S54.353,7.628,64.09,1.735Z" fill="#fff"/>
      <path d="M62.017.975c6.418-1.262,1.548,14.289,1.548,14.289S53.864,2.577,62.017.975Z" fill="#fff"/>
      <path d="M64.958,1.141C68.822-4.136,75.779,10.6,75.779,10.6S60.049,7.845,64.958,1.141Z" fill="#fff"/>
    </g>
  </g>
</svg>
