<svg xmlns="http://www.w3.org/2000/svg" xmlns:xlink="http://www.w3.org/1999/xlink" width="135" height="398.272" viewBox="0 0 135 398.272">
  <defs>
    <linearGradient id="a" x1="52.5" y1="200.772" x2="78" y2="200.772" gradientUnits="userSpaceOnUse">
      <stop offset="0" stop-color="#5a8539"/>
      <stop offset="1" stop-color="#46952f"/>
    </linearGradient>
    <linearGradient id="b" x1="7" y1="308.939" x2="61.753" y2="308.939" xlink:href="#a"/>
    <linearGradient id="c" x1="63.625" y1="261.727" x2="135" y2="261.727" xlink:href="#a"/>
    <linearGradient id="d" x1="0" y1="222.483" x2="64.463" y2="222.483" xlink:href="#a"/>
    <linearGradient id="e" x1="69" y1="158.825" x2="117" y2="158.825" xlink:href="#a"/>
    <linearGradient id="f" x1="72.939" y1="85.313" x2="106.003" y2="85.313" xlink:href="#a"/>
    <linearGradient id="g" x1="61.753" y1="292.654" x2="109.753" y2="292.654" xlink:href="#a"/>
    <linearGradient id="h" x1="14" y1="105.055" x2="70.705" y2="105.055" xlink:href="#a"/>
  </defs>
  <title>Bamboo_5</title>
  <g>
    <polygon points="71 3.272 52.5 398.272 62 398.272 78 3.272 71 3.272" fill="url(#a)"/>
    <path d="M61.333,286.772c6,35-54.333,44.333-54.333,44.333C26.75,295.272,61.333,286.772,61.333,286.772Z" fill="url(#b)"/>
    <path d="M63.625,249.275C63.625,274.646,135,276.13,135,276.13,82.055,236.541,63.625,249.275,63.625,249.275Z" fill="url(#c)"/>
    <path d="M64.224,213.4S71.908,232.055,0,232.691C0,232.691,29.463,206.619,64.224,213.4Z" fill="url(#d)"/>
    <path d="M69,137.555s3.972,31.449,48,43.7C117,181.252,88.862,127.955,69,137.555Z" fill="url(#e)"/>
    <path d="M73.224,57.364S67.634,88.566,106,113.39C106,113.39,95.045,54.126,73.224,57.364Z" fill="url(#f)"/>
    <path d="M61.753,271.384s3.972,31.448,48,43.7C109.753,315.081,81.615,261.784,61.753,271.384Z" fill="url(#g)"/>
    <path d="M70.705,91.249S64.083,115.463,14,120.637C14,120.637,45.664,80.695,70.705,91.249Z" fill="url(#h)"/>
    <g>
      <path d="M72.083,1.355c4.625,4.625-11,9.25-11,9.25S66.208-4.52,72.083,1.355Z" fill="#fff"/>
      <path d="M73.166,3.094c7.766,2.207-6.3,16.583-6.3,16.583S63.3.29,73.166,3.094Z" fill="#fff"/>
      <path d="M76.717,1.735c7.665-4.639,8.706,17.658,8.706,17.658S66.981,7.628,76.717,1.735Z" fill="#fff"/>
      <path d="M74.645.975c6.418-1.262,1.548,14.289,1.548,14.289S66.492,2.577,74.645.975Z" fill="#fff"/>
      <path d="M77.586,1.141C81.45-4.136,88.407,10.6,88.407,10.6S72.677,7.845,77.586,1.141Z" fill="#fff"/>
    </g>
  </g>
</svg>
