<svg xmlns="http://www.w3.org/2000/svg" xmlns:xlink="http://www.w3.org/1999/xlink" width="142" height="399.51" viewBox="0 0 142 399.51">
  <defs>
    <style>
      .cls-1 {
        fill: url(#linear-gradient);
      }

      .cls-2 {
        fill: url(#linear-gradient-2);
      }

      .cls-3 {
        fill: url(#linear-gradient-3);
      }

      .cls-4 {
        fill: url(#linear-gradient-4);
      }

      .cls-5 {
        fill: url(#linear-gradient-5);
      }

      .cls-6 {
        fill: url(#linear-gradient-6);
      }

      .cls-7 {
        fill: url(#linear-gradient-7);
      }

      .cls-8 {
        fill: url(#linear-gradient-8);
      }

      .cls-9 {
        fill: url(#linear-gradient-9);
      }

      .cls-10 {
        fill: #fff;
      }
    </style>
    <linearGradient id="linear-gradient" x1="48.5" y1="202.01" x2="86.5" y2="202.01" gradientUnits="userSpaceOnUse">
      <stop offset="0" stop-color="#5a8539"/>
      <stop offset="1" stop-color="#46952f"/>
    </linearGradient>
    <linearGradient id="linear-gradient-2" x1="19.5" y1="341.17" x2="74.25" y2="341.17" xlink:href="#linear-gradient"/>
    <linearGradient id="linear-gradient-3" x1="70.63" y1="271.46" x2="142" y2="271.46" xlink:href="#linear-gradient"/>
    <linearGradient id="linear-gradient-4" x1="0" y1="185.72" x2="64.46" y2="185.72" xlink:href="#linear-gradient"/>
    <linearGradient id="linear-gradient-5" x1="60.5" y1="139.06" x2="108.5" y2="139.06" xlink:href="#linear-gradient"/>
    <linearGradient id="linear-gradient-6" x1="73.5" y1="316.06" x2="121.5" y2="316.06" xlink:href="#linear-gradient"/>
    <linearGradient id="linear-gradient-7" x1="19.5" y1="221.06" x2="67.5" y2="221.06" xlink:href="#linear-gradient"/>
    <linearGradient id="linear-gradient-8" x1="64.46" y1="180.34" x2="121.17" y2="180.34" xlink:href="#linear-gradient"/>
    <linearGradient id="linear-gradient-9" x1="0" y1="79.29" x2="56.71" y2="79.29" xlink:href="#linear-gradient"/>
  </defs>
  <title>Bamboo_2</title>
  <g id="Layer_2" data-name="Layer 2">
    <g id="Layer_1-2" data-name="Layer 1">
      <g>
        <polygon class="cls-1" points="48.5 4.51 57.17 4.51 86.5 399.51 76.5 399.51 48.5 4.51"/>
        <path class="cls-2" d="M73.83,319c6,35-54.33,44.33-54.33,44.33C39.25,327.51,73.83,319,73.83,319Z"/>
        <path class="cls-3" d="M70.63,259c0,25.37,71.37,26.86,71.37,26.86C89.06,246.28,70.63,259,70.63,259Z"/>
        <path class="cls-4" d="M64.22,176.64S71.91,195.29,0,195.93C0,195.93,29.46,169.85,64.22,176.64Z"/>
        <path class="cls-5" d="M60.5,117.79s4,31.45,48,43.7C108.5,161.49,80.36,108.19,60.5,117.79Z"/>
        <path class="cls-6" d="M73.5,294.79s4,31.45,48,43.7C121.5,338.49,93.36,285.19,73.5,294.79Z"/>
        <path class="cls-7" d="M67.5,199.79s-4,31.45-48,43.7C19.5,243.49,47.64,190.19,67.5,199.79Z"/>
        <path class="cls-8" d="M64.46,166.54s6.63,24.21,56.71,29.39C121.17,195.93,89.5,156,64.46,166.54Z"/>
        <path class="cls-9" d="M56.71,65.48S50.08,89.7,0,94.87C0,94.87,31.66,54.93,56.71,65.48Z"/>
        <g>
          <path class="cls-10" d="M51.94,2.13c7.35,3.35-8.71,15.45-8.71,15.45S42.61-2.12,51.94,2.13Z"/>
          <path class="cls-10" d="M55.66,1.32c8.27-3.44,6,18.76,6,18.76S45.15,5.69,55.66,1.32Z"/>
          <path class="cls-10" d="M53.07.67c8.1-.36-.75,17.78-.75,17.78S42.79,1.12,53.07.67Z"/>
          <path class="cls-10" d="M56.61.86c4.61-4.64,9.28,11,9.28,11S50.75,6.75,56.61.86Z"/>
        </g>
      </g>
    </g>
  </g>
</svg>
