<svg xmlns="http://www.w3.org/2000/svg" xmlns:xlink="http://www.w3.org/1999/xlink" width="114.668" height="346.745" viewBox="0 0 114.668 346.745">
  <defs>
    <linearGradient id="a" x1="44.5" y1="175.745" x2="69.5" y2="175.745" gradientUnits="userSpaceOnUse">
      <stop offset="0" stop-color="#5a8539"/>
      <stop offset="1" stop-color="#46952f"/>
    </linearGradient>
    <linearGradient id="b" x1="0" y1="249.912" x2="54.753" y2="249.912" xlink:href="#a"/>
    <linearGradient id="c" x1="62.965" y1="79.842" x2="103.284" y2="79.842" xlink:href="#a"/>
    <linearGradient id="d" x1="57" y1="195.796" x2="85.349" y2="195.796" xlink:href="#a"/>
    <linearGradient id="e" x1="52" y1="287.298" x2="100" y2="287.298" xlink:href="#a"/>
    <linearGradient id="f" x1="13.5" y1="118.798" x2="61.5" y2="118.798" xlink:href="#a"/>
    <linearGradient id="g" x1="57.963" y1="156.082" x2="114.668" y2="156.082" xlink:href="#a"/>
  </defs>
  <title>Bamboo_1</title>
  <g>
    <polygon points="44.5 346.745 62.5 4.745 69.5 7.745 53 346.745 44.5 346.745" fill="url(#a)"/>
    <path d="M54.333,227.745c6,35-54.333,44.333-54.333,44.333C19.75,236.245,54.333,227.745,54.333,227.745Z" fill="url(#b)"/>
    <path d="M65.6,52.387c-14.812,30.3,37.686,54.911,37.686,54.911C94.849,69.366,65.6,52.387,65.6,52.387Z" fill="url(#c)"/>
    <path d="M57.862,166.4s-8.437,30.555,27.487,58.8C85.349,225.207,79.888,165.187,57.862,166.4Z" fill="url(#d)"/>
    <path d="M52,266.028s3.972,31.448,48,43.7C100,309.725,71.862,256.428,52,266.028Z" fill="url(#e)"/>
    <path d="M61.5,97.528s-3.972,31.448-48,43.7C13.5,141.225,41.638,87.928,61.5,97.528Z" fill="url(#f)"/>
    <path d="M57.963,142.276s6.622,24.213,56.705,29.387C114.668,171.663,83,131.721,57.963,142.276Z" fill="url(#g)"/>
    <g>
      <path d="M65.715,1.753C72.824,5.58,55.992,16.59,55.992,16.59S56.686-3.109,65.715,1.753Z" fill="#fff"/>
      <path d="M69.476,1.19c8.484-2.879,4.7,19.118,4.7,19.118S58.7,4.848,69.476,1.19Z" fill="#fff"/>
      <path d="M67.616,0c6.539.15-1.565,14.287-1.565,14.287S59.309-.188,67.616,0Z" fill="#fff"/>
    </g>
  </g>
</svg>
