<svg xmlns="http://www.w3.org/2000/svg" xmlns:xlink="http://www.w3.org/1999/xlink" width="129.3" height="473.43" viewBox="0 0 129.3 473.43">
  <defs>
    <style>
      .cls-1 {
        fill: url(#linear-gradient);
      }

      .cls-2 {
        fill: url(#linear-gradient-2);
      }

      .cls-3 {
        fill: url(#linear-gradient-3);
      }

      .cls-4 {
        fill: url(#linear-gradient-4);
      }

      .cls-5 {
        fill: url(#linear-gradient-5);
      }

      .cls-6 {
        fill: url(#linear-gradient-6);
      }

      .cls-7 {
        fill: url(#linear-gradient-7);
      }

      .cls-8 {
        fill: url(#linear-gradient-8);
      }

      .cls-9 {
        fill: url(#linear-gradient-9);
      }

      .cls-10 {
        fill: url(#linear-gradient-10);
      }

      .cls-11 {
        fill: #fff;
      }
    </style>
    <linearGradient id="linear-gradient" x1="52.42" y1="239.51" x2="64.26" y2="239.51" gradientUnits="userSpaceOnUse">
      <stop offset="0" stop-color="#5a8539"/>
      <stop offset="1" stop-color="#46952f"/>
    </linearGradient>
    <linearGradient id="linear-gradient-2" x1="59.26" y1="405.81" x2="111.26" y2="405.81" xlink:href="#linear-gradient"/>
    <linearGradient id="linear-gradient-3" x1="57.93" y1="185.88" x2="129.3" y2="185.88" xlink:href="#linear-gradient"/>
    <linearGradient id="linear-gradient-4" x1="56.06" y1="216.81" x2="104.06" y2="216.81" xlink:href="#linear-gradient"/>
    <linearGradient id="linear-gradient-5" x1="8.71" y1="171.48" x2="56.71" y2="171.48" xlink:href="#linear-gradient"/>
    <linearGradient id="linear-gradient-6" x1="11.26" y1="390.97" x2="59.26" y2="390.97" xlink:href="#linear-gradient"/>
    <linearGradient id="linear-gradient-7" x1="56.06" y1="113.92" x2="112.76" y2="113.92" xlink:href="#linear-gradient"/>
    <linearGradient id="linear-gradient-8" x1="58.34" y1="275.22" x2="115.04" y2="275.22" xlink:href="#linear-gradient"/>
    <linearGradient id="linear-gradient-9" x1="0" y1="87.3" x2="56.71" y2="87.3" xlink:href="#linear-gradient"/>
    <linearGradient id="linear-gradient-10" x1="3.76" y1="318.01" x2="60.46" y2="318.01" xlink:href="#linear-gradient"/>
  </defs>
  <title>Bamboo</title>
  <g id="Layer_2" data-name="Layer 2">
    <g id="Layer_1-2" data-name="Layer 1">
      <g>
        <polygon class="cls-1" points="55.26 473.43 64.26 473.43 58.42 5.59 52.42 7.59 55.26 473.43"/>
        <path class="cls-2" d="M59.65,384.76C54,418,111.26,426.87,111.26,426.87,92.5,392.83,59.65,384.76,59.65,384.76Z"/>
        <path class="cls-3" d="M57.93,173.43c0,25.37,71.37,26.86,71.37,26.86C76.36,160.7,57.93,173.43,57.93,173.43Z"/>
        <path class="cls-4" d="M56.06,195.54s4,31.45,48,43.7C104.06,239.24,75.92,185.94,56.06,195.54Z"/>
        <path class="cls-5" d="M56.71,150.21s-4,31.45-48,43.7C8.71,193.91,36.84,140.61,56.71,150.21Z"/>
        <path class="cls-6" d="M59.26,369.7s-4,31.45-48,43.7C11.26,413.4,39.39,360.1,59.26,369.7Z"/>
        <path class="cls-7" d="M56.06,100.11s6.62,24.22,56.7,29.39C112.76,129.5,81.1,89.56,56.06,100.11Z"/>
        <path class="cls-8" d="M58.34,261.42S65,285.63,115,290.8C115,290.8,83.38,250.86,58.34,261.42Z"/>
        <path class="cls-9" d="M56.71,73.5S50.08,97.71,0,102.88C0,102.88,31.66,62.94,56.71,73.5Z"/>
        <path class="cls-10" d="M60.46,304.2s-6.62,24.22-56.7,29.39C3.76,333.59,35.42,293.65,60.46,304.2Z"/>
        <g>
          <path class="cls-11" d="M55,1.75c7.11,3.83-9.72,14.84-9.72,14.84S45.92-3.11,55,1.75Z"/>
          <path class="cls-11" d="M58.72,1.19c8.48-2.88,4.69,19.12,4.69,19.12S47.94,4.85,58.72,1.19Z"/>
          <path class="cls-11" d="M56.85,0c6.54.15-1.56,14.29-1.56,14.29S48.55-.19,56.85,0Z"/>
        </g>
      </g>
    </g>
  </g>
</svg>
