<svg xmlns="http://www.w3.org/2000/svg" xmlns:xlink="http://www.w3.org/1999/xlink" width="114.67" height="346.74" viewBox="0 0 114.67 346.74">
  <defs>
    <style>
      .cls-1 {
        fill: url(#linear-gradient);
      }

      .cls-2 {
        fill: url(#linear-gradient-2);
      }

      .cls-3 {
        fill: url(#linear-gradient-3);
      }

      .cls-4 {
        fill: url(#linear-gradient-4);
      }

      .cls-5 {
        fill: url(#linear-gradient-5);
      }

      .cls-6 {
        fill: url(#linear-gradient-6);
      }

      .cls-7 {
        fill: url(#linear-gradient-7);
      }

      .cls-8 {
        fill: #fff;
      }
    </style>
    <linearGradient id="linear-gradient" x1="44.5" y1="175.74" x2="69.5" y2="175.74" gradientUnits="userSpaceOnUse">
      <stop offset="0" stop-color="#5a8539"/>
      <stop offset="1" stop-color="#46952f"/>
    </linearGradient>
    <linearGradient id="linear-gradient-2" x1="0" y1="249.91" x2="54.75" y2="249.91" xlink:href="#linear-gradient"/>
    <linearGradient id="linear-gradient-3" x1="62.96" y1="79.84" x2="103.28" y2="79.84" xlink:href="#linear-gradient"/>
    <linearGradient id="linear-gradient-4" x1="57" y1="195.8" x2="85.35" y2="195.8" xlink:href="#linear-gradient"/>
    <linearGradient id="linear-gradient-5" x1="52" y1="287.3" x2="100" y2="287.3" xlink:href="#linear-gradient"/>
    <linearGradient id="linear-gradient-6" x1="13.5" y1="118.8" x2="61.5" y2="118.8" xlink:href="#linear-gradient"/>
    <linearGradient id="linear-gradient-7" x1="57.96" y1="156.08" x2="114.67" y2="156.08" xlink:href="#linear-gradient"/>
  </defs>
  <title>Bamboo_1</title>
  <g id="Layer_2" data-name="Layer 2">
    <g id="Layer_1-2" data-name="Layer 1">
      <g>
        <polygon class="cls-1" points="44.5 346.75 62.5 4.75 69.5 7.75 53 346.75 44.5 346.75"/>
        <path class="cls-2" d="M54.33,227.74c6,35-54.33,44.34-54.33,44.34C19.75,236.24,54.33,227.74,54.33,227.74Z"/>
        <path class="cls-3" d="M65.6,52.39c-14.81,30.29,37.68,54.91,37.68,54.91C94.85,69.37,65.6,52.39,65.6,52.39Z"/>
        <path class="cls-4" d="M57.86,166.4S49.43,197,85.35,225.21C85.35,225.21,79.89,165.19,57.86,166.4Z"/>
        <path class="cls-5" d="M52,266s4,31.45,48,43.69C100,309.72,71.86,256.43,52,266Z"/>
        <path class="cls-6" d="M61.5,97.53s-4,31.45-48,43.69C13.5,141.22,41.64,87.93,61.5,97.53Z"/>
        <path class="cls-7" d="M58,142.28s6.63,24.21,56.71,29.38C114.67,171.66,83,131.72,58,142.28Z"/>
        <g>
          <path class="cls-8" d="M65.72,1.75C72.82,5.58,56,16.59,56,16.59S56.69-3.11,65.72,1.75Z"/>
          <path class="cls-8" d="M69.48,1.19c8.48-2.88,4.7,19.12,4.7,19.12S58.7,4.85,69.48,1.19Z"/>
          <path class="cls-8" d="M67.62,0c6.53.15-1.57,14.29-1.57,14.29S59.31-.19,67.62,0Z"/>
        </g>
      </g>
    </g>
  </g>
</svg>
