<svg xmlns="http://www.w3.org/2000/svg" xmlns:xlink="http://www.w3.org/1999/xlink" width="135" height="398.27" viewBox="0 0 135 398.27">
  <defs>
    <style>
      .cls-1 {
        fill: url(#linear-gradient);
      }

      .cls-2 {
        fill: url(#linear-gradient-2);
      }

      .cls-3 {
        fill: url(#linear-gradient-3);
      }

      .cls-4 {
        fill: url(#linear-gradient-4);
      }

      .cls-5 {
        fill: url(#linear-gradient-5);
      }

      .cls-6 {
        fill: url(#linear-gradient-6);
      }

      .cls-7 {
        fill: url(#linear-gradient-7);
      }

      .cls-8 {
        fill: url(#linear-gradient-8);
      }

      .cls-9 {
        fill: #fff;
      }
    </style>
    <linearGradient id="linear-gradient" x1="52.5" y1="200.77" x2="78" y2="200.77" gradientUnits="userSpaceOnUse">
      <stop offset="0" stop-color="#5a8539"/>
      <stop offset="1" stop-color="#46952f"/>
    </linearGradient>
    <linearGradient id="linear-gradient-2" x1="7" y1="308.94" x2="61.75" y2="308.94" xlink:href="#linear-gradient"/>
    <linearGradient id="linear-gradient-3" x1="63.63" y1="261.73" x2="135" y2="261.73" xlink:href="#linear-gradient"/>
    <linearGradient id="linear-gradient-4" x1="0" y1="222.48" x2="64.46" y2="222.48" xlink:href="#linear-gradient"/>
    <linearGradient id="linear-gradient-5" x1="69" y1="158.83" x2="117" y2="158.83" xlink:href="#linear-gradient"/>
    <linearGradient id="linear-gradient-6" x1="72.94" y1="85.31" x2="106" y2="85.31" xlink:href="#linear-gradient"/>
    <linearGradient id="linear-gradient-7" x1="61.75" y1="292.65" x2="109.75" y2="292.65" xlink:href="#linear-gradient"/>
    <linearGradient id="linear-gradient-8" x1="14" y1="105.06" x2="70.71" y2="105.06" xlink:href="#linear-gradient"/>
  </defs>
  <title>Bamboo_5</title>
  <g id="Layer_2" data-name="Layer 2">
    <g id="Layer_1-2" data-name="Layer 1">
      <g>
        <polygon class="cls-1" points="71 3.27 52.5 398.27 62 398.27 78 3.27 71 3.27"/>
        <path class="cls-2" d="M61.33,286.77c6,35-54.33,44.34-54.33,44.34C26.75,295.27,61.33,286.77,61.33,286.77Z"/>
        <path class="cls-3" d="M63.63,249.28c0,25.37,71.37,26.85,71.37,26.85C82.06,236.54,63.63,249.28,63.63,249.28Z"/>
        <path class="cls-4" d="M64.22,213.4S71.91,232.05,0,232.69C0,232.69,29.46,206.62,64.22,213.4Z"/>
        <path class="cls-5" d="M69,137.56s4,31.44,48,43.69C117,181.25,88.86,128,69,137.56Z"/>
        <path class="cls-6" d="M73.22,57.36s-5.59,31.21,32.78,56C106,113.39,95.05,54.13,73.22,57.36Z"/>
        <path class="cls-7" d="M61.75,271.38s4,31.45,48,43.7C109.75,315.08,81.61,261.78,61.75,271.38Z"/>
        <path class="cls-8" d="M70.71,91.25S64.08,115.46,14,120.64C14,120.64,45.66,80.69,70.71,91.25Z"/>
        <g>
          <path class="cls-9" d="M72.08,1.36c4.63,4.62-11,9.25-11,9.25S66.21-4.52,72.08,1.36Z"/>
          <path class="cls-9" d="M73.17,3.09c7.76,2.21-6.31,16.59-6.31,16.59S63.3.29,73.17,3.09Z"/>
          <path class="cls-9" d="M76.72,1.73c7.66-4.63,8.7,17.66,8.7,17.66S67,7.63,76.72,1.73Z"/>
          <path class="cls-9" d="M74.64,1c6.42-1.26,1.55,14.29,1.55,14.29S66.49,2.58,74.64,1Z"/>
          <path class="cls-9" d="M77.59,1.14c3.86-5.28,10.82,9.46,10.82,9.46S72.68,7.84,77.59,1.14Z"/>
        </g>
      </g>
    </g>
  </g>
</svg>
