<svg xmlns="http://www.w3.org/2000/svg" xmlns:xlink="http://www.w3.org/1999/xlink" width="142" height="399.507" viewBox="0 0 142 399.507">
  <defs>
    <linearGradient id="a" x1="48.5" y1="202.007" x2="86.5" y2="202.007" gradientUnits="userSpaceOnUse">
      <stop offset="0" stop-color="#5a8539"/>
      <stop offset="1" stop-color="#46952f"/>
    </linearGradient>
    <linearGradient id="b" x1="19.5" y1="341.174" x2="74.253" y2="341.174" xlink:href="#a"/>
    <linearGradient id="c" x1="70.625" y1="271.462" x2="142" y2="271.462" xlink:href="#a"/>
    <linearGradient id="d" x1="0" y1="185.718" x2="64.463" y2="185.718" xlink:href="#a"/>
    <linearGradient id="e" x1="60.5" y1="139.06" x2="108.5" y2="139.06" xlink:href="#a"/>
    <linearGradient id="f" x1="73.5" y1="316.06" x2="121.5" y2="316.06" xlink:href="#a"/>
    <linearGradient id="g" x1="19.5" y1="221.06" x2="67.5" y2="221.06" xlink:href="#a"/>
    <linearGradient id="h" x1="64.463" y1="180.344" x2="121.168" y2="180.344" xlink:href="#a"/>
    <linearGradient id="i" x1="0" y1="79.29" x2="56.705" y2="79.29" xlink:href="#a"/>
  </defs>
  <title>Bamboo_2</title>
  <g>
    <polygon points="48.5 4.507 57.167 4.507 86.5 399.507 76.5 399.507 48.5 4.507" fill="url(#a)"/>
    <path d="M73.833,319.007c6,35-54.333,44.334-54.333,44.334C39.25,327.507,73.833,319.007,73.833,319.007Z" fill="url(#b)"/>
    <path d="M70.625,259.01c0,25.371,71.375,26.855,71.375,26.855C89.055,246.277,70.625,259.01,70.625,259.01Z" fill="url(#c)"/>
    <path d="M64.224,176.637S71.908,195.29,0,195.926C0,195.926,29.463,169.854,64.224,176.637Z" fill="url(#d)"/>
    <path d="M60.5,117.79s3.972,31.449,48,43.7C108.5,161.487,80.362,108.19,60.5,117.79Z" fill="url(#e)"/>
    <path d="M73.5,294.79s3.972,31.449,48,43.7C121.5,338.487,93.362,285.19,73.5,294.79Z" fill="url(#f)"/>
    <path d="M67.5,199.79s-3.972,31.449-48,43.7C19.5,243.487,47.638,190.19,67.5,199.79Z" fill="url(#g)"/>
    <path d="M64.463,166.538s6.622,24.214,56.705,29.388C121.168,195.926,89.5,155.983,64.463,166.538Z" fill="url(#h)"/>
    <path d="M56.705,65.485S50.083,89.7,0,94.872C0,94.872,31.664,54.93,56.705,65.485Z" fill="url(#i)"/>
    <g>
      <path d="M51.943,2.13c7.348,3.345-8.714,15.452-8.714,15.452S42.61-2.12,51.943,2.13Z" fill="#fff"/>
      <path d="M55.658,1.318C63.931-2.12,61.62,20.081,61.62,20.081S45.149,5.686,55.658,1.318Z" fill="#fff"/>
      <path d="M53.073.666c8.094-.355-.755,17.785-.755,17.785S42.792,1.116,53.073.666Z" fill="#fff"/>
      <path d="M56.605.861c4.611-4.639,9.283,10.972,9.283,10.972S50.748,6.754,56.605.861Z" fill="#fff"/>
    </g>
  </g>
</svg>
