<svg xmlns="http://www.w3.org/2000/svg" xmlns:xlink="http://www.w3.org/1999/xlink" width="1642.74" height="254.36" viewBox="0 0 1642.74 254.36">
  <defs>
    <style>
      .cls-1 {
        fill: url(#linear-gradient);
      }
    </style>
    <linearGradient id="linear-gradient" y1="127.18" x2="1642.74" y2="127.18" gradientUnits="userSpaceOnUse">
      <stop offset="0" stop-color="#c5d654"/>
      <stop offset="1" stop-color="#a4bd47"/>
    </linearGradient>
  </defs>
  <title>BgBush_2</title>
  <g id="Layer_2" data-name="Layer 2">
    <g id="Layer_1-2" data-name="Layer 1">
      <path class="cls-1" d="M1632.38,228.1s12.49.14,9.92-17.94-22-14.14-22-14.14,4.21-4.11-1.28-9.73-11.15,4-11.15,4,1.53-12.47-10.94-14c-10.12-1.24-15.86,14-17.68,19.79.36-2.66-.47-7-8.83-9-10.76-2.53-21.63,5.29-24.4,7.48,2.17-1.93,8.7-9,6.53-23-2.58-16.69-24.8-15.57-24.8-15.57s18.3-22,4.58-36-39.09,19-39.09,19-1.18-18.06-23.5-8.61c-7.18,3-9.78,8-10,13.33A39,39,0,0,0,1454,145s-10-8-33.58-7.22-28.58,17.62-28.58,17.62-18.82-23-35.43-21c-6.5.76-10.92,6.14-13.91,12.4a60.45,60.45,0,0,0-12.93,3.88s16-18.69,2.67-40.06-26.71-13.35-26.71-13.35,8-48.06-13.35-50.73-21.36,16-21.36,16-32-29.37-50.73-10.68,8,50.73,8,50.73-21.36-8-32,5.34,0,29.38,0,29.38-8-5.34-16-2.67a14.73,14.73,0,0,0-7.48,6.25,21.9,21.9,0,0,0-6.08-1.78,15.53,15.53,0,0,0-9-6.29c-7.87-9.31-21.49-4.78-21.49-4.78s10.92-6.24,4.68-28.08-35.87-18.72-35.87-18.72-.28-2-1-5c4.71-2.37,10.31-7.55,10.35-18.8.07-19.43-16.59-20.88-16.59-20.88,1.5-31.92-31.85-22.32-31.85-22.32s-9.69-8.36-33.29-8.44-29.21,16.56-29.21,16.56S985.12-1.28,968.45.05,947.51,33.3,947.51,33.3s-4.13-9.73-12.47-7c-7.53,2.48-4.88,9.53-4.3,10.87-.56-1.15-3.55-6.29-11-2.6-8.34,4.14-4.21,15.26-4.21,15.26s-6.92-5.58-12.47-7-11.13,6.91-11.13,6.91S889.22,30.32,867,30.25a22.52,22.52,0,0,0-15.62,6.07,17.24,17.24,0,0,0-3.88-10.71c-12.23-15.36-40.82,14.92-40.82,14.92s.66-18.09-22.51-10.94S780,66.83,780,66.83s-15.3-12.92-27.9-.38,5.61,24.39,5.61,24.39-28-11.57-39.29,13.7a26.66,26.66,0,0,0-2.54,11,32.69,32.69,0,0,0-2.47,2.35c-.14-.24-.27-.48-.42-.72C695.79,89.71,678.64,100,678.64,100s10.29-61.75-17.15-65.18S634,55.4,634,55.4s-41.16-37.73-65.17-13.72,10.29,65.18,10.29,65.18S551.72,96.57,538,113.72s0,37.73,0,37.73-10.29-6.86-20.58-3.43-13.72,17.15-13.72,17.15,0-20.58-24-20.58c-19.08,0-23,8.66-23.8,12.22.05-2.86-1.73-8.79-17.36-8.79-20.58,0-17.15,17.15-17.15,17.15a17.23,17.23,0,0,0-17.15-3.43,9.86,9.86,0,0,0-6.14,6.26c-22.14,4.09-28.45,21.26-28.45,21.26s-2-14.17-22.21-10.19-22.3,18.13-22.3,18.13S327.2,177,303,170.84s-34.41,10-34.41,10-2-18.21-26.24-18.29-30.4,22.15-30.4,22.15-7.26-16.44-23.64-7.71a15.58,15.58,0,0,0-2.19-.38c-10.13-1.13-15.7,14.15-17.44,20,.32-2.67-.56-7-8.94-8.89-10.79-2.4-21.56,5.55-24.31,7.77,2.15-2,8.59-9.09,6.26-23-2.77-16.66-25-15.27-25-15.27s18.05-22.21,4.17-36.09S82,140.52,82,140.52s-1.39-18.05-23.6-8.33,0,37.48,0,37.48-16.66-11.1-27.77,2.78,8.33,23.6,8.33,23.6-29.15-8.33-37.48,18S23.65,246,23.65,246c-5.55,4.16-1.39,8.33-1.39,8.33H212.45a30,30,0,0,0,6.31-.87l139.86.44c.61.29,1,.43,1,.43h837.11l.48-.5,425.13.5s15.27.18,19.56-10.88S1632.38,228.1,1632.38,228.1Z"/>
    </g>
  </g>
</svg>
