<svg xmlns="http://www.w3.org/2000/svg" xmlns:xlink="http://www.w3.org/1999/xlink" width="1642.74" height="254.357" viewBox="0 0 1642.74 254.357">
  <defs>
    <linearGradient id="a" y1="127.179" x2="1642.74" y2="127.179" gradientUnits="userSpaceOnUse">
      <stop offset="0" stop-color="#c5d654"/>
      <stop offset="1" stop-color="#a4bd47"/>
    </linearGradient>
  </defs>
  <title>BgBush_2</title>
  <path d="M1632.376,228.1s12.493.146,9.928-17.933-22.047-14.142-22.047-14.142,4.213-4.115-1.275-9.733-11.154,4.035-11.154,4.035,1.535-12.478-10.942-14.013c-10.112-1.243-15.856,13.975-17.671,19.79.356-2.665-.476-7.033-8.834-8.994-10.757-2.523-21.628,5.294-24.4,7.48,2.175-1.924,8.7-8.98,6.535-22.961-2.581-16.69-24.808-15.563-24.808-15.563s18.307-22,4.589-36.043S1493.2,139,1493.2,139s-1.177-18.062-23.5-8.6c-7.175,3.039-9.779,8-10.015,13.326a39.56,39.56,0,0,0-5.714,1.282s-9.99-8-33.577-7.217-28.584,17.619-28.584,17.619-18.821-22.988-35.424-21.047c-6.5.761-10.925,6.14-13.911,12.4a60.716,60.716,0,0,0-12.936,3.881s16.022-18.692,2.671-40.054-26.7-13.351-26.7-13.351,8.01-48.064-13.352-50.734-21.361,16.021-21.361,16.021-32.043-29.372-50.735-10.681,8.011,50.735,8.011,50.735-21.362-8.011-32.043,5.34,0,29.373,0,29.373-8.011-5.341-16.021-2.671a14.807,14.807,0,0,0-7.484,6.252,22,22,0,0,0-6.08-1.775,15.5,15.5,0,0,0-9.048-6.293c-7.876-9.31-21.487-4.783-21.487-4.783s10.918-6.239,4.679-28.076-35.874-18.717-35.874-18.717-.282-1.964-1.035-4.951c4.71-2.371,10.307-7.549,10.346-18.8.067-19.435-16.587-20.88-16.587-20.88,1.5-31.925-31.853-22.322-31.853-22.322s-9.689-8.363-33.289-8.444-29.21,16.558-29.21,16.558S985.116-1.276,968.452.054,947.514,33.3,947.514,33.3s-4.131-9.732-12.47-6.984c-7.534,2.483-4.886,9.532-4.3,10.869-.558-1.147-3.549-6.284-11-2.592-8.343,4.135-4.217,15.256-4.217,15.256s-6.922-5.577-12.47-6.984-11.13,6.9-11.13,6.9-2.709-19.444-24.921-19.521a22.565,22.565,0,0,0-15.613,6.076,17.282,17.282,0,0,0-3.886-10.709c-12.225-15.362-40.818,14.919-40.818,14.919s.659-18.088-22.508-10.943-4.235,37.243-4.235,37.243-15.3-12.917-27.9-.378,5.61,24.39,5.61,24.39-28.025-11.57-39.282,13.7a26.534,26.534,0,0,0-2.54,10.983,30.875,30.875,0,0,0-2.47,2.348c-.145-.241-.272-.481-.424-.724C695.788,89.706,678.637,100,678.637,100s10.291-61.744-17.151-65.174S634.044,55.4,634.044,55.4s-41.163-37.733-65.175-13.721,10.291,65.174,10.291,65.174S551.719,96.567,538,113.718s0,37.733,0,37.733-10.291-6.861-20.582-3.431S503.7,165.171,503.7,165.171s0-20.581-24.011-20.581c-19.079,0-23,8.656-23.8,12.216.046-2.856-1.736-8.786-17.363-8.786-20.581,0-17.151,17.151-17.151,17.151a17.233,17.233,0,0,0-17.151-3.43A9.863,9.863,0,0,0,398.081,168c-22.137,4.085-28.45,21.253-28.45,21.253s-1.978-14.162-22.213-10.182-22.3,18.129-22.3,18.129,2.087-20.215-22.161-26.358-34.409,10-34.409,10-1.965-18.206-26.231-18.284-30.4,22.149-30.4,22.149-7.262-16.444-23.64-7.709a16.673,16.673,0,0,0-2.195-.387c-10.126-1.125-15.691,14.158-17.438,19.995.325-2.669-.559-7.027-8.939-8.889-10.786-2.4-21.564,5.546-24.312,7.765,2.153-1.95,8.591-9.082,6.265-23.036-2.776-16.659-24.988-15.271-24.988-15.271s18.047-22.212,4.164-36.094-38.87,19.435-38.87,19.435-1.389-18.047-23.6-8.329,0,37.482,0,37.482S41.7,158.568,30.593,172.451s8.329,23.6,8.329,23.6S9.769,187.722,1.439,214.1s22.212,31.93,22.212,31.93c-5.553,4.165-1.388,8.329-1.388,8.329H212.452a29.418,29.418,0,0,0,6.3-.868l139.863.444a9.881,9.881,0,0,0,1.008.424h837.109c.167-.166.321-.33.485-.5l425.129.5s15.27.18,19.564-10.877S1632.376,228.1,1632.376,228.1Z" fill="url(#a)"/>
</svg>
