<svg xmlns="http://www.w3.org/2000/svg" xmlns:xlink="http://www.w3.org/1999/xlink" width="1244.51" height="385.45" viewBox="0 0 1244.51 385.45">
  <defs>
    <style>
      .cls-1 {
        fill: url(#linear-gradient);
      }
    </style>
    <linearGradient id="linear-gradient" y1="192.72" x2="1244.51" y2="192.72" gradientUnits="userSpaceOnUse">
      <stop offset="0" stop-color="#c5d654"/>
      <stop offset="1" stop-color="#a4bd47"/>
    </linearGradient>
  </defs>
  <title>BgBush_6</title>
  <g id="Layer_2" data-name="Layer 2">
    <g id="Layer_1-2" data-name="Layer 1">
      <path class="cls-1" d="M1244.51,327.55c.07-19.44-16.58-20.88-16.58-20.88.91-19.51-11.18-23.51-20.73-23.67a21.05,21.05,0,0,0-3.55-2.66s12.2,2.68,13.36-15.54-18.73-18.32-18.73-18.32,5-3.18.73-9.79-11.74,1.69-11.74,1.69,4-11.91-7.88-15.94c-9.64-3.27-18.36,10.47-21.31,15.79.89-2.53,1-7-6.83-10.59-10-4.66-22.25.79-25.41,2.37,2.52-1.44,10.34-7,11.05-21.16.86-16.86-21.13-20.27-21.13-20.27s22.38-17.83,11.8-34.36-42.13,10.66-42.13,10.66,2.51-17.93-21.27-13.2c-7.64,1.53-11.2,5.85-12.51,11a40.54,40.54,0,0,0-5.86.1s-8.16-9.86-31.41-13.88-31.56,11.46-31.56,11.46-13.77-26.32-30.43-27.79-26.18,29.29-26.18,29.29-2.45-10.28-11.13-9c-7.85,1.2-6.41,8.59-6.06,10-.36-1.22-2.45-6.78-10.41-4.38-8.92,2.68-6.7,14.33-6.7,14.33s-5.9-6.65-11.13-9-12.13,4.95-12.13,4.95.57-19.62-21.32-23.4-32.32,24-32.32,24-2.17-5.58-10.92-6.75a35.12,35.12,0,0,0-9.33-8.09c15.59-28.08-12.48-37.44-12.48-37.44,0-28.07-23.4-25-23.4-25-6.24-17.16-25-10.92-25-10.92s10.92-6.24,4.68-28.08-35.87-18.71-35.87-18.71-6.24-43.68-39-32.76-25,43.68-25,43.68-14-7.8-29.64-6.24-23.39,15.59-23.39,15.59-6.24-20.27-29.64-18.71S529.6,56.34,529.6,56.34C518.68,61,514,51.66,514,51.66c-1.56-9.35-20.28-17.15-34.32-3.12s1.56,35.88,1.56,35.88S468.77,79.74,464.09,86s0,12.48,0,12.48a15.55,15.55,0,0,0-6.24,1.56c-3.12,1.56-3.12,6.24-3.12,6.24s-14-17.16-26.52-14-10.92,14-10.92,14a13.66,13.66,0,0,0-14,7.8c-4.68,9.35,4.67,15.59,4.67,15.59-1.47,2.95,1.22,10,1.53,10.84-.24-.59-2.11-4.48-9.32-3-7.8,1.56-7.8,6.24-7.8,6.24a11.85,11.85,0,0,0-14-4.68c-9.36,3.12-6.24,12.48-6.24,12.48s-3.12-4.68-10.92,1.56,3.12,17.16,3.12,17.16a30.21,30.21,0,0,0-13.47.54c-13.67-1.28-33,19.2-33,19.2s.66-18.08-22.51-10.94S291,216.25,291,216.25s-15.3-12.91-27.9-.37,5.61,24.39,5.61,24.39-28-11.57-39.29,13.69a26.67,26.67,0,0,0-2.54,11,33.8,33.8,0,0,0-10,14.95s-7.94-18.26-26.24-6.28-8.28,24.21-8.28,24.21-20.35-.15-22.28,21.09l-.42-.11c-10.79-2.39-21.56,5.55-24.31,7.77,2.15-1.95,8.59-9.08,6.26-23-2.77-16.66-25-15.27-25-15.27s18.05-22.21,4.17-36.09S82,271.61,82,271.61s-1.39-18.05-23.6-8.33,0,37.49,0,37.49-16.66-11.11-27.77,2.77,8.33,23.6,8.33,23.6S9.77,318.81,1.44,345.19s22.21,31.93,22.21,31.93c-5.55,4.16-1.39,8.33-1.39,8.33h1115.9l0-.48c50.44-.93,91.06-3.41,95.06-8.87,11.16-15.23-5.46-27.79-5.46-27.79S1244.45,347,1244.51,327.55Z"/>
    </g>
  </g>
</svg>
