<svg xmlns="http://www.w3.org/2000/svg" xmlns:xlink="http://www.w3.org/1999/xlink" width="2189.45" height="525.49" viewBox="0 0 2189.45 525.49">
  <defs>
    <style>
      .cls-1 {
        fill: url(#linear-gradient);
      }
    </style>
    <linearGradient id="linear-gradient" y1="262.74" x2="2189.45" y2="262.74" gradientUnits="userSpaceOnUse">
      <stop offset="0" stop-color="#c5d654"/>
      <stop offset="1" stop-color="#a4bd47"/>
    </linearGradient>
  </defs>
  <title>BgBush_5</title>
  <g id="Layer_2" data-name="Layer 2">
    <g id="Layer_1-2" data-name="Layer 1">
      <path class="cls-1" d="M2185.61,446.59c-13.72-24-51.45-6.86-51.45-6.86s20.58-24,3.43-51.45-34.31-17.15-34.31-17.15,10.29-61.75-17.15-65.18a31.4,31.4,0,0,0-13.43.86c-3.2-11.38-19.33-13.59-19.33-13.59s14.2-14.11-1.94-26.3-36.41,1.91-36.41,1.91-4-16.19-34.33-16.29-38.49,22.13-38.49,22.13-2-14.16-22.21-10.18-22.3,18.13-22.3,18.13,2.08-20.22-22.16-26.36-34.41,10-34.41,10-2-18.21-26.23-18.29a33.28,33.28,0,0,0-11.3,1.84,25.89,25.89,0,0,0-10.11-1.37s4.61-3.66-.28-9.81-11.51,2.89-11.51,2.89,2.79-12.26-9.46-15.05c-9.94-2.27-17.19,12.29-19.59,17.89.63-2.61.24-7-7.88-9.84-10.44-3.6-22,3.08-25,5,2.36-1.69,9.56-8.05,8.83-22.18-.88-16.87-23.11-18-23.11-18s20.45-20,8.22-35.39-40.82,14.92-40.82,14.92.66-18.09-22.51-10.94c-9.29,2.87-11.81,9.43-11.49,16.26-5.4-8.95-18.14-7.71-18.14-7.71s4.61-3.67-.28-9.81-11.5,2.88-11.5,2.88,2.79-12.26-9.47-15.05c-9.93-2.26-17.19,12.3-19.58,17.9.62-2.62.23-7.05-7.88-9.85-10.45-3.6-22,3.08-25,5,2.36-1.69,9.57-8.05,8.83-22.18-.87-16.86-23.1-18-23.1-18s20.44-20,8.22-35.4-40.82,14.92-40.82,14.92.66-18.09-22.51-10.94-4.24,37.24-4.24,37.24-15.29-12.91-27.9-.37,5.61,24.39,5.61,24.39-15.56-6.42-28.15.76a32.9,32.9,0,0,0-.23-8.88c-2.58-16.69-24.81-15.56-24.81-15.56s18.31-22,4.59-36-39.1,19-39.1,19-1.17-18.07-23.5-8.61c-7.17,3-9.78,8-10,13.33a39.4,39.4,0,0,0-5.72,1.28s-10-8-33.57-7.22S1262,132.82,1262,132.82s-10-12.24-21.9-18.1a20.11,20.11,0,0,0-1.81-4.36c-5.7-10-16.72-10.82-25.76-9.44a38.23,38.23,0,0,0-9.84-3.14c3.48-7.37,6.49-19.58-1.79-32.81-13.35-21.36-26.7-13.35-26.7-13.35s8-48.07-13.35-50.74-21.36,16-21.36,16-32-29.37-50.74-10.68,8,50.74,8,50.74-21.36-8-32,5.34,0,29.37,0,29.37-8-5.34-16-2.67c-5.12,1.71-8.06,6.68-9.51,10l-1.57.28c-1-4.64-4.79-13-18.29-13-14.85,0-17.9,6.74-18.53,9.51,0-2.22-1.35-6.84-13.51-6.84-16,0-13.36,13.35-13.36,13.35a13.41,13.41,0,0,0-13.35-2.67c-8,2.67-5.34,16-5.34,16s-8-8-21.36,5.34-2.67,26.7-2.67,26.7a52.45,52.45,0,0,0-7.43,7.76,15.37,15.37,0,0,0-8.9-.7c-12.48,3.12-10.92,14-10.92,14a13.68,13.68,0,0,0-14,7.8c-4.68,9.36,4.68,15.6,4.68,15.6-1.47,2.94,1.22,10,1.53,10.83-.24-.58-2.11-4.48-9.33-3-7.8,1.56-7.8,6.23-7.8,6.23a11.84,11.84,0,0,0-14-4.67c-9.36,3.11-6.24,12.47-6.24,12.47s-3.12-4.68-10.92,1.56,3.12,17.16,3.12,17.16-21.84-4.68-25,14c-.09.53-.15,1-.21,1.54-15.12-1.82-31.56,5.64-31.56,5.64s20.58-24,3.43-51.45-34.31-17.15-34.31-17.15,10.29-61.75-17.15-65.18-27.44,20.59-27.44,20.59-41.16-37.74-65.17-13.73,10.29,65.18,10.29,65.18-27.45-10.29-41.17,6.86,0,37.73,0,37.73-10.29-6.86-20.58-3.43a16.14,16.14,0,0,0-5.74,3.44,20,20,0,0,0-7.52-4.47s12.5,0,9.72-18.05-22.21-13.88-22.21-13.88,4.16-4.17-1.39-9.72-11.11,4.16-11.11,4.16,1.39-12.49-11.1-13.88c-10.13-1.12-15.69,14.16-17.44,20,.33-2.67-.56-7-8.94-8.89-10.78-2.4-21.56,5.54-24.31,7.76,2.15-2,8.59-9.08,6.26-23-2.77-16.66-25-15.27-25-15.27s18-22.22,4.16-36.1-38.87,19.44-38.87,19.44-1.39-18-23.6-8.33,0,37.48,0,37.48-16.66-11.11-27.77,2.78,8.33,23.6,8.33,23.6-29.15-8.33-37.48,18c-3,9.64-.89,16.49,3.05,21.32a78.72,78.72,0,0,0-4.93,17.86s-4.13-9.73-12.47-7c-7.53,2.48-4.88,9.53-4.3,10.87-.56-1.15-3.55-6.29-11-2.59-8.34,4.13-4.21,15.25-4.21,15.25s-6.93-5.57-12.47-7-11.13,6.9-11.13,6.9-2.71-19.44-24.93-19.52-27.86,29.06-27.86,29.06-4.14-7-16.64-4.23-8.42,26.35-8.42,26.35-13.85-9.76-23.63,8.25a26.52,26.52,0,0,0-3,8.29c-13.8,4.71-28.56,20.34-28.56,20.34s.74-20.35-25.32-12.31-4.77,41.9-4.77,41.9-17.21-14.53-31.39-.43,6.31,27.44,6.31,27.44-31.52-13-44.19,15.41a30,30,0,0,0-2.86,12.36,38.05,38.05,0,0,0-11.24,16.82s-8.94-20.55-29.52-7.06-9.32,27.23-9.32,27.23-25-.2-25.24,27.1S27.07,521,27.07,521l352.62,2.8a19.55,19.55,0,0,0,2.51-1.46H1779.43a13,13,0,0,0,4.84,3.2h387.62S2199.33,470.6,2185.61,446.59Z"/>
    </g>
  </g>
</svg>
