<svg xmlns="http://www.w3.org/2000/svg" xmlns:xlink="http://www.w3.org/1999/xlink" width="1423.711" height="220.668" viewBox="0 0 1423.711 220.668">
  <defs>
    <linearGradient id="a" y1="110.334" x2="1423.711" y2="110.334" gradientUnits="userSpaceOnUse">
      <stop offset="0" stop-color="#c5d654"/>
      <stop offset="1" stop-color="#a4bd47"/>
    </linearGradient>
  </defs>
  <title>BgBush</title>
  <path d="M1403.91,174.062s14.267-14.042-1.814-26.3c-8.364-6.377-17.873-5.648-25.079-3.483-1.639-16.766-20.4-14.931-20.4-14.931s4.609-3.668-.281-9.813-11.506,2.883-11.506,2.883,2.791-12.257-9.466-15.048c-9.934-2.262-17.19,12.3-19.585,17.9.625-2.615.239-7.045-7.878-9.842-10.446-3.6-22.052,3.074-25.034,4.968,2.36-1.693,9.562-8.053,8.828-22.18-.876-16.866-23.1-18-23.1-18s20.441-20.031,8.216-35.393-40.818,14.92-40.818,14.92.66-18.089-22.508-10.943-4.235,37.242-4.235,37.242-15.3-12.917-27.9-.378c-.343.342-.654.683-.953,1.024-.109-.117-.2-.237-.315-.354-13.718-14.044-39.1,18.979-39.1,18.979s-1.177-18.063-23.5-8.606c-7.176,3.039-9.78,8-10.015,13.327a39.527,39.527,0,0,0-5.715,1.281s-9.989-8-33.576-7.217-28.584,17.619-28.584,17.619-18.821-22.988-35.425-21.047c-12.407,1.451-17.273,19.71-18.941,28.849a33.4,33.4,0,0,0-5.235-15.657c-13.351-21.362-26.7-13.351-26.7-13.351s8.011-48.064-13.351-50.734S918.575,65.8,918.575,65.8s-32.043-29.372-50.734-10.68,8.011,50.734,8.011,50.734-21.363-8.011-32.043,5.34c-7,8.752-4.824,18.651-2.492,24.433a31.435,31.435,0,0,0-9.276-5.42c0-28.075-23.4-24.956-23.4-24.956-6.24-17.157-24.957-10.918-24.957-10.918s10.919-6.239,4.679-28.076-35.874-18.717-35.874-18.717S746.254,3.862,713.5,14.78s-24.956,43.673-24.956,43.673-14.038-7.8-29.636-6.239-23.4,15.6-23.4,15.6S629.272,47.535,605.876,49.1,579.36,69.372,579.36,69.372c-10.918,4.679-15.6-4.68-15.6-4.68-1.56-9.358-20.276-17.157-34.315-3.119s1.56,35.875,1.56,35.875-12.478-4.68-17.157,1.559,0,12.478,0,12.478a15.539,15.539,0,0,0-6.239,1.56c-3.12,1.56-3.12,6.239-3.12,6.239s-14.038-17.157-26.516-14.038-10.918,14.038-10.918,14.038a13.679,13.679,0,0,0-14.038,7.8,10.751,10.751,0,0,0-.468,9.3c-21.606-3.724-30.747,10.772-30.747,10.772s-1.964-18.207-26.231-18.283a35.782,35.782,0,0,0-6.029.482c-15.307-2.145-32.251,5.555-32.251,5.555s20.581-24.011,3.43-51.453-34.3-17.151-34.3-17.151,10.29-61.744-17.152-65.174-27.442,20.581-27.442,20.581S240.665-16.017,216.653,7.994s10.291,65.175,10.291,65.175-27.442-10.291-41.163,6.86,0,37.733,0,37.733S175.49,110.9,165.2,114.331c-6.471,2.157-10.228,8.381-12.126,12.706a22.88,22.88,0,0,0-2.592-1.246,19.962,19.962,0,0,0-8.464-11.259c3.807-7.723,6.815-18.9-1.425-27.135-13.882-13.883-38.87,19.435-38.87,19.435s-1.389-18.047-23.6-8.329c-11.737,5.135-11.069,15.308-7.829,23.762a16.623,16.623,0,0,0-1.139,9.217A17.235,17.235,0,0,0,52,128.052c-10.29,3.43-6.86,20.582-6.86,20.582s-10.291-10.291-27.442,6.86-3.43,34.3-3.43,34.3c-27.442,24.012-6.861,30.872-6.861,30.872H395.025s.14-.28.388-.794l6.987.023a19.548,19.548,0,0,0,2.267.771h602.026s.053-.107.15-.307l263.29.307a29.828,29.828,0,0,0,7.494-1.095l138.047,1.095c12.181-5.97,4.172-16.145,4.172-16.145C1434.21,178.347,1403.91,174.062,1403.91,174.062Zm-220.694-65.213q.254-.684.483-1.386a28.5,28.5,0,0,0,3.257,2.588A33.854,33.854,0,0,0,1183.216,108.849Z" fill="url(#a)"/>
</svg>
