<svg xmlns="http://www.w3.org/2000/svg" xmlns:xlink="http://www.w3.org/1999/xlink" width="829.57" height="521.42" viewBox="0 0 829.57 521.42">
  <defs>
    <style>
      .cls-1 {
        fill: url(#linear-gradient);
      }
    </style>
    <linearGradient id="linear-gradient" y1="260.71" x2="829.57" y2="260.71" gradientUnits="userSpaceOnUse">
      <stop offset="0" stop-color="#c5d654"/>
      <stop offset="1" stop-color="#a4bd47"/>
    </linearGradient>
  </defs>
  <title>BgBush_4</title>
  <g id="Layer_2" data-name="Layer 2">
    <g id="Layer_1-2" data-name="Layer 1">
      <path class="cls-1" d="M826.58,460c-10.68-18.69-40.05-5.34-40.05-5.34s16-18.69,2.67-40.05-26.7-13.35-26.7-13.35,8-48.07-13.35-50.74c-13.14-1.64-18.19,4.79-20.14,10-9.39-8.61-28-11.11-28-11.11s9.73-4.13,7-12.47c-2.48-7.53-9.53-4.88-10.86-4.3,1.14-.56,6.28-3.55,2.59-11-4.14-8.34-15.26-4.22-15.26-4.22s5.58-6.92,7-12.47-6.91-11.13-6.91-11.13,19.45-2.71,19.52-24.92S675,241,675,241s7-4.14,4.22-16.65S652.88,216,652.88,216s9.77-13.85-8.25-23.63c-.46-.25-.91-.47-1.35-.69,5.38-17,9.21-37.52,2.15-49.87-13.72-24-51.45-6.86-51.45-6.86s20.58-24,3.43-51.45-34.3-17.15-34.3-17.15S573.4,4.56,546,1.13s-27.44,20.59-27.44,20.59S477.35-16,453.34,8s10.29,65.18,10.29,65.18S436.19,62.88,422.47,80s0,37.73,0,37.73-10.29-6.86-20.58-3.43-13.72,17.15-13.72,17.15,0-20.58-24-20.58c-19.08,0-23,8.66-23.8,12.22,0-2.86-1.74-8.79-17.37-8.79-20.58,0-17.15,17.15-17.15,17.15a17.23,17.23,0,0,0-17.15-3.43c-10.29,3.43-6.86,20.58-6.86,20.58s-10.29-10.29-27.44,6.86c-5.75,5.75-8,11.49-8.51,16.59a14,14,0,0,0-4.1,2.11c-26.25-14.24-30.39,16.08-30.39,16.08s-14.11-14.2-26.29,1.94,1.91,36.4,1.91,36.4-16.2,4-16.29,34.33,22.12,38.49,22.12,38.49-14.16,2-10.18,22.21S200.79,346,200.79,346a18.94,18.94,0,0,0-3.64.09c-12.42-14.94-40.57,15.42-40.57,15.42s.49-18.09-22.61-10.73S130.08,388,130.08,388s-15.41-12.78-27.9-.12S108,412.23,108,412.23s-28.13-11.31-39.15,14.06a26.47,26.47,0,0,0-2.44,11,33.85,33.85,0,0,0-9.85,15s-8.12-18.19-26.3-6-8.06,24.28-8.06,24.28S0,470.61,0,494.88s24.3,26.25,24.3,26.25l184.24-.24,0,.53H815.9S837.26,478.69,826.58,460Z"/>
    </g>
  </g>
</svg>
