<svg xmlns="http://www.w3.org/2000/svg" xmlns:xlink="http://www.w3.org/1999/xlink" width="1423.71" height="220.67" viewBox="0 0 1423.71 220.67">
  <defs>
    <style>
      .cls-1 {
        fill: url(#linear-gradient);
      }
    </style>
    <linearGradient id="linear-gradient" y1="110.33" x2="1423.71" y2="110.33" gradientUnits="userSpaceOnUse">
      <stop offset="0" stop-color="#c5d654"/>
      <stop offset="1" stop-color="#a4bd47"/>
    </linearGradient>
  </defs>
  <title>BgBush</title>
  <g id="Layer_2" data-name="Layer 2">
    <g id="Layer_1-2" data-name="Layer 1">
      <path class="cls-1" d="M1403.91,174.06s14.27-14-1.81-26.3c-8.37-6.38-17.88-5.65-25.08-3.48-1.64-16.77-20.4-14.94-20.4-14.94s4.61-3.66-.28-9.81-11.51,2.88-11.51,2.88,2.79-12.25-9.47-15c-9.93-2.27-17.19,12.29-19.58,17.89.62-2.61.24-7-7.88-9.84-10.44-3.6-22.05,3.08-25,5,2.36-1.69,9.56-8,8.83-22.18-.88-16.87-23.11-18-23.11-18s20.44-20,8.22-35.39S1236,59.74,1236,59.74s.66-18.09-22.51-10.94S1209.25,86,1209.25,86s-15.3-12.92-27.9-.38c-.35.34-.66.68-1,1-.11-.11-.2-.23-.31-.35-13.72-14-39.1,19-39.1,19s-1.18-18.06-23.5-8.61c-7.17,3-9.78,8-10,13.33a39.4,39.4,0,0,0-5.72,1.28s-10-8-33.57-7.22-28.59,17.62-28.59,17.62-18.82-23-35.42-21c-12.41,1.45-17.28,19.71-18.94,28.85A33.49,33.49,0,0,0,980,113.86c-13.35-21.36-26.7-13.35-26.7-13.35s8-48.07-13.35-50.74-21.36,16-21.36,16-32.05-29.38-50.74-10.69,8,50.74,8,50.74-21.36-8-32,5.34c-7,8.75-4.82,18.65-2.49,24.43A31.52,31.52,0,0,0,832,130.2c0-28.07-23.4-24.95-23.4-24.95-6.23-17.16-24.95-10.92-24.95-10.92s10.92-6.24,4.68-28.08-35.88-18.72-35.88-18.72-6.24-43.67-39-32.75-25,43.67-25,43.67-14-7.8-29.63-6.24-23.4,15.6-23.4,15.6-6.24-20.28-29.63-18.71-26.52,20.27-26.52,20.27c-10.92,4.68-15.6-4.68-15.6-4.68-1.56-9.36-20.27-17.16-34.31-3.12S531,97.45,531,97.45,518.53,92.77,513.85,99s0,12.48,0,12.48a15.63,15.63,0,0,0-6.24,1.55c-3.12,1.56-3.12,6.24-3.12,6.24s-14-17.15-26.51-14-10.92,14-10.92,14a13.68,13.68,0,0,0-14,7.8,10.77,10.77,0,0,0-.47,9.31c-21.6-3.73-30.75,10.77-30.75,10.77s-2-18.21-26.23-18.29a35.83,35.83,0,0,0-6,.49c-15.3-2.15-32.25,5.55-32.25,5.55s20.58-24,3.43-51.45-34.3-17.15-34.3-17.15S336.71,4.56,309.27,1.13s-27.44,20.59-27.44,20.59S240.66-16,216.65,8s10.29,65.18,10.29,65.18S199.5,62.88,185.78,80s0,37.73,0,37.73-10.29-6.86-20.58-3.43c-6.47,2.16-10.23,8.38-12.13,12.71a22,22,0,0,0-2.59-1.25A20,20,0,0,0,142,114.53c3.8-7.72,6.81-18.89-1.43-27.13-13.88-13.89-38.87,19.43-38.87,19.43s-1.39-18-23.6-8.33c-11.73,5.14-11.07,15.31-7.83,23.77a16.6,16.6,0,0,0-1.14,9.21A17.23,17.23,0,0,0,52,128.05c-10.29,3.43-6.86,20.58-6.86,20.58s-10.29-10.29-27.44,6.86-3.43,34.31-3.43,34.31c-27.44,24-6.86,30.87-6.86,30.87H395s.14-.28.38-.8l7,0a21.19,21.19,0,0,0,2.27.77h602s.06-.11.15-.31l263.29.31a29.66,29.66,0,0,0,7.5-1.1l138,1.1c12.18-6,4.18-16.15,4.18-16.15C1434.21,178.35,1403.91,174.06,1403.91,174.06Zm-220.69-65.21c.16-.46.33-.92.48-1.39a28.47,28.47,0,0,0,3.26,2.59A34.35,34.35,0,0,0,1183.22,108.85Z"/>
    </g>
  </g>
</svg>
