<svg xmlns="http://www.w3.org/2000/svg" xmlns:xlink="http://www.w3.org/1999/xlink" width="829.573" height="521.417" viewBox="0 0 829.573 521.417">
  <defs>
    <linearGradient id="a" y1="260.708" x2="829.573" y2="260.708" gradientUnits="userSpaceOnUse">
      <stop offset="0" stop-color="#c5d654"/>
      <stop offset="1" stop-color="#a4bd47"/>
    </linearGradient>
  </defs>
  <title>BgBush_4</title>
  <path d="M826.583,460c-10.681-18.691-40.054-5.34-40.054-5.34s16.022-18.691,2.67-40.053-26.7-13.351-26.7-13.351,8.011-48.064-13.351-50.735c-13.133-1.641-18.186,4.789-20.135,9.988-9.387-8.606-28-11.108-28-11.108s9.732-4.132,6.985-12.471c-2.483-7.534-9.532-4.885-10.87-4.3,1.148-.557,6.284-3.548,2.593-11-4.136-8.344-15.256-4.218-15.256-4.218s5.576-6.922,6.984-12.47-6.9-11.129-6.9-11.129,19.445-2.71,19.521-24.922-29.057-27.865-29.057-27.865,6.956-4.141,4.223-16.644-26.348-8.421-26.348-8.421,9.765-13.848-8.248-23.629c-.463-.251-.912-.475-1.358-.693,5.385-17.013,9.213-37.522,2.158-49.868-13.721-24.011-51.453-6.861-51.453-6.861s20.581-24.011,3.43-51.453-34.3-17.151-34.3-17.151S573.4,4.564,545.957,1.134s-27.442,20.581-27.442,20.581S477.353-16.017,453.341,7.994s10.291,65.175,10.291,65.175-27.442-10.291-41.163,6.86,0,37.733,0,37.733-10.29-6.861-20.581-3.431-13.721,17.152-13.721,17.152,0-20.582-24.012-20.582c-19.079,0-22.995,8.657-23.8,12.216.047-2.856-1.735-8.786-17.363-8.786-20.581,0-17.151,17.152-17.151,17.152a17.232,17.232,0,0,0-17.151-3.431c-10.291,3.431-6.86,20.582-6.86,20.582s-10.291-10.291-27.442,6.86c-5.745,5.746-8.017,11.487-8.51,16.588a14.1,14.1,0,0,0-4.1,2.105c-26.244-14.239-30.385,16.081-30.385,16.081s-14.11-14.2-26.295,1.939,1.907,36.407,1.907,36.407-16.191,3.993-16.286,34.326,22.122,38.492,22.122,38.492-14.162,1.977-10.181,22.212,18.129,22.3,18.129,22.3a19.5,19.5,0,0,0-3.639.094c-12.422-14.943-40.57,15.422-40.57,15.422s.493-18.094-22.608-10.734-3.89,37.28-3.89,37.28-15.416-12.775-27.9-.12,5.835,24.337,5.835,24.337-28.131-11.31-39.153,14.06a26.535,26.535,0,0,0-2.439,11.006,33.83,33.83,0,0,0-9.855,15.044s-8.113-18.189-26.3-6.032-8.057,24.277-8.057,24.277-22.244.03-22.213,24.3,24.3,26.257,24.3,26.257l184.237-.242-.04.525H815.9S837.264,478.693,826.583,460Z" fill="url(#a)"/>
</svg>
