<svg xmlns="http://www.w3.org/2000/svg" xmlns:xlink="http://www.w3.org/1999/xlink" width="1867.4" height="339.77" viewBox="0 0 1867.4 339.77">
  <defs>
    <style>
      .cls-1 {
        fill: url(#linear-gradient);
      }
    </style>
    <linearGradient id="linear-gradient" y1="169.88" x2="1867.4" y2="169.88" gradientUnits="userSpaceOnUse">
      <stop offset="0" stop-color="#c5d654"/>
      <stop offset="1" stop-color="#a4bd47"/>
    </linearGradient>
  </defs>
  <title>BgBush_1</title>
  <g id="Layer_2" data-name="Layer 2">
    <g id="Layer_1-2" data-name="Layer 1">
      <path class="cls-1" d="M1847.51,293.22s14.2-14.11-1.94-26.3-36.4,1.91-36.4,1.91-4-16.19-34.33-16.29-38.49,22.13-38.49,22.13-2-14.16-22.21-10.18-22.31,18.13-22.31,18.13,2.09-20.22-22.16-26.36-34.41,10-34.41,10-2-18.21-26.23-18.29a33.22,33.22,0,0,0-11.29,1.84,25.89,25.89,0,0,0-10.11-1.37s4.61-3.66-.28-9.81-11.51,2.89-11.51,2.89,2.79-12.26-9.47-15.05c-9.93-2.27-17.19,12.29-19.58,17.89.62-2.61.24-7-7.88-9.84-10.45-3.6-22.05,3.08-25,5,2.36-1.69,9.56-8.05,8.82-22.18-.87-16.87-23.1-18-23.1-18s20.44-20,8.22-35.39S1467,178.84,1467,178.84s.66-18.09-22.51-10.94c-9.3,2.87-11.81,9.43-11.49,16.26-5.4-8.95-18.14-7.71-18.14-7.71s4.61-3.67-.28-9.81-11.51,2.88-11.51,2.88,2.8-12.26-9.46-15.05c-9.94-2.26-17.19,12.3-19.59,17.9.63-2.62.24-7.05-7.87-9.85-10.45-3.6-22.06,3.08-25,5,2.36-1.69,9.56-8.05,8.83-22.18-.88-16.86-23.1-18-23.1-18s20.44-20,8.21-35.4-40.82,14.92-40.82,14.92.66-18.09-22.5-10.94-4.24,37.24-4.24,37.24-15.3-12.91-27.9-.37,5.61,24.39,5.61,24.39-15.56-6.42-28.15.76a32.9,32.9,0,0,0-.23-8.88c-2.58-16.69-24.81-15.56-24.81-15.56s18.31-22,4.59-36-39.1,19-39.1,19-1.17-18.07-23.5-8.61c-7.17,3-9.78,8-10,13.33a39.4,39.4,0,0,0-5.72,1.28s-10-8-33.58-7.22-28.58,17.62-28.58,17.62-10-12.24-21.9-18.1a20.13,20.13,0,0,0-1.82-4.36c-5.7-10-16.72-10.82-25.76-9.44a38.16,38.16,0,0,0-9.83-3.14c3.48-7.37,6.48-19.58-1.79-32.81-13.35-21.36-26.7-13.35-26.7-13.35S976.32,3.55,955,.88s-21.36,16-21.36,16S901.55-12.47,882.86,6.22s8,50.74,8,50.74-21.36-8-32,5.34,0,29.37,0,29.37-8-5.34-16-2.67c-5.12,1.71-8.06,6.68-9.51,10l-1.57.28c-1-4.64-4.79-13-18.29-13-14.86,0-17.91,6.74-18.53,9.51,0-2.22-1.35-6.84-13.52-6.84-16,0-13.35,13.35-13.35,13.35a13.41,13.41,0,0,0-13.35-2.67c-8,2.67-5.34,16-5.34,16s-8-8-21.36,5.34-2.67,26.7-2.67,26.7a53.12,53.12,0,0,0-7.44,7.76,15.36,15.36,0,0,0-8.9-.7c-12.47,3.12-10.91,14-10.91,14a13.68,13.68,0,0,0-14,7.8c-4.68,9.36,4.68,15.6,4.68,15.6-1.47,2.94,1.22,10,1.53,10.83-.24-.58-2.11-4.48-9.33-3-7.8,1.56-7.8,6.23-7.8,6.23a11.85,11.85,0,0,0-14-4.67c-9.36,3.11-6.24,12.47-6.24,12.47s-3.12-4.68-10.91,1.56S645,232.79,645,232.79s-21.83-4.68-24.95,14c-.09.53-.15,1-.21,1.54C604.75,246.55,588.3,254,588.3,254s20.58-24,3.43-51.45-34.3-17.15-34.3-17.15,10.29-61.75-17.15-65.18-27.44,20.59-27.44,20.59-41.17-37.74-65.18-13.73S458,192.27,458,192.27s-27.44-10.29-41.16,6.86,0,37.73,0,37.73-10.29-6.86-20.58-3.43a16,16,0,0,0-5.74,3.44A20,20,0,0,0,383,232.4s12.49,0,9.72-18.05-22.22-13.88-22.22-13.88,4.17-4.17-1.38-9.72S358,194.91,358,194.91s1.39-12.49-11.11-13.88c-10.12-1.12-15.69,14.16-17.43,20,.32-2.67-.56-7-8.94-8.89-10.79-2.4-21.57,5.54-24.31,7.76,2.15-2,8.59-9.08,6.26-23-2.78-16.66-25-15.27-25-15.27s18.05-22.22,4.17-36.1-38.87,19.44-38.87,19.44-1.39-18-23.6-8.33,0,37.48,0,37.48-16.66-11.11-27.77,2.78,8.33,23.6,8.33,23.6-29.15-8.33-37.48,18c-3,9.64-.9,16.49,3.05,21.32a78.72,78.72,0,0,0-4.93,17.86s-4.13-9.73-12.47-7c-7.53,2.48-4.89,9.53-4.3,10.87-.56-1.15-3.55-6.29-11-2.59-8.34,4.13-4.22,15.25-4.22,15.25s-6.92-5.57-12.47-7-11.13,6.9-11.13,6.9S102,254.72,79.83,254.64,52,283.7,52,283.7s-4.14-7-16.65-4.23-8.42,26.35-8.42,26.35-13.85-9.76-23.63,8.25,5.47,23.62,5.47,23.62,136.87,3.68,227.88,1.24a12.27,12.27,0,0,0,1.8.84H626l.39-.8,7,0a21.19,21.19,0,0,0,2.27.77h439.85l.48-.5,425.13.5a29.66,29.66,0,0,0,7.5-1.1l138,1.1c.45-.22.86-.44,1.25-.67l211.57.67c12.15-6,4.1-16.17,4.1-16.17C1877.83,297.36,1847.51,293.22,1847.51,293.22Z"/>
    </g>
  </g>
</svg>
