<svg xmlns="http://www.w3.org/2000/svg" xmlns:xlink="http://www.w3.org/1999/xlink" width="1244.515" height="385.448" viewBox="0 0 1244.515 385.448">
  <defs>
    <linearGradient id="a" y1="192.724" x2="1244.515" y2="192.724" gradientUnits="userSpaceOnUse">
      <stop offset="0" stop-color="#c5d654"/>
      <stop offset="1" stop-color="#a4bd47"/>
    </linearGradient>
  </defs>
  <title>BgBush_6</title>
  <path d="M1244.515,327.547c.066-19.435-16.588-20.881-16.588-20.881.916-19.5-11.176-23.507-20.723-23.67a20.943,20.943,0,0,0-3.557-2.652s12.2,2.676,13.359-15.547-18.722-18.319-18.722-18.319,4.96-3.175.725-9.789-11.74,1.689-11.74,1.689,4.033-11.907-7.874-15.94c-9.649-3.268-18.36,10.469-21.317,15.8.89-2.538.96-6.984-6.827-10.6-10.022-4.652-22.252.8-25.411,2.376,2.52-1.442,10.337-7.03,11.055-21.159.856-16.867-21.137-20.269-21.137-20.269s22.386-17.83,11.8-34.364-42.133,10.656-42.133,10.656,2.51-17.925-21.267-13.192c-7.643,1.522-11.2,5.849-12.51,11.02a39.462,39.462,0,0,0-5.856.1s-8.159-9.861-31.415-13.876-31.562,11.458-31.562,11.458-13.77-26.326-30.422-27.792-26.188,29.29-26.188,29.29-2.451-10.285-11.131-8.966c-7.842,1.192-6.407,8.583-6.056,10-.359-1.226-2.452-6.787-10.409-4.389-8.916,2.687-6.7,14.34-6.7,14.34s-5.9-6.653-11.132-8.966-12.125,4.951-12.125,4.951.57-19.624-21.318-23.4-32.319,24.006-32.319,24.006-2.172-5.587-10.924-6.756a35,35,0,0,0-9.336-8.088c15.6-28.076-12.478-37.434-12.478-37.434,0-28.076-23.4-24.957-23.4-24.957C752.642,75.061,733.925,81.3,733.925,81.3s10.918-6.239,4.679-28.075S702.73,34.507,702.73,34.507,696.491-9.166,663.736,1.752,638.78,45.426,638.78,45.426s-14.038-7.8-29.636-6.24-23.4,15.6-23.4,15.6-6.238-20.277-29.635-18.717S529.6,56.344,529.6,56.344c-10.918,4.679-15.6-4.68-15.6-4.68-1.56-9.358-20.277-17.157-34.315-3.119s1.56,35.874,1.56,35.874-12.478-4.679-17.158,1.56,0,12.478,0,12.478a15.536,15.536,0,0,0-6.238,1.56c-3.12,1.56-3.12,6.239-3.12,6.239S440.69,89.1,428.212,92.218s-10.918,14.038-10.918,14.038a13.679,13.679,0,0,0-14.038,7.8c-4.679,9.358,4.679,15.6,4.679,15.6-1.471,2.944,1.219,10.043,1.528,10.839-.238-.589-2.109-4.483-9.327-3.04-7.8,1.56-7.8,6.239-7.8,6.239a11.843,11.843,0,0,0-14.037-4.679c-9.359,3.12-6.24,12.478-6.24,12.478s-3.119-4.679-10.918,1.56,3.12,17.157,3.12,17.157a30.286,30.286,0,0,0-13.473.545c-13.669-1.285-33.019,19.2-33.019,19.2s.66-18.089-22.508-10.943-4.235,37.243-4.235,37.243-15.3-12.917-27.9-.378,5.61,24.39,5.61,24.39-28.025-11.57-39.281,13.7a26.53,26.53,0,0,0-2.541,10.983,33.838,33.838,0,0,0-9.995,14.952s-7.944-18.263-26.239-6.275-8.282,24.2-8.282,24.2-20.346-.145-22.277,21.09c-.142-.034-.275-.071-.422-.1-10.786-2.4-21.564,5.547-24.312,7.766,2.153-1.95,8.591-9.082,6.265-23.037-2.777-16.658-24.989-15.27-24.989-15.27s18.048-22.212,4.166-36.094-38.872,19.435-38.872,19.435-1.388-18.047-23.6-8.329,0,37.482,0,37.482S41.7,289.659,30.593,303.541s8.329,23.6,8.329,23.6-29.153-8.33-37.483,18.047,22.212,31.93,22.212,31.93c-5.552,4.164-1.388,8.329-1.388,8.329h1115.9l.018-.474c50.442-.933,91.056-3.413,95.059-8.877,11.158-15.232-5.457-27.784-5.457-27.784S1244.447,346.982,1244.515,327.547Z" fill="url(#a)"/>
</svg>
