<svg xmlns="http://www.w3.org/2000/svg" xmlns:xlink="http://www.w3.org/1999/xlink" width="655.08" height="496.88" viewBox="0 0 655.08 496.88">
  <defs>
    <style>
      .cls-1 {
        fill: url(#linear-gradient);
      }
    </style>
    <linearGradient id="linear-gradient" y1="248.44" x2="655.08" y2="248.44" gradientUnits="userSpaceOnUse">
      <stop offset="0" stop-color="#c5d654"/>
      <stop offset="1" stop-color="#a4bd47"/>
    </linearGradient>
  </defs>
  <title>BgBush_3</title>
  <g id="Layer_2" data-name="Layer 2">
    <g id="Layer_1-2" data-name="Layer 1">
      <path class="cls-1" d="M638.18,395.09s29.37-32,10.68-50.74-50.73,8-50.73,8,8-21.36-5.35-32-29.37,0-29.37,0,5.34-8,2.67-16-13.35-10.68-13.35-10.68,16,0,16-18.69c0-14.85-6.74-17.9-9.51-18.53,2.23,0,6.84-1.35,6.84-13.51,0-16-13.35-13.36-13.35-13.36a13.41,13.41,0,0,0,2.67-13.35c-2.67-8-16-5.34-16-5.34s8-8-5.34-21.36-26.7-2.67-26.7-2.67c-4.38-5-8-7.93-11-9.52,5.77-5.88,0-13.24,0-13.24,14.36-26.17-15.94-30.46-15.94-30.46s14.27-14-1.81-26.3c-8.37-6.38-17.88-5.65-25.08-3.49-1.64-16.76-20.4-14.93-20.4-14.93s4.6-3.67-.29-9.81-11.5,2.88-11.5,2.88,2.79-12.26-9.47-15c-9.93-2.26-17.19,12.3-19.58,17.9.62-2.61.24-7-7.88-9.84-10.45-3.6-22.05,3.07-25,5,2.36-1.7,9.56-8.06,8.82-22.18-.87-16.87-23.1-18-23.1-18s20.44-20,8.22-35.39-40.82,14.92-40.82,14.92.66-18.09-22.51-10.95-4.23,37.25-4.23,37.25-15.3-12.92-27.9-.38,5.61,24.39,5.61,24.39-28-11.57-39.29,13.7a26.59,26.59,0,0,0-2.54,11,33.85,33.85,0,0,0-10,14.95s-8-18.26-26.24-6.27-8.28,24.2-8.28,24.2-22.25-.18-22.44,24.09c0,.15,0,.29,0,.43-17.84-3.21-21,19.49-21,19.49s-14-14.27-26.3,1.81c-6.38,8.37-5.65,17.88-3.49,25.08-16.76,1.64-14.93,20.4-14.93,20.4s-3.67-4.61-9.81.28,2.88,11.51,2.88,11.51-12.26-2.79-15,9.46c-2.26,9.94,12.3,17.19,17.9,19.59-2.61-.63-7-.24-9.84,7.88-3.6,10.44,3.07,22,5,25-1.7-2.36-8.06-9.56-22.18-8.83-16.87.88-18,23.11-18,23.11s-20-20.44-35.39-8.22,14.92,40.82,14.92,40.82-18.09-.66-10.95,22.51,37.25,4.23,37.25,4.23-12.92,15.3-.38,27.9,24.39-5.61,24.39-5.61-11.57,28,13.7,39.28a26.43,26.43,0,0,0,11,2.54,33.82,33.82,0,0,0,14.95,10s-18.26,7.94-6.27,26.24,24.2,8.28,24.2,8.28-.18,22.24,24.09,22.44H530.47c5.39.08,10.35-.75,14.25-3,18.69-10.68,5.34-40.06,5.34-40.06s18.69,16,40.05,2.67,13.36-26.7,13.36-26.7,48.06,8,50.73-13.35S638.18,395.09,638.18,395.09Z"/>
    </g>
  </g>
</svg>
