<svg xmlns="http://www.w3.org/2000/svg" xmlns:xlink="http://www.w3.org/1999/xlink" width="655.083" height="496.876" viewBox="0 0 655.083 496.876">
  <defs>
    <linearGradient id="a" y1="248.438" x2="655.083" y2="248.438" gradientUnits="userSpaceOnUse">
      <stop offset="0" stop-color="#c5d654"/>
      <stop offset="1" stop-color="#a4bd47"/>
    </linearGradient>
  </defs>
  <title>BgBush_3</title>
  <path d="M638.179,395.089s29.372-32.043,10.681-50.735-50.735,8.011-50.735,8.011,8.011-21.362-5.34-32.043-29.373,0-29.373,0,5.341-8.01,2.671-16.021-13.352-10.681-13.352-10.681,16.022,0,16.022-18.692c0-14.852-6.739-17.9-9.51-18.526,2.224.036,6.84-1.351,6.84-13.516,0-16.022-13.352-13.352-13.352-13.352a13.414,13.414,0,0,0,2.671-13.351c-2.671-8.01-16.022-5.34-16.022-5.34s8.011-8.011-5.34-21.362-26.7-2.67-26.7-2.67c-4.375-5-8.01-7.933-11.025-9.522,5.771-5.875-.017-13.238-.017-13.238,14.363-26.175-15.937-30.461-15.937-30.461s14.267-14.042-1.813-26.3c-8.365-6.378-17.874-5.648-25.08-3.483-1.639-16.766-20.4-14.932-20.4-14.932s4.609-3.667-.281-9.812-11.506,2.884-11.506,2.884,2.791-12.258-9.466-15.049c-9.934-2.262-17.191,12.3-19.586,17.9.625-2.616.24-7.045-7.877-9.842-10.445-3.6-22.052,3.075-25.033,4.968,2.359-1.693,9.561-8.053,8.827-22.18-.877-16.866-23.1-18-23.1-18s20.441-20.031,8.216-35.393-40.818,14.919-40.818,14.919.66-18.088-22.508-10.942S285.7,45.568,285.7,45.568s-15.3-12.917-27.9-.379,5.609,24.39,5.609,24.39-28.025-11.57-39.281,13.7a26.537,26.537,0,0,0-2.541,10.983,33.831,33.831,0,0,0-9.994,14.953s-7.945-18.264-26.24-6.275-8.282,24.2-8.282,24.2-22.243-.176-22.436,24.09c0,.15.01.288.01.436-17.837-3.21-21.051,19.484-21.051,19.484s-14.043-14.267-26.3,1.814c-6.378,8.364-5.648,17.874-3.483,25.08-16.766,1.638-14.932,20.4-14.932,20.4s-3.667-4.609-9.812.281,2.883,11.5,2.883,11.5-12.257-2.791-15.048,9.466c-2.262,9.934,12.295,17.191,17.9,19.586-2.615-.625-7.045-.239-9.842,7.877-3.6,10.446,3.074,22.053,4.968,25.034-1.694-2.359-8.053-9.562-22.18-8.828-16.866.877-18,23.1-18,23.1s-20.031-20.44-35.393-8.215,14.919,40.818,14.919,40.818-18.088-.661-10.943,22.507,37.243,4.235,37.243,4.235-12.917,15.3-.378,27.9,24.39-5.61,24.39-5.61-11.57,28.026,13.7,39.282a26.55,26.55,0,0,0,10.983,2.54,33.844,33.844,0,0,0,14.953,10s-18.264,7.944-6.275,26.24,24.2,8.281,24.2,8.281-.176,22.244,24.09,22.436h379.24v-.007c5.394.078,10.349-.751,14.254-2.982,18.691-10.681,5.34-40.053,5.34-40.053s18.692,16.021,40.054,2.67,13.351-26.7,13.351-26.7,48.064,8.011,50.734-13.351S638.179,395.089,638.179,395.089Z" fill="url(#a)"/>
</svg>
