<svg xmlns="http://www.w3.org/2000/svg" xmlns:xlink="http://www.w3.org/1999/xlink" width="153.23" height="115.6" viewBox="0 0 153.23 115.6">
  <defs>
    <style>
      .cls-1 {
        fill: url(#linear-gradient);
      }

      .cls-2 {
        fill: url(#linear-gradient-2);
      }

      .cls-3 {
        fill: url(#linear-gradient-3);
      }

      .cls-4 {
        fill: url(#linear-gradient-4);
      }

      .cls-5 {
        fill: url(#linear-gradient-5);
      }

      .cls-6 {
        fill: url(#linear-gradient-6);
      }
    </style>
    <linearGradient id="linear-gradient" x1="85.96" y1="63.89" x2="78.96" y2="114.65" gradientUnits="userSpaceOnUse">
      <stop offset="0" stop-color="#c5d654"/>
      <stop offset="1" stop-color="#a4bd47"/>
    </linearGradient>
    <linearGradient id="linear-gradient-2" x1="96.47" y1="65.34" x2="89.48" y2="116.09" xlink:href="#linear-gradient"/>
    <linearGradient id="linear-gradient-3" x1="101.95" y1="66.1" x2="94.96" y2="116.85" xlink:href="#linear-gradient"/>
    <linearGradient id="linear-gradient-4" x1="128.06" y1="69.69" x2="121.07" y2="120.45" xlink:href="#linear-gradient"/>
    <linearGradient id="linear-gradient-5" x1="60.28" y1="60.35" x2="53.28" y2="111.11" xlink:href="#linear-gradient"/>
    <linearGradient id="linear-gradient-6" x1="32.69" y1="56.55" x2="25.7" y2="107.31" xlink:href="#linear-gradient"/>
  </defs>
  <title>BigLeaves_1</title>
  <g id="Layer_2" data-name="Layer 2">
    <g id="Layer_1-2" data-name="Layer 1">
      <g>
        <g>
          <path class="cls-1" d="M90.31,47.24S74,70.55,74,115.6h6.21S77.1,79.87,93.42,50.35L95,45.69Z"/>
          <path class="cls-2" d="M72.44,55.79l18.65-5.44,14,14.76s16.31,0,21.75-15.54S122.16,4.51,140,1.41c0,0-47.39-7.77-65.26,13.2S71.66,54.23,72.44,55.79Z"/>
        </g>
        <g>
          <path class="cls-3" d="M106.62,78.31S80.21,79.87,80.21,115.6H74.77s1.56-42.72,32.63-40.39S106.62,78.31,106.62,78.31Z"/>
          <path class="cls-4" d="M105.85,76.76,101.18,69s8.55-13.2,28.75-9.32S153.23,90,153.23,90s-19.42,14.76-38.06,10.87S97.3,90,97.3,90Z"/>
        </g>
        <g>
          <path class="cls-5" d="M43.5,81.42S73,87.64,79.24,115.6H73.8S70.69,97.74,43.5,83.75,43.5,81.42,43.5,81.42Z"/>
          <path class="cls-6" d="M45.06,83,53.6,95.41s-1.55,3.1-17.09,4.66S18.64,93.85,0,93.85c0,0,8.55-29.52,27.19-32.63s28,8.55,29.52,21Z"/>
        </g>
      </g>
    </g>
  </g>
</svg>
