<svg xmlns="http://www.w3.org/2000/svg" xmlns:xlink="http://www.w3.org/1999/xlink" width="123.52" height="115.6" viewBox="0 0 123.52 115.6">
  <defs>
    <style>
      .cls-1 {
        fill: url(#linear-gradient);
      }

      .cls-2 {
        fill: url(#linear-gradient-2);
      }

      .cls-3 {
        fill: url(#linear-gradient-3);
      }

      .cls-4 {
        fill: url(#linear-gradient-4);
      }

      .cls-5 {
        fill: url(#linear-gradient-5);
      }

      .cls-6 {
        fill: url(#linear-gradient-6);
      }
    </style>
    <linearGradient id="linear-gradient" x1="54.17" y1="71.25" x2="47.57" y2="104.66" gradientUnits="userSpaceOnUse">
      <stop offset="0" stop-color="#c5d654"/>
      <stop offset="1" stop-color="#a4bd47"/>
    </linearGradient>
    <linearGradient id="linear-gradient-2" x1="61.59" y1="72.72" x2="54.98" y2="106.12" xlink:href="#linear-gradient"/>
    <linearGradient id="linear-gradient-3" x1="49.18" y1="111.42" x2="82.98" y2="68.69" xlink:href="#linear-gradient"/>
    <linearGradient id="linear-gradient-4" x1="63.35" y1="122.62" x2="97.15" y2="79.9" xlink:href="#linear-gradient"/>
    <linearGradient id="linear-gradient-5" x1="43.24" y1="108.65" x2="35.86" y2="67.48" xlink:href="#linear-gradient"/>
    <linearGradient id="linear-gradient-6" x1="35.39" y1="110.06" x2="28.01" y2="68.89" xlink:href="#linear-gradient"/>
  </defs>
  <title>BigLeaves</title>
  <g id="Layer_2" data-name="Layer 2">
    <g id="Layer_1-2" data-name="Layer 1">
      <g>
        <g>
          <path class="cls-1" d="M59.82,47.24S43.5,70.55,43.5,115.6h6.22s-3.11-35.73,13.2-65.25l1.56-4.66Z"/>
          <path class="cls-2" d="M42,55.79l18.64-5.44,14,14.76s16.31,0,21.75-15.54S91.67,4.51,109.53,1.41c0,0-47.38-7.77-65.25,13.2S41.17,54.23,42,55.79Z"/>
        </g>
        <g>
          <path class="cls-3" d="M76.91,78.31S50.5,79.87,50.5,115.6H45.06s1.55-42.72,32.63-40.39S76.91,78.31,76.91,78.31Z"/>
          <path class="cls-4" d="M76.13,76.76,71.47,69s8.55-13.2,28.74-9.32S123.52,90,123.52,90s-19.42,14.76-38.07,10.87S67.59,90,67.59,90Z"/>
        </g>
        <g>
          <path class="cls-5" d="M32.63,72.88s8.54,11.65,8.54,42.72h7S47.39,83,36.51,69.77,32.63,72.88,32.63,72.88Z"/>
          <path class="cls-6" d="M36.51,73.65,52.05,72.1S53.6,58.89,38.84,51.9,0,46.46,0,46.46s10.1,3.11,10.88,19.43S28,85.31,28,85.31Z"/>
        </g>
      </g>
    </g>
  </g>
</svg>
