<svg xmlns="http://www.w3.org/2000/svg" xmlns:xlink="http://www.w3.org/1999/xlink" width="153.234" height="115.604" viewBox="0 0 153.234 115.604">
  <defs>
    <linearGradient id="a" x1="85.956" y1="63.892" x2="78.964" y2="114.646" gradientUnits="userSpaceOnUse">
      <stop offset="0" stop-color="#c5d654"/>
      <stop offset="1" stop-color="#a4bd47"/>
    </linearGradient>
    <linearGradient id="b" x1="96.467" y1="65.34" x2="89.475" y2="116.094" xlink:href="#a"/>
    <linearGradient id="c" x1="101.954" y1="66.095" x2="94.962" y2="116.85" xlink:href="#a"/>
    <linearGradient id="d" x1="128.06" y1="69.692" x2="121.069" y2="120.446" xlink:href="#a"/>
    <linearGradient id="e" x1="60.276" y1="60.354" x2="53.285" y2="111.108" xlink:href="#a"/>
    <linearGradient id="f" x1="32.69" y1="56.554" x2="25.699" y2="107.308" xlink:href="#a"/>
  </defs>
  <title>BigLeaves_1</title>
  <g>
    <g>
      <path d="M90.309,47.241S74,70.546,74,115.6H80.21S77.1,79.869,93.416,50.348l1.554-4.661Z" fill="url(#a)"/>
      <path d="M72.441,55.786l18.645-5.438,13.983,14.761s16.314,0,21.752-15.538S122.16,4.514,140.027,1.407c0,0-47.387-7.769-65.255,13.206S71.665,54.233,72.441,55.786Z" fill="url(#b)"/>
    </g>
    <g>
      <path d="M106.623,78.315S80.21,79.869,80.21,115.6H74.772s1.554-42.727,32.628-40.4S106.623,78.315,106.623,78.315Z" fill="url(#c)"/>
      <path d="M105.846,76.761l-4.661-7.768s8.545-13.207,28.743-9.322,23.306,30.3,23.306,30.3-19.421,14.76-38.066,10.876S97.3,89.968,97.3,89.968Z" fill="url(#d)"/>
    </g>
    <g>
      <path d="M43.5,81.422s29.52,6.215,35.735,34.182H73.8S70.693,97.736,43.5,83.753,43.5,81.422,43.5,81.422Z" fill="url(#e)"/>
      <path d="M45.057,82.976,53.6,95.406s-1.554,3.107-17.091,4.661S18.644,93.852,0,93.852c0,0,8.545-29.52,27.19-32.628S55.156,69.77,56.71,82.2Z" fill="url(#f)"/>
    </g>
  </g>
</svg>
