<svg xmlns="http://www.w3.org/2000/svg" xmlns:xlink="http://www.w3.org/1999/xlink" width="180.23" height="115.6" viewBox="0 0 180.23 115.6">
  <defs>
    <style>
      .cls-1 {
        fill: url(#linear-gradient);
      }

      .cls-2 {
        fill: url(#linear-gradient-2);
      }

      .cls-3 {
        fill: url(#linear-gradient-3);
      }

      .cls-4 {
        fill: url(#linear-gradient-4);
      }

      .cls-5 {
        fill: url(#linear-gradient-5);
      }

      .cls-6 {
        fill: url(#linear-gradient-6);
      }

      .cls-7 {
        fill: url(#linear-gradient-7);
      }

      .cls-8 {
        fill: url(#linear-gradient-8);
      }
    </style>
    <linearGradient id="linear-gradient" x1="122.07" y1="32.74" x2="97.99" y2="96.44" gradientUnits="userSpaceOnUse">
      <stop offset="0" stop-color="#c5d654"/>
      <stop offset="1" stop-color="#a4bd47"/>
    </linearGradient>
    <linearGradient id="linear-gradient-2" x1="118.94" y1="31.55" x2="94.86" y2="95.25" xlink:href="#linear-gradient"/>
    <linearGradient id="linear-gradient-3" x1="141.95" y1="71.63" x2="108.16" y2="101.15" xlink:href="#linear-gradient"/>
    <linearGradient id="linear-gradient-4" x1="150.97" y1="81.96" x2="117.18" y2="111.48" xlink:href="#linear-gradient"/>
    <linearGradient id="linear-gradient-5" x1="75.76" y1="60.41" x2="88.77" y2="115.37" xlink:href="#linear-gradient"/>
    <linearGradient id="linear-gradient-6" x1="69.76" y1="61.83" x2="82.77" y2="116.79" xlink:href="#linear-gradient"/>
    <linearGradient id="linear-gradient-7" x1="26.02" y1="73.57" x2="63.31" y2="99.6" xlink:href="#linear-gradient"/>
    <linearGradient id="linear-gradient-8" x1="22.49" y1="78.64" x2="59.78" y2="104.66" xlink:href="#linear-gradient"/>
  </defs>
  <title>BigLeaves_2</title>
  <g id="Layer_2" data-name="Layer 2">
    <g id="Layer_1-2" data-name="Layer 1">
      <g>
        <g>
          <path class="cls-1" d="M109.54,47.24S93.22,70.55,93.22,115.6h6.22s-3.11-35.73,13.2-65.25l1.56-4.66Z"/>
          <path class="cls-2" d="M91.67,55.79l18.64-5.44,14,14.76s16.31,0,21.75-15.54-4.66-45.06,13.2-48.16c0,0-47.38-7.77-65.25,13.2S90.89,54.23,91.67,55.79Z"/>
        </g>
        <g>
          <path class="cls-3" d="M133.62,78.31s-26.41,1.56-26.41,37.29h-5.44s1.55-42.72,32.63-40.39S133.62,78.31,133.62,78.31Z"/>
          <path class="cls-4" d="M132.84,76.76,128.18,69s8.55-13.2,28.74-9.32S180.23,90,180.23,90s-19.42,14.76-38.07,10.87S124.3,90,124.3,90Z"/>
        </g>
        <g>
          <path class="cls-5" d="M75.35,72.88S83.9,84.53,83.9,115.6h7S90.11,83,79.24,69.77,75.35,72.88,75.35,72.88Z"/>
          <path class="cls-6" d="M79.24,73.65,94.78,72.1s1.55-13.21-13.21-20.2-38.84-5.44-38.84-5.44,10.1,3.11,10.87,19.43S70.69,85.31,70.69,85.31Z"/>
        </g>
        <g>
          <path class="cls-7" d="M43.5,81.42S73,87.64,79.24,115.6H73.8S70.69,97.74,43.5,83.75,43.5,81.42,43.5,81.42Z"/>
          <path class="cls-8" d="M45.06,83,53.6,95.41s-1.55,3.1-17.09,4.66S18.64,93.85,0,93.85c0,0,8.55-29.52,27.19-32.63s28,8.55,29.52,21Z"/>
        </g>
      </g>
    </g>
  </g>
</svg>
