<svg xmlns="http://www.w3.org/2000/svg" xmlns:xlink="http://www.w3.org/1999/xlink" width="123.519" height="115.604" viewBox="0 0 123.519 115.604">
  <defs>
    <linearGradient id="a" x1="54.174" y1="71.253" x2="47.571" y2="104.658" gradientUnits="userSpaceOnUse">
      <stop offset="0" stop-color="#c5d654"/>
      <stop offset="1" stop-color="#a4bd47"/>
    </linearGradient>
    <linearGradient id="b" x1="61.588" y1="72.718" x2="54.984" y2="106.123" xlink:href="#a"/>
    <linearGradient id="c" x1="49.184" y1="111.415" x2="82.977" y2="68.688" xlink:href="#a"/>
    <linearGradient id="d" x1="63.354" y1="122.623" x2="97.147" y2="79.896" xlink:href="#a"/>
    <linearGradient id="e" x1="43.244" y1="108.655" x2="35.864" y2="67.481" xlink:href="#a"/>
    <linearGradient id="f" x1="35.391" y1="110.062" x2="28.011" y2="68.889" xlink:href="#a"/>
  </defs>
  <title>BigLeaves</title>
  <g>
    <g>
      <path d="M59.815,47.241S43.5,70.546,43.5,115.6h6.215S46.609,79.869,62.923,50.348l1.553-4.661Z" fill="url(#a)"/>
      <path d="M41.948,55.786l18.644-5.438L74.575,65.109s16.314,0,21.752-15.538S91.666,4.514,109.534,1.407c0,0-47.388-7.769-65.256,13.206S41.171,54.233,41.948,55.786Z" fill="url(#b)"/>
    </g>
    <g>
      <path d="M76.908,78.315S50.5,79.869,50.5,115.6H45.057s1.554-42.727,32.628-40.4S76.908,78.315,76.908,78.315Z" fill="url(#c)"/>
      <path d="M76.131,76.761,71.47,68.993s8.546-13.207,28.744-9.322,23.305,30.3,23.305,30.3-19.421,14.76-38.065,10.876S67.586,89.968,67.586,89.968Z" fill="url(#d)"/>
    </g>
    <g>
      <path d="M32.628,72.877S41.173,84.53,41.173,115.6h6.992S47.388,82.976,36.512,69.77,32.628,72.877,32.628,72.877Z" fill="url(#e)"/>
      <path d="M36.512,73.654,52.049,72.1S53.6,58.894,38.843,51.9,0,46.464,0,46.464s10.1,3.107,10.876,19.421S27.967,85.307,27.967,85.307Z" fill="url(#f)"/>
    </g>
  </g>
</svg>
