<svg xmlns="http://www.w3.org/2000/svg" xmlns:xlink="http://www.w3.org/1999/xlink" width="180.23" height="115.604" viewBox="0 0 180.23 115.604">
  <defs>
    <linearGradient id="a" x1="122.07" y1="32.736" x2="97.987" y2="96.437" gradientUnits="userSpaceOnUse">
      <stop offset="0" stop-color="#c5d654"/>
      <stop offset="1" stop-color="#a4bd47"/>
    </linearGradient>
    <linearGradient id="b" x1="118.939" y1="31.552" x2="94.856" y2="95.254" xlink:href="#a"/>
    <linearGradient id="c" x1="141.949" y1="71.633" x2="108.156" y2="101.153" xlink:href="#a"/>
    <linearGradient id="d" x1="150.97" y1="81.959" x2="117.177" y2="111.48" xlink:href="#a"/>
    <linearGradient id="e" x1="75.759" y1="60.406" x2="88.772" y2="115.368" xlink:href="#a"/>
    <linearGradient id="f" x1="69.76" y1="61.826" x2="82.772" y2="116.788" xlink:href="#a"/>
    <linearGradient id="g" x1="26.023" y1="73.572" x2="63.312" y2="99.596" xlink:href="#a"/>
    <linearGradient id="h" x1="22.488" y1="78.637" x2="59.777" y2="104.662" xlink:href="#a"/>
  </defs>
  <title>BigLeaves_2</title>
  <g>
    <g>
      <path d="M109.536,47.241S93.222,70.546,93.222,115.6h6.215S96.33,79.869,112.643,50.348l1.554-4.661Z" fill="url(#a)"/>
      <path d="M91.668,55.786l18.645-5.438L124.3,65.109s16.314,0,21.752-15.538S141.387,4.514,159.255,1.407c0,0-47.388-7.769-65.256,13.206S90.892,54.233,91.668,55.786Z" fill="url(#b)"/>
    </g>
    <g>
      <path d="M133.618,78.315s-26.412,1.554-26.412,37.289h-5.438s1.553-42.727,32.627-40.4S133.618,78.315,133.618,78.315Z" fill="url(#c)"/>
      <path d="M132.842,76.761l-4.662-7.768s8.546-13.207,28.744-9.322,23.306,30.3,23.306,30.3-19.422,14.76-38.066,10.876S124.3,89.968,124.3,89.968Z" fill="url(#d)"/>
    </g>
    <g>
      <path d="M75.355,72.877S83.9,84.53,83.9,115.6h6.992S90.115,82.976,79.239,69.77,75.355,72.877,75.355,72.877Z" fill="url(#e)"/>
      <path d="M79.239,73.654,94.776,72.1S96.33,58.894,81.569,51.9s-38.842-5.438-38.842-5.438,10.1,3.107,10.876,19.421,17.09,19.422,17.09,19.422Z" fill="url(#f)"/>
    </g>
    <g>
      <path d="M43.5,81.422s29.52,6.215,35.735,34.182H73.8S70.693,97.736,43.5,83.753,43.5,81.422,43.5,81.422Z" fill="url(#g)"/>
      <path d="M45.057,82.976,53.6,95.406s-1.554,3.107-17.091,4.661S18.644,93.852,0,93.852c0,0,8.545-29.52,27.19-32.628S55.156,69.77,56.71,82.2Z" fill="url(#h)"/>
    </g>
  </g>
</svg>
