<svg xmlns="http://www.w3.org/2000/svg" xmlns:xlink="http://www.w3.org/1999/xlink" width="321.175" height="171.777" viewBox="0 0 321.175 171.777">
  <defs>
    <linearGradient id="a" y1="85.889" x2="321.175" y2="85.889" gradientUnits="userSpaceOnUse">
      <stop offset="0" stop-color="#5a8539"/>
      <stop offset="1" stop-color="#46952f"/>
    </linearGradient>
  </defs>
  <title>Bush_29</title>
  <path d="M11.108,147.745s-10.681-13.351,2.67-26.7S35.14,115.7,35.14,115.7s-2.67-13.351,5.341-16.021a13.416,13.416,0,0,1,13.351,2.67S51.162,89,67.183,89s13.351,8.011,13.351,8.011,0-10.681,18.692-10.681,18.691,16.021,18.691,16.021S120.587,91.67,128.6,89s16.021,2.67,16.021,2.67-10.68-16.021,0-29.372,32.043-5.341,32.043-5.341-26.7-32.042-8.011-50.734S219.386,16.9,219.386,16.9s0-18.692,21.362-16.021S254.1,51.617,254.1,51.617s13.351-8.011,26.7,13.351-2.67,40.053-2.67,40.053,29.372-13.351,40.053,5.341S307.5,171.777,307.5,171.777H5.768S-10.254,166.437,11.108,147.745Z" fill="url(#a)"/>
</svg>
