<svg xmlns="http://www.w3.org/2000/svg" xmlns:xlink="http://www.w3.org/1999/xlink" width="345.53" height="180.196" viewBox="0 0 345.53 180.196">
  <defs>
    <linearGradient id="a" x1="76.01" y1="182.902" x2="420.578" y2="182.902" gradientTransform="matrix(0.994, 0.113, -0.113, 0.994, -46.691, -112.725)" gradientUnits="userSpaceOnUse">
      <stop offset="0" stop-color="#005437"/>
      <stop offset="1" stop-color="#006837"/>
    </linearGradient>
  </defs>
  <title>Bush_2</title>
  <path d="M341.666,164.051c14.363-26.176-15.937-30.461-15.937-30.461s14.268-14.043-1.813-26.3c-8.365-6.378-17.874-5.648-25.08-3.483-1.639-16.766-20.4-14.932-20.4-14.932s4.609-3.667-.281-9.812-11.506,2.883-11.506,2.883,2.791-12.257-9.466-15.048c-9.934-2.262-17.19,12.295-19.586,17.9.625-2.615.24-7.045-7.877-9.842-10.445-3.6-22.052,3.074-25.033,4.968,2.359-1.693,9.561-8.053,8.827-22.18-.876-16.866-23.1-18-23.1-18s20.441-20.031,8.216-35.393-40.818,14.919-40.818,14.919.66-18.088-22.508-10.942-4.235,37.242-4.235,37.242-15.3-12.917-27.9-.378,5.609,24.39,5.609,24.39-28.025-11.57-39.281,13.7a26.537,26.537,0,0,0-2.541,10.983,33.836,33.836,0,0,0-9.994,14.953s-7.945-18.264-26.24-6.275-8.282,24.2-8.282,24.2S.194,126.962,0,151.228s24.057,26.48,24.057,26.48L337.493,180.2C349.674,174.226,341.666,164.051,341.666,164.051Z" fill="url(#a)"/>
</svg>
