<svg xmlns="http://www.w3.org/2000/svg" xmlns:xlink="http://www.w3.org/1999/xlink" width="321.17" height="171.78" viewBox="0 0 321.17 171.78">
  <defs>
    <style>
      .cls-1 {
        fill: url(#linear-gradient);
      }
    </style>
    <linearGradient id="linear-gradient" y1="85.89" x2="321.17" y2="85.89" gradientUnits="userSpaceOnUse">
      <stop offset="0" stop-color="#2b773e"/>
      <stop offset="1" stop-color="#27954f"/>
    </linearGradient>
  </defs>
  <title>Bush_19</title>
  <g id="Layer_2" data-name="Layer 2">
    <g id="Layer_1-2" data-name="Layer 1">
      <path class="cls-1" d="M11.11,147.75S.43,134.39,13.78,121s21.36-5.34,21.36-5.34-2.67-13.35,5.34-16a13.41,13.41,0,0,1,13.35,2.67S51.16,89,67.18,89s13.35,8,13.35,8,0-10.68,18.7-10.68,18.69,16,18.69,16S120.59,91.67,128.6,89s16,2.67,16,2.67-10.68-16,0-29.37,32-5.34,32-5.34-26.7-32-8-50.74S219.39,16.9,219.39,16.9s0-18.69,21.36-16S254.1,51.62,254.1,51.62s13.35-8,26.7,13.35S278.13,105,278.13,105s29.37-13.35,40.05,5.34-10.68,61.42-10.68,61.42H5.77S-10.25,166.44,11.11,147.75Z"/>
    </g>
  </g>
</svg>
