<svg xmlns="http://www.w3.org/2000/svg" xmlns:xlink="http://www.w3.org/1999/xlink" width="481.6" height="838.32" viewBox="0 0 481.6 838.32">
  <defs>
    <style>
      .cls-1 {
        fill: url(#linear-gradient);
      }

      .cls-2 {
        fill: url(#linear-gradient-2);
      }
    </style>
    <linearGradient id="linear-gradient" x1="252.24" y1="677.21" x2="386.06" y2="677.21" gradientUnits="userSpaceOnUse">
      <stop offset="0" stop-color="#66421f"/>
      <stop offset="1" stop-color="#754c24"/>
    </linearGradient>
    <linearGradient id="linear-gradient-2" x1="-15.66" y1="294.96" x2="463.58" y2="294.96" gradientTransform="translate(6.51 10.94) rotate(-2.52)" gradientUnits="userSpaceOnUse">
      <stop offset="0" stop-color="#2b773e"/>
      <stop offset="1" stop-color="#27954f"/>
    </linearGradient>
  </defs>
  <title>Bush_36</title>
  <g id="Layer_2" data-name="Layer 2">
    <g id="Layer_1-2" data-name="Layer 1">
      <g>
        <path class="cls-1" d="M325,838.32s-47.42-80.44-48.07-122.41-10.39-79-10.39-103.68-14.29-96.14-14.29-96.14H273s23.38,72.75,21.43,96.14S312,699.17,314,719.36s72.11,117.95,72.11,117.95Z"/>
        <path class="cls-2" d="M460.94,231.32s18.1-.13,9.94-23c-8-22.49-36.52-3.19-37.37-2.61.48-.64,11.93-16.09-.87-27.88s-23.6,5.83-24.1,6.65c.34-1,9.85-28.65-15.43-38.61A26.67,26.67,0,0,0,382,143.84a33.84,33.84,0,0,0-15.38-9.32s17.9-8.74,5.12-26.49-24.54-7.21-24.54-7.21a25.82,25.82,0,0,0-1.29-6.27,27,27,0,0,0-.57-7.63c-3.5-17.54-22-13.08-22.78-12.9.27-.31,3.74-4.53-1.83-9.64C315,59.08,309.84,69,309.84,69s.84-12.55-11.7-13.38C288,55,283.09,70.49,281.6,76.39c.21-2.68-.87-7-9.32-8.49C261.4,66,251,74.39,248.33,76.73c2.07-2,8.19-9.45,5.24-23.29C250.08,36.92,228,39.28,228,39.28s17-23,2.57-36.24-38,21.12-38,21.12-2.18-18-23.94-7.28,1.64,37.45,1.64,37.45-17.13-10.37-27.61,4S152,81.53,152,81.53,124.65,75,116.23,98.4a31.54,31.54,0,0,0-3.92,8c-28,1.23-23.89,24.46-23.89,24.46-16.53,6.84-10.09,24.68-9.83,25.4-.32-.49-7.22-10.45-28.25-3.43C28.8,160,33.22,189.49,33.22,189.49s-43.36,8.15-31,40.39,44.73,23,44.73,23S39.76,267.26,42,282.78s16.61,22.69,16.61,22.69-20,7.12-17.4,30.42S62.64,361.5,62.64,361.5c5.16,10.7-4,15.79-4,15.79-9.28,2-16.25,21-1.61,34.41,14.44,13.22,35.18-2.67,35.77-3.12-.14.46-4,12.74,2.32,17.06s12.46-.55,12.46-.55a15.64,15.64,0,0,0,1.83,6.17c1.7,3.05,6.37,2.84,6.37,2.84s-16.51,14.78-12.85,27.1,14.5,10.29,14.5,10.29a13.69,13.69,0,0,0,8.41,13.69c9.55,4.26,15.38-5.36,15.38-5.36,2.89,1.28,9.44-1.44,10.64-1.95-.85.44-4.18,2.62-2.51,9.4,1.9,7.72,6.58,7.52,6.58,7.52A11.83,11.83,0,0,0,151.88,509c3.44,9,12.29,5.84,12.72,5.68-.31.25-4.27,3.6,2.06,10.83,6.58,7.52,17-3.87,17-3.87s-3.72,22,15.12,24.32a23.54,23.54,0,0,0,5.42.06c6.47,11.43,22,8.58,22,8.58s-10.27,13.19,4,26.37,26.61,1.87,26.61,1.87c22.53,22.66,38-8.42,38-8.42s12.71-1.5,28.71-18.85S331,522.87,331,522.87s29.58,2.73,39.85-10.46-10.38-37.89-10.38-37.89S370.41,478,374,470c3.25-7.24-3.73-10-5.11-10.52a7,7,0,0,0,5.83-.84c18.28-.33,42.14-4,43.5-20.92.67-8.35-1.07-14.06-3.81-18a35.08,35.08,0,0,0,2.64-2.57c14.11-15.31-.52-37.21-2.41-39.9l.06-.24c1.4.17,8.34.44,14.09-9.46,6.43-11.07-13.74-24-13.74-24s16.55-3.61,9.87-23c-4.45-12.92-12.34-13.91-17.11-13.13.22-.58.44-1.19.64-1.87,3.14-10.6-4-21.89-6.06-24.79,1.79,2.28,8.46,9.2,22.54,7.84,16.81-1.61,17-23.87,17-23.87s20.91,19.54,35.73,6.66S460.94,231.32,460.94,231.32Z"/>
      </g>
    </g>
  </g>
</svg>
