<svg xmlns="http://www.w3.org/2000/svg" xmlns:xlink="http://www.w3.org/1999/xlink" width="345.86" height="276.17" viewBox="0 0 345.86 276.17">
  <defs>
    <style>
      .cls-1 {
        fill: url(#linear-gradient);
      }

      .cls-2 {
        fill: url(#linear-gradient-2);
      }

      .cls-3 {
        fill: url(#linear-gradient-3);
      }
    </style>
    <linearGradient id="linear-gradient" x1="184.91" y1="250.6" x2="230.27" y2="250.6" gradientUnits="userSpaceOnUse">
      <stop offset="0" stop-color="#66421f"/>
      <stop offset="1" stop-color="#754c24"/>
    </linearGradient>
    <linearGradient id="linear-gradient-2" x1="118.22" y1="235.22" x2="151.18" y2="235.22" xlink:href="#linear-gradient"/>
    <linearGradient id="linear-gradient-3" x1="62.51" y1="113.26" x2="408.04" y2="113.26" gradientTransform="translate(-29.65 -34.95) rotate(10.52)" gradientUnits="userSpaceOnUse">
      <stop offset="0" stop-color="#2b773e"/>
      <stop offset="1" stop-color="#27954f"/>
    </linearGradient>
  </defs>
  <title>Bush_37</title>
  <g id="Layer_2" data-name="Layer 2">
    <g id="Layer_1-2" data-name="Layer 1">
      <g>
        <g>
          <path class="cls-1" d="M211.66,274.35s4.65-9.13,18.61-47.51H211.66c.51,4.33-15.31,27.7-26.75,47.51Z"/>
          <path class="cls-2" d="M151.18,274.35a178.9,178.9,0,0,1-7-17.27c-7.55-22.28-5.82-62.8-5.82-62.8H119.77s-3.49,20.27,0,46.77,4.65,35.12,4.65,35.12Z"/>
        </g>
        <path class="cls-3" d="M339.47,191.08c18.9-23.11-10.11-32.86-10.11-32.86S346,147,332.38,132c-7.06-7.8-16.55-8.82-24-8C309.8,107.24,291,105.62,291,105.62s5.2-2.76,1.52-9.7-11.84.74-11.84.74,5-11.54-6.56-16.52c-9.35-4-19.15,9-22.52,14,1.09-2.46,1.52-6.89-6-11.12-9.62-5.45-22.25-1-25.52.32,2.63-1.24,10.87-6.18,12.73-20.2,2.21-16.74-19.43-21.91-19.43-21.91S237.2,25.29,228,8s-42.86,7.22-42.86,7.22S189.08-2.5,165,.3s-11,35.84-11,35.84-12.69-15.49-27.37-5.46,1.07,25,1.07,25S102.29,39.19,86.61,62a26.58,26.58,0,0,0-4.5,10.33A33.92,33.92,0,0,0,69.55,85.19s-4.47-19.41-24.65-11S32.34,96.51,32.34,96.51,10.5,92.28,5.88,116.1a29.24,29.24,0,0,0-.37,9.35c-1.69,4.37.82,9.11.82,9.11-18.79,23.2,10.26,32.81,10.26,32.81S.05,178.65,13.7,193.58s36.14,4.77,36.14,4.77,1,16.65,30.78,22.28S122.5,205.9,122.5,205.9s-.64,14.29,20,14.07,25.24-13.75,25.24-13.75-5.74,19.49,17,30,35.66-3.55,35.66-3.55S219,250.89,242.8,255.39s33.94-16.23,33.94-16.23,4.57,19.39,24.71,10.85,12.45-22.35,12.45-22.35,21.86,4.13,26.36-19.71a29.09,29.09,0,0,0,.37-9A13,13,0,0,0,339.47,191.08Z"/>
      </g>
    </g>
  </g>
</svg>
