<svg xmlns="http://www.w3.org/2000/svg" xmlns:xlink="http://www.w3.org/1999/xlink" width="345.53" height="180.2" viewBox="0 0 345.53 180.2">
  <defs>
    <style>
      .cls-1 {
        fill: url(#linear-gradient);
      }
    </style>
    <linearGradient id="linear-gradient" x1="281.67" y1="171.25" x2="626.23" y2="171.25" gradientTransform="matrix(0.99, 0.11, -0.11, 0.99, -252.35, -124.38)" gradientUnits="userSpaceOnUse">
      <stop offset="0" stop-color="#5a8539"/>
      <stop offset="1" stop-color="#46952f"/>
    </linearGradient>
  </defs>
  <title>Bush_22</title>
  <g id="Layer_2" data-name="Layer 2">
    <g id="Layer_1-2" data-name="Layer 1">
      <path class="cls-1" d="M341.67,164.05c14.36-26.17-15.94-30.46-15.94-30.46s14.27-14-1.81-26.3c-8.37-6.38-17.88-5.65-25.08-3.49-1.64-16.76-20.4-14.93-20.4-14.93s4.6-3.67-.29-9.81-11.5,2.88-11.5,2.88,2.79-12.26-9.47-15c-9.93-2.26-17.19,12.3-19.58,17.9.62-2.61.24-7-7.88-9.84-10.45-3.6-22.05,3.07-25,5,2.36-1.7,9.56-8.06,8.82-22.18-.87-16.87-23.1-18-23.1-18s20.44-20,8.22-35.39-40.82,14.92-40.82,14.92.66-18.09-22.51-10.95-4.23,37.25-4.23,37.25-15.3-12.92-27.9-.38,5.61,24.39,5.61,24.39S80.75,58,69.49,83.28a26.59,26.59,0,0,0-2.54,11,33.85,33.85,0,0,0-10,14.95S49,91,30.72,102.94s-8.28,24.2-8.28,24.2S.19,127,0,151.23s24.06,26.48,24.06,26.48l313.43,2.49C349.67,174.23,341.67,164.05,341.67,164.05Z"/>
    </g>
  </g>
</svg>
