<svg xmlns="http://www.w3.org/2000/svg" xmlns:xlink="http://www.w3.org/1999/xlink" width="471.05" height="207.64" viewBox="0 0 471.05 207.64">
  <defs>
    <style>
      .cls-1 {
        fill: url(#linear-gradient);
      }
    </style>
    <linearGradient id="linear-gradient" y1="103.82" x2="471.05" y2="103.82" gradientUnits="userSpaceOnUse">
      <stop offset="0" stop-color="#005437"/>
      <stop offset="1" stop-color="#006837"/>
    </linearGradient>
  </defs>
  <title>Bush_7</title>
  <g id="Layer_2" data-name="Layer 2">
    <g id="Layer_1-2" data-name="Layer 1">
      <path class="cls-1" d="M16,207.64S-2.77,203,.35,184.24s25-14,25-14-10.92-10.92-3.12-17.16,10.92-1.56,10.92-1.56S30,142.13,39.34,139a11.85,11.85,0,0,1,14,4.68s0-4.68,7.8-6.24,9.36,3.12,9.36,3.12-3.12-7.8-1.56-10.92c0,0-9.36-6.24-4.68-15.59a13.68,13.68,0,0,1,14-7.8s-1.56-10.92,10.92-14,26.51,14,26.51,14,0-4.68,3.12-6.24a15.55,15.55,0,0,1,6.24-1.56s-4.68-6.24,0-12.48,17.16-1.56,17.16-1.56-15.6-21.84-1.56-35.87,32.75-6.24,34.31,3.11c0,0,4.68,9.36,15.6,4.68,0,0,3.12-18.71,26.52-20.27s29.63,18.71,29.63,18.71,7.8-14,23.4-15.59,29.63,6.24,29.63,6.24-7.79-32.76,25-43.68,39,32.76,39,32.76,29.64-3.12,35.88,18.71S395,81.3,395,81.3s18.72-6.24,25,10.92c0,0,23.39-3.12,23.39,25,0,0,28.08,9.36,12.48,37.44,0,0,34.32,18.72,0,53Z"/>
    </g>
  </g>
</svg>
