<svg xmlns="http://www.w3.org/2000/svg" xmlns:xlink="http://www.w3.org/1999/xlink" width="412.588" height="220.668" viewBox="0 0 412.588 220.668">
  <defs>
    <linearGradient id="a" y1="110.334" x2="412.588" y2="110.334" gradientUnits="userSpaceOnUse">
      <stop offset="0" stop-color="#005437"/>
      <stop offset="1" stop-color="#006837"/>
    </linearGradient>
  </defs>
  <title>Bush_8</title>
  <path d="M14.27,189.8s-13.721-17.151,3.43-34.3,27.442-6.86,27.442-6.86-3.43-17.151,6.86-20.582a17.232,17.232,0,0,1,17.151,3.431s-3.43-17.152,17.152-17.152,17.151,10.291,17.151,10.291,0-13.721,24.011-13.721,24.012,20.582,24.012,20.582,3.43-13.721,13.721-17.152,20.581,3.431,20.581,3.431-13.721-20.582,0-37.733,41.163-6.86,41.163-6.86-34.3-41.163-10.291-65.175,65.175,13.721,65.175,13.721,0-24.011,27.441-20.581S326.42,66.308,326.42,66.308s17.152-10.29,34.3,17.151-3.43,51.454-3.43,51.454,37.732-17.151,51.453,6.86-13.721,78.9-13.721,78.9H7.409S-13.172,213.808,14.27,189.8Z" fill="url(#a)"/>
</svg>
