<svg xmlns="http://www.w3.org/2000/svg" xmlns:xlink="http://www.w3.org/1999/xlink" width="463.83" height="137.82" viewBox="0 0 463.83 137.82">
  <defs>
    <style>
      .cls-1 {
        fill: url(#linear-gradient);
      }
    </style>
    <linearGradient id="linear-gradient" y1="68.91" x2="463.83" y2="68.91" gradientUnits="userSpaceOnUse">
      <stop offset="0" stop-color="#5a8539"/>
      <stop offset="1" stop-color="#46952f"/>
    </linearGradient>
  </defs>
  <title>Bush_24</title>
  <g id="Layer_2" data-name="Layer 2">
    <g id="Layer_1-2" data-name="Layer 1">
      <path class="cls-1" d="M453.47,111.55s12.49.15,9.93-17.93-22-14.14-22-14.14,4.21-4.12-1.28-9.73-11.15,4-11.15,4,1.54-12.48-10.94-14c-10.11-1.24-15.86,14-17.67,19.79.35-2.67-.48-7-8.84-9C380.72,68,369.84,75.86,367.07,78c2.18-1.92,8.7-9,6.54-23C371,38.39,348.8,39.52,348.8,39.52s18.31-22,4.59-36-39.1,19-39.1,19-1.18-18.07-23.5-8.61c-7.18,3-9.78,8-10,13.33a39.44,39.44,0,0,0-5.71,1.28s-10-8-33.58-7.22S212.9,38.86,212.9,38.86s-18.82-23-35.42-21-19.71,34-19.71,34-4.49-9.58-12.72-6.53c-7.44,2.76-4.53,9.71-3.9,11-.6-1.12-3.78-6.15-11.08-2.18-8.19,4.44-3.66,15.4-3.66,15.4S119.29,64.2,113.69,63s-10.87,7.31-10.87,7.31S99.4,51,77.2,51.71,50.42,81.77,50.42,81.77,46,75,33.64,78.16s-7.45,26.64-7.45,26.64S12,95.55,2.88,113.91s6.33,23.4,6.33,23.4l434.23.5s15.27.18,19.57-10.87S453.47,111.55,453.47,111.55Z"/>
    </g>
  </g>
</svg>
