<svg xmlns="http://www.w3.org/2000/svg" xmlns:xlink="http://www.w3.org/1999/xlink" width="232.67" height="232.27" viewBox="0 0 232.67 232.27">
  <defs>
    <style>
      .cls-1 {
        fill: url(#linear-gradient);
      }

      .cls-2 {
        fill: url(#linear-gradient-2);
      }
    </style>
    <linearGradient id="linear-gradient" x1="68.25" y1="178.97" x2="164.42" y2="178.97" gradientUnits="userSpaceOnUse">
      <stop offset="0" stop-color="#66421f"/>
      <stop offset="1" stop-color="#754c24"/>
    </linearGradient>
    <linearGradient id="linear-gradient-2" y1="92.34" x2="232.67" y2="92.34" gradientUnits="userSpaceOnUse">
      <stop offset="0" stop-color="#2b773e"/>
      <stop offset="1" stop-color="#27954f"/>
    </linearGradient>
  </defs>
  <title>Bush_34</title>
  <g id="Layer_2" data-name="Layer 2">
    <g id="Layer_1-2" data-name="Layer 1">
      <g>
        <path class="cls-1" d="M87.24,232.27H138s0-27.9,7.22-40.88,19.23-47.9,19.23-47.9l-13.94-8.55S138,168.44,129.8,176.28s-13,35.55-13,35.55S112,186,106.24,170.42s-19-44.75-19-44.75l-19,10S86.52,191.3,87.24,232.27Z"/>
        <path class="cls-2" d="M231.89,125.55c4.16-11.11-9.72-15.27-9.72-15.27s12.49,0,9.72-18-22.21-13.88-22.21-13.88,4.16-4.17-1.39-9.72-11.11,4.17-11.11,4.17,1.39-12.5-11.1-13.89c-4.61-.51-8.27,2.38-11.06,6.22a10.45,10.45,0,0,0-4.06.46s10.87-9.89,5.84-14.92S164,57.48,164,57.48s11.67-39.73-4.54-39.73c-14.95,0-17.22,34-17.49,39.36-.07-.77-.17-1.55-.31-2.36a15.75,15.75,0,0,0-6.14-10.29c-3.27-3.47-7-5.62-9.3-4.55a3.9,3.9,0,0,0-.57.34,37.7,37.7,0,0,0-9-.77s18.05-22.21,4.17-36.1S82,22.82,82,22.82s-1.39-18-23.6-8.33,0,37.48,0,37.48S41.7,40.87,30.59,54.75s8.33,23.6,8.33,23.6S9.77,70,1.44,96.4c-5.73,18.13,6.91,26.42,15.38,29.83-10.08,9.2-13,27.43,1.76,24.42,8.71-1.78,14.23-8.13,17.57-14h3.91a7.5,7.5,0,0,0,.88,1.85c-2.66,3.41-3.55,7.23,1.26,10.28a8.85,8.85,0,0,0,9.26.41c-1.5,3.62-2.41,8.4,1.53,10.91,2.84,1.8,6.7.33,10.25-2,1.22,3.55,3.45,6.16,7.34,6.44,4.22.3,6.68-2.43,8.08-6.33,4.91,6,12.12,12.24,18.71,8a15.06,15.06,0,0,0,1.28-.9c5.5-3.28,10.61-9.18,10.61-9.18l.4.69c-2.08,11.7-3.07,27.83,7.26,27.83,5.46,0,9.23-4.54,11.83-10.56a8.25,8.25,0,0,0,5.14-1.34c10.45-6.66,1.17-16.17-.4-17.66V155a36.92,36.92,0,0,0,5.7,1.07c3.58,4.55,8.29,7.73,11,6.48,4.7-2.21,1.46-10.28,1.46-10.28,7,9.16,15.34,13,19.94,8.2,7-.7,16.13-11.27,16.13-11.27S201,173.05,212.33,165.8s-.63-17.88-.63-17.88,14.88,4.5,17.38-3.37c1.63-5.15-1.38-9.23-3.66-11.44A14.89,14.89,0,0,0,231.89,125.55Z"/>
      </g>
    </g>
  </g>
</svg>
