<svg xmlns="http://www.w3.org/2000/svg" xmlns:xlink="http://www.w3.org/1999/xlink" width="232.67" height="136.66" viewBox="0 0 232.67 136.66">
  <defs>
    <style>
      .cls-1 {
        fill: url(#linear-gradient);
      }
    </style>
    <linearGradient id="linear-gradient" y1="68.33" x2="232.67" y2="68.33" gradientUnits="userSpaceOnUse">
      <stop offset="0" stop-color="#5a8539"/>
      <stop offset="1" stop-color="#46952f"/>
    </linearGradient>
  </defs>
  <title>Bush_26</title>
  <g id="Layer_2" data-name="Layer 2">
    <g id="Layer_1-2" data-name="Layer 1">
      <path class="cls-1" d="M23.65,128.33S-6.89,122.77,1.44,96.4,38.92,78.35,38.92,78.35s-19.43-9.72-8.33-23.6S58.36,52,58.36,52s-22.21-27.76,0-37.48S82,22.82,82,22.82,107-10.5,120.83,3.38s-4.17,36.1-4.17,36.1,22.22-1.39,25,15.27-6.94,23.6-6.94,23.6,12.49-11.11,25-8.33S168,81.13,168,81.13s5.55-23.6,18.05-22.22,11.1,13.89,11.1,13.89,5.55-9.72,11.11-4.17,1.39,9.72,1.39,9.72,19.43-4.17,22.21,13.88-9.72,18-9.72,18,13.88,4.16,9.72,15.27-19.44,11.11-19.44,11.11H22.26S18.1,132.49,23.65,128.33Z"/>
    </g>
  </g>
</svg>
