<svg xmlns="http://www.w3.org/2000/svg" xmlns:xlink="http://www.w3.org/1999/xlink" width="186.78" height="113.07" viewBox="0 0 186.78 113.07">
  <defs>
    <style>
      .cls-1 {
        fill: url(#linear-gradient);
      }

      .cls-2 {
        fill: url(#linear-gradient-2);
      }
    </style>
    <linearGradient id="linear-gradient" x1="32.36" y1="92.64" x2="127.51" y2="92.64" gradientUnits="userSpaceOnUse">
      <stop offset="0" stop-color="#66421f"/>
      <stop offset="1" stop-color="#754c24"/>
    </linearGradient>
    <linearGradient id="linear-gradient-2" y1="51.23" x2="186.78" y2="51.23" gradientUnits="userSpaceOnUse">
      <stop offset="0" stop-color="#2b773e"/>
      <stop offset="1" stop-color="#27954f"/>
    </linearGradient>
  </defs>
  <title>Bush_10</title>
  <g id="Layer_2" data-name="Layer 2">
    <g id="Layer_1-2" data-name="Layer 1">
      <g>
        <path class="cls-1" d="M121.53,113.07c.13-1.15.29-2.34.52-3.59a44.78,44.78,0,0,1,5.46-15L110.35,80.77s-4.95,6.22-6.24,8.57a39.7,39.7,0,0,0-4.68,17.14S85.39,92.77,87,80.77L66.68,72.2s-1.56,10.29,1.56,18.86c0,0-17.16-13.72-29.64-15.43l-6.24,3.43s20,7.85,36.72,34Z"/>
        <path class="cls-2" d="M57.32,75.32s-6.24,6.24-21.84,6.24S12.09,83.12,4.29,72.2c-6.41-9-6.24-23.4,4.68-28.07s23.39-4.68,23.39-4.68-4.68-15.6,7.8-18.72,20.28,7.8,20.28,7.8,9.36,0,14-6.24c0,0-3.12-14,12.47-17.16s15.6,6.24,15.6,6.24S115-2.67,129.07.45,166.5,27,166.5,36.33s-3.12,12.47-3.12,12.47,23.4,6.24,23.4,37.44-39,7.8-39,7.8-15.6,7.8-29.64,3.12-15.6-15.6-15.6-15.6-7.8,9.36-21.83,6.24A52.47,52.47,0,0,1,57.32,75.32Z"/>
      </g>
    </g>
  </g>
</svg>
