<svg xmlns="http://www.w3.org/2000/svg" xmlns:xlink="http://www.w3.org/1999/xlink" width="340.81" height="270.69" viewBox="0 0 340.81 270.69">
  <defs>
    <style>
      .cls-1 {
        fill: url(#linear-gradient);
      }

      .cls-2 {
        fill: url(#linear-gradient-2);
      }

      .cls-3 {
        fill: url(#linear-gradient-3);
      }
    </style>
    <linearGradient id="linear-gradient" x1="187.38" y1="217.81" x2="247.18" y2="217.81" gradientUnits="userSpaceOnUse">
      <stop offset="0" stop-color="#66421f"/>
      <stop offset="1" stop-color="#754c24"/>
    </linearGradient>
    <linearGradient id="linear-gradient-2" x1="67.45" y1="213.53" x2="178.66" y2="213.53" xlink:href="#linear-gradient"/>
    <linearGradient id="linear-gradient-3" y1="108.84" x2="340.81" y2="108.84" gradientUnits="userSpaceOnUse">
      <stop offset="0" stop-color="#005437"/>
      <stop offset="1" stop-color="#006837"/>
    </linearGradient>
  </defs>
  <title>Bush_39</title>
  <g id="Layer_2" data-name="Layer 2">
    <g id="Layer_1-2" data-name="Layer 1">
      <g>
        <g>
          <path class="cls-1" d="M247.18,164.93H217.73s0,28.87-23,56.67c-11.43,13.81-6.06,49.09-6.06,49.09h39.57s-6.78-15.94,5-34.12S247.18,164.93,247.18,164.93Z"/>
          <path class="cls-2" d="M178.66,156.38H149.79s-4.28,41.28-15,60.52c-5.49,9.89-10.13,23.79-13.35,35-6.06-6.86-11.24-14.85-11.24-22.14,0-17.53-17.11-58.4-17.11-58.4H67.45s9.63,37.42,10.7,58.4a243.55,243.55,0,0,0,6.06,40.94h75.2S154.07,244,165.83,221,178.66,156.38,178.66,156.38Z"/>
        </g>
        <path class="cls-3" d="M327.72,69.86c7.19-31.14-27.34-27.66-27.34-27.66s-8-10-31.24-14.26a46.33,46.33,0,0,0-5.17-.66c3.42-3.7,5.21-8.1-.2-11.53-11.52-7.29-21.25,14-21.25,14S248.85,1,235.39,0c-9.24-.67-10.07,13.28-9.69,22.08-5.07-5.59-11.43-10.57-18.34-11.27-16.63-1.67-26.55,29-26.55,29s-2.32-10.31-11-9.1a7.41,7.41,0,0,0-4.85,2.37c.7-3,.48-6.15-2.48-8-6.88-4.37-19.75,10.5-19.75,10.5S129.46,11.65,118.08,18.9c-3.77,2.41-5,5.18-4.88,7.82a28.62,28.62,0,0,0-11-4.34C80.31,18.33,69.53,46,69.53,46s-2.82-7.58-15.62-7.13-13,24.41-13,24.41S29,51.18,16.19,67.15s1.16,24.22,1.16,24.22l.88.18C8.15,104,20.69,117.64,20.69,117.64S4.05,116,.51,135.07s12.58,23.52,12.58,23.52c-7.19,31.14,27.35,27.66,27.35,27.66s8,10,31.24,14.26,31.7-11.06,31.7-11.06,13.44,26.5,30.07,28.17,26.55-29,26.55-29,2.32,10.31,11,9.1c7.86-1.09,6.51-8.5,6.18-9.92.34,1.23,2.37,6.81,10.35,4.52,8.95-2.58,6.88-14.26,6.88-14.26s5.82,6.73,11,9.1,12.19-4.8,12.19-4.8-.82,19.62,21,23.67,32.62-23.6,32.62-23.6,2.83,7.58,15.62,7.13,13-24.41,13-24.41,11.88,12.08,24.72-3.89-1.15-24.22-1.15-24.22l-.89-.18c10.08-12.45-2.45-26.09-2.45-26.09s16.63,1.68,20.17-17.43S327.72,69.86,327.72,69.86Z"/>
      </g>
    </g>
  </g>
</svg>
