<svg xmlns="http://www.w3.org/2000/svg" xmlns:xlink="http://www.w3.org/1999/xlink" width="326.85" height="115.38" viewBox="0 0 326.85 115.38">
  <defs>
    <style>
      .cls-1 {
        fill: url(#linear-gradient);
      }
    </style>
    <linearGradient id="linear-gradient" x1="73.72" y1="388.9" x2="400.42" y2="388.9" gradientTransform="translate(-72.23 -332.05) rotate(0.2)" gradientUnits="userSpaceOnUse">
      <stop offset="0" stop-color="#005437"/>
      <stop offset="1" stop-color="#006837"/>
    </linearGradient>
  </defs>
  <title>Bush_5</title>
  <g id="Layer_2" data-name="Layer 2">
    <g id="Layer_1-2" data-name="Layer 1">
      <path class="cls-1" d="M8.74,113.3s-15.25-5.61-5.47-23.62S26.9,81.43,26.9,81.43s-4.08-23.62,8.42-26.35S52,59.3,52,59.3s5.65-29.13,27.86-29,24.92,19.52,24.92,19.52,5.59-8.31,11.13-6.91,12.47,7,12.47,7-4.12-11.12,4.22-15.26,11.1,2.82,11.1,2.82-4.14-8.35,4.2-11.09,12.47,7,12.47,7S164.62,1.38,181.28.05s34.63,22.34,34.63,22.34,5.61-16.64,29.21-16.56,33.29,8.44,33.29,8.44,33.35-9.6,31.85,22.32c0,0,16.65,1.45,16.59,20.88s-16.73,20.77-16.73,20.77,16.61,12.55,5.45,27.78S8.74,113.3,8.74,113.3Z"/>
    </g>
  </g>
</svg>
