<svg xmlns="http://www.w3.org/2000/svg" xmlns:xlink="http://www.w3.org/1999/xlink" width="471.052" height="207.641" viewBox="0 0 471.052 207.641">
  <defs>
    <linearGradient id="a" y1="103.82" x2="471.052" y2="103.82" gradientUnits="userSpaceOnUse">
      <stop offset="0" stop-color="#2b773e"/>
      <stop offset="1" stop-color="#27954f"/>
    </linearGradient>
  </defs>
  <title>Bush_17</title>
  <path d="M15.948,207.641s-18.717-4.68-15.6-23.4,24.956-14.038,24.956-14.038-10.918-10.918-3.12-17.157,10.919-1.56,10.919-1.56-3.12-9.358,6.239-12.478a11.845,11.845,0,0,1,14.038,4.679s0-4.679,7.8-6.239,9.359,3.12,9.359,3.12-3.12-7.8-1.56-10.918c0,0-9.358-6.239-4.679-15.6a13.679,13.679,0,0,1,14.038-7.8s-1.56-10.918,10.918-14.038,26.516,14.038,26.516,14.038,0-4.679,3.119-6.239a15.542,15.542,0,0,1,6.239-1.56s-4.679-6.239,0-12.478,17.158-1.559,17.158-1.559-15.6-21.837-1.56-35.875,32.755-6.239,34.315,3.12c0,0,4.679,9.358,15.6,4.679,0,0,3.12-18.717,26.516-20.277s29.636,18.717,29.636,18.717,7.8-14.038,23.4-15.6,29.636,6.239,29.636,6.239-7.8-32.755,24.956-43.674,38.994,32.755,38.994,32.755,29.635-3.119,35.874,18.717S394.97,81.3,394.97,81.3s18.717-6.239,24.956,10.918c0,0,23.4-3.119,23.4,24.957,0,0,28.076,9.358,12.479,37.434,0,0,34.314,18.717,0,53.032Z" fill="url(#a)"/>
</svg>
