<svg xmlns="http://www.w3.org/2000/svg" xmlns:xlink="http://www.w3.org/1999/xlink" width="326.847" height="115.375" viewBox="0 0 326.847 115.375">
  <defs>
    <linearGradient id="a" x1="80.314" y1="388.892" x2="407.01" y2="388.892" gradientTransform="translate(-78.822 -332.061) rotate(0.198)" gradientUnits="userSpaceOnUse">
      <stop offset="0" stop-color="#2b773e"/>
      <stop offset="1" stop-color="#27954f"/>
    </linearGradient>
  </defs>
  <title>Bush_15</title>
  <path d="M8.745,113.3S-6.507,107.69,3.273,89.677,26.9,81.429,26.9,81.429s-4.083-23.615,8.42-26.348S51.967,59.3,51.967,59.3,57.62,30.169,79.832,30.246s24.921,19.521,24.921,19.521,5.582-8.31,11.13-6.9,12.47,6.985,12.47,6.985-4.126-11.121,4.218-15.257,11.1,2.815,11.1,2.815-4.136-8.344,4.2-11.091S160.34,33.3,160.34,33.3,164.615,1.385,181.279.054s34.629,22.332,34.629,22.332,5.61-16.64,29.21-16.559,33.289,8.445,33.289,8.445,33.352-9.6,31.853,22.321c0,0,16.654,1.446,16.587,20.881s-16.73,20.767-16.73,20.767,16.615,12.551,5.457,27.783S8.745,113.3,8.745,113.3Z" fill="url(#a)"/>
</svg>
