<svg xmlns="http://www.w3.org/2000/svg" xmlns:xlink="http://www.w3.org/1999/xlink" width="301.68" height="165.9" viewBox="0 0 301.68 165.9">
  <defs>
    <style>
      .cls-1 {
        fill: url(#linear-gradient);
      }

      .cls-2 {
        fill: url(#linear-gradient-2);
      }

      .cls-3 {
        fill: url(#linear-gradient-3);
      }

      .cls-4 {
        fill: url(#linear-gradient-4);
      }
    </style>
    <linearGradient id="linear-gradient" x1="396.89" y1="773.1" x2="411.6" y2="658.85" gradientTransform="translate(-126.41 -576.03) rotate(5.43)" gradientUnits="userSpaceOnUse">
      <stop offset="0" stop-color="#66421f"/>
      <stop offset="1" stop-color="#754c24"/>
    </linearGradient>
    <linearGradient id="linear-gradient-2" x1="264.7" y1="752.45" x2="279.61" y2="636.72" xlink:href="#linear-gradient"/>
    <linearGradient id="linear-gradient-3" x1="339.9" y1="762.21" x2="354.46" y2="649.2" xlink:href="#linear-gradient"/>
    <linearGradient id="linear-gradient-4" x1="12129.74" y1="-2773.54" x2="12427.88" y2="-2773.54" gradientTransform="translate(12070.36 -3970.3) rotate(173.96)" gradientUnits="userSpaceOnUse">
      <stop offset="0" stop-color="#2b773e"/>
      <stop offset="1" stop-color="#27954f"/>
    </linearGradient>
  </defs>
  <title>Bush_11</title>
  <g id="Layer_2" data-name="Layer 2">
    <g id="Layer_1-2" data-name="Layer 1">
      <g>
        <path class="cls-1" d="M203.17,165.9h25a115.22,115.22,0,0,0-2.85-15.57c-1.39-5.59-11-12.77-24.74-20.44.51,3.44,1,6.89,1.28,10.32C202.55,148.76,202.77,157.33,203.17,165.9Z"/>
        <path class="cls-2" d="M83.79,165.9h23.29a238.07,238.07,0,0,0-12.19-46.11A310.77,310.77,0,0,0,75.57,77.71l-1.51-.53L55.75,93.07S83.73,133.21,83.79,165.9Z"/>
        <path class="cls-3" d="M173,165.9c.33-13.8.21-27.61.28-41.4q0-4.12,0-8.23c-9.73-4.45-20-8.85-30.19-13-2.71,18.8-6.57,37.33-10.69,55.76-.51,2.29-1,4.58-1.57,6.88Z"/>
        <path class="cls-4" d="M205.67,54.64s22.78-17.57,39.45-21.23S269,44.15,268.31,55.59c0,0,34.13.18,33.36,28.69s-35.11,26.46-35.11,26.46S275,136.38,246,148.93s-53.07-.07-53.07-.07-11.93,12.63-25.65,8.4S150.48,142,150.48,142s-23.38,11.94-32.66-4.13-35.52-13.3-42.13-22.07-5.14-12.73-5.14-12.73S58.42,113.81,34,97.45-8.78,69.76,4.43,51.3,35.5,40.43,35.5,40.43s-9.68-19.82,7-23.48,33.64,13.5,33.64,13.5S62.51,9.15,83.12,7s31.38,9.94,31.38,9.94S123.56-4.89,139.35,1s19.84,26.32,19.84,26.32,17.16-17,24.37-2.57-11.93,12.63-5.32,21.4S205.67,54.64,205.67,54.64Z"/>
      </g>
    </g>
  </g>
</svg>
