<svg xmlns="http://www.w3.org/2000/svg" xmlns:xlink="http://www.w3.org/1999/xlink" width="345.53" height="91.79" viewBox="0 0 345.53 91.79">
  <defs>
    <style>
      .cls-1 {
        fill: url(#linear-gradient);
      }
    </style>
    <linearGradient id="linear-gradient" x1="156.54" y1="616.63" x2="502.06" y2="616.63" gradientTransform="translate(-154.53 -571.89) rotate(0.18)" gradientUnits="userSpaceOnUse">
      <stop offset="0" stop-color="#2b773e"/>
      <stop offset="1" stop-color="#27954f"/>
    </linearGradient>
  </defs>
  <title>Bush_13</title>
  <g id="Layer_2" data-name="Layer 2">
    <g id="Layer_1-2" data-name="Layer 1">
      <path class="cls-1" d="M24.18,90.8S-.08,88.7,0,64.44s22.32-24.2,22.32-24.2S12.25,28.07,30.49,16s26.27,6.15,26.27,6.15S62.89-.08,87.16,0s26.23,18.28,26.23,18.28,10.16-16.14,34.41-10S170,34.64,170,34.64s2.07-14.15,22.3-18.13,22.22,10.18,22.22,10.18S222.64,4.47,253,4.57,287.3,20.86,287.3,20.86,307.56,6.76,323.7,19s1.94,26.29,1.94,26.29S356,49.39,341.72,75.63c0,0,8.06,10.14-4.09,16.16Z"/>
    </g>
  </g>
</svg>
