<svg xmlns="http://www.w3.org/2000/svg" xmlns:xlink="http://www.w3.org/1999/xlink" width="412.59" height="220.67" viewBox="0 0 412.59 220.67">
  <defs>
    <style>
      .cls-1 {
        fill: url(#linear-gradient);
      }
    </style>
    <linearGradient id="linear-gradient" y1="110.33" x2="412.59" y2="110.33" gradientUnits="userSpaceOnUse">
      <stop offset="0" stop-color="#2b773e"/>
      <stop offset="1" stop-color="#27954f"/>
    </linearGradient>
  </defs>
  <title>Bush_18</title>
  <g id="Layer_2" data-name="Layer 2">
    <g id="Layer_1-2" data-name="Layer 1">
      <path class="cls-1" d="M14.27,189.8S.55,172.65,17.7,155.49s27.44-6.86,27.44-6.86S41.71,131.48,52,128.05a17.23,17.23,0,0,1,17.15,3.43s-3.43-17.15,17.15-17.15,17.16,10.29,17.16,10.29,0-13.72,24-13.72,24,20.58,24,20.58,3.43-13.72,13.72-17.15,20.58,3.43,20.58,3.43-13.72-20.58,0-37.73,41.16-6.86,41.16-6.86S192.64,32,216.65,8s65.18,13.73,65.18,13.73,0-24,27.44-20.59,17.15,65.18,17.15,65.18S343.57,56,360.72,83.46s-3.43,51.45-3.43,51.45,37.74-17.15,51.46,6.86S395,220.67,395,220.67H7.41S-13.17,213.81,14.27,189.8Z"/>
    </g>
  </g>
</svg>
