<svg xmlns="http://www.w3.org/2000/svg" xmlns:xlink="http://www.w3.org/1999/xlink" width="186.779" height="113.073" viewBox="0 0 186.779 113.073">
  <defs>
    <linearGradient id="a" x1="32.363" y1="92.637" x2="127.509" y2="92.637" gradientUnits="userSpaceOnUse">
      <stop offset="0" stop-color="#66421f"/>
      <stop offset="1" stop-color="#754c24"/>
    </linearGradient>
    <linearGradient id="b" y1="51.23" x2="186.779" y2="51.23" gradientUnits="userSpaceOnUse">
      <stop offset="0" stop-color="#005437"/>
      <stop offset="1" stop-color="#006837"/>
    </linearGradient>
  </defs>
  <title>Bush</title>
  <g>
    <path d="M121.532,113.073c.125-1.15.291-2.347.517-3.592a44.668,44.668,0,0,1,5.46-15L110.351,80.771a104.491,104.491,0,0,0-6.239,8.57,39.709,39.709,0,0,0-4.679,17.14S85.4,92.769,86.955,80.771L66.678,72.2s-1.56,10.284,1.56,18.854c0,0-17.158-13.712-29.636-15.426l-6.239,3.428s19.966,7.851,36.716,34.016Z" fill="url(#a)"/>
    <path d="M57.319,75.321S51.08,81.56,35.483,81.56s-23.4,1.56-31.2-9.359c-6.41-8.975-6.239-23.4,4.68-28.075s23.4-4.68,23.4-4.68-4.679-15.6,7.8-18.717,20.277,7.8,20.277,7.8,9.358,0,14.038-6.239c0,0-3.12-14.038,12.478-17.157s15.6,6.239,15.6,6.239S115.03-2.667,129.068.452,166.5,26.968,166.5,36.327s-3.119,12.478-3.119,12.478,23.4,6.239,23.4,37.434-38.994,7.8-38.994,7.8-15.6,7.8-29.635,3.119-15.6-15.6-15.6-15.6-7.8,9.358-21.836,6.239A52.468,52.468,0,0,1,57.319,75.321Z" fill="url(#b)"/>
  </g>
</svg>
