<svg xmlns="http://www.w3.org/2000/svg" xmlns:xlink="http://www.w3.org/1999/xlink" width="99.588" height="185.83" viewBox="0 0 99.588 185.83">
  <defs>
    <linearGradient id="a" x1="42.358" y1="94.043" x2="26.6" y2="137.378" gradientTransform="translate(-10.831 46.658) rotate(-6.33)" gradientUnits="userSpaceOnUse">
      <stop offset="0" stop-color="#c5d654"/>
      <stop offset="1" stop-color="#a4bd47"/>
    </linearGradient>
    <linearGradient id="b" x1="19.758" y1="124.121" x2="29.069" y2="95.111" xlink:href="#a"/>
  </defs>
  <title>Carrot</title>
  <g>
    <path d="M99.581,98.344c.3-6.515-9.32-9.987-14.966-10.065-3.521-.049-8.188,2.82-10.909,5.584a96.718,96.718,0,0,0-.213-16.147c4.017,1.02,9.239-.346,12.725-1.759C92.5,73.412,99.4,65.172,96.309,59.015s-14.217-1.442-18.551,1.408c-2.1,1.385-4.879,6.483-5.788,9.257A91.187,91.187,0,0,0,66.4,51.644c4.887.424,9.288-1.53,13.182-4.512,4.846-3.711,8.783-13.674,4.443-18.423s-12.88,1.7-15.71,6.027c-2.213,3.385-2.448,10.828-2.62,15.239a102.233,102.233,0,0,0-6.819-12.512,22.246,22.246,0,0,0,10.765-7.081c3.88-4.927,4.716-15.348-.572-18.9s-13.044,5.645-15.256,10c-1.1,2.177.294,7.591.977,10.16A92.554,92.554,0,0,0,46.66,22.89c1.067-4.454-1.757-9.252-3.6-13.039C40.438,4.464,32.757-2.2,27.122.941s-2.235,13.005,1.29,17.11c2.617,3.047,11.137,4.724,15.408,5.8,1.717,2.313,3.444,4.493,4.995,6.687-2.189-1.431-7.44-3.85-9.586-3.869-4.733-.042-15.206.426-14.843,6.906s10.213,9.368,16.4,8.014c3.879-.85,9-1.942,12.385-4.545a95.1,95.1,0,0,1,4.971,9.188c-1.392-.94-5.358-2.393-6.7-2.316-4.051.233-14.945.2-14.551,6.234s9.823,9.171,15.742,8.74C55.2,58.7,59.7,57.7,62.175,56.2A61.362,61.362,0,0,1,64.9,66.91c-1.809-2.307-6.59-5.84-9.015-6.2-4.859-.726-16.642-.756-17.129,5.631s8.838,11.071,15.2,11.038A27.421,27.421,0,0,0,66.23,74.254a76.31,76.31,0,0,1,1.188,13.412c-2.339-2.814-8.262-5.5-11.265-5.464C50.794,82.27,39.5,85.539,40.86,92s11.882,8.757,17.914,7.561a27.059,27.059,0,0,0,8.834-3.847c-.533,6.432-3.146,12.426-5.362,18.4-1.314-2.775-5.479-6.138-7.611-7.087-4.592-2.044-15.938-5.353-17.943,1.023s4.2,14.114,10.976,16.328c2.854.933,7.885.8,11.068-.086-1.57,4.261-3.314,8.652-5.159,12.757-.96-3.385-4.362-9.1-6.833-10.694-4.331-2.8-15.593-6.63-18-.4s3.768,14.6,10.142,17.226a20.359,20.359,0,0,0,11.844.8c-1.393,3.6-2.857,7.162-3.9,10.9,1.9.808,3.784,1.74,5.733,2.412,1.438-3.362,2.853-6.76,4.271-10.114a21.691,21.691,0,0,0,12.4,2.485A20.625,20.625,0,0,0,87.5,134.69c.915-3.549-2.784-3.376-4.224-4.9,4.488-2.2,10.45-6.551,11.534-11.657s-5.165-7.445-8.324-9.285C91.344,108.157,99.333,103.778,99.581,98.344Zm-17.572,9.819a1.4,1.4,0,0,0,.244.076,8.278,8.278,0,0,0-1.841.283c-4.322,1.457-7.753,4.414-11.348,7.191a122.175,122.175,0,0,0,3.87-14.662A21.68,21.68,0,0,0,82.009,108.163ZM70.262,129.969a43.235,43.235,0,0,0-8.809,6.04c1.446-3.543,2.91-7.083,4.267-10.663a22.163,22.163,0,0,0,6.216,4.036A12.849,12.849,0,0,0,70.262,129.969Z" fill="url(#a)"/>
    <path d="M78.1,97.218c-1.784-6.275-12.779-6.246-18.434-4.538-3.527,1.066-8.869,5.3-11.1,8.889-2.282-4.8-6.159-7.88-8.968-12.252a17.223,17.223,0,0,0,9.761-1.685c5.442-2.8,11.445-11.323,8.314-17.108S44.124,69.38,40,72.451c-2.006,1.492-4.183,6.355-4.559,9.29-2.3-5.78-4.89-11.592-5.978-17.8a23.657,23.657,0,0,0,14.511-.774c5.6-2.009,12.513-9.98,9.893-15.495s-12.794-1.763-16.952,1.1c-3.25,2.235-6.63,9.047-7.741,13.379a133.922,133.922,0,0,1-2.031-13.96,24.887,24.887,0,0,0,12.8-2.932c5.444-2.906,11.4-10.971,8.265-16.332s-12.118-.3-15.557,2.839a29.034,29.034,0,0,0-5.751,9.463c-.1-3.738-.14-7.995.841-11.765,3.881-2.886,8.585-6.946,10.563-11.21,2.813-6.063.5-16.16-5.6-18.025S22.6,8.6,22.007,13.75c-.439,3.824,1.284,10.944,3.278,14.907a77.191,77.191,0,0,0-2.155,8.674c-.5-2.412-1.889-7.542-3.486-9.018-3.52-3.256-14.356-7.789-17.48-2.068s2.355,14.462,7.907,17.888a16.6,16.6,0,0,0,12.318,1.578c-.057,3.728.06,7.468.3,11.12-1.218-1.354-3.831-4.068-5.325-4.645C12.87,50.447,1.3,49.663.334,56.466s7.5,12.672,14.245,13.007a25.483,25.483,0,0,0,9.685-1.561A91.505,91.505,0,0,0,27.3,78.99c-2.373-1.946-6.851-6.482-9.4-7.178C12.8,70.418.768,69.49.04,76.554s8.733,12.56,15.9,12.711c4.117.087,10.517-.907,14.505-2.987,2.57,4.171,6.3,7.178,8.528,11.517-2.611-1.559-8.14-4.521-10.82-4.336-4.783.33-15.384,3.638-13.447,9.991s12.2,8.776,18.7,6.794a22.605,22.605,0,0,0,9.075-5.42c2.071,4.719,4.65,9.2,6.24,14.062-2.244-1.421-7.431-4.308-9.638-4.514-4.751-.442-16.266.879-15.579,7.215s9.342,9.488,15.655,9.192A27.994,27.994,0,0,0,49.2,127.813a63.3,63.3,0,0,1-2.1,11.78c-1.521-2.742-5.69-6.527-8.36-7-4.682-.823-17.227-.777-17.6,5.256S28.66,148.9,34.7,149.045c3.176.076,7.423-1.513,10.456-2.819a43.683,43.683,0,0,0-1.9,10.679l6.259.548a74.86,74.86,0,0,1,2.32-9.936,29.029,29.029,0,0,0,13.7-.669c8.055-2.578,14.3-9.872,13.656-17.892-.282-3.521-4.016-1.932-5.649-2.934,3.276-2.754,7.622-7.42,6.788-12.094s-8.495-4.34-11.709-4.782C72.6,107.367,79.586,102.451,78.1,97.218ZM63.806,109.856c.078,0,.191,0,.277-.007a9.647,9.647,0,0,0-1.7.679c-3.374,2.015-4.982,4.808-7.024,8.064a109.93,109.93,0,0,0-4.3-11.4A35.1,35.1,0,0,0,63.806,109.856Zm-2.4,19.64a50.476,50.476,0,0,0-6.838,7.155,72.446,72.446,0,0,0,1.285-9.811,23.1,23.1,0,0,0,6.9,1.746A12.95,12.95,0,0,0,61.405,129.5Z" fill="url(#b)"/>
    <g>
      <path d="M67.289,177.88a51.152,51.152,0,0,1-.588,7.95H26.589a50.655,50.655,0,0,1,.072-7.521,47.038,47.038,0,0,1,1.4-8.481,31.067,31.067,0,0,1,2.844-7.127c3.108-5.508,8.359-9.82,17.169-9.82s13.7,4.319,16.324,9.835a29.9,29.9,0,0,1,2.464,8.71A47.166,47.166,0,0,1,67.289,177.88Z" fill="#ff931e"/>
      <path d="M66.866,171.426A88.181,88.181,0,0,1,47,173.3c-9.778,0-15.608-1.776-18.939-3.467a31.067,31.067,0,0,1,2.844-7.127A50.648,50.648,0,0,0,47,165.416a64.432,64.432,0,0,0,17.4-2.7A29.9,29.9,0,0,1,66.866,171.426Z" fill="#ffa61e"/>
      <path d="M67.289,177.88a51.152,51.152,0,0,1-.588,7.95H26.589a50.655,50.655,0,0,1,.072-7.521,83.469,83.469,0,0,0,18.588,2.149A106.39,106.39,0,0,0,67.289,177.88Z" fill="#ffa61e"/>
    </g>
  </g>
</svg>
