<svg xmlns="http://www.w3.org/2000/svg" xmlns:xlink="http://www.w3.org/1999/xlink" width="146.36" height="186.28" viewBox="0 0 146.36 186.28">
  <defs>
    <style>
      .cls-1 {
        fill: url(#linear-gradient);
      }

      .cls-2 {
        fill: url(#linear-gradient-2);
      }

      .cls-3 {
        fill: url(#linear-gradient-3);
      }

      .cls-4 {
        fill: url(#linear-gradient-4);
      }

      .cls-5 {
        fill: url(#linear-gradient-5);
      }

      .cls-6 {
        fill: url(#linear-gradient-6);
      }

      .cls-7 {
        fill: url(#linear-gradient-7);
      }

      .cls-8 {
        fill: url(#linear-gradient-8);
      }

      .cls-9 {
        fill: url(#linear-gradient-9);
      }

      .cls-10 {
        fill: url(#linear-gradient-10);
      }

      .cls-11 {
        fill: url(#linear-gradient-11);
      }

      .cls-12 {
        fill: url(#linear-gradient-12);
      }

      .cls-13 {
        fill: url(#linear-gradient-13);
      }

      .cls-14 {
        fill: url(#linear-gradient-14);
      }

      .cls-15 {
        fill: url(#linear-gradient-15);
      }

      .cls-16 {
        fill: url(#linear-gradient-16);
      }

      .cls-17 {
        fill: url(#linear-gradient-17);
      }

      .cls-18 {
        fill: url(#linear-gradient-18);
      }

      .cls-19 {
        fill: url(#linear-gradient-19);
      }

      .cls-20 {
        fill: url(#linear-gradient-20);
      }

      .cls-21 {
        fill: url(#linear-gradient-21);
      }

      .cls-22 {
        fill: #ff931e;
      }

      .cls-23 {
        fill: #ffa61e;
      }
    </style>
    <linearGradient id="linear-gradient" x1="154.63" y1="71.04" x2="63.35" y2="145.78" gradientUnits="userSpaceOnUse">
      <stop offset="0" stop-color="#c5d654"/>
      <stop offset="1" stop-color="#a4bd47"/>
    </linearGradient>
    <linearGradient id="linear-gradient-2" x1="136.66" y1="67.77" x2="61.46" y2="129.33" xlink:href="#linear-gradient"/>
    <linearGradient id="linear-gradient-3" x1="172.36" y1="68.73" x2="70.13" y2="152.43" xlink:href="#linear-gradient"/>
    <linearGradient id="linear-gradient-4" x1="131.72" y1="60.96" x2="56.02" y2="122.94" xlink:href="#linear-gradient"/>
    <linearGradient id="linear-gradient-5" x1="122.95" y1="58.34" x2="57.4" y2="112.01" xlink:href="#linear-gradient"/>
    <linearGradient id="linear-gradient-6" x1="157.18" y1="61.65" x2="61.21" y2="140.24" xlink:href="#linear-gradient"/>
    <linearGradient id="linear-gradient-7" x1="168.18" y1="61.1" x2="60.67" y2="149.13" xlink:href="#linear-gradient"/>
    <linearGradient id="linear-gradient-8" x1="129.38" y1="57.45" x2="65.58" y2="109.69" xlink:href="#linear-gradient"/>
    <linearGradient id="linear-gradient-9" x1="154.79" y1="63.27" x2="65.97" y2="135.99" xlink:href="#linear-gradient"/>
    <linearGradient id="linear-gradient-10" x1="145.89" y1="60.6" x2="61.45" y2="129.73" xlink:href="#linear-gradient"/>
    <linearGradient id="linear-gradient-11" x1="76.28" y1="110.88" x2="77.71" y2="2.01" xlink:href="#linear-gradient"/>
    <linearGradient id="linear-gradient-12" x1="13.08" y1="103.49" x2="81.12" y2="150.05" xlink:href="#linear-gradient"/>
    <linearGradient id="linear-gradient-13" x1="22.98" y1="89.02" x2="91.02" y2="135.58" xlink:href="#linear-gradient"/>
    <linearGradient id="linear-gradient-14" x1="10.01" y1="116.46" x2="78.06" y2="163.02" xlink:href="#linear-gradient"/>
    <linearGradient id="linear-gradient-15" x1="24.22" y1="87.2" x2="92.27" y2="133.76" xlink:href="#linear-gradient"/>
    <linearGradient id="linear-gradient-16" x1="23.71" y1="87.95" x2="91.75" y2="134.51" xlink:href="#linear-gradient"/>
    <linearGradient id="linear-gradient-17" x1="10.4" y1="107.4" x2="78.45" y2="153.96" xlink:href="#linear-gradient"/>
    <linearGradient id="linear-gradient-18" x1="17.24" y1="112.98" x2="79.17" y2="155.35" xlink:href="#linear-gradient"/>
    <linearGradient id="linear-gradient-19" x1="16.75" y1="98.11" x2="84.8" y2="144.67" xlink:href="#linear-gradient"/>
    <linearGradient id="linear-gradient-20" x1="1.32" y1="111.26" x2="69.36" y2="157.81" xlink:href="#linear-gradient"/>
    <linearGradient id="linear-gradient-21" x1="6.88" y1="113.26" x2="74.93" y2="159.82" xlink:href="#linear-gradient"/>
  </defs>
  <title>Carrot_3</title>
  <g id="Layer_2" data-name="Layer 2">
    <g id="Layer_1-2" data-name="Layer 1">
      <g>
        <g>
          <g>
            <path class="cls-1" d="M75.45,155.26c2.51-14.71,18.43-49.79,23-60.55s28.14-27.63,30.52-21.59-19.75,11-25.86,23.33-17.26,45.18-21.92,61.26A8.82,8.82,0,0,1,75.45,155.26Z"/>
            <path class="cls-2" d="M88.58,127.67c-5.68,1.82-10.19.09-15.19-3.39s-10.33-14-6.62-19.52,13.73-.8,17.47,3.44S88.82,121.6,88.58,127.67Z"/>
            <path class="cls-3" d="M89.44,130.15c2.73-6.56,8.51-12.36,13.62-16.83s17.88-8.77,21.17-1.45-9,16.63-14.63,19S94.51,133.82,89.44,130.15Z"/>
            <path class="cls-4" d="M96.06,107.22c-4.77.55-8.9-1.61-12.52-4.91S77,89.46,80.75,85.65s11.45,1,14,4.9S96.93,102.38,96.06,107.22Z"/>
            <path class="cls-5" d="M105.25,89.16C100.28,88.77,97,86,94,82s-4.29-13.67.35-16.53,10.87,3.41,12.33,7.73S106.72,84.55,105.25,89.16Z"/>
            <path class="cls-6" d="M104.9,89.72a23.18,23.18,0,0,1,14.08-5c5.84-.31,13.11,5.47,11.37,11.87s-11.57,7.81-16.39,5.64S107.22,94,104.9,89.72Z"/>
            <path class="cls-7" d="M95.93,109.49c3.32-4.69,8-7.75,13.11-10.19s15.28-1.07,15.29,5.77-9.94,11.44-15.43,11.82S99.57,112.79,95.93,109.49Z"/>
            <path class="cls-8" d="M114.37,79.75c-2.87-3.11-3.5-6.9-3.53-11.28s4.18-11.75,9.1-11.38,5.15,8,3.81,11.8S117.67,77,114.37,79.75Z"/>
            <path class="cls-9" d="M116,81.28a17.28,17.28,0,0,1,12.44-2.46c4.89.67,10.09,7.55,8,12.41s-10.36,4.64-14,2S117.63,85.39,116,81.28Z"/>
            <path class="cls-10" d="M125.15,75.34a16.29,16.29,0,0,1,5.75-10.58c3.19-2.89,11.6-5.1,14.66-1.49s-3.45,9.15-6.8,10.74S129.2,75.41,125.15,75.34Z"/>
          </g>
          <path class="cls-11" d="M103.12,103.67c.26-6.27-10-8.51-15.27-8-3.32.34-8.8,4.22-11.72,6.58.49-4.47,2.39-8.55,3.32-13a30.36,30.36,0,0,0,13.12,1.35c6.81-.94,15.27-7.44,13.92-14.1S93.57,72,89,73.83c-2.24.88-6.33,5.41-8.06,7.61.93-6,2.39-12.08,3.08-18.14A23.52,23.52,0,0,0,98.65,66c6.19-.78,14.53-7.36,13-13.71s-12.09-5-16.87-2.71c-3.73,1.82-8.28,8-10.61,11.89.37-4.63.94-9.5.94-14.24a23.56,23.56,0,0,0,13.16-.79c6.06-2.29,12.1-10.83,9.23-16.72s-13.65-1.82-17.8.87c-2.07,1.34-3.92,6.89-4.78,9.46a57,57,0,0,0-2.32-11.74c2.68-3.76,2.95-9.21,2.69-13.58C84.94,8.55,79.71-.65,73.27,0s-6.75,11.33-4.9,16.37c1.37,3.74,8.11,8.7,11.44,11.62.38,2.83.63,5.55.74,8.23-1-2.47-4.29-6.78-6.17-7.8-4.15-2.26-13.82-6.65-16.4-.91s4,13,9.83,14.91c3.63,1.2,8.62,2.31,12.64,1.71-.17,3.58-.56,7.2-1,10.68-.87-1.5-3.18-4.67-4.51-5.35-4-2-14.71-6-17.1-.09s4.09,13.3,10,15.42a25.4,25.4,0,0,0,9.93.93c-.54,3.74-1.42,7.53-2.17,11.15-.85-2.81-3.44-7.69-5.59-9.07-4.3-2.74-15.07-6.39-17.67-.25S56.43,81.7,62.53,83.88a21.52,21.52,0,0,0,11.57.59c-.84,4.18-2.4,8.21-3.5,12.33-2.29-2.61-7.73-6.27-10.68-6.71-5.26-.79-17,0-17.06,6.79S52.41,108.07,59,107.54a28.1,28.1,0,0,0,10.31-3.34c-.69,4.92-1.65,9.9-2.18,14.82-1.69-2.18-5.83-5.62-8.16-6.11-5-1.07-16.79-1.45-17.41,5.51s9,12.65,15.84,12.43A25.8,25.8,0,0,0,67,128.31a122.25,122.25,0,0,0,2,12.11c-2.8-2.28-8.44-6.82-11.5-7.48-5.36-1.16-16.31-.52-16.38,6.61S51.36,151.44,58.41,151c3.71-.25,9.14-1.39,12.32-3.91,1.08,3.44,2.66,7,3.15,10.59l6.44-.92c-.35-3.11-1.81-6.36-2.68-9.32,3.23.25,6.79.45,9.85-.64,6.31-2.24,11.46-8.22,10.56-14.85-.4-2.92-4.21-2.08-5.79-2.92,3.23-2.06,8.21-5.37,8.27-9.7s-7.54-5.18-10.29-6C94.58,112.25,102.9,108.9,103.12,103.67Zm-17.59,9.42a1.59,1.59,0,0,0,.26,0,10,10,0,0,0-1.83.36c-3.88,1.34-7.12,3.8-10.2,6.48.42-4,1-7.88,1.53-11.82A23,23,0,0,0,85.53,113.09ZM79.91,131a16.43,16.43,0,0,0-4.9,6.31c-.57-3.09-1-6.15-1.28-9.27a29,29,0,0,0,7.52,2.25A10.11,10.11,0,0,0,79.91,131Z"/>
          <g>
            <path class="cls-12" d="M78.16,155.38S64.46,124,50,114.61s-34.4-1.56-32.94,1.29,20-3.07,30.11,2.55S72.46,158.3,72.46,158.3Z"/>
            <path class="cls-13" d="M67,138.3s7.16-.07,14.25-7.31,4.11-17.71,1.7-20.07-12.87,3-15.67,9.23S67,138.3,67,138.3Z"/>
            <path class="cls-14" d="M69.24,144.69s-4-5.93-14-7.84-17,6.35-17.68,9.67,9.61,9.06,16.35,7.95S69.24,144.69,69.24,144.69Z"/>
            <path class="cls-15" d="M56.87,124.54s5.71-1.7,9.72-9.1S65.84,100.33,63.37,99s-9.6,5.33-10.42,11S56.87,124.54,56.87,124.54Z"/>
            <path class="cls-16" d="M44,114.51s4.85-3.46,6.24-11.77-5.61-14-8.38-14.51S34.5,96.4,35.56,102,44,114.51,44,114.51Z"/>
            <path class="cls-17" d="M44.39,114.74s-5.87-1-12.78,3.76-6.12,13.82-4.52,16.13,11-.45,14.23-5.11S44.39,114.74,44.39,114.74Z"/>
            <path class="cls-18" d="M60.37,129.75s-4.47-3.07-12-1.67-10.25,9.18-9.78,11.69,9.27,3.74,13.72,1.09S60.37,129.75,60.37,129.75Z"/>
            <path class="cls-19" d="M33,112s1.25-5-2.53-11.31-11.67-6.1-13.76-4.84-.24,9.56,3.63,12.66S33,112,33,112Z"/>
            <path class="cls-20" d="M26,114.24s-5.19,0-10.36,5.22-3.07,12.8-1.34,14.52,9.33-2.1,11.39-6.6S26,114.24,26,114.24Z"/>
            <path class="cls-21" d="M23,115.61s-2.81-4.36-10-5.9S.54,114,0,116.42s6.8,6.71,11.7,6S23,115.61,23,115.61Z"/>
          </g>
        </g>
        <g>
          <path class="cls-22" d="M97,178.32a51.11,51.11,0,0,1-.59,8H56.31a51.25,51.25,0,0,1,.07-7.53,47.25,47.25,0,0,1,1.41-8.48,31,31,0,0,1,2.84-7.12c3.11-5.51,8.36-9.82,17.17-9.82s13.7,4.32,16.32,9.83a29.86,29.86,0,0,1,2.47,8.71A47.93,47.93,0,0,1,97,178.32Z"/>
          <path class="cls-23" d="M96.59,171.87a88,88,0,0,1-19.86,1.87c-9.78,0-15.61-1.78-18.94-3.47a31,31,0,0,1,2.84-7.12,50.84,50.84,0,0,0,16.1,2.71,64.19,64.19,0,0,0,17.39-2.7A29.86,29.86,0,0,1,96.59,171.87Z"/>
          <path class="cls-23" d="M97,178.32a51.11,51.11,0,0,1-.59,8H56.31a51.25,51.25,0,0,1,.07-7.53A83.25,83.25,0,0,0,75,180.9,106,106,0,0,0,97,178.32Z"/>
        </g>
      </g>
    </g>
  </g>
</svg>
