<svg xmlns="http://www.w3.org/2000/svg" xmlns:xlink="http://www.w3.org/1999/xlink" width="109.61" height="186.77" viewBox="0 0 109.61 186.77">
  <defs>
    <style>
      .cls-1 {
        fill: url(#linear-gradient);
      }

      .cls-2 {
        fill: url(#linear-gradient-2);
      }

      .cls-3 {
        fill: #ff931e;
      }

      .cls-4 {
        fill: #ffa61e;
      }
    </style>
    <linearGradient id="linear-gradient" x1="73.47" y1="122.13" x2="82.07" y2="14.69" gradientUnits="userSpaceOnUse">
      <stop offset="0" stop-color="#c5d654"/>
      <stop offset="1" stop-color="#a4bd47"/>
    </linearGradient>
    <linearGradient id="linear-gradient-2" x1="23.21" y1="102.04" x2="79.08" y2="146.45" xlink:href="#linear-gradient"/>
  </defs>
  <title>Carrot_2</title>
  <g id="Layer_2" data-name="Layer 2">
    <g id="Layer_1-2" data-name="Layer 1">
      <g>
        <path class="cls-1" d="M109.57,100.78c-.69-6.48-11.57-8.26-17.33-7.62A24.41,24.41,0,0,0,79.83,99.5c-1.47-6.09-3.91-12.07-4.91-18.25a19.74,19.74,0,0,0,11.83-.68c6.22-2.43,13.77-9.85,11.72-16.28S85,61.49,80.78,64c-2,1.24-5.54,6-6.91,8.45-.3-5.11-.46-10.49-.46-15.67,4.37,2,9.76,3.38,14.51,2.86,5.93-.65,14-7.24,12.34-13.11s-12.54-3.83-17-1.9c-3.45,1.51-7.77,7-9.87,10.58-.07-4,0-8.3.21-12.43a27,27,0,0,0,13.12-.9C92.63,40,99.45,33,96.71,27.07s-12.82-1-16.6,1.78a25.85,25.85,0,0,0-6.23,7.9c.09-3.24.25-6.63.45-9.95C78,24.5,81.69,22,83.46,17.93c2.52-5.82,0-16-6-17.73S67.61,8.76,67.18,13.57c-.31,3.57,2.34,9.39,4.65,12.59-.73,2.4-1.18,4.78-1.68,7.1-.6-2.3-2.27-6.36-3.88-7.76-3.55-3.1-13.51-9.07-17-3.68s1.57,13.84,7.28,16.31a29,29,0,0,0,12.46,2c-.37,3.08-.62,6.3-1,9.36-.95-1.39-3.33-4.08-4.68-4.68-4-1.81-15.29-5.82-17.28.38S51.45,57.71,57.63,59a33.29,33.29,0,0,0,9.94.25c-.06,3.29,0,6.69-.1,9.91-1.5-2.34-5-6.65-7.28-7.61-4.48-1.95-15.83-4.64-17.69,1.74s6,13.31,12.51,14.41c3.77.63,9.17.73,12.93-.91.39,5.21,2.28,10.71,3.29,15.78-2.44-2.27-8-5.63-10.91-5.75-5.18-.22-16.43,1.72-15.65,8.54s11,10.64,17.78,9.86c3.12-.36,7.82-1.52,10.58-3.51,1.21,6.23,3.26,12.34,4.14,18.59-1.89-2-6.36-5.18-8.65-5.45-4.94-.56-16.16.29-16.13,6.84s9,10.77,15.53,10.52a28.37,28.37,0,0,0,9.84-2.57,96,96,0,0,1-1.12,11.28c-1.83-2.61-6.23-6.33-9-6.86-4.84-.93-16.65-.7-17,5.68s8.13,11.46,14.49,11.08c3.35-.2,7.38-1.95,10.45-3.54-.58,3.47-2.11,6.82-2.23,10.4,2.16.16,4.32.3,6.48.47.58-3.25,1.26-6.48,2-9.68a26.94,26.94,0,0,0,12.26.36c7.63-2,13.83-8.59,13.35-16.2-.21-3.34-4-2.23-5.58-3.27,3.41-2.46,8-6.59,7.66-11.27s-8-5.35-11.17-6.18C102.72,110.53,110.15,106.19,109.57,100.78ZM93.44,111.91l.28,0a10.18,10.18,0,0,0-1.83.45c-3.76,1.72-5.9,4.78-8.24,8.09-.62-4.65-1.58-9.26-2.48-13.86A32,32,0,0,0,93.44,111.91ZM89.7,131.79a34.93,34.93,0,0,0-6.19,6.43,78.7,78.7,0,0,0,.56-9.34A27.19,27.19,0,0,0,91,131,9.91,9.91,0,0,0,89.7,131.79Z"/>
        <path class="cls-2" d="M83,110.7c-2.42-2.36-12.87,3-15.67,9.24-1.59,3.56-1.46,9-1,13a101.79,101.79,0,0,0-7-9.74,20.43,20.43,0,0,0,7.32-7.94c4-7.41-.75-15.1-3.22-16.44s-9.6,5.33-10.42,11a19,19,0,0,0,1.11,7.83,30.55,30.55,0,0,0-4-3.18,26.39,26.39,0,0,0-4-2.14,20.55,20.55,0,0,0,4.21-9.73c1.4-8.31-5.61-14-8.38-14.5s-7.35,8.16-6.29,13.75c.56,3,2.9,6.31,5,8.79a33.9,33.9,0,0,0-7.36-.65,17.68,17.68,0,0,0-2.73-9.43c-3.79-6.28-11.67-6.1-13.76-4.83s-.24,9.55,3.63,12.65A15.14,15.14,0,0,0,26,110.76a28,28,0,0,0-5.81,1.91A18.42,18.42,0,0,0,13,109.49C5.81,107.94.54,113.81,0,116.2s6.8,6.72,11.7,6a9.33,9.33,0,0,0,2.06-.56c-2.73,4.89-1,10.63.48,12.1,1.74,1.73,9.33-2.1,11.39-6.6,1.43-3.11,1-8.19.65-11a85,85,0,0,1,10-.38,22.11,22.11,0,0,0-4.73,2.54c-6.92,4.81-6.12,13.83-4.52,16.13s11-.45,14.23-5.1c2.25-3.21,2.85-9,3-12.31a16.13,16.13,0,0,1,2.88,1.24c2.75,1.53,5.87,5.18,8.95,9.67a19.67,19.67,0,0,0-7.8,0c-7.54,1.4-10.25,9.18-9.78,11.7.13.73,1,1.34,2.2,1.79a11.28,11.28,0,0,0-3.18,5c-.63,3.31,9.61,9.06,16.35,7.95,4.59-.75,10-5,13-7.64,3.3,6.48,5.51,11.47,5.51,11.47l5.7-2.92a186.14,186.14,0,0,0-9-17.38,24.2,24.2,0,0,0,12-7C88.33,123.54,85.36,113.06,83,110.7ZM56.18,136.83A36.41,36.41,0,0,0,59,132.3c1.43,2.32,2.83,4.74,4.15,7.13A26.59,26.59,0,0,0,56.18,136.83Z"/>
        <g>
          <path class="cls-3" d="M96.29,178.82a51.74,51.74,0,0,1-.58,8H55.6a49.48,49.48,0,0,1,.07-7.52,47.18,47.18,0,0,1,1.4-8.48,31.58,31.58,0,0,1,2.84-7.13c3.11-5.5,8.36-9.82,17.17-9.82s13.7,4.32,16.33,9.84a30,30,0,0,1,2.46,8.71A46.34,46.34,0,0,1,96.29,178.82Z"/>
          <path class="cls-4" d="M95.87,172.37A88,88,0,0,1,76,174.24c-9.78,0-15.61-1.78-18.94-3.47a31.58,31.58,0,0,1,2.84-7.13A50.52,50.52,0,0,0,76,166.36a64.67,64.67,0,0,0,17.4-2.7A30,30,0,0,1,95.87,172.37Z"/>
          <path class="cls-4" d="M96.29,178.82a51.74,51.74,0,0,1-.58,8H55.6a49.48,49.48,0,0,1,.07-7.52,83.08,83.08,0,0,0,18.58,2.15A106,106,0,0,0,96.29,178.82Z"/>
        </g>
      </g>
    </g>
  </g>
</svg>
