<svg xmlns="http://www.w3.org/2000/svg" xmlns:xlink="http://www.w3.org/1999/xlink" width="99.59" height="185.83" viewBox="0 0 99.59 185.83">
  <defs>
    <style>
      .cls-1 {
        fill: url(#linear-gradient);
      }

      .cls-2 {
        fill: url(#linear-gradient-2);
      }

      .cls-3 {
        fill: #ff931e;
      }

      .cls-4 {
        fill: #ffa61e;
      }
    </style>
    <linearGradient id="linear-gradient" x1="42.46" y1="105.92" x2="26.7" y2="149.26" gradientTransform="translate(-12.24 34.86) rotate(-6.33)" gradientUnits="userSpaceOnUse">
      <stop offset="0" stop-color="#c5d654"/>
      <stop offset="1" stop-color="#a4bd47"/>
    </linearGradient>
    <linearGradient id="linear-gradient-2" x1="19.86" y1="136" x2="29.17" y2="106.99" xlink:href="#linear-gradient"/>
  </defs>
  <title>Carrot</title>
  <g id="Layer_2" data-name="Layer 2">
    <g id="Layer_1-2" data-name="Layer 1">
      <g>
        <path class="cls-1" d="M99.58,98.34c.3-6.51-9.32-10-15-10.06-3.52,0-8.18,2.82-10.9,5.58a96.75,96.75,0,0,0-.22-16.14c4,1,9.24-.35,12.73-1.76C92.5,73.41,99.4,65.17,96.31,59s-14.22-1.44-18.55,1.41c-2.11,1.39-4.88,6.49-5.79,9.26a91.1,91.1,0,0,0-5.57-18c4.89.43,9.29-1.53,13.18-4.51,4.85-3.71,8.78-13.67,4.44-18.42s-12.88,1.7-15.71,6C66.1,38.12,65.87,45.56,65.69,50a100.82,100.82,0,0,0-6.82-12.52,22.18,22.18,0,0,0,10.77-7.08c3.88-4.92,4.72-15.35-.57-18.9s-13,5.64-15.26,10c-1.1,2.18.29,7.59,1,10.16a92.71,92.71,0,0,0-8.13-8.75c1.07-4.45-1.76-9.25-3.6-13C40.44,4.46,32.76-2.2,27.12.94s-2.23,13,1.29,17.11c2.62,3.05,11.14,4.73,15.41,5.8,1.72,2.32,3.44,4.49,5,6.69-2.18-1.43-7.44-3.85-9.58-3.87-4.73,0-15.21.43-14.84,6.91s10.21,9.36,16.39,8c3.88-.85,9-1.94,12.39-4.55a96.38,96.38,0,0,1,5,9.19c-1.39-.94-5.36-2.39-6.7-2.31-4.06.23-14.95.2-14.55,6.23s9.82,9.17,15.74,8.74c2.57-.19,7.07-1.19,9.54-2.7a60.41,60.41,0,0,1,2.72,10.72c-1.8-2.31-6.58-5.84-9-6.2C51,60,39.24,60,38.75,66.34s8.84,11.07,15.2,11a27.46,27.46,0,0,0,12.28-3.13,76.78,76.78,0,0,1,1.19,13.42c-2.34-2.82-8.26-5.51-11.27-5.47-5.36.07-16.65,3.34-15.29,9.8s11.88,8.76,17.91,7.56a27,27,0,0,0,8.84-3.85c-.54,6.44-3.15,12.43-5.36,18.41-1.32-2.78-5.48-6.14-7.62-7.09-4.59-2-15.93-5.35-17.94,1s4.2,14.12,11,16.33c2.85.93,7.88.8,11.07-.08-1.57,4.26-3.32,8.65-5.16,12.75-1-3.38-4.37-9.09-6.84-10.69-4.33-2.8-15.59-6.63-18-.4s3.77,14.6,10.15,17.22a20.26,20.26,0,0,0,11.84.8c-1.39,3.6-2.86,7.17-3.9,10.91,1.9.8,3.78,1.74,5.73,2.41,1.44-3.36,2.86-6.76,4.28-10.12a21.69,21.69,0,0,0,12.4,2.49,20.63,20.63,0,0,0,18.26-15c.92-3.55-2.78-3.38-4.22-4.9,4.48-2.2,10.45-6.55,11.53-11.65s-5.16-7.45-8.32-9.29C91.34,108.16,99.33,103.78,99.58,98.34ZM82,108.16a1.35,1.35,0,0,0,.24.08,8.14,8.14,0,0,0-1.84.28c-4.32,1.46-7.75,4.42-11.35,7.19a119.8,119.8,0,0,0,3.87-14.66A21.72,21.72,0,0,0,82,108.16ZM70.26,130a43,43,0,0,0-8.81,6c1.45-3.54,2.91-7.08,4.27-10.66a22.24,22.24,0,0,0,6.22,4A13,13,0,0,0,70.26,130Z"/>
        <path class="cls-2" d="M78.1,97.22C76.31,90.94,65.32,91,59.66,92.68c-3.52,1.07-8.86,5.3-11.1,8.89-2.28-4.8-6.16-7.88-9-12.25a17.24,17.24,0,0,0,9.77-1.69c5.44-2.8,11.44-11.32,8.31-17.11S44.12,69.38,40,72.45c-2,1.49-4.19,6.36-4.56,9.29-2.3-5.78-4.89-11.59-6-17.8A23.67,23.67,0,0,0,44,63.17c5.6-2,12.51-10,9.89-15.5s-12.79-1.76-17,1.1c-3.25,2.23-6.63,9-7.74,13.38a133.28,133.28,0,0,1-2-14,24.8,24.8,0,0,0,12.79-2.94c5.45-2.9,11.4-11,8.27-16.33s-12.12-.3-15.56,2.84a29.06,29.06,0,0,0-5.75,9.46c-.1-3.73-.14-8,.84-11.76,3.88-2.89,8.59-6.95,10.57-11.21,2.81-6.06.5-16.16-5.6-18S22.6,8.6,22,13.75c-.44,3.82,1.28,10.94,3.28,14.91a77.28,77.28,0,0,0-2.16,8.67c-.5-2.41-1.89-7.54-3.49-9-3.52-3.25-14.35-7.79-17.48-2.06s2.36,14.46,7.91,17.88a16.6,16.6,0,0,0,12.32,1.58c-.06,3.73.06,7.47.3,11.12-1.21-1.35-3.83-4.07-5.32-4.64-4.5-1.74-16.07-2.53-17,4.28s7.51,12.67,14.25,13a25.31,25.31,0,0,0,9.68-1.56A92.11,92.11,0,0,0,27.3,79c-2.37-1.95-6.85-6.48-9.4-7.18C12.8,70.42.77,69.49,0,76.55s8.73,12.56,15.9,12.72c4.12.08,10.52-.91,14.51-3C33,90.45,36.75,93.46,39,97.8c-2.61-1.56-8.14-4.53-10.82-4.34-4.78.33-15.38,3.64-13.44,10s12.2,8.78,18.69,6.79a22.51,22.51,0,0,0,9.08-5.42c2.07,4.72,4.65,9.21,6.24,14.07-2.25-1.43-7.43-4.31-9.64-4.52-4.75-.44-16.27.88-15.58,7.22s9.34,9.48,15.65,9.19a28.14,28.14,0,0,0,10.05-3,63.39,63.39,0,0,1-2.11,11.78c-1.52-2.74-5.69-6.52-8.36-7-4.68-.83-17.22-.78-17.6,5.25S28.66,148.9,34.69,149c3.18.08,7.43-1.51,10.46-2.81a43.47,43.47,0,0,0-1.9,10.67l6.26.55a75.28,75.28,0,0,1,2.32-9.93,29,29,0,0,0,13.7-.67c8.06-2.58,14.3-9.87,13.66-17.89-.28-3.52-4-1.94-5.65-2.94,3.27-2.75,7.62-7.42,6.79-12.09s-8.5-4.34-11.71-4.78C72.6,107.37,79.59,102.45,78.1,97.22ZM63.81,109.86h.27a9.33,9.33,0,0,0-1.69.68c-3.38,2-5,4.81-7,8.06a110.49,110.49,0,0,0-4.3-11.4A35,35,0,0,0,63.81,109.86ZM61.4,129.5a50.28,50.28,0,0,0-6.83,7.15,72,72,0,0,0,1.28-9.81,23.18,23.18,0,0,0,6.91,1.75A12.4,12.4,0,0,0,61.4,129.5Z"/>
        <g>
          <path class="cls-3" d="M67.29,177.88a51,51,0,0,1-.59,8H26.59a51.13,51.13,0,0,1,.07-7.52,47.18,47.18,0,0,1,1.4-8.48,31,31,0,0,1,2.85-7.13c3.11-5.51,8.36-9.82,17.17-9.82s13.69,4.32,16.32,9.84a29.68,29.68,0,0,1,2.47,8.71A47.83,47.83,0,0,1,67.29,177.88Z"/>
          <path class="cls-4" d="M66.87,171.43A88.64,88.64,0,0,1,47,173.3c-9.77,0-15.6-1.78-18.94-3.47a31,31,0,0,1,2.85-7.13A50.51,50.51,0,0,0,47,165.42a64.6,64.6,0,0,0,17.4-2.7A29.68,29.68,0,0,1,66.87,171.43Z"/>
          <path class="cls-4" d="M67.29,177.88a51,51,0,0,1-.59,8H26.59a51.13,51.13,0,0,1,.07-7.52,83.77,83.77,0,0,0,18.59,2.15A106.11,106.11,0,0,0,67.29,177.88Z"/>
        </g>
      </g>
    </g>
  </g>
</svg>
