<svg xmlns="http://www.w3.org/2000/svg" xmlns:xlink="http://www.w3.org/1999/xlink" width="88.165" height="187.884" viewBox="0 0 88.165 187.884">
  <defs>
    <linearGradient id="a" x1="31.025" y1="26.118" x2="33.89" y2="86.465" gradientUnits="userSpaceOnUse">
      <stop offset="0" stop-color="#c5d654"/>
      <stop offset="1" stop-color="#a4bd47"/>
    </linearGradient>
    <linearGradient id="b" x1="46.084" y1="219.293" x2="31.579" y2="255.466" gradientTransform="matrix(0.976, 0.216, -0.216, 0.976, 44.485, -94.459)" xlink:href="#a"/>
    <linearGradient id="c" x1="138.486" y1="427.837" x2="123.981" y2="464.01" gradientTransform="matrix(0.755, 0.656, -0.656, 0.755, 234.223, -269.668)" xlink:href="#a"/>
    <linearGradient id="d" x1="38.616" y1="216.299" x2="24.111" y2="252.471" gradientTransform="matrix(0.976, 0.216, -0.216, 0.976, 44.485, -94.459)" xlink:href="#a"/>
    <linearGradient id="e" x1="30.357" y1="212.987" x2="15.852" y2="249.159" gradientTransform="matrix(0.976, 0.216, -0.216, 0.976, 44.485, -94.459)" xlink:href="#a"/>
    <linearGradient id="f" x1="52.39" y1="221.822" x2="37.885" y2="257.994" gradientTransform="matrix(0.976, 0.216, -0.216, 0.976, 44.485, -94.459)" xlink:href="#a"/>
    <linearGradient id="g" x1="131.569" y1="509.43" x2="117.064" y2="545.603" gradientTransform="matrix(0.433, 0.656, -0.834, 0.551, 410.923, -241.728)" xlink:href="#a"/>
    <linearGradient id="h" x1="30.255" y1="212.946" x2="15.75" y2="249.118" gradientTransform="matrix(0.976, 0.216, -0.216, 0.976, 44.485, -94.459)" xlink:href="#a"/>
    <linearGradient id="i" x1="50.156" y1="220.926" x2="35.651" y2="257.098" gradientTransform="matrix(0.976, 0.216, -0.216, 0.976, 44.485, -94.459)" xlink:href="#a"/>
    <linearGradient id="j" x1="38.955" y1="216.435" x2="24.45" y2="252.607" gradientTransform="matrix(0.976, 0.216, -0.216, 0.976, 44.485, -94.459)" xlink:href="#a"/>
    <linearGradient id="k" x1="49.045" y1="220.48" x2="34.54" y2="256.653" gradientTransform="matrix(0.976, 0.216, -0.216, 0.976, 44.485, -94.459)" xlink:href="#a"/>
  </defs>
  <title>Carrot_1</title>
  <g>
    <path d="M67.695,107c.785-6.259-9.258-9.538-14.508-9.584-3.274-.029-8.46,3.057-11.224,5.355.83-4.494,2.26-8.952,2.283-13.6a25.1,25.1,0,0,0,12.536.553c6.524-1.475,14.529-8.549,12.672-15.091s-13.338-3.7-17.948-1.576c-2.24,1.031-5.943,5.591-7.29,8.168-.147-6.027-.889-12.111-1.449-18.168A21.657,21.657,0,0,0,56.822,64c5.868-1.548,13.308-9.159,11.166-15.13S55.3,45.611,50.965,48.365c-3.392,2.152-6.807,8.732-8.334,12.894-.508-4.578-.908-9.408-1.477-14.063a23.7,23.7,0,0,0,12.915-2.242c5.61-2.86,11.3-11.528,8.081-17.114S48.619,27.6,44.869,30.69C43,32.234,40.9,37.551,40.257,40.29c-.579-3.718-1.1-7.63-1.814-11.445,3.212-3.23,5.083-8.083,5.967-12.364C45.667,10.394,42.4.523,35.987.017s-8.636,10.227-8.228,15.448c.3,3.877,4.978,9.863,7.955,12.93,0,2.864.018,5.615.056,8.3-1.005-2.358-3.782-6.883-5.632-8.053-4.08-2.578-14.243-6.849-17-.875s3.878,13.784,10.037,15.789A27.416,27.416,0,0,0,36.148,44.6c.232,3.525.477,7.143.567,10.612-1.026-1.436-3.859-4.282-5.241-4.8-4.158-1.547-14.9-4.443-16.483,1.824s6.249,12.64,12.44,14.007a25.712,25.712,0,0,0,9.816-.119c.223,3.671.657,7.458.615,11.051-1.438-2.582-5.4-7.223-7.675-8.248-4.559-2.052-15.77-4.862-17.593,1.56s6.114,13.367,12.6,14.734a27.29,27.29,0,0,0,12.787-.631,107.794,107.794,0,0,1-.468,12.093c-2.017-2.437-6.085-6.533-8.87-7.042-4.97-.908-16.122.162-16.05,6.6S22,107.207,28.052,106.91a19.65,19.65,0,0,0,8-2.737c-1.5,5.268-4.215,10.038-5.9,15.266-1.419-2.609-5.593-6.076-7.929-6.823C17.2,111.008,5.2,109.274,3.732,116.064s7.2,13.231,13.934,13.857a27.542,27.542,0,0,0,10.11-1.276,40.258,40.258,0,0,0-.306,11.9c-2.5-2.418-7.2-7.649-10.1-8.606-5.09-1.677-16.36-2.623-17.3,4.436s8.653,13.08,15.8,13.466c3.76.2,9.736-.374,13.237-2.647,1.52,3.706,3.814,6.859,4.772,10.744,2.183-.322,4.376-.615,6.562-.935-.461-3.261-2.881-6.144-4.3-8.985,3.054.469,5.811,1.4,8.984.822,6.551-1.192,12.494-6.4,12.987-13.047.217-2.918-3.766-2.631-5.135-3.6,3.734-1.693,9.453-4.721,10.211-9.167s-6.5-6.14-9.146-7.408C58.532,115.064,67.041,112.216,67.695,107Zm-18.221,7.964a2.086,2.086,0,0,0,.247.069,10.122,10.122,0,0,0-1.845.182c-4.1,1.025-7.6,3.383-11.078,5.761,1.163-4.055,2.485-8.044,3.522-12.14A21.082,21.082,0,0,0,49.474,114.961Zm-9.3,17.844a16.618,16.618,0,0,0-6.368,5.525A32.372,32.372,0,0,1,34.6,129.2a27.137,27.137,0,0,0,7.083,3.056A12.75,12.75,0,0,0,40.177,132.805Z" fill="url(#a)"/>
    <g>
      <path d="M52.975,140.514a20.68,20.68,0,0,1-15.039.137c-5.185-1.836-13.7-8.452-11.25-14.791s12.166-3.821,17.088-.818S51.887,134.7,52.975,140.514Z" fill="url(#b)"/>
      <path d="M47.347,142.6c4.571-4.718,10.706-8.493,16.376-11.747s20.125-7.8,21.789,1.38S73.9,147.555,66.518,149.078A19.186,19.186,0,0,1,47.347,142.6Z" fill="url(#c)"/>
      <path d="M54.3,120.714a17.189,17.189,0,0,1-13.181-1.154c-4.41-2.164-10.812-8.746-8.07-13.93s10.775-3.735,14.821-.395S53.167,115.666,54.3,120.714Z" fill="url(#d)"/>
      <path d="M57.866,99.131A13.577,13.577,0,0,1,44.708,96.5c-4.1-3.261-8.67-11.141-5.13-15.715s10.565-2.243,14.11,1.646S57.672,93.838,57.866,99.131Z" fill="url(#e)"/>
      <path d="M57.637,99.943c3.725-5.114,6.343-9.107,12.135-12.4s14.042-.571,14.579,6.951-6.958,14.228-13.671,14.229S62.114,103.332,57.637,99.943Z" fill="url(#f)"/>
      <path d="M53,115.861a50.443,50.443,0,0,1,16.614-5.016c5.762-.879,14.68,1.449,10.409,8.016s-14.171,7.78-19.967,6.652S54.82,119.853,53,115.861Z" fill="url(#g)"/>
      <path d="M63.386,84.667c-4.087-2.247-6.032-5.4-7.644-9.873s-1.7-13.085,3.483-15.018,7.91,4.187,8.275,8.943S65.371,80.027,63.386,84.667Z" fill="url(#h)"/>
      <path d="M65.443,85.425c3.083-4.118,5.462-7.609,10.715-9.228s12.142,3.768,12,9.451-6.878,10.167-12.125,9.128S68.876,88.788,65.443,85.425Z" fill="url(#i)"/>
      <path d="M71.589,74.176a18.859,18.859,0,0,1,.862-12.861c1.944-4.153,7.894-9.726,12.544-7.5S86,63.02,83.259,66.129,75.324,71.945,71.589,74.176Z" fill="url(#j)"/>
      <path d="M34.92,155.288c16.5-15.906,15.447-25.505,17.386-43.888S66.828,69.841,72.982,72.159c2.37.893-12.6,20-15.569,38.838s2.258,31.608-18.337,48.959C37.062,160.019,35.614,158.768,34.92,155.288Z" fill="url(#k)"/>
    </g>
    <g>
      <path d="M56.609,179.933a51.259,51.259,0,0,1-.587,7.951H15.91a50.558,50.558,0,0,1,.071-7.521,47.127,47.127,0,0,1,1.4-8.481,31.049,31.049,0,0,1,2.844-7.127c3.108-5.508,8.359-9.82,17.169-9.82s13.7,4.319,16.324,9.834a29.9,29.9,0,0,1,2.464,8.71A47.176,47.176,0,0,1,56.609,179.933Z" fill="#ff931e"/>
      <path d="M56.186,173.479a88.158,88.158,0,0,1-19.862,1.87c-9.778,0-15.608-1.777-18.939-3.467a31.049,31.049,0,0,1,2.844-7.127,50.648,50.648,0,0,0,16.1,2.715,64.421,64.421,0,0,0,17.4-2.7A29.9,29.9,0,0,1,56.186,173.479Z" fill="#ffa61e"/>
      <path d="M56.609,179.933a51.259,51.259,0,0,1-.587,7.951H15.91a50.558,50.558,0,0,1,.071-7.521,83.528,83.528,0,0,0,18.588,2.149A106.365,106.365,0,0,0,56.609,179.933Z" fill="#ffa61e"/>
    </g>
  </g>
</svg>
