<svg xmlns="http://www.w3.org/2000/svg" xmlns:xlink="http://www.w3.org/1999/xlink" width="146.364" height="186.275" viewBox="0 0 146.364 186.275">
  <defs>
    <linearGradient id="a" x1="154.625" y1="71.042" x2="63.352" y2="145.776" gradientUnits="userSpaceOnUse">
      <stop offset="0" stop-color="#c5d654"/>
      <stop offset="1" stop-color="#a4bd47"/>
    </linearGradient>
    <linearGradient id="b" x1="136.656" y1="67.766" x2="61.461" y2="129.335" xlink:href="#a"/>
    <linearGradient id="c" x1="172.362" y1="68.726" x2="70.132" y2="152.431" xlink:href="#a"/>
    <linearGradient id="d" x1="131.717" y1="60.956" x2="56.022" y2="122.935" xlink:href="#a"/>
    <linearGradient id="e" x1="122.954" y1="58.339" x2="57.399" y2="112.015" xlink:href="#a"/>
    <linearGradient id="f" x1="157.183" y1="61.653" x2="61.205" y2="140.239" xlink:href="#a"/>
    <linearGradient id="g" x1="168.183" y1="61.099" x2="60.674" y2="149.127" xlink:href="#a"/>
    <linearGradient id="h" x1="129.376" y1="57.449" x2="65.579" y2="109.685" xlink:href="#a"/>
    <linearGradient id="i" x1="154.786" y1="63.273" x2="65.972" y2="135.994" xlink:href="#a"/>
    <linearGradient id="j" x1="145.887" y1="60.597" x2="61.45" y2="129.734" xlink:href="#a"/>
    <linearGradient id="k" x1="76.276" y1="110.88" x2="77.708" y2="2.005" xlink:href="#a"/>
    <linearGradient id="l" x1="13.076" y1="103.49" x2="81.123" y2="150.049" xlink:href="#a"/>
    <linearGradient id="m" x1="22.976" y1="89.02" x2="91.024" y2="135.579" xlink:href="#a"/>
    <linearGradient id="n" x1="10.008" y1="116.459" x2="78.055" y2="163.018" xlink:href="#a"/>
    <linearGradient id="o" x1="24.224" y1="87.197" x2="92.271" y2="133.756" xlink:href="#a"/>
    <linearGradient id="p" x1="23.706" y1="87.954" x2="91.753" y2="134.513" xlink:href="#a"/>
    <linearGradient id="q" x1="10.399" y1="107.403" x2="78.446" y2="153.961" xlink:href="#a"/>
    <linearGradient id="r" x1="17.239" y1="112.977" x2="79.166" y2="155.349" xlink:href="#a"/>
    <linearGradient id="s" x1="16.755" y1="98.114" x2="84.802" y2="144.672" xlink:href="#a"/>
    <linearGradient id="t" x1="1.316" y1="111.256" x2="69.363" y2="157.815" xlink:href="#a"/>
    <linearGradient id="u" x1="6.882" y1="113.26" x2="74.929" y2="159.819" xlink:href="#a"/>
  </defs>
  <title>Carrot_3</title>
  <g>
    <g>
      <g>
        <path d="M75.454,155.256c2.506-14.708,18.424-49.787,22.961-60.548s28.134-27.632,30.52-21.585-19.757,10.99-25.866,23.327-17.264,45.18-21.922,61.264A8.822,8.822,0,0,1,75.454,155.256Z" fill="url(#a)"/>
        <path d="M88.577,127.668c-5.675,1.825-10.183.095-15.188-3.388s-10.331-14.042-6.623-19.521,13.731-.8,17.472,3.436S88.821,121.6,88.577,127.668Z" fill="url(#b)"/>
        <path d="M89.437,130.155c2.731-6.566,8.518-12.366,13.622-16.832s17.882-8.777,21.171-1.454S115.186,128.5,109.6,130.915,94.512,133.816,89.437,130.155Z" fill="url(#c)"/>
        <path d="M96.058,107.221c-4.764.546-8.9-1.607-12.513-4.912s-6.574-12.852-2.8-16.654S92.2,86.705,94.71,90.548,96.931,102.377,96.058,107.221Z" fill="url(#d)"/>
        <path d="M105.249,89.162C100.284,88.773,97,86.015,94.025,82s-4.291-13.672.349-16.527,10.868,3.41,12.33,7.727S106.723,84.552,105.249,89.162Z" fill="url(#e)"/>
        <path d="M104.9,89.722a23.18,23.18,0,0,1,14.082-4.966c5.831-.3,13.107,5.479,11.361,11.87s-11.565,7.809-16.382,5.648S107.223,93.988,104.9,89.722Z" fill="url(#f)"/>
        <path d="M95.933,109.487c3.321-4.689,8.011-7.749,13.112-10.189s15.277-1.073,15.285,5.775-9.937,11.441-15.43,11.814S99.566,112.794,95.933,109.487Z" fill="url(#g)"/>
        <path d="M114.367,79.748c-2.863-3.113-3.492-6.9-3.523-11.275s4.18-11.756,9.1-11.388,5.148,8.034,3.8,11.8S117.674,76.985,114.367,79.748Z" fill="url(#h)"/>
        <path d="M116,81.275a17.312,17.312,0,0,1,12.439-2.453c4.893.668,10.093,7.549,8.028,12.413s-10.356,4.638-14.008,2.027S117.635,85.394,116,81.275Z" fill="url(#i)"/>
        <path d="M125.147,75.345A16.312,16.312,0,0,1,130.9,64.756c3.193-2.89,11.6-5.1,14.666-1.491s-3.458,9.16-6.809,10.742S129.2,75.409,125.147,75.345Z" fill="url(#j)"/>
      </g>
      <path d="M103.119,103.671c.265-6.275-9.944-8.507-15.268-7.953-3.32.345-8.8,4.225-11.717,6.584.484-4.47,2.382-8.551,3.312-12.986a30.472,30.472,0,0,0,13.129,1.356c6.8-.946,15.262-7.44,13.913-14.1s-12.913-4.556-17.523-2.743c-2.24.881-6.34,5.407-8.068,7.612.928-5.953,2.4-12.085,3.08-18.147a23.549,23.549,0,0,0,14.677,2.747c6.188-.779,14.522-7.361,13.018-13.709S99.581,47.287,94.8,49.62c-3.733,1.823-8.281,7.961-10.616,11.888.375-4.629.947-9.5.945-14.233a23.48,23.48,0,0,0,13.153-.8c6.067-2.285,12.1-10.831,9.234-16.716s-13.648-1.817-17.8.864c-2.073,1.34-3.925,6.9-4.784,9.466a56.49,56.49,0,0,0-2.324-11.737c2.686-3.764,2.958-9.216,2.7-13.588C84.936,8.55,79.708-.649,73.268.036s-6.745,11.331-4.9,16.37c1.371,3.741,8.107,8.7,11.437,11.622.383,2.83.632,5.55.744,8.23-.949-2.466-4.286-6.774-6.167-7.8-4.149-2.26-13.819-6.645-16.407-.912s4.039,12.986,9.83,14.909c3.63,1.207,8.621,2.309,12.648,1.712-.178,3.577-.564,7.2-1.028,10.684-.869-1.506-3.175-4.673-4.511-5.347-4.019-2.029-14.709-5.991-17.1-.094s4.087,13.3,10,15.419a25.378,25.378,0,0,0,9.928.933c-.542,3.739-1.422,7.523-2.169,11.152-.85-2.815-3.441-7.7-5.59-9.072-4.3-2.747-15.073-6.39-17.667-.257S56.434,81.7,62.53,83.882a21.54,21.54,0,0,0,11.574.586c-.84,4.178-2.406,8.217-3.5,12.328-2.289-2.607-7.733-6.267-10.681-6.709-5.262-.787-16.953,0-17.065,6.789s9.552,11.2,16.157,10.667A28.25,28.25,0,0,0,69.318,104.2c-.686,4.921-1.645,9.905-2.179,14.821-1.689-2.18-5.825-5.618-8.161-6.114-5.03-1.066-16.784-1.451-17.4,5.51s8.991,12.649,15.839,12.437A25.873,25.873,0,0,0,67,128.313a121.442,121.442,0,0,0,1.951,12.109c-2.8-2.281-8.436-6.818-11.495-7.482-5.365-1.165-16.317-.52-16.38,6.607s10.285,11.889,17.334,11.412c3.71-.252,9.146-1.389,12.322-3.908,1.079,3.442,2.66,7,3.152,10.587l6.44-.917c-.348-3.113-1.808-6.359-2.679-9.318,3.227.247,6.793.444,9.849-.642,6.311-2.24,11.454-8.218,10.556-14.855-.395-2.914-4.2-2.079-5.783-2.916,3.231-2.059,8.207-5.37,8.271-9.7s-7.543-5.189-10.291-6.041C94.581,112.255,102.9,108.905,103.119,103.671Zm-17.593,9.418a2.344,2.344,0,0,0,.259.041,10.74,10.74,0,0,0-1.828.356c-3.872,1.344-7.113,3.8-10.2,6.488.421-3.959.96-7.88,1.535-11.82A23.088,23.088,0,0,0,85.526,113.089Zm-5.619,17.942a16.506,16.506,0,0,0-4.894,6.306c-.568-3.083-.971-6.144-1.286-9.262a29.537,29.537,0,0,0,7.52,2.245A10.434,10.434,0,0,0,79.907,131.031Z" fill="url(#k)"/>
      <g>
        <path d="M78.159,155.377S64.46,124,50.036,114.605s-34.4-1.55-32.934,1.3,20.023-3.075,30.11,2.55S72.459,158.3,72.459,158.3Z" fill="url(#l)"/>
        <path d="M67,138.3s7.162-.075,14.249-7.312,4.112-17.711,1.7-20.073-12.861,3-15.661,9.237S67,138.3,67,138.3Z" fill="url(#m)"/>
        <path d="M69.242,144.691s-4.017-5.93-13.964-7.842S38.241,143.2,37.6,146.517s9.6,9.066,16.349,7.956S69.242,144.691,69.242,144.691Z" fill="url(#n)"/>
        <path d="M56.865,124.538s5.711-1.695,9.728-9.1-.752-15.1-3.221-16.442-9.6,5.334-10.418,10.961S56.865,124.538,56.865,124.538Z" fill="url(#o)"/>
        <path d="M43.99,114.505s4.851-3.457,6.245-11.765-5.617-14.041-8.387-14.5S34.5,96.4,35.555,101.985,43.99,114.505,43.99,114.505Z" fill="url(#p)"/>
        <path d="M44.387,114.741s-5.863-1.054-12.78,3.755-6.119,13.829-4.516,16.135,10.975-.448,14.234-5.107S44.387,114.741,44.387,114.741Z" fill="url(#q)"/>
        <path d="M60.368,129.747s-4.469-3.068-12.007-1.668-10.251,9.183-9.784,11.7,9.272,3.735,13.719,1.09S60.368,129.747,60.368,129.747Z" fill="url(#r)"/>
        <path d="M32.973,112.015s1.248-5.033-2.536-11.313-11.665-6.1-13.758-4.837-.234,9.557,3.628,12.652S32.973,112.015,32.973,112.015Z" fill="url(#s)"/>
        <path d="M25.967,114.243s-5.184.015-10.354,5.216-3.072,12.8-1.338,14.522,9.326-2.1,11.387-6.6S25.967,114.243,25.967,114.243Z" fill="url(#t)"/>
        <path d="M22.953,115.61s-2.811-4.357-9.978-5.9S.541,114.027.026,116.416s6.8,6.718,11.7,6.024S22.953,115.61,22.953,115.61Z" fill="url(#u)"/>
      </g>
    </g>
    <g>
      <path d="M97.011,178.325a51.152,51.152,0,0,1-.588,7.95H56.311a50.655,50.655,0,0,1,.072-7.521,47.014,47.014,0,0,1,1.4-8.48,31.056,31.056,0,0,1,2.844-7.128c3.108-5.508,8.359-9.82,17.169-9.82s13.7,4.319,16.324,9.835a29.9,29.9,0,0,1,2.464,8.71A47.166,47.166,0,0,1,97.011,178.325Z" fill="#ff931e"/>
      <path d="M96.588,171.871a88.181,88.181,0,0,1-19.862,1.869c-9.778,0-15.608-1.776-18.939-3.466a31.056,31.056,0,0,1,2.844-7.128,50.648,50.648,0,0,0,16.1,2.715,64.432,64.432,0,0,0,17.4-2.7A29.9,29.9,0,0,1,96.588,171.871Z" fill="#ffa61e"/>
      <path d="M97.011,178.325a51.152,51.152,0,0,1-.588,7.95H56.311a50.655,50.655,0,0,1,.072-7.521A83.469,83.469,0,0,0,74.971,180.9,106.39,106.39,0,0,0,97.011,178.325Z" fill="#ffa61e"/>
    </g>
  </g>
</svg>
