<svg xmlns="http://www.w3.org/2000/svg" xmlns:xlink="http://www.w3.org/1999/xlink" width="88.16" height="187.88" viewBox="0 0 88.16 187.88">
  <defs>
    <style>
      .cls-1 {
        fill: url(#linear-gradient);
      }

      .cls-2 {
        fill: url(#linear-gradient-2);
      }

      .cls-3 {
        fill: url(#linear-gradient-3);
      }

      .cls-4 {
        fill: url(#linear-gradient-4);
      }

      .cls-5 {
        fill: url(#linear-gradient-5);
      }

      .cls-6 {
        fill: url(#linear-gradient-6);
      }

      .cls-7 {
        fill: url(#linear-gradient-7);
      }

      .cls-8 {
        fill: url(#linear-gradient-8);
      }

      .cls-9 {
        fill: url(#linear-gradient-9);
      }

      .cls-10 {
        fill: url(#linear-gradient-10);
      }

      .cls-11 {
        fill: url(#linear-gradient-11);
      }

      .cls-12 {
        fill: #ff931e;
      }

      .cls-13 {
        fill: #ffa61e;
      }
    </style>
    <linearGradient id="linear-gradient" x1="31.02" y1="26.12" x2="33.89" y2="86.47" gradientUnits="userSpaceOnUse">
      <stop offset="0" stop-color="#c5d654"/>
      <stop offset="1" stop-color="#a4bd47"/>
    </linearGradient>
    <linearGradient id="linear-gradient-2" x1="41.79" y1="193.64" x2="27.29" y2="229.81" gradientTransform="matrix(0.98, 0.22, -0.22, 0.98, 43.14, -68.48)" xlink:href="#linear-gradient"/>
    <linearGradient id="linear-gradient-3" x1="104.7" y1="351.05" x2="90.19" y2="387.22" gradientTransform="matrix(0.76, 0.66, -0.66, 0.76, 209.39, -189.54)" xlink:href="#linear-gradient"/>
    <linearGradient id="linear-gradient-4" x1="34.32" y1="190.64" x2="19.82" y2="226.81" gradientTransform="matrix(0.98, 0.22, -0.22, 0.98, 43.14, -68.48)" xlink:href="#linear-gradient"/>
    <linearGradient id="linear-gradient-5" x1="26.07" y1="187.33" x2="11.56" y2="223.5" gradientTransform="matrix(0.98, 0.22, -0.22, 0.98, 43.14, -68.48)" xlink:href="#linear-gradient"/>
    <linearGradient id="linear-gradient-6" x1="48.1" y1="196.16" x2="33.59" y2="232.34" gradientTransform="matrix(0.98, 0.22, -0.22, 0.98, 43.14, -68.48)" xlink:href="#linear-gradient"/>
    <linearGradient id="linear-gradient-7" x1="88.57" y1="412.66" x2="74.06" y2="448.83" gradientTransform="matrix(0.43, 0.66, -0.83, 0.55, 348.82, -160.17)" xlink:href="#linear-gradient"/>
    <linearGradient id="linear-gradient-8" x1="25.96" y1="187.29" x2="11.46" y2="223.46" gradientTransform="matrix(0.98, 0.22, -0.22, 0.98, 43.14, -68.48)" xlink:href="#linear-gradient"/>
    <linearGradient id="linear-gradient-9" x1="45.86" y1="195.27" x2="31.36" y2="231.44" gradientTransform="matrix(0.98, 0.22, -0.22, 0.98, 43.14, -68.48)" xlink:href="#linear-gradient"/>
    <linearGradient id="linear-gradient-10" x1="34.66" y1="190.78" x2="20.16" y2="226.95" gradientTransform="matrix(0.98, 0.22, -0.22, 0.98, 43.14, -68.48)" xlink:href="#linear-gradient"/>
    <linearGradient id="linear-gradient-11" x1="44.75" y1="194.82" x2="30.25" y2="230.99" gradientTransform="matrix(0.98, 0.22, -0.22, 0.98, 43.14, -68.48)" xlink:href="#linear-gradient"/>
  </defs>
  <title>Carrot_1</title>
  <g id="Layer_2" data-name="Layer 2">
    <g id="Layer_1-2" data-name="Layer 1">
      <g>
        <path class="cls-1" d="M67.7,107c.78-6.26-9.26-9.54-14.51-9.59-3.28,0-8.46,3.06-11.23,5.36.83-4.5,2.26-9,2.29-13.6a25.08,25.08,0,0,0,12.53.55c6.53-1.47,14.53-8.55,12.67-15.09s-13.33-3.7-17.94-1.57c-2.24,1-5.95,5.59-7.29,8.16-.15-6-.89-12.11-1.45-18.16a21.64,21.64,0,0,0,14,.94C62.69,62.46,70.13,54.85,68,48.87s-12.69-3.26-17-.51c-3.39,2.16-6.8,8.74-8.33,12.9-.51-4.58-.91-9.41-1.48-14.06A23.67,23.67,0,0,0,54.07,45c5.61-2.86,11.3-11.52,8.08-17.11s-13.53-.24-17.28,2.85c-1.88,1.54-4,6.86-4.61,9.6-.58-3.72-1.11-7.63-1.82-11.44,3.22-3.23,5.09-8.09,6-12.37C45.67,10.39,42.4.52,36,0s-8.64,10.22-8.23,15.45c.3,3.87,5,9.86,8,12.93,0,2.86,0,5.61.06,8.29-1-2.35-3.78-6.88-5.63-8-4.08-2.58-14.25-6.85-17-.87s3.87,13.78,10,15.78a27.35,27.35,0,0,0,13,1.05c.23,3.53.47,7.14.57,10.61-1-1.43-3.86-4.28-5.25-4.79C27.32,48.87,16.57,46,15,52.24s6.25,12.64,12.44,14a25.79,25.79,0,0,0,9.82-.12c.22,3.67.65,7.46.61,11.05-1.44-2.58-5.4-7.22-7.67-8.25-4.56-2.05-15.77-4.86-17.6,1.56s6.12,13.37,12.6,14.73A27.14,27.14,0,0,0,38,84.59a105.8,105.8,0,0,1-.47,12.1c-2-2.44-6.08-6.54-8.87-7-5-.9-16.12.17-16,6.61s9.41,11,15.46,10.66a19.71,19.71,0,0,0,8-2.74c-1.5,5.27-4.21,10-5.9,15.27-1.42-2.61-5.59-6.08-7.93-6.82-5-1.61-17-3.35-18.49,3.44s7.2,13.24,13.94,13.86a27.86,27.86,0,0,0,10.11-1.27,40.23,40.23,0,0,0-.31,11.89c-2.5-2.41-7.2-7.64-10.1-8.6C12.28,130.26,1,129.32.06,136.37s8.66,13.08,15.8,13.47c3.76.2,9.74-.37,13.24-2.65,1.52,3.71,3.81,6.86,4.77,10.75,2.19-.33,4.38-.62,6.56-.94-.46-3.26-2.88-6.14-4.29-9,3,.47,5.81,1.4,9,.82,6.56-1.19,12.5-6.4,13-13.05.22-2.92-3.77-2.63-5.13-3.6,3.73-1.69,9.45-4.72,10.21-9.17s-6.51-6.14-9.15-7.41C58.53,115.06,67,112.22,67.7,107Zm-18.23,8a1.82,1.82,0,0,0,.25.07,9.8,9.8,0,0,0-1.84.18c-4.11,1-7.6,3.39-11.08,5.76,1.16-4,2.48-8,3.52-12.14A21,21,0,0,0,49.47,115Zm-9.29,17.85a16.48,16.48,0,0,0-6.37,5.52,32.27,32.27,0,0,1,.79-9.13,27.13,27.13,0,0,0,7.08,3.05A11.79,11.79,0,0,0,40.18,132.81Z"/>
        <g>
          <path class="cls-2" d="M53,140.51a20.64,20.64,0,0,1-15,.14c-5.19-1.84-13.71-8.45-11.25-14.79S38.85,122,43.77,125,51.89,134.7,53,140.51Z"/>
          <path class="cls-3" d="M47.35,142.6c4.57-4.72,10.7-8.5,16.37-11.75s20.13-7.81,21.79,1.38-11.61,15.33-19,16.85A19.2,19.2,0,0,1,47.35,142.6Z"/>
          <path class="cls-4" d="M54.3,120.71a17.2,17.2,0,0,1-13.19-1.15c-4.41-2.16-10.81-8.75-8.06-13.93s10.77-3.74,14.82-.4S53.17,115.67,54.3,120.71Z"/>
          <path class="cls-5" d="M57.87,99.13A13.59,13.59,0,0,1,44.71,96.5C40.6,93.24,36,85.36,39.58,80.79s10.56-2.25,14.11,1.64S57.67,93.84,57.87,99.13Z"/>
          <path class="cls-6" d="M57.64,99.94c3.72-5.11,6.34-9.1,12.13-12.39s14-.57,14.58,7-7,14.22-13.67,14.23S62.11,103.33,57.64,99.94Z"/>
          <path class="cls-7" d="M53,115.86a50.31,50.31,0,0,1,16.62-5c5.76-.88,14.68,1.44,10.41,8s-14.18,7.78-20,6.65S54.82,119.85,53,115.86Z"/>
          <path class="cls-8" d="M63.39,84.67c-4.09-2.25-6-5.4-7.65-9.88s-1.69-13.08,3.48-15S67.13,64,67.5,68.72,65.37,80,63.39,84.67Z"/>
          <path class="cls-9" d="M65.44,85.43c3.09-4.12,5.46-7.61,10.72-9.23s12.14,3.77,12,9.45S81.29,95.81,76,94.78,68.88,88.79,65.44,85.43Z"/>
          <path class="cls-10" d="M71.59,74.18a18.86,18.86,0,0,1,.86-12.86c2-4.16,7.89-9.73,12.54-7.51S86,63,83.26,66.13,75.32,72,71.59,74.18Z"/>
          <path class="cls-11" d="M34.92,155.29c16.5-15.91,15.45-25.51,17.39-43.89S66.83,69.84,73,72.16c2.37.89-12.6,20-15.57,38.84s2.26,31.6-18.33,49C37.06,160,35.61,158.77,34.92,155.29Z"/>
        </g>
        <g>
          <path class="cls-12" d="M56.61,179.93a50.89,50.89,0,0,1-.59,7.95H15.91a51.13,51.13,0,0,1,.07-7.52,46.37,46.37,0,0,1,1.41-8.48,30.67,30.67,0,0,1,2.84-7.13c3.11-5.5,8.36-9.82,17.17-9.82s13.69,4.32,16.32,9.84a29.86,29.86,0,0,1,2.47,8.71A47.93,47.93,0,0,1,56.61,179.93Z"/>
          <path class="cls-13" d="M56.19,173.48a88,88,0,0,1-19.87,1.87c-9.77,0-15.6-1.78-18.93-3.47a30.67,30.67,0,0,1,2.84-7.13,50.51,50.51,0,0,0,16.09,2.72,64.6,64.6,0,0,0,17.4-2.7A29.86,29.86,0,0,1,56.19,173.48Z"/>
          <path class="cls-13" d="M56.61,179.93a50.89,50.89,0,0,1-.59,7.95H15.91a51.13,51.13,0,0,1,.07-7.52,83.18,83.18,0,0,0,18.59,2.15A106.11,106.11,0,0,0,56.61,179.93Z"/>
        </g>
      </g>
    </g>
  </g>
</svg>
