<svg xmlns="http://www.w3.org/2000/svg" xmlns:xlink="http://www.w3.org/1999/xlink" width="145.035" height="186.513" viewBox="0 0 145.035 186.513">
  <defs>
    <linearGradient id="a" x1="131.992" y1="92.4" x2="91.522" y2="122.842" gradientUnits="userSpaceOnUse">
      <stop offset="0" stop-color="#c5d654"/>
      <stop offset="1" stop-color="#a4bd47"/>
    </linearGradient>
    <linearGradient id="b" x1="78.913" y1="125.212" x2="72.705" y2="35.915" xlink:href="#a"/>
    <linearGradient id="c" x1="6.084" y1="88.412" x2="78.07" y2="146.431" xlink:href="#a"/>
  </defs>
  <title>Carrot_4</title>
  <g>
    <g>
      <path d="M144.946,103.336c-.925-2.262-7.134-7.117-13.922-4.343a18.2,18.2,0,0,0-7.045,4.942,29.07,29.07,0,0,0-5.436-.7,15.306,15.306,0,0,0,5.179-3.422c3.262-3.722,3.643-12.216,1.362-13.092s-10.073.321-12.7,7.166a17.66,17.66,0,0,0-1.04,9.763,33.585,33.585,0,0,0-7.138,1.925c1.608-2.81,3.329-6.512,3.363-9.53.063-5.685-5.953-13.38-8.6-12.439s-8.547,7.81-5.723,15.747A20.589,20.589,0,0,0,99.1,108.2a25.955,25.955,0,0,0-3.582,2.8,31.141,31.141,0,0,0-3.409,3.833,18.733,18.733,0,0,0-.276-7.9c-1.786-5.4-9.976-10.721-12.173-8.972s-5.547,10.163-.3,16.753a20.482,20.482,0,0,0,8.6,6.54,102.074,102.074,0,0,0-5.15,10.8c-.294-4-1.107-9.349-3.3-12.578-3.847-5.652-15.072-9.105-17.034-6.358S59.4,126.7,67.647,132.584a24.2,24.2,0,0,0,13.081,4.793,186.715,186.715,0,0,0-5.781,18.677l6.123,1.884s1.977-8.026,5-17.293c3.3,2.051,9.745,5.619,14.623,5.558,6.836-.086,15.914-7.537,14.707-10.69a8.094,8.094,0,0,0-1.9-2.594c1.346-.744,2.211-1.616,2.218-2.469a6.726,6.726,0,0,0-.685-2.583c3.154.495,5.975.139,6.575-1.162a5.613,5.613,0,0,0,.394-1.773c2.605.9,5.051,1.034,5.764.02,1.406-2,2.143-9.847-3.855-14.065a19.711,19.711,0,0,0-4.428-2.356c1.941-.181,3.692-.338,5.107-.549,2.561,1.443,6.71,3.442,9.889,3.331C139.422,111.139,145.871,105.6,144.946,103.336ZM98.967,114.293a16.374,16.374,0,0,1,2.618-1.721,40.318,40.318,0,0,0,2.287,7.152c-.324-.026-.651-.046-.987-.049a21.121,21.121,0,0,0-9.172,1.882A24.3,24.3,0,0,1,98.967,114.293ZM91.656,125.8a45.358,45.358,0,0,0,3.262,3.863,25.853,25.853,0,0,0-6.44,4.021C89.477,130.968,90.544,128.287,91.656,125.8ZM112.91,111a22.175,22.175,0,0,0-3.671-1.069c1.188-.256,2.389-.466,3.581-.644C112.836,109.787,112.864,110.366,112.91,111Z" fill="url(#a)"/>
      <path d="M114.061,101.82C112.98,95.387,102.05,94.2,96.24,95.277c-3.623.67-9.4,4.289-12.014,7.61-1.739-5.017-5.253-8.511-7.562-13.166a17.216,17.216,0,0,0,9.887-.6C92.268,86.94,99.175,79.131,96.7,73.036S83.364,70.405,78.923,73c-2.158,1.262-4.858,5.856-5.556,8.731-1.65-6-3.582-12.061-3.978-18.353a23.665,23.665,0,0,0,14.508.832c5.786-1.38,13.536-8.54,11.541-14.31s-12.522-3.163-16.97-.779c-3.476,1.863-7.587,8.261-9.169,12.443a133.9,133.9,0,0,1-.48-14.1,24.885,24.885,0,0,0,13.042-1.5c5.731-2.288,12.537-9.647,10.016-15.32S79.866,29.008,76.1,31.75a29.031,29.031,0,0,0-6.76,8.771c.314-3.726.743-7.961,2.134-11.6,4.176-2.441,9.3-5.957,11.735-9.977C86.674,13.228,85.49,2.938,79.632.411S68.673,7.622,67.516,12.676c-.858,3.752.07,11.019,1.615,15.178a76.827,76.827,0,0,0-3.1,8.383c-.235-2.453-1.047-7.7-2.471-9.347-3.14-3.624-13.41-9.325-17.146-3.983S47.163,37.54,52.3,41.558a16.6,16.6,0,0,0,12.069,2.926c-.467,3.7-.763,7.429-.924,11.086-1.06-1.48-3.358-4.466-4.78-5.2-4.279-2.224-15.69-4.279-17.4,2.376s6.06,13.422,12.725,14.5a25.454,25.454,0,0,0,9.8-.484,91.508,91.508,0,0,0,1.8,11.346c-2.143-2.2-6.094-7.2-8.55-8.17-4.919-1.949-16.775-4.2-18.278,2.743s7.294,13.446,14.4,14.387c4.081.54,10.553.258,14.745-1.37,2.095,4.429,5.472,7.83,7.207,12.387-2.424-1.837-7.592-5.391-10.276-5.5-4.79-.2-15.692,1.919-14.467,8.447s11.157,10.068,17.832,8.814a22.609,22.609,0,0,0,9.617-4.387c1.539,4.92,3.607,9.659,4.651,14.665-2.073-1.66-6.91-5.1-9.081-5.549-4.674-.963-16.263-.92-16.28,5.453s8.239,10.46,14.546,10.862a28,28,0,0,0,10.31-1.84,63.367,63.367,0,0,1-3.39,11.476c-1.21-2.893-4.936-7.115-7.539-7.876-4.562-1.333-17.036-2.671-18.072,3.284s6.263,11.81,12.245,12.619c3.148.426,7.544-.685,10.7-1.649a43.631,43.631,0,0,0-3.068,10.4L79,158.535a75.134,75.134,0,0,1,3.4-9.619,29.034,29.034,0,0,0,13.694.845c8.291-1.673,15.3-8.235,15.545-16.277.108-3.53-3.778-2.362-5.291-3.539,3.56-2.376,8.394-6.534,8.08-11.272s-7.964-5.25-11.109-6.044C107.482,111.3,114.964,107.185,114.061,101.82Zm-15.6,10.985c.077.012.19.019.277.023a9.742,9.742,0,0,0-1.762.488c-3.576,1.631-5.482,4.23-7.871,7.241a109.473,109.473,0,0,0-3.017-11.8A35.108,35.108,0,0,0,98.463,112.805ZM93.911,132.06a50.509,50.509,0,0,0-7.585,6.358,72.4,72.4,0,0,0,2.359-9.61,23.084,23.084,0,0,0,6.669,2.5A13.13,13.13,0,0,0,93.911,132.06Z" fill="url(#b)"/>
      <path d="M82.946,111.156c-2.412-2.362-12.861,3-15.661,9.237-1.6,3.562-1.465,8.974-1.056,12.962a101.884,101.884,0,0,0-6.958-9.737,20.483,20.483,0,0,0,7.322-7.942c4.017-7.405-.752-15.1-3.221-16.442s-9.6,5.334-10.418,10.961a18.73,18.73,0,0,0,1.109,7.826,31.056,31.056,0,0,0-4.027-3.178,25.9,25.9,0,0,0-4.015-2.132,20.616,20.616,0,0,0,4.214-9.733c1.394-8.309-5.617-14.041-8.387-14.5s-7.349,8.163-6.293,13.75c.56,2.966,2.9,6.31,4.976,8.8a33.6,33.6,0,0,0-7.365-.649,17.645,17.645,0,0,0-2.729-9.43c-3.785-6.281-11.665-6.1-13.758-4.837s-.234,9.557,3.628,12.652A15.312,15.312,0,0,0,26,111.22a27.948,27.948,0,0,0-5.812,1.906,18.507,18.507,0,0,0-7.217-3.181C5.807,108.4.541,114.265.026,116.654s6.8,6.718,11.7,6.024a9.667,9.667,0,0,0,2.058-.561c-2.73,4.886-.99,10.632.489,12.1,1.733,1.723,9.326-2.1,11.387-6.6,1.423-3.11,1.025-8.193.644-11.038a85.45,85.45,0,0,1,10.03-.384,22.746,22.746,0,0,0-4.729,2.539c-6.918,4.808-6.119,13.829-4.516,16.135s10.975-.448,14.234-5.107c2.244-3.208,2.849-9.006,3.009-12.307a16.339,16.339,0,0,1,2.878,1.238c2.744,1.53,5.864,5.179,8.952,9.678a19.527,19.527,0,0,0-7.8-.054c-7.538,1.4-10.251,9.183-9.784,11.7.136.728.975,1.347,2.2,1.8a11.224,11.224,0,0,0-3.176,4.946c-.637,3.315,9.6,9.066,16.349,7.956,4.586-.755,10-5,13-7.647,3.3,6.483,5.507,11.476,5.507,11.476l5.7-2.925a186.608,186.608,0,0,0-8.955-17.38,24.2,24.2,0,0,0,12.042-7.006C88.333,123.993,85.358,113.519,82.946,111.156ZM56.184,137.291a36.9,36.9,0,0,0,2.828-4.533c1.431,2.318,2.828,4.739,4.146,7.129A26.382,26.382,0,0,0,56.184,137.291Z" fill="url(#c)"/>
    </g>
    <g>
      <path d="M97.011,178.563a51.152,51.152,0,0,1-.588,7.95H56.311a50.651,50.651,0,0,1,.072-7.521,47.014,47.014,0,0,1,1.4-8.48,31.031,31.031,0,0,1,2.844-7.127c3.108-5.509,8.359-9.821,17.169-9.821s13.7,4.319,16.324,9.835a29.9,29.9,0,0,1,2.464,8.71A47.166,47.166,0,0,1,97.011,178.563Z" fill="#ff931e"/>
      <path d="M96.588,172.109a88.184,88.184,0,0,1-19.863,1.869c-9.777,0-15.607-1.776-18.938-3.466a31.031,31.031,0,0,1,2.844-7.127A50.678,50.678,0,0,0,76.725,166.1a64.433,64.433,0,0,0,17.4-2.7A29.9,29.9,0,0,1,96.588,172.109Z" fill="#ffa61e"/>
      <path d="M97.011,178.563a51.152,51.152,0,0,1-.588,7.95H56.311a50.651,50.651,0,0,1,.072-7.521,83.469,83.469,0,0,0,18.588,2.149A106.39,106.39,0,0,0,97.011,178.563Z" fill="#ffa61e"/>
    </g>
  </g>
</svg>
