<svg xmlns="http://www.w3.org/2000/svg" xmlns:xlink="http://www.w3.org/1999/xlink" width="145.04" height="186.51" viewBox="0 0 145.04 186.51">
  <defs>
    <style>
      .cls-1 {
        fill: url(#linear-gradient);
      }

      .cls-2 {
        fill: url(#linear-gradient-2);
      }

      .cls-3 {
        fill: url(#linear-gradient-3);
      }

      .cls-4 {
        fill: #ff931e;
      }

      .cls-5 {
        fill: #ffa61e;
      }
    </style>
    <linearGradient id="linear-gradient" x1="131.99" y1="92.4" x2="91.52" y2="122.84" gradientUnits="userSpaceOnUse">
      <stop offset="0" stop-color="#c5d654"/>
      <stop offset="1" stop-color="#a4bd47"/>
    </linearGradient>
    <linearGradient id="linear-gradient-2" x1="78.91" y1="125.21" x2="72.71" y2="35.92" xlink:href="#linear-gradient"/>
    <linearGradient id="linear-gradient-3" x1="6.08" y1="88.41" x2="78.07" y2="146.43" xlink:href="#linear-gradient"/>
  </defs>
  <title>Carrot_4</title>
  <g id="Layer_2" data-name="Layer 2">
    <g id="Layer_1-2" data-name="Layer 1">
      <g>
        <g>
          <path class="cls-1" d="M145,103.34C144,101.07,137.81,96.22,131,99a18.22,18.22,0,0,0-7,5,28.69,28.69,0,0,0-5.44-.71,15.24,15.24,0,0,0,5.18-3.42c3.26-3.72,3.65-12.22,1.36-13.09S115,87,112.38,93.88a17.71,17.71,0,0,0-1,9.76,33.55,33.55,0,0,0-7.14,1.93c1.61-2.81,3.33-6.51,3.37-9.53.06-5.69-6-13.38-8.6-12.44s-8.55,7.81-5.73,15.75a20.72,20.72,0,0,0,5.85,8.85,26.68,26.68,0,0,0-3.58,2.8,31.51,31.51,0,0,0-3.41,3.83,18.69,18.69,0,0,0-.27-7.9c-1.79-5.4-10-10.72-12.17-9s-5.55,10.16-.3,16.75A20.45,20.45,0,0,0,88,121.25a103.13,103.13,0,0,0-5.15,10.8c-.29-4-1.1-9.35-3.3-12.58-3.85-5.65-15.07-9.1-17-6.35s-3.07,13.58,5.18,19.46a24.13,24.13,0,0,0,13.08,4.8A186.62,186.62,0,0,0,75,156.05l6.12,1.89s2-8,5-17.29c3.3,2,9.75,5.61,14.62,5.55,6.84-.08,15.92-7.53,14.71-10.69a8.27,8.27,0,0,0-1.9-2.59c1.34-.75,2.21-1.62,2.22-2.47a6.81,6.81,0,0,0-.69-2.58c3.15.49,6,.14,6.57-1.17a5.33,5.33,0,0,0,.4-1.77c2.6.9,5,1,5.76,0,1.41-2,2.15-9.85-3.85-14.06a19.46,19.46,0,0,0-4.43-2.36c1.94-.18,3.69-.34,5.11-.55,2.56,1.44,6.71,3.44,9.89,3.33C139.42,111.14,145.87,105.6,145,103.34Zm-46,11a16.37,16.37,0,0,1,2.61-1.72,40.6,40.6,0,0,0,2.29,7.15c-.32,0-.65,0-1,0a20.9,20.9,0,0,0-9.17,1.88A24.27,24.27,0,0,1,99,114.29ZM91.66,125.8a44,44,0,0,0,3.26,3.86,25.91,25.91,0,0,0-6.44,4C89.48,131,90.54,128.29,91.66,125.8ZM112.91,111a22.71,22.71,0,0,0-3.67-1.07c1.19-.25,2.39-.46,3.58-.64C112.84,109.79,112.86,110.37,112.91,111Z"/>
          <path class="cls-2" d="M114.06,101.82c-1.08-6.43-12-7.62-17.82-6.54-3.62.67-9.4,4.29-12,7.61-1.74-5-5.26-8.51-7.57-13.17a17.22,17.22,0,0,0,9.89-.6c5.72-2.18,12.62-10,10.15-16.08s-13.34-2.63-17.78,0c-2.16,1.26-4.86,5.86-5.55,8.73-1.65-6-3.59-12.06-4-18.35a23.64,23.64,0,0,0,14.51.83c5.78-1.38,13.53-8.54,11.54-14.31s-12.52-3.16-17-.78C75,51,70.88,57.38,69.3,61.57a134.54,134.54,0,0,1-.48-14.1,24.84,24.84,0,0,0,13-1.51c5.73-2.28,12.54-9.64,10-15.32S79.87,29,76.1,31.75a29.09,29.09,0,0,0-6.76,8.77c.31-3.73.74-8,2.14-11.6,4.17-2.44,9.29-6,11.73-10,3.46-5.71,2.28-16-3.58-18.53s-11,7.21-12.11,12.27c-.86,3.75.07,11,1.61,15.17A76.57,76.57,0,0,0,66,36.24c-.23-2.46-1-7.71-2.47-9.35-3.14-3.62-13.41-9.32-17.14-4s.74,14.63,5.88,18.65a16.57,16.57,0,0,0,12.07,2.92c-.47,3.7-.76,7.43-.92,11.09-1.06-1.48-3.36-4.47-4.78-5.2-4.28-2.23-15.69-4.28-17.4,2.37S47.33,66.16,54,67.24a25.59,25.59,0,0,0,9.8-.48,89.05,89.05,0,0,0,1.8,11.34c-2.15-2.19-6.1-7.2-8.55-8.17-4.92-2-16.78-4.2-18.28,2.75s7.29,13.44,14.4,14.38c4.08.54,10.55.26,14.75-1.37,2.09,4.43,5.47,7.83,7.2,12.39-2.42-1.84-7.59-5.39-10.27-5.5-4.79-.2-15.7,1.92-14.47,8.44s11.16,10.07,17.83,8.82a22.63,22.63,0,0,0,9.62-4.39c1.54,4.92,3.61,9.66,4.65,14.67-2.07-1.66-6.91-5.11-9.08-5.55-4.67-1-16.26-.92-16.28,5.45s8.24,10.46,14.55,10.86A27.82,27.82,0,0,0,82,129a62.56,62.56,0,0,1-3.39,11.48c-1.21-2.89-4.93-7.12-7.53-7.88C66.47,131.31,54,130,53,135.93s6.27,11.81,12.25,12.61c3.15.43,7.54-.68,10.7-1.64a43.79,43.79,0,0,0-3.07,10.4L79,158.53a74.65,74.65,0,0,1,3.41-9.61,29,29,0,0,0,13.69.84c8.29-1.67,15.3-8.23,15.54-16.28.11-3.53-3.77-2.36-5.29-3.53,3.56-2.38,8.4-6.54,8.08-11.28s-8-5.25-11.11-6C107.48,111.3,115,107.19,114.06,101.82Zm-15.6,11,.28,0a8.72,8.72,0,0,0-1.76.49c-3.58,1.63-5.48,4.23-7.87,7.24a112.31,112.31,0,0,0-3-11.81A35.27,35.27,0,0,0,98.46,112.81Zm-4.55,19.25a50.4,50.4,0,0,0-7.58,6.36,72,72,0,0,0,2.35-9.61,23.48,23.48,0,0,0,6.67,2.5A12.39,12.39,0,0,0,93.91,132.06Z"/>
          <path class="cls-3" d="M83,111.16c-2.42-2.37-12.87,3-15.67,9.23-1.59,3.57-1.46,9-1,13a101.65,101.65,0,0,0-7-9.73,20.5,20.5,0,0,0,7.32-7.94c4-7.41-.75-15.11-3.22-16.45s-9.6,5.34-10.42,11A19,19,0,0,0,54.06,118a31.41,31.41,0,0,0-4-3.18,26.33,26.33,0,0,0-4-2.13A20.59,20.59,0,0,0,50.23,103c1.4-8.31-5.61-14-8.38-14.51s-7.35,8.17-6.29,13.75c.56,3,2.9,6.31,5,8.8a33.29,33.29,0,0,0-7.36-.65,17.66,17.66,0,0,0-2.73-9.43c-3.79-6.28-11.67-6.1-13.76-4.84s-.24,9.56,3.63,12.66A15.3,15.3,0,0,0,26,111.22a28,28,0,0,0-5.81,1.91A18.28,18.28,0,0,0,13,110C5.81,108.4.54,114.26,0,116.65s6.8,6.72,11.7,6a10.57,10.57,0,0,0,2.06-.56c-2.73,4.88-1,10.63.48,12.1,1.74,1.72,9.33-2.1,11.39-6.6,1.43-3.11,1-8.2.65-11a85,85,0,0,1,10-.38,22.48,22.48,0,0,0-4.73,2.53c-6.92,4.81-6.12,13.83-4.52,16.14s11-.45,14.23-5.11c2.25-3.21,2.85-9,3-12.3a16.1,16.1,0,0,1,2.88,1.23c2.75,1.53,5.87,5.18,8.95,9.68a19.48,19.48,0,0,0-7.8-.05c-7.54,1.4-10.25,9.18-9.78,11.69.13.73,1,1.35,2.2,1.8a11.26,11.26,0,0,0-3.18,4.94c-.63,3.32,9.61,9.07,16.35,8,4.59-.75,10-5,13-7.65,3.3,6.49,5.51,11.48,5.51,11.48l5.7-2.93a187.58,187.58,0,0,0-9-17.38,24.16,24.16,0,0,0,12-7C88.33,124,85.36,113.52,83,111.16ZM56.18,137.29A36.41,36.41,0,0,0,59,132.76c1.43,2.32,2.83,4.74,4.15,7.13A26.24,26.24,0,0,0,56.18,137.29Z"/>
        </g>
        <g>
          <path class="cls-4" d="M97,178.56a50.89,50.89,0,0,1-.59,7.95H56.31a51.13,51.13,0,0,1,.07-7.52,47.25,47.25,0,0,1,1.41-8.48,31.12,31.12,0,0,1,2.84-7.13c3.11-5.5,8.36-9.82,17.17-9.82s13.7,4.32,16.32,9.84a29.77,29.77,0,0,1,2.47,8.71A47.93,47.93,0,0,1,97,178.56Z"/>
          <path class="cls-5" d="M96.59,172.11A88,88,0,0,1,76.73,174c-9.78,0-15.61-1.78-18.94-3.47a31.12,31.12,0,0,1,2.84-7.13,50.52,50.52,0,0,0,16.1,2.72,64.58,64.58,0,0,0,17.39-2.7A29.77,29.77,0,0,1,96.59,172.11Z"/>
          <path class="cls-5" d="M97,178.56a50.89,50.89,0,0,1-.59,7.95H56.31a51.13,51.13,0,0,1,.07-7.52A83.25,83.25,0,0,0,75,181.14,106,106,0,0,0,97,178.56Z"/>
        </g>
      </g>
    </g>
  </g>
</svg>
