<svg xmlns="http://www.w3.org/2000/svg" xmlns:xlink="http://www.w3.org/1999/xlink" width="109.605" height="186.773" viewBox="0 0 109.605 186.773">
  <defs>
    <linearGradient id="a" x1="73.473" y1="122.129" x2="82.069" y2="14.686" gradientUnits="userSpaceOnUse">
      <stop offset="0" stop-color="#c5d654"/>
      <stop offset="1" stop-color="#a4bd47"/>
    </linearGradient>
    <linearGradient id="b" x1="23.208" y1="102.038" x2="79.078" y2="146.448" xlink:href="#a"/>
  </defs>
  <title>Carrot_2</title>
  <g>
    <path d="M109.574,100.783c-.692-6.478-11.578-8.266-17.332-7.619A24.413,24.413,0,0,0,79.832,99.5c-1.471-6.082-3.908-12.067-4.913-18.249a19.722,19.722,0,0,0,11.833-.675c6.219-2.428,13.768-9.852,11.721-16.285s-13.481-2.794-17.694-.249c-2.047,1.237-5.542,5.983-6.907,8.455-.3-5.119-.466-10.491-.467-15.678,4.378,1.985,9.762,3.384,14.52,2.862,5.921-.649,13.978-7.239,12.334-13.113S87.72,42.74,83.3,44.668c-3.453,1.508-7.771,7.013-9.872,10.582-.067-4.047.034-8.3.209-12.428a27.045,27.045,0,0,0,13.124-.9c5.864-1.943,12.689-8.946,9.943-14.848s-12.816-1.045-16.6,1.771a25.865,25.865,0,0,0-6.224,7.909c.082-3.249.249-6.634.451-9.958,3.7-2.294,7.356-4.77,9.128-8.862C85.981,12.115,83.421,1.942,77.443.2S67.605,8.759,67.182,13.57c-.315,3.571,2.336,9.391,4.649,12.59-.733,2.4-1.179,4.779-1.679,7.1-.6-2.3-2.277-6.353-3.884-7.757-3.544-3.1-13.5-9.071-16.98-3.682s1.571,13.838,7.28,16.309a28.973,28.973,0,0,0,12.465,2c-.369,3.089-.625,6.3-.961,9.362-.949-1.392-3.337-4.08-4.677-4.681-4.033-1.808-15.3-5.82-17.286.388S51.448,57.714,57.633,59a33.13,33.13,0,0,0,9.94.241c-.06,3.29-.052,6.694-.1,9.909-1.5-2.339-5.038-6.641-7.277-7.61-4.485-1.941-15.836-4.638-17.687,1.74s5.949,13.316,12.51,14.412c3.767.629,9.162.733,12.925-.911.395,5.214,2.28,10.711,3.285,15.784-2.43-2.268-8-5.632-10.9-5.753-5.182-.216-16.436,1.725-15.651,8.546s10.963,10.637,17.773,9.852c3.119-.359,7.825-1.517,10.581-3.51,1.213,6.238,3.267,12.343,4.14,18.59-1.887-1.972-6.354-5.179-8.649-5.44-4.943-.562-16.156.283-16.132,6.834S61.411,132.448,67.92,132.2a28.333,28.333,0,0,0,9.841-2.564,95.867,95.867,0,0,1-1.121,11.281c-1.834-2.615-6.227-6.337-8.988-6.865-4.84-.927-16.657-.7-16.984,5.683s8.127,11.46,14.493,11.077c3.35-.2,7.378-1.947,10.451-3.54-.582,3.474-2.109,6.822-2.231,10.4,2.157.155,4.32.3,6.476.464.579-3.243,1.262-6.478,1.991-9.681a26.761,26.761,0,0,0,12.263.361c7.629-1.957,13.829-8.586,13.352-16.2-.21-3.341-3.969-2.231-5.588-3.27,3.418-2.46,8.008-6.59,7.66-11.265s-7.993-5.355-11.163-6.185C102.719,110.527,110.15,106.186,109.574,100.783ZM93.44,111.907a2.234,2.234,0,0,0,.282.037,9.078,9.078,0,0,0-1.829.45c-3.76,1.718-5.9,4.779-8.242,8.082-.622-4.642-1.581-9.26-2.483-13.858A31.9,31.9,0,0,0,93.44,111.907ZM89.7,131.793a35.129,35.129,0,0,0-6.183,6.431,79.889,79.889,0,0,0,.555-9.341A27.477,27.477,0,0,0,91.008,131,10.773,10.773,0,0,0,89.7,131.793Z" fill="url(#a)"/>
    <path d="M82.946,110.7c-2.412-2.363-12.861,3-15.661,9.236-1.6,3.563-1.465,8.974-1.056,12.962a102,102,0,0,0-6.958-9.736,20.491,20.491,0,0,0,7.322-7.942c4.017-7.405-.752-15.1-3.221-16.442s-9.6,5.333-10.418,10.96a18.733,18.733,0,0,0,1.109,7.827,31.056,31.056,0,0,0-4.027-3.178,25.906,25.906,0,0,0-4.015-2.133,20.606,20.606,0,0,0,4.214-9.733c1.394-8.308-5.617-14.04-8.387-14.5s-7.349,8.163-6.293,13.751c.56,2.965,2.9,6.31,4.976,8.8a33.537,33.537,0,0,0-7.365-.649,17.648,17.648,0,0,0-2.729-9.431c-3.785-6.28-11.665-6.1-13.758-4.837s-.234,9.558,3.628,12.653a15.311,15.311,0,0,0,5.7,2.464,27.885,27.885,0,0,0-5.812,1.907,18.493,18.493,0,0,0-7.217-3.181C5.807,107.943.541,113.808.026,116.2s6.8,6.717,11.7,6.024a9.612,9.612,0,0,0,2.058-.562c-2.73,4.886-.99,10.632.489,12.1,1.733,1.723,9.326-2.1,11.387-6.6,1.423-3.109,1.025-8.192.644-11.037a85.233,85.233,0,0,1,10.03-.384,22.738,22.738,0,0,0-4.729,2.538c-6.918,4.809-6.119,13.83-4.516,16.135s10.975-.447,14.234-5.106C43.569,126.1,44.174,120.3,44.334,117a16.411,16.411,0,0,1,2.878,1.237c2.744,1.531,5.864,5.18,8.952,9.679a19.508,19.508,0,0,0-7.8-.054c-7.538,1.4-10.251,9.183-9.784,11.7.136.729.975,1.348,2.2,1.8A11.222,11.222,0,0,0,37.6,146.3c-.637,3.316,9.6,9.066,16.349,7.956,4.586-.754,10-5,13-7.646,3.3,6.483,5.507,11.475,5.507,11.475l5.7-2.925a186.752,186.752,0,0,0-8.955-17.38,24.188,24.188,0,0,0,12.042-7C88.333,123.536,85.358,113.062,82.946,110.7ZM56.184,136.834a36.9,36.9,0,0,0,2.828-4.532c1.431,2.318,2.828,4.738,4.146,7.129A26.381,26.381,0,0,0,56.184,136.834Z" fill="url(#b)"/>
    <g>
      <path d="M96.294,178.822a51.243,51.243,0,0,1-.587,7.951H55.6a50.655,50.655,0,0,1,.072-7.521,47.038,47.038,0,0,1,1.4-8.481,31.063,31.063,0,0,1,2.843-7.127c3.109-5.508,8.359-9.82,17.17-9.82s13.695,4.319,16.324,9.835a29.929,29.929,0,0,1,2.464,8.71A47.153,47.153,0,0,1,96.294,178.822Z" fill="#ff931e"/>
      <path d="M95.872,172.369a88.184,88.184,0,0,1-19.863,1.869c-9.777,0-15.608-1.776-18.938-3.467a31.063,31.063,0,0,1,2.843-7.127,50.658,50.658,0,0,0,16.1,2.715,64.433,64.433,0,0,0,17.4-2.7A29.929,29.929,0,0,1,95.872,172.369Z" fill="#ffa61e"/>
      <path d="M96.294,178.822a51.243,51.243,0,0,1-.587,7.951H55.6a50.655,50.655,0,0,1,.072-7.521A83.459,83.459,0,0,0,74.254,181.4,106.3,106.3,0,0,0,96.294,178.822Z" fill="#ffa61e"/>
    </g>
  </g>
</svg>
