<svg xmlns="http://www.w3.org/2000/svg" xmlns:xlink="http://www.w3.org/1999/xlink" width="151.024" height="284.313" viewBox="0 0 151.024 284.313">
  <defs>
    <linearGradient id="a" x1="116.772" y1="-121.775" x2="99.952" y2="-200.148" gradientTransform="translate(-7.636 187.402) rotate(7.125)" gradientUnits="userSpaceOnUse">
      <stop offset="0" stop-color="#071c75"/>
      <stop offset="1" stop-color="#344bab"/>
    </linearGradient>
    <linearGradient id="b" x1="-90.676" y1="-564.426" x2="-104.668" y2="-629.623" gradientTransform="matrix(0.887, 0.463, -0.52, 0.997, -122.123, 721.449)" xlink:href="#a"/>
    <linearGradient id="c" x1="-4.587" y1="-375.551" x2="-20.279" y2="-448.671" gradientTransform="translate(-44.937 518.796) rotate(19.112)" xlink:href="#a"/>
    <linearGradient id="d" x1="57.387" y1="61.757" x2="48.063" y2="-35.432" gradientTransform="translate(9.052 151.17) rotate(5.48)" xlink:href="#a"/>
    <linearGradient id="e" x1="50.189" y1="284.313" x2="50.189" y2="184.956" gradientTransform="matrix(1, 0, 0, 1, 0, 0)" xlink:href="#a"/>
  </defs>
  <title>CaveLeaf_9</title>
  <g>
    <path d="M90.277,76.667S106.4,63.23,115.043,42.474A171.285,171.285,0,0,0,125.712,2.762a2.974,2.974,0,0,1,2.4-2.525c3.581-.657,11.018-.572,17.649,8.79A26.561,26.561,0,0,1,149.85,32.68a2.993,2.993,0,0,1-1.6,1.8c-5.32,2.463-28.834,14.807-49.045,48.674Z" fill="url(#a)"/>
    <path d="M71.361,109.334A123.373,123.373,0,0,0,79.17,79.792c.989-8.451-3.472-25.48.32-31.163s28.892-6.158,38.11-1.583c20.661,10.254,21.118,28.145,16.382,32.09-16.955,14.125-32.194,2.749-53.211,35.109Z" fill="url(#b)"/>
    <path d="M48.989,156.716s7.255-18.922,7.927-35.626S42.228,96.99,45.433,90.426s24.722-5,36.466-1.17c26.323,8.592,39.367,23.963,33.7,27.557s-36.992,6.766-54.571,44.076Z" fill="url(#c)"/>
    <path d="M35.863,216.694s3.048-23.645-.815-42.929-24.784-32.392-22.94-40.785,30.511-13.46,45-12.334c32.476,2.525,56.145,38.653,50.666,44.334S60.54,170.6,50.786,218.126Z" fill="url(#d)"/>
    <path d="M23.774,284.313s1-27-6.333-48.333-18.667-27.334-17.333-37,18.6-13.7,37.333-14c42-.667,68.333,13,62,20s-49.667,24.666-56.333,79.333Z" fill="url(#e)"/>
  </g>
</svg>
