<svg xmlns="http://www.w3.org/2000/svg" xmlns:xlink="http://www.w3.org/1999/xlink" width="151.02" height="284.31" viewBox="0 0 151.02 284.31">
  <defs>
    <style>
      .cls-1 {
        fill: url(#linear-gradient);
      }

      .cls-2 {
        fill: url(#linear-gradient-2);
      }

      .cls-3 {
        fill: url(#linear-gradient-3);
      }

      .cls-4 {
        fill: url(#linear-gradient-4);
      }

      .cls-5 {
        fill: url(#linear-gradient-5);
      }
    </style>
    <linearGradient id="linear-gradient" x1="373.5" y1="-262.61" x2="356.68" y2="-340.98" gradientTransform="translate(-279.85 295.3) rotate(7.13)" gradientUnits="userSpaceOnUse">
      <stop offset="0" stop-color="#071c75"/>
      <stop offset="1" stop-color="#344bab"/>
    </linearGradient>
    <linearGradient id="linear-gradient-2" x1="781.99" y1="-1428.11" x2="768" y2="-1493.3" gradientTransform="matrix(0.89, 0.46, -0.52, 1, -1345.1, 1178.7)" xlink:href="#linear-gradient"/>
    <linearGradient id="linear-gradient-3" x1="638.24" y1="-821.36" x2="622.54" y2="-894.48" gradientTransform="translate(-798.29 729.56) rotate(19.11)" xlink:href="#linear-gradient"/>
    <linearGradient id="linear-gradient-4" x1="256.43" y1="-43.75" x2="247.11" y2="-140.94" gradientTransform="translate(-199.16 237.18) rotate(5.48)" xlink:href="#linear-gradient"/>
    <linearGradient id="linear-gradient-5" x1="50.19" y1="284.31" x2="50.19" y2="184.96" gradientTransform="matrix(1, 0, 0, 1, 0, 0)" xlink:href="#linear-gradient"/>
  </defs>
  <title>CaveLeaf_9</title>
  <g id="Layer_2" data-name="Layer 2">
    <g id="Layer_1-2" data-name="Layer 1">
      <g>
        <path class="cls-1" d="M90.28,76.67S106.4,63.23,115,42.47A171.1,171.1,0,0,0,125.71,2.76a3,3,0,0,1,2.4-2.52c3.58-.66,11-.57,17.65,8.79a26.56,26.56,0,0,1,4.09,23.65,3,3,0,0,1-1.6,1.8c-5.32,2.47-28.83,14.81-49,48.68Z"/>
        <path class="cls-2" d="M71.36,109.33a123.28,123.28,0,0,0,7.81-29.54c1-8.45-3.47-25.48.32-31.16s28.89-6.16,38.11-1.58C138.26,57.3,138.72,75.19,134,79.14,117,93.26,101.79,81.89,80.77,114.25Z"/>
        <path class="cls-3" d="M49,156.72s7.25-18.93,7.93-35.63S42.23,97,45.43,90.43s24.73-5,36.47-1.17c26.32,8.59,39.37,24,33.7,27.55s-37,6.77-54.57,44.08Z"/>
        <path class="cls-4" d="M35.86,216.69s3-23.64-.81-42.92S10.26,141.37,12.11,133s30.51-13.46,45-12.33c32.47,2.52,56.14,38.65,50.66,44.33s-47.23,5.62-57,53.15Z"/>
        <path class="cls-5" d="M23.77,284.31s1-27-6.33-48.33S-1.23,208.65.11,199s18.59-13.7,37.33-14c42-.67,68.33,13,62,20s-49.67,24.67-56.33,79.33Z"/>
      </g>
    </g>
  </g>
</svg>
