<svg xmlns="http://www.w3.org/2000/svg" xmlns:xlink="http://www.w3.org/1999/xlink" width="229.71" height="400" viewBox="0 0 229.71 400">
  <defs>
    <style>
      .cls-1 {
        fill: url(#linear-gradient);
      }

      .cls-2 {
        fill: url(#linear-gradient-2);
      }

      .cls-3 {
        fill: url(#linear-gradient-3);
      }

      .cls-4 {
        fill: url(#linear-gradient-4);
      }

      .cls-5 {
        fill: url(#linear-gradient-5);
      }

      .cls-6 {
        fill: url(#linear-gradient-6);
      }

      .cls-7 {
        fill: url(#linear-gradient-7);
      }
    </style>
    <linearGradient id="linear-gradient" x1="-60.4" y1="-164.22" x2="-151.06" y2="144.45" gradientTransform="translate(134.93 150.2) rotate(-4.3)" gradientUnits="userSpaceOnUse">
      <stop offset="0" stop-color="#5a8539"/>
      <stop offset="1" stop-color="#46952f"/>
    </linearGradient>
    <linearGradient id="linear-gradient-2" x1="546.02" y1="453.77" x2="455.35" y2="762.44" gradientTransform="translate(-308.82 -519.1) rotate(10.38)" xlink:href="#linear-gradient"/>
    <linearGradient id="linear-gradient-3" x1="2186.7" y1="1193.68" x2="2096.03" y2="1502.34" gradientTransform="matrix(0.77, 0.64, -0.64, 0.77, -540.51, -2497.29)" xlink:href="#linear-gradient"/>
    <linearGradient id="linear-gradient-4" x1="6972.17" y1="-708.09" x2="6881.51" y2="-399.43" gradientTransform="matrix(-0.92, 0.39, 0.39, 0.92, 7231.39, -1379.98)" xlink:href="#linear-gradient"/>
    <linearGradient id="linear-gradient-5" x1="1844.62" y1="1109.3" x2="1753.95" y2="1417.96" gradientTransform="translate(-543.21 -2022.02) rotate(31.53)" xlink:href="#linear-gradient"/>
    <linearGradient id="linear-gradient-6" x1="4996.62" y1="10.93" x2="4905.96" y2="319.6" gradientTransform="matrix(-1, 0, 0, 1, 4979.65, 0)" xlink:href="#linear-gradient"/>
    <linearGradient id="linear-gradient-7" x1="193.52" y1="58.61" x2="102.85" y2="367.27" gradientTransform="matrix(1, 0, 0, 1, 0, 0)" xlink:href="#linear-gradient"/>
  </defs>
  <title>HugeVine_6</title>
  <g id="Layer_2" data-name="Layer 2">
    <g id="Layer_1-2" data-name="Layer 1">
      <g>
        <path class="cls-1" d="M44.49,187.76c-.88-11.8-8.15-30.3-21.81-25.27s.2,16,3.89,11.75a6.06,6.06,0,0,0,.4-8.06c.77-1.56,17.91,8.34,1.5,19.95-9.53,6.73-23.94,1.8-27.83-9.95-2.29-6.91.3-36.12,28.82-30.24S44.49,187.76,44.49,187.76Z"/>
        <path class="cls-2" d="M117.34,136.05c2.13-11.64-.21-31.39-14.7-30s-3.87,15.55.79,12.34a6,6,0,0,0,2.42-7.69c1.15-1.32,15.22,12.61-3.6,19.67-10.92,4.1-23.61-4.32-24.39-16.66-.47-7.27,9.43-34.87,35.53-22S117.34,136.05,117.34,136.05Z"/>
        <path class="cls-3" d="M55.77,57.25s3.54-13.83-6.27-15.77-4.69,10.63-4.69,10.63-5.52,1.64-12.47-6.23-.63-19.21,5.3-22.58,14-1.85,21.25,3.16S73.27,47.06,55.77,57.25Z"/>
        <path class="cls-4" d="M143.87,243s1.18-25.18,18.74-23.37S165,240,165,240s8.47,5.62,24.27-4.06,11-32.09,2.74-40.86-22.67-10.35-37.51-5.66S119.61,216.74,143.87,243Z"/>
        <path class="cls-5" d="M163,129s10.3-34.77,35-19.6-1,32.23-1,32.23,12.45,6.47,25.08-4.56S232.3,107,210.28,97,152.88,88.85,163,129Z"/>
        <path class="cls-6" d="M47.3,400s22-195-40-400h17s66,121,66,400Z"/>
        <path class="cls-7" d="M146.88,400S113,205,208.52,0H182.33S80.62,121,80.62,400Z"/>
      </g>
    </g>
  </g>
</svg>
