<svg xmlns="http://www.w3.org/2000/svg" xmlns:xlink="http://www.w3.org/1999/xlink" width="390.33" height="250.61" viewBox="0 0 390.33 250.61">
  <defs>
    <style>
      .cls-1 {
        fill: url(#linear-gradient);
      }

      .cls-2 {
        fill: url(#linear-gradient-2);
      }

      .cls-3 {
        fill: url(#linear-gradient-3);
      }

      .cls-4 {
        fill: url(#linear-gradient-4);
      }

      .cls-5 {
        fill: url(#linear-gradient-5);
      }

      .cls-6 {
        fill: url(#linear-gradient-6);
      }
    </style>
    <linearGradient id="linear-gradient" x1="878.21" y1="847.75" x2="878.21" y2="1154.26" gradientTransform="translate(-861.62 1104.92) rotate(-90)" gradientUnits="userSpaceOnUse">
      <stop offset="0" stop-color="#5a8539"/>
      <stop offset="1" stop-color="#46952f"/>
    </linearGradient>
    <linearGradient id="linear-gradient-2" x1="782.68" y1="1445.33" x2="782.68" y2="1751.84" gradientTransform="translate(325.07 1835.35) rotate(-152.82)" xlink:href="#linear-gradient"/>
    <linearGradient id="linear-gradient-3" x1="992.85" y1="1162.19" x2="992.85" y2="1468.69" gradientTransform="translate(-420.75 1617.35) rotate(-116.7)" xlink:href="#linear-gradient"/>
    <linearGradient id="linear-gradient-4" x1="23.96" y1="20.09" x2="23.96" y2="326.59" gradientTransform="matrix(1, 0, 0, 1, 0, 0)" xlink:href="#linear-gradient"/>
    <linearGradient id="linear-gradient-5" x1="114.42" y1="39.35" x2="114.42" y2="345.85" gradientTransform="matrix(1, 0, 0, 1, 0, 0)" xlink:href="#linear-gradient"/>
    <linearGradient id="linear-gradient-6" x1="194.57" y1="-356.23" x2="194.57" y2="692.25" gradientTransform="matrix(1, 0, 0, 1, 0, 0)" xlink:href="#linear-gradient"/>
  </defs>
  <title>HugeVine_10</title>
  <g id="Layer_2" data-name="Layer 2">
    <g id="Layer_1-2" data-name="Layer 1">
      <g>
        <path class="cls-1" d="M161.09,207.43c-11.83,0-30.83,5.86-26.83,19.86s16,1,12-3a6,6,0,0,0-8-1c-1.51-.88,9.66-17.24,20,0,6,10,0,24-12,27-7.06,1.76-36-3-28-31S161.09,207.43,161.09,207.43Z"/>
        <path class="cls-2" d="M324.62,57.3s-11.51,31.18,16.95,45.8,23.78-6.9,16.66-10.56-12.11,3.9-12.11,3.9-8.44-5.46-1.59-18.8S367,66.7,375.91,71.27s20.38,17.21,10.79,35.89-28.88,23.39-49.34,12.89-35.77-42-35.77-42l9.31-33.44,4.52-4.43Z"/>
        <path class="cls-3" d="M292.29,157.28s-16.8,12.91-24.88,1.3.85-20.57.85-20.57-21,7.21-12,25.07,22.83,12,22.83,12S298.14,168.91,292.29,157.28Z"/>
        <path class="cls-4" d="M45.75,91.38S38.07,75.22,27.07,81.22s4,14,4,14-4,6-17,4-16-18-13-26,12-13,23-14S54.43,67.54,45.75,91.38Z"/>
        <path class="cls-5" d="M92.8,128.5s-9.4-35,19.6-35,16,28,16,28,14-1,19-17-7-31-31-28S63.2,99.53,92.8,128.5Z"/>
        <path class="cls-6" d="M30.9,0s6.67,208.67,119.33,208.67,208-207.35,208-207.35H304.9c14,.2-67.48,182.87-154,182.68-73.33-.16-70-134.7-70-182.68Z"/>
      </g>
    </g>
  </g>
</svg>
