<svg xmlns="http://www.w3.org/2000/svg" xmlns:xlink="http://www.w3.org/1999/xlink" width="236.66" height="401.35" viewBox="0 0 236.66 401.35">
  <defs>
    <style>
      .cls-1 {
        fill: url(#linear-gradient);
      }

      .cls-2 {
        fill: url(#linear-gradient-2);
      }

      .cls-3 {
        fill: url(#linear-gradient-3);
      }

      .cls-4 {
        fill: url(#linear-gradient-4);
      }

      .cls-5 {
        fill: url(#linear-gradient-5);
      }

      .cls-6 {
        fill: url(#linear-gradient-6);
      }
    </style>
    <linearGradient id="linear-gradient" x1="151.08" y1="-28.63" x2="151.08" y2="277.88" gradientUnits="userSpaceOnUse">
      <stop offset="0" stop-color="#005437"/>
      <stop offset="1" stop-color="#006837"/>
    </linearGradient>
    <linearGradient id="linear-gradient-2" x1="48" y1="184.37" x2="48" y2="490.88" xlink:href="#linear-gradient"/>
    <linearGradient id="linear-gradient-3" x1="217.43" y1="-32.63" x2="217.43" y2="273.88" xlink:href="#linear-gradient"/>
    <linearGradient id="linear-gradient-4" x1="152.39" y1="-29.63" x2="152.39" y2="276.88" xlink:href="#linear-gradient"/>
    <linearGradient id="linear-gradient-5" x1="161.19" y1="202.94" x2="161.19" y2="509.44" gradientTransform="matrix(0.86, 0.51, -0.51, 0.86, 175.07, -38.58)" xlink:href="#linear-gradient"/>
    <linearGradient id="linear-gradient-6" x1="138.79" y1="-685.18" x2="138.79" y2="1331.47" xlink:href="#linear-gradient"/>
  </defs>
  <title>HugeVine_16</title>
  <g id="Layer_2" data-name="Layer 2">
    <g id="Layer_1-2" data-name="Layer 1">
      <g>
        <path class="cls-1" d="M170.36,146.33c0-11.83-5.86-30.83-19.86-26.83s-1,16,3,12a6,6,0,0,0,1-8c.88-1.51,17.24,9.66,0,20-10,6-24,0-27-12-1.77-7.06,3-36,31-28S170.36,146.33,170.36,146.33Z"/>
        <path class="cls-2" d="M78,320.5s-4-33-36-33-18,17-10,17,9-9,9-9,10,1,10,16-15,20-25,20-26-6-26-27,15-34,38-34,51,21,51,21l7,34-2,6Z"/>
        <path class="cls-3" d="M208.49,98.31s-4-20.81,10-22.81,18,10,18,10,3-22-17-22-21,15-21,15S195.47,98.31,208.49,98.31Z"/>
        <path class="cls-4" d="M174.18,41.66S166.5,25.5,155.5,31.5s4,14,4,14-4,6-17,4-16-18-13-26,12-13,23-14S182.86,17.82,174.18,41.66Z"/>
        <path class="cls-5" d="M147.61,284s9.62-35,34.63-20.29-.37,32.25-.37,32.25,12.58,6.22,25-5,9.65-30.28-12.56-39.84S136.75,244,147.61,284Z"/>
        <path class="cls-6" d="M68.33,401.35h69s-22.67-86.33,40-168C224.68,171.64,205.33,0,205.33,0h-37s23,144.35-25,206.35S68.33,280.35,68.33,401.35Z"/>
      </g>
    </g>
  </g>
</svg>
