<svg xmlns="http://www.w3.org/2000/svg" xmlns:xlink="http://www.w3.org/1999/xlink" width="556.472" height="258.85" viewBox="0 0 556.472 258.85">
  <defs>
    <linearGradient id="a" x1="-827.27" y1="-771.771" x2="-827.27" y2="-465.267" gradientTransform="translate(1005.9 -532.475) rotate(-82.962)" gradientUnits="userSpaceOnUse">
      <stop offset="0" stop-color="#005437"/>
      <stop offset="1" stop-color="#006837"/>
    </linearGradient>
    <linearGradient id="b" x1="529.006" y1="244.122" x2="529.006" y2="550.626" gradientTransform="matrix(0.732, 0.681, 0.681, -0.732, -114.627, 1.662)" xlink:href="#a"/>
    <linearGradient id="c" x1="170.846" y1="3.163" x2="170.846" y2="309.666" gradientTransform="translate(10.026 173.497) rotate(-41.711)" xlink:href="#a"/>
    <linearGradient id="d" x1="278.236" y1="26.986" x2="278.236" y2="169.905" gradientTransform="matrix(1, 0, 0, 1, 0, 0)" xlink:href="#a"/>
  </defs>
  <title>HugeVine_17</title>
  <g>
    <path d="M295.231,183.109s-33.241-.074-37.162,31.685,14.666,19.947,15.647,12.008-7.83-10.035-7.83-10.035,2.218-9.8,17.1-7.965S301,226.14,299.777,236.065s-9.141,25.069-29.982,22.5-31.906-19.053-29.088-41.879S267.8,168.638,267.8,168.638l34.6-2.781,5.71,2.72Z" fill="url(#a)"/>
    <path d="M483.53,103.4s-30.731,19.255-9.489,39,30.782-9.616,30.782-9.616,9.573,10.264,2.343,25.387-26.233,17.941-41.769-.6S442.123,104.475,483.53,103.4Z" fill="url(#b)"/>
    <path d="M137.9,114.322s-46.317-44.45-17.016-70.566,40.64,7.648,29.443,17.629-25.95,1.7-25.95,1.7S137.7,99.437,163.825,76.148s10.159-41.2,1.509-50.908S137.169,7.477,114.2,27.951,87.652,92.134,137.9,114.322Z" fill="url(#c)"/>
    <path d="M0,7.5S42,185.991,266.987,185.991,556.472,0,556.472,0h-67.5s-52.5,141.882-217.49,141.882S37.5,4.5,37.5,4.5Z" fill="url(#d)"/>
  </g>
</svg>
