<svg xmlns="http://www.w3.org/2000/svg" xmlns:xlink="http://www.w3.org/1999/xlink" width="259.81" height="398.88" viewBox="0 0 259.81 398.88">
  <defs>
    <style>
      .cls-1 {
        fill: url(#linear-gradient);
      }

      .cls-2 {
        fill: url(#linear-gradient-2);
      }

      .cls-3 {
        fill: url(#linear-gradient-3);
      }

      .cls-4 {
        fill: url(#linear-gradient-4);
      }

      .cls-5 {
        fill: url(#linear-gradient-5);
      }

      .cls-6 {
        fill: url(#linear-gradient-6);
      }
    </style>
    <linearGradient id="linear-gradient" x1="-626.56" y1="-1394.89" x2="-626.56" y2="-1088.39" gradientTransform="translate(1231.06 998.73) rotate(-28.8)" gradientUnits="userSpaceOnUse">
      <stop offset="0" stop-color="#5a8539"/>
      <stop offset="1" stop-color="#46952f"/>
    </linearGradient>
    <linearGradient id="linear-gradient-2" x1="208.52" y1="57.87" x2="208.52" y2="364.38" gradientTransform="matrix(1, 0, 0, 1, 0, 0)" xlink:href="#linear-gradient"/>
    <linearGradient id="linear-gradient-3" x1="55.14" y1="57.87" x2="55.14" y2="364.38" gradientTransform="matrix(1, 0, 0, 1, 0, 0)" xlink:href="#linear-gradient"/>
    <linearGradient id="linear-gradient-4" x1="397.35" y1="265.04" x2="397.35" y2="571.54" gradientTransform="matrix(1, 0.09, -0.09, 1, -159.09, -240.19)" xlink:href="#linear-gradient"/>
    <linearGradient id="linear-gradient-5" x1="112.9" y1="57.87" x2="112.9" y2="364.38" gradientTransform="matrix(1, 0, 0, 1, 0, 0)" xlink:href="#linear-gradient"/>
    <linearGradient id="linear-gradient-6" x1="216.07" y1="57.87" x2="216.07" y2="364.38" gradientTransform="matrix(1, 0, 0, 1, 0, 0)" xlink:href="#linear-gradient"/>
  </defs>
  <title>HugeVine_5</title>
  <g id="Layer_2" data-name="Layer 2">
    <g id="Layer_1-2" data-name="Layer 1">
      <g>
        <path class="cls-1" d="M110.53,198.88s-19.4-27-47.44-11.57S55.5,210.88,62.51,207s3.55-12.23,3.55-12.23,9.25-3.94,16.48,9.21S79,228.76,70.26,233.58s-25.67,7.26-35.79-11.14-3.23-37,16.92-48.1,54.81-6.17,54.81-6.17l22.51,26.42,1.14,6.22Z"/>
        <path class="cls-2" d="M199.58,267.64s-4-20.81,10-22.81,18,10,18,10,3-22-17-22-21,15-21,15S186.57,267.64,199.58,267.64Z"/>
        <path class="cls-3" d="M76.93,129.91s-7.69-16.16-18.69-10.16,4,14,4,14-4,6-17,4-16-18-13-26,12-13,23-14S85.61,106.07,76.93,129.91Z"/>
        <path class="cls-4" d="M184.62,144.64s-6.33-35.71,22.56-33.2,13.52,29.28,13.52,29.28,14,.22,20.4-15.29-4.29-31.49-28.46-30.58S157.64,113.21,184.62,144.64Z"/>
        <path class="cls-5" d="M181.63,398.88h44.18C206.34,293.09,189.54,267.53,174.7,0H158s1.86,119.93,13,178.43c0,0-26-90.68-39-178.43h-22.3s39,163.8,48.32,222.3c0,0-53.89-152.1-92.92-222.3H46.46s50.18,90.68,59.47,140.4c0,0-61.33-99.45-76.19-140.4H0S123.7,174.3,181.63,398.88Z"/>
        <path class="cls-6" d="M180.06,95.62s-5-64,34.25-64,25.25,32.75,10.25,32.75-20.5-16-20.5-16-14.25,36,20.75,36,35-24,35-37-9.21-32-40-32S157.31,45.62,180.06,95.62Z"/>
      </g>
    </g>
  </g>
</svg>
