<svg xmlns="http://www.w3.org/2000/svg" xmlns:xlink="http://www.w3.org/1999/xlink" width="170.162" height="400" viewBox="0 0 170.162 400">
  <defs>
    <linearGradient id="a" x1="413.323" y1="443.231" x2="365.323" y2="779.231" gradientTransform="translate(-242.473 -446.784) rotate(10.379)" gradientUnits="userSpaceOnUse">
      <stop offset="0" stop-color="#5a8539"/>
      <stop offset="1" stop-color="#46952f"/>
    </linearGradient>
    <linearGradient id="b" x1="434.718" y1="490.817" x2="386.718" y2="826.817" gradientTransform="translate(-243.476 -543.569) rotate(11.787)" xlink:href="#a"/>
    <linearGradient id="c" x1="1662.59" y1="1191.887" x2="1614.59" y2="1527.887" gradientTransform="matrix(0.799, 0.601, -0.601, 0.799, -391.904, -2046.163)" xlink:href="#a"/>
    <linearGradient id="d" x1="1468.042" y1="1096.75" x2="1420.042" y2="1432.75" gradientTransform="translate(-387.175 -1771.957) rotate(31.525)" xlink:href="#a"/>
    <linearGradient id="e" x1="116.527" y1="29.793" x2="68.527" y2="365.793" gradientTransform="matrix(1, 0, 0, 1, 0, 0)" xlink:href="#a"/>
  </defs>
  <title>HugeVine_7</title>
  <g>
    <path d="M64.081,192.383c2.132-11.641-.208-31.385-14.7-29.973s-3.867,15.558.789,12.344a6.05,6.05,0,0,0,2.425-7.689c1.14-1.321,15.217,12.6-3.6,19.673-10.917,4.1-23.607-4.324-24.4-16.668-.464-7.265,9.437-34.87,35.537-21.957S64.081,192.383,64.081,192.383Z" fill="url(#a)"/>
    <path d="M73.863,137.717s2.826-33.121-28.5-39.658S24.27,111.024,32.1,112.658s10.648-6.972,10.648-6.972,9.585,3.022,6.521,17.7S30.5,139.906,20.713,137.863-3.513,126.678.777,106.121,22.3,76.417,44.921,80.6c44.058,8.15,45.634,30.976,45.634,30.976l-.093,34.713-3.183,5.464Z" fill="url(#b)"/>
    <path d="M93.254,59.2S96.1,45.21,86.208,43.764s-4.161,10.85-4.161,10.85-5.429,1.91-12.764-5.6-1.577-19.156,4.173-22.821,13.889-2.54,21.386,2.1S110.224,48.156,93.254,59.2Z" fill="url(#c)"/>
    <path d="M103.407,129.023s10.3-34.771,35.021-19.607-1,32.233-1,32.233,12.457,6.468,25.085-4.556,10.242-30.085-11.785-40.077S93.325,88.848,103.407,129.023Z" fill="url(#d)"/>
    <path d="M92.979,400s-22-195,40-400h-17s-66,121-66,400Z" fill="url(#e)"/>
  </g>
</svg>
