<svg xmlns="http://www.w3.org/2000/svg" xmlns:xlink="http://www.w3.org/1999/xlink" width="556.47" height="258.85" viewBox="0 0 556.47 258.85">
  <defs>
    <style>
      .cls-1 {
        fill: url(#linear-gradient);
      }

      .cls-2 {
        fill: url(#linear-gradient-2);
      }

      .cls-3 {
        fill: url(#linear-gradient-3);
      }

      .cls-4 {
        fill: url(#linear-gradient-4);
      }
    </style>
    <linearGradient id="linear-gradient" x1="-827.27" y1="-771.77" x2="-827.27" y2="-465.27" gradientTransform="translate(1005.9 -532.47) rotate(-82.96)" gradientUnits="userSpaceOnUse">
      <stop offset="0" stop-color="#005437"/>
      <stop offset="1" stop-color="#006837"/>
    </linearGradient>
    <linearGradient id="linear-gradient-2" x1="529.01" y1="244.12" x2="529.01" y2="550.63" gradientTransform="matrix(0.73, 0.68, 0.68, -0.73, -114.63, 1.66)" xlink:href="#linear-gradient"/>
    <linearGradient id="linear-gradient-3" x1="170.85" y1="3.16" x2="170.85" y2="309.67" gradientTransform="translate(10.03 173.5) rotate(-41.71)" xlink:href="#linear-gradient"/>
    <linearGradient id="linear-gradient-4" x1="278.24" y1="26.99" x2="278.24" y2="169.91" gradientTransform="matrix(1, 0, 0, 1, 0, 0)" xlink:href="#linear-gradient"/>
  </defs>
  <title>HugeVine_17</title>
  <g id="Layer_2" data-name="Layer 2">
    <g id="Layer_1-2" data-name="Layer 1">
      <g>
        <path class="cls-1" d="M295.23,183.11S262,183,258.07,214.79s14.67,20,15.65,12-7.83-10-7.83-10,2.21-9.81,17.1-8,18,17.34,16.79,27.26-9.14,25.07-30,22.5-31.9-19.05-29.08-41.88,27.09-48,27.09-48l34.6-2.78,5.71,2.72Z"/>
        <path class="cls-2" d="M483.53,103.4s-30.73,19.26-9.49,39,30.78-9.61,30.78-9.61,9.58,10.26,2.35,25.38-26.24,17.94-41.77-.59S442.12,104.47,483.53,103.4Z"/>
        <path class="cls-3" d="M137.9,114.32s-46.31-44.45-17-70.56,40.64,7.64,29.44,17.62-26,1.7-26,1.7,13.32,36.36,39.44,13.07S174,34.94,165.33,25.24,137.17,7.48,114.2,28,87.65,92.13,137.9,114.32Z"/>
        <path class="cls-4" d="M0,7.5S42,186,267,186,556.47,0,556.47,0H489s-52.5,141.88-217.49,141.88S37.5,4.5,37.5,4.5Z"/>
      </g>
    </g>
  </g>
</svg>
