<svg xmlns="http://www.w3.org/2000/svg" xmlns:xlink="http://www.w3.org/1999/xlink" width="451.98" height="399" viewBox="0 0 451.98 399">
  <defs>
    <style>
      .cls-1 {
        fill: url(#linear-gradient);
      }

      .cls-2 {
        fill: url(#linear-gradient-2);
      }

      .cls-3 {
        fill: url(#linear-gradient-3);
      }

      .cls-4 {
        fill: url(#linear-gradient-4);
      }
    </style>
    <linearGradient id="linear-gradient" x1="-919.9" y1="-1042.64" x2="-919.9" y2="-736.13" gradientTransform="translate(1509.48 603.06) rotate(-28.8)" gradientUnits="userSpaceOnUse">
      <stop offset="0" stop-color="#005437"/>
      <stop offset="1" stop-color="#006837"/>
    </linearGradient>
    <linearGradient id="linear-gradient-2" x1="676.66" y1="296.77" x2="676.66" y2="603.27" gradientTransform="matrix(1, 0.09, -0.09, 1, -225.53, -188.32)" xlink:href="#linear-gradient"/>
    <linearGradient id="linear-gradient-3" x1="279.5" y1="135.8" x2="279.5" y2="442.3" gradientTransform="matrix(0.62, -0.78, 0.78, 0.62, -136.06, 209.25)" xlink:href="#linear-gradient"/>
    <linearGradient id="linear-gradient-4" x1="213.96" y1="-681.16" x2="213.96" y2="1323.67" gradientTransform="matrix(1, 0, 0, 1, 0, 0)" xlink:href="#linear-gradient"/>
  </defs>
  <title>HugeVine_18</title>
  <g id="Layer_2" data-name="Layer 2">
    <g id="Layer_1-2" data-name="Layer 1">
      <g>
        <path class="cls-1" d="M301.61,253.22s-19.41-27-47.45-11.58-7.58,23.57-.57,19.72,3.55-12.22,3.55-12.22,9.24-3.95,16.47,9.2-3.51,24.75-12.27,29.57-25.68,7.27-35.79-11.13-3.24-37,16.91-48.11,54.81-6.16,54.81-6.16l22.52,26.42,1.14,6.22Z"/>
        <path class="cls-2" d="M393.7,252.31s-6.34-35.71,22.55-33.2,13.52,29.28,13.52,29.28,14,.22,20.4-15.29-4.29-31.49-28.46-30.58S366.72,220.88,393.7,252.31Z"/>
        <path class="cls-3" d="M151.41,127s-53.17-36-28.7-66.67,41.34.66,32,12.39-25.28,6.06-25.28,6.06S148.69,112.36,170.5,85s3.05-42.33-7.12-50.43-30.76-12.74-49.94,11.32S98.13,113.63,151.41,127Z"/>
        <path class="cls-4" d="M1.25,0S-28.82,159,205.92,197.35C369.25,224,303.25,399,303.25,399H427.92s-7.34-264.32-169.34-264.32S39.92,57.32,39.92,0Z"/>
      </g>
    </g>
  </g>
</svg>
