<svg xmlns="http://www.w3.org/2000/svg" xmlns:xlink="http://www.w3.org/1999/xlink" width="225.07" height="703.92" viewBox="0 0 225.07 703.92">
  <defs>
    <style>
      .cls-1 {
        fill: url(#linear-gradient);
      }

      .cls-2 {
        fill: url(#linear-gradient-2);
      }

      .cls-3 {
        fill: url(#linear-gradient-3);
      }

      .cls-4 {
        fill: url(#linear-gradient-4);
      }

      .cls-5 {
        fill: url(#linear-gradient-5);
      }

      .cls-6 {
        fill: url(#linear-gradient-6);
      }
    </style>
    <linearGradient id="linear-gradient" x1="94.93" y1="434.96" x2="94.93" y2="741.47" gradientTransform="matrix(0.83, 0.56, -0.56, 0.83, 347.45, 48.58)" gradientUnits="userSpaceOnUse">
      <stop offset="0" stop-color="#005437"/>
      <stop offset="1" stop-color="#006837"/>
    </linearGradient>
    <linearGradient id="linear-gradient-2" x1="139.35" y1="340.96" x2="139.35" y2="647.47" gradientTransform="matrix(1, 0, 0, 1, 0, 0)" xlink:href="#linear-gradient"/>
    <linearGradient id="linear-gradient-3" x1="194.78" y1="227.46" x2="194.78" y2="533.97" gradientTransform="matrix(1, 0, 0, 1, 0, 0)" xlink:href="#linear-gradient"/>
    <linearGradient id="linear-gradient-4" x1="31.21" y1="71.66" x2="31.21" y2="378.17" gradientTransform="matrix(0.8, 0.59, -0.59, 0.8, 82.57, 6.61)" xlink:href="#linear-gradient"/>
    <linearGradient id="linear-gradient-5" x1="128.86" y1="142.46" x2="128.86" y2="448.97" gradientTransform="matrix(1, 0, 0, 1, 0, 0)" xlink:href="#linear-gradient"/>
    <linearGradient id="linear-gradient-6" x1="112.53" y1="102.14" x2="112.53" y2="643.05" gradientTransform="matrix(1, 0, 0, 1, 0, 0)" xlink:href="#linear-gradient"/>
  </defs>
  <title>HugeVine_21</title>
  <g id="Layer_2" data-name="Layer 2">
    <g id="Layer_1-2" data-name="Layer 1">
      <g>
        <path class="cls-1" d="M98.41,616.94c6.67-9.78,12.52-28.78-1.3-33.36s-9.83,12.66-4.28,11.61a6.05,6.05,0,0,0,5.33-6.05c1.58-.75,8.81,17.68-11.26,16.53-11.64-.68-19.83-13.52-15.55-25.12,2.51-6.83,22.75-28.07,41.38-5.69S98.41,616.94,98.41,616.94Z"/>
        <path class="cls-2" d="M169.35,477.09s-4-33-36-33-18,17-10,17,9-9,9-9,10,1,10,16-15,20-25,20-26-6-26-27,15-34,38-34,51,21,51,21l7,34-2,6Z"/>
        <path class="cls-3" d="M185.84,358.4s-4-20.81,10-22.81,18,10,18,10,3-22-17-22-21,15-21,15S172.82,358.4,185.84,358.4Z"/>
        <path class="cls-4" d="M40.32,153.09s3.41-17.56-9-19.27-5.09,13.64-5.09,13.64-6.79,2.46-16.06-6.87-2.18-24,5-28.64,17.38-3.34,26.82,2.39S61.46,139.07,40.32,153.09Z"/>
        <path class="cls-5" d="M107.25,231.61s-9.4-35,19.6-35,16,28,16,28,14-1,19-17-7-31-31-28S77.65,202.64,107.25,231.61Z"/>
        <path class="cls-6" d="M81.93,0h66.31S95,114.82,106.81,217.81,251.22,375.24,220.44,491.25,19.8,720.3,1.45,702,144.22,628.38,165.8,491.24C182.56,384.71,51.62,320.1,41,204.1S81.93,0,81.93,0Z"/>
      </g>
    </g>
  </g>
</svg>
