<svg xmlns="http://www.w3.org/2000/svg" xmlns:xlink="http://www.w3.org/1999/xlink" width="259.806" height="398.875" viewBox="0 0 259.806 398.875">
  <defs>
    <linearGradient id="a" x1="-433.157" y1="-1345.233" x2="-433.157" y2="-1038.73" gradientTransform="translate(1037.664 1048.395) rotate(-28.802)" gradientUnits="userSpaceOnUse">
      <stop offset="0" stop-color="#5a8539"/>
      <stop offset="1" stop-color="#46952f"/>
    </linearGradient>
    <linearGradient id="b" x1="208.522" y1="57.875" x2="208.522" y2="364.379" gradientTransform="matrix(1, 0, 0, 1, 0, 0)" xlink:href="#a"/>
    <linearGradient id="c" x1="55.138" y1="57.875" x2="55.138" y2="364.379" gradientTransform="matrix(1, 0, 0, 1, 0, 0)" xlink:href="#a"/>
    <linearGradient id="d" x1="362.599" y1="266.545" x2="362.599" y2="573.048" gradientTransform="matrix(0.996, 0.087, -0.087, 0.996, -124.336, -238.684)" xlink:href="#a"/>
    <linearGradient id="e" x1="112.903" y1="57.875" x2="112.903" y2="364.379" gradientTransform="matrix(1, 0, 0, 1, 0, 0)" xlink:href="#a"/>
    <linearGradient id="f" x1="216.066" y1="57.875" x2="216.066" y2="364.379" gradientTransform="matrix(1, 0, 0, 1, 0, 0)" xlink:href="#a"/>
  </defs>
  <title>HugeVine_5</title>
  <g>
    <path d="M110.531,198.884s-19.4-26.99-47.445-11.573-7.583,23.569-.573,19.715S66.064,194.8,66.064,194.8s9.244-3.942,16.471,9.2-3.509,24.752-12.271,29.57-25.675,7.269-35.792-11.133-3.236-37.021,16.918-48.1,54.808-6.169,54.808-6.169l22.515,26.421,1.138,6.222Z" fill="url(#a)"/>
    <path d="M199.58,267.642S195.6,246.834,209.6,244.834s18,10,18,10,3-22-17-22-21,15-21,15S186.566,267.642,199.58,267.642Z" fill="url(#b)"/>
    <path d="M76.925,129.91s-7.681-16.16-18.681-10.16,4,14,4,14-4,6-17,4-16-18-13-26,12-13,23-14S85.607,106.071,76.925,129.91Z" fill="url(#c)"/>
    <path d="M184.622,144.639s-6.332-35.708,22.559-33.2,13.516,29.28,13.516,29.28,14.034.216,20.4-15.291-4.29-31.49-28.459-30.579S157.642,113.211,184.622,144.639Z" fill="url(#d)"/>
    <path d="M181.627,398.875h44.179C206.338,293.088,189.54,267.532,174.7,0H157.973s1.859,119.927,13.01,178.428c0,0-26.019-90.677-39.029-178.428h-22.3s39.029,163.8,48.321,222.3c0,0-53.9-152.1-92.925-222.3H46.463s50.179,90.677,59.472,140.4c0,0-61.331-99.451-76.2-140.4H0S123.7,174.3,181.627,398.875Z" fill="url(#e)"/>
    <path d="M180.056,95.623s-5-64,34.25-64,25.25,32.75,10.25,32.75-20.5-16-20.5-16-14.25,36,20.75,36,35-24,35-37-9.206-32-39.978-32S157.306,45.623,180.056,95.623Z" fill="url(#f)"/>
  </g>
</svg>
