<svg xmlns="http://www.w3.org/2000/svg" xmlns:xlink="http://www.w3.org/1999/xlink" width="206.98" height="400" viewBox="0 0 206.98 400">
  <defs>
    <style>
      .cls-1 {
        fill: url(#linear-gradient);
      }

      .cls-2 {
        fill: url(#linear-gradient-2);
      }

      .cls-3 {
        fill: url(#linear-gradient-3);
      }

      .cls-4 {
        fill: url(#linear-gradient-4);
      }

      .cls-5 {
        fill: url(#linear-gradient-5);
      }

      .cls-6 {
        fill: url(#linear-gradient-6);
      }

      .cls-7 {
        fill: url(#linear-gradient-7);
      }
    </style>
    <linearGradient id="linear-gradient" x1="-190.11" y1="-257.41" x2="-190.11" y2="49.09" gradientTransform="translate(252.3 292.65) rotate(-6.97)" gradientUnits="userSpaceOnUse">
      <stop offset="0" stop-color="#5a8539"/>
      <stop offset="1" stop-color="#46952f"/>
    </linearGradient>
    <linearGradient id="linear-gradient-2" x1="48" y1="59" x2="48" y2="365.5" gradientTransform="matrix(1, 0, 0, 1, 0, 0)" xlink:href="#linear-gradient"/>
    <linearGradient id="linear-gradient-3" x1="137.43" y1="59" x2="137.43" y2="365.5" gradientTransform="matrix(1, 0, 0, 1, 0, 0)" xlink:href="#linear-gradient"/>
    <linearGradient id="linear-gradient-4" x1="1846.58" y1="1134.45" x2="1846.58" y2="1440.96" gradientTransform="matrix(0.8, 0.6, -0.6, 0.8, -691.15, -1952.77)" xlink:href="#linear-gradient"/>
    <linearGradient id="linear-gradient-5" x1="5892.44" y1="-1061.49" x2="5892.44" y2="-754.99" gradientTransform="matrix(-0.92, 0.39, 0.39, 0.92, 5973.41, -1127.1)" xlink:href="#linear-gradient"/>
    <linearGradient id="linear-gradient-6" x1="1632.32" y1="1050.96" x2="1632.32" y2="1357.46" gradientTransform="translate(-639.79 -1679.84) rotate(31.53)" xlink:href="#linear-gradient"/>
    <linearGradient id="linear-gradient-7" x1="118.49" y1="59" x2="118.49" y2="365.5" gradientTransform="matrix(1, 0, 0, 1, 0, 0)" xlink:href="#linear-gradient"/>
  </defs>
  <title>HugeVine_8</title>
  <g id="Layer_2" data-name="Layer 2">
    <g id="Layer_1-2" data-name="Layer 1">
      <g>
        <path class="cls-1" d="M64.65,165.4c-1.44-11.75-9.56-29.9-23-24.23s1,16,4.43,11.55a6.06,6.06,0,0,0,0-8.07c.69-1.6,18.28,7.5,2.42,19.86-9.2,7.16-23.82,2.91-28.25-8.64-2.61-6.8-1.39-36.1,27.37-31.55S64.65,165.4,64.65,165.4Z"/>
        <path class="cls-2" d="M78,241.5s-4-33-36-33-18,17-10,17,9-9,9-9,10,1,10,16-15,20-25,20-26-6-26-27,15-34,38-34,51,21,51,21l7,34-2,6Z"/>
        <path class="cls-3" d="M128.49,287.31s-4-20.81,10-22.81,18,10,18,10,3-22-17-22-21,15-21,15S115.47,287.31,128.49,287.31Z"/>
        <path class="cls-4" d="M106.77,88s2.85-14-7-15.44-4.16,10.85-4.16,10.85-5.43,1.91-12.77-5.6S81.23,58.67,87,55s13.89-2.54,21.38,2.09S123.74,77,106.77,88Z"/>
        <path class="cls-5" d="M125.46,243s1.19-25.18,18.74-23.37S146.63,240,146.63,240s8.46,5.62,24.26-4.06,11-32.09,2.74-40.86-22.67-10.35-37.5-5.66S101.21,216.74,125.46,243Z"/>
        <path class="cls-6" d="M140.22,129s10.3-34.77,35-19.6-1,32.23-1,32.23,12.46,6.47,25.08-4.56S209.57,107,187.54,97,130.14,88.85,140.22,129Z"/>
        <path class="cls-7" d="M154.5,400s-29-71-29-167,56-233,56-233h-11s-44,82-51,152c0,0-7-77,29-152h-10s-42,58-42,198c0,0-29-58-29-198h-11s-8,103,21,240-20,160-20,160Z"/>
      </g>
    </g>
  </g>
</svg>
