<svg xmlns="http://www.w3.org/2000/svg" xmlns:xlink="http://www.w3.org/1999/xlink" width="225.065" height="703.923" viewBox="0 0 225.065 703.923">
  <defs>
    <linearGradient id="a" x1="94.931" y1="434.963" x2="94.931" y2="741.466" gradientTransform="translate(347.45 48.582) rotate(34.267)" gradientUnits="userSpaceOnUse">
      <stop offset="0" stop-color="#005437"/>
      <stop offset="1" stop-color="#006837"/>
    </linearGradient>
    <linearGradient id="b" x1="139.35" y1="340.963" x2="139.35" y2="647.466" gradientTransform="matrix(1, 0, 0, 1, 0, 0)" xlink:href="#a"/>
    <linearGradient id="c" x1="194.777" y1="227.463" x2="194.777" y2="533.966" gradientTransform="matrix(1, 0, 0, 1, 0, 0)" xlink:href="#a"/>
    <linearGradient id="d" x1="31.21" y1="71.662" x2="31.21" y2="378.166" gradientTransform="translate(82.567 6.608) rotate(36.431)" xlink:href="#a"/>
    <linearGradient id="e" x1="128.863" y1="142.463" x2="128.863" y2="448.966" gradientTransform="matrix(1, 0, 0, 1, 0, 0)" xlink:href="#a"/>
    <linearGradient id="f" x1="112.533" y1="102.136" x2="112.533" y2="643.045" gradientTransform="matrix(1, 0, 0, 1, 0, 0)" xlink:href="#a"/>
  </defs>
  <title>HugeVine_21</title>
  <g>
    <path d="M98.413,616.938c6.664-9.78,12.52-28.781-1.3-33.358s-9.836,12.66-4.278,11.606a6.049,6.049,0,0,0,5.331-6.048c1.578-.746,8.81,17.687-11.261,16.528-11.643-.672-19.834-13.513-15.557-25.119,2.518-6.831,22.75-28.062,41.385-5.685S98.413,616.938,98.413,616.938Z" fill="url(#a)"/>
    <path d="M169.35,477.088s-4-33-36-33-18,17-10,17,9-9,9-9,10,1,10,16-15,20-25,20-26-6-26-27,15-34,38-34,51,21,51,21l7,34-2,6Z" fill="url(#b)"/>
    <path d="M185.835,358.4s-3.985-20.807,10.015-22.807,18,10,18,10,3-22-17-22-21,15-21,15S172.821,358.4,185.835,358.4Z" fill="url(#c)"/>
    <path d="M40.318,153.093s3.417-17.564-9-19.269-5.1,13.639-5.1,13.639-6.782,2.453-16.053-6.877-2.184-23.984,4.98-28.639,17.375-3.333,26.819,2.395S61.46,139.067,40.318,153.093Z" fill="url(#d)"/>
    <path d="M107.25,231.613s-9.4-35.025,19.6-35.025,16,28,16,28,14-1,19-17-7-31-31-28S77.65,202.639,107.25,231.613Z" fill="url(#e)"/>
    <path d="M81.932,0h66.3S94.968,114.822,106.805,217.808,251.221,375.244,220.444,491.251,19.8,720.3,1.453,701.956,144.223,628.379,165.8,491.24C182.564,384.714,51.617,320.1,40.963,204.1S81.932,0,81.932,0Z" fill="url(#f)"/>
  </g>
</svg>
