<svg xmlns="http://www.w3.org/2000/svg" xmlns:xlink="http://www.w3.org/1999/xlink" width="180.12" height="399" viewBox="0 0 180.12 399">
  <defs>
    <style>
      .cls-1 {
        fill: url(#linear-gradient);
      }

      .cls-2 {
        fill: url(#linear-gradient-2);
      }

      .cls-3 {
        fill: url(#linear-gradient-3);
      }

      .cls-4 {
        fill: url(#linear-gradient-4);
      }

      .cls-5 {
        fill: url(#linear-gradient-5);
      }

      .cls-6 {
        fill: url(#linear-gradient-6);
      }
    </style>
    <linearGradient id="linear-gradient" x1="72" y1="57.87" x2="72" y2="364.38" gradientUnits="userSpaceOnUse">
      <stop offset="0" stop-color="#005437"/>
      <stop offset="1" stop-color="#006837"/>
    </linearGradient>
    <linearGradient id="linear-gradient-2" x1="94.58" y1="57.87" x2="94.58" y2="364.38" xlink:href="#linear-gradient"/>
    <linearGradient id="linear-gradient-3" x1="70" y1="57.87" x2="70" y2="364.38" xlink:href="#linear-gradient"/>
    <linearGradient id="linear-gradient-4" x1="141.93" y1="57.87" x2="141.93" y2="364.38" xlink:href="#linear-gradient"/>
    <linearGradient id="linear-gradient-5" x1="72.89" y1="57.87" x2="72.89" y2="364.38" xlink:href="#linear-gradient"/>
    <linearGradient id="linear-gradient-6" x1="146.01" y1="57.87" x2="146.01" y2="364.38" xlink:href="#linear-gradient"/>
  </defs>
  <title>HugeVine_4</title>
  <g id="Layer_2" data-name="Layer 2">
    <g id="Layer_1-2" data-name="Layer 1">
      <g>
        <path class="cls-1" d="M0,0S105,94,113,198,77,399,77,399h65s8-104-8-204S105,126,94,0H85s1,41,7,61c0,0-14-31-21-61H59S80,56,85,76c0,0-29-52-50-76H25S52,31,57,48c0,0-33-34-41-48Z"/>
        <path class="cls-2" d="M113.86,232.83C113.86,221,108,202,94,206s-1,16,3,12a6,6,0,0,0,1-8c.88-1.51,17.24,9.66,0,20-10,6-24,0-27-12-1.77-7.06,3-36,31-28S113.86,232.83,113.86,232.83Z"/>
        <path class="cls-3" d="M100,194s-4-33-36-33-18,17-10,17,9-9,9-9,10,1,10,16-15,20-25,20-26-6-26-27,15-34,38-34,51,21,51,21l7,34-2,6Z"/>
        <path class="cls-4" d="M133,188.81S129,168,143,166s18,10,18,10,3-22-17-22-21,15-21,15S120,188.81,133,188.81Z"/>
        <path class="cls-5" d="M94.68,129.16S87,113,76,119s4,14,4,14-4,6-17,4-16-18-13-26S62,98,73,97,103.36,105.32,94.68,129.16Z"/>
        <path class="cls-6" d="M124.4,147S115,112,144,112s16,28,16,28,14-1,19-17-7-31-31-28S94.8,118.05,124.4,147Z"/>
      </g>
    </g>
  </g>
</svg>
