<svg xmlns="http://www.w3.org/2000/svg" xmlns:xlink="http://www.w3.org/1999/xlink" width="390.326" height="250.614" viewBox="0 0 390.326 250.614">
  <defs>
    <linearGradient id="a" x1="137.651" y1="107.192" x2="137.651" y2="413.695" gradientTransform="translate(-121.056 364.358) rotate(-90)" gradientUnits="userSpaceOnUse">
      <stop offset="0" stop-color="#005437"/>
      <stop offset="1" stop-color="#006837"/>
    </linearGradient>
    <linearGradient id="b" x1="444.363" y1="46.009" x2="444.363" y2="352.513" gradientTransform="translate(663.386 436.023) rotate(-152.816)" xlink:href="#a"/>
    <linearGradient id="c" x1="331.277" y1="88.828" x2="331.277" y2="395.332" gradientTransform="translate(240.823 543.993) rotate(-116.704)" xlink:href="#a"/>
    <linearGradient id="d" x1="23.963" y1="20.091" x2="23.963" y2="326.595" gradientTransform="matrix(1, 0, 0, 1, 0, 0)" xlink:href="#a"/>
    <linearGradient id="e" x1="114.416" y1="39.351" x2="114.416" y2="345.854" gradientTransform="matrix(1, 0, 0, 1, 0, 0)" xlink:href="#a"/>
    <linearGradient id="f" x1="194.565" y1="-356.231" x2="194.565" y2="692.246" gradientTransform="matrix(1, 0, 0, 1, 0, 0)" xlink:href="#a"/>
  </defs>
  <title>HugeVine_15</title>
  <g>
    <path d="M161.094,207.43c-11.834,0-30.834,5.859-26.834,19.859s16,1,12-3a6.05,6.05,0,0,0-8-1c-1.5-.884,9.656-17.24,20,0,6,10,0,24-12,27-7.063,1.766-36-3-28-31S161.094,207.43,161.094,207.43Z" fill="url(#a)"/>
    <path d="M324.625,57.3s-11.518,31.183,16.947,45.8,23.779-6.9,16.662-10.554-12.117,3.894-12.117,3.894-8.439-5.458-1.586-18.8,22.48-10.939,31.375-6.37,20.387,17.215,10.794,35.9-28.876,23.392-49.336,12.884-35.773-41.979-35.773-41.979L310.9,44.625l4.52-4.423Z" fill="url(#b)"/>
    <path d="M292.29,157.28s-16.8,12.911-24.875,1.3.844-20.574.844-20.574-21,7.207-12.014,25.074S279.083,175.1,279.083,175.1,298.139,168.907,292.29,157.28Z" fill="url(#c)"/>
    <path d="M45.75,91.377S38.069,75.216,27.069,81.216s4,14,4,14-4,6-17,4-16-18-13-26,12-13,23-14S54.431,67.537,45.75,91.377Z" fill="url(#d)"/>
    <path d="M92.8,128.5s-9.4-35.025,19.6-35.025,16,28,16,28,14-1,19-17-7-31-31-28S63.2,99.527,92.8,128.5Z" fill="url(#e)"/>
    <path d="M30.9,0s6.666,208.667,119.333,208.667,208-207.35,208-207.35H304.9c14.008.206-67.481,182.877-154,182.683-73.333-.164-70-134.7-70-182.683Z" fill="url(#f)"/>
  </g>
</svg>
