<svg xmlns="http://www.w3.org/2000/svg" xmlns:xlink="http://www.w3.org/1999/xlink" width="205.38" height="399" viewBox="0 0 205.38 399">
  <defs>
    <style>
      .cls-1 {
        fill: url(#linear-gradient);
      }

      .cls-2 {
        fill: url(#linear-gradient-2);
      }

      .cls-3 {
        fill: url(#linear-gradient-3);
      }

      .cls-4 {
        fill: url(#linear-gradient-4);
      }
    </style>
    <linearGradient id="linear-gradient" x1="-1068.04" y1="-1305.87" x2="-1068.04" y2="-999.37" gradientTransform="matrix(0.95, 0.32, -0.32, 0.95, 683.26, 1689.78)" gradientUnits="userSpaceOnUse">
      <stop offset="0" stop-color="#005437"/>
      <stop offset="1" stop-color="#006837"/>
    </linearGradient>
    <linearGradient id="linear-gradient-2" x1="407.89" y1="317.57" x2="407.89" y2="624.07" gradientTransform="matrix(1, 0.09, -0.09, 1, -224.46, -212.97)" xlink:href="#linear-gradient"/>
    <linearGradient id="linear-gradient-3" x1="161.64" y1="85.67" x2="161.64" y2="392.17" gradientTransform="matrix(1, 0, 0, 1, 0, 0)" xlink:href="#linear-gradient"/>
    <linearGradient id="linear-gradient-4" x1="80.79" y1="57.89" x2="80.79" y2="364.49" gradientTransform="matrix(1, 0, 0, 1, 0, 0)" xlink:href="#linear-gradient"/>
  </defs>
  <title>HugeVine_19</title>
  <g id="Layer_2" data-name="Layer 2">
    <g id="Layer_1-2" data-name="Layer 1">
      <g>
        <path class="cls-1" d="M70.56,265.49S77.38,233,47.08,222.67,24.57,233,32.15,235.55s11.41-5.63,11.41-5.63,9.15,4.16,4.33,18.36-20.63,14.12-30.1,10.91-22.69-14-15.94-33.93,25.13-27.37,46.91-20S90.3,241.56,90.3,241.56L86,276l-3.82,5Z"/>
        <path class="cls-2" d="M125.2,225.1s-6.33-35.71,22.56-33.2,13.51,29.28,13.51,29.28,14,.22,20.4-15.29-4.29-31.49-28.45-30.58S98.22,193.67,125.2,225.1Z"/>
        <path class="cls-3" d="M125.63,123.42s-5-64,34.25-64,25.25,32.75,10.25,32.75-20.5-16-20.5-16-14.25,36,20.75,36,35-24,35-37-9.2-32-40-32S102.88,73.42,125.63,123.42Z"/>
        <path class="cls-4" d="M66.09,0s41,218.65-32,399h64s43-69.35,25-399Z"/>
      </g>
    </g>
  </g>
</svg>
