<svg xmlns="http://www.w3.org/2000/svg" xmlns:xlink="http://www.w3.org/1999/xlink" width="245.977" height="999.426" viewBox="0 0 245.977 999.426">
  <defs>
    <linearGradient id="a" x1="-313.157" y1="431.981" x2="-313.157" y2="738.485" gradientTransform="translate(388.829 138.952) rotate(-6.966)" gradientUnits="userSpaceOnUse">
      <stop offset="0" stop-color="#005437"/>
      <stop offset="1" stop-color="#006837"/>
    </linearGradient>
    <linearGradient id="b" x1="48" y1="167.529" x2="48" y2="474.032" gradientTransform="matrix(1, 0, 0, 1, 0, 0)" xlink:href="#a"/>
    <linearGradient id="c" x1="124.381" y1="343.71" x2="124.381" y2="650.213" gradientTransform="matrix(1, 0, 0, 1, 0, 0)" xlink:href="#a"/>
    <linearGradient id="d" x1="2501.112" y1="354.851" x2="2501.112" y2="661.355" gradientTransform="matrix(0.799, 0.601, -0.601, 0.799, -1650.769, -1475.597)" xlink:href="#a"/>
    <linearGradient id="e" x1="4030.747" y1="-741.129" x2="4030.747" y2="-434.625" gradientTransform="matrix(-0.922, 0.386, 0.386, 0.922, 4140.528, -758.669)" xlink:href="#a"/>
    <linearGradient id="f" x1="2447.179" y1="769.203" x2="2447.179" y2="1075.707" gradientTransform="translate(-1442.714 -1232.212) rotate(31.525)" xlink:href="#a"/>
    <linearGradient id="g" x1="131.854" y1="145.012" x2="131.854" y2="912.992" gradientTransform="matrix(1, 0, 0, 1, 0, 0)" xlink:href="#a"/>
  </defs>
  <title>HugeVine_20</title>
  <g>
    <path d="M162.648,710.924c-1.435-11.747-9.555-29.9-22.967-24.228s.948,16,4.434,11.548a6.049,6.049,0,0,0,.022-8.062c.695-1.6,18.283,7.494,2.426,19.852-9.2,7.169-23.823,2.911-28.257-8.637-2.609-6.8-1.388-36.1,27.376-31.553S162.648,710.924,162.648,710.924Z" fill="url(#a)"/>
    <path d="M78,350.029s-4-33-36-33-18,17-10,17,9-9,9-9,10,1,10,16-15,20-25,20-26-6-26-27,15-34,38-34,51,21,51,21l7,34-2,6Z" fill="url(#b)"/>
    <path d="M115.44,572.017s-3.986-20.807,10.014-22.807,18,10,18,10,3-22-17-22-21,15-21,15S102.425,572.017,115.44,572.017Z" fill="url(#c)"/>
    <path d="M138.775,335.22s2.848-13.993-7.047-15.439-4.161,10.85-4.161,10.85-5.429,1.91-12.764-5.6-1.577-19.156,4.173-22.821,13.89-2.54,21.387,2.1S155.744,324.173,138.775,335.22Z" fill="url(#d)"/>
    <path d="M133.464,187.519s1.183-25.177,18.74-23.369,2.424,20.367,2.424,20.367,8.463,5.618,24.265-4.057,10.99-32.1,2.737-40.857-22.667-10.358-37.5-5.669S109.208,161.271,133.464,187.519Z" fill="url(#e)"/>
    <path d="M179.221,762.552s10.3-34.771,35.021-19.608-1,32.234-1,32.234,12.457,6.467,25.085-4.557,10.242-30.085-11.784-40.076S169.14,722.377,179.221,762.552Z" fill="url(#f)"/>
    <path d="M115.828,0h70s-74,202-56,330,111.009,278,28.5,542-22.346,53.882-6.5-60c37-266-56-304.441-76-461.22S115.828,0,115.828,0Z" fill="url(#g)"/>
  </g>
</svg>
