<svg xmlns="http://www.w3.org/2000/svg" xmlns:xlink="http://www.w3.org/1999/xlink" width="170.16" height="400" viewBox="0 0 170.16 400">
  <defs>
    <style>
      .cls-1 {
        fill: url(#linear-gradient);
      }

      .cls-2 {
        fill: url(#linear-gradient-2);
      }

      .cls-3 {
        fill: url(#linear-gradient-3);
      }

      .cls-4 {
        fill: url(#linear-gradient-4);
      }

      .cls-5 {
        fill: url(#linear-gradient-5);
      }
    </style>
    <linearGradient id="linear-gradient" x1="485.64" y1="436.66" x2="437.64" y2="772.66" gradientTransform="translate(-314.79 -453.35) rotate(10.38)" gradientUnits="userSpaceOnUse">
      <stop offset="0" stop-color="#5a8539"/>
      <stop offset="1" stop-color="#46952f"/>
    </linearGradient>
    <linearGradient id="linear-gradient-2" x1="516.72" y1="482.35" x2="468.72" y2="818.35" gradientTransform="translate(-325.48 -552.03) rotate(11.79)" xlink:href="#linear-gradient"/>
    <linearGradient id="linear-gradient-3" x1="1903.77" y1="1111.36" x2="1855.77" y2="1447.36" gradientTransform="matrix(0.8, 0.6, -0.6, 0.8, -633.08, -2126.69)" xlink:href="#linear-gradient"/>
    <linearGradient id="linear-gradient-4" x1="1677.94" y1="1037.5" x2="1629.94" y2="1373.5" gradientTransform="translate(-597.07 -1831.2) rotate(31.53)" xlink:href="#linear-gradient"/>
    <linearGradient id="linear-gradient-5" x1="116.53" y1="29.79" x2="68.53" y2="365.79" gradientTransform="matrix(1, 0, 0, 1, 0, 0)" xlink:href="#linear-gradient"/>
  </defs>
  <title>HugeVine_7</title>
  <g id="Layer_2" data-name="Layer 2">
    <g id="Layer_1-2" data-name="Layer 1">
      <g>
        <path class="cls-1" d="M64.08,192.38c2.13-11.64-.21-31.38-14.7-30s-3.86,15.56.79,12.34a6,6,0,0,0,2.43-7.68c1.14-1.33,15.21,12.6-3.61,19.67-10.91,4.1-23.6-4.33-24.39-16.67-.47-7.27,9.43-34.87,35.53-22S64.08,192.38,64.08,192.38Z"/>
        <path class="cls-2" d="M73.86,137.72s2.83-33.12-28.5-39.66-21.09,13-13.26,14.6,10.65-7,10.65-7,9.59,3,6.52,17.7S30.5,139.91,20.71,137.86-3.51,126.68.78,106.12,22.3,76.42,44.92,80.6c44.06,8.15,45.64,31,45.64,31l-.1,34.71-3.18,5.46Z"/>
        <path class="cls-3" d="M93.25,59.2s2.85-14-7-15.44-4.16,10.85-4.16,10.85S76.62,56.52,69.28,49s-1.57-19.15,4.18-22.82,13.88-2.54,21.38,2.1S110.22,48.16,93.25,59.2Z"/>
        <path class="cls-4" d="M103.41,129s10.3-34.77,35-19.6-1,32.23-1,32.23,12.45,6.47,25.08-4.56S172.75,107,150.73,97,93.33,88.85,103.41,129Z"/>
        <path class="cls-5" d="M93,400S71,205,133,0H116S50,121,50,400Z"/>
      </g>
    </g>
  </g>
</svg>
