<svg xmlns="http://www.w3.org/2000/svg" xmlns:xlink="http://www.w3.org/1999/xlink" width="245.98" height="999.43" viewBox="0 0 245.98 999.43">
  <defs>
    <style>
      .cls-1 {
        fill: url(#linear-gradient);
      }

      .cls-2 {
        fill: url(#linear-gradient-2);
      }

      .cls-3 {
        fill: url(#linear-gradient-3);
      }

      .cls-4 {
        fill: url(#linear-gradient-4);
      }

      .cls-5 {
        fill: url(#linear-gradient-5);
      }

      .cls-6 {
        fill: url(#linear-gradient-6);
      }

      .cls-7 {
        fill: url(#linear-gradient-7);
      }
    </style>
    <linearGradient id="linear-gradient" x1="-313.16" y1="431.98" x2="-313.16" y2="738.48" gradientTransform="translate(388.83 138.95) rotate(-6.97)" gradientUnits="userSpaceOnUse">
      <stop offset="0" stop-color="#005437"/>
      <stop offset="1" stop-color="#006837"/>
    </linearGradient>
    <linearGradient id="linear-gradient-2" x1="48" y1="167.53" x2="48" y2="474.03" gradientTransform="matrix(1, 0, 0, 1, 0, 0)" xlink:href="#linear-gradient"/>
    <linearGradient id="linear-gradient-3" x1="124.38" y1="343.71" x2="124.38" y2="650.21" gradientTransform="matrix(1, 0, 0, 1, 0, 0)" xlink:href="#linear-gradient"/>
    <linearGradient id="linear-gradient-4" x1="2501.11" y1="354.85" x2="2501.11" y2="661.36" gradientTransform="matrix(0.8, 0.6, -0.6, 0.8, -1650.77, -1475.6)" xlink:href="#linear-gradient"/>
    <linearGradient id="linear-gradient-5" x1="4030.75" y1="-741.13" x2="4030.75" y2="-434.63" gradientTransform="matrix(-0.92, 0.39, 0.39, 0.92, 4140.53, -758.67)" xlink:href="#linear-gradient"/>
    <linearGradient id="linear-gradient-6" x1="2447.18" y1="769.2" x2="2447.18" y2="1075.71" gradientTransform="translate(-1442.71 -1232.21) rotate(31.53)" xlink:href="#linear-gradient"/>
    <linearGradient id="linear-gradient-7" x1="131.85" y1="145.01" x2="131.85" y2="912.99" gradientTransform="matrix(1, 0, 0, 1, 0, 0)" xlink:href="#linear-gradient"/>
  </defs>
  <title>HugeVine_20</title>
  <g id="Layer_2" data-name="Layer 2">
    <g id="Layer_1-2" data-name="Layer 1">
      <g>
        <path class="cls-1" d="M162.65,710.92c-1.44-11.74-9.56-29.89-23-24.22s.95,16,4.43,11.54a6,6,0,0,0,0-8.06c.69-1.6,18.28,7.5,2.42,19.85-9.2,7.17-23.82,2.91-28.25-8.63-2.61-6.8-1.39-36.1,27.37-31.56S162.65,710.92,162.65,710.92Z"/>
        <path class="cls-2" d="M78,350s-4-33-36-33-18,17-10,17,9-9,9-9,10,1,10,16-15,20-25,20S0,355,0,334s15-34,38-34,51,21,51,21l7,34-2,6Z"/>
        <path class="cls-3" d="M115.44,572s-4-20.81,10-22.81,18,10,18,10,3-22-17-22-21,15-21,15S102.42,572,115.44,572Z"/>
        <path class="cls-4" d="M138.77,335.22s2.85-14-7-15.44-4.16,10.85-4.16,10.85-5.43,1.91-12.77-5.6-1.57-19.15,4.18-22.82,13.89-2.54,21.38,2.1S155.74,324.17,138.77,335.22Z"/>
        <path class="cls-5" d="M133.46,187.52s1.19-25.18,18.74-23.37,2.43,20.37,2.43,20.37,8.46,5.61,24.26-4.06,11-32.1,2.74-40.86-22.67-10.35-37.5-5.67S109.21,161.27,133.46,187.52Z"/>
        <path class="cls-6" d="M179.22,762.55s10.3-34.77,35-19.61-1,32.24-1,32.24,12.46,6.47,25.08-4.56,10.25-30.08-11.78-40.08S169.14,722.38,179.22,762.55Z"/>
        <path class="cls-7" d="M115.83,0h70s-74,202-56,330,111,278,28.5,542-22.34,53.88-6.5-60c37-266-56-304.44-76-461.22S115.83,0,115.83,0Z"/>
      </g>
    </g>
  </g>
</svg>
