<svg xmlns="http://www.w3.org/2000/svg" xmlns:xlink="http://www.w3.org/1999/xlink" width="180.119" height="399" viewBox="0 0 180.119 399">
  <defs>
    <linearGradient id="a" x1="72" y1="57.875" x2="72" y2="364.379" gradientUnits="userSpaceOnUse">
      <stop offset="0" stop-color="#5a8539"/>
      <stop offset="1" stop-color="#46952f"/>
    </linearGradient>
    <linearGradient id="b" x1="94.582" y1="57.875" x2="94.582" y2="364.379" xlink:href="#a"/>
    <linearGradient id="c" x1="70" y1="57.875" x2="70" y2="364.379" xlink:href="#a"/>
    <linearGradient id="d" x1="141.927" y1="57.875" x2="141.927" y2="364.379" xlink:href="#a"/>
    <linearGradient id="e" x1="72.894" y1="57.875" x2="72.894" y2="364.379" xlink:href="#a"/>
    <linearGradient id="f" x1="146.014" y1="57.875" x2="146.014" y2="364.379" xlink:href="#a"/>
  </defs>
  <title>HugeVine_9</title>
  <g>
    <path d="M0,0S105,94,113,198,77,399,77,399h65s8-104-8-204S105,126,94,0H85s1,41,7,61c0,0-14-31-21-61H59S80,56,85,76c0,0-29-52-50-76H25S52,31,57,48c0,0-33-34-41-48Z" fill="url(#a)"/>
    <path d="M113.859,232.834C113.859,221,108,202,94,206s-1,16,3,12a6.05,6.05,0,0,0,1-8c.884-1.5,17.24,9.656,0,20-10,6-24,0-27-12-1.766-7.063,3-36,31-28S113.859,232.834,113.859,232.834Z" fill="url(#b)"/>
    <path d="M100,194s-4-33-36-33-18,17-10,17,9-9,9-9,10,1,10,16-15,20-25,20-26-6-26-27,15-34,38-34,51,21,51,21l7,34-2,6Z" fill="url(#c)"/>
    <path d="M132.985,188.808S129,168,143,166s18,10,18,10,3-22-17-22-21,15-21,15S119.971,188.808,132.985,188.808Z" fill="url(#d)"/>
    <path d="M94.681,129.16S87,113,76,119s4,14,4,14-4,6-17,4-16-18-13-26S62,98,73,97,103.362,105.321,94.681,129.16Z" fill="url(#e)"/>
    <path d="M124.4,147.026S115,112,144,112s16,28,16,28,14-1,19-17-7-31-31-28S94.8,118.051,124.4,147.026Z" fill="url(#f)"/>
  </g>
</svg>
