<svg xmlns="http://www.w3.org/2000/svg" xmlns:xlink="http://www.w3.org/1999/xlink" width="236.66" height="401.35" viewBox="0 0 236.66 401.35">
  <defs>
    <linearGradient id="a" x1="151.082" y1="-28.625" x2="151.082" y2="277.879" gradientUnits="userSpaceOnUse">
      <stop offset="0" stop-color="#005437"/>
      <stop offset="1" stop-color="#006837"/>
    </linearGradient>
    <linearGradient id="b" x1="48" y1="184.375" x2="48" y2="490.879" xlink:href="#a"/>
    <linearGradient id="c" x1="217.427" y1="-32.625" x2="217.427" y2="273.879" xlink:href="#a"/>
    <linearGradient id="d" x1="152.394" y1="-29.625" x2="152.394" y2="276.879" xlink:href="#a"/>
    <linearGradient id="e" x1="161.188" y1="202.941" x2="161.188" y2="509.445" gradientTransform="matrix(0.862, 0.506, -0.506, 0.862, 175.073, -38.578)" xlink:href="#a"/>
    <linearGradient id="f" x1="138.787" y1="-685.175" x2="138.787" y2="1331.468" xlink:href="#a"/>
  </defs>
  <title>HugeVine_16</title>
  <g>
    <path d="M170.359,146.334c0-11.834-5.859-30.834-19.859-26.834s-1,16,3,12a6.05,6.05,0,0,0,1-8c.884-1.5,17.24,9.656,0,20-10,6-24,0-27-12-1.766-7.063,3-36,31-28S170.359,146.334,170.359,146.334Z" fill="url(#a)"/>
    <path d="M78,320.5s-4-33-36-33-18,17-10,17,9-9,9-9,10,1,10,16-15,20-25,20-26-6-26-27,15-34,38-34,51,21,51,21l7,34-2,6Z" fill="url(#b)"/>
    <path d="M208.485,98.308S204.5,77.5,218.5,75.5s18,10,18,10,3-22-17-22-21,15-21,15S195.471,98.308,208.485,98.308Z" fill="url(#c)"/>
    <path d="M174.181,41.66S166.5,25.5,155.5,31.5s4,14,4,14-4,6-17,4-16-18-13-26,12-13,23-14S182.862,17.821,174.181,41.66Z" fill="url(#d)"/>
    <path d="M147.609,283.981s9.621-34.965,34.632-20.287-.373,32.247-.373,32.247,12.581,6.223,24.991-5.045,9.654-30.279-12.564-39.839S136.746,244.011,147.609,283.981Z" fill="url(#e)"/>
    <path d="M68.329,401.35h69s-22.666-86.333,40-168c47.352-61.708,28-233.35,28-233.35h-37s23,144.35-25,206.35S68.329,280.35,68.329,401.35Z" fill="url(#f)"/>
  </g>
</svg>
