<svg xmlns="http://www.w3.org/2000/svg" xmlns:xlink="http://www.w3.org/1999/xlink" width="200.83" height="83.94" viewBox="0 0 200.83 83.94">
  <defs>
    <style>
      .cls-1 {
        fill: #66421f;
      }

      .cls-2 {
        fill: #754c24;
      }

      .cls-3 {
        fill: url(#linear-gradient);
      }

      .cls-4 {
        fill: url(#linear-gradient-2);
      }
    </style>
    <linearGradient id="linear-gradient" x1="100.42" y1="6.55" x2="100.42" y2="59.82" gradientUnits="userSpaceOnUse">
      <stop offset="0" stop-color="#92a83f"/>
      <stop offset="1" stop-color="#a4bd47"/>
    </linearGradient>
    <linearGradient id="linear-gradient-2" x1="100.42" x2="100.42" y2="83.94" gradientUnits="userSpaceOnUse">
      <stop offset="0" stop-color="#c5d654"/>
      <stop offset="1" stop-color="#a4bd47"/>
    </linearGradient>
  </defs>
  <title>PlatformGrass</title>
  <g id="Layer_2" data-name="Layer 2">
    <g id="Layer_1-2" data-name="Layer 1">
      <g>
        <g>
          <path class="cls-1" d="M11.53,22.86c-5.62,8-12.42,33.76,9.17,33.76,3.29,0,6.45,1.8,9.46,4a65.36,65.36,0,0,1,7.56,3.24,26.11,26.11,0,0,0,8,2.16l.11,0a41,41,0,0,0,9.62,1.43,32.91,32.91,0,0,0,3.6-.11,10.44,10.44,0,0,0,3.27-.41,96.5,96.5,0,0,0,9.91-2.41,33.86,33.86,0,0,1,6.31-1.08c2.54.43,4.94,1.17,7.62,1.18a14.24,14.24,0,0,0,4.48-.78c7,.78,14,2.08,20.84,1.77,5.91-.26,10.86-2.63,16.49-3.87,6.08-1.34,9.1,2.37,13.47,5.41l1,.68a8,8,0,0,0,5.3,2.48,13.69,13.69,0,0,0,7.8.16,11.23,11.23,0,0,0,3.09-1.4c6,1.38,13.37-12.43,21.46-12.43,21.59,0,14.79-25.8,9.17-33.76s5.55-6.29,1.77-8.64-11.53-2.55-11.53-2.55H142.28V31.13H58.55V11.67H21.29s-7.75.2-11.53,2.55S17.15,14.9,11.53,22.86Z"/>
          <path class="cls-2" d="M20.7,62.23a82.87,82.87,0,0,0,16.11-1.62,19,19,0,0,0,9.83,2.06c4.5-.42,7.45-3,10.67-5.23a15,15,0,0,0,6.35-1.73c2.85-1.53,4.27-4.15,7.83-4.42a10.39,10.39,0,0,1,2.89.21c4,2.1,8.22,3.84,13,3.75,6.12-.12,10.58-2.6,16.61,0,5.07,2.18,8.83,3,14.16.81s9.74-3.09,15.08-1.65a13,13,0,0,1,2.57,1.9c3.05,2.9,5.69,4.36,10.3,4.61a61.38,61.38,0,0,0,6.52.1,7.74,7.74,0,0,0,1.24-1l1.41-.38c.69-.19,1.4-.39,2.12-.61a85.56,85.56,0,0,0,22.79,3.2c21.59,0,23.66-21.44,18-28.06s-3.32-18.43-7.1-20.38-11.53-2.12-11.53-2.12H21.29s-7.75.17-11.53,2.12S8.28,27.56,2.66,34.17-.89,62.23,20.7,62.23Z"/>
        </g>
        <g>
          <path class="cls-3" d="M182.23,6.55V8.11H18.61V6.55H9V26.08c3.07,0,4-5.27,9.62-5.27,5.21,0,4.22,14,7.46,15.16s3.54-11.52,5.33-12.11S33,38.55,45.59,44.38c0,0-4.29-12.65,1.85-18,2.15-1.87,4.93-1.17,7.38,1-5.75,9.9,1.23,27.66,1.23,27.66,8.06-2.78,12.71-7.32,15.39-12A9.36,9.36,0,0,0,75.29,46,30.08,30.08,0,0,1,77,37.29C78.67,41.21,82,44,85.49,46a72.9,72.9,0,0,0,2.89,10.42A30.19,30.19,0,0,1,89.72,48c1.21.47,2.38.86,3.44,1.18.45,3.07,2.14,10.65,5.65,10.65,3.29,0,5.52-7.25,6.13-10.06,1.83.45,3,.62,3,.62,1.63-7.25,1.4-13,.23-17.62a13.16,13.16,0,0,0,6.09-1.26,46.5,46.5,0,0,0-.67,9.16,15,15,0,0,0,9.92-2.72,52.19,52.19,0,0,0,7.87,10.84c5.37-5.34,8.07-10.69,9.24-15.54A24.87,24.87,0,0,0,143,37.13a46,46,0,0,0-.93,10.48,14.87,14.87,0,0,0,11.79-4.3,60.55,60.55,0,0,0,3,11.34c17.27-6,19-20,18.85-26,.23-2.66,1.34-7.88,6.5-7.88,5.61,0,6.54,5.27,9.61,5.27V6.55ZM97.93,30v.6a1.72,1.72,0,0,1-.07-.21C97.89,30.24,97.9,30.11,97.93,30Z"/>
          <path class="cls-4" d="M194.23,2.9l-.42-.26a11.24,11.24,0,0,0-2.36-1.25c-.26-.11-.5-.21-.72-.28l-.32-.1L190.19,1a28.54,28.54,0,0,0-8-.95H18.61a28.57,28.57,0,0,0-8,1L10.42,1l-.32.1c-.22.07-.46.17-.72.28A11.24,11.24,0,0,0,7,2.64L6.6,2.9C-2.54,8.76,1.84,25,1.84,25a13.61,13.61,0,0,0,3.43-1.24,10.37,10.37,0,0,0,2.45,3.22c4.34,3,5.21-14.23,10.89-14.23,5.15,0,6.26,5.21,6.49,7.87-.11,6,1.58,20,18.86,26,0,0,8.18-20.84-.49-29.95a4.4,4.4,0,0,1,4.84.63c6.14,5.37,1.85,18,1.85,18a20.17,20.17,0,0,0,8.53-7.47,25.57,25.57,0,0,0,5,8.7,44.8,44.8,0,0,0,5.64-1.7c1,3.94,2.43,7.43,4.34,8.77,5.39,3.79,3.56,29.41,4.6,29.41s.7,1.16,2.61-21.69c.65-7.8,3.34-13.19,6.6-16.92l.09.16C90,38.7,94.66,41,99,39.56c3.49-1.12,5.71-4.46,7.44-7.91a13.11,13.11,0,0,0,.9,1.18c5.22,6,5.1,15.48,5.1,15.48a73.08,73.08,0,0,0,3-10.8,56.61,56.61,0,0,1,2.92,15.41c1.91,31.17,1.57,29.58,2.61,29.58s-.78-34.94,4.6-40.11c1.24-1.19,2.27-3.62,3.12-6.64A18.6,18.6,0,0,0,132,30.91a16.54,16.54,0,0,0,5.09,6.53c1,3.43,1.65,6.55,2.23,9.41,4,19.95-.61,35.12,3.82,36.93a2.5,2.5,0,0,0,1.74,0c5.14-1.85,2.28-19.4,4.69-36.73a90,90,0,0,1,6.69-23.57c1.31,5.79-1.06,12.79-1.06,12.79,12.62-5.83,12.39-21.11,14.19-20.52s2.08,13.3,5.33,12.11,2.25-15.15,7.47-15.15c5.67,0,6.54,17.24,10.88,14.23a10.37,10.37,0,0,0,2.45-3.22A13.61,13.61,0,0,0,199,25S203.37,8.76,194.23,2.9Z"/>
        </g>
      </g>
    </g>
  </g>
</svg>
