<svg xmlns="http://www.w3.org/2000/svg" xmlns:xlink="http://www.w3.org/1999/xlink" width="296.309" height="212.816" viewBox="0 0 296.309 212.816">
  <defs>
    <linearGradient id="a" x1="105.712" y1="106.408" x2="296.309" y2="106.408" gradientUnits="userSpaceOnUse">
      <stop offset="0" stop-color="#5c596c"/>
      <stop offset="1" stop-color="#b4a0a1"/>
    </linearGradient>
    <linearGradient id="b" x1="0" y1="106.94" x2="160.43" y2="106.94" xlink:href="#a"/>
  </defs>
  <title>Rocks_2</title>
  <g>
    <path d="M296.309,212.816s-.677-43.346-9.482-63.664-14.9-30.139-15.577-41.314-9.482-27.091-9.482-32.51S278.7,59.412,278.361,53.317s-9.143-19.641-13.545-29.462S249.238,4.687,246.529,1.064s-17.27,2.812-34.2,7.214S146.594,43.814,141.89,51.962s-34.2,57.569-35.557,70.437-1.016,64,6.434,74.162,12.868,2.709,15.916,6.434,2.37,9.821,2.37,9.821Z" fill="url(#a)"/>
    <path d="M0,212.816s2.455-44.362,4.741-67.474,3.048-48.256,6.1-52.32S17.89,51.229,20.742,46.29,44.87,3.622,53,1.59,88.805,3.881,93.634,6.669s13.715,50.542,14.73,57.908,12.572,69.971,18.541,75.939,16.509,15.239,21.334,30.732,12.191,41.568,12.191,41.568Z" fill="url(#b)"/>
  </g>
</svg>
