<svg xmlns="http://www.w3.org/2000/svg" xmlns:xlink="http://www.w3.org/1999/xlink" width="309.344" height="372.333" viewBox="0 0 309.344 372.333">
  <defs>
    <linearGradient id="a" x1="50.208" y1="310.452" x2="309.344" y2="310.452" gradientUnits="userSpaceOnUse">
      <stop offset="0" stop-color="#5c596c"/>
      <stop offset="1" stop-color="#b4a0a1"/>
    </linearGradient>
    <linearGradient id="b" x1="0" y1="186.167" x2="191.42" y2="186.167" xlink:href="#a"/>
  </defs>
  <title>Rocks_11</title>
  <g>
    <path d="M79.31,372.333s-34-42.973-28.5-52.5,29.5-56,38-59.5,107-13.5,129.5-11.5,67,22,72.5,34,17.5,41,18.5,47.5-20.5,42-20.5,42Z" fill="url(#a)"/>
    <path d="M12.92,372.333s-17-39-12-54,45-142.5,58-153,26-23.937,29.5-30,21.5-123,34.5-131.5,24.5-.5,39.5,1.5,29,49.5,29,64.5-16,106-16,131,13.5,99.5,9.5,118-20,53.5-20,53.5Z" fill="url(#b)"/>
  </g>
</svg>
