<svg xmlns="http://www.w3.org/2000/svg" xmlns:xlink="http://www.w3.org/1999/xlink" width="436.32" height="143.4" viewBox="0 0 436.32 143.4">
  <defs>
    <style>
      .cls-1 {
        fill: url(#linear-gradient);
      }

      .cls-2 {
        fill: url(#linear-gradient-2);
      }
    </style>
    <linearGradient id="linear-gradient" x1="177.19" y1="81.52" x2="436.32" y2="81.52" gradientUnits="userSpaceOnUse">
      <stop offset="0" stop-color="#5c596c"/>
      <stop offset="1" stop-color="#b4a0a1"/>
    </linearGradient>
    <linearGradient id="linear-gradient-2" x1="0" y1="71.7" x2="299.52" y2="71.7" xlink:href="#linear-gradient"/>
  </defs>
  <title>Rocks_7</title>
  <g id="Layer_2" data-name="Layer 2">
    <g id="Layer_1-2" data-name="Layer 1">
      <g>
        <path class="cls-1" d="M206.29,143.4s-34-43-28.5-52.5,29.5-56,38-59.5,107-13.5,129.5-11.5,67,22,72.5,34,17.5,41,18.5,47.5-20.5,42-20.5,42Z"/>
        <path class="cls-2" d="M62.46,143.4h216s7.33-6.49,18-37.83-9.34-82.81-17.34-96.66-60-9.34-81.33-1.34S112.46,30.23,91.12,39.24s-57,22-73.33,38.33-20,33.34-16.67,42S62.46,143.4,62.46,143.4Z"/>
      </g>
    </g>
  </g>
</svg>
