<svg xmlns="http://www.w3.org/2000/svg" xmlns:xlink="http://www.w3.org/1999/xlink" width="648.53" height="208.32" viewBox="0 0 648.53 208.32">
  <defs>
    <style>
      .cls-1 {
        fill: url(#linear-gradient);
      }

      .cls-2 {
        fill: url(#linear-gradient-2);
      }
    </style>
    <linearGradient id="linear-gradient" x1="134.89" y1="104.16" x2="648.53" y2="104.16" gradientUnits="userSpaceOnUse">
      <stop offset="0" stop-color="#5c596c"/>
      <stop offset="1" stop-color="#b4a0a1"/>
    </linearGradient>
    <linearGradient id="linear-gradient-2" x1="0" y1="146.44" x2="259.14" y2="146.44" xlink:href="#linear-gradient"/>
  </defs>
  <title>Rocks_13</title>
  <g id="Layer_2" data-name="Layer 2">
    <g id="Layer_1-2" data-name="Layer 1">
      <g>
        <path class="cls-1" d="M154.8,208.32s-19.91-29-19.91-43,14.43-81.08,19.58-90,21.66-15.33,25-19.66,32-52,40.66-55S338.8,5.32,372.8,15.32s36,22,56,25,98,8,117,16,102.73,42,102.73,55-1.73,57-9.73,65-25,32-25,32Z"/>
        <path class="cls-2" d="M29.1,208.32s-34-43-28.5-52.5,29.5-56,38-59.5,107-13.5,129.5-11.5,67,22,72.5,34,17.5,41,18.5,47.5-20.5,42-20.5,42Z"/>
      </g>
    </g>
  </g>
</svg>
