<svg xmlns="http://www.w3.org/2000/svg" xmlns:xlink="http://www.w3.org/1999/xlink" width="304.944" height="179.525" viewBox="0 0 304.944 179.525">
  <defs>
    <linearGradient id="a" y1="130.508" x2="170.843" y2="130.508" gradientUnits="userSpaceOnUse">
      <stop offset="0" stop-color="#5c596c"/>
      <stop offset="1" stop-color="#b4a0a1"/>
    </linearGradient>
    <linearGradient id="b" x1="63.4" y1="89.762" x2="304.944" y2="89.762" xlink:href="#a"/>
  </defs>
  <title>Rocks_3</title>
  <g>
    <path d="M0,179.525s11.344-15.006,14.9-21.165-.339-4.741,2.371-8.635,19.81-29.97,23.7-35.219S85,91.309,95.5,88.262s24.89-8.128,30.647-6.434,24.551,23.7,27.768,31.493,16.932,66.2,16.932,66.2Z" fill="url(#a)"/>
    <path d="M244.667,179.525s26.413-50.2,35.557-61.587,24.72-31.708,24.72-36.788-32.848-34.2-38.6-42.668S243.312,9.7,235.185,6.65s-47.071.338-59.6-1.016S148.493-1.139,142.4.216,116.4,23.384,99.052,33.4,63.5,55.752,63.5,60.155s-.822,11.74,2.37,17.27S82.8,101.807,85.845,108.58s49.1,35.557,49.78,46.732-3.048,24.213-3.048,24.213Z" fill="url(#b)"/>
  </g>
</svg>
