<svg xmlns="http://www.w3.org/2000/svg" xmlns:xlink="http://www.w3.org/1999/xlink" width="223.93" height="173.72" viewBox="0 0 223.93 173.72">
  <defs>
    <style>
      .cls-1 {
        fill: url(#linear-gradient);
      }

      .cls-2 {
        fill: url(#linear-gradient-2);
      }

      .cls-3 {
        fill: url(#linear-gradient-3);
      }
    </style>
    <linearGradient id="linear-gradient" x1="64.37" y1="105.4" x2="181.48" y2="105.4" gradientUnits="userSpaceOnUse">
      <stop offset="0" stop-color="#5c596c"/>
      <stop offset="1" stop-color="#b4a0a1"/>
    </linearGradient>
    <linearGradient id="linear-gradient-2" x1="0" y1="86.86" x2="155.1" y2="86.86" xlink:href="#linear-gradient"/>
    <linearGradient id="linear-gradient-3" x1="110.53" y1="128.39" x2="223.93" y2="128.39" xlink:href="#linear-gradient"/>
  </defs>
  <title>Rocks_6</title>
  <g id="Layer_2" data-name="Layer 2">
    <g id="Layer_1-2" data-name="Layer 1">
      <g>
        <path class="cls-1" d="M75.1,173.72S63.41,144,64.43,123.94,74.59,99.31,82.21,89.15s31-33.27,42.16-40.64,13.71-11.43,17.52-11.43,32.77,23.11,34.8,34.8,6.86,45,3.81,55.11-13,46.73-13,46.73Z"/>
        <path class="cls-2" d="M.68,173.72s-3.56-37.59,5.59-57.91,9.23-49,20.82-69.08S56.05,0,70.27,0s33,17.11,38.1,25.91,27.94,49.78,30.48,69.59.07,30.72,6.09,41.14,10.16,37.08,10.16,37.08Z"/>
        <path class="cls-3" d="M125.64,118.61s37.59-35.56,53.59-35.56,18,14,28.19,23.37,9.65,8.38,10.67,16,3,39.11,5.84,51.3H111.42S105.23,136.09,125.64,118.61Z"/>
      </g>
    </g>
  </g>
</svg>
