<svg xmlns="http://www.w3.org/2000/svg" xmlns:xlink="http://www.w3.org/1999/xlink" width="309.34" height="372.33" viewBox="0 0 309.34 372.33">
  <defs>
    <style>
      .cls-1 {
        fill: url(#linear-gradient);
      }

      .cls-2 {
        fill: url(#linear-gradient-2);
      }
    </style>
    <linearGradient id="linear-gradient" x1="50.21" y1="310.45" x2="309.34" y2="310.45" gradientUnits="userSpaceOnUse">
      <stop offset="0" stop-color="#5c596c"/>
      <stop offset="1" stop-color="#b4a0a1"/>
    </linearGradient>
    <linearGradient id="linear-gradient-2" x1="0" y1="186.17" x2="191.42" y2="186.17" xlink:href="#linear-gradient"/>
  </defs>
  <title>Rocks_11</title>
  <g id="Layer_2" data-name="Layer 2">
    <g id="Layer_1-2" data-name="Layer 1">
      <g>
        <path class="cls-1" d="M79.31,372.33s-34-43-28.5-52.5,29.5-56,38-59.5,107-13.5,129.5-11.5,67,22,72.5,34,17.5,41,18.5,47.5-20.5,42-20.5,42Z"/>
        <path class="cls-2" d="M12.92,372.33s-17-39-12-54,45-142.5,58-153,26-23.93,29.5-30,21.5-123,34.5-131.5,24.5-.5,39.5,1.5,29,49.5,29,64.5-16,106-16,131,13.5,99.5,9.5,118-20,53.5-20,53.5Z"/>
      </g>
    </g>
  </g>
</svg>
