<svg xmlns="http://www.w3.org/2000/svg" xmlns:xlink="http://www.w3.org/1999/xlink" width="304.94" height="179.52" viewBox="0 0 304.94 179.52">
  <defs>
    <style>
      .cls-1 {
        fill: url(#linear-gradient);
      }

      .cls-2 {
        fill: url(#linear-gradient-2);
      }
    </style>
    <linearGradient id="linear-gradient" y1="130.51" x2="170.84" y2="130.51" gradientUnits="userSpaceOnUse">
      <stop offset="0" stop-color="#5c596c"/>
      <stop offset="1" stop-color="#b4a0a1"/>
    </linearGradient>
    <linearGradient id="linear-gradient-2" x1="63.4" y1="89.76" x2="304.94" y2="89.76" xlink:href="#linear-gradient"/>
  </defs>
  <title>Rocks_3</title>
  <g id="Layer_2" data-name="Layer 2">
    <g id="Layer_1-2" data-name="Layer 1">
      <g>
        <path class="cls-1" d="M0,179.52s11.34-15,14.9-21.16-.34-4.74,2.37-8.64,19.81-30,23.71-35.21S85,91.31,95.5,88.26s24.89-8.13,30.64-6.43,24.55,23.7,27.77,31.49,16.93,66.2,16.93,66.2Z"/>
        <path class="cls-2" d="M244.67,179.52s26.41-50.19,35.55-61.58,24.72-31.71,24.72-36.79S272.1,47,266.34,38.48s-23-28.78-31.16-31.83-47.07.34-59.6-1S148.49-1.14,142.4.22s-26,23.16-43.35,33.18S63.49,55.75,63.49,60.15s-.82,11.75,2.38,17.28,16.93,24.38,20,31.15,49.11,35.56,49.78,46.73-3,24.21-3,24.21Z"/>
      </g>
    </g>
  </g>
</svg>
