<svg xmlns="http://www.w3.org/2000/svg" xmlns:xlink="http://www.w3.org/1999/xlink" width="373.99" height="372.33" viewBox="0 0 373.99 372.33">
  <defs>
    <style>
      .cls-1 {
        fill: url(#linear-gradient);
      }

      .cls-2 {
        fill: url(#linear-gradient-2);
      }
    </style>
    <linearGradient id="linear-gradient" x1="182.57" y1="186.17" x2="373.99" y2="186.17" gradientUnits="userSpaceOnUse">
      <stop offset="0" stop-color="#5c596c"/>
      <stop offset="1" stop-color="#b4a0a1"/>
    </linearGradient>
    <linearGradient id="linear-gradient-2" x1="0" y1="257.75" x2="312.66" y2="257.75" xlink:href="#linear-gradient"/>
  </defs>
  <title>Rocks_9</title>
  <g id="Layer_2" data-name="Layer 2">
    <g id="Layer_1-2" data-name="Layer 1">
      <g>
        <path class="cls-1" d="M195.49,372.33s-17-39-12-54,45-142.5,58-153,26-23.93,29.5-30,21.5-123,34.5-131.5,24.5-.5,39.5,1.5,29,49.5,29,64.5-16,106-16,131,13.5,99.5,9.5,118-20,53.5-20,53.5Z"/>
        <path class="cls-2" d="M102.67,372.33H311.33s5.94-109.5-7.33-132.49-64-48.67-77.33-62S167.33,143.17,148,143.17,58,172.51,46,184.51s-46,90-46,106,20.67,40.66,34,51.33S102.67,372.33,102.67,372.33Z"/>
      </g>
    </g>
  </g>
</svg>
