<svg xmlns="http://www.w3.org/2000/svg" xmlns:xlink="http://www.w3.org/1999/xlink" width="373.987" height="372.333" viewBox="0 0 373.987 372.333">
  <defs>
    <linearGradient id="a" x1="182.566" y1="186.167" x2="373.987" y2="186.167" gradientUnits="userSpaceOnUse">
      <stop offset="0" stop-color="#5c596c"/>
      <stop offset="1" stop-color="#b4a0a1"/>
    </linearGradient>
    <linearGradient id="b" x1="0" y1="257.754" x2="312.657" y2="257.754" xlink:href="#a"/>
  </defs>
  <title>Rocks_9</title>
  <g>
    <path d="M195.487,372.333s-17-39-12-54,45-142.5,58-153,26-23.937,29.5-30,21.5-123,34.5-131.5,24.5-.5,39.5,1.5,29,49.5,29,64.5-16,106-16,131,13.5,99.5,9.5,118-20,53.5-20,53.5Z" fill="url(#a)"/>
    <path d="M102.667,372.333H311.333S317.27,262.826,304,239.841s-64-48.667-77.333-62S167.333,143.174,148,143.174,58,172.508,46,184.508s-46,90-46,106,20.667,40.666,34,51.333S102.667,372.333,102.667,372.333Z" fill="url(#b)"/>
  </g>
</svg>
