<svg xmlns="http://www.w3.org/2000/svg" xmlns:xlink="http://www.w3.org/1999/xlink" width="436.323" height="143.398" viewBox="0 0 436.323 143.398">
  <defs>
    <linearGradient id="a" x1="177.187" y1="81.517" x2="436.323" y2="81.517" gradientUnits="userSpaceOnUse">
      <stop offset="0" stop-color="#5c596c"/>
      <stop offset="1" stop-color="#b4a0a1"/>
    </linearGradient>
    <linearGradient id="b" x1="0" y1="71.699" x2="299.518" y2="71.699" xlink:href="#a"/>
  </defs>
  <title>Rocks_7</title>
  <g>
    <path d="M206.289,143.4s-34-42.974-28.5-52.5,29.5-56,38-59.5,107-13.5,129.5-11.5,67,22,72.5,34,17.5,41,18.5,47.5-20.5,42-20.5,42Z" fill="url(#a)"/>
    <path d="M62.457,143.4h216s7.333-6.492,18-37.826-9.334-82.81-17.334-96.666-60-9.334-81.333-1.334S112.457,30.232,91.123,39.236s-57,22-73.333,38.336-20,33.334-16.667,42S62.457,143.4,62.457,143.4Z" fill="url(#b)"/>
  </g>
</svg>
