<svg xmlns="http://www.w3.org/2000/svg" xmlns:xlink="http://www.w3.org/1999/xlink" width="296.31" height="212.82" viewBox="0 0 296.31 212.82">
  <defs>
    <style>
      .cls-1 {
        fill: url(#linear-gradient);
      }

      .cls-2 {
        fill: url(#linear-gradient-2);
      }
    </style>
    <linearGradient id="linear-gradient" x1="105.71" y1="106.41" x2="296.31" y2="106.41" gradientUnits="userSpaceOnUse">
      <stop offset="0" stop-color="#5c596c"/>
      <stop offset="1" stop-color="#b4a0a1"/>
    </linearGradient>
    <linearGradient id="linear-gradient-2" x1="0" y1="106.94" x2="160.43" y2="106.94" xlink:href="#linear-gradient"/>
  </defs>
  <title>Rocks_2</title>
  <g id="Layer_2" data-name="Layer 2">
    <g id="Layer_1-2" data-name="Layer 1">
      <g>
        <path class="cls-1" d="M296.31,212.82s-.68-43.35-9.48-63.67-14.9-30.14-15.58-41.31-9.48-27.09-9.48-32.51,16.93-15.92,16.59-22-9.14-19.64-13.54-29.46S249.24,4.69,246.53,1.06s-17.27,2.82-34.2,7.22S146.59,43.81,141.89,52s-34.2,57.57-35.56,70.44-1,64,6.44,74.16,12.87,2.71,15.91,6.44,2.37,9.82,2.37,9.82Z"/>
        <path class="cls-2" d="M0,212.82s2.46-44.37,4.74-67.48S7.79,97.09,10.84,93s7.05-41.79,9.9-46.73S44.87,3.62,53,1.59,88.8,3.88,93.63,6.67s13.72,50.54,14.73,57.91,12.58,70,18.54,75.94,16.51,15.24,21.34,30.73,12.19,41.57,12.19,41.57Z"/>
      </g>
    </g>
  </g>
</svg>
