<svg xmlns="http://www.w3.org/2000/svg" xmlns:xlink="http://www.w3.org/1999/xlink" width="390.62" height="341.789" viewBox="0 0 390.62 341.789">
  <defs>
    <linearGradient id="a" x1="163.393" y1="105.876" x2="323.823" y2="105.876" gradientUnits="userSpaceOnUse">
      <stop offset="0" stop-color="#5c596c"/>
      <stop offset="1" stop-color="#b4a0a1"/>
    </linearGradient>
    <linearGradient id="b" x1="0" y1="292.772" x2="170.843" y2="292.772" xlink:href="#a"/>
    <linearGradient id="c" x1="63.4" y1="252.026" x2="304.944" y2="252.026" xlink:href="#a"/>
    <linearGradient id="d" x1="200.023" y1="235.381" x2="390.62" y2="235.381" xlink:href="#a"/>
  </defs>
  <title>Rocks_1</title>
  <g>
    <path d="M163.393,211.752s2.455-44.362,4.741-67.474,3.048-48.256,6.1-52.32,7.053-41.793,9.905-46.732S208.263,2.557,216.39.525s35.808,2.292,40.637,5.08,13.715,50.542,14.731,57.907,12.572,69.972,18.54,75.94,16.509,15.239,21.334,30.732,12.191,41.568,12.191,41.568Z" fill="url(#a)"/>
    <g>
      <path d="M0,341.789s11.344-15.006,14.9-21.165-.339-4.741,2.371-8.635,19.81-29.97,23.7-35.219S85,253.573,95.5,250.526s24.89-8.128,30.647-6.434,24.551,23.7,27.768,31.493,16.932,66.2,16.932,66.2Z" fill="url(#b)"/>
      <path d="M244.667,341.789s26.413-50.2,35.557-61.587,24.72-31.708,24.72-36.788-32.848-34.2-38.6-42.668-23.028-28.785-31.155-31.832-47.071.338-59.6-1.016-27.091-6.773-33.186-5.418S116.4,185.648,99.052,195.666,63.5,218.016,63.5,222.419s-.822,11.74,2.37,17.27,16.932,24.382,19.98,31.155,49.1,35.557,49.78,46.732-3.048,24.213-3.048,24.213Z" fill="url(#c)"/>
    </g>
    <path d="M390.62,341.789s-.677-43.346-9.482-63.664-14.9-30.139-15.577-41.314-9.482-27.091-9.482-32.51,16.932-15.916,16.593-22.011-9.143-19.641-13.545-29.462-15.578-19.168-18.287-22.791-17.27,2.812-34.2,7.214-65.733,35.536-70.437,43.684S202,238.5,200.644,251.372s-1.016,64,6.434,74.162,12.868,2.709,15.916,6.434,2.37,9.821,2.37,9.821Z" fill="url(#d)"/>
  </g>
</svg>
