<svg xmlns="http://www.w3.org/2000/svg" xmlns:xlink="http://www.w3.org/1999/xlink" width="177.873" height="173.722" viewBox="0 0 177.873 173.722">
  <defs>
    <linearGradient id="a" y1="86.861" x2="155.1" y2="86.861" gradientUnits="userSpaceOnUse">
      <stop offset="0" stop-color="#5c596c"/>
      <stop offset="1" stop-color="#b4a0a1"/>
    </linearGradient>
    <linearGradient id="b" x1="64.479" y1="128.386" x2="177.873" y2="128.386" xlink:href="#a"/>
  </defs>
  <title>Rocks_4</title>
  <g>
    <path d="M.681,173.722s-3.556-37.589,5.587-57.907,9.235-49,20.826-69.083S56.048,0,70.271,0s33.017,17.108,38.1,25.906,27.937,49.78,30.477,69.59.08,30.725,6.1,41.145S155.1,173.722,155.1,173.722Z" fill="url(#a)"/>
    <path d="M79.583,118.608s37.589-35.557,53.59-35.557,18.033,13.969,28.192,23.366,9.651,8.382,10.667,16,3.048,39.113,5.841,51.3H65.361S59.174,136.086,79.583,118.608Z" fill="url(#b)"/>
  </g>
</svg>
