<svg xmlns="http://www.w3.org/2000/svg" xmlns:xlink="http://www.w3.org/1999/xlink" width="390.62" height="341.79" viewBox="0 0 390.62 341.79">
  <defs>
    <style>
      .cls-1 {
        fill: url(#linear-gradient);
      }

      .cls-2 {
        fill: url(#linear-gradient-2);
      }

      .cls-3 {
        fill: url(#linear-gradient-3);
      }

      .cls-4 {
        fill: url(#linear-gradient-4);
      }
    </style>
    <linearGradient id="linear-gradient" x1="163.39" y1="105.88" x2="323.82" y2="105.88" gradientUnits="userSpaceOnUse">
      <stop offset="0" stop-color="#5c596c"/>
      <stop offset="1" stop-color="#b4a0a1"/>
    </linearGradient>
    <linearGradient id="linear-gradient-2" x1="0" y1="292.77" x2="170.84" y2="292.77" xlink:href="#linear-gradient"/>
    <linearGradient id="linear-gradient-3" x1="63.4" y1="252.03" x2="304.94" y2="252.03" xlink:href="#linear-gradient"/>
    <linearGradient id="linear-gradient-4" x1="200.02" y1="235.38" x2="390.62" y2="235.38" xlink:href="#linear-gradient"/>
  </defs>
  <title>Rocks_1</title>
  <g id="Layer_2" data-name="Layer 2">
    <g id="Layer_1-2" data-name="Layer 1">
      <g>
        <path class="cls-1" d="M163.39,211.75s2.46-44.36,4.74-67.47S171.18,96,174.23,92s7.05-41.8,9.9-46.73S208.26,2.56,216.39.53,252.2,2.82,257,5.61s13.71,50.54,14.73,57.9,12.57,70,18.54,75.94,16.51,15.24,21.33,30.73,12.19,41.57,12.19,41.57Z"/>
        <g>
          <path class="cls-2" d="M0,341.79s11.34-15,14.9-21.17-.34-4.74,2.37-8.63S37.08,282,41,276.77s44-23.2,54.52-26.24,24.89-8.13,30.64-6.44,24.55,23.71,27.77,31.49,16.93,66.21,16.93,66.21Z"/>
          <path class="cls-3" d="M244.67,341.79s26.41-50.2,35.55-61.59,24.72-31.71,24.72-36.79-32.84-34.2-38.6-42.66-23-28.79-31.16-31.84-47.07.34-59.6-1-27.09-6.78-33.18-5.42-26,23.17-43.35,33.19S63.49,218,63.49,222.42s-.82,11.74,2.38,17.27,16.93,24.38,20,31.15S135,306.4,135.62,317.58s-3,24.21-3,24.21Z"/>
        </g>
        <path class="cls-4" d="M390.62,341.79s-.68-43.35-9.48-63.67-14.9-30.13-15.58-41.31-9.48-27.09-9.48-32.51,16.93-15.91,16.59-22-9.14-19.64-13.54-29.46S343.55,133.66,340.84,130s-17.27,2.81-34.2,7.21-65.73,35.54-70.44,43.69S202,238.5,200.64,251.37s-1,64,6.44,74.16S220,328.24,223,332s2.37,9.82,2.37,9.82Z"/>
      </g>
    </g>
  </g>
</svg>
