<svg xmlns="http://www.w3.org/2000/svg" xmlns:xlink="http://www.w3.org/1999/xlink" width="648.527" height="208.325" viewBox="0 0 648.527 208.325">
  <defs>
    <linearGradient id="a" x1="134.889" y1="104.162" x2="648.527" y2="104.162" gradientUnits="userSpaceOnUse">
      <stop offset="0" stop-color="#5c596c"/>
      <stop offset="1" stop-color="#b4a0a1"/>
    </linearGradient>
    <linearGradient id="b" x1="0" y1="146.444" x2="259.136" y2="146.444" xlink:href="#a"/>
  </defs>
  <title>Rocks_13</title>
  <g>
    <path d="M154.8,208.325s-19.911-29-19.911-43,14.43-81.085,19.578-90,21.666-15.334,25-19.667,32-52,40.666-55S338.8,5.325,372.8,15.325s36,22,56,25,98,8,117,16,102.727,42,102.727,55-1.727,57-9.727,65-25,32-25,32Z" fill="url(#a)"/>
    <path d="M29.1,208.325s-34-42.974-28.5-52.5,29.5-56,38-59.5,107-13.5,129.5-11.5,67,22,72.5,34,17.5,41,18.5,47.5-20.5,42-20.5,42Z" fill="url(#b)"/>
  </g>
</svg>
