<svg xmlns="http://www.w3.org/2000/svg" xmlns:xlink="http://www.w3.org/1999/xlink" width="65.563" height="60.399" viewBox="0 0 65.563 60.399">
  <defs>
    <linearGradient id="a" x1="4.228" y1="30.2" x2="58.293" y2="30.2" gradientUnits="userSpaceOnUse">
      <stop offset="0" stop-color="#c5d654"/>
      <stop offset="1" stop-color="#a4bd47"/>
    </linearGradient>
  </defs>
  <title>SmallShrub_2</title>
  <path d="M17.9,60.4S-1.234,56.18.063,45.153c.653-5.546,11.513,3.405,11.513,3.405S2.009,40.126,4.117,35.91s10.7,8.27,10.7,8.27S2.5,19.694,6.549,18.072s9.406,15.081,9.406,15.081S4.6,6.235,14.5,5.91,24.549,20.991,24.549,20.991,26.677-4.017,34.6.559s-.324,34.378-.324,34.378,4.378-15.4,8.756-13.784-.811,14.27-.811,14.27S50.008,7.694,57.791,10.451s-8.918,30.486-8.918,30.486,12.81-12.973,14.27-8.27S50.494,48.072,50.494,48.072s11.189-5.676,11.676-2.6-12.486,7.459-12.486,7.459,17.675-3.243,15.729,2.271S47.9,60.4,47.9,60.4Z" fill="url(#a)"/>
</svg>
