<svg xmlns="http://www.w3.org/2000/svg" xmlns:xlink="http://www.w3.org/1999/xlink" width="65.56" height="60.4" viewBox="0 0 65.56 60.4">
  <defs>
    <style>
      .cls-1 {
        fill: url(#linear-gradient);
      }
    </style>
    <linearGradient id="linear-gradient" x1="4.23" y1="30.2" x2="58.29" y2="30.2" gradientUnits="userSpaceOnUse">
      <stop offset="0" stop-color="#005437"/>
      <stop offset="1" stop-color="#006837"/>
    </linearGradient>
  </defs>
  <title>SmallShrub_20</title>
  <g id="Layer_2" data-name="Layer 2">
    <g id="Layer_1-2" data-name="Layer 1">
      <path class="cls-1" d="M17.9,60.4S-1.23,56.18.06,45.15c.66-5.54,11.52,3.41,11.52,3.41S2,40.13,4.12,35.91s10.7,8.27,10.7,8.27S2.5,19.69,6.55,18.07,16,33.15,16,33.15,4.6,6.23,14.5,5.91,24.55,21,24.55,21,26.68-4,34.6.56s-.32,34.38-.32,34.38S38.66,19.53,43,21.15s-.82,14.27-.82,14.27S50,7.69,57.79,10.45s-8.92,30.49-8.92,30.49,12.81-13,14.27-8.27-12.65,15.4-12.65,15.4,11.19-5.67,11.68-2.59-12.49,7.46-12.49,7.46,17.68-3.25,15.73,2.27S47.9,60.4,47.9,60.4Z"/>
    </g>
  </g>
</svg>
