<svg xmlns="http://www.w3.org/2000/svg" xmlns:xlink="http://www.w3.org/1999/xlink" width="269.07" height="295.5" viewBox="0 0 269.07 295.5">
  <defs>
    <style>
      .cls-1 {
        fill: url(#linear-gradient);
      }

      .cls-2 {
        fill: url(#linear-gradient-2);
      }

      .cls-3 {
        fill: url(#linear-gradient-3);
      }

      .cls-4 {
        fill: url(#linear-gradient-4);
      }

      .cls-5 {
        fill: url(#linear-gradient-5);
      }

      .cls-6 {
        fill: url(#linear-gradient-6);
      }

      .cls-7 {
        fill: #fbb03b;
      }

      .cls-8 {
        fill: url(#linear-gradient-7);
      }

      .cls-9 {
        fill: url(#linear-gradient-8);
      }

      .cls-10 {
        fill: url(#linear-gradient-9);
      }

      .cls-11 {
        fill: url(#linear-gradient-10);
      }

      .cls-12 {
        fill: url(#linear-gradient-11);
      }

      .cls-13 {
        fill: url(#linear-gradient-12);
      }

      .cls-14 {
        fill: url(#linear-gradient-13);
      }

      .cls-15 {
        fill: url(#linear-gradient-14);
      }
    </style>
    <linearGradient id="linear-gradient" x1="68.79" y1="107.19" x2="68.79" y2="121.48" gradientUnits="userSpaceOnUse">
      <stop offset="0" stop-color="#5a8539"/>
      <stop offset="1" stop-color="#46952f"/>
    </linearGradient>
    <linearGradient id="linear-gradient-2" x1="160.83" y1="13.33" x2="160.83" y2="38.69" gradientUnits="userSpaceOnUse">
      <stop offset="0" stop-color="#2b773e"/>
      <stop offset="1" stop-color="#27954f"/>
    </linearGradient>
    <linearGradient id="linear-gradient-3" x1="79.23" y1="246.29" x2="163.34" y2="246.29" gradientTransform="translate(-103.71 67.93) rotate(-23.9)" xlink:href="#linear-gradient-2"/>
    <linearGradient id="linear-gradient-4" x1="149.81" y1="540.42" x2="228.32" y2="540.42" gradientTransform="matrix(0.95, -0.31, 0.31, 0.95, -219.83, -305.74)" xlink:href="#linear-gradient-2"/>
    <linearGradient id="linear-gradient-5" y1="203.41" x2="64.93" y2="203.41" gradientUnits="userSpaceOnUse">
      <stop offset="0" stop-color="#c1272d"/>
      <stop offset="1" stop-color="#ed1c24"/>
    </linearGradient>
    <linearGradient id="linear-gradient-6" x1="123.37" y1="2259.96" x2="162.3" y2="2259.96" gradientTransform="translate(1444.15 -1596.85) rotate(42.2)" xlink:href="#linear-gradient"/>
    <linearGradient id="linear-gradient-7" x1="184.77" y1="126.47" x2="249.7" y2="126.47" xlink:href="#linear-gradient-5"/>
    <linearGradient id="linear-gradient-8" x1="208.56" y1="2078.84" x2="247.49" y2="2078.84" gradientTransform="translate(1444.15 -1596.85) rotate(42.2)" xlink:href="#linear-gradient-2"/>
    <linearGradient id="linear-gradient-9" x1="212.59" y1="230.88" x2="277.53" y2="230.88" gradientTransform="matrix(1.02, 0.06, -0.06, 1, -1.81, -15.67)" xlink:href="#linear-gradient-5"/>
    <linearGradient id="linear-gradient-10" x1="210.45" y1="204.24" x2="262.11" y2="204.24" gradientTransform="translate(15.39 -17.25) rotate(3.79)" xlink:href="#linear-gradient"/>
    <linearGradient id="linear-gradient-11" x1="155.75" y1="188.88" x2="24.2" y2="188.88" xlink:href="#linear-gradient"/>
    <linearGradient id="linear-gradient-12" x1="134.08" y1="210.5" x2="246.64" y2="210.5" xlink:href="#linear-gradient"/>
    <linearGradient id="linear-gradient-13" x1="174.37" y1="72.5" x2="174.37" y2="196.06" xlink:href="#linear-gradient-2"/>
    <linearGradient id="linear-gradient-14" x1="114.32" y1="244.07" x2="187.72" y2="244.07" gradientTransform="matrix(0.9, 0.43, -0.43, 0.9, 117.74, -34.94)" xlink:href="#linear-gradient-2"/>
  </defs>
  <title>StrawberryBush_2</title>
  <g id="Layer_2" data-name="Layer 2">
    <g id="Layer_1-2" data-name="Layer 1">
      <g>
        <path class="cls-1" d="M80.88,108.63c-.85,2.1-8.58-1.76-13.63,1.87-5.41,3.89-4.7,14.17-3.25,22.25-.89-.94-9.75-10.57-6.75-21.62.31-1.16,2.66-9.82,9.5-11.25C74.18,98.31,81.8,106.35,80.88,108.63Z"/>
        <path class="cls-2" d="M162.76,58.67c4.45-.62,5.22-21.67,4.79-33.26A130.65,130.65,0,0,0,164.09,0c-2.44,7.69-4.38,14.34-5.85,19.56-4.17,14.81-4.65,18.65-4,23.15C155.4,50.55,159.82,59.08,162.76,58.67Z"/>
        <path class="cls-3" d="M144.42,234.12a21.41,21.41,0,0,0-1-6.58,21.66,21.66,0,0,0-3.26-6.4,3.71,3.71,0,0,0-2.13,2,18.77,18.77,0,0,0-5.31-9.38,18.17,18.17,0,0,0-2.16-1.7,6.3,6.3,0,0,0-1.19,1.22,6,6,0,0,0-.61,1.09,30.1,30.1,0,0,0-5.14-8.26c-.56-.63-1.13-1.22-1.69-1.76a9.15,9.15,0,0,0-2.38,2,9.27,9.27,0,0,0-1.12,1.65,17.79,17.79,0,0,0-6.75-6.68,16.64,16.64,0,0,0-3.74-1.5,11,11,0,0,0-.43,2.67,11.64,11.64,0,0,0,0,1.48,46.93,46.93,0,0,0-15.09-7.79,45.86,45.86,0,0,0-5.75-1.32,22.88,22.88,0,0,0-.88,3.24,22.07,22.07,0,0,0-.37,3.23l-2.47-1a28.55,28.55,0,0,0-2.84,4.81,28.84,28.84,0,0,0-2.54,9.62l-3.2-.88a18.91,18.91,0,0,0-1,7.44,19.17,19.17,0,0,0,.94,4.63,16.82,16.82,0,0,0-3-.22,17.51,17.51,0,0,0-3.47.43,43.31,43.31,0,0,0,.91,4.89,42.11,42.11,0,0,0,2.37,7l-3.3-.18A15.08,15.08,0,0,0,71,251.41a6,6,0,0,0-4.55.66,20.8,20.8,0,0,0,1.8,4.17,21.64,21.64,0,0,0,5.73,6.5,4.46,4.46,0,0,0-2.21.73,4.54,4.54,0,0,0-1.5,1.64,22.07,22.07,0,0,0,16.55,12l-3.56,2.9a47.45,47.45,0,0,0,9.79,7.49c4,2.33,15.69,8.82,30.59,6a40.1,40.1,0,0,0,32.79-37.89,16.77,16.77,0,0,0-4.46.25,15.81,15.81,0,0,0-3.57,1.14A35.63,35.63,0,0,0,151,242.71c-.65,0-1.32,0-2,0l-1.44,0a25,25,0,0,0,.88-7.36c0-.68-.08-1.34-.15-2a9.89,9.89,0,0,0-1.91.15A9.17,9.17,0,0,0,144.42,234.12Z"/>
        <path class="cls-4" d="M169,159.21a7.79,7.79,0,0,0-2.21.74,42.84,42.84,0,0,0,1-4.34,43.78,43.78,0,0,0,.72-8.23,7.83,7.83,0,0,0-1.63.07,8.5,8.5,0,0,0-2.46.73,14.3,14.3,0,0,0,1.42-6.77,14,14,0,0,0-.41-2.77,4.68,4.68,0,0,0-2.26.24,4.75,4.75,0,0,0-2.11,1.55,19.53,19.53,0,0,0-2.5-13.09L155.68,129A15.66,15.66,0,0,0,149,119.2l-2,2.3a22.5,22.5,0,0,0-3.05-6,21.61,21.61,0,0,0-3-3.41,7,7,0,0,0-1.55,1.44,7.06,7.06,0,0,0-1.13,2.09,14,14,0,0,0-6.5-5.72,13,13,0,0,0-3.78-.94,24.48,24.48,0,0,0-5.64-3.26,25.76,25.76,0,0,0-13.71-1.53,11.46,11.46,0,0,0-1.82,5.82l-2.39-1.52q-1,2.06-2,4.49a55.18,55.18,0,0,0-2.68,8.79l-2.88.09a19.81,19.81,0,0,0-.83,4.16,19.61,19.61,0,0,0,.82,7.41,7.09,7.09,0,0,0-4.11-.7,6.46,6.46,0,0,0-1.45.39,11.5,11.5,0,0,0-.28,4.55,11.87,11.87,0,0,0,2.92,6.23l-3.5-.24a19.49,19.49,0,0,0,3.61,11.69,4.4,4.4,0,0,0-3,.46,4.25,4.25,0,0,0-1.23,1.08,15.36,15.36,0,0,0,4,6.89,14.61,14.61,0,0,0,3.23,2.42,4,4,0,0,0-2.36,1.42,3.67,3.67,0,0,0-.67,1.42,13.77,13.77,0,0,0,2.77,3.1,14,14,0,0,0,4,2.32,4.26,4.26,0,0,0-2.3,1.24,4.19,4.19,0,0,0-.79,1.22,20.77,20.77,0,0,0,11.22,6.51,18.52,18.52,0,0,0-7,6.64,39.52,39.52,0,0,0,23.72,8.56,38.8,38.8,0,0,0,17.84-4.14,43.46,43.46,0,0,0,22.37-15.94,42.67,42.67,0,0,0,7.52-18.88A8.06,8.06,0,0,0,169,159.21Z"/>
        <g>
          <path class="cls-5" d="M32.66,172.53c4.31-.68,24.12-3.49,30.21,5.86,8.14,12.48-9.07,56.62-30,56.83S-6,192.13,1.88,179.33C8,169.37,29.14,172.05,32.66,172.53Z"/>
          <path class="cls-6" d="M33.44,166.67s-18-5.33-21.16-.89,2.16,4.66,2.16,4.66-5.65,3.47-5.2,5.95,7,.71,7,.71-3.24,6.32-1.6,7.38,10.83-3.65,10.83-3.65,1.48,6.41,3.12,5.88,6.24-6.88,8.22-6.54,7.89,6.18,9.47,5.68.51-8.82.51-8.82,10,.24,9.88-2.95-7-3.62-7-3.62,5.23-2.26,3.87-4.26S40.11,165,33.44,166.67Z"/>
          <path class="cls-7" d="M18,219.33c-.79.45-.88,1.95-.58,2.9.62,2,3.3,3,4.25,2.36.79-.54.5-2.29-.1-3.34C20.8,219.88,19,218.78,18,219.33Z"/>
          <path class="cls-7" d="M29.59,227.53c.2,1,1.58,1.37,2.41,1.39,1.36.05,2.89-.83,2.89-1.67,0-1.08-2.58-2.51-4.17-1.66A2,2,0,0,0,29.59,227.53Z"/>
          <path class="cls-7" d="M6.12,196.39c-.88.48-.83,1.92-.61,2.71.36,1.31,1.66,2.51,2.46,2.26,1-.32,1.63-3.21.33-4.47A2,2,0,0,0,6.12,196.39Z"/>
          <path class="cls-7" d="M25.67,213.31c-.39.73.82,2.24,2.12,2.95,1,.52,2.53.91,3,.32s-.44-2.52-1.9-3.3C27.71,212.67,26,212.64,25.67,213.31Z"/>
          <path class="cls-7" d="M17.38,193.31c-.95.39-.66,2.32.28,3.64.7,1,2.17,2.17,3.07,1.94s1.29-2.34.21-3.8C20.09,193.93,18.25,193,17.38,193.31Z"/>
          <path class="cls-7" d="M15.78,207.67c-.95,1.43.1,3.31.53,4.08.35.62,1.17,2.09,2.11,2s1.62-1.92,1.68-3.21c.06-1.44-.49-3.71-2-4A2.47,2.47,0,0,0,15.78,207.67Z"/>
          <path class="cls-7" d="M6.43,182.4c-1.14.26-1.32,2.24-1.35,2.49-.13,1.43.45,3.29,1.33,3.41,1.08.14,2.94-2.34,2.28-4.21C8.36,183.15,7.33,182.19,6.43,182.4Z"/>
          <path class="cls-7" d="M35.91,202.21c.79.45.88,1.95.58,2.9-.62,2-3.3,3-4.25,2.36-.79-.54-.49-2.29.1-3.34C33.13,202.76,35,201.66,35.91,202.21Z"/>
          <path class="cls-7" d="M33.08,193.42c-.2,1-1.58,1.36-2.4,1.39-1.36,0-2.9-.83-2.9-1.67,0-1.08,2.58-2.52,4.17-1.66A2,2,0,0,1,33.08,193.42Z"/>
          <path class="cls-7" d="M57.23,194.37c1,.28,1.22,1.7,1.17,2.52-.08,1.36-1.09,2.8-1.92,2.73-1.08-.1-2.28-2.8-1.28-4.3A2,2,0,0,1,57.23,194.37Z"/>
          <path class="cls-7" d="M44.74,219.23c.39.72-.82,2.24-2.13,2.94-1,.52-2.52.91-3,.32s.43-2.52,1.89-3.29C42.7,218.59,44.38,218.56,44.74,219.23Z"/>
          <path class="cls-7" d="M45.57,193.75c1,.17,1.14,2.12.5,3.61-.48,1.1-1.66,2.59-2.59,2.54s-1.75-2-1-3.66C43.06,194.93,44.65,193.59,45.57,193.75Z"/>
          <path class="cls-7" d="M50.18,207.44c1.23,1.19.6,3.26.35,4.1-.21.68-.7,2.29-1.64,2.39s-2-1.54-2.33-2.78c-.36-1.39-.3-3.73,1.09-4.33A2.47,2.47,0,0,1,50.18,207.44Z"/>
          <path class="cls-7" d="M54,180.76c1.17,0,1.77,1.91,1.84,2.14.44,1.38.26,3.32-.57,3.62-1,.37-3.37-1.66-3.12-3.63C52.24,181.9,53,180.74,54,180.76Z"/>
        </g>
        <g>
          <path class="cls-8" d="M217.43,95.59c4.31-.68,24.12-3.49,30.21,5.86,8.14,12.47-9.07,56.62-30,56.83s-38.83-43.09-31-55.89C192.77,92.43,213.91,95.11,217.43,95.59Z"/>
          <path class="cls-9" d="M218.21,89.73s-18-5.33-21.16-.89,2.16,4.66,2.16,4.66-5.65,3.47-5.2,6,7.05.71,7.05.71-3.24,6.32-1.6,7.38,10.83-3.65,10.83-3.65,1.48,6.41,3.12,5.88,6.24-6.88,8.22-6.54,7.89,6.18,9.47,5.68.51-8.82.51-8.82,10,.23,9.89-3-7-3.62-7-3.62,5.24-2.25,3.87-4.25S224.89,88.1,218.21,89.73Z"/>
          <path class="cls-7" d="M202.78,142.39c-.79.45-.88,2-.57,2.9.61,2,3.29,3,4.25,2.36.78-.54.49-2.29-.11-3.34C205.57,142.94,203.74,141.84,202.78,142.39Z"/>
          <path class="cls-7" d="M218.07,153.42c.78-.63.47-2,.11-2.78-.59-1.22-2.08-2.17-2.82-1.78-1,.51-1,3.46.47,4.47A2,2,0,0,0,218.07,153.42Z"/>
          <path class="cls-7" d="M190.89,118.07c-.88.49-.83,1.92-.61,2.71.37,1.32,1.66,2.52,2.46,2.26,1-.32,1.63-3.21.33-4.47A2,2,0,0,0,190.89,118.07Z"/>
          <path class="cls-7" d="M212.18,136.42a2.14,2.14,0,0,0-2.45,1.77,2.3,2.3,0,0,0,1.4,2.3c1.13.34,2.93-.46,3-1.61A2.77,2.77,0,0,0,212.18,136.42Z"/>
          <path class="cls-7" d="M202.08,112.42a2.13,2.13,0,0,0-2.44,1.77,2.29,2.29,0,0,0,1.39,2.3c1.14.34,2.93-.46,3-1.61A2.76,2.76,0,0,0,202.08,112.42Z"/>
          <path class="cls-7" d="M220.38,129.41c-.95.38-.66,2.32.28,3.63.7,1,2.17,2.18,3.07,1.94s1.29-2.33.21-3.79C223.09,130,221.25,129.05,220.38,129.41Z"/>
          <path class="cls-7" d="M196.51,131.27c-.94,1.43.11,3.31.54,4.08s1.17,2.09,2.11,2,1.62-1.92,1.68-3.22-.49-3.7-2-4A2.5,2.5,0,0,0,196.51,131.27Z"/>
          <path class="cls-7" d="M193.55,107.41a2.49,2.49,0,0,0-2.38-1.34c-1.2.21-1.39,1.77-1.42,2-.14,1.13.48,2.6,1.4,2.69C192.29,110.85,194.25,108.89,193.55,107.41Z"/>
          <path class="cls-7" d="M210,122.72c.79.45.87,2,.57,2.91-.62,2-3.3,3-4.25,2.35-.78-.54-.49-2.28.11-3.34C207.24,123.27,209.07,122.17,210,122.72Z"/>
          <path class="cls-7" d="M221.83,114.68c-.2,1-1.58,1.36-2.41,1.39-1.36.05-2.89-.83-2.89-1.67,0-1.08,2.58-2.51,4.17-1.66A2,2,0,0,1,221.83,114.68Z"/>
          <path class="cls-7" d="M242,117.42c1,.29,1.22,1.71,1.17,2.53-.08,1.36-1.09,2.8-1.92,2.73-1.08-.1-2.28-2.8-1.28-4.3A2,2,0,0,1,242,117.42Z"/>
          <path class="cls-7" d="M229.51,142.28c.39.73-.82,2.24-2.13,2.95-1,.52-2.52.91-3,.32s.44-2.52,1.9-3.29C227.47,141.65,229.15,141.61,229.51,142.28Z"/>
          <path class="cls-7" d="M230.34,116.8c1,.18,1.14,2.13.5,3.62-.48,1.1-1.65,2.58-2.59,2.54s-1.75-2-1-3.66C227.83,118,229.42,116.64,230.34,116.8Z"/>
          <path class="cls-7" d="M235,130.49c1.23,1.2.6,3.27.35,4.11-.21.68-.7,2.29-1.64,2.39s-2-1.54-2.33-2.79-.3-3.72,1.1-4.32A2.46,2.46,0,0,1,235,130.49Z"/>
          <path class="cls-7" d="M238.73,103.82c1.17,0,1.77,1.91,1.84,2.14.44,1.38.26,3.31-.57,3.62-1,.37-3.37-1.66-3.12-3.63C237,105,237.81,103.8,238.73,103.82Z"/>
        </g>
        <g>
          <path class="cls-10" d="M236.9,199.45c4.45-.41,24.9-2,30.56,7.75,7.56,13-12.78,55.94-34.24,54.83-21.29-1.1-37.08-45.46-28.25-57.74C211.85,194.74,233.33,198.75,236.9,199.45Z"/>
          <path class="cls-11" d="M256.18,198.46s5.82-1.87,4.47-4-14.57-2.12-21.93-1c0,0-19.21-6.62-22.89-2.41s2,4.8,2,4.8-6.36,3.06-6,5.57,7.6,1.21,7.6,1.21-3.93,6.07-2.21,7.24,12-2.86,12-2.86,1.18,6.5,3,6.1,7.23-6.42,9.35-5.94,8.16,6.74,9.9,6.35,1.14-8.77,1.14-8.77,10.88,1,10.92-2.23S256.18,198.46,256.18,198.46Z"/>
          <path class="cls-7" d="M220.54,245.26c-.82.4-1,1.89-.77,2.86.49,2,3.09,3.23,4.09,2.64.81-.49.64-2.25.11-3.34C223.28,246,221.53,244.78,220.54,245.26Z"/>
          <path class="cls-7" d="M231.55,254.21c.13,1,1.49,1.47,2.31,1.55,1.35.13,2.94-.64,3-1.47.07-1.09-2.4-2.69-4-1.94A2,2,0,0,0,231.55,254.21Z"/>
          <path class="cls-7" d="M207.87,208.87c.14,1,1.49,1.47,2.31,1.55,1.36.14,2.94-.64,3-1.47.07-1.08-2.41-2.68-4.05-1.94A2,2,0,0,0,207.87,208.87Z"/>
          <path class="cls-7" d="M209.43,229c-.9.43-1,1.87-.78,2.67.27,1.33,1.48,2.62,2.3,2.42,1.05-.26,1.84-3.1.63-4.44A2,2,0,0,0,209.43,229Z"/>
          <path class="cls-7" d="M229.26,241.25c-.43.71.68,2.29,1.93,3.08.93.59,2.47,1.08,2.94.52s-.27-2.54-1.67-3.41C231.34,240.75,229.66,240.61,229.26,241.25Z"/>
          <path class="cls-7" d="M222.64,217.56c-1,.32-.82,2.27,0,3.65.63,1,2,2.31,2.93,2.13s1.44-2.24.46-3.77C225.3,218.36,223.53,217.26,222.64,217.56Z"/>
          <path class="cls-7" d="M219.08,233.48c-1,1.37-.11,3.31.26,4.11.31.64,1,2.16,2,2.12s1.74-1.81,1.88-3.09c.16-1.43-.24-3.73-1.71-4.12A2.47,2.47,0,0,0,219.08,233.48Z"/>
          <path class="cls-7" d="M213.35,216.19c-1.15.19-1.46,2.15-1.5,2.39-.23,1.43.23,3.32,1.09,3.49,1.08.22,3.1-2.13,2.56-4C215.23,217.07,214.26,216,213.35,216.19Z"/>
          <path class="cls-7" d="M257.49,233.36c.76.51.74,2,.38,2.94-.75,1.92-3.49,2.79-4.4,2.07-.74-.59-.34-2.32.33-3.33C254.67,233.72,256.57,232.75,257.49,233.36Z"/>
          <path class="cls-7" d="M242.69,215c-.27,1-1.67,1.26-2.5,1.23-1.36-.05-2.83-1-2.77-1.86.07-1.08,2.74-2.34,4.27-1.38A2,2,0,0,1,242.69,215Z"/>
          <path class="cls-7" d="M261.32,223c.94.35,1.11,1.78,1,2.59-.16,1.35-1.27,2.73-2.09,2.6-1.08-.17-2.09-2.94-1-4.38A2,2,0,0,1,261.32,223Z"/>
          <path class="cls-7" d="M247.22,246.93c.34.75-1,2.18-2.32,2.8-1,.45-2.58.74-3,.12s.6-2.48,2.11-3.16C245.22,246.16,246.9,246.24,247.22,246.93Z"/>
          <path class="cls-7" d="M248.32,220c1,.24,1,2.2.25,3.64-.55,1.06-1.82,2.47-2.75,2.36s-1.62-2.11-.77-3.72C245.72,221,247.41,219.8,248.32,220Z"/>
          <path class="cls-7" d="M247.73,235c1.15,1.28.38,3.29.07,4.11s-.85,2.24-1.8,2.28-1.88-1.66-2.13-2.93-.06-3.73,1.38-4.24A2.48,2.48,0,0,1,247.73,235Z"/>
          <path class="cls-7" d="M259,209.15c1.16.1,1.64,2,1.7,2.27.34,1.4,0,3.32-.81,3.57-1.05.3-3.26-1.88-2.88-3.83C257.16,210.18,258,209.08,259,209.15Z"/>
          <path class="cls-7" d="M234.72,228.8c1.16.1,1.63,2,1.69,2.26.35,1.4,0,3.33-.81,3.57-1,.31-3.25-1.87-2.87-3.82C232.92,229.83,233.8,228.72,234.72,228.8Z"/>
        </g>
        <path class="cls-12" d="M114,294.3h26.62c8.13-40.86,10.08-94.89-15.62-146-5.23-10.4-35.16-69.93-64.5-64.5C34.09,88.68,22.84,143.29,29,165.3c.45,1.64,2,6.9,3.92,6.86,4-.1,7.34-23.38,9.58-38.86,1.07-7.37,1.13-9.18,2.4-12.94,2.6-7.71,9.49-21.29,18.6-22.06,7.54-.64,14,7.77,18.5,14,35.54,49,38.4,111.57,38.5,114.5A263.41,263.41,0,0,1,114,294.3Z"/>
        <path class="cls-13" d="M156.75,295c-2.95-61.45,11.43-100.39,22-121.5,15.37-30.7,26.38-31.1,29-31,9.87.38,19.41,12.64,23,23.25,5.25,15.54-.82,31.93,5.57,34.54a4.08,4.08,0,0,0,2.43.21c7.05-1.67,10.89-24.78,5-42-5.21-15.24-20-32.6-37.5-33-21-.49-35.54,23.83-45.5,40.5-11.53,19.3-31.73,61.63-25.5,129.5Z"/>
        <path class="cls-14" d="M147.25,293.5c10.23-96,16.83-165.26,21.25-219.1,1.4-17,4.15-51.39,16.5-53.93,9.46-1.94,22.86,15.26,28.5,31,8,22.39,1,43.67,4,44.26,1.85.37,5.36-8,7-15.26.78-3.43,3.75-18.13-3.75-36.38-8.63-21-27.37-38.6-38.25-36.38a20.2,20.2,0,0,0-9.17,4.58c-2.18,2.11-3.4,4.5-4.89,7.4a63.16,63.16,0,0,0-3.12,7.53c-6.86,20.34-9.32,42-9.32,42-1.65,14.54-4.28,29-6,43.5-1,8.48-4,29-10,70-3.76,25.76-9.33,62.86-17,110.73Z"/>
        <path class="cls-15" d="M109.84,247a60.63,60.63,0,0,0-.79,7.74,59.74,59.74,0,0,0,1.09,13.59,4,4,0,0,0-1.86-.93,4,4,0,0,0-2.44.29,29.95,29.95,0,0,0,23.87,25.8,48.78,48.78,0,0,0,29.62-2.74,47.83,47.83,0,0,0,16.83-12.3,14.57,14.57,0,0,0-7.23-2.4,23.07,23.07,0,0,0,12-11.34,22.39,22.39,0,0,0,1.9-11.74l-3.39.41c1.33-2.26,4.79-8.85,3.22-16.87a22.15,22.15,0,0,0-2.3-6.34c-.79.39-1.6.82-2.43,1.3-.49.27-.95.55-1.4.82a33.93,33.93,0,0,0-.86-7.33,34.35,34.35,0,0,0-1.73-5.37l-3.29.35a23.27,23.27,0,0,0-1.63-7.17,24,24,0,0,0-6.6-9.17,30.42,30.42,0,0,0-13.79,6.15,29.18,29.18,0,0,0-4.81,4.88c-.63-.74-1.26-1.48-1.9-2.21a21.1,21.1,0,0,0-3.68,3.34,22.07,22.07,0,0,0-4,6.73,10.87,10.87,0,0,0-1.24-1.59,10.64,10.64,0,0,0-2.26-1.85c-.68,1-1.38,2.16-2,3.39a45.15,45.15,0,0,0-2.76,6.14l-2.18-1.47a30.15,30.15,0,0,0-2.48,3.66,30.71,30.71,0,0,0-3.15,7.68l-2.31-1a18.91,18.91,0,0,0-2.8,11.69,3.85,3.85,0,0,0-3.19-2.18Z"/>
      </g>
    </g>
  </g>
</svg>
