<svg xmlns="http://www.w3.org/2000/svg" xmlns:xlink="http://www.w3.org/1999/xlink" width="64.93" height="86.67" viewBox="0 0 64.93 86.67">
  <defs>
    <style>
      .cls-1 {
        fill: url(#linear-gradient);
      }

      .cls-2 {
        fill: url(#linear-gradient-2);
      }

      .cls-3 {
        fill: url(#linear-gradient-3);
      }

      .cls-4 {
        fill: #fbb03b;
      }
    </style>
    <linearGradient id="linear-gradient" y1="54.86" x2="64.93" y2="54.86" gradientUnits="userSpaceOnUse">
      <stop offset="0" stop-color="#c1272d"/>
      <stop offset="1" stop-color="#ed1c24"/>
    </linearGradient>
    <linearGradient id="linear-gradient-2" x1="242.14" y1="2298.61" x2="281.07" y2="2298.61" gradientTransform="translate(1382.14 -1853.82) rotate(42.2)" gradientUnits="userSpaceOnUse">
      <stop offset="0" stop-color="#5a8539"/>
      <stop offset="1" stop-color="#46952f"/>
    </linearGradient>
    <linearGradient id="linear-gradient-3" x1="-95.4" y1="1326.36" x2="-85.83" y2="1326.36" gradientTransform="matrix(0.99, 0.12, -0.21, 1.72, 406.05, -2253.12)" xlink:href="#linear-gradient-2"/>
  </defs>
  <title>Strawberry_1</title>
  <g id="Layer_2" data-name="Layer 2">
    <g id="Layer_1-2" data-name="Layer 1">
      <g>
        <path class="cls-1" d="M32.66,24c4.31-.68,24.12-3.49,30.21,5.85,8.14,12.48-9.07,56.62-30,56.84S-6,43.58,1.88,30.78C8,20.82,29.14,23.5,32.66,24Z"/>
        <path class="cls-2" d="M33.44,18.12s-18-5.33-21.16-.89,2.16,4.65,2.16,4.65-5.65,3.48-5.2,6,7,.71,7,.71-3.24,6.32-1.6,7.37,10.83-3.64,10.83-3.64,1.48,6.41,3.12,5.88,6.24-6.88,8.22-6.54,7.89,6.18,9.47,5.67.51-8.81.51-8.81,10,.23,9.88-3-7-3.62-7-3.62,5.23-2.25,3.87-4.26S40.11,16.49,33.44,18.12Z"/>
        <path class="cls-3" d="M32.42,23.37S25.34,9.4,30,2.86,36.64,1,36.82,17.21c0,0-.13,3.79-1.22,5.23S32.42,23.37,32.42,23.37Z"/>
        <path class="cls-4" d="M18,70.78c-.79.45-.88,1.94-.58,2.9.62,2,3.3,3,4.25,2.36.79-.54.5-2.29-.1-3.34C20.8,71.32,19,70.23,18,70.78Z"/>
        <path class="cls-4" d="M33.3,81.81c.78-.63.47-2,.11-2.78-.59-1.22-2.08-2.17-2.82-1.78-1,.51-1,3.46.47,4.47A2,2,0,0,0,33.3,81.81Z"/>
        <path class="cls-4" d="M6.12,46.46c-.88.48-.83,1.92-.61,2.71.36,1.31,1.66,2.51,2.46,2.26,1-.32,1.63-3.21.33-4.47A2,2,0,0,0,6.12,46.46Z"/>
        <path class="cls-4" d="M27.41,64.81A2.14,2.14,0,0,0,25,66.58a2.29,2.29,0,0,0,1.4,2.29c1.13.35,2.93-.45,3-1.6A2.77,2.77,0,0,0,27.41,64.81Z"/>
        <path class="cls-4" d="M17.31,40.81a2.12,2.12,0,0,0-2.44,1.77,2.27,2.27,0,0,0,1.39,2.29c1.14.35,2.93-.45,3-1.6A2.76,2.76,0,0,0,17.31,40.81Z"/>
        <path class="cls-4" d="M35.61,57.8c-1,.38-.66,2.32.28,3.63.7,1,2.17,2.18,3.07,1.94s1.29-2.33.21-3.8C38.32,58.42,36.48,57.44,35.61,57.8Z"/>
        <path class="cls-4" d="M11.74,59.66c-.94,1.43.11,3.31.54,4.08.35.62,1.17,2.09,2.11,2S16,63.8,16.07,62.51s-.49-3.7-2-4A2.49,2.49,0,0,0,11.74,59.66Z"/>
        <path class="cls-4" d="M8.78,35.8A2.47,2.47,0,0,0,6.4,34.46c-1.2.21-1.39,1.77-1.42,2-.14,1.13.48,2.6,1.4,2.69C7.52,39.24,9.48,37.28,8.78,35.8Z"/>
        <path class="cls-4" d="M25.26,51.11c.78.45.87,2,.57,2.9-.62,2-3.3,3-4.25,2.36-.78-.54-.49-2.29.11-3.34C22.47,51.66,24.3,50.56,25.26,51.11Z"/>
        <path class="cls-4" d="M37.06,43.07c-.2,1-1.58,1.36-2.41,1.39-1.36,0-2.89-.83-2.89-1.67,0-1.08,2.58-2.52,4.17-1.66A2,2,0,0,1,37.06,43.07Z"/>
        <path class="cls-4" d="M57.23,45.81c1,.29,1.22,1.7,1.17,2.53-.08,1.35-1.09,2.8-1.92,2.73-1.08-.1-2.28-2.8-1.28-4.31A2,2,0,0,1,57.23,45.81Z"/>
        <path class="cls-4" d="M44.74,70.67c.39.73-.82,2.24-2.13,3-1,.52-2.52.91-3,.32s.43-2.52,1.89-3.29C42.7,70,44.38,70,44.74,70.67Z"/>
        <path class="cls-4" d="M45.57,45.19c1,.18,1.14,2.13.5,3.62-.48,1.1-1.66,2.58-2.59,2.54s-1.75-2-1-3.66C43.06,46.37,44.65,45,45.57,45.19Z"/>
        <path class="cls-4" d="M50.18,58.88c1.23,1.2.6,3.27.35,4.1s-.7,2.29-1.64,2.4-2-1.54-2.33-2.79-.3-3.72,1.09-4.32A2.47,2.47,0,0,1,50.18,58.88Z"/>
        <path class="cls-4" d="M54,32.2c1.17,0,1.77,1.91,1.84,2.15.44,1.38.26,3.31-.57,3.61-1,.38-3.37-1.65-3.12-3.62C52.24,33.35,53,32.19,54,32.2Z"/>
      </g>
    </g>
  </g>
</svg>
