<svg xmlns="http://www.w3.org/2000/svg" xmlns:xlink="http://www.w3.org/1999/xlink" width="269.07" height="270.7" viewBox="0 0 269.07 270.7">
  <defs>
    <style>
      .cls-1 {
        fill: url(#linear-gradient);
      }

      .cls-2 {
        fill: url(#linear-gradient-2);
      }

      .cls-3 {
        fill: url(#linear-gradient-3);
      }

      .cls-4 {
        fill: url(#linear-gradient-4);
      }

      .cls-5 {
        fill: url(#linear-gradient-5);
      }

      .cls-6 {
        fill: url(#linear-gradient-6);
      }

      .cls-7 {
        fill: url(#linear-gradient-7);
      }

      .cls-8 {
        fill: url(#radial-gradient);
      }

      .cls-9 {
        fill: url(#linear-gradient-8);
      }

      .cls-10 {
        fill: url(#linear-gradient-9);
      }

      .cls-11 {
        fill: url(#linear-gradient-10);
      }

      .cls-12 {
        fill: url(#linear-gradient-11);
      }

      .cls-13 {
        fill: url(#linear-gradient-12);
      }

      .cls-14 {
        fill: #fbb03b;
      }

      .cls-15 {
        fill: url(#linear-gradient-13);
      }

      .cls-16 {
        fill: url(#linear-gradient-14);
      }

      .cls-17 {
        fill: url(#linear-gradient-15);
      }

      .cls-18 {
        fill: url(#linear-gradient-16);
      }

      .cls-19 {
        fill: url(#linear-gradient-17);
      }

      .cls-20 {
        fill: url(#linear-gradient-18);
      }

      .cls-21 {
        fill: url(#linear-gradient-19);
      }

      .cls-22 {
        fill: url(#linear-gradient-20);
      }

      .cls-23 {
        fill: url(#linear-gradient-21);
      }

      .cls-24 {
        fill: url(#linear-gradient-22);
      }

      .cls-25 {
        fill: url(#linear-gradient-23);
      }

      .cls-26 {
        fill: url(#radial-gradient-2);
      }
    </style>
    <linearGradient id="linear-gradient" x1="245.87" y1="137.26" x2="201.74" y2="192.28" gradientTransform="matrix(-1.03, -0.48, -0.39, 0.84, 472.57, 128.53)" gradientUnits="userSpaceOnUse">
      <stop offset="0" stop-color="#2b773e"/>
      <stop offset="1" stop-color="#27954f"/>
    </linearGradient>
    <linearGradient id="linear-gradient-2" x1="234.72" y1="93.02" x2="233.8" y2="112.96" gradientTransform="translate(-14.97 23.65) rotate(-5.21)" gradientUnits="userSpaceOnUse">
      <stop offset="0" stop-color="#fff"/>
      <stop offset="0.78" stop-color="#f6f6f6"/>
      <stop offset="0.99" stop-color="#f2f2f2"/>
    </linearGradient>
    <linearGradient id="linear-gradient-3" x1="-177.09" y1="106.63" x2="-177.77" y2="121.51" gradientTransform="translate(162.75 -81.14) rotate(-77.68)" xlink:href="#linear-gradient-2"/>
    <linearGradient id="linear-gradient-4" x1="-305.18" y1="-229.79" x2="-305.99" y2="-212.04" gradientTransform="translate(148.1 -252.49) rotate(-141.25)" xlink:href="#linear-gradient-2"/>
    <linearGradient id="linear-gradient-5" x1="-33.2" y1="-500.82" x2="-34.07" y2="-481.77" gradientTransform="matrix(-0.88, 0.48, -0.48, -0.88, -16.88, -318.89)" xlink:href="#linear-gradient-2"/>
    <linearGradient id="linear-gradient-6" x1="234.11" y1="-441.61" x2="233.41" y2="-426.54" gradientTransform="matrix(-0.26, 0.96, -0.96, -0.26, -115.09, -255.48)" xlink:href="#linear-gradient-2"/>
    <linearGradient id="linear-gradient-7" x1="396.09" y1="-91.94" x2="395.28" y2="-74.32" gradientTransform="matrix(0.76, 0.64, -0.64, 0.76, -126.75, -102)" xlink:href="#linear-gradient-2"/>
    <radialGradient id="radial-gradient" cx="234.13" cy="98.55" r="9.21" gradientTransform="matrix(0.72, -0.09, 0.07, 1, 63.76, 23.65)" gradientUnits="userSpaceOnUse">
      <stop offset="0" stop-color="#fbce3b"/>
      <stop offset="0.45" stop-color="#fbc53b"/>
      <stop offset="0.99" stop-color="#fbb33b"/>
    </radialGradient>
    <linearGradient id="linear-gradient-8" x1="136.87" y1="102.2" x2="78.45" y2="175.04" gradientUnits="userSpaceOnUse">
      <stop offset="0" stop-color="#5a8539"/>
      <stop offset="1" stop-color="#46952f"/>
    </linearGradient>
    <linearGradient id="linear-gradient-9" x1="-468.33" y1="715.24" x2="-389.82" y2="715.24" gradientTransform="matrix(-1, 0.06, 0.06, 1, -336.02, -493.11)" xlink:href="#linear-gradient"/>
    <linearGradient id="linear-gradient-10" x1="-478.68" y1="205.89" x2="-394.57" y2="205.89" gradientTransform="matrix(-0.8, -0.6, -0.6, 0.8, -84.05, -202.57)" xlink:href="#linear-gradient"/>
    <linearGradient id="linear-gradient-11" x1="-596.95" y1="174.81" x2="-532.02" y2="174.81" gradientTransform="matrix(-1, 0, 0, 1, -327.88, 0)" gradientUnits="userSpaceOnUse">
      <stop offset="0" stop-color="#c1272d"/>
      <stop offset="1" stop-color="#ed1c24"/>
    </linearGradient>
    <linearGradient id="linear-gradient-12" x1="-494.86" y1="2183.82" x2="-455.93" y2="2183.82" gradientTransform="matrix(-0.74, 0.67, 0.67, 0.74, -1581.91, -1153.75)" xlink:href="#linear-gradient-8"/>
    <linearGradient id="linear-gradient-13" x1="-386.52" y1="197.83" x2="-321.59" y2="197.83" gradientTransform="matrix(-1.02, 0.06, 0.06, 1, -340.31, 26.58)" xlink:href="#linear-gradient-11"/>
    <linearGradient id="linear-gradient-14" x1="-386.92" y1="170.86" x2="-335.25" y2="170.86" gradientTransform="matrix(-1, 0.07, 0.07, 1, -340.17, 26.96)" xlink:href="#linear-gradient"/>
    <linearGradient id="linear-gradient-15" x1="221.15" y1="98.84" x2="141.48" y2="198.18" xlink:href="#linear-gradient-8"/>
    <linearGradient id="linear-gradient-16" x1="40.53" y1="129.59" x2="116.53" y2="203.59" gradientTransform="matrix(1, 0, 0, 1, 0, 0)" xlink:href="#linear-gradient"/>
    <linearGradient id="linear-gradient-17" x1="-466.35" y1="237.02" x2="-392.95" y2="237.02" gradientTransform="matrix(-0.82, 0.58, 0.58, 0.82, -362.14, 281.81)" xlink:href="#linear-gradient"/>
    <linearGradient id="linear-gradient-18" x1="65.43" y1="36.99" x2="64.4" y2="59.39" gradientTransform="translate(27.1 -46.94) rotate(27.63)" xlink:href="#linear-gradient-2"/>
    <linearGradient id="linear-gradient-19" x1="-176.61" y1="-70.01" x2="-177.56" y2="-49.23" gradientTransform="translate(233.24 -38.6) rotate(-44.83)" xlink:href="#linear-gradient-2"/>
    <linearGradient id="linear-gradient-20" x1="-152.75" y1="-305.61" x2="-153.7" y2="-284.95" gradientTransform="translate(313.88 -190.5) rotate(-108.4)" xlink:href="#linear-gradient-2"/>
    <linearGradient id="linear-gradient-21" x1="92.44" y1="-388.27" x2="91.4" y2="-365.73" gradientTransform="translate(211.28 -335.76) rotate(-176.01)" xlink:href="#linear-gradient-2"/>
    <linearGradient id="linear-gradient-22" x1="239.19" y1="-270.96" x2="238.22" y2="-250.05" gradientTransform="translate(94.38 -335.75) rotate(138.14)" xlink:href="#linear-gradient-2"/>
    <linearGradient id="linear-gradient-23" x1="237.19" y1="-13.13" x2="236.24" y2="7.48" gradientTransform="matrix(0.29, 0.96, -0.96, 0.29, 1.34, -213.13)" xlink:href="#linear-gradient-2"/>
    <radialGradient id="radial-gradient-2" cx="79.72" cy="41.29" r="9.21" gradientTransform="matrix(0.88, 0.49, -0.5, 1.01, 28.05, -50.46)" xlink:href="#radial-gradient"/>
  </defs>
  <title>StrawberryBush</title>
  <g id="Layer_2" data-name="Layer 2">
    <g id="Layer_1-2" data-name="Layer 1">
      <g>
        <path class="cls-1" d="M130.89,235.53c4.9-18.58,16.46-54.11,42.59-84.31A222.64,222.64,0,0,1,202,123.84c18.8-14.53,37.2-23.06,36.28-24.29-.63-.84-9.59,2.42-16,5.17C198.62,114.84,180.8,130.34,164.1,151a268.42,268.42,0,0,0-44.23,79.69Z"/>
        <g>
          <path class="cls-2" d="M233.69,97.14c-3.13-4.41-8.18-1.94-10.47.13a8.9,8.9,0,0,0-.12,14.12c2.05,1.94,6.56,4.44,9.86.74C236.12,108.58,236.55,101.17,233.69,97.14Z"/>
          <path class="cls-3" d="M232.87,106.35c-4,2.8-3.8,10.2-3.06,13.85.26,1.31,1.13,5.6,3.78,6.79s5.13-1.53,5.91-2.38c1.95-2.12,5-7.31,3.48-12.79C241.48,106.58,236.51,103.79,232.87,106.35Z"/>
          <path class="cls-4" d="M239.64,111a10.47,10.47,0,0,0,7.61,10c1,.26,4.12,1.1,6.07-1.67s1.29-7,1.09-8.38c-.5-3.36-2.49-9.49-6.73-10C243.63,100.47,239.6,105.39,239.64,111Z"/>
          <path class="cls-5" d="M246.46,105.42c4.14,2.3,8-2.76,9.55-5.93.54-1.14,2.3-4.86,1.2-8.41A6.82,6.82,0,0,0,252,86.49a7.55,7.55,0,0,0-9.25,4.8C240.91,96.29,242.67,103.32,246.46,105.42Z"/>
          <path class="cls-6" d="M245,94.9c4.08-2.51,4.18-9.91,3.58-13.61-.22-1.32-.92-5.67-3.53-7.05s-5.18,1.16-6,2c-2,2-5.3,6.94-3.95,12.52C236.42,94.06,241.28,97.2,245,94.9Z"/>
          <path class="cls-7" d="M237.8,89.87a10.69,10.69,0,0,0-7.42-10.22c-1-.28-4.1-1.23-6.11,1.47s-1.41,7-1.24,8.34c.45,3.38,2.33,9.57,6.56,10.22C233.63,100.3,237.74,95.52,237.8,89.87Z"/>
          <path class="cls-8" d="M234.41,92.93a8.82,8.82,0,0,0-1.95,3.67,13.23,13.23,0,0,0-.3,5.18,11.83,11.83,0,0,0,.63,3.08,7.91,7.91,0,0,0,2.45,3.52,5.39,5.39,0,0,0,6.73.33,7.59,7.59,0,0,0,2.17-2.58,11.45,11.45,0,0,0,1.09-4.42c.09-1.24.39-5.38-1.68-8.09a5.66,5.66,0,0,0-4.07-2.16A5.37,5.37,0,0,0,234.41,92.93Z"/>
        </g>
        <path class="cls-9" d="M119.24,264.89c3.93-27,9.11-80.1-3.67-135A363.79,363.79,0,0,0,98.93,77.24C86.22,47.07,71,24.94,72.57,23.89c1.07-.7,8.92,8.92,14.33,16.34,19.95,27.34,31.17,58.17,38.67,95,6,29.24,12,73.88,7.67,130Z"/>
        <path class="cls-10" d="M102.19,219.19a7.82,7.82,0,0,1,2.33-.14,44.06,44.06,0,0,1-6.26-11,8.33,8.33,0,0,1,1.54-.53,8.89,8.89,0,0,1,2.56-.24,14.22,14.22,0,0,1-3.82-5.76,13.59,13.59,0,0,1-.65-2.72,4.66,4.66,0,0,1,2.19-.62,4.8,4.8,0,0,1,2.54.66,19.5,19.5,0,0,1-2.52-13.08l3.28.47A15.67,15.67,0,0,1,106,174.6l2.72,1.4a22.63,22.63,0,0,1,.63-6.68A21.77,21.77,0,0,1,110.9,165a6.87,6.87,0,0,1,2,.77,7,7,0,0,1,1.82,1.52,14,14,0,0,1,3.92-7.72,13.07,13.07,0,0,1,3.17-2.27,24.51,24.51,0,0,1,4-5.11A25.77,25.77,0,0,1,138,145.73a11.61,11.61,0,0,1,2.66,2.66,10.55,10.55,0,0,1,1.18,2.07c.56-.76,1.11-1.53,1.66-2.29,1.15,1,2.35,2.16,3.55,3.43a54.56,54.56,0,0,1,5.73,7.18l2.71-1a18.93,18.93,0,0,1,2.31,3.56,19.39,19.39,0,0,1,2,7.18,7,7,0,0,1,3.56-2.17,6.41,6.41,0,0,1,1.49-.18,11.69,11.69,0,0,1,1.94,4.13,11.83,11.83,0,0,1-.41,6.87l3.16-1.52a20,20,0,0,1,1.53,7.38,19.51,19.51,0,0,1-.56,4.82,4.37,4.37,0,0,1,3-.69,4.18,4.18,0,0,1,1.53.55,15.21,15.21,0,0,1-1.13,7.87,14.83,14.83,0,0,1-2.1,3.44,4,4,0,0,1,2.72.45,3.78,3.78,0,0,1,1.15,1.07,14.08,14.08,0,0,1-1.44,3.9,13.76,13.76,0,0,1-2.9,3.65,4.23,4.23,0,0,1,2.59.31,4.15,4.15,0,0,1,1.19.84,20.55,20.55,0,0,1-2.91,5.36,20.8,20.8,0,0,1-5.12,4.84,18.58,18.58,0,0,1,5.17,1.35,18.86,18.86,0,0,1,3.83,2.21,39.5,39.5,0,0,1-18.88,16.72,38.61,38.61,0,0,1-18.11,2.74,43.45,43.45,0,0,1-26.67-6.54,42.65,42.65,0,0,1-14-14.76A7.88,7.88,0,0,1,102.19,219.19Z"/>
        <path class="cls-11" d="M109.94,204.9a21.48,21.48,0,0,1,7-11.74,3.83,3.83,0,0,1,1.27,1.36,3.57,3.57,0,0,1,.38,1,18.72,18.72,0,0,1,7.24-8,17.16,17.16,0,0,1,2.47-1.18,5.61,5.61,0,0,1,.89,1.45,6.36,6.36,0,0,1,.37,1.2,29.45,29.45,0,0,1,6.81-6.94c.69-.5,1.37-1,2-1.35a9,9,0,0,1,1.9,2.45A8.64,8.64,0,0,1,141,185a17.73,17.73,0,0,1,8.05-5,16.82,16.82,0,0,1,4-.65,11.13,11.13,0,0,1-.54,4.14,46.7,46.7,0,0,1,16.43-4.3,45,45,0,0,1,5.9,0,21.65,21.65,0,0,1,.15,3.36,20.82,20.82,0,0,1-.34,3.23l2.63-.42a28.68,28.68,0,0,1,2.1,15.25l3.31-.15a18.59,18.59,0,0,1-2.6,11.79,16.53,16.53,0,0,1,3,.45,16,16,0,0,1,3.29,1.18,43.09,43.09,0,0,1-5.79,10.86l3.26.56a15.09,15.09,0,0,1-6,12.56,6,6,0,0,1,2,.28,6.06,6.06,0,0,1,2.27,1.35,20.88,20.88,0,0,1-2.67,3.68,21.43,21.43,0,0,1-7,5.09,4.43,4.43,0,0,1,2,1.2,4.55,4.55,0,0,1,1.1,1.93,22.09,22.09,0,0,1-18.78,8.13l2.85,3.61a48.15,48.15,0,0,1-11.2,5.17c-4.43,1.39-17.24,5.18-31.15-.87a40.11,40.11,0,0,1-23.72-44.13,16.52,16.52,0,0,1,4.29,1.21,17.14,17.14,0,0,1,3.24,1.89,35.34,35.34,0,0,1,.64-14.49c.64.12,1.3.26,2,.42l1.4.34a24.85,24.85,0,0,1,.75-7.38c.17-.66.36-1.28.57-1.88a10.29,10.29,0,0,1,1.83.57A9,9,0,0,1,109.94,204.9Z"/>
        <g>
          <path class="cls-12" d="M236.41,143.93c-4.31-.68-24.12-3.49-30.21,5.85-8.14,12.48,9.07,56.62,30,56.84s38.83-43.09,31-55.89C261.07,140.77,239.93,143.45,236.41,143.93Z"/>
          <path class="cls-13" d="M235.63,138.07s18-5.33,21.16-.89-2.16,4.65-2.16,4.65,5.65,3.47,5.2,6-7,.71-7,.71,3.24,6.32,1.6,7.37-10.83-3.64-10.83-3.64-1.48,6.4-3.12,5.88-6.24-6.89-8.22-6.55-7.89,6.19-9.47,5.68-.51-8.82-.51-8.82-10,.24-9.89-2.95,7-3.62,7-3.62-5.23-2.25-3.87-4.26S229,136.43,235.63,138.07Z"/>
          <path class="cls-14" d="M251.06,190.73c.79.45.88,1.94.58,2.9-.62,2-3.3,3-4.26,2.36-.78-.54-.49-2.29.11-3.34C248.27,191.27,250.1,190.18,251.06,190.73Z"/>
          <path class="cls-14" d="M239.48,198.92c-.2,1-1.58,1.37-2.41,1.4-1.36,0-2.89-.83-2.89-1.67,0-1.09,2.58-2.52,4.17-1.66A2,2,0,0,1,239.48,198.92Z"/>
          <path class="cls-14" d="M263,167.78c.88.49.83,1.92.61,2.72-.36,1.31-1.66,2.51-2.46,2.26-1-.33-1.63-3.22-.33-4.48A2,2,0,0,1,263,167.78Z"/>
          <path class="cls-14" d="M243.4,184.7c.39.73-.82,2.24-2.12,3-1,.52-2.53.91-3,.32s.44-2.52,1.9-3.29C241.36,184.07,243.05,184,243.4,184.7Z"/>
          <path class="cls-14" d="M251.69,164.71c.95.38.66,2.32-.28,3.63-.7,1-2.17,2.18-3.07,1.94s-1.29-2.33-.21-3.8C249,165.33,250.82,164.35,251.69,164.71Z"/>
          <path class="cls-14" d="M253.29,179.06c1,1.43-.1,3.32-.53,4.08s-1.17,2.09-2.11,2-1.62-1.92-1.68-3.21.49-3.7,2-4A2.44,2.44,0,0,1,253.29,179.06Z"/>
          <path class="cls-14" d="M262.64,153.79c1.14.27,1.32,2.24,1.35,2.49.13,1.44-.45,3.29-1.33,3.41-1.08.15-2.94-2.33-2.28-4.21C260.71,154.54,261.74,153.58,262.64,153.79Z"/>
          <path class="cls-14" d="M233.16,173.61c-.79.45-.88,1.94-.58,2.9.62,2,3.3,3,4.25,2.36.79-.54.49-2.29-.1-3.34C235.94,174.15,234.12,173.06,233.16,173.61Z"/>
          <path class="cls-14" d="M236,164.81c.2,1,1.58,1.37,2.4,1.39,1.36.05,2.9-.83,2.9-1.66,0-1.09-2.58-2.52-4.17-1.67A2,2,0,0,0,236,164.81Z"/>
          <path class="cls-14" d="M211.84,165.76c-1,.29-1.22,1.7-1.17,2.52.08,1.36,1.09,2.81,1.92,2.73,1.08-.09,2.28-2.79,1.28-4.3A2,2,0,0,0,211.84,165.76Z"/>
          <path class="cls-14" d="M224.33,190.62c-.39.73.82,2.24,2.13,2.95,1,.52,2.52.91,3,.32s-.43-2.52-1.9-3.29C226.37,190,224.69,190,224.33,190.62Z"/>
          <path class="cls-14" d="M223.5,165.14c-1,.18-1.14,2.13-.5,3.62.48,1.09,1.65,2.58,2.59,2.54s1.75-2,1-3.67C226,166.32,224.42,165,223.5,165.14Z"/>
          <path class="cls-14" d="M218.89,178.83c-1.23,1.2-.6,3.26-.35,4.1.21.69.7,2.29,1.64,2.4s2-1.54,2.33-2.79.3-3.72-1.09-4.32A2.47,2.47,0,0,0,218.89,178.83Z"/>
          <path class="cls-14" d="M215.11,152.15c-1.17,0-1.77,1.91-1.84,2.15-.44,1.37-.26,3.31.57,3.61,1,.38,3.37-1.65,3.12-3.62C216.83,153.3,216,152.14,215.11,152.15Z"/>
        </g>
        <g>
          <path class="cls-15" d="M32.17,170.85c-4.45-.41-24.9-2-30.56,7.75-7.56,13,12.78,55.94,34.23,54.83,21.3-1.11,37.09-45.46,28.26-57.75C57.22,166.13,35.74,170.14,32.17,170.85Z"/>
          <path class="cls-16" d="M12.89,169.86s-5.82-1.87-4.47-4,14.57-2.13,21.93-1c0,0,19.21-6.61,22.89-2.41s-2,4.8-2,4.8,6.36,3.06,6,5.57-7.6,1.22-7.6,1.22,3.93,6.07,2.21,7.24-12-2.86-12-2.86-1.18,6.5-3,6.09-7.23-6.42-9.35-5.94-8.16,6.74-9.9,6.35-1.14-8.76-1.14-8.76-10.88,1-10.92-2.24S12.89,169.86,12.89,169.86Z"/>
          <path class="cls-14" d="M48.53,216.66c.82.4,1,1.88.77,2.86-.49,2-3.09,3.22-4.09,2.63-.81-.49-.64-2.25-.11-3.34C45.79,217.39,47.54,216.17,48.53,216.66Z"/>
          <path class="cls-14" d="M37.52,225.6c-.13,1-1.49,1.47-2.31,1.55-1.35.14-2.94-.63-3-1.47-.08-1.08,2.4-2.68,4.05-1.93A2,2,0,0,1,37.52,225.6Z"/>
          <path class="cls-14" d="M61.2,180.27c-.14,1-1.49,1.46-2.31,1.55-1.36.13-2.94-.64-3-1.48-.07-1.08,2.41-2.68,4-1.93A2,2,0,0,1,61.2,180.27Z"/>
          <path class="cls-14" d="M59.64,200.41c.9.42,1,1.86.78,2.67-.27,1.33-1.49,2.61-2.3,2.41-1-.25-1.84-3.1-.63-4.44A2,2,0,0,1,59.64,200.41Z"/>
          <path class="cls-14" d="M39.81,212.65c.43.7-.68,2.29-1.93,3.08-.93.58-2.47,1.07-2.94.52s.27-2.55,1.67-3.42C37.73,212.15,39.41,212,39.81,212.65Z"/>
          <path class="cls-14" d="M46.43,189c1,.33.82,2.28,0,3.65-.63,1-2,2.32-2.93,2.14S42,192.49,43,191C43.77,189.75,45.54,188.66,46.43,189Z"/>
          <path class="cls-14" d="M50,204.87c1,1.37.11,3.32-.26,4.11s-1,2.16-2,2.13S46,209.29,45.86,208s.25-3.73,1.72-4.12A2.49,2.49,0,0,1,50,204.87Z"/>
          <path class="cls-14" d="M55.71,187.58c1.16.19,1.47,2.15,1.51,2.4.23,1.42-.23,3.31-1.09,3.49-1.08.22-3.1-2.14-2.56-4.05C53.84,188.46,54.81,187.43,55.71,187.58Z"/>
          <path class="cls-14" d="M11.58,204.76c-.76.5-.74,2-.38,2.93.75,1.92,3.49,2.79,4.4,2.07.74-.59.34-2.31-.33-3.32C14.4,205.12,12.5,204.15,11.58,204.76Z"/>
          <path class="cls-14" d="M26.38,186.37c.27,1,1.67,1.26,2.5,1.23,1.36,0,2.83-1,2.77-1.85-.07-1.09-2.74-2.34-4.27-1.39A2,2,0,0,0,26.38,186.37Z"/>
          <path class="cls-14" d="M7.75,194.34c-.94.35-1.11,1.78-1,2.6.16,1.35,1.27,2.73,2.09,2.59,1.08-.16,2.09-2.94,1-4.37A2,2,0,0,0,7.75,194.34Z"/>
          <path class="cls-14" d="M21.85,218.32c-.34.75,1,2.18,2.32,2.8,1,.46,2.58.74,3,.13s-.6-2.49-2.11-3.16C23.85,217.55,22.16,217.63,21.85,218.32Z"/>
          <path class="cls-14" d="M20.75,191.41c-1,.24-1,2.2-.25,3.64.55,1.07,1.82,2.47,2.75,2.37s1.61-2.12.77-3.72C23.34,192.43,21.66,191.19,20.75,191.41Z"/>
          <path class="cls-14" d="M21.34,206.35c-1.15,1.28-.38,3.3-.07,4.12.25.67.85,2.24,1.8,2.28s1.88-1.67,2.13-2.93.06-3.74-1.38-4.25A2.48,2.48,0,0,0,21.34,206.35Z"/>
          <path class="cls-14" d="M10.11,180.55c-1.16.09-1.64,2-1.7,2.26-.34,1.4,0,3.32.81,3.57,1,.31,3.26-1.88,2.88-3.83C11.91,181.58,11,180.47,10.11,180.55Z"/>
          <path class="cls-14" d="M34.35,200.19c-1.16.1-1.63,2-1.69,2.27-.35,1.4,0,3.32.81,3.57,1.05.3,3.25-1.88,2.87-3.83C36.15,201.22,35.27,200.12,34.35,200.19Z"/>
        </g>
        <path class="cls-17" d="M155.12,265.69H128.5c-8.13-40.86-10.08-94.88,15.62-146,5.23-10.39,35.16-69.93,64.5-64.5,26.36,4.88,37.61,59.5,31.5,81.5-.46,1.64-2,6.91-3.92,6.86-4-.09-7.34-23.38-9.58-38.86-1.07-7.37-1.13-9.17-2.4-12.94-2.6-7.71-9.49-21.28-18.6-22.06-7.54-.63-14,7.78-18.5,14-35.55,48.95-38.4,111.58-38.5,114.5A263.37,263.37,0,0,0,155.12,265.69Z"/>
        <path class="cls-18" d="M112.32,266.39c3-61.45-11.43-100.38-22-121.5-15.37-30.7-26.38-31.1-29-31-9.87.38-19.41,12.64-23,23.26-5.25,15.54.82,31.92-5.57,34.54a4.11,4.11,0,0,1-2.43.2c-7-1.67-10.89-24.78-5-42,5.21-15.24,20-32.59,37.5-33,21-.48,35.54,23.84,45.5,40.5,11.53,19.3,31.73,61.64,25.5,129.5Z"/>
        <path class="cls-19" d="M163.42,217.34a59,59,0,0,1,3.32,21.08,4,4,0,0,1,1.67-1.23,3.92,3.92,0,0,1,2.46-.13,29.93,29.93,0,0,1-19.16,29.47,48.84,48.84,0,0,1-29.66,2.31,47.82,47.82,0,0,1-18.67-9.28,15.06,15.06,0,0,1,3.63-2.49,14.71,14.71,0,0,1,3.1-1.09,23.12,23.12,0,0,1-13.77-9.15,22.37,22.37,0,0,1-3.86-11.24l3.41-.17c-1.7-2-6.22-7.91-6-16.09a21.77,21.77,0,0,1,1.2-6.63c.84.25,1.71.54,2.61.86l1.52.58a33.12,33.12,0,0,1-.39-7.37,33.67,33.67,0,0,1,.79-5.59l3.3-.21a23.23,23.23,0,0,1,.4-7.34,23.83,23.83,0,0,1,4.95-10.15,30.42,30.42,0,0,1,14.63,3.72,29.61,29.61,0,0,1,5.57,4l1.49-2.51a21.71,21.71,0,0,1,9.28,8.63,10.41,10.41,0,0,1,.95-1.77,11.51,11.51,0,0,1,1.91-2.22c.85.9,1.73,1.9,2.6,3a43.08,43.08,0,0,1,3.76,5.58l1.9-1.82a31.38,31.38,0,0,1,3.06,3.18,30.52,30.52,0,0,1,4.4,7l2.12-1.33a18.24,18.24,0,0,1,2.28,3.14,19.24,19.24,0,0,1,2.46,7.9,3.94,3.94,0,0,1,.86-1.54A4,4,0,0,1,163.42,217.34Z"/>
        <g>
          <path class="cls-20" d="M73.72,23.15c-1.06-6.76-8.27-8.44-12.1-8.3-1.36.06-5.86.23-8.11,3.92s-.64,8.16-.14,9.56c1.24,3.52,5,9.54,10.9,8.64C69.94,36.1,74.69,29.32,73.72,23.15Z"/>
          <path class="cls-21" d="M67.49,31.34C61.31,30.84,57.26,38.1,56,42.2c-.45,1.46-1.92,6.28.44,9.57s6.77,2.65,8.15,2.46c3.47-.47,10-3,11.35-9.5C77.25,38.49,73.14,31.8,67.49,31.34Z"/>
          <path class="cls-22" d="M72.57,41.3c-3.5,6,.32,12.84,3,15.69,1,1,4.11,4.37,7.94,3.29S89,54.55,89.58,53.1c1.35-3.65,2.59-11.13-2-15C83.22,34.34,75.77,35.84,72.57,41.3Z"/>
          <path class="cls-23" d="M83.63,41.38c3.44,5.54,10.83,3.82,14.38,2,1.26-.66,5.43-2.82,6.21-7.12s-2.34-7.55-3.32-8.58c-2.43-2.57-8.12-6.27-13.37-2.82C82.5,28.15,80.49,36.31,83.63,41.38Z"/>
          <path class="cls-24" d="M88,30.11C94.14,31,98.5,23.93,100,19.9c.51-1.45,2.2-6.19,0-9.62s-6.62-3-8-2.94c-3.47.27-10.08,2.41-11.73,8.86C78.63,22.38,82.41,29.32,88,30.11Z"/>
          <path class="cls-25" d="M82.63,19.47c3.62-5.89,0-12.87-2.66-15.79C79,2.63,76-.81,72.12.17s-5.64,5.59-6.22,7c-1.43,3.61-2.83,11.07,1.65,15.09C71.84,26.15,79.31,24.85,82.63,19.47Z"/>
          <path class="cls-26" d="M77,19.68a8.55,8.55,0,0,0-4.35,2,12,12,0,0,0-3.32,4.74,11.45,11.45,0,0,0-1,3.47A10.4,10.4,0,0,0,69,35.2a9.16,9.16,0,0,0,7.54,5.74,8.17,8.17,0,0,0,4-.74,10,10,0,0,0,3.79-3.37c.82-1.13,3.55-4.87,2.73-9.13a9.34,9.34,0,0,0-3.44-5.35C82.55,21.38,80.24,19.31,77,19.68Z"/>
        </g>
      </g>
    </g>
  </g>
</svg>
