<svg xmlns="http://www.w3.org/2000/svg" xmlns:xlink="http://www.w3.org/1999/xlink" width="66.585" height="83.661" viewBox="0 0 66.585 83.661">
  <defs>
    <linearGradient id="a" x1="23.231" y1="47.972" x2="88.161" y2="47.972" gradientTransform="matrix(1.026, -0.005, 0.005, 1, -23.969, 4.141)" gradientUnits="userSpaceOnUse">
      <stop offset="0" stop-color="#c1272d"/>
      <stop offset="1" stop-color="#ed1c24"/>
    </linearGradient>
    <linearGradient id="b" x1="8.513" y1="23.636" x2="60.178" y2="23.636" gradientUnits="userSpaceOnUse">
      <stop offset="0" stop-color="#5a8539"/>
      <stop offset="1" stop-color="#46952f"/>
    </linearGradient>
    <linearGradient id="c" x1="-87.931" y1="1286.258" x2="-78.359" y2="1286.258" gradientTransform="matrix(1, -0.031, 0.048, 1.549, 53.524, -1984.611)" xlink:href="#b"/>
  </defs>
  <title>Strawberry</title>
  <g>
    <path d="M33.423,20.972c4.413-.7,24.717-3.6,31.008,5.713C72.836,39.126,55.384,83.348,33.9,83.659,12.575,83.968-6.114,40.752,1.891,27.912,8.118,17.925,29.815,20.506,33.423,20.972Z" fill="url(#a)"/>
    <path d="M52.6,18.713s5.689-2.254,4.2-4.258-14.68-1.158-21.942.477c0,0-19.6-5.333-23-.893s2.342,4.655,2.342,4.655-6.138,3.473-5.65,5.958,7.663.709,7.663.709-3.52,6.32-1.734,7.374,11.77-3.646,11.77-3.646,1.608,6.406,3.394,5.879,6.786-6.881,8.938-6.542,8.584,6.184,10.3,5.678.559-8.818.559-8.818,10.918.236,10.748-2.954S52.6,18.713,52.6,18.713Z" fill="url(#b)"/>
    <path d="M34.057,20.836s-9.1-11.358-5.5-17.807S34.845.4,37.48,14.761c0,0,.439,3.376-.42,4.8S34.057,20.836,34.057,20.836Z" fill="url(#c)"/>
    <path d="M20.129,67.767c-.788.451-.874,1.946-.574,2.9.618,1.968,3.3,3.016,4.251,2.359.783-.539.491-2.289-.107-3.339C22.917,68.312,21.088,67.218,20.129,67.767Z" fill="#fbb03b"/>
    <path d="M31.708,75.965c.2.982,1.585,1.367,2.409,1.394,1.359.044,2.891-.831,2.891-1.668,0-1.086-2.579-2.518-4.17-1.662A2.009,2.009,0,0,0,31.708,75.965Z" fill="#fbb03b"/>
    <path d="M5.084,32.292c.2.982,1.585,1.367,2.409,1.394,1.36.044,2.892-.831,2.892-1.668,0-1.086-2.579-2.518-4.17-1.662A2.01,2.01,0,0,0,5.084,32.292Z" fill="#fbb03b"/>
    <path d="M7.977,52.286c-.877.486-.83,1.921-.609,2.715.365,1.311,1.658,2.51,2.457,2.26,1.035-.325,1.63-3.214.338-4.476A2.01,2.01,0,0,0,7.977,52.286Z" fill="#fbb03b"/>
    <path d="M28.573,63.187c-.389.73.827,2.24,2.128,2.947.961.522,2.529.91,2.968.322.492-.658-.439-2.52-1.9-3.293C30.614,62.551,28.931,62.518,28.573,63.187Z" fill="#fbb03b"/>
    <path d="M20.394,39.984c-.946.385-.662,2.32.284,3.637.7.973,2.163,2.176,3.065,1.937,1.008-.268,1.288-2.334.213-3.8C23.105,40.6,21.261,39.631,20.394,39.984Z" fill="#fbb03b"/>
    <path d="M17.9,56.1c-.947,1.432.106,3.315.534,4.08.349.624,1.169,2.09,2.112,1.992,1-.1,1.619-1.924,1.678-3.215.065-1.433-.488-3.7-1.983-3.994A2.473,2.473,0,0,0,17.9,56.1Z" fill="#fbb03b"/>
    <path d="M11.041,39.231C9.9,39.5,9.718,41.472,9.694,41.72c-.136,1.435.45,3.291,1.325,3.41,1.086.148,2.946-2.334,2.283-4.207C12.969,39.985,11.939,39.02,11.041,39.231Z" fill="#fbb03b"/>
    <path d="M56.215,53.448c.788.451.874,1.946.574,2.9-.618,1.968-3.3,3.016-4.251,2.359-.783-.539-.491-2.289.107-3.339C53.427,53.993,55.256,52.9,56.215,53.448Z" fill="#fbb03b"/>
    <path d="M40.23,36.081c-.2.982-1.585,1.367-2.409,1.393-1.359.044-2.891-.83-2.891-1.667,0-1.086,2.579-2.518,4.169-1.662A2.01,2.01,0,0,1,40.23,36.081Z" fill="#fbb03b"/>
    <path d="M59.351,42.8c.96.289,1.218,1.7,1.171,2.525-.079,1.358-1.088,2.8-1.922,2.729-1.081-.1-2.275-2.8-1.279-4.3A2.009,2.009,0,0,1,59.351,42.8Z" fill="#fbb03b"/>
    <path d="M46.863,67.661c.389.729-.827,2.24-2.128,2.947-.961.521-2.529.909-2.968.321-.492-.657.439-2.519,1.9-3.292C44.822,67.025,46.505,66.992,46.863,67.661Z" fill="#fbb03b"/>
    <path d="M46.179,40.739c1,.176,1.138,2.127.493,3.615-.475,1.1-1.652,2.586-2.584,2.543-1.042-.048-1.754-2.008-1.014-3.664C43.661,41.921,45.256,40.578,46.179,40.739Z" fill="#fbb03b"/>
    <path d="M46.581,55.686c1.229,1.2.6,3.263.343,4.1-.209.684-.7,2.29-1.642,2.4-1,.111-1.99-1.538-2.321-2.787-.367-1.386-.309-3.723,1.091-4.323A2.475,2.475,0,0,1,46.581,55.686Z" fill="#fbb03b"/>
    <path d="M56.081,29.193c1.167.019,1.769,1.91,1.844,2.147.437,1.374.259,3.312-.571,3.614-1.03.375-3.375-1.656-3.123-3.627C54.357,30.339,55.159,29.178,56.081,29.193Z" fill="#fbb03b"/>
    <path d="M33.19,50.4c1.167.02,1.768,1.91,1.844,2.148.437,1.374.258,3.311-.572,3.613-1.03.375-3.374-1.656-3.123-3.627C31.465,51.546,32.267,50.385,33.19,50.4Z" fill="#fbb03b"/>
  </g>
</svg>
