<svg xmlns="http://www.w3.org/2000/svg" xmlns:xlink="http://www.w3.org/1999/xlink" width="64.93" height="79.76" viewBox="0 0 64.93 79.76">
  <defs>
    <style>
      .cls-1 {
        fill: url(#linear-gradient);
      }

      .cls-2 {
        fill: url(#linear-gradient-2);
      }

      .cls-3 {
        fill: url(#linear-gradient-3);
      }

      .cls-4 {
        fill: #fbb03b;
      }
    </style>
    <linearGradient id="linear-gradient" y1="47.96" x2="64.93" y2="47.96" gradientUnits="userSpaceOnUse">
      <stop offset="0" stop-color="#c1272d"/>
      <stop offset="1" stop-color="#ed1c24"/>
    </linearGradient>
    <linearGradient id="linear-gradient-2" x1="310.2" y1="2468.08" x2="349.13" y2="2468.08" gradientTransform="translate(1445.57 -2031.98) rotate(42.2)" gradientUnits="userSpaceOnUse">
      <stop offset="0" stop-color="#5a8539"/>
      <stop offset="1" stop-color="#46952f"/>
    </linearGradient>
    <linearGradient id="linear-gradient-3" x1="119.78" y1="1789.74" x2="129.35" y2="1789.74" gradientTransform="matrix(0.83, 0.56, -0.71, 1.05, 1203.39, -1948.88)" xlink:href="#linear-gradient-2"/>
  </defs>
  <title>Strawberry_2</title>
  <g id="Layer_2" data-name="Layer 2">
    <g id="Layer_1-2" data-name="Layer 1">
      <g>
        <path class="cls-1" d="M32.66,17.08c4.31-.68,24.12-3.49,30.21,5.85,8.14,12.48-9.07,56.62-30,56.83S-6,36.68,1.88,23.87C8,13.91,29.14,16.59,32.66,17.08Z"/>
        <path class="cls-2" d="M33.44,11.22s-18-5.34-21.16-.9S14.44,15,14.44,15s-5.65,3.47-5.2,6,7,.71,7,.71S13.05,28,14.69,29s10.83-3.65,10.83-3.65,1.48,6.41,3.12,5.88,6.24-6.88,8.22-6.54,7.89,6.19,9.47,5.68.51-8.82.51-8.82,10,.24,9.88-2.95-7-3.62-7-3.62,5.23-2.26,3.87-4.26S40.11,9.58,33.44,11.22Z"/>
        <path class="cls-3" d="M30.73,15.56S28.82,2.75,34.88.57s6.39,1.9,1.58,13c0,0-1.27,2.49-2.66,2.93S30.73,15.56,30.73,15.56Z"/>
        <path class="cls-4" d="M18,63.87c-.79.45-.88,1.95-.58,2.91.62,2,3.3,3,4.25,2.35.79-.53.5-2.28-.1-3.33C20.8,64.42,19,63.32,18,63.87Z"/>
        <path class="cls-4" d="M29.59,72.07c.2,1,1.58,1.37,2.41,1.4,1.36,0,2.89-.84,2.89-1.67,0-1.09-2.58-2.52-4.17-1.66A2,2,0,0,0,29.59,72.07Z"/>
        <path class="cls-4" d="M6.12,40.93c-.88.49-.83,1.92-.61,2.72C5.87,45,7.17,46.16,8,45.91c1-.33,1.63-3.22.33-4.48A2,2,0,0,0,6.12,40.93Z"/>
        <path class="cls-4" d="M25.67,57.85c-.39.73.82,2.24,2.12,2.95,1,.52,2.53.91,3,.32s-.44-2.52-1.9-3.29C27.71,57.21,26,57.18,25.67,57.85Z"/>
        <path class="cls-4" d="M17.38,37.85c-.95.39-.66,2.32.28,3.64.7,1,2.17,2.18,3.07,1.94s1.29-2.34.21-3.8C20.09,38.48,18.25,37.5,17.38,37.85Z"/>
        <path class="cls-4" d="M15.78,52.21c-.95,1.43.1,3.32.53,4.08s1.17,2.09,2.11,2S20,56.36,20.1,55.07s-.49-3.71-2-4A2.47,2.47,0,0,0,15.78,52.21Z"/>
        <path class="cls-4" d="M6.43,26.94c-1.14.26-1.32,2.24-1.35,2.49-.13,1.43.45,3.29,1.33,3.41,1.08.15,2.94-2.34,2.28-4.21C8.36,27.69,7.33,26.73,6.43,26.94Z"/>
        <path class="cls-4" d="M35.91,46.75c.79.45.88,2,.58,2.91-.62,2-3.3,3-4.25,2.35-.79-.53-.49-2.28.1-3.33C33.13,47.3,35,46.2,35.91,46.75Z"/>
        <path class="cls-4" d="M33.08,38c-.2,1-1.58,1.36-2.4,1.39-1.36,0-2.9-.83-2.9-1.67,0-1.08,2.58-2.51,4.17-1.66A2,2,0,0,1,33.08,38Z"/>
        <path class="cls-4" d="M57.23,38.91c1,.29,1.22,1.7,1.17,2.52-.08,1.36-1.09,2.81-1.92,2.73-1.08-.1-2.28-2.79-1.28-4.3A2,2,0,0,1,57.23,38.91Z"/>
        <path class="cls-4" d="M44.74,63.77c.39.73-.82,2.24-2.13,2.94-1,.53-2.52.91-3,.33s.43-2.52,1.89-3.3C42.7,63.13,44.38,63.1,44.74,63.77Z"/>
        <path class="cls-4" d="M45.57,38.29c1,.17,1.14,2.13.5,3.61-.48,1.1-1.66,2.59-2.59,2.55s-1.75-2-1-3.67C43.06,39.47,44.65,38.13,45.57,38.29Z"/>
        <path class="cls-4" d="M50.18,52c1.23,1.2.6,3.26.35,4.1-.21.68-.7,2.29-1.64,2.39s-2-1.53-2.33-2.78-.3-3.73,1.09-4.33A2.47,2.47,0,0,1,50.18,52Z"/>
        <path class="cls-4" d="M54,25.3c1.17,0,1.77,1.91,1.84,2.15.44,1.37.26,3.31-.57,3.61-1,.38-3.37-1.66-3.12-3.63C52.24,26.45,53,25.28,54,25.3Z"/>
      </g>
    </g>
  </g>
</svg>
