<svg xmlns="http://www.w3.org/2000/svg" xmlns:xlink="http://www.w3.org/1999/xlink" width="64.93" height="86.669" viewBox="0 0 64.93 86.669">
  <defs>
    <linearGradient id="a" y1="54.862" x2="64.93" y2="54.862" gradientUnits="userSpaceOnUse">
      <stop offset="0" stop-color="#c1272d"/>
      <stop offset="1" stop-color="#ed1c24"/>
    </linearGradient>
    <linearGradient id="b" x1="221.567" y1="2245.306" x2="260.498" y2="2245.306" gradientTransform="translate(1361.575 -1800.515) rotate(42.203)" gradientUnits="userSpaceOnUse">
      <stop offset="0" stop-color="#5a8539"/>
      <stop offset="1" stop-color="#46952f"/>
    </linearGradient>
    <linearGradient id="c" x1="-96.006" y1="1320.687" x2="-86.434" y2="1320.687" gradientTransform="matrix(0.992, 0.124, -0.214, 1.716, 405.444, -2243.317)" xlink:href="#b"/>
  </defs>
  <title>Strawberry_1</title>
  <g>
    <path d="M32.659,23.98c4.306-.68,24.117-3.488,30.211,5.853C71.01,42.312,53.8,86.454,32.848,86.668c-20.8.213-38.83-43.087-30.967-55.891C8,20.818,29.143,23.5,32.659,23.98Z" fill="url(#a)"/>
    <path d="M33.437,18.121s-18.028-5.332-21.154-.892,2.153,4.655,2.153,4.655-5.644,3.473-5.195,5.958,7.047.709,7.047.709-3.238,6.32-1.6,7.373,10.824-3.645,10.824-3.645S27,38.685,28.638,38.158s6.241-6.882,8.219-6.542,7.894,6.184,9.47,5.678.514-8.818.514-8.818,10.04.236,9.884-2.954-6.971-3.62-6.971-3.62,5.231-2.254,3.861-4.258S40.115,16.487,33.437,18.121Z" fill="url(#b)"/>
    <path d="M32.417,23.369S25.345,9.4,29.99,2.861s6.654-1.9,6.834,14.349c0,0-.137,3.792-1.226,5.23S32.417,23.369,32.417,23.369Z" fill="url(#c)"/>
    <path d="M18.008,70.778c-.788.451-.874,1.946-.574,2.9.618,1.968,3.3,3.015,4.251,2.359.783-.539.491-2.289-.107-3.339C20.8,71.323,18.967,70.229,18.008,70.778Z" fill="#fbb03b"/>
    <path d="M33.3,81.813c.775-.637.47-2.04.109-2.781-.6-1.223-2.084-2.17-2.824-1.779-.961.506-1.024,3.455.475,4.463A2.01,2.01,0,0,0,33.3,81.813Z" fill="#fbb03b"/>
    <path d="M6.118,46.458c-.877.486-.829,1.921-.608,2.715.365,1.31,1.658,2.51,2.456,2.26C9,51.108,9.6,48.219,8.3,46.957A2.01,2.01,0,0,0,6.118,46.458Z" fill="#fbb03b"/>
    <path d="M27.408,64.811a2.127,2.127,0,0,0-2.444,1.768,2.28,2.28,0,0,0,1.4,2.3c1.133.347,2.929-.452,3.021-1.609A2.769,2.769,0,0,0,27.408,64.811Z" fill="#fbb03b"/>
    <path d="M17.309,40.81a2.127,2.127,0,0,0-2.443,1.769,2.276,2.276,0,0,0,1.4,2.3c1.133.348,2.929-.451,3.022-1.608A2.772,2.772,0,0,0,17.309,40.81Z" fill="#fbb03b"/>
    <path d="M35.608,57.8c-.945.385-.661,2.32.284,3.637.7.973,2.164,2.177,3.065,1.937,1.008-.268,1.288-2.334.214-3.8C38.32,58.416,36.476,57.442,35.608,57.8Z" fill="#fbb03b"/>
    <path d="M11.743,59.656c-.947,1.432.107,3.315.534,4.08.349.624,1.169,2.09,2.113,1.992,1-.1,1.619-1.924,1.677-3.215.065-1.433-.488-3.7-1.982-3.994A2.474,2.474,0,0,0,11.743,59.656Z" fill="#fbb03b"/>
    <path d="M8.783,35.8A2.5,2.5,0,0,0,6.4,34.457c-1.2.211-1.395,1.773-1.42,1.969-.143,1.135.474,2.6,1.4,2.7C7.522,39.24,9.482,37.277,8.783,35.8Z" fill="#fbb03b"/>
    <path d="M25.257,51.111c.788.452.874,1.946.574,2.9-.618,1.968-3.3,3.016-4.251,2.359-.783-.539-.491-2.288.107-3.339C22.469,51.657,24.3,50.562,25.257,51.111Z" fill="#fbb03b"/>
    <path d="M37.062,43.066c-.2.982-1.585,1.367-2.409,1.394-1.359.044-2.891-.831-2.891-1.668,0-1.086,2.579-2.518,4.17-1.662A2.009,2.009,0,0,1,37.062,43.066Z" fill="#fbb03b"/>
    <path d="M57.23,45.812c.96.289,1.218,1.7,1.171,2.525-.079,1.357-1.088,2.8-1.922,2.729-1.081-.1-2.275-2.8-1.279-4.3A2.01,2.01,0,0,1,57.23,45.812Z" fill="#fbb03b"/>
    <path d="M44.742,70.672c.389.729-.827,2.24-2.128,2.947-.961.521-2.529.909-2.968.321-.492-.657.439-2.52,1.9-3.293C42.7,70.035,44.384,70,44.742,70.672Z" fill="#fbb03b"/>
    <path d="M45.574,45.193c1.006.175,1.138,2.127.493,3.615-.475,1.1-1.652,2.585-2.584,2.542-1.042-.048-1.754-2.007-1.013-3.664C43.056,46.375,44.651,45.032,45.574,45.193Z" fill="#fbb03b"/>
    <path d="M50.184,58.883c1.229,1.2.6,3.263.343,4.1-.209.684-.7,2.29-1.642,2.4-1,.111-1.99-1.538-2.321-2.787-.367-1.386-.309-3.723,1.091-4.323A2.475,2.475,0,0,1,50.184,58.883Z" fill="#fbb03b"/>
    <path d="M53.96,32.2c1.167.019,1.769,1.91,1.844,2.147.438,1.374.259,3.312-.571,3.614-1.03.375-3.375-1.656-3.123-3.627C52.236,33.35,53.038,32.189,53.96,32.2Z" fill="#fbb03b"/>
  </g>
</svg>
