<svg xmlns="http://www.w3.org/2000/svg" xmlns:xlink="http://www.w3.org/1999/xlink" width="269.07" height="310.286" viewBox="0 0 269.07 310.286">
  <defs>
    <linearGradient id="a" x1="150.189" y1="90.009" x2="150.189" y2="115.369" gradientTransform="translate(80.069 -55.096) rotate(21.296)" gradientUnits="userSpaceOnUse">
      <stop offset="0" stop-color="#2b773e"/>
      <stop offset="1" stop-color="#27954f"/>
    </linearGradient>
    <linearGradient id="b" x1="187.787" y1="725.89" x2="266.296" y2="725.89" gradientTransform="matrix(-0.998, 0.061, 0.061, 0.998, 316.904, -513.148)" xlink:href="#a"/>
    <linearGradient id="c" x1="144.213" y1="443.263" x2="237.251" y2="443.263" gradientTransform="matrix(-0.804, -0.595, -0.595, 0.804, 573.757, 14.429)" xlink:href="#a"/>
    <linearGradient id="d" x1="63.046" y1="214.005" x2="127.976" y2="214.005" gradientTransform="matrix(-1, 0, 0, 1, 332.116, 0)" gradientUnits="userSpaceOnUse">
      <stop offset="0" stop-color="#c1272d"/>
      <stop offset="1" stop-color="#ed1c24"/>
    </linearGradient>
    <linearGradient id="e" x1="35.264" y1="2018.444" x2="74.195" y2="2018.444" gradientTransform="matrix(-0.741, 0.672, 0.672, 0.741, -1078.115, -1348.168)" xlink:href="#a"/>
    <linearGradient id="f" x1="228.316" y1="115.778" x2="293.247" y2="115.778" xlink:href="#d"/>
    <linearGradient id="g" x1="91.705" y1="1834.658" x2="130.636" y2="1834.658" gradientTransform="matrix(-0.741, 0.672, 0.672, 0.741, -1078.115, -1348.168)" gradientUnits="userSpaceOnUse">
      <stop offset="0" stop-color="#5a8539"/>
      <stop offset="1" stop-color="#46952f"/>
    </linearGradient>
    <linearGradient id="h" x1="260.693" y1="216.812" x2="325.624" y2="216.812" gradientTransform="matrix(-1.024, 0.063, 0.062, 0.998, 320.979, 5.922)" xlink:href="#d"/>
    <linearGradient id="i" x1="267.996" y1="188.373" x2="319.66" y2="188.373" gradientTransform="matrix(-0.998, 0.066, 0.066, 0.998, 312.154, 5.364)" xlink:href="#g"/>
    <linearGradient id="j" x1="221.149" y1="138.039" x2="141.483" y2="237.372" gradientTransform="matrix(1, 0, 0, 1, 0, 0)" xlink:href="#a"/>
    <linearGradient id="k" x1="40.529" y1="168.787" x2="116.529" y2="242.787" gradientTransform="matrix(1, 0, 0, 1, 0, 0)" xlink:href="#g"/>
    <linearGradient id="l" x1="233.543" y1="67.871" x2="233.543" y2="191.436" gradientTransform="matrix(-0.993, -0.116, -0.116, 0.993, 357.052, 25.343)" xlink:href="#g"/>
    <linearGradient id="m" x1="159.426" y1="211.339" x2="158.492" y2="231.612" gradientTransform="translate(-81.135 67.898) rotate(-17.405)" gradientUnits="userSpaceOnUse">
      <stop offset="0" stop-color="#fff"/>
      <stop offset="0.779" stop-color="#f6f6f6"/>
      <stop offset="0.994" stop-color="#f2f2f2"/>
    </linearGradient>
    <linearGradient id="n" x1="18.043" y1="-169.692" x2="17.217" y2="-151.748" gradientTransform="translate(310.871 259.36) rotate(-89.87)" xlink:href="#m"/>
    <linearGradient id="o" x1="303.217" y1="-414.265" x2="302.419" y2="-396.935" gradientTransform="translate(614.437 6.849) rotate(-153.438)" xlink:href="#m"/>
    <linearGradient id="p" x1="671.596" y1="-248.771" x2="670.645" y2="-228.131" gradientTransform="matrix(-0.754, 0.657, -0.657, -0.754, 508.963, -402.242)" xlink:href="#m"/>
    <linearGradient id="q" x1="719.308" y1="35.978" x2="718.471" y2="54.148" gradientTransform="translate(231.301 -505.963) rotate(93.102)" xlink:href="#m"/>
    <linearGradient id="r" x1="450.021" y1="311.545" x2="449.227" y2="328.783" gradientTransform="translate(-112.769 -277.256) rotate(27.953)" xlink:href="#m"/>
    <radialGradient id="s" cx="175.696" cy="220.749" r="9.213" gradientTransform="matrix(0.807, -0.206, 0.368, 0.954, -74.62, 50.937)" gradientUnits="userSpaceOnUse">
      <stop offset="0" stop-color="#fbce3b"/>
      <stop offset="0.452" stop-color="#fbc53b"/>
      <stop offset="0.994" stop-color="#fbb33b"/>
    </radialGradient>
    <linearGradient id="t" x1="102.254" y1="84.157" x2="182.332" y2="84.157" gradientTransform="matrix(-0.817, 0.577, 0.577, 0.817, 176.587, 110.593)" xlink:href="#a"/>
  </defs>
  <title>StrawberryBush_1</title>
  <g>
    <path d="M172.645,126.261c4.371,1.036,12.733-18.292,16.542-29.25a131.081,131.081,0,0,0,6.006-24.931c-5.069,6.281-9.292,11.764-12.557,16.1-9.261,12.285-11.106,15.691-12.126,20.119C168.729,116.022,169.756,125.576,172.645,126.261Z" fill="url(#a)"/>
    <path d="M100.891,250.012a7.744,7.744,0,0,1,2.33-.132,44.107,44.107,0,0,1-6.264-11.04,8.6,8.6,0,0,1,4.1-.77,14.322,14.322,0,0,1-3.819-5.765,13.711,13.711,0,0,1-.645-2.72,4.681,4.681,0,0,1,4.728.046A19.44,19.44,0,0,1,98.8,216.544l3.279.476a15.743,15.743,0,0,1,2.636-11.592l2.727,1.4a22.527,22.527,0,0,1,2.158-10.973,7.019,7.019,0,0,1,3.8,2.294,14.006,14.006,0,0,1,3.922-7.719,13.12,13.12,0,0,1,3.167-2.273,24.657,24.657,0,0,1,4.04-5.111,25.745,25.745,0,0,1,12.171-6.486,11.457,11.457,0,0,1,3.844,4.731L142.2,179c1.153,1.019,2.345,2.158,3.546,3.428a55.131,55.131,0,0,1,5.734,7.179l2.709-.981a19.222,19.222,0,0,1,2.309,3.561,19.448,19.448,0,0,1,1.983,7.182,7.037,7.037,0,0,1,3.553-2.169,6.535,6.535,0,0,1,1.493-.175,11.615,11.615,0,0,1,1.943,4.129,11.894,11.894,0,0,1-.407,6.865l3.156-1.518a19.548,19.548,0,0,1,.971,12.2,4.411,4.411,0,0,1,2.974-.687,4.153,4.153,0,0,1,1.539.554,15.327,15.327,0,0,1-1.131,7.863,14.81,14.81,0,0,1-2.107,3.446,3.975,3.975,0,0,1,2.72.448,3.751,3.751,0,0,1,1.148,1.066A13.888,13.888,0,0,1,170,238.942a4.257,4.257,0,0,1,2.588.3,4.08,4.08,0,0,1,1.188.845,20.776,20.776,0,0,1-8.023,10.2,18.38,18.38,0,0,1,9,3.567,39.552,39.552,0,0,1-18.88,16.722,38.728,38.728,0,0,1-18.108,2.739,43.479,43.479,0,0,1-26.673-6.544A42.642,42.642,0,0,1,97.123,252,7.992,7.992,0,0,1,100.891,250.012Z" fill="url(#b)"/>
    <path d="M118.648,237.507a23.548,23.548,0,0,1,7.684-12.985,4.194,4.194,0,0,1,1.407,1.5,4.1,4.1,0,0,1,.418,1.142,20.692,20.692,0,0,1,8-8.844,18.68,18.68,0,0,1,2.739-1.31,6.431,6.431,0,0,1,1.386,2.93,32.822,32.822,0,0,1,7.542-7.679c.758-.55,1.509-1.043,2.244-1.487a9.973,9.973,0,0,1,2.906,4.76,19.669,19.669,0,0,1,8.9-5.584,18.738,18.738,0,0,1,4.4-.715,12.517,12.517,0,0,1-.593,4.576,51.761,51.761,0,0,1,18.175-4.758,50.238,50.238,0,0,1,6.521-.039,24.4,24.4,0,0,1-.206,7.288l2.9-.464a31.606,31.606,0,0,1,1.893,5.882,31.946,31.946,0,0,1,.425,10.99l3.666-.173a20.836,20.836,0,0,1-.745,8.263,20.59,20.59,0,0,1-2.135,4.778,18.453,18.453,0,0,1,6.978,1.8,47.4,47.4,0,0,1-6.406,12.022l3.6.609a16.7,16.7,0,0,1-6.692,13.895,6.609,6.609,0,0,1,4.758,1.809,23.315,23.315,0,0,1-2.957,4.066,23.746,23.746,0,0,1-7.749,5.628,5,5,0,0,1,3.425,3.461,24.388,24.388,0,0,1-20.775,8.991l3.152,3.994a52.93,52.93,0,0,1-12.38,5.724c-4.906,1.535-19.068,5.728-34.457-.966A44.35,44.35,0,0,1,100.448,257.8a18.108,18.108,0,0,1,8.328,3.432,39.237,39.237,0,0,1,.712-16.031q1.06.21,2.171.468.793.185,1.553.381a27.5,27.5,0,0,1,.83-8.164c.188-.73.4-1.422.626-2.077a10.551,10.551,0,0,1,2.031.623A10.439,10.439,0,0,1,118.648,237.507Z" fill="url(#c)"/>
    <g>
      <path d="M236.411,183.123c-4.306-.68-24.117-3.488-30.211,5.854-8.141,12.478,9.072,56.621,30.022,56.835,20.8.212,38.829-43.088,30.967-55.891C261.073,179.961,239.927,182.641,236.411,183.123Z" fill="url(#d)"/>
      <path d="M235.633,177.265s18.028-5.333,21.154-.893-2.153,4.655-2.153,4.655,5.643,3.473,5.2,5.958-7.047.709-7.047.709,3.237,6.32,1.594,7.374-10.823-3.646-10.823-3.646-1.479,6.406-3.122,5.879-6.24-6.881-8.219-6.542-7.893,6.184-9.469,5.678-.514-8.818-.514-8.818-10.04.236-9.884-2.954,6.971-3.619,6.971-3.619-5.231-2.254-3.861-4.258S228.955,175.63,235.633,177.265Z" fill="url(#e)"/>
      <path d="M251.061,229.921c.788.451.874,1.946.574,2.9-.617,1.968-3.3,3.016-4.25,2.359-.783-.539-.491-2.289.106-3.339C248.274,230.467,250.1,229.372,251.061,229.921Z" fill="#fbb03b"/>
      <path d="M239.483,238.119c-.2.982-1.585,1.367-2.409,1.394-1.36.044-2.892-.831-2.892-1.668,0-1.086,2.579-2.518,4.17-1.662A2.01,2.01,0,0,1,239.483,238.119Z" fill="#fbb03b"/>
      <path d="M262.951,206.978c.877.486.83,1.921.609,2.716-.365,1.31-1.658,2.51-2.456,2.259-1.036-.325-1.631-3.214-.339-4.476A2.01,2.01,0,0,1,262.951,206.978Z" fill="#fbb03b"/>
      <path d="M243.4,223.9c.39.729-.827,2.24-2.128,2.947-.96.521-2.528.909-2.968.321-.491-.658.439-2.52,1.9-3.293C241.363,223.262,243.047,223.23,243.4,223.9Z" fill="#fbb03b"/>
      <path d="M251.691,203.9c.946.385.662,2.32-.284,3.638-.7.972-2.163,2.176-3.065,1.936-1.008-.268-1.288-2.333-.213-3.795C248.98,204.523,250.824,203.549,251.691,203.9Z" fill="#fbb03b"/>
      <path d="M253.294,218.258c.947,1.432-.107,3.315-.534,4.08-.349.624-1.169,2.09-2.113,1.992-1-.1-1.619-1.924-1.677-3.215-.065-1.433.487-3.7,1.982-3.994A2.474,2.474,0,0,1,253.294,218.258Z" fill="#fbb03b"/>
      <path d="M262.641,192.986c1.137.266,1.324,2.241,1.347,2.49.136,1.435-.449,3.29-1.325,3.41-1.086.148-2.946-2.334-2.283-4.207C260.713,193.74,261.743,192.776,262.641,192.986Z" fill="#fbb03b"/>
      <path d="M233.156,212.8c-.788.451-.874,1.946-.574,2.9.618,1.968,3.3,3.016,4.251,2.359.783-.539.49-2.289-.107-3.339C235.944,213.347,234.115,212.252,233.156,212.8Z" fill="#fbb03b"/>
      <path d="M235.985,204.006c.2.982,1.585,1.366,2.409,1.393,1.36.044,2.891-.831,2.891-1.668,0-1.085-2.578-2.517-4.169-1.662A2.012,2.012,0,0,0,235.985,204.006Z" fill="#fbb03b"/>
      <path d="M211.839,204.955c-.959.289-1.218,1.7-1.17,2.525.079,1.358,1.088,2.805,1.921,2.729,1.082-.1,2.276-2.8,1.28-4.3A2.011,2.011,0,0,0,211.839,204.955Z" fill="#fbb03b"/>
      <path d="M224.328,229.815c-.39.729.827,2.24,2.128,2.947.96.522,2.529.91,2.968.321.491-.657-.439-2.519-1.9-3.292C226.369,229.179,224.685,229.146,224.328,229.815Z" fill="#fbb03b"/>
      <path d="M223.5,204.336c-1.006.176-1.138,2.127-.494,3.615.476,1.1,1.653,2.585,2.585,2.542,1.042-.048,1.754-2.007,1.013-3.663C226.014,205.518,224.418,204.175,223.5,204.336Z" fill="#fbb03b"/>
      <path d="M218.886,218.026c-1.229,1.2-.6,3.263-.343,4.1.208.684.7,2.29,1.642,2.395,1,.111,1.99-1.537,2.321-2.786.367-1.387.308-3.724-1.091-4.324A2.475,2.475,0,0,0,218.886,218.026Z" fill="#fbb03b"/>
      <path d="M215.109,191.347c-1.167.019-1.768,1.91-1.844,2.147-.437,1.374-.258,3.312.572,3.614,1.03.375,3.374-1.656,3.123-3.627C216.834,192.493,216.032,191.332,215.109,191.347Z" fill="#fbb03b"/>
    </g>
    <g>
      <path d="M71.141,84.9c-4.307-.68-24.118-3.489-30.212,5.853-8.14,12.479,9.072,56.621,30.023,56.835,20.8.213,38.829-43.088,30.966-55.891C95.8,81.735,74.656,84.414,71.141,84.9Z" fill="url(#f)"/>
      <path d="M70.363,79.038s18.027-5.332,21.153-.892S89.363,82.8,89.363,82.8s5.644,3.473,5.2,5.958-7.047.71-7.047.71,3.238,6.319,1.595,7.373S78.282,93.2,78.282,93.2,76.8,99.6,75.161,99.074s-6.24-6.881-8.219-6.542-7.894,6.184-9.47,5.678-.514-8.818-.514-8.818-10.039.237-9.884-2.953,6.972-3.62,6.972-3.62-5.231-2.254-3.862-4.258S63.684,77.4,70.363,79.038Z" fill="url(#g)"/>
      <path d="M85.791,131.694c.788.452.874,1.946.574,2.9-.618,1.968-3.3,3.016-4.251,2.359-.783-.539-.491-2.288.107-3.339C83,132.24,84.832,131.145,85.791,131.694Z" fill="#fbb03b"/>
      <path d="M70.5,142.729c-.775-.636-.469-2.039-.108-2.78.595-1.223,2.083-2.17,2.824-1.78.96.507,1.023,3.456-.476,4.464A2.01,2.01,0,0,1,70.5,142.729Z" fill="#fbb03b"/>
      <path d="M97.681,107.374c.877.486.83,1.922.608,2.716-.364,1.31-1.657,2.51-2.456,2.26-1.036-.325-1.631-3.214-.338-4.476A2.01,2.01,0,0,1,97.681,107.374Z" fill="#fbb03b"/>
      <path d="M76.391,125.728a2.127,2.127,0,0,1,2.444,1.768,2.277,2.277,0,0,1-1.4,2.3c-1.132.348-2.929-.451-3.021-1.608A2.77,2.77,0,0,1,76.391,125.728Z" fill="#fbb03b"/>
      <path d="M86.49,101.727a2.128,2.128,0,0,1,2.444,1.768,2.28,2.28,0,0,1-1.4,2.3c-1.133.348-2.929-.452-3.022-1.609A2.771,2.771,0,0,1,86.49,101.727Z" fill="#fbb03b"/>
      <path d="M68.191,118.712c.946.384.661,2.32-.284,3.637-.7.973-2.163,2.176-3.065,1.937-1.008-.268-1.288-2.334-.213-3.8C65.48,119.333,67.324,118.359,68.191,118.712Z" fill="#fbb03b"/>
      <path d="M92.056,120.572c.947,1.432-.106,3.316-.534,4.08-.349.625-1.169,2.09-2.113,1.993-1-.1-1.618-1.925-1.677-3.215-.065-1.433.488-3.705,1.983-3.994A2.474,2.474,0,0,1,92.056,120.572Z" fill="#fbb03b"/>
      <path d="M95.016,96.713A2.5,2.5,0,0,1,97.4,95.374c1.2.21,1.394,1.773,1.419,1.969.143,1.135-.474,2.6-1.4,2.7C96.277,100.157,94.317,98.194,95.016,96.713Z" fill="#fbb03b"/>
      <path d="M78.542,112.028c-.788.451-.874,1.946-.573,2.9.617,1.968,3.3,3.016,4.25,2.359.783-.539.491-2.289-.106-3.339C81.33,112.574,79.5,111.479,78.542,112.028Z" fill="#fbb03b"/>
      <path d="M66.737,103.983c.2.982,1.585,1.367,2.409,1.393,1.359.044,2.891-.83,2.891-1.667,0-1.086-2.579-2.518-4.17-1.662A2.009,2.009,0,0,0,66.737,103.983Z" fill="#fbb03b"/>
      <path d="M46.569,106.729c-.96.288-1.218,1.7-1.171,2.524.079,1.358,1.088,2.805,1.922,2.73,1.081-.1,2.275-2.8,1.279-4.3A2.008,2.008,0,0,0,46.569,106.729Z" fill="#fbb03b"/>
      <path d="M59.058,131.589c-.39.729.826,2.24,2.127,2.946.961.522,2.529.91,2.969.322.491-.658-.439-2.52-1.9-3.293C61.1,130.952,59.415,130.92,59.058,131.589Z" fill="#fbb03b"/>
      <path d="M58.226,106.11c-1.006.175-1.139,2.127-.494,3.614.475,1.1,1.652,2.586,2.584,2.543,1.042-.048,1.754-2.007,1.014-3.664C60.743,107.292,59.148,105.949,58.226,106.11Z" fill="#fbb03b"/>
      <path d="M53.615,119.8c-1.229,1.2-.6,3.263-.343,4.1.209.684.7,2.291,1.642,2.395,1,.112,1.99-1.537,2.321-2.786.367-1.386.309-3.723-1.09-4.323A2.472,2.472,0,0,0,53.615,119.8Z" fill="#fbb03b"/>
      <path d="M49.839,93.121C48.672,93.14,48.07,95.03,48,95.268c-.437,1.374-.259,3.311.571,3.613,1.03.375,3.375-1.656,3.123-3.627C51.563,94.266,50.761,93.106,49.839,93.121Z" fill="#fbb03b"/>
    </g>
    <g>
      <path d="M32.174,210.041c-4.45-.407-24.9-1.957-30.562,7.752-7.563,12.969,12.775,55.94,34.233,54.829,21.3-1.1,37.088-45.46,28.251-57.742C57.222,205.326,35.743,209.337,32.174,210.041Z" fill="url(#h)"/>
      <path d="M12.894,209.055s-5.825-1.873-4.471-3.971,14.572-2.126,21.926-.976c0,0,19.208-6.617,22.893-2.412s-2.028,4.8-2.028,4.8,6.353,3.059,6.031,5.571-7.6,1.215-7.6,1.215,3.931,6.072,2.218,7.242-11.986-2.859-11.986-2.859-1.18,6.5-3,6.091-7.227-6.418-9.351-5.937-8.156,6.738-9.9,6.347-1.141-8.762-1.141-8.762-10.877.958-10.919-2.236S12.894,209.055,12.894,209.055Z" fill="url(#i)"/>
      <path d="M48.534,255.854c.817.4,1,1.884.765,2.858-.486,2-3.09,3.227-4.085,2.635-.817-.487-.641-2.252-.115-3.339C45.789,256.583,47.541,255.37,48.534,255.854Z" fill="#fbb03b"/>
      <path d="M37.523,264.8c-.135.994-1.491,1.469-2.311,1.55-1.354.134-2.94-.638-3-1.473-.072-1.083,2.406-2.683,4.05-1.934A2.008,2.008,0,0,1,37.523,264.8Z" fill="#fbb03b"/>
      <path d="M61.2,219.462c-.136.993-1.491,1.468-2.312,1.55-1.353.133-2.94-.638-2.995-1.473-.072-1.084,2.406-2.683,4.05-1.934A2.011,2.011,0,0,1,61.2,219.462Z" fill="#fbb03b"/>
      <path d="M59.636,239.6c.907.427.955,1.862.787,2.669-.277,1.332-1.488,2.615-2.3,2.417-1.056-.255-1.84-3.1-.634-4.443A2.009,2.009,0,0,1,59.636,239.6Z" fill="#fbb03b"/>
      <path d="M39.806,251.843c.437.7-.677,2.29-1.929,3.081-.924.584-2.463,1.075-2.94.517-.534-.623.271-2.543,1.677-3.411C37.727,251.343,39.405,251.2,39.806,251.843Z" fill="#fbb03b"/>
      <path d="M46.433,228.149c.969.322.813,2.272-.043,3.649-.632,1.016-2.015,2.314-2.93,2.135-1.024-.2-1.44-2.244-.464-3.773C43.768,228.949,45.544,227.855,46.433,228.149Z" fill="#fbb03b"/>
      <path d="M49.99,244.069c1.04,1.366.113,3.315-.263,4.106-.307.646-1.028,2.163-1.976,2.128-1.009-.037-1.742-1.813-1.886-3.1-.16-1.425.241-3.729,1.714-4.116A2.472,2.472,0,0,1,49.99,244.069Z" fill="#fbb03b"/>
      <path d="M55.715,226.779c1.152.19,1.469,2.149,1.509,2.4.23,1.423-.231,3.313-1.1,3.49-1.074.22-3.094-2.134-2.556-4.046C53.841,227.659,54.805,226.629,55.715,226.779Z" fill="#fbb03b"/>
      <path d="M11.58,243.953c-.756.5-.743,2-.38,2.934.746,1.923,3.489,2.791,4.4,2.073.746-.59.338-2.317-.327-3.325C14.4,244.313,12.5,243.342,11.58,243.953Z" fill="#fbb03b"/>
      <path d="M26.382,225.567c.265.967,1.671,1.259,2.5,1.231,1.359-.046,2.83-1.02,2.774-1.855-.072-1.083-2.74-2.342-4.27-1.383A2.009,2.009,0,0,0,26.382,225.567Z" fill="#fbb03b"/>
      <path d="M7.747,233.537c-.939.352-1.1,1.779-1,2.6.168,1.35,1.271,2.727,2.1,2.6,1.072-.169,2.085-2.94.992-4.378A2.012,2.012,0,0,0,7.747,233.537Z" fill="#fbb03b"/>
      <path d="M21.853,257.517c-.341.753.973,2.18,2.318,2.8.993.457,2.583.741,2.983.125.446-.689-.605-2.485-2.113-3.16C23.847,256.747,22.165,256.826,21.853,257.517Z" fill="#fbb03b"/>
      <path d="M20.754,230.609c-.992.241-1,2.2-.253,3.639.547,1.065,1.82,2.471,2.747,2.366,1.036-.117,1.617-2.119.769-3.722C23.345,231.622,21.664,230.387,20.754,230.609Z" fill="#fbb03b"/>
      <path d="M21.342,245.549c-1.148,1.278-.382,3.3-.072,4.115.254.668.85,2.239,1.8,2.281,1.009.045,1.884-1.666,2.132-2.934.275-1.408.062-3.736-1.374-4.242A2.472,2.472,0,0,0,21.342,245.549Z" fill="#fbb03b"/>
      <path d="M10.11,219.743c-1.164.1-1.639,2.022-1.7,2.264-.346,1.4-.039,3.322.809,3.568,1.053.306,3.257-1.876,2.876-3.825C11.906,220.772,11.029,219.667,10.11,219.743Z" fill="#fbb03b"/>
      <path d="M34.354,239.39c-1.163.1-1.638,2.022-1.7,2.264-.345,1.4-.039,3.321.809,3.568,1.053.306,3.258-1.876,2.876-3.826C36.15,240.419,35.273,239.313,34.354,239.39Z" fill="#fbb03b"/>
    </g>
    <path d="M155.119,304.89H128.5c-8.135-40.862-10.082-94.889,15.618-146,5.228-10.4,35.163-69.931,64.5-64.5,26.357,4.879,37.607,59.491,31.5,81.5-.454,1.635-2.022,6.9-3.918,6.857-3.964-.094-7.339-23.38-9.582-38.857-1.069-7.373-1.129-9.177-2.4-12.942-2.6-7.711-9.486-21.287-18.6-22.058-7.536-.638-13.978,7.773-18.5,14-35.544,48.946-38.4,111.572-38.5,114.5A263.448,263.448,0,0,0,155.119,304.89Z" fill="url(#j)"/>
    <path d="M112.319,305.59c2.947-61.451-11.431-100.386-22-121.5-15.369-30.7-26.376-31.1-29-31-9.868.379-19.414,12.635-23,23.253-5.249,15.539.825,31.925-5.574,34.54a4.082,4.082,0,0,1-2.426.207c-7.048-1.67-10.885-24.783-5-42,5.211-15.245,20.043-32.6,37.5-33,21.016-.486,35.543,23.831,45.5,40.5,11.528,19.3,31.728,61.634,25.5,129.5Z" fill="url(#k)"/>
    <path d="M118.6,288.4c.947-96.55,2.4-166.1,4.236-220.084.579-17.024,1.823-51.533-10.151-55.477-9.172-3.022-24.471,12.513-31.9,27.53-10.54,21.312-6.053,43.258-9.093,43.5C69.809,84.023,67.3,75.3,66.505,67.9c-.376-3.5-1.63-18.435,7.933-35.7,11-19.857,31.656-35.178,42.2-31.709A20.155,20.155,0,0,1,125.214,6.1c1.925,2.344,2.865,4.861,4.006,7.916a63.162,63.162,0,0,1,2.224,7.841c4.466,21,4.4,42.783,4.4,42.783-.041,14.638.9,29.265.928,43.9.016,8.538.622,29.261,1.834,70.709.76,26.019,2,63.516,4.077,111.951Z" fill="url(#l)"/>
    <g>
      <path d="M141.5,223.021c-4.915-3.757-10.032-.54-12.081,1.841-.731.849-3.139,3.647-2.032,7.4,1.1,3.719,4.862,5.689,6.035,6.3,2.945,1.542,8.893,3.228,11.63-.9C147.675,233.707,146,226.458,141.5,223.021Z" fill="url(#m)"/>
      <path d="M143.255,232.079c-3.784,3.365-1.405,10.507.518,13.925.685,1.219,2.944,5.235,6.37,5.958,3.4.718,5.492-2.322,6.145-3.27,1.638-2.378,3.681-7.91.274-12.96C153.3,230.894,146.716,229,143.255,232.079Z" fill="url(#n)"/>
      <path d="M152.473,235.519c1.86,5.979,8.4,8.158,11.722,8.41,1.186.09,5.091.387,6.546-2.607,1.442-2.97-.567-7.034-1.194-8.3-1.572-3.179-5.67-8.79-10.722-8.59C153.985,224.622,150.771,230.051,152.473,235.519Z" fill="url(#o)"/>
      <path d="M158.719,228.959c5.471,1.55,8.509-3.992,9.318-7.31.289-1.183,1.24-5.081-1.075-8.344-2.3-3.237-6.148-3.514-7.349-3.6-3.013-.217-8.567.779-9.295,6.161C149.621,221.023,153.715,227.541,158.719,228.959Z" fill="url(#p)"/>
      <path d="M153.959,219.005c3.984-3.1,1.924-10.291.148-13.778-.634-1.244-2.722-5.341-6.147-6.255-3.4-.907-5.659,1.972-6.364,2.869-1.77,2.252-4.1,7.595-.9,12.779C143.758,219.588,150.314,221.842,153.959,219.005Z" fill="url(#q)"/>
      <path d="M144.134,215.3c-1.735-6-8.256-8.342-11.591-8.684-1.19-.122-5.109-.523-6.638,2.414-1.517,2.914.411,7.01,1.013,8.287,1.508,3.2,5.5,8.9,10.581,8.835C142.368,226.1,145.721,220.787,144.134,215.3Z" fill="url(#r)"/>
      <path d="M141.1,218.824a7.016,7.016,0,0,0-1.179,3.877,11.649,11.649,0,0,0,1.169,5.067,11.867,11.867,0,0,0,1.635,2.885,10.253,10.253,0,0,0,3.863,3.006c2.765,1.252,5.911,1.049,7.9-.775a6.331,6.331,0,0,0,1.748-2.853,9.111,9.111,0,0,0-.034-4.463c-.26-1.22-1.126-5.283-4.314-7.567a8.2,8.2,0,0,0-5.345-1.424C145.311,216.593,142.692,216.627,141.1,218.824Z" fill="url(#s)"/>
    </g>
    <path d="M150.346,250.6a64.419,64.419,0,0,1,3.619,22.993,4.326,4.326,0,0,1,4.511-1.487,32.676,32.676,0,0,1-20.909,32.159,53.3,53.3,0,0,1-32.357,2.522,52.156,52.156,0,0,1-20.368-10.124,16.019,16.019,0,0,1,7.336-3.911,25.2,25.2,0,0,1-15.02-9.977A24.434,24.434,0,0,1,72.942,270.5l3.721-.184c-1.848-2.185-6.786-8.629-6.576-17.553a24.047,24.047,0,0,1,1.307-7.239c.919.276,1.871.588,2.852.944q.854.31,1.656.634a36.515,36.515,0,0,1,.442-14.141l3.593-.232a25.643,25.643,0,0,1,.434-8.01,26.051,26.051,0,0,1,5.4-11.076,33.225,33.225,0,0,1,15.968,4.061,31.974,31.974,0,0,1,6.07,4.365l1.63-2.735a23.625,23.625,0,0,1,10.124,9.419,11.973,11.973,0,0,1,1.034-1.941,12.1,12.1,0,0,1,2.09-2.413c.928.978,1.883,2.067,2.837,3.275a47.979,47.979,0,0,1,4.1,6.092l2.072-1.982a33.384,33.384,0,0,1,8.149,11.146q1.155-.726,2.308-1.454a20.507,20.507,0,0,1,2.484,3.432,21.012,21.012,0,0,1,2.691,8.622,4.229,4.229,0,0,1,.936-1.686A4.275,4.275,0,0,1,150.346,250.6Z" fill="url(#t)"/>
  </g>
</svg>
