<svg xmlns="http://www.w3.org/2000/svg" xmlns:xlink="http://www.w3.org/1999/xlink" width="269.07" height="270.703" viewBox="0 0 269.07 270.703">
  <defs>
    <linearGradient id="a" x1="270.241" y1="138.58" x2="226.112" y2="193.602" gradientTransform="matrix(-1.034, -0.479, -0.389, 0.84, 498.269, 139.108)" gradientUnits="userSpaceOnUse">
      <stop offset="0" stop-color="#2b773e"/>
      <stop offset="1" stop-color="#27954f"/>
    </linearGradient>
    <linearGradient id="b" x1="240.718" y1="93.29" x2="239.8" y2="113.238" gradientTransform="translate(-20.97 23.921) rotate(-5.214)" gradientUnits="userSpaceOnUse">
      <stop offset="0" stop-color="#fff"/>
      <stop offset="0.779" stop-color="#f6f6f6"/>
      <stop offset="0.994" stop-color="#f2f2f2"/>
    </linearGradient>
    <linearGradient id="c" x1="-112.621" y1="158.537" x2="-113.306" y2="173.417" gradientTransform="translate(98.278 -29.235) rotate(-77.679)" xlink:href="#b"/>
    <linearGradient id="d" x1="-263.871" y1="-112.337" x2="-264.688" y2="-94.591" gradientTransform="translate(106.796 -135.045) rotate(-141.247)" xlink:href="#b"/>
    <linearGradient id="e" x1="-65.046" y1="-377.039" x2="-65.923" y2="-357.99" gradientTransform="matrix(-0.876, 0.483, -0.483, -0.876, 14.969, -195.105)" xlink:href="#b"/>
    <linearGradient id="f" x1="170.457" y1="-358.215" x2="169.763" y2="-343.15" gradientTransform="translate(-51.439 -172.09) rotate(105.293)" xlink:href="#b"/>
    <linearGradient id="g" x1="353.55" y1="-76.394" x2="352.739" y2="-58.777" gradientTransform="matrix(0.764, 0.645, -0.645, 0.764, -84.209, -86.459)" xlink:href="#b"/>
    <radialGradient id="h" cx="240.129" cy="98.819" r="9.213" gradientTransform="matrix(0.72, -0.091, 0.066, 0.996, 59.424, 23.921)" gradientUnits="userSpaceOnUse">
      <stop offset="0" stop-color="#fbce3b"/>
      <stop offset="0.452" stop-color="#fbc53b"/>
      <stop offset="0.994" stop-color="#fbb33b"/>
    </radialGradient>
    <linearGradient id="i" x1="136.87" y1="102.204" x2="78.453" y2="175.042" gradientUnits="userSpaceOnUse">
      <stop offset="0" stop-color="#5a8539"/>
      <stop offset="1" stop-color="#46952f"/>
    </linearGradient>
    <linearGradient id="j" x1="-472.378" y1="715.367" x2="-393.87" y2="715.367" gradientTransform="matrix(-0.998, 0.061, 0.061, 0.998, -340.071, -492.982)" xlink:href="#a"/>
    <linearGradient id="k" x1="-439.42" y1="218.842" x2="-355.304" y2="218.842" gradientTransform="matrix(-0.804, -0.595, -0.595, 0.804, -44.789, -189.621)" xlink:href="#a"/>
    <linearGradient id="l" x1="-596.954" y1="174.809" x2="-532.024" y2="174.809" gradientTransform="matrix(-1, 0, 0, 1, -327.884, 0)" gradientUnits="userSpaceOnUse">
      <stop offset="0" stop-color="#c1272d"/>
      <stop offset="1" stop-color="#ed1c24"/>
    </linearGradient>
    <linearGradient id="m" x1="-539.189" y1="2200.93" x2="-500.258" y2="2200.93" gradientTransform="matrix(-0.741, 0.672, 0.672, 0.741, -1626.237, -1136.647)" xlink:href="#i"/>
    <linearGradient id="n" x1="-390.485" y1="197.956" x2="-325.554" y2="197.956" gradientTransform="matrix(-1.024, 0.063, 0.062, 0.998, -344.381, 26.706)" xlink:href="#l"/>
    <linearGradient id="o" x1="-391.282" y1="171.006" x2="-339.617" y2="171.006" gradientTransform="matrix(-0.998, 0.066, 0.066, 0.998, -344.531, 27.107)" xlink:href="#a"/>
    <linearGradient id="p" x1="221.149" y1="98.843" x2="141.483" y2="198.177" xlink:href="#i"/>
    <linearGradient id="q" x1="40.529" y1="129.591" x2="116.529" y2="203.591" gradientTransform="matrix(1, 0, 0, 1, 0, 0)" xlink:href="#a"/>
    <linearGradient id="r" x1="-504.444" y1="249.129" x2="-431.049" y2="249.129" gradientTransform="matrix(-0.817, 0.577, 0.577, 0.817, -400.237, 293.916)" xlink:href="#a"/>
    <linearGradient id="s" x1="34.828" y1="44.513" x2="33.796" y2="66.915" gradientTransform="translate(57.703 -39.419) rotate(27.631)" xlink:href="#b"/>
    <linearGradient id="t" x1="-130.08" y1="-50.814" x2="-131.037" y2="-30.034" gradientTransform="translate(186.719 -19.403) rotate(-44.835)" xlink:href="#b"/>
    <linearGradient id="u" x1="-90.133" y1="-218.791" x2="-91.084" y2="-198.127" gradientTransform="translate(251.262 -103.679) rotate(-108.403)" xlink:href="#b"/>
    <linearGradient id="v" x1="97.025" y1="-256.452" x2="95.987" y2="-233.918" gradientTransform="translate(206.688 -203.941) rotate(-176.014)" xlink:href="#b"/>
    <linearGradient id="w" x1="195.15" y1="-155.827" x2="194.187" y2="-134.917" gradientTransform="translate(138.414 -220.622) rotate(138.137)" xlink:href="#b"/>
    <linearGradient id="x" x1="174.09" y1="33.552" x2="173.141" y2="54.159" gradientTransform="translate(64.439 -166.452) rotate(72.989)" xlink:href="#b"/>
    <radialGradient id="y" cx="50.731" cy="56.056" r="9.213" gradientTransform="matrix(0.879, 0.492, -0.497, 1.01, 60.847, -51.126)" xlink:href="#h"/>
  </defs>
  <title>StrawberryBush</title>
  <g>
    <path d="M130.893,235.53c4.894-18.585,16.457-54.111,42.583-84.311a222.271,222.271,0,0,1,28.486-27.375c18.8-14.537,37.2-23.063,36.273-24.3-.627-.838-9.589,2.425-16,5.171-23.617,10.121-41.443,25.618-58.139,46.263a268.655,268.655,0,0,0-44.235,79.691Z" fill="url(#a)"/>
    <g>
      <path d="M233.685,97.139c-3.129-4.4-8.174-1.935-10.469.136a9.69,9.69,0,0,0-3.536,7.037,9.789,9.789,0,0,0,3.42,7.082c2.052,1.937,6.557,4.436,9.859.733C236.123,108.578,236.548,101.168,233.685,97.139Z" fill="url(#b)"/>
      <path d="M232.869,106.349c-3.978,2.8-3.8,10.2-3.061,13.856.263,1.3,1.127,5.593,3.784,6.787,2.635,1.184,5.131-1.532,5.91-2.379,1.953-2.125,5.032-7.316,3.475-12.79C241.485,106.579,236.508,103.786,232.869,106.349Z" fill="url(#c)"/>
      <path d="M239.643,111.042a10.464,10.464,0,0,0,7.6,9.96c.959.255,4.12,1.094,6.075-1.667,1.939-2.738,1.293-7.041,1.092-8.383-.506-3.366-2.494-9.493-6.729-10C243.626,100.467,239.6,105.391,239.643,111.042Z" fill="url(#d)"/>
      <path d="M246.461,105.42c4.144,2.3,8.05-2.764,9.551-5.935.536-1.131,2.3-4.856,1.2-8.409a6.834,6.834,0,0,0-5.185-4.59,7.553,7.553,0,0,0-9.244,4.8C240.913,96.3,242.671,103.318,246.461,105.42Z" fill="url(#e)"/>
      <path d="M245.012,94.9c4.078-2.514,4.174-9.918,3.576-13.617-.213-1.32-.916-5.667-3.524-7.05-2.587-1.371-5.182,1.162-5.991,1.952-2.03,1.982-5.3,6.945-3.95,12.523C236.417,94.056,241.282,97.2,245.012,94.9Z" fill="url(#f)"/>
      <path d="M237.8,89.867a10.681,10.681,0,0,0-7.426-10.213c-.955-.287-4.1-1.232-6.1,1.463-1.987,2.672-1.416,6.995-1.238,8.343.446,3.383,2.326,9.574,6.551,10.223C233.634,100.305,237.742,95.517,237.8,89.867Z" fill="url(#g)"/>
      <path d="M234.408,92.929a8.825,8.825,0,0,0-1.949,3.673,13.439,13.439,0,0,0-.3,5.179,11.862,11.862,0,0,0,.632,3.084,7.952,7.952,0,0,0,2.446,3.514,5.4,5.4,0,0,0,6.737.335,7.568,7.568,0,0,0,2.164-2.58,11.23,11.23,0,0,0,1.089-4.421c.091-1.245.392-5.387-1.676-8.093a5.623,5.623,0,0,0-4.071-2.156A5.342,5.342,0,0,0,234.408,92.929Z" fill="url(#h)"/>
    </g>
    <path d="M119.238,264.9c3.928-27.055,9.108-80.1-3.666-135A363.542,363.542,0,0,0,98.928,77.241C86.222,47.072,70.994,24.94,72.572,23.9c1.07-.709,8.922,8.915,14.333,16.333,19.946,27.341,31.16,58.171,38.667,95,5.96,29.245,11.949,73.882,7.666,130Z" fill="url(#i)"/>
    <path d="M102.194,219.185a7.742,7.742,0,0,1,2.33-.132,44.052,44.052,0,0,1-6.264-11.04,8.6,8.6,0,0,1,4.1-.77,14.314,14.314,0,0,1-3.819-5.765,13.711,13.711,0,0,1-.645-2.72,4.685,4.685,0,0,1,4.728.047,19.444,19.444,0,0,1-2.521-13.088l3.278.476a15.752,15.752,0,0,1,2.637-11.592l2.727,1.4a22.505,22.505,0,0,1,2.157-10.972,7.022,7.022,0,0,1,3.8,2.293,14.009,14.009,0,0,1,3.922-7.719,13.12,13.12,0,0,1,3.167-2.273,24.657,24.657,0,0,1,4.04-5.111A25.736,25.736,0,0,1,138,145.733a11.44,11.44,0,0,1,3.844,4.731l1.657-2.295c1.153,1.019,2.345,2.158,3.546,3.429a55.06,55.06,0,0,1,5.734,7.178l2.709-.981a19.222,19.222,0,0,1,2.309,3.561,19.472,19.472,0,0,1,1.983,7.182,7.03,7.03,0,0,1,3.553-2.168,6.485,6.485,0,0,1,1.493-.176,11.621,11.621,0,0,1,1.943,4.13,11.9,11.9,0,0,1-.407,6.864l3.156-1.518a19.747,19.747,0,0,1,1.525,7.383,19.546,19.546,0,0,1-.554,4.813,4.409,4.409,0,0,1,2.974-.687,4.134,4.134,0,0,1,1.539.555,15.335,15.335,0,0,1-1.131,7.862,14.84,14.84,0,0,1-2.107,3.447,3.964,3.964,0,0,1,2.719.447,3.756,3.756,0,0,1,1.149,1.066,13.888,13.888,0,0,1-4.333,7.559,4.262,4.262,0,0,1,2.587.3,4.087,4.087,0,0,1,1.189.845,20.765,20.765,0,0,1-8.023,10.2,18.368,18.368,0,0,1,9,3.568,39.546,39.546,0,0,1-18.88,16.721,38.715,38.715,0,0,1-18.108,2.739,43.477,43.477,0,0,1-26.673-6.544,42.642,42.642,0,0,1-13.965-14.765A7.992,7.992,0,0,1,102.194,219.185Z" fill="url(#j)"/>
    <path d="M109.944,204.9a21.3,21.3,0,0,1,6.947-11.74,3.783,3.783,0,0,1,1.272,1.355,3.667,3.667,0,0,1,.378,1.033,18.7,18.7,0,0,1,7.236-8,16.9,16.9,0,0,1,2.476-1.184,5.809,5.809,0,0,1,1.254,2.649,29.646,29.646,0,0,1,6.818-6.943c.685-.5,1.364-.943,2.029-1.344a9.008,9.008,0,0,1,2.627,4.3,17.785,17.785,0,0,1,8.048-5.048,16.9,16.9,0,0,1,3.98-.647,11.35,11.35,0,0,1-.536,4.138,46.759,46.759,0,0,1,16.432-4.3,45.568,45.568,0,0,1,5.9-.036,22.093,22.093,0,0,1-.187,6.589l2.625-.419a28.489,28.489,0,0,1,1.711,5.318,28.868,28.868,0,0,1,.385,9.936l3.314-.156a18.82,18.82,0,0,1-.674,7.47,18.627,18.627,0,0,1-1.929,4.32,16.65,16.65,0,0,1,6.308,1.627,42.874,42.874,0,0,1-5.791,10.869l3.258.55a15.1,15.1,0,0,1-6.05,12.562,5.978,5.978,0,0,1,4.3,1.636,21.12,21.12,0,0,1-2.673,3.676,21.485,21.485,0,0,1-7.006,5.089,4.514,4.514,0,0,1,3.1,3.128,22.046,22.046,0,0,1-18.782,8.129l2.85,3.611a47.892,47.892,0,0,1-11.193,5.176c-4.436,1.387-17.239,5.178-31.153-.874A40.095,40.095,0,0,1,93.49,223.247a16.352,16.352,0,0,1,7.528,3.1,35.508,35.508,0,0,1,.644-14.494q.96.191,1.963.423.717.168,1.4.345a24.907,24.907,0,0,1,.751-7.381c.17-.66.361-1.286.566-1.878a9.552,9.552,0,0,1,1.836.563A9.422,9.422,0,0,1,109.944,204.9Z" fill="url(#k)"/>
    <g>
      <path d="M236.411,143.928c-4.306-.68-24.117-3.489-30.211,5.853-8.141,12.479,9.072,56.621,30.022,56.835,20.8.213,38.829-43.088,30.967-55.891C261.073,140.766,239.927,143.445,236.411,143.928Z" fill="url(#l)"/>
      <path d="M235.633,138.069s18.028-5.332,21.154-.892-2.153,4.654-2.153,4.654,5.643,3.473,5.2,5.958-7.047.71-7.047.71,3.237,6.319,1.594,7.373-10.823-3.646-10.823-3.646-1.479,6.407-3.122,5.879-6.24-6.881-8.219-6.541-7.893,6.183-9.469,5.677-.514-8.818-.514-8.818-10.04.237-9.884-2.953,6.971-3.62,6.971-3.62-5.231-2.254-3.861-4.258S228.955,136.435,235.633,138.069Z" fill="url(#m)"/>
      <path d="M251.061,190.725c.788.452.874,1.946.574,2.9-.617,1.968-3.3,3.016-4.25,2.359-.783-.539-.491-2.288.106-3.339C248.274,191.271,250.1,190.176,251.061,190.725Z" fill="#fbb03b"/>
      <path d="M239.483,198.924c-.2.982-1.585,1.366-2.409,1.393-1.36.044-2.892-.831-2.892-1.667,0-1.086,2.579-2.518,4.17-1.663A2.012,2.012,0,0,1,239.483,198.924Z" fill="#fbb03b"/>
      <path d="M262.951,167.782c.877.486.83,1.922.609,2.716-.365,1.31-1.658,2.51-2.456,2.26-1.036-.325-1.631-3.214-.339-4.476A2.011,2.011,0,0,1,262.951,167.782Z" fill="#fbb03b"/>
      <path d="M243.4,184.7c.39.73-.827,2.24-2.128,2.947-.96.522-2.528.91-2.968.321-.491-.657.439-2.519,1.9-3.292C241.363,184.067,243.047,184.034,243.4,184.7Z" fill="#fbb03b"/>
      <path d="M251.691,164.706c.946.385.662,2.32-.284,3.637-.7.973-2.163,2.176-3.065,1.937-1.008-.268-1.288-2.334-.213-3.795C248.98,165.327,250.824,164.353,251.691,164.706Z" fill="#fbb03b"/>
      <path d="M253.294,179.062c.947,1.432-.107,3.316-.534,4.08-.349.625-1.169,2.09-2.113,1.993-1-.1-1.619-1.924-1.677-3.215-.065-1.433.487-3.7,1.982-3.994A2.475,2.475,0,0,1,253.294,179.062Z" fill="#fbb03b"/>
      <path d="M262.641,153.791c1.137.266,1.324,2.241,1.347,2.489.136,1.435-.449,3.291-1.325,3.41-1.086.148-2.946-2.334-2.283-4.207C260.713,154.545,261.743,153.58,262.641,153.791Z" fill="#fbb03b"/>
      <path d="M233.156,173.606c-.788.451-.874,1.945-.574,2.9.618,1.968,3.3,3.015,4.251,2.359.783-.54.49-2.289-.107-3.339C235.944,174.151,234.115,173.057,233.156,173.606Z" fill="#fbb03b"/>
      <path d="M235.985,164.81c.2.982,1.585,1.367,2.409,1.394,1.36.044,2.891-.831,2.891-1.668,0-1.086-2.578-2.518-4.169-1.662A2.01,2.01,0,0,0,235.985,164.81Z" fill="#fbb03b"/>
      <path d="M211.839,165.76c-.959.288-1.218,1.7-1.17,2.524.079,1.358,1.088,2.805,1.921,2.73,1.082-.1,2.276-2.8,1.28-4.3A2.01,2.01,0,0,0,211.839,165.76Z" fill="#fbb03b"/>
      <path d="M224.328,190.62c-.39.729.827,2.24,2.128,2.946.96.522,2.529.91,2.968.322.491-.658-.439-2.52-1.9-3.293C226.369,189.983,224.685,189.951,224.328,190.62Z" fill="#fbb03b"/>
      <path d="M223.5,165.141c-1.006.175-1.138,2.127-.494,3.614.476,1.1,1.653,2.586,2.585,2.543,1.042-.048,1.754-2.007,1.013-3.664C226.014,166.323,224.418,164.98,223.5,165.141Z" fill="#fbb03b"/>
      <path d="M218.886,178.831c-1.229,1.2-.6,3.263-.343,4.1.208.684.7,2.291,1.642,2.395,1,.112,1.99-1.537,2.321-2.786.367-1.386.308-3.723-1.091-4.323A2.471,2.471,0,0,0,218.886,178.831Z" fill="#fbb03b"/>
      <path d="M215.109,152.152c-1.167.019-1.768,1.909-1.844,2.147-.437,1.374-.258,3.311.572,3.613,1.03.375,3.374-1.656,3.123-3.627C216.834,153.3,216.032,152.137,215.109,152.152Z" fill="#fbb03b"/>
    </g>
    <g>
      <path d="M32.174,170.845c-4.45-.406-24.9-1.957-30.562,7.752-7.563,12.97,12.775,55.94,34.233,54.83,21.3-1.1,37.088-45.46,28.251-57.742C57.222,166.131,35.743,170.142,32.174,170.845Z" fill="url(#n)"/>
      <path d="M12.894,169.859s-5.825-1.873-4.471-3.971,14.572-2.126,21.926-.975c0,0,19.208-6.618,22.893-2.412s-2.028,4.8-2.028,4.8,6.353,3.06,6.031,5.572-7.6,1.214-7.6,1.214,3.931,6.073,2.218,7.243-11.986-2.859-11.986-2.859-1.18,6.5-3,6.09-7.227-6.417-9.351-5.936-8.156,6.738-9.9,6.346-1.141-8.761-1.141-8.761-10.877.958-10.919-2.236S12.894,169.859,12.894,169.859Z" fill="url(#o)"/>
      <path d="M48.534,216.659c.817.4,1,1.883.765,2.857-.486,2-3.09,3.227-4.085,2.635-.817-.486-.641-2.251-.115-3.339C45.789,217.387,47.541,216.174,48.534,216.659Z" fill="#fbb03b"/>
      <path d="M37.523,225.605c-.135.993-1.491,1.468-2.311,1.55-1.354.133-2.94-.638-3-1.473-.072-1.084,2.406-2.683,4.05-1.935A2.011,2.011,0,0,1,37.523,225.605Z" fill="#fbb03b"/>
      <path d="M61.2,180.267c-.136.993-1.491,1.468-2.312,1.549-1.353.134-2.94-.638-2.995-1.473-.072-1.083,2.406-2.683,4.05-1.934A2.012,2.012,0,0,1,61.2,180.267Z" fill="#fbb03b"/>
      <path d="M59.636,200.407c.907.427.955,1.863.787,2.67-.277,1.331-1.488,2.614-2.3,2.417-1.056-.256-1.84-3.1-.634-4.444A2.011,2.011,0,0,1,59.636,200.407Z" fill="#fbb03b"/>
      <path d="M39.806,212.648c.437.7-.677,2.289-1.929,3.081-.924.584-2.463,1.075-2.94.517-.534-.624.271-2.544,1.677-3.411C37.727,212.147,39.405,212,39.806,212.648Z" fill="#fbb03b"/>
      <path d="M46.433,188.954c.969.321.813,2.271-.043,3.648-.632,1.017-2.015,2.315-2.93,2.135-1.024-.2-1.44-2.243-.464-3.773C43.768,189.753,45.544,188.659,46.433,188.954Z" fill="#fbb03b"/>
      <path d="M49.99,204.873c1.04,1.367.113,3.316-.263,4.107-.307.646-1.028,2.163-1.976,2.128-1.009-.038-1.742-1.813-1.886-3.1-.16-1.425.241-3.728,1.714-4.116A2.474,2.474,0,0,1,49.99,204.873Z" fill="#fbb03b"/>
      <path d="M55.715,187.584c1.152.19,1.469,2.148,1.509,2.394.23,1.424-.231,3.314-1.1,3.491-1.074.219-3.094-2.134-2.556-4.047C53.841,188.463,54.805,187.433,55.715,187.584Z" fill="#fbb03b"/>
      <path d="M11.58,204.758c-.756.5-.743,2-.38,2.933.746,1.923,3.489,2.791,4.4,2.073.746-.59.338-2.316-.327-3.325C14.4,205.118,12.5,204.146,11.58,204.758Z" fill="#fbb03b"/>
      <path d="M26.382,186.372c.265.966,1.671,1.259,2.5,1.231,1.359-.046,2.83-1.02,2.774-1.856-.072-1.083-2.74-2.341-4.27-1.382A2.009,2.009,0,0,0,26.382,186.372Z" fill="#fbb03b"/>
      <path d="M7.747,194.342c-.939.352-1.1,1.778-1,2.6.168,1.35,1.271,2.727,2.1,2.6,1.072-.17,2.085-2.94.992-4.378A2.008,2.008,0,0,0,7.747,194.342Z" fill="#fbb03b"/>
      <path d="M21.853,218.321c-.341.754.973,2.181,2.318,2.8.993.457,2.583.74,2.983.124.446-.688-.605-2.485-2.113-3.16C23.847,217.551,22.165,217.63,21.853,218.321Z" fill="#fbb03b"/>
      <path d="M20.754,191.413c-.992.242-1,2.2-.253,3.64.547,1.064,1.82,2.47,2.747,2.366,1.036-.117,1.617-2.119.769-3.723C23.345,192.426,21.664,191.192,20.754,191.413Z" fill="#fbb03b"/>
      <path d="M21.342,206.354c-1.148,1.277-.382,3.295-.072,4.114.254.669.85,2.239,1.8,2.281,1.009.045,1.884-1.665,2.132-2.933.275-1.408.062-3.736-1.374-4.242A2.472,2.472,0,0,0,21.342,206.354Z" fill="#fbb03b"/>
      <path d="M10.11,180.547c-1.164.1-1.639,2.023-1.7,2.265-.346,1.4-.039,3.321.809,3.568,1.053.305,3.257-1.876,2.876-3.826C11.906,181.577,11.029,180.471,10.11,180.547Z" fill="#fbb03b"/>
      <path d="M34.354,200.194c-1.163.1-1.638,2.022-1.7,2.264-.345,1.4-.039,3.322.809,3.568,1.053.306,3.258-1.876,2.876-3.825C36.15,201.223,35.273,200.118,34.354,200.194Z" fill="#fbb03b"/>
    </g>
    <path d="M155.119,265.7H128.5c-8.135-40.863-10.082-94.89,15.618-146,5.228-10.4,35.163-69.931,64.5-64.5,26.357,4.879,37.607,59.49,31.5,81.5-.454,1.635-2.022,6.9-3.918,6.857-3.964-.095-7.339-23.381-9.582-38.857-1.069-7.373-1.129-9.177-2.4-12.942-2.6-7.711-9.486-21.287-18.6-22.058-7.536-.638-13.978,7.773-18.5,14-35.544,48.945-38.4,111.572-38.5,114.5A263.452,263.452,0,0,0,155.119,265.7Z" fill="url(#p)"/>
    <path d="M112.319,266.4c2.947-61.452-11.431-100.387-22-121.5-15.369-30.7-26.376-31.1-29-31-9.868.378-19.414,12.635-23,23.252-5.249,15.539.825,31.926-5.574,34.541a4.091,4.091,0,0,1-2.426.207c-7.048-1.67-10.885-24.784-5-42,5.211-15.245,20.043-32.6,37.5-33,21.016-.487,35.543,23.831,45.5,40.5,11.528,19.3,31.728,61.634,25.5,129.5Z" fill="url(#q)"/>
    <path d="M163.42,217.345a59,59,0,0,1,3.318,21.074,3.964,3.964,0,0,1,4.135-1.363,29.95,29.95,0,0,1-19.165,29.474,48.843,48.843,0,0,1-29.656,2.312,47.809,47.809,0,0,1-18.668-9.278,14.673,14.673,0,0,1,6.724-3.586,23.092,23.092,0,0,1-13.767-9.144,22.394,22.394,0,0,1-3.863-11.247l3.41-.168c-1.694-2-6.22-7.909-6.027-16.088a22.032,22.032,0,0,1,1.2-6.635c.842.253,1.714.539,2.613.866q.783.284,1.518.58a33.481,33.481,0,0,1,.405-12.96l3.293-.213a23.545,23.545,0,0,1,.4-7.342,23.892,23.892,0,0,1,4.952-10.151,30.45,30.45,0,0,1,14.636,3.722,29.3,29.3,0,0,1,5.563,4l1.494-2.507a21.658,21.658,0,0,1,9.279,8.633,11.013,11.013,0,0,1,2.864-3.991c.849.9,1.725,1.9,2.6,3a43.98,43.98,0,0,1,3.754,5.583l1.9-1.816a30.643,30.643,0,0,1,7.469,10.216l2.115-1.333a18.813,18.813,0,0,1,2.277,3.146,19.277,19.277,0,0,1,2.466,7.9,3.874,3.874,0,0,1,.858-1.545A3.915,3.915,0,0,1,163.42,217.345Z" fill="url(#r)"/>
    <g>
      <path d="M73.72,23.146c-1.062-6.752-8.274-8.436-12.1-8.291-1.365.052-5.859.222-8.107,3.92-2.229,3.667-.64,8.157-.144,9.558,1.243,3.513,4.979,9.538,10.9,8.634C69.943,36.1,74.69,29.321,73.72,23.146Z" fill="url(#s)"/>
      <path d="M67.488,31.342C61.309,30.836,57.263,38.1,56.008,42.2c-.447,1.463-1.921,6.283.443,9.567,2.345,3.258,6.773,2.655,8.154,2.467,3.464-.471,9.983-2.984,11.342-9.5C77.249,38.493,73.14,31.805,67.488,31.342Z" fill="url(#t)"/>
      <path d="M72.568,41.3c-3.5,5.972.325,12.84,3,15.69.956,1.017,4.1,4.365,7.935,3.284,3.8-1.072,5.532-5.727,6.072-7.179,1.355-3.643,2.593-11.131-1.978-15.024C83.221,34.341,75.771,35.838,72.568,41.3Z" fill="url(#u)"/>
      <path d="M83.629,41.382c3.437,5.542,10.832,3.818,14.378,1.978,1.266-.656,5.433-2.817,6.213-7.118.773-4.265-2.343-7.556-3.315-8.582-2.439-2.574-8.13-6.273-13.375-2.82C82.505,28.148,80.486,36.313,83.629,41.382Z" fill="url(#v)"/>
      <path d="M88.011,30.108c6.127.864,10.494-6.176,11.934-10.213.514-1.44,2.206-6.183.006-9.611-2.182-3.4-6.618-3.051-8-2.943-3.47.272-10.077,2.413-11.734,8.86C78.629,22.379,82.407,29.318,88.011,30.108Z" fill="url(#w)"/>
      <path d="M82.627,19.467c3.626-5.885-.044-12.864-2.655-15.79-.932-1.044-4-4.482-7.849-3.5-3.818.971-5.648,5.585-6.218,7.024-1.432,3.61-2.832,11.074,1.645,15.1C71.841,26.147,79.31,24.85,82.627,19.467Z" fill="url(#x)"/>
      <path d="M76.97,19.68a8.5,8.5,0,0,0-4.35,1.963A12,12,0,0,0,69.3,26.379a11.624,11.624,0,0,0-1.047,3.472,10.379,10.379,0,0,0,.789,5.346,9.176,9.176,0,0,0,7.543,5.742,8.22,8.22,0,0,0,3.967-.74,9.974,9.974,0,0,0,3.793-3.374c.82-1.123,3.547-4.863,2.728-9.127a9.351,9.351,0,0,0-3.436-5.347C82.546,21.376,80.236,19.306,76.97,19.68Z" fill="url(#y)"/>
    </g>
  </g>
</svg>
