<svg xmlns="http://www.w3.org/2000/svg" xmlns:xlink="http://www.w3.org/1999/xlink" width="66.59" height="83.66" viewBox="0 0 66.59 83.66">
  <defs>
    <style>
      .cls-1 {
        fill: url(#linear-gradient);
      }

      .cls-2 {
        fill: url(#linear-gradient-2);
      }

      .cls-3 {
        fill: url(#linear-gradient-3);
      }

      .cls-4 {
        fill: #fbb03b;
      }
    </style>
    <linearGradient id="linear-gradient" x1="26.35" y1="47.4" x2="91.28" y2="47.4" gradientTransform="matrix(1.03, 0, 0, 1, -27.17, 4.72)" gradientUnits="userSpaceOnUse">
      <stop offset="0" stop-color="#c1272d"/>
      <stop offset="1" stop-color="#ed1c24"/>
    </linearGradient>
    <linearGradient id="linear-gradient-2" x1="8.51" y1="23.64" x2="60.18" y2="23.64" gradientUnits="userSpaceOnUse">
      <stop offset="0" stop-color="#5a8539"/>
      <stop offset="1" stop-color="#46952f"/>
    </linearGradient>
    <linearGradient id="linear-gradient-3" x1="-87.87" y1="1283.73" x2="-78.3" y2="1283.73" gradientTransform="matrix(1, -0.03, 0.05, 1.55, 53.59, -1980.7)" xlink:href="#linear-gradient-2"/>
  </defs>
  <title>Strawberry</title>
  <g id="Layer_2" data-name="Layer 2">
    <g id="Layer_1-2" data-name="Layer 1">
      <g>
        <path class="cls-1" d="M33.42,21c4.42-.7,24.72-3.6,31,5.72,8.41,12.44-9.05,56.66-30.53,57-21.32.31-40-42.91-32-55.75C8.12,17.92,29.82,20.51,33.42,21Z"/>
        <path class="cls-2" d="M52.6,18.71s5.68-2.25,4.19-4.26-14.68-1.15-21.94.48c0,0-19.6-5.33-23-.89s2.34,4.65,2.34,4.65-6.14,3.48-5.65,6,7.66.71,7.66.71-3.52,6.32-1.73,7.37,11.77-3.64,11.77-3.64S27.85,35.5,29.63,35s6.79-6.88,8.94-6.54,8.59,6.18,10.3,5.67.56-8.81.56-8.81,10.92.23,10.75-3S52.6,18.71,52.6,18.71Z"/>
        <path class="cls-3" d="M34.06,20.84S25,9.48,28.56,3,34.85.4,37.48,14.76c0,0,.44,3.38-.42,4.8S34.06,20.84,34.06,20.84Z"/>
        <path class="cls-4" d="M20.13,67.77c-.79.45-.87,1.94-.57,2.9.61,2,3.29,3,4.25,2.36.78-.54.49-2.29-.11-3.34C22.92,68.31,21.09,67.22,20.13,67.77Z"/>
        <path class="cls-4" d="M31.71,76c.2,1,1.58,1.36,2.41,1.39,1.36,0,2.89-.83,2.89-1.67,0-1.08-2.58-2.52-4.17-1.66A2,2,0,0,0,31.71,76Z"/>
        <path class="cls-4" d="M5.08,32.29c.21,1,1.59,1.37,2.41,1.4,1.36,0,2.89-.84,2.89-1.67,0-1.09-2.57-2.52-4.16-1.66A2,2,0,0,0,5.08,32.29Z"/>
        <path class="cls-4" d="M8,52.29c-.88.48-.83,1.92-.61,2.71.36,1.31,1.66,2.51,2.45,2.26,1-.32,1.64-3.21.34-4.47A2,2,0,0,0,8,52.29Z"/>
        <path class="cls-4" d="M28.57,63.19c-.39.73.83,2.24,2.13,2.94,1,.53,2.53.91,3,.33s-.44-2.52-1.9-3.3C30.61,62.55,28.93,62.52,28.57,63.19Z"/>
        <path class="cls-4" d="M20.39,40c-.94.39-.66,2.32.29,3.64.7,1,2.16,2.18,3.06,1.94s1.29-2.34.22-3.8C23.1,40.61,21.26,39.63,20.39,40Z"/>
        <path class="cls-4" d="M17.9,56.1c-.95,1.44.1,3.32.53,4.08s1.17,2.09,2.11,2,1.62-1.93,1.68-3.22-.49-3.7-2-4A2.46,2.46,0,0,0,17.9,56.1Z"/>
        <path class="cls-4" d="M11,39.23c-1.14.27-1.32,2.24-1.35,2.49-.13,1.44.45,3.29,1.33,3.41,1.09.15,3-2.33,2.28-4.21C13,40,11.94,39,11,39.23Z"/>
        <path class="cls-4" d="M56.21,53.45c.79.45.88,1.94.58,2.9-.62,2-3.3,3-4.25,2.36-.78-.54-.49-2.29.1-3.34C53.43,54,55.26,52.9,56.21,53.45Z"/>
        <path class="cls-4" d="M40.23,36.08c-.2,1-1.58,1.37-2.41,1.39-1.36.05-2.89-.83-2.89-1.66,0-1.09,2.58-2.52,4.17-1.67A2,2,0,0,1,40.23,36.08Z"/>
        <path class="cls-4" d="M59.35,42.8c1,.29,1.22,1.7,1.17,2.53-.08,1.35-1.09,2.8-1.92,2.72-1.08-.09-2.27-2.79-1.28-4.3A2,2,0,0,1,59.35,42.8Z"/>
        <path class="cls-4" d="M46.86,67.66c.39.73-.82,2.24-2.13,3-1,.52-2.52.91-3,.32s.44-2.52,1.9-3.29C44.82,67,46.51,67,46.86,67.66Z"/>
        <path class="cls-4" d="M46.18,40.74c1,.17,1.14,2.13.49,3.61-.47,1.1-1.65,2.59-2.58,2.55s-1.76-2-1-3.67C43.66,41.92,45.26,40.58,46.18,40.74Z"/>
        <path class="cls-4" d="M46.58,55.69c1.23,1.19.6,3.26.34,4.1-.2.68-.7,2.29-1.64,2.39s-2-1.54-2.32-2.78-.31-3.73,1.09-4.33A2.48,2.48,0,0,1,46.58,55.69Z"/>
        <path class="cls-4" d="M56.08,29.19c1.17,0,1.77,1.91,1.85,2.15.43,1.37.25,3.31-.58,3.61-1,.38-3.37-1.65-3.12-3.62C54.36,30.34,55.16,29.18,56.08,29.19Z"/>
        <path class="cls-4" d="M33.19,50.4c1.17,0,1.77,1.91,1.84,2.15.44,1.37.26,3.31-.57,3.61-1,.38-3.37-1.66-3.12-3.63C31.47,51.55,32.27,50.39,33.19,50.4Z"/>
      </g>
    </g>
  </g>
</svg>
