<svg xmlns="http://www.w3.org/2000/svg" xmlns:xlink="http://www.w3.org/1999/xlink" width="269.07" height="295.5" viewBox="0 0 269.07 295.5">
  <defs>
    <linearGradient id="a" x1="68.792" y1="107.186" x2="68.792" y2="121.479" gradientUnits="userSpaceOnUse">
      <stop offset="0" stop-color="#5a8539"/>
      <stop offset="1" stop-color="#46952f"/>
    </linearGradient>
    <linearGradient id="b" x1="160.832" y1="13.327" x2="160.832" y2="38.687" gradientUnits="userSpaceOnUse">
      <stop offset="0" stop-color="#2b773e"/>
      <stop offset="1" stop-color="#27954f"/>
    </linearGradient>
    <linearGradient id="c" x1="107.486" y1="252.34" x2="191.602" y2="252.34" gradientTransform="translate(-132.002 73.843) rotate(-23.897)" xlink:href="#b"/>
    <linearGradient id="d" x1="171.563" y1="543.956" x2="250.072" y2="543.956" gradientTransform="translate(-241.602 -302.312) rotate(-18.169)" xlink:href="#b"/>
    <linearGradient id="e" y1="203.415" x2="64.93" y2="203.415" gradientUnits="userSpaceOnUse">
      <stop offset="0" stop-color="#c1272d"/>
      <stop offset="1" stop-color="#ed1c24"/>
    </linearGradient>
    <linearGradient id="f" x1="76.442" y1="2277.934" x2="115.373" y2="2277.934" gradientTransform="translate(1490.997 -1578.642) rotate(42.203)" xlink:href="#a"/>
    <linearGradient id="g" x1="184.771" y1="126.473" x2="249.701" y2="126.473" xlink:href="#e"/>
    <linearGradient id="h" x1="161.627" y1="2096.816" x2="200.558" y2="2096.816" gradientTransform="translate(1490.997 -1578.642) rotate(42.203)" xlink:href="#b"/>
    <linearGradient id="i" x1="208.396" y1="231.002" x2="273.326" y2="231.002" gradientTransform="matrix(1.024, 0.063, -0.062, 0.998, 2.495, -15.525)" xlink:href="#e"/>
    <linearGradient id="j" x1="205.83" y1="204.377" x2="257.495" y2="204.377" gradientTransform="translate(20.004 -17.083) rotate(3.793)" xlink:href="#a"/>
    <linearGradient id="k" x1="155.751" y1="188.875" x2="24.204" y2="188.875" xlink:href="#a"/>
    <linearGradient id="l" x1="134.085" y1="210.496" x2="246.638" y2="210.496" xlink:href="#a"/>
    <linearGradient id="m" x1="174.369" y1="72.5" x2="174.369" y2="196.065" xlink:href="#b"/>
    <linearGradient id="n" x1="84.241" y1="250.805" x2="157.636" y2="250.805" gradientTransform="translate(147.785 -28.056) rotate(25.516)" xlink:href="#b"/>
  </defs>
  <title>StrawberryBush_2</title>
  <g>
    <path d="M80.876,108.625c-.85,2.1-8.571-1.753-13.625,1.875-5.416,3.888-4.7,14.166-3.25,22.25-.893-.941-9.752-10.566-6.75-21.625.313-1.152,2.663-9.811,9.5-11.25C74.181,98.311,81.8,106.351,80.876,108.625Z" fill="url(#a)"/>
    <path d="M162.763,58.67c4.449-.622,5.22-21.667,4.789-33.26A130.974,130.974,0,0,0,164.093,0c-2.441,7.693-4.385,14.335-5.854,19.557-4.166,14.809-4.648,18.652-3.991,23.149C155.4,50.553,159.822,59.082,162.763,58.67Z" fill="url(#b)"/>
    <path d="M144.417,234.117a21.3,21.3,0,0,0-4.215-12.973,3.761,3.761,0,0,0-1.537,1.043,3.679,3.679,0,0,0-.595.926,18.7,18.7,0,0,0-5.315-9.384,16.917,16.917,0,0,0-2.157-1.7,5.826,5.826,0,0,0-1.8,2.311,29.687,29.687,0,0,0-5.137-8.264c-.56-.635-1.125-1.219-1.686-1.755a8.994,8.994,0,0,0-3.5,3.626,17.784,17.784,0,0,0-6.751-6.685,16.956,16.956,0,0,0-3.743-1.5,11.325,11.325,0,0,0-.381,4.154A46.8,46.8,0,0,0,92.5,196.133a45.528,45.528,0,0,0-5.746-1.322,22.04,22.04,0,0,0-1.257,6.47l-2.47-.982a28.544,28.544,0,0,0-2.831,4.815,28.88,28.88,0,0,0-2.546,9.613l-3.2-.877a18.823,18.823,0,0,0-.974,7.437,18.625,18.625,0,0,0,.939,4.637,16.665,16.665,0,0,0-6.511.21,42.788,42.788,0,0,0,3.277,11.872l-3.3-.175a15.106,15.106,0,0,0,3.16,13.581,5.973,5.973,0,0,0-4.554.656,21.04,21.04,0,0,0,1.8,4.171,21.46,21.46,0,0,0,5.726,6.5,4.516,4.516,0,0,0-3.7,2.377,22.045,22.045,0,0,0,16.553,12.035l-3.57,2.9a47.848,47.848,0,0,0,9.792,7.5c4.026,2.323,15.692,8.819,30.592,5.952a40.1,40.1,0,0,0,32.788-37.884A16.383,16.383,0,0,0,148.442,257a35.458,35.458,0,0,0,2.538-14.285q-.978-.024-2.008-.016-.737.008-1.445.03a24.89,24.89,0,0,0,.879-7.366c-.022-.682-.071-1.335-.142-1.957a9.541,9.541,0,0,0-1.915.149A9.4,9.4,0,0,0,144.417,234.117Z" fill="url(#c)"/>
    <path d="M168.974,159.213a7.723,7.723,0,0,0-2.214.737,44.111,44.111,0,0,0,1.741-12.573,8.605,8.605,0,0,0-4.092.8,14.313,14.313,0,0,0,1.418-6.768,13.679,13.679,0,0,0-.406-2.765,4.679,4.679,0,0,0-4.376,1.789,19.429,19.429,0,0,0-2.494-13.092l-2.87,1.653a15.742,15.742,0,0,0-6.733-9.8l-2.017,2.308a22.531,22.531,0,0,0-6.059-9.4,7.011,7.011,0,0,0-2.685,3.536,14.008,14.008,0,0,0-6.5-5.724,13.114,13.114,0,0,0-3.783-.942,24.643,24.643,0,0,0-5.643-3.256,25.727,25.727,0,0,0-13.706-1.529,11.439,11.439,0,0,0-1.823,5.816l-2.388-1.519c-.695,1.372-1.382,2.872-2.029,4.5a55.159,55.159,0,0,0-2.675,8.789l-2.88.09a19.217,19.217,0,0,0-.829,4.161,19.444,19.444,0,0,0,.811,7.407,7.032,7.032,0,0,0-4.1-.7,6.473,6.473,0,0,0-1.452.388,11.638,11.638,0,0,0-.28,4.556,11.9,11.9,0,0,0,2.915,6.227l-3.494-.243a19.542,19.542,0,0,0,3.605,11.691,4.41,4.41,0,0,0-3.017.461,4.118,4.118,0,0,0-1.225,1.084,15.324,15.324,0,0,0,3.955,6.888,14.822,14.822,0,0,0,3.232,2.424,3.969,3.969,0,0,0-2.362,1.42,3.742,3.742,0,0,0-.673,1.416,13.881,13.881,0,0,0,6.819,5.422,4.265,4.265,0,0,0-2.293,1.235,4.088,4.088,0,0,0-.792,1.224,20.75,20.75,0,0,0,11.223,6.51,18.389,18.389,0,0,0-7.043,6.64,39.553,39.553,0,0,0,23.723,8.561,38.713,38.713,0,0,0,17.839-4.146A43.484,43.484,0,0,0,165.69,178.55a42.656,42.656,0,0,0,7.521-18.88A7.978,7.978,0,0,0,168.974,159.213Z" fill="url(#d)"/>
    <g>
      <path d="M32.659,172.533c4.306-.68,24.117-3.488,30.211,5.853,8.14,12.479-9.072,56.621-30.022,56.836-20.8.212-38.83-43.088-30.967-55.891C8,169.371,29.143,172.051,32.659,172.533Z" fill="url(#e)"/>
      <path d="M33.437,166.675s-18.028-5.333-21.154-.893,2.153,4.655,2.153,4.655S8.792,173.91,9.241,176.4s7.047.709,7.047.709-3.238,6.32-1.6,7.374,10.824-3.646,10.824-3.646,1.479,6.406,3.121,5.879,6.241-6.881,8.219-6.542,7.894,6.184,9.47,5.678.514-8.818.514-8.818,10.04.236,9.884-2.954-6.971-3.619-6.971-3.619,5.231-2.254,3.861-4.259S40.115,165.04,33.437,166.675Z" fill="url(#f)"/>
      <path d="M18.008,219.331c-.788.451-.874,1.946-.574,2.9.618,1.968,3.3,3.016,4.251,2.359.783-.539.491-2.289-.107-3.339C20.8,219.876,18.967,218.782,18.008,219.331Z" fill="#fbb03b"/>
      <path d="M29.587,227.529c.2.982,1.585,1.367,2.409,1.394,1.359.044,2.891-.831,2.891-1.668,0-1.086-2.579-2.518-4.169-1.662A2.01,2.01,0,0,0,29.587,227.529Z" fill="#fbb03b"/>
      <path d="M6.118,196.388c-.877.486-.829,1.921-.608,2.715.365,1.311,1.658,2.511,2.456,2.26,1.036-.325,1.631-3.214.338-4.476A2.01,2.01,0,0,0,6.118,196.388Z" fill="#fbb03b"/>
      <path d="M25.666,213.309c-.39.729.826,2.24,2.128,2.946.96.522,2.528.91,2.968.322.491-.658-.439-2.52-1.9-3.293C27.706,212.672,26.023,212.64,25.666,213.309Z" fill="#fbb03b"/>
      <path d="M17.379,193.311c-.946.385-.662,2.32.283,3.638.7.972,2.164,2.176,3.066,1.936,1.008-.268,1.288-2.333.213-3.795C20.09,193.933,18.246,192.958,17.379,193.311Z" fill="#fbb03b"/>
      <path d="M15.776,207.668c-.947,1.432.106,3.315.534,4.08.349.624,1.169,2.09,2.113,1.992,1-.1,1.619-1.924,1.677-3.215.065-1.433-.488-3.7-1.983-3.994A2.473,2.473,0,0,0,15.776,207.668Z" fill="#fbb03b"/>
      <path d="M6.428,182.4c-1.136.266-1.323,2.241-1.346,2.489-.136,1.436.449,3.291,1.324,3.411,1.086.147,2.947-2.334,2.283-4.207C8.357,183.15,7.326,182.186,6.428,182.4Z" fill="#fbb03b"/>
      <path d="M35.914,202.211c.788.451.874,1.946.573,2.9-.617,1.968-3.3,3.016-4.25,2.359-.783-.539-.491-2.289.107-3.339C33.126,202.757,34.955,201.662,35.914,202.211Z" fill="#fbb03b"/>
      <path d="M33.085,193.416c-.2.982-1.585,1.366-2.409,1.393-1.36.044-2.892-.831-2.892-1.668,0-1.085,2.579-2.518,4.17-1.662A2.011,2.011,0,0,1,33.085,193.416Z" fill="#fbb03b"/>
      <path d="M57.23,194.365c.96.289,1.218,1.7,1.171,2.525-.079,1.358-1.088,2.8-1.922,2.729-1.081-.1-2.275-2.795-1.279-4.3A2.009,2.009,0,0,1,57.23,194.365Z" fill="#fbb03b"/>
      <path d="M44.742,219.225c.389.729-.827,2.24-2.128,2.947-.961.521-2.529.909-2.968.321-.492-.657.439-2.519,1.9-3.292C42.7,218.589,44.384,218.556,44.742,219.225Z" fill="#fbb03b"/>
      <path d="M45.574,193.746c1.006.175,1.138,2.127.493,3.615-.475,1.1-1.652,2.585-2.584,2.542-1.042-.048-1.754-2.007-1.013-3.663C43.056,194.928,44.651,193.585,45.574,193.746Z" fill="#fbb03b"/>
      <path d="M50.184,207.436c1.229,1.2.6,3.263.343,4.1-.209.684-.7,2.29-1.642,2.395-1,.111-1.99-1.537-2.321-2.786-.367-1.387-.309-3.724,1.091-4.324A2.475,2.475,0,0,1,50.184,207.436Z" fill="#fbb03b"/>
      <path d="M53.96,180.757c1.167.019,1.769,1.91,1.844,2.147.438,1.374.259,3.312-.571,3.614-1.03.375-3.375-1.656-3.123-3.627C52.236,181.9,53.038,180.742,53.96,180.757Z" fill="#fbb03b"/>
    </g>
    <g>
      <path d="M217.429,95.592c4.307-.68,24.117-3.489,30.212,5.853,8.14,12.479-9.072,56.621-30.023,56.835-20.795.213-38.829-43.088-30.967-55.891C192.767,92.43,213.913,95.109,217.429,95.592Z" fill="url(#g)"/>
      <path d="M218.207,89.733s-18.028-5.332-21.153-.892,2.153,4.654,2.153,4.654-5.644,3.473-5.2,5.958,7.047.71,7.047.71-3.237,6.319-1.594,7.373,10.824-3.646,10.824-3.646,1.478,6.407,3.121,5.879,6.24-6.881,8.219-6.541,7.894,6.183,9.47,5.677.514-8.818.514-8.818,10.039.237,9.883-2.953-6.971-3.62-6.971-3.62,5.231-2.254,3.862-4.258S224.885,88.1,218.207,89.733Z" fill="url(#h)"/>
      <path d="M202.779,142.389c-.788.452-.874,1.946-.574,2.9.618,1.968,3.3,3.016,4.25,2.359.784-.539.491-2.288-.106-3.339C205.566,142.935,203.738,141.84,202.779,142.389Z" fill="#fbb03b"/>
      <path d="M218.075,153.424c.775-.636.469-2.039.108-2.78-.595-1.223-2.084-2.17-2.824-1.78-.96.507-1.024,3.456.475,4.464A2.012,2.012,0,0,0,218.075,153.424Z" fill="#fbb03b"/>
      <path d="M190.889,118.069c-.877.486-.83,1.922-.609,2.716.365,1.31,1.658,2.51,2.457,2.26,1.036-.325,1.63-3.214.338-4.476A2.011,2.011,0,0,0,190.889,118.069Z" fill="#fbb03b"/>
      <path d="M212.178,136.423a2.126,2.126,0,0,0-2.443,1.768,2.276,2.276,0,0,0,1.4,2.295c1.133.348,2.929-.451,3.022-1.608A2.77,2.77,0,0,0,212.178,136.423Z" fill="#fbb03b"/>
      <path d="M202.08,112.422a2.128,2.128,0,0,0-2.444,1.768,2.28,2.28,0,0,0,1.4,2.3c1.133.348,2.929-.451,3.021-1.609A2.769,2.769,0,0,0,202.08,112.422Z" fill="#fbb03b"/>
      <path d="M220.379,129.407c-.946.384-.661,2.32.284,3.637.7.973,2.163,2.176,3.065,1.937,1.008-.268,1.288-2.334.213-3.8C223.09,130.028,221.246,129.054,220.379,129.407Z" fill="#fbb03b"/>
      <path d="M196.514,131.267c-.948,1.432.106,3.316.534,4.08.349.625,1.169,2.09,2.112,1.993,1-.1,1.619-1.925,1.678-3.215.065-1.433-.488-3.705-1.983-3.994A2.472,2.472,0,0,0,196.514,131.267Z" fill="#fbb03b"/>
      <path d="M193.554,107.408a2.5,2.5,0,0,0-2.383-1.339c-1.2.21-1.394,1.773-1.419,1.969-.143,1.135.474,2.6,1.4,2.7C192.292,110.852,194.253,108.889,193.554,107.408Z" fill="#fbb03b"/>
      <path d="M210.027,122.723c.788.451.874,1.946.574,2.9-.618,1.968-3.3,3.016-4.25,2.359-.783-.539-.491-2.289.106-3.339C207.24,123.269,209.068,122.174,210.027,122.723Z" fill="#fbb03b"/>
      <path d="M221.833,114.678c-.2.982-1.585,1.367-2.409,1.393-1.36.044-2.891-.83-2.891-1.667,0-1.086,2.578-2.518,4.169-1.662A2.01,2.01,0,0,1,221.833,114.678Z" fill="#fbb03b"/>
      <path d="M242,117.424c.96.288,1.218,1.7,1.17,2.524-.078,1.358-1.088,2.805-1.921,2.73-1.081-.1-2.275-2.8-1.28-4.3A2.011,2.011,0,0,1,242,117.424Z" fill="#fbb03b"/>
      <path d="M229.512,142.284c.39.729-.826,2.24-2.128,2.946-.96.522-2.528.91-2.968.322-.491-.658.439-2.52,1.9-3.293C227.472,141.647,229.155,141.615,229.512,142.284Z" fill="#fbb03b"/>
      <path d="M230.344,116.805c1.006.175,1.138,2.127.494,3.614-.476,1.1-1.653,2.586-2.585,2.543-1.042-.048-1.753-2.007-1.013-3.664C227.826,117.987,229.422,116.644,230.344,116.805Z" fill="#fbb03b"/>
      <path d="M234.954,130.5c1.23,1.2.6,3.263.344,4.1-.209.684-.7,2.291-1.642,2.4-1,.112-1.991-1.537-2.321-2.786-.368-1.386-.309-3.723,1.09-4.323A2.47,2.47,0,0,1,234.954,130.5Z" fill="#fbb03b"/>
      <path d="M238.731,103.816c1.167.019,1.768,1.909,1.844,2.147.437,1.374.258,3.311-.572,3.613-1.03.375-3.374-1.656-3.123-3.627C237.006,104.961,237.809,103.8,238.731,103.816Z" fill="#fbb03b"/>
    </g>
    <g>
      <path d="M236.9,199.451c4.45-.407,24.9-1.957,30.563,7.752,7.563,12.969-12.776,55.94-34.233,54.829-21.3-1.1-37.088-45.46-28.252-57.742C211.847,194.736,233.326,198.747,236.9,199.451Z" fill="url(#i)"/>
      <path d="M256.175,198.465s5.825-1.873,4.472-3.971-14.572-2.126-21.926-.976c0,0-19.208-6.617-22.894-2.412s2.029,4.8,2.029,4.8-6.354,3.06-6.032,5.572,7.6,1.215,7.6,1.215-3.931,6.072-2.218,7.242,11.985-2.859,11.985-2.859,1.181,6.5,3,6.091,7.226-6.418,9.351-5.937,8.156,6.738,9.9,6.347,1.141-8.762,1.141-8.762,10.878.958,10.92-2.236S256.175,198.465,256.175,198.465Z" fill="url(#j)"/>
      <path d="M220.535,245.264c-.816.4-1,1.884-.764,2.858.486,2,3.09,3.227,4.085,2.635.817-.487.641-2.252.114-3.339C223.281,245.993,221.529,244.779,220.535,245.264Z" fill="#fbb03b"/>
      <path d="M231.546,254.21c.136.994,1.491,1.469,2.312,1.55,1.353.134,2.94-.638,3-1.473.072-1.083-2.406-2.683-4.05-1.934A2.011,2.011,0,0,0,231.546,254.21Z" fill="#fbb03b"/>
      <path d="M207.87,208.872c.136.993,1.491,1.468,2.312,1.55,1.353.133,2.94-.638,3-1.473.071-1.084-2.407-2.683-4.051-1.934A2.01,2.01,0,0,0,207.87,208.872Z" fill="#fbb03b"/>
      <path d="M209.433,229.013c-.907.427-.955,1.862-.786,2.669.277,1.332,1.488,2.615,2.3,2.417,1.055-.255,1.84-3.1.634-4.443A2.01,2.01,0,0,0,209.433,229.013Z" fill="#fbb03b"/>
      <path d="M229.264,241.253c-.437.7.677,2.29,1.928,3.081.924.584,2.463,1.075,2.941.517.533-.623-.272-2.543-1.678-3.411C231.342,240.753,229.665,240.609,229.264,241.253Z" fill="#fbb03b"/>
      <path d="M222.637,217.559c-.969.322-.813,2.272.043,3.649.632,1.016,2.014,2.314,2.93,2.135,1.024-.2,1.44-2.244.464-3.773C225.3,218.359,223.526,217.265,222.637,217.559Z" fill="#fbb03b"/>
      <path d="M219.08,233.479c-1.04,1.366-.114,3.315.262,4.106.307.646,1.029,2.163,1.976,2.128,1.009-.037,1.743-1.813,1.887-3.1.16-1.426-.242-3.729-1.714-4.116A2.471,2.471,0,0,0,219.08,233.479Z" fill="#fbb03b"/>
      <path d="M213.355,216.189c-1.152.19-1.469,2.149-1.509,2.4-.23,1.423.231,3.313,1.1,3.49,1.074.219,3.095-2.134,2.557-4.046C215.229,217.069,214.265,216.039,213.355,216.189Z" fill="#fbb03b"/>
      <path d="M257.489,233.363c.757.5.743,2,.381,2.934-.747,1.923-3.489,2.791-4.4,2.073-.746-.59-.339-2.317.327-3.325C254.672,233.723,256.569,232.752,257.489,233.363Z" fill="#fbb03b"/>
      <path d="M242.688,214.977c-.266.967-1.672,1.259-2.5,1.231-1.359-.046-2.83-1.02-2.774-1.855.072-1.084,2.739-2.342,4.27-1.383A2.011,2.011,0,0,1,242.688,214.977Z" fill="#fbb03b"/>
      <path d="M261.323,222.947c.939.352,1.1,1.779,1,2.6-.169,1.35-1.271,2.726-2.1,2.6-1.072-.169-2.085-2.94-.992-4.378A2.012,2.012,0,0,1,261.323,222.947Z" fill="#fbb03b"/>
      <path d="M247.217,246.927c.341.753-.973,2.18-2.318,2.8-.993.457-2.583.741-2.983.125-.447-.689.6-2.485,2.113-3.16C245.223,246.157,246.905,246.236,247.217,246.927Z" fill="#fbb03b"/>
      <path d="M248.315,220.019c.992.241,1,2.2.254,3.639-.547,1.065-1.82,2.471-2.747,2.366-1.037-.117-1.617-2.119-.769-3.722C245.725,221.032,247.406,219.8,248.315,220.019Z" fill="#fbb03b"/>
      <path d="M247.728,234.959c1.147,1.278.382,3.3.071,4.115-.253.668-.849,2.239-1.8,2.281-1.009.045-1.885-1.666-2.132-2.934-.275-1.408-.062-3.736,1.374-4.242A2.473,2.473,0,0,1,247.728,234.959Z" fill="#fbb03b"/>
      <path d="M258.96,209.153c1.163.1,1.638,2.022,1.7,2.264.345,1.4.039,3.322-.809,3.568-1.053.306-3.258-1.876-2.876-3.825C257.164,210.182,258.041,209.077,258.96,209.153Z" fill="#fbb03b"/>
      <path d="M234.716,228.8c1.163.1,1.638,2.023,1.7,2.265.345,1.4.039,3.321-.809,3.568-1.053.306-3.258-1.876-2.877-3.826C232.919,229.829,233.8,228.723,234.716,228.8Z" fill="#fbb03b"/>
    </g>
    <path d="M113.951,294.3h26.618c8.135-40.862,10.082-94.889-15.618-146-5.228-10.4-35.163-69.931-64.5-64.5-26.358,4.879-37.608,59.491-31.5,81.5.454,1.635,2.021,6.9,3.918,6.857,3.964-.094,7.339-23.381,9.582-38.857,1.069-7.373,1.129-9.177,2.4-12.942,2.6-7.711,9.486-21.287,18.6-22.058,7.535-.638,13.978,7.773,18.5,14,35.544,48.946,38.4,111.572,38.5,114.5A263.448,263.448,0,0,1,113.951,294.3Z" fill="url(#k)"/>
    <path d="M156.751,295c-2.947-61.451,11.431-100.386,22-121.5,15.369-30.7,26.376-31.1,29-31,9.868.378,19.414,12.635,23,23.252,5.249,15.54-.825,31.926,5.574,34.541a4.082,4.082,0,0,0,2.426.207c7.048-1.67,10.885-24.783,5-42-5.211-15.245-20.044-32.6-37.5-33-21.016-.486-35.543,23.831-45.5,40.5-11.528,19.3-31.728,61.634-25.5,129.5Z" fill="url(#l)"/>
    <path d="M147.251,293.5c10.227-96.012,16.829-165.259,21.25-219.1,1.394-16.976,4.151-51.4,16.5-53.93,9.46-1.941,22.86,15.26,28.5,31.035,8,22.388,1.009,43.668,4,44.263,1.853.369,5.354-8,7-15.263.778-3.433,3.751-18.123-3.75-36.377-8.627-21-27.375-38.6-38.25-36.378a20.162,20.162,0,0,0-9.167,4.579c-2.182,2.106-3.407,4.5-4.894,7.4a63.361,63.361,0,0,0-3.117,7.531C158.459,47.6,156,69.25,156,69.25c-1.652,14.544-4.28,28.964-6,43.5-1,8.478-4,28.993-10,70.022-3.765,25.757-9.335,62.858-17,110.728Z" fill="url(#m)"/>
    <path d="M109.845,246.991a59.054,59.054,0,0,0,.3,21.332,3.963,3.963,0,0,0-4.306-.644,29.952,29.952,0,0,0,23.877,25.805,48.847,48.847,0,0,0,29.62-2.742,47.8,47.8,0,0,0,16.827-12.305,14.692,14.692,0,0,0-7.233-2.4,23.089,23.089,0,0,0,12.02-11.343,22.392,22.392,0,0,0,1.9-11.738l-3.389.411c1.33-2.26,4.791-8.847,3.217-16.876a22.029,22.029,0,0,0-2.305-6.336c-.786.391-1.6.822-2.429,1.3q-.723.414-1.4.829a33.514,33.514,0,0,0-2.593-12.7l-3.282.347a23.543,23.543,0,0,0-1.635-7.168,23.874,23.874,0,0,0-6.6-9.166,30.438,30.438,0,0,0-13.794,6.146,29.232,29.232,0,0,0-4.806,4.884l-1.9-2.218a21.65,21.65,0,0,0-7.683,10.079,11.051,11.051,0,0,0-3.5-3.448c-.686,1.027-1.38,2.159-2.054,3.4a43.954,43.954,0,0,0-2.755,6.139q-1.089-.735-2.179-1.469a30.618,30.618,0,0,0-5.632,11.333l-2.31-.955a18.772,18.772,0,0,0-1.711,3.485,19.251,19.251,0,0,0-1.093,8.2,3.878,3.878,0,0,0-1.108-1.378A3.919,3.919,0,0,0,109.845,246.991Z" fill="url(#n)"/>
  </g>
</svg>
