<svg xmlns="http://www.w3.org/2000/svg" xmlns:xlink="http://www.w3.org/1999/xlink" width="64.93" height="79.765" viewBox="0 0 64.93 79.765">
  <defs>
    <linearGradient id="a" y1="47.957" x2="64.93" y2="47.957" gradientUnits="userSpaceOnUse">
      <stop offset="0" stop-color="#c1272d"/>
      <stop offset="1" stop-color="#ed1c24"/>
    </linearGradient>
    <linearGradient id="b" x1="265.741" y1="2352.871" x2="304.672" y2="2352.871" gradientTransform="translate(1401.111 -1916.775) rotate(42.203)" gradientUnits="userSpaceOnUse">
      <stop offset="0" stop-color="#5a8539"/>
      <stop offset="1" stop-color="#46952f"/>
    </linearGradient>
    <linearGradient id="c" x1="90.485" y1="1714.356" x2="100.057" y2="1714.356" gradientTransform="matrix(0.829, 0.559, -0.711, 1.054, 1174.095, -1853.018)" xlink:href="#b"/>
  </defs>
  <title>Strawberry_2</title>
  <g>
    <path d="M32.659,17.076c4.306-.68,24.117-3.489,30.211,5.853C71.01,35.408,53.8,79.55,32.848,79.764c-20.8.213-38.83-43.088-30.967-55.891C8,13.914,29.143,16.593,32.659,17.076Z" fill="url(#a)"/>
    <path d="M33.437,11.217s-18.028-5.332-21.154-.892,2.153,4.654,2.153,4.654-5.644,3.473-5.195,5.958,7.047.71,7.047.71-3.238,6.319-1.6,7.373,10.824-3.646,10.824-3.646S27,31.781,28.638,31.253s6.241-6.881,8.219-6.542,7.894,6.184,9.47,5.678.514-8.818.514-8.818,10.04.237,9.884-2.953S49.754,15,49.754,15s5.231-2.254,3.861-4.258S40.115,9.583,33.437,11.217Z" fill="url(#b)"/>
    <path d="M30.734,15.555S28.82,2.751,34.877.567s6.395,1.906,1.587,12.948c0,0-1.278,2.491-2.668,2.938S30.734,15.555,30.734,15.555Z" fill="url(#c)"/>
    <path d="M18.008,63.873c-.788.452-.874,1.946-.574,2.9.618,1.968,3.3,3.016,4.251,2.359.783-.539.491-2.288-.107-3.339C20.8,64.419,18.967,63.324,18.008,63.873Z" fill="#fbb03b"/>
    <path d="M29.587,72.072c.2.982,1.585,1.366,2.409,1.393,1.359.044,2.891-.831,2.891-1.667,0-1.086-2.579-2.518-4.169-1.663A2.012,2.012,0,0,0,29.587,72.072Z" fill="#fbb03b"/>
    <path d="M6.118,40.93c-.877.486-.829,1.922-.608,2.716.365,1.31,1.658,2.51,2.456,2.26C9,45.581,9.6,42.692,8.3,41.43A2.01,2.01,0,0,0,6.118,40.93Z" fill="#fbb03b"/>
    <path d="M25.666,57.851c-.39.73.826,2.24,2.128,2.947.96.522,2.528.91,2.968.321.491-.657-.439-2.519-1.9-3.292C27.706,57.215,26.023,57.182,25.666,57.851Z" fill="#fbb03b"/>
    <path d="M17.379,37.854c-.946.385-.662,2.32.283,3.637.7.973,2.164,2.176,3.066,1.937,1.008-.268,1.288-2.334.213-3.795C20.09,38.475,18.246,37.5,17.379,37.854Z" fill="#fbb03b"/>
    <path d="M15.776,52.21c-.947,1.432.106,3.316.534,4.08.349.625,1.169,2.09,2.113,1.993,1-.1,1.619-1.925,1.677-3.215.065-1.433-.488-3.7-1.983-3.994A2.474,2.474,0,0,0,15.776,52.21Z" fill="#fbb03b"/>
    <path d="M6.428,26.939c-1.136.266-1.323,2.241-1.346,2.489-.136,1.435.449,3.291,1.324,3.41,1.086.148,2.947-2.334,2.283-4.207C8.357,27.693,7.326,26.728,6.428,26.939Z" fill="#fbb03b"/>
    <path d="M35.914,46.754c.788.451.874,1.945.573,2.9-.617,1.968-3.3,3.015-4.25,2.359-.783-.54-.491-2.289.107-3.339C33.126,47.3,34.955,46.205,35.914,46.754Z" fill="#fbb03b"/>
    <path d="M33.085,37.958c-.2.982-1.585,1.367-2.409,1.393-1.36.044-2.892-.83-2.892-1.667,0-1.086,2.579-2.518,4.17-1.662A2.01,2.01,0,0,1,33.085,37.958Z" fill="#fbb03b"/>
    <path d="M57.23,38.908c.96.288,1.218,1.7,1.171,2.524-.079,1.358-1.088,2.805-1.922,2.729-1.081-.1-2.275-2.8-1.279-4.3A2.008,2.008,0,0,1,57.23,38.908Z" fill="#fbb03b"/>
    <path d="M44.742,63.768c.389.729-.827,2.24-2.128,2.946-.961.522-2.529.91-2.968.322-.492-.658.439-2.52,1.9-3.293C42.7,63.131,44.384,63.1,44.742,63.768Z" fill="#fbb03b"/>
    <path d="M45.574,38.289c1.006.175,1.138,2.127.493,3.614-.475,1.1-1.652,2.586-2.584,2.543-1.042-.048-1.754-2.007-1.013-3.664C43.056,39.471,44.651,38.128,45.574,38.289Z" fill="#fbb03b"/>
    <path d="M50.184,51.979c1.229,1.2.6,3.263.343,4.1-.209.684-.7,2.291-1.642,2.395-1,.112-1.99-1.537-2.321-2.786-.367-1.386-.309-3.724,1.091-4.323A2.471,2.471,0,0,1,50.184,51.979Z" fill="#fbb03b"/>
    <path d="M53.96,25.3c1.167.019,1.769,1.909,1.844,2.147.438,1.374.259,3.311-.571,3.613-1.03.375-3.375-1.656-3.123-3.627C52.236,26.445,53.038,25.285,53.96,25.3Z" fill="#fbb03b"/>
  </g>
</svg>
