<svg xmlns="http://www.w3.org/2000/svg" xmlns:xlink="http://www.w3.org/1999/xlink" width="269.07" height="310.29" viewBox="0 0 269.07 310.29">
  <defs>
    <style>
      .cls-1 {
        fill: url(#linear-gradient);
      }

      .cls-2 {
        fill: url(#linear-gradient-2);
      }

      .cls-3 {
        fill: url(#linear-gradient-3);
      }

      .cls-4 {
        fill: url(#linear-gradient-4);
      }

      .cls-5 {
        fill: url(#linear-gradient-5);
      }

      .cls-6 {
        fill: #fbb03b;
      }

      .cls-7 {
        fill: url(#linear-gradient-6);
      }

      .cls-8 {
        fill: url(#linear-gradient-7);
      }

      .cls-9 {
        fill: url(#linear-gradient-8);
      }

      .cls-10 {
        fill: url(#linear-gradient-9);
      }

      .cls-11 {
        fill: url(#linear-gradient-10);
      }

      .cls-12 {
        fill: url(#linear-gradient-11);
      }

      .cls-13 {
        fill: url(#linear-gradient-12);
      }

      .cls-14 {
        fill: url(#linear-gradient-13);
      }

      .cls-15 {
        fill: url(#linear-gradient-14);
      }

      .cls-16 {
        fill: url(#linear-gradient-15);
      }

      .cls-17 {
        fill: url(#linear-gradient-16);
      }

      .cls-18 {
        fill: url(#linear-gradient-17);
      }

      .cls-19 {
        fill: url(#linear-gradient-18);
      }

      .cls-20 {
        fill: url(#radial-gradient);
      }

      .cls-21 {
        fill: url(#linear-gradient-19);
      }
    </style>
    <linearGradient id="linear-gradient" x1="174.33" y1="87.2" x2="174.33" y2="112.56" gradientTransform="translate(56.56 -61.24) rotate(21.3)" gradientUnits="userSpaceOnUse">
      <stop offset="0" stop-color="#2b773e"/>
      <stop offset="1" stop-color="#27954f"/>
    </linearGradient>
    <linearGradient id="linear-gradient-2" x1="200.97" y1="725.48" x2="279.48" y2="725.48" gradientTransform="matrix(-1, 0.06, 0.06, 1, 330.09, -513.55)" xlink:href="#linear-gradient"/>
    <linearGradient id="linear-gradient-3" x1="113.45" y1="433.12" x2="206.49" y2="433.12" gradientTransform="matrix(-0.8, -0.6, -0.6, 0.8, 543, 4.28)" xlink:href="#linear-gradient"/>
    <linearGradient id="linear-gradient-4" x1="72.22" y1="214" x2="137.15" y2="214" gradientTransform="matrix(-1, 0, 0, 1, 341.29, 0)" gradientUnits="userSpaceOnUse">
      <stop offset="0" stop-color="#c1272d"/>
      <stop offset="1" stop-color="#ed1c24"/>
    </linearGradient>
    <linearGradient id="linear-gradient-5" x1="87.31" y1="1998.36" x2="126.24" y2="1998.36" gradientTransform="matrix(-0.74, 0.67, 0.67, 0.74, -1026.06, -1368.25)" xlink:href="#linear-gradient"/>
    <linearGradient id="linear-gradient-6" x1="237.49" y1="115.78" x2="302.42" y2="115.78" xlink:href="#linear-gradient-4"/>
    <linearGradient id="linear-gradient-7" x1="143.76" y1="1814.57" x2="182.69" y2="1814.57" gradientTransform="matrix(-0.74, 0.67, 0.67, 0.74, -1026.06, -1368.25)" gradientUnits="userSpaceOnUse">
      <stop offset="0" stop-color="#5a8539"/>
      <stop offset="1" stop-color="#46952f"/>
    </linearGradient>
    <linearGradient id="linear-gradient-8" x1="273.68" y1="216.4" x2="338.62" y2="216.4" gradientTransform="matrix(-1.02, 0.06, 0.06, 1, 334.3, 5.51)" xlink:href="#linear-gradient-4"/>
    <linearGradient id="linear-gradient-9" x1="281.5" y1="187.93" x2="333.16" y2="187.93" gradientTransform="matrix(-1, 0.07, 0.07, 1, 325.65, 4.92)" xlink:href="#linear-gradient-7"/>
    <linearGradient id="linear-gradient-10" x1="221.15" y1="138.04" x2="141.48" y2="237.37" gradientTransform="matrix(1, 0, 0, 1, 0, 0)" xlink:href="#linear-gradient"/>
    <linearGradient id="linear-gradient-11" x1="40.53" y1="168.79" x2="116.53" y2="242.79" gradientTransform="matrix(1, 0, 0, 1, 0, 0)" xlink:href="#linear-gradient-7"/>
    <linearGradient id="linear-gradient-12" x1="235.1" y1="67.96" x2="235.1" y2="191.53" gradientTransform="matrix(-0.99, -0.12, -0.12, 0.99, 358.6, 25.43)" xlink:href="#linear-gradient-7"/>
    <linearGradient id="linear-gradient-13" x1="140.01" y1="206.96" x2="139.08" y2="227.24" gradientTransform="translate(-61.3 66.27) rotate(-17.4)" gradientUnits="userSpaceOnUse">
      <stop offset="0" stop-color="#fff"/>
      <stop offset="0.78" stop-color="#f6f6f6"/>
      <stop offset="0.99" stop-color="#f2f2f2"/>
    </linearGradient>
    <linearGradient id="linear-gradient-14" x1="-42.98" y1="-239.73" x2="-43.81" y2="-221.78" gradientTransform="translate(381.05 198.49) rotate(-89.87)" xlink:href="#linear-gradient-13"/>
    <linearGradient id="linear-gradient-15" x1="282.57" y1="-540.59" x2="281.77" y2="-523.26" gradientTransform="translate(652.46 -115.37) rotate(-153.44)" xlink:href="#linear-gradient-13"/>
    <linearGradient id="linear-gradient-16" x1="722.72" y1="-360.83" x2="721.77" y2="-340.19" gradientTransform="matrix(-0.75, 0.66, -0.66, -0.75, 473.93, -520.32)" xlink:href="#linear-gradient-13"/>
    <linearGradient id="linear-gradient-17" x1="789.64" y1="-28.59" x2="788.81" y2="-10.42" gradientTransform="translate(170.63 -579.69) rotate(93.1)" xlink:href="#linear-gradient-13"/>
    <linearGradient id="linear-gradient-18" x1="481.31" y1="306.04" x2="480.51" y2="323.28" gradientTransform="translate(-142.98 -287.06) rotate(27.95)" xlink:href="#linear-gradient-13"/>
    <radialGradient id="radial-gradient" cx="146.55" cy="216.63" r="9.21" gradientTransform="matrix(0.81, -0.21, 0.37, 0.95, -49.6, 48.88)" gradientUnits="userSpaceOnUse">
      <stop offset="0" stop-color="#fbce3b"/>
      <stop offset="0.45" stop-color="#fbc53b"/>
      <stop offset="0.99" stop-color="#fbb33b"/>
    </radialGradient>
    <linearGradient id="linear-gradient-19" x1="148.46" y1="69.47" x2="228.53" y2="69.47" gradientTransform="matrix(-0.82, 0.58, 0.58, 0.82, 222.79, 95.91)" xlink:href="#linear-gradient"/>
  </defs>
  <title>StrawberryBush_1</title>
  <g id="Layer_2" data-name="Layer 2">
    <g id="Layer_1-2" data-name="Layer 1">
      <g>
        <path class="cls-1" d="M172.65,126.26C177,127.3,185.38,108,189.19,97a131.38,131.38,0,0,0,6-24.93c-5.07,6.28-9.29,11.76-12.55,16.1-9.26,12.28-11.11,15.69-12.13,20.11C168.73,116,169.76,125.58,172.65,126.26Z"/>
        <path class="cls-2" d="M100.89,250a7.77,7.77,0,0,1,2.33-.13,42.27,42.27,0,0,1-2.55-3.66A43.13,43.13,0,0,1,97,238.84a9.09,9.09,0,0,1,1.54-.54,8.46,8.46,0,0,1,2.55-.23,14.29,14.29,0,0,1-3.81-5.77,13.51,13.51,0,0,1-.65-2.71,4.66,4.66,0,0,1,2.19-.62,4.71,4.71,0,0,1,2.54.66,19.63,19.63,0,0,1-2.51-6.82,19.41,19.41,0,0,1,0-6.27l3.28.48a15.73,15.73,0,0,1,2.63-11.59l2.73,1.4a22.42,22.42,0,0,1,2.16-11,7.21,7.21,0,0,1,2,.78,6.86,6.86,0,0,1,1.83,1.52,14,14,0,0,1,3.92-7.72,13.07,13.07,0,0,1,3.17-2.27,24.51,24.51,0,0,1,4-5.11,25.68,25.68,0,0,1,12.17-6.49,11.37,11.37,0,0,1,3.84,4.73L142.2,179c1.15,1,2.34,2.15,3.55,3.42a56.09,56.09,0,0,1,5.73,7.18l2.71-1a19.26,19.26,0,0,1,2.31,3.56,19.62,19.62,0,0,1,2,7.19A6.94,6.94,0,0,1,162,197.2a6.56,6.56,0,0,1,1.5-.18,11.6,11.6,0,0,1,1.53,11l3.16-1.51a19.71,19.71,0,0,1,1.52,7.38,19.41,19.41,0,0,1-.55,4.81,4.41,4.41,0,0,1,3-.68,4.06,4.06,0,0,1,1.54.55,15.28,15.28,0,0,1-1.13,7.86,14.38,14.38,0,0,1-2.11,3.45,3.91,3.91,0,0,1,2.72.45,3.77,3.77,0,0,1,1.15,1.06,13.48,13.48,0,0,1-1.43,3.9,13.83,13.83,0,0,1-2.9,3.66,4.29,4.29,0,0,1,2.59.3,4.13,4.13,0,0,1,1.18.85,20.7,20.7,0,0,1-8,10.19,18.41,18.41,0,0,1,9,3.57,39.5,39.5,0,0,1-18.88,16.72,38.74,38.74,0,0,1-18.11,2.74,43.44,43.44,0,0,1-26.67-6.54,42.62,42.62,0,0,1-14-14.77A8,8,0,0,1,100.89,250Z"/>
        <path class="cls-3" d="M118.65,237.51a23.52,23.52,0,0,1,7.68-13,4.19,4.19,0,0,1,1.41,1.5,4.5,4.5,0,0,1,.42,1.14,20.64,20.64,0,0,1,8-8.84A17.82,17.82,0,0,1,138.9,217a6.44,6.44,0,0,1,1,1.6,7.23,7.23,0,0,1,.41,1.33,32.62,32.62,0,0,1,7.54-7.68c.75-.55,1.51-1,2.24-1.49a10.14,10.14,0,0,1,2.1,2.71,10,10,0,0,1,.81,2.05,19.66,19.66,0,0,1,8.9-5.58,19.09,19.09,0,0,1,4.4-.72,12.44,12.44,0,0,1-.19,3,13.15,13.15,0,0,1-.4,1.59,51.72,51.72,0,0,1,18.17-4.76,51,51,0,0,1,6.52,0,23.59,23.59,0,0,1,.17,3.71,25,25,0,0,1-.37,3.58l2.9-.46a31.32,31.32,0,0,1,1.89,5.88,32,32,0,0,1,.43,11l3.67-.17a21,21,0,0,1-.75,8.26,20.79,20.79,0,0,1-2.13,4.78,18.6,18.6,0,0,1,3.33.49,18.37,18.37,0,0,1,3.64,1.31,47.1,47.1,0,0,1-6.4,12l3.6.61a16.72,16.72,0,0,1-6.69,13.89,6.9,6.9,0,0,1,2.24.32,6.7,6.7,0,0,1,2.52,1.49,23.19,23.19,0,0,1-3,4.07,24,24,0,0,1-7.75,5.63,4.94,4.94,0,0,1,2.21,1.33,5,5,0,0,1,1.22,2.13,24.42,24.42,0,0,1-20.78,9l3.15,4a52.77,52.77,0,0,1-12.38,5.73c-4.9,1.53-19.06,5.72-34.45-1a44.35,44.35,0,0,1-26.24-48.81,18.06,18.06,0,0,1,4.75,1.34,18.62,18.62,0,0,1,3.58,2.09,39,39,0,0,1-.48-8.08,39.92,39.92,0,0,1,1.19-8c.71.14,1.43.29,2.17.46l1.55.39a27.36,27.36,0,0,1,.83-8.17q.28-1.09.63-2.07a10.28,10.28,0,0,1,2,.62A10.7,10.7,0,0,1,118.65,237.51Z"/>
        <g>
          <path class="cls-4" d="M236.41,183.12c-4.31-.68-24.12-3.49-30.21,5.86-8.14,12.48,9.07,56.62,30,56.83s38.83-43.09,31-55.89C261.07,180,239.93,182.64,236.41,183.12Z"/>
          <path class="cls-5" d="M235.63,177.26s18-5.33,21.16-.89-2.16,4.66-2.16,4.66,5.65,3.47,5.2,5.95-7,.71-7,.71,3.24,6.32,1.6,7.38-10.83-3.65-10.83-3.65-1.48,6.41-3.12,5.88-6.24-6.88-8.22-6.54-7.89,6.18-9.47,5.68-.51-8.82-.51-8.82-10,.24-9.89-3,7-3.62,7-3.62-5.23-2.26-3.87-4.26S229,175.63,235.63,177.26Z"/>
          <path class="cls-6" d="M251.06,229.92c.79.45.88,2,.58,2.9-.62,2-3.3,3-4.26,2.36-.78-.54-.49-2.29.11-3.34C248.27,230.47,250.1,229.37,251.06,229.92Z"/>
          <path class="cls-6" d="M239.48,238.12c-.2,1-1.58,1.37-2.41,1.39-1.36.05-2.89-.83-2.89-1.66,0-1.09,2.58-2.52,4.17-1.67A2,2,0,0,1,239.48,238.12Z"/>
          <path class="cls-6" d="M263,207c.88.48.83,1.92.61,2.71-.36,1.31-1.66,2.51-2.46,2.26-1-.32-1.63-3.21-.33-4.47A2,2,0,0,1,263,207Z"/>
          <path class="cls-6" d="M243.4,223.9c.39.73-.82,2.24-2.12,2.95-1,.52-2.53.91-3,.32s.44-2.52,1.9-3.3C241.36,223.26,243.05,223.23,243.4,223.9Z"/>
          <path class="cls-6" d="M251.69,203.9c.95.39.66,2.32-.28,3.64-.7,1-2.17,2.17-3.07,1.94s-1.29-2.34-.21-3.8C249,204.52,250.82,203.55,251.69,203.9Z"/>
          <path class="cls-6" d="M253.29,218.26c1,1.43-.1,3.31-.53,4.08-.35.62-1.17,2.09-2.11,2s-1.62-1.92-1.68-3.21c-.07-1.44.49-3.71,2-4A2.47,2.47,0,0,1,253.29,218.26Z"/>
          <path class="cls-6" d="M262.64,193c1.14.26,1.32,2.24,1.35,2.49.13,1.43-.45,3.29-1.33,3.41-1.08.14-2.94-2.34-2.28-4.21C260.71,193.74,261.74,192.78,262.64,193Z"/>
          <path class="cls-6" d="M233.16,212.8c-.79.45-.88,1.95-.58,2.9.62,2,3.3,3,4.25,2.36.79-.54.49-2.29-.1-3.34C235.94,213.35,234.12,212.25,233.16,212.8Z"/>
          <path class="cls-6" d="M236,204c.2,1,1.58,1.36,2.4,1.39,1.36,0,2.9-.83,2.9-1.67,0-1.08-2.58-2.52-4.17-1.66A2,2,0,0,0,236,204Z"/>
          <path class="cls-6" d="M211.84,205c-1,.28-1.22,1.7-1.17,2.52.08,1.36,1.09,2.8,1.92,2.73,1.08-.1,2.28-2.8,1.28-4.3A2,2,0,0,0,211.84,205Z"/>
          <path class="cls-6" d="M224.33,229.82c-.39.72.82,2.24,2.13,2.94,1,.52,2.52.91,3,.32s-.43-2.52-1.9-3.29C226.37,229.18,224.69,229.15,224.33,229.82Z"/>
          <path class="cls-6" d="M223.5,204.34c-1,.17-1.14,2.12-.5,3.61.48,1.1,1.65,2.59,2.59,2.54s1.75-2,1-3.66C226,205.52,224.42,204.18,223.5,204.34Z"/>
          <path class="cls-6" d="M218.89,218c-1.23,1.19-.6,3.26-.35,4.1.21.68.7,2.29,1.64,2.39s2-1.54,2.33-2.78c.36-1.39.3-3.73-1.09-4.33A2.47,2.47,0,0,0,218.89,218Z"/>
          <path class="cls-6" d="M215.11,191.35c-1.17,0-1.77,1.91-1.84,2.14-.44,1.38-.26,3.32.57,3.62,1,.37,3.37-1.66,3.12-3.63C216.83,192.49,216,191.33,215.11,191.35Z"/>
        </g>
        <g>
          <path class="cls-7" d="M71.14,84.9c-4.31-.68-24.12-3.49-30.21,5.85-8.14,12.48,9.07,56.62,30,56.84,20.8.21,38.83-43.09,31-55.9C95.8,81.73,74.66,84.41,71.14,84.9Z"/>
          <path class="cls-8" d="M70.36,79s18-5.33,21.16-.89-2.16,4.65-2.16,4.65,5.65,3.47,5.2,6-7,.71-7,.71,3.24,6.32,1.6,7.37S78.28,93.2,78.28,93.2s-1.48,6.4-3.12,5.87-6.24-6.88-8.22-6.54-7.89,6.19-9.47,5.68S57,89.39,57,89.39s-10,.24-9.89-3,7-3.62,7-3.62-5.24-2.25-3.87-4.26S63.68,77.4,70.36,79Z"/>
          <path class="cls-6" d="M85.79,131.69c.79.46.87,1.95.57,2.91-.61,2-3.29,3-4.25,2.36-.78-.54-.49-2.29.11-3.34C83,132.24,84.83,131.15,85.79,131.69Z"/>
          <path class="cls-6" d="M70.49,142.73c-.77-.64-.46-2-.1-2.78.59-1.22,2.08-2.17,2.82-1.78,1,.51,1,3.46-.47,4.46A2,2,0,0,1,70.49,142.73Z"/>
          <path class="cls-6" d="M97.68,107.37c.88.49.83,1.93.61,2.72-.37,1.31-1.66,2.51-2.46,2.26-1-.33-1.63-3.21-.34-4.48A2,2,0,0,1,97.68,107.37Z"/>
          <path class="cls-6" d="M76.39,125.73a2.13,2.13,0,0,1,2.45,1.77,2.29,2.29,0,0,1-1.4,2.29c-1.13.35-2.93-.45-3-1.61A2.76,2.76,0,0,1,76.39,125.73Z"/>
          <path class="cls-6" d="M86.49,101.73a2.11,2.11,0,0,1,2.44,1.77,2.27,2.27,0,0,1-1.39,2.29c-1.14.35-2.93-.45-3-1.61A2.75,2.75,0,0,1,86.49,101.73Z"/>
          <path class="cls-6" d="M68.19,118.71c1,.39.66,2.32-.28,3.64-.7,1-2.17,2.18-3.07,1.94s-1.29-2.34-.21-3.8C65.48,119.33,67.32,118.36,68.19,118.71Z"/>
          <path class="cls-6" d="M92.06,120.57c.94,1.43-.11,3.32-.54,4.08s-1.17,2.09-2.11,2-1.62-1.92-1.68-3.21.49-3.7,2-4A2.47,2.47,0,0,1,92.06,120.57Z"/>
          <path class="cls-6" d="M95,96.71a2.51,2.51,0,0,1,2.38-1.34c1.2.21,1.39,1.78,1.42,2,.14,1.14-.48,2.61-1.4,2.7C96.28,100.16,94.32,98.19,95,96.71Z"/>
          <path class="cls-6" d="M78.54,112c-.79.45-.87,1.94-.57,2.9.62,2,3.3,3,4.25,2.36.78-.54.49-2.29-.11-3.34C81.33,112.57,79.5,111.48,78.54,112Z"/>
          <path class="cls-6" d="M66.74,104c.2,1,1.58,1.37,2.41,1.4,1.36,0,2.89-.83,2.89-1.67,0-1.09-2.58-2.52-4.17-1.66A2,2,0,0,0,66.74,104Z"/>
          <path class="cls-6" d="M46.57,106.73c-1,.29-1.22,1.7-1.17,2.52.08,1.36,1.09,2.81,1.92,2.73,1.08-.1,2.28-2.79,1.28-4.3A2,2,0,0,0,46.57,106.73Z"/>
          <path class="cls-6" d="M59.06,131.59c-.39.73.82,2.24,2.13,2.95,1,.52,2.52.91,3,.32s-.44-2.52-1.9-3.3C61.1,131,59.41,130.92,59.06,131.59Z"/>
          <path class="cls-6" d="M58.23,106.11c-1,.17-1.14,2.13-.5,3.61.48,1.1,1.65,2.59,2.59,2.55s1.75-2,1-3.67C60.74,107.29,59.15,106,58.23,106.11Z"/>
          <path class="cls-6" d="M53.62,119.8c-1.23,1.2-.6,3.26-.35,4.1.21.68.7,2.29,1.64,2.4s2-1.54,2.33-2.79.3-3.72-1.1-4.32A2.46,2.46,0,0,0,53.62,119.8Z"/>
          <path class="cls-6" d="M49.84,93.12c-1.17,0-1.77,1.91-1.85,2.15-.43,1.37-.25,3.31.58,3.61,1,.38,3.37-1.65,3.12-3.63C51.56,94.27,50.76,93.11,49.84,93.12Z"/>
        </g>
        <g>
          <path class="cls-9" d="M32.17,210c-4.45-.41-24.9-2-30.56,7.75-7.56,13,12.78,55.94,34.23,54.83,21.3-1.1,37.09-45.46,28.26-57.74C57.22,205.33,35.74,209.34,32.17,210Z"/>
          <path class="cls-10" d="M12.89,209.05s-5.82-1.87-4.47-4,14.57-2.12,21.93-1c0,0,19.21-6.62,22.89-2.41s-2,4.8-2,4.8,6.36,3.06,6,5.57-7.6,1.21-7.6,1.21,3.93,6.07,2.21,7.24-12-2.85-12-2.85-1.18,6.49-3,6.09-7.23-6.42-9.35-5.94-8.16,6.74-9.9,6.35-1.14-8.77-1.14-8.77-10.88,1-10.92-2.23S12.89,209.05,12.89,209.05Z"/>
          <path class="cls-6" d="M48.53,255.85c.82.4,1,1.89.77,2.86-.49,2-3.09,3.23-4.09,2.64-.81-.49-.64-2.25-.11-3.34C45.79,256.58,47.54,255.37,48.53,255.85Z"/>
          <path class="cls-6" d="M37.52,264.8c-.13,1-1.49,1.47-2.31,1.55-1.35.13-2.94-.64-3-1.47-.08-1.09,2.4-2.69,4.05-1.94A2,2,0,0,1,37.52,264.8Z"/>
          <path class="cls-6" d="M61.2,219.46c-.14,1-1.49,1.47-2.31,1.55-1.36.14-2.94-.64-3-1.47-.07-1.08,2.41-2.68,4-1.94A2,2,0,0,1,61.2,219.46Z"/>
          <path class="cls-6" d="M59.64,239.6c.9.43,1,1.87.78,2.67-.27,1.33-1.49,2.62-2.3,2.42-1-.26-1.84-3.1-.63-4.44A2,2,0,0,1,59.64,239.6Z"/>
          <path class="cls-6" d="M39.81,251.84c.43.71-.68,2.29-1.93,3.08-.93.59-2.47,1.08-2.94.52s.27-2.54,1.67-3.41C37.73,251.34,39.41,251.2,39.81,251.84Z"/>
          <path class="cls-6" d="M46.43,228.15c1,.32.82,2.27,0,3.65-.63,1-2,2.31-2.93,2.13S42,231.69,43,230.16C43.77,229,45.54,227.85,46.43,228.15Z"/>
          <path class="cls-6" d="M50,244.07c1,1.37.11,3.31-.26,4.11-.31.64-1,2.16-2,2.12s-1.74-1.81-1.89-3.09c-.15-1.43.25-3.73,1.72-4.12A2.47,2.47,0,0,1,50,244.07Z"/>
          <path class="cls-6" d="M55.71,226.78c1.16.19,1.47,2.15,1.51,2.39.23,1.43-.23,3.32-1.09,3.49-1.08.22-3.1-2.13-2.56-4C53.84,227.66,54.81,226.63,55.71,226.78Z"/>
          <path class="cls-6" d="M11.58,244c-.76.51-.74,2-.38,2.94.75,1.92,3.49,2.79,4.4,2.07.74-.59.34-2.32-.33-3.33C14.4,244.31,12.5,243.34,11.58,244Z"/>
          <path class="cls-6" d="M26.38,225.57c.27,1,1.67,1.26,2.5,1.23,1.36-.05,2.83-1,2.77-1.86-.07-1.08-2.74-2.34-4.27-1.38A2,2,0,0,0,26.38,225.57Z"/>
          <path class="cls-6" d="M7.75,233.54c-.94.35-1.11,1.78-1,2.59.16,1.35,1.27,2.73,2.09,2.6,1.08-.17,2.09-2.94,1-4.38A2,2,0,0,0,7.75,233.54Z"/>
          <path class="cls-6" d="M21.85,257.52c-.34.75,1,2.18,2.32,2.8,1,.45,2.58.74,3,.12s-.6-2.48-2.11-3.16C23.85,256.75,22.16,256.83,21.85,257.52Z"/>
          <path class="cls-6" d="M20.75,230.61c-1,.24-1,2.2-.25,3.64.55,1.06,1.82,2.47,2.75,2.36s1.61-2.11.77-3.72C23.34,231.62,21.66,230.39,20.75,230.61Z"/>
          <path class="cls-6" d="M21.34,245.55c-1.15,1.28-.38,3.29-.07,4.11s.85,2.24,1.8,2.28S25,250.28,25.2,249s.06-3.73-1.38-4.24A2.48,2.48,0,0,0,21.34,245.55Z"/>
          <path class="cls-6" d="M10.11,219.74c-1.16.1-1.64,2-1.7,2.27-.34,1.4,0,3.32.81,3.57,1,.3,3.26-1.88,2.88-3.83C11.91,220.77,11,219.67,10.11,219.74Z"/>
          <path class="cls-6" d="M34.35,239.39c-1.16.1-1.63,2-1.69,2.26-.35,1.4,0,3.33.81,3.57,1.05.31,3.25-1.87,2.87-3.82C36.15,240.42,35.27,239.31,34.35,239.39Z"/>
        </g>
        <path class="cls-11" d="M155.12,304.89H128.5c-8.13-40.86-10.08-94.89,15.62-146,5.23-10.4,35.16-69.93,64.5-64.5,26.36,4.88,37.61,59.49,31.5,81.5-.46,1.64-2,6.9-3.92,6.86-4-.1-7.34-23.38-9.58-38.86-1.07-7.37-1.13-9.18-2.4-12.94-2.6-7.71-9.49-21.29-18.6-22.06-7.54-.64-14,7.77-18.5,14-35.55,49-38.4,111.57-38.5,114.5A263.41,263.41,0,0,0,155.12,304.89Z"/>
        <path class="cls-12" d="M112.32,305.59c3-61.45-11.43-100.39-22-121.5-15.37-30.7-26.38-31.1-29-31-9.87.38-19.41,12.64-23,23.25-5.25,15.54.82,31.93-5.57,34.54a4.08,4.08,0,0,1-2.43.21c-7-1.67-10.89-24.78-5-42,5.21-15.24,20-32.6,37.5-33,21-.49,35.54,23.83,45.5,40.5,11.53,19.3,31.73,61.63,25.5,129.5Z"/>
        <path class="cls-13" d="M118.6,288.4c1-96.55,2.4-166.1,4.24-220.09.57-17,1.82-51.53-10.16-55.47-9.17-3-24.47,12.51-31.89,27.53-10.54,21.31-6.06,43.26-9.1,43.5-1.88.15-4.39-8.57-5.18-16-.38-3.5-1.63-18.44,7.93-35.7C85.44,12.34,106.09-3,116.64.49a20.11,20.11,0,0,1,8.57,5.61c1.93,2.34,2.87,4.86,4,7.92a62.09,62.09,0,0,1,2.22,7.84c4.47,21,4.41,42.78,4.41,42.78,0,14.64.9,29.27.93,43.9,0,8.54.62,29.26,1.83,70.71.76,26,2,63.52,4.08,112Z"/>
        <g>
          <path class="cls-14" d="M141.5,223c-4.91-3.76-10-.54-12.08,1.84-.73.85-3.14,3.65-2,7.4s4.86,5.69,6,6.3c3,1.54,8.89,3.23,11.63-.9C147.68,233.71,146,226.46,141.5,223Z"/>
          <path class="cls-15" d="M143.25,232.08c-3.78,3.36-1.4,10.51.52,13.92.69,1.22,2.95,5.24,6.37,6s5.49-2.32,6.15-3.27c1.64-2.38,3.68-7.91.27-13C153.3,230.89,146.72,229,143.25,232.08Z"/>
          <path class="cls-16" d="M152.47,235.52c1.86,6,8.4,8.16,11.72,8.41,1.19.09,5.1.39,6.55-2.61s-.57-7-1.19-8.3c-1.58-3.18-5.67-8.79-10.72-8.59C154,224.62,150.77,230.05,152.47,235.52Z"/>
          <path class="cls-17" d="M158.72,229c5.47,1.55,8.51-4,9.32-7.31.29-1.18,1.24-5.08-1.08-8.35s-6.15-3.51-7.35-3.6c-3-.21-8.56.78-9.29,6.17C149.62,221,153.71,227.54,158.72,229Z"/>
          <path class="cls-18" d="M154,219c4-3.11,1.92-10.3.15-13.78-.64-1.25-2.72-5.34-6.15-6.26s-5.66,2-6.36,2.87c-1.77,2.25-4.1,7.6-.91,12.78C143.76,219.59,150.31,221.84,154,219Z"/>
          <path class="cls-19" d="M144.13,215.3c-1.73-6-8.25-8.34-11.59-8.68-1.19-.12-5.11-.52-6.63,2.41s.41,7,1,8.29c1.51,3.2,5.5,8.9,10.58,8.84C142.37,226.1,145.72,220.79,144.13,215.3Z"/>
          <path class="cls-20" d="M141.1,218.82a7.06,7.06,0,0,0-1.18,3.88,11.67,11.67,0,0,0,1.17,5.07,11.81,11.81,0,0,0,1.64,2.88,10.25,10.25,0,0,0,3.86,3c2.76,1.25,5.91,1.05,7.9-.78a6.36,6.36,0,0,0,1.75-2.85,9.09,9.09,0,0,0,0-4.46c-.26-1.22-1.12-5.29-4.31-7.57a8.17,8.17,0,0,0-5.35-1.42C145.31,216.59,142.69,216.63,141.1,218.82Z"/>
        </g>
        <path class="cls-21" d="M150.35,250.6a64.94,64.94,0,0,1,3.62,23,4.34,4.34,0,0,1,4.51-1.49,32.7,32.7,0,0,1-20.91,32.16,53.25,53.25,0,0,1-32.36,2.53,52.24,52.24,0,0,1-20.37-10.13,16.4,16.4,0,0,1,4-2.72,16.08,16.08,0,0,1,3.38-1.19,25.22,25.22,0,0,1-15-10,24.43,24.43,0,0,1-4.22-12.27l3.72-.18c-1.85-2.19-6.78-8.63-6.57-17.55a23.87,23.87,0,0,1,1.3-7.24c.92.27,1.87.59,2.86.94l1.65.63a36.39,36.39,0,0,1-.43-8,38.15,38.15,0,0,1,.87-6.1l3.6-.23a25.5,25.5,0,0,1,.43-8,26.12,26.12,0,0,1,5.4-11.07,33.12,33.12,0,0,1,16,4.06,31.55,31.55,0,0,1,6.07,4.36c.55-.91,1.09-1.82,1.63-2.73a23.29,23.29,0,0,1,4.58,2.92,23.82,23.82,0,0,1,5.55,6.5,11.24,11.24,0,0,1,1-1.94,12.09,12.09,0,0,1,2.09-2.42q1.4,1.47,2.84,3.28a48.07,48.07,0,0,1,4.09,6.09l2.07-2a32,32,0,0,1,3.35,3.47,33.45,33.45,0,0,1,4.8,7.67l2.31-1.45a20.6,20.6,0,0,1,2.49,3.43,21.11,21.11,0,0,1,2.69,8.62,4.17,4.17,0,0,1,.93-1.68A4.25,4.25,0,0,1,150.35,250.6Z"/>
      </g>
    </g>
  </g>
</svg>
