<svg xmlns="http://www.w3.org/2000/svg" xmlns:xlink="http://www.w3.org/1999/xlink" width="224" height="845.883" viewBox="0 0 224 845.883">
  <defs>
    <linearGradient id="a" y1="422.942" x2="224" y2="422.942" gradientUnits="userSpaceOnUse">
      <stop offset="0" stop-color="#005437"/>
      <stop offset="1" stop-color="#006837"/>
    </linearGradient>
  </defs>
  <title>TallTree_9</title>
  <path d="M102.667,845.883h28S224,752,224,675.336,187.333,598,187.333,598s52-151.333,32-181.333-44-2-44-2S202.667,282,192,246s-29.333-29.333-29.333-29.333S181.333.669,136.667,0,93.333,138,93.333,138,64,130,64,170.669s22,128,22,128-56-8.667-56,56,10,74,10,74S5.333,428,5.333,497.336,48.667,618.669,48.667,618.669,0,606,0,674.669,102.667,845.883,102.667,845.883Z" fill="url(#a)"/>
</svg>
