<svg xmlns="http://www.w3.org/2000/svg" xmlns:xlink="http://www.w3.org/1999/xlink" width="209.56" height="792.455" viewBox="0 0 209.56 792.455">
  <defs>
    <linearGradient id="a" y1="396.227" x2="209.56" y2="396.227" gradientUnits="userSpaceOnUse">
      <stop offset="0" stop-color="#5a8539"/>
      <stop offset="1" stop-color="#46952f"/>
    </linearGradient>
  </defs>
  <title>TallTree_22</title>
  <path d="M73.082,792.455s-6.164-95.976-49.308-150.567S39.623,539.75,53.711,560C53.711,560,0,465.787,0,385.661s50.189-77.484,50.189-77.484S26.415,146.164,82.767,150.566c0,0-32.578-150.566,31.7-150.566s20.251,157.61,20.251,157.61,49.912-24.334,49.912,86.45-19.094,150.406-19.094,150.406,44.025-33.459,44.025,86.29-51.95,169.937-51.95,169.937,26.416-8.771,26.416,18.491-73.963,123.271-73.963,123.271Z" fill="url(#a)"/>
</svg>
