<svg xmlns="http://www.w3.org/2000/svg" xmlns:xlink="http://www.w3.org/1999/xlink" width="209.56" height="792.45" viewBox="0 0 209.56 792.45">
  <defs>
    <style>
      .cls-1 {
        fill: url(#linear-gradient);
      }
    </style>
    <linearGradient id="linear-gradient" y1="396.23" x2="209.56" y2="396.23" gradientUnits="userSpaceOnUse">
      <stop offset="0" stop-color="#2b773e"/>
      <stop offset="1" stop-color="#27954f"/>
    </linearGradient>
  </defs>
  <title>TallTree_17</title>
  <g id="Layer_2" data-name="Layer 2">
    <g id="Layer_1-2" data-name="Layer 1">
      <path class="cls-1" d="M73.08,792.45s-6.16-96-49.31-150.56S39.62,539.75,53.71,560C53.71,560,0,465.79,0,385.66s50.19-77.48,50.19-77.48-23.77-162,32.58-157.61c0,0-32.58-150.57,31.7-150.57s20.25,157.61,20.25,157.61,49.91-24.33,49.91,86.45-19.1,150.41-19.1,150.41,44-33.46,44,86.29-51.95,169.93-51.95,169.93S184,641.92,184,669.18s-74,123.27-74,123.27Z"/>
    </g>
  </g>
</svg>
