<svg xmlns="http://www.w3.org/2000/svg" xmlns:xlink="http://www.w3.org/1999/xlink" width="224" height="845.88" viewBox="0 0 224 845.88">
  <defs>
    <style>
      .cls-1 {
        fill: url(#linear-gradient);
      }
    </style>
    <linearGradient id="linear-gradient" y1="422.94" x2="224" y2="422.94" gradientUnits="userSpaceOnUse">
      <stop offset="0" stop-color="#005437"/>
      <stop offset="1" stop-color="#006837"/>
    </linearGradient>
  </defs>
  <title>TallTree_9</title>
  <g id="Layer_2" data-name="Layer 2">
    <g id="Layer_1-2" data-name="Layer 1">
      <path class="cls-1" d="M102.67,845.88h28S224,752,224,675.34,187.33,598,187.33,598s52-151.33,32-181.33-44-2-44-2S202.67,282,192,246s-29.33-29.33-29.33-29.33S181.33.67,136.67,0,93.33,138,93.33,138,64,130,64,170.67s22,128,22,128-56-8.67-56,56,10,74,10,74S5.33,428,5.33,497.34,48.67,618.67,48.67,618.67,0,606,0,674.67,102.67,845.88,102.67,845.88Z"/>
    </g>
  </g>
</svg>
