<svg xmlns="http://www.w3.org/2000/svg" xmlns:xlink="http://www.w3.org/1999/xlink" width="193.015" height="844.948" viewBox="0 0 193.015 844.948">
  <defs>
    <linearGradient id="a" y1="422.474" x2="193.015" y2="422.474" gradientUnits="userSpaceOnUse">
      <stop offset="0" stop-color="#5a8539"/>
      <stop offset="1" stop-color="#46952f"/>
    </linearGradient>
  </defs>
  <title>TallTree_7</title>
  <path d="M91.587,844.948S27.817,765.236,6.561,685.524,22.5,584.555,22.5,584.555s-21.256-85.026-5.314-90.34,21.256,5.314,21.256,5.314S6.561,387.932,17.189,334.791s47.827-85.027,47.827-85.027S27.817,217.88,43.76,186s37.2-31.885,37.2-31.885S80.959,0,107.529,0s31.885,186,21.257,201.937c0,0,21.256-15.942,26.571,21.257s0,201.937,0,201.937,42.513-10.628,37.2,31.885-26.57,116.911-26.57,116.911,26.57,5.314,26.57,42.513S134.1,844.948,134.1,844.948Z" fill="url(#a)"/>
</svg>
