<svg xmlns="http://www.w3.org/2000/svg" xmlns:xlink="http://www.w3.org/1999/xlink" width="193.02" height="844.95" viewBox="0 0 193.02 844.95">
  <defs>
    <style>
      .cls-1 {
        fill: url(#linear-gradient);
      }
    </style>
    <linearGradient id="linear-gradient" y1="422.47" x2="193.02" y2="422.47" gradientUnits="userSpaceOnUse">
      <stop offset="0" stop-color="#2b773e"/>
      <stop offset="1" stop-color="#27954f"/>
    </linearGradient>
  </defs>
  <title>TallTree_4</title>
  <g id="Layer_2" data-name="Layer 2">
    <g id="Layer_1-2" data-name="Layer 1">
      <path class="cls-1" d="M91.59,845s-63.77-79.71-85-159.43,15.94-101,15.94-101-21.25-85-5.31-90.35,21.26,5.32,21.26,5.32S6.56,387.93,17.19,334.79s47.83-85,47.83-85S27.82,217.88,43.76,186,81,154.11,81,154.11,81,0,107.53,0s31.88,186,21.26,201.94c0,0,21.25-15.95,26.57,21.25s0,201.94,0,201.94,42.51-10.63,37.2,31.89S166,573.93,166,573.93s26.58,5.31,26.58,42.51S134.1,845,134.1,845Z"/>
    </g>
  </g>
</svg>
