<svg xmlns="http://www.w3.org/2000/svg" xmlns:xlink="http://www.w3.org/1999/xlink" width="899.579" height="1423.639" viewBox="0 0 899.579 1423.639">
  <defs>
    <linearGradient id="a" x1="437.283" y1="1128.903" x2="570.776" y2="1128.903" gradientUnits="userSpaceOnUse">
      <stop offset="0" stop-color="#66421f"/>
      <stop offset="1" stop-color="#754c24"/>
    </linearGradient>
    <linearGradient id="b" y1="460.407" x2="899.579" y2="460.407" gradientUnits="userSpaceOnUse">
      <stop offset="0" stop-color="#2b773e"/>
      <stop offset="1" stop-color="#27954f"/>
    </linearGradient>
  </defs>
  <title>Tree_25</title>
  <g>
    <path d="M482.281,1423.639s-45-289.486-45-589.471h40.5s24,410.979,92.995,589.471Z" fill="url(#a)"/>
    <path d="M897.633,325.452c-10.79,16.39-36.191,3.2-36.191,3.2s5.84,21.47-9.91,27.56c-13.2,5.09-21.49.22-23.83-1.49,2.73,2.24,12.681,11.19,12.51,22.24-.13,8.59-4.22,10.331-6.9,10.55,6.071.531,22.16,2.9,23.1,13.051,1.16,12.509-11.359,13.669-11.359,13.669s10.639,3.48,6.319,10.041c-4.19,6.359-8.93,3.509-9.22,3.33.22.519,7.33,17.349-7.86,24.019,4.3,6.18,7.95,14.99,4.49,24.921-2.56,7.359-6.77,10.509-10.979,11.609.149.38.3.75.439,1.15,6.9,19.3-9.609,23.11-9.609,23.11s20.319,12.71,14.009,23.841-14.25,9.589-14.25,9.589,17.94,23.64,3.07,40.14-31.17,5.55-31.17,5.55,2.47,9.7-2.28,12.89-13.52,4.64-13.52,4.64,11.04,4.34,8.55,13.32c-2.22,8.01-8.04,6.81-9.26,6.46,1.38.46,8.4,3.19,5.22,10.45-3.46,7.93-13.23,4.74-13.51,4.65.51.6,20.79,24.63,10.8,37.76-10.13,13.31-39.739,10.91-39.739,10.91s8.649,15.28-7.151,32.81-28.49,19.16-28.49,19.16-8.72,18.05-22.91,16.88a33.654,33.654,0,0,1-6.24,4.74c15.6,28.08-12.48,37.44-12.48,37.44,0,28.07-23.4,24.95-23.4,24.95-6.111,16.81-24.2,11.161-24.931,10.93.5.3,10.75,6.76,4.66,28.07-6.24,21.83-35.88,18.71-35.88,18.71s-6.24,43.68-38.99,32.76-24.96-43.68-24.96-43.68-14.03,7.8-29.63,6.24-23.4-15.59-23.4-15.59-6.24,20.27-29.63,18.71-26.52-20.27-26.52-20.27c-10.92-4.68-15.6,4.67-15.6,4.67-1.56,9.361-20.28,17.16-34.31,3.12-13.84-13.83,1.12-35.25,1.55-35.86-.46.16-12.56,4.55-17.149-1.57-4.681-6.24,0-12.48,0-12.48a15.548,15.548,0,0,1-6.241-1.56c-3.12-1.56-3.12-6.24-3.12-6.24s-14.04,17.16-26.51,14.04-10.919-14.04-10.919-14.04a13.683,13.683,0,0,1-14.041-7.8c-4.68-9.351,4.68-15.591,4.68-15.591-1.41-2.84,1.02-9.51,1.48-10.72-.4.87-2.44,4.28-9.28,2.92-7.8-1.56-7.8-6.24-7.8-6.24A11.847,11.847,0,0,1,255.3,781.8c-9.13-3.04-6.39-12.02-6.25-12.46-.23.32-3.4,4.43-10.9-1.58-7.27-5.81,1.7-15.67,2.97-17l-.06-.12c-2.2.42-21.81,3.59-24.75-14.07-1.92-11.54,4.45-17.74,9.62-20.8-.65-2.63-.95-4.66-.95-4.66s-4.54,10.96-13.47,8.31c-7.97-2.37-6.66-8.16-6.29-9.39-.48,1.38-3.34,8.35-10.55,5.04-7.98-3.67-4.38-13.61-4.38-13.61s-24.86,20.47-37.97,10.1-10.17-39.93-10.17-39.93-15.44,8.371-32.67-7.75-18.64-28.85-18.64-28.85a39.676,39.676,0,0,1-4.94-3.13c-3.94,3.6-9.29,5.27-16.51,2.34-22.47-9.1-10.53-22.7-10.53-22.7s-41.3,5.4-41.07-14.23,28.73-22.24,28.73-22.24-16.51-14.92-6.53-28.55c8.35-11.41,17.96-11.79,20.85-11.61-3.5-.42-16.72-2.58-22.54-11.97-4.52-7.29-2.02-10.97.11-12.6-5.39,2.83-20.22,9.53-26.49,1.5-7.52-9.64,1.65-17.23,2.15-17.64-.54.13-10.81,2.6-10.72-5.04.1-7.72,5.79-7.79,5.98-7.79-.54-.369-16.36-11.24-5.58-25.59,10.97-14.59,19.7-5.66,19.7-5.66a20.987,20.987,0,0,1-1.89-6.03c-.03-.089-.07-.17-.1-.26-6.06-17.979,15.4-24.14,15.4-24.14s-14.77-4.49-10.83-13.66c3.75-8.759,8.44-6.739,8.86-6.54-.5-.51-6.87-7.05-.35-13.929a11.852,11.852,0,0,1,14.59-2.491s-2.2-4.13,3.94-9.179c5.45-4.471,8.87-2.321,9.58-1.781-.92-.8-6.29-5.58-6.37-8.77,0,0-11.2-1.089-11.48-11.549a13.676,13.676,0,0,1,8.71-13.491s-6.52-8.9,3.01-17.529,30.01-.111,30.01-.111-2.21-4.13-.19-6.98a15.484,15.484,0,0,1,4.77-4.31s-7.07-3.3-5.88-11.01,14.39-9.46,14.39-9.46-24.04-11.91-18.27-30.9,25.95-20.94,31.73-13.421c0,0,8.54,6.05,15.97-3.22,0,0-6.07-17.98,13.83-30.38s34.96,2.55,34.96,2.55.26-16.06,13.29-24.79,29.08-8.46,29.08-8.46-22.32-25.21,1.43-50.279,49.83,10.52,49.83,10.52,24.67-16.71,40.46-.391a48.674,48.674,0,0,1,5.951,7.35c10.509-4.86,16.539,1.15,16.539,1.15s-3.43-17.15,6.87-20.58a17.232,17.232,0,0,1,17.15,3.43s-3.43-17.15,17.151-17.15c15.619,0,17.409,5.93,17.359,8.79.81-3.559,4.72-12.22,23.8-12.22,24.01,0,24.01,20.58,24.01,20.58s3.43-13.72,13.72-17.15,20.58,3.43,20.58,3.43-13.719-20.58,0-37.73,41.17-6.86,41.17-6.86-34.31-41.16-10.29-65.18,65.17,13.73,65.17,13.73,0-24.02,27.441-20.59S615.7,66.313,615.7,66.313s17.15-10.29,34.31,17.149-3.43,51.45-3.43,51.45,37.73-17.15,51.45,6.861c5.72,10.02,4.28,25.389.66,39.919,21.151-5.16,27.43,14.51,27.43,14.51s8.49-13.309,25.58.341,2.2,26.889,2.2,26.889a33.907,33.907,0,0,1,17.32,4.85,26.567,26.567,0,0,1,11.23-1c27.51,2.83,25.24,33.071,25.24,33.071s5.59-21,21.43-12.921c15.6,7.961,8.54,26.071,8.33,26.62.51-.61,22.86-27.11,36.7-7.549,14,19.8-3.39,24.8-3.39,24.8S908.432,309.052,897.633,325.452Z" fill="url(#b)"/>
  </g>
</svg>
