<svg xmlns="http://www.w3.org/2000/svg" xmlns:xlink="http://www.w3.org/1999/xlink" width="753.68" height="1019.59" viewBox="0 0 753.68 1019.59">
  <defs>
    <style>
      .cls-1 {
        fill: url(#linear-gradient);
      }

      .cls-2 {
        fill: url(#linear-gradient-2);
      }
    </style>
    <linearGradient id="linear-gradient" x1="152.9" y1="791.24" x2="447.87" y2="791.24" gradientUnits="userSpaceOnUse">
      <stop offset="0" stop-color="#66421f"/>
      <stop offset="1" stop-color="#754c24"/>
    </linearGradient>
    <linearGradient id="linear-gradient-2" x1="-244.84" y1="164.09" x2="521.11" y2="164.09" gradientTransform="translate(257.07 145.92) rotate(6.07)" gradientUnits="userSpaceOnUse">
      <stop offset="0" stop-color="#2b773e"/>
      <stop offset="1" stop-color="#27954f"/>
    </linearGradient>
  </defs>
  <title>Tree_15</title>
  <g id="Layer_2" data-name="Layer 2">
    <g id="Layer_1-2" data-name="Layer 1">
      <g>
        <path class="cls-1" d="M442.69,562.88l-6.3,1.56c8.37,48.13-27.66,116.78-47.09,149.41C377.84,637.16,363,567.16,363,567.16H300s41.34,205.3,12.85,242.8S285,801.15,198.05,846.15s-21.49,173.44-21.49,173.44l195.48-1s-61.05-24.07-52.5-78c5.35-33.68,40.35,4.82,73.35-35.68,13.33-16.37,11-74.67,3.52-138.35,6.48-25.57,16.73-56.84,32.22-82.82C461.05,629.42,442.69,562.88,442.69,562.88Z"/>
        <path class="cls-2" d="M748.51,387.65c-19.2-28.69-48.72-12.5-48.72-12.5s3.81-15.6-1.83-30.23-21.23-18.43-21.23-18.43,17.9-11.39,10.2-33.54-26.57-20.2-26.57-20.2c-7.4-9.29.38-16.28.38-16.28,8.62-4,11.18-24.09-6.07-33.91s-34.18,11-34.18,11,1.21-13.28-6-16.14-12,3.31-12,3.31a15.63,15.63,0,0,0-3.16-5.61c-2.33-2.59-6.84-1.35-6.84-1.35s12.83-18.08,6.52-29.29-16.43-6.81-16.43-6.81a13.68,13.68,0,0,0-10.72-11.34c18-26-8.7-38.19-8.7-38.19,3-27.92-20.63-27.29-20.63-27.29-4.39-17.72-23.66-13.49-23.66-13.49s11.52-5.06,7.62-27.43-33.69-22.4-33.69-22.4S491.13-6.56,457.4.84,428,41.63,428,41.63s-13.14-9.24-28.81-9.34-24.91,13-24.91,13-4.07-20.82-27.5-21.74S318.24,41,318.24,41c-11.35,3.5-15-6.3-15-6.3-.56-9.47-18.35-19.21-33.79-6.73s-2.24,35.84-2.24,35.84-11.92-6-17.23-.26-1.32,12.4-1.32,12.4a15.47,15.47,0,0,0-6.37.9c-3.26,1.22-3.76,5.87-3.76,5.87s-12.15-18.54-24.88-16.76-12.34,12.8-12.34,12.8A13.69,13.69,0,0,0,186.51,85c-5.64,8.81,3,16,3,16-1.78,2.77.15,10.12.37,10.94-.17-.61-1.62-4.68-8.95-4-7.92.73-8.42,5.38-8.42,5.38a11.82,11.82,0,0,0-13.46-6.13c-9.64,2.11-7.52,11.74-7.52,11.74s-2.61-5-11,.4,1.29,17.39,1.29,17.39-13.29-4.35-21.35,2.9c-20.78,7-18.86,22.07-18.86,22.07S49.18,127.45,35,151.21s7.83,33.39,7.83,33.39S-8.24,207.15,4.11,238.78A28.51,28.51,0,0,0,18.79,254.5c-11.1,8.74-5.42,27.8-5.42,27.8s-8.27,9.77-8.13,33.37,16.83,29.05,16.83,29.05-23.49,18.19-22,34.84,33.44,20.62,33.44,20.62-9.69,4.23-6.87,12.54c2.56,7.51,9.58,4.79,10.91,4.2-1.14.57-6.25,3.61-2.49,11,3.42,6.72,11.33,5.23,14.22,4.42a16.09,16.09,0,0,0-.74,2.16c-1.73,2.53-4.2,6.55-5,10-1.35,5.56,7,11.06,7,11.06s-19.42,2.89-19.28,25.11,29.32,27.59,29.32,27.59-6.92,4.2-4.07,16.68c2.14,9.35,15.91,9.27,22.68,8.65a16.72,16.72,0,0,0,1.53,5c-1.06,4.94-.22,12.29,10.69,18.08,9.81,5.21,15.9,3.1,19.43.07-.13,3.72.87,10.63,9.68,12.68,9.92,2.3,17.24-12.22,19.66-17.81-.64,2.61-.27,7,7.83,9.87,10.43,3.65,22.07-3,25.06-4.85-2.37,1.68-9.6,8-8.92,22.14.8,16.87,23,18.09,23,18.09s-20.53,20-8.37,35.36,40.88-14.74,40.88-14.74-.74,18.09,22.46,11c7.46-2.26,10.57-6.92,11.37-12.19a39.67,39.67,0,0,0,5.82-.67s9.09,9,32.62,10.72,30.29-14.5,30.29-14.5,16.29,24.85,33,24.67c14.77-.15,21.54-24.79,22.91-30.52l1,.36c1.38,2.72,4.92,7.89,11.27,6.27A8.53,8.53,0,0,0,393.8,611c22.16,5.64,39.92,4.1,53.72-.4a29,29,0,0,0,11,2.85c15.35,1.11,23.74-12.31,27.44-20.66,1.14,4,3.83,8.6,9.51,13.34v.12c1,16.86,23.23,17.82,23.23,17.82s-20.29,20.18-7.95,35.45,40.71-15.22,40.71-15.22-.53,18.1,22.58,10.78c14.73-4.66,12.3-18.51,8.6-28a37.81,37.81,0,0,0,6.55-2.64c14.29,8.94,26.13-6.21,26.13-6.21s1.07,16.68,20.5,17,21.14-16.26,21.14-16.26c31.9,2,22.81-31.5,22.81-31.5s8.51-9.56,9-33.16c.27-14.29-5.69-22.07-10.43-26,8.72-5.42,10-13.09,9.64-18.52,4.42-5.78,8-12.58,7.55-19.23a13,13,0,0,0-1.55-5.37,26.83,26.83,0,0,0-3.52-8.93s8.91,8.87,28.32-2.92,8.55-39.55,8.55-39.55S767.71,416.35,748.51,387.65Z"/>
      </g>
    </g>
  </g>
</svg>
