<svg xmlns="http://www.w3.org/2000/svg" xmlns:xlink="http://www.w3.org/1999/xlink" width="585.68" height="1996.06" viewBox="0 0 585.68 1996.06">
  <defs>
    <style>
      .cls-1 {
        fill: url(#linear-gradient);
      }

      .cls-2 {
        fill: url(#linear-gradient-2);
      }
    </style>
    <linearGradient id="linear-gradient" x1="254.07" y1="1552.82" x2="412.76" y2="1552.82" gradientUnits="userSpaceOnUse">
      <stop offset="0" stop-color="#66421f"/>
      <stop offset="1" stop-color="#754c24"/>
    </linearGradient>
    <linearGradient id="linear-gradient-2" x1="25.56" y1="584.35" x2="612.73" y2="584.35" gradientTransform="translate(-19.89 3.35) rotate(0.74)" gradientUnits="userSpaceOnUse">
      <stop offset="0" stop-color="#2b773e"/>
      <stop offset="1" stop-color="#27954f"/>
    </linearGradient>
  </defs>
  <title>Tree_39</title>
  <g id="Layer_2" data-name="Layer 2">
    <g id="Layer_1-2" data-name="Layer 1">
      <g>
        <path class="cls-1" d="M378,1365.67a181.21,181.21,0,0,1-11.87,26.51,176.47,176.47,0,0,1-32.76,42.26c-3.12-79-7.06-190-10.39-324.85H301.6c.82,46.7,2,117.56,3.2,204,.73,52.58,1.59,114.94,2.24,178.15-.92-1-1.83-2-2.77-3a455.59,455.59,0,0,0-50.2-45.92c11.16,11.2,22.6,23.29,34.18,36.31q9.88,11.11,18.89,22c.42,42.52.75,85.23.87,125.41.25,86.77-.3,211.9-4.28,366.33l39.52,3.21c1.71-69.48,3.1-174.52,0-303.32-2-82.84-4.74-129.91-9.2-240.67a173,173,0,0,0,29.59-36.3c10.88-17.89,15.62-33.18,19.38-45.61,8.14-26.91,18.52-63,29.74-107C398,1310.51,385.87,1344.44,378,1365.67Z"/>
        <path class="cls-2" d="M572.43,928.23c-14.22,13.54-36-5.05-36-5.05s.84,22.24-15.88,24.6c-14,2-21-4.63-22.89-6.84,2.16,2.81,9.84,13.78,7.17,24.51-2.07,8.32-6.44,9.11-9.11,8.71,5.8,1.9,20.93,7.83,19.56,17.93-1.69,12.46-14.15,10.75-14.15,10.75s9.58,5.8,3.88,11.22c-5.51,5.24-9.48,1.39-9.73,1.16.12.71,3.33,19.56-14.44,21.84a30.27,30.27,0,0,1-5.38.26c-2,21.57-22.59,21.15-22.59,21.15s9.86,12.34-8.59,24.09-26.16-6.62-26.16-6.62A33.86,33.86,0,0,1,408,1090.77a26.69,26.69,0,0,1-2.68,11c-11.39,24.67-38.47,13.6-39.44,13.2.79.54,17.74,12.36,5.26,24.44s-27.26-.2-27.87-.72c.53.89,18.18,30.42-4.73,37.16-23.26,6.85-22.37-11.23-22.37-11.23s-29,29.91-41,14.39,8.68-35.29,8.68-35.29-22.21-1.42-22.86-18.29c-.56-14.14,6.72-20.4,9.1-22.06-3,1.85-14.7,8.38-25.09,4.64-8.08-2.9-8.4-7.34-7.75-10-2.46,5.58-9.91,20-19.81,17.64-12.22-2.94-9.27-15.17-9.27-15.17s-6.74,9-11.55,2.74-.15-9.82-.15-9.82-18.79,1.6-20.21-15.19c-7.22,2.07-16.74,2.68-25-3.81-15.92-12.47-1.47-26.33-1.47-26.33s-16.77-2.59-19.26-14.65c-22.83-1.17-22.6-22.39-22.6-22.58,0,0-12.3,9.91-24.13-8.48s6.49-26.19,6.49-26.19-22.15-6.42-21.75-30.69,18.62-26,18.62-26-16-10.37-9.55-34.53c6.27-23.51,25.55-21.92,26.6-21.83-.82-.15-14.19-2.87-17.8-22.52-3.71-20.29,10.47-22.09,10.47-22.09s-22.11-8.45-21.62-38.77c.16-9.67,1.92-16.63,4.24-21.64a9.61,9.61,0,0,1-5.32-6.4c-3-12.44,3.83-16.74,3.83-16.74s-29.26-5-29.71-27.17,18.92-25.38,18.92-25.38-8.43-5.39-7.16-11,6.69-12.63,6.69-12.63-11,4.38-15.36-3.86c-3.86-7.35,1.2-10.47,2.34-11.05-1.33.61-8.32,3.43-11-4-2.94-8.27,6.69-12.63,6.69-12.63s-32-3.52-33.74-20.14,21.5-35.16,21.5-35.16-16.76-5.21-17.23-28.8,7.64-33.49,7.64-33.49a39,39,0,0,1-1.2-5.72c-5.33-.31-10.26-3-13.2-10.19C4,471.3,22.05,470.35,22.05,470.35S-10.63,444.54,3.58,431s36,5.05,36,5.05-.84-22.24,15.88-24.6c14-2,21,4.63,22.87,6.84-2.15-2.8-9.82-13.78-7.16-24.5,2.07-8.33,6.45-9.1,9.11-8.72-5.79-1.89-20.93-7.83-19.56-17.93,1.7-12.46,14.15-10.75,14.15-10.75s-9.58-5.8-3.89-11.2S80.72,344,80.72,344A24.76,24.76,0,0,1,82,331.41c-6.65-10.65,1.83-23,1.83-23s-28,21.85-37.47-.49S55,284.4,55,284.4,22,259,36.08,245.27s36,4.64,36,4.64-1.1-22.22,15.6-24.79c14-2.14,21,4.39,22.94,6.57-2.18-2.78-10-13.66-7.44-24.42,2-8.35,6.34-9.18,9-8.81-5.81-1.83-21-7.59-19.77-17.7,1.56-12.48,14-10.93,14-10.93s-9.64-5.67-4-11.15c4.86-4.75,8.6-2.23,9.51-1.47l.15-.2c-.42-2.74-2.33-19.3,14.25-21.62a29.11,29.11,0,0,1,3.65-.32c.73-6.72,4.26-15.15,16-20.55,22-10.12,28.11,3.1,28.11,3.1s.16-1,.54-2.49c-3.3-4.78-4.84-11.33-1.91-20.18,8.67-26.27,37.72-17.56,37.72-17.56s-19.31-10-8-23.71,27.8-2.42,27.8-2.42-21.85-28,.49-37.48,23.49,8.64,23.49,8.64,25.42-33,39.11-18.93-4.62,36-4.62,36,22.22-1.1,24.79,15.59c2.13,14-4.4,21-6.57,23,2.77-2.18,13.66-10,24.41-7.45,8.35,2,9.18,6.34,8.82,9,1.82-5.81,7.58-21,17.7-19.77,5.23.66,8,3.23,9.43,6,2.24-8.59,7.11-16.26,16.5-20.57,30.86-14.18,56.35,35.49,56.35,35.49S448.5,58.24,473,71s-6.54,67.08-6.54,67.08,19.65-3.69,26.21,28-21.08,47.06-21.08,47.06,41.35-3,45.87,24.3c3.41,20.49-21,49.22-33.36,62.28,3,.09,10.2,1.38,12.52,11.15,2.95,12.52-14.39,26.33-14.39,26.33s4.68.06,6.2,3.2a15.52,15.52,0,0,1,1.48,6.25s6.3-4.59,12.48.16,1.51,16.72,1.35,17.17c.61-.42,22.22-15.1,35.87-1.08,13.86,14.22,5.82,32.84-3.55,34.28,0,0-9.42,4.55-4.88,15.52,0,0,18.66,3.37,19.92,26.79S532,468.85,532,468.85s13.93,8,15.29,23.59S540.7,522,540.7,522s32.86-7.38,43.36,25.51-33.27,38.57-33.27,38.57,2.74,29.67-19.17,35.63c-21.39,5.81-27.72-4.52-28-5a27.06,27.06,0,0,1,.91,9.31c8.64,2.88,23,10,23.27,25.46.45,22.21-18.92,25.38-18.92,25.38s8.44,5.38,7.17,11-6.7,12.63-6.7,12.63,11-4.39,15.35,3.85c3.88,7.37-1.19,10.47-2.32,11.06,1.32-.62,8.3-3.43,11,4,2.94,8.27-6.7,12.62-6.7,12.62s32,3.52,33.74,20.15-21.5,35.15-21.5,35.15,16.76,5.21,17.24,28.81-7.65,33.48-7.65,33.48a39,39,0,0,1,1.2,5.73c5.33.3,10.25,3,13.2,10.18C572,888,554,888.89,554,888.89S586.65,914.7,572.43,928.23Z"/>
      </g>
    </g>
  </g>
</svg>
