<svg xmlns="http://www.w3.org/2000/svg" xmlns:xlink="http://www.w3.org/1999/xlink" width="807.209" height="963.533" viewBox="0 0 807.209 963.533">
  <defs>
    <linearGradient id="a" x1="297.353" y1="730.992" x2="456.602" y2="730.992" gradientUnits="userSpaceOnUse">
      <stop offset="0" stop-color="#66421f"/>
      <stop offset="1" stop-color="#754c24"/>
    </linearGradient>
    <linearGradient id="b" y1="311.193" x2="807.209" y2="311.193" gradientUnits="userSpaceOnUse">
      <stop offset="0" stop-color="#2b773e"/>
      <stop offset="1" stop-color="#27954f"/>
    </linearGradient>
  </defs>
  <title>Tree_14</title>
  <g>
    <path d="M338.186,506.618s12.25,40.834,16.333,232.749-57.166,224.166-57.166,224.166L456.6,959.866s-53.083-28.583-49-224.582-16.333-236.832-16.333-236.832Z" fill="url(#a)"/>
    <path d="M784.424,453.705s38.685-40.268,15.242-64.835c-13.822-14.485-34.076-8.843-48.375-1.773a127.469,127.469,0,0,0-3.247-31.3c-6.107-25.378-29.752-12.416-55.879-40.731,3.6-3.447,6.5-8.952,6.709-17.767.447-19.074-8.116-23.191-11.655-24.079,2.854.113,8.824-1.53,9.189-17.153.482-20.576-16.745-17.548-16.745-17.548a17.234,17.234,0,0,0,3.831-17.066c-3.189-10.368-20.415-7.34-20.415-7.34s10.528-10.047-6.216-27.595C646.7,175.87,636.279,176.59,629.65,178.8c-4.424-3.478-10.218-3.761-13.576-3.561q-.825-.774-1.618-1.458c.7-1.721.929-4.567-2.389-7.964-3.668-3.755-7.414-.688-9.5,1.759a10.382,10.382,0,0,0-1.633-.038c-.232-3.683-1.894-10.582-10.967-11.7-7.456-.917-12.534,7.112-15.417,13.727-3.361-1.083-6.655-2.014-9.846-2.8a13.841,13.841,0,0,0-1.561-2.717c14.364-26.176-15.936-30.461-15.936-30.461s14.267-14.043-1.814-26.3a24.942,24.942,0,0,0-17.751-4.919,18.59,18.59,0,0,0-2.267-2.817,10.918,10.918,0,0,0-7.633-3.464c-5.56-8.41-17.828-7.215-17.828-7.215s4.608-3.667-.282-9.812-11.505,2.883-11.505,2.883,2.791-12.257-9.467-15.048c-5.752-1.31-10.6,3.021-14.136,7.986-10.67-6.293-20.749-8.892-30.067-9A33.207,33.207,0,0,0,435,57.737c-.876-16.866-23.1-18-23.1-18s20.442-20.031,8.217-35.393-40.818,14.919-40.818,14.919.659-18.088-22.508-10.942-4.235,37.242-4.235,37.242-15.3-12.917-27.9-.378,5.61,24.39,5.61,24.39-28.026-11.57-39.282,13.7a27.461,27.461,0,0,0-2.511,9.753,66.408,66.408,0,0,0-13.282,11.287c-3.875-4.375-11.324-9.018-22.982-1.379-18.295,11.988-8.281,24.2-8.281,24.2s-22.244-.176-22.436,24.09c-.053,6.638,1.73,11.617,4.338,15.36a52.9,52.9,0,0,0-3.406,11.25s-4.393-6.8-16.788-3.608c-8.013,2.062-8.777,12.586-8.316,19.772a9.033,9.033,0,0,0-5.3-1.844c-4.872-.35-5.876,3.764-5.94,6.926a13.531,13.531,0,0,0-2.2.867c-2.936-2.491-8.293-5.225-15.011-.6-8.391,5.777-2.595,20.975-.095,26.531-1.5-2.231-5.021-4.947-12.576-.87-9.723,5.249-12.672,18.309-13.3,21.785.352-2.883.55-12.489-10.342-21.516-13-10.776-28.887,4.813-28.887,4.813s-.9-28.6-20.479-30.013-16.664,40.137-16.664,40.137-12.862-12.734-23.293,9.152S67.76,277.707,67.76,277.707,47.9,280.216,48.587,297.98s21.745,12.39,21.745,12.39-27.491,12.786-16.523,38.179a26.549,26.549,0,0,0,6.361,9.306,33.831,33.831,0,0,0,4.235,17.48s-18.819-6.522-22.387,15.059,12.2,22.482,12.2,22.482a25.2,25.2,0,0,0-6.008,14.06,13.8,13.8,0,0,0-5.183.717c-8.011,2.671-5.341,16.022-5.341,16.022s-8.01-8.011-21.361,5.34-2.671,26.7-2.671,26.7a46.713,46.713,0,0,0-8.525,9.321,14.323,14.323,0,0,0-4.3,5.909c-4.295,11.057,9.538,15.384,9.538,15.384s-12.493-.147-9.929,17.932,22.048,14.142,22.048,14.142-4.214,4.115,1.274,9.733S34.912,544.1,34.912,544.1s-1.535,12.477,10.942,14.012c10.112,1.243,15.857-13.975,17.671-19.79-.356,2.665.477,7.033,8.834,8.994a22.659,22.659,0,0,0,12.166-.827,35.5,35.5,0,0,0,6.862,1.523A29.18,29.18,0,0,0,90.226,562.8c2.581,16.691,24.808,15.563,24.808,15.563s-18.307,22-4.588,36.043c10.815,11.072,28.873-7.105,36.034-15.3a16.661,16.661,0,0,0,3.624-.917c1.412,4.654,6.3,12.889,22.939,5.841,7.176-3.039,9.78-8,10.015-13.326a39.393,39.393,0,0,0,5.715-1.282s9.989,8,33.576,7.218,28.583-17.619,28.583-17.619,18.823,22.987,35.425,21.046,19.7-33.991,19.7-33.991,4.486,9.573,12.718,6.522c7.439-2.757,4.534-9.7,3.9-11.02a6.809,6.809,0,0,0,7.736,3.471c25.386,16.2,58.355,8.508,76.287,2.214,0,.012,0,.022,0,.034,2.581,16.69,24.808,15.563,24.808,15.563s-18.306,22-4.588,36.043,39.1-18.979,39.1-18.979,1.176,18.063,23.5,8.606c7.176-3.039,9.78-8,10.015-13.326a39.393,39.393,0,0,0,5.715-1.282s9.989,8,33.576,7.218,28.584-17.619,28.584-17.619,18.822,22.987,35.425,21.046c11.651-1.362,16.65-17.543,18.6-27.079,14.46,3.97,29.831,5.78,39.99.287,9.163-4.955,12.565-13.453,13.249-22.122a24.878,24.878,0,0,0,2.814-3.573s3.421,19.333,25.621,18.594,26.78-30.06,26.78-30.06,4.393,6.8,16.788,3.609,7.449-26.639,7.449-26.639,14.2,9.251,23.31-9.109a25,25,0,0,0,2.839-9.651c12.072-1.773,22.483-6.489,24.078-17.207C808.429,454.267,784.424,453.705,784.424,453.705Z" fill="url(#b)"/>
  </g>
</svg>
