<svg xmlns="http://www.w3.org/2000/svg" xmlns:xlink="http://www.w3.org/1999/xlink" width="634.3" height="2035.83" viewBox="0 0 634.3 2035.83">
  <defs>
    <style>
      .cls-1 {
        fill: url(#linear-gradient);
      }

      .cls-2 {
        fill: url(#linear-gradient-2);
      }
    </style>
    <linearGradient id="linear-gradient" x1="207.64" y1="1584.49" x2="334.81" y2="1584.49" gradientUnits="userSpaceOnUse">
      <stop offset="0" stop-color="#66421f"/>
      <stop offset="1" stop-color="#754c24"/>
    </linearGradient>
    <linearGradient id="linear-gradient-2" y1="610.79" x2="634.3" y2="610.79" gradientUnits="userSpaceOnUse">
      <stop offset="0" stop-color="#2b773e"/>
      <stop offset="1" stop-color="#27954f"/>
    </linearGradient>
  </defs>
  <title>Tree_41</title>
  <g id="Layer_2" data-name="Layer 2">
    <g id="Layer_1-2" data-name="Layer 1">
      <g>
        <path class="cls-1" d="M314.82,1586.46a545.57,545.57,0,0,1-29.6,65.2c2.59-46.59,4.84-90.86,7-134.59,4.57-90.44,11.09-220.46,19-381.11l-20.43-2.82c-4,61.9-9.95,155.81-16.73,270.79-1.45,24.68-2.72,46.48-3.84,66a122.23,122.23,0,0,0-7.8-10.52c-7.49-9-19.19-20.46-23-39.68-.43-2.14-.11-1.11-1.24-10.72-2.55-21.56-5.45-37.53-7.37-48-2.57-14-3.85-21-5.12-25.47-3.29-11.61-6.28-17.25-12.39-35.12-2.56-7.48-4.47-13.6-5.64-17.45,16.81,57.71,20.9,84.69,21.18,98.54.19,9.45,1.64,19.39,4.54,39.29a60.83,60.83,0,0,0,13.33,30.67c5,6.32,12.29,18.19,22.18,42.6-4.81,84.62-6.76,122.76-10.71,179.35-5.9,84.58-16,206.13-34,355l33.6,7.37c2.49-28.37,6.14-71.16,10.17-123.2,6.6-85.31,11.44-159.66,15.42-228.36,6.18-18.88,11.88-34,16-44.38,13.94-35.47,23.33-51.94,30.08-82.55a267.82,267.82,0,0,0,5.4-36A547.71,547.71,0,0,1,314.82,1586.46Z"/>
        <path class="cls-2" d="M611.85,787.62s18.06-1.18,8.6-23.5c-3-7.18-8-9.78-13.32-10a39,39,0,0,0-1.28-5.71s8-10,7.21-33.58-17.62-28.58-17.62-28.58,23-18.82,21-35.43c-.7-6-5.34-10.23-11-13.19,10.75-4.64,21.29-13.8,16.79-31.74-8.39-33.48-41.65-28.2-41.65-28.2s8.85-13.41,8.48-29.08-13.76-24.51-13.76-24.51,20.19-4.58,20.89-27.33c5.46,1.66,13.07,1.46,18.92-8.51,10.22-17.44-6.12-35.93-6.12-35.93s15.61-5.85,12.19-36-26.44-35.66-26.44-35.66,13.83-3.61,7.53-23.25-20.6-20-20.6-20,20.32-.28,23.61-25.08-13.93-33-13.93-33,17.86-4.07,15.12-28.18S581,223.48,581,223.48s17.17-10.1,3.06-26.81-25-5.3-25-5.3-1.91-16.74-18.3-19.27c7.94-16.54,15.6-40,.92-48.83C518,109,508.23,131,508.23,131s-19.92-45.68-48.84-40.43A32.43,32.43,0,0,0,455,65c-13.35-21.36-26.7-13.35-26.7-13.35S436.34,3.55,415,.88s-21.36,16-21.36,16-32-29.37-50.73-10.68c-11.73,11.73-5.59,28.7.61,39.73a83.38,83.38,0,0,0-11.18,9,23.43,23.43,0,0,0-6.68,2c-1.57-4.81-6.53-11.52-22.16-6.06-22.89,8-2.86,37.37-2.86,37.37s-13.5-10.55-25.13-1.83c-.65,0-1.32-.07-2-.07-14.85,0-17.9,6.74-18.52,9.51,0-2.22-1.36-6.84-13.52-6.84-16,0-13.35,13.35-13.35,13.35a13.41,13.41,0,0,0-13.35-2.67c-8,2.67-5.34,16-5.34,16s-8-8-21.37,5.34-2.67,26.7-2.67,26.7c-19.24,16.85-8.15,22.85-5.76,23.87-4.1,5.47-3.7,12.92-3.54,14.69l-.17.19c-.86-.82-4.43-3.57-9.58.86-6,5.11,3.3,11.39,3.3,11.39s-12.34-2.34-14.68,10c-1.89,10,12.92,16.72,18.61,18.91-2.64-.53-7,0-9.55,8.23-3.21,10.57,3.88,21.93,5.89,24.84-1.78-2.3-8.4-9.26-22.49-8-16.82,1.5-17.13,23.75-17.13,23.75s-20.78-19.69-35.68-6.91S111,309.82,111,309.82s-18.1,0-10.1,22.9,37.37,2.86,37.37,2.86S129,347.39,135,358.44a24.75,24.75,0,0,0-2.1,12.53s-3.78-4.51-9.8.53,3.17,11.43,3.17,11.43-12.32-2.49-14.81,9.84c-2,10,12.73,16.88,18.39,19.12-2.63-.55-7-.05-9.64,8.13-3.33,10.53,3.63,22,5.6,24.9-1.75-2.32-8.29-9.36-22.4-8.27C86.54,438,86,460.2,86,460.2s-20.54-19.92-35.6-7.32,15.95,40.43,15.95,40.43-18.1-.2-10.38,22.78c2.48,7.39,7.23,10.36,12.53,11a39.8,39.8,0,0,0,.84,5.8s-8.74,9.35-9.75,32.93,15.38,29.84,15.38,29.84-24.35,17-23.68,33.72a13.14,13.14,0,0,0,1.56,5.7c-21.38,6.49-18.31,35.74-18.31,35.74s-43.68,6.24-32.76,39,43.68,24.95,43.68,24.95-7.8,14-6.24,29.64S54.78,787.8,54.78,787.8,34.51,794,36.07,817.44,56.34,844,56.34,844c4.68,10.92-4.68,15.6-4.68,15.6-9.35,1.56-17.15,20.28-3.12,34.32s35.88-1.56,35.88-1.56S79.74,904.79,86,909.46A9.93,9.93,0,0,0,95.33,911c-3,9.12-2.52,16.39-.83,21.87-2.09,3.94-3.33,8.29-2.28,12.47a18.66,18.66,0,0,0,1.27,3.58c-4.84,3.15-9.95,9.34-10.92,21.51-1.93,24.19,19.77,32,19.77,32s-18.79,6.63-8.14,25.72,23.55,10,23.55,10c0,.19-1.58,21.35,21.13,24,1.72,12.2,18.29,15.84,18.29,15.84s-15.3,12.92-.2,26.37c7.86,7,17.4,7,24.74,5.38.36,16.85,19.21,16.44,19.21,16.44s-4.88,3.31-.47,9.82,11.69-2,11.69-2-3.71,12,8.3,15.73c9.73,3,18.08-10.94,20.89-16.35-.82,2.56-.78,7,7.1,10.42,10.14,4.38,22.22-1.39,25.34-3-2.48,1.51-10.15,7.3-10.49,21.44-.41,16.88,21.66,19.7,21.66,19.7s-21.9,18.42-10.89,34.67,41.84-11.76,41.84-11.76-2,18,21.61,12.62c23.29-5.28,7.55-35.87,7.07-36.79.58.56,14.55,13.78,27.78,2.49s-3-24.14-3.71-24.73c.94.46,27.27,13.22,40.19-10.68a26.66,26.66,0,0,0,3.37-10.76,33.82,33.82,0,0,0,11.1-14.15s6.53,18.82,25.69,8.26,10.1-23.5,10.1-23.5,20.51,1.72,23.88-19.68a30.51,30.51,0,0,0,5.39.08c17.88-1.15,15.86-20.16,15.79-20.88.23.25,4,4.34,9.78-.55,6-5-3.16-11.43-3.16-11.43s12.32,2.48,14.8-9.84c2-10-12.72-16.87-18.39-19.13,2.64.56,7.05.06,9.64-8.12,3.34-10.53-3.62-22-5.59-24.91,1.75,2.32,8.29,9.36,22.4,8.27C550.47,1000,551,977.77,551,977.77s20.54,19.94,35.58,7.33-15.94-40.44-15.94-40.44,18.1.21,10.37-22.77c-2.48-7.38-7.23-10.36-12.53-11a37.91,37.91,0,0,0-.84-5.8,28.12,28.12,0,0,0,4.29-7.15,13,13,0,0,0,2.57-6.63c0-.18,0-.36,0-.54a79.37,79.37,0,0,0,2.86-18.6c.57-13.19-4.31-21-8.72-25.25a31.9,31.9,0,0,0,10.5,0c16.69-2.59,15.56-24.81,15.56-24.81s22,18.3,36.05,4.59S611.85,787.62,611.85,787.62Z"/>
      </g>
    </g>
  </g>
</svg>
