<svg xmlns="http://www.w3.org/2000/svg" xmlns:xlink="http://www.w3.org/1999/xlink" width="958.95" height="2109.24" viewBox="0 0 958.95 2109.24">
  <defs>
    <style>
      .cls-1 {
        fill: url(#linear-gradient);
      }

      .cls-2 {
        fill: url(#linear-gradient-2);
      }
    </style>
    <linearGradient id="linear-gradient" x1="-741.72" y1="-585.93" x2="-535.1" y2="-585.93" gradientUnits="userSpaceOnUse">
      <stop offset="0" stop-color="#66421f"/>
      <stop offset="1" stop-color="#754c24"/>
    </linearGradient>
    <linearGradient id="linear-gradient-2" x1="-1008.21" y1="-1584.24" x2="-49.26" y2="-1584.24" gradientUnits="userSpaceOnUse">
      <stop offset="0" stop-color="#005437"/>
      <stop offset="1" stop-color="#006837"/>
    </linearGradient>
  </defs>
  <title>Tree_42</title>
  <g id="Layer_1-2" data-name="Layer 1">
    <g>
      <path class="cls-1" d="M-723.78-146.66h130.46S-631.82-422.1-619-488.4s68.43-106.93,79.13-201,0-335.76,0-335.76h-89.59s17.35,239.52,0,299.4-106.45,157.55-111.44,254.5C-746.28-366.55-723.78-146.66-723.78-146.66Z" transform="translate(1008.21 2255.91)"/>
      <path class="cls-2" d="M-50.3-1802.24c-7.94,18-35.16,9.14-35.16,9.14s9.3,20.22-5.23,28.81c-12.18,7.21-21.15,3.78-23.75,2.47,3.06,1.76,14.36,9,16,19.88,1.29,8.48-2.46,10.88-5.06,11.54,6.07-.48,22.33-.8,24.94,9.05,3.21,12.15-8.94,15.37-8.94,15.37s11.06,1.67,7.89,8.85c-3.1,7-8.3,4.91-8.56,4.81.32.51,10.64,16.76-4.94,25.72-4.46,2.56-8,3.47-10.83,3.47a16.2,16.2,0,0,1-3.11,3.41s23.75,3.19,22.61,15.94-9,14.61-9,14.61,26.09,14.14,19.35,35.3-26.1,17.91-26.1,17.91,6.25,7.82,3.24,12.69-10.41,9.8-10.41,9.8,11.85-.6,13.29,8.6c1.29,8.29-4.61,9.55-5.8,9.72,1.4-.16,9-.61,9.1,7.36.11,8.78-10.41,9.8-10.41,9.8s29.16,13.66,25.43,30-31.7,26.32-31.7,26.32,14.18,10.35,7,32.84-18,29.21-18,29.21-.86,34.7-30.86,23.68a19.25,19.25,0,0,1-10.74,9.89,27.68,27.68,0,0,1,3.3,8.93c2.76,15.15-3.6,29.52-3.82,30,.78-.24,32.18-10,45.54,21.36,13.53,31.76-29.49,41.51-29.49,41.51s5.5,29.29-15.76,37.27c-20.59,7.74-27.9-1.75-28.35-2.36.33.79,7.34,18.29-8.88,25.73,0,0,4.88,22.56-22.11,25.24,4.95,22.5-25.89,35.9-25.89,35.9s10.85,27.76-8.56,39.55c-18.79,11.43-27.74,3.46-28.28,3a27.25,27.25,0,0,1,3.49,8.89,13.37,13.37,0,0,1,1.55,5.37c.43,6.66-3.13,13.46-7.55,19.23.41,5.43-.92,13.1-9.64,18.53,4.74,3.92,10.7,11.7,10.43,26-.44,23.59-8.95,33.15-8.95,33.15s9.09,33.5-22.81,31.51c0,0-1.7,16.63-21.14,16.26s-20.5-17.05-20.5-17.05-11.84,15.16-26.13,6.22a38.62,38.62,0,0,1-6.55,2.64c3.7,9.44,6.13,23.28-8.6,28-23.11,7.31-22.58-10.78-22.58-10.78s-28.37,30.49-40.71,15.22,7.95-35.45,7.95-35.45-22.23-1-23.23-17.83a.37.37,0,0,0,0-.11c-5.68-4.74-8.36-9.39-9.5-13.34-3.71,8.35-12.09,21.77-27.44,20.65a29,29,0,0,1-11-2.84c-13.8,4.5-31.56,6-53.72.39a8.53,8.53,0,0,1-3.46,1.67c-6.36,1.62-9.89-3.56-11.27-6.27l-1-.37c-1.37,5.74-8.14,30.37-22.91,30.53-16.72.17-33-24.67-33-24.67s-6.75,16.21-30.29,14.5-32.62-10.73-32.62-10.73a39.67,39.67,0,0,1-5.82.67c-.8,5.28-3.91,9.93-11.37,12.2-23.2,7-22.46-11-22.46-11s-28.72,30.16-40.88,14.75,8.37-35.36,8.37-35.36-22.22-1.23-23-18.1c-.67-14.13,6.56-20.46,8.93-22.14-3,1.88-14.63,8.51-25.06,4.86-8.1-2.83-8.47-7.26-7.83-9.88-2.42,5.59-9.74,20.12-19.66,17.81-8.82-2-9.81-9-9.68-12.67-3.53,3-9.62,5.13-19.43-.08-10.91-5.78-11.75-13.14-10.69-18.08a16.63,16.63,0,0,1-1.53-5c-6.78.63-20.54.7-22.68-8.65-2.85-12.47,4.06-16.68,4.06-16.68s-29.18-5.38-29.31-27.59,19.28-25.1,19.28-25.1-8.36-5.51-7-11.07c.85-3.47,3.32-7.5,5.05-10a18.23,18.23,0,0,1,.73-2.16c-2.89.81-10.79,2.31-14.21-4.42-3.63-7.16,1-10.24,2.36-11-1.59.68-8.29,3-10.78-4.26-2.82-8.31,6.87-12.53,6.87-12.53s-32-4-33.44-20.63,22-34.84,22-34.84-16.69-5.45-16.83-29,8.13-33.37,8.13-33.37-5.68-19.06,5.41-27.8a28.51,28.51,0,0,1-14.67-15.71c-6.64-17,5.05-31.38,17.28-41a23.48,23.48,0,0,1-3.36-5.22c-4.83-10.15.41-17.32,5.48-21.49a9.71,9.71,0,0,1-5.38-6.73,23.1,23.1,0,0,1-.39-8,7.75,7.75,0,0,1,.33-1.88c1.14-3.88,2.67-5.85,4.1-6.82-3.33-.77-28.69-7.33-28.4-28.09.31-22.21,19.78-24.71,19.78-24.71s-8.25-5.67-6.79-11.2,7.12-12.4,7.12-12.4-11.17,4-15.21-4.38c-3.51-7.24,1.23-10.23,2.58-10.92-1.6.65-8.37,2.89-10.7-4.46-2.66-8.37,7.11-12.4,7.11-12.4s-31.86-4.61-33-21.29,22.69-34.39,22.69-34.39-16.58-5.78-16.25-29.38,8.8-33.2,8.8-33.2-9.26-33.45,22.65-31.62c0,0,1.62-16.64,21-16.36s20.59,16.94,20.59,16.94a28.12,28.12,0,0,1,4.89-4.66,9.69,9.69,0,0,1-.51-6.48,11.84,11.84,0,0,1,11.23-9.63s-4-2.41-1.33-9.9c2.47-6.93,6.78-6.53,7.4-6.43-.83-.14-8.31-1.49-10.08-4.27,0,0-10.16,4.82-15.78-4a13.69,13.69,0,0,1,.54-16s-10.17-4.28-6.42-16.59,25.68-15.51,25.68-15.51-4-2.41-3.74-5.88a15.57,15.57,0,0,1,1.87-6.15s-7.75.8-10.7-6.43,7.5-15.51,7.5-15.51-26.75,2.14-31.57-17.12,11.51-31.3,20.34-27.82c0,0,10.43.8,12-11,0,0-14.45-12.3-3.74-33.17s31.3-15.77,31.3-15.77-8-13.92-1.34-28.09,20.6-22.2,20.6-22.2-32.09-10.17-24.6-43.87,48.15-16.58,48.15-16.58,12.58-27,34.51-21.13c21.41,5.75,21.67,17.86,21.67,18.44.17-.7,4.62-19.17,22.2-15.76,0,0,8.42-19.42,29.77-9.18-2.28-3.46-3.64-8.11-2.61-14.3,3.12-18.72,25-14,25-14s-10.92-10.92-3.12-17.16c7.51-6,10.68-1.89,10.91-1.58-.14-.44-2.88-9.41,6.25-12.45a11.84,11.84,0,0,1,14,4.68s0-4.68,7.8-6.24c6.84-1.37,8.88,2,9.28,2.92-.46-1.22-2.89-7.89-1.48-10.72,0,0-9.36-6.24-4.68-15.6a13.68,13.68,0,0,1,14-7.8s-1.56-10.92,10.92-14,26.51,14,26.51,14,0-4.68,3.12-6.24a15.55,15.55,0,0,1,6.24-1.56s-4.68-6.24,0-12.48,16.69-1.72,17.15-1.56c-.43-.61-15.39-22-1.55-35.87,14-14,32.75-6.24,34.31,3.12,0,0,4.68,9.36,15.6,4.68,0,0,3.12-18.72,26.52-20.28s29.63,18.72,29.63,18.72,7.8-14,23.4-15.6,29.64,6.24,29.64,6.24-7.8-32.75,24.95-43.67,39,32.75,39,32.75,29.63-3.12,35.87,18.72c6.09,21.31-4.16,27.77-4.66,28.07.73-.23,18.83-5.88,24.94,10.92,0,0,23.39-3.12,23.39,25,0,0,28.08,9.36,12.48,37.43,0,0,11.75,6.42,14.62,18.61,7.11,5.41,5.34,14.34,5.34,14.34s19.93-13.3,27.5-3,2.89,16.93,2.89,16.93,28.92-6.65,37.86,13.69-7.74,30.69-7.74,30.69,9.86,1.74,10.82,7.38-1.23,13.86-1.32,14.22c.38-.36,8.64-8.13,15.65-2.32,6.39,5.31,2.91,10.12,2.08,11.1,1-1.07,6.36-6.35,11.69-.47,5.89,6.51-1.33,14.23-1.33,14.23s30.9-9,38.88,5.66-6.38,40.71-6.38,40.71,17.49-1.62,27,20,5.78,33.85,5.78,33.85a38.85,38.85,0,0,1,3.31,4.83c5-1.76,10.61-1.19,16.1,4.35,17.07,17.21.74,25,.74,25S-42.36-1820.19-50.3-1802.24Z" transform="translate(1008.21 2255.91)"/>
    </g>
  </g>
</svg>
