<svg xmlns="http://www.w3.org/2000/svg" xmlns:xlink="http://www.w3.org/1999/xlink" width="860.36" height="1455.78" viewBox="0 0 860.36 1455.78">
  <defs>
    <style>
      .cls-1 {
        fill: url(#linear-gradient);
      }

      .cls-2 {
        fill: url(#linear-gradient-2);
      }
    </style>
    <linearGradient id="linear-gradient" x1="256.66" y1="1173.79" x2="497.54" y2="1173.79" gradientUnits="userSpaceOnUse">
      <stop offset="0" stop-color="#66421f"/>
      <stop offset="1" stop-color="#754c24"/>
    </linearGradient>
    <linearGradient id="linear-gradient-2" y1="511.49" x2="860.36" y2="511.49" gradientUnits="userSpaceOnUse">
      <stop offset="0" stop-color="#5a8539"/>
      <stop offset="1" stop-color="#46952f"/>
    </linearGradient>
  </defs>
  <title>Tree</title>
  <g id="Layer_2" data-name="Layer 2">
    <g id="Layer_1-2" data-name="Layer 1">
      <g>
        <path class="cls-1" d="M259.66,1455.78s48-57,48-192-51-369-51-369h30s75,235.49,88.5,399,88.49-130.49,88.49-402h30s25.5,432-54,564Z"/>
        <path class="cls-2" d="M828.24,671.27s5.5,29.29-15.76,37.27c-20.59,7.74-27.9-1.75-28.35-2.36.33.79,7.34,18.29-8.88,25.73,0,0,4.88,22.56-22.11,25.24,5,22.5-25.89,35.9-25.89,35.9s10.85,27.76-8.56,39.55c-18.79,11.43-27.74,3.46-28.28,3a27.25,27.25,0,0,1,3.49,8.89,13.37,13.37,0,0,1,1.55,5.37c.43,6.66-3.13,13.46-7.55,19.23.41,5.43-.92,13.1-9.64,18.53,4.74,3.92,10.7,11.7,10.43,26-.44,23.59-9,33.15-9,33.15s9.09,33.5-22.81,31.51c0,0-1.7,16.63-21.14,16.26s-20.5-17-20.5-17-11.84,15.16-26.13,6.22a38.62,38.62,0,0,1-6.55,2.64c3.7,9.44,6.13,23.28-8.6,28-23.11,7.31-22.58-10.78-22.58-10.78s-28.37,30.49-40.71,15.22,7.95-35.45,7.95-35.45-22.23-1-23.23-17.83a.37.37,0,0,0,0-.11c-5.68-4.74-8.36-9.39-9.5-13.34-3.71,8.35-12.09,21.77-27.44,20.65a29,29,0,0,1-11-2.84c-13.8,4.5-31.56,6-53.72.39a8.53,8.53,0,0,1-3.46,1.67c-6.36,1.62-9.89-3.56-11.27-6.27l-1-.37c-1.37,5.74-8.14,30.37-22.91,30.53-16.72.17-33-24.67-33-24.67s-6.75,16.21-30.29,14.5-32.62-10.73-32.62-10.73a39.67,39.67,0,0,1-5.82.67c-.8,5.28-3.91,9.93-11.37,12.2-23.2,7-22.46-11.05-22.46-11.05s-28.72,30.16-40.88,14.75S187.13,956,187.13,956s-22.22-1.23-23-18.1c-.67-14.13,6.56-20.46,8.93-22.14-3,1.88-14.63,8.51-25.06,4.86-8.1-2.83-8.47-7.26-7.83-9.88-2.42,5.59-9.74,20.12-19.66,17.81-8.82-2-9.81-9-9.68-12.67-3.53,3-9.62,5.13-19.43-.08-10.91-5.78-11.75-13.14-10.69-18.08a16.63,16.63,0,0,1-1.53-5c-6.78.63-20.54.7-22.68-8.65-2.85-12.47,4.06-16.68,4.06-16.68s-29.18-5.38-29.31-27.59,19.28-25.1,19.28-25.1-8.36-5.51-7-11.07c.85-3.47,3.32-7.5,5-10a18.23,18.23,0,0,1,.73-2.16c-2.89.81-10.79,2.31-14.21-4.42-3.63-7.16,1-10.24,2.36-11-1.59.68-8.29,3-10.78-4.26-2.82-8.31,6.87-12.53,6.87-12.53s-32-4-33.44-20.63,22-34.84,22-34.84S5.38,698.39,5.24,674.79s8.13-33.37,8.13-33.37-5.68-19.06,5.41-27.8A28.51,28.51,0,0,1,4.11,597.91c-6.64-17,5.05-31.38,17.28-41A23.48,23.48,0,0,1,18,551.65c-7.74-16.26,10.39-24.89,12.25-25.73v-.11c-1.67-.33-14.85-3.26-12.21-12.24,2.71-9.22,7.67-7.67,8-7.54-.42-.33-7.73-6.11-2-13.8A11.85,11.85,0,0,1,38.27,488c-.15-.23-2.49-4,2.84-9.57,4.79-5,8.41-3.41,9.25-2.93-1.13-.78-6.87-4.82-7.33-7.93,0,0-11.24.25-12.76-10.11a13.67,13.67,0,0,1,7-14.43s-7.53-8.06.91-17.76S68,421.62,68,421.62s-2.68-3.84-1-6.9a15.61,15.61,0,0,1,4.23-4.86s-7.41-2.43-7.15-10.23,13.17-11.1,13.17-11.1-25.29-9-21.82-28.52,23.28-23.87,29.92-17.09c0,0,9.2,5,15.47-5.09,0,0-8.16-17.13,10.13-31.81s35-1.62,35-1.62-1.65-16,10.25-26.19,27.87-11.85,27.87-11.85-25.15-22.39-4.55-50.1,50.72,4.53,50.72,4.53a46.26,46.26,0,0,1,4.75-3.46c-3.69-4.08-5.48-12.4,11.83-27.54,0,0-13.72-17.15,3.43-34.3s27.44-6.86,27.44-6.86-3.43-17.15,6.86-20.58a17.23,17.23,0,0,1,17.15,3.43s-3.43-17.15,17.15-17.15c15.63,0,17.41,5.93,17.36,8.78.81-3.56,4.72-12.21,23.8-12.21,24,0,24,20.58,24,20.58s3.43-13.72,13.72-17.15,20.58,3.43,20.58,3.43-13.72-20.58,0-37.74,41.16-6.86,41.16-6.86S425.18,32,449.19,8s65.17,13.72,65.17,13.72,0-24,27.45-20.58c7.59,1,12.3,6.37,15.13,13.72,18.95,2,16,17.89,16,17.89s19.74-13.58,27.45-3.36,3.12,16.89,3.12,16.89,28.83-7,38,13.17-7.32,30.8-7.32,30.8,9.88,1.6,10.92,7.23-1,13.87-1.12,14.23c.38-.37,8.54-8.24,15.61-2.53,6.25,5,3.27,9.76,2.33,11,1.2-1.29,6.34-6.15,11.59-.52,6,6.43-1.14,14.25-1.14,14.25s30.78-9.45,38.95,5.13-5.81,40.79-5.81,40.79,17.46-1.85,27.25,19.62,6.24,33.77,6.24,33.77a39.5,39.5,0,0,1,3.37,4.78c5-1.83,10.59-1.33,16.16,4.13,17.31,17,1.08,25,1.08,25s40.24,10.74,32.55,28.81-35,9.61-35,9.61,9.58,20.09-4.84,28.88c-12.07,7.37-21.09,4.06-23.71,2.79,3.09,1.72,14.48,8.76,16.29,19.66,1.4,8.47-2.32,10.91-4.91,11.61,6.06-.56,22.32-1.1,25.06,8.71,3.38,12.11-8.73,15.49-8.73,15.49s11.08,1.52,8,8.74-8.5,4.92-8.5,4.92,11.12,16.47-4.58,25.79a28.3,28.3,0,0,1-6.9,3,15.23,15.23,0,0,1,.82,3.45s5.84-5.17,12.44-1,2.94,17,2.94,17,20.5-17.31,35.63-4.46,8.87,32.15-.33,34.46c0,0-9,5.42-3.41,15.92,0,0,18.91,1.6,22.36,24.79s-16.26,31-16.26,31S813.19,563,816,578.37c2.76,15.15-3.6,29.52-3.82,30,.78-.24,32.18-10,45.54,21.36C871.26,661.52,828.24,671.27,828.24,671.27Z"/>
      </g>
    </g>
  </g>
</svg>
