<svg xmlns="http://www.w3.org/2000/svg" xmlns:xlink="http://www.w3.org/1999/xlink" width="854.2" height="1658.85" viewBox="0 0 854.2 1658.85">
  <defs>
    <style>
      .cls-1 {
        fill: url(#linear-gradient);
      }

      .cls-2 {
        fill: url(#linear-gradient-2);
      }
    </style>
    <linearGradient id="linear-gradient" x1="251.69" y1="1432.09" x2="560.75" y2="1371.02" gradientUnits="userSpaceOnUse">
      <stop offset="0" stop-color="#66421f"/>
      <stop offset="1" stop-color="#754c24"/>
    </linearGradient>
    <linearGradient id="linear-gradient-2" y1="621.14" x2="854.2" y2="621.14" gradientUnits="userSpaceOnUse">
      <stop offset="0" stop-color="#2b773e"/>
      <stop offset="1" stop-color="#27954f"/>
    </linearGradient>
  </defs>
  <title>Tree_17</title>
  <g id="Layer_2" data-name="Layer 2">
    <g id="Layer_1-2" data-name="Layer 1">
      <g>
        <path class="cls-1" d="M395.47,1650.29,503.24,1654S484,1415.32,487.85,1169l-23.1-7.69S448.62,1570.7,414,1566.85s-18.51-421-18.51-421l-30.8-7.7s-19.24,470.63-46.19,520.67Z"/>
        <path class="cls-2" d="M835.17,359.26s17.05,24.44.94,40.45-26.84,9.47-26.84,9.47,14.5,13.37,2.5,27.13c0,0,12.2,16.52-6.13,29.75a9.31,9.31,0,0,1,.31,2.52c-.12,8.45-3.52,12.39-5.82,14.09-.21.61-.43,1.23-.7,1.84,5.44,2.82,25,14.41,20.58,33.06-5.13,21.62-24.68,19.83-24.68,19.83s6.82,7.33,4.19,12.41-9.64,10.55-9.64,10.55,11.77-1.48,13.9,7.58c1.9,8.09-3.78,9.84-5,10.12,1.43-.26,8.9-1.24,9.6,6.66.78,8.75-9.64,10.56-9.64,10.56s30.11,11.42,27.61,28-29.62,28.64-29.62,28.64,14.93,9.25,9.48,32.21-15.8,30.5-15.8,30.5a38.84,38.84,0,0,1-.26,5.85c5.08,1.63,9.18,5.44,10.22,13.17,3.25,24-14.48,20.4-14.48,20.4s25.18,33.18,8,42.72c-7.38,4.1-14.62,2.1-20.47-1.52C771.05,807.71,750,813.66,750,813.66s4.29,1.87,4.48,5.35a15.63,15.63,0,0,1-1.06,6.34s7.59-1.8,11.45,5-5.41,16.35-5.41,16.35,26.24-5.59,33.52,12.88-7.34,32.52-16.54,30.22c0,0-10.45.56-10.51,12.44,0,0,15.92,10.32,8,32.4s-29,19.72-29,19.72,9.77,12.75,5,27.67-17.54,24.7-17.54,24.7,33.15,5.9,30.11,40.29S717,1069.71,717,1069.71s-9,28.42-31.47,25.44-23.88-15.49-23.88-15.49-1.74,19.65-20,18.54c0,0-6.47,22.7-32.21,11.5,0,0-10.48,11.66-23.71,8.18a10.81,10.81,0,0,1,0,10.34,13.68,13.68,0,0,1-14,7.8s1.56,10.92-10.92,14c-8.47,2.12-17.66-5.11-22.68-10-5.25,10.85-13.48,20.16-26.15,25.43,3.33,7.63,6.13,19.44-2.64,28.21-14,14-32.76,6.24-34.32-3.12,0,0-4.67-9.36-15.59-4.68,0,0-3.12,18.72-26.52,20.28s-29.63-18.72-29.63-18.72-7.8,14-23.4,15.6-29.64-6.24-29.64-6.24,7.8,32.76-25,43.68-39-32.76-39-32.76-29.63,3.12-35.87-18.72c-2.29-8-2.27-13.93-1.32-18.21a15.92,15.92,0,0,1-1.82-8.76,18.58,18.58,0,0,1-10.9-3.3c-9-.33-20.51-3.22-25.54-14.77a32,32,0,0,1-2.11-6.66,34.16,34.16,0,0,1-2-12.25s-24.88-8.29-14.78-32.69c-2.62-3-2.37-5.69-1.66-7.49l-.59-.48c-2.23,1.59-6.07,3.09-9.87-1.13-4.31-4.79-1.57-10.19.2-12.75-.11-.36-.21-.72-.31-1.09-6.22,1.54-30.49,6.63-37.39-6.17-7.92-14.72,6.5-40.69,6.5-40.69s-17.49,1.56-26.91-20.07-5.68-33.87-5.68-33.87S94,942,123.85,930.52c0,0-5.38-15.82,12.44-23.59l1.26-.51a28.54,28.54,0,0,1-1.2-5.8c-1.67-15.54,4-18,6.88-18.2-3.62-.42-12.65-3.39-14.68-22.36C126,836.18,146.45,834,146.45,834s-14-1.94-18.52-11.81,1.22-20.83,1.22-20.83-19,15.84-37.52,4C73.37,793.72,80.22,766,80.41,765.19c-.76.77-37.53,38.26-63.7,17.17-26.43-21.31,6.69-66.27,6.69-66.27S-.47,718.65,0,691s63-24,63-24-7.49-9.93,1.83-23.93a22.75,22.75,0,0,1-7.29-16c-.74-22.2,18.59-25.62,18.59-25.62s-8.51-5.28-7.3-10.87,6.52-12.72,6.52-12.72-11,4.53-15.4-3.66c-4-7.3,1.06-10.48,2.18-11.08-1.31.63-8.26,3.54-11-3.9-3.06-8.24,6.52-12.72,6.52-12.72s-32-3.1-34-19.71,21-35.42,21-35.42-16.83-5-17.62-28.58,7.22-33.58,7.22-33.58A39.4,39.4,0,0,1,33,423.45c-5.33-.23-10.29-2.83-13.33-10-9.45-22.32,8.61-23.5,8.61-23.5s-33-25.38-19-39.1,36,4.59,36,4.59S44.21,333.2,60.9,330.62c14-2.16,21,4.36,23,6.54-2.19-2.78-10-13.65-7.48-24.4,2-8.36,6.33-9.19,9-8.84-5.81-1.81-21-7.56-19.79-17.67,1.54-12.48,14-10.94,14-10.94s-9.65-5.67-4-11.16,9.73-1.27,9.73-1.27-3.93-19.48,14.14-22a26.89,26.89,0,0,1,8.21-.06c-3.2-3-6.36-7.64-2.87-12.35,5.77-7.78,9.9-4.5,10.15-4.3-.23-.37-5.2-8.36,2.87-13.64a11.83,11.83,0,0,1,14.76.94s-1.19-4.52,5.95-8c6.34-3.09,9.18-.21,9.74.49-.72-1-4.84-6.89-4.18-10,0,0-10.64-3.64-8.5-13.89a13.67,13.67,0,0,1,11.59-11.11s-4.29-10.16,7-16.36,29.21,6.82,29.21,6.82-1.19-4.53,1.43-6.83a15.63,15.63,0,0,1,5.64-3.1s-6.12-4.84-3.18-12.07,16.19-5.88,16.19-5.88-20.65-17.14-10.65-34.29,30.08-14.38,34-5.73c0,0,6.91,7.86,16.27.55,0,0-1.75-18.89,20.48-26.36s33.42,10.55,33.42,10.55,4-15.56,18.65-21.05,30.25-1.51,30.25-1.51-15.89-29.69,13-48.6,46.06,21.74,46.06,21.74,27.86-10.57,39.46,9c11.3,19,3.07,27.89,2.65,28.33.59-.38,16.68-10.51,26.89,4.21,0,0,21.83-9,29,18.17,0,0,26.45,1.72,22.55,28.3a23.57,23.57,0,0,1,3.08-1.32c17.9-6.31,24.35,15.07,24.35,15.07s4.29-14.84,13.52-11,6.64,8.8,6.64,8.8,6.68-7.25,13.94-.56a11.84,11.84,0,0,1,2.68,14.55s4.1-2.26,9.23,3.82c4.54,5.38,2.44,8.83,1.9,9.55.8-.93,5.51-6.36,8.7-6.49,0,0,.94-11.21,11.39-11.64A13.68,13.68,0,0,1,634.45,144s8.81-6.64,17.57,2.77.52,30,.52,30,4.09-2.26,7-.28a15.61,15.61,0,0,1,4.38,4.71s3.2-7.11,10.92-6,9.66,14.27,9.66,14.27,11.58-24.21,30.65-18.7S736.41,196.42,729,202.3c0,0-5.93,8.62,3.44,15.92,0,0,17.89-6.31,30.56,13.42s-2.07,35-2.07,35,16.06.05,25,12.95,8.85,29,8.85,29,24.92-22.65,50.3.76S835.17,359.26,835.17,359.26Z"/>
      </g>
    </g>
  </g>
</svg>
