<svg xmlns="http://www.w3.org/2000/svg" xmlns:xlink="http://www.w3.org/1999/xlink" width="753.682" height="924.615" viewBox="0 0 753.682 924.615">
  <defs>
    <linearGradient id="a" x1="85.16" y1="716.782" x2="529.693" y2="716.782" gradientUnits="userSpaceOnUse">
      <stop offset="0" stop-color="#66421f"/>
      <stop offset="1" stop-color="#754c24"/>
    </linearGradient>
    <linearGradient id="b" x1="-116.501" y1="102.017" x2="649.444" y2="102.017" gradientTransform="translate(122.892 194.084) rotate(6.066)" gradientUnits="userSpaceOnUse">
      <stop offset="0" stop-color="#5a8539"/>
      <stop offset="1" stop-color="#46952f"/>
    </linearGradient>
  </defs>
  <title>Tree_4</title>
  <g>
    <path d="M362.271,924.615s-69.278-17.319-46.185-80.824,28.866-98.143,80.824-121.236,132.783-150.1,132.783-150.1l-28.866-11.546S402.683,670.6,304.54,687.916s-40.412-178.967-40.412-178.967H212.169S183.3,641.731,200.623,676.37s23.093,57.731,11.546,98.143-28.865,23.093-63.5,80.825-63.5,69.277-63.5,69.277Z" fill="url(#a)"/>
    <path d="M748.513,387.655c-19.2-28.7-48.722-12.5-48.722-12.5s3.8-15.6-1.828-30.23-21.235-18.433-21.235-18.433,17.9-11.384,10.205-33.533-26.573-20.2-26.573-20.2c-7.4-9.29.383-16.28.383-16.28,8.612-3.981,11.178-24.095-6.075-33.916s-34.182,11-34.182,11,1.209-13.271-6.046-16.132-12.033,3.3-12.033,3.3a15.53,15.53,0,0,0-3.155-5.6c-2.33-2.6-6.843-1.357-6.843-1.357s12.83-18.079,6.518-29.286-16.427-6.813-16.427-6.813a13.689,13.689,0,0,0-10.722-11.341c17.984-26.025-8.7-38.189-8.7-38.189,2.967-27.918-20.628-27.288-20.628-27.288-4.391-17.721-23.663-13.495-23.663-13.495s11.516-5.05,7.62-27.424-33.7-22.4-33.7-22.4S491.126-6.56,457.4.836,427.97,41.628,427.97,41.628s-13.135-9.238-28.81-9.335-24.914,13.038-24.914,13.038-4.061-20.823-27.492-21.744-28.51,17.361-28.51,17.361c-11.351,3.5-15.016-6.3-15.016-6.3-.562-9.471-18.35-19.2-33.793-6.728S267.2,63.758,267.2,63.758s-11.914-5.972-17.226-.262S248.651,75.9,248.651,75.9a15.534,15.534,0,0,0-6.369.892c-3.267,1.221-3.761,5.874-3.761,5.874s-12.146-18.545-24.884-16.761S201.3,78.715,201.3,78.715a13.679,13.679,0,0,0-14.783,6.271c-5.642,8.812,3,16,3,16-1.774,2.771.151,10.116.375,10.939-.176-.611-1.624-4.681-8.954-4.008-7.92.727-8.415,5.38-8.415,5.38a11.843,11.843,0,0,0-13.464-6.136c-9.636,2.113-7.523,11.749-7.523,11.749s-2.608-4.983-11.022.4S141.8,136.7,141.8,136.7s-13.292-4.35-21.354,2.9c-20.782,6.963-18.857,22.068-18.857,22.068s-52.414-34.22-66.576-10.466,7.829,33.4,7.829,33.4S-8.241,207.149,4.107,238.782A28.55,28.55,0,0,0,18.785,254.5c-11.1,8.742-5.418,27.8-5.418,27.8S5.1,292.068,5.238,315.668s16.833,29.053,16.833,29.053-23.491,18.188-22,34.838S33.51,400.183,33.51,400.183s-9.692,4.223-6.866,12.535c2.554,7.511,9.578,4.8,10.91,4.2-1.143.569-6.251,3.608-2.489,11.02,3.411,6.722,11.32,5.23,14.211,4.418a17.474,17.474,0,0,0-.735,2.16c-1.733,2.533-4.2,6.557-5.047,10.03-1.355,5.562,7.008,11.064,7.008,11.064s-19.419,2.894-19.285,25.105,29.319,27.59,29.319,27.59-6.916,4.206-4.065,16.683c2.136,9.348,15.9,9.275,22.676,8.651a16.9,16.9,0,0,0,1.533,4.988c-1.056,4.938-.218,12.294,10.688,18.082,9.812,5.208,15.905,3.1,19.433.071-.133,3.717.864,10.632,9.676,12.679,9.924,2.3,17.244-12.221,19.663-17.812-.636,2.613-.269,7.044,7.834,9.877,10.431,3.646,22.067-2.979,25.056-4.859-2.366,1.683-9.6,8.011-8.925,22.142.8,16.869,23.025,18.1,23.025,18.1s-20.529,19.941-8.371,35.356,40.883-14.741,40.883-14.741-.738,18.086,22.46,11.041c7.456-2.264,10.57-6.92,11.367-12.194a39.391,39.391,0,0,0,5.818-.671s9.088,9.013,32.626,10.726,30.285-14.5,30.285-14.5,16.287,24.847,33,24.671c14.771-.155,21.538-24.79,22.913-30.523.32.121.642.245.961.362,1.379,2.718,4.911,7.889,11.27,6.272a8.605,8.605,0,0,0,3.458-1.665c22.161,5.639,39.918,4.105,53.72-.4a28.887,28.887,0,0,0,10.969,2.845c15.349,1.116,23.734-12.3,27.438-20.651,1.137,3.954,3.826,8.6,9.5,13.336,0,.039,0,.076,0,.115,1,16.859,23.235,17.826,23.235,17.826s-20.293,20.18-7.956,35.452,40.707-15.219,40.707-15.219-.526,18.093,22.588,10.776c14.726-4.66,12.3-18.508,8.593-27.947a38.606,38.606,0,0,0,6.556-2.642c14.292,8.942,26.125-6.216,26.125-6.216s1.074,16.682,20.506,17.048S656.928,619.1,656.928,619.1c31.9,1.99,22.811-31.5,22.811-31.5s8.511-9.559,8.956-33.155c.269-14.288-5.691-22.068-10.437-25.988,8.721-5.423,10.049-13.093,9.639-18.528,4.426-5.772,7.983-12.571,7.554-19.227a13.173,13.173,0,0,0-1.554-5.372,26.849,26.849,0,0,0-3.514-8.928s8.907,8.877,28.313-2.92,8.553-39.549,8.553-39.549S767.712,416.351,748.513,387.655Z" fill="url(#b)"/>
  </g>
</svg>
