<svg xmlns="http://www.w3.org/2000/svg" xmlns:xlink="http://www.w3.org/1999/xlink" width="881.39" height="1901.6" viewBox="0 0 881.39 1901.6">
  <defs>
    <style>
      .cls-1 {
        fill: url(#linear-gradient);
      }

      .cls-2 {
        fill: url(#linear-gradient-2);
      }
    </style>
    <linearGradient id="linear-gradient" x1="242.93" y1="1496.2" x2="589.2" y2="1496.2" gradientUnits="userSpaceOnUse">
      <stop offset="0" stop-color="#66421f"/>
      <stop offset="1" stop-color="#754c24"/>
    </linearGradient>
    <linearGradient id="linear-gradient-2" y1="624.21" x2="881.39" y2="624.21" gradientUnits="userSpaceOnUse">
      <stop offset="0" stop-color="#005437"/>
      <stop offset="1" stop-color="#006837"/>
    </linearGradient>
  </defs>
  <title>Tree_44</title>
  <g id="Layer_2" data-name="Layer 2">
    <g id="Layer_1-2" data-name="Layer 1">
      <g>
        <path class="cls-1" d="M588,1437.25c8.56-57-29.94-346.45-29.94-346.45l-51.33,15.68s32.8,248.08,25.67,313.66-84.12,171.09-92.68,209.59-87-1.43-89.82-122.62-11.4-292.27-15.68-327.92H272.87s0,174-7.13,219.59-20,156.81-5.7,215.27,47,178.21,25.66,229.54-42.77,58-42.77,58H539.49s-29.94-174.92-14.26-226.25S579.41,1494.28,588,1437.25Z"/>
        <path class="cls-2" d="M854,903.17s17.9,5.36,9.21,25.06-52.43-1.78-52.43-1.78,3.84,15.09-20.46,21.74-37.6-14.05-37.6-14.05,4.36,32-16.62,36.83c-5.41,1.26-11.75,0-18.17-2.55.35.74.69,1.5,1,2.32,9.73,25.35-17.06,37-18.06,37.46.85-.17,21.23-4.12,21.18,13.29,0,17.77-20,19.46-20,19.46s34.67,7.89,23.34,29.33-23.65,8.17-23.65,8.17,1.19,41.63-18.32,39.42S664.25,1087,664.25,1087s-16.52,14.92-29.07,3.61c-10.51-9.47-9.91-19.06-9.44-21.93-.77,3.45-4.25,16.38-14.19,21.22-7.71,3.76-11.12.9-12.53-1.39,2.27,5.65,7.43,21.08-1.19,26.5-10.64,6.7-17.33-3.94-17.33-3.94s1.7,11.06-6.1,10.17-7.14-6.74-7.14-6.74-12,14.57-25,3.87c-3.57,6.63-9.77,13.86-20.2,15.27-10,1.34-14.93-2.93-17.41-7.57-.38.43-.78.85-1.21,1.28-13,13-21,5.71-21.35,5.36.12.64,2.46,13.4-5.35,16a13.41,13.41,0,0,1-13.35-2.67s2.67,13.35-13.35,13.35c-12.17,0-13.55-4.62-13.52-6.84-.62,2.77-3.67,9.51-18.52,9.51-18.7,0-18.7-16-18.7-16s-2.67,10.68-10.68,13.35c-7.81,2.6-15.62-2.41-16-2.66.21.32,10.56,16.15,0,29.36s-31.47,5.55-32,5.35c.6.73,26.47,32.26,8,50.73-18.69,18.69-50.73-10.68-50.73-10.68s0,18.69-21.37,16-13.35-50.74-13.35-50.74-13.35,8-26.7-13.35,2.67-40,2.67-40-29.37,13.35-40.05-5.34c-2.64-4.62-3.32-10.7-2.86-17.25a25.71,25.71,0,0,1-3.07-.23c-18.44-2.57-14.85-23.75-14.71-24.56-.4.41-10.74,11-17.06,3.56s-2.17-10.63-1.87-10.86c-.46.16-9.34,3.12-12.62-5.92a11.83,11.83,0,0,1,4.3-14.15s-4.68.12-6.44-7.63c-1.56-6.81,1.83-8.94,2.68-9.36-1.18.48-7.82,3.11-10.69,1.77,0,0-6,9.52-15.47,5.1a13.69,13.69,0,0,1-8.17-13.83s-10.87,1.85-14.32-10.54,13.32-26.88,13.32-26.88-4.68.12-6.32-2.95a15.67,15.67,0,0,1-1.73-6.2s-6.11,4.85-12.47.34-2.17-16.66-2-17.1c-.6.45-21.61,16-35.81,2.51-14.4-13.66-7.11-32.58,2.2-34.39,0,0,9.23-4.93,4.26-15.72,0,0-18.79-2.62-21-26s17.91-30.13,17.91-30.13-14.24-7.42-16.21-23,5.44-29.79,5.44-29.79S13.82,833.59,2,801.14s31.7-39.85,31.7-39.85-3.91-29.55,17.75-36.37c21.15-6.66,27.87,3.43,28.18,3.91-.25-.72-6.39-18.65,10.26-25.22,0,0-3.75-23.3,24.32-24.05,0,0,6.8-22.37,28.3-16.93-.26-.31-.52-.61-.78-1-14.93-19.11-3.46-28.07-3.46-28.07s-17.44,1.31-19.59-9.32a17.26,17.26,0,0,1,5.5-16.61s-17.44,1.31-14.92-19.12c1.91-15.51,8-16.55,10.84-16.16-3.44-1.23-11.55-6.17-9.22-25.11,2.93-23.83,23.36-21.32,23.36-21.32s-13.2-5.08-15.34-15.71,5.92-20,5.92-20-22.11,11.1-37.45-4.61S85.62,444,85.62,444s-45.05,29-65.95,2.25,21.58-63,21.58-63-23.83-2.93-17.07-29.75c6.7-26.58,65.72-9.37,66.77-9.07-.24-.58-7.64-18.49,21.23-31.94s50.12,9.13,50.63,9.68c-.25-.82-11.6-38,11.51-49.48.08-.77.19-1.56.33-2.39,3.63-21.57,22.43-15,22.43-15a28.74,28.74,0,0,1-2.16-4.76c-4.67-2-9-6.1-11.82-13.5-9.79-25.31,17-37.07,18-37.5-.86.17-21.22,4.17-21.22-13.23,0-17.78,19.94-19.52,19.94-19.52s-34.7-7.79-23.43-29.26S200,129.24,200,129.24s-1.31-41.63,18.2-39.47,19.31,30.78,19.31,30.78,16.47-15,29.05-3.69c10.53,9.44,10,19,9.5,21.9.76-3.45,4.21-16.39,14.13-21.26,7.71-3.78,11.12-.93,12.53,1.36-2.28-5.65-7.49-21.06,1.12-26.51,10.37-6.57,17,3.41,17.34,3.88-.08-.58-1.51-11,6.08-10.18a8.76,8.76,0,0,1,5.47,2.29A28.34,28.34,0,0,1,347,84.52a15.66,15.66,0,0,1,8.38-5.4c1.95-5.61,5.82-13.32,13.1-17.8,1.35-3.07,3.56-5.48,7.06-6.25,12.5-2.73,16.65,4.23,16.65,4.23s5.65-29.14,27.86-29.06S445,49.76,445,49.76s5.58-8.31,11.13-6.9,12.47,7,12.47,7-4.12-11.12,4.22-15.25c7.45-3.7,10.44,1.44,11,2.59-.58-1.34-3.23-8.39,4.31-10.87,8.34-2.75,12.47,7,12.47,7S504.84,1.38,521.51.05s34.63,22.33,34.63,22.33,5.61-16.64,29.21-16.56,33.29,8.45,33.29,8.45S652,4.66,650.49,36.59c0,0,12.86,1.12,15.93,14.58,3-.64,7.66-.56,10.61,5.11a11.84,11.84,0,0,1-2.42,14.6s4.62-.73,7.39,6.72c2.47,6.66-.75,9.19-1.47,9.65,1-.59,7.35-4.13,10.39-3.17,0,0,4.7-10.22,14.67-7.07a13.69,13.69,0,0,1,9.91,12.64S726,86.4,731.07,98.24s-9.7,28.39-9.7,28.39,4.62-.74,6.65,2.1a15.5,15.5,0,0,1,2.52,5.91s5.43-5.6,12.33-1.95,4.23,16.7,4.23,16.7,19.12-18.83,35.18-7.17,11.31,31.37,2.31,34.38c0,0-8.51,6.09-2.18,16.13,0,0,19,.15,24.19,23s-13.83,32.2-13.83,32.2,15.08,5.5,19.07,20.66-1.51,30.25-1.51,30.25,31.13-12.84,47,17.8-26.23,43.65-26.23,43.65,7.73,28.77-12.86,38.36c-20.16,9.39-28.12.19-28.45-.2.29.57,8.82,17.64-6.88,26.35,0,0,6.75,22.61-21,27,0,0-4.82,29.08-34.84,18.26,2.08,11-4,14.92-4,14.92s29.33,4.58,30.06,26.78-18.59,25.62-18.59,25.62,8.51,5.27,7.31,10.87S735.37,561,735.37,561s11-4.53,15.41,3.66c4,7.3-1.06,10.48-2.19,11.08,1.31-.63,8.26-3.53,11,3.9,3,8.24-6.52,12.72-6.52,12.72s32,3.1,34,19.71S766,647.48,766,647.48a20.88,20.88,0,0,1,5.83,3.17c4-1.1,10,.8,16.64,15.44,0,0,15.86-6.4,24.81,10.23s-1,22-1,22,13.56,1.28,13.82,9.72a13.42,13.42,0,0,1-6.4,12s13.56,1.28,9,16.62c-3.49,11.65-8.31,11.66-10.43,11,2.47,1.4,8,6.26,3.79,20.48-3.78,12.6-12.49,14-17.33,13.81a9.55,9.55,0,0,1-.44,1.67c2.8,2.38,6.61,6.58,6.77,11.89.26,8.44-7.15,14.58-7.15,14.58s18.41-5.63,28.13,8.43-4.08,32.23-4.08,32.23,38.36-16.38,50.89,6.9S854,903.17,854,903.17Z"/>
      </g>
    </g>
  </g>
</svg>
