<svg xmlns="http://www.w3.org/2000/svg" xmlns:xlink="http://www.w3.org/1999/xlink" width="1016.83" height="1056.21" viewBox="0 0 1016.83 1056.21">
  <defs>
    <style>
      .cls-1 {
        fill: url(#linear-gradient);
      }

      .cls-2 {
        fill: url(#linear-gradient-2);
      }
    </style>
    <linearGradient id="linear-gradient" x1="352.63" y1="833.29" x2="737.63" y2="833.29" gradientUnits="userSpaceOnUse">
      <stop offset="0" stop-color="#66421f"/>
      <stop offset="1" stop-color="#754c24"/>
    </linearGradient>
    <linearGradient id="linear-gradient-2" y1="384.28" x2="1016.83" y2="384.28" gradientUnits="userSpaceOnUse">
      <stop offset="0" stop-color="#005437"/>
      <stop offset="1" stop-color="#006837"/>
    </linearGradient>
  </defs>
  <title>Tree_7</title>
  <g id="Layer_2" data-name="Layer 2">
    <g id="Layer_1-2" data-name="Layer 1">
      <g>
        <path class="cls-1" d="M415.63,770.38c30.93,29,54.38,69.6,67.15,94.83,17.08,101.59,4.71,145.31-11.15,161.17-17,17-44,8-55,11-8.84,2.41-6.71,11.29-14.88,18.83H697.88a80.54,80.54,0,0,0-12.25-3.83c-35-8-67-110-78-148s13-37,33-51,36-60,15-131l-9,3s15,75-2,91-51,20-51,20-25-78-25-169l-174-57s44.71,83.56,72,181.66c-28.1-26.1-86.23-85.74-90-135.66h-7S367.63,725.38,415.63,770.38Z"/>
        <path class="cls-2" d="M1016.82,531.08c.55-24.24-34-15.81-34-15.81s17.1-10.42,9.19-26.35-24.91-2.4-24.91-2.4,19.85-22.92-.55-41.59a26.48,26.48,0,0,0-9.62-5.89,33.79,33.79,0,0,0-11-14.21s19.84-1.76,14.26-22.91-20.33-15.51-20.33-15.51,7-20.61-15.07-28.66c11-17.36-7.16-37.89-7.16-37.89s31.9-30.47,4-50.77-50,5.09-50,5.09-1.82-15.95-12.16-27.74-26.29-10-26.29-10,12.87-16.87-2-35-31.92-9.78-31.92-9.78c-10.15-6.16-5.26-15.41-5.26-15.41,6.71-6.71,2.17-26.48-17.41-29.73s-28.28,22.12-28.28,22.12-3.45-12.87-11.25-13.05-10.15,7.26-10.15,7.26a15.46,15.46,0,0,0-4.9-4.17c-2.49-1.32-5.46.21-6.5.84-.07-.17-.13-.34-.2-.52.92-3.85,4.52-21.56-4.18-29a17.06,17.06,0,0,0-5.29-3.17c-5.07-7-13.31-9.73-13.31-9.73,0-28.07-23.4-25-23.4-25-5.38-14.81-20-12.19-24-11.2l-.37-.15c2.2-1.72,9.4-9,4.07-27.65-6.24-21.83-35.88-18.71-35.88-18.71s-6.24-43.68-39-32.76-25,43.68-25,43.68-14-7.8-29.63-6.24-23.4,15.59-23.4,15.59-6.24-20.27-29.63-18.71-26.52,20.27-26.52,20.27c-10.92,4.68-15.6-4.68-15.6-4.68-1.56-9.35-20.27-17.15-34.31-3.11-11.72,11.71-2.8,28.85.48,34.2l-1.17,1c-3.81-1-11.47-2.34-14.91,2.25-4.68,6.24,0,12.48,0,12.48A15.55,15.55,0,0,0,368,100c-3.12,1.56-3.12,6.24-3.12,6.24s-14-17.16-26.51-14-10.92,14-10.92,14a13.68,13.68,0,0,0-14,7.8c-4.68,9.35,4.68,15.59,4.68,15.59-1.47,2.95,1.22,10,1.53,10.84-.24-.59-2.11-4.48-9.33-3-7.8,1.56-7.8,6.24-7.8,6.24a11.85,11.85,0,0,0-14-4.68c-9.36,3.12-6.24,12.48-6.24,12.48a4.44,4.44,0,0,0-3.64-1.68c-11.39-4.66-23,3.17-23,3.17-22.28-17.07-34,3.4-34,3.4-17.41-5.48-23.84,13.17-23.84,13.17s1.69-12.46-19.44-20.79-36.68,17.1-36.68,17.1-38.46-21.61-49.71,11,19.49,46.37,19.49,46.37-14.73,6.4-23,19.73-1.85,28.06-1.85,28.06S66.69,263.68,53.7,283.2s0,33.38,0,33.38c-2.93,11.51-13.2,9.54-13.2,9.54-8.38-4.46-25.95,5.66-23.34,25.34,1.49,11.28,10.93,16.38,18.73,18.69-1.28,1.51-2.51,3-3.7,4.5C24.58,384,26,397.78,30,410.32c-4.1,1.85-7.78,4.57-9.51,8.56-5.11,11.8,4.51,17.2,4.51,17.2A13.66,13.66,0,0,0,22.22,451C11.76,458.74,1.3,471.67.1,492.79c-1.84,32.27,22.41,42.42,35.13,45.52a18,18,0,0,0,4.25,7.11,22,22,0,0,0,6.84,5.06c1,2.85,2.22,6.13,3.61,9.67-3.42,3.1-7.08,8.57-9.32,18.22-5.15,22.11,22.27,33.78,22.27,33.78s-15.75,41.21,18.19,47.56,43-26.06,43-26.06,8.49,13.63,22.88,19.84,28-2.27,28-2.27S170.61,672,191.82,682s33-4.85,33-4.85c11.82,1.21,11.37,11.66,11.37,11.66-3.18,8.94,9.39,24.85,28.48,19.39s16.05-32.12,16.05-32.12,8.64,10.15,15.76,7,6.06-10.91,6.06-10.91a15.59,15.59,0,0,0,6.21,1.66c3.49.15,5.76-3.94,5.76-3.94s3.94,21.82,16.36,25.15,16.36-7,16.36-7a13.68,13.68,0,0,0,16.06,0c8.64-5.91,3.48-15.91,3.48-15.91,2.72-1.86,3.81-9.37,3.93-10.22-.08.63-.33,5,6.68,7.19,7.57,2.42,9.85-1.67,9.85-1.67a11.84,11.84,0,0,0,10,10.91c5.7,1.07,8.68-1.85,10.16-4.43,0,.35.08.7.13,1.06,2.56,18.08,22,14.14,22,14.14s-4.22,4.12,1.27,9.74,11.15-4,11.15-4-1.53,12.48,10.95,14c10.11,1.25,15.85-14,17.67-19.79-.36,2.67.47,7,8.83,9,10.76,2.52,21.63-5.3,24.4-7.48-2.17,1.92-8.69,9-6.53,23,2.58,16.69,24.81,15.56,24.81,15.56s-18.31,22-4.59,36.05,39.09-19,39.09-19,1.18,18.06,23.5,8.6c7.18-3,9.78-8,10-13.32a39.73,39.73,0,0,0,5.71-1.29s10,8,33.58,7.22S658,729.7,658,729.7s18.83,23,35.43,21,19.7-34,19.7-34,4.49,9.57,12.72,6.52c7.44-2.76,4.54-9.7,3.9-11,.6,1.13,3.78,6.15,11.09,2.19,6.71-3.64,4.87-11.66,4-14.43l.73-.22c2.19,1.51,7.36,4.85,11.65,5.77,5.6,1.2,10.87-7.31,10.87-7.31s3.42,19.33,25.62,18.6,26.78-30.06,26.78-30.06,4.39,6.8,16.79,3.61c4.75-1.23,7-5.43,7.86-10.15,4.26,2.63,10.31,3.68,18.08-1.6,8.69-5.91,11-15.16,11.24-22.68,16.42,3.75,20.62-14.63,20.62-14.63s2,5.53,9.4,2.84.91-11.83.91-11.83,10.74,6.53,17.27-4.21c4.15-6.83-2-15.37-7.1-20.69,13.24,1.24,24.68-5.77,33.76-17.21,13.5.34,20.23-16.84,20.23-16.84s12.53,25.73,31,19S999.31,549,999.31,549,1016.26,555.32,1016.82,531.08Z"/>
      </g>
    </g>
  </g>
</svg>
