<svg xmlns="http://www.w3.org/2000/svg" xmlns:xlink="http://www.w3.org/1999/xlink" width="619.41" height="1996.09" viewBox="0 0 619.41 1996.09">
  <defs>
    <style>
      .cls-1 {
        fill: url(#linear-gradient);
      }

      .cls-2 {
        fill: url(#linear-gradient-2);
      }
    </style>
    <linearGradient id="linear-gradient" x1="291.99" y1="1552.31" x2="482.92" y2="1552.31" gradientUnits="userSpaceOnUse">
      <stop offset="0" stop-color="#66421f"/>
      <stop offset="1" stop-color="#754c24"/>
    </linearGradient>
    <linearGradient id="linear-gradient-2" y1="591.69" x2="619.41" y2="591.69" gradientUnits="userSpaceOnUse">
      <stop offset="0" stop-color="#5a8539"/>
      <stop offset="1" stop-color="#46952f"/>
    </linearGradient>
  </defs>
  <title>Tree_34</title>
  <g id="Layer_2" data-name="Layer 2">
    <g id="Layer_1-2" data-name="Layer 1">
      <g>
        <path class="cls-1" d="M452.14,1253.32q-12.08,7.7-23.7,14.4a78.22,78.22,0,0,0,17.54-40.4,90.67,90.67,0,0,1-23.42,43.15q-14.44,10.62-29.17,22.58-4.11,3.36-8.1,6.71,6.25-11.62,13.33-23.7,9.53-16.23,19.09-30.85c-13.23,19.26-23.65,34.39-30.61,45.17-.93,1.44-10.91,16.88-19.79,24.39-.5.42-1.84,1.53-3.54,3.21a59.78,59.78,0,0,0-9.75,12.71,136.3,136.3,0,0,1-16.26,21.18c-2.27,2.52-5.17,5.52-8.7,8.78,2.3-94.52,6.74-178.28,11.61-248.79l-19.79-3.34c-10.69,137.37-14.37,249.84-15.72,328.25-2,113.16.68,171.15-2.23,301.17-2.44,109.51-7.23,199-10.94,258.15l42-.65c-1.77-102.21-3.11-192.57-4.11-268.35-2.69-202.85-2.69-273.45-1.33-341.78,6.49-8.29,13.16-17.45,19.78-27.51a413.84,413.84,0,0,0,21.77-37.15c10.64-9.77,22.26-19.75,34.93-29.73q10.69-8.43,21.07-15.88c8.88-5.47,18.28-11.74,28-18.92,10.78-8,20.39-16,28.88-23.61C473.31,1239.41,463.05,1246.38,452.14,1253.32Z"/>
        <path class="cls-2" d="M617.86,550c-10.22-33-43.14-25.88-43.14-25.88s8.1-13.87,6.87-29.5-15.08-23.72-15.08-23.72,20.4-5.8,19.34-29.23-19.7-27-19.7-27c-4.45-11,5-15.48,5-15.48,9.38-1.36,17.58-19.91,3.84-34.25-13.53-14.13-35.27.37-35.89.78.17-.45,4.82-12.46-1.2-17.18s-12.48-.26-12.48-.26a15.49,15.49,0,0,0-1.42-6.26c-1.5-3.16-6.18-3.26-6.18-3.26s17.46-13.67,14.61-26.21c-2.23-9.79-9.4-11.13-12.43-11.25,12.48-12.95,37.12-41.49,33.89-62-4.3-27.32-45.67-24.68-45.67-24.68S536,199.52,529.7,167.78s-26-28.21-26-28.21,31.54-54.07,7.11-67c-10.33-5.46-17.8-4.61-23-1.8a24.76,24.76,0,0,0-3.52-3.2A25.28,25.28,0,0,0,465,62.88c-10.28-12.3-25.82-24.61-43.22-16.79a28.33,28.33,0,0,0-9.76,7.1c-24.84.55-34.22,16.27-36.42,20.85a10,10,0,0,0-1.16-.87c-1.49-3.79-6.37-11.07-21.6-8.07-.51.1-1,.21-1.48.32a32,32,0,0,0,.05-10.06c-2.43-16.72-24.66-15.8-24.66-15.8s18.51-21.82,4.93-36-39.28,18.6-39.28,18.6-1-18.07-23.42-8.83-.8,37.47-.8,37.47-12.15-8.46-22.79-2.15C223.09,50,217.35,70.74,217.35,70.74s-8-18.23-26.27-6.15-8.16,24.24-8.16,24.24-22.25-.07-22.33,24.19c0,8.7,3.08,14.54,7.07,18.46-.16.78-.29,1.55-.38,2.29a31.07,31.07,0,0,0-3.66.29c-16.59,2.18-14.82,18.76-14.42,21.51l-.15.19c-.91-.77-4.62-3.32-9.52,1.39-5.67,5.43,3.92,11.19,3.92,11.19s-8-1.06-12,4.92l-.86-.2c-19-3.85-23.72,12.2-23.72,12.2-31-7.68-28.09,26.9-28.09,26.9S68.67,220,64,243.16,74.54,275,74.54,275s-26.71,13-28.65,29.62,28.53,27,28.53,27-10.35,2.16-9.28,10.87c1,7.87,8.4,6.65,9.82,6.34-1.23.32-6.85,2.26-4.68,10.28,2.43,9,14.14,7.11,14.14,7.11s-6.82,5.7-9.28,10.87,4.6,12.26,4.6,12.26-19.6-1.13-24,20.64a22.33,22.33,0,0,0,2,14.85c-6.35-1.83-13.47-1.76-19.37,3.75-14.33,13.42,18.14,39.5,18.14,39.5s-18.08.79-9.11,23.31c2.89,7.24,7.79,9.95,13.11,10.3a39.8,39.8,0,0,0,1.16,5.74s-8.21,9.82-7.92,33.42c.12,10.31,3.38,17.14,7,21.56a15.5,15.5,0,0,0-1,3.95c-.47,3.8,1.39,7,4.2,9.58-6.76,6.77-16,18.14-15,28.83a13.55,13.55,0,0,0,2.71,6.85c-13.1,4.88-12.15,23.92-12.15,23.92s-22-18.31-36-4.59,19,39.1,19,39.1-18.07,1.17-8.61,23.5c3,7.17,8,9.78,13.33,10a39.4,39.4,0,0,0,1.28,5.72s-8,10-7.22,33.57S38.86,771.5,38.86,771.5s-23,18.82-21,35.42,34,19.71,34,19.71-9.58,4.48-6.53,12.71c2.76,7.44,9.71,4.54,11,3.91-1.12.6-6.15,3.77-2.18,11.08,4.44,8.19,15.4,3.65,15.4,3.65S64.2,865.11,63,870.7s7.31,10.87,7.31,10.87S51,885,51.71,907.19,81.77,934,81.77,934s-6.8,4.4-3.61,16.79c2.51,9.77,17.61,8.77,23.89,7.9a27.73,27.73,0,0,0,1.38,2.47c-1.59,4.48-2.65,13.2,9.16,19.7-3,4.22-4.6,10.7,1.16,19.81,11.68,18.49,24.06,8.69,24.06,8.69,0,.19-.41,21.4,22.41,22.76,2.39,12.08,19.14,14.81,19.14,14.81s-14.57,13.74,1.24,26.35c8.24,6.55,17.76,6,25,4,1.29,16.8,20.08,15.36,20.08,15.36s-4.69,3.57.07,9.82,11.57-2.64,11.57-2.64-3,12.2,9.15,15.25c9.88,2.47,17.45-11.92,20-17.48-.68,2.61-.4,7,7.66,10,10.36,3.82,22.11-2.61,25.13-4.44-2.39,1.64-9.73,7.85-9.29,22,.51,16.87,22.71,18.48,22.71,18.48s-20.86,19.59-9,35.21,41.13-14,41.13-14-1.05,18.07,22.27,11.42c23-6.55,5.56-36.23,5-37.12.61.52,15.28,13,27.87,1s-4.27-23.94-5.06-24.48c1,.4,28,11.7,39.54-12.88a26.62,26.62,0,0,0,2.78-10.92,33.88,33.88,0,0,0,10.3-14.75s7.55,18.44,26.11,6.84,8.79-24,8.79-24,20.57.59,22.76-21a30,30,0,0,0,5.39-.21c17.79-2.13,14.73-21,14.61-21.72.25.23,4.19,4.12,9.75-1.09,5.74-5.37-3.79-11.24-3.79-11.24s12.44,1.81,14.24-10.64c1.46-10.08-13.63-16.14-19.41-18.09,2.66.42,7-.33,9.18-8.63,2.76-10.71-4.83-21.74-7-24.57,1.88,2.22,8.79,8.89,22.83,7,16.74-2.22,16.08-24.47,16.08-24.47s21.61,18.78,35.93,5.36-18.14-39.5-18.14-39.5,18.09-.78,9.11-23.31c-2.88-7.23-7.79-9.95-13.11-10.29a40.55,40.55,0,0,0-1.14-5.7c3.59-.56,7.44-2.66,11.12-7.53,12.18-16.14-1.91-36.41-1.91-36.41s16.19-4,16.29-34.33S583.15,735,583.15,735s14.16-2,10.18-22.21-18.13-22.3-18.13-22.3,20.21,2.08,26.36-22.16-10-34.41-10-34.41,18.21-2,18.29-26.23c0-11.58-5-19-10.28-23.65C611.07,579.31,623.9,569.48,617.86,550Z"/>
      </g>
    </g>
  </g>
</svg>
