<svg xmlns="http://www.w3.org/2000/svg" xmlns:xlink="http://www.w3.org/1999/xlink" width="747.76" height="1428.2" viewBox="0 0 747.76 1428.2">
  <defs>
    <style>
      .cls-1 {
        fill: url(#linear-gradient);
      }

      .cls-2 {
        fill: url(#linear-gradient-2);
      }
    </style>
    <linearGradient id="linear-gradient" x1="293.88" y1="1153.7" x2="373.88" y2="1153.7" gradientUnits="userSpaceOnUse">
      <stop offset="0" stop-color="#66421f"/>
      <stop offset="1" stop-color="#754c24"/>
    </linearGradient>
    <linearGradient id="linear-gradient-2" y1="478.24" x2="747.76" y2="478.24" gradientUnits="userSpaceOnUse">
      <stop offset="0" stop-color="#5a8539"/>
      <stop offset="1" stop-color="#46952f"/>
    </linearGradient>
  </defs>
  <title>Tree_18</title>
  <g id="Layer_2" data-name="Layer 2">
    <g id="Layer_1-2" data-name="Layer 1">
      <g>
        <path class="cls-1" d="M293.88,1428.2h57s23-361,23-549h-26s-11,238-25,283S293.88,1428.2,293.88,1428.2Z"/>
        <path class="cls-2" d="M747.7,499.64C746.19,516.29,719.83,530,719.83,530s15.45,8.34,11.38,31.59-14,31.38-14,31.38a38.93,38.93,0,0,1,.08,5.85c5.17,1.33,9.49,4.89,11,12.54,4.68,23.79-13.24,21.24-13.24,21.24s27.11,31.61,10.55,42.15-34.33-11.88-34.33-11.88-3.46,22-20.32,21.09c-14.13-.75-19.7-8.58-21.13-11.11,1.57,3.16,7,15.41,2.31,25.42-3.63,7.78-8.08,7.7-10.61,6.8,5.31,3,19,11.71,15.74,21.35-4,11.6-15.36,8-15.94,7.85.43.41,8.08,7.64,1.64,11.73-6.62,4.22-9.79-.75-9.79-.75s-.12,16-13.36,18.43a21.83,21.83,0,0,1,.16,8.56c-3.12,18.72-25,14-25,14s10.92,10.92,3.12,17.16c-7.51,6-10.68,1.9-10.91,1.58.14.44,2.88,9.42-6.25,12.46a11.85,11.85,0,0,1-14-4.68s0,4.68-7.8,6.24c-6.83,1.36-8.87-2.06-9.27-2.92.46,1.21,2.89,7.88,1.48,10.71,0,0,9.35,6.24,4.67,15.6a13.66,13.66,0,0,1-14,7.8s1.56,10.92-10.92,14-26.52-14-26.52-14,0,4.68-3.12,6.24a15.55,15.55,0,0,1-6.24,1.56s4.68,6.24,0,12.48-16.68,1.73-17.14,1.57c.43.61,15.38,22,1.55,35.86-14,14-32.76,6.24-34.32-3.12,0,0-4.68-9.36-15.6-4.68,0,0-3.12,18.72-26.51,20.28s-29.64-18.72-29.64-18.72-7.8,14-23.39,15.6-29.64-6.24-29.64-6.24,7.8,32.76-24.95,43.67-39-32.75-39-32.75S227,925.1,220.71,903.26c-6.09-21.3,4.16-27.76,4.66-28.06-.73.23-18.83,5.88-24.94-10.93,0,0-23.4,3.12-23.4-25,0,0-28.07-9.36-12.47-37.43,0,0-24.75-13.51-11.18-38.61-16.55-7.11-9.73-21.13-9.73-21.13S121,750,116.29,738.05s1.5-17.11,1.5-17.11S88.13,720,84.64,698.1s15.28-27.73,15.28-27.73-9.1-4.18-8.6-9.88,4.75-13.19,4.88-13.42c-.38.21-10.4,5.71-15.72-1.73-4.84-6.75-.25-10.53.79-11.27-1.23.79-7.76,4.54-11.42-2.5-4-7.79,4.9-13.43,4.9-13.43s-32.19.9-36.17-15.34S55.07,565,55.07,565s-17.33-2.87-21-26.18,3-34.21,3-34.21a39.33,39.33,0,0,1-2-5.51c-5.32.43-10.56-1.54-14.47-8.29-12.15-21,5.63-24.38,5.63-24.38S-9.7,445.38,2.54,430s36.33.08,36.33.08S35,408.19,51.24,403.56c13.6-3.88,21.41,1.72,23.59,3.64-2.51-2.48-11.62-12.3-10.45-23.29.91-8.53,5.14-9.9,7.83-9.88-6-1.08-21.81-4.89-21.83-15.08,0-12.57,12.55-12.59,12.55-12.59s-10.28-4.43-5.39-10.57,9.5-2.47,9.5-2.47-6.32-18.85,11.3-23.63,19,7.63,19,7.63,1.74-9.62,8.74-11.46a6.73,6.73,0,0,1-2.47-2.58s-10.83,3.06-14.91-6.57A13.69,13.69,0,0,1,91.92,281s-9.32-5.9-3.59-17.42,27.89-11.05,27.89-11.05-3.56-3-2.72-6.43a15.5,15.5,0,0,1,2.87-5.75s-7.79-.5-9.49-8.11,10-14.06,10-14.06-26.74-2.31-28.3-22.1,16.52-29,24.65-24.08c0,0,10.16,2.52,13.69-8.82,0,0-12.21-14.53,1.79-33.33,13.79-18.53,32.91-10.63,33.47-10.4-.18-.51-5.45-15.26,3.33-27.91,8.94-12.88,24-18.49,24-18.49s-30-15.34-17-47.34,50.22-8.39,50.22-8.39S239.53-7.28,260.19,2.16s18.32,21.78,18.32,21.78,7.4-18.28,24.5-11.89c0,0,12.82-19.82,34.18-1.59,0,0,25.34-15.28,36.57,14.81,0,0,12.9-4.93,24.17,1.24a22.41,22.41,0,0,1,6.49-2.94c18.25-5.18,23.35,16.56,23.35,16.56S433,25.6,442,30,448,39.19,448,39.19s7.13-6.82,14,.31a11.85,11.85,0,0,1,1.76,14.69s4.23-2,9,4.38c4.39,5.91,1.66,9.27,1.23,9.73.59-.61,5.86-6.08,9.15-6,0,0,1.64-11.13,12.1-10.89a13.68,13.68,0,0,1,13.05,9.36s9.21-6.08,17.36,3.87-1.36,30-1.36,30,4.23-2,7,.16a15.61,15.61,0,0,1,4.08,5s3.64-6.9,11.28-5.33,8.74,14.84,8.74,14.84,13.08-23.43,31.77-16.73,19.63,26.94,11.84,32.35c0,0-6.46,8.23,2.43,16.1,0,0,18.26-5.17,29.66,15.31s-4.26,34.8-4.26,34.8,16,1.05,24.1,14.48,7,29.46,7,29.46,26.29-21,50.15,3.91-12.95,49.25-12.95,49.25,12.34,20.32,2.79,35.33a16.25,16.25,0,0,1-4.27,10.23c.22,0,24,0,24.55,12.75s-7,15.69-7,15.69,27.76,10.5,23.93,32.38-23.46,21.26-23.46,21.26,7.25,6.91,4.92,12.14-9,11.11-9,11.11,11.66-2.19,14.32,6.74c2.32,7.75-2.9,9.93-4.31,10.36,1.63-.37,8.74-1.56,9.88,6.11,1.3,8.69-9,11.11-9,11.11S749.2,483,747.7,499.64Z"/>
      </g>
    </g>
  </g>
</svg>
