<svg xmlns="http://www.w3.org/2000/svg" xmlns:xlink="http://www.w3.org/1999/xlink" width="899.58" height="1423.64" viewBox="0 0 899.58 1423.64">
  <defs>
    <style>
      .cls-1 {
        fill: url(#linear-gradient);
      }

      .cls-2 {
        fill: url(#linear-gradient-2);
      }
    </style>
    <linearGradient id="linear-gradient" x1="437.28" y1="1128.9" x2="570.78" y2="1128.9" gradientUnits="userSpaceOnUse">
      <stop offset="0" stop-color="#66421f"/>
      <stop offset="1" stop-color="#754c24"/>
    </linearGradient>
    <linearGradient id="linear-gradient-2" y1="460.41" x2="899.58" y2="460.41" gradientUnits="userSpaceOnUse">
      <stop offset="0" stop-color="#2b773e"/>
      <stop offset="1" stop-color="#27954f"/>
    </linearGradient>
  </defs>
  <title>Tree_25</title>
  <g id="Layer_2" data-name="Layer 2">
    <g id="Layer_1-2" data-name="Layer 1">
      <g>
        <path class="cls-1" d="M482.28,1423.64s-45-289.49-45-589.47h40.5s24,411,93,589.47Z"/>
        <path class="cls-2" d="M897.63,325.45c-10.79,16.39-36.19,3.2-36.19,3.2s5.84,21.47-9.91,27.56c-13.2,5.09-21.49.22-23.83-1.49,2.73,2.24,12.68,11.19,12.51,22.24-.13,8.59-4.22,10.33-6.9,10.55,6.07.53,22.16,2.9,23.1,13.05,1.16,12.51-11.36,13.67-11.36,13.67s10.64,3.48,6.32,10c-4.19,6.36-8.93,3.51-9.22,3.33.22.52,7.33,17.35-7.86,24,4.3,6.18,8,15,4.49,24.92-2.56,7.36-6.77,10.51-11,11.61.15.38.3.75.44,1.15,6.9,19.3-9.61,23.11-9.61,23.11s20.32,12.71,14,23.84-14.25,9.59-14.25,9.59,17.94,23.64,3.07,40.14-31.17,5.55-31.17,5.55,2.47,9.7-2.28,12.89-13.52,4.64-13.52,4.64,11,4.34,8.55,13.32c-2.22,8-8,6.81-9.26,6.46,1.38.46,8.4,3.19,5.22,10.45-3.46,7.93-13.23,4.74-13.51,4.65.51.6,20.79,24.63,10.8,37.76-10.13,13.31-39.74,10.91-39.74,10.91s8.65,15.28-7.15,32.81-28.49,19.16-28.49,19.16-8.72,18-22.91,16.88a33.65,33.65,0,0,1-6.24,4.74c15.6,28.08-12.48,37.44-12.48,37.44,0,28.07-23.4,25-23.4,25-6.11,16.81-24.2,11.16-24.93,10.93.5.3,10.75,6.76,4.66,28.07-6.24,21.83-35.88,18.71-35.88,18.71s-6.24,43.68-39,32.76-25-43.68-25-43.68-14,7.8-29.63,6.24S462.75,866,462.75,866s-6.24,20.27-29.63,18.71-26.52-20.27-26.52-20.27c-10.92-4.68-15.6,4.67-15.6,4.67-1.56,9.36-20.28,17.16-34.31,3.12-13.84-13.83,1.12-35.25,1.55-35.86-.46.16-12.56,4.55-17.15-1.57s0-12.48,0-12.48a15.55,15.55,0,0,1-6.24-1.56c-3.12-1.56-3.12-6.24-3.12-6.24s-14,17.16-26.51,14-10.92-14-10.92-14a13.68,13.68,0,0,1-14-7.8c-4.68-9.35,4.68-15.59,4.68-15.59-1.41-2.84,1-9.51,1.48-10.72-.4.87-2.44,4.28-9.28,2.92-7.8-1.56-7.8-6.24-7.8-6.24a11.85,11.85,0,0,1-14,4.68c-9.13-3-6.39-12-6.25-12.46-.23.32-3.4,4.43-10.9-1.58-7.27-5.81,1.7-15.67,3-17l-.06-.12c-2.2.42-21.81,3.59-24.75-14.07-1.92-11.54,4.45-17.74,9.62-20.8-.65-2.63-1-4.66-1-4.66s-4.54,11-13.47,8.31c-8-2.37-6.66-8.16-6.29-9.39-.48,1.38-3.34,8.35-10.55,5-8-3.67-4.38-13.61-4.38-13.61s-24.86,20.47-38,10.1-10.17-39.93-10.17-39.93-15.44,8.37-32.67-7.75S90.84,635,90.84,635a39.68,39.68,0,0,1-4.94-3.13c-3.94,3.6-9.29,5.27-16.51,2.34-22.47-9.1-10.53-22.7-10.53-22.7s-41.3,5.4-41.07-14.23,28.73-22.24,28.73-22.24S30,560.15,40,546.52c8.35-11.41,18-11.79,20.85-11.61-3.5-.42-16.72-2.58-22.54-12-4.52-7.29-2-11,.11-12.6-5.39,2.83-20.22,9.53-26.49,1.5-7.52-9.64,1.65-17.23,2.15-17.64-.54.13-10.81,2.6-10.72-5s5.79-7.79,6-7.79C8.79,481-7,470.13,3.75,455.78c11-14.59,19.7-5.66,19.7-5.66a21,21,0,0,1-1.89-6c0-.09-.07-.17-.1-.26-6.06-18,15.4-24.14,15.4-24.14S22.09,415.2,26,406c3.75-8.76,8.44-6.74,8.86-6.54-.5-.51-6.87-7.05-.35-13.93a11.85,11.85,0,0,1,14.59-2.49s-2.2-4.13,3.94-9.18c5.45-4.47,8.87-2.32,9.58-1.78-.92-.8-6.29-5.58-6.37-8.77,0,0-11.2-1.09-11.48-11.55a13.68,13.68,0,0,1,8.71-13.49s-6.52-8.9,3-17.53,30-.11,30-.11-2.21-4.13-.19-7a15.48,15.48,0,0,1,4.77-4.31s-7.07-3.3-5.88-11,14.39-9.46,14.39-9.46S75.58,277,81.35,258s26-20.94,31.73-13.42c0,0,8.54,6,16-3.22,0,0-6.07-18,13.83-30.38s35,2.55,35,2.55.26-16.06,13.29-24.79,29.08-8.46,29.08-8.46-22.32-25.21,1.43-50.28,49.83,10.52,49.83,10.52,24.67-16.71,40.46-.39a48.6,48.6,0,0,1,5.95,7.35c10.51-4.86,16.54,1.15,16.54,1.15s-3.43-17.15,6.87-20.58a17.23,17.23,0,0,1,17.15,3.43s-3.43-17.15,17.15-17.15c15.62,0,17.41,5.93,17.36,8.79.81-3.56,4.72-12.22,23.8-12.22,24,0,24,20.58,24,20.58s3.43-13.72,13.72-17.15,20.58,3.43,20.58,3.43-13.72-20.58,0-37.73,41.17-6.86,41.17-6.86S481.92,32,505.94,8s65.17,13.73,65.17,13.73,0-24,27.44-20.59S615.7,66.31,615.7,66.31,632.85,56,650,83.46s-3.43,51.45-3.43,51.45,37.73-17.15,51.45,6.86c5.72,10,4.28,25.39.66,39.92,21.15-5.16,27.43,14.51,27.43,14.51s8.49-13.31,25.58.34,2.2,26.89,2.2,26.89a33.91,33.91,0,0,1,17.32,4.85,26.55,26.55,0,0,1,11.23-1c27.51,2.83,25.24,33.07,25.24,33.07s5.59-21,21.43-12.92c15.6,8,8.54,26.07,8.33,26.62.51-.61,22.86-27.11,36.7-7.55,14,19.8-3.39,24.8-3.39,24.8S908.43,309.05,897.63,325.45Z"/>
      </g>
    </g>
  </g>
</svg>
