<svg xmlns="http://www.w3.org/2000/svg" xmlns:xlink="http://www.w3.org/1999/xlink" width="1109.5" height="1498.99" viewBox="0 0 1109.5 1498.99">
  <defs>
    <style>
      .cls-1 {
        fill: url(#linear-gradient);
      }

      .cls-2 {
        fill: url(#linear-gradient-2);
      }
    </style>
    <linearGradient id="linear-gradient" x1="333.83" y1="1207.26" x2="651.49" y2="1207.26" gradientUnits="userSpaceOnUse">
      <stop offset="0" stop-color="#66421f"/>
      <stop offset="1" stop-color="#754c24"/>
    </linearGradient>
    <linearGradient id="linear-gradient-2" y1="499.58" x2="1109.5" y2="499.58" gradientUnits="userSpaceOnUse">
      <stop offset="0" stop-color="#005437"/>
      <stop offset="1" stop-color="#006837"/>
    </linearGradient>
  </defs>
  <title>Tree_27</title>
  <g id="Layer_2" data-name="Layer 2">
    <g id="Layer_1-2" data-name="Layer 1">
      <g>
        <path class="cls-1" d="M431,1499H651.49s-1.5-55.49-66-123-99-24-114-127.49,121.49-172.5,93-333h-87s-1.5,108-57,147S317,1226,339.5,1314.5,441.5,1430,431,1499Z"/>
        <path class="cls-2" d="M1077.89,512.17s6,29.19-15.1,37.54c-20.65,8.17-28.07-1.45-28.39-1.89.23.54,7.79,18.13-8.42,25.9,0,0,5.4,23-22.54,25.73,0,0-3.66,16.11-17.8,18.93,3.55,3.09,6.74,9.1,3.45,20.63-5.92,20.73-23.46,12.65-24,12.42.26.57,9.52,21.08-8.7,36.58-18.49,15.73-31.82,3.17-31.82,3.17s2.78,18.87-19.64,30c-21.45,10.62-33-4.22-33.91-5.52.66,1.15,6.91,12.83-5.22,28.18-12.56,15.88-23.11,7.05-23.49,6.72.2.57,7.94,22.44-14.87,41.83-23.1,19.65-36.66,9.94-36.66,9.94s-6.24,23.89-26.42,25.12a24,24,0,0,1-6-.34C751,831,741.62,829,741.62,829s10.92,10.91,3.12,17.15c-7.5,6-10.67,1.9-10.9,1.58.14.44,2.88,9.42-6.25,12.46a11.85,11.85,0,0,1-14-4.68s0,4.68-7.8,6.24c-6.84,1.36-8.88-2.05-9.28-2.92.46,1.22,2.89,7.89,1.48,10.72,0,0,9.36,6.24,4.68,15.6a13.68,13.68,0,0,1-14,7.8s1.56,10.91-10.92,14-26.51-14-26.51-14,0,4.67-3.12,6.23a15.55,15.55,0,0,1-6.24,1.56s4.68,6.24,0,12.48-16.69,1.73-17.15,1.57c.43.61,15.39,22,1.55,35.87-14,14-32.75,6.24-34.31-3.12,0,0-4.68-9.36-15.6-4.68,0,0-3.12,18.71-26.52,20.27s-29.63-18.71-29.63-18.71-7.8,14-23.4,15.6-29.63-6.24-29.63-6.24,7.8,32.75-25,43.67-39-32.76-39-32.76-29.64,3.12-35.88-18.71c-6.09-21.31,4.16-27.77,4.66-28.07-.73.23-18.83,5.88-24.93-10.93,0,0-23.4,3.12-23.4-25,0,0-28.08-9.36-12.48-37.44,0,0-16.44-9-15.17-25.88-7.92,2.26-17.63,2.57-25.49-4.84-16.15-15.25-4.83-31.29-4.83-31.29s-9.76,2.25-12.84-2.57-4.32-13.63-4.32-13.63-4.6,10.94-13.51,8.25c-7.74-2.33-6.7-7.87-6.29-9.3-.6,1.61-3.52,8.14-10.54,4.88-8-3.7-4.32-13.63-4.32-13.63s-24.94,20.36-38,9.94-10-40-10-40-15.48,8.31-32.64-7.89-18.51-28.93-18.51-28.93a39.07,39.07,0,0,1-4.93-3.16c-3.95,3.59-9.31,5.23-16.52,2.27-22.43-9.19-10.43-22.75-10.43-22.75s-41.32,5.23-41-14.4,28.82-22.12,28.82-22.12-16.45-15-6.41-28.57c8.41-11.38,18-11.72,20.91-11.53-3.51-.43-16.71-2.64-22.49-12.06-4.49-7.32-2-11,.17-12.61-5.41,2.81-20.26,9.44-26.5,1.39-7.48-9.68,1.73-17.22,2.23-17.63-.53.13-10.83,2.56-10.7-5.09s5.76-7.76,6-7.76c-.54-.38-16.32-11.31-5.47-25.61,5.63-7.43,10.65-8.72,14.22-8.21a11.17,11.17,0,0,1,3.49-5.45,9.58,9.58,0,0,1,3.23-7.67,14,14,0,0,1,.38-4.79c1.68-7.17,6-7.25,6.64-7.23-.84,0-8.43-.54-10.5-3.1,0,0-9.56,5.92-16.13-2.22a13.65,13.65,0,0,1-1.27-16s-10.59-3.11-8.25-15.76,23.77-18.31,23.77-18.31-4.25-1.94-4.38-5.42a15.66,15.66,0,0,1,1.17-6.33s-7.62,1.67-11.35-5.17,5.7-16.26,5.7-16.26S8.74,393.27,1.79,374.68s7.91-32.4,17.07-29.93c0,0,10.46-.38,10.73-12.25,0,0-15.74-10.61-7.45-32.54s29.32-19.2,29.32-19.2S41.92,267.84,47,253s18-24.38,18-24.38-33-6.49-29.39-40.82,46-21.9,46-21.9S91,137.65,113.45,141s23.61,15.9,23.61,15.9,2.09-19.62,20.29-18.18c0,0,6.86-22.58,32.41-10.93,0,0,18.73-20.12,37.16,1.56a25.86,25.86,0,0,1,9.69-2.24s-10-12.21,8.28-24.2,26.24,6.27,26.24,6.27a33.93,33.93,0,0,1,10-14.95,26.43,26.43,0,0,1,2.54-11c11.06-24.82,38.28-14.1,39.25-13.72-.8-.53-17.89-12.12-5.58-24.37s27.26-.15,27.88.36c-.54-.88-18.56-30.19,4.26-37.22C372.64,1.18,372,19.27,372,19.27S400.58-11,412.8,4.35s-8.21,35.39-8.21,35.39,22.22,1.13,23.1,18c.73,14.13-6.47,20.48-8.83,22.18,3-1.9,14.59-8.57,25-5,8.11,2.8,8.5,7.23,7.87,9.84,2.4-5.6,9.65-20.16,19.59-17.89,12.26,2.79,9.46,15,9.46,15s6.62-9,11.51-2.88.28,9.81.28,9.81,10.19-1,16.21,5.21c9.73.15,15.59,4.3,19.06,8.64a24.15,24.15,0,0,1,9.9,4.35,7.27,7.27,0,0,1,5.77-1.69c5.59,1.2,12.72,6.52,12.72,6.52s-4.54-11,3.65-15.4c7.3-4,10.48,1.06,11.08,2.19-.63-1.32-3.53-8.27,3.91-11,8.23-3.06,12.71,6.52,12.71,6.52s3.1-32,19.71-34,35.42,21,35.42,21,5-16.83,28.59-17.62,33.57,7.22,33.57,7.22a39.4,39.4,0,0,1,5.72-1.28c.23-5.33,2.84-10.29,10-13.33,22.33-9.45,23.5,8.61,23.5,8.61s25.38-33,39.1-19-4.59,36-4.59,36,22.23-1.12,24.81,15.57c2.16,14-4.36,21-6.54,23,2.78-2.19,13.65-10,24.41-7.48,8.35,2,9.19,6.33,8.83,9,1.81-5.81,7.56-21,17.67-19.79,12.48,1.54,10.94,14,10.94,14s5.67-9.65,11.16-4c5.27,5.41,1.57,9.42,1.29,9.72.71-.13,19.51-3.58,22,14.16s-9.55,17.93-9.92,17.93c.42.14,10.38,3.42,10.35,11.32,18.38,1.62,15.93,23.41,15.93,23.41s9.79-11.94,16.77-4.79c6.73,6.9,2.91,10.46,2.64,10.7.51-.22,9.11-3.74,13,5A11.83,11.83,0,0,1,938.75,214s4.66-.46,7,7.15c2.08,6.81-1.3,9.13-2,9.54,1-.51,7.57-3.69,10.57-2.54,0,0,5.29-9.93,15.06-6.19a13.68,13.68,0,0,1,9.14,13.2s10.71-2.62,15,9.49-11.36,27.77-11.36,27.77,4.65-.46,6.51,2.49a15.56,15.56,0,0,1,2.17,6s5.74-5.27,12.41-1.22,3.24,16.92,3.24,16.92,20.2-17.67,35.55-5.08,9.42,32,.26,34.46c0,0-8.85,5.58-3.12,16,0,0,18.93,1.27,22.78,24.4s-15.71,31.33-15.71,31.33,14.73,6.38,17.82,21.75-3.3,30.1-3.3,30.1,31.83-11,45.91,20.55S1077.89,512.17,1077.89,512.17Z"/>
      </g>
    </g>
  </g>
</svg>
