<svg xmlns="http://www.w3.org/2000/svg" xmlns:xlink="http://www.w3.org/1999/xlink" width="854.2" height="1658.849" viewBox="0 0 854.2 1658.849">
  <defs>
    <linearGradient id="a" x1="251.688" y1="1432.092" x2="560.752" y2="1371.019" gradientUnits="userSpaceOnUse">
      <stop offset="0" stop-color="#66421f"/>
      <stop offset="1" stop-color="#754c24"/>
    </linearGradient>
    <linearGradient id="b" y1="621.141" x2="854.2" y2="621.141" gradientUnits="userSpaceOnUse">
      <stop offset="0" stop-color="#005437"/>
      <stop offset="1" stop-color="#006837"/>
    </linearGradient>
  </defs>
  <title>Tree_11</title>
  <g>
    <path d="M395.465,1650.293l107.777,3.676s-19.246-238.649-15.4-485l-23.1-7.7s-16.131,409.423-50.773,405.574-18.512-420.97-18.512-420.97l-30.793-7.7s-19.246,470.63-46.19,520.669Z" fill="url(#a)"/>
    <path d="M835.167,359.262s17.05,24.44.94,40.45-26.84,9.47-26.84,9.47,14.5,13.37,2.5,27.13c0,0,12.2,16.52-6.13,29.75a9.309,9.309,0,0,1,.31,2.52c-.12,8.45-3.52,12.39-5.82,14.09-.21.61-.43,1.23-.7,1.84,5.44,2.82,25.01,14.41,20.58,33.06-5.13,21.62-24.68,19.83-24.68,19.83s6.82,7.33,4.19,12.41-9.64,10.55-9.64,10.55,11.77-1.48,13.9,7.58c1.9,8.09-3.78,9.84-5.02,10.12,1.43-.26,8.9-1.24,9.6,6.66.78,8.75-9.64,10.56-9.64,10.56s30.11,11.42,27.61,27.95-29.62,28.64-29.62,28.64,14.93,9.25,9.48,32.21-15.8,30.5-15.8,30.5a38.84,38.84,0,0,1-.26,5.85c5.08,1.63,9.18,5.44,10.22,13.17,3.25,24.02-14.48,20.4-14.48,20.4s25.18,33.18,8.02,42.72c-7.38,4.1-14.62,2.1-20.47-1.52-2.37,12.51-23.39,18.46-23.39,18.46s4.29,1.87,4.48,5.35a15.634,15.634,0,0,1-1.06,6.34s7.59-1.8,11.45,4.98-5.41,16.35-5.41,16.35,26.24-5.59,33.52,12.88-7.34,32.52-16.54,30.22c0,0-10.45.56-10.51,12.44,0,0,15.92,10.32,8.02,32.4S745,954.342,745,954.342s9.77,12.75,4.98,27.67-17.54,24.7-17.54,24.7,33.15,5.9,30.11,40.29-45.59,22.71-45.59,22.71-8.95,28.42-31.47,25.44-23.88-15.49-23.88-15.49-1.74,19.65-19.96,18.54c0,0-6.47,22.7-32.21,11.5,0,0-10.48,11.66-23.71,8.18a10.807,10.807,0,0,1,.02,10.34,13.681,13.681,0,0,1-14.04,7.8s1.56,10.92-10.92,14.04c-8.47,2.12-17.66-5.11-22.68-9.97-5.25,10.85-13.48,20.16-26.15,25.43,3.33,7.63,6.13,19.44-2.64,28.21-14.04,14.04-32.76,6.24-34.32-3.12,0,0-4.67-9.36-15.59-4.68,0,0-3.12,18.72-26.52,20.28s-29.63-18.72-29.63-18.72-7.8,14.04-23.4,15.6-29.64-6.24-29.64-6.24,7.8,32.76-24.95,43.68-39-32.76-39-32.76-29.63,3.12-35.87-18.72c-2.29-8.02-2.27-13.93-1.32-18.21a15.919,15.919,0,0,1-1.82-8.76,18.58,18.58,0,0,1-10.9-3.3c-9.01-.33-20.51-3.22-25.54-14.77a31.955,31.955,0,0,1-2.11-6.66,34.16,34.16,0,0,1-1.98-12.25s-24.88-8.29-14.78-32.69c-2.62-2.99-2.37-5.69-1.66-7.49-.19-.15-.39-.31-.59-.48-2.23,1.59-6.07,3.09-9.87-1.13-4.31-4.79-1.57-10.19.2-12.75-.11-.36-.21-.72-.31-1.09-6.22,1.54-30.49,6.63-37.39-6.17-7.92-14.72,6.5-40.69,6.5-40.69s-17.49,1.56-26.91-20.07-5.68-33.87-5.68-33.87-22.21-26.66,7.61-38.15c0,0-5.38-15.82,12.44-23.59q.645-.27,1.26-.51a28.536,28.536,0,0,1-1.2-5.8c-1.67-15.54,4.04-17.95,6.88-18.2-3.62-.42-12.65-3.39-14.68-22.36-2.56-23.88,17.9-26.08,17.9-26.08s-14.01-1.94-18.52-11.81,1.22-20.83,1.22-20.83-19,15.84-37.52,4.03c-18.26-11.65-11.41-39.42-11.22-40.18-.76.77-37.53,38.26-63.7,17.17-26.43-21.31,6.69-66.27,6.69-66.27S-.473,718.652.007,691s62.97-24,62.97-24-7.49-9.93,1.83-23.93a22.746,22.746,0,0,1-7.29-16.04c-.74-22.2,18.59-25.62,18.59-25.62s-8.51-5.28-7.3-10.87,6.52-12.72,6.52-12.72-10.96,4.53-15.4-3.66c-3.96-7.3,1.06-10.48,2.18-11.08-1.31.63-8.26,3.54-11.01-3.9-3.06-8.24,6.52-12.72,6.52-12.72s-32.05-3.1-33.99-19.71,21.04-35.42,21.04-35.42-16.83-5-17.62-28.58,7.22-33.58,7.22-33.58a39.4,39.4,0,0,1-1.28-5.72c-5.33-.23-10.29-2.83-13.33-10.01-9.45-22.32,8.61-23.5,8.61-23.5s-33.02-25.38-18.98-39.1,36.04,4.59,36.04,4.59-1.12-22.23,15.57-24.81c13.98-2.16,21.03,4.36,22.96,6.54-2.19-2.78-10.01-13.65-7.48-24.4,1.96-8.36,6.33-9.19,8.99-8.84-5.81-1.81-21.03-7.56-19.79-17.67,1.54-12.48,14.01-10.94,14.01-10.94s-9.65-5.67-4.03-11.16,9.73-1.27,9.73-1.27-3.93-19.48,14.14-22.05a26.889,26.889,0,0,1,8.21-.06c-3.2-3.01-6.36-7.64-2.87-12.35,5.77-7.78,9.9-4.5,10.15-4.3-.23-.37-5.2-8.36,2.87-13.64a11.826,11.826,0,0,1,14.76.94s-1.19-4.52,5.95-8.02c6.34-3.09,9.18-.21,9.74.49-.72-1-4.84-6.89-4.18-10.02,0,0-10.64-3.64-8.5-13.89a13.669,13.669,0,0,1,11.59-11.11s-4.29-10.16,6.98-16.36,29.21,6.82,29.21,6.82-1.19-4.53,1.43-6.83a15.632,15.632,0,0,1,5.64-3.1s-6.12-4.84-3.18-12.07,16.19-5.88,16.19-5.88-20.65-17.14-10.65-34.29,30.08-14.38,33.98-5.73c0,0,6.91,7.86,16.27.55,0,0-1.75-18.89,20.48-26.36s33.42,10.55,33.42,10.55,3.97-15.56,18.65-21.05,30.25-1.51,30.25-1.51-15.89-29.69,13-48.6,46.06,21.74,46.06,21.74,27.86-10.57,39.46,8.96c11.3,19.04,3.07,27.89,2.65,28.33.59-.38,16.68-10.51,26.89,4.21,0,0,21.83-8.98,28.98,18.17,0,0,26.45,1.72,22.55,28.3a23.572,23.572,0,0,1,3.08-1.32c17.9-6.31,24.35,15.07,24.35,15.07s4.29-14.84,13.52-11.02,6.64,8.8,6.64,8.8,6.68-7.25,13.94-.56a11.84,11.84,0,0,1,2.68,14.55s4.1-2.26,9.23,3.82c4.54,5.38,2.44,8.83,1.9,9.55.8-.93,5.51-6.36,8.7-6.49,0,0,.94-11.21,11.39-11.64a13.679,13.679,0,0,1,13.61,8.53s8.81-6.64,17.57,2.77.52,30,.52,30,4.09-2.26,6.97-.28a15.614,15.614,0,0,1,4.38,4.71s3.2-7.11,10.92-6.03,9.66,14.27,9.66,14.27,11.58-24.21,30.65-18.7,21.29,25.67,13.85,31.55c0,0-5.93,8.62,3.44,15.92,0,0,17.89-6.31,30.56,13.42s-2.07,34.99-2.07,34.99,16.06.05,24.96,12.95,8.85,28.96,8.85,28.96,24.92-22.65,50.3.76S835.167,359.262,835.167,359.262Z" fill="url(#b)"/>
  </g>
</svg>
