<svg xmlns="http://www.w3.org/2000/svg" xmlns:xlink="http://www.w3.org/1999/xlink" width="954.02" height="1737.22" viewBox="0 0 954.02 1737.22">
  <defs>
    <style>
      .cls-1 {
        fill: url(#linear-gradient);
      }

      .cls-2 {
        fill: url(#linear-gradient-2);
      }
    </style>
    <linearGradient id="linear-gradient" x1="422.71" y1="1383.8" x2="708.89" y2="1383.8" gradientUnits="userSpaceOnUse">
      <stop offset="0" stop-color="#66421f"/>
      <stop offset="1" stop-color="#754c24"/>
    </linearGradient>
    <linearGradient id="linear-gradient-2" y1="590.21" x2="954.02" y2="590.21" gradientUnits="userSpaceOnUse">
      <stop offset="0" stop-color="#2b773e"/>
      <stop offset="1" stop-color="#27954f"/>
    </linearGradient>
  </defs>
  <title>Tree_37</title>
  <g id="Layer_2" data-name="Layer 2">
    <g id="Layer_1-2" data-name="Layer 1">
      <g>
        <path class="cls-1" d="M422.71,1030.38h49.9s82.7,182.49,92.68,263.76,15.68,295.13,39.92,309.39,38.36-246.66,39.92-306.54c2.85-109.78-41.35-266.61-41.35-266.61h52.75s55.61,161.11,45.63,308,18.08,348.66,1.2,398.88H461.21s-4.28-73.81,34.22-112.31,15.68-302.26,2.85-359.28S422.71,1030.38,422.71,1030.38Z"/>
        <path class="cls-2" d="M924.87,457.83s8.37,28.6-12,38.64c-20,9.83-28.12.8-28.45.42.31.58,9.2,17.45-6.3,26.5,0,0,7.25,22.46-20.37,27.48,0,0-4.19,29.29-34.6,19a34.44,34.44,0,0,1-5,9c6.41,1.65,13.35,5,13.46,11.89.21,12.79-7.43,15.48-7.43,15.48s27.44,11.3,23,33.06-24.06,20.57-24.06,20.57,7,7.11,4.56,12.27S818.36,683,818.36,683s11.72-1.84,14.12,7.16c2.09,7.81-3.19,9.83-4.6,10.23,1.65-.33,8.76-1.3,9.69,6.4,1,8.72-9.31,10.84-9.31,10.84s30.43,10.5,28.44,27.1S828,774.22,828,774.22s15.2,8.79,10.45,31.91-14.86,31-14.86,31a39,39,0,0,1-.09,5.86c5.13,1.47,9.34,5.16,10.62,12.85,3.92,23.54-13.32,20.93-13.85,20.85.6.75,26,32.5,9.31,42.44-16.86,10-34-12.88-34-12.88s-4.1,21.87-20.93,20.48c-14.1-1.16-19.44-9.15-20.8-11.72,1.48,3.21,6.54,15.61,1.57,25.48-3.85,7.67-8.3,7.46-10.8,6.49,5.23,3.12,18.68,12.26,15.11,21.8-4.29,11.46-15.56,7.59-16.16,7.38.41.41,7.85,7.86,1.3,11.78-6.75,4-9.76-1-9.76-1s-.73,19.59-18.55,18.16c-7.23,8.14-21,5.2-21,5.2s10.92,10.92,3.12,17.16c-7.51,6-10.68,1.9-10.91,1.58.14.44,2.88,9.42-6.25,12.46a11.85,11.85,0,0,1-14-4.68s0,4.68-7.8,6.24c-6.83,1.36-8.87-2-9.27-2.92.46,1.21,2.89,7.88,1.48,10.72,0,0,9.35,6.24,4.67,15.59a13.66,13.66,0,0,1-14,7.8s1.56,10.92-10.92,14-26.52-14-26.52-14,0,4.68-3.12,6.24a15.55,15.55,0,0,1-6.24,1.56s4.68,6.24,0,12.48-16.69,1.73-17.14,1.57c.43.61,15.38,22,1.55,35.86-14,14-32.76,6.24-34.32-3.12,0,0-4.68-9.35-15.6-4.67,0,0-3.12,18.71-26.51,20.27s-29.64-18.72-29.64-18.72-7.8,14-23.39,15.6-29.64-6.24-29.64-6.24,7.8,32.76-25,43.68-39-32.76-39-32.76-29.63,3.12-35.87-18.72c-6.09-21.3,4.16-27.76,4.66-28.06-.73.23-18.83,5.88-24.94-10.93,0,0-23.4,3.12-23.4-25,0,0-28.07-9.35-12.48-37.43a34,34,0,0,1-12.73-13.38c-6.4,2.66-14.87,4.53-19.21-1.44-7.53-10.35-2.83-16.93-2.83-16.93s-28.95,6.53-37.81-13.84,7.86-30.66,7.86-30.66-9.85-1.77-10.8-7.42c-.92-5.49,1.27-13.78,1.38-14.2-.38.35-8.68,8.08-15.66,2.25-6.37-5.34-2.87-10.14-2-11.11-1,1.07-6.39,6.33-11.69.43-5.74-6.38,1.06-13.89,1.37-14.22-.75.21-31,8.73-38.84-5.82-7.92-14.72,6.52-40.68,6.52-40.68s-17.49,1.55-26.9-20.09-5.65-33.87-5.65-33.87-18.45-22.17.89-34.77c-.65-6.82,3.41-11.31,6.62-13.74a17.81,17.81,0,0,1,1.18-3.17,34.13,34.13,0,0,1-12.48-9.07,26.66,26.66,0,0,1-11-2.54c-24.82-11.06-14.1-38.28-13.72-39.25-.53.8-12.12,17.89-24.37,5.58S45,680.62,45.55,680c-.88.54-30.18,18.56-37.22-4.26-7.15-23.17,10.94-22.51,10.94-22.51S-11,624.64,4.35,612.42s35.4,8.21,35.4,8.21,1.13-22.22,18-23.1c14.13-.74,20.49,6.47,22.18,8.83-1.89-3-8.57-14.59-5-25,2.8-8.11,7.23-8.5,9.85-7.87-5.61-2.4-20.16-9.66-17.9-19.59,2.79-12.26,15-9.47,15-9.47s-9-6.61-2.89-11.5,9.82-.28,9.82-.28-1.84-18.76,14.93-20.4c-2.17-7.21-2.9-16.72,3.48-25.08a22,22,0,0,1,5.56-5.31c-2.76-3.44-4.33-7.45-2.53-11.62,5.07-11.76,13.13-11.07,13.13-11.07s-20.37-21.57-7.36-39.58,30.39-8.87,30.39-8.87-3.5-9.38.87-13.06,13-6.07,13-6.07-11.44-3.12-9.94-12.32c1.34-8.2,7.26-7.63,8.52-7.42-1.43-.31-8.7-2.26-6.33-9.83,2.63-8.38,12.95-6.06,12.95-6.06s-23.44-22.08-14.81-36.39S189,304.4,189,304.4s-10.25-14.25,3.57-33.38,26.27-22.13,26.27-22.13a38.28,38.28,0,0,1,2.48-5.3c-4.07-3.45-6.39-8.55-4.4-16.08,6.19-23.44,21.19-13.31,21.19-13.31s-10.57-40.28,8.94-42.53,25.68,25.7,25.68,25.7,12.72-18.27,27.5-10.09c12.38,6.85,14,16.33,14.15,19.23,0-3.53.45-16.91,9-23.87,6.67-5.41,10.63-3.4,12.52-1.48-3.49-5-12-18.86-4.83-26.09,8.68-8.74,17.41-.43,17.77-.08-.15-.41-4-10.4,3.65-11.28,7.8-.9,8.48,4.95,8.48,4.95s6.29-12.7,17.8-11.21c6.29-10.4,19-10.31,19-10.31s-10-12.21,8.28-24.2,26.24,6.28,26.24,6.28a33.93,33.93,0,0,1,10-15,26.47,26.47,0,0,1,2.54-11c11-24.82,38.28-14.1,39.25-13.72-.8-.53-17.89-12.12-5.58-24.37s27.26-.15,27.88.36c-.54-.88-18.56-30.19,4.26-37.22,23.16-7.15,22.5,10.94,22.5,10.94S561.76-11,574,4.35s-8.21,35.39-8.21,35.39,22.22,1.13,23.1,18c.73,14.13-6.47,20.49-8.83,22.18,3-1.89,14.59-8.57,25-5,8.11,2.8,8.5,7.23,7.87,9.85,2.4-5.61,9.65-20.16,19.59-17.9C644.8,69.69,642,82,642,82s6.62-9,11.51-2.89.28,9.82.28,9.82,18.76-1.84,20.4,14.93c7.21-2.17,16.72-2.9,25.08,3.48,10,7.64,8.26,16,5.51,21.16A22.08,22.08,0,0,1,712.6,127c19-.28,18.28,22,18.28,22s8.79-12.7,16.32-6.14,3.49,10.46,3.49,10.46,8.65-4.74,13.39,3.91a11.85,11.85,0,0,1-2.1,14.65s4.61-.83,7.53,6.56c2.62,6.61-.55,9.2-1.25,9.68,1-.62,7.25-4.29,10.32-3.4,0,0,4.47-10.32,14.51-7.39a13.67,13.67,0,0,1,10.18,12.42S813.74,186.32,819,198s-9.08,28.6-9.08,28.6,4.61-.84,6.7,2a15.58,15.58,0,0,1,2.65,5.86s5.3-5.72,12.27-2.23,4.6,16.61,4.6,16.61,18.7-19.25,35-8,12,31.11,3.07,34.32c0,0-8.38,6.28-1.82,16.18,0,0,19-.27,24.69,22.47S884,346.35,884,346.35s15.2,5.17,19.52,20.23-.84,30.28-.84,30.28,30.84-13.53,47.43,16.75S924.87,457.83,924.87,457.83Z"/>
      </g>
    </g>
  </g>
</svg>
