<svg xmlns="http://www.w3.org/2000/svg" xmlns:xlink="http://www.w3.org/1999/xlink" width="718.87" height="1143.63" viewBox="0 0 718.87 1143.63">
  <defs>
    <style>
      .cls-1 {
        fill: url(#linear-gradient);
      }

      .cls-2 {
        fill: url(#linear-gradient-2);
      }
    </style>
    <linearGradient id="linear-gradient" x1="236.64" y1="875.9" x2="400.13" y2="875.9" gradientUnits="userSpaceOnUse">
      <stop offset="0" stop-color="#66421f"/>
      <stop offset="1" stop-color="#754c24"/>
    </linearGradient>
    <linearGradient id="linear-gradient-2" y1="342.4" x2="718.87" y2="342.4" gradientUnits="userSpaceOnUse">
      <stop offset="0" stop-color="#2b773e"/>
      <stop offset="1" stop-color="#27954f"/>
    </linearGradient>
  </defs>
  <title>Tree_24</title>
  <g id="Layer_2" data-name="Layer 2">
    <g id="Layer_1-2" data-name="Layer 1">
      <g>
        <path class="cls-1" d="M236.64,1143.63h78s63-78,85.5-535.47h-37.5S333.38,1046.89,236.64,1143.63Z"/>
        <path class="cls-2" d="M684.56,426.84s3.32,29.61-18.48,36c-21.26,6.23-27.79-4-28.09-4.48.24.73,6,18.79-10.77,25,0,0,3.14,22.52-23.32,23.52a14.91,14.91,0,0,1-3.17,3.87c-2.18,4.12-6.6,10.39-14.11,12.66.84,2.88.6,6-2.39,8.34-7.5,6-10.67,1.9-10.9,1.58.14.44,2.88,9.42-6.25,12.46a11.85,11.85,0,0,1-14-4.68s0,4.68-7.8,6.24c-6.84,1.36-8.88-2.05-9.28-2.92.46,1.22,2.89,7.89,1.48,10.72,0,0,9.36,6.24,4.68,15.6a13.68,13.68,0,0,1-14,7.8s1.56,10.91-10.92,14-26.51-14-26.51-14,0,4.67-3.12,6.23a15.55,15.55,0,0,1-6.24,1.56s4.68,6.24,0,12.48-16.69,1.73-17.15,1.57c.43.61,15.39,22,1.55,35.87-14,14-32.75,6.24-34.31-3.12,0,0-4.68-9.36-15.6-4.68,0,0-3.12,18.71-26.52,20.27S359.63,630,359.63,630s-7.8,14-23.4,15.6-29.63-6.24-29.63-6.24,7.8,32.75-25,43.67-39-32.76-39-32.76-29.64,3.12-35.88-18.71c-6.09-21.31,4.16-27.77,4.66-28.07-.73.23-18.83,5.88-24.93-10.93,0,0-23.4,3.12-23.4-25,0,0-28.08-9.36-12.48-37.44,0,0-15.07-8.22-15.24-23.76-8.31-6.6-8.24-17.53-8.24-17.53s-12.21,10-24.2-8.28,6.27-26.24,6.27-26.24a33.82,33.82,0,0,1-14.95-10,26.43,26.43,0,0,1-11-2.54c-24.82-11.05-14.1-38.28-13.72-39.25-.53.8-12.12,17.89-24.37,5.58s-.15-27.26.36-27.88c-.88.54-30.19,18.56-37.22-4.25-7.15-23.17,10.94-22.51,10.94-22.51S-11,324.94,4.35,312.72s35.39,8.22,35.39,8.22,1.13-22.23,18-23.11a34.93,34.93,0,0,1,3.84,0c3.22-3.46,8-5.74,12.45-7.22a20.93,20.93,0,0,1,.92-9,14.56,14.56,0,0,1,3.8-6.35,9.79,9.79,0,0,1-5.89-6,7,7,0,0,1-.41-2.88c-3.83-3.3-6.64-7.46-5.55-12.24a15.15,15.15,0,0,1,.53-1.83c-7.35-2.07-15.36-6.61-17.47-16.52-4.13-19.42,12.61-30.87,21.3-27.08,0,0,10.4,1.17,12.42-10.54,0,0-14-12.81-2.56-33.28S113,150.25,113,150.25s-7.52-14.19-.34-28.12S134,100.68,134,100.68,102.27,89.38,111,56s48.7-14.87,48.7-14.87,13.53-26.55,35.24-19.89,21,19.21,21,19.21,5-19.09,22.75-15c0,0,10.12-21.32,33.67-6,0,0,15.12-12.06,28.87-1.68,7-.23,14.37,3.71,20.41,8.26a25.25,25.25,0,0,1,18.78,4.63c4.16-4.39,11.35-9,23.38-9.36,23.59-.79,33.58,7.21,33.58,7.21A39,39,0,0,1,403,27.18c.24-5.33,2.84-10.29,10-13.33,22.32-9.45,23.5,8.61,23.5,8.61s25.37-33,39.09-19-4.58,36.05-4.58,36.05,22.22-1.13,24.8,15.56c2.17,14-4.36,21-6.53,23,2.77-2.19,13.64-10,24.4-7.48l.41.11a18.38,18.38,0,0,1,16.33-6.49c2.63-2.93,5.87-4.9,9.77-4.42,12.47,1.54,10.94,14,10.94,14s5.66-9.65,11.15-4c5.28,5.41,1.58,9.42,1.3,9.72.71-.13,19.51-3.58,22,14.16,1.86,13.08-4.17,16.62-7.65,17.57a8.73,8.73,0,0,1-.45,1.08c3.61,1.64,11,6.16,7.71,14.66a14.29,14.29,0,0,1-4.36,6c2.31-.59,5-1,6.54-.22,0,0,6.17-9.4,15.56-4.78a13.7,13.7,0,0,1,7.9,14s10.9-1.64,14.11,10.82-13.86,26.61-13.86,26.61c.18,0,4.71,0,6.26,3.08a15.55,15.55,0,0,1,1.6,6.23s6.21-4.73,12.48-.09,1.84,16.69,1.68,17.14c.61-.43,21.92-15.53,35.85-1.79,14.13,13.94,6.46,32.71-2.89,34.33,0,0-9.32,4.75-4.57,15.63,0,0,18.74,3,20.45,26.38S663.5,310,663.5,310s14.09,7.71,15.76,23.29-6,29.68-6,29.68,32.71-8,43.84,24.66S684.56,426.84,684.56,426.84Z"/>
      </g>
    </g>
  </g>
</svg>
