<svg xmlns="http://www.w3.org/2000/svg" xmlns:xlink="http://www.w3.org/1999/xlink" width="807.21" height="963.53" viewBox="0 0 807.21 963.53">
  <defs>
    <style>
      .cls-1 {
        fill: url(#linear-gradient);
      }

      .cls-2 {
        fill: url(#linear-gradient-2);
      }
    </style>
    <linearGradient id="linear-gradient" x1="297.35" y1="730.99" x2="456.6" y2="730.99" gradientUnits="userSpaceOnUse">
      <stop offset="0" stop-color="#66421f"/>
      <stop offset="1" stop-color="#754c24"/>
    </linearGradient>
    <linearGradient id="linear-gradient-2" y1="311.19" x2="807.21" y2="311.19" gradientUnits="userSpaceOnUse">
      <stop offset="0" stop-color="#5a8539"/>
      <stop offset="1" stop-color="#46952f"/>
    </linearGradient>
  </defs>
  <title>Tree_2</title>
  <g id="Layer_2" data-name="Layer 2">
    <g id="Layer_1-2" data-name="Layer 1">
      <g>
        <path class="cls-1" d="M338.19,506.62s12.25,40.83,16.33,232.75-57.17,224.16-57.17,224.16l159.25-3.66s-53.08-28.59-49-224.59-16.33-236.83-16.33-236.83Z"/>
        <path class="cls-2" d="M784.42,453.71s38.69-40.27,15.25-64.84c-13.83-14.48-34.08-8.84-48.38-1.77A127.4,127.4,0,0,0,748,355.8c-6.1-25.38-29.75-12.42-55.87-40.73,3.59-3.45,6.5-8.95,6.7-17.77.45-19.07-8.11-23.19-11.65-24.08,2.85.11,8.82-1.53,9.19-17.15.48-20.58-16.75-17.55-16.75-17.55a17.24,17.24,0,0,0,3.83-17.07c-3.18-10.36-20.41-7.34-20.41-7.34s10.53-10-6.22-27.59c-10.16-10.65-20.58-9.93-27.21-7.72-4.42-3.48-10.22-3.76-13.58-3.56-.55-.52-1.09-1-1.61-1.46.7-1.72.92-4.56-2.39-8-3.67-3.76-7.42-.69-9.5,1.76a10,10,0,0,0-1.63,0c-.23-3.68-1.9-10.58-11-11.7-7.45-.92-12.53,7.11-15.42,13.73-3.36-1.08-6.65-2-9.84-2.8a13.69,13.69,0,0,0-1.56-2.72c14.36-26.17-15.94-30.46-15.94-30.46s14.27-14-1.81-26.3a24.92,24.92,0,0,0-17.75-4.92,18.83,18.83,0,0,0-2.27-2.82,10.91,10.91,0,0,0-7.63-3.46c-5.56-8.41-17.83-7.22-17.83-7.22s4.61-3.67-.28-9.81-11.51,2.88-11.51,2.88,2.79-12.26-9.47-15c-5.75-1.31-10.6,3-14.13,8-10.67-6.29-20.75-8.89-30.07-9a33.33,33.33,0,0,0,.54-8.14c-.88-16.87-23.11-18-23.11-18s20.44-20,8.22-35.39-40.82,14.92-40.82,14.92S380,1.18,356.78,8.32s-4.23,37.25-4.23,37.25-15.3-12.92-27.9-.38,5.61,24.39,5.61,24.39S302.23,58,291,83.28A27.43,27.43,0,0,0,288.46,93a66.51,66.51,0,0,0-13.28,11.29c-3.87-4.38-11.32-9-23-1.38-18.3,12-8.28,24.2-8.28,24.2s-22.24-.18-22.44,24.09c0,6.64,1.73,11.61,4.34,15.36a52.52,52.52,0,0,0-3.4,11.25s-4.4-6.8-16.79-3.61c-8,2.06-8.78,12.59-8.32,19.77a9,9,0,0,0-5.3-1.84c-4.87-.35-5.88,3.76-5.94,6.92a13.76,13.76,0,0,0-2.2.87c-2.94-2.49-8.3-5.22-15-.6-8.39,5.78-2.6,21-.1,26.53-1.5-2.23-5-4.94-12.57-.87-9.73,5.25-12.68,18.31-13.3,21.79.35-2.88.55-12.49-10.34-21.52-13-10.77-28.89,4.82-28.89,4.82s-.9-28.61-20.48-30-16.66,40.14-16.66,40.14-12.87-12.74-23.3,9.15,24.54,28.34,24.54,28.34S47.9,280.22,48.59,298s21.74,12.39,21.74,12.39-27.49,12.79-16.52,38.18a26.71,26.71,0,0,0,6.36,9.31,33.84,33.84,0,0,0,4.23,17.48S45.59,368.81,42,390.39s12.2,22.49,12.2,22.49a25.19,25.19,0,0,0-6,14.06,13.71,13.71,0,0,0-5.18.71c-8,2.67-5.34,16-5.34,16s-8-8-21.37,5.35-2.67,26.7-2.67,26.7A46.46,46.46,0,0,0,5.13,485,14.25,14.25,0,0,0,.83,491c-4.3,11.05,9.54,15.38,9.54,15.38s-12.5-.15-9.93,17.93,22,14.14,22,14.14-4.21,4.12,1.28,9.74,11.15-4,11.15-4-1.53,12.48,10.94,14c10.12,1.24,15.86-14,17.68-19.79-.36,2.66.47,7,8.83,9a22.6,22.6,0,0,0,12.17-.83A35.19,35.19,0,0,0,91.39,548a29.13,29.13,0,0,0-1.16,14.78c2.58,16.69,24.8,15.56,24.8,15.56s-18.3,22-4.58,36c10.81,11.07,28.87-7.11,36-15.3a16.45,16.45,0,0,0,3.62-.92c1.42,4.66,6.31,12.89,22.94,5.84,7.18-3,9.78-8,10-13.32a39,39,0,0,0,5.71-1.28s10,8,33.58,7.21S250.93,579,250.93,579s18.82,23,35.43,21.05,19.7-34,19.7-34,4.49,9.57,12.72,6.52c7.44-2.76,4.53-9.7,3.9-11a6.81,6.81,0,0,0,7.74,3.47c25.38,16.21,58.35,8.51,76.29,2.22v0c2.58,16.69,24.81,15.56,24.81,15.56s-18.31,22-4.59,36,39.1-19,39.1-19,1.17,18.06,23.5,8.6c7.17-3,9.78-8,10-13.32a39.4,39.4,0,0,0,5.72-1.28s10,8,33.57,7.21,28.59-17.62,28.59-17.62,18.82,23,35.42,21.05c11.65-1.36,16.65-17.54,18.6-27.08,14.46,4,29.83,5.78,40,.29,9.16-5,12.56-13.45,13.25-22.12a24.47,24.47,0,0,0,2.81-3.58s3.42,19.34,25.62,18.6,26.78-30.06,26.78-30.06,4.4,6.8,16.79,3.61,7.45-26.64,7.45-26.64,14.2,9.25,23.31-9.11a25,25,0,0,0,2.84-9.65c12.07-1.78,22.48-6.49,24.08-17.21C808.43,454.27,784.42,453.71,784.42,453.71Z"/>
      </g>
    </g>
  </g>
</svg>
