<svg xmlns="http://www.w3.org/2000/svg" width="6.58" height="6.54" viewBox="0 0 6.58 6.54">
  <defs>
    <style>
      .cls-1 {
        isolation: isolate;
      }

      .cls-2 {
        fill: #39456d;
      }

      .cls-3 {
        fill: #677cc5;
      }

      .cls-4 {
        fill: #fff;
      }
    </style>
  </defs>
  <title>Discord</title>
  <g id="Layer_2" data-name="Layer 2">
    <g id="Layer_1-2" data-name="Layer 1">
      <g>
        <g class="cls-1">
          <polygon class="cls-2" points="6.58 6.11 6.14 6.54 0.05 6.54 0.48 6.11 6.58 6.11"/>
          <polygon class="cls-2" points="0.48 6.11 0.05 6.54 0 0.44 0.43 0 0.48 6.11"/>
          <polygon class="cls-3" points="6.53 0 6.58 6.11 0.48 6.11 0.43 0 6.53 0"/>
        </g>
        <path class="cls-4" d="M4.64,2.29A1.37,1.37,0,0,0,3.85,2l0,.05a1.8,1.8,0,0,1,.7.35,2.28,2.28,0,0,0-.84-.27,2.68,2.68,0,0,0-.57,0H3.05a2.31,2.31,0,0,0-.63.18l-.17.08A2.08,2.08,0,0,1,3,2L3,2a1.37,1.37,0,0,0-.79.3,3.76,3.76,0,0,0-.4,1.63,1,1,0,0,0,.86.43l.18-.23a1,1,0,0,1-.49-.34l.08.05h0l.2.1a2.1,2.1,0,0,0,.42.12,1.74,1.74,0,0,0,.72,0A1.71,1.71,0,0,0,4.19,4a1.36,1.36,0,0,0,.32-.16.87.87,0,0,1-.5.33l.18.23A1,1,0,0,0,5,3.92,3.76,3.76,0,0,0,4.64,2.29ZM2.89,3.66a.31.31,0,0,1,0-.62.31.31,0,0,1,0,.62Zm1,0a.31.31,0,0,1,0-.62.29.29,0,0,1,.28.31A.29.29,0,0,1,3.91,3.66Z"/>
      </g>
    </g>
  </g>
</svg>
