<svg xmlns="http://www.w3.org/2000/svg" xmlns:xlink="http://www.w3.org/1999/xlink" width="23.99" height="19.09" viewBox="0 0 23.99 19.09">
  <defs>
    <style>
      .cls-1 {
        fill: none;
      }

      .cls-2 {
        isolation: isolate;
      }

      .cls-3 {
        clip-path: url(#clip-path);
      }

      .cls-4 {
        fill: #858585;
      }

      .cls-5 {
        clip-path: url(#clip-path-2);
      }

      .cls-6 {
        fill: gray;
      }

      .cls-7 {
        clip-path: url(#clip-path-3);
      }

      .cls-8 {
        fill: #eee;
      }
    </style>
    <clipPath id="clip-path">
      <path class="cls-1" d="M18.05,10.41l-.62.37-.17.09.62-.36A1,1,0,0,1,18.05,10.41Z"/>
    </clipPath>
    <clipPath id="clip-path-2">
      <path class="cls-1" d="M11.74,1.1l.61-.37a5.49,5.49,0,0,0-1.77,1.72L10,2.81A5.29,5.29,0,0,1,11.74,1.1Z"/>
    </clipPath>
    <clipPath id="clip-path-3">
      <path class="cls-1" d="M2.64,1.1,3.26.73A5.42,5.42,0,0,0,.62,5.57a5.73,5.73,0,0,0,2.5,4.6l-.61.37A5.77,5.77,0,0,1,0,5.94,5.42,5.42,0,0,1,2.64,1.1Z"/>
    </clipPath>
  </defs>
  <title>Graphic</title>
  <g id="Layer_2" data-name="Layer 2">
    <g id="Layer_1-2" data-name="Layer 1">
      <g class="cls-2">
        <g class="cls-2">
          <g class="cls-3">
            <g class="cls-2">
              <path class="cls-4" d="M18.05,10.41l-.62.37-.17.09.62-.36a1,1,0,0,1,.17-.1"/>
            </g>
          </g>
        </g>
        <g class="cls-2">
          <g class="cls-5">
            <g class="cls-2">
              <path class="cls-4" d="M10.58,2.45,10,2.81A5.29,5.29,0,0,1,11.74,1.1l.61-.37a5.49,5.49,0,0,0-1.77,1.72"/>
            </g>
          </g>
        </g>
        <polygon class="cls-6" points="23.99 18.72 23.37 19.09 17.33 16.49 17.95 16.12 23.99 18.72"/>
        <g class="cls-2">
          <g class="cls-7">
            <g class="cls-2">
              <path class="cls-4" d="M3.12,10.17l-.61.37A5.77,5.77,0,0,1,0,5.94,5.42,5.42,0,0,1,2.64,1.1L3.26.73A5.42,5.42,0,0,0,.62,5.57a5.73,5.73,0,0,0,2.5,4.6"/>
            </g>
          </g>
        </g>
        <polygon class="cls-6" points="3.22 18.45 2.6 18.81 2.5 10.54 3.12 10.18 3.22 18.45"/>
        <polygon class="cls-6" points="17.98 18.65 17.36 19.02 2.6 18.81 3.22 18.45 17.98 18.65"/>
        <path class="cls-8" d="M17.9,11.67l6-2.43L24,18.72l-6-2.6,0,2.53-14.76-.2-.1-8.28a5.73,5.73,0,0,1-2.5-4.6A5.36,5.36,0,0,1,6,0a5.64,5.64,0,0,1,4.62,2.45A5.28,5.28,0,0,1,15.06,0a5.7,5.7,0,0,1,5.63,5.57,5.41,5.41,0,0,1-2.81,4.94Z"/>
      </g>
    </g>
  </g>
</svg>
