<svg xmlns="http://www.w3.org/2000/svg" width="6.8" height="6.92" viewBox="0 0 6.8 6.92">
  <defs>
    <style>
      .cls-1 {
        isolation: isolate;
      }

      .cls-2 {
        fill: #7d342a;
      }

      .cls-3 {
        fill: #e15e4c;
      }

      .cls-4 {
        fill: #fff;
      }

      .cls-5 {
        fill: #052d49;
      }
    </style>
  </defs>
  <title>Patreon</title>
  <g id="Layer_2" data-name="Layer 2">
    <g id="Layer_1-2" data-name="Layer 1">
      <g>
        <g class="cls-1">
          <polygon class="cls-2" points="1.31 1 0.88 1.44 0.56 1.17 0.99 0.73 1.31 1"/>
          <polygon class="cls-2" points="0.99 0.73 0.56 1.17 0.57 0.79 1.01 0.35 0.99 0.73"/>
          <polygon class="cls-2" points="0.43 2.63 0 3.06 0.88 1.44 1.31 1 0.43 2.63"/>
          <polygon class="cls-2" points="0.71 6.48 0.28 6.92 0 3.06 0.43 2.63 0.71 6.48"/>
          <polygon class="cls-2" points="6.8 6.09 6.37 6.52 0.28 6.92 0.71 6.48 6.8 6.09"/>
          <polygon class="cls-3" points="6.35 0 6.8 6.09 0.71 6.48 0.43 2.63 1.31 1 0.99 0.73 1.01 0.35 6.35 0"/>
        </g>
        <g>
          <path class="cls-4" d="M3.91,2.12a1,1,0,1,0,.13,2A1,1,0,0,0,5,3.06a1,1,0,0,0-1.06-.94"/>
          <polygon class="cls-5" points="2.3 4.91 2.79 4.88 2.61 2.21 2.12 2.24 2.3 4.91"/>
        </g>
      </g>
    </g>
  </g>
</svg>
