<svg xmlns="http://www.w3.org/2000/svg" xmlns:xlink="http://www.w3.org/1999/xlink" width="22.97" height="22.29" viewBox="0 0 22.97 22.29">
  <defs>
    <style>
      .cls-1 {
        fill: none;
      }

      .cls-2 {
        isolation: isolate;
      }

      .cls-3 {
        fill: gray;
      }

      .cls-4 {
        fill: #eee;
      }

      .cls-5 {
        fill: #666;
      }

      .cls-6 {
        clip-path: url(#clip-path);
      }

      .cls-7 {
        fill: #6a6a6a;
      }

      .cls-8 {
        clip-path: url(#clip-path-2);
      }

      .cls-9 {
        fill: #bebebe;
      }
    </style>
    <clipPath id="clip-path">
      <path class="cls-1" d="M18.36,21.61l-.62.37a2.29,2.29,0,0,1-1.16.31,2.35,2.35,0,0,1-.77-.13,2.46,2.46,0,0,1-1.55-3,2.31,2.31,0,0,1,1-1.3l.62-.36a2.26,2.26,0,0,0-1,1.29,2.47,2.47,0,0,0,1.55,3,2.27,2.27,0,0,0,.77.13A2.22,2.22,0,0,0,18.36,21.61Z"/>
    </clipPath>
    <clipPath id="clip-path-2">
      <path class="cls-1" d="M9,20.38l-.62.37a2.29,2.29,0,0,1-1.16.31,2.35,2.35,0,0,1-.77-.13,2.45,2.45,0,0,1-1.54-3,2.29,2.29,0,0,1,1-1.3l.62-.37a2.28,2.28,0,0,0-1,1.31,2.45,2.45,0,0,0,1.54,3,2.59,2.59,0,0,0,.77.13A2.29,2.29,0,0,0,9,20.38Z"/>
    </clipPath>
  </defs>
  <title>Sound</title>
  <g id="Layer_2" data-name="Layer 2">
    <g id="Layer_1-2" data-name="Layer 1">
      <g class="cls-2">
        <polygon class="cls-3" points="3.65 7.05 3.03 7.41 7.46 0.37 8.08 0 3.65 7.05"/>
        <polygon class="cls-3" points="13.3 16.68 12.68 17.04 4.97 13.61 5.59 13.25 13.3 16.68"/>
        <polygon class="cls-3" points="2.56 14.15 1.94 14.52 0 8.32 0.62 7.95 2.56 14.15"/>
        <polygon class="cls-3" points="5.59 13.25 4.97 13.61 1.94 14.52 2.56 14.15 5.59 13.25"/>
        <polygon class="cls-4" points="8.08 0 13.3 16.68 5.59 13.25 2.56 14.15 0.62 7.95 3.65 7.05 8.08 0"/>
      </g>
      <g class="cls-2">
        <polygon class="cls-5" points="18.6 17.72 17.98 18.08 20.34 10.5 20.96 10.13 18.6 17.72"/>
        <polygon class="cls-5" points="20.96 10.13 20.34 10.5 12.49 9.47 13.11 9.11 20.96 10.13"/>
        <g class="cls-2">
          <g class="cls-6">
            <g class="cls-2">
              <path class="cls-7" d="M18.36,21.61l-.62.37a2.29,2.29,0,0,1-1.16.31,2.35,2.35,0,0,1-.77-.13,2.46,2.46,0,0,1-1.55-3,2.31,2.31,0,0,1,1-1.3l.62-.36a2.26,2.26,0,0,0-1,1.29,2.47,2.47,0,0,0,1.55,3,2.27,2.27,0,0,0,.77.13,2.22,2.22,0,0,0,1.16-.32"/>
            </g>
          </g>
        </g>
        <polygon class="cls-5" points="9.21 16.48 8.6 16.85 11.44 7.74 12.06 7.37 9.21 16.48"/>
        <g class="cls-2">
          <g class="cls-8">
            <g class="cls-2">
              <path class="cls-7" d="M9,20.38l-.62.37a2.29,2.29,0,0,1-1.16.31,2.35,2.35,0,0,1-.77-.13,2.45,2.45,0,0,1-1.54-3,2.29,2.29,0,0,1,1-1.3l.62-.37a2.28,2.28,0,0,0-1,1.31,2.45,2.45,0,0,0,1.54,3,2.59,2.59,0,0,0,.77.13A2.29,2.29,0,0,0,9,20.38"/>
            </g>
          </g>
        </g>
        <path class="cls-9" d="M12.06,7.37,23,8.81l-.09.3-.11.35-.27.88-3.12,10a2.29,2.29,0,0,1-2.95,1.48,2.47,2.47,0,0,1-1.55-3,2.29,2.29,0,0,1,2.19-1.61,2.35,2.35,0,0,1,.77.13,2.3,2.3,0,0,1,.76.44L21,10.13l-7.85-1L10,19.08A2.27,2.27,0,0,1,7.81,20.7,2.59,2.59,0,0,1,7,20.57a2.45,2.45,0,0,1-1.54-3,2.28,2.28,0,0,1,2.19-1.62,2.25,2.25,0,0,1,.76.13,2.27,2.27,0,0,1,.76.43Z"/>
      </g>
    </g>
  </g>
</svg>
