<svg xmlns="http://www.w3.org/2000/svg" width="7.16" height="7.2" viewBox="0 0 7.16 7.2">
  <defs>
    <style>
      .cls-1 {
        isolation: isolate;
      }

      .cls-2 {
        fill: #0f5179;
      }

      .cls-3 {
        fill: #1a91da;
      }

      .cls-4 {
        fill: #fff;
      }
    </style>
  </defs>
  <title>Twitter</title>
  <g id="Layer_2" data-name="Layer 2">
    <g id="Layer_1-2" data-name="Layer 1">
      <g>
        <g class="cls-1">
          <polygon class="cls-2" points="4.43 1.25 4 1.68 4.42 0.94 4.86 0.5 4.43 1.25"/>
          <polygon class="cls-2" points="6.5 6.77 6.07 7.21 0 6.5 0.43 6.06 6.5 6.77"/>
          <polygon class="cls-2" points="0.43 6.06 0 6.5 0.66 0.44 1.1 0 0.43 6.06"/>
          <polygon class="cls-3" points="1.1 0 4.02 0.34 4.06 0.69 4.37 0.69 4.43 1.25 4.86 0.5 5.1 0.47 7.16 0.71 6.5 6.77 0.43 6.06 1.1 0"/>
        </g>
        <g id="Warstwa_2" data-name="Warstwa 2">
          <g id="Warstwa_1-2" data-name="Warstwa 1-2">
            <g id="Warstwa_2-2" data-name="Warstwa 2-2">
              <g id="Logo_FIXED" data-name="Logo FIXED">
                <path class="cls-4" d="M3.08,4.88a2,2,0,0,0,2.2-1.74s0-.06,0-.09a1.61,1.61,0,0,0,.38-.31,1.4,1.4,0,0,1-.41.06.67.67,0,0,0,.35-.35,1.21,1.21,0,0,1-.46.12.69.69,0,0,0-1.25.49,2,2,0,0,1-1.34-.89.7.7,0,0,0,.11,1A.84.84,0,0,1,2.36,3h0a.71.71,0,0,0,.48.74.65.65,0,0,1-.31,0,.68.68,0,0,0,.59.56,1.42,1.42,0,0,1-.9.19l-.16,0a2.11,2.11,0,0,0,1,.43"/>
              </g>
            </g>
          </g>
        </g>
      </g>
    </g>
  </g>
</svg>
