<svg xmlns="http://www.w3.org/2000/svg" width="6.95" height="6.85" viewBox="0 0 6.95 6.85">
  <defs>
    <style>
      .cls-1, .cls-4 {
        isolation: isolate;
      }

      .cls-2 {
        fill: maroon;
      }

      .cls-3 {
        fill: #e60000;
      }

      .cls-4 {
        opacity: 0.12;
      }

      .cls-5 {
        fill: #fff;
      }
    </style>
  </defs>
  <title>YouTube</title>
  <g id="Layer_2" data-name="Layer 2">
    <g id="Layer_1-2" data-name="Layer 1">
      <g>
        <g class="cls-1">
          <polygon class="cls-2" points="6.6 5.36 6.16 5.8 5.35 5.89 5.78 5.45 6.6 5.36"/>
          <polygon class="cls-2" points="5.63 5.71 5.2 6.15 4.26 6.85 4.7 6.41 5.63 5.71"/>
          <polygon class="cls-2" points="4.7 6.41 4.26 6.85 0 6.51 0.43 6.08 4.7 6.41"/>
          <polygon class="cls-2" points="0.43 6.08 0 6.51 0.43 0.44 0.86 0 0.43 6.08"/>
          <polygon class="cls-3" points="0.86 0 6.95 0.47 6.6 5.36 5.78 5.45 5.63 5.71 4.7 6.41 0.43 6.08 0.86 0"/>
        </g>
        <g id="Warstwa_2" data-name="Warstwa 2">
          <g id="YouTube_Icon" data-name="YouTube Icon">
            <path id="The_Sharpness" data-name="The Sharpness" class="cls-4" d="M3.33,2.87l.72.56.11,0Z"/>
            <g id="Lozenge">
              <path class="cls-5" d="M5.23,2.86a.63.63,0,0,0-.1-.32.44.44,0,0,0-.31-.16c-.44-.07-1.11-.12-1.11-.12h0S3,2.2,2.59,2.2a.42.42,0,0,0-.32.11.67.67,0,0,0-.16.31A4.87,4.87,0,0,0,2,3.13l0,.24a5.17,5.17,0,0,0,0,.52.68.68,0,0,0,.11.32.54.54,0,0,0,.34.17c.25,0,1.08.12,1.08.12s.66,0,1.11,0A.44.44,0,0,0,5,4.44a.73.73,0,0,0,.15-.31,4.87,4.87,0,0,0,.07-.51l0-.24A5.17,5.17,0,0,0,5.23,2.86Zm-2,.9.07-.89.83.52Z"/>
            </g>
          </g>
        </g>
      </g>
    </g>
  </g>
</svg>
