<svg xmlns="http://www.w3.org/2000/svg" xmlns:xlink="http://www.w3.org/1999/xlink" width="408.222" height="833.532" viewBox="0 0 408.222 833.532">
  <defs>
    <linearGradient id="a" data-name="Gradient bez nazwy 45" x1="5829.617" y1="833.532" x2="5829.617" y2="24.635" gradientTransform="matrix(-1, 0, 0, 1, 6036.804, 0)" gradientUnits="userSpaceOnUse">
      <stop offset="0" stop-color="#422b13"/>
      <stop offset="1" stop-color="#57381b"/>
    </linearGradient>
    <linearGradient id="b" data-name="Gradient bez nazwy 17" x1="204.111" y1="757.907" x2="204.111" y2="442.625" gradientUnits="userSpaceOnUse">
      <stop offset="0" stop-color="#004837"/>
      <stop offset="1" stop-color="#005c37"/>
    </linearGradient>
    <linearGradient id="c" x1="204.111" y1="665.711" x2="204.111" y2="356.93" xlink:href="#b"/>
    <linearGradient id="d" x1="223.044" y1="498.979" x2="223.044" y2="259.401" xlink:href="#b"/>
    <linearGradient id="e" x1="223.044" y1="349.083" x2="223.044" y2="159.749" xlink:href="#b"/>
    <linearGradient id="f" x1="207.187" y1="159.749" x2="207.187" y2="0" xlink:href="#b"/>
  </defs>
  <title>Pinetree_3</title>
  <g>
    <path d="M243.718,833.532H170.656s15.058-345.477,23.484-441.5,0-367.4,0-367.4,45.287,202.486,42.513,386.183S232.237,687.409,243.718,833.532Z" fill="url(#a)"/>
    <path d="M263.021,484.238c-30.609-45.492-61.071-41.415-61.072-41.414-.039,0-.078,0-.116,0-.221-.007-.442-.014-.664-.014,0,0-32.433-5.276-59.206,39.832C91.614,567.475-13.016,579.684,1.34,600.361c5.006,7.21,24.246,13,48.407,14.9-17.3,17.33-32.024,35.954-19.9,39.649,9.237,2.815,26.111-2.932,43.275-11-40.27,49.345-75.879,74.1-31.076,69.739,26.2-2.55,49.854-15.321,69.176-30.266-6.574,17.248-7.917,30.793,2.9,32.534,8.131,1.307,16.347-1.952,24.092-7.559-14.19,32.332-24.8,49.168-7.443,49.549,19.078.419,55.15-28.639,80.207-70.543,17.772,41.6,45.088,60.8,78.457,69.919,40.259,11-35.43-127.242-18.647-100.733s59.406,57.548,106.757,61.5c50.191,4.189,9.871-21.624-56.716-97.873,31.8,9.2,63.05,9.934,79.214,2.971C438.445,606.6,332.949,588.165,263.021,484.238Z" fill="url(#b)"/>
    <path d="M275.715,396.32c-25.964-46.308-61.174-38.964-61.174-38.964-.23,0-.458.006-.686.014l-.12-.006s-31.476-3.987-63.1,40.512C78.38,499.538,10.3,467.8,32.607,495.654c6.573,8.208,16.535,14.37,28.342,18.229a129.19,129.19,0,0,1-21.091,3.964c-35.078,3.568-10.619,14.913,9.716,21.239,6.048,1.882,15.6,3.164,26.588,3.222C35.591,580.319,35.846,594.3,63.028,592.655c48.954-2.961,79.577-26.227,79.577-26.227s-60.865,109.3-19.268,98.538c26.452-6.841,49.221-19.491,66.681-43.384,3.79,19.668,9.344,36.917,17.169,36.917,8.751,0,14.2-17.033,17.5-34.724,22.541,25.805,47.622,42.113,62.586,41.8,17.347-.361,7.662-15.775-6.254-45.393,23.87,11,46.681,11.393,23.194-9.021a66.869,66.869,0,0,1-16.642-22.855c12.391,8.758,29.088,15.513,51.5,16.783,67.477,3.824,12.828-11.651-33.86-80.69,34.5,6.376,69.96-1.431,78.4-12.935C398.444,491.24,344.259,518.574,275.715,396.32Z" fill="url(#c)"/>
    <path d="M82.092,466.271c19.894-1.047,36.808-8.4,50.584-17.845.727,3.761,3.384,5.792,8.852,5.054a69.979,69.979,0,0,0,19.5-5.741c-14.868,33.427-30.425,50.9-12.865,51.236,16.487.319,47.659-21.763,69.313-53.605,15.358,31.612,38.964,46.2,67.8,53.131,17.333,4.163,9.795-19.821-.341-42.449,5.8,2.573,11.188,3.722,15.2,2.173,2.771-1.069,3.608-3.834,3.114-7.662,16.542,9.374,36.8,16.557,58.164,18.125,43.375,3.184,8.531-16.432-49.012-74.372,27.482,6.99,54.486,7.549,68.455,2.258,33.184-12.568-57.984-26.58-118.415-105.552-26.451-34.567-52.775-31.47-52.777-31.47l-.1,0c-.191,0-.382-.011-.574-.011,0,0-28.028-4.008-51.165,30.268-43.51,64.46-102.649,73.735-90.243,89.447,5.7,7.225,26.18,12.573,49.066,11.739C76.769,442.556,28.136,469.111,82.092,466.271Z" fill="url(#d)"/>
    <path d="M111.652,323.235a73.914,73.914,0,0,0,26.982-6.713c-6.129,6.879-8.741,11.8.64,11.305,10.255-.546,23.091-8.572,33.625-16.727-11.379,24.781-22.463,37.721-9.032,37.98,13.029.252,37.664-17.2,54.777-42.363,12.137,24.982,30.793,36.515,53.582,41.988,27.5,6.605-24.2-76.411-12.735-60.492s40.572,34.559,72.91,36.932c26.793,1.967,15.819-7.075-11.967-32.984,9.373-1.169,11.145-8.056,1.4-12.687-4.342-2.064-8.189-5.742-11.424-9.812,15.4,2.145,29.192,1.583,37.351-1.507,26.225-9.933-45.824-21.006-93.581-83.417-20.9-27.318-41.709-24.87-41.709-24.87l-.08,0c-.151-.005-.3-.009-.453-.009,0,0-22.15-3.168-40.435,23.92-34.385,50.942-81.121,58.272-71.317,70.689,3.015,3.819,11.258,6.972,21.8,8.446a71.422,71.422,0,0,1-15.7,7.293c-11.089,3.56-12.879,10.167,5.649,9.941a67.952,67.952,0,0,0,15.207-2.224C99.192,309.32,74.276,325.2,111.652,323.235Z" fill="url(#e)"/>
    <path d="M282.279,77.705c4.743-11.1-33.674-25.874-58.532-62.669C210.529-4.53,197.647.61,197.647.61c-.079.015-.155.04-.233.058l-.083.008s-12.572.48-22.613,24.831l-.034.083a54.38,54.38,0,0,1-9.361,15.04,86.42,86.42,0,0,1-8.713,8.831c-11.49,9.738-19.621,18.8-7.467,21.121-14.112,18.88-23.463,25.36-12.929,28.488a24.854,24.854,0,0,0,10.564.436c-2.885,4.734-5.332,9.7-5.758,13.446-.381,3.353,2.452,3.646,6.373,2.563-13.367,24.346-14.685,28.656,1.713,23.739,9.065-2.719,15.4-6.5,20.145-11.25-.412,4.576-.026,8.037,1.82,8.9a3.916,3.916,0,0,0,3.571-.442c-2.607,13.768-3.485,26.436,3.624,22.591,10.232-5.532,18.631-13.752,24.212-27.364,1.28,6.745,3.264,12.218,6.326,11.768,3.46-.509,5.269-6.747,6.214-13.451,10.478,11.524,21.629,17.978,27.649,16.628,8.523-1.912-.934-12.188-10.591-33.494a8.009,8.009,0,0,0,5.875.04,11.07,11.07,0,0,0,4.325-3.061c7.9,6.329,17.829,11.092,29.159,9.669,21.6-2.714,7.261-11.95-11.156-32.278,4.845-.115,8.689-1.325,8.852-4.833a8.41,8.41,0,0,0-2.053-5.371C274.507,78.976,281.06,80.558,282.279,77.705Z" fill="url(#f)"/>
  </g>
</svg>
