<svg xmlns="http://www.w3.org/2000/svg" xmlns:xlink="http://www.w3.org/1999/xlink" width="453.23" height="847.486" viewBox="0 0 453.23 847.486">
  <defs>
    <linearGradient id="a" data-name="Gradient bez nazwy 45" x1="4472.373" y1="847.486" x2="4472.373" y2="38.589" gradientTransform="matrix(-1, 0, 0, 1, 4706.038, 0)" gradientUnits="userSpaceOnUse">
      <stop offset="0" stop-color="#422b13"/>
      <stop offset="1" stop-color="#57381b"/>
    </linearGradient>
    <linearGradient id="b" data-name="Gradient bez nazwy 17" x1="226.615" y1="794.063" x2="226.615" y2="444.021" gradientUnits="userSpaceOnUse">
      <stop offset="0" stop-color="#004837"/>
      <stop offset="1" stop-color="#005c37"/>
    </linearGradient>
    <linearGradient id="c" x1="236.966" y1="654.906" x2="236.966" y2="374.132" xlink:href="#b"/>
    <linearGradient id="d" x1="243.731" y1="514.519" x2="243.731" y2="274.941" xlink:href="#b"/>
    <linearGradient id="e" x1="233.665" y1="166.51" x2="233.665" y2="0" xlink:href="#b"/>
    <linearGradient id="f" x1="-14851.678" y1="976.55" x2="-14851.678" y2="787.973" gradientTransform="matrix(-0.997, 0.078, 0.078, 0.997, -14644.416, 570.269)" xlink:href="#b"/>
  </defs>
  <title>Pinetree_11</title>
  <g>
    <path d="M270.2,847.486H197.134s15.058-345.478,23.484-441.5,0-367.4,0-367.4S265.9,241.074,263.131,424.772,258.715,701.362,270.2,847.486Z" fill="url(#a)"/>
    <path d="M292.019,490.221c-33.983-50.507-67.8-45.98-67.805-45.98l-.129.006c-.245-.008-.49-.016-.737-.016,0,0-36.009-5.857-65.734,44.224C101.715,582.636-14.45,596.191,1.487,619.147c5.558,8,26.92,14.432,53.745,16.539-19.206,19.24-35.555,39.918-22.094,44.02,10.255,3.126,28.99-3.256,48.046-12.214-44.71,54.785-84.245,82.271-34.5,77.429,29.088-2.832,55.352-17.011,76.8-33.6-7.3,19.149-8.79,34.188,3.224,36.12,9.027,1.452,18.149-2.167,26.748-8.392-15.755,35.9-27.539,54.589-8.264,55.012,21.182.465,61.231-31.8,89.05-78.321,19.731,46.187,50.059,67.507,87.107,77.628,44.7,12.21-39.336-141.271-20.7-111.84s65.956,63.893,118.527,68.281c55.726,4.652,10.96-24.008-62.968-108.663,35.307,10.213,70,11.029,87.947,3.3C486.785,626.078,369.658,605.606,292.019,490.221Z" fill="url(#b)"/>
    <path d="M300.424,403.78c-32.572-35.015-69.943-29.3-69.943-29.3l-.123,0c-.235-.006-.47-.011-.707-.011,0,0-34.511-4.06-63,30.658C113.076,470.42,9.91,479.647,25.185,495.562c7.024,7.318,62.584,12.9,90.763,12.058-49.112,52.222-91.595,65.513-25.157,62.636,19.965-.864,36.274-5.016,49.466-10.652-1.775,8.627-.5,14.579,6.378,14.579,5.913,0,12.467-2.767,19.027-6.989-25.339,36.552-56.7,59.081-35.116,59.424,16.283.259,54.817-2.591,87.16-34.557,4.216,30.651,11.6,64.468,23.578,62.784,12.076-1.7,15.939-37.6,16.991-69.115,17.5,16.644,39.732,25.725,65.3,30.778,42.84,8.464-37.7-97.936-19.842-77.533s38.2,36.589,88.59,39.631c53.408,3.225,35.513-8.939-35.342-67.626,33.839,7.08,67.09,7.646,84.291,2.287C482.134,500.536,374.833,483.771,300.424,403.78Z" fill="url(#c)"/>
    <path d="M102.779,481.811c19.894-1.047,36.808-8.4,50.583-17.845.728,3.761,3.385,5.792,8.852,5.055a70.01,70.01,0,0,0,19.5-5.742c-14.868,33.427-30.425,50.9-12.865,51.237,16.487.318,47.659-21.764,69.313-53.606,15.358,31.612,38.964,46.2,67.8,53.131,17.333,4.163,9.8-19.821-.341-42.449,5.8,2.573,11.188,3.723,15.2,2.173,2.771-1.068,3.608-3.834,3.114-7.662,16.542,9.374,36.8,16.557,58.164,18.125,43.375,3.184,8.531-16.431-49.012-74.371,27.482,6.99,54.486,7.548,68.455,2.257,33.184-12.568-57.984-26.58-118.415-105.552-26.451-34.567-52.775-31.47-52.777-31.47-.034,0-.067,0-.1,0-.191-.006-.382-.011-.574-.011,0,0-28.028-4.009-51.165,30.268C135.009,369.813,75.87,379.089,88.276,394.8c5.7,7.224,26.18,12.572,49.066,11.738C97.456,458.1,48.823,484.651,102.779,481.811Z" fill="url(#d)"/>
    <path d="M287.415,92.116c6.328-.542,11.327-1.85,11.7-4.6.216-1.607-1.1-3.262-3.33-4.879a27.091,27.091,0,0,0,6.719-3.431c15.231-10.988-18.9-11.075-54.06-53.9-.358-.47-.742-.945-1.162-1.424-.81-1.008-1.612-1.949-2.406-2.832-4.02-4.861-7.684-9.415-10.977-13.594C223.665-5.528,206.46-.9,201.148,16.278c-2.266,7.327-3.842,12.578-4.925,15.458-.169.432-.337.869-.5,1.317-16.649,44.943-45.06,56.433-37.8,65.2,2.012,2.429,6.614,3.915,12.4,4.123-8.232,10.539-14.746,20.638-10.626,21.886,2.661.806,7.866-1.063,13.867-4.087-13.087,24.434-23.388,37.388-2.085,31.788,10.912-2.868,19.384-10.419,25.748-18.85.027,4.4.874,7.239,3.03,7.191,2.735-.06,5.614-2.49,8.328-5.916-4.791,21.531-10.636,33.423-2.186,32.005,6.151-1.031,15.486-10.972,23.264-25.361,2.56,13.22,6.279,25.369,11.315,25.475,4.606.1,6.445-11.495,7.023-25.068,7.622,7.246,16.3,10.563,25.823,11.63,8.55.957,3.695-12.561-2.66-25.546,3.833.444,7.59.317,10.387-1,1.649-.777,1.973-2.344,1.411-4.378a51.7,51.7,0,0,0,15.659.565C318.309,120.79,313.05,116.489,287.415,92.116Z" fill="url(#e)"/>
    <path d="M346.777,350.459a75.753,75.753,0,0,1-36.313-8.476c1.7,4.872,1.628,8.068-1.318,8.3-5.424.425-14.673-2.7-23.862-6.632,13.119,23.406,24.881,35.24,11.654,36.533-12.918,1.262-38.736-14.151-57.684-37.808-10.11,25.75-27.738,38.651-49.941,45.858-13.193,4.282-9-14.514-2.566-32.7-2.844,1.051-5.461,1.323-7.7.526-2.6-.927-4.046-3-4.646-5.82-12.746,9.034-29.023,16.584-46.669,19.276-28.124,4.29-14.821-7.1,14.351-39.192-5-.38-8.647-1.69-9.471-4.507-.871-2.974,1.992-7.247,6.675-11.924-12.729,2.231-24.012,2.338-31.242.228-26.812-7.825,43.869-24.42,86.439-90.1,18.634-28.752,39.482-27.937,39.482-27.937h0l.08,0c.149-.016.3-.032.449-.043,0,0,21.748-4.868,42.009,20.609,38.1,47.909,85.08,51.555,76.311,64.647-4.033,6.02-19.772,11.474-37.782,12.226C349.5,331.523,389.292,349.373,346.777,350.459Z" fill="url(#f)"/>
  </g>
</svg>
