<svg xmlns="http://www.w3.org/2000/svg" xmlns:xlink="http://www.w3.org/1999/xlink" width="408.034" height="829.487" viewBox="0 0 408.034 829.487">
  <defs>
    <linearGradient id="a" data-name="Gradient bez nazwy 45" x1="223.997" y1="829.487" x2="223.997" y2="20.59" gradientUnits="userSpaceOnUse">
      <stop offset="0" stop-color="#422b13"/>
      <stop offset="1" stop-color="#57381b"/>
    </linearGradient>
    <linearGradient id="b" data-name="Gradient bez nazwy 17" x1="204.017" y1="759.479" x2="204.017" y2="463.041" gradientUnits="userSpaceOnUse">
      <stop offset="0" stop-color="#004837"/>
      <stop offset="1" stop-color="#005c37"/>
    </linearGradient>
    <linearGradient id="c" x1="208.285" y1="627.248" x2="208.285" y2="358.003" xlink:href="#b"/>
    <linearGradient id="d" x1="226.692" y1="165.337" x2="226.692" y2="0" xlink:href="#b"/>
    <linearGradient id="e" x1="284.148" y1="126.683" x2="284.148" y2="-148.462" gradientTransform="translate(-68.634 424.122) rotate(-6.5)" xlink:href="#b"/>
    <linearGradient id="f" x1="212.559" y1="725.052" x2="212.559" y2="492.296" gradientTransform="translate(69.366 -331.782) rotate(5.126)" xlink:href="#b"/>
  </defs>
  <title>Pinetree</title>
  <g>
    <path d="M187.466,829.487h73.062s-15.059-345.477-23.485-441.5,0-367.4,0-367.4-45.286,202.485-42.512,386.183S198.947,683.364,187.466,829.487Z" fill="url(#a)"/>
    <path d="M360.252,654.79c19.35.173,42.247-1.307,38.389-9.588-2.784-5.974-16.659-14.068-31.649-21.385,14.2-2.533,25.118-7.077,29.376-12.47,15.35-19.441-57.825-30.918-111.661-110.676-28.628-42.412-63.308-37.452-63.308-37.452-.238,0-.474.007-.71.014-.041,0-.083,0-.124,0,0,0-32.574-3.834-65.3,38.939C80.488,599.882-32.317,617.219,8.742,632.77,19.905,637,37.8,638.2,58.229,636.2c-10.966,10.433-18.667,20.811-12.566,25.539,2.608,2.021,6.792,2.9,11.894,2.989C9.7,709.614-11.035,725.217,32.8,722c27.962-2.053,54.379-11.874,75.455-24.454-.724,6.445,1.008,10.648,6.626,10.853,3.93.144,8.326-.959,12.953-2.922-12.74,28.254-22.494,58.617-.82,53.411,35.681-8.571,64.89-26.626,83.893-65.74,26.792,39.4,65.364,66.721,85.764,66.327,24.726-.478-3.618-28.4-23.38-81.647,10.543,7.027,21,11.333,28.32,8.082h0c19.1,16.586,44.848,31.416,76.811,33.1C434.214,721.945,401.358,699.482,360.252,654.79Z" fill="url(#b)"/>
    <path d="M40.616,590.49a119.184,119.184,0,0,0,53.711-16.111c-1.986,7.124-1.5,11.666,2.964,11.666,8.223,0,21.788-5.482,35.17-12.1-17.006,34.779-33.331,52.933-13.25,53.3,19.611.357,56.692-24.459,82.45-60.244,18.269,35.526,46.35,51.926,80.653,59.71,20.382,4.626,11.854-21.662.009-46.831,4.408,1.181,8.384,1.275,11.666-.108,3.815-1.61,5.742-4.727,6.313-8.8,20.269,11.439,45.685,20.372,72.588,22.237,42.879,2.973,21.493-11.752-26.244-54.187,7.491-1.1,12.828-3.369,13.738-7.47.961-4.331-3.857-10.094-11.464-16.23,19.442,1.758,36.453.652,47.1-3.157,39.474-14.125-68.974-29.872-140.86-118.624-31.466-38.849-62.78-35.367-62.78-35.367h0l-.12,0c-.226-.006-.454-.012-.682-.012,0,0-33.34-4.5-60.863,34.016C78.955,464.623,8.607,475.047,23.364,492.705c6.786,8.119,31.143,14.129,58.366,13.192C34.285,563.839-23.567,593.682,40.616,590.49Z" fill="url(#c)"/>
    <path d="M270.849,31.1a89.061,89.061,0,0,0-7.242-15.53A31.108,31.108,0,0,0,214.493,9.29a109.28,109.28,0,0,0-9.8,11.334C175.013,60.6,132.83,57.808,139.231,68.912c2.046,3.549,8.7,7.184,17.466,9.607-17.126,8.386-44.081,11.091-24.63,17.148,5.2,1.618,12.443,1.289,20.177-.023-23.262,18.559-39.8,27.132-11.9,29.73,16.328,1.52,30.5-4.018,41.479-10.981a6.55,6.55,0,0,0,5.641,3.552,26.585,26.585,0,0,0,6.635-.284c-13.249,22.03-26.628,32.615-14.937,34.559,7.584,1.26,21.205-4.288,34.487-14.408,1.985,11.494,5.967,25.285,13.658,25.548,6.886.235,8.142-11.723,7.766-23.239,7.489,11.929,18.172,19.383,30.987,24.518,10.691,4.284,8-11.938,3.6-27.338a9.882,9.882,0,0,0,6.555,1.431,5.4,5.4,0,0,0,4.234-3.587c6.13,4.024,14.088,7.282,24.953,9.7,23.821,5.294,19.937-.107-2.116-29.692a7.393,7.393,0,0,0,2.3-1.724c2.24-2.49,2.438-5.477,1.552-8.5a46.471,46.471,0,0,0,15.658-.27C344.99,99.775,291.363,91.362,270.849,31.1Z" fill="url(#d)"/>
    <path d="M275.752,287.544a148.278,148.278,0,0,0-14.9-24.315,51.77,51.77,0,0,0-82.39-1.123,182.216,182.216,0,0,0-14.068,20.587c-41.544,71.687-111.817,75.02-99.142,92.173,4.052,5.484,15.743,10.24,30.689,12.6C69.2,404.553,25.144,414.1,58.446,420.454c8.9,1.7,20.817-.213,33.358-3.838-34.967,35.067-60.7,52.358-14.073,51.4,27.285-.562,49.68-12.389,66.515-25.97,2.13,3.135,5.349,4.938,10,4.81a44.27,44.27,0,0,0,10.917-1.719c-17.756,38.922-37.883,58.944-18.187,59.955,12.778.656,34.254-11.083,54.308-30.32,5.449,18.631,14.63,40.685,27.4,39.67,11.43-.908,11.255-20.917,8.463-39.887,14.631,18.313,33.7,28.625,55.855,34.7,18.483,5.07,10.972-21.246.808-45.882,3.922,1.622,7.7,2.173,11.108,1.132a8.988,8.988,0,0,0,6.326-6.728c10.893,5.5,24.665,9.386,43.085,11.332,40.384,4.266,32.945-3.932-9.093-48.695a12.3,12.3,0,0,0,3.481-3.285c3.236-4.539,3-9.515.966-14.344,9.91.174,18.821-.991,25.839-3.395C411.278,387.135,321.023,383.327,275.752,287.544Z" fill="url(#e)"/>
    <path d="M82.741,365.478a93.5,93.5,0,0,0,44.936-9.953c-2.166,5.989-2.122,9.934,1.51,10.26,6.689.6,18.147-3.13,29.544-7.851-16.52,28.7-31.2,43.144-14.895,44.925,15.925,1.739,48.006-16.922,71.723-45.854,12.117,31.922,33.693,48.091,60.995,57.3,16.223,5.47,11.316-17.787,3.625-40.322,3.5,1.338,6.722,1.71,9.5.758,3.228-1.108,5.036-3.651,5.815-7.118,15.6,11.328,35.589,20.874,57.33,24.443,34.651,5.689,18.392-8.55-17.163-48.571,6.178-.4,10.695-1.964,11.752-5.43,1.117-3.658-2.357-8.972-8.072-14.81,15.68,2.932,29.6,3.221,38.556.718,33.2-9.281-53.8-30.753-105.421-112.416-22.6-35.746-48.338-35.033-48.338-35.033h0l-.1,0c-.183-.022-.368-.044-.554-.06,0,0-26.773-6.313-52.136,24.847-47.7,58.6-105.728,62.439-95.088,78.719,4.893,7.486,24.242,14.439,46.459,15.618C79.649,342.068,30.284,363.542,82.741,365.478Z" fill="url(#f)"/>
  </g>
</svg>
