<svg xmlns="http://www.w3.org/2000/svg" xmlns:xlink="http://www.w3.org/1999/xlink" width="453.23" height="847.486" viewBox="0 0 453.23 847.486">
  <defs>
    <linearGradient id="a" data-name="Gradient bez nazwy 53" x1="16361.175" y1="847.486" x2="16361.175" y2="38.589" gradientTransform="matrix(-1, 0, 0, 1, 16594.84, 0)" gradientUnits="userSpaceOnUse">
      <stop offset="0" stop-color="#593a1c"/>
      <stop offset="1" stop-color="#754c24"/>
    </linearGradient>
    <linearGradient id="b" x1="226.615" y1="794.063" x2="226.615" y2="444.021" gradientUnits="userSpaceOnUse">
      <stop offset="0" stop-color="#005437"/>
      <stop offset="1" stop-color="#006837"/>
    </linearGradient>
    <linearGradient id="c" x1="-3070.5" y1="642.53" x2="-3070.5" y2="402.953" gradientTransform="matrix(-1, 0, 0, 1, -2843.885, 0)" xlink:href="#b"/>
    <linearGradient id="d" x1="233.665" y1="166.51" x2="233.665" y2="0" xlink:href="#b"/>
    <linearGradient id="e" x1="-2981.007" y1="512.637" x2="-2981.007" y2="324.06" gradientTransform="matrix(-0.997, 0.078, 0.078, 0.997, -2773.745, 106.355)" xlink:href="#b"/>
  </defs>
  <title>Pinetree_21</title>
  <g>
    <path d="M270.2,847.486H197.134s15.058-345.478,23.484-441.5,0-367.4,0-367.4S265.9,241.074,263.131,424.772,258.715,701.362,270.2,847.486Z" fill="url(#a)"/>
    <path d="M292.019,490.221c-33.983-50.507-67.8-45.98-67.805-45.98l-.129.006c-.245-.008-.49-.016-.737-.016,0,0-36.009-5.857-65.734,44.224C101.715,582.636-14.45,596.191,1.487,619.147c5.558,8,26.92,14.432,53.745,16.539-19.206,19.24-35.555,39.918-22.094,44.02,10.255,3.126,28.99-3.256,48.046-12.214-44.71,54.785-84.245,82.271-34.5,77.429,29.088-2.832,55.352-17.011,76.8-33.6-7.3,19.149-8.79,34.188,3.224,36.12,9.027,1.452,18.149-2.167,26.748-8.392-15.755,35.9-27.539,54.589-8.264,55.012,21.182.465,61.231-31.8,89.05-78.321,19.731,46.187,50.059,67.507,87.107,77.628,44.7,12.21-39.336-141.271-20.7-111.84s65.956,63.893,118.527,68.281c55.726,4.652,10.96-24.008-62.968-108.663,35.307,10.213,70,11.029,87.947,3.3C486.785,626.078,369.658,605.606,292.019,490.221Z" fill="url(#b)"/>
    <path d="M367.567,609.823c-19.894-1.047-36.808-8.4-50.583-17.845-.728,3.76-3.385,5.792-8.852,5.054a69.977,69.977,0,0,1-19.5-5.742c14.868,33.428,30.425,50.9,12.865,51.237-16.487.318-47.659-21.763-69.313-53.605-15.358,31.611-38.964,46.2-67.8,53.131-17.334,4.163-9.8-19.821.34-42.449-5.8,2.573-11.188,3.722-15.205,2.173-2.771-1.069-3.608-3.834-3.113-7.662-16.543,9.373-36.8,16.557-58.165,18.125-43.375,3.183-8.531-16.432,49.012-74.372-27.482,6.99-54.486,7.549-68.455,2.258-33.184-12.568,57.984-26.58,118.415-105.552,26.451-34.568,52.775-31.471,52.777-31.47l.1,0c.19-.006.381-.011.573-.011,0,0,28.028-4.009,51.165,30.268,43.51,64.459,102.649,73.735,90.243,89.447-5.7,7.225-26.18,12.573-49.065,11.739C372.89,586.108,421.523,612.663,367.567,609.823Z" fill="url(#c)"/>
    <path d="M287.415,92.116c6.328-.542,11.327-1.85,11.7-4.6.216-1.607-1.1-3.262-3.33-4.879a27.091,27.091,0,0,0,6.719-3.431c15.231-10.988-18.9-11.075-54.06-53.9-.358-.47-.742-.945-1.162-1.424-.81-1.008-1.612-1.949-2.406-2.832-4.02-4.861-7.684-9.415-10.977-13.594C223.665-5.528,206.46-.9,201.148,16.278c-2.266,7.327-3.842,12.578-4.925,15.458-.169.432-.337.869-.5,1.317-16.649,44.943-45.06,56.433-37.8,65.2,2.012,2.429,6.614,3.915,12.4,4.123-8.232,10.539-14.746,20.638-10.626,21.886,2.661.806,7.866-1.063,13.867-4.087-13.087,24.434-23.388,37.388-2.085,31.788,10.912-2.868,19.384-10.419,25.748-18.85.027,4.4.874,7.239,3.03,7.191,2.735-.06,5.614-2.49,8.328-5.916-4.791,21.531-10.636,33.423-2.186,32.005,6.151-1.031,15.486-10.972,23.264-25.361,2.56,13.22,6.279,25.369,11.315,25.475,4.606.1,6.445-11.495,7.023-25.068,7.622,7.246,16.3,10.563,25.823,11.63,8.55.957,3.695-12.561-2.66-25.546,3.833.444,7.59.317,10.387-1,1.649-.777,1.973-2.344,1.411-4.378a51.7,51.7,0,0,0,15.659.565C318.309,120.79,313.05,116.489,287.415,92.116Z" fill="url(#d)"/>
    <path d="M346.777,350.459a75.753,75.753,0,0,1-36.313-8.476c1.7,4.872,1.628,8.068-1.318,8.3-5.424.425-14.673-2.7-23.862-6.632,13.119,23.406,24.881,35.24,11.654,36.533-12.918,1.262-38.736-14.151-57.684-37.808-10.11,25.75-27.738,38.651-49.941,45.858-13.193,4.282-9-14.514-2.566-32.7-2.844,1.051-5.461,1.323-7.7.526-2.6-.927-4.046-3-4.646-5.82-12.746,9.034-29.023,16.584-46.669,19.276-28.124,4.29-14.821-7.1,14.351-39.192-5-.38-8.647-1.69-9.471-4.507-.871-2.974,1.992-7.247,6.675-11.924-12.729,2.231-24.012,2.338-31.242.228-26.812-7.825,43.869-24.42,86.439-90.1,18.634-28.752,39.482-27.937,39.482-27.937h0l.08,0c.149-.016.3-.032.449-.043,0,0,21.748-4.868,42.009,20.609,38.1,47.909,85.08,51.555,76.311,64.647-4.033,6.02-19.772,11.474-37.782,12.226C349.5,331.523,389.292,349.373,346.777,350.459Z" fill="url(#e)"/>
  </g>
</svg>
