<svg xmlns="http://www.w3.org/2000/svg" xmlns:xlink="http://www.w3.org/1999/xlink" width="454.803" height="834.676" viewBox="0 0 454.803 834.676">
  <defs>
    <linearGradient id="a" data-name="Gradient bez nazwy 56" x1="10598.57" y1="834.676" x2="10598.57" y2="25.78" gradientTransform="matrix(-1, 0, 0, 1, 10825.972, 0)" gradientUnits="userSpaceOnUse">
      <stop offset="0" stop-color="#52290e"/>
      <stop offset="1" stop-color="#603813"/>
    </linearGradient>
    <linearGradient id="b" data-name="Gradient bez nazwy 12" x1="227.402" y1="755.865" x2="227.402" y2="404.608" gradientUnits="userSpaceOnUse">
      <stop offset="0" stop-color="#003937"/>
      <stop offset="1" stop-color="#004d37"/>
    </linearGradient>
    <linearGradient id="c" x1="217.39" y1="595.157" x2="217.39" y2="317.927" xlink:href="#b"/>
    <linearGradient id="d" x1="196.293" y1="541.695" x2="196.293" y2="319.992" gradientTransform="translate(78.962 -77.875) rotate(5.68)" xlink:href="#b"/>
    <linearGradient id="e" x1="275.589" y1="312.591" x2="275.589" y2="93.996" gradientTransform="translate(-73.89 118.915) rotate(-8.101)" xlink:href="#b"/>
    <linearGradient id="f" x1="232.439" y1="258.264" x2="232.439" y2="74.208" xlink:href="#b"/>
    <linearGradient id="g" x1="230.702" y1="166.51" x2="230.702" y2="0" xlink:href="#b"/>
  </defs>
  <title>Pinetree_7</title>
  <g>
    <path d="M263.933,834.676H190.871s15.058-345.477,23.484-441.5,0-367.395,0-367.395,45.287,202.485,42.512,386.183S252.451,688.553,263.933,834.676Z" fill="url(#a)"/>
    <path d="M293.034,450.968c-34.1-50.682-68.04-46.14-68.041-46.139-.044,0-.087,0-.13.006-.246-.009-.492-.016-.739-.016,0,0-36.134-5.878-65.962,44.377C102.068,543.7-14.5,557.306,1.493,580.342c5.577,8.033,27.013,14.482,53.931,16.6C36.152,616.245,19.745,637,33.253,641.112c10.291,3.136,29.09-3.268,48.213-12.257C36.6,683.83-3.071,711.411,46.843,706.552c29.189-2.841,55.544-17.07,77.07-33.72-7.323,19.216-8.821,34.307,3.235,36.246,9.058,1.457,18.212-2.174,26.841-8.421-15.81,36.022-27.635,54.778-8.293,55.2,21.255.467,61.444-31.907,89.36-78.593,19.8,46.348,50.233,67.742,87.409,77.9,44.854,12.252-39.473-141.762-20.775-112.228s66.185,64.114,118.939,68.518c55.919,4.667,11-24.092-63.187-109.041,35.429,10.248,70.244,11.068,88.253,3.31C488.476,587.3,370.941,566.754,293.034,450.968Z" fill="url(#b)"/>
    <path d="M363.5,497.252c18.1.161,39.509-1.223,35.9-8.967-2.6-5.588-15.58-13.157-29.6-20,13.283-2.369,23.491-6.618,27.473-11.662,14.356-18.181-54.078-28.915-104.426-103.5-26.773-39.664-59.206-35.025-59.206-35.025-.222,0-.443.006-.664.013-.038,0-.077,0-.116,0,0,0-30.463-3.585-61.072,36.416C101.865,445.9-3.632,462.115,34.768,476.658c10.439,3.954,27.172,5.08,46.279,3.207C70.793,489.622,63.59,499.327,69.3,503.749c2.439,1.89,6.352,2.712,11.123,2.8-44.761,41.978-64.147,56.57-23.153,53.561,26.15-1.919,50.856-11.1,70.566-22.869-.677,6.028.943,9.958,6.2,10.15a29.121,29.121,0,0,0,12.114-2.733c-11.914,26.424-21.037,54.819-.767,49.95,33.369-8.015,60.685-24.9,78.457-61.48,25.056,36.846,61.129,62.4,80.207,62.029,23.124-.446-3.383-26.561-21.865-76.357,9.86,6.572,19.635,10.6,26.485,7.559h0c17.858,15.511,41.942,29.381,71.835,30.954C432.671,560.055,401.944,539.047,363.5,497.252Z" fill="url(#c)"/>
    <path d="M93.874,437.56c18.415.858,34.664-4.362,48.214-11.8.325,3.53,2.586,5.644,7.688,5.465a64.779,64.779,0,0,0,18.484-3.5c-16.754,29.42-32.679,44.082-16.54,46,15.152,1.8,45.88-15.675,68.737-43.014,11.246,30.517,31.648,46.116,57.568,55.136,15.58,5.422,10.836-17.355,3.575-39.12,5.106,2.9,9.961,4.452,13.8,3.394,2.649-.731,3.674-3.2,3.569-6.77,14.375,10.146,32.367,18.616,51.9,22.018,39.65,6.9,9.36-14.35-38.321-72.975,24.666,8.954,49.482,11.942,62.83,8.349,31.709-8.534-50.96-29.787-99.374-108.044-21.192-34.254-45.716-33.813-45.718-33.813-.031,0-.061,0-.092-.006-.175-.022-.351-.045-.528-.062,0,0-25.442-6.259-49.887,23.186-45.971,55.372-101.278,58.5-91.294,74.1,4.591,7.175,22.957,13.976,44.107,15.3C91.144,415.235,43.928,435.233,93.874,437.56Z" fill="url(#d)"/>
    <path d="M275.788,205.609a117.818,117.818,0,0,0-12.374-18.978,41.128,41.128,0,0,0-65.455.937,144.817,144.817,0,0,0-10.716,16.662c-31.4,57.853-87.135,62.06-76.688,75.4,3.34,4.265,12.73,7.783,24.652,9.321-20.854,14.168-55.632,22.731-29.044,27.034,7.105,1.15,16.527-.631,26.406-3.789-26.99,28.626-47.041,42.929-10.035,41.131,21.657-1.052,39.18-10.942,52.248-22.1a8.661,8.661,0,0,0,8.045,3.6,35.214,35.214,0,0,0,8.631-1.608c-13.236,31.3-28.776,47.652-13.112,48.018,10.162.237,26.957-9.563,42.456-25.285,4.741,14.675,12.522,31.985,22.638,30.9,9.057-.975,8.474-16.861,5.835-31.865,12.026,14.219,27.4,21.985,45.129,26.32,14.791,3.615,8.242-17.117-.377-36.456,3.15,1.2,6.164,1.554,8.846.652a7.142,7.142,0,0,0,4.875-5.483c8.772,4.124,19.8,6.906,34.468,8.042,32.166,2.491,26.076-3.854-8.3-38.469a9.774,9.774,0,0,0,2.692-2.686c2.469-3.677,2.171-7.623.449-11.413,7.874-.082,14.924-1.2,20.445-3.271C385.629,281.693,313.868,280.672,275.788,205.609Z" fill="url(#e)"/>
    <path d="M124.152,233.136c15.284-.8,28.278-6.452,38.861-13.709.559,2.889,2.6,4.449,6.8,3.882A53.729,53.729,0,0,0,184.8,218.9c-11.422,25.681-23.374,39.1-9.883,39.363,12.666.245,36.614-16.719,53.25-41.182,11.8,24.286,29.934,35.5,52.088,40.818,13.317,3.2,7.525-15.228-.261-32.612,4.456,1.977,8.6,2.86,11.681,1.67,2.129-.821,2.772-2.946,2.392-5.887a108.133,108.133,0,0,0,44.685,13.925c33.323,2.446,6.554-12.624-37.654-57.136,21.113,5.37,41.859,5.8,52.591,1.734,25.494-9.656-44.546-20.42-90.972-81.091-20.322-26.556-40.545-24.177-40.547-24.176l-.077,0c-.146,0-.293-.009-.441-.009,0,0-21.532-3.079-39.307,23.254-33.427,49.521-78.86,56.647-69.33,68.718,4.383,5.55,20.113,9.659,37.7,9.018C120.063,214.917,82.7,235.318,124.152,233.136Z" fill="url(#f)"/>
    <path d="M299.87,92.116c8.143-.542,14.575-1.85,15.051-4.6.278-1.607-1.417-3.262-4.285-4.879a39.35,39.35,0,0,0,8.647-3.431c19.6-10.988-24.325-11.075-69.566-53.9-.461-.47-.956-.945-1.5-1.424q-1.565-1.512-3.1-2.832c-5.173-4.861-9.888-9.415-14.126-13.594a25.829,25.829,0,0,0-42.142,8.823c-2.915,7.327-4.943,12.578-6.336,15.458-.219.432-.435.869-.649,1.317C160.448,78,123.887,89.486,133.234,98.255c2.589,2.429,8.511,3.915,15.959,4.123-10.593,10.539-18.975,20.638-13.673,21.886,3.424.806,10.122-1.063,17.844-4.087-16.84,24.434-30.1,37.388-2.683,31.788,14.042-2.868,24.945-10.419,33.133-18.85.035,4.4,1.125,7.239,3.9,7.191,3.52-.06,7.226-2.49,10.718-5.916-6.166,21.531-13.687,33.423-2.813,32.005,7.915-1.031,19.928-10.972,29.936-25.361,3.295,13.22,8.081,25.369,14.56,25.475,5.928.1,8.295-11.495,9.039-25.068,9.807,7.246,20.975,10.563,33.229,11.63,11,.957,4.755-12.561-3.423-25.546,4.933.444,9.768.317,13.367-1,2.122-.777,2.539-2.344,1.816-4.378a85.333,85.333,0,0,0,20.151.565C339.625,120.79,332.858,116.489,299.87,92.116Z" fill="url(#g)"/>
  </g>
</svg>
