<svg xmlns="http://www.w3.org/2000/svg" xmlns:xlink="http://www.w3.org/1999/xlink" width="408.222" height="836.061" viewBox="0 0 408.222 836.061">
  <defs>
    <linearGradient id="a" data-name="Gradient bez nazwy 45" x1="5041.36" y1="836.061" x2="5041.36" y2="27.164" gradientTransform="matrix(-1, 0, 0, 1, 5242.17, 0)" gradientUnits="userSpaceOnUse">
      <stop offset="0" stop-color="#422b13"/>
      <stop offset="1" stop-color="#57381b"/>
    </linearGradient>
    <linearGradient id="b" data-name="Gradient bez nazwy 17" x1="204.111" y1="760.435" x2="204.111" y2="445.154" gradientUnits="userSpaceOnUse">
      <stop offset="0" stop-color="#004837"/>
      <stop offset="1" stop-color="#005c37"/>
    </linearGradient>
    <linearGradient id="c" x1="190.798" y1="617.165" x2="190.798" y2="339.934" xlink:href="#b"/>
    <linearGradient id="d" x1="216.881" y1="453.941" x2="216.881" y2="214.363" xlink:href="#b"/>
    <linearGradient id="e" x1="276.818" y1="-201.248" x2="276.818" y2="-396.339" gradientTransform="translate(-23.015 521.574) rotate(-10.058)" xlink:href="#b"/>
    <linearGradient id="f" x1="204.826" y1="475.288" x2="204.826" y2="308.778" gradientTransform="translate(44.186 -327.753) rotate(6.39)" xlink:href="#b"/>
  </defs>
  <title>Pinetree_2</title>
  <g>
    <path d="M237.341,836.061H164.279s15.058-345.477,23.484-441.5,0-367.4,0-367.4,45.287,202.485,42.513,386.183S225.86,689.938,237.341,836.061Z" fill="url(#a)"/>
    <path d="M263.021,486.766c-30.609-45.491-61.071-41.414-61.072-41.414-.039,0-.078,0-.116.006-.221-.008-.442-.014-.664-.014,0,0-32.433-5.276-59.206,39.832C91.614,570-13.016,582.213,1.34,602.889c5.006,7.211,24.246,13,48.407,14.9-17.3,17.329-32.024,35.954-19.9,39.649,9.237,2.815,26.111-2.933,43.275-11-40.27,49.345-75.879,74.1-31.076,69.74,26.2-2.55,49.854-15.322,69.176-30.266-6.574,17.247-7.917,30.793,2.9,32.533,8.131,1.308,16.347-1.951,24.092-7.558-14.19,32.332-24.8,49.168-7.443,49.549,19.078.419,55.15-28.639,80.207-70.543,17.772,41.6,45.088,60.8,78.457,69.919,40.259,11-35.43-127.242-18.647-100.734s59.406,57.548,106.757,61.5c50.191,4.189,9.871-21.625-56.716-97.873,31.8,9.2,63.05,9.934,79.214,2.971C438.445,609.132,332.949,590.693,263.021,486.766Z" fill="url(#b)"/>
    <path d="M336.91,519.259c18.1.162,39.51-1.222,35.9-8.966-2.6-5.588-15.579-13.157-29.6-20,13.282-2.369,23.491-6.619,27.472-11.662,14.356-18.181-54.077-28.915-104.426-103.5-26.773-39.664-59.206-35.025-59.206-35.025-.222,0-.443.006-.664.013-.038,0-.077,0-.115,0,0,0-30.463-3.586-61.073,36.416C75.273,467.909-30.224,484.122,8.176,498.666c10.439,3.954,27.173,5.08,46.28,3.206C44.2,511.63,37,521.335,42.7,525.757c2.439,1.89,6.353,2.712,11.123,2.8C9.067,570.53-10.32,585.123,30.674,582.114c26.151-1.919,50.856-11.1,70.566-22.87-.677,6.028.944,9.959,6.2,10.151a29.12,29.12,0,0,0,12.113-2.733c-11.914,26.423-21.037,54.819-.767,49.95,33.369-8.015,60.685-24.9,78.457-61.48,25.057,36.846,61.129,62.4,80.207,62.029,23.125-.447-3.383-26.561-21.865-76.357,9.861,6.572,19.635,10.6,26.485,7.559h0c17.858,15.511,41.943,29.38,71.835,30.954C406.079,582.063,375.352,561.055,336.91,519.259Z" fill="url(#c)"/>
    <path d="M75.929,421.233c19.893-1.047,36.808-8.4,50.583-17.845.727,3.761,3.384,5.792,8.852,5.054a70.029,70.029,0,0,0,19.5-5.741C140,436.128,124.44,453.6,142,453.937c16.486.319,47.659-21.763,69.313-53.605,15.357,31.612,38.964,46.2,67.8,53.131,17.333,4.163,9.8-19.821-.34-42.449,5.8,2.573,11.188,3.722,15.2,2.173,2.771-1.069,3.609-3.834,3.114-7.662,16.543,9.374,36.8,16.557,58.165,18.125,43.374,3.184,8.53-16.432-49.013-74.372,27.482,6.99,54.486,7.549,68.455,2.258,33.184-12.568-57.984-26.58-118.414-105.552-26.452-34.567-52.775-31.47-52.778-31.47l-.1,0c-.191,0-.381-.011-.574-.011,0,0-28.028-4.008-51.165,30.268-43.51,64.46-102.648,73.735-90.243,89.447,5.7,7.225,26.181,12.573,49.066,11.739C70.606,397.518,21.972,424.073,75.929,421.233Z" fill="url(#d)"/>
    <path d="M238.044,110.01a105.1,105.1,0,0,0-11.615-16.551,36.707,36.707,0,0,0-58.355,2.83,129.179,129.179,0,0,0-9.05,15.188c-26.246,52.56-75.83,58.01-66.1,69.592,3.109,3.7,11.591,6.554,22.272,7.562-18.169,13.273-48.929,21.97-25.082,25,6.372.809,14.722-1.067,23.438-4.184-23.2,26.355-40.651,39.724-7.7,36.992,19.284-1.6,34.613-10.954,45.929-21.3a7.729,7.729,0,0,0,7.286,2.964,31.364,31.364,0,0,0,7.65-1.7c-10.853,28.325-24.216,43.38-10.233,43.229,9.072-.1,23.753-9.351,37.1-23.846,4.676,12.945,12.143,28.148,21.133,26.868,8.049-1.145,7.044-15.3,4.234-28.6,11.16,12.316,25.107,18.775,41.054,22.1,13.3,2.774,6.83-15.519-1.447-32.506a11.656,11.656,0,0,0,7.911.312,6.372,6.372,0,0,0,4.181-5.039c7.95,3.411,17.868,5.557,30.989,6.123,28.766,1.242,23.141-4.231-8.578-34.06a8.7,8.7,0,0,0,2.319-2.477c2.09-3.355,1.705-6.866.053-10.194a54.819,54.819,0,0,0,18.136-3.54C338.335,174.526,274.3,175.8,238.044,110.01Z" fill="url(#e)"/>
    <path d="M264.649,100.335c7.3.273,13.17-.387,13.9-3.07.427-1.569-.9-3.383-3.268-5.275a33.182,33.182,0,0,0,8.073-2.549c18.656-8.968-20.405-13.428-55.88-60.5-.358-.514-.745-1.034-1.172-1.564-.815-1.107-1.629-2.144-2.439-3.123-4.06-5.347-7.747-10.342-11.051-14.916-10.266-14.215-30.475-11.823-38.468,4.57-3.408,6.99-5.8,12.007-7.356,14.731-.242.407-.484.819-.724,1.243-24.058,42.53-57.857,50.307-50.519,59.953,2.032,2.672,7.134,4.738,13.736,5.687-10.595,9.418-19.175,18.62-14.6,20.388,2.957,1.141,9.122-.048,16.327-2.284-17.7,22.605-30.931,34.157-5.924,31.323,12.81-1.452,23.348-7.87,31.57-15.432-.459,4.378.2,7.3,2.668,7.534,3.138.291,6.7-1.755,10.191-4.812-7.88,20.784-15.893,31.852-6.064,31.527,7.156-.237,18.947-8.919,29.451-22.222,1.459,13.466,4.365,26.017,10.116,26.767,5.262.687,8.657-10.6,10.83-24.011,7.917,8.177,17.482,12.586,28.263,14.867,9.68,2.047,5.627-12.01-.2-25.728,4.338.932,8.653,1.288,12,.336,1.973-.562,2.519-2.077,2.1-4.171a68.4,68.4,0,0,0,17.861,2.569C296.819,132.791,291.279,127.843,264.649,100.335Z" fill="url(#f)"/>
  </g>
</svg>
