<svg xmlns="http://www.w3.org/2000/svg" xmlns:xlink="http://www.w3.org/1999/xlink" width="511.359" height="836.371" viewBox="0 0 511.359 836.371">
  <defs>
    <linearGradient id="a" data-name="Gradient bez nazwy 53" x1="252.823" y1="836.371" x2="252.823" y2="27.474" gradientUnits="userSpaceOnUse">
      <stop offset="0" stop-color="#593a1c"/>
      <stop offset="1" stop-color="#754c24"/>
    </linearGradient>
    <linearGradient id="b" x1="255.68" y1="757.56" x2="255.68" y2="458.236" gradientUnits="userSpaceOnUse">
      <stop offset="0" stop-color="#005437"/>
      <stop offset="1" stop-color="#006837"/>
    </linearGradient>
    <linearGradient id="c" x1="266.955" y1="606.661" x2="266.955" y2="373.904" xlink:href="#b"/>
    <linearGradient id="d" x1="255.68" y1="484.233" x2="255.68" y2="299.443" xlink:href="#b"/>
    <linearGradient id="e" x1="234.641" y1="283.8" x2="234.641" y2="135.442" xlink:href="#b"/>
    <linearGradient id="f" x1="247.126" y1="209.621" x2="247.126" y2="101.169" xlink:href="#b"/>
    <linearGradient id="g" x1="262.301" y1="88.267" x2="262.301" y2="0" xlink:href="#b"/>
  </defs>
  <title>Pinetree_25</title>
  <g>
    <path d="M216.293,836.371h73.061S274.3,490.894,265.87,394.87s0-367.4,0-367.4-45.286,202.485-42.512,386.183S227.774,690.248,216.293,836.371Z" fill="url(#a)"/>
    <path d="M331.743,489.843c-39.042-37.328-83.837-31.238-83.837-31.238-.049,0-.1,0-.147,0-.282-.007-.563-.012-.847-.012,0,0-41.367-4.329-75.515,32.683-64.218,69.6-187.878,79.442-169.568,96.408,8.419,7.8,75.016,13.755,108.793,12.854C51.754,656.215.832,670.384,80.468,667.318c23.931-.922,43.479-5.348,59.291-11.356-2.126,9.2-.6,15.542,7.645,15.542,7.089,0,14.944-2.95,22.808-7.451-30.373,38.967-67.964,62.985-42.092,63.35,19.517.276,65.706-2.762,104.474-36.84,5.053,32.676,13.907,68.727,28.262,66.932,14.474-1.809,19.105-40.081,20.365-73.681,20.98,17.744,47.625,27.425,78.275,32.811,51.349,9.024-45.19-104.406-23.784-82.655s45.794,39.006,106.188,42.249c64.017,3.438,42.567-9.529-42.362-72.094,40.561,7.548,80.417,8.152,101.035,2.438C549.55,592.992,420.934,575.119,331.743,489.843Z" fill="url(#b)"/>
    <path d="M89.419,574.884a147.453,147.453,0,0,0,56.871-13.928c-2.1,6.159-1.589,10.085,3.139,10.085,8.707,0,23.071-4.739,37.24-10.46-18.007,30.065-35.292,45.76-14.03,46.076,20.765.31,60.029-21.143,87.3-52.079,19.344,30.712,49.077,44.889,85.4,51.618,21.582,4,12.552-18.726.01-40.484,4.668,1.021,8.878,1.1,12.352-.094a9.3,9.3,0,0,0,6.685-7.609,216.356,216.356,0,0,0,76.859,19.224c45.4,2.57,22.759-10.159-27.788-46.844,7.932-.949,13.583-2.912,14.547-6.458,1.018-3.744-4.084-8.726-12.139-14.03,20.587,1.52,38.6.563,49.869-2.729,41.8-12.211-73.033-25.824-149.149-102.548-33.318-33.584-66.475-30.573-66.475-30.573h0c-.042,0-.085,0-.127,0-.24-.006-.48-.011-.722-.011,0,0-35.3-3.895-64.445,29.406-54.8,62.625-129.291,71.636-113.665,86.9,7.185,7.019,32.975,12.214,61.8,11.4C82.715,551.845,21.459,577.643,89.419,574.884Z" fill="url(#c)"/>
    <path d="M123.747,452.043a115.189,115.189,0,0,0,60.675-20.462c-1.145,5.487-1.028,9.668,1.681,10.346,3.163.79,8.692-1.79,14.509-5.444-14.581,25.89-30.717,39.428-13.432,39.685,10.783.16,28.109-7.354,44.631-19.583,1.881,14.545,6.976,27.561,19.183,27.648,9.173.065,12.209-17.713,13.031-34.536,14.176,14.506,32.915,22.083,54.794,26.12,16.307,3.01,9.686-13.918.257-30.3h0c5.062-1.186,6.61-5.232,6.372-10.2a164.156,164.156,0,0,0,66.473,18.51c41.642,2.348,8.19-12.121-47.056-54.861,26.385,5.156,40.905.285,48.024-4.99,14.543-10.776-37.97-12.952-95.988-71.206-25.4-25.5-50.669-23.214-50.67-23.214l-.648,0s-26.908-2.957-49.121,22.327c-41.773,47.549-98.55,54.392-86.64,65.982,3.63,3.532,13.494,6.455,26.13,7.846-17.806,11.605-26.117,14-7.107,16a69.712,69.712,0,0,0,11.275.135C107.2,439.758,79.433,453.835,123.747,452.043Z" fill="url(#d)"/>
    <path d="M312.832,231.407c9.684.086,21.143-.655,19.212-4.8-1.393-2.99-8.337-7.041-15.839-10.7,7.108-1.268,12.571-3.542,14.7-6.241,7.682-9.73-28.94-15.474-55.883-55.39-14.328-21.226-31.684-18.744-31.684-18.744-.119,0-.237,0-.355.007l-.062,0s-16.3-1.918-32.682,19.488c-37.422,48.9-93.878,57.58-73.329,65.363,5.587,2.116,14.542,2.719,24.767,1.716-5.488,5.222-9.342,10.415-6.289,12.782,1.305,1.011,3.4,1.451,5.952,1.5-23.953,22.464-34.328,30.273-12.39,28.663A87.526,87.526,0,0,0,186.715,252.8c-.362,3.226.5,5.33,3.317,5.432a15.589,15.589,0,0,0,6.482-1.462c-6.376,14.14-11.258,29.335-.411,26.73,17.858-4.289,32.476-13.325,41.986-32.9C251.5,270.322,270.8,284,281.011,283.8c12.375-.239-1.81-14.214-11.7-40.862,5.277,3.517,10.508,5.672,14.174,4.045h0c9.556,8.3,22.445,15.723,38.442,16.565C349.847,265.015,333.4,253.773,312.832,231.407Z" fill="url(#e)"/>
    <path d="M168.943,182.49a71.445,71.445,0,0,0,25.956-3.025c-.4,1.956.474,3.171,3.133,3.265,5.466.192,12.34-2.1,19.01-5.189-11.835,14.762-23.643,21.864-13.2,23.175,7.741.971,22.476-4.014,35.819-12.738.023,7.29,1.242,13.431,5.269,13.51,3.762.074,7.384-3.306,10.436-7.541,6.65,7.264,15.78,11.926,26.6,15.2,19.116,5.785-9.373-43.508-2.793-33.932s15.113,16.623,38.166,20.492c24.322,4.082,16.522-1.2-10.851-29.26,9.983,2.464,19.662,3.114,26.49,1.979,19.947-3.315-18.88-12.173-46.708-49.941-12.182-16.532-27.432-16.857-27.432-16.857l-.1-.006c-.1-.012-.187-.029-.282-.039,0,0-15.627-3.49-31.662,9.794-30.155,24.979-64.608,25.244-58.853,32.782,1.835,2.4,7.795,4.866,15.647,6.51-7.466,3.428-13.179,6.861-11.545,8.807,1.2,1.423,5.13,1.669,10.1,1.305C159.964,174.44,142.866,180.657,168.943,182.49Z" fill="url(#f)"/>
    <path d="M306.615,57.337c10.437,1.924,19.835,1.78,22.509-.018,5.815-3.91-21.085-11.065-40.314-33.992a136.921,136.921,0,0,1-13.017-18.1,10.566,10.566,0,0,0-16.026-2.655,148.393,148.393,0,0,1-16,11.778c-.9.517-1.8,1.083-2.713,1.717-28.35,19.794-60.262,17.9-45.24,24.167,5.143,2.147,12.827,3.67,21.064,4.032-26.3,13.353-33.322,15.327-13.589,17.5,18.7,2.064,26.608-.953,33.424-6.068s-24.061,22.306-8.1,22.282c13.228-.019,24.143-2.772,31.46-11.339,9.572,11.338,23.585,20.379,31.113,21.484,11.22,1.647-6.835-11.716-11.907-32.353,0,0,14.463,21.7,42.38,27.149C346.255,87.732,324.316,76.046,306.615,57.337Z" fill="url(#g)"/>
  </g>
</svg>
