<svg xmlns="http://www.w3.org/2000/svg" xmlns:xlink="http://www.w3.org/1999/xlink" width="485.65" height="826.758" viewBox="0 0 485.65 826.758">
  <defs>
    <linearGradient id="a" data-name="Gradient bez nazwy 53" x1="18181.17" y1="826.758" x2="18181.17" y2="17.861" gradientTransform="matrix(-1, 0, 0, 1, 18435.577, 0)" gradientUnits="userSpaceOnUse">
      <stop offset="0" stop-color="#593a1c"/>
      <stop offset="1" stop-color="#754c24"/>
    </linearGradient>
    <linearGradient id="b" x1="242.825" y1="759.6" x2="242.825" y2="558.273" gradientUnits="userSpaceOnUse">
      <stop offset="0" stop-color="#005437"/>
      <stop offset="1" stop-color="#006837"/>
    </linearGradient>
    <linearGradient id="c" x1="-4115.695" y1="498.37" x2="-4115.695" y2="307.548" gradientTransform="matrix(-0.998, -0.07, -0.07, 0.998, -3834.806, -133.716)" xlink:href="#b"/>
    <linearGradient id="d" x1="259.956" y1="558.246" x2="259.956" y2="362.655" xlink:href="#b"/>
    <linearGradient id="e" x1="-4000.802" y1="51.844" x2="-4000.802" y2="-121.835" gradientTransform="matrix(-0.982, -0.19, -0.19, 0.982, -3674.722, -352.04)" xlink:href="#b"/>
    <linearGradient id="f" x1="245.562" y1="338.997" x2="245.562" y2="209.489" xlink:href="#b"/>
    <linearGradient id="g" x1="254.407" y1="250.574" x2="254.407" y2="125.172" xlink:href="#b"/>
    <linearGradient id="h" x1="203.43" y1="-116.885" x2="203.43" y2="-207.594" gradientTransform="translate(24.666 250.921) rotate(7.407)" xlink:href="#b"/>
    <linearGradient id="i" x1="248.929" y1="113.885" x2="248.929" y2="37.988" xlink:href="#b"/>
    <linearGradient id="j" x1="243.425" y1="67.453" x2="243.425" y2="0" xlink:href="#b"/>
  </defs>
  <title>Pinetree_28</title>
  <g>
    <path d="M290.938,826.758H217.876s15.058-345.477,23.484-441.5,0-367.4,0-367.4,45.287,202.485,42.512,386.183S279.456,680.635,290.938,826.758Z" fill="url(#a)"/>
    <path d="M335.845,583.956c-35.243-30.193-83.038-25.4-83.038-25.4-.312,0-.622,0-.931.009-.054,0-.109,0-.163,0,0,0-42.724-2.6-85.655,26.413C67.981,651.255-24.435,630.559,5.847,648.722c11.107,6.662,29.33,11.263,50.655,13.462-10.07,4.311-16.3,8.4-12.619,11.052,4.183,3.012,13.448,4.35,23.456,4.842-57.453,25.588-57.618,34.976-20.2,33.889,66.45-1.93,108.018-17.1,108.018-17.1s-82.618,71.262-26.154,64.247c46.8-5.813,85.114-18.061,110.039-44.593,35.143,26.726,85.735,45.259,112.492,44.992,29.121-.291,2.124-15.592-22.457-44.859,7.539,2.584,15.236,3.744,22.542,2.416,4.612-.839,6.919-2.853,7.49-5.687,15.941,4.592,36.446,7.977,62.741,8.693,80.47,2.19,32.985-5.333-22.71-37.717,14.628,3.2,26.568,4.448,27.492.3.971-4.346-1.985-9.353-5.949-13.842,29.464-.766,53.893-4.729,61.62-9.79C502.44,645.844,428.888,663.666,335.845,583.956Z" fill="url(#b)"/>
    <path d="M159.823,477.9c35.316-26.222,80.191-18.539,80.191-18.539.295.02.588.045.88.07l.154.007s40.568.362,79.245,30.63c88.358,69.148,177.106,55.681,147.273,70.855-10.941,5.566-28.475,8.713-48.783,9.385,9.237,4.741,14.858,9.02,11.2,11.283-4.155,2.572-13,3.225-22.5,3.03C460.12,612.607,459.657,621.5,424.346,618c-62.7-6.212-101-23.3-101-23.3s73.413,72.834,20.487,62.474c-43.868-8.587-79.284-22.7-101.1-49.429-34.993,22.95-84.053,37.133-109.335,35.114-27.515-2.2-.979-14.883,24.2-40.932-7.3,1.945-14.654,2.534-21.473.8-4.306-1.1-6.354-3.154-6.707-5.872-15.376,3.29-34.988,5.137-59.9,4.077-76.23-3.241-30.836-7.219,23.963-34.162-14.042,2.06-25.414,2.452-26.015-1.527-.631-4.173,2.495-8.712,6.539-12.695-27.808-2.669-50.645-8.029-57.617-13.325C-1.782,525.418,66.586,547.124,159.823,477.9Z" fill="url(#c)"/>
    <path d="M106.459,513.4A146.083,146.083,0,0,0,172.4,501.058c-7,9.974-10.975,18.254-6.846,20.347,4.394,2.228,13.015-.021,22.189-3.772-14.841,17.192-25.056,25.936-8.512,27.512,15.508,1.478,43.5-8.228,67.766-24.709,1.318,7.216,4.7,12.493,11.76,12.493a42.16,42.16,0,0,0,17.962-3.944c15.026,14.062,34.823,22.7,57.917,28.5,38.889,9.772-28.5-78.58-13.354-61.456s55.372,39.016,101.548,45.163c48.947,6.516,10.72-12.08-50.772-62.8,30.694,8.024,61.258,10.966,77.427,8.117,38.409-6.768-64-26.2-127.418-93.664-27.76-29.532-57.789-29.546-57.789-29.546h0l-.114-.006c-.215-.022-.431-.044-.649-.062,0,0-31.5-5.739-59.919,18.966C150.16,428.656,50.151,432.877,63.2,446.335c3.525,3.636,14.234,8,57.655,7.447-11.192,6.226-19.335,12.3-16.947,15.882,2.638,3.957,14.808,3.124,28.255.763C89.617,498.182,52.781,510.967,106.459,513.4Z" fill="url(#d)"/>
    <path d="M384.85,445.227a129.725,129.725,0,0,1-55.409-21.877c4.422,9.876,6.491,17.765,2.538,18.894-4.206,1.2-11.343-2.213-18.709-7.03,10.041,17.49,17.472,26.835,2.783,25.421-13.769-1.326-36.533-14.506-54.914-32.967-2.365,6.069-6.2,10.1-12.358,8.909a37.441,37.441,0,0,1-15-6.466c-15.47,9.726-34.186,13.919-55.3,15.085-35.551,1.964,38.092-63.7,22-51.326s-54.852,24.68-96.145,22.254c-43.772-2.571-7.31-12.339,54.852-46.194-28.112,1.821-55.255-.767-68.871-5.977C57.981,351.578,150.541,351.9,217.2,303.777c29.18-21.067,55.363-16.016,55.363-16.016h0c.033,0,.066.008.1.014.191.017.384.034.577.055,0,0,28.432.308,49.041,26.636,38.754,49.513,125.233,70.052,111.586,79.585-3.687,2.576-13.758,4.573-51.521-3.227,8.708,7.315,14.783,13.983,12.1,16.7-2.967,3.006-13.437.227-24.762-4.1C402.1,434.8,432.058,452.156,384.85,445.227Z" fill="url(#e)"/>
    <path d="M140.555,303.52c47.2,2.857,79.518-26.032,79.518-26.032-16.763,31.1-51.389,45.08-32.645,47.106,9.844,1.064,28.11-4.044,45.236-13.152-3.28,15.1-7.911,27.541-2.036,27.555,10.077.023,18.216-13.118,23.46-24.8,9.077,9.892,22.3,15.984,38.269,20.143,11.306,2.946,10.213-6.457,6.2-16.96,5.655,2.6,11.041,3.929,13.915,1.617.881-.708.474-3.4-.568-6.921,7.088,2.753,16.09,5.009,27.96,6.723,32.666,4.72,22.191-1.383-14.575-33.833,13.408,2.849,26.409,3.6,35.58,2.289,26.789-3.833-25.359-14.076-62.735-57.746C281.777,210.4,261.3,210.02,261.3,210.02l-.137-.007c-.126-.014-.25-.033-.378-.045,0,0-20.989-4.035-42.526,11.324-40.5,28.884-86.774,29.19-79.045,37.906,3.554,4.008,18.619,8.156,36.217,9.408C139.143,291.34,98.965,301,140.555,303.52Z" fill="url(#f)"/>
    <path d="M164.005,219.2a82.569,82.569,0,0,0,30.013-3.5c-.457,2.262.547,3.667,3.622,3.775,6.32.223,14.269-2.426,21.982-6-13.686,17.069-27.339,25.281-15.264,26.8,8.951,1.124,25.988-4.641,41.417-14.728.027,8.43,1.436,15.53,6.092,15.621,4.35.086,8.538-3.822,12.068-8.719,7.689,8.4,18.246,13.789,30.758,17.576,22.1,6.689-10.837-50.309-3.229-39.236s17.475,19.221,44.131,23.695c28.122,4.719,19.1-1.384-12.548-33.833,11.543,2.848,22.736,3.6,30.631,2.289,23.064-3.833-21.832-14.077-54.009-57.747-14.085-19.116-31.718-19.492-31.718-19.492q-.059,0-.117-.006c-.11-.015-.216-.034-.327-.046,0,0-18.069-4.035-36.61,11.324-34.868,28.884-74.7,29.19-68.051,37.906,2.122,2.78,9.014,5.627,18.092,7.528-8.632,3.963-15.238,7.933-13.348,10.183,1.382,1.646,5.931,1.931,11.681,1.51C153.622,209.9,133.853,217.083,164.005,219.2Z" fill="url(#g)"/>
    <path d="M289.39,117.783c10.629.236,19.977-1.76,22.43-4.394,5.333-5.73-22.32-8.919-44.19-32.15C256,68.886,243.117,70.42,243.117,70.42c-.081,0-.16.007-.24.009l-.072,0h0s-12.282-1.047-23.626,11.556c-25.916,28.792-57.942,32.76-42.231,37.217,5.378,1.526,13.216,1.824,21.468.65-24.636,20.817-31.4,24.5-11.476,23.229,8.153-.521,14.184-1.766,18.908-3.6-.812,2.483-.749,4.462.852,5.343a7.9,7.9,0,0,0,4.628.887c-2.931,6.846-3.919,12.838,2.763,11.523,13.181-2.594,23.733-7.952,30.013-19.451,10.879,11.476,25.911,19.388,33.544,19.225,11.376-.244-8.2-12.453-15.687-35.742,0,0,16.976,22.709,45.441,23.7C332.483,145.832,309.24,136.35,289.39,117.783Z" fill="url(#h)"/>
    <path d="M281.324,72.663c8.168-.951,15.133-3.615,16.749-6.066,3.517-5.328-17.991-4.992-37.064-21.908-10.142-9-19.861-6.333-19.861-6.333-.062.009-.122.022-.183.033l-.055,0h0s-9.515.457-16.953,12.137C206.966,77.214,182.82,83.961,195.3,85.965c4.273.686,10.309.087,16.515-1.776-16.8,19.929-21.619,23.717-6.479,20.511,7.778-1.647,12.881-3.88,16.565-6.655-.323,2.054-.125,3.564.974,3.966a4.285,4.285,0,0,0,1.987.185c-2.04,6.818-2.864,13.333,2.688,11.317,9.842-3.574,17.394-9.158,21.061-19.376,9.479,8.349,21.786,13.292,27.619,12.333,6.59-1.083-1.133-5.956-8.767-16.315a4.178,4.178,0,0,0,1.045-.419,7.268,7.268,0,0,0,2.876-2.794c6.535,3.89,15.686,7.431,26.446,6.327C317.139,91.288,298.384,85.928,281.324,72.663Z" fill="url(#i)"/>
    <path d="M280.675,26.239c2.616-4.067-6.764.982-18.284-12.737a79.491,79.491,0,0,0-10.26-10.387c-6.215-5.1-14.829-3.811-19.67,2.952-.909,1.271-1.873,2.7-2.881,4.316C214.776,34.071,201.513,32.848,207,36.952a12.7,12.7,0,0,0,6.494,2.3,6.477,6.477,0,0,0-2.219,3.52c-.1,1.333.83,1.944,2.085,2.178-9.523,10.44-9.452,13.374-3.113,11.454a50.811,50.811,0,0,0,9.716-4.1,4.257,4.257,0,0,0,3.583,1.94,4.973,4.973,0,0,0,1.035-.017c-2.753,6.813-5.384,15.479.439,12.691A34.118,34.118,0,0,0,238.676,55.91c1.152,2.934,2.715,5.266,4.749,5.005,2.54-.326,3.91-3.771,4.649-7.211,5.29,3.364,10.851,4.907,14.086,4.039,4.654-1.248.369-4.429-4.216-11.414,2.279.645,4.371.968,5.688.569,1.437-.435,1.555-1.73,1.069-3.272a26.58,26.58,0,0,0,8.263-.475c12.572-2.53,6.373-2.911-2.678-8.828a3.773,3.773,0,0,0,1.561-.6c1.2-.941.616-2.179-.587-3.357C276.353,30.2,279.442,28.155,280.675,26.239Z" fill="url(#j)"/>
  </g>
</svg>
