<svg xmlns="http://www.w3.org/2000/svg" xmlns:xlink="http://www.w3.org/1999/xlink" width="541.495" height="826.758" viewBox="0 0 541.495 826.758">
  <defs>
    <linearGradient id="a" data-name="Gradient bez nazwy 45" x1="6860.587" y1="826.758" x2="6860.587" y2="17.861" gradientTransform="matrix(-1, 0, 0, 1, 7142.917, 0)" gradientUnits="userSpaceOnUse">
      <stop offset="0" stop-color="#422b13"/>
      <stop offset="1" stop-color="#57381b"/>
    </linearGradient>
    <linearGradient id="b" data-name="Gradient bez nazwy 17" x1="270.748" y1="751.132" x2="270.748" y2="526.655" gradientUnits="userSpaceOnUse">
      <stop offset="0" stop-color="#004837"/>
      <stop offset="1" stop-color="#005c37"/>
    </linearGradient>
    <linearGradient id="c" x1="271.347" y1="59.204" x2="271.347" y2="0" xlink:href="#b"/>
    <linearGradient id="d" x1="273.485" y1="317.381" x2="273.485" y2="187.873" xlink:href="#b"/>
    <linearGradient id="e" x1="282.329" y1="250.073" x2="282.329" y2="155.696" xlink:href="#b"/>
    <linearGradient id="f" x1="295.845" y1="560.604" x2="295.845" y2="333.354" gradientTransform="translate(-43.636 103.894) rotate(-2.411)" xlink:href="#b"/>
    <linearGradient id="g" x1="288.06" y1="148.998" x2="288.06" y2="73.1" xlink:href="#b"/>
    <linearGradient id="h" x1="287.878" y1="526.223" x2="287.878" y2="330.631" xlink:href="#b"/>
  </defs>
  <title>Pinetree_4</title>
  <g>
    <path d="M318.86,826.758H245.8s15.058-345.477,23.484-441.5,0-367.4,0-367.4S314.569,220.346,311.8,404.044,307.379,680.635,318.86,826.758Z" fill="url(#a)"/>
    <path d="M374.464,555.291c-39.3-33.665-92.587-28.327-92.587-28.327-.347,0-.693,0-1.038.011-.06,0-.121,0-.181,0,0,0-47.637-2.9-95.505,29.451C75.8,630.328-27.245,607.253,6.52,627.5,18.9,634.932,39.222,640.062,63,642.515c-11.228,4.806-18.175,9.367-14.07,12.322,4.665,3.358,14.995,4.85,26.154,5.4-64.06,28.53-64.244,39-22.52,37.786C126.655,695.87,173,678.956,173,678.956s-92.119,79.455-29.161,71.635c52.183-6.482,94.9-20.139,122.692-49.722,39.184,29.8,95.594,50.464,125.428,50.166,32.47-.324,2.368-17.385-25.04-50.017,8.406,2.881,16.989,4.174,25.134,2.693,5.142-.935,7.715-3.18,8.352-6.34,17.774,5.119,40.637,8.894,69.955,9.692,89.723,2.442,36.779-5.946-25.321-42.053,16.309,3.567,29.622,4.959,30.654.34,1.082-4.846-2.214-10.429-6.634-15.435,32.852-.853,60.09-5.272,68.706-10.915C560.216,624.3,478.206,644.167,374.464,555.291Z" fill="url(#b)"/>
    <path d="M290.314,11.851a75.4,75.4,0,0,0-10.261-9.117,14.459,14.459,0,0,0-19.669,2.591c-.909,1.115-1.873,2.373-2.881,3.789-14.8,20.79-28.067,19.717-22.585,23.319,2.965,1.949,7.467,2.562,12.137,1.694h0c-15.15,13.481-16.321,17.351-8.89,15.376a49.813,49.813,0,0,0,17.623-8.4s-12.107,21.515-2.85,17.626c7.673-3.224,13.776-7.806,17.31-15.6,6.5,5.646,15.375,8.6,19.834,7.551,6.647-1.565-4.937-6.577-9.593-19.85,0,0,3.749,9.982,20.4,7.042,15.344-2.711,2.726-2.609-8.912-11.966C301.48,28,306.863,25.4,308.6,23.03,311.214,19.46,301.834,23.892,290.314,11.851Z" fill="url(#c)"/>
    <path d="M168.478,281.9c47.2,2.857,79.518-26.032,79.518-26.032-16.764,31.1-51.389,45.081-32.646,47.106,9.845,1.064,28.11-4.044,45.237-13.152-3.28,15.1-7.911,27.541-2.037,27.555,10.078.023,18.217-13.117,23.461-24.8,9.077,9.893,22.3,15.985,38.269,20.144,11.306,2.945,10.212-6.458,6.2-16.96,5.654,2.6,11.041,3.929,13.915,1.617.881-.709.474-3.4-.569-6.922,7.089,2.753,16.091,5.009,27.96,6.724,32.667,4.719,22.191-1.383-14.575-33.833,13.408,2.848,26.41,3.6,35.58,2.289,26.79-3.833-25.359-14.077-62.735-57.747C309.7,188.78,289.217,188.4,289.217,188.4c-.045,0-.091,0-.136-.006-.127-.015-.25-.034-.378-.046,0,0-20.989-4.035-42.526,11.325-40.5,28.883-86.774,29.189-79.046,37.905,3.554,4.008,18.62,8.157,36.218,9.408C167.065,269.724,126.888,279.387,168.478,281.9Z" fill="url(#d)"/>
    <path d="M317.973,167.736c-13.5-14.154-31.819-11.91-31.819-11.91-.119,0-.238,0-.357,0l-.062,0s-16.371-1.219-32.821,12.382c-37.581,31.072-72.993,21.371-61.389,29.885,4.255,3.123,11.238,5.28,19.409,6.311-3.858,2.021-6.246,3.938-4.835,5.181,1.6,1.412,5.153,2.039,8.988,2.27-22.015,12-22.078,16.4-7.739,15.886,25.462-.905,41.39-8.016,41.39-8.016s-31.658,33.406-10.022,30.118c17.934-2.726,32.614-8.467,42.165-20.9,13.466,12.529,32.852,21.216,43.105,21.091,11.158-.136.813-7.309-8.606-21.028a14.33,14.33,0,0,0,8.638,1.132,3.246,3.246,0,0,0,2.87-2.666,80.2,80.2,0,0,0,24.041,4.075c30.834,1.027,12.639-2.5-8.7-17.68,5.605,1.5,10.18,2.085,10.535.143.371-2.038-.761-4.385-2.28-6.489,11.29-.359,20.651-2.217,23.612-4.59C381.808,196.747,353.625,205.1,317.973,167.736Z" fill="url(#e)"/>
    <path d="M88.813,597.112C171.773,598.637,226.3,545.6,226.3,545.6c-27.094,55.759-86.767,82.827-53.756,85,17.337,1.138,48.983-9.165,78.336-26.4-4.635,26.708-11.836,48.867-1.536,48.457,17.669-.7,30.968-24.341,39.3-45.2,16.643,16.673,40.283,26.377,68.579,32.491,20.038,4.329,17.427-12.076,9.625-30.192,10.1,4.139,19.646,6.073,24.515,1.808,1.491-1.307.579-6-1.508-12.093,12.631,4.3,28.578,7.594,49.514,9.724,57.618,5.864,38.8-4.063-28.049-58.239,23.717,4,46.566,4.364,62.547,1.387,46.684-8.7-45.5-22.807-114.247-96.609-30.094-32.306-66.031-31.454-66.031-31.454-.08,0-.16,0-.239,0-.224-.016-.442-.041-.667-.053,0,0-37.095-5.524-73.719,22.993C150.091,500.845,68.988,504.8,83.181,519.507c6.527,6.764,33.245,12.925,64.191,13.821C85.438,575.862,15.713,595.768,88.813,597.112Z" fill="url(#f)"/>
    <path d="M218.661,121.078c5.53.686,13.341.087,21.373-1.777-21.747,19.929-27.979,23.717-8.386,20.512,18.572-3.039,25.374-8.068,30.564-14.827s-17.181,27.951-1.815,23.64c12.736-3.574,22.509-9.158,27.255-19.377,12.267,8.349,28.194,13.292,35.742,12.334,11.25-1.429-9.731-9.449-20.163-27.964,0,0,19.762,17.011,48.116,14.763,24.985-1.982.713-7.342-21.364-20.607,10.57-.95,19.584-3.614,21.676-6.065,4.55-5.329-23.283-4.993-47.966-21.909-13.125-9-25.7-6.333-25.7-6.333-.08.01-.157.023-.236.034l-.072.005h0s-12.314.456-21.939,12.137C233.754,112.327,202.506,119.073,218.661,121.078Z" fill="url(#g)"/>
    <path d="M134.381,481.377a146.1,146.1,0,0,0,65.943-12.342c-7,9.973-10.975,18.254-6.846,20.347,4.394,2.228,13.015-.021,22.189-3.772-14.842,17.192-25.057,25.936-8.512,27.512,15.508,1.478,43.5-8.228,67.766-24.71,1.317,7.217,4.695,12.493,11.76,12.493a42.164,42.164,0,0,0,17.962-3.943c15.026,14.061,34.823,22.7,57.917,28.5,38.889,9.773-28.5-78.579-13.354-61.455s55.371,39.016,101.548,45.163c48.947,6.516,10.72-12.081-50.772-62.8,30.693,8.024,61.258,10.966,77.427,8.117,38.409-6.769-64-26.2-127.419-93.665C322.231,331.29,292.2,331.277,292.2,331.277h0c-.038,0-.076,0-.114-.006-.216-.022-.432-.044-.65-.062,0,0-31.5-5.739-59.918,18.965-53.437,46.459-153.446,50.679-140.4,64.138,3.526,3.635,14.235,8,57.656,7.447-11.192,6.226-19.335,12.3-16.948,15.882,2.639,3.957,14.809,3.124,28.255.762C117.539,466.159,80.7,478.944,134.381,481.377Z" fill="url(#h)"/>
  </g>
</svg>
