<svg xmlns="http://www.w3.org/2000/svg" xmlns:xlink="http://www.w3.org/1999/xlink" width="479.669" height="836.371" viewBox="0 0 479.669 836.371">
  <defs>
    <linearGradient id="a" data-name="Gradient bez nazwy 45" x1="236.978" y1="836.371" x2="236.978" y2="27.474" gradientUnits="userSpaceOnUse">
      <stop offset="0" stop-color="#422b13"/>
      <stop offset="1" stop-color="#57381b"/>
    </linearGradient>
    <linearGradient id="b" data-name="Gradient bez nazwy 17" x1="239.835" y1="739.01" x2="239.835" y2="458.236" gradientUnits="userSpaceOnUse">
      <stop offset="0" stop-color="#004837"/>
      <stop offset="1" stop-color="#005c37"/>
    </linearGradient>
    <linearGradient id="c" x1="289.339" y1="273.239" x2="289.339" y2="36.601" gradientTransform="translate(-78.893 360.321) rotate(-6.103)" xlink:href="#b"/>
    <linearGradient id="d" x1="239.835" y1="469.925" x2="239.835" y2="273.037" xlink:href="#b"/>
    <linearGradient id="e" x1="231.281" y1="282.288" x2="231.281" y2="136.794" xlink:href="#b"/>
    <linearGradient id="f" x1="228.878" y1="222.886" x2="228.878" y2="97.484" xlink:href="#b"/>
    <linearGradient id="g" x1="246.456" y1="88.267" x2="246.456" y2="0" xlink:href="#b"/>
  </defs>
  <title>Pinetree_1</title>
  <g>
    <path d="M200.447,836.371h73.062s-15.058-345.477-23.484-441.5,0-367.4,0-367.4-45.287,202.485-42.512,386.183S211.929,690.248,200.447,836.371Z" fill="url(#a)"/>
    <path d="M311.184,487.884c-36.622-35.014-78.641-29.3-78.641-29.3-.046,0-.092,0-.139,0-.264-.006-.528-.012-.794-.012,0,0-38.8-4.06-70.835,30.659-60.238,65.29-176.234,74.518-159.059,90.432,7.9,7.318,70.367,12.9,102.05,12.058C48.547,643.946.781,657.237,75.481,654.361c22.448-.865,40.785-5.017,55.617-10.653-2,8.627-.567,14.579,7.171,14.579,6.649,0,14.018-2.767,21.394-6.989-28.49,36.552-63.751,59.082-39.483,59.424,18.308.259,61.634-2.59,98-34.557,4.74,30.651,13.045,64.468,26.51,62.785,13.577-1.7,17.921-37.6,19.1-69.116,19.679,16.644,44.673,25.726,73.423,30.778,48.167,8.464-42.389-97.936-22.31-77.533s42.956,36.59,99.607,39.632c60.05,3.224,39.93-8.94-39.736-67.627,38.047,7.08,75.433,7.646,94.773,2.287C515.493,584.641,394.848,567.875,311.184,487.884Z" fill="url(#b)"/>
    <path d="M61.937,560.523a155.846,155.846,0,0,0,55.613-12.585c-.4,4.337,1.763,6.771,7.555,6.357,11.9-.851,26.285-7.415,40.04-15.668-22.254,34.773-46.225,52.921-23.263,53.342,17.02.313,47.832-13.921,74.758-35.944,1.741,15.812,5.81,28.852,14.564,28.089,8.179-.713,15.254-8.885,20.894-18.783,16.111,14.218,37,22.214,61.238,26.809,42.816,8.116-30.427-92.222-13.931-72.972s36.647,32.56,87.559,35.606c53.715,3.213,35.569-6.429-30.331-60.965,22.23,3.029,43.383,2.195,57.933-1.851,42.507-11.819-43.788-22.032-112.924-97.516-30.263-33.042-63.425-30.21-63.425-30.21-.074,0-.148.006-.221.011-.208,0-.412-.02-.621-.021,0,0-34.714-3.945-66.423,28.594-59.628,61.191-134.315,69.756-120.081,84.776,4.539,4.791,18.042,8.749,35.457,10.5-15.4,9.168-27,17.942-23,21.784,2.924,2.811,11.517,2.433,22.222.489C40.589,545.141,4.937,562.6,61.937,560.523Z" fill="url(#c)"/>
    <path d="M99.264,435.627a122.719,122.719,0,0,0,64.648-21.8c-1.221,5.847-1.1,10.3,1.791,11.024,3.369.842,9.261-1.907,15.458-5.8-15.535,27.586-32.727,42.01-14.311,42.283,11.489.171,29.949-7.834,47.554-20.864,2,15.5,7.432,29.366,20.438,29.458,9.774.069,13.009-18.873,13.884-36.8,15.105,15.457,35.07,23.529,58.382,27.831,17.375,3.207,10.32-14.829.274-32.289h0c5.394-1.264,7.044-5.574,6.79-10.864A174.9,174.9,0,0,0,385,437.527c44.369,2.5,8.726-12.915-50.136-58.453,28.112,5.494,43.582.3,51.168-5.317,15.494-11.481-40.457-13.8-102.273-75.868-27.059-27.169-53.987-24.734-53.988-24.734l-.69,0s-28.67-3.151-52.337,23.789c-44.508,50.663-105,57.953-92.313,70.3,3.868,3.764,14.378,6.878,27.841,8.36-18.972,12.364-27.827,14.918-7.572,17.05a74.193,74.193,0,0,0,12.013.145C81.63,422.538,52.049,437.537,99.264,435.627Z" fill="url(#d)"/>
    <path d="M268.253,152.157c-18.977-18.144-40.751-15.184-40.751-15.184l-.071,0c-.137,0-.274-.006-.412-.006,0,0-20.108-2.1-36.706,15.887C159.1,186.689,98.99,191.471,107.89,199.717c4.092,3.792,36.463,6.686,52.881,6.249-28.614,27.061-53.366,33.948-14.657,32.457a90.427,90.427,0,0,0,28.821-5.52c-1.034,4.471-.294,7.555,3.716,7.555,3.445,0,7.264-1.434,11.086-3.622-14.763,18.941-33.036,30.616-20.46,30.794,9.487.134,31.938-1.343,50.783-17.908,2.456,15.883,6.759,33.407,13.737,32.535,7.035-.88,9.286-19.483,9.9-35.815,10.2,8.625,23.149,13.33,38.048,15.948,24.959,4.387-21.966-50.749-11.561-40.176s22.259,18.96,51.615,20.536c31.118,1.671,20.691-4.632-20.591-35.043,19.716,3.669,39.089,3.962,49.111,1.185C374.124,202.3,311.607,193.607,268.253,152.157Z" fill="url(#e)"/>
    <path d="M138.476,191.515a82.612,82.612,0,0,0,30.013-3.5c-.457,2.262.547,3.667,3.623,3.775,6.32.222,14.268-2.426,21.981-6-13.685,17.069-27.339,25.281-15.264,26.8,8.951,1.124,25.989-4.641,41.418-14.728.027,8.429,1.436,15.53,6.092,15.621,4.349.085,8.538-3.822,12.067-8.72,7.689,8.4,18.246,13.79,30.758,17.576,22.1,6.69-10.837-50.308-3.229-39.236s17.475,19.222,44.131,23.695c28.123,4.72,19.1-1.383-12.548-33.833,11.544,2.849,22.736,3.6,30.632,2.289,23.063-3.833-21.832-14.076-54.009-57.746-14.086-19.116-31.719-19.492-31.719-19.492l-.117-.007c-.11-.014-.216-.033-.326-.045,0,0-18.07-4.035-36.611,11.324-34.868,28.884-74.7,29.189-68.051,37.906,2.122,2.78,9.014,5.626,18.092,7.528-8.632,3.963-15.238,7.933-13.348,10.183,1.382,1.645,5.932,1.93,11.682,1.509C128.094,182.207,108.324,189.4,138.476,191.515Z" fill="url(#f)"/>
    <path d="M290.77,57.337c10.436,1.924,19.835,1.78,22.509-.018,5.815-3.91-21.085-11.065-40.314-33.992a136.921,136.921,0,0,1-13.017-18.1,10.567,10.567,0,0,0-16.027-2.655,148.3,148.3,0,0,1-16,11.778c-.9.517-1.8,1.083-2.714,1.717-28.349,19.794-60.261,17.9-45.239,24.167,5.143,2.147,12.827,3.67,21.064,4.032-26.3,13.353-33.323,15.327-13.589,17.5,18.7,2.064,26.608-.953,33.424-6.068s-24.061,22.306-8.1,22.282c13.228-.019,24.143-2.772,31.46-11.339,9.572,11.338,23.585,20.379,31.113,21.484,11.22,1.647-6.835-11.716-11.907-32.353,0,0,14.463,21.7,42.38,27.149C330.41,87.732,308.47,76.046,290.77,57.337Z" fill="url(#g)"/>
  </g>
</svg>
