<svg xmlns="http://www.w3.org/2000/svg" xmlns:xlink="http://www.w3.org/1999/xlink" width="415.334" height="797.156" viewBox="0 0 415.334 797.156">
  <defs>
    <linearGradient id="a" data-name="Gradient bez nazwy 56" x1="227.646" y1="797.156" x2="227.646" y2="36.687" gradientUnits="userSpaceOnUse">
      <stop offset="0" stop-color="#52290e"/>
      <stop offset="1" stop-color="#603813"/>
    </linearGradient>
    <linearGradient id="b" data-name="Gradient bez nazwy 12" x1="207.667" y1="697.561" x2="207.667" y2="420.33" gradientUnits="userSpaceOnUse">
      <stop offset="0" stop-color="#003937"/>
      <stop offset="1" stop-color="#004d37"/>
    </linearGradient>
    <linearGradient id="c" x1="230.341" y1="366.109" x2="230.341" y2="133.353" xlink:href="#b"/>
    <linearGradient id="d" x1="207.667" y1="280.406" x2="207.667" y2="70.48" xlink:href="#b"/>
    <linearGradient id="e" x1="217.132" y1="165.337" x2="217.132" y2="0" xlink:href="#b"/>
    <linearGradient id="f" x1="222.979" y1="596.941" x2="222.979" y2="395.615" xlink:href="#b"/>
  </defs>
  <title>Pinetree_5</title>
  <g>
    <path d="M191.116,797.156h73.061s-15.058-345.477-23.484-441.5S227.646,36.687,227.646,36.687s-32.239,154.057-29.465,337.755S202.6,651.033,191.116,797.156Z" fill="url(#a)"/>
    <path d="M366.7,599.655c19.7.161,43-1.223,39.075-8.967-2.834-5.587-16.957-13.157-32.215-20,14.457-2.369,25.568-6.619,29.9-11.662C419.083,540.845,344.6,530.112,289.8,455.522c-29.14-39.664-64.441-35.025-64.441-35.025-.242,0-.482.006-.722.012l-.126,0s-33.157-3.585-66.472,36.416C81.928,548.3-32.9,564.518,8.9,579.062c11.362,3.954,29.575,5.08,50.371,3.206-11.161,9.758-19,19.462-12.79,23.884,2.654,1.89,6.914,2.712,12.106,2.8-48.718,41.978-69.818,56.57-25.2,53.561,28.463-1.919,55.352-11.1,76.805-22.869-.737,6.028,1.027,9.959,6.745,10.151a34.068,34.068,0,0,0,13.185-2.733c-12.968,26.423-22.9,54.818-.835,49.949,36.319-8.015,66.051-24.9,85.394-61.48,27.271,36.847,66.533,62.4,87.3,62.03,25.169-.447-3.682-26.562-23.8-76.357,10.732,6.572,21.371,10.6,28.826,7.558h0c19.437,15.512,45.651,29.381,78.186,30.954C441.981,662.459,408.538,641.451,366.7,599.655Z" fill="url(#b)"/>
    <path d="M93.4,334.333A93.49,93.49,0,0,0,137.269,320.4c-1.622,6.159-1.226,10.085,2.421,10.085,6.716,0,17.8-4.739,28.724-10.46-13.889,30.065-27.222,45.759-10.822,46.076,16.017.309,46.3-21.143,67.34-52.079,14.92,30.712,37.855,44.889,65.87,51.618,16.647,4,9.682-18.726.008-40.484,3.6,1.02,6.848,1.1,9.528-.094,3.116-1.391,4.69-4.086,5.156-7.609,16.554,9.888,37.312,17.611,59.284,19.223,35.02,2.571,17.555-10.159-21.434-46.843,6.118-.95,10.477-2.912,11.22-6.458.785-3.744-3.15-8.726-9.363-14.03,15.879,1.519,29.773.563,38.466-2.729,32.239-12.211-56.333-25.824-115.044-102.548-25.7-33.584-51.274-30.574-51.274-30.574h0c-.033,0-.066,0-.1,0-.185-.006-.371-.011-.557-.011,0,0-27.23-3.895-49.708,29.406-42.272,62.624-99.727,71.636-87.674,86.9,5.542,7.019,25.435,12.215,47.668,11.405C88.231,311.293,40.982,337.092,93.4,334.333Z" fill="url(#c)"/>
    <path d="M318.307,206.27c13.7.122,29.918-.926,27.185-6.79-1.971-4.231-11.8-9.963-22.413-15.145,10.058-1.793,17.788-5.011,20.8-8.83,10.871-13.768-40.949-21.895-79.074-78.377-20.273-30.035-44.832-26.522-44.832-26.522-.169,0-.336,0-.5.01-.029,0-.058,0-.088,0,0,0-23.067-2.715-46.245,27.575-52.952,69.2-132.837,81.476-103.76,92.489,7.905,2.994,20.576,3.846,35.045,2.428-7.766,7.388-13.219,14.737-8.9,18.085,1.847,1.432,4.81,2.054,8.423,2.117-33.894,31.787-48.574,42.837-17.532,40.559,19.8-1.454,38.509-8.409,53.434-17.318-.512,4.565.715,7.541,4.693,7.686a22.049,22.049,0,0,0,9.173-2.069c-9.022,20.009-15.93,41.51-.581,37.823,25.268-6.069,45.952-18.855,59.41-46.554,18.973,27.9,46.288,47.249,60.735,46.97,17.51-.338-2.562-20.113-16.557-57.819,7.467,4.976,14.868,8.026,20.055,5.723h0c13.523,11.746,31.76,22.248,54.395,23.44C370.684,253.826,347.416,237.918,318.307,206.27Z" fill="url(#d)"/>
    <path d="M261.289,31.1a89.061,89.061,0,0,0-7.242-15.53A31.108,31.108,0,0,0,204.933,9.29a109.4,109.4,0,0,0-9.8,11.334C165.453,60.6,123.27,57.808,129.671,68.912c2.046,3.549,8.7,7.184,17.466,9.607-17.126,8.386-44.081,11.091-24.63,17.148,5.2,1.618,12.443,1.289,20.177-.023-23.262,18.559-39.8,27.132-11.9,29.73,16.328,1.52,30.5-4.018,41.479-10.981a6.552,6.552,0,0,0,5.641,3.552,26.585,26.585,0,0,0,6.635-.284c-13.249,22.03-26.628,32.615-14.937,34.559,7.584,1.26,21.2-4.288,34.487-14.408,1.986,11.494,5.967,25.285,13.658,25.548,6.886.235,8.142-11.723,7.766-23.239,7.49,11.929,18.172,19.383,30.988,24.518,10.69,4.284,8-11.938,3.6-27.338a9.882,9.882,0,0,0,6.555,1.431,5.4,5.4,0,0,0,4.234-3.587c6.13,4.024,14.088,7.282,24.953,9.7,23.821,5.294,19.937-.107-2.116-29.692a7.393,7.393,0,0,0,2.3-1.724c2.24-2.49,2.438-5.477,1.552-8.5a46.471,46.471,0,0,0,15.658-.27C335.43,99.775,281.8,91.362,261.289,31.1Z" fill="url(#e)"/>
    <path d="M295.767,421.3C268.19,391.1,230.79,395.892,230.79,395.892c-.244,0-.486,0-.729.01l-.127,0s-33.431-2.6-67.025,26.414C86.165,488.6,13.85,467.9,37.546,486.063c8.691,6.662,22.95,11.263,39.637,13.463-7.88,4.31-12.755,8.4-9.874,11.051,3.273,3.012,10.523,4.35,18.354,4.842-44.957,25.588-45.086,34.977-15.8,33.89,52-1.931,84.523-17.1,84.523-17.1s-64.648,71.262-20.465,64.248c36.622-5.814,66.6-18.062,86.1-44.594,27.5,26.726,67.088,45.259,88.025,44.992,22.787-.291,1.662-15.592-17.573-44.858,5.9,2.583,11.923,3.743,17.639,2.415,3.609-.839,5.414-2.853,5.861-5.687,12.474,4.592,28.519,7.977,49.095,8.693,62.967,2.19,25.811-5.333-17.771-37.716,11.446,3.2,20.789,4.448,21.513.3.759-4.347-1.553-9.354-4.655-13.843,23.055-.765,42.171-4.729,48.217-9.79C426.127,483.186,368.573,501.007,295.767,421.3Z" fill="url(#f)"/>
  </g>
</svg>
