<svg xmlns="http://www.w3.org/2000/svg" xmlns:xlink="http://www.w3.org/1999/xlink" width="381.596" height="829.487" viewBox="0 0 381.596 829.487">
  <defs>
    <linearGradient id="a" data-name="Gradient bez nazwy 56" x1="210.778" y1="829.487" x2="210.778" y2="20.59" gradientUnits="userSpaceOnUse">
      <stop offset="0" stop-color="#52290e"/>
      <stop offset="1" stop-color="#603813"/>
    </linearGradient>
    <linearGradient id="b" data-name="Gradient bez nazwy 12" x1="190.798" y1="728.238" x2="190.798" y2="451.007" gradientUnits="userSpaceOnUse">
      <stop offset="0" stop-color="#003937"/>
      <stop offset="1" stop-color="#004d37"/>
    </linearGradient>
    <linearGradient id="c" x1="-7585.117" y1="617.921" x2="-7585.117" y2="404.223" gradientTransform="matrix(-1, 0, 0, 1, -7384.112, 0)" xlink:href="#b"/>
    <linearGradient id="d" x1="251.995" y1="167.627" x2="251.995" y2="-37.804" gradientTransform="translate(-34.361 209.714) rotate(3.305)" xlink:href="#b"/>
    <linearGradient id="e" x1="213.473" y1="165.337" x2="213.473" y2="0" xlink:href="#b"/>
  </defs>
  <title>Pinetree_19</title>
  <g>
    <path d="M174.247,829.487h73.061s-15.058-345.477-23.484-441.5,0-367.4,0-367.4-45.286,202.485-42.512,386.183S185.728,683.364,174.247,829.487Z" fill="url(#a)"/>
    <path d="M336.91,630.332c18.1.162,39.51-1.222,35.9-8.967-2.6-5.587-15.579-13.156-29.6-20C356.5,599,366.7,594.747,370.685,589.7c14.356-18.181-54.077-28.915-104.426-103.5-26.773-39.664-59.206-35.025-59.206-35.025-.222,0-.443.006-.664.013-.038,0-.077,0-.115,0,0,0-30.463-3.586-61.073,36.416C75.273,578.982-30.224,595.2,8.176,609.739c10.439,3.954,27.173,5.08,46.28,3.206C44.2,622.7,37,632.408,42.7,636.83c2.439,1.89,6.353,2.712,11.123,2.795C9.067,681.6-10.32,696.2,30.674,693.187c26.151-1.919,50.856-11.105,70.566-22.87-.677,6.028.944,9.959,6.2,10.151a29.12,29.12,0,0,0,12.113-2.733c-11.914,26.423-21.037,54.818-.767,49.95,33.369-8.015,60.685-24.9,78.457-61.481,25.057,36.847,61.129,62.4,80.207,62.03,23.125-.447-3.383-26.561-21.865-76.357,9.861,6.572,19.635,10.6,26.485,7.559h0c17.858,15.511,41.943,29.38,71.835,30.954C406.079,693.136,375.352,672.128,336.91,630.332Z" fill="url(#b)"/>
    <path d="M69.458,542.452c-16.292.125-35.571-.942-32.322-6.912,2.344-4.306,14.026-10.141,26.648-15.416-11.959-1.826-21.149-5.1-24.734-8.989-12.925-14.015,48.687-22.288,94.016-79.785,24.1-30.574,53.305-27,53.305-27,.2,0,.4.005.6.01l.1,0s27.427-2.764,54.985,28.07c62.958,70.442,157.938,82.94,123.366,94.15-9.4,3.048-24.464,3.916-41.666,2.472,9.232,7.521,15.717,15,10.58,18.411-2.2,1.457-5.719,2.09-10.015,2.155,40.3,32.358,57.753,43.606,20.845,41.286a164.869,164.869,0,0,1-63.531-17.628c.609,4.646-.849,7.677-5.58,7.824a29.957,29.957,0,0,1-10.906-2.106c10.727,20.368,18.94,42.255.691,38.5-30.043-6.178-54.636-19.194-70.636-47.39-22.559,28.4-55.036,48.1-72.212,47.814-20.82-.344,3.045-20.474,19.685-58.858-8.877,5.065-17.677,8.17-23.845,5.826h0c-16.077,11.957-37.761,22.648-64.674,23.86C7.184,590.863,34.848,574.67,69.458,542.452Z" fill="url(#c)"/>
    <path d="M88.506,356.623a82.514,82.514,0,0,0,39.361-10.04c-1.742,5.344-1.593,8.824,1.62,9.009,5.918.342,15.921-3.27,25.842-7.754-13.768,25.784-26.314,38.935-11.88,40.048,14.1,1.088,41.874-16.274,61.985-42.462,11.585,27.82,31.071,41.479,55.415,48.834,14.464,4.37,9.483-16.008,2.066-35.671,3.121,1.082,5.978,1.319,8.4.4,2.817-1.068,4.341-3.362,4.931-6.443,14.083,9.556,31.98,17.417,51.259,19.956,30.727,4.046,15.984-8.059-16.5-42.366,5.439-.526,9.38-2.033,10.215-5.12.882-3.259-2.331-7.849-7.536-12.839,13.914,2.147,26.205,2.012,34.032-.447,29.029-9.119-48.323-25.62-96.15-96.212-20.936-30.9-43.624-29.549-43.624-29.549h-.087c-.162-.014-.326-.028-.49-.038,0,0-23.795-4.817-45.3,23.382-40.433,53.029-91.517,58.046-81.674,72.109,4.526,6.467,21.79,12.057,41.422,12.475C85.122,336.059,42.177,356.387,88.506,356.623Z" fill="url(#d)"/>
    <path d="M257.63,31.1a89.061,89.061,0,0,0-7.242-15.53A31.108,31.108,0,0,0,201.274,9.29a109.28,109.28,0,0,0-9.8,11.334c-29.68,39.975-71.863,37.184-65.462,48.288,2.046,3.549,8.7,7.184,17.466,9.607C126.352,86.905,99.4,89.61,118.848,95.667c5.2,1.618,12.443,1.289,20.177-.023-23.262,18.559-39.8,27.132-11.9,29.73,16.328,1.52,30.5-4.018,41.479-10.981a6.55,6.55,0,0,0,5.641,3.552,26.585,26.585,0,0,0,6.635-.284c-13.249,22.03-26.628,32.615-14.937,34.559,7.584,1.26,21.205-4.288,34.487-14.408,1.985,11.494,5.967,25.285,13.658,25.548,6.886.235,8.142-11.723,7.766-23.239,7.489,11.929,18.172,19.383,30.987,24.518,10.691,4.284,8-11.938,3.6-27.338A9.88,9.88,0,0,0,263,138.732a5.4,5.4,0,0,0,4.235-3.587c6.13,4.024,14.088,7.282,24.953,9.7,23.821,5.294,19.937-.107-2.116-29.692a7.378,7.378,0,0,0,2.3-1.724c2.241-2.49,2.439-5.477,1.553-8.5a46.471,46.471,0,0,0,15.658-.27C331.771,99.775,278.144,91.362,257.63,31.1Z" fill="url(#e)"/>
  </g>
</svg>
