<svg xmlns="http://www.w3.org/2000/svg" xmlns:xlink="http://www.w3.org/1999/xlink" width="363.928" height="833.532" viewBox="0 0 363.928 833.532">
  <defs>
    <linearGradient id="a" data-name="Gradient bez nazwy 56" x1="11338.088" y1="833.532" x2="11338.088" y2="24.635" gradientTransform="matrix(-1, 0, 0, 1, 11523.128, 0)" gradientUnits="userSpaceOnUse">
      <stop offset="0" stop-color="#52290e"/>
      <stop offset="1" stop-color="#603813"/>
    </linearGradient>
    <linearGradient id="b" data-name="Gradient bez nazwy 12" x1="181.964" y1="665.711" x2="181.964" y2="356.93" gradientUnits="userSpaceOnUse">
      <stop offset="0" stop-color="#003937"/>
      <stop offset="1" stop-color="#004d37"/>
    </linearGradient>
    <linearGradient id="c" x1="199.044" y1="532.654" x2="199.044" y2="293.077" xlink:href="#b"/>
    <linearGradient id="d" x1="200.897" y1="349.083" x2="200.897" y2="159.749" xlink:href="#b"/>
    <linearGradient id="e" x1="182.164" y1="159.749" x2="182.164" y2="0" xlink:href="#b"/>
  </defs>
  <title>Pinetree_8</title>
  <g>
    <path d="M221.571,833.532H148.509s15.058-345.477,23.484-441.5,0-367.4,0-367.4,45.287,202.486,42.512,386.183S210.09,687.409,221.571,833.532Z" fill="url(#a)"/>
    <path d="M253.568,396.32c-25.964-46.308-61.174-38.964-61.174-38.964-.23,0-.458.006-.686.014l-.12-.006s-31.476-3.987-63.1,40.512C56.233,499.538-11.849,467.8,10.46,495.654,17.033,503.862,27,510.024,38.8,513.883a129.19,129.19,0,0,1-21.091,3.964c-35.078,3.568-10.619,14.913,9.716,21.239,6.048,1.882,15.594,3.164,26.588,3.222C13.444,580.319,13.7,594.3,40.881,592.655c48.954-2.961,79.577-26.227,79.577-26.227s-60.865,109.3-19.268,98.538c26.452-6.841,49.221-19.491,66.681-43.384,3.79,19.668,9.344,36.917,17.169,36.917,8.751,0,14.2-17.033,17.5-34.724,22.541,25.805,47.622,42.113,62.586,41.8,17.347-.361,7.662-15.775-6.254-45.393,23.87,11,46.68,11.393,23.194-9.021a66.869,66.869,0,0,1-16.642-22.855c12.391,8.758,29.088,15.513,51.5,16.783,67.477,3.824,12.828-11.651-33.86-80.69,34.5,6.376,69.96-1.431,78.4-12.935C376.3,491.24,322.112,518.574,253.568,396.32Z" fill="url(#b)"/>
    <path d="M58.091,499.947c19.894-1.047,36.809-8.4,50.584-17.845.727,3.76,3.384,5.792,8.852,5.054a70,70,0,0,0,19.5-5.742c-14.869,33.428-30.425,50.9-12.866,51.237,16.487.318,47.66-21.763,69.314-53.6,15.357,31.611,38.964,46.2,67.8,53.13,17.333,4.164,9.8-19.82-.34-42.448,5.8,2.573,11.188,3.722,15.2,2.173,2.771-1.069,3.609-3.834,3.114-7.662,16.542,9.373,36.8,16.557,58.165,18.125,43.374,3.183,8.53-16.432-49.013-74.372,27.482,6.99,54.486,7.549,68.455,2.258,33.184-12.569-57.984-26.58-118.414-105.552C212,290.13,185.673,293.227,185.67,293.228l-.1,0c-.191-.006-.381-.011-.574-.011,0,0-28.028-4.009-51.165,30.268-43.51,64.459-102.648,73.735-90.243,89.447,5.7,7.225,26.181,12.573,49.066,11.739C52.769,476.232,4.135,502.786,58.091,499.947Z" fill="url(#c)"/>
    <path d="M89.505,323.235a73.914,73.914,0,0,0,26.982-6.713c-6.13,6.879-8.741,11.8.64,11.305,10.255-.546,23.091-8.572,33.625-16.727-11.379,24.781-22.463,37.721-9.032,37.98,13.029.252,37.664-17.2,54.777-42.363,12.137,24.982,30.792,36.515,53.582,41.988,27.5,6.605-24.2-76.411-12.735-60.492s40.572,34.559,72.909,36.932c26.794,1.967,15.82-7.075-11.966-32.984,9.373-1.169,11.145-8.056,1.4-12.687-4.341-2.064-8.188-5.742-11.423-9.812,15.405,2.145,29.192,1.583,37.351-1.507,26.224-9.933-45.824-21.006-93.582-83.417-20.9-27.318-41.708-24.87-41.709-24.87l-.079,0c-.151-.005-.3-.009-.453-.009,0,0-22.15-3.168-40.435,23.92-34.385,50.942-81.121,58.272-71.318,70.689,3.016,3.819,11.259,6.972,21.8,8.446a71.422,71.422,0,0,1-15.7,7.293c-11.089,3.56-12.879,10.167,5.649,9.941A67.961,67.961,0,0,0,105,277.928C77.045,309.32,52.128,325.2,89.505,323.235Z" fill="url(#d)"/>
    <path d="M257.256,77.705C262,66.6,223.582,51.831,198.725,15.036,185.506-4.53,172.624.61,172.624.61c-.079.015-.155.04-.232.058l-.084.008s-12.571.48-22.613,24.831l-.034.083A54.356,54.356,0,0,1,140.3,40.63a86.522,86.522,0,0,1-8.712,8.831c-11.491,9.738-19.621,18.8-7.467,21.121-14.112,18.88-23.463,25.36-12.929,28.488a24.849,24.849,0,0,0,10.563.436c-2.884,4.734-5.332,9.7-5.757,13.446-.382,3.353,2.452,3.646,6.373,2.563-13.368,24.346-14.685,28.656,1.713,23.739,9.064-2.719,15.4-6.5,20.145-11.25-.413,4.576-.026,8.037,1.819,8.9a3.916,3.916,0,0,0,3.571-.442c-2.607,13.768-3.485,26.436,3.624,22.591,10.232-5.532,18.631-13.752,24.212-27.364,1.28,6.745,3.264,12.218,6.326,11.768,3.46-.509,5.27-6.747,6.214-13.451,10.478,11.524,21.629,17.978,27.649,16.628,8.524-1.912-.933-12.188-10.59-33.494a8.006,8.006,0,0,0,5.874.04,11.063,11.063,0,0,0,4.325-3.061c7.9,6.329,17.829,11.092,29.16,9.669,21.6-2.714,7.261-11.95-11.157-32.278,4.846-.115,8.69-1.325,8.853-4.833a8.412,8.412,0,0,0-2.054-5.371C249.484,78.976,256.038,80.558,257.256,77.705Z" fill="url(#e)"/>
  </g>
</svg>
