<svg xmlns="http://www.w3.org/2000/svg" xmlns:xlink="http://www.w3.org/1999/xlink" width="485.65" height="826.758" viewBox="0 0 485.65 826.758">
  <defs>
    <linearGradient id="a" data-name="Gradient bez nazwy 56" x1="12236.769" y1="826.758" x2="12236.769" y2="17.861" gradientTransform="matrix(-1, 0, 0, 1, 12491.176, 0)" gradientUnits="userSpaceOnUse">
      <stop offset="0" stop-color="#52290e"/>
      <stop offset="1" stop-color="#603813"/>
    </linearGradient>
    <linearGradient id="b" data-name="Gradient bez nazwy 12" x1="242.825" y1="739.557" x2="242.825" y2="538.23" gradientUnits="userSpaceOnUse">
      <stop offset="0" stop-color="#003937"/>
      <stop offset="1" stop-color="#004d37"/>
    </linearGradient>
    <linearGradient id="c" x1="163.599" y1="657.744" x2="163.599" y2="456.418" gradientTransform="matrix(-0.9, -0.028, -0.031, 1, 407.524, 6.092)" xlink:href="#b"/>
    <linearGradient id="d" x1="259.956" y1="526.223" x2="259.956" y2="330.631" xlink:href="#b"/>
    <linearGradient id="e" x1="283.118" y1="310.482" x2="283.118" y2="180.974" gradientTransform="translate(-56.619 26.039) rotate(-6.485)" xlink:href="#b"/>
    <linearGradient id="f" x1="259.365" y1="233.355" x2="259.365" y2="127.58" xlink:href="#b"/>
    <linearGradient id="g" x1="243.424" y1="59.204" x2="243.424" y2="0" xlink:href="#b"/>
    <linearGradient id="h" x1="260.138" y1="158.317" x2="260.138" y2="82.42" xlink:href="#b"/>
  </defs>
  <title>Pinetree_9</title>
  <g>
    <path d="M290.938,826.758H217.876s15.058-345.477,23.484-441.5,0-367.4,0-367.4,45.287,202.485,42.512,386.183S279.456,680.635,290.938,826.758Z" fill="url(#a)"/>
    <path d="M335.845,563.913c-35.243-30.193-83.038-25.4-83.038-25.4-.312,0-.622,0-.931.009l-.163,0s-42.724-2.6-85.655,26.414C67.981,631.211-24.435,610.516,5.847,628.679c11.107,6.661,29.33,11.262,50.655,13.462-10.07,4.311-16.3,8.4-12.619,11.052,4.183,3.012,13.448,4.35,23.456,4.842-57.453,25.588-57.618,34.976-20.2,33.889,66.45-1.93,108.018-17.1,108.018-17.1s-82.618,71.261-26.154,64.247c46.8-5.813,85.114-18.061,110.039-44.594,35.143,26.727,85.735,45.26,112.492,44.993,29.121-.291,2.124-15.592-22.457-44.859,7.539,2.584,15.236,3.744,22.542,2.415,4.612-.838,6.919-2.852,7.49-5.686,15.941,4.591,36.446,7.977,62.741,8.693,80.47,2.19,32.985-5.333-22.71-37.717,14.628,3.2,26.568,4.448,27.492.3.971-4.346-1.985-9.353-5.949-13.842,29.464-.766,53.893-4.729,61.62-9.79C502.44,625.8,428.888,643.623,335.845,563.913Z" fill="url(#b)"/>
    <path d="M161.479,480.7C194.139,451.518,237,457.655,237,457.655c.281.009.56.022.838.035h.146s38.525-1.392,76.244,28.822c86.169,69.024,169.976,50.952,142.157,68.249-10.2,6.345-26.745,10.428-46,12.024,8.926,4.593,14.4,8.858,11.007,11.4-3.858,2.892-12.237,3.968-21.258,4.177,50.893,27.2,50.747,36.588,17.11,34.443-59.732-3.808-96.659-20.145-96.659-20.145s72.1,73.562,21.516,64.955c-41.929-7.134-76.018-20.458-97.613-47.682-32.461,25.719-78.566,42.813-102.634,41.79-26.194-1.114-1.422-15.645,21.616-44.2-6.865,2.369-13.828,3.311-20.359,1.777-4.124-.968-6.137-3.047-6.562-5.895-14.488,4.138-33.045,6.942-56.727,6.914-72.476-.085-29.513-6.262,21.619-37.055-13.263,2.784-24.046,3.694-24.748-.473-.737-4.371,2.08-9.292,5.788-13.667-26.488-1.6-48.345-6.25-55.139-11.527C9.632,537.849,75.256,557.741,161.479,480.7Z" fill="url(#c)"/>
    <path d="M106.459,481.377A146.1,146.1,0,0,0,172.4,469.035c-7,9.973-10.975,18.254-6.846,20.347,4.394,2.228,13.015-.021,22.189-3.772-14.841,17.192-25.056,25.936-8.512,27.512,15.508,1.478,43.5-8.228,67.766-24.71,1.318,7.217,4.7,12.493,11.76,12.493a42.16,42.16,0,0,0,17.962-3.943c15.026,14.061,34.823,22.7,57.917,28.5,38.889,9.773-28.5-78.579-13.354-61.455s55.372,39.016,101.548,45.163c48.947,6.516,10.72-12.081-50.772-62.8,30.694,8.024,61.258,10.966,77.427,8.117,38.409-6.769-64-26.2-127.418-93.665-27.76-29.532-57.789-29.545-57.789-29.545h0c-.038,0-.076,0-.114-.006-.215-.022-.431-.044-.649-.062,0,0-31.5-5.739-59.919,18.965C150.16,396.633,50.151,400.853,63.2,414.312c3.525,3.635,14.234,8,57.655,7.447-11.192,6.226-19.335,12.3-16.947,15.882,2.638,3.957,14.808,3.124,28.255.762C89.617,466.159,52.781,478.944,106.459,481.377Z" fill="url(#d)"/>
    <path d="M151.414,279.167c47.22-2.492,76.069-34.847,76.069-34.847-13.144,32.793-45.969,50.6-27.116,50.492,9.9-.055,27.473-7.193,43.461-18.177-1.553,15.37-4.749,28.258,1.089,27.608,10.016-1.115,16.618-15.091,20.51-27.288,10.136,8.8,23.967,13.363,40.3,15.692,11.566,1.65,9.418-7.57,4.249-17.552,5.912,1.943,11.414,2.657,14.009.035.794-.8.086-3.436-1.347-6.813,7.354,1.935,16.553,3.159,28.54,3.522,32.991,1,21.893-3.88-18.3-31.97,13.644,1.316,26.647.595,35.611-1.744C394.67,231.29,341.7,227,299.629,187.834c-18.415-17.146-38.809-15.206-38.809-15.206-.045,0-.091.005-.136.009-.128,0-.253,0-.381,0,0,0-21.311-1.638-40.975,16.055-36.979,33.274-82.922,38.8-74.258,46.591,3.984,3.581,19.421,6,37.049,5.258C148.635,267.224,109.806,281.363,151.414,279.167Z" fill="url(#e)"/>
    <path d="M176.953,218.914a69.391,69.391,0,0,0,19.962-3.75c-4.535,3.843-6.467,6.594.474,6.315,7.587-.3,17.083-4.788,24.877-9.344-8.419,13.844-16.619,21.073-6.683,21.218,9.64.141,27.866-9.608,40.527-23.667,8.979,13.957,22.781,20.4,39.642,23.458,20.342,3.689-17.9-42.689-9.422-33.8s30.016,19.307,53.941,20.633c19.823,1.1,11.7-3.953-8.853-18.427,6.934-.653,8.246-4.5,1.039-7.087a24.674,24.674,0,0,1-8.452-5.482c11.4,1.2,21.6.884,27.634-.842,19.4-5.549-33.9-11.735-69.235-46.6-15.466-15.262-30.858-13.894-30.858-13.894l-.059,0c-.111,0-.223,0-.335,0,0,0-16.388-1.77-29.915,13.363-25.44,28.459-60.017,32.555-52.764,39.492,2.231,2.133,8.329,3.9,16.126,4.718a61.954,61.954,0,0,1-11.616,4.074c-8.2,1.989-9.528,5.68,4.179,5.554a65.6,65.6,0,0,0,11.251-1.242C167.734,211.14,149.3,220.013,176.953,218.914Z" fill="url(#f)"/>
    <path d="M262.391,11.851a75.4,75.4,0,0,0-10.26-9.117,14.46,14.46,0,0,0-19.67,2.591c-.909,1.115-1.873,2.373-2.881,3.789C214.776,29.9,201.513,28.831,207,32.433c2.966,1.949,7.468,2.562,12.137,1.694h0c-15.15,13.481-16.32,17.351-8.89,15.376a49.813,49.813,0,0,0,17.623-8.4s-12.107,21.515-2.85,17.626c7.673-3.224,13.777-7.806,17.311-15.6,6.494,5.646,15.375,8.6,19.834,7.551,6.646-1.565-4.938-6.577-9.594-19.85,0,0,3.75,9.982,20.4,7.042,15.344-2.711,2.726-2.609-8.911-11.966,9.5,2.093,14.887-.513,16.621-2.878C283.291,19.46,273.911,23.892,262.391,11.851Z" fill="url(#g)"/>
    <path d="M190.738,130.4c5.53.686,13.341.088,21.373-1.776-21.747,19.929-27.979,23.717-8.385,20.511,18.571-3.038,25.373-8.068,30.563-14.826s-17.181,27.951-1.815,23.639c12.737-3.574,22.51-9.158,27.256-19.376,12.267,8.349,28.193,13.292,35.741,12.333,11.251-1.429-9.731-9.448-20.163-27.964,0,0,19.762,17.012,48.117,14.763,24.984-1.981.712-7.341-21.365-20.606,10.57-.951,19.584-3.615,21.676-6.065,4.55-5.329-23.283-4.993-47.965-21.909-13.126-8.995-25.7-6.333-25.7-6.333-.081.009-.158.023-.237.033l-.072,0h0s-12.315.457-21.94,12.137C205.832,121.646,174.584,128.393,190.738,130.4Z" fill="url(#h)"/>
  </g>
</svg>
