<svg xmlns="http://www.w3.org/2000/svg" xmlns:xlink="http://www.w3.org/1999/xlink" width="115.007" height="503.456" viewBox="0 0 115.007 503.456">
  <defs>
    <linearGradient id="a" y1="251.728" x2="115.007" y2="251.728" gradientUnits="userSpaceOnUse">
      <stop offset="0" stop-color="#005437"/>
      <stop offset="1" stop-color="#006837"/>
    </linearGradient>
  </defs>
  <title>SmallTree_16</title>
  <path d="M54.571,503.456s-38-47.5-50.662-94.992,9.5-60.161,9.5-60.161S.743,297.64,10.242,294.474s12.665,3.166,12.665,3.166-19-66.494-12.665-98.158,28.5-50.662,28.5-50.662-22.164-19-12.665-38,22.165-19,22.165-19S48.239,0,64.07,0s19,110.824,12.666,120.323c0,0,12.666-9.5,15.832,12.665s0,120.323,0,120.323,25.331-6.333,22.165,19S98.9,341.97,98.9,341.97s15.832,3.166,15.832,25.331S79.9,503.456,79.9,503.456Z" fill="url(#a)"/>
</svg>
