<svg xmlns="http://www.w3.org/2000/svg" xmlns:xlink="http://www.w3.org/1999/xlink" width="133.469" height="504.013" viewBox="0 0 133.469 504.013">
  <defs>
    <linearGradient id="a" y1="252.006" x2="133.469" y2="252.006" gradientUnits="userSpaceOnUse">
      <stop offset="0" stop-color="#005437"/>
      <stop offset="1" stop-color="#006837"/>
    </linearGradient>
  </defs>
  <title>SmallTree</title>
  <path d="M61.173,504.013H77.857s55.612-55.938,55.612-101.619-21.848-46.079-21.848-46.079,30.984-90.171,19.067-108.046-26.217-1.192-26.217-1.192,16.286-79.048,9.931-100.5S96.924,129.1,96.924,129.1,108.046.4,81.432,0s-25.82,82.227-25.82,82.227-17.478-4.767-17.478,19.464S51.242,177.96,51.242,177.96,17.875,172.8,17.875,211.327s5.959,44.092,5.959,44.092-20.656-.4-20.656,40.915S29,368.629,29,368.629,0,361.082,0,402,61.173,504.013,61.173,504.013Z" fill="url(#a)"/>
</svg>
