<svg xmlns="http://www.w3.org/2000/svg" xmlns:xlink="http://www.w3.org/1999/xlink" width="124.865" height="472.178" viewBox="0 0 124.865 472.178">
  <defs>
    <linearGradient id="a" y1="236.089" x2="124.865" y2="236.089" gradientUnits="userSpaceOnUse">
      <stop offset="0" stop-color="#005437"/>
      <stop offset="1" stop-color="#006837"/>
    </linearGradient>
  </defs>
  <title>SmallTree_3</title>
  <path d="M43.545,472.178s-3.672-57.186-29.38-89.714S23.609,321.606,32,333.672c0,0-32-56.136-32-103.879s29.905-46.168,29.905-46.168S15.739,87.091,49.316,89.714C49.316,89.714,29.905,0,68.2,0S80.27,93.911,80.27,93.911s29.74-14.5,29.74,51.51S98.633,235.04,98.633,235.04s26.232-19.937,26.232,51.415S93.911,387.711,93.911,387.711s15.739-5.227,15.739,11.017-44.07,73.45-44.07,73.45Z" fill="url(#a)"/>
</svg>
