<svg xmlns="http://www.w3.org/2000/svg" xmlns:xlink="http://www.w3.org/1999/xlink" width="732.781" height="916.377" viewBox="0 0 732.781 916.377">
  <defs>
    <linearGradient id="a" x1="214.452" y1="-260.369" x2="332.338" y2="423.703" gradientUnits="userSpaceOnUse">
      <stop offset="0" stop-color="#005437"/>
      <stop offset="1" stop-color="#006837"/>
    </linearGradient>
    <linearGradient id="b" x1="264.399" y1="480.151" x2="744.246" y2="265.134" xlink:href="#a"/>
    <linearGradient id="c" x1="-172.118" y1="485.229" x2="273.878" y2="485.229" gradientTransform="translate(220.251 -79.156) rotate(6.066)" xlink:href="#a"/>
    <linearGradient id="d" x1="301.183" y1="786.577" x2="525.362" y2="786.577" gradientUnits="userSpaceOnUse">
      <stop offset="0" stop-color="#66421f"/>
      <stop offset="1" stop-color="#754c24"/>
    </linearGradient>
    <linearGradient id="e" x1="386.26" y1="689.974" x2="408.675" y2="332.165" xlink:href="#a"/>
  </defs>
  <title>Tree_31</title>
  <g>
    <path d="M527.577,264.184s22.526-23.447,8.875-37.752c-8.048-8.434-19.841-5.149-28.167-1.032a74.185,74.185,0,0,0-1.891-18.225c-3.556-14.777-17.324-7.23-32.537-23.717,2.093-2.007,3.786-5.213,3.906-10.346.261-11.106-4.726-13.5-6.787-14.02,1.663.066,5.139-.891,5.352-9.988.28-11.981-9.751-10.218-9.751-10.218a10.035,10.035,0,0,0,2.231-9.937c-1.857-6.037-11.888-4.274-11.888-4.274s6.131-5.85-3.619-16.068c-5.918-6.2-11.986-5.782-15.846-4.5-2.576-2.025-5.949-2.189-7.9-2.073-.32-.3-.635-.584-.942-.849.407-1,.541-2.659-1.391-4.637-2.136-2.186-4.317-.4-5.53,1.024a6.112,6.112,0,0,0-.95-.022c-.135-2.145-1.1-6.162-6.386-6.812-4.341-.533-7.3,4.142-8.977,7.993-1.957-.63-3.875-1.172-5.733-1.63a8.108,8.108,0,0,0-.909-1.582c8.364-15.242-9.28-17.737-9.28-17.737s8.308-8.177-1.056-15.316a14.523,14.523,0,0,0-10.336-2.865,10.821,10.821,0,0,0-1.32-1.64,6.36,6.36,0,0,0-4.444-2.017c-3.238-4.9-10.381-4.2-10.381-4.2s2.683-2.135-.165-5.713-6.7,1.678-6.7,1.678,1.625-7.137-5.512-8.762c-3.349-.762-6.174,1.759-8.231,4.65A34.933,34.933,0,0,0,323.8,38.362a19.306,19.306,0,0,0,.311-4.743C323.6,23.8,310.659,23.14,310.659,23.14s11.9-11.663,4.784-20.608-23.767,8.687-23.767,8.687S292.06.686,278.57,4.847,276.1,26.533,276.1,26.533s-8.908-7.521-16.246-.22,3.266,14.2,3.266,14.2-16.319-6.737-22.873,7.975a15.978,15.978,0,0,0-1.462,5.679,38.668,38.668,0,0,0-7.734,6.572c-2.257-2.547-6.594-5.251-13.382-.8-10.653,6.981-4.822,14.092-4.822,14.092s-12.952-.1-13.064,14.027A15,15,0,0,0,202.313,97a30.767,30.767,0,0,0-1.983,6.551s-2.558-3.959-9.776-2.1c-4.666,1.2-5.11,7.328-4.842,11.513a5.26,5.26,0,0,0-3.087-1.074c-2.836-.2-3.421,2.192-3.458,4.033a7.9,7.9,0,0,0-1.282.5,6.687,6.687,0,0,0-8.741-.349c-4.886,3.364-1.511,12.213-.055,15.448-.875-1.3-2.925-2.88-7.323-.506-5.662,3.056-7.379,10.661-7.743,12.685.205-1.679.32-7.272-6.022-12.528-7.572-6.275-16.82,2.8-16.82,2.8s-.522-16.656-11.925-17.476-9.7,23.371-9.7,23.371-7.49-7.415-13.563,5.329,14.286,16.5,14.286,16.5-11.566,1.461-11.163,11.8,12.662,7.214,12.662,7.214-16.008,7.445-9.621,22.231a15.457,15.457,0,0,0,3.7,5.419,19.7,19.7,0,0,0,2.466,10.178s-10.958-3.8-13.035,8.768,7.1,13.091,7.1,13.091a14.677,14.677,0,0,0-3.5,8.187,8.05,8.05,0,0,0-3.018.418c-4.665,1.555-3.11,9.329-3.11,9.329s-4.664-4.665-12.438,3.109S78.772,277,78.772,277a27.179,27.179,0,0,0-4.964,5.427A8.332,8.332,0,0,0,71.3,285.87c-2.5,6.438,5.554,8.957,5.554,8.957s-7.275-.085-5.782,10.442S83.913,313.5,83.913,313.5s-2.453,2.4.742,5.667,6.5-2.349,6.5-2.349-.894,7.265,6.371,8.159c5.888.724,9.233-8.137,10.29-11.523-.208,1.552.277,4.095,5.144,5.237a13.186,13.186,0,0,0,7.084-.482,20.656,20.656,0,0,0,4,.887,17,17,0,0,0-.676,8.609c1.5,9.719,14.446,9.062,14.446,9.062s-10.66,12.81-2.672,20.987c6.3,6.447,16.812-4.137,20.982-8.907a9.7,9.7,0,0,0,2.11-.534c.823,2.71,3.669,7.5,13.357,3.4,4.178-1.77,5.7-4.657,5.832-7.76a22.878,22.878,0,0,0,3.327-.747s5.817,4.66,19.551,4.2,16.644-10.259,16.644-10.259,10.96,13.385,20.627,12.255,11.474-19.793,11.474-19.793,2.612,5.575,7.4,3.8c4.332-1.606,2.64-5.65,2.273-6.417a3.964,3.964,0,0,0,4.5,2.021c14.781,9.435,33.979,4.954,44.42,1.289l0,.02c1.5,9.719,14.446,9.062,14.446,9.062s-10.66,12.81-2.672,20.987,22.765-11.05,22.765-11.05.686,10.517,13.684,5.011c4.179-1.77,5.7-4.657,5.832-7.76a22.916,22.916,0,0,0,3.328-.747s5.816,4.66,19.55,4.2,16.644-10.259,16.644-10.259,10.96,13.385,20.627,12.255c6.785-.793,9.695-10.215,10.829-15.767,8.42,2.311,17.37,3.365,23.285.166,5.336-2.885,7.317-7.833,7.715-12.881a14.5,14.5,0,0,0,1.639-2.08s1.992,11.257,14.918,10.827,15.594-17.5,15.594-17.5,2.558,3.959,9.776,2.1,4.337-15.511,4.337-15.511,8.267,5.386,13.573-5.305a14.572,14.572,0,0,0,1.653-5.619c7.029-1.033,13.091-3.779,14.02-10.02C541.555,264.512,527.577,264.184,527.577,264.184Z" fill="url(#a)"/>
    <path d="M714.076,451.988s3.2,17.055-9.177,21.7c-11.989,4.506-16.245-1.019-16.507-1.375.192.46,4.273,10.65-5.171,14.983,0,0,2.841,13.136-12.874,14.7,2.882,13.1-15.076,20.9-15.076,20.9s6.318,16.164-4.984,23.029c-10.941,6.656-16.153,2.015-16.467,1.724a15.856,15.856,0,0,1,2.032,5.177,7.781,7.781,0,0,1,.9,3.126c.25,3.878-1.823,7.838-4.4,11.2a11.139,11.139,0,0,1-5.614,10.789c2.76,2.283,6.231,6.813,6.074,15.134-.257,13.736-5.212,19.3-5.212,19.3s5.293,19.506-13.282,18.347c0,0-.99,9.684-12.309,9.468s-11.937-9.928-11.937-9.928-6.894,8.828-15.215,3.622a22.387,22.387,0,0,1-3.814,1.537c2.154,5.5,3.569,13.556-5.008,16.275-13.456,4.256-13.148-6.277-13.148-6.277s-16.519,17.754-23.7,8.862,4.629-20.642,4.629-20.642-12.944-.564-13.526-10.382a.215.215,0,0,0-.006-.064,16.072,16.072,0,0,1-5.532-7.767c-2.16,4.862-7.04,12.676-15.978,12.024a16.891,16.891,0,0,1-6.387-1.654c-8.036,2.62-18.377,3.511-31.281.227A4.97,4.97,0,0,1,459.1,627c-3.7.943-5.759-2.073-6.563-3.651-.18-.07-.372-.146-.559-.216-.8,3.343-4.739,17.684-13.34,17.777-9.736.1-19.215-14.365-19.215-14.365s-3.931,9.439-17.637,8.444-18.994-6.248-18.994-6.248a23.091,23.091,0,0,1-3.389.39c-.466,3.074-2.277,5.782-6.621,7.1-13.509,4.1-13.078-6.435-13.078-6.435s-16.723,17.562-23.8,8.589,4.874-20.589,4.874-20.589-12.938-.717-13.41-10.54c-.39-8.227,3.82-11.913,5.2-12.892-1.741,1.1-8.519,4.956-14.592,2.83-4.717-1.647-4.932-4.227-4.559-5.753-1.41,3.255-5.672,11.716-11.448,10.371a6.792,6.792,0,0,1-5.636-7.378c-2.056,1.759-5.6,2.987-11.314-.046-6.353-3.366-6.842-7.651-6.225-10.528a9.7,9.7,0,0,1-.891-2.905c-3.948.366-11.96.407-13.206-5.037-1.659-7.261,2.364-9.713,2.364-9.713s-16.991-3.132-17.067-16.065,11.227-14.615,11.227-14.615-4.868-3.208-4.082-6.446a20.352,20.352,0,0,1,2.941-5.84,10.537,10.537,0,0,1,.425-1.258c-1.683.472-6.283,1.345-8.275-2.574-2.113-4.169.594-5.962,1.375-6.381-.926.395-4.828,1.77-6.277-2.481-1.642-4.839,4-7.3,4-7.3s-18.61-2.317-19.472-12.012,12.811-20.287,12.811-20.287-9.719-3.174-9.8-16.916,4.734-19.43,4.734-19.43-3.308-11.1,3.15-16.188a16.6,16.6,0,0,1-8.542-9.147c-3.867-9.9,2.94-18.272,10.062-23.9a13.659,13.659,0,0,1-1.957-3.04c-4.507-9.468,6.05-14.493,7.133-14.982v-.064c-.972-.192-8.647-1.9-7.11-7.127,1.578-5.369,4.467-4.466,4.682-4.39-.245-.193-4.5-3.558-1.17-8.036a6.9,6.9,0,0,1,8.251-2.451c-.088-.134-1.45-2.33,1.653-5.573,2.789-2.917,4.9-1.985,5.386-1.706-.658-.454-4-2.807-4.268-4.617,0,0-6.545.145-7.43-5.887a7.959,7.959,0,0,1,4.1-8.4s-4.385-4.693.529-10.341,17.341-2.137,17.341-2.137-1.561-2.236-.594-4.018a9.1,9.1,0,0,1,2.463-2.83s-4.315-1.414-4.163-5.956,7.668-6.464,7.668-6.464-14.726-5.223-12.7-16.606,13.555-13.9,17.422-9.951c0,0,5.357,2.911,9.008-2.964,0,0-4.752-9.975,5.9-18.523a16.455,16.455,0,0,1,20.386-.943s-.961-9.305,5.968-15.25,16.229-6.9,16.229-6.9-14.645-13.037-2.65-29.172,29.533,2.637,29.533,2.637a27.072,27.072,0,0,1,2.766-2.014c-2.148-2.376-3.191-7.221,6.889-16.036,0,0-7.989-9.986,2-19.973s15.978-3.994,15.978-3.994-2-9.986,3.994-11.983a10.031,10.031,0,0,1,9.986,2s-2-9.986,9.986-9.986c9.1,0,10.138,3.453,10.109,5.112.472-2.073,2.748-7.11,13.858-7.11,13.987,0,13.987,11.984,13.987,11.984s2-7.989,7.989-9.986,11.983,2,11.983,2-7.989-11.983,0-21.976,23.967-3.994,23.967-3.994-19.973-23.967-5.992-37.947,37.947,7.989,37.947,7.989,0-13.981,15.984-11.984c4.419.553,7.162,3.709,8.81,7.989,11.034,1.159,9.328,10.417,9.328,10.417s11.494-7.907,15.984-1.956,1.816,9.834,1.816,9.834,16.788-4.1,22.15,7.669-4.262,17.934-4.262,17.934,5.753.932,6.359,4.21c.594,3.2-.606,8.077-.653,8.286.222-.215,4.973-4.8,9.09-1.473,3.639,2.935,1.9,5.683,1.357,6.382.7-.751,3.691-3.581,6.748-.3,3.482,3.744-.664,8.3-.664,8.3s17.923-5.5,22.68,2.987-3.383,23.751-3.383,23.751,10.167-1.077,15.867,11.424,3.634,19.664,3.634,19.664a22.945,22.945,0,0,1,1.962,2.783c2.917-1.065,6.167-.774,9.41,2.405,10.079,9.887.629,14.557.629,14.557s23.431,6.254,18.953,16.776-20.4,5.595-20.4,5.595,5.578,11.7-2.818,16.817c-7.029,4.291-12.281,2.364-13.806,1.624,1.8,1,8.431,5.1,9.485,11.448.815,4.932-1.351,6.353-2.859,6.76,3.529-.326,13-.64,14.592,5.072,1.968,7.051-5.083,9.02-5.083,9.02s6.451.885,4.664,5.089-4.95,2.865-4.95,2.865,6.475,9.59-2.666,15.017a16.523,16.523,0,0,1-4.018,1.77,8.838,8.838,0,0,1,.477,2.009s3.4-3.011,7.244-.588,1.712,9.887,1.712,9.887,11.937-10.08,20.746-2.6,5.165,18.72-.192,20.065c0,0-5.211,3.156-1.985,9.27,0,0,11.011.932,13.02,14.435a16.462,16.462,0,0,1-9.468,18.08s8.513,3.866,10.155,12.845c1.607,8.821-2.1,17.189-2.225,17.486.455-.14,18.738-5.835,26.518,12.437C739.126,446.311,714.076,451.988,714.076,451.988Z" fill="url(#b)"/>
    <path d="M435.846,445.98c-11.18-16.709-28.37-7.281-28.37-7.281s2.215-9.085-1.065-17.6-12.364-10.733-12.364-10.733a16.463,16.463,0,0,0,5.942-19.525c-4.482-12.9-15.473-11.764-15.473-11.764-4.311-5.409.223-9.479.223-9.479,5.015-2.319,6.509-14.031-3.538-19.749s-19.9,6.4-19.9,6.4.7-7.728-3.52-9.393-7.007,1.923-7.007,1.923a9.055,9.055,0,0,0-1.837-3.263c-1.357-1.511-3.985-.79-3.985-.79s7.471-10.527,3.8-17.053-9.566-3.967-9.566-3.967a7.968,7.968,0,0,0-6.243-6.6c10.472-15.154-5.063-22.237-5.063-22.237,1.728-16.257-12.011-15.89-12.011-15.89-2.557-10.318-13.779-7.857-13.779-7.857s6.706-2.941,4.437-15.969-19.62-13.045-19.62-13.045-.926-25.671-20.563-21.365S249.2,244.5,249.2,244.5s-7.648-5.38-16.775-5.436-14.507,7.592-14.507,7.592a16.463,16.463,0,0,0-16.008-12.661c-13.643-.537-16.6,10.109-16.6,10.109-6.61,2.037-8.743-3.669-8.743-3.669-.328-5.515-10.686-11.182-19.678-3.918s-1.3,20.868-1.3,20.868-6.937-3.477-10.03-.152-.768,7.225-.768,7.225a9.049,9.049,0,0,0-3.708.519c-1.9.711-2.19,3.421-2.19,3.421s-7.073-10.8-14.49-9.76-7.186,7.456-7.186,7.456a7.967,7.967,0,0,0-8.608,3.652c-3.285,5.131,1.75,9.32,1.75,9.32-1.033,1.613.088,5.89.218,6.369-.1-.355-.945-2.725-5.214-2.334-4.611.424-4.9,3.133-4.9,3.133a6.9,6.9,0,0,0-7.84-3.573c-5.611,1.231-4.381,6.841-4.381,6.841s-1.518-2.9-6.418.232.751,10.126.751,10.126-7.74-2.533-12.434,1.69c-12.1,4.054-10.98,12.85-10.98,12.85S28.636,294.469,20.39,308.3s4.558,19.446,4.558,19.446S-4.8,340.874,2.391,359.294a16.627,16.627,0,0,0,8.547,9.151c-6.462,5.091-3.155,16.189-3.155,16.189s-4.816,5.687-4.733,19.429,9.8,16.917,9.8,16.917S-.827,431.571.04,441.266s19.472,12.009,19.472,12.009-5.643,2.459-4,7.3c1.487,4.373,5.577,2.792,6.353,2.446-.665.331-3.64,2.1-1.449,6.416,1.986,3.915,6.591,3.046,8.274,2.573a10.193,10.193,0,0,0-.427,1.258,20.248,20.248,0,0,0-2.939,5.84c-.789,3.239,4.08,6.443,4.08,6.443S18.1,487.234,18.177,500.168s17.072,16.065,17.072,16.065-4.027,2.449-2.367,9.714c1.244,5.443,9.261,5.4,13.2,5.037a9.828,9.828,0,0,0,.892,2.9c-.614,2.875-.126,7.158,6.224,10.529,5.713,3.032,9.261,1.8,11.315.041a6.8,6.8,0,0,0,5.635,7.383c5.778,1.342,10.041-7.116,11.449-10.372-.37,1.522-.157,4.1,4.562,5.751,6.073,2.123,12.849-1.734,14.589-2.829-1.377.98-5.588,4.665-5.2,12.893.467,9.823,13.406,10.537,13.406,10.537s-11.953,11.612-4.874,20.588,23.806-8.584,23.806-8.584-.43,10.531,13.078,6.429c4.341-1.318,6.154-4.029,6.618-7.1a22.893,22.893,0,0,0,3.388-.391s5.292,5.248,19,6.246,17.634-8.444,17.634-8.444,9.484,14.469,19.217,14.366c8.6-.09,12.541-14.435,13.342-17.773.187.07.374.143.559.211.8,1.582,2.86,4.594,6.563,3.652a5,5,0,0,0,2.013-.97c12.9,3.284,23.244,2.391,31.281-.231a16.8,16.8,0,0,0,6.386,1.656c8.938.65,13.82-7.162,15.978-12.025a16.05,16.05,0,0,0,5.534,7.766c0,.023,0,.044,0,.067.583,9.817,13.529,10.38,13.529,10.38s-11.816,11.75-4.632,20.643,23.7-8.862,23.7-8.862-.307,10.535,13.152,6.275c8.575-2.714,7.16-10.777,5-16.274a22.421,22.421,0,0,0,3.817-1.538c8.322,5.207,15.213-3.619,15.213-3.619s.625,9.713,11.94,9.927,12.306-9.47,12.306-9.47C401.091,581.906,395.8,562.4,395.8,562.4s4.956-5.566,5.215-19.306c.157-8.319-3.314-12.849-6.077-15.132a11.128,11.128,0,0,0,5.612-10.788c2.577-3.361,4.648-7.32,4.4-11.2a7.669,7.669,0,0,0-.905-3.128,15.651,15.651,0,0,0-2.046-5.2s5.186,5.169,16.486-1.7,4.98-23.029,4.98-23.029S447.025,462.689,435.846,445.98Z" fill="url(#c)"/>
    <path d="M337.867,749.942c18.008,16.883,31.663,40.53,39.1,55.219,9.946,59.156,2.742,84.611-6.492,93.845-9.9,9.9-25.621,4.659-32.026,6.4-5.15,1.405-3.906,6.573-8.666,10.966H502.219a47.865,47.865,0,0,0-7.136-2.231c-20.38-4.659-39.013-64.051-45.418-86.178s7.57-21.544,19.216-29.7,20.962-34.937,8.734-76.279l-5.241,1.746s8.734,43.672-1.164,52.988-29.7,11.646-29.7,11.646-14.557-45.418-14.557-98.406l-101.317-33.19s26.035,48.659,41.93,105.778c-16.362-15.2-50.209-49.924-52.411-78.993h-4.076S309.917,723.739,337.867,749.942Z" fill="url(#d)"/>
    <path d="M687.929,610.6c.323-14.114-19.79-9.2-19.79-9.2s9.954-6.068,5.352-15.34-14.5-1.4-14.5-1.4,11.556-13.347-.325-24.221a15.43,15.43,0,0,0-5.6-3.428,19.7,19.7,0,0,0-6.417-8.277s11.552-1.021,8.3-13.336-11.841-9.036-11.841-9.036,4.1-12-8.773-16.684c6.416-10.11-4.172-22.063-4.172-22.063s18.578-17.741,2.316-29.562-29.139,2.963-29.139,2.963-1.058-9.291-7.078-16.152-15.31-5.8-15.31-5.8a16.462,16.462,0,0,0-1.166-20.376c-8.66-10.556-18.583-5.7-18.583-5.7-5.914-3.589-3.064-8.974-3.064-8.974,3.9-3.907,1.263-15.414-10.14-17.312s-16.467,12.884-16.467,12.884-2.008-7.5-6.548-7.6-5.911,4.225-5.911,4.225a9.051,9.051,0,0,0-2.851-2.428c-1.453-.768-3.181.122-3.787.49-.039-.1-.077-.2-.115-.3.531-2.246,2.63-12.556-2.437-16.871a9.89,9.89,0,0,0-3.079-1.843,17.559,17.559,0,0,0-7.75-5.666c0-16.348-13.623-14.532-13.623-14.532-3.136-8.622-11.677-7.1-13.96-6.518-.072-.031-.144-.058-.216-.089,1.284-1,5.474-5.231,2.369-16.1-3.633-12.715-20.889-10.9-20.889-10.9s-3.633-25.43-22.7-19.072-14.532,25.43-14.532,25.43-8.174-4.541-17.256-3.633-13.624,9.082-13.624,9.082a16.462,16.462,0,0,0-17.256-10.9c-13.623.909-15.439,11.807-15.439,11.807-6.358,2.725-9.083-2.724-9.083-2.724-.908-5.45-11.807-9.991-19.981-1.817-6.822,6.822-1.626,16.8.28,19.918-.226.189-.455.376-.678.568-2.218-.593-6.679-1.362-8.684,1.312-2.724,3.632,0,7.265,0,7.265a9.046,9.046,0,0,0-3.633.909c-1.816.908-1.816,3.632-1.816,3.632s-8.174-9.99-15.44-8.174-6.357,8.174-6.357,8.174a7.965,7.965,0,0,0-8.174,4.542c-2.725,5.449,2.724,9.082,2.724,9.082-.856,1.713.71,5.847.89,6.311-.139-.343-1.228-2.611-5.431-1.77-4.541.908-4.541,3.633-4.541,3.633a6.9,6.9,0,0,0-8.174-2.725c-5.449,1.816-3.633,7.266-3.633,7.266a2.607,2.607,0,0,0-2.12-.981c-6.635-2.713-13.375,1.852-13.375,1.852-12.978-9.942-19.82,1.977-19.82,1.977-10.14-3.191-13.884,7.67-13.884,7.67s.982-7.256-11.321-12.105-21.355,9.955-21.355,9.955-22.4-12.581-28.949,6.425,11.351,27,11.351,27-8.576,3.727-13.378,11.489-1.075,16.338-1.075,16.338a16.463,16.463,0,0,0-19.146,7.071c-7.564,11.367-.016,19.437-.016,19.437-1.7,6.7-7.687,5.553-7.687,5.553-4.878-2.593-15.11,3.3-13.592,14.757.869,6.567,6.368,9.539,10.906,10.883-.741.881-1.457,1.757-2.154,2.618-4.409,5.442-3.58,13.468-1.254,20.77a10.345,10.345,0,0,0-5.537,4.986c-2.977,6.872,2.622,10.017,2.622,10.017a7.95,7.95,0,0,0-1.617,8.691c-6.092,4.5-12.181,12.034-12.881,24.329-1.07,18.788,13.052,24.7,20.458,26.5a10.408,10.408,0,0,0,2.473,4.142,12.672,12.672,0,0,0,3.982,2.944c.587,1.661,1.291,3.571,2.1,5.633-1.987,1.805-4.117,4.988-5.425,10.607-3,12.88,12.97,19.67,12.97,19.67s-9.171,24,10.589,27.7,25.051-15.176,25.051-15.176,4.941,7.939,13.322,11.554,16.319-1.325,16.319-1.325a16.463,16.463,0,0,0,9.795,17.906c12.35,5.821,19.23-2.825,19.23-2.825,6.881.705,6.617,6.792,6.617,6.792-1.852,5.2,5.471,14.466,16.586,11.289s9.348-18.7,9.348-18.7,5.029,5.91,9.175,4.057,3.527-6.352,3.527-6.352a9.051,9.051,0,0,0,3.617.97c2.029.088,3.352-2.294,3.352-2.294s2.295,12.7,9.529,14.642,9.527-4.059,9.527-4.059a7.964,7.964,0,0,0,9.35,0c5.028-3.441,2.028-9.263,2.028-9.263,1.581-1.082,2.219-5.457,2.286-5.949-.045.367-.194,2.878,3.889,4.184,4.411,1.411,5.734-.971,5.734-.971a6.9,6.9,0,0,0,5.823,6.35,5.191,5.191,0,0,0,5.918-2.578c.023.2.044.406.074.618,1.494,10.527,12.838,8.235,12.838,8.235s-2.453,2.4.742,5.668,6.5-2.349,6.5-2.349-.894,7.265,6.371,8.158c5.888.724,9.233-8.137,10.29-11.523-.208,1.552.277,4.1,5.144,5.237,6.263,1.469,12.594-3.082,14.208-4.355-1.266,1.12-5.064,5.229-3.805,13.37,1.5,9.718,14.445,9.062,14.445,9.062s-10.659,12.809-2.671,20.987,22.765-11.051,22.765-11.051.685,10.517,13.684,5.011c4.178-1.77,5.695-4.657,5.832-7.76a22.97,22.97,0,0,0,3.327-.746s5.817,4.659,19.551,4.2,16.644-10.26,16.644-10.26,10.959,13.385,20.627,12.255,11.474-19.792,11.474-19.792,2.612,5.574,7.4,3.8c4.331-1.605,2.64-5.65,2.273-6.416.349.656,2.2,3.58,6.453,1.273,3.907-2.118,2.84-6.785,2.327-8.4l.422-.125a22.455,22.455,0,0,0,6.785,3.357c3.258.7,6.329-4.255,6.329-4.255s1.992,11.257,14.918,10.827,15.594-17.5,15.594-17.5,2.558,3.959,9.775,2.1c2.769-.712,4.049-3.162,4.578-5.909,2.481,1.535,6.006,2.145,10.525-.929,5.065-3.444,6.415-8.831,6.547-13.21,9.563,2.186,12.008-8.515,12.008-8.515s1.176,3.222,5.472,1.653.528-6.886.528-6.886,6.255,3.8,10.057-2.455c2.416-3.977-1.187-8.951-4.134-12.048,7.71.724,14.374-3.357,19.662-10.017,7.859.2,11.778-9.81,11.778-9.81s7.295,14.983,18.034,11.063-.716-25.3-.716-25.3S687.605,624.716,687.929,610.6Z" fill="url(#e)"/>
  </g>
</svg>
