<svg xmlns="http://www.w3.org/2000/svg" xmlns:xlink="http://www.w3.org/1999/xlink" width="745.829" height="1011.555" viewBox="0 0 745.829 1011.555">
  <defs>
    <linearGradient id="a" x1="327.245" y1="365.808" x2="745.829" y2="365.808" gradientUnits="userSpaceOnUse">
      <stop offset="0" stop-color="#2b773e"/>
      <stop offset="1" stop-color="#27954f"/>
    </linearGradient>
    <linearGradient id="b" x1="0" y1="343.671" x2="555.509" y2="343.671" xlink:href="#a"/>
    <linearGradient id="c" x1="374.322" y1="839.936" x2="452.053" y2="839.936" gradientUnits="userSpaceOnUse">
      <stop offset="0" stop-color="#66421f"/>
      <stop offset="1" stop-color="#754c24"/>
    </linearGradient>
    <linearGradient id="d" x1="119.7" y1="450.683" x2="643.508" y2="450.683" xlink:href="#a"/>
  </defs>
  <title>Tree_17</title>
  <g>
    <path d="M725.85,414.971s1.934,17.242-10.76,20.962c-12.38,3.628-16.182-2.317-16.357-2.608.14.425,3.494,10.941-6.271,14.563,0,0,1.829,13.113-13.578,13.7a8.693,8.693,0,0,1-1.846,2.253c-1.27,2.4-3.843,6.05-8.216,7.372a4.236,4.236,0,0,1-1.392,4.856c-4.367,3.5-6.213,1.107-6.347.92.082.256,1.677,5.485-3.639,7.255a6.9,6.9,0,0,1-8.175-2.725s0,2.725-4.542,3.634c-3.983.792-5.171-1.194-5.4-1.7.268.71,1.683,4.594.862,6.242,0,0,5.45,3.633,2.725,9.083a7.967,7.967,0,0,1-8.175,4.542s.908,6.353-6.359,8.17-15.436-8.17-15.436-8.17,0,2.719-1.817,3.628a9.051,9.051,0,0,1-3.633.908s2.725,3.634,0,7.267c-2.673,3.564-9.718,1.007-9.986.914.25.355,8.961,12.828.9,20.887-8.175,8.169-19.069,3.633-19.978-1.817,0,0-2.725-5.45-9.083-2.725,0,0-1.817,10.894-15.443,11.8a16.461,16.461,0,0,1-17.253-10.895s-4.541,8.175-13.625,9.084-17.253-3.634-17.253-3.634,4.542,19.07-14.534,25.429-22.7-19.076-22.7-19.076-17.259,1.817-20.892-10.894c-3.546-12.409,2.422-16.17,2.713-16.345-.425.134-10.964,3.424-14.516-6.364,0,0-13.626,1.816-13.626-14.528,0,0-16.35-5.451-7.266-21.8,0,0-8.775-4.786-8.874-13.835-4.839-3.843-4.8-10.207-4.8-10.207s-7.11,5.828-14.092-4.822,3.651-15.279,3.651-15.279a19.69,19.69,0,0,1-8.7-5.823,15.381,15.381,0,0,1-6.393-1.479c-14.452-6.434-8.21-22.289-7.989-22.854-.309.466-7.057,10.417-14.19,3.249-7.151-7.18-.088-15.873.209-16.234-.512.314-17.579,10.807-21.672-2.475-4.164-13.491,6.37-13.107,6.37-13.107s-17.632-16.653-8.688-23.769,20.607,4.787,20.607,4.787.658-12.945,10.481-13.457a20.217,20.217,0,0,1,2.236.012,17.609,17.609,0,0,1,7.25-4.2,12.193,12.193,0,0,1,.535-5.241,8.472,8.472,0,0,1,2.213-3.7,5.709,5.709,0,0,1-3.43-3.494,4.085,4.085,0,0,1-.238-1.677c-2.231-1.922-3.867-4.344-3.232-7.127a8.619,8.619,0,0,1,.309-1.066c-4.28-1.205-8.944-3.849-10.173-9.619-2.405-11.308,7.343-17.975,12.4-15.768,0,0,6.055.681,7.232-6.138,0,0-8.152-7.459-1.491-19.378a16.457,16.457,0,0,1,18.534-8.536s-4.379-8.263-.2-16.374,12.449-12.49,12.449-12.49-18.47-6.58-13.415-26.04,28.357-8.658,28.357-8.658,7.878-15.46,20.519-11.582,12.228,11.186,12.228,11.186,2.888-11.116,13.247-8.723c0,0,5.893-12.414,19.6-3.511,0,0,8.805-7.022,16.811-.978,4.1-.134,8.367,2.16,11.884,4.81a14.7,14.7,0,0,1,10.936,2.7c2.422-2.557,6.608-5.218,13.613-5.451,13.736-.46,19.553,4.2,19.553,4.2a22.734,22.734,0,0,1,3.325-.746c.14-3.1,1.654-5.991,5.835-7.761,13-5.5,13.683,5.013,13.683,5.013s14.773-19.227,22.762-11.052-2.667,20.991-2.667,20.991,12.938-.657,14.441,9.061c1.263,8.14-2.539,12.251-3.8,13.369,1.613-1.275,7.943-5.823,14.208-4.355.081.017.157.04.239.064a10.7,10.7,0,0,1,9.508-3.779c1.532-1.707,3.418-2.853,5.689-2.574,7.261.9,6.37,8.158,6.37,8.158s3.3-5.619,6.493-2.347c3.074,3.15.92,5.485.757,5.66.413-.076,11.36-2.085,12.822,8.245,1.083,7.616-2.429,9.678-4.455,10.231a5,5,0,0,1-.262.629c2.1.955,6.411,3.586,4.49,8.536a8.327,8.327,0,0,1-2.539,3.47c1.345-.343,2.905-.57,3.808-.128,0,0,3.593-5.473,9.06-2.783a7.975,7.975,0,0,1,4.6,8.146s6.347-.955,8.216,6.3-8.07,15.5-8.07,15.5c.105,0,2.742.017,3.645,1.793a9.058,9.058,0,0,1,.932,3.628s3.616-2.754,7.267-.053c3.581,2.65,1.071,9.719.978,9.981.355-.251,12.763-9.043,20.874-1.042,8.228,8.116,3.762,19.046-1.682,19.989,0,0-5.427,2.766-2.661,9.1,0,0,10.912,1.747,11.907,15.361a16.456,16.456,0,0,1-10.783,17.328s8.2,4.49,9.176,13.562-3.522,17.282-3.522,17.282,19.046-4.67,25.527,14.359S725.85,414.971,725.85,414.971Z" fill="url(#a)"/>
    <path d="M538.534,266.585s4.873,16.653-6.988,22.5c-11.622,5.724-16.373.466-16.566.245.181.337,5.357,10.16-3.668,15.43,0,0,4.221,13.078-11.861,16,0,0-2.44,17.055-20.147,11.04a20.043,20.043,0,0,1-2.9,5.252c3.732.961,7.773,2.923,7.838,6.924.122,7.447-4.327,9.013-4.327,9.013s15.978,6.58,13.375,19.251-14.009,11.977-14.009,11.977,4.1,4.14,2.655,7.145-5.421,6.312-5.421,6.312,6.824-1.072,8.221,4.169c1.218,4.548-1.857,5.724-2.678,5.957.961-.192,5.1-.757,5.642,3.726.606,5.078-5.421,6.312-5.421,6.312s17.719,6.114,16.56,15.78-16.728,17.195-16.728,17.195,8.85,5.118,6.084,18.58-8.652,18.028-8.652,18.028a22.74,22.74,0,0,1-.053,3.412c2.987.856,5.439,3,6.184,7.482,2.283,13.707-7.756,12.188-8.065,12.141.35.437,15.122,18.924,5.422,24.712-9.818,5.852-19.781-7.5-19.781-7.5s-2.387,12.735-12.187,11.925c-8.21-.675-11.319-5.327-12.111-6.824.861,1.869,3.808,9.09.914,14.836-2.242,4.466-4.833,4.344-6.289,3.78,3.046,1.816,10.877,7.138,8.8,12.693-2.5,6.673-9.06,4.42-9.409,4.3.238.239,4.571,4.577.757,6.86-3.931,2.341-5.683-.606-5.683-.606s-.425,11.407-10.8,10.575c-4.21,4.739-12.216,3.027-12.216,3.027s6.359,6.359,1.817,9.992c-4.373,3.5-6.219,1.107-6.353.92.082.257,1.677,5.485-3.639,7.256a6.9,6.9,0,0,1-8.175-2.726s0,2.726-4.542,3.634c-3.977.792-5.165-1.194-5.4-1.7.268.7,1.683,4.588.862,6.242,0,0,5.444,3.633,2.719,9.077a7.955,7.955,0,0,1-8.169,4.542s.908,6.359-6.359,8.176-15.442-8.176-15.442-8.176,0,2.726-1.817,3.634a9.051,9.051,0,0,1-3.633.908s2.725,3.634,0,7.267c-2.673,3.564-9.718,1.008-9.98.914.25.355,8.955,12.828.9,20.881-8.175,8.175-19.075,3.633-19.984-1.817,0,0-2.725-5.444-9.083-2.719,0,0-1.817,10.894-15.437,11.8a16.465,16.465,0,0,1-17.258-10.9s-4.542,8.175-13.62,9.083-17.259-3.633-17.259-3.633,4.542,19.075-14.534,25.434-22.7-19.076-22.7-19.076-17.253,1.817-20.886-10.9c-3.546-12.4,2.422-16.164,2.713-16.339-.425.134-10.964,3.424-14.522-6.364,0,0-13.625,1.816-13.625-14.534,0,0-16.345-5.445-7.267-21.795a19.813,19.813,0,0,1-7.413-7.791c-3.726,1.549-8.658,2.638-11.185-.838-4.385-6.027-1.648-9.859-1.648-9.859s-16.857,3.8-22.016-8.058,4.576-17.853,4.576-17.853-5.735-1.031-6.288-4.321c-.536-3.2.739-8.024.8-8.268-.221.2-5.054,4.705-9.118,1.31-3.709-3.109-1.671-5.9-1.188-6.469-.582.623-3.721,3.686-6.807.25-3.342-3.714.617-8.088.8-8.28-.437.123-18.069,5.084-22.616-3.389-4.612-8.571,3.8-23.687,3.8-23.687s-10.184.9-15.663-11.7-3.29-19.722-3.29-19.722-10.743-12.909.518-20.246a8.884,8.884,0,0,1,3.855-8,10.34,10.34,0,0,1,.687-1.846,19.87,19.87,0,0,1-7.267-5.281,15.532,15.532,0,0,1-6.393-1.479c-14.452-6.441-8.21-22.29-7.989-22.855-.309.466-7.057,10.417-14.19,3.249-7.145-7.185-.088-15.873.209-16.234-.512.315-17.573,10.807-21.672-2.48-4.164-13.492,6.37-13.107,6.37-13.107S-6.413,363.715,2.531,356.6s20.613,4.78,20.613,4.78.658-12.938,10.475-13.451c8.228-.43,11.931,3.768,12.915,5.142-1.1-1.735-4.99-8.5-2.894-14.581,1.631-4.722,4.21-4.949,5.736-4.582-3.267-1.4-11.739-5.625-10.423-11.407,1.625-7.139,8.763-5.514,8.763-5.514s-5.258-3.849-1.682-6.7,5.718-.163,5.718-.163S50.68,299.2,60.445,298.249c-1.264-4.2-1.689-9.736,2.026-14.6a12.846,12.846,0,0,1,3.238-3.092c-1.607-2-2.521-4.338-1.473-6.766,2.952-6.847,7.645-6.446,7.645-6.446S60.02,254.782,67.6,244.3s17.695-5.165,17.695-5.165-2.038-5.462.507-7.6,7.54-3.534,7.54-3.534-6.661-1.817-5.788-7.174c.781-4.775,4.228-4.443,4.961-4.32-.832-.181-5.066-1.316-3.685-5.724,1.531-4.88,7.54-3.529,7.54-3.529s-13.649-12.857-8.624-21.189,22.319-8.81,22.319-8.81-5.968-8.3,2.079-19.437,15.3-12.885,15.3-12.885a22.185,22.185,0,0,1,1.444-3.087c-2.37-2.008-3.721-4.978-2.562-9.363,3.6-13.648,12.338-7.75,12.338-7.75s-6.155-23.454,5.206-24.764,14.953,14.964,14.953,14.964,7.406-10.638,16.013-5.875c7.208,3.989,8.128,9.509,8.239,11.2-.018-2.055.262-9.846,5.258-13.9,3.884-3.15,6.19-1.98,7.29-.862-2.032-2.911-6.987-10.981-2.812-15.191,5.054-5.089,10.137-.25,10.347-.047-.088-.238-2.324-6.056,2.125-6.568,4.542-.524,4.938,2.882,4.938,2.882s3.662-7.395,10.365-6.527c3.662-6.056,11.045-6,11.045-6s-5.828-7.11,4.822-14.092S251.725,63.6,251.725,63.6a19.758,19.758,0,0,1,5.822-8.711,15.429,15.429,0,0,1,1.479-6.393c6.435-14.452,22.29-8.21,22.855-7.989-.466-.309-10.417-7.057-3.249-14.19,7.179-7.151,15.873-.088,16.234.209-.314-.512-10.807-17.579,2.481-21.672,13.485-4.163,13.1,6.37,13.1,6.37S327.1-6.413,334.217,2.531s-4.781,20.607-4.781,20.607,12.938.658,13.451,10.481c.425,8.228-3.767,11.931-5.142,12.915,1.735-1.1,8.5-4.99,14.581-2.894,4.722,1.631,4.949,4.21,4.582,5.736,1.4-3.267,5.619-11.739,11.407-10.423,7.139,1.625,5.509,8.763,5.509,8.763s3.854-5.258,6.7-1.682.162,5.717.162,5.717,10.924-1.071,11.879,8.694c4.2-1.263,9.736-1.689,14.6,2.026,5.834,4.449,4.809,9.3,3.208,12.321a12.866,12.866,0,0,1,4.554-.838c11.051-.163,10.644,12.839,10.644,12.839s5.118-7.4,9.5-3.575,2.032,6.091,2.032,6.091,5.037-2.76,7.8,2.276a6.9,6.9,0,0,1-1.222,8.531s2.684-.483,4.384,3.82c1.526,3.848-.32,5.357-.728,5.636.583-.361,4.222-2.5,6.01-1.98,0,0,2.6-6.009,8.449-4.3a7.958,7.958,0,0,1,5.927,7.232s6.1-2.032,9.183,4.792-5.287,16.654-5.287,16.654,2.684-.489,3.9,1.135a9.076,9.076,0,0,1,1.543,3.412s3.086-3.33,7.144-1.3,2.679,9.672,2.679,9.672,10.889-11.209,20.392-4.63,6.987,18.115,1.787,19.984c0,0-4.879,3.657-1.06,9.422,0,0,11.046-.158,14.377,13.084a16.464,16.464,0,0,1-7.64,18.924s8.851,3.01,11.366,11.779-.489,17.632-.489,17.632,17.958-7.878,27.618,9.753S538.534,266.585,538.534,266.585Z" fill="url(#b)"/>
    <path d="M400.523,1011.555s-26.2-168.562-26.2-343.238H397.9s13.974,239.306,54.15,343.238Z" fill="url(#c)"/>
    <path d="M642.375,372.1c-6.283,9.543-21.073,1.863-21.073,1.863s3.4,12.5-5.77,16.048c-7.686,2.963-12.513.128-13.876-.868,1.59,1.3,7.384,6.516,7.284,12.95-.075,5-2.457,6.015-4.017,6.143,3.534.309,12.9,1.689,13.45,7.6.676,7.284-6.614,7.96-6.614,7.96s6.195,2.026,3.68,5.846c-2.44,3.7-5.2,2.043-5.369,1.939.128.3,4.268,10.1-4.577,13.986,2.5,3.6,4.63,8.729,2.615,14.511-1.491,4.285-3.942,6.119-6.394,6.76.088.221.175.437.257.67,4.017,11.238-5.6,13.456-5.6,13.456s11.832,7.4,8.158,13.882-8.3,5.584-8.3,5.584,10.446,13.765,1.788,23.373-18.15,3.231-18.15,3.231,1.438,5.648-1.328,7.506-7.872,2.7-7.872,2.7,6.428,2.527,4.978,7.756c-1.292,4.664-4.681,3.965-5.391,3.761.8.268,4.891,1.858,3.039,6.085-2.015,4.617-7.7,2.76-7.867,2.708.3.349,12.106,14.341,6.289,21.987-5.9,7.75-23.14,6.352-23.14,6.352s5.037,8.9-4.163,19.105-16.589,11.157-16.589,11.157-5.078,10.51-13.341,9.829a19.612,19.612,0,0,1-3.633,2.76c9.083,16.35-7.267,21.8-7.267,21.8,0,16.345-13.625,14.528-13.625,14.528-3.558,9.788-14.091,6.5-14.517,6.364.292.175,6.26,3.937,2.714,16.345-3.634,12.711-20.892,10.895-20.892,10.895s-3.634,25.434-22.7,19.075-14.533-25.434-14.533-25.434-8.17,4.542-17.254,3.634-13.625-9.078-13.625-9.078A16.459,16.459,0,0,1,371.9,697.765c-13.625-.908-15.442-11.8-15.442-11.8-6.358-2.725-9.084,2.72-9.084,2.72-.908,5.45-11.808,9.992-19.978,1.816-8.058-8.053.652-20.525.9-20.88-.268.093-7.314,2.649-9.986-.914-2.725-3.634,0-7.267,0-7.267a9.049,9.049,0,0,1-3.634-.909c-1.816-.908-1.816-3.633-1.816-3.633s-8.176,9.992-15.437,8.175-6.358-8.175-6.358-8.175a7.967,7.967,0,0,1-8.175-4.542c-2.726-5.444,2.725-9.078,2.725-9.078-.821-1.653.593-5.537.861-6.242-.233.507-1.42,2.492-5.4,1.7-4.542-.908-4.542-3.633-4.542-3.633a6.9,6.9,0,0,1-8.175,2.725c-5.316-1.77-3.721-7-3.64-7.255-.133.186-1.979,2.579-6.346-.92-4.234-3.383.989-9.125,1.729-9.9l-.035-.07c-1.281.245-12.7,2.091-14.411-8.193a11.1,11.1,0,0,1,5.6-12.111c-.378-1.531-.553-2.713-.553-2.713s-2.644,6.381-7.843,4.838c-4.641-1.38-3.878-4.751-3.663-5.467-.279.8-1.945,4.862-6.143,2.934-4.647-2.137-2.55-7.924-2.55-7.924s-14.476,11.919-22.11,5.881-5.921-23.251-5.921-23.251-8.991,4.874-19.024-4.513-10.853-16.8-10.853-16.8a23.043,23.043,0,0,1-2.877-1.822c-2.294,2.1-5.409,3.069-9.613,1.362-13.084-5.3-6.132-13.217-6.132-13.217s-24.048,3.144-23.914-8.286,16.729-12.95,16.729-12.95-9.614-8.688-3.8-16.624c4.862-6.644,10.457-6.865,12.14-6.761-2.038-.244-9.736-1.5-13.125-6.969-2.631-4.245-1.176-6.388.065-7.337-3.139,1.648-11.774,5.549-15.425.873-4.379-5.613.961-10.033,1.252-10.271-.315.075-6.3,1.514-6.242-2.935.058-4.5,3.371-4.536,3.482-4.536-.315-.215-9.526-6.545-3.249-14.9,6.387-8.495,11.471-3.295,11.471-3.295a12.205,12.205,0,0,1-1.1-3.511c-.017-.053-.041-.1-.058-.152-3.529-10.469,8.967-14.056,8.967-14.056s-8.6-2.615-6.306-7.954c2.183-5.1,4.914-3.925,5.159-3.808-.291-.3-4-4.105-.2-8.111a6.9,6.9,0,0,1,8.5-1.45s-1.281-2.4,2.294-5.345c3.173-2.6,5.165-1.352,5.578-1.037-.536-.466-3.662-3.249-3.709-5.107,0,0-6.522-.634-6.685-6.725a7.963,7.963,0,0,1,5.072-7.855s-3.8-5.182,1.753-10.207,17.474-.065,17.474-.065-1.287-2.4-.111-4.064a9.021,9.021,0,0,1,2.778-2.51s-4.117-1.921-3.424-6.41,8.379-5.509,8.379-5.509-14-6.935-10.638-17.992,15.11-12.193,18.476-7.815c0,0,4.972,3.523,9.3-1.875,0,0-3.535-10.469,8.053-17.689a16.461,16.461,0,0,1,20.356,1.485s.152-9.352,7.739-14.435,16.932-4.926,16.932-4.926-13-14.68.833-29.277,29.015,6.125,29.015,6.125,14.365-9.73,23.559-.227a28.256,28.256,0,0,1,3.465,4.28c6.12-2.83,9.631.669,9.631.669s-2-9.986,4-11.983a10.034,10.034,0,0,1,9.986,2s-2-9.986,9.987-9.986c9.095,0,10.137,3.453,10.108,5.118.472-2.072,2.748-7.115,13.858-7.115,13.981,0,13.981,11.983,13.981,11.983s2-7.989,7.989-9.986,11.983,2,11.983,2-7.989-11.983,0-21.969,23.973-4,23.973-4-19.979-23.966-5.992-37.953,37.947,8,37.947,8,0-13.986,15.978-11.989,9.986,37.953,9.986,37.953,9.986-5.992,19.978,9.986-2,29.958-2,29.958,21.97-9.986,29.959,4c3.33,5.835,2.492,14.784.384,23.245,12.315-3,15.972,8.449,15.972,8.449s4.943-7.75,14.895.2,1.281,15.657,1.281,15.657a19.751,19.751,0,0,1,10.085,2.824,15.47,15.47,0,0,1,6.539-.582c16.018,1.648,14.7,19.256,14.7,19.256s3.255-12.228,12.478-7.523c9.084,4.635,4.973,15.18,4.85,15.5.3-.355,13.311-15.785,21.37-4.4,8.152,11.529-1.974,14.441-1.974,14.441S648.664,362.551,642.375,372.1Z" fill="url(#d)"/>
  </g>
</svg>
