<svg xmlns="http://www.w3.org/2000/svg" xmlns:xlink="http://www.w3.org/1999/xlink" width="658.284" height="847.672" viewBox="0 0 658.284 847.672">
  <defs>
    <linearGradient id="a" x1="280.539" y1="251.778" x2="726.535" y2="251.778" gradientTransform="translate(-35.112 61.138) rotate(6.066)" gradientUnits="userSpaceOnUse">
      <stop offset="0" stop-color="#5a8539"/>
      <stop offset="1" stop-color="#46952f"/>
    </linearGradient>
    <linearGradient id="b" x1="50.705" y1="165.478" x2="496.701" y2="165.478" xlink:href="#a"/>
    <linearGradient id="c" x1="233.307" y1="683.477" x2="373.568" y2="683.477" gradientUnits="userSpaceOnUse">
      <stop offset="0" stop-color="#66421f"/>
      <stop offset="1" stop-color="#754c24"/>
    </linearGradient>
    <linearGradient id="d" x1="83.861" y1="297.83" x2="584.834" y2="297.83" gradientTransform="matrix(1, 0, 0, 1, 0, 0)" xlink:href="#a"/>
  </defs>
  <title>Tree_6</title>
  <g>
    <path d="M655.274,401.961c-11.18-16.709-28.37-7.282-28.37-7.282s2.215-9.084-1.065-17.6-12.364-10.733-12.364-10.733a16.464,16.464,0,0,0,5.942-19.526c-4.483-12.9-15.473-11.763-15.473-11.763-4.311-5.41.223-9.48.223-9.48,5.014-2.318,6.509-14.03-3.538-19.748s-19.9,6.405-19.9,6.405.7-7.728-3.52-9.394-7.007,1.924-7.007,1.924a9.048,9.048,0,0,0-1.838-3.263c-1.356-1.511-3.984-.79-3.984-.79s7.47-10.527,3.8-17.053-9.566-3.967-9.566-3.967a7.97,7.97,0,0,0-6.243-6.6c10.472-15.153-5.063-22.236-5.063-22.236,1.728-16.257-12.011-15.89-12.011-15.89-2.557-10.318-13.779-7.857-13.779-7.857s6.706-2.941,4.437-15.969-19.621-13.045-19.621-13.045-.925-25.671-20.563-21.365-17.137,23.752-17.137,23.752-7.648-5.379-16.776-5.435-14.506,7.591-14.506,7.591a16.464,16.464,0,0,0-16.008-12.661c-13.643-.536-16.6,10.11-16.6,10.11-6.61,2.037-8.744-3.669-8.744-3.669-.327-5.515-10.685-11.182-19.677-3.918s-1.3,20.868-1.3,20.868-6.937-3.477-10.03-.152-.768,7.225-.768,7.225a9.049,9.049,0,0,0-3.708.519c-1.9.711-2.191,3.421-2.191,3.421s-7.072-10.8-14.489-9.76-7.186,7.456-7.186,7.456a7.965,7.965,0,0,0-8.608,3.652c-3.285,5.131,1.75,9.32,1.75,9.32-1.033,1.613.087,5.89.218,6.369-.1-.355-.945-2.725-5.214-2.334-4.611.424-4.9,3.133-4.9,3.133a6.9,6.9,0,0,0-7.841-3.573c-5.61,1.231-4.38,6.841-4.38,6.841s-1.518-2.9-6.418.232.751,10.126.751,10.126-7.74-2.533-12.434,1.69c-12.1,4.054-10.98,12.85-10.98,12.85s-30.52-19.926-38.766-6.095,4.558,19.447,4.558,19.447-29.747,13.127-22.557,31.547a16.627,16.627,0,0,0,8.547,9.151c-6.462,5.091-3.155,16.189-3.155,16.189s-4.816,5.687-4.733,19.429,9.8,16.917,9.8,16.917-13.679,10.591-12.813,20.286,19.473,12.009,19.473,12.009-5.644,2.458-4,7.3c1.487,4.373,5.577,2.792,6.353,2.446-.665.331-3.64,2.1-1.45,6.416,1.987,3.914,6.592,3.046,8.275,2.573a10.193,10.193,0,0,0-.427,1.258,20.223,20.223,0,0,0-2.939,5.84c-.789,3.239,4.08,6.443,4.08,6.443s-11.307,1.684-11.229,14.618,17.072,16.065,17.072,16.065-4.027,2.449-2.367,9.714c1.244,5.443,9.261,5.4,13.2,5.037a9.828,9.828,0,0,0,.892,2.905c-.614,2.875-.126,7.158,6.224,10.529,5.713,3.032,9.261,1.8,11.315.041a6.8,6.8,0,0,0,5.635,7.383c5.778,1.342,10.04-7.116,11.449-10.372-.37,1.522-.157,4.1,4.562,5.751,6.073,2.123,12.849-1.734,14.589-2.829-1.378.98-5.588,4.665-5.2,12.893.467,9.823,13.406,10.537,13.406,10.537s-11.953,11.612-4.874,20.588,23.805-8.584,23.805-8.584-.43,10.531,13.078,6.429c4.342-1.318,6.155-4.029,6.619-7.1a22.893,22.893,0,0,0,3.388-.391s5.292,5.248,19,6.245,17.634-8.443,17.634-8.443,9.484,14.469,19.217,14.366c8.6-.09,12.541-14.435,13.342-17.773.186.07.374.143.559.211.8,1.582,2.86,4.594,6.563,3.652a5,5,0,0,0,2.013-.97c12.9,3.284,23.244,2.391,31.281-.231a16.8,16.8,0,0,0,6.386,1.656c8.938.65,13.82-7.163,15.977-12.025a16.06,16.06,0,0,0,5.535,7.766c0,.023,0,.044,0,.067.582,9.817,13.529,10.38,13.529,10.38s-11.816,11.75-4.632,20.643,23.7-8.862,23.7-8.862-.307,10.535,13.152,6.275c8.574-2.714,7.16-10.778,5-16.274a22.421,22.421,0,0,0,3.817-1.538c8.322,5.207,15.212-3.62,15.212-3.62s.626,9.714,11.941,9.928,12.306-9.47,12.306-9.47c18.573,1.159,13.282-18.345,13.282-18.345s4.955-5.566,5.215-19.306c.156-8.319-3.314-12.849-6.078-15.132a11.127,11.127,0,0,0,5.613-10.788c2.577-3.361,4.648-7.32,4.4-11.2a7.684,7.684,0,0,0-.9-3.128,15.651,15.651,0,0,0-2.046-5.2s5.186,5.169,16.486-1.7,4.98-23.029,4.98-23.029S666.453,418.67,655.274,401.961Z" fill="url(#a)"/>
    <path d="M435.846,291.858c-11.18-16.709-28.37-7.281-28.37-7.281s2.215-9.084-1.065-17.6-12.364-10.733-12.364-10.733a16.464,16.464,0,0,0,5.942-19.526c-4.482-12.9-15.473-11.764-15.473-11.764-4.311-5.409.223-9.479.223-9.479,5.015-2.318,6.509-14.03-3.538-19.749s-19.9,6.406-19.9,6.406.7-7.728-3.52-9.394-7.007,1.923-7.007,1.923a9.055,9.055,0,0,0-1.837-3.262c-1.357-1.512-3.985-.791-3.985-.791s7.471-10.527,3.8-17.052-9.566-3.967-9.566-3.967a7.97,7.97,0,0,0-6.243-6.6c10.472-15.154-5.063-22.237-5.063-22.237,1.728-16.256-12.011-15.889-12.011-15.889C313.305,114.538,302.083,117,302.083,117s6.706-2.941,4.437-15.968S286.9,87.986,286.9,87.986s-.926-25.672-20.563-21.365S249.2,90.373,249.2,90.373s-7.648-5.379-16.775-5.436-14.507,7.592-14.507,7.592a16.463,16.463,0,0,0-16.008-12.661c-13.643-.536-16.6,10.109-16.6,10.109-6.61,2.038-8.743-3.669-8.743-3.669-.328-5.515-10.686-11.182-19.678-3.917s-1.3,20.868-1.3,20.868-6.937-3.477-10.03-.153-.768,7.225-.768,7.225a9.04,9.04,0,0,0-3.708.52c-1.9.711-2.19,3.42-2.19,3.42s-7.073-10.8-14.49-9.759-7.186,7.456-7.186,7.456a7.965,7.965,0,0,0-8.608,3.652c-3.285,5.131,1.75,9.319,1.75,9.319-1.033,1.614.088,5.89.218,6.37-.1-.356-.945-2.726-5.214-2.334-4.611.423-4.9,3.133-4.9,3.133a6.9,6.9,0,0,0-7.84-3.573c-5.611,1.23-4.381,6.841-4.381,6.841s-1.518-2.9-6.418.231.751,10.127.751,10.127-7.74-2.533-12.434,1.689c-12.1,4.055-10.98,12.85-10.98,12.85s-30.52-19.926-38.766-6.094,4.558,19.447,4.558,19.447S-4.8,186.753,2.391,205.172a16.632,16.632,0,0,0,8.547,9.152c-6.462,5.09-3.155,16.188-3.155,16.188S2.967,236.2,3.05,249.942s9.8,16.917,9.8,16.917S-.827,277.449.04,287.144s19.472,12.009,19.472,12.009-5.643,2.459-4,7.3c1.487,4.374,5.577,2.793,6.353,2.447-.665.33-3.64,2.1-1.449,6.416,1.986,3.914,6.591,3.046,8.274,2.573a10.193,10.193,0,0,0-.427,1.258,20.222,20.222,0,0,0-2.939,5.84c-.789,3.238,4.08,6.442,4.08,6.442S18.1,333.113,18.177,346.046s17.072,16.065,17.072,16.065-4.027,2.449-2.367,9.715c1.244,5.443,9.261,5.4,13.2,5.037a9.821,9.821,0,0,0,.892,2.9c-.614,2.876-.126,7.159,6.224,10.529,5.713,3.033,9.261,1.8,11.315.042a6.8,6.8,0,0,0,5.635,7.382c5.778,1.342,10.041-7.116,11.449-10.371-.37,1.521-.157,4.1,4.562,5.751,6.073,2.123,12.849-1.735,14.589-2.83-1.377.98-5.588,4.665-5.2,12.893.467,9.823,13.406,10.538,13.406,10.538s-11.953,11.611-4.874,20.587,23.806-8.583,23.806-8.583-.43,10.531,13.078,6.429c4.341-1.319,6.154-4.03,6.618-7.1a23.059,23.059,0,0,0,3.388-.391s5.292,5.248,19,6.245,17.634-8.443,17.634-8.443,9.484,14.468,19.217,14.366c8.6-.091,12.541-14.435,13.342-17.773l.559.211c.8,1.582,2.86,4.593,6.563,3.651a5,5,0,0,0,2.013-.969c12.9,3.283,23.244,2.39,31.281-.232a16.821,16.821,0,0,0,6.386,1.657c8.938.65,13.82-7.163,15.978-12.025a16.059,16.059,0,0,0,5.534,7.766c0,.022,0,.044,0,.067.583,9.816,13.529,10.379,13.529,10.379s-11.816,11.751-4.632,20.643,23.7-8.862,23.7-8.862-.307,10.536,13.152,6.275c8.575-2.714,7.16-10.777,5-16.273a22.421,22.421,0,0,0,3.817-1.538c8.322,5.206,15.213-3.62,15.213-3.62s.625,9.714,11.94,9.927,12.306-9.47,12.306-9.47c18.573,1.159,13.282-18.345,13.282-18.345s4.956-5.566,5.215-19.3c.157-8.32-3.314-12.85-6.077-15.133a11.127,11.127,0,0,0,5.612-10.788c2.577-3.361,4.648-7.32,4.4-11.2a7.678,7.678,0,0,0-.905-3.128,15.64,15.64,0,0,0-2.046-5.2s5.186,5.169,16.486-1.7,4.98-23.029,4.98-23.029S447.025,308.568,435.846,291.858Z" fill="url(#b)"/>
    <path d="M235.054,847.672S263,814.484,263,735.88s-29.7-214.852-29.7-214.852h17.467s43.669,137.121,51.53,232.319,51.529-75.984,51.529-234.065H371.3s14.847,251.533-31.442,328.39Z" fill="url(#c)"/>
    <path d="M566.129,390.871s3.2,17.055-9.176,21.7c-11.99,4.507-16.246-1.019-16.508-1.374.192.46,4.274,10.65-5.171,14.982,0,0,2.842,13.137-12.874,14.7,2.882,13.1-15.075,20.9-15.075,20.9s6.317,16.164-4.985,23.029c-10.941,6.656-16.152,2.015-16.467,1.724a15.845,15.845,0,0,1,2.032,5.176,7.79,7.79,0,0,1,.9,3.127c.25,3.878-1.823,7.838-4.4,11.2a11.138,11.138,0,0,1-5.613,10.789c2.76,2.283,6.23,6.813,6.073,15.134-.256,13.736-5.212,19.3-5.212,19.3s5.293,19.507-13.281,18.348c0,0-.99,9.683-12.31,9.468s-11.937-9.928-11.937-9.928-6.894,8.828-15.215,3.622a22.469,22.469,0,0,1-3.814,1.537c2.155,5.5,3.57,13.556-5.007,16.275-13.457,4.256-13.148-6.277-13.148-6.277s-16.52,17.754-23.7,8.862,4.629-20.642,4.629-20.642-12.944-.564-13.526-10.382a.215.215,0,0,0-.006-.064,16.079,16.079,0,0,1-5.532-7.767c-2.16,4.862-7.04,12.676-15.978,12.024a16.891,16.891,0,0,1-6.387-1.654c-8.036,2.62-18.377,3.511-31.28.227a4.981,4.981,0,0,1-2.015.973c-3.7.943-5.759-2.073-6.562-3.651-.181-.07-.373-.146-.559-.216-.8,3.343-4.74,17.684-13.341,17.777-9.735.1-19.215-14.365-19.215-14.365s-3.93,9.439-17.637,8.443-18.994-6.247-18.994-6.247a23.091,23.091,0,0,1-3.389.39c-.466,3.074-2.277,5.782-6.621,7.1-13.509,4.1-13.078-6.435-13.078-6.435s-16.723,17.562-23.8,8.589,4.873-20.59,4.873-20.59-12.938-.716-13.41-10.539c-.39-8.228,3.82-11.913,5.2-12.892-1.741,1.1-8.519,4.956-14.592,2.83-4.716-1.648-4.932-4.227-4.559-5.753-1.409,3.255-5.672,11.716-11.448,10.371a6.792,6.792,0,0,1-5.636-7.378c-2.056,1.759-5.6,2.987-11.314-.046-6.353-3.366-6.842-7.651-6.225-10.528a9.7,9.7,0,0,1-.891-2.906c-3.947.367-11.96.408-13.206-5.036-1.659-7.261,2.364-9.713,2.364-9.713s-16.991-3.132-17.066-16.065,11.226-14.615,11.226-14.615-4.868-3.209-4.082-6.446a20.365,20.365,0,0,1,2.941-5.84,10.537,10.537,0,0,1,.425-1.258c-1.683.472-6.283,1.345-8.274-2.574-2.114-4.169.594-5.962,1.374-6.382-.926.4-4.827,1.771-6.277-2.48-1.642-4.839,4-7.3,4-7.3s-18.61-2.318-19.471-12.013,12.81-20.286,12.81-20.286-9.718-3.174-9.8-16.916,4.734-19.43,4.734-19.43-3.307-11.1,3.15-16.188a16.6,16.6,0,0,1-8.542-9.147c-3.866-9.9,2.941-18.272,10.062-23.9a13.718,13.718,0,0,1-1.957-3.04c-4.506-9.468,6.05-14.493,7.133-14.982v-.064c-.972-.192-8.647-1.9-7.109-7.127,1.578-5.369,4.466-4.466,4.681-4.391-.244-.192-4.5-3.557-1.17-8.035a6.9,6.9,0,0,1,8.251-2.451c-.088-.134-1.45-2.33,1.653-5.573,2.79-2.917,4.9-1.985,5.387-1.706-.658-.454-4-2.807-4.269-4.617,0,0-6.544.145-7.429-5.887a7.959,7.959,0,0,1,4.1-8.4s-4.385-4.693.53-10.341,17.34-2.137,17.34-2.137-1.56-2.236-.594-4.018a9.1,9.1,0,0,1,2.463-2.83s-4.314-1.415-4.163-5.956,7.669-6.464,7.669-6.464-14.726-5.223-12.706-16.606,13.556-13.9,17.422-9.952c0,0,5.357,2.912,9.008-2.963,0,0-4.752-9.975,5.9-18.523a16.455,16.455,0,0,1,20.386-.943s-.961-9.305,5.968-15.25,16.229-6.9,16.229-6.9-14.645-13.037-2.65-29.172,29.534,2.637,29.534,2.637a26.93,26.93,0,0,1,2.766-2.014c-2.149-2.376-3.191-7.221,6.888-16.036,0,0-7.989-9.987,2-19.973s15.978-3.994,15.978-3.994-2-9.986,3.994-11.984a10.035,10.035,0,0,1,9.987,2s-2-9.986,9.986-9.986c9.1,0,10.137,3.452,10.108,5.112.472-2.073,2.748-7.11,13.858-7.11,13.987,0,13.987,11.984,13.987,11.984s2-7.989,7.989-9.986,11.983,2,11.983,2-7.989-11.984,0-21.976S351.407,42.6,351.407,42.6s-19.972-23.967-5.992-37.947,37.948,7.989,37.948,7.989,0-13.981,15.983-11.984c4.42.553,7.162,3.709,8.81,7.989,11.034,1.159,9.328,10.417,9.328,10.417s11.5-7.907,15.984-1.956,1.817,9.834,1.817,9.834,16.787-4.1,22.15,7.669-4.263,17.934-4.263,17.934,5.753.932,6.359,4.21c.594,3.2-.606,8.077-.652,8.286.221-.215,4.972-4.8,9.089-1.473,3.639,2.935,1.9,5.683,1.357,6.382.7-.751,3.692-3.581,6.748-.3,3.483,3.744-.663,8.3-.663,8.3s17.922-5.5,22.68,2.987-3.383,23.751-3.383,23.751,10.166-1.077,15.867,11.424,3.633,19.664,3.633,19.664a22.945,22.945,0,0,1,1.962,2.783c2.918-1.065,6.167-.774,9.41,2.405,10.079,9.887.629,14.557.629,14.557s23.431,6.254,18.953,16.776-20.4,5.595-20.4,5.595,5.578,11.7-2.818,16.817c-7.028,4.291-12.28,2.364-13.806,1.624,1.8,1,8.431,5.1,9.485,11.448.816,4.932-1.351,6.353-2.859,6.76,3.529-.326,13-.64,14.592,5.072,1.968,7.051-5.083,9.02-5.083,9.02s6.452.885,4.664,5.089-4.949,2.864-4.949,2.864,6.475,9.591-2.667,15.018a16.545,16.545,0,0,1-4.018,1.77,8.866,8.866,0,0,1,.478,2.009s3.4-3.011,7.243-.589,1.712,9.888,1.712,9.888,11.937-10.08,20.747-2.6,5.165,18.72-.192,20.065c0,0-5.212,3.156-1.986,9.27,0,0,11.011.932,13.02,14.435a16.462,16.462,0,0,1-9.468,18.08s8.513,3.866,10.155,12.845c1.607,8.821-2.1,17.189-2.224,17.486.454-.14,18.737-5.835,26.517,12.437C591.179,385.193,566.129,390.871,566.129,390.871Z" fill="url(#d)"/>
  </g>
</svg>
