<svg xmlns="http://www.w3.org/2000/svg" xmlns:xlink="http://www.w3.org/1999/xlink" width="617.815" height="808.955" viewBox="0 0 617.815 808.955">
  <defs>
    <linearGradient id="a" y1="266.812" x2="418.584" y2="266.812" gradientUnits="userSpaceOnUse">
      <stop offset="0" stop-color="#5a8539"/>
      <stop offset="1" stop-color="#46952f"/>
    </linearGradient>
    <linearGradient id="b" x1="182.41" y1="278.471" x2="617.815" y2="278.471" xlink:href="#a"/>
    <linearGradient id="c" x1="150.672" y1="675.988" x2="322.426" y2="675.988" gradientUnits="userSpaceOnUse">
      <stop offset="0" stop-color="#66421f"/>
      <stop offset="1" stop-color="#754c24"/>
    </linearGradient>
    <linearGradient id="d" x1="127.978" y1="233.976" x2="573.974" y2="233.976" gradientTransform="translate(-43.074 133.989) rotate(6.066)" xlink:href="#a"/>
  </defs>
  <title>Tree_9</title>
  <g>
    <path d="M398.605,315.975s1.934,17.241-10.76,20.962c-12.379,3.628-16.182-2.317-16.357-2.609.14.426,3.494,10.942-6.271,14.563,0,0,1.829,13.113-13.578,13.7a8.727,8.727,0,0,1-1.846,2.253c-1.27,2.4-3.843,6.05-8.216,7.372a4.237,4.237,0,0,1-1.392,4.856c-4.367,3.5-6.213,1.106-6.347.92.082.256,1.677,5.485-3.639,7.255a6.9,6.9,0,0,1-8.175-2.725s0,2.725-4.542,3.634c-3.983.791-5.171-1.194-5.4-1.7.268.711,1.683,4.595.862,6.242,0,0,5.45,3.634,2.725,9.084a7.967,7.967,0,0,1-8.175,4.542s.908,6.352-6.359,8.169-15.436-8.169-15.436-8.169,0,2.719-1.817,3.627a9.043,9.043,0,0,1-3.633.909s2.725,3.633,0,7.267c-2.673,3.563-9.718,1.007-9.986.914.25.355,8.961,12.828.9,20.886-8.175,8.17-19.069,3.634-19.978-1.816,0,0-2.725-5.451-9.083-2.726,0,0-1.817,10.895-15.443,11.8A16.46,16.46,0,0,1,209.4,434.289s-4.541,8.175-13.625,9.083-17.253-3.633-17.253-3.633,4.542,19.07-14.534,25.428-22.7-19.075-22.7-19.075S124.03,447.908,120.4,435.2c-3.546-12.408,2.422-16.17,2.713-16.344-.425.134-10.964,3.423-14.516-6.365,0,0-13.625,1.817-13.625-14.528,0,0-16.351-5.45-7.267-21.8,0,0-8.775-4.787-8.874-13.835-4.839-3.843-4.8-10.208-4.8-10.208s-7.11,5.829-14.092-4.821,3.651-15.279,3.651-15.279a19.7,19.7,0,0,1-8.7-5.823,15.381,15.381,0,0,1-6.393-1.479c-14.452-6.434-8.21-22.29-7.989-22.855-.309.466-7.057,10.417-14.19,3.25-7.151-7.18-.088-15.873.209-16.235-.512.315-17.579,10.808-21.672-2.474-4.164-13.492,6.37-13.107,6.37-13.107S-6.413,256.64,2.531,249.525s20.607,4.786,20.607,4.786.658-12.944,10.481-13.456a20.474,20.474,0,0,1,2.236.011,17.631,17.631,0,0,1,7.25-4.2,12.188,12.188,0,0,1,.535-5.24,8.483,8.483,0,0,1,2.213-3.7,5.7,5.7,0,0,1-3.43-3.493,4.1,4.1,0,0,1-.238-1.677c-2.23-1.922-3.867-4.344-3.232-7.128a8.653,8.653,0,0,1,.309-1.065c-4.28-1.206-8.944-3.849-10.173-9.619-2.4-11.308,7.343-17.975,12.4-15.769,0,0,6.056.682,7.232-6.137,0,0-8.152-7.459-1.491-19.378a16.456,16.456,0,0,1,18.534-8.536s-4.379-8.263-.2-16.374,12.449-12.49,12.449-12.49-18.47-6.58-13.415-26.04S92.96,91.36,92.96,91.36s7.878-15.46,20.519-11.582,12.228,11.186,12.228,11.186,2.888-11.116,13.247-8.723c0,0,5.893-12.414,19.606-3.511,0,0,8.8-7.022,16.81-.978,4.1-.134,8.367,2.16,11.884,4.809a14.705,14.705,0,0,1,10.936,2.7c2.422-2.556,6.609-5.217,13.614-5.45,13.735-.46,19.552,4.2,19.552,4.2a22.825,22.825,0,0,1,3.325-.745c.14-3.1,1.654-5.991,5.835-7.762,13-5.5,13.683,5.014,13.683,5.014s14.773-19.227,22.762-11.052-2.667,20.991-2.667,20.991,12.938-.658,14.441,9.061c1.263,8.14-2.539,12.251-3.8,13.369,1.613-1.275,7.943-5.823,14.208-4.356.082.018.157.041.239.064a10.7,10.7,0,0,1,9.508-3.779c1.532-1.706,3.418-2.853,5.689-2.573,7.261.9,6.37,8.157,6.37,8.157s3.3-5.619,6.493-2.346c3.074,3.15.92,5.485.757,5.659.413-.075,11.36-2.084,12.822,8.246,1.083,7.616-2.428,9.677-4.455,10.23a5,5,0,0,1-.262.629c2.1.955,6.411,3.587,4.49,8.537a8.327,8.327,0,0,1-2.539,3.47c1.345-.344,2.9-.571,3.808-.128,0,0,3.593-5.474,9.06-2.783a7.975,7.975,0,0,1,4.6,8.146s6.347-.955,8.216,6.3-8.07,15.494-8.07,15.494c.105,0,2.742.018,3.645,1.794a9.058,9.058,0,0,1,.932,3.628s3.616-2.755,7.267-.053c3.581,2.649,1.071,9.718.978,9.98.355-.25,12.763-9.042,20.875-1.042,8.227,8.117,3.761,19.047-1.683,19.99,0,0-5.427,2.766-2.661,9.1,0,0,10.912,1.747,11.907,15.361a16.456,16.456,0,0,1-10.783,17.328s8.2,4.49,9.176,13.562S392,278.779,392,278.779s19.046-4.67,25.527,14.359S398.605,315.975,398.605,315.975Z" fill="url(#a)"/>
    <path d="M617.784,290.931c-.879,9.695-16.228,17.678-16.228,17.678s9,4.856,6.627,18.4-8.123,18.271-8.123,18.271a22.68,22.68,0,0,1,.046,3.407c3.011.774,5.526,2.847,6.4,7.3,2.725,13.852-7.71,12.367-7.71,12.367s15.786,18.406,6.143,24.544-19.99-6.918-19.99-6.918-2.014,12.8-11.832,12.28c-8.227-.436-11.47-5-12.3-6.469.914,1.84,4.07,8.973,1.345,14.8-2.114,4.53-4.705,4.483-6.178,3.959,3.092,1.73,11.081,6.819,9.165,12.432-2.306,6.755-8.944,4.682-9.282,4.571.251.239,4.7,4.449.955,6.83-3.854,2.457-5.7-.437-5.7-.437s-.07,9.34-7.779,10.732a12.734,12.734,0,0,1,.093,4.984c-1.817,10.9-14.534,8.175-14.534,8.175s6.359,6.359,1.817,9.992c-4.373,3.5-6.219,1.107-6.353.92.082.257,1.677,5.486-3.639,7.256a6.9,6.9,0,0,1-8.176-2.725s0,2.725-4.541,3.633c-3.977.792-5.165-1.2-5.4-1.7.268.7,1.683,4.588.862,6.236,0,0,5.444,3.633,2.719,9.084a7.955,7.955,0,0,1-8.169,4.541s.908,6.359-6.359,8.176-15.442-8.176-15.442-8.176,0,2.725-1.817,3.634a9.054,9.054,0,0,1-3.633.908s2.725,3.634,0,7.267c-2.667,3.564-9.713,1.007-9.981.914.251.355,8.956,12.822.9,20.881-8.175,8.175-19.076,3.633-19.984-1.817,0,0-2.725-5.45-9.084-2.725,0,0-1.816,10.9-15.436,11.809a16.467,16.467,0,0,1-17.259-10.9s-4.542,8.176-13.619,9.084-17.259-3.633-17.259-3.633,4.542,19.075-14.528,25.428-22.709-19.07-22.709-19.07-17.253,1.817-20.887-10.9c-3.546-12.4,2.423-16.164,2.714-16.339-.425.134-10.964,3.424-14.522-6.364,0,0-13.626,1.816-13.626-14.534,0,0-16.344-5.45-7.261-21.795,0,0-14.411-7.867-6.51-22.482-9.636-4.14-5.665-12.3-5.665-12.3s-13.2,4.548-15.931-2.381.873-9.963.873-9.963-17.271-.53-19.3-13.3,8.9-16.147,8.9-16.147-5.3-2.434-5.008-5.753c.285-3.266,2.766-7.68,2.841-7.814-.221.122-6.055,3.325-9.153-1.007-2.818-3.931-.146-6.132.46-6.563-.716.46-4.518,2.644-6.65-1.455-2.352-4.536,2.854-7.821,2.854-7.821s-18.744.525-21.062-8.932,9.6-21.987,9.6-21.987-10.091-1.671-12.245-15.244,1.747-19.92,1.747-19.92a22.845,22.845,0,0,1-1.153-3.208c-3.1.25-6.149-.9-8.426-4.827-7.075-12.217,3.278-14.2,3.278-14.2s-20.915-12.28-13.788-21.219,21.154.047,21.154.047-2.259-12.763,7.2-15.46c7.919-2.259,12.467,1,13.736,2.12-1.461-1.444-6.766-7.162-6.085-13.561.53-4.967,2.993-5.765,4.56-5.753-3.488-.629-12.7-2.848-12.712-8.781-.011-7.319,7.308-7.331,7.308-7.331s-5.986-2.58-3.139-6.155,5.532-1.438,5.532-1.438-3.68-10.976,6.58-13.759,11.081,4.442,11.081,4.442,1.013-5.6,5.089-6.672a3.921,3.921,0,0,1-1.438-1.5s-6.306,1.782-8.682-3.826a7.97,7.97,0,0,1,1.857-9.165s-5.427-3.435-2.09-10.143,16.24-6.434,16.24-6.434-2.073-1.77-1.584-3.744a9.024,9.024,0,0,1,1.671-3.348s-4.536-.291-5.526-4.723,5.794-8.186,5.794-8.186-15.57-1.346-16.479-12.869,9.62-16.869,14.354-14.021c0,0,5.916,1.467,7.971-5.136,0,0-7.11-8.461,1.042-19.407a16.472,16.472,0,0,1,19.489-6.056c-.1-.3-3.173-8.886,1.939-16.252,5.206-7.5,13.969-10.766,13.969-10.766s-17.456-8.932-9.9-27.565,29.242-4.886,29.242-4.886,9.823-14.306,21.853-8.81S344.583,13.94,344.583,13.94,348.892,3.3,358.849,7.016c0,0,7.465-11.541,19.9-.926,0,0,14.755-8.9,21.294,8.624,0,0,7.511-2.871,14.074.722a13.025,13.025,0,0,1,3.779-1.712c10.626-3.016,13.6,9.643,13.6,9.643s3.034-8.461,8.257-5.91,3.54,5.362,3.54,5.362,4.152-3.971,8.123.181a6.9,6.9,0,0,1,1.025,8.554s2.463-1.165,5.228,2.55c2.557,3.441.967,5.4.717,5.666.343-.356,3.412-3.541,5.327-3.5,0,0,.955-6.481,7.046-6.341a7.965,7.965,0,0,1,7.6,5.45s5.363-3.54,10.108,2.254-.792,17.45-.792,17.45,2.463-1.164,4.059.094a9.1,9.1,0,0,1,2.376,2.894s2.119-4.018,6.568-3.1,5.089,8.641,5.089,8.641,7.616-13.643,18.5-9.741,11.43,15.686,6.894,18.836c0,0-3.761,4.793,1.415,9.375,0,0,10.633-3.01,17.271,8.915a16.468,16.468,0,0,1-2.481,20.263s9.334.612,14.033,8.432,4.088,17.154,4.088,17.154,15.308-12.251,29.2,2.276-7.54,28.678-7.54,28.678,7.185,11.832,1.624,20.572a9.46,9.46,0,0,1-2.486,5.957c.128,0,13.957.017,14.295,7.424.338,7.447-4.064,9.136-4.064,9.136s16.164,6.114,13.934,18.854-13.661,12.379-13.661,12.379,4.222,4.024,2.865,7.069-5.235,6.469-5.235,6.469,6.79-1.275,8.339,3.925c1.351,4.513-1.689,5.782-2.51,6.032.949-.215,5.089-.908,5.753,3.558.757,5.06-5.235,6.469-5.235,6.469S618.658,281.236,617.784,290.931Z" fill="url(#b)"/>
    <path d="M319.41,543.02l-3.67.908c4.875,28.025-16.106,68-27.418,87-6.675-44.655-15.291-85.413-15.291-85.413H236.35s24.072,119.541,7.478,141.376-16.212-5.128-66.868,21.073-12.513,100.994-12.513,100.994l113.825-.555s-35.549-14.017-30.569-45.416c3.112-19.615,23.493,2.8,42.707-20.779,7.765-9.53,6.415-43.481,2.05-80.557,3.777-14.891,9.746-33.1,18.766-48.226C330.1,581.764,319.41,543.02,319.41,543.02Z" fill="url(#c)"/>
    <path d="M497.486,440.988c-11.18-16.709-28.37-7.281-28.37-7.281s2.215-9.084-1.065-17.6-12.364-10.733-12.364-10.733a16.464,16.464,0,0,0,5.942-19.526c-4.483-12.9-15.473-11.763-15.473-11.763-4.311-5.41.223-9.48.223-9.48,5.014-2.318,6.509-14.03-3.538-19.749s-19.9,6.406-19.9,6.406.7-7.728-3.52-9.394-7.007,1.924-7.007,1.924a9.048,9.048,0,0,0-1.838-3.263c-1.356-1.512-3.984-.79-3.984-.79s7.471-10.527,3.8-17.053-9.566-3.967-9.566-3.967a7.97,7.97,0,0,0-6.243-6.6c10.472-15.154-5.063-22.236-5.063-22.236,1.728-16.257-12.011-15.89-12.011-15.89-2.557-10.319-13.779-7.858-13.779-7.858s6.706-2.94,4.437-15.968-19.621-13.045-19.621-13.045-.925-25.672-20.563-21.365S310.839,239.5,310.839,239.5s-7.648-5.379-16.775-5.436-14.507,7.592-14.507,7.592A16.463,16.463,0,0,0,263.549,229c-13.643-.536-16.6,10.109-16.6,10.109-6.61,2.038-8.744-3.669-8.744-3.669-.327-5.514-10.685-11.182-19.677-3.917s-1.3,20.868-1.3,20.868-6.937-3.477-10.03-.153-.768,7.225-.768,7.225a9.04,9.04,0,0,0-3.708.52c-1.9.711-2.191,3.42-2.191,3.42s-7.072-10.8-14.489-9.759-7.186,7.456-7.186,7.456a7.965,7.965,0,0,0-8.608,3.652c-3.285,5.131,1.75,9.319,1.75,9.319-1.033,1.614.087,5.89.218,6.37-.1-.356-.945-2.726-5.214-2.334-4.611.423-4.9,3.133-4.9,3.133a6.9,6.9,0,0,0-7.841-3.573c-5.61,1.23-4.38,6.841-4.38,6.841s-1.518-2.9-6.418.231.751,10.127.751,10.127-7.74-2.533-12.434,1.689c-12.1,4.055-10.98,12.85-10.98,12.85s-30.52-19.926-38.766-6.094,4.558,19.447,4.558,19.447S56.841,335.883,64.031,354.3a16.629,16.629,0,0,0,8.547,9.152c-6.462,5.09-3.155,16.189-3.155,16.189s-4.816,5.687-4.733,19.429,9.8,16.917,9.8,16.917-13.679,10.59-12.813,20.286,19.473,12.008,19.473,12.008-5.644,2.459-4,7.3c1.487,4.374,5.577,2.793,6.353,2.447-.665.331-3.64,2.1-1.45,6.416,1.987,3.914,6.592,3.046,8.275,2.573a10.193,10.193,0,0,0-.427,1.258,20.21,20.21,0,0,0-2.939,5.84c-.789,3.238,4.08,6.442,4.08,6.442s-11.307,1.685-11.229,14.618,17.072,16.065,17.072,16.065-4.027,2.45-2.367,9.715c1.244,5.443,9.261,5.4,13.2,5.037a9.821,9.821,0,0,0,.892,2.9c-.614,2.876-.126,7.159,6.224,10.529,5.713,3.033,9.261,1.8,11.315.042a6.8,6.8,0,0,0,5.635,7.382c5.778,1.342,10.04-7.116,11.449-10.371-.37,1.521-.157,4.1,4.562,5.751,6.073,2.123,12.849-1.734,14.589-2.829-1.378.979-5.588,4.664-5.2,12.892.467,9.823,13.406,10.538,13.406,10.538s-11.953,11.611-4.874,20.587,23.8-8.583,23.8-8.583-.429,10.531,13.078,6.429c4.342-1.319,6.155-4.029,6.619-7.1a23.059,23.059,0,0,0,3.388-.391s5.292,5.248,19,6.245,17.634-8.443,17.634-8.443,9.484,14.468,19.217,14.366c8.6-.091,12.541-14.435,13.342-17.773l.559.211c.8,1.582,2.86,4.593,6.563,3.651a5,5,0,0,0,2.013-.969c12.9,3.283,23.244,2.39,31.281-.232a16.8,16.8,0,0,0,6.386,1.657c8.938.65,13.82-7.163,15.977-12.025a16.069,16.069,0,0,0,5.535,7.766c0,.022,0,.044,0,.067.582,9.816,13.529,10.379,13.529,10.379s-11.816,11.751-4.632,20.643,23.7-8.862,23.7-8.862-.307,10.536,13.152,6.275c8.574-2.713,7.16-10.777,5-16.273a22.421,22.421,0,0,0,3.817-1.538c8.322,5.206,15.212-3.62,15.212-3.62s.626,9.714,11.941,9.927,12.306-9.47,12.306-9.47c18.573,1.159,13.282-18.344,13.282-18.344s4.955-5.566,5.215-19.306c.156-8.32-3.314-12.85-6.078-15.132a11.128,11.128,0,0,0,5.613-10.789c2.577-3.361,4.648-7.32,4.4-11.195a7.684,7.684,0,0,0-.9-3.128,15.64,15.64,0,0,0-2.046-5.2s5.186,5.169,16.486-1.7,4.98-23.029,4.98-23.029S508.665,457.7,497.486,440.988Z" fill="url(#d)"/>
  </g>
</svg>
