<svg xmlns="http://www.w3.org/2000/svg" xmlns:xlink="http://www.w3.org/1999/xlink" width="652.48" height="820.256" viewBox="0 0 652.48 820.256">
  <defs>
    <linearGradient id="a" x1="217.075" y1="317.189" x2="652.48" y2="317.189" gradientUnits="userSpaceOnUse">
      <stop offset="0" stop-color="#5a8539"/>
      <stop offset="1" stop-color="#46952f"/>
    </linearGradient>
    <linearGradient id="b" x1="0" y1="297.83" x2="500.973" y2="297.83" xlink:href="#a"/>
    <linearGradient id="c" x1="129.972" y1="699.238" x2="388.816" y2="699.238" gradientUnits="userSpaceOnUse">
      <stop offset="0" stop-color="#66421f"/>
      <stop offset="1" stop-color="#754c24"/>
    </linearGradient>
    <linearGradient id="d" x1="160.172" y1="443.812" x2="606.168" y2="443.812" gradientTransform="translate(-34.17 -11.469) rotate(6.066)" xlink:href="#a"/>
  </defs>
  <title>Tree_11</title>
  <g>
    <path d="M652.449,329.648c-.879,9.695-16.228,17.678-16.228,17.678s9,4.857,6.626,18.395-8.123,18.272-8.123,18.272a22.567,22.567,0,0,1,.047,3.406c3.01.775,5.526,2.847,6.4,7.3,2.725,13.852-7.709,12.368-7.709,12.368s15.786,18.406,6.143,24.543-19.99-6.918-19.99-6.918S617.6,437.5,607.782,436.975c-8.227-.437-11.471-5-12.3-6.47.914,1.841,4.07,8.973,1.345,14.8-2.114,4.53-4.7,4.484-6.178,3.96,3.092,1.729,11.081,6.818,9.165,12.431-2.306,6.755-8.944,4.682-9.282,4.571.251.239,4.705,4.449.955,6.83-3.855,2.458-5.7-.436-5.7-.436s-.07,9.34-7.78,10.731a12.719,12.719,0,0,1,.094,4.985c-1.817,10.9-14.534,8.175-14.534,8.175s6.358,6.358,1.817,9.992c-4.373,3.5-6.219,1.106-6.353.92.081.256,1.677,5.485-3.639,7.255A6.9,6.9,0,0,1,547.213,512s0,2.725-4.542,3.633c-3.977.792-5.164-1.2-5.4-1.7.268.705,1.683,4.588.861,6.236,0,0,5.445,3.634,2.72,9.084a7.958,7.958,0,0,1-8.17,4.542s.909,6.358-6.358,8.175-15.442-8.175-15.442-8.175,0,2.725-1.817,3.633a9.046,9.046,0,0,1-3.633.909s2.725,3.633,0,7.266c-2.667,3.564-9.713,1.008-9.981.914.251.356,8.956,12.822.9,20.881-8.175,8.175-19.076,3.634-19.984-1.816,0,0-2.725-5.451-9.084-2.726,0,0-1.816,10.9-15.436,11.809a16.466,16.466,0,0,1-17.259-10.9s-4.542,8.175-13.619,9.083-17.259-3.633-17.259-3.633,4.541,19.076-14.528,25.428-22.709-19.07-22.709-19.07-17.253,1.817-20.887-10.9c-3.546-12.4,2.423-16.164,2.714-16.339-.425.134-10.965,3.424-14.522-6.364,0,0-13.626,1.817-13.626-14.534,0,0-16.345-5.45-7.261-21.8,0,0-14.411-7.866-6.51-22.482-9.637-4.14-5.665-12.3-5.665-12.3s-13.195,4.547-15.932-2.382.874-9.963.874-9.963-17.271-.529-19.3-13.3,8.9-16.147,8.9-16.147-5.3-2.434-5.007-5.753c.285-3.266,2.766-7.68,2.841-7.814-.221.123-6.055,3.325-9.153-1.007-2.818-3.93-.146-6.132.46-6.562-.716.46-4.519,2.643-6.65-1.456-2.352-4.536,2.853-7.82,2.853-7.82s-18.743.524-21.061-8.932,9.6-21.987,9.6-21.987-10.091-1.672-12.245-15.245,1.746-19.919,1.746-19.919a22.918,22.918,0,0,1-1.152-3.209c-3.1.251-6.149-.9-8.426-4.827-7.075-12.216,3.278-14.2,3.278-14.2s-20.915-12.28-13.788-21.218,21.154.046,21.154.046-2.259-12.763,7.2-15.459c7.919-2.26,12.467,1,13.736,2.119-1.462-1.444-6.766-7.162-6.085-13.561.53-4.967,2.993-5.765,4.559-5.753-3.488-.629-12.7-2.847-12.711-8.781-.012-7.319,7.308-7.331,7.308-7.331s-5.986-2.579-3.139-6.155,5.532-1.438,5.532-1.438-3.68-10.976,6.58-13.759,11.081,4.443,11.081,4.443,1.013-5.6,5.089-6.673a3.931,3.931,0,0,1-1.439-1.5s-6.306,1.782-8.681-3.825a7.97,7.97,0,0,1,1.857-9.165s-5.427-3.436-2.09-10.144,16.24-6.434,16.24-6.434-2.073-1.77-1.584-3.744a9.024,9.024,0,0,1,1.671-3.348s-4.536-.291-5.526-4.722,5.794-8.187,5.794-8.187-15.57-1.345-16.479-12.869,9.62-16.868,14.353-14.021c0,0,5.916,1.467,7.972-5.136,0,0-7.11-8.46,1.042-19.407a16.472,16.472,0,0,1,19.489-6.056c-.105-.3-3.173-8.886,1.939-16.251,5.206-7.5,13.969-10.767,13.969-10.767s-17.457-8.932-9.9-27.565,29.243-4.886,29.243-4.886,9.823-14.306,21.853-8.809,10.667,12.682,10.667,12.682,4.309-10.644,14.266-6.924c0,0,7.465-11.54,19.9-.926,0,0,14.756-8.9,21.3,8.624,0,0,7.511-2.87,14.073.722a13.05,13.05,0,0,1,3.779-1.712c10.627-3.016,13.6,9.643,13.6,9.643s3.033-8.461,8.256-5.91,3.541,5.363,3.541,5.363,4.151-3.972,8.122.18a6.9,6.9,0,0,1,1.025,8.554s2.463-1.165,5.229,2.55c2.556,3.442.967,5.4.716,5.666.344-.355,3.413-3.54,5.328-3.5,0,0,.955-6.481,7.046-6.341a7.965,7.965,0,0,1,7.6,5.45s5.362-3.54,10.108,2.254-.792,17.451-.792,17.451,2.463-1.165,4.059.093a9.087,9.087,0,0,1,2.375,2.894s2.12-4.018,6.569-3.1,5.089,8.641,5.089,8.641,7.616-13.643,18.5-9.741,11.43,15.687,6.894,18.837c0,0-3.762,4.792,1.415,9.374,0,0,10.632-3.01,17.27,8.915a16.469,16.469,0,0,1-2.48,20.264s9.334.611,14.033,8.431,4.088,17.154,4.088,17.154,15.308-12.251,29.2,2.277-7.541,28.677-7.541,28.677,7.186,11.832,1.625,20.572a9.46,9.46,0,0,1-2.486,5.957c.128,0,13.957.017,14.3,7.424.337,7.447-4.065,9.136-4.065,9.136s16.165,6.114,13.934,18.854-13.66,12.38-13.66,12.38,4.222,4.023,2.865,7.069-5.235,6.469-5.235,6.469,6.79-1.276,8.338,3.924c1.351,4.513-1.688,5.783-2.509,6.033.949-.216,5.089-.909,5.753,3.557.757,5.06-5.235,6.47-5.235,6.47S653.323,319.953,652.449,329.648Z" fill="url(#a)"/>
    <path d="M482.268,390.871s3.2,17.055-9.176,21.7c-11.99,4.507-16.246-1.019-16.508-1.374.192.46,4.274,10.65-5.171,14.982,0,0,2.842,13.137-12.874,14.7,2.882,13.1-15.075,20.9-15.075,20.9s6.317,16.164-4.985,23.029c-10.941,6.656-16.152,2.015-16.467,1.724a15.845,15.845,0,0,1,2.032,5.176,7.79,7.79,0,0,1,.9,3.127c.25,3.878-1.823,7.838-4.4,11.2a11.138,11.138,0,0,1-5.613,10.789c2.76,2.283,6.23,6.813,6.073,15.134-.256,13.736-5.212,19.3-5.212,19.3s5.293,19.507-13.281,18.348c0,0-.99,9.683-12.31,9.468s-11.937-9.928-11.937-9.928-6.894,8.828-15.215,3.622a22.469,22.469,0,0,1-3.814,1.537c2.155,5.5,3.57,13.556-5.007,16.275-13.457,4.256-13.148-6.277-13.148-6.277s-16.52,17.754-23.7,8.862,4.629-20.642,4.629-20.642-12.944-.564-13.526-10.382a.215.215,0,0,0-.006-.064,16.079,16.079,0,0,1-5.532-7.767c-2.16,4.862-7.04,12.676-15.978,12.024a16.891,16.891,0,0,1-6.387-1.654c-8.036,2.62-18.377,3.511-31.28.227a4.981,4.981,0,0,1-2.015.973c-3.7.943-5.759-2.073-6.562-3.651-.181-.07-.373-.146-.559-.216-.8,3.343-4.74,17.684-13.341,17.777-9.735.1-19.215-14.365-19.215-14.365s-3.93,9.439-17.637,8.443-18.994-6.247-18.994-6.247a23.091,23.091,0,0,1-3.389.39c-.466,3.074-2.277,5.782-6.621,7.1-13.509,4.1-13.078-6.435-13.078-6.435s-16.723,17.562-23.8,8.589,4.873-20.59,4.873-20.59-12.938-.716-13.41-10.539c-.39-8.228,3.82-11.913,5.2-12.892-1.741,1.1-8.519,4.956-14.592,2.83-4.716-1.648-4.932-4.227-4.559-5.753-1.409,3.255-5.672,11.716-11.448,10.371a6.792,6.792,0,0,1-5.636-7.378c-2.056,1.759-5.6,2.987-11.314-.046-6.353-3.366-6.842-7.651-6.225-10.528a9.7,9.7,0,0,1-.891-2.906c-3.947.367-11.96.408-13.206-5.036-1.659-7.261,2.364-9.713,2.364-9.713s-16.991-3.132-17.066-16.065S29.4,474.411,29.4,474.411s-4.868-3.209-4.082-6.446a20.365,20.365,0,0,1,2.941-5.84,10.537,10.537,0,0,1,.425-1.258c-1.683.472-6.283,1.345-8.274-2.574-2.114-4.169.594-5.962,1.374-6.382-.926.4-4.827,1.771-6.277-2.48-1.642-4.839,4-7.3,4-7.3S.9,439.817.04,430.122s12.81-20.286,12.81-20.286-9.718-3.174-9.8-16.916,4.734-19.43,4.734-19.43-3.307-11.1,3.15-16.188a16.6,16.6,0,0,1-8.542-9.147c-3.866-9.9,2.941-18.272,10.062-23.9a13.718,13.718,0,0,1-1.957-3.04c-4.506-9.468,6.05-14.493,7.133-14.982v-.064c-.972-.192-8.647-1.9-7.109-7.127,1.578-5.369,4.466-4.466,4.681-4.391-.244-.192-4.5-3.557-1.17-8.035a6.9,6.9,0,0,1,8.251-2.451c-.088-.134-1.45-2.33,1.653-5.573,2.79-2.917,4.9-1.985,5.387-1.706-.658-.454-4-2.807-4.269-4.617,0,0-6.544.145-7.429-5.887a7.959,7.959,0,0,1,4.1-8.4s-4.385-4.693.53-10.341,17.34-2.137,17.34-2.137-1.56-2.236-.594-4.018a9.1,9.1,0,0,1,2.463-2.83s-4.314-1.415-4.163-5.956,7.669-6.464,7.669-6.464-14.726-5.223-12.706-16.606,13.556-13.9,17.422-9.952c0,0,5.357,2.912,9.008-2.963,0,0-4.752-9.975,5.9-18.523a16.455,16.455,0,0,1,20.386-.943s-.961-9.305,5.968-15.25,16.229-6.9,16.229-6.9-14.645-13.037-2.65-29.172,29.534,2.637,29.534,2.637a26.93,26.93,0,0,1,2.766-2.014c-2.149-2.376-3.191-7.221,6.888-16.036,0,0-7.989-9.987,2-19.973s15.978-3.994,15.978-3.994-2-9.986,3.994-11.984a10.035,10.035,0,0,1,9.987,2s-2-9.986,9.986-9.986c9.1,0,10.137,3.452,10.108,5.112.472-2.073,2.748-7.11,13.858-7.11,13.987,0,13.987,11.984,13.987,11.984s2-7.989,7.989-9.986,11.983,2,11.983,2-7.989-11.984,0-21.976S267.546,42.6,267.546,42.6s-19.972-23.967-5.992-37.947S299.5,12.644,299.5,12.644,299.5-1.337,315.485.66c4.42.553,7.162,3.709,8.81,7.989,11.034,1.159,9.328,10.417,9.328,10.417s11.5-7.907,15.984-1.956,1.817,9.834,1.817,9.834,16.787-4.1,22.15,7.669-4.263,17.934-4.263,17.934,5.753.932,6.359,4.21c.594,3.2-.606,8.077-.652,8.286.221-.215,4.972-4.8,9.089-1.473,3.639,2.935,1.9,5.683,1.357,6.382.7-.751,3.692-3.581,6.748-.3,3.483,3.744-.663,8.3-.663,8.3s17.922-5.5,22.68,2.987-3.383,23.751-3.383,23.751,10.166-1.077,15.867,11.424,3.633,19.664,3.633,19.664a22.945,22.945,0,0,1,1.962,2.783c2.918-1.065,6.167-.774,9.41,2.405,10.079,9.887.629,14.557.629,14.557s23.431,6.254,18.953,16.776-20.4,5.595-20.4,5.595,5.578,11.7-2.818,16.817c-7.028,4.291-12.28,2.364-13.806,1.624,1.8,1,8.431,5.1,9.485,11.448.816,4.932-1.351,6.353-2.859,6.76,3.529-.326,13-.64,14.592,5.072,1.968,7.051-5.083,9.02-5.083,9.02s6.452.885,4.664,5.089-4.949,2.864-4.949,2.864,6.475,9.591-2.667,15.018a16.545,16.545,0,0,1-4.018,1.77,8.866,8.866,0,0,1,.478,2.009s3.4-3.011,7.243-.589,1.712,9.888,1.712,9.888,11.937-10.08,20.747-2.6,5.165,18.72-.192,20.065c0,0-5.212,3.156-1.986,9.27,0,0,11.011.932,13.02,14.435a16.462,16.462,0,0,1-9.468,18.08s8.513,3.866,10.155,12.845c1.607,8.821-2.1,17.189-2.224,17.486.454-.14,18.737-5.835,26.517,12.437C507.318,385.193,482.268,390.871,482.268,390.871Z" fill="url(#b)"/>
    <path d="M291.329,820.256s-40.339-10.085-26.892-47.063S281.245,716.046,311.5,702.6s77.317-87.4,77.317-87.4l-16.808-6.723s-57.148,63.87-114.295,73.955-23.531-104.209-23.531-104.209H203.928s-16.808,77.316-6.724,97.486,13.447,33.616,6.724,57.147S187.12,746.3,166.95,779.917s-36.978,40.339-36.978,40.339Z" fill="url(#c)"/>
    <path d="M516.231,507.593c-11.18-16.709-28.37-7.281-28.37-7.281s2.216-9.084-1.065-17.6-12.364-10.733-12.364-10.733a16.464,16.464,0,0,0,5.942-19.526c-4.482-12.9-15.473-11.763-15.473-11.763-4.31-5.41.223-9.48.223-9.48,5.015-2.318,6.509-14.03-3.537-19.749s-19.9,6.406-19.9,6.406.7-7.728-3.52-9.394-7.007,1.923-7.007,1.923a9.055,9.055,0,0,0-1.837-3.262c-1.357-1.512-3.984-.79-3.984-.79s7.47-10.527,3.8-17.053-9.565-3.967-9.565-3.967a7.972,7.972,0,0,0-6.244-6.6c10.472-15.154-5.063-22.237-5.063-22.237,1.728-16.256-12.011-15.889-12.011-15.889-2.557-10.319-13.778-7.858-13.778-7.858s6.7-2.94,4.436-15.968-19.62-13.045-19.62-13.045-.926-25.672-20.563-21.365-17.138,23.752-17.138,23.752-7.648-5.379-16.775-5.436-14.507,7.592-14.507,7.592A16.463,16.463,0,0,0,282.294,295.6c-13.643-.536-16.6,10.109-16.6,10.109-6.61,2.038-8.743-3.669-8.743-3.669-.328-5.515-10.685-11.182-19.677-3.917s-1.3,20.868-1.3,20.868-6.938-3.477-10.031-.153-.768,7.225-.768,7.225a9.04,9.04,0,0,0-3.708.52c-1.9.711-2.19,3.42-2.19,3.42s-7.073-10.8-14.49-9.759S197.6,327.7,197.6,327.7a7.965,7.965,0,0,0-8.608,3.652c-3.285,5.131,1.75,9.319,1.75,9.319-1.033,1.614.088,5.89.218,6.37-.1-.356-.945-2.726-5.213-2.334-4.612.423-4.9,3.133-4.9,3.133A6.9,6.9,0,0,0,173,344.27c-5.611,1.23-4.381,6.841-4.381,6.841s-1.518-2.9-6.418.231.751,10.127.751,10.127-7.74-2.533-12.434,1.689c-12.1,4.055-10.98,12.85-10.98,12.85s-30.52-19.926-38.766-6.094,4.559,19.447,4.559,19.447-29.747,13.127-22.557,31.546a16.626,16.626,0,0,0,8.547,9.152c-6.462,5.09-3.155,16.188-3.155,16.188s-4.817,5.688-4.734,19.43,9.8,16.917,9.8,16.917-13.679,10.59-12.812,20.285S99.9,514.888,99.9,514.888s-5.644,2.459-4,7.3c1.487,4.374,5.577,2.793,6.353,2.447-.665.33-3.64,2.1-1.449,6.416,1.986,3.914,6.591,3.046,8.275,2.573a10.029,10.029,0,0,0-.428,1.258,20.222,20.222,0,0,0-2.939,5.84c-.789,3.238,4.08,6.442,4.08,6.442s-11.306,1.685-11.229,14.618,17.072,16.065,17.072,16.065-4.027,2.449-2.367,9.715c1.244,5.443,9.261,5.4,13.2,5.037a9.85,9.85,0,0,0,.893,2.9c-.615,2.876-.127,7.159,6.223,10.529,5.714,3.033,9.261,1.8,11.316.042a6.8,6.8,0,0,0,5.634,7.382c5.778,1.342,10.041-7.116,11.449-10.371-.37,1.521-.157,4.1,4.562,5.751,6.074,2.123,12.849-1.735,14.589-2.83-1.377.98-5.588,4.665-5.2,12.893.467,9.823,13.407,10.538,13.407,10.538s-11.954,11.611-4.875,20.587,23.806-8.583,23.806-8.583-.43,10.531,13.078,6.429c4.342-1.319,6.154-4.029,6.619-7.1a23.032,23.032,0,0,0,3.387-.391s5.292,5.248,19,6.245S268,638.18,268,638.18s9.484,14.468,19.217,14.366c8.6-.091,12.542-14.435,13.343-17.773.186.07.373.142.559.211.8,1.582,2.859,4.593,6.562,3.651a5,5,0,0,0,2.013-.969c12.9,3.283,23.244,2.39,31.281-.232a16.827,16.827,0,0,0,6.387,1.657c8.937.65,13.82-7.163,15.977-12.025a16.059,16.059,0,0,0,5.534,7.766c0,.022,0,.044,0,.067.583,9.816,13.529,10.379,13.529,10.379s-11.816,11.751-4.632,20.643,23.7-8.862,23.7-8.862-.307,10.536,13.153,6.275c8.574-2.714,7.159-10.777,5-16.273a22.421,22.421,0,0,0,3.817-1.538c8.322,5.206,15.213-3.62,15.213-3.62s.625,9.714,11.94,9.927,12.306-9.47,12.306-9.47c18.573,1.159,13.282-18.345,13.282-18.345s4.956-5.566,5.215-19.3c.157-8.32-3.314-12.85-6.077-15.133a11.13,11.13,0,0,0,5.613-10.788c2.577-3.361,4.647-7.32,4.4-11.2a7.653,7.653,0,0,0-.905-3.127,15.64,15.64,0,0,0-2.046-5.2s5.186,5.169,16.486-1.7,4.98-23.029,4.98-23.029S527.41,524.3,516.231,507.593Z" fill="url(#d)"/>
  </g>
</svg>
