<svg xmlns="http://www.w3.org/2000/svg" xmlns:xlink="http://www.w3.org/1999/xlink" width="715.819" height="976.692" viewBox="0 0 715.819 976.692">
  <defs>
    <linearGradient id="a" y1="408.053" x2="500.973" y2="408.053" gradientUnits="userSpaceOnUse">
      <stop offset="0" stop-color="#5a8539"/>
      <stop offset="1" stop-color="#46952f"/>
    </linearGradient>
    <linearGradient id="b" x1="269.214" y1="844.655" x2="449.177" y2="809.093" gradientUnits="userSpaceOnUse">
      <stop offset="0" stop-color="#66421f"/>
      <stop offset="1" stop-color="#754c24"/>
    </linearGradient>
    <linearGradient id="c" x1="218.434" y1="361.679" x2="715.819" y2="361.679" xlink:href="#a"/>
    <linearGradient id="d" x1="208.349" y1="709.718" x2="654.345" y2="709.718" gradientTransform="translate(-9.158 -170.679) rotate(6.066)" xlink:href="#a"/>
  </defs>
  <title>Tree_10</title>
  <g>
    <path d="M482.268,501.094s3.2,17.055-9.176,21.7c-11.99,4.507-16.246-1.019-16.508-1.374.192.46,4.274,10.65-5.171,14.982,0,0,2.842,13.137-12.874,14.7,2.882,13.1-15.075,20.9-15.075,20.9s6.317,16.164-4.985,23.029c-10.941,6.656-16.152,2.015-16.467,1.724a15.845,15.845,0,0,1,2.032,5.176,7.79,7.79,0,0,1,.9,3.127c.25,3.878-1.823,7.838-4.4,11.2a11.138,11.138,0,0,1-5.613,10.789c2.76,2.283,6.23,6.813,6.073,15.134-.256,13.736-5.212,19.3-5.212,19.3s5.293,19.507-13.281,18.348c0,0-.99,9.683-12.31,9.468s-11.937-9.928-11.937-9.928-6.894,8.828-15.215,3.622a22.469,22.469,0,0,1-3.814,1.537c2.155,5.5,3.57,13.556-5.007,16.275-13.457,4.256-13.148-6.277-13.148-6.277s-16.52,17.754-23.7,8.862,4.629-20.642,4.629-20.642-12.944-.564-13.526-10.382a.215.215,0,0,0-.006-.064,16.079,16.079,0,0,1-5.532-7.767c-2.16,4.862-7.04,12.676-15.978,12.024a16.891,16.891,0,0,1-6.387-1.654c-8.036,2.62-18.377,3.511-31.28.227a4.981,4.981,0,0,1-2.015.973c-3.7.943-5.759-2.073-6.562-3.651-.181-.07-.373-.146-.559-.216-.8,3.343-4.74,17.684-13.341,17.777-9.735.1-19.215-14.365-19.215-14.365s-3.93,9.439-17.637,8.443-18.994-6.247-18.994-6.247a23.259,23.259,0,0,1-3.389.39c-.466,3.074-2.277,5.782-6.621,7.1-13.509,4.1-13.078-6.434-13.078-6.434s-16.723,17.562-23.8,8.589,4.873-20.59,4.873-20.59-12.938-.716-13.41-10.539c-.39-8.228,3.82-11.913,5.2-12.892-1.741,1.1-8.519,4.956-14.592,2.83-4.716-1.648-4.932-4.227-4.559-5.753-1.409,3.255-5.672,11.716-11.448,10.371a6.792,6.792,0,0,1-5.636-7.378c-2.056,1.759-5.6,2.987-11.314-.046-6.353-3.366-6.842-7.651-6.225-10.528a9.7,9.7,0,0,1-.891-2.906c-3.947.367-11.96.408-13.206-5.036-1.659-7.261,2.364-9.713,2.364-9.713s-16.991-3.132-17.066-16.065S29.4,584.634,29.4,584.634s-4.868-3.209-4.082-6.446a20.365,20.365,0,0,1,2.941-5.84,10.537,10.537,0,0,1,.425-1.258c-1.683.472-6.283,1.345-8.274-2.574-2.114-4.169.594-5.962,1.374-6.382-.926.4-4.827,1.771-6.277-2.48-1.642-4.839,4-7.3,4-7.3S.9,550.04.04,540.345s12.81-20.286,12.81-20.286-9.718-3.174-9.8-16.916,4.734-19.43,4.734-19.43-3.307-11.1,3.15-16.188a16.6,16.6,0,0,1-8.542-9.147c-3.866-9.9,2.941-18.272,10.062-23.9a13.718,13.718,0,0,1-1.957-3.04c-4.506-9.468,6.05-14.493,7.133-14.982V416.4c-.972-.192-8.647-1.9-7.109-7.127,1.578-5.369,4.466-4.466,4.681-4.391-.244-.192-4.5-3.557-1.17-8.035a6.9,6.9,0,0,1,8.251-2.451c-.088-.134-1.45-2.33,1.653-5.573,2.79-2.917,4.9-1.985,5.387-1.706-.658-.454-4-2.807-4.269-4.617,0,0-6.544.145-7.429-5.887a7.959,7.959,0,0,1,4.1-8.4s-4.385-4.693.53-10.341,17.34-2.137,17.34-2.137-1.56-2.236-.594-4.018a9.1,9.1,0,0,1,2.463-2.83s-4.314-1.415-4.163-5.956,7.669-6.464,7.669-6.464-14.726-5.223-12.706-16.606,13.556-13.9,17.422-9.952c0,0,5.357,2.912,9.008-2.963,0,0-4.752-9.975,5.9-18.523a16.455,16.455,0,0,1,20.386-.943s-.961-9.305,5.968-15.25,16.229-6.9,16.229-6.9-14.645-13.037-2.65-29.172,29.534,2.637,29.534,2.637a26.93,26.93,0,0,1,2.766-2.014c-2.149-2.376-3.191-7.221,6.888-16.036,0,0-7.989-9.987,2-19.973s15.978-3.994,15.978-3.994-2-9.986,3.994-11.984a10.035,10.035,0,0,1,9.987,2s-2-9.986,9.986-9.986c9.1,0,10.137,3.452,10.108,5.112.472-2.073,2.748-7.11,13.858-7.11,13.987,0,13.987,11.984,13.987,11.984s2-7.989,7.989-9.986,11.983,2,11.983,2-7.989-11.984,0-21.976,23.967-3.994,23.967-3.994-19.972-23.967-5.992-37.947,37.948,7.989,37.948,7.989,0-13.981,15.983-11.984c4.42.553,7.162,3.709,8.81,7.989,11.034,1.159,9.328,10.417,9.328,10.417s11.5-7.907,15.984-1.956,1.817,9.834,1.817,9.834,16.787-4.1,22.15,7.669-4.263,17.934-4.263,17.934,5.753.932,6.359,4.21c.594,3.2-.606,8.076-.652,8.286.221-.215,4.972-4.8,9.089-1.473,3.639,2.935,1.9,5.683,1.357,6.382.7-.751,3.692-3.581,6.748-.3,3.483,3.744-.663,8.3-.663,8.3s17.922-5.5,22.68,2.987-3.383,23.751-3.383,23.751,10.166-1.077,15.867,11.424S430.346,246,430.346,246a22.945,22.945,0,0,1,1.962,2.783c2.918-1.065,6.167-.774,9.41,2.405,10.079,9.887.629,14.557.629,14.557S465.778,272,461.3,282.517s-20.4,5.6-20.4,5.6,5.578,11.7-2.818,16.817c-7.028,4.291-12.28,2.364-13.806,1.624,1.8,1,8.431,5.1,9.485,11.448.816,4.932-1.351,6.353-2.859,6.76,3.529-.326,13-.64,14.592,5.072,1.968,7.051-5.083,9.02-5.083,9.02s6.452.885,4.664,5.089-4.949,2.864-4.949,2.864,6.475,9.591-2.667,15.018a16.545,16.545,0,0,1-4.018,1.77,8.866,8.866,0,0,1,.478,2.009s3.4-3.011,7.243-.589,1.712,9.888,1.712,9.888,11.937-10.08,20.747-2.6,5.165,18.72-.192,20.065c0,0-5.212,3.156-1.986,9.27,0,0,11.011.932,13.02,14.435a16.462,16.462,0,0,1-9.468,18.08s8.513,3.866,10.155,12.845c1.607,8.821-2.1,17.189-2.224,17.486.454-.14,18.737-5.835,26.517,12.437C507.318,495.416,482.268,501.094,482.268,501.094Z" fill="url(#a)"/>
    <path d="M352.933,971.709l62.757,2.141s-11.207-138.961-8.966-282.4l-13.447-4.483s-9.393,238.4-29.565,236.159S352.933,678,352.933,678L335,673.515s-11.207,274.04-26.9,303.177Z" fill="url(#b)"/>
    <path d="M704.737,209.192s9.927,14.231.547,23.553-15.629,5.514-15.629,5.514,8.444,7.786,1.456,15.8c0,0,7.1,9.619-3.569,17.323a5.422,5.422,0,0,1,.18,1.467c-.07,4.92-2.049,7.215-3.389,8.2-.122.356-.25.717-.407,1.072,3.168,1.642,14.563,8.39,11.983,19.25-2.987,12.589-14.37,11.547-14.37,11.547s3.971,4.268,2.439,7.226-5.613,6.143-5.613,6.143,6.853-.862,8.094,4.414c1.106,4.71-2.2,5.729-2.923,5.892.832-.151,5.182-.722,5.59,3.878.454,5.095-5.614,6.149-5.614,6.149s17.533,6.65,16.077,16.275-17.247,16.677-17.247,16.677,8.694,5.386,5.52,18.755-9.2,17.759-9.2,17.759a22.6,22.6,0,0,1-.151,3.407c2.958.949,5.345,3.167,5.951,7.668,1.892,13.987-8.432,11.879-8.432,11.879s14.662,19.32,4.67,24.875c-4.3,2.387-8.513,1.223-11.919-.885-1.38,7.284-13.62,10.749-13.62,10.749s2.5,1.089,2.609,3.115a9.111,9.111,0,0,1-.618,3.692s4.42-1.048,6.668,2.9-3.151,9.52-3.151,9.52,15.28-3.255,19.519,7.5-4.274,18.936-9.631,17.6c0,0-6.085.326-6.12,7.244,0,0,9.27,6.009,4.67,18.866A16.462,16.462,0,0,1,652.232,555.7s5.689,7.424,2.9,16.112-10.213,14.383-10.213,14.383,19.3,3.435,17.532,23.46-26.546,13.223-26.546,13.223-5.211,16.549-18.324,14.814-13.9-9.02-13.9-9.02-1.013,11.442-11.623,10.8c0,0-3.767,13.217-18.755,6.7,0,0-6.1,6.789-13.806,4.763a6.294,6.294,0,0,1,.012,6.021,7.968,7.968,0,0,1-8.176,4.542s.909,6.358-6.358,8.175c-4.932,1.234-10.283-2.976-13.206-5.806a29.131,29.131,0,0,1-15.227,14.808c1.939,4.443,3.569,11.319-1.537,16.426-8.175,8.175-19.076,3.633-19.984-1.817,0,0-2.719-5.45-9.078-2.725,0,0-1.816,10.9-15.442,11.809a16.463,16.463,0,0,1-17.253-10.9s-4.542,8.175-13.625,9.083-17.259-3.633-17.259-3.633,4.542,19.075-14.528,25.434-22.709-19.076-22.709-19.076-17.253,1.817-20.887-10.9c-1.333-4.67-1.321-8.111-.768-10.6a9.263,9.263,0,0,1-1.06-5.1,10.827,10.827,0,0,1-6.347-1.922c-5.246-.192-11.942-1.875-14.871-8.6a18.606,18.606,0,0,1-1.229-3.878,19.9,19.9,0,0,1-1.153-7.133S324.32,650.3,330.2,636.092a4.034,4.034,0,0,1-.967-4.361c-.11-.087-.227-.181-.343-.28a3.968,3.968,0,0,1-5.747-.658c-2.51-2.789-.914-5.933.116-7.424-.064-.209-.122-.419-.18-.634-3.622.9-17.754,3.86-21.772-3.593-4.611-8.571,3.785-23.693,3.785-23.693s-10.184.908-15.669-11.687-3.308-19.721-3.308-19.721-12.932-15.524,4.432-22.214c0,0-3.133-9.212,7.243-13.737.251-.1.5-.2.734-.3a16.643,16.643,0,0,1-.7-3.377c-.972-9.048,2.353-10.452,4.006-10.6-2.108-.245-7.366-1.974-8.548-13.02-1.49-13.9,10.423-15.186,10.423-15.186s-8.158-1.13-10.784-6.877.711-12.129.711-12.129-11.064,9.224-21.848,2.347c-10.632-6.784-6.643-22.954-6.533-23.4-.442.448-21.853,22.278-37.091,10-15.39-12.409,3.895-38.588,3.895-38.588s-13.9,1.49-13.619-14.61S255.1,388.384,255.1,388.384s-4.361-5.782,1.066-13.934a13.244,13.244,0,0,1-4.245-9.34c-.431-12.927,10.824-14.918,10.824-14.918s-4.955-3.075-4.25-6.33,3.8-7.406,3.8-7.406-6.381,2.637-8.967-2.132c-2.306-4.25.617-6.1,1.269-6.451-.762.367-4.809,2.061-6.41-2.271-1.782-4.8,3.8-7.407,3.8-7.407s-18.662-1.805-19.792-11.477,12.251-20.624,12.251-20.624-9.8-2.912-10.259-16.642,4.2-19.553,4.2-19.553a22.921,22.921,0,0,1-.746-3.33c-3.1-.134-5.991-1.648-7.761-5.829-5.5-13,5.013-13.684,5.013-13.684s-19.227-14.778-11.052-22.767,20.986,2.673,20.986,2.673-.652-12.944,9.066-14.447c8.14-1.257,12.245,2.539,13.369,3.809-1.275-1.619-5.828-7.949-4.355-14.208,1.141-4.868,3.685-5.351,5.234-5.148-3.383-1.054-12.245-4.4-11.523-10.288.9-7.267,8.158-6.371,8.158-6.371s-5.619-3.3-2.347-6.5,5.666-.739,5.666-.739-2.289-11.343,8.233-12.84a15.7,15.7,0,0,1,4.781-.035c-1.864-1.752-3.7-4.448-1.671-7.191,3.359-4.53,5.764-2.62,5.91-2.5-.134-.215-3.028-4.867,1.671-7.942a6.886,6.886,0,0,1,8.594.547s-.693-2.632,3.465-4.67c3.692-1.8,5.345-.122,5.671.286-.419-.583-2.818-4.012-2.433-5.835,0,0-6.2-2.119-4.95-8.088a7.96,7.96,0,0,1,6.749-6.469s-2.5-5.916,4.064-9.526,17.008,3.971,17.008,3.971-.692-2.637.833-3.977a9.109,9.109,0,0,1,3.284-1.805s-3.563-2.818-1.851-7.028,9.427-3.424,9.427-3.424-12.024-9.98-6.2-19.966,17.515-8.373,19.785-3.337c0,0,4.024,4.577,9.474.321,0,0-1.019-11,11.925-15.349a16.458,16.458,0,0,1,19.46,6.143s2.312-9.061,10.86-12.257,17.614-.88,17.614-.88-9.253-17.288,7.569-28.3,26.82,12.658,26.82,12.658,16.223-6.154,22.977,5.218c6.58,11.086,1.788,16.239,1.543,16.5.344-.222,9.713-6.12,15.658,2.451,0,0,12.711-5.229,16.874,10.58,0,0,15.4,1,13.131,16.479a13.615,13.615,0,0,1,1.793-.769c10.423-3.674,14.179,8.775,14.179,8.775s2.5-8.641,7.872-6.417,3.867,5.124,3.867,5.124,3.889-4.221,8.117-.326a6.9,6.9,0,0,1,1.56,8.473s2.388-1.316,5.375,2.224c2.643,3.133,1.42,5.141,1.106,5.561.466-.542,3.208-3.7,5.066-3.779,0,0,.547-6.528,6.632-6.778a7.964,7.964,0,0,1,7.925,4.967s5.13-3.867,10.231,1.613.3,17.468.3,17.468,2.382-1.316,4.059-.163a9.089,9.089,0,0,1,2.55,2.743s1.864-4.14,6.359-3.512,5.625,8.31,5.625,8.31,6.743-14.1,17.847-10.889,12.4,14.947,8.064,18.371c0,0-3.453,5.019,2,9.27,0,0,10.417-3.674,17.8,7.814a16.463,16.463,0,0,1-1.206,20.374s9.352.029,14.534,7.541,5.153,16.863,5.153,16.863,14.511-13.189,29.289.442S704.737,209.192,704.737,209.192Z" fill="url(#c)"/>
    <path d="M561.053,617.892c-11.18-16.71-28.37-7.282-28.37-7.282s2.216-9.084-1.064-17.6-12.365-10.733-12.365-10.733a16.464,16.464,0,0,0,5.942-19.526c-4.482-12.9-15.473-11.763-15.473-11.763-4.31-5.41.223-9.48.223-9.48,5.015-2.318,6.509-14.03-3.537-19.749s-19.9,6.406-19.9,6.406.7-7.728-3.52-9.394-7.007,1.924-7.007,1.924a9.055,9.055,0,0,0-1.837-3.263c-1.357-1.512-3.984-.79-3.984-.79s7.47-10.527,3.8-17.053-9.565-3.967-9.565-3.967a7.972,7.972,0,0,0-6.244-6.6c10.472-15.154-5.062-22.236-5.062-22.236,1.727-16.257-12.012-15.89-12.012-15.89-2.557-10.318-13.778-7.858-13.778-7.858s6.7-2.94,4.436-15.968-19.62-13.045-19.62-13.045-.926-25.672-20.563-21.365-17.137,23.752-17.137,23.752-7.649-5.379-16.776-5.436-14.507,7.592-14.507,7.592A16.464,16.464,0,0,0,327.116,405.9c-13.643-.536-16.6,10.109-16.6,10.109-6.61,2.038-8.743-3.669-8.743-3.669-.328-5.514-10.685-11.182-19.677-3.917s-1.3,20.868-1.3,20.868-6.938-3.477-10.031-.153-.768,7.225-.768,7.225a9.06,9.06,0,0,0-3.708.52c-1.9.711-2.19,3.42-2.19,3.42s-7.073-10.8-14.49-9.759S242.418,438,242.418,438a7.965,7.965,0,0,0-8.608,3.652c-3.285,5.131,1.75,9.319,1.75,9.319-1.033,1.614.088,5.89.218,6.37-.1-.356-.945-2.726-5.213-2.334-4.612.423-4.9,3.133-4.9,3.133a6.9,6.9,0,0,0-7.84-3.573c-5.611,1.23-4.38,6.841-4.38,6.841s-1.519-2.9-6.418.231.75,10.127.75,10.127-7.74-2.533-12.434,1.689c-12.1,4.055-10.98,12.85-10.98,12.85s-30.52-19.926-38.766-6.094,4.559,19.447,4.559,19.447-29.747,13.127-22.557,31.546a16.622,16.622,0,0,0,8.547,9.152c-6.462,5.09-3.155,16.189-3.155,16.189s-4.816,5.687-4.734,19.429,9.8,16.917,9.8,16.917-13.679,10.59-12.812,20.286,19.473,12.008,19.473,12.008-5.644,2.459-4,7.3c1.487,4.373,5.576,2.792,6.352,2.446-.665.331-3.639,2.1-1.449,6.416,1.986,3.914,6.591,3.046,8.275,2.573a10.029,10.029,0,0,0-.428,1.258,20.26,20.26,0,0,0-2.939,5.84c-.789,3.238,4.081,6.442,4.081,6.442s-11.307,1.685-11.23,14.618,17.072,16.065,17.072,16.065-4.027,2.45-2.367,9.715c1.244,5.443,9.261,5.4,13.2,5.037a9.866,9.866,0,0,0,.893,2.905c-.615,2.875-.127,7.158,6.223,10.528,5.714,3.033,9.261,1.8,11.316.042a6.8,6.8,0,0,0,5.634,7.382c5.778,1.343,10.041-7.116,11.45-10.371-.371,1.521-.158,4.1,4.561,5.751,6.074,2.123,12.849-1.734,14.59-2.829-1.378.98-5.589,4.664-5.2,12.892.468,9.823,13.407,10.538,13.407,10.538s-11.954,11.611-4.875,20.587,23.806-8.583,23.806-8.583-.43,10.531,13.078,6.429c4.342-1.318,6.154-4.029,6.619-7.1a23.032,23.032,0,0,0,3.387-.391s5.292,5.248,19,6.245,17.634-8.443,17.634-8.443,9.484,14.468,19.217,14.366c8.6-.091,12.542-14.435,13.343-17.773.186.07.373.142.559.211.8,1.582,2.859,4.593,6.562,3.651a4.99,4.99,0,0,0,2.013-.969c12.9,3.283,23.244,2.39,31.281-.232a16.79,16.79,0,0,0,6.387,1.657c8.937.65,13.82-7.163,15.977-12.025a16.066,16.066,0,0,0,5.534,7.766c0,.023,0,.044,0,.067.583,9.816,13.529,10.379,13.529,10.379s-11.816,11.751-4.632,20.643,23.7-8.861,23.7-8.861-.307,10.535,13.153,6.275c8.574-2.714,7.159-10.778,5-16.274a22.421,22.421,0,0,0,3.817-1.538c8.322,5.206,15.213-3.62,15.213-3.62s.625,9.714,11.94,9.927,12.306-9.47,12.306-9.47c18.573,1.159,13.282-18.344,13.282-18.344s4.956-5.566,5.215-19.306c.157-8.32-3.314-12.85-6.077-15.132a11.132,11.132,0,0,0,5.613-10.789c2.577-3.361,4.648-7.319,4.4-11.195a7.654,7.654,0,0,0-.9-3.128,15.615,15.615,0,0,0-2.046-5.2s5.186,5.169,16.486-1.7,4.98-23.029,4.98-23.029S572.233,634.6,561.053,617.892Z" fill="url(#d)"/>
  </g>
</svg>
