<svg xmlns="http://www.w3.org/2000/svg" xmlns:xlink="http://www.w3.org/1999/xlink" width="606.524" height="803.801" viewBox="0 0 606.524 803.801">
  <defs>
    <linearGradient id="a" x1="373.378" y1="524.214" x2="405.755" y2="-3.783" gradientUnits="userSpaceOnUse">
      <stop offset="0" stop-color="#005437"/>
      <stop offset="1" stop-color="#006837"/>
    </linearGradient>
    <linearGradient id="b" x1="-31.733" y1="154.544" x2="300.756" y2="452.165" xlink:href="#a"/>
    <linearGradient id="c" x1="273.758" y1="668.396" x2="366.486" y2="668.396" gradientUnits="userSpaceOnUse">
      <stop offset="0" stop-color="#66421f"/>
      <stop offset="1" stop-color="#754c24"/>
    </linearGradient>
    <linearGradient id="d" x1="100.615" y1="423.954" x2="570.638" y2="423.954" xlink:href="#a"/>
  </defs>
  <title>Tree_32</title>
  <g>
    <path d="M606.493,290.931c-.879,9.695-16.228,17.678-16.228,17.678s9,4.856,6.626,18.4-8.123,18.271-8.123,18.271a22.585,22.585,0,0,1,.047,3.407c3.01.774,5.526,2.847,6.4,7.3,2.725,13.852-7.709,12.367-7.709,12.367s15.785,18.406,6.143,24.544-19.99-6.918-19.99-6.918-2.015,12.8-11.832,12.28c-8.227-.436-11.471-5-12.3-6.469.914,1.84,4.07,8.973,1.345,14.8-2.114,4.53-4.705,4.483-6.178,3.959,3.091,1.73,11.08,6.819,9.165,12.432-2.306,6.755-8.944,4.682-9.282,4.571.251.239,4.705,4.449.955,6.83-3.855,2.457-5.7-.437-5.7-.437s-.07,9.34-7.78,10.732a12.7,12.7,0,0,1,.093,4.984c-1.816,10.9-14.533,8.175-14.533,8.175s6.358,6.359,1.816,9.992c-4.373,3.5-6.218,1.107-6.352.92.081.257,1.677,5.486-3.64,7.256a6.9,6.9,0,0,1-8.175-2.725s0,2.725-4.542,3.633c-3.977.792-5.164-1.2-5.4-1.7.267.7,1.682,4.588.861,6.236,0,0,5.445,3.633,2.72,9.084a7.957,7.957,0,0,1-8.17,4.541s.909,6.359-6.358,8.176-15.442-8.176-15.442-8.176,0,2.725-1.817,3.634a9.057,9.057,0,0,1-3.634.908s2.725,3.634,0,7.267c-2.666,3.564-9.712,1.007-9.98.914.25.355,8.956,12.822.9,20.881-8.176,8.175-19.076,3.633-19.984-1.817,0,0-2.725-5.45-9.084-2.725,0,0-1.817,10.9-15.436,11.809a16.466,16.466,0,0,1-17.259-10.9s-4.542,8.176-13.62,9.084-17.258-3.633-17.258-3.633,4.541,19.075-14.528,25.428-22.709-19.07-22.709-19.07-17.253,1.817-20.887-10.9c-3.546-12.4,2.422-16.164,2.714-16.339-.426.134-10.965,3.424-14.523-6.364,0,0-13.625,1.816-13.625-14.534,0,0-16.345-5.45-7.261-21.795,0,0-14.411-7.867-6.51-22.482-9.637-4.14-5.666-12.3-5.666-12.3s-13.194,4.548-15.931-2.381.874-9.963.874-9.963-17.271-.53-19.3-13.3,8.9-16.147,8.9-16.147-5.3-2.434-5.007-5.753c.285-3.266,2.765-7.68,2.841-7.814-.221.122-6.056,3.325-9.153-1.007-2.819-3.931-.146-6.132.46-6.563-.717.46-4.519,2.644-6.65-1.455-2.352-4.536,2.853-7.821,2.853-7.821s-18.743.525-21.061-8.932,9.6-21.987,9.6-21.987-10.091-1.671-12.245-15.244,1.746-19.92,1.746-19.92a23,23,0,0,1-1.153-3.208c-3.1.25-6.148-.9-8.425-4.827-7.075-12.217,3.278-14.2,3.278-14.2S165.472,259.337,172.6,250.4s21.154.047,21.154.047-2.259-12.763,7.2-15.46c7.919-2.259,12.466,1,13.736,2.12-1.462-1.444-6.766-7.162-6.085-13.561.53-4.967,2.993-5.765,4.559-5.753-3.488-.629-12.7-2.848-12.711-8.781-.012-7.319,7.308-7.331,7.308-7.331s-5.986-2.58-3.139-6.155,5.532-1.438,5.532-1.438-3.68-10.976,6.58-13.759,11.08,4.442,11.08,4.442,1.014-5.6,5.09-6.672a3.924,3.924,0,0,1-1.439-1.5s-6.306,1.782-8.681-3.826a7.97,7.97,0,0,1,1.857-9.165s-5.427-3.435-2.09-10.143,16.239-6.434,16.239-6.434-2.072-1.77-1.583-3.744a9.024,9.024,0,0,1,1.671-3.348s-4.536-.291-5.526-4.723,5.794-8.186,5.794-8.186-15.571-1.346-16.479-12.869,9.619-16.869,14.353-14.021c0,0,5.916,1.467,7.972-5.136,0,0-7.11-8.461,1.042-19.407a16.472,16.472,0,0,1,19.489-6.056c-.105-.3-3.173-8.886,1.939-16.252,5.206-7.5,13.969-10.766,13.969-10.766s-17.457-8.932-9.905-27.565,29.243-4.886,29.243-4.886,9.823-14.306,21.853-8.81S333.292,13.94,333.292,13.94,337.6,3.3,347.558,7.016c0,0,7.465-11.541,19.9-.926,0,0,14.755-8.9,21.294,8.624,0,0,7.512-2.871,14.074.722a13.05,13.05,0,0,1,3.779-1.712c10.627-3.016,13.6,9.643,13.6,9.643s3.034-8.461,8.257-5.91S432,22.819,432,22.819s4.151-3.971,8.122.181a6.9,6.9,0,0,1,1.025,8.554s2.463-1.165,5.229,2.55c2.556,3.441.967,5.4.716,5.666.344-.356,3.412-3.541,5.328-3.5,0,0,.955-6.481,7.046-6.341a7.967,7.967,0,0,1,7.6,5.45s5.362-3.54,10.108,2.254-.792,17.45-.792,17.45,2.463-1.164,4.059.094a9.087,9.087,0,0,1,2.375,2.894s2.12-4.018,6.568-3.1,5.09,8.641,5.09,8.641,7.616-13.643,18.5-9.741S524.4,69.553,519.867,72.7c0,0-3.762,4.793,1.415,9.375,0,0,10.632-3.01,17.27,8.915a16.467,16.467,0,0,1-2.48,20.263s9.334.612,14.033,8.432,4.087,17.154,4.087,17.154,15.309-12.251,29.2,2.276-7.541,28.678-7.541,28.678,7.186,11.832,1.625,20.572a9.46,9.46,0,0,1-2.486,5.957c.128,0,13.957.017,14.3,7.424.337,7.447-4.065,9.136-4.065,9.136s16.164,6.114,13.934,18.854-13.66,12.379-13.66,12.379,4.221,4.024,2.865,7.069-5.235,6.469-5.235,6.469,6.789-1.275,8.338,3.925c1.351,4.513-1.688,5.782-2.509,6.032.949-.215,5.089-.908,5.753,3.558.757,5.06-5.235,6.469-5.235,6.469S607.366,281.236,606.493,290.931Z" fill="url(#a)"/>
    <path d="M435.846,393.342c-11.18-16.71-28.37-7.282-28.37-7.282s2.215-9.084-1.065-17.6-12.364-10.733-12.364-10.733a16.464,16.464,0,0,0,5.942-19.526c-4.482-12.9-15.473-11.763-15.473-11.763-4.311-5.41.223-9.48.223-9.48,5.015-2.318,6.509-14.03-3.538-19.749s-19.9,6.406-19.9,6.406.7-7.728-3.52-9.394-7.007,1.924-7.007,1.924a9.055,9.055,0,0,0-1.837-3.263c-1.357-1.512-3.985-.79-3.985-.79s7.471-10.527,3.8-17.053-9.566-3.967-9.566-3.967a7.97,7.97,0,0,0-6.243-6.6c10.472-15.154-5.063-22.236-5.063-22.236,1.728-16.257-12.011-15.89-12.011-15.89-2.557-10.319-13.779-7.858-13.779-7.858s6.706-2.94,4.437-15.968-19.62-13.045-19.62-13.045-.926-25.672-20.563-21.365S249.2,191.856,249.2,191.856s-7.648-5.379-16.775-5.436-14.507,7.592-14.507,7.592a16.464,16.464,0,0,0-16.008-12.661c-13.643-.536-16.6,10.109-16.6,10.109-6.61,2.038-8.743-3.669-8.743-3.669-.328-5.514-10.686-11.182-19.678-3.917s-1.3,20.868-1.3,20.868-6.937-3.477-10.03-.153-.768,7.225-.768,7.225a9.06,9.06,0,0,0-3.708.52c-1.9.711-2.19,3.42-2.19,3.42s-7.073-10.8-14.49-9.759-7.186,7.456-7.186,7.456A7.965,7.965,0,0,0,108.6,217.1c-3.285,5.131,1.75,9.319,1.75,9.319-1.033,1.614.088,5.89.218,6.37-.1-.356-.945-2.726-5.214-2.334-4.611.423-4.9,3.133-4.9,3.133a6.9,6.9,0,0,0-7.84-3.573c-5.611,1.23-4.381,6.841-4.381,6.841s-1.518-2.9-6.418.231.751,10.127.751,10.127-7.74-2.533-12.434,1.689c-12.1,4.055-10.98,12.85-10.98,12.85s-30.52-19.926-38.766-6.094,4.558,19.447,4.558,19.447S-4.8,288.236,2.391,306.655a16.626,16.626,0,0,0,8.547,9.152C4.476,320.9,7.783,332,7.783,332s-4.816,5.687-4.733,19.429,9.8,16.917,9.8,16.917S-.827,378.932.04,388.628s19.472,12.008,19.472,12.008-5.643,2.459-4,7.3c1.487,4.374,5.577,2.793,6.353,2.447-.665.331-3.64,2.1-1.449,6.416,1.986,3.914,6.591,3.046,8.274,2.573a10.193,10.193,0,0,0-.427,1.258,20.235,20.235,0,0,0-2.939,5.84c-.789,3.238,4.08,6.442,4.08,6.442S18.1,434.6,18.177,447.529s17.072,16.065,17.072,16.065-4.027,2.45-2.367,9.715c1.244,5.443,9.261,5.4,13.2,5.037a9.821,9.821,0,0,0,.892,2.9c-.614,2.876-.126,7.159,6.224,10.529,5.713,3.033,9.261,1.8,11.315.042a6.8,6.8,0,0,0,5.635,7.382c5.778,1.342,10.041-7.116,11.449-10.371-.37,1.521-.157,4.1,4.562,5.751,6.073,2.123,12.849-1.734,14.589-2.829-1.377.98-5.588,4.664-5.2,12.892.467,9.823,13.406,10.538,13.406,10.538s-11.953,11.611-4.874,20.587,23.806-8.583,23.806-8.583-.43,10.531,13.078,6.429c4.341-1.319,6.154-4.029,6.618-7.1a23.059,23.059,0,0,0,3.388-.391s5.292,5.248,19,6.245,17.634-8.443,17.634-8.443,9.484,14.468,19.217,14.366c8.6-.091,12.541-14.435,13.342-17.773l.559.211c.8,1.582,2.86,4.593,6.563,3.651a5,5,0,0,0,2.013-.969c12.9,3.283,23.244,2.39,31.281-.232a16.8,16.8,0,0,0,6.386,1.657c8.938.65,13.82-7.163,15.978-12.025a16.059,16.059,0,0,0,5.534,7.766c0,.022,0,.044,0,.067.583,9.816,13.529,10.379,13.529,10.379s-11.816,11.751-4.632,20.643,23.7-8.862,23.7-8.862-.307,10.536,13.152,6.276c8.575-2.714,7.16-10.778,5-16.274a22.421,22.421,0,0,0,3.817-1.538c8.322,5.206,15.213-3.62,15.213-3.62s.625,9.714,11.94,9.927,12.306-9.47,12.306-9.47c18.573,1.159,13.282-18.344,13.282-18.344s4.956-5.566,5.215-19.306c.157-8.32-3.314-12.85-6.077-15.132a11.129,11.129,0,0,0,5.612-10.789c2.577-3.361,4.648-7.32,4.4-11.195a7.669,7.669,0,0,0-.905-3.128,15.64,15.64,0,0,0-2.046-5.2s5.186,5.169,16.486-1.7,4.98-23.029,4.98-23.029S447.025,410.051,435.846,393.342Z" fill="url(#b)"/>
    <path d="M297.534,537.747s7.133,23.777,9.511,135.526S273.758,803.8,273.758,803.8l92.728-2.135s-30.91-16.644-28.532-130.771-9.511-137.9-9.511-137.9Z" fill="url(#c)"/>
    <path d="M557.37,506.937s22.526-23.448,8.876-37.753c-8.048-8.434-19.842-5.148-28.168-1.032a74.19,74.19,0,0,0-1.891-18.225c-3.556-14.777-17.324-7.229-32.537-23.716,2.093-2.008,3.786-5.213,3.907-10.346.26-11.106-4.726-13.5-6.787-14.021,1.662.066,5.138-.89,5.351-9.988.28-11.98-9.751-10.217-9.751-10.217A10.037,10.037,0,0,0,498.6,371.7c-1.857-6.037-11.887-4.274-11.887-4.274s6.13-5.85-3.62-16.068c-5.918-6.2-11.985-5.781-15.845-4.494-2.576-2.025-5.95-2.19-7.906-2.074-.32-.3-.634-.584-.942-.849.407-1,.541-2.658-1.391-4.636-2.136-2.187-4.317-.4-5.529,1.024a6.129,6.129,0,0,0-.951-.023c-.135-2.144-1.1-6.161-6.386-6.811-4.341-.534-7.3,4.141-8.977,7.993-1.957-.63-3.875-1.173-5.733-1.631a8.048,8.048,0,0,0-.909-1.582c8.364-15.241-9.279-17.736-9.279-17.736s8.307-8.177-1.056-15.317a14.525,14.525,0,0,0-10.336-2.864,10.793,10.793,0,0,0-1.321-1.64,6.35,6.35,0,0,0-4.444-2.017c-3.238-4.9-10.381-4.2-10.381-4.2s2.683-2.136-.164-5.714-6.7,1.679-6.7,1.679,1.625-7.137-5.512-8.762c-3.349-.763-6.174,1.759-8.231,4.65a34.934,34.934,0,0,0-17.507-5.24,19.4,19.4,0,0,0,.311-4.743c-.511-9.82-13.453-10.478-13.453-10.478s11.9-11.664,4.784-20.609-23.767,8.687-23.767,8.687.384-10.532-13.106-6.371-2.466,21.685-2.466,21.685-8.908-7.521-16.246-.22,3.266,14.2,3.266,14.2-16.319-6.737-22.873,7.976a15.994,15.994,0,0,0-1.462,5.679,38.668,38.668,0,0,0-7.734,6.572c-2.256-2.548-6.594-5.251-13.382-.8-10.653,6.98-4.822,14.092-4.822,14.092s-12.952-.1-13.064,14.027a15,15,0,0,0,2.526,8.944,30.821,30.821,0,0,0-1.983,6.55s-2.558-3.959-9.775-2.1c-4.666,1.2-5.111,7.329-4.843,11.514a5.247,5.247,0,0,0-3.087-1.074c-2.836-.2-3.421,2.191-3.458,4.032a7.85,7.85,0,0,0-1.282.506,6.685,6.685,0,0,0-8.741-.35c-4.886,3.365-1.511,12.214-.055,15.449-.874-1.3-2.924-2.881-7.323-.506-5.662,3.056-7.379,10.661-7.742,12.685.2-1.679.319-7.272-6.023-12.529-7.572-6.275-16.82,2.8-16.82,2.8s-.522-16.657-11.924-17.476-9.7,23.371-9.7,23.371-7.489-7.415-13.563,5.329,14.287,16.5,14.287,16.5-11.567,1.461-11.164,11.805,12.662,7.214,12.662,7.214-16.008,7.445-9.621,22.231a15.445,15.445,0,0,0,3.7,5.419,19.7,19.7,0,0,0,2.465,10.179s-10.957-3.8-13.035,8.768,7.1,13.091,7.1,13.091a14.672,14.672,0,0,0-3.5,8.187,8.028,8.028,0,0,0-3.018.417c-4.664,1.555-3.109,9.329-3.109,9.329s-4.665-4.664-12.439,3.11-1.555,15.548-1.555,15.548a27.237,27.237,0,0,0-4.964,5.427,8.339,8.339,0,0,0-2.5,3.441c-2.5,6.438,5.554,8.958,5.554,8.958s-7.275-.085-5.781,10.441,12.837,8.235,12.837,8.235-2.453,2.4.742,5.668,6.5-2.349,6.5-2.349-.894,7.265,6.372,8.158c5.887.725,9.233-8.137,10.289-11.523-.207,1.552.278,4.095,5.144,5.237a13.176,13.176,0,0,0,7.084-.482,20.655,20.655,0,0,0,4,.888,16.976,16.976,0,0,0-.676,8.609c1.5,9.718,14.445,9.061,14.445,9.061s-10.66,12.81-2.672,20.988c6.3,6.447,16.813-4.137,20.982-8.907a9.724,9.724,0,0,0,2.11-.534c.823,2.71,3.669,7.5,13.357,3.4,4.179-1.77,5.695-4.657,5.832-7.76a23.008,23.008,0,0,0,3.328-.746s5.816,4.659,19.551,4.2,16.643-10.259,16.643-10.259,10.96,13.385,20.627,12.255,11.474-19.792,11.474-19.792,2.612,5.574,7.4,3.8c4.332-1.605,2.641-5.65,2.273-6.416a3.967,3.967,0,0,0,4.5,2.021c14.781,9.434,33.979,4.954,44.42,1.289l0,.02c1.5,9.718,14.445,9.062,14.445,9.062s-10.66,12.809-2.672,20.987,22.766-11.051,22.766-11.051.685,10.517,13.683,5.011c4.179-1.77,5.695-4.657,5.832-7.76a23.008,23.008,0,0,0,3.328-.746s5.816,4.659,19.551,4.2,16.643-10.259,16.643-10.259,10.96,13.385,20.627,12.254c6.785-.793,9.7-10.214,10.829-15.767,8.42,2.312,17.371,3.366,23.286.167,5.335-2.885,7.316-7.834,7.714-12.881a14.471,14.471,0,0,0,1.639-2.081s1.992,11.257,14.918,10.827,15.594-17.5,15.594-17.5,2.558,3.959,9.776,2.1,4.337-15.511,4.337-15.511,8.267,5.387,13.573-5.3a14.571,14.571,0,0,0,1.653-5.62c7.03-1.032,13.091-3.778,14.02-10.019C571.348,507.264,557.37,506.937,557.37,506.937Z" fill="url(#d)"/>
  </g>
</svg>
