<svg xmlns="http://www.w3.org/2000/svg" xmlns:xlink="http://www.w3.org/1999/xlink" width="764.231" height="1287.124" viewBox="0 0 764.231 1287.124">
  <defs>
    <linearGradient id="a" x1="110.937" y1="268.087" x2="634.746" y2="268.087" gradientUnits="userSpaceOnUse">
      <stop offset="0" stop-color="#2b773e"/>
      <stop offset="1" stop-color="#27954f"/>
    </linearGradient>
    <linearGradient id="b" x1="0" y1="536.174" x2="555.509" y2="536.174" xlink:href="#a"/>
    <linearGradient id="c" x1="263.3" y1="463.706" x2="764.231" y2="463.706" xlink:href="#a"/>
    <linearGradient id="d" x1="301.231" y1="1075.352" x2="482.114" y2="1075.352" gradientUnits="userSpaceOnUse">
      <stop offset="0" stop-color="#66421f"/>
      <stop offset="1" stop-color="#754c24"/>
    </linearGradient>
    <linearGradient id="e" x1="174.329" y1="619.848" x2="634.746" y2="619.848" xlink:href="#a"/>
  </defs>
  <title>Tree_14</title>
  <g>
    <path d="M633.613,189.505c-6.283,9.544-21.073,1.863-21.073,1.863s3.4,12.5-5.77,16.048c-7.687,2.964-12.514.128-13.876-.868,1.589,1.305,7.383,6.516,7.284,12.951-.076,5-2.457,6.015-4.018,6.143,3.535.308,12.9,1.688,13.451,7.6.675,7.285-6.615,7.96-6.615,7.96s6.2,2.027,3.68,5.846c-2.439,3.7-5.2,2.044-5.368,1.939.128.3,4.268,10.1-4.577,13.987,2.5,3.6,4.629,8.728,2.614,14.51-1.49,4.286-3.942,6.12-6.393,6.76.087.222.175.437.256.67,4.018,11.238-5.595,13.457-5.595,13.457s11.831,7.4,8.157,13.881-8.3,5.584-8.3,5.584,10.446,13.766,1.787,23.373-18.15,3.232-18.15,3.232,1.439,5.648-1.327,7.5-7.872,2.7-7.872,2.7,6.428,2.527,4.978,7.756c-1.293,4.664-4.682,3.966-5.392,3.762.8.268,4.891,1.857,3.039,6.085-2.014,4.617-7.7,2.76-7.866,2.707.3.35,12.106,14.342,6.289,21.987-5.9,7.75-23.14,6.353-23.14,6.353s5.036,8.9-4.164,19.105-16.589,11.156-16.589,11.156-5.077,10.51-13.34,9.829a19.557,19.557,0,0,1-3.633,2.76c9.083,16.35-7.267,21.8-7.267,21.8,0,16.344-13.626,14.528-13.626,14.528-3.557,9.788-14.091,6.5-14.516,6.364.291.175,6.26,3.936,2.713,16.345-3.633,12.711-20.892,10.894-20.892,10.894s-3.633,25.434-22.7,19.076-14.534-25.434-14.534-25.434-8.169,4.541-17.253,3.633-13.625-9.078-13.625-9.078a16.461,16.461,0,0,1-17.253,10.895c-13.626-.909-15.442-11.8-15.442-11.8-6.359-2.725-9.084,2.719-9.084,2.719-.908,5.45-11.809,9.992-19.978,1.817-8.059-8.053.652-20.526.9-20.881-.268.093-7.314,2.65-9.987-.914-2.725-3.633,0-7.267,0-7.267a9.054,9.054,0,0,1-3.633-.908c-1.817-.908-1.817-3.634-1.817-3.634s-8.175,9.992-15.436,8.176S282.3,474.3,282.3,474.3a7.965,7.965,0,0,1-8.175-4.541c-2.725-5.445,2.725-9.078,2.725-9.078-.821-1.654.594-5.538.862-6.242-.233.506-1.421,2.492-5.4,1.7-4.541-.908-4.541-3.633-4.541-3.633a6.9,6.9,0,0,1-8.176,2.725c-5.316-1.771-3.72-7-3.639-7.256-.134.187-1.98,2.58-6.347-.92-4.233-3.383.99-9.124,1.73-9.9l-.035-.07c-1.281.244-12.7,2.09-14.412-8.193a11.1,11.1,0,0,1,5.6-12.112c-.379-1.531-.554-2.713-.554-2.713s-2.643,6.382-7.843,4.839c-4.641-1.38-3.878-4.752-3.662-5.468-.28.8-1.945,4.862-6.143,2.935-4.647-2.137-2.551-7.925-2.551-7.925s-14.475,11.919-22.109,5.881-5.922-23.25-5.922-23.25-8.99,4.873-19.023-4.513-10.854-16.8-10.854-16.8a23.082,23.082,0,0,1-2.876-1.822c-2.295,2.1-5.41,3.068-9.614,1.362-13.084-5.3-6.131-13.218-6.131-13.218s-24.048,3.145-23.915-8.286,16.729-12.95,16.729-12.95-9.613-8.687-3.8-16.624c4.862-6.644,10.458-6.865,12.141-6.76-2.038-.245-9.736-1.5-13.125-6.97-2.632-4.245-1.176-6.388.064-7.337-3.138,1.648-11.774,5.549-15.424.874-4.379-5.613.96-10.033,1.251-10.272-.314.076-6.294,1.514-6.242-2.935.059-4.5,3.372-4.536,3.482-4.536-.314-.215-9.526-6.544-3.249-14.9,6.388-8.5,11.471-3.3,11.471-3.3a12.222,12.222,0,0,1-1.1-3.511c-.018-.052-.041-.1-.059-.151-3.528-10.47,8.968-14.057,8.968-14.057s-8.6-2.614-6.307-7.954c2.184-5.1,4.915-3.924,5.16-3.808-.292-.3-4-4.1-.2-8.111a6.9,6.9,0,0,1,8.5-1.45s-1.281-2.405,2.294-5.345c3.174-2.6,5.165-1.351,5.579-1.037-.536-.465-3.663-3.249-3.709-5.106,0,0-6.522-.635-6.685-6.725a7.965,7.965,0,0,1,5.072-7.856s-3.8-5.182,1.752-10.207,17.475-.064,17.475-.064-1.287-2.405-.111-4.064a9.012,9.012,0,0,1,2.777-2.51s-4.116-1.922-3.423-6.411,8.379-5.508,8.379-5.508-14-6.935-10.639-17.993,15.111-12.193,18.476-7.814c0,0,4.973,3.523,9.3-1.875,0,0-3.534-10.469,8.053-17.69a16.464,16.464,0,0,1,20.357,1.485s.151-9.351,7.738-14.435,16.933-4.926,16.933-4.926S226.167,90.3,240,75.7s29.015,6.126,29.015,6.126,14.365-9.73,23.559-.227a28.363,28.363,0,0,1,3.465,4.279c6.119-2.83,9.63.67,9.63.67s-2-9.986,4-11.983a10.032,10.032,0,0,1,9.986,2s-2-9.986,9.986-9.986c9.1,0,10.138,3.453,10.109,5.118.471-2.073,2.748-7.115,13.858-7.115,13.981,0,13.981,11.983,13.981,11.983s2-7.989,7.988-9.986,11.984,2,11.984,2-7.989-11.984,0-21.97,23.972-3.994,23.972-3.994S391.552,18.64,405.538,4.654s37.948,7.994,37.948,7.994,0-13.986,15.978-11.989,9.986,37.954,9.986,37.954,9.986-5.992,19.978,9.986-2,29.958-2,29.958,21.969-9.986,29.958,4c3.331,5.834,2.492,14.784.384,23.244,12.316-3,15.972,8.449,15.972,8.449s4.944-7.75,14.895.2,1.281,15.658,1.281,15.658a19.737,19.737,0,0,1,10.085,2.824,15.47,15.47,0,0,1,6.539-.583c16.019,1.648,14.7,19.257,14.7,19.257s3.255-12.228,12.479-7.524c9.083,4.636,4.972,15.181,4.85,15.5.3-.355,13.311-15.786,21.37-4.4,8.152,11.529-1.974,14.44-1.974,14.44S639.9,179.956,633.613,189.505Z" fill="url(#a)"/>
    <path d="M538.534,459.088s4.873,16.653-6.988,22.5c-11.622,5.724-16.373.466-16.566.245.181.337,5.357,10.161-3.668,15.43,0,0,4.221,13.078-11.861,16,0,0-2.44,17.055-20.147,11.041a20.043,20.043,0,0,1-2.9,5.252c3.732.96,7.773,2.923,7.838,6.923.122,7.447-4.327,9.014-4.327,9.014s15.978,6.58,13.375,19.25-14.009,11.978-14.009,11.978,4.1,4.14,2.655,7.144-5.421,6.312-5.421,6.312,6.824-1.072,8.221,4.169c1.218,4.548-1.857,5.724-2.678,5.957.961-.192,5.1-.757,5.642,3.727.606,5.077-5.421,6.311-5.421,6.311s17.719,6.114,16.56,15.78-16.728,17.2-16.728,17.2,8.85,5.118,6.084,18.581-8.652,18.027-8.652,18.027a22.74,22.74,0,0,1-.053,3.412c2.987.856,5.439,3,6.184,7.483,2.283,13.707-7.756,12.187-8.065,12.14.35.437,15.122,18.924,5.422,24.712-9.818,5.852-19.781-7.5-19.781-7.5s-2.387,12.734-12.187,11.925c-8.21-.676-11.319-5.328-12.111-6.825.861,1.87,3.808,9.09.914,14.837-2.242,4.466-4.833,4.344-6.289,3.779,3.046,1.817,10.877,7.139,8.8,12.694-2.5,6.672-9.06,4.419-9.409,4.3.238.239,4.571,4.577.757,6.859-3.931,2.341-5.683-.605-5.683-.605s-.425,11.406-10.8,10.574c-4.21,4.739-12.216,3.028-12.216,3.028s6.359,6.358,1.817,9.992c-4.373,3.5-6.219,1.106-6.353.92.082.256,1.677,5.485-3.639,7.255a6.9,6.9,0,0,1-8.175-2.725s0,2.725-4.542,3.633c-3.977.792-5.165-1.193-5.4-1.7.268.705,1.683,4.588.862,6.242,0,0,5.444,3.634,2.719,9.078a7.957,7.957,0,0,1-8.169,4.542s.908,6.358-6.359,8.175-15.442-8.175-15.442-8.175,0,2.725-1.817,3.633a9.051,9.051,0,0,1-3.633.908s2.725,3.634,0,7.267c-2.673,3.564-9.718,1.008-9.98.915.25.355,8.955,12.827.9,20.88-8.175,8.175-19.075,3.633-19.984-1.817,0,0-2.725-5.444-9.083-2.719,0,0-1.817,10.895-15.437,11.8a16.465,16.465,0,0,1-17.258-10.9s-4.542,8.175-13.62,9.083-17.259-3.633-17.259-3.633,4.542,19.075-14.534,25.434-22.7-19.076-22.7-19.076-17.253,1.817-20.886-10.9c-3.546-12.4,2.422-16.164,2.713-16.339-.425.134-10.964,3.424-14.522-6.364,0,0-13.625,1.817-13.625-14.534,0,0-16.345-5.444-7.267-21.8a19.8,19.8,0,0,1-7.413-7.791c-3.726,1.549-8.658,2.638-11.185-.838-4.385-6.027-1.648-9.858-1.648-9.858s-16.857,3.8-22.016-8.059,4.576-17.853,4.576-17.853-5.735-1.03-6.288-4.32c-.536-3.2.739-8.024.8-8.269-.221.2-5.054,4.7-9.118,1.31-3.709-3.109-1.671-5.9-1.188-6.469-.582.623-3.721,3.686-6.807.251-3.342-3.715.617-8.088.8-8.28-.437.122-18.069,5.083-22.616-3.389-4.612-8.572,3.8-23.688,3.8-23.688s-10.184.9-15.663-11.7-3.29-19.722-3.29-19.722-10.743-12.91.518-20.246a8.886,8.886,0,0,1,3.855-8,10.369,10.369,0,0,1,.687-1.846,19.858,19.858,0,0,1-7.267-5.281,15.516,15.516,0,0,1-6.393-1.479c-14.452-6.44-8.21-22.29-7.989-22.855-.309.466-7.057,10.417-14.19,3.249-7.145-7.185-.088-15.873.209-16.233-.512.314-17.573,10.807-21.672-2.481-4.164-13.492,6.37-13.107,6.37-13.107S-6.413,556.218,2.531,549.1s20.613,4.78,20.613,4.78.658-12.938,10.475-13.45c8.228-.431,11.931,3.767,12.915,5.141-1.1-1.735-4.99-8.5-2.894-14.58,1.631-4.722,4.21-4.95,5.736-4.583-3.267-1.4-11.739-5.624-10.423-11.407,1.625-7.138,8.763-5.514,8.763-5.514s-5.258-3.849-1.682-6.7,5.718-.163,5.718-.163-1.072-10.924,8.693-11.879c-1.264-4.2-1.689-9.736,2.026-14.6a12.828,12.828,0,0,1,3.238-3.092c-1.607-2-2.521-4.338-1.473-6.766,2.952-6.848,7.645-6.446,7.645-6.446S60.02,447.285,67.6,436.8s17.695-5.165,17.695-5.165-2.038-5.462.507-7.6,7.54-3.534,7.54-3.534-6.661-1.816-5.788-7.174c.781-4.774,4.228-4.442,4.961-4.32-.832-.181-5.066-1.316-3.685-5.724,1.531-4.879,7.54-3.529,7.54-3.529s-13.649-12.856-8.624-21.189,22.319-8.81,22.319-8.81-5.968-8.3,2.079-19.436,15.3-12.886,15.3-12.886a22.148,22.148,0,0,1,1.444-3.086c-2.37-2.009-3.721-4.979-2.562-9.363,3.6-13.649,12.338-7.751,12.338-7.751s-6.155-23.454,5.206-24.764,14.953,14.964,14.953,14.964,7.406-10.638,16.013-5.875c7.208,3.989,8.128,9.509,8.239,11.2-.018-2.056.262-9.847,5.258-13.9,3.884-3.151,6.19-1.98,7.29-.862-2.032-2.912-6.987-10.982-2.812-15.192,5.054-5.089,10.137-.25,10.347-.047-.088-.238-2.324-6.055,2.125-6.568,4.542-.524,4.938,2.882,4.938,2.882s3.662-7.394,10.365-6.527c3.662-6.056,11.045-6,11.045-6s-5.828-7.11,4.822-14.091,15.279,3.656,15.279,3.656a19.758,19.758,0,0,1,5.822-8.711,15.432,15.432,0,0,1,1.479-6.393c6.435-14.452,22.29-8.21,22.855-7.989-.466-.309-10.417-7.057-3.249-14.19,7.179-7.151,15.873-.087,16.234.209-.314-.512-10.807-17.579,2.481-21.672,13.485-4.163,13.1,6.37,13.1,6.37s16.653-17.631,23.769-8.687-4.781,20.606-4.781,20.606,12.938.658,13.451,10.481c.425,8.228-3.767,11.932-5.142,12.916,1.735-1.1,8.5-4.99,14.581-2.9,4.722,1.631,4.949,4.211,4.582,5.736,1.4-3.266,5.619-11.739,11.407-10.423,7.139,1.625,5.509,8.763,5.509,8.763s3.854-5.257,6.7-1.682.162,5.718.162,5.718,10.924-1.072,11.879,8.693c4.2-1.263,9.736-1.688,14.6,2.027,5.834,4.448,4.809,9.3,3.208,12.321a12.843,12.843,0,0,1,4.554-.839c11.051-.163,10.644,12.84,10.644,12.84s5.118-7.4,9.5-3.576,2.032,6.091,2.032,6.091,5.037-2.76,7.8,2.277a6.9,6.9,0,0,1-1.222,8.53s2.684-.483,4.384,3.82c1.526,3.849-.32,5.357-.728,5.637.583-.361,4.222-2.5,6.01-1.98,0,0,2.6-6.009,8.449-4.3a7.958,7.958,0,0,1,5.927,7.232s6.1-2.033,9.183,4.792-5.287,16.653-5.287,16.653,2.684-.489,3.9,1.135a9.077,9.077,0,0,1,1.543,3.413s3.086-3.331,7.144-1.3,2.679,9.672,2.679,9.672,10.889-11.209,20.392-4.629,6.987,18.114,1.787,19.984c0,0-4.879,3.656-1.06,9.421,0,0,11.046-.157,14.377,13.084a16.464,16.464,0,0,1-7.64,18.924s8.851,3.01,11.366,11.78-.489,17.631-.489,17.631,17.958-7.878,27.618,9.753S538.534,459.088,538.534,459.088Z" fill="url(#b)"/>
    <path d="M763.688,349.824c-4.148,9.382-18.367,4.774-18.367,4.774s4.858,10.563-2.732,15.05c-6.362,3.766-11.048,1.974-12.406,1.29,1.6.919,7.5,4.675,8.363,10.385.674,4.43-1.285,5.683-2.643,6.028,3.171-.251,11.664-.418,13.028,4.727,1.676,6.347-4.67,8.029-4.67,8.029s5.777.873,4.121,4.623c-1.619,3.657-4.336,2.565-4.471,2.513.167.266,5.558,8.755-2.581,13.435a11.553,11.553,0,0,1-5.657,1.813,8.48,8.48,0,0,1-1.625,1.782s12.407,1.666,11.811,8.326-4.717,7.632-4.717,7.632,13.629,7.386,10.108,18.44-13.634,9.355-13.634,9.355,3.265,4.086,1.693,6.629-5.438,5.12-5.438,5.12,6.19-.314,6.942,4.492c.674,4.331-2.408,4.989-3.03,5.078.732-.084,4.7-.319,4.754,3.844.057,4.587-5.438,5.12-5.438,5.12s15.232,7.135,13.284,15.65-16.559,13.749-16.559,13.749,7.407,5.406,3.667,17.154-9.429,15.259-9.429,15.259-.449,18.126-16.121,12.37a10.051,10.051,0,0,1-5.61,5.166,14.475,14.475,0,0,1,1.724,4.665c1.442,7.914-1.881,15.421-2,15.687.407-.126,16.809-5.234,23.788,11.158,7.068,16.59-15.4,21.684-15.4,21.684s2.873,15.3-8.233,19.469c-10.756,4.043-14.574-.915-14.809-1.233.172.412,3.834,9.554-4.639,13.44,0,0,2.549,11.785-11.55,13.185,2.586,11.753-13.524,18.753-13.524,18.753s5.668,14.5-4.471,20.66c-9.816,5.971-14.491,1.808-14.773,1.546a14.26,14.26,0,0,1,1.823,4.644,6.977,6.977,0,0,1,.809,2.8c.225,3.48-1.635,7.032-3.943,10.046a9.992,9.992,0,0,1-5.036,9.679c2.476,2.048,5.589,6.112,5.448,13.577-.23,12.323-4.675,17.316-4.675,17.316s4.749,17.5-11.915,16.461c0,0-.888,8.687-11.043,8.493s-10.709-8.906-10.709-8.906-6.185,7.919-13.65,3.249a20.133,20.133,0,0,1-3.421,1.379c1.933,4.931,3.2,12.161-4.493,14.6-12.072,3.818-11.795-5.632-11.795-5.632s-14.819,15.927-21.266,7.951,4.153-18.518,4.153-18.518-11.612-.507-12.135-9.314a.209.209,0,0,0,0-.058,14.418,14.418,0,0,1-4.962-6.968c-1.938,4.362-6.316,11.372-14.334,10.787a15.134,15.134,0,0,1-5.731-1.484c-7.209,2.351-16.486,3.15-28.062.2a4.444,4.444,0,0,1-1.807.872c-3.322.846-5.166-1.859-5.887-3.275-.162-.063-.334-.13-.5-.193-.715,3-4.252,15.864-11.967,15.948-8.734.089-17.239-12.887-17.239-12.887s-3.526,8.468-15.822,7.574-17.04-5.605-17.04-5.605a20.8,20.8,0,0,1-3.04.35c-.418,2.758-2.043,5.187-5.94,6.373-12.119,3.678-11.732-5.772-11.732-5.772s-15,15.755-21.355,7.7,4.372-18.471,4.372-18.471-11.607-.643-12.03-9.455c-.35-7.381,3.427-10.688,4.665-11.565-1.562.982-7.643,4.445-13.091,2.538-4.231-1.478-4.424-3.792-4.09-5.161-1.264,2.92-5.088,10.51-10.27,9.3a6.1,6.1,0,0,1-5.057-6.618c-1.843,1.578-5.025,2.68-10.149-.042-5.7-3.019-6.138-6.864-5.584-9.444a8.7,8.7,0,0,1-.8-2.607c-3.542.329-10.729.366-11.847-4.518-1.489-6.514,2.121-8.714,2.121-8.714s-15.243-2.81-15.311-14.412S308.172,705.8,308.172,705.8s-4.367-2.878-3.662-5.782a18.248,18.248,0,0,1,2.639-5.239,9.222,9.222,0,0,1,.381-1.129c-1.51.423-5.637,1.207-7.423-2.309-1.9-3.74.533-5.349,1.233-5.725-.831.355-4.331,1.588-5.631-2.225-1.474-4.341,3.588-6.546,3.588-6.546s-16.7-2.079-17.468-10.776,11.492-18.2,11.492-18.2-8.718-2.847-8.791-15.175,4.246-17.431,4.246-17.431-2.967-9.957,2.827-14.522a14.9,14.9,0,0,1-7.664-8.207c-3.468-8.88,2.638-16.392,9.027-21.438a12.251,12.251,0,0,1-1.755-2.727c-2.523-5.3.214-9.048,2.862-11.226a5.076,5.076,0,0,1-2.81-3.515,12.085,12.085,0,0,1-.2-4.169,4.047,4.047,0,0,1,.173-.982,6.18,6.18,0,0,1,2.141-3.562c-1.739-.4-14.986-3.829-14.835-14.674.162-11.6,10.333-12.908,10.333-12.908s-4.31-2.962-3.547-5.85S289.043,505,289.043,505s-5.835,2.1-7.945-2.288c-1.834-3.782.642-5.344,1.347-5.7-.835.339-4.372,1.51-5.589-2.33-1.389-4.372,3.714-6.477,3.714-6.477s-16.643-2.409-17.249-11.122,11.853-17.964,11.853-17.964-8.661-3.019-8.489-15.348,4.6-17.342,4.6-17.342-4.837-17.474,11.832-16.518c0,0,.846-8.692,11-8.546s10.756,8.849,10.756,8.849a14.681,14.681,0,0,1,2.554-2.434,5.06,5.06,0,0,1-.266-3.385,6.185,6.185,0,0,1,5.866-5.031s-2.095-1.258-.695-5.171c1.29-3.62,3.542-3.411,3.866-3.359-.434-.073-4.341-.778-5.266-2.23,0,0-5.307,2.517-8.243-2.1a7.151,7.151,0,0,1,.282-8.384s-5.312-2.236-3.353-8.667,13.414-8.1,13.414-8.1-2.095-1.259-1.954-3.071a8.134,8.134,0,0,1,.977-3.213,5.576,5.576,0,0,1-5.589-3.359c-1.536-3.771,3.918-8.1,3.918-8.1s-13.974,1.117-16.492-8.944,6.013-16.35,10.625-14.532c0,0,5.449.418,6.29-5.73,0,0-7.548-6.426-1.954-17.328a14.766,14.766,0,0,1,16.35-8.237s-4.194-7.272-.7-14.674,10.761-11.6,10.761-11.6-16.764-5.312-12.851-22.916,25.152-8.661,25.152-8.661,6.572-14.115,18.027-11.038c11.184,3,11.32,9.33,11.32,9.633.089-.366,2.414-10.014,11.6-8.233,0,0,4.4-10.145,15.551-4.795a10.083,10.083,0,0,1-1.363-7.47c1.63-9.779,13.038-7.335,13.038-7.335s-5.7-5.7-1.63-8.963c3.923-3.135,5.579-.988,5.7-.826-.073-.23-1.5-4.915,3.265-6.5a6.182,6.182,0,0,1,7.329,2.444s0-2.444,4.075-3.259c3.573-.716,4.638,1.071,4.847,1.525-.24-.637-1.509-4.121-.773-5.6,0,0-4.889-3.259-2.444-8.149a7.146,7.146,0,0,1,7.334-4.074s-.815-5.705,5.7-7.334,13.848,7.334,13.848,7.334,0-2.445,1.63-3.26a8.119,8.119,0,0,1,3.259-.815,5.575,5.575,0,0,1,0-6.519c2.4-3.192,8.719-.9,8.959-.815-.224-.319-8.039-11.508-.809-18.738,7.334-7.334,17.107-3.259,17.922,1.63,0,0,2.445,4.89,8.149,2.445,0,0,1.63-9.779,13.854-10.594a14.769,14.769,0,0,1,15.478,9.779s4.074-7.334,12.223-8.149,15.483,3.26,15.483,3.26-4.074-17.108,13.033-22.812,20.373,17.107,20.373,17.107,15.478-1.63,18.738,9.779c3.181,11.132-2.173,14.506-2.434,14.663.381-.12,9.836-3.071,13.028,5.705,0,0,12.218-1.63,12.218,13.038,0,0,14.668,4.889,6.519,19.553,0,0,6.138,3.353,7.637,9.721,3.714,2.826,2.79,7.491,2.79,7.491s10.41-6.948,14.365-1.557,1.509,8.844,1.509,8.844,15.107-3.474,19.778,7.151-4.044,16.032-4.044,16.032,5.151.909,5.653,3.855c.49,2.883-.643,7.24-.69,7.428.2-.188,4.513-4.247,8.175-1.212,3.338,2.774,1.52,5.286,1.087,5.8.517-.559,3.322-3.317,6.106-.246,3.077,3.4-.695,7.433-.695,7.433s16.142-4.717,20.311,2.957-3.333,21.266-3.333,21.266,9.136-.846,14.093,10.442,3.02,17.682,3.02,17.682a20.293,20.293,0,0,1,1.729,2.524c2.633-.92,5.542-.622,8.41,2.272,8.917,8.99.386,13.064.386,13.064S767.835,340.447,763.688,349.824Z" fill="url(#c)"/>
    <path d="M481.466,1044.559c4.468-29.791-15.641-180.979-15.641-180.979l-26.811,8.192s17.129,129.59,13.406,163.85-43.942,89.373-48.41,109.481-45.431-.744-46.921-64.05-5.958-152.678-8.193-171.3H316.871s0,90.885-3.724,114.706-10.426,81.913-2.979,112.449,24.578,93.1,13.406,119.908-22.343,30.305-22.343,30.305H456.143s-15.64-91.376-7.447-118.188S477,1074.35,481.466,1044.559Z" fill="url(#d)"/>
    <path d="M620.451,765.57s9.351,2.8,4.811,13.091-27.388-.93-27.388-.93,2.006,7.883-10.688,11.356-19.641-7.339-19.641-7.339,2.278,16.7-8.682,19.239c-2.826.658-6.138,0-9.491-1.332.183.386.36.784.522,1.212,5.083,13.242-8.912,19.344-9.434,19.568.444-.089,11.09-2.152,11.064,6.942-.021,9.283-10.442,10.166-10.442,10.166s18.11,4.121,12.192,15.321-12.354,4.268-12.354,4.268.621,21.746-9.57,20.592-10.035-16.11-10.035-16.11-8.63,7.794-15.186,1.885c-5.49-4.946-5.176-9.956-4.931-11.455-.4,1.8-2.22,8.556-7.412,11.085-4.028,1.964-5.809.47-6.545-.726,1.185,2.951,3.881,11.011-.622,13.843-5.558,3.5-9.053-2.059-9.053-2.059s.888,5.778-3.186,5.313-3.73-3.521-3.73-3.521S464.4,883.59,457.6,878c-1.865,3.463-5.1,7.24-10.552,7.976-5.208.7-7.8-1.53-9.094-3.954-.2.225-.408.444-.633.669-6.806,6.806-10.954,2.982-11.152,2.8.062.335,1.285,7-2.8,8.358a7.008,7.008,0,0,1-6.974-1.394s1.395,6.974-6.973,6.974c-6.358,0-7.079-2.414-7.063-3.573-.324,1.446-1.917,4.967-9.674,4.967-9.769,0-9.769-8.368-9.769-8.368s-1.394,5.579-5.578,6.974c-4.08,1.358-8.16-1.259-8.364-1.39.11.167,5.517,8.436,0,15.337-5.506,6.88-16.439,2.9-16.732,2.8.314.381,13.828,16.851,4.179,26.5-9.763,9.763-26.5-5.579-26.5-5.579s0,9.763-11.163,8.368-6.973-26.5-6.973-26.5-6.974,4.184-13.948-6.974,1.395-20.921,1.395-20.921-15.342,6.974-20.921-2.79c-1.379-2.413-1.735-5.589-1.494-9.011a13.408,13.408,0,0,1-1.6-.119c-9.632-1.343-7.757-12.407-7.684-12.83-.209.214-5.61,5.767-8.912,1.86-3.244-3.84-1.133-5.553-.977-5.673-.24.083-4.879,1.629-6.592-3.093a6.179,6.179,0,0,1,2.246-7.391s-2.445.062-3.364-3.986c-.815-3.557.956-4.67,1.4-4.89-.616.251-4.085,1.625-5.584.925,0,0-3.129,4.973-8.081,2.664A7.149,7.149,0,0,1,233.4,839.5s-5.678.966-7.48-5.506,6.957-14.042,6.957-14.042-2.444.063-3.3-1.54a8.182,8.182,0,0,1-.9-3.239,5.567,5.567,0,0,1-6.513.177c-3.265-2.314-1.134-8.7-1.061-8.932-.313.235-11.288,8.337-18.706,1.311-7.522-7.136-3.714-17.019,1.149-17.965,0,0,4.822-2.575,2.225-8.211,0,0-9.815-1.369-10.954-13.561a14.767,14.767,0,0,1,9.356-15.739s-7.439-3.876-8.468-12,2.842-15.562,2.842-15.562-16.993,4.529-23.152-12.422,16.56-20.816,16.56-20.816-2.043-15.437,9.272-19c11.048-3.479,14.558,1.792,14.72,2.042-.13-.376-3.338-9.742,5.36-13.174,0,0-1.959-12.171,12.7-12.563,0,0,3.552-11.685,14.783-8.844-.136-.162-.271-.318-.407-.5-7.8-9.983-1.808-14.663-1.808-14.663s-9.11.684-10.233-4.869a9.012,9.012,0,0,1,2.873-8.676s-9.11.684-7.794-9.988c1-8.1,4.184-8.645,5.663-8.442-1.8-.642-6.034-3.223-4.817-13.116,1.531-12.449,12.2-11.138,12.2-11.138s-6.9-2.653-8.013-8.206,3.092-10.453,3.092-10.453-11.549,5.8-19.563-2.408-.93-21.778-.93-21.778-23.532,15.155-34.45,1.176,11.273-32.915,11.273-32.915-12.448-1.531-8.917-15.541c3.5-13.884,34.33-4.894,34.879-4.737-.125-.3-3.991-9.659,11.09-16.685,15.138-7.052,26.181,4.769,26.448,5.056-.131-.428-6.06-19.829,6.012-25.847.042-.4.1-.815.173-1.248,1.9-11.268,11.716-7.831,11.716-7.831a15.042,15.042,0,0,1-1.128-2.486c-2.439-1.066-4.68-3.187-6.174-7.052-5.114-13.222,8.859-19.365,9.382-19.589-.45.089-11.085,2.178-11.085-6.911-.006-9.288,10.416-10.2,10.416-10.2s-18.127-4.069-12.239-15.285,12.343-4.3,12.343-4.3-.684-21.746,9.507-20.618,10.088,16.079,10.088,16.079,8.6-7.815,15.175-1.928c5.5,4.931,5.208,9.941,4.962,11.44.4-1.8,2.2-8.562,7.381-11.106,4.028-1.974,5.809-.485,6.546.711-1.191-2.952-3.913-11,.585-13.848,5.417-3.432,8.9,1.781,9.058,2.027-.042-.3-.789-5.757,3.176-5.318a4.575,4.575,0,0,1,2.857,1.2,14.791,14.791,0,0,1,7.47-2,8.176,8.176,0,0,1,4.378-2.821c1.018-2.931,3.04-6.958,6.843-9.3a5.225,5.225,0,0,1,3.688-3.264c6.529-1.427,8.7,2.209,8.7,2.209s2.952-15.222,14.554-15.18,13.017,10.2,13.017,10.2,2.915-4.341,5.814-3.605,6.514,3.647,6.514,3.647-2.152-5.809,2.2-7.967c3.892-1.933,5.454.753,5.741,1.353-.3-.7-1.687-4.382,2.252-5.678,4.356-1.437,6.514,3.646,6.514,3.646s2.23-16.669,10.938-17.363,18.09,11.664,18.09,11.664,2.931-8.692,15.259-8.65,17.39,4.414,17.39,4.414,17.421-5.02,16.637,11.659a9.756,9.756,0,0,1,8.322,7.616,4.707,4.707,0,0,1,5.542,2.67,6.184,6.184,0,0,1-1.264,7.626s2.413-.381,3.86,3.511c1.29,3.479-.392,4.8-.768,5.041.538-.309,3.84-2.158,5.428-1.656,0,0,2.455-5.339,7.663-3.694a7.152,7.152,0,0,1,5.177,6.6s5.506-1.7,8.133,4.487-5.067,14.831-5.067,14.831,2.413-.387,3.474,1.1a8.1,8.1,0,0,1,1.316,3.087,5.574,5.574,0,0,1,6.441-1.019c3.6,1.9,2.21,8.724,2.21,8.724s9.987-9.837,18.377-3.746,5.908,16.387,1.206,17.96c0,0-4.445,3.181-1.138,8.426,0,0,9.915.078,12.636,12.019a14.766,14.766,0,0,1-7.224,16.821s7.877,2.873,9.961,10.792-.789,15.8-.789,15.8,16.262-6.707,24.578,9.3-13.7,22.8-13.7,22.8,4.038,15.029-6.717,20.038c-10.532,4.905-14.69.1-14.862-.1.151.3,4.607,9.214-3.594,13.764,0,0,3.526,11.811-10.954,14.115,0,0-2.518,15.19-18.2,9.538,1.087,5.725-2.105,7.794-2.105,7.794s15.321,2.393,15.7,13.989-9.711,13.383-9.711,13.383,4.445,2.753,3.818,5.679-3.411,6.639-3.411,6.639,5.731-2.366,8.05,1.912c2.069,3.813-.554,5.474-1.144,5.788.684-.329,4.315-1.844,5.757,2.037,1.593,4.3-3.406,6.645-3.406,6.645s16.742,1.619,17.755,10.3-11,18.5-11,18.5a10.927,10.927,0,0,1,3.046,1.656c2.068-.574,5.208.418,8.692,8.066,0,0,8.285-3.344,12.96,5.343s-.533,11.487-.533,11.487,7.084.669,7.219,5.078a7.012,7.012,0,0,1-3.343,6.279s7.084.669,4.681,8.682c-1.823,6.085-4.341,6.091-5.449,5.735,1.291.732,4.206,3.27,1.98,10.7-1.974,6.582-6.524,7.339-9.053,7.214a5.018,5.018,0,0,1-.229.872c1.462,1.243,3.452,3.437,3.536,6.211.136,4.409-3.735,7.616-3.735,7.616s9.617-2.941,14.694,4.4-2.131,16.836-2.131,16.836,20.039-8.556,26.584,3.6S620.451,765.57,620.451,765.57Z" fill="url(#e)"/>
  </g>
</svg>
