<svg xmlns="http://www.w3.org/2000/svg" xmlns:xlink="http://www.w3.org/1999/xlink" width="601.927" height="945.627" viewBox="0 0 601.927 945.627">
  <defs>
    <linearGradient id="a" y1="415.143" x2="523.809" y2="415.143" gradientUnits="userSpaceOnUse">
      <stop offset="0" stop-color="#005437"/>
      <stop offset="1" stop-color="#006837"/>
    </linearGradient>
    <linearGradient id="b" x1="121.385" y1="199.376" x2="539.969" y2="199.376" xlink:href="#a"/>
    <linearGradient id="c" x1="284.095" y1="785.79" x2="330.677" y2="785.79" gradientUnits="userSpaceOnUse">
      <stop offset="0" stop-color="#66421f"/>
      <stop offset="1" stop-color="#754c24"/>
    </linearGradient>
    <linearGradient id="d" x1="166.522" y1="403.483" x2="601.927" y2="403.483" xlink:href="#a"/>
  </defs>
  <title>Tree_27</title>
  <g>
    <path d="M522.675,336.561c-6.282,9.543-21.073,1.863-21.073,1.863s3.4,12.5-5.77,16.048c-7.686,2.964-12.513.128-13.876-.868,1.59,1.305,7.384,6.516,7.285,12.95-.076,5-2.457,6.015-4.018,6.143,3.535.309,12.9,1.689,13.451,7.6.675,7.284-6.615,7.96-6.615,7.96s6.195,2.026,3.68,5.846c-2.44,3.7-5.2,2.044-5.369,1.939.128.3,4.268,10.1-4.576,13.986,2.5,3.6,4.629,8.729,2.614,14.511-1.491,4.285-3.942,6.12-6.393,6.76.087.221.174.437.256.67,4.018,11.238-5.6,13.456-5.6,13.456s11.832,7.4,8.158,13.882-8.3,5.584-8.3,5.584,10.446,13.765,1.788,23.373-18.15,3.231-18.15,3.231,1.438,5.649-1.327,7.506-7.873,2.7-7.873,2.7,6.429,2.527,4.979,7.756c-1.293,4.664-4.682,3.965-5.392,3.761.8.268,4.891,1.858,3.039,6.085-2.015,4.618-7.7,2.76-7.866,2.708.3.349,12.105,14.341,6.288,21.987-5.9,7.75-23.14,6.353-23.14,6.353s5.037,8.9-4.163,19.1-16.589,11.157-16.589,11.157-5.078,10.51-13.34,9.829a19.635,19.635,0,0,1-3.634,2.76c9.084,16.35-7.267,21.8-7.267,21.8,0,16.345-13.625,14.528-13.625,14.528-3.558,9.788-14.091,6.5-14.516,6.365.291.174,6.259,3.936,2.713,16.344-3.633,12.712-20.892,10.895-20.892,10.895s-3.634,25.434-22.7,19.075-14.534-25.434-14.534-25.434-8.17,4.542-17.253,3.634-13.626-9.078-13.626-9.078A16.459,16.459,0,0,1,252.2,662.225c-13.625-.908-15.442-11.8-15.442-11.8-6.358-2.725-9.083,2.72-9.083,2.72-.909,5.45-11.809,9.992-19.979,1.816-8.058-8.052.653-20.525.9-20.88-.268.093-7.313,2.649-9.986-.914-2.725-3.634,0-7.267,0-7.267a9.043,9.043,0,0,1-3.633-.909c-1.817-.908-1.817-3.633-1.817-3.633s-8.176,9.992-15.436,8.175-6.359-8.175-6.359-8.175a7.967,7.967,0,0,1-8.175-4.542c-2.725-5.444,2.725-9.078,2.725-9.078-.821-1.653.594-5.537.862-6.242-.233.507-1.421,2.492-5.4,1.7-4.542-.909-4.542-3.634-4.542-3.634a6.9,6.9,0,0,1-8.175,2.725c-5.316-1.77-3.721-7-3.639-7.255-.134.186-1.98,2.579-6.347-.92-4.233-3.383.99-9.124,1.729-9.9l-.035-.07c-1.281.245-12.7,2.091-14.411-8.192a11.1,11.1,0,0,1,5.6-12.112c-.378-1.531-.553-2.713-.553-2.713s-2.643,6.382-7.843,4.839c-4.641-1.381-3.878-4.752-3.663-5.468-.279.8-1.945,4.862-6.143,2.935-4.646-2.137-2.55-7.925-2.55-7.925S96.328,567.424,88.7,561.386s-5.922-23.251-5.922-23.251-8.991,4.874-19.023-4.512-10.854-16.8-10.854-16.8A23.136,23.136,0,0,1,50.019,515c-2.294,2.1-5.409,3.069-9.613,1.363-13.084-5.3-6.132-13.218-6.132-13.218S10.226,506.29,10.36,494.86s16.729-12.95,16.729-12.95-9.613-8.688-3.8-16.624c4.862-6.644,10.458-6.865,12.14-6.76-2.038-.245-9.735-1.5-13.124-6.97-2.632-4.245-1.176-6.388.064-7.337-3.139,1.648-11.774,5.549-15.425.873-4.379-5.613.961-10.032,1.252-10.271-.314.075-6.294,1.514-6.242-2.935.058-4.5,3.371-4.536,3.482-4.536-.314-.215-9.526-6.545-3.249-14.9,6.388-8.5,11.471-3.3,11.471-3.3a12.241,12.241,0,0,1-1.1-3.511c-.017-.053-.04-.1-.058-.152-3.528-10.469,8.967-14.056,8.967-14.056s-8.6-2.614-6.306-7.954c2.184-5.1,4.915-3.924,5.159-3.808-.291-.3-4-4.105-.2-8.111a6.9,6.9,0,0,1,8.5-1.45s-1.281-2.405,2.294-5.345c3.173-2.6,5.165-1.351,5.578-1.037-.535-.466-3.662-3.249-3.709-5.107,0,0-6.521-.634-6.684-6.725a7.963,7.963,0,0,1,5.071-7.855s-3.8-5.182,1.753-10.207,17.474-.064,17.474-.064-1.287-2.4-.11-4.065a9.016,9.016,0,0,1,2.777-2.509s-4.117-1.922-3.424-6.411,8.379-5.509,8.379-5.509-14-6.935-10.638-17.992,15.11-12.193,18.476-7.815c0,0,4.973,3.523,9.3-1.874,0,0-3.535-10.47,8.053-17.69a16.461,16.461,0,0,1,20.356,1.485s.152-9.352,7.739-14.435,16.933-4.926,16.933-4.926-13-14.679.832-29.277,29.016,6.125,29.016,6.125,14.364-9.729,23.559-.227a28.293,28.293,0,0,1,3.464,4.28c6.12-2.83,9.631.67,9.631.67s-2-9.986,4-11.984a10.033,10.033,0,0,1,9.986,2s-2-9.987,9.987-9.987c9.095,0,10.137,3.453,10.108,5.118.472-2.072,2.748-7.115,13.858-7.115,13.981,0,13.981,11.984,13.981,11.984s2-7.989,7.989-9.987,11.983,2,11.983,2-7.988-11.984,0-21.97,23.973-3.994,23.973-3.994S280.615,165.7,294.6,151.709s37.947,8,37.947,8,0-13.986,15.978-11.989,9.987,37.953,9.987,37.953,9.986-5.991,19.978,9.986-2,29.959-2,29.959,21.97-9.986,29.959,3.994c3.33,5.835,2.492,14.784.384,23.245,12.316-3,15.972,8.449,15.972,8.449s4.944-7.75,14.895.2,1.281,15.657,1.281,15.657a19.751,19.751,0,0,1,10.085,2.824,15.47,15.47,0,0,1,6.539-.582c16.019,1.648,14.7,19.256,14.7,19.256s3.255-12.228,12.478-7.523c9.084,4.635,4.973,15.18,4.851,15.5.3-.355,13.311-15.785,21.369-4.4,8.152,11.529-1.974,14.441-1.974,14.441S528.964,327.011,522.675,336.561Z" fill="url(#a)"/>
    <path d="M519.991,248.539s1.933,17.242-10.761,20.962c-12.379,3.628-16.181-2.317-16.356-2.608.14.425,3.494,10.941-6.271,14.563,0,0,1.828,13.113-13.579,13.695a8.653,8.653,0,0,1-1.846,2.253c-1.269,2.4-3.843,6.05-8.216,7.372a4.236,4.236,0,0,1-1.392,4.856c-4.367,3.5-6.213,1.107-6.346.92.081.256,1.677,5.485-3.64,7.256a6.9,6.9,0,0,1-8.175-2.726s0,2.726-4.542,3.634c-3.983.792-5.17-1.194-5.4-1.7.268.71,1.682,4.594.861,6.242,0,0,5.451,3.633,2.726,9.083a7.968,7.968,0,0,1-8.176,4.542s.909,6.353-6.358,8.17-15.437-8.17-15.437-8.17,0,2.719-1.816,3.628a9.057,9.057,0,0,1-3.634.908s2.725,3.634,0,7.267c-2.672,3.564-9.718,1.007-9.986.914.251.355,8.961,12.828.9,20.887-8.176,8.169-19.07,3.633-19.978-1.817,0,0-2.725-5.45-9.084-2.725,0,0-1.817,10.894-15.442,11.8a16.46,16.46,0,0,1-17.253-10.895s-4.542,8.175-13.626,9.084-17.253-3.634-17.253-3.634,4.542,19.07-14.533,25.429-22.7-19.076-22.7-19.076-17.258,1.817-20.892-10.894c-3.546-12.409,2.423-16.17,2.714-16.345-.425.134-10.965,3.424-14.517-6.364,0,0-13.625,1.816-13.625-14.528,0,0-16.351-5.451-7.267-21.8,0,0-8.775-4.786-8.874-13.835-4.839-3.843-4.8-10.207-4.8-10.207s-7.11,5.828-14.091-4.822,3.651-15.279,3.651-15.279a19.69,19.69,0,0,1-8.7-5.823,15.381,15.381,0,0,1-6.394-1.479c-14.452-6.434-8.21-22.289-7.989-22.854-.308.466-7.057,10.417-14.19,3.249-7.15-7.18-.087-15.873.21-16.234-.513.314-17.579,10.807-21.673-2.475-4.163-13.491,6.37-13.107,6.37-13.107s-17.631-16.653-8.687-23.769,20.607,4.787,20.607,4.787.658-12.944,10.481-13.457a20.218,20.218,0,0,1,2.236.012,17.605,17.605,0,0,1,7.249-4.2,12.178,12.178,0,0,1,.536-5.241,8.472,8.472,0,0,1,2.212-3.7,5.705,5.705,0,0,1-3.429-3.494,4.086,4.086,0,0,1-.239-1.677c-2.23-1.922-3.866-4.344-3.232-7.127a8.98,8.98,0,0,1,.309-1.066c-4.28-1.205-8.944-3.849-10.172-9.619-2.405-11.308,7.342-17.975,12.4-15.768,0,0,6.056.681,7.232-6.138,0,0-8.152-7.459-1.491-19.378a16.459,16.459,0,0,1,18.535-8.536s-4.379-8.263-.2-16.374,12.45-12.49,12.45-12.49-18.47-6.58-13.416-26.039,28.357-8.659,28.357-8.659,7.878-15.46,20.52-11.582,12.228,11.186,12.228,11.186,2.888-11.116,13.247-8.723c0,0,5.892-12.414,19.605-3.511,0,0,8.8-7.022,16.81-.978,4.1-.134,8.368,2.16,11.885,4.81a14.694,14.694,0,0,1,10.935,2.7c2.422-2.557,6.609-5.218,13.614-5.45,13.736-.461,19.553,4.2,19.553,4.2a22.693,22.693,0,0,1,3.325-.746c.139-3.1,1.653-5.991,5.834-7.761,13-5.5,13.684,5.013,13.684,5.013S390.357-6.151,398.346,2.024s-2.667,20.992-2.667,20.992,12.939-.658,14.441,9.06c1.263,8.14-2.539,12.251-3.8,13.369,1.613-1.275,7.942-5.823,14.207-4.355.082.017.158.041.239.064a10.7,10.7,0,0,1,9.509-3.779c1.531-1.707,3.418-2.853,5.689-2.574,7.261.9,6.37,8.158,6.37,8.158s3.3-5.619,6.492-2.347c3.075,3.15.92,5.485.757,5.66.414-.076,11.361-2.085,12.822,8.245,1.083,7.616-2.428,9.678-4.454,10.231a5.15,5.15,0,0,1-.262.629c2.1.955,6.41,3.586,4.489,8.536a8.321,8.321,0,0,1-2.539,3.47c1.345-.343,2.906-.57,3.808-.128,0,0,3.593-5.473,9.061-2.783a7.977,7.977,0,0,1,4.6,8.146s6.347-.955,8.216,6.3-8.071,15.495-8.071,15.495c.105,0,2.743.017,3.645,1.793a9.058,9.058,0,0,1,.932,3.628s3.616-2.754,7.267-.052c3.581,2.649,1.071,9.718.978,9.98.355-.251,12.764-9.043,20.875-1.042,8.228,8.116,3.761,19.046-1.683,19.989,0,0-5.427,2.766-2.661,9.1,0,0,10.912,1.747,11.908,15.361A16.459,16.459,0,0,1,507.728,180.5s8.2,4.489,9.177,13.561-3.523,17.282-3.523,17.282,19.046-4.67,25.527,14.359S519.991,248.539,519.991,248.539Z" fill="url(#b)"/>
    <path d="M284.1,945.627h33.19s13.392-210.2,13.392-319.673H315.538s-6.405,138.583-14.557,164.786S284.1,945.627,284.1,945.627Z" fill="url(#c)"/>
    <path d="M601.9,415.943c-.88,9.695-16.228,17.678-16.228,17.678s9,4.856,6.626,18.394-8.123,18.272-8.123,18.272a22.741,22.741,0,0,1,.047,3.407c3.01.774,5.526,2.847,6.4,7.3,2.725,13.853-7.709,12.368-7.709,12.368s15.785,18.406,6.143,24.543-19.99-6.917-19.99-6.917-2.015,12.8-11.832,12.28c-8.228-.437-11.471-5-12.3-6.469.914,1.84,4.07,8.973,1.345,14.8-2.113,4.53-4.7,4.483-6.178,3.959,3.092,1.73,11.081,6.819,9.165,12.432-2.3,6.754-8.943,4.681-9.281,4.571.25.239,4.705,4.448.955,6.83-3.855,2.457-5.7-.437-5.7-.437s-.07,9.34-7.779,10.732a12.7,12.7,0,0,1,.093,4.984c-1.817,10.9-14.534,8.175-14.534,8.175s6.359,6.359,1.817,9.992c-4.373,3.5-6.219,1.107-6.353.92.082.256,1.677,5.485-3.639,7.256a6.9,6.9,0,0,1-8.175-2.725s0,2.725-4.542,3.633c-3.977.792-5.165-1.2-5.4-1.7.268.7,1.683,4.588.862,6.236,0,0,5.444,3.633,2.719,9.083a7.955,7.955,0,0,1-8.169,4.542s.908,6.359-6.359,8.176-15.442-8.176-15.442-8.176,0,2.725-1.816,3.634a9.057,9.057,0,0,1-3.634.908s2.725,3.634,0,7.267c-2.667,3.563-9.712,1.007-9.98.914.25.355,8.955,12.822.9,20.881-8.175,8.175-19.075,3.633-19.984-1.817,0,0-2.725-5.45-9.083-2.725,0,0-1.817,10.9-15.436,11.809a16.466,16.466,0,0,1-17.259-10.9s-4.542,8.176-13.62,9.084-17.259-3.634-17.259-3.634,4.542,19.076-14.528,25.429-22.709-19.07-22.709-19.07-17.253,1.817-20.886-10.9c-3.546-12.4,2.422-16.164,2.713-16.339-.425.134-10.964,3.424-14.522-6.364,0,0-13.625,1.816-13.625-14.534,0,0-16.345-5.45-7.261-21.795,0,0-14.412-7.867-6.51-22.482-9.637-4.14-5.666-12.3-5.666-12.3s-13.194,4.548-15.931-2.381.873-9.963.873-9.963-17.27-.53-19.3-13.3,8.9-16.147,8.9-16.147-5.3-2.434-5.008-5.753c.286-3.267,2.766-7.68,2.842-7.814-.221.122-6.056,3.325-9.154-1.007-2.818-3.931-.145-6.132.46-6.563-.716.46-4.518,2.644-6.649-1.455-2.353-4.536,2.853-7.821,2.853-7.821s-18.744.524-21.061-8.932,9.6-21.987,9.6-21.987-10.091-1.671-12.246-15.244,1.747-19.92,1.747-19.92a23,23,0,0,1-1.153-3.208c-3.1.25-6.149-.9-8.425-4.827-7.075-12.217,3.278-14.2,3.278-14.2S160.875,384.348,168,375.41s21.155.047,21.155.047-2.26-12.764,7.2-15.46c7.92-2.259,12.467,1,13.737,2.12-1.462-1.444-6.767-7.162-6.085-13.562.53-4.966,2.993-5.764,4.559-5.752-3.488-.629-12.7-2.848-12.711-8.781-.012-7.32,7.307-7.331,7.307-7.331s-5.986-2.58-3.138-6.155,5.532-1.438,5.532-1.438-3.68-10.976,6.579-13.759,11.081,4.442,11.081,4.442,1.013-5.6,5.089-6.673a3.919,3.919,0,0,1-1.438-1.5s-6.306,1.782-8.682-3.826a7.97,7.97,0,0,1,1.858-9.165s-5.427-3.435-2.091-10.143,16.24-6.434,16.24-6.434-2.073-1.771-1.584-3.744a9.018,9.018,0,0,1,1.672-3.348s-4.536-.292-5.526-4.723,5.793-8.187,5.793-8.187-15.57-1.345-16.478-12.868,9.619-16.869,14.353-14.021c0,0,5.916,1.467,7.972-5.136,0,0-7.11-8.461,1.042-19.408a16.475,16.475,0,0,1,19.489-6.056c-.1-.3-3.174-8.885,1.939-16.251,5.2-7.5,13.969-10.766,13.969-10.766s-17.457-8.933-9.9-27.566,29.242-4.885,29.242-4.885,9.823-14.307,21.853-8.81S328.7,138.951,328.7,138.951s4.309-10.644,14.266-6.923c0,0,7.465-11.541,19.9-.926,0,0,14.755-8.9,21.294,8.624,0,0,7.512-2.871,14.074.722a13.05,13.05,0,0,1,3.779-1.712c10.627-3.016,13.6,9.643,13.6,9.643s3.034-8.461,8.257-5.911,3.54,5.363,3.54,5.363,4.152-3.971,8.123.181a6.9,6.9,0,0,1,1.025,8.553s2.463-1.164,5.229,2.551c2.556,3.441.966,5.4.716,5.665.344-.355,3.412-3.54,5.328-3.5,0,0,.955-6.481,7.045-6.341a7.965,7.965,0,0,1,7.6,5.45s5.363-3.54,10.109,2.253-.792,17.451-.792,17.451,2.463-1.164,4.058.094a9.071,9.071,0,0,1,2.376,2.894s2.119-4.018,6.568-3.1,5.089,8.641,5.089,8.641,7.617-13.643,18.5-9.742,11.431,15.687,6.895,18.837c0,0-3.762,4.792,1.415,9.375,0,0,10.632-3.011,17.27,8.915a16.467,16.467,0,0,1-2.48,20.263s9.334.611,14.033,8.432,4.087,17.154,4.087,17.154S564.9,249.6,578.8,264.13s-7.541,28.678-7.541,28.678,7.185,11.832,1.625,20.572a9.464,9.464,0,0,1-2.487,5.957c.128,0,13.958.017,14.295,7.424.338,7.447-4.064,9.135-4.064,9.135s16.164,6.114,13.934,18.855S580.9,367.13,580.9,367.13s4.221,4.024,2.864,7.069-5.234,6.469-5.234,6.469,6.789-1.275,8.338,3.925c1.351,4.513-1.689,5.782-2.51,6.032.95-.215,5.09-.908,5.753,3.558.757,5.06-5.234,6.469-5.234,6.469S602.769,406.248,601.9,415.943Z" fill="url(#d)"/>
  </g>
</svg>
