<svg xmlns="http://www.w3.org/2000/svg" xmlns:xlink="http://www.w3.org/1999/xlink" width="798.762" height="1014.338" viewBox="0 0 798.762 1014.338">
  <defs>
    <linearGradient id="a" x1="366.968" y1="453.223" x2="830.211" y2="-71.454" gradientUnits="userSpaceOnUse">
      <stop offset="0" stop-color="#5a8539"/>
      <stop offset="1" stop-color="#46952f"/>
    </linearGradient>
    <linearGradient id="b" x1="92.015" y1="464.846" x2="555.258" y2="-59.831" xlink:href="#a"/>
    <linearGradient id="c" x1="6.664" y1="586.217" x2="332.096" y2="453.388" xlink:href="#a"/>
    <linearGradient id="d" x1="380.179" y1="566.061" x2="798.762" y2="566.061" xlink:href="#a"/>
    <linearGradient id="e" x1="306.377" y1="844.465" x2="491.343" y2="844.465" gradientUnits="userSpaceOnUse">
      <stop offset="0" stop-color="#66421f"/>
      <stop offset="1" stop-color="#754c24"/>
    </linearGradient>
    <linearGradient id="f" x1="372.646" y1="708.176" x2="487.212" y2="120.405" xlink:href="#a"/>
  </defs>
  <title>Tree_4</title>
  <g>
    <path d="M797.629,189.505c-6.283,9.544-21.073,1.863-21.073,1.863s3.4,12.5-5.77,16.048c-7.686,2.964-12.514.128-13.876-.868,1.59,1.305,7.383,6.516,7.284,12.951-.075,5-2.457,6.015-4.017,6.143,3.534.308,12.9,1.688,13.45,7.6.676,7.285-6.614,7.96-6.614,7.96s6.195,2.027,3.68,5.846c-2.44,3.7-5.2,2.044-5.369,1.939.128.3,4.268,10.1-4.577,13.987,2.5,3.6,4.629,8.728,2.615,14.51-1.491,4.286-3.942,6.12-6.394,6.76.088.222.175.437.256.67,4.018,11.238-5.6,13.457-5.6,13.457s11.832,7.4,8.157,13.881-8.3,5.584-8.3,5.584,10.446,13.766,1.787,23.373-18.149,3.232-18.149,3.232,1.438,5.648-1.328,7.5-7.872,2.7-7.872,2.7,6.428,2.527,4.978,7.756c-1.293,4.664-4.681,3.966-5.392,3.762.8.268,4.891,1.857,3.04,6.085-2.015,4.617-7.7,2.76-7.867,2.707.3.35,12.106,14.342,6.289,21.987-5.9,7.75-23.14,6.353-23.14,6.353s5.037,8.9-4.164,19.105-16.589,11.156-16.589,11.156-5.077,10.51-13.34,9.829a19.557,19.557,0,0,1-3.633,2.76c9.083,16.35-7.267,21.8-7.267,21.8,0,16.344-13.625,14.528-13.625,14.528-3.558,9.788-14.092,6.5-14.517,6.364.291.175,6.26,3.936,2.714,16.345-3.634,12.711-20.893,10.894-20.893,10.894s-3.633,25.434-22.7,19.076-14.533-25.434-14.533-25.434-8.17,4.541-17.254,3.633-13.625-9.078-13.625-9.078a16.46,16.46,0,0,1-17.253,10.895c-13.625-.909-15.442-11.8-15.442-11.8-6.359-2.725-9.084,2.719-9.084,2.719-.908,5.45-11.808,9.992-19.978,1.817-8.059-8.053.652-20.526.9-20.881-.268.093-7.314,2.65-9.986-.914-2.725-3.633,0-7.267,0-7.267a9.057,9.057,0,0,1-3.634-.908c-1.817-.908-1.817-3.634-1.817-3.634s-8.175,9.992-15.436,8.176-6.358-8.176-6.358-8.176a7.966,7.966,0,0,1-8.176-4.541c-2.725-5.445,2.725-9.078,2.725-9.078-.82-1.654.594-5.538.862-6.242-.233.506-1.421,2.492-5.4,1.7-4.542-.908-4.542-3.633-4.542-3.633a6.9,6.9,0,0,1-8.175,2.725c-5.317-1.771-3.721-7-3.64-7.256-.134.187-1.979,2.58-6.347-.92-4.233-3.383.99-9.124,1.73-9.9l-.035-.07c-1.281.244-12.7,2.09-14.412-8.193a11.1,11.1,0,0,1,5.6-12.112c-.379-1.531-.553-2.713-.553-2.713s-2.644,6.382-7.844,4.839c-4.64-1.38-3.878-4.752-3.662-5.468-.28.8-1.945,4.862-6.143,2.935-4.647-2.137-2.551-7.925-2.551-7.925s-14.475,11.919-22.109,5.881-5.922-23.25-5.922-23.25-8.99,4.873-19.023-4.513-10.854-16.8-10.854-16.8a23.082,23.082,0,0,1-2.876-1.822c-2.294,2.1-5.409,3.068-9.613,1.362-13.084-5.3-6.132-13.218-6.132-13.218s-24.048,3.145-23.914-8.286,16.729-12.95,16.729-12.95-9.614-8.687-3.8-16.624c4.862-6.644,10.458-6.865,12.141-6.76-2.038-.245-9.736-1.5-13.125-6.97-2.632-4.245-1.176-6.388.064-7.337-3.138,1.648-11.773,5.549-15.424.874-4.379-5.613.96-10.033,1.252-10.272-.315.076-6.3,1.514-6.242-2.935.058-4.5,3.371-4.536,3.482-4.536-.315-.215-9.526-6.544-3.25-14.9,6.388-8.5,11.472-3.3,11.472-3.3a12.205,12.205,0,0,1-1.1-3.511c-.018-.052-.041-.1-.058-.151-3.529-10.47,8.967-14.057,8.967-14.057s-8.6-2.614-6.306-7.954c2.183-5.1,4.914-3.924,5.159-3.808-.291-.3-4-4.1-.2-8.111a6.9,6.9,0,0,1,8.5-1.45s-1.281-2.405,2.3-5.345c3.173-2.6,5.165-1.351,5.578-1.037-.536-.465-3.663-3.249-3.709-5.106,0,0-6.522-.635-6.685-6.725a7.965,7.965,0,0,1,5.072-7.856s-3.8-5.182,1.752-10.207,17.475-.064,17.475-.064-1.287-2.405-.111-4.064a9.021,9.021,0,0,1,2.778-2.51s-4.117-1.922-3.424-6.411,8.379-5.508,8.379-5.508-14-6.935-10.638-17.993,15.11-12.193,18.475-7.814c0,0,4.973,3.523,9.3-1.875,0,0-3.534-10.469,8.053-17.69a16.464,16.464,0,0,1,20.357,1.485s.151-9.351,7.739-14.435,16.932-4.926,16.932-4.926-13-14.679.833-29.277,29.015,6.126,29.015,6.126,14.365-9.73,23.559-.227a28.3,28.3,0,0,1,3.465,4.279c6.12-2.83,9.631.67,9.631.67s-2-9.986,4-11.983a10.031,10.031,0,0,1,9.986,2s-2-9.986,9.986-9.986c9.1,0,10.138,3.453,10.109,5.118.471-2.073,2.748-7.115,13.858-7.115C531.6,64.577,531.6,76.56,531.6,76.56s2-7.989,7.988-9.986,11.984,2,11.984,2-7.989-11.984,0-21.97,23.972-3.994,23.972-3.994S555.568,18.64,569.555,4.654,607.5,12.648,607.5,12.648,607.5-1.338,623.48.659s9.986,37.954,9.986,37.954,9.986-5.992,19.978,9.986-2,29.958-2,29.958,21.969-9.986,29.958,4c3.331,5.834,2.493,14.784.385,23.244,12.315-3,15.972,8.449,15.972,8.449s4.943-7.75,14.9.2,1.28,15.658,1.28,15.658a19.742,19.742,0,0,1,10.086,2.824,15.467,15.467,0,0,1,6.539-.583c16.018,1.648,14.7,19.257,14.7,19.257s3.256-12.228,12.479-7.524c9.083,4.636,4.972,15.181,4.85,15.5.3-.355,13.311-15.786,21.37-4.4,8.152,11.529-1.974,14.44-1.974,14.44S803.918,179.956,797.629,189.505Z" fill="url(#a)"/>
    <path d="M522.675,201.128c-6.282,9.543-21.073,1.863-21.073,1.863s3.4,12.5-5.77,16.048c-7.686,2.963-12.513.128-13.876-.868,1.59,1.3,7.384,6.516,7.285,12.95-.076,5-2.457,6.015-4.018,6.143,3.535.309,12.9,1.689,13.451,7.6.675,7.284-6.615,7.96-6.615,7.96s6.195,2.026,3.68,5.846c-2.44,3.7-5.2,2.044-5.369,1.939.128.3,4.268,10.1-4.576,13.986,2.5,3.6,4.629,8.729,2.614,14.511-1.491,4.285-3.942,6.119-6.393,6.76.087.221.174.437.256.67,4.018,11.238-5.6,13.456-5.6,13.456s11.832,7.4,8.158,13.882-8.3,5.584-8.3,5.584,10.446,13.765,1.788,23.373-18.15,3.231-18.15,3.231,1.438,5.649-1.327,7.506-7.873,2.7-7.873,2.7,6.429,2.527,4.979,7.756c-1.293,4.664-4.682,3.965-5.392,3.761.8.268,4.891,1.858,3.039,6.085-2.015,4.618-7.7,2.76-7.866,2.708.3.349,12.105,14.341,6.288,21.987-5.9,7.75-23.14,6.352-23.14,6.352s5.037,8.9-4.163,19.105-16.589,11.157-16.589,11.157-5.078,10.51-13.34,9.829a19.635,19.635,0,0,1-3.634,2.76c9.084,16.35-7.267,21.8-7.267,21.8,0,16.345-13.625,14.528-13.625,14.528-3.558,9.788-14.091,6.5-14.516,6.364.291.175,6.259,3.937,2.713,16.345-3.633,12.711-20.892,10.895-20.892,10.895s-3.634,25.434-22.7,19.075-14.534-25.434-14.534-25.434-8.17,4.542-17.253,3.634-13.626-9.078-13.626-9.078A16.459,16.459,0,0,1,252.2,526.792c-13.625-.908-15.442-11.8-15.442-11.8-6.358-2.725-9.083,2.72-9.083,2.72-.909,5.45-11.809,9.992-19.979,1.816-8.058-8.052.653-20.525.9-20.88-.268.093-7.313,2.649-9.986-.914-2.725-3.634,0-7.267,0-7.267a9.043,9.043,0,0,1-3.633-.909c-1.817-.908-1.817-3.633-1.817-3.633s-8.176,9.992-15.436,8.175-6.359-8.175-6.359-8.175a7.967,7.967,0,0,1-8.175-4.542c-2.725-5.444,2.725-9.078,2.725-9.078-.821-1.653.594-5.537.862-6.242-.233.507-1.421,2.492-5.4,1.7-4.542-.909-4.542-3.634-4.542-3.634a6.9,6.9,0,0,1-8.175,2.725c-5.316-1.77-3.721-7-3.639-7.255-.134.186-1.98,2.579-6.347-.92-4.233-3.383.99-9.124,1.729-9.9l-.035-.07c-1.281.245-12.7,2.091-14.411-8.192a11.1,11.1,0,0,1,5.6-12.112c-.378-1.531-.553-2.713-.553-2.713s-2.643,6.381-7.843,4.838c-4.641-1.38-3.878-4.751-3.663-5.467-.279.8-1.945,4.862-6.143,2.934-4.646-2.136-2.55-7.924-2.55-7.924S96.328,431.991,88.7,425.953,82.773,402.7,82.773,402.7s-8.991,4.874-19.023-4.513-10.854-16.8-10.854-16.8a23.136,23.136,0,0,1-2.877-1.823c-2.294,2.1-5.409,3.069-9.613,1.363-13.084-5.3-6.132-13.218-6.132-13.218s-24.048,3.144-23.914-8.286,16.729-12.95,16.729-12.95-9.613-8.688-3.8-16.624c4.862-6.644,10.458-6.865,12.14-6.76-2.038-.245-9.735-1.5-13.124-6.97-2.632-4.245-1.176-6.388.064-7.337-3.139,1.648-11.774,5.549-15.425.873-4.379-5.613.961-10.032,1.252-10.271-.314.075-6.294,1.514-6.242-2.935.058-4.495,3.371-4.536,3.482-4.536-.314-.215-9.526-6.545-3.249-14.9,6.388-8.5,11.471-3.3,11.471-3.3a12.241,12.241,0,0,1-1.1-3.511c-.017-.053-.04-.1-.058-.152C8.969,259.589,21.464,256,21.464,256s-8.6-2.615-6.306-7.954c2.184-5.1,4.915-3.924,5.159-3.808-.291-.3-4-4.105-.2-8.111a6.9,6.9,0,0,1,8.5-1.45s-1.281-2.405,2.294-5.345c3.173-2.6,5.165-1.351,5.578-1.037-.535-.466-3.662-3.249-3.709-5.107,0,0-6.521-.634-6.684-6.725a7.963,7.963,0,0,1,5.071-7.855s-3.8-5.182,1.753-10.207,17.474-.065,17.474-.065-1.287-2.4-.11-4.064a9.028,9.028,0,0,1,2.777-2.51s-4.117-1.921-3.424-6.41,8.379-5.509,8.379-5.509-14-6.935-10.638-17.992,15.11-12.193,18.476-7.815c0,0,4.973,3.523,9.3-1.874,0,0-3.535-10.47,8.053-17.69a16.461,16.461,0,0,1,20.356,1.485s.152-9.352,7.739-14.435,16.933-4.926,16.933-4.926-13-14.68.832-29.277,29.016,6.125,29.016,6.125,14.364-9.73,23.559-.227A28.293,28.293,0,0,1,185.1,97.5c6.12-2.83,9.631.67,9.631.67s-2-9.987,4-11.984a10.034,10.034,0,0,1,9.986,2s-2-9.986,9.987-9.986c9.095,0,10.137,3.453,10.108,5.118.472-2.072,2.748-7.115,13.858-7.115,13.981,0,13.981,11.983,13.981,11.983s2-7.989,7.989-9.986,11.983,2,11.983,2-7.988-11.983,0-21.969,23.973-3.994,23.973-3.994S280.615,30.263,294.6,16.276s37.947,8,37.947,8,0-13.986,15.978-11.989,9.987,37.953,9.987,37.953,9.986-5.991,19.978,9.986-2,29.959-2,29.959,21.97-9.987,29.959,3.994c3.33,5.835,2.492,14.784.384,23.245,12.316-3,15.972,8.449,15.972,8.449s4.944-7.75,14.895.2,1.281,15.657,1.281,15.657a19.751,19.751,0,0,1,10.085,2.824,15.47,15.47,0,0,1,6.539-.582c16.019,1.648,14.7,19.256,14.7,19.256s3.255-12.228,12.478-7.523c9.084,4.635,4.973,15.18,4.851,15.5.3-.355,13.311-15.785,21.369-4.4,8.152,11.529-1.974,14.441-1.974,14.441S528.964,191.578,522.675,201.128Z" fill="url(#b)"/>
    <path d="M522.675,382.612c-6.282,9.543-21.073,1.863-21.073,1.863s3.4,12.5-5.77,16.048c-7.686,2.964-12.513.128-13.876-.868,1.59,1.3,7.384,6.516,7.285,12.95-.076,5-2.457,6.015-4.018,6.143,3.535.309,12.9,1.689,13.451,7.6.675,7.284-6.615,7.96-6.615,7.96s6.195,2.026,3.68,5.846c-2.44,3.7-5.2,2.044-5.369,1.939.128.3,4.268,10.1-4.576,13.986,2.5,3.6,4.629,8.729,2.614,14.511-1.491,4.285-3.942,6.119-6.393,6.76.087.221.174.437.256.67,4.018,11.238-5.6,13.456-5.6,13.456s11.832,7.4,8.158,13.882-8.3,5.584-8.3,5.584,10.446,13.765,1.788,23.373-18.15,3.231-18.15,3.231,1.438,5.649-1.327,7.506-7.873,2.7-7.873,2.7,6.429,2.527,4.979,7.756c-1.293,4.664-4.682,3.965-5.392,3.761.8.268,4.891,1.858,3.039,6.085-2.015,4.618-7.7,2.76-7.866,2.708.3.349,12.105,14.341,6.288,21.987-5.9,7.75-23.14,6.352-23.14,6.352s5.037,8.9-4.163,19.1-16.589,11.157-16.589,11.157-5.078,10.51-13.34,9.829a19.635,19.635,0,0,1-3.634,2.76c9.084,16.35-7.267,21.8-7.267,21.8,0,16.345-13.625,14.528-13.625,14.528-3.558,9.788-14.091,6.5-14.516,6.364.291.175,6.259,3.937,2.713,16.345-3.633,12.711-20.892,10.895-20.892,10.895s-3.634,25.434-22.7,19.075-14.534-25.434-14.534-25.434-8.17,4.542-17.253,3.634-13.626-9.078-13.626-9.078A16.459,16.459,0,0,1,252.2,708.276c-13.625-.908-15.442-11.8-15.442-11.8-6.358-2.725-9.083,2.72-9.083,2.72-.909,5.45-11.809,9.992-19.979,1.816-8.058-8.052.653-20.525.9-20.88-.268.093-7.313,2.649-9.986-.914-2.725-3.634,0-7.267,0-7.267a9.043,9.043,0,0,1-3.633-.909c-1.817-.908-1.817-3.633-1.817-3.633s-8.176,9.992-15.436,8.175-6.359-8.175-6.359-8.175a7.967,7.967,0,0,1-8.175-4.542c-2.725-5.444,2.725-9.078,2.725-9.078-.821-1.653.594-5.537.862-6.242-.233.507-1.421,2.492-5.4,1.7-4.542-.909-4.542-3.634-4.542-3.634a6.9,6.9,0,0,1-8.175,2.725c-5.316-1.77-3.721-7-3.639-7.255-.134.186-1.98,2.579-6.347-.92-4.233-3.383.99-9.124,1.729-9.9l-.035-.07c-1.281.245-12.7,2.091-14.411-8.192a11.1,11.1,0,0,1,5.6-12.112c-.378-1.531-.553-2.713-.553-2.713s-2.643,6.381-7.843,4.838c-4.641-1.38-3.878-4.751-3.663-5.467-.279.8-1.945,4.862-6.143,2.934-4.646-2.136-2.55-7.924-2.55-7.924S96.328,613.475,88.7,607.437s-5.922-23.251-5.922-23.251-8.991,4.874-19.023-4.513-10.854-16.8-10.854-16.8a23.136,23.136,0,0,1-2.877-1.823c-2.294,2.1-5.409,3.069-9.613,1.363-13.084-5.3-6.132-13.218-6.132-13.218s-24.048,3.144-23.914-8.286,16.729-12.95,16.729-12.95-9.613-8.688-3.8-16.624c4.862-6.644,10.458-6.865,12.14-6.76-2.038-.245-9.735-1.5-13.124-6.97-2.632-4.245-1.176-6.388.064-7.337-3.139,1.648-11.774,5.549-15.425.873-4.379-5.613.961-10.032,1.252-10.271-.314.075-6.294,1.514-6.242-2.935.058-4.5,3.371-4.536,3.482-4.536-.314-.215-9.526-6.545-3.249-14.9,6.388-8.5,11.471-3.3,11.471-3.3a12.241,12.241,0,0,1-1.1-3.511c-.017-.053-.04-.1-.058-.152-3.528-10.469,8.967-14.056,8.967-14.056s-8.6-2.615-6.306-7.954c2.184-5.1,4.915-3.924,5.159-3.808-.291-.3-4-4.1-.2-8.111a6.9,6.9,0,0,1,8.5-1.45s-1.281-2.405,2.294-5.345c3.173-2.6,5.165-1.351,5.578-1.037-.535-.466-3.662-3.249-3.709-5.107,0,0-6.521-.634-6.684-6.725a7.963,7.963,0,0,1,5.071-7.855s-3.8-5.182,1.753-10.207,17.474-.065,17.474-.065-1.287-2.4-.11-4.064a9.028,9.028,0,0,1,2.777-2.51s-4.117-1.921-3.424-6.41,8.379-5.509,8.379-5.509-14-6.935-10.638-17.992,15.11-12.193,18.476-7.815c0,0,4.973,3.523,9.3-1.874,0,0-3.535-10.47,8.053-17.69a16.461,16.461,0,0,1,20.356,1.485s.152-9.352,7.739-14.435,16.933-4.926,16.933-4.926-13-14.68.832-29.277,29.016,6.125,29.016,6.125,14.364-9.73,23.559-.227a28.293,28.293,0,0,1,3.464,4.28c6.12-2.83,9.631.67,9.631.67s-2-9.986,4-11.984a10.033,10.033,0,0,1,9.986,2s-2-9.987,9.987-9.987c9.095,0,10.137,3.453,10.108,5.118.472-2.072,2.748-7.115,13.858-7.115,13.981,0,13.981,11.984,13.981,11.984s2-7.99,7.989-9.987,11.983,2,11.983,2-7.988-11.983,0-21.969,23.973-3.994,23.973-3.994-19.978-23.967-5.992-37.954,37.947,8,37.947,8,0-13.986,15.978-11.989,9.987,37.953,9.987,37.953,9.986-5.991,19.978,9.986-2,29.959-2,29.959,21.97-9.987,29.959,3.994c3.33,5.835,2.492,14.784.384,23.245,12.316-3,15.972,8.449,15.972,8.449s4.944-7.75,14.895.2,1.281,15.657,1.281,15.657a19.751,19.751,0,0,1,10.085,2.824,15.47,15.47,0,0,1,6.539-.582c16.019,1.648,14.7,19.256,14.7,19.256s3.255-12.228,12.478-7.523c9.084,4.635,4.973,15.18,4.851,15.5.3-.355,13.311-15.785,21.369-4.4,8.152,11.529-1.974,14.441-1.974,14.441S528.964,373.062,522.675,382.612Z" fill="url(#c)"/>
    <path d="M778.784,615.224s1.933,17.241-10.761,20.962c-12.379,3.628-16.181-2.317-16.356-2.608.14.425,3.494,10.941-6.271,14.562,0,0,1.828,13.113-13.579,13.7a8.686,8.686,0,0,1-1.846,2.253c-1.269,2.4-3.843,6.05-8.216,7.372a4.236,4.236,0,0,1-1.391,4.856c-4.367,3.5-6.213,1.106-6.347.92.081.256,1.677,5.485-3.64,7.255a6.9,6.9,0,0,1-8.175-2.725s0,2.725-4.542,3.634c-3.982.791-5.17-1.194-5.4-1.7.268.711,1.683,4.595.862,6.243,0,0,5.45,3.633,2.725,9.083a7.968,7.968,0,0,1-8.176,4.542s.909,6.352-6.358,8.169-15.436-8.169-15.436-8.169,0,2.719-1.817,3.627a9.049,9.049,0,0,1-3.634.909s2.725,3.633,0,7.267c-2.672,3.563-9.718,1.007-9.986.914.251.355,8.962,12.828.9,20.886-8.175,8.17-19.07,3.634-19.978-1.816,0,0-2.725-5.451-9.084-2.725,0,0-1.817,10.894-15.442,11.8a16.459,16.459,0,0,1-17.253-10.894s-4.542,8.175-13.625,9.084-17.253-3.634-17.253-3.634,4.541,19.07-14.534,25.428-22.7-19.075-22.7-19.075-17.259,1.817-20.893-10.895c-3.546-12.408,2.423-16.17,2.714-16.344-.425.134-10.965,3.423-14.516-6.365,0,0-13.626,1.817-13.626-14.528,0,0-16.35-5.45-7.267-21.8,0,0-8.775-4.787-8.874-13.835-4.839-3.843-4.8-10.208-4.8-10.208s-7.109,5.829-14.091-4.821,3.651-15.279,3.651-15.279a19.7,19.7,0,0,1-8.7-5.823,15.385,15.385,0,0,1-6.394-1.479c-14.452-6.434-8.21-22.29-7.989-22.855-.308.466-7.057,10.417-14.19,3.25-7.15-7.18-.087-15.873.21-16.234-.513.314-17.579,10.807-21.673-2.475-4.163-13.492,6.37-13.107,6.37-13.107s-17.631-16.653-8.687-23.769,20.607,4.786,20.607,4.786.658-12.944,10.481-13.456a20.475,20.475,0,0,1,2.236.011,17.633,17.633,0,0,1,7.249-4.2,12.189,12.189,0,0,1,.536-5.24,8.483,8.483,0,0,1,2.213-3.7,5.7,5.7,0,0,1-3.43-3.493,4.086,4.086,0,0,1-.239-1.677c-2.23-1.922-3.866-4.344-3.231-7.127a8.8,8.8,0,0,1,.308-1.066c-4.28-1.205-8.944-3.849-10.172-9.619-2.4-11.308,7.342-17.975,12.4-15.768,0,0,6.056.681,7.232-6.138,0,0-8.152-7.459-1.49-19.378a16.457,16.457,0,0,1,18.534-8.536s-4.379-8.263-.2-16.374,12.449-12.49,12.449-12.49-18.47-6.58-13.416-26.04,28.357-8.658,28.357-8.658,7.879-15.46,20.52-11.582,12.228,11.186,12.228,11.186,2.888-11.116,13.247-8.723c0,0,5.892-12.414,19.605-3.511,0,0,8.8-7.022,16.811-.978,4.1-.134,8.367,2.16,11.884,4.809a14.7,14.7,0,0,1,10.935,2.7c2.423-2.556,6.609-5.217,13.614-5.45,13.736-.46,19.553,4.2,19.553,4.2a22.783,22.783,0,0,1,3.325-.745c.14-3.1,1.654-5.991,5.834-7.762,13-5.5,13.684,5.014,13.684,5.014s14.773-19.227,22.761-11.052-2.666,20.991-2.666,20.991,12.938-.658,14.44,9.061c1.264,8.14-2.539,12.251-3.8,13.369,1.613-1.275,7.942-5.823,14.207-4.356.082.018.158.041.239.064a10.706,10.706,0,0,1,9.509-3.779c1.531-1.706,3.418-2.853,5.689-2.573,7.261.9,6.37,8.157,6.37,8.157s3.3-5.619,6.492-2.346c3.075,3.15.92,5.485.757,5.66.414-.076,11.361-2.085,12.822,8.245,1.083,7.616-2.428,9.677-4.454,10.23a5.085,5.085,0,0,1-.262.629c2.1.955,6.411,3.587,4.489,8.537a8.319,8.319,0,0,1-2.539,3.47c1.345-.343,2.906-.571,3.809-.128,0,0,3.592-5.474,9.06-2.783a7.975,7.975,0,0,1,4.6,8.146s6.347-.955,8.216,6.3-8.07,15.5-8.07,15.5c.1,0,2.742.017,3.645,1.793a9.046,9.046,0,0,1,.931,3.628s3.616-2.755,7.267-.053c3.581,2.65,1.071,9.719.978,9.98.355-.25,12.764-9.042,20.875-1.042,8.228,8.117,3.762,19.047-1.683,19.99,0,0-5.427,2.766-2.661,9.1,0,0,10.912,1.747,11.908,15.361a16.458,16.458,0,0,1-10.784,17.328s8.2,4.49,9.177,13.562-3.523,17.282-3.523,17.282,19.047-4.67,25.527,14.359S778.784,615.224,778.784,615.224Z" fill="url(#d)"/>
    <path d="M362.957,1014.338H491.343s-.873-32.315-38.428-71.618-57.643-13.974-66.377-74.237,70.744-100.438,54.149-193.89H390.031s-.873,62.883-33.188,85.591-60.263,95.2-47.163,146.728S369.07,974.162,362.957,1014.338Z" fill="url(#e)"/>
    <path d="M739.631,439.726s3.506,17-8.792,21.859c-12.024,4.757-16.345-.844-16.531-1.1.134.314,4.536,10.556-4.9,15.081,0,0,3.144,13.381-13.125,14.982,0,0-2.131,9.38-10.364,11.022,2.067,1.8,3.924,5.3,2.009,12.013-3.447,12.071-13.661,7.366-13.946,7.232.151.332,5.543,12.274-5.066,21.3-10.766,9.159-18.528,1.846-18.528,1.846s1.619,10.987-11.436,17.451c-12.49,6.183-19.186-2.458-19.745-3.215.384.67,4.023,7.471-3.04,16.409-7.313,9.247-13.456,4.105-13.678,3.913.117.332,4.624,13.066-8.658,24.357-13.451,11.442-21.347,5.788-21.347,5.788s-3.633,13.91-15.384,14.627a13.982,13.982,0,0,1-3.517-.2c-4.274,2.271-9.753,1.1-9.753,1.1s6.359,6.353,1.817,9.986c-4.367,3.5-6.213,1.107-6.347.92.082.257,1.677,5.485-3.639,7.256a6.9,6.9,0,0,1-8.175-2.725s0,2.725-4.542,3.633c-3.983.792-5.171-1.194-5.4-1.7.268.71,1.683,4.594.862,6.242,0,0,5.45,3.633,2.725,9.083a7.965,7.965,0,0,1-8.175,4.542s.908,6.353-6.359,8.17-15.436-8.17-15.436-8.17,0,2.719-1.817,3.628a9.051,9.051,0,0,1-3.633.908s2.725,3.634,0,7.267c-2.673,3.564-9.718,1.007-9.986.914.25.355,8.961,12.828.9,20.887-8.175,8.169-19.069,3.633-19.978-1.817,0,0-2.725-5.45-9.084-2.725,0,0-1.816,10.894-15.442,11.8A16.461,16.461,0,0,1,414.863,691.4s-4.541,8.175-13.625,9.084-17.253-3.634-17.253-3.634,4.542,19.07-14.534,25.429-22.7-19.076-22.7-19.076-17.259,1.817-20.892-10.894c-3.546-12.409,2.422-16.17,2.713-16.345-.425.134-10.964,3.424-14.516-6.364,0,0-13.626,1.816-13.626-14.528,0,0-16.35-5.451-7.266-21.8,0,0-9.573-5.223-8.834-15.069-4.611,1.315-10.265,1.5-14.842-2.819-9.4-8.879-2.812-18.219-2.812-18.219s-5.684,1.31-7.477-1.5-2.515-7.936-2.515-7.936-2.679,6.37-7.867,4.8c-4.507-1.356-3.9-4.582-3.663-5.415-.349.938-2.049,4.74-6.137,2.842-4.635-2.155-2.515-7.937-2.515-7.937s-14.522,11.856-22.133,5.788-5.817-23.279-5.817-23.279-9.014,4.838-19.006-4.6-10.778-16.845-10.778-16.845a22.719,22.719,0,0,1-2.87-1.84c-2.3,2.09-5.421,3.045-9.62,1.322-13.06-5.351-6.073-13.247-6.073-13.247s-24.06,3.045-23.873-8.385,16.781-12.88,16.781-12.88-9.578-8.729-3.732-16.636c4.9-6.626,10.487-6.824,12.175-6.714-2.044-.25-9.73-1.537-13.095-7.022-2.615-4.262-1.153-6.393.1-7.343-3.151,1.637-11.8,5.5-15.431.81-4.355-5.637,1.007-10.027,1.3-10.266-.309.076-6.306,1.491-6.231-2.964s3.354-4.518,3.5-4.518c-.315-.222-9.5-6.586-3.185-14.912,3.278-4.327,6.2-5.078,8.28-4.781a6.5,6.5,0,0,1,2.032-3.173,5.58,5.58,0,0,1,1.881-4.467,8.163,8.163,0,0,1,.221-2.789c.978-4.175,3.5-4.221,3.866-4.209-.489-.03-4.908-.315-6.114-1.806,0,0-5.566,3.448-9.392-1.292a7.95,7.95,0,0,1-.739-9.317s-6.167-1.811-4.8-9.176,13.841-10.662,13.841-10.662-2.475-1.13-2.551-3.156a9.118,9.118,0,0,1,.681-3.686s-4.437.972-6.608-3.01,3.319-9.468,3.319-9.468-15.338,2.987-19.385-7.838,4.606-18.866,9.94-17.427c0,0,6.091-.222,6.248-7.133,0,0-9.165-6.178-4.338-18.948a16.454,16.454,0,0,1,17.072-11.18s-5.555-7.523-2.608-16.164,10.463-14.2,10.463-14.2-19.238-3.779-17.113-23.769S159.474,238.1,159.474,238.1s5.509-16.449,18.581-14.481,13.748,9.258,13.748,9.258,1.217-11.424,11.814-10.585c0,0,4-13.148,18.872-6.365,0,0,10.906-11.715,21.638.908a15.069,15.069,0,0,1,5.642-1.3s-5.829-7.11,4.821-14.091,15.279,3.651,15.279,3.651a19.764,19.764,0,0,1,5.823-8.705,15.385,15.385,0,0,1,1.479-6.394c6.44-14.452,22.29-8.21,22.855-7.989-.466-.308-10.417-7.057-3.249-14.19,7.179-7.15,15.873-.087,16.234.21-.315-.513-10.808-17.579,2.48-21.673,13.486-4.163,13.1,6.37,13.1,6.37s16.654-17.631,23.769-8.687-4.78,20.607-4.78,20.607,12.938.658,13.45,10.481c.425,8.227-3.767,11.925-5.141,12.915,1.735-1.107,8.5-4.991,14.58-2.894,4.723,1.63,4.95,4.21,4.583,5.729,1.4-3.26,5.619-11.738,11.407-10.416,7.138,1.624,5.508,8.757,5.508,8.757s3.855-5.252,6.7-1.677.163,5.712.163,5.712,5.934-.571,9.439,3.034c5.666.087,9.078,2.5,11.1,5.031a14.067,14.067,0,0,1,5.765,2.533,4.229,4.229,0,0,1,3.36-.984c3.255.7,7.406,3.8,7.406,3.8s-2.643-6.382,2.126-8.967c4.25-2.306,6.1.617,6.451,1.275-.367-.769-2.055-4.815,2.277-6.416,4.792-1.782,7.4,3.8,7.4,3.8s1.805-18.662,11.477-19.792S486.257,188.8,486.257,188.8s2.911-9.8,16.647-10.26,19.548,4.2,19.548,4.2a22.921,22.921,0,0,1,3.33-.746c.134-3.1,1.654-5.992,5.829-7.762,13-5.5,13.684,5.014,13.684,5.014s14.778-19.227,22.767-11.052-2.673,20.986-2.673,20.986,12.944-.652,14.447,9.066c1.257,8.14-2.539,12.245-3.809,13.369,1.619-1.275,7.949-5.829,14.214-4.356,4.862,1.142,5.351,3.686,5.142,5.235,1.053-3.383,4.4-12.245,10.288-11.523,7.267.9,6.371,8.158,6.371,8.158s3.3-5.619,6.5-2.347c3.069,3.15.914,5.485.751,5.66.413-.076,11.36-2.085,12.828,8.245,1.467,10.359-5.561,10.44-5.777,10.44.245.082,6.045,1.992,6.027,6.592,10.7.943,9.276,13.631,9.276,13.631s5.7-6.953,9.765-2.789c3.918,4.018,1.694,6.091,1.537,6.23.3-.128,5.3-2.177,7.575,2.906a6.889,6.889,0,0,1-1.909,8.4s2.713-.268,4.064,4.164c1.211,3.965-.757,5.316-1.188,5.554.6-.3,4.408-2.148,6.155-1.478,0,0,3.08-5.783,8.769-3.6a7.967,7.967,0,0,1,5.322,7.686s6.236-1.525,8.757,5.526-6.614,16.17-6.614,16.17,2.707-.268,3.79,1.45a9.067,9.067,0,0,1,1.264,3.523s3.342-3.069,7.226-.711,1.887,9.853,1.887,9.853,11.762-10.289,20.7-2.959,5.485,18.628.151,20.066c0,0-5.153,3.249-1.816,9.305,0,0,11.022.739,13.264,14.208A16.462,16.462,0,0,1,721.2,373.1s8.577,3.715,10.376,12.664-1.921,17.527-1.921,17.527,18.534-6.388,26.733,11.966S739.631,439.726,739.631,439.726Z" fill="url(#f)"/>
  </g>
</svg>
