<svg xmlns="http://www.w3.org/2000/svg" xmlns:xlink="http://www.w3.org/1999/xlink" width="840.889" height="1220.473" viewBox="0 0 840.889 1220.473">
  <defs>
    <linearGradient id="a" x1="19.319" y1="606.724" x2="437.903" y2="606.724" gradientUnits="userSpaceOnUse">
      <stop offset="0" stop-color="#005437"/>
      <stop offset="1" stop-color="#006837"/>
    </linearGradient>
    <linearGradient id="b" x1="317.081" y1="469.523" x2="840.889" y2="469.523" xlink:href="#a"/>
    <linearGradient id="c" x1="0" y1="350.636" x2="555.509" y2="350.636" xlink:href="#a"/>
    <linearGradient id="d" x1="326.645" y1="991.013" x2="434.577" y2="991.013" gradientUnits="userSpaceOnUse">
      <stop offset="0" stop-color="#66421f"/>
      <stop offset="1" stop-color="#754c24"/>
    </linearGradient>
    <linearGradient id="e" x1="-522.419" y1="-2279.469" x2="-103.835" y2="-2279.469" gradientTransform="translate(2002.032 1989.309) rotate(-31.29)" xlink:href="#a"/>
    <linearGradient id="f" x1="166.703" y1="513.965" x2="667.634" y2="513.965" xlink:href="#a"/>
  </defs>
  <title>Tree_24</title>
  <g>
    <path d="M417.924,655.888s1.934,17.241-10.76,20.962c-12.379,3.627-16.182-2.318-16.356-2.609.139.425,3.493,10.941-6.272,14.563,0,0,1.829,13.113-13.578,13.7a8.7,8.7,0,0,1-1.846,2.254c-1.27,2.4-3.843,6.05-8.216,7.371a4.238,4.238,0,0,1-1.392,4.857c-4.367,3.5-6.213,1.106-6.347.92.082.256,1.677,5.485-3.639,7.255a6.9,6.9,0,0,1-8.175-2.725s0,2.725-4.542,3.633c-3.983.792-5.171-1.193-5.4-1.7.268.71,1.683,4.594.862,6.242,0,0,5.45,3.634,2.725,9.084a7.965,7.965,0,0,1-8.175,4.541s.908,6.353-6.359,8.17-15.436-8.17-15.436-8.17,0,2.72-1.817,3.628a9.051,9.051,0,0,1-3.633.908s2.725,3.634,0,7.267c-2.673,3.564-9.718,1.008-9.986.915.25.355,8.961,12.827.9,20.886-8.175,8.169-19.069,3.633-19.978-1.817,0,0-2.725-5.45-9.083-2.725,0,0-1.817,10.895-15.443,11.8A16.46,16.46,0,0,1,228.724,774.2s-4.542,8.176-13.626,9.084-17.253-3.633-17.253-3.633,4.542,19.069-14.534,25.428S160.608,786,160.608,786s-17.259,1.817-20.892-10.894c-3.546-12.409,2.422-16.17,2.713-16.345-.425.134-10.964,3.424-14.516-6.364,0,0-13.625,1.817-13.625-14.528,0,0-16.351-5.45-7.267-21.8,0,0-8.775-4.786-8.874-13.835-4.839-3.843-4.8-10.207-4.8-10.207s-7.11,5.829-14.091-4.821,3.65-15.279,3.65-15.279a19.7,19.7,0,0,1-8.7-5.823,15.412,15.412,0,0,1-6.393-1.479c-14.452-6.435-8.21-22.29-7.989-22.855-.309.466-7.057,10.417-14.19,3.249-7.151-7.179-.088-15.873.209-16.234-.512.315-17.579,10.807-21.672-2.475-4.163-13.491,6.37-13.107,6.37-13.107s-17.632-16.653-8.688-23.769,20.607,4.787,20.607,4.787.658-12.944,10.481-13.457a20.465,20.465,0,0,1,2.236.012,17.62,17.62,0,0,1,7.25-4.2,12.194,12.194,0,0,1,.535-5.241,8.482,8.482,0,0,1,2.213-3.7,5.7,5.7,0,0,1-3.43-3.494,4.1,4.1,0,0,1-.238-1.677c-2.23-1.921-3.867-4.344-3.232-7.127a8.779,8.779,0,0,1,.309-1.065c-4.28-1.206-8.944-3.849-10.173-9.62-2.405-11.308,7.343-17.975,12.4-15.768,0,0,6.056.681,7.232-6.137,0,0-8.152-7.459-1.491-19.379a16.458,16.458,0,0,1,18.534-8.536s-4.379-8.262-.2-16.374,12.449-12.49,12.449-12.49-18.47-6.579-13.415-26.039,28.357-8.659,28.357-8.659,7.878-15.459,20.519-11.581,12.228,11.185,12.228,11.185,2.888-11.115,13.247-8.722c0,0,5.893-12.415,19.606-3.511,0,0,8.8-7.023,16.81-.979,4.1-.134,8.367,2.16,11.884,4.81a14.7,14.7,0,0,1,10.936,2.7c2.422-2.556,6.609-5.217,13.614-5.45,13.736-.46,19.553,4.2,19.553,4.2a22.628,22.628,0,0,1,3.324-.745c.14-3.1,1.654-5.992,5.835-7.762,13-5.5,13.683,5.013,13.683,5.013s14.773-19.227,22.762-11.051-2.667,20.991-2.667,20.991,12.938-.658,14.441,9.06c1.263,8.14-2.539,12.251-3.8,13.369,1.613-1.275,7.943-5.822,14.208-4.355.082.018.157.041.239.064a10.7,10.7,0,0,1,9.509-3.779c1.531-1.706,3.417-2.853,5.688-2.574,7.261.9,6.371,8.158,6.371,8.158s3.295-5.619,6.492-2.346c3.074,3.149.92,5.485.757,5.659.413-.075,11.36-2.084,12.822,8.245,1.083,7.617-2.428,9.678-4.455,10.231a5,5,0,0,1-.262.629c2.1.955,6.411,3.587,4.49,8.536a8.331,8.331,0,0,1-2.539,3.471c1.345-.344,2.906-.571,3.808-.129,0,0,3.593-5.473,9.06-2.783a7.975,7.975,0,0,1,4.6,8.146s6.347-.955,8.216,6.3-8.07,15.494-8.07,15.494c.105,0,2.743.018,3.645,1.794a9.051,9.051,0,0,1,.932,3.627s3.616-2.754,7.267-.052c3.581,2.649,1.071,9.718.978,9.98.355-.25,12.763-9.043,20.875-1.042,8.227,8.117,3.761,19.046-1.683,19.989,0,0-5.427,2.766-2.661,9.1,0,0,10.912,1.746,11.907,15.36a16.457,16.457,0,0,1-10.783,17.329s8.2,4.489,9.176,13.561-3.522,17.282-3.522,17.282,19.046-4.669,25.527,14.36S417.924,655.888,417.924,655.888Z" fill="url(#a)"/>
    <path d="M839.756,390.941c-6.283,9.544-21.073,1.864-21.073,1.864s3.4,12.5-5.77,16.047c-7.686,2.964-12.513.128-13.876-.867,1.59,1.3,7.384,6.515,7.284,12.95-.075,5-2.457,6.015-4.017,6.143,3.534.308,12.9,1.688,13.45,7.6.676,7.284-6.614,7.959-6.614,7.959s6.2,2.027,3.68,5.846c-2.44,3.7-5.2,2.044-5.369,1.939.128.3,4.268,10.1-4.577,13.987,2.5,3.6,4.63,8.728,2.615,14.51-1.491,4.286-3.942,6.12-6.394,6.761.088.221.175.436.257.669,4.017,11.238-5.6,13.457-5.6,13.457s11.832,7.4,8.158,13.881-8.3,5.584-8.3,5.584,10.446,13.766,1.788,23.373-18.15,3.232-18.15,3.232,1.438,5.648-1.328,7.506-7.872,2.7-7.872,2.7,6.428,2.527,4.978,7.756c-1.292,4.664-4.681,3.966-5.391,3.762.8.268,4.891,1.857,3.039,6.085-2.015,4.617-7.7,2.76-7.867,2.707.3.35,12.106,14.342,6.289,21.987-5.9,7.75-23.14,6.353-23.14,6.353s5.037,8.9-4.163,19.105-16.589,11.156-16.589,11.156-5.078,10.51-13.341,9.829a19.557,19.557,0,0,1-3.633,2.76c9.083,16.351-7.267,21.8-7.267,21.8,0,16.344-13.625,14.528-13.625,14.528-3.558,9.788-14.091,6.5-14.517,6.364.292.175,6.26,3.936,2.714,16.345-3.634,12.711-20.892,10.894-20.892,10.894s-3.634,25.434-22.7,19.076-14.533-25.434-14.533-25.434-8.17,4.541-17.253,3.633-13.626-9.078-13.626-9.078a16.46,16.46,0,0,1-17.253,10.895c-13.625-.909-15.442-11.8-15.442-11.8-6.358-2.725-9.084,2.719-9.084,2.719-.908,5.45-11.808,9.992-19.978,1.817-8.058-8.053.652-20.526.9-20.881-.268.093-7.314,2.65-9.986-.914-2.725-3.633,0-7.267,0-7.267a9.057,9.057,0,0,1-3.634-.908c-1.816-.908-1.816-3.634-1.816-3.634s-8.176,9.992-15.437,8.176-6.358-8.176-6.358-8.176a7.965,7.965,0,0,1-8.175-4.541c-2.726-5.445,2.725-9.078,2.725-9.078-.821-1.654.593-5.538.861-6.242-.233.506-1.42,2.492-5.4,1.7-4.542-.908-4.542-3.633-4.542-3.633a6.9,6.9,0,0,1-8.175,2.725c-5.316-1.771-3.721-7-3.64-7.256-.133.187-1.979,2.58-6.346-.92-4.234-3.383.99-9.124,1.729-9.9l-.035-.07c-1.281.244-12.7,2.09-14.411-8.193a11.093,11.093,0,0,1,5.6-12.111c-.378-1.532-.553-2.714-.553-2.714s-2.644,6.382-7.843,4.839c-4.641-1.38-3.878-4.752-3.663-5.468-.279.8-1.945,4.862-6.143,2.935-4.647-2.137-2.55-7.925-2.55-7.925s-14.476,11.919-22.11,5.881-5.921-23.25-5.921-23.25-8.991,4.873-19.024-4.513-10.853-16.8-10.853-16.8a23.043,23.043,0,0,1-2.877-1.822c-2.294,2.1-5.409,3.068-9.613,1.362-13.084-5.3-6.132-13.218-6.132-13.218s-24.048,3.145-23.914-8.286,16.729-12.95,16.729-12.95-9.614-8.687-3.8-16.624c4.862-6.644,10.457-6.865,12.14-6.76-2.038-.245-9.736-1.5-13.124-6.97-2.632-4.245-1.177-6.388.064-7.337-3.139,1.648-11.774,5.55-15.425.874-4.379-5.613.961-10.033,1.252-10.272-.315.076-6.295,1.514-6.242-2.934.058-4.5,3.371-4.536,3.482-4.536-.315-.216-9.526-6.545-3.249-14.9,6.387-8.5,11.471-3.3,11.471-3.3a12.191,12.191,0,0,1-1.1-3.511c-.017-.052-.041-.1-.058-.151-3.529-10.47,8.967-14.056,8.967-14.056s-8.6-2.615-6.306-7.955c2.183-5.1,4.914-3.924,5.159-3.808-.291-.3-4-4.105-.2-8.111a6.9,6.9,0,0,1,8.5-1.45s-1.281-2.4,2.294-5.345c3.173-2.6,5.165-1.351,5.578-1.037-.536-.465-3.662-3.249-3.709-5.106,0,0-6.522-.635-6.685-6.725a7.965,7.965,0,0,1,5.072-7.856s-3.8-5.182,1.753-10.207,17.474-.064,17.474-.064-1.287-2.4-.111-4.064a9.021,9.021,0,0,1,2.778-2.51s-4.117-1.921-3.424-6.411,8.379-5.508,8.379-5.508-14-6.935-10.638-17.993,15.11-12.193,18.476-7.814c0,0,4.972,3.523,9.3-1.875,0,0-3.535-10.469,8.053-17.69a16.462,16.462,0,0,1,20.356,1.485s.152-9.351,7.739-14.435,16.932-4.926,16.932-4.926-13-14.679.833-29.277,29.015,6.126,29.015,6.126,14.365-9.73,23.559-.227a28.256,28.256,0,0,1,3.465,4.28c6.12-2.831,9.631.669,9.631.669s-2-9.986,4-11.983a10.031,10.031,0,0,1,9.986,2s-2-9.986,9.987-9.986c9.095,0,10.137,3.453,10.108,5.118.472-2.073,2.748-7.115,13.858-7.115,13.981,0,13.981,11.983,13.981,11.983s2-7.989,7.989-9.986,11.983,2,11.983,2-7.989-11.983,0-21.97,23.973-3.994,23.973-3.994-19.979-23.967-5.992-37.953,37.947,8,37.947,8,0-13.987,15.978-11.99,9.986,37.954,9.986,37.954,9.986-5.992,19.978,9.986-2,29.958-2,29.958,21.97-9.986,29.959,4c3.33,5.834,2.492,14.784.384,23.244,12.315-3,15.972,8.449,15.972,8.449s4.943-7.75,14.895.2,1.281,15.658,1.281,15.658a19.739,19.739,0,0,1,10.085,2.824,15.454,15.454,0,0,1,6.539-.582c16.018,1.647,14.7,19.256,14.7,19.256s3.255-12.228,12.478-7.524c9.084,4.636,4.973,15.181,4.85,15.5.3-.355,13.311-15.786,21.37-4.4,8.152,11.529-1.974,14.44-1.974,14.44S846.045,381.392,839.756,390.941Z" fill="url(#b)"/>
    <path d="M538.534,273.55s4.873,16.654-6.988,22.5c-11.622,5.724-16.373.466-16.566.245.181.338,5.357,10.161-3.668,15.431,0,0,4.221,13.078-11.861,16,0,0-2.44,17.056-20.147,11.041a20.043,20.043,0,0,1-2.9,5.252c3.732.961,7.773,2.923,7.838,6.923.122,7.448-4.327,9.014-4.327,9.014s15.978,6.58,13.375,19.25-14.009,11.978-14.009,11.978,4.1,4.14,2.655,7.144-5.421,6.312-5.421,6.312,6.824-1.071,8.221,4.169c1.218,4.548-1.857,5.724-2.678,5.957.961-.192,5.1-.757,5.642,3.727.606,5.077-5.421,6.312-5.421,6.312s17.719,6.114,16.56,15.78-16.728,17.194-16.728,17.194,8.85,5.119,6.084,18.581-8.652,18.027-8.652,18.027a22.74,22.74,0,0,1-.053,3.412c2.987.857,5.439,3,6.184,7.483,2.283,13.707-7.756,12.187-8.065,12.141.35.436,15.122,18.924,5.422,24.712-9.818,5.852-19.781-7.5-19.781-7.5s-2.387,12.734-12.187,11.925c-8.21-.676-11.319-5.328-12.111-6.825.861,1.87,3.808,9.09.914,14.837-2.242,4.466-4.833,4.344-6.289,3.779,3.046,1.817,10.877,7.139,8.8,12.694-2.5,6.673-9.06,4.42-9.409,4.3.238.239,4.571,4.577.757,6.859-3.931,2.341-5.683-.605-5.683-.605s-.425,11.407-10.8,10.574c-4.21,4.74-12.216,3.028-12.216,3.028s6.359,6.359,1.817,9.992c-4.373,3.5-6.219,1.106-6.353.92.082.256,1.677,5.485-3.639,7.255a6.9,6.9,0,0,1-8.175-2.725s0,2.725-4.542,3.634c-3.977.791-5.165-1.194-5.4-1.7.268.705,1.683,4.589.862,6.242,0,0,5.444,3.634,2.719,9.078a7.957,7.957,0,0,1-8.169,4.542s.908,6.358-6.359,8.175-15.442-8.175-15.442-8.175,0,2.725-1.817,3.633a9.043,9.043,0,0,1-3.633.909s2.725,3.633,0,7.266c-2.673,3.564-9.718,1.008-9.98.915.25.355,8.955,12.827.9,20.88-8.175,8.176-19.075,3.634-19.984-1.816,0,0-2.725-5.445-9.083-2.72,0,0-1.817,10.895-15.437,11.8a16.464,16.464,0,0,1-17.258-10.9s-4.542,8.175-13.62,9.083-17.259-3.633-17.259-3.633,4.542,19.076-14.534,25.434-22.7-19.075-22.7-19.075-17.253,1.816-20.886-10.9c-3.546-12.4,2.422-16.164,2.713-16.338-.425.133-10.964,3.423-14.522-6.365,0,0-13.625,1.817-13.625-14.534,0,0-16.345-5.444-7.267-21.794a19.813,19.813,0,0,1-7.413-7.791c-3.726,1.549-8.658,2.637-11.185-.839-4.385-6.026-1.648-9.858-1.648-9.858s-16.857,3.8-22.016-8.059,4.576-17.853,4.576-17.853-5.735-1.03-6.288-4.32c-.536-3.2.739-8.024.8-8.269-.221.2-5.054,4.7-9.118,1.311-3.709-3.11-1.671-5.9-1.188-6.469-.582.622-3.721,3.685-6.807.25-3.342-3.715.617-8.088.8-8.28-.437.122-18.069,5.083-22.616-3.389-4.612-8.571,3.8-23.687,3.8-23.687s-10.184.9-15.663-11.7-3.29-19.722-3.29-19.722-10.743-12.909.518-20.246a8.886,8.886,0,0,1,3.855-8,10.4,10.4,0,0,1,.687-1.846,19.858,19.858,0,0,1-7.267-5.281,15.516,15.516,0,0,1-6.393-1.479c-14.452-6.44-8.21-22.29-7.989-22.854-.309.466-7.057,10.417-14.19,3.249-7.145-7.186-.088-15.873.209-16.234-.512.314-17.573,10.807-21.672-2.481-4.164-13.491,6.37-13.107,6.37-13.107s-17.632-16.647-8.688-23.763,20.613,4.781,20.613,4.781S23.8,355.407,33.619,354.9c8.228-.431,11.931,3.767,12.915,5.141-1.1-1.735-4.99-8.5-2.894-14.58,1.631-4.722,4.21-4.949,5.736-4.583-3.267-1.4-11.739-5.624-10.423-11.406,1.625-7.139,8.763-5.514,8.763-5.514s-5.258-3.85-1.682-6.7,5.718-.163,5.718-.163-1.072-10.923,8.693-11.878c-1.264-4.2-1.689-9.736,2.026-14.6a12.846,12.846,0,0,1,3.238-3.092c-1.607-2-2.521-4.338-1.473-6.766,2.952-6.848,7.645-6.446,7.645-6.446S60.02,261.747,67.6,251.26,85.291,246.1,85.291,246.1s-2.038-5.462.507-7.6,7.54-3.535,7.54-3.535-6.661-1.816-5.788-7.173c.781-4.775,4.228-4.443,4.961-4.321-.832-.18-5.066-1.316-3.685-5.724,1.531-4.879,7.54-3.528,7.54-3.528s-13.649-12.857-8.624-21.19,22.319-8.809,22.319-8.809-5.968-8.3,2.079-19.437,15.3-12.886,15.3-12.886a22.21,22.21,0,0,1,1.444-3.086c-2.37-2.009-3.721-4.978-2.562-9.363,3.6-13.649,12.338-7.75,12.338-7.75s-6.155-23.455,5.206-24.765,14.953,14.965,14.953,14.965,7.406-10.638,16.013-5.875c7.208,3.988,8.128,9.508,8.239,11.2-.018-2.055.262-9.846,5.258-13.9,3.884-3.15,6.19-1.98,7.29-.862-2.032-2.911-6.987-10.982-2.812-15.192,5.054-5.089,10.137-.25,10.347-.046-.088-.239-2.324-6.056,2.125-6.568,4.542-.524,4.938,2.882,4.938,2.882s3.662-7.395,10.365-6.528c3.662-6.055,11.045-6,11.045-6S225.8,73.886,236.446,66.9s15.279,3.657,15.279,3.657a19.758,19.758,0,0,1,5.822-8.711,15.436,15.436,0,0,1,1.479-6.394c6.435-14.452,22.29-8.21,22.855-7.989-.466-.308-10.417-7.057-3.249-14.19,7.179-7.15,15.873-.087,16.234.21-.314-.513-10.807-17.579,2.481-21.673,13.485-4.163,13.1,6.37,13.1,6.37S327.1.553,334.217,9.5,329.436,30.1,329.436,30.1s12.938.658,13.451,10.481c.425,8.227-3.767,11.931-5.142,12.915,1.735-1.1,8.5-4.99,14.581-2.894,4.722,1.63,4.949,4.21,4.582,5.735,1.4-3.266,5.619-11.738,11.407-10.422,7.139,1.624,5.509,8.763,5.509,8.763s3.854-5.258,6.7-1.683.162,5.718.162,5.718,10.924-1.071,11.879,8.694c4.2-1.264,9.736-1.689,14.6,2.026,5.834,4.449,4.809,9.3,3.208,12.321a12.865,12.865,0,0,1,4.554-.839c11.051-.163,10.644,12.84,10.644,12.84s5.118-7.395,9.5-3.575,2.032,6.09,2.032,6.09,5.037-2.76,7.8,2.277a6.9,6.9,0,0,1-1.222,8.53s2.684-.483,4.384,3.82c1.526,3.849-.32,5.357-.728,5.637.583-.361,4.222-2.5,6.01-1.98,0,0,2.6-6.009,8.449-4.3a7.958,7.958,0,0,1,5.927,7.232s6.1-2.032,9.183,4.792-5.287,16.653-5.287,16.653,2.684-.489,3.9,1.136a9.069,9.069,0,0,1,1.543,3.412s3.086-3.331,7.144-1.3,2.679,9.672,2.679,9.672,10.889-11.209,20.392-4.629,6.987,18.115,1.787,19.984c0,0-4.879,3.657-1.06,9.421,0,0,11.046-.157,14.377,13.084a16.464,16.464,0,0,1-7.64,18.924s8.851,3.011,11.366,11.78-.489,17.631-.489,17.631,17.958-7.878,27.618,9.754S538.534,273.55,538.534,273.55Z" fill="url(#c)"/>
    <path d="M336.018,1220.473h68.147s-20.109-143.883-13.406-178.514,35.749-55.858,41.335-105.013,0-175.394,0-175.394H385.3s9.062,125.122,0,156.4-55.609,82.3-58.216,132.942C324.265,1105.61,336.018,1220.473,336.018,1220.473Z" fill="url(#d)"/>
    <path d="M737.867,147.712s10.607,13.73,1.692,23.5c-8.695,9.529-15.032,6.424-15.332,6.266.34.29,8.668,7.535,2.2,15.7,0,0,8.373,10.256-4.491,18.755a8.673,8.673,0,0,1-.407,2.885c.162,2.709-.142,7.166-3.192,10.566a4.237,4.237,0,0,1,1.333,4.873c-1.914,5.258-4.735,4.172-4.946,4.082.2.177,4.282,3.817.658,8.091a6.9,6.9,0,0,1-8.4,1.917s1.415,2.329-1.994,5.464c-2.992,2.745-5.039,1.665-5.5,1.353.6.468,3.824,3.052,3.979,4.887,0,0,6.544.274,7.046,6.347a7.966,7.966,0,0,1-4.627,8.127s4.075,4.957-1.191,10.284-17.434,1.036-17.434,1.036,1.412,2.323.332,4.043a9.057,9.057,0,0,1-2.634,2.664s4.216,1.689,3.775,6.209c-.433,4.434-7.782,5.909-8.059,5.968.4.174,14.32,6.308,11.619,17.38-2.743,11.227-14.409,13.009-18.016,8.823,0,0-5.159-3.242-9.178,2.39,0,0,4.106,10.253-7.066,18.106a16.459,16.459,0,0,1-20.4-.349s.365,9.345-6.926,14.839-16.631,5.856-16.631,5.856,13.786,13.937.787,29.278-29.308-4.51-29.308-4.51-13.805,10.516-23.512,1.541c-9.475-8.762-6.328-15.076-6.17-15.376-.294.335-7.591,8.62-15.71,2.1,0,0-10.7,8.63-19.189-5.338,0,0-16.8,3.835-17.533-14.855,0,0-9.984.467-14.769-7.214-6.131-.771-9.4-6.231-9.4-6.231s-3.048,8.674-14.546,3.2-4.815-14.953-4.815-14.953a19.7,19.7,0,0,1-10.464-.455,15.384,15.384,0,0,1-6.231,2.057c-15.692,2.008-18.593-14.784-18.7-15.381-.022.558-.621,12.567-10.439,10.146-9.839-2.421-8.319-13.519-8.252-13.981-.275.534-9.41,18.365-19.806,9.141-10.565-9.367-1.364-14.509-1.364-14.509s-23.716-5.074-19.769-15.8,20.1-6.612,20.1-6.612-6.161-11.4,1.967-16.943a20.422,20.422,0,0,1,1.917-1.151,17.617,17.617,0,0,1,4.012-7.358,12.163,12.163,0,0,1-2.264-4.757,8.475,8.475,0,0,1-.03-4.308,5.7,5.7,0,0,1-4.745-1.205,4.066,4.066,0,0,1-1.075-1.309c-2.9-.483-5.56-1.7-6.463-4.412a8.853,8.853,0,0,1-.29-1.071c-4.283,1.193-9.642,1.356-13.689-2.937-7.928-8.413-3.061-19.173,2.409-19.916,0,0,5.529-2.563,2.993-9,0,0-10.841-2.141-11.339-15.786a16.459,16.459,0,0,1,11.4-16.921s-8.033-4.786-8.673-13.889,4.151-17.139,4.151-17.139-19.2,3.97-24.989-15.284,19.736-22.127,19.736-22.127-1.3-17.3,11.52-20.555S387.8,97.165,387.8,97.165s-3.306-11,6.789-14.334c0,0-1.412-13.669,14.931-13.183,0,0,3.876-10.573,13.857-9.567,3.433-2.243,8.272-2.5,12.654-2.062a14.7,14.7,0,0,1,10.745-3.376c.742-3.442,2.938-7.891,8.8-11.728,11.5-7.527,18.889-6.567,18.889-6.567a22.765,22.765,0,0,1,2.454-2.364c-1.492-2.725-1.7-5.979.955-9.663,8.248-11.453,14.3-2.823,14.3-2.823S494.81-2.6,505.883.232s8.623,19.323,8.623,19.323,10.715-7.282,17.046.243c5.307,6.3,4.193,11.787,3.694,13.4.716-1.927,3.763-9.1,9.879-11.1.079-.027.156-.047.237-.069a10.7,10.7,0,0,1,6.163-8.168c.423-2.253,1.439-4.213,3.525-5.154,6.671-3,9.681,3.663,9.681,3.663s-.1-6.514,4.329-5.378c4.263,1.1,3.635,4.21,3.586,4.444.314-.28,8.626-7.682,15.24.386,4.881,5.946,2.951,9.531,1.506,11.056a4.938,4.938,0,0,1,.1.674c2.293-.276,7.342-.265,8.27,4.963A8.318,8.318,0,0,1,597.4,32.8c.971-.992,2.187-2,3.188-2.087,0,0,.227-6.544,6.3-7.084a7.977,7.977,0,0,1,8.162,4.572s4.927-4.113,10.293,1.116,1.151,17.433,1.151,17.433c.089-.055,2.352-1.41,4.046-.361A9.05,9.05,0,0,1,633.215,49s1.66-4.231,6.183-3.819c4.436.4,5.963,7.749,6.019,8.021.174-.4,6.211-14.357,17.3-11.732,11.246,2.662,13.106,14.322,8.944,17.956,0,0-3.2,5.182,2.452,9.159,0,0,10.233-4.175,18.154,6.942a16.459,16.459,0,0,1-.215,20.409s9.342-.425,14.885,6.823,5.966,16.6,5.966,16.6,13.85-13.883,29.272-.988S737.867,147.712,737.867,147.712Z" fill="url(#e)"/>
    <path d="M667.091,400.083c-4.148,9.382-18.367,4.774-18.367,4.774s4.858,10.563-2.732,15.05c-6.363,3.766-11.048,1.975-12.407,1.29,1.6.919,7.5,4.675,8.364,10.385.674,4.43-1.285,5.683-2.643,6.028,3.171-.251,11.664-.418,13.028,4.728,1.676,6.346-4.67,8.028-4.67,8.028s5.777.873,4.121,4.624c-1.619,3.656-4.336,2.564-4.471,2.512.167.266,5.558,8.755-2.581,13.436a11.56,11.56,0,0,1-5.657,1.812,8.48,8.48,0,0,1-1.625,1.782s12.407,1.666,11.811,8.326-4.717,7.632-4.717,7.632,13.629,7.387,10.108,18.44-13.634,9.356-13.634,9.356,3.265,4.085,1.692,6.628-5.437,5.12-5.437,5.12,6.19-.314,6.942,4.492c.674,4.331-2.408,4.989-3.03,5.078.731-.084,4.7-.319,4.754,3.844.057,4.587-5.438,5.12-5.438,5.12s15.232,7.135,13.284,15.65-16.56,13.749-16.56,13.749,7.408,5.406,3.668,17.155-9.429,15.258-9.429,15.258-.45,18.127-16.121,12.37a10.051,10.051,0,0,1-5.61,5.166,14.475,14.475,0,0,1,1.724,4.665c1.442,7.914-1.881,15.421-2,15.687.408-.125,16.81-5.234,23.789,11.158,7.068,16.591-15.4,21.684-15.4,21.684s2.873,15.3-8.232,19.469c-10.756,4.043-14.574-.915-14.809-1.233.172.412,3.834,9.554-4.639,13.44,0,0,2.549,11.785-11.55,13.185,2.586,11.754-13.524,18.753-13.524,18.753s5.668,14.5-4.472,20.66c-9.815,5.971-14.49,1.808-14.773,1.547a14.205,14.205,0,0,1,1.824,4.643,6.993,6.993,0,0,1,.809,2.806c.225,3.479-1.635,7.031-3.944,10.045A9.989,9.989,0,0,1,539.5,794.1c2.476,2.048,5.589,6.112,5.448,13.577C544.719,820,540.274,825,540.274,825s4.748,17.5-11.915,16.46c0,0-.888,8.687-11.043,8.493s-10.709-8.906-10.709-8.906-6.185,7.919-13.65,3.249a20.133,20.133,0,0,1-3.421,1.379c1.933,4.931,3.2,12.161-4.493,14.6-12.072,3.818-11.8-5.632-11.8-5.632s-14.82,15.928-21.266,7.951,4.153-18.518,4.153-18.518-11.612-.507-12.135-9.314a.209.209,0,0,0,0-.058,14.418,14.418,0,0,1-4.962-6.968c-1.939,4.362-6.316,11.372-14.334,10.787a15.134,15.134,0,0,1-5.731-1.484c-7.209,2.351-16.486,3.15-28.062.2a4.444,4.444,0,0,1-1.807.872c-3.322.847-5.167-1.859-5.887-3.275-.162-.063-.335-.13-.5-.193-.716,3-4.252,15.864-11.968,15.948-8.733.089-17.238-12.887-17.238-12.887s-3.526,8.468-15.823,7.574-17.039-5.6-17.039-5.6a20.638,20.638,0,0,1-3.041.35c-.417,2.759-2.042,5.188-5.939,6.373-12.119,3.678-11.732-5.772-11.732-5.772s-15,15.755-21.355,7.705,4.372-18.471,4.372-18.471-11.607-.643-12.03-9.455c-.35-7.381,3.427-10.688,4.665-11.565-1.562.982-7.643,4.445-13.091,2.538-4.231-1.478-4.424-3.792-4.09-5.161-1.264,2.92-5.088,10.511-10.27,9.3a6.094,6.094,0,0,1-5.057-6.619c-1.844,1.578-5.025,2.68-10.15-.042-5.7-3.019-6.137-6.863-5.583-9.444a8.672,8.672,0,0,1-.8-2.607c-3.542.33-10.729.366-11.847-4.518-1.489-6.514,2.121-8.714,2.121-8.714s-15.243-2.81-15.311-14.412,10.071-13.111,10.071-13.111-4.367-2.879-3.662-5.783a18.271,18.271,0,0,1,2.638-5.239,9.455,9.455,0,0,1,.382-1.129c-1.51.423-5.637,1.207-7.423-2.309-1.9-3.74.533-5.349,1.233-5.725-.831.355-4.331,1.588-5.632-2.225-1.473-4.341,3.589-6.545,3.589-6.545s-16.695-2.08-17.468-10.777,11.492-18.2,11.492-18.2-8.718-2.846-8.792-15.175,4.247-17.431,4.247-17.431-2.967-9.957,2.826-14.522a14.893,14.893,0,0,1-7.663-8.207c-3.468-8.88,2.638-16.392,9.027-21.438a12.251,12.251,0,0,1-1.755-2.727c-2.523-5.3.214-9.047,2.862-11.226a5.076,5.076,0,0,1-2.81-3.515,12.06,12.06,0,0,1-.2-4.169,4.047,4.047,0,0,1,.173-.982,6.18,6.18,0,0,1,2.141-3.562c-1.739-.4-14.987-3.829-14.835-14.674.162-11.6,10.332-12.908,10.332-12.908s-4.309-2.962-3.547-5.85,3.72-6.478,3.72-6.478-5.835,2.1-7.945-2.288c-1.834-3.782.642-5.344,1.347-5.7-.836.339-4.372,1.51-5.589-2.33-1.39-4.372,3.714-6.477,3.714-6.477s-16.643-2.409-17.249-11.122,11.853-17.964,11.853-17.964-8.661-3.019-8.489-15.347,4.6-17.343,4.6-17.343-4.837-17.474,11.832-16.518c0,0,.846-8.692,11-8.546s10.756,8.849,10.756,8.849a14.681,14.681,0,0,1,2.554-2.434,5.065,5.065,0,0,1-.267-3.385,6.185,6.185,0,0,1,5.867-5.031s-2.095-1.258-.695-5.171c1.29-3.62,3.542-3.411,3.866-3.359-.434-.073-4.341-.778-5.266-2.23,0,0-5.307,2.517-8.243-2.095a7.149,7.149,0,0,1,.282-8.384s-5.312-2.236-3.354-8.667,13.415-8.1,13.415-8.1-2.095-1.259-1.954-3.072a8.134,8.134,0,0,1,.977-3.213,5.576,5.576,0,0,1-5.589-3.358c-1.536-3.772,3.917-8.1,3.917-8.1s-13.973,1.117-16.491-8.943,6.013-16.351,10.625-14.533c0,0,5.449.418,6.29-5.73,0,0-7.549-6.426-1.954-17.327A14.765,14.765,0,0,1,228.6,339.1s-4.194-7.272-.7-14.674,10.761-11.6,10.761-11.6-16.763-5.312-12.85-22.916,25.152-8.661,25.152-8.661,6.572-14.115,18.027-11.038c11.184,3,11.32,9.33,11.32,9.633.089-.366,2.413-10.014,11.6-8.233,0,0,4.4-10.145,15.551-4.8a10.079,10.079,0,0,1-1.363-7.47c1.629-9.779,13.038-7.335,13.038-7.335s-5.7-5.7-1.63-8.963c3.923-3.135,5.579-.988,5.7-.826-.073-.23-1.5-4.915,3.265-6.5a6.183,6.183,0,0,1,7.329,2.444s0-2.444,4.075-3.259c3.573-.716,4.638,1.071,4.847,1.525-.24-.637-1.51-4.121-.773-5.6,0,0-4.889-3.259-2.445-8.149a7.148,7.148,0,0,1,7.335-4.074s-.816-5.7,5.7-7.334,13.848,7.334,13.848,7.334,0-2.445,1.63-3.26a8.119,8.119,0,0,1,3.259-.815,5.575,5.575,0,0,1,0-6.519c2.4-3.192,8.719-.9,8.959-.815-.224-.319-8.039-11.508-.81-18.737,7.335-7.335,17.108-3.26,17.923,1.629,0,0,2.445,4.89,8.149,2.445,0,0,1.63-9.779,13.854-10.594a14.767,14.767,0,0,1,15.477,9.779s4.075-7.334,12.224-8.149,15.483,3.26,15.483,3.26-4.075-17.108,13.033-22.812,20.373,17.107,20.373,17.107,15.478-1.629,18.737,9.779c3.182,11.132-2.172,14.506-2.434,14.663.382-.12,9.836-3.071,13.028,5.7,0,0,12.219-1.63,12.219,13.038,0,0,14.668,4.889,6.519,19.553,0,0,6.138,3.353,7.637,9.721,3.714,2.826,2.79,7.491,2.79,7.491s10.41-6.948,14.365-1.557,1.509,8.844,1.509,8.844,15.107-3.474,19.778,7.151-4.044,16.032-4.044,16.032,5.151.909,5.653,3.855c.49,2.883-.643,7.24-.69,7.428.2-.188,4.513-4.247,8.175-1.212,3.338,2.774,1.52,5.287,1.087,5.8.517-.559,3.322-3.317,6.106-.246,3.077,3.4-.7,7.433-.7,7.433s16.142-4.717,20.31,2.957-3.333,21.266-3.333,21.266,9.137-.846,14.094,10.442,3.02,17.683,3.02,17.683a20.226,20.226,0,0,1,1.729,2.523c2.632-.92,5.542-.622,8.41,2.272,8.917,8.99.386,13.065.386,13.065S671.238,390.706,667.091,400.083Z" fill="url(#f)"/>
  </g>
</svg>
