<svg xmlns="http://www.w3.org/2000/svg" xmlns:xlink="http://www.w3.org/1999/xlink" width="713.484" height="1114.234" viewBox="0 0 713.484 1114.234">
  <defs>
    <linearGradient id="a" x1="189.675" y1="521.934" x2="713.484" y2="521.934" gradientUnits="userSpaceOnUse">
      <stop offset="0" stop-color="#2b773e"/>
      <stop offset="1" stop-color="#27954f"/>
    </linearGradient>
    <linearGradient id="b" x1="209.292" y1="199.376" x2="627.876" y2="199.376" xlink:href="#a"/>
    <linearGradient id="c" x1="0" y1="269.112" x2="418.584" y2="269.112" xlink:href="#a"/>
    <linearGradient id="d" x1="284.941" y1="908.442" x2="451.579" y2="908.442" gradientUnits="userSpaceOnUse">
      <stop offset="0" stop-color="#66421f"/>
      <stop offset="1" stop-color="#754c24"/>
    </linearGradient>
    <linearGradient id="e" x1="38.804" y1="446.35" x2="594.313" y2="446.35" xlink:href="#a"/>
  </defs>
  <title>Tree_13</title>
  <g>
    <path d="M712.351,443.352c-6.283,9.544-21.073,1.864-21.073,1.864s3.4,12.5-5.771,16.047c-7.686,2.964-12.513.128-13.876-.867,1.59,1.3,7.384,6.515,7.285,12.95-.076,5-2.457,6.015-4.018,6.143,3.535.308,12.9,1.688,13.451,7.6.675,7.284-6.615,7.959-6.615,7.959s6.195,2.027,3.68,5.846c-2.44,3.7-5.2,2.044-5.369,1.94.129.3,4.268,10.1-4.576,13.986,2.5,3.6,4.629,8.728,2.614,14.51-1.49,4.286-3.942,6.12-6.393,6.761.087.221.174.436.256.669,4.018,11.238-5.6,13.457-5.6,13.457s11.832,7.4,8.158,13.881-8.3,5.584-8.3,5.584,10.447,13.766,1.788,23.373-18.15,3.232-18.15,3.232,1.439,5.648-1.327,7.506-7.873,2.7-7.873,2.7,6.429,2.527,4.979,7.756c-1.293,4.664-4.682,3.966-5.392,3.762.8.268,4.891,1.857,3.039,6.085-2.014,4.617-7.7,2.76-7.866,2.707.3.35,12.105,14.342,6.288,21.987-5.9,7.75-23.139,6.353-23.139,6.353s5.036,8.9-4.164,19.105S597.8,687.4,597.8,687.4s-5.078,10.51-13.34,9.829a19.58,19.58,0,0,1-3.634,2.76c9.084,16.351-7.266,21.8-7.266,21.8,0,16.345-13.626,14.528-13.626,14.528-3.558,9.788-14.091,6.5-14.516,6.364.291.175,6.259,3.936,2.713,16.345-3.633,12.711-20.892,10.894-20.892,10.894S523.61,795.359,504.54,789s-14.534-25.434-14.534-25.434-8.17,4.542-17.253,3.633-13.626-9.078-13.626-9.078a16.46,16.46,0,0,1-17.252,10.9c-13.626-.908-15.443-11.8-15.443-11.8-6.358-2.725-9.083,2.719-9.083,2.719-.909,5.451-11.809,9.992-19.978,1.817-8.059-8.053.652-20.526.9-20.881-.268.093-7.313,2.65-9.986-.914-2.725-3.633,0-7.267,0-7.267a9.051,9.051,0,0,1-3.633-.908c-1.817-.908-1.817-3.634-1.817-3.634s-8.175,9.993-15.436,8.176-6.359-8.176-6.359-8.176a7.965,7.965,0,0,1-8.175-4.541c-2.725-5.445,2.725-9.078,2.725-9.078-.821-1.654.594-5.538.862-6.242-.233.506-1.421,2.492-5.4,1.7-4.542-.908-4.542-3.633-4.542-3.633a6.9,6.9,0,0,1-8.175,2.725c-5.316-1.77-3.721-7-3.639-7.255-.134.186-1.98,2.579-6.347-.921-4.233-3.383.99-9.124,1.729-9.9l-.035-.07c-1.281.244-12.7,2.09-14.411-8.193a11.093,11.093,0,0,1,5.6-12.111c-.379-1.532-.554-2.714-.554-2.714s-2.643,6.382-7.843,4.839c-4.641-1.38-3.878-4.751-3.663-5.468-.279.8-1.944,4.862-6.143,2.935-4.646-2.137-2.55-7.925-2.55-7.925S286,674.216,278.37,668.177s-5.922-23.25-5.922-23.25-8.991,4.873-19.023-4.513-10.854-16.8-10.854-16.8a23,23,0,0,1-2.876-1.822c-2.295,2.1-5.41,3.068-9.614,1.362-13.084-5.3-6.131-13.218-6.131-13.218s-24.049,3.145-23.915-8.286S216.764,588.7,216.764,588.7s-9.613-8.688-3.8-16.625c4.862-6.643,10.458-6.865,12.14-6.76-2.038-.245-9.735-1.5-13.124-6.97-2.632-4.245-1.176-6.388.064-7.337-3.139,1.648-11.774,5.55-15.425.874-4.378-5.613.961-10.033,1.252-10.272-.314.076-6.294,1.514-6.242-2.934.058-4.5,3.372-4.536,3.482-4.536-.314-.216-9.526-6.545-3.249-14.9,6.388-8.5,11.471-3.3,11.471-3.3a12.227,12.227,0,0,1-1.1-3.511c-.017-.052-.04-.1-.058-.151-3.528-10.469,8.967-14.056,8.967-14.056s-8.6-2.615-6.306-7.954c2.184-5.1,4.915-3.925,5.159-3.809-.291-.3-4-4.105-.2-8.111a6.9,6.9,0,0,1,8.5-1.45s-1.281-2.4,2.294-5.345c3.174-2.6,5.165-1.351,5.578-1.036-.535-.466-3.662-3.25-3.709-5.107,0,0-6.521-.635-6.684-6.725a7.963,7.963,0,0,1,5.071-7.855s-3.8-5.183,1.753-10.208,17.474-.064,17.474-.064-1.287-2.4-.11-4.064a9.012,9.012,0,0,1,2.777-2.51s-4.117-1.921-3.424-6.411,8.379-5.508,8.379-5.508-14-6.935-10.638-17.993,15.11-12.193,18.476-7.814c0,0,4.973,3.523,9.3-1.875,0,0-3.535-10.469,8.053-17.69a16.462,16.462,0,0,1,20.356,1.485s.152-9.351,7.739-14.435,16.933-4.926,16.933-4.926-13-14.679.832-29.277,29.016,6.126,29.016,6.126,14.365-9.73,23.559-.227a28.244,28.244,0,0,1,3.464,4.28c6.12-2.831,9.631.669,9.631.669s-2-9.986,4-11.983a10.034,10.034,0,0,1,9.987,2s-2-9.986,9.986-9.986c9.1,0,10.137,3.453,10.108,5.118.472-2.073,2.749-7.115,13.858-7.115,13.981,0,13.981,11.983,13.981,11.983s2-7.989,7.989-9.986,11.983,2,11.983,2-7.988-11.983,0-21.969,23.973-4,23.973-4-19.978-23.967-5.992-37.953,37.947,8,37.947,8,0-13.987,15.979-11.989,9.986,37.953,9.986,37.953,9.986-5.992,19.978,9.986-2,29.958-2,29.958,21.97-9.986,29.959,4c3.33,5.834,2.492,14.784.384,23.244,12.316-3,15.972,8.449,15.972,8.449s4.944-7.75,14.9.2,1.281,15.658,1.281,15.658a19.739,19.739,0,0,1,10.085,2.824,15.454,15.454,0,0,1,6.539-.582c16.019,1.647,14.7,19.256,14.7,19.256s3.255-12.228,12.478-7.523c9.084,4.635,4.973,15.18,4.851,15.5.3-.355,13.311-15.786,21.369-4.4,8.152,11.529-1.973,14.44-1.973,14.44S718.639,433.8,712.351,443.352Z" fill="url(#a)"/>
    <path d="M607.9,248.539s1.933,17.242-10.76,20.962c-12.38,3.628-16.182-2.317-16.357-2.608.14.425,3.494,10.941-6.271,14.563,0,0,1.829,13.113-13.579,13.695a8.67,8.67,0,0,1-1.845,2.253c-1.27,2.4-3.843,6.05-8.216,7.372a4.236,4.236,0,0,1-1.392,4.856c-4.367,3.5-6.213,1.107-6.347.92.081.256,1.677,5.485-3.639,7.256a6.9,6.9,0,0,1-8.176-2.726s0,2.726-4.541,3.634c-3.983.792-5.171-1.194-5.4-1.7.268.71,1.683,4.594.862,6.242,0,0,5.45,3.633,2.725,9.083a7.967,7.967,0,0,1-8.175,4.542s.908,6.353-6.359,8.17-15.436-8.17-15.436-8.17,0,2.719-1.817,3.628a9.051,9.051,0,0,1-3.633.908s2.725,3.634,0,7.267c-2.673,3.564-9.719,1.007-9.986.914.25.355,8.961,12.828.9,20.887-8.175,8.169-19.07,3.633-19.978-1.817,0,0-2.725-5.45-9.084-2.725,0,0-1.816,10.894-15.442,11.8A16.461,16.461,0,0,1,418.7,366.853s-4.541,8.175-13.625,9.084-17.253-3.634-17.253-3.634,4.542,19.07-14.534,25.429-22.7-19.076-22.7-19.076-17.259,1.817-20.892-10.894c-3.546-12.409,2.422-16.17,2.713-16.345-.425.134-10.964,3.424-14.516-6.364,0,0-13.626,1.816-13.626-14.528,0,0-16.35-5.451-7.266-21.8,0,0-8.775-4.786-8.874-13.835-4.839-3.843-4.8-10.207-4.8-10.207s-7.11,5.828-14.092-4.822,3.651-15.279,3.651-15.279a19.69,19.69,0,0,1-8.7-5.823,15.381,15.381,0,0,1-6.393-1.479c-14.453-6.434-8.21-22.289-7.989-22.854-.309.466-7.057,10.417-14.19,3.249-7.151-7.18-.088-15.873.209-16.234-.512.314-17.579,10.807-21.672-2.475-4.164-13.491,6.37-13.107,6.37-13.107s-17.632-16.653-8.688-23.769,20.607,4.787,20.607,4.787.658-12.944,10.481-13.457a20.217,20.217,0,0,1,2.236.012,17.611,17.611,0,0,1,7.249-4.2,12.209,12.209,0,0,1,.536-5.241,8.472,8.472,0,0,1,2.213-3.7,5.709,5.709,0,0,1-3.43-3.494,4.085,4.085,0,0,1-.238-1.677c-2.231-1.922-3.867-4.344-3.232-7.127a8.619,8.619,0,0,1,.309-1.066c-4.28-1.205-8.944-3.849-10.173-9.619-2.405-11.308,7.343-17.975,12.4-15.768,0,0,6.055.681,7.232-6.138,0,0-8.152-7.459-1.491-19.378a16.457,16.457,0,0,1,18.534-8.536s-4.379-8.263-.2-16.374,12.449-12.49,12.449-12.49-18.47-6.58-13.416-26.039,28.358-8.659,28.358-8.659,7.878-15.46,20.519-11.582S335,23.528,335,23.528s2.888-11.116,13.247-8.723c0,0,5.893-12.414,19.605-3.511,0,0,8.805-7.022,16.811-.978,4.1-.134,8.367,2.16,11.884,4.81a14.7,14.7,0,0,1,10.936,2.7c2.422-2.557,6.608-5.218,13.613-5.45,13.736-.461,19.553,4.2,19.553,4.2a22.693,22.693,0,0,1,3.325-.746c.14-3.1,1.654-5.991,5.835-7.761,13-5.5,13.683,5.013,13.683,5.013S478.264-6.151,486.253,2.024s-2.667,20.992-2.667,20.992,12.938-.658,14.44,9.06c1.264,8.14-2.538,12.251-3.8,13.369,1.613-1.275,7.943-5.823,14.208-4.355.081.017.157.041.239.064a10.7,10.7,0,0,1,9.508-3.779c1.532-1.707,3.418-2.853,5.689-2.574,7.261.9,6.37,8.158,6.37,8.158s3.3-5.619,6.493-2.347c3.074,3.15.92,5.485.757,5.66.413-.076,11.36-2.085,12.822,8.245,1.083,7.616-2.429,9.678-4.455,10.231a5.15,5.15,0,0,1-.262.629c2.1.955,6.411,3.586,4.489,8.536a8.311,8.311,0,0,1-2.538,3.47c1.345-.343,2.9-.57,3.808-.128,0,0,3.593-5.473,9.06-2.783a7.975,7.975,0,0,1,4.6,8.146s6.347-.955,8.216,6.3-8.07,15.495-8.07,15.495c.105,0,2.742.017,3.645,1.793a9.046,9.046,0,0,1,.931,3.628s3.617-2.754,7.267-.052c3.581,2.649,1.072,9.718.979,9.98.355-.251,12.763-9.043,20.874-1.042,8.228,8.116,3.762,19.046-1.682,19.989,0,0-5.427,2.766-2.661,9.1,0,0,10.912,1.747,11.907,15.361A16.458,16.458,0,0,1,595.635,180.5s8.2,4.489,9.176,13.561-3.523,17.282-3.523,17.282,19.047-4.67,25.528,14.359S607.9,248.539,607.9,248.539Z" fill="url(#b)"/>
    <path d="M398.605,318.275s1.934,17.241-10.76,20.962c-12.379,3.628-16.182-2.318-16.357-2.609.14.425,3.494,10.941-6.271,14.563,0,0,1.829,13.113-13.578,13.7a8.715,8.715,0,0,1-1.846,2.254c-1.27,2.4-3.843,6.05-8.216,7.372a4.237,4.237,0,0,1-1.392,4.856c-4.367,3.5-6.213,1.106-6.347.92.082.256,1.677,5.485-3.639,7.255a6.9,6.9,0,0,1-8.175-2.725s0,2.725-4.542,3.633c-3.983.792-5.171-1.193-5.4-1.7.268.711,1.683,4.594.862,6.242,0,0,5.45,3.634,2.725,9.084a7.967,7.967,0,0,1-8.175,4.542s.908,6.352-6.359,8.169-15.436-8.169-15.436-8.169,0,2.719-1.817,3.627a9.043,9.043,0,0,1-3.633.909s2.725,3.633,0,7.266c-2.673,3.564-9.718,1.008-9.986.915.25.355,8.961,12.827.9,20.886-8.175,8.17-19.069,3.634-19.978-1.817,0,0-2.725-5.45-9.083-2.725,0,0-1.817,10.895-15.443,11.8A16.46,16.46,0,0,1,209.4,436.589s-4.541,8.175-13.625,9.083-17.253-3.633-17.253-3.633,4.542,19.07-14.534,25.428-22.7-19.075-22.7-19.075S124.03,450.208,120.4,437.5c-3.546-12.408,2.422-16.17,2.713-16.345-.425.134-10.964,3.424-14.516-6.364,0,0-13.625,1.817-13.625-14.528,0,0-16.351-5.45-7.267-21.8,0,0-8.775-4.787-8.874-13.836-4.839-3.843-4.8-10.207-4.8-10.207s-7.11,5.829-14.092-4.821,3.651-15.279,3.651-15.279a19.7,19.7,0,0,1-8.7-5.823,15.4,15.4,0,0,1-6.393-1.479c-14.452-6.434-8.21-22.29-7.989-22.855-.309.466-7.057,10.417-14.19,3.249-7.151-7.179-.088-15.873.209-16.234-.512.315-17.579,10.808-21.672-2.474-4.164-13.492,6.37-13.108,6.37-13.108S-6.413,258.94,2.531,251.825s20.607,4.786,20.607,4.786.658-12.944,10.481-13.456a20.226,20.226,0,0,1,2.236.011,17.631,17.631,0,0,1,7.25-4.2,12.188,12.188,0,0,1,.535-5.24,8.477,8.477,0,0,1,2.213-3.7,5.7,5.7,0,0,1-3.43-3.494,4.1,4.1,0,0,1-.238-1.677c-2.23-1.921-3.867-4.343-3.232-7.127a8.653,8.653,0,0,1,.309-1.065c-4.28-1.206-8.944-3.849-10.173-9.62-2.4-11.307,7.343-17.975,12.4-15.768,0,0,6.056.681,7.232-6.137,0,0-8.152-7.459-1.491-19.379a16.458,16.458,0,0,1,18.534-8.536s-4.379-8.262-.2-16.373,12.449-12.49,12.449-12.49-18.47-6.58-13.415-26.04S92.96,93.659,92.96,93.659s7.878-15.459,20.519-11.581,12.228,11.185,12.228,11.185,2.888-11.115,13.247-8.722c0,0,5.893-12.414,19.606-3.511,0,0,8.8-7.023,16.81-.979,4.1-.134,8.367,2.161,11.884,4.81a14.7,14.7,0,0,1,10.936,2.7C200.612,85,204.8,82.34,211.8,82.107c13.735-.46,19.552,4.2,19.552,4.2a22.825,22.825,0,0,1,3.325-.745c.14-3.1,1.654-5.992,5.835-7.762,13-5.5,13.683,5.014,13.683,5.014s14.773-19.227,22.762-11.052-2.667,20.991-2.667,20.991,12.938-.658,14.441,9.06c1.263,8.141-2.539,12.252-3.8,13.37,1.613-1.276,7.943-5.823,14.208-4.356.082.018.157.041.239.064a10.7,10.7,0,0,1,9.508-3.779c1.532-1.706,3.418-2.853,5.689-2.573,7.261.9,6.37,8.157,6.37,8.157s3.3-5.619,6.493-2.346c3.074,3.15.92,5.485.757,5.659.413-.075,11.36-2.084,12.822,8.246,1.083,7.616-2.428,9.677-4.455,10.23a5,5,0,0,1-.262.629c2.1.955,6.411,3.587,4.49,8.536a8.331,8.331,0,0,1-2.539,3.471c1.345-.344,2.9-.571,3.808-.128,0,0,3.593-5.474,9.06-2.784a7.976,7.976,0,0,1,4.6,8.147s6.347-.955,8.216,6.3-8.07,15.494-8.07,15.494c.105,0,2.742.018,3.645,1.794a9.055,9.055,0,0,1,.932,3.627s3.616-2.754,7.267-.052c3.581,2.649,1.071,9.718.978,9.98.355-.25,12.763-9.043,20.875-1.042,8.227,8.117,3.761,19.046-1.683,19.99,0,0-5.427,2.765-2.661,9.1,0,0,10.912,1.747,11.907,15.36a16.457,16.457,0,0,1-10.783,17.329s8.2,4.49,9.176,13.561S392,281.079,392,281.079s19.046-4.67,25.527,14.359S398.605,318.275,398.605,318.275Z" fill="url(#c)"/>
    <path d="M284.941,702.65H314s48.151,106.264,53.962,153.584,9.132,171.848,23.245,180.15S413.545,892.76,414.45,857.9c1.661-63.925-24.075-155.245-24.075-155.245h30.717s32.377,93.811,26.566,179.32,10.528,203.021.7,232.264h-141s-2.49-42.982,19.925-65.4,9.132-176,1.66-209.206S284.941,702.65,284.941,702.65Z" fill="url(#d)"/>
    <path d="M577.337,369.264s4.874,16.654-6.987,22.5c-11.623,5.724-16.374.466-16.566.245.18.338,5.357,10.161-3.668,15.431,0,0,4.221,13.078-11.861,16,0,0-2.44,17.056-20.147,11.041a20.079,20.079,0,0,1-2.9,5.252c3.732.961,7.773,2.923,7.837,6.923.123,7.448-4.326,9.014-4.326,9.014s15.978,6.58,13.375,19.25-14.01,11.978-14.01,11.978,4.1,4.14,2.656,7.144-5.422,6.312-5.422,6.312,6.825-1.071,8.222,4.169c1.217,4.548-1.857,5.724-2.678,5.957.961-.192,5.1-.757,5.642,3.727.606,5.077-5.421,6.312-5.421,6.312s17.719,6.114,16.56,15.78-16.729,17.194-16.729,17.194,8.851,5.119,6.085,18.581-8.653,18.027-8.653,18.027a22.656,22.656,0,0,1-.052,3.413c2.987.856,5.438,3,6.184,7.482,2.282,13.707-7.756,12.187-8.065,12.141.35.436,15.122,18.924,5.421,24.712-9.817,5.852-19.78-7.5-19.78-7.5s-2.387,12.734-12.187,11.925c-8.21-.676-11.32-5.328-12.112-6.825.862,1.87,3.808,9.09.915,14.837-2.242,4.466-4.833,4.344-6.289,3.779,3.045,1.817,10.877,7.139,8.8,12.694-2.5,6.673-9.06,4.42-9.409,4.3.238.239,4.571,4.577.756,6.859-3.93,2.341-5.683-.605-5.683-.605s-.425,11.407-10.8,10.574c-4.21,4.74-12.216,3.028-12.216,3.028s6.358,6.359,1.816,9.992c-4.373,3.5-6.218,1.106-6.352.92.081.256,1.677,5.485-3.64,7.255a6.9,6.9,0,0,1-8.175-2.725s0,2.725-4.542,3.634c-3.977.791-5.164-1.194-5.4-1.7.268.705,1.683,4.589.861,6.242,0,0,5.445,3.634,2.72,9.078a7.958,7.958,0,0,1-8.17,4.542s.909,6.358-6.358,8.175-15.442-8.175-15.442-8.175,0,2.725-1.817,3.633a9.046,9.046,0,0,1-3.633.909s2.725,3.633,0,7.266c-2.673,3.564-9.719,1.008-9.981.915.251.355,8.956,12.827.9,20.88-8.176,8.176-19.076,3.634-19.984-1.816,0,0-2.725-5.445-9.084-2.72,0,0-1.817,10.895-15.436,11.8a16.464,16.464,0,0,1-17.259-10.9s-4.542,8.175-13.619,9.083-17.259-3.633-17.259-3.633S288.52,782.644,269.444,789s-22.7-19.075-22.7-19.075-17.253,1.816-20.887-10.9c-3.546-12.4,2.423-16.164,2.714-16.338-.425.133-10.965,3.423-14.522-6.365,0,0-13.626,1.817-13.626-14.534,0,0-16.344-5.444-7.267-21.794a19.814,19.814,0,0,1-7.412-7.791c-3.727,1.549-8.659,2.637-11.186-.839-4.384-6.026-1.648-9.858-1.648-9.858s-16.857,3.8-22.016-8.059,4.577-17.852,4.577-17.852-5.735-1.031-6.289-4.321c-.535-3.2.74-8.024.8-8.268-.221.2-5.054,4.7-9.119,1.31-3.709-3.11-1.671-5.9-1.187-6.469-.583.622-3.721,3.685-6.807.25-3.343-3.715.617-8.088.8-8.28-.436.122-18.068,5.083-22.616-3.389-4.611-8.571,3.8-23.687,3.8-23.687s-10.184.9-15.663-11.7-3.29-19.722-3.29-19.722-10.743-12.909.518-20.246a8.882,8.882,0,0,1,3.855-8,10.4,10.4,0,0,1,.687-1.846,19.858,19.858,0,0,1-7.267-5.281,15.517,15.517,0,0,1-6.394-1.479c-14.452-6.44-8.21-22.289-7.988-22.854-.309.466-7.058,10.417-14.191,3.249-7.144-7.186-.087-15.873.21-16.234-.513.314-17.573,10.807-21.673-2.481-4.163-13.491,6.371-13.107,6.371-13.107S32.391,466.4,41.335,459.279s20.613,4.781,20.613,4.781.658-12.939,10.475-13.451c8.227-.431,11.931,3.767,12.915,5.141-1.1-1.735-4.99-8.5-2.894-14.58,1.63-4.722,4.21-4.949,5.736-4.583-3.267-1.4-11.739-5.624-10.423-11.406,1.624-7.139,8.763-5.514,8.763-5.514s-5.258-3.85-1.683-6.7,5.718-.163,5.718-.163-1.071-10.923,8.694-11.878c-1.264-4.2-1.689-9.736,2.026-14.6a12.843,12.843,0,0,1,3.237-3.092c-1.607-2-2.521-4.338-1.473-6.766,2.952-6.848,7.646-6.446,7.646-6.446s-11.862-12.56-4.286-23.047,17.7-5.164,17.7-5.164-2.038-5.462.506-7.605,7.541-3.535,7.541-3.535-6.661-1.816-5.788-7.173c.78-4.775,4.227-4.443,4.961-4.321-.833-.18-5.066-1.316-3.686-5.724,1.531-4.879,7.541-3.528,7.541-3.528s-13.649-12.857-8.624-21.19,22.319-8.809,22.319-8.809-5.968-8.3,2.079-19.437,15.3-12.886,15.3-12.886a22.355,22.355,0,0,1,1.444-3.086c-2.37-2.009-3.721-4.978-2.562-9.363,3.6-13.649,12.339-7.75,12.339-7.75s-6.155-23.455,5.2-24.765S197.619,217.6,197.619,217.6s7.407-10.638,16.013-5.875c7.209,3.988,8.129,9.508,8.239,11.2-.017-2.055.262-9.846,5.258-13.9,3.884-3.15,6.19-1.98,7.291-.862-2.033-2.911-6.988-10.982-2.813-15.192,5.054-5.089,10.138-.25,10.347-.046-.087-.239-2.323-6.056,2.126-6.568,4.542-.524,4.937,2.882,4.937,2.882s3.663-7.4,10.365-6.528c3.663-6.055,11.046-6,11.046-6s-5.829-7.109,4.821-14.091,15.279,3.657,15.279,3.657a19.765,19.765,0,0,1,5.823-8.711,15.4,15.4,0,0,1,1.479-6.394c6.434-14.452,22.29-8.21,22.855-7.989-.466-.308-10.417-7.057-3.25-14.19,7.18-7.15,15.874-.087,16.235.21-.315-.513-10.807-17.579,2.48-21.673,13.486-4.163,13.1,6.37,13.1,6.37s16.654-17.631,23.769-8.687-4.78,20.607-4.78,20.607,12.938.658,13.45,10.481c.425,8.227-3.767,11.931-5.141,12.915,1.735-1.1,8.5-4.99,14.58-2.894,4.722,1.63,4.95,4.21,4.583,5.735,1.4-3.266,5.619-11.738,11.407-10.422,7.139,1.624,5.508,8.763,5.508,8.763s3.855-5.258,6.7-1.683.163,5.718.163,5.718,10.924-1.071,11.879,8.694c4.2-1.264,9.735-1.689,14.6,2.026,5.835,4.449,4.81,9.3,3.209,12.321a12.863,12.863,0,0,1,4.553-.839c11.052-.162,10.644,12.84,10.644,12.84s5.119-7.4,9.5-3.575,2.032,6.09,2.032,6.09,5.037-2.76,7.8,2.277a6.9,6.9,0,0,1-1.223,8.53s2.685-.483,4.385,3.82c1.526,3.849-.32,5.357-.728,5.637.582-.361,4.222-2.5,6.009-1.98,0,0,2.6-6.009,8.449-4.3a7.958,7.958,0,0,1,5.928,7.232s6.1-2.032,9.182,4.792-5.287,16.653-5.287,16.653,2.685-.489,3.9,1.136a9.05,9.05,0,0,1,1.543,3.412s3.087-3.331,7.145-1.3,2.679,9.672,2.679,9.672,10.888-11.209,20.391-4.629,6.988,18.115,1.788,19.984c0,0-4.88,3.657-1.06,9.421,0,0,11.046-.157,14.377,13.084a16.465,16.465,0,0,1-7.64,18.924s8.851,3.011,11.366,11.78-.489,17.631-.489,17.631,17.958-7.878,27.618,9.754S577.337,369.264,577.337,369.264Z" fill="url(#e)"/>
  </g>
</svg>
