<svg xmlns="http://www.w3.org/2000/svg" xmlns:xlink="http://www.w3.org/1999/xlink" width="200.83" height="83.941" viewBox="0 0 200.83 83.941">
  <defs>
    <linearGradient id="a" x1="100.415" y1="6.552" x2="100.415" y2="59.816" gradientUnits="userSpaceOnUse">
      <stop offset="0" stop-color="#92a83f"/>
      <stop offset="1" stop-color="#a4bd47"/>
    </linearGradient>
    <linearGradient id="b" x1="100.415" x2="100.415" y2="83.941" gradientUnits="userSpaceOnUse">
      <stop offset="0" stop-color="#c5d654"/>
      <stop offset="1" stop-color="#a4bd47"/>
    </linearGradient>
  </defs>
  <title>PlatformGrass</title>
  <g>
    <g>
      <path d="M11.534,22.861C5.915,30.823-.887,56.622,20.7,56.622c3.29,0,6.454,1.8,9.456,4a64.714,64.714,0,0,1,7.564,3.238,26.074,26.074,0,0,0,8,2.163l.113-.019a41.345,41.345,0,0,0,9.621,1.429,32.6,32.6,0,0,0,3.6-.117,10.307,10.307,0,0,0,3.277-.408,96.877,96.877,0,0,0,9.9-2.406,33.452,33.452,0,0,1,6.315-1.087c2.537.434,4.944,1.178,7.617,1.18a14.474,14.474,0,0,0,4.487-.773c6.992.777,14.038,2.075,20.835,1.77,5.913-.264,10.86-2.635,16.488-3.873,6.08-1.337,9.1,2.368,13.475,5.409.338.234.685.46,1.036.682a7.945,7.945,0,0,0,5.3,2.477,13.667,13.667,0,0,0,7.807.166,11.8,11.8,0,0,0,3.091-1.4c6.021,1.379,13.361-12.432,21.455-12.432,21.588,0,14.787-25.8,9.168-33.761s5.554-6.291,1.774-8.641-11.533-2.548-11.533-2.548H142.276V31.125H58.554V11.672H21.293s-7.754.2-11.534,2.548S17.153,14.9,11.534,22.861Z" fill="#66421f"/>
      <path d="M20.7,62.235a82.945,82.945,0,0,0,16.114-1.624,19.034,19.034,0,0,0,9.822,2.059c4.5-.424,7.451-3.029,10.672-5.233a14.906,14.906,0,0,0,6.353-1.731c2.845-1.523,4.267-4.142,7.829-4.417a10.749,10.749,0,0,1,2.889.207c3.967,2.107,8.225,3.84,12.945,3.753,6.124-.114,10.583-2.6,16.611-.016,5.077,2.18,8.833,3.026,14.166.807,5.236-2.179,9.735-3.089,15.082-1.647a13.013,13.013,0,0,1,2.566,1.9c3.047,2.905,5.687,4.361,10.3,4.61a60.081,60.081,0,0,0,6.518.1,7.7,7.7,0,0,0,1.244-.978c.524-.138,1-.267,1.408-.378.693-.188,1.405-.4,2.125-.613a85.27,85.27,0,0,0,22.785,3.207c21.588,0,23.658-21.443,18.04-28.061s-3.318-18.431-7.1-20.384-11.533-2.118-11.533-2.118H21.293s-7.754.164-11.534,2.118-1.478,13.766-7.1,20.384S-.887,62.235,20.7,62.235Z" fill="#754c24"/>
    </g>
    <g>
      <path d="M182.225,6.552V8.108H18.605V6.552H8.993V26.076c3.069,0,3.995-5.261,9.612-5.261,5.212,0,4.227,13.964,7.47,15.156S29.607,24.455,31.4,23.859s1.564,14.693,14.187,20.517c0,0-4.285-12.641,1.853-18,2.146-1.874,4.927-1.17,7.375,1.017-5.745,9.9,1.231,27.659,1.231,27.659,8.061-2.783,12.717-7.323,15.391-11.98A9.315,9.315,0,0,0,75.294,46a30.117,30.117,0,0,1,1.742-8.712c1.631,3.926,4.93,6.733,8.458,8.712a72.566,72.566,0,0,0,2.887,10.421,30.5,30.5,0,0,1,1.335-8.433c1.212.477,2.38.865,3.447,1.183.449,3.064,2.138,10.645,5.652,10.645,3.281,0,5.515-7.242,6.123-10.057,1.828.446,3.019.616,3.019.616,1.629-7.246,1.4-13.037.231-17.619A13.175,13.175,0,0,0,114.28,31.5a46.216,46.216,0,0,0-.673,9.162,14.97,14.97,0,0,0,9.927-2.724A52.164,52.164,0,0,0,131.4,48.78c5.369-5.342,8.073-10.69,9.245-15.54a24.8,24.8,0,0,0,2.383,3.885,46.262,46.262,0,0,0-.929,10.486,14.939,14.939,0,0,0,11.8-4.3,60.131,60.131,0,0,0,2.98,11.339c17.279-5.966,18.962-20,18.854-25.961.231-2.661,1.341-7.877,6.5-7.877,5.617,0,6.544,5.261,9.613,5.261V6.552Zm-84.3,23.426v.6c-.023-.066-.042-.139-.065-.2C97.886,30.239,97.9,30.112,97.926,29.978Z" fill="url(#a)"/>
      <path d="M194.226,2.9c-.145-.093-.279-.173-.419-.259a11.278,11.278,0,0,0-2.359-1.256c-.253-.108-.5-.2-.722-.279-.1-.034-.214-.061-.318-.093-.074-.021-.15-.045-.221-.063A28.334,28.334,0,0,0,182.225,0H18.605a28.339,28.339,0,0,0-7.962.952c-.07.018-.146.042-.219.062-.1.033-.218.06-.32.094-.225.075-.468.171-.721.279a11.287,11.287,0,0,0-2.36,1.256c-.14.086-.274.166-.419.259C-2.536,8.758,1.842,24.96,1.842,24.96a13.7,13.7,0,0,0,3.43-1.241,10.238,10.238,0,0,0,2.447,3.217c4.343,3.011,5.211-14.229,10.886-14.229,5.156,0,6.265,5.216,6.5,7.877-.108,5.962,1.576,20,18.854,25.961,0,0,8.188-20.848-.485-29.953a4.39,4.39,0,0,1,4.842.633c6.138,5.361,1.853,18,1.853,18a20.109,20.109,0,0,0,8.527-7.466,25.572,25.572,0,0,0,4.947,8.7,42.436,42.436,0,0,0,5.644-1.7c1.022,3.942,2.427,7.432,4.338,8.775,5.386,3.785,3.562,29.407,4.6,29.407s.7,1.165,2.606-21.691c.651-7.791,3.341-13.182,6.6-16.911.029.05.054.1.084.152,2.491,4.215,7.138,6.478,11.491,5.078,3.488-1.122,5.711-4.462,7.436-7.92a12.792,12.792,0,0,0,.909,1.181c5.211,5.956,5.095,15.487,5.095,15.487a72.528,72.528,0,0,0,2.962-10.8,56.523,56.523,0,0,1,2.922,15.4C120.244,84.088,119.9,82.5,120.939,82.5s-.782-34.944,4.6-40.106c1.241-1.19,2.268-3.622,3.117-6.648a18.277,18.277,0,0,0,3.378-4.832,16.505,16.505,0,0,0,5.094,6.525c1.01,3.427,1.647,6.553,2.227,9.41,4.052,19.949-.612,35.121,3.822,36.93a2.453,2.453,0,0,0,1.737,0c5.143-1.844,2.287-19.395,4.691-36.731A90.16,90.16,0,0,1,156.3,23.481c1.314,5.79-1.056,12.787-1.056,12.787,12.624-5.824,12.392-21.112,14.187-20.517s2.085,13.3,5.327,12.111,2.259-15.155,7.47-15.155c5.675,0,6.544,17.24,10.887,14.229a10.241,10.241,0,0,0,2.446-3.217,13.717,13.717,0,0,0,3.43,1.241S203.366,8.758,194.226,2.9Z" fill="url(#b)"/>
    </g>
  </g>
</svg>
