<svg xmlns="http://www.w3.org/2000/svg" width="211.438" height="75.393" viewBox="0 0 211.438 75.393">
  <title>PlatformDirt</title>
  <g>
    <g>
      <path d="M198.364,12.433a9.048,9.048,0,0,0-4.317-7.575c-4.528-2.869-8.376-3.047-90.694-3.047h-.287c-82.318,0-86.166.178-90.693,3.047a9.045,9.045,0,0,0-4.317,7.575L20.7,37.55l82.368,1.175h96.7Z" fill="#66421f"/>
      <path d="M50.375,29.947l-2.3,6.8a4.482,4.482,0,0,1-2.021,2.455l-12.409,7.1a4.483,4.483,0,0,1-4.169.15l-11.644-5.6a4.52,4.52,0,0,1-1.055-.707L1.486,26.4A4.484,4.484,0,0,1,0,23.015l.115-9.483a4.479,4.479,0,0,1,1.1-2.884l7.9-9.1A4.485,4.485,0,0,1,12.666,0L23.234.408A4.477,4.477,0,0,1,26.27,1.756L49.336,25.378A4.484,4.484,0,0,1,50.375,29.947Z" fill="#754c24"/>
      <path d="M68.705,30.921l-2.818-6.6a4.488,4.488,0,0,1-.13-3.178L70.279,7.575a4.478,4.478,0,0,1,3.009-2.889L85.7,1.1A4.5,4.5,0,0,1,86.957.923l20.562.061a4.484,4.484,0,0,1,3.365,1.536l6.235,7.147a4.487,4.487,0,0,1,1.1,2.881L118.4,24.6a4.481,4.481,0,0,1-1.626,3.521l-8.149,6.741a4.481,4.481,0,0,1-3.162,1.019L72.525,33.635A4.486,4.486,0,0,1,68.705,30.921Z" fill="#754c24"/>
      <path d="M69.841,3.386l3.276,6.39a4.479,4.479,0,0,1,.353,3.16L69.916,26.785a4.487,4.487,0,0,1-2.8,3.094L54.99,34.33a4.48,4.48,0,0,1-1.242.265L33.232,35.982a4.486,4.486,0,0,1-3.465-1.3L23.045,28a4.489,4.489,0,0,1-1.305-2.8L20.714,13.194a4.485,4.485,0,0,1,1.373-3.627l7.654-7.3A4.487,4.487,0,0,1,32.824,1.03L65.84.948A4.482,4.482,0,0,1,69.841,3.386Z" fill="#754c24"/>
      <path d="M153.009,3.386l3.276,6.39a4.479,4.479,0,0,1,.353,3.16l-3.554,13.849a4.487,4.487,0,0,1-2.8,3.094L138.158,34.33a4.48,4.48,0,0,1-1.242.265L116.4,35.982a4.486,4.486,0,0,1-3.465-1.3L106.213,28a4.489,4.489,0,0,1-1.3-2.8l-1.026-12.007a4.485,4.485,0,0,1,1.373-3.627l7.654-7.3a4.487,4.487,0,0,1,3.083-1.239L149.008.948A4.482,4.482,0,0,1,153.009,3.386Z" fill="#754c24"/>
      <path d="M153.824,4.335l6.391-3.277a4.484,4.484,0,0,1,3.16-.353L177.223,4.26a4.483,4.483,0,0,1,3.094,2.8l4.452,12.128a4.507,4.507,0,0,1,.264,1.242l1.388,20.515a4.484,4.484,0,0,1-1.3,3.466l-6.69,6.722a4.48,4.48,0,0,1-2.8,1.3l-12.007,1.026a4.481,4.481,0,0,1-3.626-1.373l-7.3-7.654a4.48,4.48,0,0,1-1.239-3.082l-.083-33.016A4.484,4.484,0,0,1,153.824,4.335Z" fill="#754c24"/>
      <path d="M188.815.974,196,.84a4.485,4.485,0,0,1,2.994,1.072l10.876,9.28a4.486,4.486,0,0,1,1.549,3.874l-1.332,12.849a4.482,4.482,0,0,1-.309,1.233L202,48.185a4.485,4.485,0,0,1-2.687,2.543l-8.964,3.1a4.483,4.483,0,0,1-3.085-.057l-11.235-4.356a4.484,4.484,0,0,1-2.654-2.828L170.186,36.5a4.481,4.481,0,0,1,.242-3.313L184.866,3.5A4.486,4.486,0,0,1,188.815.974Z" fill="#754c24"/>
    </g>
    <g>
      <path d="M16.837,27.307c-5.618,7.962-12.42,33.761,9.168,33.761,3.29,0,6.453,1.8,9.455,4a64.558,64.558,0,0,1,7.565,3.238,26.066,26.066,0,0,0,8,2.162c.038,0,.077-.013.114-.018a41.329,41.329,0,0,0,9.621,1.429,32.352,32.352,0,0,0,3.6-.118,10.326,10.326,0,0,0,3.276-.407,96.831,96.831,0,0,0,9.9-2.406,33.454,33.454,0,0,1,6.315-1.088c2.537.435,4.944,1.179,7.617,1.181a14.472,14.472,0,0,0,4.486-.774c6.993.778,14.039,2.075,20.836,1.771,5.913-.265,10.86-2.635,16.488-3.873,6.08-1.337,9.1,2.368,13.475,5.408.337.235.685.461,1.036.683a7.952,7.952,0,0,0,5.3,2.477,13.676,13.676,0,0,0,7.807.166,11.8,11.8,0,0,0,3.091-1.4c6.021,1.38,13.361-12.431,21.455-12.431,21.588,0,14.787-25.8,9.168-33.761s5.554-6.291,1.774-8.641-11.533-2.548-11.533-2.548H147.58V35.571H63.858V16.118H26.6s-7.753.2-11.533,2.548S22.456,19.344,16.837,27.307Z" fill="#66421f"/>
      <path d="M26.005,66.68a82.948,82.948,0,0,0,16.114-1.623,19.031,19.031,0,0,0,9.822,2.058c4.5-.423,7.451-3.028,10.671-5.233a14.9,14.9,0,0,0,6.354-1.73c2.845-1.523,4.266-4.142,7.829-4.417a10.711,10.711,0,0,1,2.889.206c3.967,2.108,8.224,3.841,12.945,3.753,6.124-.114,10.583-2.6,16.611-.015,5.077,2.179,8.833,3.026,14.166.806,5.236-2.178,9.735-3.088,15.082-1.646a12.938,12.938,0,0,1,2.565,1.9c3.048,2.905,5.688,4.361,10.3,4.61a60.322,60.322,0,0,0,6.517.1,7.724,7.724,0,0,0,1.245-.978c.524-.138,1-.267,1.408-.378.693-.188,1.405-.4,2.124-.614a85.284,85.284,0,0,0,22.786,3.207c21.588,0,23.658-21.442,18.04-28.061s-3.318-18.43-7.1-20.384-11.533-2.117-11.533-2.117H26.6s-7.753.164-11.533,2.117S13.585,32,7.966,38.619,4.417,66.68,26.005,66.68Z" fill="#754c24"/>
    </g>
  </g>
</svg>
