<svg xmlns="http://www.w3.org/2000/svg" width="211.44" height="75.39">
  <defs>
    <style>
      .cls-1 {
        fill: #66421f;
      }

      .cls-2 {
        fill: #845a38;
      }
    </style>
  </defs>
  <title>PlatformDirt</title>
  <g id="Layer_2" data-name="Layer 2">
    <g id="Layer_1-2" data-name="Layer 1">
      <g>
        <g>
          <path class="cls-1" d="M198.36,12.43a9,9,0,0,0-4.31-7.57c-4.53-2.87-8.38-3.05-90.7-3.05h-.28c-82.32,0-86.17.18-90.7,3.05a9,9,0,0,0-4.31,7.57L20.7,37.55l82.37,1.17h96.7Z"/>
          <path class="cls-2" d="M50.38,30l-2.31,6.8a4.51,4.51,0,0,1-2,2.46l-12.41,7.1a4.47,4.47,0,0,1-4.16.14L17.83,40.86a4.41,4.41,0,0,1-1-.71L1.49,26.4A4.45,4.45,0,0,1,0,23l.11-9.49a4.54,4.54,0,0,1,1.1-2.88l7.9-9.1A4.49,4.49,0,0,1,12.67,0L23.23.41a4.43,4.43,0,0,1,3,1.35L49.34,25.38A4.5,4.5,0,0,1,50.38,30Z"/>
          <path class="cls-2" d="M68.71,30.92l-2.82-6.6a4.47,4.47,0,0,1-.13-3.18L70.28,7.57a4.49,4.49,0,0,1,3-2.88L85.7,1.1A4.46,4.46,0,0,1,87,.92L107.52,1a4.49,4.49,0,0,1,3.36,1.54l6.24,7.15a4.43,4.43,0,0,1,1.1,2.88l.18,12.05a4.5,4.5,0,0,1-1.62,3.52l-8.15,6.74a4.5,4.5,0,0,1-3.17,1L72.52,33.63A4.46,4.46,0,0,1,68.71,30.92Z"/>
          <path class="cls-2" d="M69.84,3.39l3.28,6.39a4.49,4.49,0,0,1,.35,3.16L69.92,26.78a4.51,4.51,0,0,1-2.8,3.1L55,34.33a4.1,4.1,0,0,1-1.24.26L33.23,36a4.45,4.45,0,0,1-3.46-1.29L23,28a4.49,4.49,0,0,1-1.3-2.8l-1-12a4.48,4.48,0,0,1,1.38-3.62l7.65-7.3A4.49,4.49,0,0,1,32.82,1l33-.08A4.47,4.47,0,0,1,69.84,3.39Z"/>
          <path class="cls-2" d="M153,3.39l3.28,6.39a4.49,4.49,0,0,1,.35,3.16l-3.56,13.84a4.48,4.48,0,0,1-2.79,3.1l-12.13,4.45a4.1,4.1,0,0,1-1.24.26L116.4,36a4.48,4.48,0,0,1-3.47-1.29L106.21,28a4.49,4.49,0,0,1-1.3-2.8l-1-12a4.48,4.48,0,0,1,1.38-3.62l7.65-7.3A4.47,4.47,0,0,1,116,1L149,1A4.48,4.48,0,0,1,153,3.39Z"/>
          <path class="cls-2" d="M153.82,4.33l6.39-3.27a4.47,4.47,0,0,1,3.17-.35l13.84,3.55a4.49,4.49,0,0,1,3.1,2.8l4.45,12.13a4.35,4.35,0,0,1,.26,1.24l1.39,20.51a4.48,4.48,0,0,1-1.29,3.47l-6.69,6.72a4.51,4.51,0,0,1-2.8,1.31l-12,1A4.46,4.46,0,0,1,160,52.09l-7.3-7.66a4.47,4.47,0,0,1-1.24-3.08l-.08-33A4.48,4.48,0,0,1,153.82,4.33Z"/>
          <path class="cls-2" d="M188.81,1,196,.84a4.48,4.48,0,0,1,3,1.07l10.87,9.28a4.46,4.46,0,0,1,1.55,3.88l-1.33,12.85a4.45,4.45,0,0,1-.31,1.23l-7.77,19a4.49,4.49,0,0,1-2.69,2.55l-9,3.1a4.53,4.53,0,0,1-3.08-.06L176,49.41a4.46,4.46,0,0,1-2.65-2.83L170.19,36.5a4.47,4.47,0,0,1,.24-3.31L184.87,3.5A4.49,4.49,0,0,1,188.81,1Z"/>
        </g>
        <g>
          <path class="cls-1" d="M16.84,27.31c-5.62,8-12.42,33.76,9.17,33.76,3.28,0,6.45,1.8,9.45,4A63,63,0,0,1,43,68.31a26.19,26.19,0,0,0,8,2.16l.11,0a41,41,0,0,0,9.63,1.43,32.79,32.79,0,0,0,3.59-.12,10.18,10.18,0,0,0,3.28-.41,94.33,94.33,0,0,0,9.9-2.4,33.21,33.21,0,0,1,6.31-1.09c2.54.44,5,1.18,7.62,1.18A14.65,14.65,0,0,0,96,68.27c7,.78,14,2.07,20.83,1.77,5.92-.27,10.86-2.64,16.49-3.87,6.08-1.34,9.1,2.36,13.48,5.4.33.24.68.47,1,.69a7.94,7.94,0,0,0,5.3,2.47,13.63,13.63,0,0,0,7.81.17A12,12,0,0,0,164,73.5c6,1.38,13.36-12.43,21.45-12.43,21.59,0,14.79-25.8,9.17-33.76s5.55-6.29,1.78-8.64-11.54-2.55-11.54-2.55H147.58V35.57H63.86V16.12H26.6s-7.76.2-11.54,2.55S22.46,19.34,16.84,27.31Z"/>
          <path class="cls-2" d="M26,66.68a83,83,0,0,0,16.11-1.62,19.17,19.17,0,0,0,9.82,2.06c4.5-.43,7.45-3,10.67-5.24A14.93,14.93,0,0,0,69,60.15c2.84-1.52,4.26-4.14,7.82-4.41a10.38,10.38,0,0,1,2.89.2c4,2.11,8.23,3.84,12.95,3.75,6.12-.11,10.58-2.6,16.61,0,5.08,2.18,8.83,3,14.17.81s9.73-3.09,15.08-1.65a12.87,12.87,0,0,1,2.56,1.9c3,2.9,5.69,4.36,10.3,4.6a58.88,58.88,0,0,0,6.52.1,6.86,6.86,0,0,0,1.24-1l1.41-.37c.7-.19,1.41-.4,2.13-.62a85,85,0,0,0,22.78,3.21c21.59,0,23.66-21.44,18-28.06s-3.32-18.43-7.09-20.38-11.54-2.12-11.54-2.12H26.6s-7.76.16-11.54,2.12S13.58,32,8,38.62,4.42,66.68,26,66.68Z"/>
        </g>
      </g>
    </g>
  </g>
</svg>
