<svg xmlns="http://www.w3.org/2000/svg" width="1382" height="1382" viewBox="0 0 1382 1382">
  <defs>
    <style>
      .cls-1 {
        fill: #fff;
      }

      .cls-2 {
        fill: #e6e6e6;
      }

      .cls-3 {
        fill: #b3b3b3;
      }
    </style>
  </defs>
  <title>World</title>
  <g id="Layer_2" data-name="Layer 2">
    <g id="Layer_1-2" data-name="Layer 1">
      <g>
        <path class="cls-1" d="M691,1381.5A690.68,690.68,0,0,1,422.23,54.76,690.68,690.68,0,0,1,959.77,1327.24,686.23,686.23,0,0,1,691,1381.5Z"/>
        <path d="M691,1a686.65,686.65,0,0,1,385.78,117.84,692.12,692.12,0,0,1,250,303.58,689,689,0,0,1-63.62,654.36,692.12,692.12,0,0,1-303.58,250,689,689,0,0,1-654.36-63.62,692.12,692.12,0,0,1-250-303.58,689,689,0,0,1,63.62-654.36,692.12,692.12,0,0,1,303.58-250A685.69,685.69,0,0,1,691,1m0-1C309.37,0,0,309.37,0,691s309.37,691,691,691,691-309.37,691-691S1072.63,0,691,0Z"/>
      </g>
      <g>
        <path class="cls-2" d="M691,1269.5A578.66,578.66,0,0,1,465.82,158,578.65,578.65,0,0,1,916.18,1224,575,575,0,0,1,691,1269.5Z"/>
        <path d="M691,113a575.28,575.28,0,0,1,323.16,98.71A579.7,579.7,0,0,1,1223.58,466a577.23,577.23,0,0,1-53.29,548.14A579.7,579.7,0,0,1,916,1223.58a577.23,577.23,0,0,1-548.14-53.29A579.7,579.7,0,0,1,158.42,916a577.23,577.23,0,0,1,53.29-548.14A579.7,579.7,0,0,1,466,158.42,574.33,574.33,0,0,1,691,113m0-1c-319.77,0-579,259.23-579,579s259.23,579,579,579,579-259.23,579-579S1010.77,112,691,112Z"/>
      </g>
      <g>
        <path class="cls-3" d="M691,1149.5a457.06,457.06,0,1,1,178.47-36A455.61,455.61,0,0,1,691,1149.5Z"/>
        <path d="M691,233a456.52,456.52,0,1,1-178.27,36A455.14,455.14,0,0,1,691,233m0-1c-253.5,0-459,205.5-459,459s205.5,459,459,459,459-205.5,459-459S944.5,232,691,232Z"/>
      </g>
      <g>
        <path d="M691,1023.5a332.51,332.51,0,1,1,235.11-97.39A330.33,330.33,0,0,1,691,1023.5Z"/>
        <path d="M691,359a331,331,0,1,1-129.23,26.09A330,330,0,0,1,691,359m0-1c-183.91,0-333,149.09-333,333s149.09,333,333,333,333-149.09,333-333S874.91,358,691,358Z"/>
      </g>
    </g>
  </g>
</svg>
