<?xml version="1.0" encoding="utf-8"?>
<!-- Generator: Adobe Illustrator 22.0.0, SVG Export Plug-In . SVG Version: 6.00 Build 0)  -->
<svg version="1.1" id="Layer_1" xmlns="http://www.w3.org/2000/svg" xmlns:xlink="http://www.w3.org/1999/xlink" x="0px" y="0px"
	 viewBox="0 0 204.8 321" style="enable-background:new 0 0 204.8 321;" xml:space="preserve">
<style type="text/css">
	.st0{fill:url(#SVGID_1_);}
	.st1{fill:url(#SVGID_2_);}
	.st2{fill:url(#SVGID_3_);}
	.st3{fill:url(#SVGID_4_);}
	.st4{fill:#5C596C;}
</style>
<title>SaveStone_1</title>
<g>
	
		<linearGradient id="SVGID_1_" gradientUnits="userSpaceOnUse" x1="3.289222e-05" y1="161.5009" x2="204.774" y2="161.5009" gradientTransform="matrix(1 0 0 -1 0 322)">
		<stop  offset="0" style="stop-color:#5C596C"/>
		<stop  offset="1" style="stop-color:#B4A0A1"/>
	</linearGradient>
	<path class="st0" d="M69.4,168.8c2.5-7.7,5.4-14.9,8.5-22.5c6.9-17,14-34.5,17.4-60.8c3.3-26.2,1.9-52.8-4-78.6
		C49.8-3.7,62.4-1.9,47.9,11.1c-7.1,6.4-12,27.1-15.9,50.5C58.3,79.2,71.8,97.1,72.2,115c0.2,8.1-2.4,13.3-5.7,19.8
		c-4.6,8.8-8.1,18.1-10.4,27.7c-4.1,16.4-4.1,27.5-4,36.5c0,9.5,0,17-5.2,25.1c-7.8,12.1-23.4,19.5-46.5,22
		c-0.4,6.5-0.5,12.6-0.4,18.3C0.9,302.4,39.9,321,39.9,321h41.9C59.7,263.4,55.5,212.2,69.4,168.8z"/>
	
		<linearGradient id="SVGID_2_" gradientUnits="userSpaceOnUse" x1="-1.000000e-03" y1="168.033" x2="204.773" y2="168.033" gradientTransform="matrix(1 0 0 -1 0 322)">
		<stop  offset="0" style="stop-color:#5C596C"/>
		<stop  offset="1" style="stop-color:#B4A0A1"/>
	</linearGradient>
	<path class="st1" d="M43.5,221.9c4.6-7.2,4.6-13.4,4.6-23c0-9.2,0-20.6,4.2-37.4c2.4-9.9,6-19.5,10.7-28.5c3.2-6.5,5.4-10.8,5.2-18
		c-0.4-16.2-12.8-32.7-36.9-49.1c-4.9,31.1-8.2,65.7-12.6,78c-6.5,18.2-15.5,61.9-18,98.1C22.1,239.6,36.5,232.9,43.5,221.9z"/>
	
		<linearGradient id="SVGID_3_" gradientUnits="userSpaceOnUse" x1="-1.000000e-03" y1="156.9425" x2="204.773" y2="156.9425" gradientTransform="matrix(1 0 0 -1 0 322)">
		<stop  offset="0" style="stop-color:#5C596C"/>
		<stop  offset="1" style="stop-color:#B4A0A1"/>
	</linearGradient>
	<path class="st2" d="M133.2,78.4c-2.1-21.1-5-42.3-8.7-63.2c-2.9-0.7-6.1-1.5-9.4-2.3c-5.6-1.4-10.7-2.6-15.2-3.7
		c5.4,25.4,6.5,51.6,3.2,77.4c-3.5,27.3-11.2,46.2-17.9,62.8c-3,7.5-5.9,14.5-8.3,21.9c-13.6,42.4-9.1,92.7,13.3,149.8h18.4
		c12.2-32.5,20.8-66.2,25.5-100.5C141.8,164.7,137.2,118.9,133.2,78.4z"/>
	
		<linearGradient id="SVGID_4_" gradientUnits="userSpaceOnUse" x1="-1.000000e-03" y1="152.8155" x2="204.773" y2="152.8155" gradientTransform="matrix(1 0 0 -1 0 322)">
		<stop  offset="0" style="stop-color:#5C596C"/>
		<stop  offset="1" style="stop-color:#B4A0A1"/>
	</linearGradient>
	<path class="st3" d="M175.4,43c-3.2-7.2,7.3-12.2-42.4-25.6c3.4,19.9,6.2,40.1,8.2,60.2c4.1,40.9,8.7,87.3,1,143.9
		c-4.7,34-13,67.3-24.9,99.5h47.5c0,0,13.3-9.7,24.8-40.7s24.8-79.7,5.3-109.8S178.9,50.9,175.4,43z"/>
	<path class="st4" d="M77,171.2c2.4-7.4,5.2-14.4,8.3-21.9c6.7-16.6,14.4-35.5,17.9-62.8c3.2-25.8,2.1-52-3.2-77.4
		c-2.8,4.3-5.6,4.3-8.6-2.2c5.9,25.8,7.2,52.4,4,78.6c-3.4,26.3-10.5,43.9-17.4,60.8c-3.1,7.6-6,14.8-8.5,22.5
		c-13.9,43.5-9.7,94.6,12.4,152.2h8.6C67.9,263.9,63.4,213.6,77,171.2z"/>
	<path class="st4" d="M141.2,77.6c-2-20.1-4.7-40.3-8.2-60.2c-3.3,3.1-6.1,2.7-8.5-2.2c3.7,20.9,6.6,42.1,8.7,63.2
		c4,40.5,8.6,86.3,1,142.1c-4.7,34.4-13.3,68.1-25.5,100.5h8.5c11.9-32.2,20.2-65.5,24.9-99.5C149.8,164.9,145.2,118.5,141.2,77.6z"
		/>
	<path class="st4" d="M46.9,224.1c5.2-8.1,5.2-15.6,5.2-25.1c0-9,0-20.1,4-36.5c2.3-9.6,5.8-18.9,10.4-27.7
		c3.3-6.5,5.8-11.7,5.7-19.8C71.8,97.1,58.3,79.2,32,61.6c2.4,2.5,1.8,3.8-0.7,4.3C55.4,82.4,67.8,98.8,68.2,115
		c0.2,7.1-2,11.4-5.2,18c-4.7,9-8.3,18.6-10.7,28.5c-4.2,16.8-4.2,28.3-4.2,37.4c0,9.5,0,15.8-4.6,23c-7,11-21.4,17.7-42.8,20.1
		c3.5,1.3,2.6,2.7-0.3,4C23.5,243.5,39.1,236.2,46.9,224.1z"/>
	<path class="st4" d="M102.6,257.9c-1.4,1.3-3.2,2.1-5.1,2.2c-0.3,0-0.6,0-0.9-0.1c-4.8-0.7-7.3-6.4-8.3-18.9
		c-0.6-8.8-0.7-17.6,0-26.3c0.9-11.3,2.9-22.6,6.1-33.5c4-13,8.1-18.6,13.2-18.2c5.3,0.4,8.2,7.9,9.8,16c1.2,6.6,1.8,13.2,2,19.9
		C119.7,223.5,110.6,250.8,102.6,257.9z"/>
</g>
</svg>
