<?xml version="1.0" encoding="utf-8"?>
<!-- Generator: Adobe Illustrator 22.0.0, SVG Export Plug-In . SVG Version: 6.00 Build 0)  -->
<svg version="1.1" id="Layer_1" xmlns="http://www.w3.org/2000/svg" xmlns:xlink="http://www.w3.org/1999/xlink" x="0px" y="0px"
	 viewBox="0 0 185.7 424.3" style="enable-background:new 0 0 185.7 424.3;" xml:space="preserve">
<style type="text/css">
	.st0{fill:url(#SVGID_1_);}
	.st1{fill:url(#SVGID_2_);}
	.st2{fill:url(#SVGID_3_);}
	.st3{fill:url(#SVGID_4_);}
	.st4{fill:#5C596C;}
</style>
<title>SaveStone_2</title>
<g>
	
		<linearGradient id="SVGID_1_" gradientUnits="userSpaceOnUse" x1="-4.470375e-04" y1="67.419" x2="185.6606" y2="67.419" gradientTransform="matrix(1 0 0 -1 0 426)">
		<stop  offset="0" style="stop-color:#5C596C"/>
		<stop  offset="1" style="stop-color:#B4A0A1"/>
	</linearGradient>
	<path class="st0" d="M70.9,363.4c-1-21.9-4.6-29.7-5.8-32.2c-10.7-22.8-34.9-33.6-51.3-38.3C8,328.7,3.3,363.3,0.9,370.3
		c-5,15,12,54,12,54h52.4C69.9,404.4,71.7,383.9,70.9,363.4z"/>
	
		<linearGradient id="SVGID_2_" gradientUnits="userSpaceOnUse" x1="0" y1="213.8351" x2="185.661" y2="213.8351" gradientTransform="matrix(1 0 0 -1 0 426)">
		<stop  offset="0" style="stop-color:#5C596C"/>
		<stop  offset="1" style="stop-color:#B4A0A1"/>
	</linearGradient>
	<path class="st1" d="M85.9,350.7c-0.7-7-1.6-13.7-2.5-20.1c-3.2-22.7-5.9-42.3,6.3-58.6c6.2-7.8,13.1-15,20.5-21.6
		c5-4.4,9.5-7.9,13.1-10.8c2.8-2.1,5.5-4.3,8-6.7c-0.8-0.2-1.9-0.4-2.8-0.5c-4.3-0.7-10.3-1.6-16-5.8c-6.7-4.8-11.2-13.4-13.6-25.5
		c-4.9-25.5,0.6-65.2,5.1-97.1c1.6-11.6,3.1-22.5,3.9-31c2.1-23.4-0.2-47.8-6.7-72.5c-6.1-1-12-0.8-18.3,3.3
		c-13,8.5-15,164.4-18.5,170.5s-16.5,19.5-29.5,30c-6.7,5.4-14.2,45.1-20.5,84.5c17.1,4.9,42.9,16.2,54.3,40.6
		c1.3,2.7,5.2,11.1,6.2,33.8c0.8,20.5-1,41-5.4,61.1h12.9C86.9,400.1,88.1,375.3,85.9,350.7z"/>
	
		<linearGradient id="SVGID_3_" gradientUnits="userSpaceOnUse" x1="0" y1="234.6415" x2="185.661" y2="234.6415" gradientTransform="matrix(1 0 0 -1 0 426)">
		<stop  offset="0" style="stop-color:#5C596C"/>
		<stop  offset="1" style="stop-color:#B4A0A1"/>
	</linearGradient>
	<path class="st2" d="M125.7,179.1c-2.4,5.6-2.4,11.8,0,17.4c3.5,7.8,11.5,10.5,29.1,16.6l3.7,1.3c5.8,2,11.7,4.1,17.6,6.3
		c0.6-19.3,1.5-41.6,2.1-58.3C152,160.3,131.3,166.5,125.7,179.1z"/>
	
		<linearGradient id="SVGID_4_" gradientUnits="userSpaceOnUse" x1="9.094947e-13" y1="212.547" x2="185.661" y2="212.547" gradientTransform="matrix(1 0 0 -1 0 426)">
		<stop  offset="0" style="stop-color:#5C596C"/>
		<stop  offset="1" style="stop-color:#B4A0A1"/>
	</linearGradient>
	<path class="st3" d="M153.5,216.9c-18.1-6.3-27.2-9.4-31.4-18.8c-2.8-6.6-2.8-14,0-20.6c6.3-14.3,28.2-21.4,56.4-19.1
		c0.3-8.2,0.5-14.6,0.5-18.1c0-15-41.5-133-56.5-135c-4.2-0.6-8.4-1.6-12.5-2.8c5.9,23.2,7.9,47.2,5.9,71.1
		c-0.8,8.6-2.3,19.7-3.9,31.4c-4.4,31.3-9.8,70.3-5.1,94.5c1.3,6.9,4.2,16,10.4,20.5c4.2,3,8.8,3.7,12.5,4.3c4.1,0.6,8.6,1.3,10,5.8
		c1.6,5.5-3.3,9.3-11.5,15.7c-3.5,2.8-8,6.2-12.7,10.4c-7.1,6.2-13.6,13-19.5,20.4c-10.3,13.7-7.8,30.9-4.8,52.7
		c0.9,6.5,1.9,13.3,2.6,20.5c2.3,24.8,1.1,49.9-3.4,74.4h74.4c0,0,16-35,20-53.5s-9.5-93-9.5-118c0-6.6,0.2-16.6,0.6-27.9
		c-6.3-2.3-12.6-4.6-18.8-6.7L153.5,216.9z"/>
	<path class="st4" d="M93.9,349.9c-0.7-7.2-1.6-14-2.6-20.5c-3.1-21.8-5.5-39,4.8-52.7c5.9-7.4,12.4-14.2,19.5-20.4
		c4.8-4.2,9.2-7.7,12.7-10.4c8.2-6.4,13.1-10.2,11.5-15.7c-1.3-4.4-5.9-5.1-10-5.8c-3.7-0.6-8.4-1.3-12.5-4.3
		c-6.2-4.5-9.1-13.6-10.4-20.5c-4.7-24.2,0.8-63.2,5.1-94.5c1.6-11.7,3.2-22.7,3.9-31.4c2-23.9,0-47.9-5.9-71.1
		c-3,3.3-5.9,2.8-8.8-2.1c6.5,24.7,8.8,49,6.7,72.5c-0.7,8.4-2.3,19.4-3.9,31c-4.5,31.9-10,71.7-5.1,97.1
		c2.3,12.1,6.9,20.6,13.6,25.5c5.7,4.2,11.7,5.1,16,5.8c0.9,0.1,2,0.3,2.8,0.5c-2.5,2.4-5.2,4.7-8,6.7c-3.6,2.8-8.2,6.4-13.1,10.8
		c-7.5,6.6-14.3,13.8-20.5,21.6c-12.2,16.4-9.5,36-6.3,58.6c0.9,6.4,1.8,13.1,2.5,20.1c2.2,24.6,1,49.4-3.5,73.6h8.1
		C95,399.8,96.1,374.8,93.9,349.9z"/>
	<path class="st4" d="M158.5,214.4l-3.7-1.3c-17.6-6.1-25.6-8.9-29.1-16.6c-2.3-5.6-2.3-11.8,0-17.4c5.6-12.6,26.3-18.9,52.6-16.7
		c-3.3-1.6-3.1-3,0.1-4c-28.2-2.3-50,4.8-56.4,19.1c-2.8,6.6-2.8,14,0,20.6c4.2,9.3,13.3,12.5,31.4,18.8l3.7,1.3
		c6.2,2.2,12.5,4.4,18.8,6.7c-2.4-1.9-2.9-3.4,0.1-4.2C170.2,218.6,164.3,216.5,158.5,214.4z"/>
	<path class="st4" d="M74.9,363.2c-1-22.7-4.9-31-6.2-33.8c-11.4-24.4-37.2-35.7-54.3-40.6c3.9,2.6,3.4,3.9-0.6,4
		c16.4,4.8,40.6,15.5,51.3,38.3c1.2,2.6,4.8,10.4,5.8,32.2c0.8,20.5-1,40.9-5.5,60.9h4.1C73.9,404.3,75.7,383.8,74.9,363.2z"/>
	<path class="st4" d="M87.1,247.7c-2.2,3-5,5.5-8.3,7.4c-3.1,1.8-6.7,2.8-10.3,2.9c-2.8,0-5.5-0.7-7.8-2.2
		c-8.3-5.3-8.9-17.9-4.3-26.3c3.6-6.2,9.6-10.5,16.6-11.9c5.3-1,10-0.1,13.4,2.7C94,226.4,92.9,239.6,87.1,247.7z"/>
</g>
</svg>
