<?xml version="1.0" encoding="utf-8"?>
<!-- Generator: Adobe Illustrator 22.0.0, SVG Export Plug-In . SVG Version: 6.00 Build 0)  -->
<svg version="1.1" id="Layer_1" xmlns="http://www.w3.org/2000/svg" xmlns:xlink="http://www.w3.org/1999/xlink" x="0px" y="0px"
	 viewBox="0 0 185.7 424.3" style="enable-background:new 0 0 185.7 424.3;" xml:space="preserve">
<style type="text/css">
	.st0{fill:#FFFFFF;}
</style>
<title>SaveStoneActivated_2</title>
<g>
	<path class="st0" d="M93.9,349.9c-0.7-7.2-1.6-14-2.6-20.5c-3.1-21.8-5.5-39,4.8-52.7c5.9-7.4,12.4-14.2,19.5-20.4
		c4.8-4.2,9.2-7.7,12.7-10.4c8.2-6.4,13.1-10.2,11.5-15.7c-1.3-4.4-5.9-5.1-10-5.8c-3.7-0.6-8.4-1.3-12.5-4.3
		c-6.2-4.5-9.1-13.6-10.4-20.5c-4.7-24.2,0.8-63.2,5.1-94.5c1.6-11.7,3.2-22.7,3.9-31.4c2-23.9,0-47.9-5.9-71.1
		c-3,3.3-5.9,2.8-8.8-2.1c6.5,24.7,8.8,49,6.7,72.5c-0.7,8.4-2.3,19.4-3.9,31c-4.5,31.9-10,71.7-5.1,97.1
		c2.3,12.1,6.9,20.6,13.6,25.5c5.7,4.2,11.7,5.1,16,5.8c0.9,0.1,2,0.3,2.8,0.5c-2.5,2.4-5.2,4.7-8,6.7c-3.6,2.8-8.2,6.4-13.1,10.8
		c-7.5,6.6-14.3,13.8-20.5,21.6c-12.2,16.4-9.5,36-6.3,58.6c0.9,6.4,1.8,13.1,2.5,20.1c2.2,24.6,1,49.4-3.5,73.6h8.1
		C95,399.8,96.1,374.8,93.9,349.9z"/>
	<path class="st0" d="M158.5,214.4l-3.7-1.3c-17.6-6.1-25.6-8.9-29.1-16.6c-2.3-5.6-2.3-11.8,0-17.4c5.6-12.6,26.3-18.9,52.6-16.7
		c-3.3-1.6-3.1-3,0.1-4c-28.2-2.3-50,4.8-56.4,19.1c-2.8,6.6-2.8,14,0,20.6c4.2,9.3,13.3,12.5,31.4,18.8l3.7,1.3
		c6.2,2.2,12.5,4.4,18.8,6.7c-2.4-1.9-2.9-3.4,0.1-4.2C170.2,218.6,164.3,216.5,158.5,214.4z"/>
	<path class="st0" d="M74.9,363.2c-1-22.7-4.9-31-6.2-33.8c-11.4-24.4-37.2-35.7-54.3-40.6c3.9,2.6,3.4,3.9-0.6,4
		c16.4,4.8,40.6,15.5,51.3,38.3c1.2,2.6,4.8,10.4,5.8,32.2c0.8,20.5-1,40.9-5.5,60.9h4.1C73.9,404.3,75.7,383.8,74.9,363.2z"/>
	<path class="st0" d="M87.1,247.7c-2.2,3-5,5.5-8.3,7.4c-3.1,1.8-6.7,2.8-10.3,2.9c-2.8,0-5.5-0.7-7.8-2.2
		c-8.3-5.3-8.9-17.9-4.3-26.3c3.6-6.2,9.6-10.5,16.6-11.9c5.3-1,10-0.1,13.4,2.7C94,226.4,92.9,239.6,87.1,247.7z"/>
</g>
</svg>
