<?xml version="1.0" encoding="utf-8"?>
<!-- Generator: Adobe Illustrator 22.0.0, SVG Export Plug-In . SVG Version: 6.00 Build 0)  -->
<svg version="1.1" id="Layer_1" xmlns="http://www.w3.org/2000/svg" xmlns:xlink="http://www.w3.org/1999/xlink" x="0px" y="0px"
	 viewBox="0 0 204.8 321" style="enable-background:new 0 0 204.8 321;" xml:space="preserve">
<style type="text/css">
	.st0{fill:#FFFFFF;}
</style>
<title>SaveStoneActivated_1</title>
<g>
	<path class="st0" d="M77,171.2c2.4-7.4,5.2-14.4,8.3-21.9c6.7-16.6,14.4-35.5,17.9-62.8c3.2-25.8,2.1-52-3.2-77.4
		c-2.8,4.3-5.6,4.3-8.6-2.2c5.9,25.8,7.2,52.4,4,78.6c-3.4,26.3-10.5,43.9-17.4,60.8c-3.1,7.6-6,14.8-8.5,22.5
		c-13.9,43.5-9.7,94.6,12.4,152.2h8.6C67.9,263.9,63.4,213.6,77,171.2z"/>
	<path class="st0" d="M141.2,77.6c-2-20.1-4.7-40.3-8.2-60.2c-3.3,3.1-6.1,2.7-8.5-2.2c3.7,20.9,6.6,42.1,8.7,63.2
		c4,40.5,8.6,86.3,1,142.1c-4.7,34.4-13.3,68.1-25.5,100.5h8.5c11.9-32.2,20.2-65.5,24.9-99.5C149.8,164.9,145.2,118.5,141.2,77.6z"
		/>
	<path class="st0" d="M46.9,224.1c5.2-8.1,5.2-15.6,5.2-25.1c0-9,0-20.1,4-36.5c2.3-9.6,5.8-18.9,10.4-27.7
		c3.3-6.5,5.8-11.7,5.7-19.8C71.8,97.1,58.3,79.2,32,61.6c2.4,2.5,1.8,3.8-0.7,4.3C55.4,82.4,67.8,98.8,68.2,115
		c0.2,7.1-2,11.4-5.2,18c-4.7,9-8.3,18.6-10.7,28.5c-4.2,16.8-4.2,28.3-4.2,37.4c0,9.5,0,15.8-4.6,23c-7,11-21.4,17.7-42.8,20.1
		c3.5,1.3,2.6,2.7-0.3,4C23.5,243.5,39.1,236.2,46.9,224.1z"/>
	<path class="st0" d="M102.6,257.9c-1.4,1.3-3.2,2.1-5.1,2.2c-0.3,0-0.6,0-0.9-0.1c-4.8-0.7-7.3-6.4-8.3-18.9
		c-0.6-8.8-0.7-17.6,0-26.3c0.9-11.3,2.9-22.6,6.1-33.5c4-13,8.1-18.6,13.2-18.2c5.3,0.4,8.2,7.9,9.8,16c1.2,6.6,1.8,13.2,2,19.9
		C119.7,223.5,110.6,250.8,102.6,257.9z"/>
</g>
</svg>
