<?xml version="1.0" encoding="utf-8"?>
<!-- Generator: Adobe Illustrator 22.0.0, SVG Export Plug-In . SVG Version: 6.00 Build 0)  -->
<svg version="1.1" id="Layer_1" xmlns="http://www.w3.org/2000/svg" xmlns:xlink="http://www.w3.org/1999/xlink" x="0px" y="0px"
	 viewBox="0 0 168 209.9" style="enable-background:new 0 0 168 209.9;" xml:space="preserve">
<style type="text/css">
	.st0{fill:url(#SVGID_1_);}
	.st1{fill:url(#SVGID_2_);}
	.st2{fill:url(#SVGID_3_);}
	.st3{fill:url(#SVGID_4_);}
	.st4{fill:#5C596C;}
</style>
<title>SaveStone</title>
<g>
	
		<linearGradient id="SVGID_1_" gradientUnits="userSpaceOnUse" x1="9.094947e-13" y1="107.0315" x2="167.973" y2="107.0315" gradientTransform="matrix(1 0 0 -1 0 212)">
		<stop  offset="0" style="stop-color:#5C596C"/>
		<stop  offset="1" style="stop-color:#B4A0A1"/>
	</linearGradient>
	<path class="st0" d="M96.7,127.6c5-14.5,9.3-27.1,5.8-42.8c-1.9-8.4-5-13.5-8.3-18.9c-3.3-5.5-6.8-11.1-8.7-20.1
		c-3-14-0.7-29.4,7-45.8C74.9,0.8,52.7,11.8,26.8,41.2c11,6.5,21.6,13.4,31.9,20.5c12.8,8.9,21.9,16,21.7,26.4
		c-0.1,4-1.5,6.8-8.7,17.2c-5.5,8-9,12.5-11.5,15.8c-1.9,2.5-3.2,4.2-4.3,6c-6.6,10.6-5.5,22.8-4.4,34.5
		c1.8,20.2,10.8,36.7,19.4,48.4h10c1-24.9,5.3-49.5,12.8-73.2C94.6,133.6,95.7,130.6,96.7,127.6z"/>
	
		<linearGradient id="SVGID_2_" gradientUnits="userSpaceOnUse" x1="-3.064270e-04" y1="83.3405" x2="167.9727" y2="83.3405" gradientTransform="matrix(1 0 0 -1 0 212)">
		<stop  offset="0" style="stop-color:#5C596C"/>
		<stop  offset="1" style="stop-color:#B4A0A1"/>
	</linearGradient>
	<path class="st1" d="M49,122.8c1.5-2.3,3.1-4.5,4.8-6.7c2.5-3.2,5.9-7.7,11.3-15.5c6.6-9.4,7.3-11.1,7.3-12.8
		c0.1-6.3-7.8-12.4-18.3-19.6S32.8,54,21.6,47.4c-0.3,0.3-0.5,0.6-0.8,1c-33,40.3-13.8,24.2-20,81.5s27.6,80.1,27.6,80.1H61
		c-8.2-12.1-15.9-28.3-17.6-47.6C42.3,149.9,41,135.7,49,122.8z"/>
	
		<linearGradient id="SVGID_3_" gradientUnits="userSpaceOnUse" x1="0" y1="106.811" x2="167.973" y2="106.811" gradientTransform="matrix(1 0 0 -1 0 212)">
		<stop  offset="0" style="stop-color:#5C596C"/>
		<stop  offset="1" style="stop-color:#B4A0A1"/>
	</linearGradient>
	<path class="st2" d="M164.7,94.9c-1.2,0.1-2.4,0.2-3.7,0.2c-5.9,0-11.6-1.5-16.6-4.5c-14.4-8.5-17.8-25.8-14.9-38.2
		c1.3-5.6,4-10.8,7.8-15.2c-0.1-0.7-0.3-1.4-0.4-2.1c-2.9-14.5-15.5-31.7-35.6-34.8c-8,15.9-10.7,30.6-7.8,43.7
		c1.6,7.6,4.6,12.5,7.7,17.6c3.5,5.7,7.1,11.6,9.3,21.4c4,17.9-0.9,32.1-6.1,47.2c-1,2.9-2,5.9-3,8.9c-7.2,22.9-11.4,46.7-12.4,70.8
		H152c0,0,17.3-54.6,15.9-95.3C167.6,105.3,166.4,99.3,164.7,94.9z"/>
	
		<linearGradient id="SVGID_4_" gradientUnits="userSpaceOnUse" x1="-4.547474e-12" y1="145.2322" x2="167.973" y2="145.2322" gradientTransform="matrix(1 0 0 -1 0 212)">
		<stop  offset="0" style="stop-color:#5C596C"/>
		<stop  offset="1" style="stop-color:#B4A0A1"/>
	</linearGradient>
	<path class="st3" d="M146.4,87.2c5,2.9,10.7,4.3,16.4,3.9c-5.9-10.2-16-12.4-24.5-48.7c-2.4,3.3-4.1,7-5,11
		C130.8,64.4,133.8,79.7,146.4,87.2z"/>
	<path class="st4" d="M55.8,127c1.1-1.8,2.4-3.5,4.3-6c2.5-3.3,6-7.8,11.5-15.8c7.2-10.4,8.6-13.2,8.7-17.2
		c0.2-10.3-8.9-17.4-21.7-26.4c-10.2-7.1-20.9-13.9-31.9-20.5c3.5,5.5,0.9,7.1-5.3,6.2C32.8,54,43.7,61,54.1,68.2
		s18.4,13.3,18.3,19.6c0,1.7-0.7,3.4-7.3,12.8c-5.4,7.8-8.8,12.3-11.3,15.5c-1.7,2.1-3.3,4.4-4.8,6.7c-8,12.9-6.7,27-5.6,39.5
		c1.7,19.3,9.4,35.5,17.6,47.6h9.8c-8.7-11.6-17.6-28.2-19.4-48.4C50.3,149.8,49.2,137.7,55.8,127z"/>
	<path class="st4" d="M104.2,130.2c5.2-15,10.1-29.2,6.1-47.2c-2.2-9.7-5.8-15.7-9.3-21.4c-3.1-5.1-6.1-10-7.7-17.6
		c-2.8-13.1-0.2-27.8,7.8-43.7c-4.5,4.4-7.9,5.5-8.7-0.4c-7.6,16.4-10,31.7-7,45.8c1.9,8.9,5.4,14.6,8.7,20.1
		c3.3,5.4,6.4,10.5,8.3,18.9c3.5,15.7-0.8,28.3-5.8,42.8c-1,2.9-2,5.9-3.1,9.1c-7.5,23.7-11.8,48.4-12.8,73.2h8
		c1-24,5.2-47.8,12.4-70.8C102.2,136.1,103.2,133.1,104.2,130.2z"/>
	<path class="st4" d="M144.4,90.7c5,3,10.8,4.5,16.6,4.5c1.2,0,2.4-0.1,3.7-0.2c-3.7-0.7-4.4-1.9-1.8-3.8c-5.7,0.4-11.5-1-16.4-3.9
		c-12.6-7.5-15.6-22.8-13.1-33.8c0.9-4,2.6-7.7,5-11c-2.4-0.5-2.6-2.3-1.1-5c-3.8,4.3-6.5,9.5-7.8,15.2
		C126.6,64.9,130,82.1,144.4,90.7z"/>
	<path class="st4" d="M85.2,125.3c0,3.6-1.1,9.2-2.9,18.4c-2.2,11.1-3.7,18.3-4.9,23.4c-1.6,6.4-2.9,10.7-6.8,10.9h-0.3
		c-2.1,0-4.1-1.2-5.9-3.6c-4.5-6.2-8.9-21.8-3.8-35.7c3.4-9.4,11-17.3,16.1-19.2c1.8-0.8,3.8-0.8,5.6,0.1
		C84.3,120.5,85.2,122,85.2,125.3z"/>
</g>
</svg>
