<svg xmlns="http://www.w3.org/2000/svg" width="553.55" height="318.809" viewBox="0 0 553.55 318.809">
  <title>FawnDawnLogo White</title>
  <g>
    <g>
      <path d="M28.668,23.006V55.745H86.006V78.75H28.668v45.127H0V0H93.615V23.006Z" fill="#fff"/>
      <path d="M189.533,97.332H132.017l-10.973,26.545H91.669L146.883,0H175.2l55.389,123.877H200.5Zm-9.027-21.767L160.862,28.137,141.219,75.565Z" fill="#fff"/>
      <path d="M424.012,0,383.487,123.877H352.7L325.441,39.994,297.3,123.877H266.689L225.986,0h29.73l27.962,87.068L312.877,0h26.545l28.314,87.776L396.583,0Z" fill="#fff"/>
      <path d="M553.55,0V123.877H530.014L468.252,48.665v75.212H439.938V0h23.713l61.585,75.211V0Z" fill="#fff"/>
    </g>
    <g>
      <path d="M6.281,317.275A16.327,16.327,0,0,1,0,313.309l1.331-2.2a15.67,15.67,0,0,0,5.76,3.676A20.653,20.653,0,0,0,14.7,316.2q5.787,0,8.74-2.2a6.826,6.826,0,0,0,2.952-5.73,5.989,5.989,0,0,0-1.563-4.341,10.349,10.349,0,0,0-3.878-2.489A53.193,53.193,0,0,0,14.7,299.65a60.762,60.762,0,0,1-7.148-2.142A11.4,11.4,0,0,1,2.981,294.3,8.568,8.568,0,0,1,1.1,288.479a9.888,9.888,0,0,1,1.563-5.412,10.611,10.611,0,0,1,4.775-3.907,19.538,19.538,0,0,1,8.017-1.447,22.591,22.591,0,0,1,6.6.984,19.412,19.412,0,0,1,5.615,2.663l-1.1,2.372a18.773,18.773,0,0,0-5.354-2.547,20.182,20.182,0,0,0-5.758-.867q-5.616,0-8.51,2.257a7.079,7.079,0,0,0-2.893,5.846,5.988,5.988,0,0,0,1.563,4.341,10.328,10.328,0,0,0,3.878,2.489A58.767,58.767,0,0,0,15.8,297.1a59.26,59.26,0,0,1,7.119,2.142,11.715,11.715,0,0,1,4.544,3.154,8.268,8.268,0,0,1,1.881,5.7,9.623,9.623,0,0,1-1.592,5.384,10.834,10.834,0,0,1-4.891,3.877,20.136,20.136,0,0,1-8.1,1.448A23.575,23.575,0,0,1,6.281,317.275Z" fill="#fff"/>
      <path d="M101.866,280.665H87.28V278H119.4v2.663H104.818v37.854h-2.952Z" fill="#fff"/>
      <path d="M181.594,314.352q-4.254-4.458-4.255-13.023V278h2.953v23.21q0,7.467,3.415,11.172t9.9,3.7q6.426,0,9.84-3.7t3.415-11.172V278h2.952v23.327q0,8.567-4.283,13.023t-11.982,4.457Q185.848,318.809,181.594,314.352Z" fill="#fff"/>
      <path d="M267.746,278h16.032a23.46,23.46,0,0,1,11.2,2.605,19.042,19.042,0,0,1,7.611,7.206,21.424,21.424,0,0,1,0,20.9,19.035,19.035,0,0,1-7.611,7.206,23.46,23.46,0,0,1-11.2,2.605H267.746Zm15.8,37.855a21.139,21.139,0,0,0,9.9-2.229,15.93,15.93,0,0,0,6.6-6.222,19.215,19.215,0,0,0,0-18.291,15.942,15.942,0,0,0-6.6-6.222,21.151,21.151,0,0,0-9.9-2.228H270.7v35.192Z" fill="#fff"/>
      <path d="M363.245,278H366.2v40.517h-2.952Z" fill="#fff"/>
      <path d="M434.435,316.117a19.806,19.806,0,0,1-7.554-7.38,21.338,21.338,0,0,1,0-20.953,19.82,19.82,0,0,1,7.554-7.38,22.989,22.989,0,0,1,21.531-.029,19.614,19.614,0,0,1,7.554,7.352,21.557,21.557,0,0,1,0,21.068,19.6,19.6,0,0,1-7.554,7.351,22.981,22.981,0,0,1-21.531-.029Zm19.969-2.344a17.057,17.057,0,0,0,6.482-6.4,18.7,18.7,0,0,0,0-18.233,17.079,17.079,0,0,0-6.482-6.4,19.51,19.51,0,0,0-18.436,0,17.015,17.015,0,0,0-6.511,6.4,18.7,18.7,0,0,0,0,18.233,16.994,16.994,0,0,0,6.511,6.4,19.51,19.51,0,0,0,18.436,0Z" fill="#fff"/>
      <path d="M530.485,317.275a16.327,16.327,0,0,1-6.281-3.966l1.332-2.2a15.657,15.657,0,0,0,5.759,3.676,20.653,20.653,0,0,0,7.611,1.418q5.787,0,8.74-2.2a6.826,6.826,0,0,0,2.952-5.73,5.989,5.989,0,0,0-1.563-4.341,10.349,10.349,0,0,0-3.878-2.489,53.193,53.193,0,0,0-6.251-1.794,60.821,60.821,0,0,1-7.148-2.142,11.4,11.4,0,0,1-4.573-3.212,8.573,8.573,0,0,1-1.881-5.817,9.888,9.888,0,0,1,1.563-5.412,10.611,10.611,0,0,1,4.775-3.907,19.538,19.538,0,0,1,8.017-1.447,22.6,22.6,0,0,1,6.6.984,19.406,19.406,0,0,1,5.614,2.663l-1.1,2.372a18.773,18.773,0,0,0-5.354-2.547,20.176,20.176,0,0,0-5.758-.867q-5.616,0-8.509,2.257a7.077,7.077,0,0,0-2.894,5.846,5.988,5.988,0,0,0,1.563,4.341,10.328,10.328,0,0,0,3.878,2.489,58.767,58.767,0,0,0,6.309,1.852,59.2,59.2,0,0,1,7.119,2.142,11.715,11.715,0,0,1,4.544,3.154,8.264,8.264,0,0,1,1.881,5.7,9.623,9.623,0,0,1-1.592,5.384,10.831,10.831,0,0,1-4.89,3.877,20.144,20.144,0,0,1-8.1,1.448A23.578,23.578,0,0,1,530.485,317.275Z" fill="#fff"/>
    </g>
    <g>
      <path d="M198.58,138.826H172.01l-51.8,116.22h27.56l10.29-24.9h53.96l10.3,24.9h28.22Zm-31.88,70.9,18.43-44.5,18.43,44.5Z" fill="#fff"/>
      <path d="M406.28,138.826l-27.06,82.351-26.57-82.351h-24.9l-27.4,81.69-26.23-81.69H246.23l38.18,116.22h28.73l26.4-78.7,25.57,78.7h28.88l38.03-116.22Z" fill="#fff"/>
      <path d="M526.99,138.826v70.561l-57.78-70.561H446.96v116.22h26.56V184.487l57.95,70.559h22.08V138.826Z" fill="#fff"/>
      <g>
        <path d="M116.89,196.936q0,17.43-8.05,30.551a54.046,54.046,0,0,1-22.58,20.339,69.029,69.029,0,0,1-21.9,6.5,52.635,52.635,0,0,1-1.29-9.979c0-3.311.28-8.271.6-12.781.13-1.94.27-3.8.4-5.4a1.91,1.91,0,0,1,.02-.239c1.04-1.54,1.97-2.951,2.59-3.851,2.08-2.979,3.62-10.03,4.16-17.439a8.631,8.631,0,0,0,.02-1.141c2.35-1.85,5.78-7.609,6.58-8.9.9-1.44,6.96-1.17,9.04-1.531a6.733,6.733,0,0,0,2.84-1.94,74.928,74.928,0,0,0,6.38-7.659c3.16-4.181,3.25-20.23-1.18-22.58-3.37-1.79-12.09,3.649-17.33,7.949a26.344,26.344,0,0,0-3.64,3.441c-2.89,3.61-6.5,10.21-8.67,11.929a5.508,5.508,0,0,1-3.11.96,4.345,4.345,0,0,0-.6-.42c-2.8-1.529-7.95-1.259-7.95-1.259s-5.16-.27-7.96,1.259a4.345,4.345,0,0,0-.6.42,5.452,5.452,0,0,1-3.1-.96c-2.17-1.719-5.79-8.319-8.68-11.929a35.967,35.967,0,0,0-5.98-5.261c-5.21-3.839-12.08-7.669-14.99-6.129-4.43,2.35-4.34,18.4-1.18,22.58s7.14,9.239,9.22,9.6c1.43.25,4.73.2,6.95.611a3.23,3.23,0,0,1,2.09.92c.8,1.29,4.24,7.049,6.58,8.9a10.766,10.766,0,0,0,.02,1.141c.54,7.409,2.08,14.46,4.16,17.439.23.331.5.74.81,1.19v.1c-.02,1.87-.06,4.549-.18,7.209-.04.811-.08,1.61-.13,2.391-.12,1.789-.28,3.449-.5,4.7-.91,5.08-1.81,11.39-4.52,16.29a7.555,7.555,0,0,1-.75,1.09H0V138.826H52.8q18.93,0,33.46,7.22a54.183,54.183,0,0,1,22.58,20.341Q116.88,179.512,116.89,196.936Z" fill="#fff"/>
        <path d="M67.99,204.246a2.363,2.363,0,0,1-2.19,2.51,2.313,2.313,0,0,1-2.17-2.159,10.821,10.821,0,0,0-1.29,1.89A7.538,7.538,0,0,1,64,202.816a2.468,2.468,0,0,1,.46-.55l.02-.02a2.04,2.04,0,0,1,1.32-.5A2.361,2.361,0,0,1,67.99,204.246Z" fill="#fff"/>
        <path d="M44.09,206.487a10.821,10.821,0,0,0-1.29-1.89,2.311,2.311,0,0,1-2.16,2.159,2.526,2.526,0,0,1,0-5.01,2.014,2.014,0,0,1,1.31.5l.02.02a2.511,2.511,0,0,1,.47.55A7.624,7.624,0,0,1,44.09,206.487Z" fill="#fff"/>
        <path d="M58.64,228.856a3.779,3.779,0,0,1-1.9.97,12.615,12.615,0,0,1-7.05,0,3.825,3.825,0,0,1-1.9-.97c-.72-1.079-.73-2.889-.31-2.659s1.58-.46,1.58-.46-1.76.369-1.49-3.111a3.918,3.918,0,0,1,1.52-2.71,6.422,6.422,0,0,1,8.25,0,3.967,3.967,0,0,1,1.53,2.71c.27,3.48-1.5,3.111-1.5,3.111s1.17.679,1.59.46S59.36,227.777,58.64,228.856Z" fill="#fff"/>
      </g>
    </g>
  </g>
</svg>
