<svg xmlns="http://www.w3.org/2000/svg" width="1369.863" height="212.283" viewBox="0 0 1369.863 212.283">
  <title>StonicornLogoWhite</title>
  <g>
    <path d="M302.21,184.5,464.71,206l3.5-201.5-163,14ZM356.407,58l60.606,4.041L421.861,138l-70.3-3.232Z" fill="#fff"/>
    <polygon points="663.93 22.5 663.93 184.5 713.93 202.5 711.93 14.5 663.93 22.5" fill="#fff"/>
    <polygon points="1 112.141 72 143.141 0 139.141 1 184.141 121 205.141 123 117.141 45 89.141 46 67.141 123 61.641 128.88 3.183 9 24.141 1 112.141" fill="#fff"/>
    <polygon points="145.113 63.641 190.863 63.783 181.863 199.783 239.932 190.641 242.863 60.783 284.863 56.783 290.113 18.641 145.863 2.141 145.113 63.641" fill="#fff"/>
    <polygon points="852.413 64.5 860.413 25.5 733.163 16 730.163 203 860.413 188.5 850.413 138.5 774.413 140.5 780.413 63.5 852.413 64.5" fill="#fff"/>
    <path d="M876.646,186.5l152,21,6-195L878.146,24Zm49-120.5,59-5-2,83-57,1Z" fill="#fff"/>
    <path d="M1186.13,26l-132-16-3.25,197.937,50-9,1-63.437,20.907-3.484L1137.88,192.5l46.25-6.5-21.46-60.632,17.21-2.868Zm-47.25,65.5-43-1,2.25-35.5,42,4Z" fill="#fff"/>
    <polygon points="1315.363 7.5 1315.363 101.5 1245.363 23.5 1202.363 26.5 1209.863 187 1258.863 195 1260.363 106.5 1321.988 204.283 1367.988 212.283 1369.863 0 1315.363 7.5" fill="#fff"/>
    <polygon points="591.91 102.197 531.675 12.065 487.564 4.665 484.443 207 538.964 197.398 536.701 103.59 601.45 186 644.443 182 647.697 23.176 599.398 18.507 591.91 102.197" fill="#fff"/>
  </g>
</svg>
