<svg xmlns="http://www.w3.org/2000/svg" width="112.21" height="95.73" viewBox="0 0 112.21 95.73">
  <defs>
    <style>
      .cls-1 {
        isolation: isolate;
      }

      .cls-2 {
        fill: #5f666a;
      }

      .cls-3 {
        fill: #b0bec6;
      }
    </style>
  </defs>
  <title>Coding</title>
  <g id="Layer_2" data-name="Layer 2">
    <g id="Layer_2-2" data-name="Layer 2">
      <g>
        <g class="cls-1">
          <polygon class="cls-2" points="36.18 86.81 32.05 89.25 0 63.74 4.13 61.31 36.18 86.81"/>
          <polygon class="cls-2" points="4.13 61.31 0 63.74 10.89 25.96 15.02 23.52 4.13 61.31"/>
          <polygon class="cls-3" points="15.02 23.52 21.23 30.05 13.11 58.55 38.15 78.51 36.18 86.81 4.13 61.31 15.02 23.52"/>
        </g>
        <g class="cls-1">
          <polygon class="cls-2" points="101.21 38.45 97.08 40.88 78.43 15.97 82.56 13.53 101.21 38.45"/>
          <polygon class="cls-2" points="82.56 13.53 78.43 15.97 81.4 5.85 85.52 3.41 82.56 13.53"/>
          <polygon class="cls-2" points="93.26 64.56 89.13 67 97.08 40.88 101.21 38.45 93.26 64.56"/>
          <polygon class="cls-2" points="101.72 71.36 97.59 73.8 89.13 67 93.26 64.56 101.72 71.36"/>
          <polygon class="cls-3" points="85.52 3.41 112.21 37.47 101.72 71.36 93.26 64.56 101.21 38.45 82.56 13.53 85.52 3.41"/>
        </g>
        <g class="cls-1">
          <polygon class="cls-2" points="67.78 89.64 63.65 92.08 50.14 95.73 54.27 93.3 67.78 89.64"/>
          <polygon class="cls-2" points="54.27 93.3 50.14 95.73 47.85 5.82 51.98 3.39 54.27 93.3"/>
          <polygon class="cls-3" points="64.48 0 67.78 89.64 54.27 93.3 51.98 3.39 64.48 0"/>
        </g>
      </g>
    </g>
  </g>
</svg>
