<svg xmlns="http://www.w3.org/2000/svg" xmlns:xlink="http://www.w3.org/1999/xlink" width="136.58" height="108.54" viewBox="0 0 136.58 108.54">
  <defs>
    <style>
      .cls-1 {
        fill: none;
      }

      .cls-2 {
        isolation: isolate;
      }

      .cls-3 {
        clip-path: url(#clip-path);
      }

      .cls-4 {
        fill: #854c10;
      }

      .cls-5 {
        clip-path: url(#clip-path-2);
      }

      .cls-6 {
        fill: #804a0f;
      }

      .cls-7 {
        clip-path: url(#clip-path-3);
      }

      .cls-8 {
        fill: #ee891c;
      }
    </style>
    <clipPath id="clip-path">
      <path class="cls-1" d="M102.93,59l-4.12,2.44-1,.54L102,59.51C102.3,59.34,102.62,59.16,102.93,59Z"/>
    </clipPath>
    <clipPath id="clip-path-2">
      <path class="cls-1" d="M66.51,6.6l4.13-2.44a30.29,30.29,0,0,0-10.08,9.71l-4.12,2.44A30.26,30.26,0,0,1,66.51,6.6Z"/>
    </clipPath>
    <clipPath id="clip-path-3">
      <path class="cls-1" d="M15,6.6,19.1,4.16a30.73,30.73,0,0,0-15,27.42A32.63,32.63,0,0,0,18.35,57.64l-4.13,2.43A32.62,32.62,0,0,1,0,34,30.73,30.73,0,0,1,15,6.6Z"/>
    </clipPath>
  </defs>
  <title>Graphic</title>
  <g id="Layer_2" data-name="Layer 2">
    <g id="Layer_2-2" data-name="Layer 2">
      <g class="cls-2">
        <g class="cls-2">
          <g class="cls-3">
            <g class="cls-2">
              <path class="cls-4" d="M102.93,59l-4.12,2.44-1,.54L102,59.51c.32-.17.64-.35,1-.54"/>
            </g>
          </g>
        </g>
        <g class="cls-2">
          <g class="cls-5">
            <g class="cls-2">
              <path class="cls-4" d="M60.56,13.87l-4.12,2.44A30.26,30.26,0,0,1,66.51,6.6l4.13-2.44a30.29,30.29,0,0,0-10.08,9.71"/>
            </g>
          </g>
        </g>
        <polygon class="cls-6" points="136.59 106.11 132.46 108.54 98.22 93.78 102.35 91.35 136.59 106.11"/>
        <g class="cls-2">
          <g class="cls-7">
            <g class="cls-2">
              <path class="cls-4" d="M18.35,57.64l-4.13,2.43A32.62,32.62,0,0,1,0,34,30.73,30.73,0,0,1,15,6.6L19.1,4.16a30.73,30.73,0,0,0-15,27.42A32.63,32.63,0,0,0,18.35,57.64"/>
            </g>
          </g>
        </g>
        <polygon class="cls-6" points="18.9 104.53 14.77 106.97 14.22 60.07 18.35 57.63 18.9 104.53"/>
        <polygon class="cls-6" points="102.52 105.73 98.39 108.17 14.77 106.97 18.9 104.53 102.52 105.73"/>
        <path class="cls-8" d="M102.06,66.13,136,52.35l.63,53.76L102.35,91.35l.17,14.38-83.62-1.2-.55-46.89A32.63,32.63,0,0,1,4.14,31.58,30.4,30.4,0,0,1,34.45,0,31.87,31.87,0,0,1,60.56,13.87,30.07,30.07,0,0,1,86,0c17.18,0,31.48,14.14,31.92,31.58A30.67,30.67,0,0,1,102,59.51Z"/>
      </g>
    </g>
  </g>
</svg>
