<svg xmlns="http://www.w3.org/2000/svg" xmlns:xlink="http://www.w3.org/1999/xlink" width="130.85" height="126.75" viewBox="0 0 130.85 126.75">
  <defs>
    <style>
      .cls-1 {
        fill: none;
      }

      .cls-2 {
        isolation: isolate;
      }

      .cls-3 {
        fill: #20557b;
      }

      .cls-4 {
        fill: #3b9de4;
      }

      .cls-5 {
        fill: #00395e;
      }

      .cls-6 {
        clip-path: url(#clip-path);
      }

      .cls-7 {
        fill: #003b62;
      }

      .cls-8 {
        clip-path: url(#clip-path-2);
      }

      .cls-9 {
        fill: #0069af;
      }
    </style>
    <clipPath id="clip-path">
      <path class="cls-1" d="M104.68,122.51l-4.13,2.43a12.93,12.93,0,0,1-6.6,1.81A13.3,13.3,0,0,1,89.6,126a13.94,13.94,0,0,1-8.73-17.21,13,13,0,0,1,5.79-7.35L90.79,99A13,13,0,0,0,85,106.36a13.94,13.94,0,0,0,8.73,17.22,13.49,13.49,0,0,0,4.34.73A13,13,0,0,0,104.68,122.51Z"/>
    </clipPath>
    <clipPath id="clip-path-2">
      <path class="cls-1" d="M51.49,115.54,47.37,118a13.05,13.05,0,0,1-6.6,1.8,13.55,13.55,0,0,1-4.35-.73,14,14,0,0,1-8.74-17.21,13,13,0,0,1,5.8-7.36L37.61,92a13,13,0,0,0-5.8,7.36,13.94,13.94,0,0,0,8.74,17.21,13.23,13.23,0,0,0,4.34.73A12.9,12.9,0,0,0,51.49,115.54Z"/>
    </clipPath>
  </defs>
  <title>Music</title>
  <g id="Layer_2" data-name="Layer 2">
    <g id="Layer_2-2" data-name="Layer 2">
      <g>
        <g class="cls-2">
          <polygon class="cls-3" points="21.33 39.95 17.2 42.38 42.31 2.44 46.44 0 21.33 39.95"/>
          <polygon class="cls-3" points="76 94.56 71.88 97 28.2 77.55 32.33 75.12 76 94.56"/>
          <polygon class="cls-3" points="15.12 80.23 10.99 82.67 0 47.5 4.13 45.07 15.12 80.23"/>
          <polygon class="cls-3" points="32.33 75.12 28.2 77.55 10.99 82.67 15.12 80.23 32.33 75.12"/>
          <polygon class="cls-4" points="46.44 0 76 94.56 32.33 75.12 15.12 80.23 4.13 45.07 21.33 39.95 46.44 0"/>
        </g>
        <g class="cls-2">
          <polygon class="cls-5" points="106.05 100.42 101.93 102.86 115.35 59.89 119.47 57.45 106.05 100.42"/>
          <polygon class="cls-5" points="119.47 57.45 115.35 59.89 70.83 54.07 74.96 51.63 119.47 57.45"/>
          <g class="cls-2">
            <g class="cls-6">
              <g class="cls-2">
                <path class="cls-7" d="M104.68,122.51l-4.13,2.43a12.93,12.93,0,0,1-6.6,1.81A13.3,13.3,0,0,1,89.6,126a13.94,13.94,0,0,1-8.73-17.21,13,13,0,0,1,5.79-7.35L90.79,99A13,13,0,0,0,85,106.36a13.94,13.94,0,0,0,8.73,17.22,13.49,13.49,0,0,0,4.34.73,13,13,0,0,0,6.61-1.8"/>
              </g>
            </g>
          </g>
          <polygon class="cls-5" points="52.86 93.45 48.73 95.89 64.86 44.27 68.99 41.83 52.86 93.45"/>
          <g class="cls-2">
            <g class="cls-8">
              <g class="cls-2">
                <path class="cls-7" d="M51.49,115.54,47.37,118a13.05,13.05,0,0,1-6.6,1.8,13.55,13.55,0,0,1-4.35-.73,14,14,0,0,1-8.74-17.21,13,13,0,0,1,5.8-7.36L37.61,92a13,13,0,0,0-5.8,7.36,13.94,13.94,0,0,0,8.74,17.21,13.23,13.23,0,0,0,4.34.73,12.9,12.9,0,0,0,6.6-1.8"/>
              </g>
            </g>
          </g>
          <path class="cls-9" d="M69,41.83l61.86,8.1-.52,1.67-.64,2.06-1.54,4.93-17.68,56.56a12.94,12.94,0,0,1-12.4,9.16,13.49,13.49,0,0,1-4.34-.73A13.94,13.94,0,0,1,85,106.36a12.94,12.94,0,0,1,12.39-9.15,13.34,13.34,0,0,1,4.35.74,13.92,13.92,0,0,1,4.31,2.47l13.42-43L75,51.63,57.29,108.19a13,13,0,0,1-12.4,9.15,13.23,13.23,0,0,1-4.34-.73A13.94,13.94,0,0,1,31.81,99.4,12.94,12.94,0,0,1,44.2,90.24a13.34,13.34,0,0,1,4.35.74,13.81,13.81,0,0,1,4.31,2.47Z"/>
        </g>
      </g>
    </g>
  </g>
</svg>
