<svg xmlns="http://www.w3.org/2000/svg" width="135.64" height="126.94" viewBox="0 0 135.64 126.94">
  <defs>
    <style>
      .cls-1 {
        isolation: isolate;
      }

      .cls-2 {
        fill: #803e56;
      }

      .cls-3 {
        fill: #ee73a0;
      }
    </style>
  </defs>
  <title>PublicRelations</title>
  <g id="Layer_2" data-name="Layer 2">
    <g id="Layer_2-2" data-name="Layer 2">
      <g class="cls-1">
        <polygon class="cls-2" points="135.64 91.65 131.51 94.09 76.02 93.94 80.15 91.5 135.64 91.65"/>
        <polygon class="cls-2" points="71.38 104 67.26 106.43 63.99 93.9 68.11 91.46 71.38 104"/>
        <polygon class="cls-2" points="85.71 112.79 81.58 115.22 70.27 117.98 74.4 115.55 85.71 112.79"/>
        <polygon class="cls-2" points="68.11 91.46 63.99 93.9 36.91 93.82 41.03 91.38 68.11 91.46"/>
        <polygon class="cls-2" points="74.4 115.55 70.27 117.98 44.83 124.18 48.96 121.75 74.4 115.55"/>
        <polygon class="cls-2" points="34.63 112.96 30.5 115.39 24.87 93.78 29 91.35 34.63 112.96"/>
        <polygon class="cls-2" points="37.65 124.51 33.52 126.94 30.5 115.39 34.63 112.96 37.65 124.51"/>
        <polygon class="cls-2" points="48.96 121.75 44.83 124.18 33.52 126.94 37.65 124.51 48.96 121.75"/>
        <polygon class="cls-2" points="13.22 91.3 9.1 93.74 0 58.87 4.13 56.43 13.22 91.3"/>
        <path class="cls-3" d="M80.15,91.5l2.55,9.74,3,11.55L74.4,115.55,49,121.75l-11.31,2.76-3-11.55L29,91.35l-15.78,0L4.13,56.43,111.73,0l23.91,91.65ZM45.94,110.2,71.38,104,68.12,91.46,41,91.38l4.91,18.82"/>
        <polygon class="cls-2" points="29 91.35 24.87 93.78 9.1 93.74 13.22 91.3 29 91.35"/>
      </g>
    </g>
  </g>
</svg>
