<svg xmlns="http://www.w3.org/2000/svg" width="139.13" height="129.6" viewBox="0 0 139.13 129.6">
  <defs>
    <style>
      .cls-1 {
        isolation: isolate;
      }

      .cls-2 {
        fill: #3d6522;
      }

      .cls-3 {
        fill: #72bb3e;
      }

      .cls-4 {
        fill: #004923;
      }

      .cls-5 {
        fill: #008840;
      }
    </style>
  </defs>
  <title>Storytelling</title>
  <g id="Layer_2" data-name="Layer 2">
    <g id="Layer_2-2" data-name="Layer 2">
      <g>
        <g class="cls-1">
          <polygon class="cls-2" points="104.01 124.89 99.89 127.32 7.66 129.6 11.79 127.17 104.01 124.89"/>
          <polygon class="cls-2" points="11.79 127.17 7.66 129.6 0 53.37 4.13 50.93 11.79 127.17"/>
          <polygon class="cls-3" points="99.05 47.15 104.01 124.89 11.79 127.17 4.13 50.93 99.05 47.15"/>
        </g>
        <g>
          <g class="cls-1">
            <polygon class="cls-4" points="40.54 73.34 36.41 75.78 50.69 38.83 54.82 36.39 40.54 73.34"/>
            <polygon class="cls-5" points="67.45 33.89 69.89 45.12 40.54 73.34 54.82 36.39 67.45 33.89"/>
          </g>
          <g class="cls-1">
            <polygon class="cls-4" points="132.07 26.59 127.95 29.03 114.56 33.33 118.69 30.89 132.07 26.59"/>
            <polygon class="cls-4" points="136.6 86.83 132.47 89.27 126.17 89.27 130.29 86.83 136.6 86.83"/>
            <polygon class="cls-4" points="130.29 86.83 126.17 89.27 105.48 36.25 109.61 33.81 130.29 86.83"/>
            <polygon class="cls-4" points="109.61 33.81 105.48 36.25 88.14 41.81 92.27 39.38 109.61 33.81"/>
            <polygon class="cls-4" points="92.27 39.38 88.14 41.81 75.33 33.4 79.45 30.96 92.27 39.38"/>
            <polygon class="cls-4" points="79.45 30.96 75.33 33.4 73.22 16.24 77.35 13.8 79.45 30.96"/>
            <polygon class="cls-5" points="128.08 0 136.06 13.8 132.07 26.59 118.69 30.89 139.13 82.45 136.6 86.83 130.29 86.83 109.61 33.81 92.27 39.38 79.45 30.96 77.35 13.8 128.08 0"/>
          </g>
        </g>
      </g>
    </g>
  </g>
</svg>
