<svg xmlns="http://www.w3.org/2000/svg" width="186" height="408" viewBox="0 0 186 408">
  <title>BabelTower</title>
  <g>
    <path d="M163,407l-3.147-101.434-4.617-1.165L154.51,258l-4.627-1.275-.172-116.052-3.245.372L146.022,136l-4.5-.564L140.29,21.813h4.694V0h-7.933l-7.037,1-1.686,20.959-2.96.041-3.561,77.716L115.983,101l-2.389,43.807-7.543.863-4.488,45.618-3.174,1.045-9.064,80.724-4.524,1.28L67.98,374.212,53,375l-1,4H36.415l-2.778-3.631L33,369l-4.354-.156L28,368H5L0,408H92l-.034-1.176ZM138.773,21.813Z" fill="#719bb5"/>
    <polygon points="186 407 179.102 305.566 174.442 304.401 172 258 167.326 256.725 162.862 140.673 159.638 141.103 159 136 154.482 135.435 149.121 23.857 147.698 23.681 147 16 145.597 15.532 145 0 138 1 137.071 22.364 134.131 22 133.439 100.236 130 101 129.225 145.158 125.387 145.67 124.041 190.986 121 192 117.228 273.099 112.895 274.337 109.162 373.255 76 375 75 379 57 379 56 369 28 368 23 408 115 408 114.965 406.773 186 407" fill="#95bad5"/>
  </g>
</svg>
