<svg xmlns="http://www.w3.org/2000/svg" xmlns:xlink="http://www.w3.org/1999/xlink" width="15984.57" height="1188.67" viewBox="0 0 15984.57 1188.67">
  <defs>
    <style>
      .cls-1 {
        fill: url(#linear-gradient);
      }

      .cls-2 {
        fill: url(#linear-gradient-2);
      }

      .cls-3 {
        fill: url(#linear-gradient-3);
      }

      .cls-4 {
        fill: url(#linear-gradient-4);
      }

      .cls-5 {
        fill: url(#linear-gradient-5);
      }

      .cls-6 {
        fill: url(#linear-gradient-6);
      }

      .cls-7 {
        fill: url(#linear-gradient-7);
      }

      .cls-8 {
        fill: url(#linear-gradient-8);
      }

      .cls-9 {
        fill: url(#linear-gradient-9);
      }

      .cls-10 {
        fill: url(#linear-gradient-10);
      }

      .cls-11 {
        fill: url(#linear-gradient-11);
      }

      .cls-12 {
        fill: url(#linear-gradient-12);
      }

      .cls-13 {
        fill: url(#linear-gradient-13);
      }

      .cls-14 {
        fill: url(#linear-gradient-14);
      }

      .cls-15 {
        fill: url(#linear-gradient-15);
      }

      .cls-16 {
        fill: url(#linear-gradient-16);
      }

      .cls-17 {
        fill: url(#linear-gradient-17);
      }

      .cls-18 {
        fill: url(#linear-gradient-18);
      }

      .cls-19 {
        fill: url(#linear-gradient-19);
      }

      .cls-20 {
        fill: url(#linear-gradient-20);
      }

      .cls-21 {
        fill: url(#linear-gradient-21);
      }

      .cls-22 {
        fill: url(#linear-gradient-22);
      }

      .cls-23 {
        fill: url(#linear-gradient-23);
      }

      .cls-24 {
        fill: url(#linear-gradient-24);
      }

      .cls-25 {
        fill: url(#linear-gradient-25);
      }

      .cls-26 {
        fill: url(#linear-gradient-26);
      }

      .cls-27 {
        fill: url(#linear-gradient-27);
      }

      .cls-28 {
        fill: url(#linear-gradient-28);
      }
    </style>
    <linearGradient id="linear-gradient" x1="-1605.67" y1="6057.26" x2="1016.09" y2="6057.26" gradientUnits="userSpaceOnUse">
      <stop offset="0" stop-color="#873b28"/>
      <stop offset="1" stop-color="#c46638"/>
    </linearGradient>
    <linearGradient id="linear-gradient-2" x1="-2015.17" y1="6057.26" x2="-524.55" y2="6057.26" xlink:href="#linear-gradient"/>
    <linearGradient id="linear-gradient-3" x1="4215.19" y1="6047.03" x2="6341.21" y2="6047.03" xlink:href="#linear-gradient"/>
    <linearGradient id="linear-gradient-4" x1="3475.25" y1="6045.5" x2="5175.95" y2="6045.5" xlink:href="#linear-gradient"/>
    <linearGradient id="linear-gradient-5" x1="120.28" y1="5991.98" x2="3031.8" y2="5991.98" xlink:href="#linear-gradient"/>
    <linearGradient id="linear-gradient-6" x1="-718.58" y1="5991.81" x2="1722.92" y2="5991.81" xlink:href="#linear-gradient"/>
    <linearGradient id="linear-gradient-7" x1="2427.76" y1="6240.69" x2="5831.06" y2="6240.69" xlink:href="#linear-gradient"/>
    <linearGradient id="linear-gradient-8" x1="1326.69" y1="6240.69" x2="3528.83" y2="6240.69" xlink:href="#linear-gradient"/>
    <linearGradient id="linear-gradient-9" x1="-609.95" y1="6386.49" x2="1516.07" y2="6386.49" gradientUnits="userSpaceOnUse">
      <stop offset="0" stop-color="#c46638"/>
      <stop offset="1" stop-color="#e9a35c"/>
    </linearGradient>
    <linearGradient id="linear-gradient-10" x1="-1349.89" y1="6384.96" x2="350.81" y2="6384.96" xlink:href="#linear-gradient-9"/>
    <linearGradient id="linear-gradient-11" x1="-3900.1" y1="6100.73" x2="-1774.08" y2="6100.73" xlink:href="#linear-gradient"/>
    <linearGradient id="linear-gradient-12" x1="-4640.04" y1="6099.2" x2="-2939.34" y2="6099.2" xlink:href="#linear-gradient"/>
    <linearGradient id="linear-gradient-13" x1="1214.59" y1="6419.49" x2="3836.34" y2="6419.49" xlink:href="#linear-gradient-9"/>
    <linearGradient id="linear-gradient-14" x1="805.09" y1="6419.49" x2="2295.71" y2="6419.49" xlink:href="#linear-gradient-9"/>
    <linearGradient id="linear-gradient-15" x1="3889.72" y1="6331.27" x2="7133.01" y2="6331.27" xlink:href="#linear-gradient-9"/>
    <linearGradient id="linear-gradient-16" x1="3257.65" y1="6331.26" x2="5541.84" y2="6331.26" xlink:href="#linear-gradient-9"/>
    <linearGradient id="linear-gradient-17" x1="-5792.76" y1="6331.27" x2="-2549.47" y2="6331.27" xlink:href="#linear-gradient-9"/>
    <linearGradient id="linear-gradient-18" x1="-6424.83" y1="6331.26" x2="-4140.64" y2="6331.26" xlink:href="#linear-gradient-9"/>
    <linearGradient id="linear-gradient-19" x1="-3044.74" y1="6168.42" x2="-133.22" y2="6168.42" xlink:href="#linear-gradient-9"/>
    <linearGradient id="linear-gradient-20" x1="-3883.6" y1="6168.25" x2="-1442.1" y2="6168.25" xlink:href="#linear-gradient-9"/>
    <linearGradient id="linear-gradient-21" x1="-2083.42" y1="6438.6" x2="422.66" y2="6438.6" xlink:href="#linear-gradient-9"/>
    <linearGradient id="linear-gradient-22" x1="-2395.49" y1="6438.6" x2="-1157.56" y2="6438.6" xlink:href="#linear-gradient-9"/>
    <linearGradient id="linear-gradient-23" x1="2769.64" y1="6379.58" x2="4895.04" y2="6379.58" xlink:href="#linear-gradient-9"/>
    <linearGradient id="linear-gradient-24" x1="2427.76" y1="6379.58" x2="3647.84" y2="6379.58" xlink:href="#linear-gradient-9"/>
    <linearGradient id="linear-gradient-25" x1="-7003.05" y1="6358.96" x2="-4775.85" y2="6358.96" xlink:href="#linear-gradient-9"/>
    <linearGradient id="linear-gradient-26" x1="-7291.8" y1="6358.96" x2="-6036.68" y2="6358.96" xlink:href="#linear-gradient-9"/>
    <linearGradient id="linear-gradient-27" x1="6261.53" y1="6345.68" x2="8692.78" y2="6345.68" xlink:href="#linear-gradient-9"/>
    <linearGradient id="linear-gradient-28" x1="5889.56" y1="6343.94" x2="7360.22" y2="6343.94" xlink:href="#linear-gradient-9"/>
  </defs>
  <title>Desert</title>
  <g id="Layer_2" data-name="Layer 2">
    <g id="Layer_1-2" data-name="Layer 1">
      <g>
        <g>
          <path class="cls-1" d="M-1605.67,6369.11H1016.09s-1400.69-623.7-1666.5-623.7S-1605.67,6369.11-1605.67,6369.11Z" transform="translate(7291.8 -5485.69)"/>
          <path class="cls-2" d="M-650.41,5745.41c-96.21,22-255.71,268.53-66.55,251.19,245.23-22.47,232.84,145.86,92.48,162.06s58.76,210.45,58.76,210.45H-2015.17S-1270.4,5749.46-650.41,5745.41Z" transform="translate(7291.8 -5485.69)"/>
        </g>
        <g>
          <path class="cls-3" d="M4215.19,6331.27h2126s-1073.86-523.92-1439.44-566.35S4215.19,6331.27,4215.19,6331.27Z" transform="translate(7291.8 -5485.69)"/>
          <path class="cls-4" d="M4901.77,5764.92s-212.16,52.22-117.5,84.86,310.08,163.2,117.5,212.16S5176,6331.27,5176,6331.27H3475.25S4412.17,5696.37,4901.77,5764.92Z" transform="translate(7291.8 -5485.69)"/>
        </g>
        <g>
          <path class="cls-5" d="M120.28,6497.92H3031.8S1566.24,5479.54,1272.48,5486.07,120.28,6497.92,120.28,6497.92Z" transform="translate(7291.8 -5485.69)"/>
          <path class="cls-6" d="M1272.48,5486.07s-350.34,122.94-49,248.06c144,59.78,512.45,329.67,49,352.52s450.44,411.27,450.44,411.27H-718.58S538.07,5463.22,1272.48,5486.07Z" transform="translate(7291.8 -5485.69)"/>
        </g>
        <g>
          <path class="cls-7" d="M2427.76,6620.14h3403.3s-1858.32-758.89-2302.23-758.89S2427.76,6620.14,2427.76,6620.14Z" transform="translate(7291.8 -5485.69)"/>
          <path class="cls-8" d="M3528.83,5861.25s-317.7,96.39-139.27,183.43,8.71,221.95-126.21,235-309,340.45,69.64,340.45H1326.69S2488.69,5878,3528.83,5861.25Z" transform="translate(7291.8 -5485.69)"/>
        </g>
        <g>
          <path class="cls-9" d="M-609.95,6670.73h2126S442.2,6146.81,76.63,6104.38-609.95,6670.73-609.95,6670.73Z" transform="translate(7291.8 -5485.69)"/>
          <path class="cls-10" d="M76.63,6104.38s-212.16,52.22-117.51,84.86,310.09,163.2,117.51,212.16,274.18,269.33,274.18,269.33h-1700.7S-413,6035.83,76.63,6104.38Z" transform="translate(7291.8 -5485.69)"/>
        </g>
        <g>
          <path class="cls-11" d="M-3900.1,6385h2126S-2847.95,5861-3213.52,5818.61-3900.1,6385-3900.1,6385Z" transform="translate(7291.8 -5485.69)"/>
          <path class="cls-12" d="M-3213.52,5818.61s-212.16,52.23-117.5,84.87,310.08,163.2,117.5,212.16S-2939.34,6385-2939.34,6385H-4640S-3703.13,5750.07-3213.52,5818.61Z" transform="translate(7291.8 -5485.69)"/>
        </g>
        <g>
          <path class="cls-13" d="M1214.59,6670.73H3836.34s-1400.68-502.48-1666.49-502.48S1214.59,6670.73,1214.59,6670.73Z" transform="translate(7291.8 -5485.69)"/>
          <path class="cls-14" d="M2169.85,6168.25c-96.21,17.74-255.71,216.34-66.55,202.37,245.23-18.1,232.83,117.51,92.48,130.57s58.75,169.54,58.75,169.54H805.09S1549.86,6171.52,2169.85,6168.25Z" transform="translate(7291.8 -5485.69)"/>
        </g>
        <g>
          <path class="cls-15" d="M3889.72,6670.73H7133s-1331.73-678.92-1875.74-678.92S3889.72,6670.73,3889.72,6670.73Z" transform="translate(7291.8 -5485.69)"/>
          <path class="cls-16" d="M5257.27,5991.81s-335.1,104.45-165.37,139.26,330.75,95.75,165.37,152.32-60.92,169.73,143.62,182.79,126.21,204.55,126.21,204.55H3257.65S4630.58,5987.45,5257.27,5991.81Z" transform="translate(7291.8 -5485.69)"/>
        </g>
        <g>
          <path class="cls-17" d="M-5792.76,6670.73h3243.29S-3881.2,5991.81-4425.2,5991.81-5792.76,6670.73-5792.76,6670.73Z" transform="translate(7291.8 -5485.69)"/>
          <path class="cls-18" d="M-4425.2,5991.81s-335.11,104.45-165.38,139.26,330.75,95.75,165.38,152.32-60.93,169.73,143.61,182.79,126.21,204.55,126.21,204.55H-6424.83S-5051.9,5987.45-4425.2,5991.81Z" transform="translate(7291.8 -5485.69)"/>
        </g>
        <g>
          <path class="cls-19" d="M-3044.74,6674.37H-133.22S-1598.77,5656-1892.53,5662.51-3044.74,6674.37-3044.74,6674.37Z" transform="translate(7291.8 -5485.69)"/>
          <path class="cls-20" d="M-1892.53,5662.51s-350.34,122.95-49,248.07c144,59.77,512.45,329.67,49,352.52s450.43,411.27,450.43,411.27H-3883.6S-2626.94,5639.67-1892.53,5662.51Z" transform="translate(7291.8 -5485.69)"/>
        </g>
        <g>
          <path class="cls-21" d="M422.66,6672.78l-1641.35.92-864.73.67s586-471.53,835-471.53S422.66,6672.78,422.66,6672.78Z" transform="translate(7291.8 -5485.69)"/>
          <path class="cls-22" d="M-1218.69,6673.7l-1,.67H-2395.49s898.1-471.53,1147-471.53c0,0-171.58,54.74-90.7,77.14s114.46,118.2,5,148.06,32.35,134.38,135.62,150.55C-1100.8,6593.9-1207,6666-1218.69,6673.7Z" transform="translate(7291.8 -5485.69)"/>
        </g>
        <g>
          <path class="cls-23" d="M4895,6670.73H2769.64s359.86-582.3,673.4-582.3S4895,6670.73,4895,6670.73Z" transform="translate(7291.8 -5485.69)"/>
          <path class="cls-24" d="M3622.2,6420.63c-139.34,95-127.14,109.45-89.94,156.78,59.64,75.9-154.45,93.32-154.45,93.32h-950s701.74-582.3,1015.28-582.3c0,0-206.37,62.82-137.44,153C3338.4,6284.4,3753.65,6331.05,3622.2,6420.63Z" transform="translate(7291.8 -5485.69)"/>
        </g>
        <g>
          <path class="cls-25" d="M-7003,6674.37h2227.2s-1139.47-630.82-1432-630.82S-7003,6674.37-7003,6674.37Z" transform="translate(7291.8 -5485.69)"/>
          <path class="cls-26" d="M-6207.83,6409.35c124.77-15.46,185.31-118,130.36-178.16-48.95-53.64-91.71-112.62-125-177.17l-5.4-10.47c-435.4,0-836.93,361.87-1084,630.82h1255.12S-6358.49,6428-6207.83,6409.35Z" transform="translate(7291.8 -5485.69)"/>
        </g>
        <g>
          <path class="cls-27" d="M6261.53,6670.73H8692.78s-1228-599.14-1646.1-647.66S6261.53,6670.73,6261.53,6670.73Z" transform="translate(7291.8 -5485.69)"/>
          <path class="cls-28" d="M7046.68,6023.07s-242.62,59.72-134.37,97,354.6,186.64,134.37,242.63,313.54,308,313.54,308H5889.56S6486.78,5944.68,7046.68,6023.07Z" transform="translate(7291.8 -5485.69)"/>
        </g>
      </g>
    </g>
  </g>
</svg>
