<svg xmlns="http://www.w3.org/2000/svg" xmlns:xlink="http://www.w3.org/1999/xlink" width="2826.13" height="3586.92" viewBox="0 0 2826.13 3586.92">
  <defs>
    <style>
      .cls-1 {
        fill: url(#linear-gradient);
      }

      .cls-2 {
        fill: url(#linear-gradient-2);
      }
    </style>
    <linearGradient id="linear-gradient" x1="289.63" y1="1793.46" x2="2826.13" y2="1793.46" gradientUnits="userSpaceOnUse">
      <stop offset="0" stop-color="#85afd4"/>
      <stop offset="1" stop-color="#a7cfe7"/>
    </linearGradient>
    <linearGradient id="linear-gradient-2" x1="0" y1="1793.46" x2="1168.93" y2="1793.46" xlink:href="#linear-gradient"/>
  </defs>
  <title>FarAwayMountains_2</title>
  <g id="Layer_2" data-name="Layer 2">
    <g id="Layer_1-2" data-name="Layer 1">
      <g>
        <path class="cls-1" d="M289.63,3586.92h2536.5s-68.36-53.81-72-158.15-7.2,0-10.79-143.91,7.19-115.14-10.8-251.86-7.19-133.12-43.17-259-57.57-122.33-54-215.87,14.39-64.77,3.6-205.08-14.39-107.94-36-233.86-28.78-129.53-21.59-248.26,39.58-129.52,14.39-244.65-39.57-176.3-46.77-269.84-3.6-143.92-18-212.28,36-39.57-129.52-129.52-104.34-43.17-190.69-97.14-97.14-82.75-151.11-93.55-93.54-14.39-122.33-36-46.77-18-57.56-68.36,3.6-79.15-10.8-93.54-14.39-36-68.36-68.36-68.36-54-111.53-79.15-57.57-43.18-93.54-46.78-86.35-10.79-100.74-57.56,28.78-75.56-18-89.95-90-14.39-118.73-43.17-86.35-61.17-107.94-72,7.2-10.79-50.37-36-122.33-46.77-140.32-68.36S998.41,0,987.62,0,289.63,3586.92,289.63,3586.92Z"/>
        <path class="cls-2" d="M987.62,0s0,91.75,43.17,124.13,194.25,75.55,116,199.68-118.2,129.52-68.54,232.06,31.29,232.06,0,275.24-15.1,37.78-90.65,91.74-102.54,48.58-107.94,91.75,43.17,27,0,113.33-64.76,75.56-80.95,140.32-43.18,59.36-54,145.71,0,95.35,0,179.9S761,1646,777.14,1754,746,1905.07,740,1969.83s42.58-5.39-27.58,156.51-91.75,178.1-102.54,242.86-37.78,0,0,151.11-1.13,161.9-19.46,286-34.51,37.78-23.72,178.09,14.65,107.94-3.47,205.08-52.62,194.29-78.54,226.67-106.87,170.74-106.87,170.74H0s23.11-73.6,97.9-165.35,101.78-129.38,101.78-175.32-10.79-51.34,5.4-137.69,16.19-86.35,27-172.7,16.19-107.93,10.8-178.09-43.18-113.49,5.39-167.38S348.48,2434,349.64,2417.77s31.22-71.95,0-106.13-45.62-82.76-60-109.74,3.6-81,0-124.13-1.8-118.73,0-145.71-36-109.89-25.19-138.6,54-104.26,48.57-142-41.37-140.31-23.38-188.89,69.65-107.93,60-156.5,15-134.92,0-172.7-6.56-140.32,0-156.51-1.16-64.76,0-97.14-15-75.56,28.14-124.13S437.14,674.6,447.93,653s48.58-102.54,70.16-134.92,51.79-91.74,66.37-107.93,20-48.57,25.38-75.56,59.36-140.31,75.55-151.11,64.77-48.57,91.75-59.36S885.08,0,987.62,0Z"/>
      </g>
    </g>
  </g>
</svg>
