<svg xmlns="http://www.w3.org/2000/svg" xmlns:xlink="http://www.w3.org/1999/xlink" width="4260.12" height="3159.2" viewBox="0 0 4260.12 3159.2">
  <defs>
    <style>
      .cls-1 {
        fill: url(#linear-gradient);
      }

      .cls-2 {
        fill: url(#linear-gradient-2);
      }
    </style>
    <linearGradient id="linear-gradient" x1="2098.33" y1="1579.6" x2="4260.12" y2="1579.6" gradientUnits="userSpaceOnUse">
      <stop offset="0" stop-color="#85afd4"/>
      <stop offset="1" stop-color="#a7cfe7"/>
    </linearGradient>
    <linearGradient id="linear-gradient-2" x1="0" y1="1579.6" x2="3646.1" y2="1579.6" xlink:href="#linear-gradient"/>
  </defs>
  <title>FarAwayMountains</title>
  <g id="Layer_2" data-name="Layer 2">
    <g id="Layer_1-2" data-name="Layer 1">
      <g>
        <path class="cls-1" d="M4260.12,3159.2H2098.33S2583.45,0,2743.13,0s125.46,97,188.2,205.31,88.61,68.43,127,176.79,117.86,68.43,120.89,142.57,36.89,28.52,0,108.36-36.88,17.11-48.29,125.47-34.22,34.21-11.41,148.27-39.92-5.7,17.11,165.39-11.77,125.46,42.59,199.6,31.55,51.33,77.18,97,131.16,68.44,154,85.55,68.43,51.32,102.65,74.14,51.33,0,91.25,85.54,101.24,97,144.72,114.06,3.55-22.81,66.29,17.11,91.24,17.11,125.46,57,69.61,5.7,77.58,51.33,13.67,45.62,47.89,85.54,39.92,22.81,62.73,97,34.22,79.84,45.62,142.57,22.82,97,5.71,171.09-28.52,119.77-28.52,165.39,34.22,154,45.63,182.49,11.4,5.71,34.21,62.74S4260.12,3159.2,4260.12,3159.2Z"/>
        <path class="cls-2" d="M2743.13,0s96.95,5.7,39.92,119.76-45.62,51.33-57,114.06-11.41,28.52,0,102.66,20.82,45.62,33.22,102.65,38.93,28.51,0,102.65-44.63,17.11-41.77,97,11.63,85.55,41.46,154,35.53,51.33,69.74,131.17,34.22,85.55,0,188.2,22.19,74.14-43.08,136.87-53.87,22.81-93.79,85.55-45.62,5.7-62.73,91.24,0,85.55-68.44,182.5-85.54,57-91.24,131.17,45.62,108.35,119.76,165.38,108.35,22.81,154,57,57,0,111.21,62.73,25.66,57,116.91,108.36,85.54,39.92,171.09,85.55,154-17.11,159.68,57-34.22,51.32,0,114.05,74.14,22.82,51.33,108.36-45.63,71.51-51.33,121.3,19.12,44.09,58,101.12,38.91,51.32,78.83,96.95,57,17.11,62.73,85.54-108.35,51.33,0,125.47S3646.1,3159.2,3646.1,3159.2H0s22.81-85.3,45.62-136.63l45.63-102.65s34.22-62.73,57-74.14,57-39.92,96.95-51.32,57-34.22,91.25-45.63,96.95-51.33,96.95-51.33,22.81-45.62,108.35-39.92,131.17,11.41,176.79,0S787,2594.85,826.93,2572s85.55-91.25,131.17-85.54,119.76-17.11,165.39-22.82,91.24-68.43,131.16-74.14,119.77-62.73,136.87-62.73,51.33,0,45.63-45.62-62.73-165.39-62.73-165.39,11.4-51.32,11.4-68.43,5.7-91.25,11.41-119.77-5.71-114.06,22.81-114.06,34.22-39.92,57-57,68.43-79.84,91.25-91.24,68.43-34.47,74.14-85.67,17.1-91.12,39.92-108.23,11.4-74.14,74.13-79.85,79.85-45.62,108.36-68.43,34.22-57,68.44-85.55,68.43-102.65,91.24-125.46,44.9-79.84,73.78-96.95,51.69-114.06,63.1-136.87,22.81-74.14,51.32-91.25,74.14-91.25,74.14-91.25l-22.81-74.14s5.7-57,22.81-79.84,19.15-68.43,63.75-108.35S2440.87,330.77,2458,296.55s34.22-108.35,57-119.76,51.33-51.32,79.84-57S2667.07,0,2743.13,0Z"/>
      </g>
    </g>
  </g>
</svg>
