<svg xmlns="http://www.w3.org/2000/svg" xmlns:xlink="http://www.w3.org/1999/xlink" width="4707.25" height="4042.9" viewBox="0 0 4707.25 4042.9">
  <defs>
    <style>
      .cls-1 {
        fill: url(#linear-gradient);
      }

      .cls-2 {
        fill: url(#linear-gradient-2);
      }
    </style>
    <linearGradient id="linear-gradient" x1="701.65" y1="2021.45" x2="4707.25" y2="2021.45" gradientUnits="userSpaceOnUse">
      <stop offset="0" stop-color="#85afd4"/>
      <stop offset="1" stop-color="#a7cfe7"/>
    </linearGradient>
    <linearGradient id="linear-gradient-2" x1="0" y1="2021.46" x2="2070.93" y2="2021.46" xlink:href="#linear-gradient"/>
  </defs>
  <title>FarAwayMountains_1</title>
  <g id="Layer_2" data-name="Layer 2">
    <g id="Layer_1-2" data-name="Layer 1">
      <g>
        <path class="cls-1" d="M701.65,4042.9h4005.6l-53.63-79.31s-25.38-17.11-41.2-39.92,18.39-28.52-38.64-62.74-51.32-39.92-102.65-79.84-39.92-28.51-96.95-85.54-51.33-57-119.76-125.47-74.14-96.95-131.17-165.38-79.84-91.25-102.66-148.28-22.81-74.14-57-114.06-22.81-68.44-74.13-102.65-74.14-51.33-108.36-97-16.16-68.43-70.81-125.46-54.66-68.44-111.69-136.87-62.73-79.84-97-119.76-17.11-39.93-62.73-85.55-45.62-62.73-114.06-85.54-85.54-22.82-154-62.74-85.54-28.51-125.46-79.84-22.82-51.32-85.55-91.25-109.58-74.13-151.74-85.54-68.19-5.7-103.65-85.54-58.27-102.66-86.79-142.58-11.4-39.92-62.73-108.36-45.62-108.35-96.95-165.38-108.36-102.65-114.06-148.28,17.11-119.76,0-148.28-68.43-62.73-85.54-131.16S2247,1077.88,2212.75,998s-54.89-57-87.33-165.38-38.13-136.88-60.94-176.8-17.11-51.32-51.33-85.54S1967.52,519,1939,479.07s-68.44-91.25-74.14-119.76-85.54-85.55-96.95-114.06-34.22-74.14-62.73-96.95S1653.86,97,1653.86,97l-85.54-32.91L1465.66,0s-51.32-3.09-85.54,64-45.62,312.36-51.33,363.68-11.4,34.57-34.22,111.38-17.1,59.71-45.62,128.15,0-39.92-28.51,68.44S701.65,4042.9,701.65,4042.9Z"/>
        <path class="cls-2" d="M1465.66,0s-97,108.36-28.51,159.69,74.14,74.13,108.35,119.76,34.22,45.62,79.85,125.46,87.32,85.55,97.84,159.69S1699.49,673,1676.67,724.3s-34.21,11.41-34.21,79.84,57,85.55,22.81,154-107.15,68.44-96.35,91.25,57.64,5.7,0,62.73-120.37,39.92-109,119.76,28.52,57-22.81,154-77.42,136.87-24.45,211,13,62.74,64.37,125.47,29.15,45.62,77.3,108.36,76.68,57,53.87,125.46-102,102.65-53.87,165.39,82.38,45.62,99.49,85.54,17.11,28.52,45.63,79.84,41.29,45.63,63.41,114.06,24.63,51.33-8,125.47-.89,119.76,31.72,176.79,46.88,17.11,74,91.25,68,57,107.42,114.06,126.36,5.7,71.49,102.65-84.73,131.17-101.17,182.5-27.84,96.95,12.08,148.27,99.45,62.74,106.75,102.66,26.92,0,0,91.24-22.44,85.55-53.19,142.58,7.94,68.43,0,131.17,26.28,34.21-36.46,85.54-148.27,69-154,108.36-39.92,39.39-39.92,39.39H0s125.47-50.8,154-107.83,57-39.92,79.84-108.36,17.11-96.95,45.63-154S386.39,3553,386.39,3553s-29.93-28.51,0-45.62,58.44-57,87-74.14,51.32-45.62,62.73-96.95,22.81-79.84,39.92-119.76,39.92-79.84,57-119.77,39.92-108.35,45.62-131.16,28.88-62.74,23-91.25-5.52-57,0-85.55,39.74-142.57,45.44-171.08,0-108.36,0-131.17,5.7-91.25,5.7-119.77-5.7-108.35-5.7-142.57,5.7-119.76,11.41-136.87S781.31,1979,781.31,1979s17.11-74.14,34.21-97,34.22-68.43,34.22-68.43l-17.11-91.25s-17.11-28.52-17.11-57,5.71-74.14,5.71-108.36-34.22-97-39.92-114.06,0-62.73,5.7-114.06,28.51-108.35,39.92-154,22.81-108.35,45.62-159.68S935.29,901.09,941,849.76s-11.41-159.68,5.7-193.9,39.92-39.57,68.44-116.74,11.4-68.6,59.88-154.15,27.09-71.28,59.88-111.21,27.09-44.19,48.48-69.86,21.38-28.51,48.47-49.9,2.85-5.7,54.18-59.88,49.9-30.65,74.14-43.48,28.51-36.36,42.77-40.64S1465.66,0,1465.66,0Z"/>
      </g>
    </g>
  </g>
</svg>
