<svg xmlns="http://www.w3.org/2000/svg" xmlns:xlink="http://www.w3.org/1999/xlink" width="11084.38" height="732.86" viewBox="0 0 11084.38 732.86">
  <defs>
    <style>
      .cls-1 {
        fill: url(#linear-gradient);
      }

      .cls-2 {
        fill: url(#linear-gradient-2);
      }

      .cls-3 {
        fill: url(#linear-gradient-3);
      }

      .cls-4 {
        fill: url(#linear-gradient-4);
      }
    </style>
    <linearGradient id="linear-gradient" x1="2224.37" y1="469.51" x2="5715.18" y2="469.51" gradientUnits="userSpaceOnUse">
      <stop offset="0" stop-color="#4988bf"/>
      <stop offset="1" stop-color="#95bad5"/>
    </linearGradient>
    <linearGradient id="linear-gradient-2" x1="0" y1="454.21" x2="3542.92" y2="454.21" xlink:href="#linear-gradient"/>
    <linearGradient id="linear-gradient-3" x1="5374.66" y1="369.21" x2="11084.38" y2="369.21" xlink:href="#linear-gradient"/>
    <linearGradient id="linear-gradient-4" x1="4101.59" y1="366.43" x2="7898.83" y2="366.43" xlink:href="#linear-gradient"/>
  </defs>
  <title>Hills</title>
  <g id="Layer_2" data-name="Layer 2">
    <g id="Layer_1-2" data-name="Layer 1">
      <g>
        <g>
          <path class="cls-1" d="M2224.37,732.86H5715.18S5442,552.56,5376.42,558s-254.86-49.17-272.22-54.64-82.93-49.17-126.64-49.17-173.38-65.57-267-76.5-241.14-81.95-339.49-81.95S4151,252,4080.74,257.51s-311.66-32.78-409.52-38.25-327.35,16.39-376.52,0-190.35-18.19-270-.9-161.49,6.37-243.52,33.68S2224.37,732.86,2224.37,732.86Z"/>
          <path class="cls-2" d="M3294.7,219.26s-65.57,54.64-43.71,82,71,60.1,71,60.1,71,16.39,114.74,43.71,106.16,64.48,106.16,64.48-13.28,50.26-46.06,88.51-62.21,49.17-102.14,76.49-148.19,98.35-148.19,98.35H0S267.73,607.19,306,601.73,513.6,558,557.31,547.09s21.86-16.39,147.53-38.24,295-49.18,344.22-65.57,147.52-65.57,202.16-82,87.42-27.32,180.31-32.78,377-49.18,426.18-54.64,196.36-71,267.56-54.64,180.47-5.25,262.43-2.62,382.6-3.07,393.46-.23,341.11-40.86,380.88-40.86S3294.7,219.26,3294.7,219.26Z"/>
        </g>
        <g>
          <path class="cls-3" d="M5374.66,732.86h5709.72S10467,536.16,10385,525.24s-267.73-92.89-316.91-92.89-185.77-32.78-234.94-38.25-158.45-60.1-224-65.56-256.8-38.25-300.51-38.25-163.92-43.71-245.87-54.64-196.7-38.24-251.34-43.71-202.16,16.39-262.27,0S8345,153.7,8296.82,142.77,7756.9-4.76,7669.48,6.17,5374.66,732.86,5374.66,732.86Z"/>
          <path class="cls-4" d="M7669.48,6.17s-54.64,38.25-38.25,60.1,54.64,38.25,87.42,60.11,54.64,27.32,92.89,54.63,81.95,16.4,71,60.11,71,10.92-54.64,65.56-120.21,43.09-147.53,62.53-43.71,19.43-81.95,46.75,16.39,16.39-82,54.64-137.64,27.32-178.1,49.17-40.45,76.5-40.45,76.5l40.45,60.1-40.45,76.49H4101.59s191.23-114.74,213.09-114.74,107.86-21.85,135.88-27.32,104.53-43.71,153.7-43.71,366.08-43.71,387.93-60.1,92.89-43.71,125.67-54.64,65.57-38.25,153-38.25,185.77-16.39,224-24.58,120.2-51.91,142.06-62.84S5730,252,5790,263s109.18,0,180.21-16.39,153-49.17,174.84-43.71,129.13-27.32,129.13-27.32,129.26-43.71,166.72-43.71,152.4-54.64,152.4-54.64l130.92-32.78s92.89-49.18,109.28-38.25,207.62-17.63,224-.62S7292.47,0,7292.47,0Z"/>
        </g>
      </g>
    </g>
  </g>
</svg>
