<svg xmlns="http://www.w3.org/2000/svg" width="7603.527" height="1359.346" viewBox="0 0 7603.527 1359.346">
  <title>Mountains</title>
  <g>
    <path d="M7573.123,1194.673c-12.432-34.687-26.733-62.331-26.917-106.087-.178-42.13,12.947-47.637,17.417-87.087,7.045-62.187-12.84-160.858-71.8-194.542-18.974-10.841-52.8-23.937-83.619-57.47a94.325,94.325,0,0,1-9.468-12.346c-14.829-22.577-19.581-43.608-46.544-69.815-5.454-5.3-17.473-16.311-37.234-27.926-49.453-29.065-100.039-34.086-125.668-37.235-121.906-14.974-101.7-39.484-200.137-46.544,0,0-102.23-7.331-153.594-37.234-14.109-8.215-18.617-18.618-18.617-18.618-9.961-12.12-10.608-17.266-16.515-20.791-6.249-3.729-17.486-5.108-39.338,6.828,0,0-12.747,2.331-60.506,0C6597.964,480.8,6439.939,425.3,6439.938,425.3c-58.256-20.459-87.862-23.884-120.086-25.337-35.469-17.69-61.49-30.822-65.9-32.268-13.284-4.352-135.248-73.814-162.644-98.037-23.585-2.549-67.489-36.314-88.91-42.938-20.575-6.363-41.782-10.938-61.752-19-28.5-11.5-42.735-43.781-66.837-37.417-5.807,1.533-12.629,3.432-17.417,9.5-11.527,14.607,2.872,35.452-6.334,44.335-9.129,8.809-32.941-2.374-38-4.75-11.521-5.41-23.189-13.967-44.335-41.169-24.252-31.2-6.184-15.448-22.418-33.252-8.657-9.493-26.978-29.584-55.419-39.585-18.952-6.663-32.678-5.429-69.67-3.166-30.07,1.839-60.277,1.752-90.253,4.75-25.175,2.517-70.557,36.006-112.785,37.323-59.808,38.791-132.267,87.02-184.308,118.684-2.844,1.731-5.971,3.6-9.3,5.563-8.559.818-18.595,1.842-30.99,3.172-151.6,16.272-227.406,24.408-279.261,41.889-96.149,32.414-117.085,62.4-228.063,88.433-30.593,7.177-60.716,12.338-107.051,27.926a765.058,765.058,0,0,0-134.976,60.507c-19.337.778-46.558,1.3-79.124,0-42.97-1.716-72.81-2.913-98.364-6.862,4.726,10.249-20.179-1.616-25.6,6-5.086,7.151,10.889,9.213-45.4,1.213-65-9.238-71.989-13.536-95-11.083-22.163,2.362-23.555,7.187-66.5,19-6.388,1.757-48.81,13.322-82.337,17.418-47.2,5.766-93.933,21.947-122.6,12.7a182.675,182.675,0,0,1-32.027,3.506c-38.276,1.746-66.107,22.465-111.7,46.543a787.407,787.407,0,0,1-107.05,46.544,528.561,528.561,0,0,0-46.543-37.235c-24.428-17.355-31.137-18.925-37.235-18.617-15.632.789-17.584,13.426-41.889,27.926-24.137,14.4-48.658,17.713-55.853,18.617-22.489,2.827-31.182-1.642-51.2,4.655a100.363,100.363,0,0,0-27.926,13.962c-14.373-5.737-32.989-12.96-54.966-20.951-12.782,5.447-39.032-7.235-52.869-5.727-13.226,1.441-37.051,2.876-95-7.917-64.131-11.944-86.661-23.33-118.755-11.084-10.059,3.838-9.768,5.69-23.751,11.084-31.1,11.994-58.545,12.868-77.586,12.667-31.21-.329-61.293,11.174-87.117,6.73-28.781,9.033-45.585,15.072-53.128,19.853-9.268,5.874-23.766,16.138-41.89,13.963-14.342-1.72-16.278-9.469-41.889-18.618-14.526-5.188-11.243-1.745-37.235-9.308-16.992-4.944-24.207-8.107-32.58-4.654-7.171,2.956-10.283,8.741-13.963,13.962-6.922,9.822-19.058,22.2-41.89,32.581a303.979,303.979,0,0,1-74.469-13.963c-19.923-6.452-26.647-11.031-51.2-18.618-27.748-8.573-38.99-8.849-60.507-13.962-20.292-4.823-16.477-6.047-93.087-37.235-89.06-36.257-86.178-31.331-93.087-37.235-2.9-2.478-12.567-11.174-23.272-9.309-7.236,1.261-11.694,6.782-13.963,9.309-7.477,8.33-21.655,18.1-51.2,23.272-8.054-2.788-21.208-7.489-37.234-13.964-35.973-14.531-44.318-20.988-69.816-27.926-21.318-5.8-36.241-6.935-51.2-4.654A112.052,112.052,0,0,0,1906.6,527.7c-24.96,8.154-41.86,19.338-60.035,31.023-17.248-11.276-42.033-24.795-65.585-37.051-14.447.032-45.738-13.488-65.173-15.1-15.267-1.271-28.637-3.357-79.169-14.251-77.807-16.774-106.067-24.753-112.422-14.251-6.211,10.265-5.671,5.248-10.916,22.752-7,23.367-56.542,27.944-82.337,30.085-67.439,5.6-122.275-6.278-153.589-14.251-88.422-22.512-50.816-46.226-106.922-53.918-48.744-6.684-57.534,4.344-152.007,12.667-33.486,2.95-131.178,51.642-172.375,42.593-33,19.421-66.629,37.742-100.731,52.169-206.885,87.525-567.167,176.6-622.1,228.666-.95.9-43.477,41.287-43.477,41.287A209.356,209.356,0,0,0,50.4,893.828c-11.69,31.873-10.443,53.3-15.834,88.67-6.821,44.76-18.087,71.269-23.751,90.254C-2.012,1115.759-8.69,1195.9,21.584,1359.346H7566.292l37.235-2.9C7600.572,1284.94,7586.257,1231.319,7573.123,1194.673Z" fill="#95bad5"/>
    <path d="M1019.442,515.4c94.473-8.323,103.263-19.351,152.007-12.667,56.106,7.692,52.5,23.406,140.922,45.918,31.314,7.973,86.15,19.848,153.589,14.251,25.8-2.141,75.335-6.718,82.337-30.085,5.245-17.5-17.3-32.487-11.084-42.752,6.355-10.5,34.615-2.523,112.422,14.251,50.532,10.894,63.9,12.98,79.169,14.251,19.435,1.616,37.726,3.136,52.173,3.1-17.377-9.042-34.084-17.4-46.591-23.651-37.235-18.618-139.631-74.47-218.755-107.05S1324.8,307.187,1324.8,307.187s-44.217,16.291-76.8,34.908-97.742,46.544-121.013,46.544c-84.644,0-179.822,69.848-280.926,129.35C887.264,527.038,985.956,518.346,1019.442,515.4Z" fill="#a5cde5"/>
    <path d="M2976.521,615.15c13.983-5.394,13.692-7.246,23.751-11.084,32.094-12.246,54.624-.86,118.755,11.084,57.953,10.793,81.778,9.358,95,7.917,13.837-1.508,35.087-3.826,47.869-9.273q-9.361-3.4-19.5-6.975c-30.917-10.863-60.946-21.414-102.4-32.58-84.993-22.895-84.49-12.406-107.05-23.272-4.53-2.181-18.509-9.326-32.581-4.654a33.576,33.576,0,0,0-13.963,9.308c-16.146,17.118-59.057,27.481-107.05,41.89-29.824,8.954-53.732,16.133-72.539,22.036a622.381,622.381,0,0,0,92.117,8.27C2917.976,628.018,2945.426,627.144,2976.521,615.15Z" fill="#a5cde5"/>
    <path d="M3951.894,539.147c33.527-4.1,75.949-15.661,82.337-17.418,42.947-11.813,44.339-16.638,66.5-19,23.015-2.453,30.005,1.845,95,11.083,56.289,8,67.751,7.151,72.836,0,5.416-7.615,1.885-19.964-2.841-30.213a228.136,228.136,0,0,1-45.921-11.756c-49.191-18.284-73.787-27.426-88.433-37.235-6.61-4.426-25.075-17.457-46.543-13.963a47.282,47.282,0,0,0-13.963,4.654c-26.072,13.036-53.359,23.6-79.124,37.235-56.684,29.989-61.553,19.208-111.7,46.544-7.675,4.184-23.469,13.107-46.543,18.617-1.786.427-3.514.8-5.208,1.149C3856.961,538.094,3904.692,544.913,3951.894,539.147Z" fill="#a5cde5"/>
    <path d="M5619.211,132.214c36.992-2.263,50.718-3.5,69.67,3.166,28.441,10,46.762,30.092,55.419,39.585,16.234,17.8,12.166,21.057,36.418,52.252,21.146,27.2,32.814,35.759,44.335,41.169,5.06,2.376,28.872,13.559,38,4.75,9.206-8.883-5.193-29.728,6.334-44.335,4.788-6.068,11.61-7.967,17.417-9.5,24.1-6.364,44.34,5.912,72.837,17.417,19.97,8.063,41.177,12.638,61.752,19,21.421,6.624,46.325,11.389,69.91,13.938a33.37,33.37,0,0,1-4.281-4.359c-14.206-18.617-71.031-55.852-99.444-74.469s-106.548-74.47-166.925-107.051S5675.039,0,5675.039,0s-33.741,16.29-58.6,34.908-74.584,46.543-92.341,46.543c-8.465,0-52.446,27.5-106.923,62.836,42.228-1.317,86.61-4.806,111.785-7.323C5558.934,133.966,5589.141,134.053,5619.211,132.214Z" fill="#a5cde5"/>
  </g>
</svg>
