<svg xmlns="http://www.w3.org/2000/svg" xmlns:xlink="http://www.w3.org/1999/xlink" width="14053.57" height="1518.76" viewBox="0 0 14053.57 1518.76">
  <defs>
    <style>
      .cls-1 {
        fill: url(#linear-gradient);
      }

      .cls-2 {
        fill: url(#linear-gradient-2);
      }

      .cls-3 {
        fill: url(#linear-gradient-3);
      }

      .cls-4 {
        fill: url(#linear-gradient-4);
      }

      .cls-5 {
        fill: url(#linear-gradient-5);
      }

      .cls-6 {
        fill: url(#linear-gradient-6);
      }

      .cls-7 {
        fill: url(#linear-gradient-7);
      }

      .cls-8 {
        fill: url(#linear-gradient-8);
      }

      .cls-9 {
        fill: url(#linear-gradient-9);
      }

      .cls-10 {
        fill: url(#linear-gradient-10);
      }
    </style>
    <linearGradient id="linear-gradient" x1="2344.81" y1="910.34" x2="6342.47" y2="910.34" gradientUnits="userSpaceOnUse">
      <stop offset="0" stop-color="#4988bf"/>
      <stop offset="1" stop-color="#71b1d9"/>
    </linearGradient>
    <linearGradient id="linear-gradient-2" x1="2266.43" y1="910.34" x2="4594.18" y2="910.34" xlink:href="#linear-gradient"/>
    <linearGradient id="linear-gradient-3" x1="5737.39" y1="759.38" x2="9653.18" y2="759.38" xlink:href="#linear-gradient"/>
    <linearGradient id="linear-gradient-4" x1="5004.79" y1="759.38" x2="7589.07" y2="759.38" xlink:href="#linear-gradient"/>
    <linearGradient id="linear-gradient-5" x1="10549.86" y1="1028.13" x2="14053.57" y2="1028.13" xlink:href="#linear-gradient"/>
    <linearGradient id="linear-gradient-6" x1="10335.85" y1="1028.13" x2="12140.17" y2="1028.13" xlink:href="#linear-gradient"/>
    <linearGradient id="linear-gradient-7" x1="8274.22" y1="1164.12" x2="11599.44" y2="1164.12" xlink:href="#linear-gradient"/>
    <linearGradient id="linear-gradient-8" x1="7592.39" y1="1165.4" x2="9844.14" y2="1165.4" xlink:href="#linear-gradient"/>
    <linearGradient id="linear-gradient-9" x1="593.49" y1="923.4" x2="3725.18" y2="923.4" xlink:href="#linear-gradient"/>
    <linearGradient id="linear-gradient-10" x1="0" y1="910.34" x2="2083.3" y2="910.34" xlink:href="#linear-gradient"/>
  </defs>
  <title>Mountains</title>
  <g id="Layer_2" data-name="Layer 2">
    <g id="Layer_1-2" data-name="Layer 1">
      <g>
        <g>
          <path class="cls-1" d="M2344.81,1518.76s731.6-574.83,821.18-601,365.82-112,453.53-141.84S3938.65,585.6,3976,574.4,4471,301.92,4509.06,301.92,4823.29,469,4883,508.63s354.6,271.07,391.93,315.86,222.19,101.08,288.39,136.39,290.78,165.95,314.74,173.42,464.4,384.46,464.4,384.46Z"/>
          <path class="cls-2" d="M4509.06,301.92s-47.84,44.79-53.44,54.12,0,48.53,0,48.53,29.86,14.93,35.46,24.26,4.22,16.79,18,26.13,62.27,41.06,67.87,42.92,13.07,0,16.8,14.93-16.8,41.06-28,50.39-7.64,14.93-42.07,16.8-59.95-11.2-70.53,0-36.7,24.26-55.36,33.59-39.2,5.6-54.13,11.2-54.12,24.26-54.12,24.26-37.33,13.07-54.12,22.4-24.27,31.73,0,41.06,59.72,14.93,72.78,16.8,35.46,7.46,35.46,7.46-16.79,29.86-16.79,35.46,14.93,18.66,26.12,29.86,33.6,13.07,42.93,16.8,16.8,7.46,33.59,16.8,26.13,9.33,39.2,14.93-7.47-1.87,28,11.19,46.66,7.47,59.72,20.53,37.33,9.34,13.07,28-37.33,9.33-46.66,22.4-35.46,1.86-26.13,22.39,41.06,5.6,11.2,31.73-56,33.59-61.59,46.66-30,11.19-39.26,24.26-95.11,3.73-97,14.93,13.06,0,0,20.53-31.73,13.06-46.66,29.86-26.13,3.73-33.59,20.53,7.46-1.87-22.4,26.13-56,20.53-70.92,39.19-37.33,16.8-52.26,41.06-16.79,24.26,0,35.46,33.6-1.87,54.13,13.06,41.06,9.34,44.79,26.13-33.59,5.6-7.47,33.6,42.93,28,57.86,44.79,5.6,7.46,26.13,29.86,22.39,22.4,22.39,39.19-1.86,13.07,0,29.86,51.2,16.8,51.2,16.8H2266.43s319.76-364.55,352.11-372S2705.63,1097,2738,1082s112-54.74,166.73-89.58,151.79-117,169.21-126.91,49.77-19.91,84.61-32.35S3273,788.41,3292.9,776s59.73-47.28,79.63-57.23,77.14-37.33,97-42.3,42.3-22.4,69.68-34.84,104.51-64.7,131.88-69.68,149.31-42.3,156.78-44.79,62.21-49.77,77.14-57.23,64.7-24.89,87.09-37.33,92.07-47.28,92.07-47.28,97.05-29.86,109.49-32.35S4321.74,313.12,4509.06,301.92Z"/>
        </g>
        <g>
          <path class="cls-3" d="M5737.39,1518.76H9653.18s-418.06-289.48-462.85-314.36-84.61-104.51-109.49-139.35-34.84-59.72-59.72-79.63-79.63-35.69-104.52-75.08-19.9-29.44-69.67-74.23-70.64-89.58-97.53-89.58S8632.92,721.64,8608,711.69,8493.57,657,8493.57,657s-74.65-44.8-94.56-49.77-124.42-64.7-154.28-74.66-114.47-24.88-154.29-49.76-94.56-104.52-94.56-104.52-99.53-68.86-134.37-71.76S7776.9,273.73,7747,263.77s-84.61-34.83-114.47-44.79-99.53-64.7-114.46-64.7-89.59-59.72-114.47-64.7-104.52-29.86-119.45-34.83S7204.56,0,7124.93,0s-273.72,109.49-353.35,184.14-177.11,119.45-240.35,184.15-118,129.4-147.85,184.14S6263.94,676.85,6229.1,736.58s-109.49,174.19-134.38,199.07-134.22,164.24-139.27,189.12S5737.39,1518.76,5737.39,1518.76Z"/>
          <path class="cls-4" d="M7124.93,0s-124.42,89.58-89.58,114.47,49.77,64.7,64.7,79.63,59.72,34.84,74.65,39.81,14.93-29.86,69.68,0,109.49,56.38,144.33,68,62.71,11.62,76.15,26.55,73.15,49.77,83.11,64.7,19.31,39.82-32.65,54.75-106.71-24.89-121.64,0-37.7,34.84-81.06,54.74-73.22,29.86-113,49.77-39.82,14.93-49.77,59.72-5,54.75-29.86,74.66-19.91,14.93-59.73,34.83-44.79,5.8-74.65,37.74-59.72,61.8,0,81.71S7080.14,851,7110,866s122.6,24,143.42,44.37,50.68,20.33,100.45,50.19,123.83,29.87,161.45,64.7,92.37,39.82,67.48,69.68-45.38,5-67.48,44.79-39,14.93-50.46,49.77,52.65,69.68,50.46,119.44-24.08,34.84-50.46,64.7,53.25,5-26.38,29.86-68.46,5-126.3,24.89-87.71,29.86-87.71,29.86l-49.77,60.54H5004.79s209-180,233.91-219.8,24.89-10.39,49.77-50,59.72-104.3,74.66-124.21,47.62-89.58,86-119.44,158.86-109.5,175.77-129.4,106.49-101.84,141.33-98.2,84.61-61.06,99.54-71,39.81-39.81,79.63-64.7,84.6-64.69,139.35-69.67,104.51-39.82,149.31-54.75,96.84-49.77,118.09-54.74,71-44.79,95.91-64.7,49.77-43.16,114.47-96.23,154.28-112.8,154.28-112.8S6826.32,64.7,6856.18,64.7,7005.49,0,7124.93,0Z"/>
        </g>
        <g>
          <path class="cls-5" d="M10549.86,1518.76h3503.71s-363.31-204.87-418.06-244.68-139.35-104.52-179.16-129.4-159.26-104.52-189.13-124.42-119.44-94.56-149.3-129.4-69.68-24.89-219-49.77-253.82-42.11-313.55-63.36-189.12-90.92-233.91-100.88-228.93-94.56-278.7-99.53-303.59-39.82-303.59-39.82Z"/>
          <path class="cls-6" d="M11769.19,537.5s29.86,79.63,79.63,99.54,109.49,74.65,124.42,79.63,29.86,45.61,39.82,42.71,49.76-15.15,84.6,18.35,64.7,18.57,19.91,58.38-64.7,29.86-114.47,64.7-84.6,44.79-94.56,64.7-39.81,20.73-19.91,62.62,22.61,66.78,66.05,86.69,78.28,24.88,88.24,39.81-34.84,49.77-59.73,69.68-69.67,24.88-104.51,54.74-59.72,34.84-74.65,54.75-39.82,39.81-59.72,64.7-114.47,120.26-114.47,120.26h-1294s119.45-125.24,134.38-145.15,24.88-69.67,79.63-104.51,104.51-84.61,134.37-104.51,49.77-44.8,84.61-64.7,89.58-49,114.47-71.76,79.63-82.53,104.51-117.36,99.54-99.54,99.54-99.54,94.56-79.63,109.49-84.61,204-99.54,228.94-104.51,144.33-59.72,159.26-59.72S11769.19,537.5,11769.19,537.5Z"/>
        </g>
        <g>
          <path class="cls-7" d="M8274.22,1518.76h3325.22s-184.82-184.14-229.62-209-64.7-29.86-94.56-59.72-24.88-49.77-84.6-79.63-166.36-84.61-197.65-99.54-107.66-49.77-161.54-59.72-148.45-44.79-193.24-44.79-194.1-29.86-238.89-29.86-149.31-34.84-174.19-34.84-124.43-39.82-169.22-39.82-164.23-49.76-204.05-49.76-184.14,14.93-219,0-199.07,39.81-219,49.76-99.54,49.77-144.33,79.63S8274.22,1518.76,8274.22,1518.76Z"/>
          <path class="cls-8" d="M9632.9,812.05s-74.65,44.79-59.72,59.72,29.86,19.91,59.72,39.81,69.68,29.86,89.58,39.82S9822,986.24,9822,986.24s49.77,39.81,0,64.7-74.41,0-114.35,24.88-88.67,39.81-136.47,59.72-37.84-12.51-87.61,28.58-69.67,51.05-89.58,90.87-39.81,24.88-74.65,54.74-69.68,29.86-104.52,59.72S8976,1518.76,8976,1518.76H7592.39s209-189.12,224-189.12,114.46-54.75,164.23-84.61,94.56-59.72,159.26-79.63,154.28-49.77,219-69.67,161.52-69.68,262.42-89.59,272.66-74.65,296.27-84.6,133.1-64.7,172.91-64.7,122.3-10,150.73-5S9632.9,812.05,9632.9,812.05Z"/>
        </g>
        <g>
          <path class="cls-9" d="M593.49,1516.89H3725.18s-145.57-93.31-197.83-104.51S3449,1382.52,3393,1348.93s-67.18-56-123.17-82.12-201.57-134.38-257.56-160.51-94.8-63.45-150-67.18-118.71-18.67-159.77-29.87-126.91-57.68-168-96S2392.63,762.9,2344.1,740.5s-190.36-85.85-224-104.51-63.45-59.72-104.51-93.32-82.12-85.85-108.25-108.24S1806.6,329.91,1806.6,329.91L1664.76,434.43s-104.51,93.31-126.91,138.1S593.49,1516.89,593.49,1516.89Z"/>
          <path class="cls-10" d="M1806.6,329.91s-56,108.25-56,141.84,7.47,63.46,28,85.85,80.25,56,95.18,70.92,78.38,52.26,112,74.66,33.59,14.93,70.92,41.06,33.59,41.06,0,70.92-41.06,33.59-63.46,52.25-44.79,31.91-97,45.82-108.24,6.44-89.58,43.77,33.59,48.52,59.72,70.92,30.35,26.13,50.64,41.06,24.5,52.25,0,78.38-32,48.53-46.9,85.85,45.27,97,46.9,115.72,16.55,18.66,31.48,63.45,0,104.51,0,104.51H0s212.76-141.84,220.23-160.5,29.86-67.19,52.25-89.58,52.26-59.73,78.39-89.59,48.52-63.45,97.05-93.31S545,1005.52,593.49,979.39s112-59.72,130.64-89.58,97-145.57,108.25-164.24S895.83,617.33,907,609.86s59.72-70.92,85.85-89.58,156.77-97,156.77-97,63.46-22.4,93.32-26.13,119.45-33.59,149.31-44.79,70.92-48.53,97-48.53h201.56Z"/>
        </g>
      </g>
    </g>
  </g>
</svg>
