<svg xmlns="http://www.w3.org/2000/svg" width="484.65" height="583.28" viewBox="0 0 484.65 583.28">
  <defs>
    <style>
      .cls-1 {
        fill: #4f3118;
      }
    </style>
  </defs>
  <title>BgRock_6</title>
  <g id="Layer_2" data-name="Layer 2">
    <g id="Resources">
      <path class="cls-1" d="M0,583.28l484.65-.86c-22.25-88.28-46-112.25-64.09-117.12-4.91-1.32-19.79-4-34.56-15.5-8.44-6.55-8.4-12.38-22.47-27.56-9.06-9.78-13.71-14.69-19.58-15.94-9.95-2.12-15.2,4.29-26.57.64-3.83-1.23-6.49-3-11.67-6.46-5.36-3.58-10.15-6.78-14.25-12.27-3.88-5.19-5.23-9.87-7.78-18.73-2.06-7.14-1.92-9-3.89-18.09-1.56-7.21-1.91-7.27-7.13-26.48-3.72-13.71-5.58-20.57-6.48-24.55-3.85-17.17-2.62-18.67-5.83-23.9C254,266.11,245,265.13,245.44,259.67s9.93-5.63,14.26-14.86c2.18-4.64,1.79-8.89,1.3-14.21-.34-3.67-1.6-15.58-10.37-25.84-6.74-7.88-10.14-5.69-25.28-17.44-7.85-6.09-6.56-6.39-14.9-12.92s-10.39-6.8-25.28-16.79c-6.78-4.56-12.66-8.5-20.09-14.21-11.63-8.94-12.66-11.14-20.09-16.15-11.43-7.72-17.12-4.61-23.33-11.63-4.91-5.55-6.39-12.19-7.13-15.5-2.43-10.94,1.73-13.6-1.29-21.32-1.27-3.23-2.53-4.1-13-14.85-11.61-12-9.35-10.15-13-13.57C72.77,36.63,65.93,35.53,64,27.13c-.91-4,.41-4.61-.64-12.27A65.35,65.35,0,0,0,59.45,0H1.09Q.55,291.65,0,583.28Z"/>
    </g>
  </g>
</svg>
