<svg xmlns="http://www.w3.org/2000/svg" width="242.97" height="234.67" viewBox="0 0 242.97 234.67">
  <defs>
    <style>
      .cls-1 {
        fill: #4f3118;
      }
    </style>
  </defs>
  <title>BgRock_13</title>
  <g id="Layer_2" data-name="Layer 2">
    <g id="Resources">
      <path class="cls-1" d="M8.91,234.67H235.3a41.55,41.55,0,0,0,7.25-15.41c1.11-4.77-.12-11.64-2.17-25.29,0,0-.38-2.52-1.68-7.63-1.34-5.26-1.94-6.13-2.51-6.7-2.3-2.31-5.95-1.71-9.38-1.57a43.08,43.08,0,0,1-18.23-3.18c-6.63-3.21-7.29-13-10.17-31.79-3.84-25.06,1.34-26.5-1.91-48.33C193.42,74,188.6,74.3,185.06,49c-1-7.3-1.53-13.8-4.46-23.53-.68-2.26-8-26.14-13.35-25.43-2,.26-3.27,4-10.17,49a143.42,143.42,0,0,1-4.14,20.09c-3.66,12.6-6.62,15.48-9.85,24.42-5.67,15.65-1,18.83-5.73,46.43-3.86,22.4-7.88,25.7-10.81,26.7-2.14.74-7-1-16.53-4.45-11-4-15-6.15-22.26-6.36-3.55-.1-4.43,1.08-9.54,1.28-5.37.2-8.93-.52-10,1.28-.64,1.15.42,2.09,0,4.85a11.29,11.29,0,0,1-1.5,4c-4.29,7.8-3.55,9.91-6.25,12.23-2.14,1.84-5.52,2-12.2,2.4-8.7.45-9.51-.76-15.89-.22-7.79.67-7,2.51-15.26,3.4-8.64.92-13.55-.66-15.43,2.31-.67,1.05-.6,2.68-.47,6a44.27,44.27,0,0,0,1,7.87c1.39,7-2.16,10.43-2.31,16.3C-.1,221.53,1.37,227.35,8.91,234.67Z"/>
    </g>
  </g>
</svg>
