<svg xmlns="http://www.w3.org/2000/svg" width="268.61" height="266.53" viewBox="0 0 268.61 266.53">
  <defs>
    <style>
      .cls-1 {
        fill: #4f3118;
      }
    </style>
  </defs>
  <title>BgRock_23</title>
  <g id="Layer_2" data-name="Layer 2">
    <g id="Resources">
      <path class="cls-1" d="M16.62,266.53h249.2c-27-14.68-33.86-28.14-35-37.8-.74-6.15,1-9.39,0-23.26-1-13.7-1.49-20.77-5.82-28.11-6.45-10.92-13.22-8.61-19.38-19.38-2.82-4.94-3.13-8.46-4.85-27.14-3-32.3-3-32.21-2.9-32.95,1.58-15.25,8.16-26,18.41-42.65a185.14,185.14,0,0,1,19.38-26.16A182.88,182.88,0,0,1,268.61,0H0C19.15,23.22,31.28,43.14,36,54.27a88.64,88.64,0,0,1,5.82,22.3c.86,6.57.38,8.54,0,9.69C39.37,93.6,32.1,94,24.37,100.8c-8.58,7.51-11.43,17.32-12.6,21.32-2.29,7.85-.58,10.23,0,29.07s-1,19.63,0,32c1.16,13.94,3.81,20.18,5.82,30C20.05,225.33,21.56,243.05,16.62,266.53Z"/>
    </g>
  </g>
</svg>
