<svg xmlns="http://www.w3.org/2000/svg" width="396.78" height="359.416" viewBox="0 0 396.78 359.416">
  <title>BgRock_2</title>
  <path d="M1.925,359.416H396.78c-2.275-5.966-5.843-14.783-10.865-25.2-5.433-11.27-8.149-16.905-9.865-18.738-17.541-18.745-58.525,1.634-68.507-14.237-1.972-3.137.159-3.088-2.57-12.9-3.9-14.014-9.053-17.027-12.277-27.785-1.96-6.537-.347-6.4-1.293-23.907a306.518,306.518,0,0,0-3.876-34.247c-3.853-22.087-6.57-19.748-7.754-34.246-1.933-23.658-1.293-32.308-1.293-32.308.338-4.564,1.112-11.758-3.23-17.446-2.331-3.053-4.313-3.284-7.108-5.815-5.357-4.851-6.844-11.937-7.754-21.324a181.569,181.569,0,0,1,0-34.892c2.821-25.713,7.319-31.695,2.585-40.708-4.544-8.65-13.463-12.23-16.8-13.569-14.589-5.856-20.793,2.274-49.755,3.877-7.821.433-23.754.747-38.769.646-9.131-.061-14.016-.25-20.031,2.585-12.557,5.918-17.3,19.013-18.092,21.323-2.322,6.768-1.684,11.17,0,28.431,1.176,12.057,2.6,26.639,3.231,36.831,1.463,23.612-1.475,21.157,0,40.707,1.843,24.442,6.918,34.671,0,42-1.134,1.2-5.71,4.246-14.862,10.338-8.75,5.824-8.925,5.546-10.338,7.108-5.064,5.594-4.343,10.848-7.754,22.615-1.637,5.646-1.413,3.093-6.462,16.8-4.781,12.981-5.7,17.214-12.277,35.539C69.48,275.3,68.689,277.509,68.48,278c-2.216,5.208-11.562,27.174-28.431,31.661-12.843,3.416-20.25-5.9-29.077,0-4.263,2.851-5.814,7.217-7.754,12.923C1.076,328.886-2.082,341.686,1.925,359.416Z" fill="#4f3118"/>
</svg>
