<svg xmlns="http://www.w3.org/2000/svg" width="263.099" height="118.951" viewBox="0 0 263.099 118.951">
  <title>BgRock_15</title>
  <path d="M3.173,118.951C2.148,116.678-2.816,105.2,2.219,98.92c2.178-2.715,6.963-4.141,16.534-7,4.875-1.454,4.712-1.113,8.267-2.226,10.014-3.133,15.093-4.461,18.759-8.266,3.411-3.542,4.783-7.666,6.041-11.447C53.462,65.05,52.839,63.7,54.205,58.2c1.07-4.309,3.577-14.445,7.154-14.606,1.678-.076,3.662,3.492,7.631,10.627,2.932,5.272,4.4,7.908,5.456,11.247,1.221,3.854,1.063,5.339,2.81,8.014a13.9,13.9,0,0,0,6.36,5.405,5.912,5.912,0,0,0,1.329.405c1.974.328,3.676-.675,11.389-.087,6.919.527,9.158,1.285,12.718,0a18,18,0,0,0,7.631-5.723c3.1-3.682,4.046-7.25,5.087-10.493,3.011-9.375,4.421-8.49,7.949-18.123,2.726-7.444,1.981-8.235,6.041-24.8C140.134,2.224,141.692.314,143.391.036c4.076-.667,8.781,8.081,11.447,13.036,1.59,2.956,3.692,7.443,6.677,18.76,1.415,5.366,1.514,6.525,5.087,23.528,1.958,9.32,1.515,14.03,4.769,20.985,3.009,6.431,5.747,8.431,7,9.221,3.214,2.033,5.916,1.957,13.672,2.544,5.311.4,10.6,1.1,15.9,1.589,11.323,1.045,10.581,1.658,20.349,2.544,15.443,1.4,21.585.129,27.98,5.087a17.689,17.689,0,0,1,5.088,6.041,18.947,18.947,0,0,1,.953,13.355Z" fill="#4f3118"/>
</svg>
