<svg xmlns="http://www.w3.org/2000/svg" width="596.374" height="159.151" viewBox="0 0 596.374 159.151">
  <title>BgRock_5</title>
  <path d="M.937,159.151H596.374c-.529-6.458-2.879-26.369-15.784-33.05a53.893,53.893,0,0,0-10.678-3.559,109.759,109.759,0,0,0-21.356-3.051c-9.581-.614-11.185.127-15.762-1.526a33.736,33.736,0,0,1-10.17-6.1A52.044,52.044,0,0,1,510.93,98.135c-4.436-7.156-9.259-14.937-13.729-27.966-5.781-16.85-4.076-22.376-11.186-36.609-2.625-5.253-7.18-14.372-11.186-13.729-1.349.217-2.452,1.51-9.153,22.373-1.666,5.187-2.719,8.6-4.659,13.8-2.264,6.066-3.4,9.1-4.493,11.117-5.768,10.6-12.39,9.788-20.339,21.355-1.857,2.7-.836,1.786-6.1,10.678-8.009,13.524-9.678,14.472-11.186,14.746-5.187.941-7.305-6.3-16.779-9.153-4.789-1.444-6.669-.325-14.746,0-10.669.429-23.812.958-34.067-6.1-5.811-4-8.734-9.087-11.695-14.238-4.058-7.06-4.925-12.024-8.135-24.406-5.031-19.4-7.546-29.106-9.661-28.983-2.173.127-2.471,9.761-7.627,35.085-2.632,12.927-4.509,20.018-10.17,26.948-2.978,3.648-5.714,5.652-11.186,9.661-9.787,7.171-17.671,12.947-27.457,14.746-5.12.941-5.076-.251-32.542-6.61-18.893-4.374-23.276-4.82-30.508-9.153-2.539-1.52-3.284-2.235-15.254-12.2C168.184,72.1,168.936,73.013,168.223,72.2c-8.216-9.325-6.211-15-16.271-46.27C144.023,1.288,141.216-.04,139.748,0c-4.03.112-6.912,10.805-11.085,26.292-5.285,19.613-3.169,21.116-7.728,31.673-5.339,12.364-8.53,10.971-13.728,24.407-3.681,9.511-3.7,14.38-8.644,17.287-4.327,2.542-9.88,2.089-16.78,1.526A58.057,58.057,0,0,1,71.189,99.3c-5.157-1.456-5.783-2.464-9.236-3.2-5.2-1.1-9.458-.021-13.543,1.017-8.477,2.154-8.516,4.734-16.457,6.61-7.232,1.709-9.44.1-11.438,2.359-3.631,4.107,2.7,10.5-.256,17.471-2.79,6.574-10.316,5.329-15.763,11.695C1.433,138.833-1.577,145.527.937,159.151Z" fill="#4f3118"/>
</svg>
