<svg xmlns="http://www.w3.org/2000/svg" width="379.03" height="531.12" viewBox="0 0 379.03 531.12">
  <defs>
    <style>
      .cls-1 {
        fill: #4f3118;
      }
    </style>
  </defs>
  <title>BgRock_19</title>
  <g id="Layer_2" data-name="Layer 2">
    <g id="Resources">
      <path class="cls-1" d="M10.71,531.12H379c-46.15-20.07-66.53-46.86-75.63-62-5.57-9.29-18.1-32.88-26.17-64-6.35-24.47-5-34.57-15.51-49.43-11.74-16.62-21.63-15.59-33-32-6.44-9.34-9.45-18.68-13.57-47.49-5.81-40.66-3.91-50.65-7.75-81.42-5.35-42.87-10.84-37.88-13.57-72.68-2.3-29.38,1.08-39.7-2.91-72.69C188.28,27.17,185.06.54,178.37,0c-12.33-1-29.26,87.35-33,106.61-10,52.21-5.64,53.61-15.5,95A425.23,425.23,0,0,1,89.21,305.3C73.6,333.45,65.12,340.73,56.26,345c-21.95,10.67-41,.62-51.37,13.57C-.53,365.39,1.35,372.35,2,394.47,2.86,425.12-.41,423.69,0,450.68A364.21,364.21,0,0,0,10.71,531.12Z"/>
    </g>
  </g>
</svg>
