<svg xmlns="http://www.w3.org/2000/svg" width="1039.117" height="199.135" viewBox="0 0 1039.117 199.135">
  <title>BgRock_20</title>
  <path d="M0,199.135H1039.117c-8.247-23.139-19.486-37.527-28.528-46.523-8.207-8.165-12.048-9.345-25.847-21.969-22.7-20.775-20.909-25.451-31.015-32.308-15.475-10.5-28.179-5.3-84-1.293-21.21,1.523-40.077,2.878-64.615,2.585-15.254-.182-37.739-2.706-82.708-7.754-28.19-3.164-36.5-4.479-45.231-11.631-10.79-8.836-17.962-23.086-24.554-36.184-6.4-12.718-6.405-16-9.046-20.677C630.111-.442,586.376,7.235,504,4,441.33,1.531,432.87-4.241,410.955,5.288c-14.947,6.5-21.738,13.85-59.446,32.308-23.735,11.618-34.946,15.511-38.769,16.8-20.6,6.948-33.293,7.963-56.862,11.631-53.84,8.379-47.74,12.435-95.631,19.385-33.707,4.891-42.3,3.689-60.739,11.63-10.17,4.38-20.995,11.535-42.646,25.847C34.811,137.464,23.645,144.935,16.8,153.9,10.589,162.043,2.251,176.36,0,199.135Z" fill="#4f3118"/>
</svg>
