<svg xmlns="http://www.w3.org/2000/svg" width="240.514" height="71.164" viewBox="0 0 240.514 71.164">
  <title>BgRock_14</title>
  <path d="M12.287,71.164h227.02c1.811-5.206,1.3-7.29.318-8.161-1.984-1.763-6.1,1.252-9.3-1.1-1.045-.768-.97-1.358-2.468-3.778a30.511,30.511,0,0,0-5.454-6.694c-3.729-3.079-8.8-2.647-13.941-2.209-6.527.556-7.391,2.242-13.99,2.968-4.282.471-5.912-.02-12.4-.424-5.264-.328-5.847-.07-21.621,0-18.808.083-18.233.315-21.3,0-15.163-1.558-18.026-7.9-27.98-7.631-1.231.033-5.318.233-6.6-1.951-.53-.905-.135-1.465-.188-4.832-.038-2.454-.249-2.236-.424-5.723-.21-4.182.093-4.506-.424-5.512-1.052-2.046-3.553-3.129-5.511-3.391-3.921-.525-5.34,2.288-9.461,2.12-1.879-.077-3.253-.73-6.013-2.332-7.139-4.144-9.186-6.3-12.834-8.479-.831-.5-6.345-2.275-17.371-5.829A73.714,73.714,0,0,1,40.373,3.652c-3.753-1.9-3.821-2.429-5.829-3.074-5.156-1.657-8.464.639-15.156,2.014C7.823,4.968,2.82,1.169.523,4.5c-1.656,2.4,1.056,4.215,2.12,13.567C3.511,25.7,2.006,27.141,3.7,33.115c1.085,3.821,2.005,4.3,2.968,8.492a40.277,40.277,0,0,1,.848,10.48C7.514,56.542,8.372,62.928,12.287,71.164Z" fill="#4f3118"/>
</svg>
