<svg xmlns="http://www.w3.org/2000/svg" width="708.212" height="201.951" viewBox="0 0 708.212 201.951">
  <title>BgRock_17</title>
  <path d="M708.212,1.293V188.749c-80.171,7.743-141.48,11.782-170.586,12.852-44.391,1.631-29.512-3.07-56.861-1.292-11.229.73-18.776,1.85-25.431-3.157-9.665-7.271-7.53-20-19.277-27.552-4.6-2.957-9.09-3.681-13.447-4.184-47.814-5.518-127.939-1.292-127.939-1.292-7.687.405-42.465,2.128-87.877,0-11.321-.536-29.516-2.08-65.908-5.169-24.3-2.063-42-3.719-64.615-7.754-43.994-7.851-52.006-14.97-55.57-21.97-4.154-8.16.307-11.112-3.877-31.015C14,84.76,11.331,83.134,6.486,65.908.947,46.217-1.822,36.372,1.317,31.016c4.867-8.307,16.615-7.01,63.323-9.046,31.528-1.375,25.92-1.955,49.108-2.585,34.889-.948,44.262.456,63.323,0,36.532-.874,48.265-7.135,86.585-12.923,23.63-3.569,51.077-4.1,105.97-5.169,61.36-1.193,64.682.673,142.154,0C562.1.855,570.346-.016,615.165,0,654.424.015,686.655.7,708.212,1.293Z" fill="#4f3118"/>
</svg>
