<svg xmlns="http://www.w3.org/2000/svg" width="345.3" height="427.34" viewBox="0 0 345.3 427.34">
  <defs>
    <style>
      .cls-1 {
        fill: #4f3118;
      }
    </style>
  </defs>
  <title>BgRock_11</title>
  <g id="Layer_2" data-name="Layer 2">
    <g id="Resources">
      <path class="cls-1" d="M7.63,427.34H345.3V0H0C7.1,11.54,12.67,21.51,16.73,29.1,25,44.57,29.14,52.3,31.61,60.53,35.92,74.92,35,83.44,38.22,84c3.67.58,8.55-10.22,14.56-23.53C59.32,45.94,57.91,41.09,63,38.16c5.79-3.36,8.94,1.57,24.16,1,11.52-.47,15-3.5,19.93-.52,4.07,2.47,2.06,4.77,8.39,13.88,4.87,7,9.37,10.42,11.11,16.84a17.77,17.77,0,0,1,.81,6.46c-.29,3.59-1.65,4.66-1.13,6.58.74,2.71,4.12,2.94,7.65,5.09,5.81,3.53,4.15,7.48,9.84,13.67,5.44,5.92,8.27,3.71,15.76,10.64,3.05,2.82,4.83,5.33,8.4,10.34,6.21,8.73,9.32,13.09,10.81,17.81,3.78,11.92-2.74,15.64,1.27,28.61a58.93,58.93,0,0,1,2.86,12.31,85.81,85.81,0,0,1,.32,8.68c.28,13.93.35,15.43,1,17.8,1.4,5.5,2.75,4.3,4.77,10.5,2.3,7.09.78,9.41,2.7,19,1.31,6.52,2.34,11.68,4.29,11.88,3.53.37,9.18-15.58,11.39-29.89,1.51-9.81.56-14,3.24-28,2.08-10.93,4.33-17.14,9.8-20.56,2.36-1.48,5.54-1.88,8-2.33,4.89-.89,8.49-1.55,10.81.32,2.05,1.64.92,3.5,2.55,9.85,1.54,6,2.91,5.73,5.08,13.36a56.24,56.24,0,0,0,2.16,7.18c1.6,4,2.75,4.94,3.57,6.89,2.09,5-1.58,8.1-3.18,16.45-2.11,11,3,11.87.32,21.62-1.5,5.41-4.19,9.14-2.23,12.72.72,1.31,1.49,1.55,4.17,4.77,0,0,2.17,2.61,4,5.38,3.7,5.63.1,17-2.45,28-4.44,19.12-1.33,18.2-4.45,22.9-7.26,10.94-18,6.84-26.07,19.07-4.07,6.21-3.69,10.91-8.84,13.52-2,1-6,.55-14-.16-8.83-.79-10.75-1.62-12.26-2.58-4.36-2.78-3-5.23-6.5-7-4.76-2.36-8.21,1.7-19.4,1.27-.39,0-2-.17-5.18-.48-11.59-1.12-13.39-1.63-14.28-3.13-1.1-1.86.41-3.2-.89-5.93-1-2.05-2.65-3-4.45-4.13-9.8-6.07-10-8.33-13.14-8.15-3.91.24-3.25,3.6-8.16,4.65-4.41.95-6.84-1.36-13.52-.05a19.76,19.76,0,0,0-2.7.69c-9.21,3.22-11.3,11.09-19.71,10.81a16.64,16.64,0,0,1-12.08-6.36c-5-6.43-1.78-13.31-1.27-29.25a122.77,122.77,0,0,0-2.55-29.25c-2.89-13-9.49-29.24-14-28.62-2.28.31-2.79,4.79-7,23.53-4.81,21.41-5.11,19.85-6.36,27.34-2.72,16.3-.27,17.62-1.91,36.89-1.32,15.47-2.48,29.14-8.9,45.14-4.42,11-7.7,14.08-12.09,27.35A137.59,137.59,0,0,0,7.63,427.34Z"/>
    </g>
  </g>
</svg>
