<svg xmlns="http://www.w3.org/2000/svg" width="783.82" height="457.52" viewBox="0 0 783.82 457.52">
  <defs>
    <style>
      .cls-1 {
        fill: #4f3118;
      }
    </style>
  </defs>
  <title>BgRock_18</title>
  <g id="Layer_2" data-name="Layer 2">
    <g id="Resources">
      <path class="cls-1" d="M0,0A79,79,0,0,0,9.46,15.37c3.87,4.92,7.44,9.46,13,13,12.9,8.21,24.15,3.14,27.19,9.46,2.24,4.64-3.5,8.06-2.36,16.55.39,2.88,1.42,5.29,9.46,15.37,9.54,12,12.06,13.58,18.91,22.46,8.08,10.48,7.08,11.5,10.64,14.19,9.88,7.45,23.36,4,33.11,2.37,9-1.54,32,.94,78,5.91,16.46,1.77,31,3.34,50.84,7.09,12,2.26,9.55,2.23,60.29,15.37,32.18,8.33,41.51,10.5,47.29,20.1,5.18,8.57,6.61,21.56,7.1,26,1.07,9.73-.43,11.08,0,20.09.54,11.53,4.7,22.42,13,43.75,5.51,14.14,8.26,21.21,10.64,24.82,10.33,15.66,24.43,23.26,31.92,27.2s20.12,7,44.93,13c18.21,4.38,36.23,9.55,54.38,14.19,20.75,5.3,26.61,6.68,31.92,13,6.56,7.82,8.37,18.53,10.64,31.92,2,11.93.39,11.74,2.36,21.28a88,88,0,0,0,14.19,33.1c4.1,5.68,9.17,12.67,17.73,17.74,14.62,8.64,26.72,4.15,59.12,4.73,4.37.07,14.34.84,34.28,2.36,32.46,2.48,44.9,4.17,73.3,5.91,9.81.6,17.74,1,22.46,1.18q-.59-225.79-1.18-451.61Z"/>
    </g>
  </g>
</svg>
