<svg xmlns="http://www.w3.org/2000/svg" width="242.969" height="234.666" viewBox="0 0 242.969 234.666">
  <title>BgRock_13</title>
  <path d="M8.908,234.666H235.3a41.55,41.55,0,0,0,7.246-15.411c1.119-4.766-.113-11.635-2.166-25.287,0,0-.379-2.518-1.68-7.633-1.336-5.255-1.937-6.121-2.511-6.7-2.3-2.3-5.949-1.712-9.376-1.569a43.062,43.062,0,0,1-18.229-3.179c-6.63-3.211-7.293-13-10.175-31.8-3.842-25.06,1.34-26.492-1.907-48.329-3.081-20.721-7.9-20.465-11.447-45.785-1.022-7.3-1.529-13.8-4.451-23.529-.68-2.263-7.969-26.145-13.354-25.437-2.043.269-3.269,4.006-10.175,48.966a142.435,142.435,0,0,1-4.133,20.093c-3.662,12.591-6.618,15.48-9.857,24.42-5.668,15.647-.972,18.828-5.723,46.422-3.857,22.4-7.882,25.7-10.81,26.708-2.138.733-6.966-.985-16.534-4.451-11.05-4-15.045-6.155-22.257-6.36-3.553-.1-4.429,1.076-9.539,1.272-5.367.207-8.936-.518-9.952,1.29-.643,1.144.418,2.088.014,4.843a11.253,11.253,0,0,1-1.508,4.042c-4.288,7.8-3.544,9.91-6.248,12.23-2.14,1.837-5.52,2.048-12.193,2.4-8.7.453-9.513-.759-15.9-.212-7.791.667-7.011,2.508-15.262,3.391-8.637.925-13.549-.659-15.429,2.311-.664,1.049-.6,2.685-.469,5.956A45,45,0,0,0,2.323,201.2C3.707,208.227.164,211.63.005,217.5-.1,221.529,1.37,227.352,8.908,234.666Z" fill="#4f3118"/>
</svg>
