<svg xmlns="http://www.w3.org/2000/svg" width="588.21" height="197.72" viewBox="0 0 588.21 197.72">
  <defs>
    <style>
      .cls-1 {
        fill: #4f3118;
      }
    </style>
  </defs>
  <title>BgRock_4</title>
  <g id="Layer_2" data-name="Layer 2">
    <g id="Resources">
      <path class="cls-1" d="M29.26,197.72h559c-19.68-4.88-27.56-12.79-31-19.38-2.39-4.52-3.64-10.19-9.69-18.74-3.85-5.43-5.16-5.71-8.4-11-3.48-5.65-3.92-8.49-7.76-17.45-1.65-3.86-1.65-3.52-7.11-14.86C511.65,90.19,510.52,87.52,509.35,84a155.71,155.71,0,0,1-4.84-19.06c-1.14-5.59-1.86-10.59-3.23-20.35-1.88-13.3-1.77-14.4-2.91-21.33C495.94,8.49,494.55.07,492.55,0c-3-.1-5.95,18.45-11.63,53.63-2,12.52-4.38,25-6.46,37.48a156,156,0,0,1-7.11,28.43c-3.66,10.29-5.59,15.5-10.34,18.74-6.43,4.4-15.18,4.32-25.4,4.23-8.25-.07-9.58-1.2-13.37.29-7.67,3-7.8,9.85-14.21,12.92-5.53,2.65-11.39.44-20.68-3.23-4.09-1.61-15.71-6.52-34.89-22-13.11-10.55-12.37-12-18.74-14.86-11.26-5-19.8-3.14-22.61-9-1.41-3,.78-3.32.71-14.22,0-5.7-.64-7.93-.07-13.57.43-4.16.88-4.08,1.25-7.68.46-4.44,1.45-13.92-2.57-16.81-3-2.17-7.4.35-14.83,3.17a160,160,0,0,1-29.08,7.11c-10.27,1.6-10-.78-32.31-1.94-9.6-.5-8.56,0-41.35,0-24.36,0-22.38-.28-27.14,0-15.16.87-28.36,1.63-43.94,7.11-12.76,4.48-17.15,8.62-28.43,9-5.17.19-10.34.47-15.51.65C63,79.85,60,79.79,58.33,82.06c-2.9,3.93.57,11.31,1.94,14.22.78,1.65,2.55,4.06,6.07,8.83,7.86,10.65,8.39,11.35,9.44,13.14,2.75,4.66,2,4.71,5.82,12.62,5.17,10.6,7.52,12.41,6.46,14.52-1.3,2.57-5.91,2.14-20.68,1.93-10.76-.14-16.14-.22-20.68,0-14.11.69-14.4,2.8-27.13,3.23-12.38.42-15.74-1.45-18.1,1.3-5.43,6.31,5.81,23.82,7.11,25.84A64.48,64.48,0,0,0,29.26,197.72Z"/>
    </g>
  </g>
</svg>
