<svg xmlns="http://www.w3.org/2000/svg" width="384.43" height="571.66" viewBox="0 0 384.43 571.66">
  <defs>
    <style>
      .cls-1 {
        fill: #4f3118;
      }
    </style>
  </defs>
  <title>BgRock_8</title>
  <g id="Layer_2" data-name="Layer 2">
    <g id="Resources">
      <path class="cls-1" d="M37,0H369.68A171.77,171.77,0,0,1,356.5,30.39c-6.66,12-8.64,12.2-13.05,21.19-11,22.4-3.13,30.45-12.37,40.34-10.86,11.62-26.77,6-32.92,18.57-1.31,2.68-1.41,6-1.62,12.71-.56,18.12,4,24.41,3.29,37.78-.49,9.09-2.68,7.55-5,20.5-4,22,2.31,26.85-.74,49.32-1.57,11.53-3.38,11.37-5.75,27.93-1.67,11.58-1.95,19.77,0,28.74,1.5,6.94,2.53,11.68,6.57,15.61,7.14,6.93,14.48,2.38,21.35,8.21,5.53,4.69,4.79,11,7.4,27.93,2.17,14.1,2.88,10.91,6.57,30.39,4,21.12,3.52,26.77,8.21,64.89,4.55,36.94,6.52,44,8.21,49.28,4.26,13.25,7.59,17.69,17.25,38.6,5.24,11.33,12.61,28.1,20.54,49.28H0a151.81,151.81,0,0,1,14.82-51.74c9.53-19.17,14.84-19.06,23.82-39.43,7.45-16.92,11.63-34.79,15.6-51.74,2.2-9.38,5.19-18.56,7.39-27.93,3.27-13.89,3.71-18.39,8.22-22.18,5.73-4.82,10-1.75,21.35-7.39,4.37-2.17,10.42-5.18,14-10.68,5.16-8,1.43-15.6,0-29.56-2.09-20.47,4-22.5,4.11-48.46,0-13.74-1.65-15.56-3.28-33.68-4.23-46.88,5.46-53.61-2.47-83-5.73-21.21-15-33.21-19.71-38.6A77.12,77.12,0,0,0,70.67,115c-14.74-10.78-22.46-8-27.93-15.61-4.26-5.95-.28-8.67-.82-32C41.44,46.47,38.21,46.48,39.46,32a84.17,84.17,0,0,0,0-20.53A76.23,76.23,0,0,0,37,0Z"/>
    </g>
  </g>
</svg>
