<svg xmlns="http://www.w3.org/2000/svg" width="268.606" height="266.526" viewBox="0 0 268.606 266.526">
  <title>BgRock_23</title>
  <path d="M16.618,266.526h249.2c-27.041-14.677-33.858-28.137-35.011-37.8-.734-6.15.992-9.389,0-23.261-.979-13.693-1.485-20.771-5.815-28.106-6.448-10.922-13.228-8.612-19.384-19.384-2.82-4.934-3.132-8.455-4.846-27.137-2.962-32.3-2.985-32.207-2.907-32.952,1.586-15.243,8.168-25.96,18.414-42.644a185.176,185.176,0,0,1,19.384-26.168A182.813,182.813,0,0,1,268.606,0H0C19.15,23.22,31.28,43.143,36,54.274a88.235,88.235,0,0,1,5.816,22.292c.866,6.573.382,8.545,0,9.692C39.37,93.6,32.1,94.028,24.371,100.8c-8.577,7.511-11.434,17.322-12.6,21.322-2.287,7.853-.583,10.228,0,29.076.584,18.868-1.027,19.629,0,31.983,1.159,13.947,3.81,20.181,5.815,30.045C20.049,225.333,21.565,243.055,16.618,266.526Z" fill="#4f3118"/>
</svg>
