<svg xmlns="http://www.w3.org/2000/svg" width="596.37" height="159.15" viewBox="0 0 596.37 159.15">
  <defs>
    <style>
      .cls-1 {
        fill: #4f3118;
      }
    </style>
  </defs>
  <title>BgRock_5</title>
  <g id="Layer_2" data-name="Layer 2">
    <g id="Resources">
      <path class="cls-1" d="M.94,159.15H596.37c-.52-6.46-2.88-26.37-15.78-33.05a53.78,53.78,0,0,0-10.68-3.56,109.93,109.93,0,0,0-21.35-3.05c-9.58-.61-11.19.13-15.77-1.52a33.71,33.71,0,0,1-10.17-6.11,52.19,52.19,0,0,1-11.69-13.72c-4.44-7.16-9.26-14.94-13.73-28-5.78-16.85-4.07-22.38-11.19-36.61-2.62-5.25-7.17-14.37-11.18-13.73-1.35.22-2.45,1.51-9.15,22.37C464,47.39,463,50.8,461,56c-2.27,6.07-3.4,9.1-4.5,11.12-5.76,10.6-12.39,9.79-20.34,21.35-1.85,2.71-.83,1.79-6.1,10.68-8,13.53-9.67,14.47-11.18,14.75-5.19.94-7.31-6.3-16.78-9.15-4.79-1.45-6.67-.33-14.75,0-10.67.42-23.81,1-34.07-6.11-5.81-4-8.73-9.08-11.69-14.23-4.06-7.06-4.93-12-8.14-24.41-5-19.4-7.54-29.11-9.66-29s-2.47,9.76-7.62,35.08c-2.64,12.93-4.51,20-10.17,27-3,3.65-5.72,5.65-11.19,9.66-9.79,7.17-17.67,13-27.46,14.75-5.12.94-5.07-.25-32.54-6.61-18.89-4.38-23.27-4.82-30.51-9.16-2.53-1.52-3.28-2.23-15.25-12.2C168.18,72.1,168.94,73,168.22,72.2,160,62.88,162,57.2,152,25.93,144,1.29,141.22,0,139.75,0c-4,.11-6.91,10.81-11.09,26.29-5.28,19.62-3.17,21.12-7.72,31.68-5.34,12.36-8.53,11-13.73,24.4-3.68,9.51-3.7,14.38-8.65,17.29-4.32,2.54-9.88,2.09-16.78,1.53A58.25,58.25,0,0,1,71.19,99.3C66,97.84,65.41,96.83,62,96.1c-5.2-1.1-9.45,0-13.54,1-8.48,2.15-8.52,4.73-16.46,6.61-7.23,1.71-9.44.1-11.44,2.36-3.63,4.1,2.7,10.5-.25,17.47-2.79,6.57-10.32,5.33-15.76,11.69C1.43,138.83-1.58,145.53.94,159.15Z"/>
    </g>
  </g>
</svg>
