<svg xmlns="http://www.w3.org/2000/svg" width="299.479" height="267.495" viewBox="0 0 299.479 267.495">
  <title>BgRock_21</title>
  <path d="M28.107,267.5H253.929a105.077,105.077,0,0,0-6.787-38.767c-5.178-13.427-9.158-14.846-21.322-40.706-5.795-12.32-2.748-7.442-10.661-25.2-5.721-12.84-7.374-15.526-6.784-20.353.958-7.832,6.38-9.493,13.569-21.322,4.126-6.789,3.143-7.564,8.722-20.353,4.816-11.038,9.349-18.989,18.415-34.89,7.17-12.577,10.755-18.865,14.538-24.23,7.208-10.225,14.358-18.19,23.26-28.107C292.022,7.84,296.408,3.2,299.479,0H0C4.256,9.176,10.232,22.767,16.476,39.737,20.85,51.624,23.037,57.567,24.23,63c6.682,30.415-6.4,39.679,1.938,54.275,9.039,15.829,29.417,13.681,32.952,30.044.681,3.148-.332,2.032,0,13.569.486,16.837,2.67,20.166.97,27.137-1.849,7.577-5.2,6.8-11.631,17.445-5.723,9.474-5.616,14.3-12.6,37.8C34.168,248.956,31.589,257.33,28.107,267.5Z" fill="#4f3118"/>
</svg>
