<svg xmlns="http://www.w3.org/2000/svg" width="708.21" height="201.95" viewBox="0 0 708.21 201.95">
  <defs>
    <style>
      .cls-1 {
        fill: #4f3118;
      }
    </style>
  </defs>
  <title>BgRock_17</title>
  <g id="Layer_2" data-name="Layer 2">
    <g id="Resources">
      <path class="cls-1" d="M708.21,1.29V188.75C628,196.49,566.73,200.53,537.63,201.6c-44.39,1.63-29.52-3.07-56.87-1.29-11.22.73-18.77,1.85-25.43-3.16-9.66-7.27-7.53-20-19.27-27.55-4.6-3-9.09-3.68-13.45-4.18-47.81-5.52-127.94-1.3-127.94-1.3-7.69.41-42.46,2.13-87.88,0-11.32-.53-29.51-2.08-65.9-5.17-24.31-2.06-42-3.71-64.62-7.75-44-7.85-52-15-55.57-22-4.15-8.16.31-11.11-3.88-31C14,84.76,11.33,83.13,6.49,65.91,1,46.22-1.82,36.37,1.32,31c4.86-8.31,16.61-7,63.32-9,31.53-1.38,25.92-2,49.11-2.59,34.89-.94,44.26.46,63.32,0,36.53-.87,48.27-7.13,86.59-12.92,23.63-3.57,51.07-4.1,106-5.17C431,.1,434.31,2,511.78,1.29,562.1.85,570.35,0,615.17,0,654.42,0,686.65.7,708.21,1.29Z"/>
    </g>
  </g>
</svg>
