<svg xmlns="http://www.w3.org/2000/svg" width="617.541" height="215.69" viewBox="0 0 617.541 215.69">
  <title>BgRock_26</title>
  <path d="M541.94,196.716c-13.825-4.868-58.135-2.24-146.757,3.016-91.784,5.443-82.222,8.8-136.7,10.052-74.969,1.726-66.442-5.238-113.586-1.006-47.537,4.267-87.309,14.14-96.5-2.01-4.09-7.189,1.629-12.944-1-32.166-1.858-13.562-6.359-22.766-13.067-36.187C15.44,100.643,1.4,96.074.145,74.084c-.266-4.694-1-17.544,7.037-27.14C17.349,34.8,35.57,35.013,45.379,34.881c32.436-.434-13.438-4.843,126.653-20.1,55.093-6,39.394-2.837,74.384-7.037,59.341-7.122,78.435-13.1,97.5,0,2.8,1.927,12.591,12.007,32.166,32.166,22.741,23.422,20.331,22.124,24.124,25.13,8.149,6.458,18.985,12.221,82.425,20.1,31.883,3.961,47.824,5.942,57.3,6.031,33.916.317,49.7-5.365,63.326,6.031,12.092,10.115,13.788,26.415,14.073,29.15,1.17,11.242-2.555,19.71-10.052,36.187-9.322,20.489-13.985,30.735-24.124,36.186C568.134,206.8,550.015,199.559,541.94,196.716Z" fill="#4f3118"/>
</svg>
