<svg xmlns="http://www.w3.org/2000/svg" width="422.346" height="93.265" viewBox="0 0 422.346 93.265">
  <title>BgRock_3</title>
  <path d="M5.768,93.265H417.745c2.823-5.467,6.925-15.5,2.954-24.191-1.808-3.954-4.3-5.469-14.216-12.077-15-10-24.488-16.319-33.6-23.262-2.471-1.883-6.817-5.348-15.508-12.277-6.542-5.216-10.526-8.439-16.39-12.513-7.921-5.5-11.963-8.265-15.917-8.81-2.73-.376-6.242-.278-18.093,4.523C296.208,9.02,293.7,11.132,287.59,13.7c-7.8,3.286-15.642,4.174-31.015,5.816-7.01.748-16.26,1.517-32.308,1.938-18.731.492-28.1.737-39.415,0-28.791-1.875-43.052-7.61-50.4,0a69.726,69.726,0,0,0-9.692,13.569c-.752,1.385-1.963,3.74-3.231,6.462-2.713,5.828-2.947,7.454-3.877,9.046C114.409,56.091,105.364,56.67,98.913,57c-19.329.978-34.546.653-34.893.646-35.5-.756-30.762,2.138-41.354,0-7.317-1.477-14.253-3.8-18.738,0C.533,60.522.281,65.439.051,69.92A43.458,43.458,0,0,0,5.768,93.265Z" fill="#4f3118"/>
</svg>
