<svg xmlns="http://www.w3.org/2000/svg" width="588.213" height="197.724" viewBox="0 0 588.213 197.724">
  <title>BgRock_4</title>
  <path d="M29.258,197.724H588.213c-19.678-4.884-27.563-12.794-31.045-19.384-2.389-4.522-3.638-10.186-9.693-18.739-3.847-5.435-5.157-5.711-8.4-10.985-3.472-5.647-3.913-8.49-7.754-17.446-1.653-3.856-1.652-3.516-7.107-14.861C511.653,90.188,510.518,87.524,509.352,84a157.12,157.12,0,0,1-4.846-19.062c-1.138-5.59-1.851-10.587-3.231-20.354-1.878-13.3-1.768-14.393-2.908-21.323C495.937,8.485,494.553.068,492.552,0c-2.986-.1-5.95,18.455-11.631,53.631C478.9,66.146,476.538,78.6,474.46,91.108a156.594,156.594,0,0,1-7.108,28.431c-3.666,10.287-5.6,15.5-10.339,18.739-6.432,4.4-15.179,4.321-25.4,4.232-8.244-.073-9.583-1.2-13.365.291-7.669,3.015-7.8,9.849-14.215,12.923-5.526,2.65-11.391.434-20.677-3.231-4.094-1.615-15.712-6.525-34.893-21.969-13.114-10.559-12.366-12.034-18.738-14.862-11.262-5-19.8-3.143-22.616-9.046-1.408-2.956.784-3.317.719-14.216-.034-5.7-.647-7.933-.073-13.569.424-4.164.875-4.079,1.249-7.678.464-4.447,1.45-13.92-2.566-16.818-3-2.167-7.406.354-14.837,3.173a159.763,159.763,0,0,1-29.077,7.108c-10.269,1.608-10.029-.776-32.308-1.938-9.6-.5-8.559,0-41.354,0-24.355,0-22.382-.275-27.138,0-15.16.875-28.363,1.637-43.939,7.107-12.758,4.481-17.156,8.626-28.431,9.046-5.17.193-10.337.469-15.507.647-10.892.374-13.829.31-15.508,2.584-2.9,3.93.569,11.306,1.938,14.216.776,1.647,2.549,4.064,6.064,8.829,7.859,10.656,8.389,11.35,9.444,13.14,2.75,4.664,1.957,4.712,5.816,12.62,5.175,10.608,7.522,12.409,6.461,14.519-1.293,2.57-5.906,2.14-20.677,1.938-10.759-.147-16.138-.221-20.677,0-14.118.688-14.4,2.8-27.138,3.231-12.373.419-15.733-1.451-18.093,1.292-5.431,6.312,5.809,23.822,7.108,25.846A64.47,64.47,0,0,0,29.258,197.724Z" fill="#4f3118"/>
</svg>
