<svg xmlns="http://www.w3.org/2000/svg" width="299.48" height="267.5" viewBox="0 0 299.48 267.5">
  <defs>
    <style>
      .cls-1 {
        fill: #4f3118;
      }
    </style>
  </defs>
  <title>BgRock_21</title>
  <g id="Layer_2" data-name="Layer 2">
    <g id="Resources">
      <path class="cls-1" d="M28.11,267.5H253.93a104.87,104.87,0,0,0-6.79-38.77C242,215.3,238,213.88,225.82,188c-5.79-12.32-2.75-7.44-10.66-25.2-5.72-12.84-7.38-15.52-6.78-20.35,1-7.83,6.37-9.49,13.56-21.32,4.13-6.79,3.15-7.57,8.73-20.35,4.81-11,9.35-19,18.41-34.9,7.17-12.57,10.76-18.86,14.54-24.22,7.21-10.23,14.36-18.19,23.26-28.11C292,7.84,296.41,3.2,299.48,0H0C4.26,9.18,10.23,22.77,16.48,39.74,20.85,51.62,23,57.57,24.23,63c6.68,30.41-6.4,39.68,1.94,54.27,9,15.83,29.42,13.68,32.95,30.05.68,3.14-.33,2,0,13.56.49,16.84,2.67,20.17,1,27.14-1.85,7.58-5.2,6.8-11.63,17.45-5.72,9.47-5.62,14.3-12.6,37.8C34.17,249,31.59,257.33,28.11,267.5Z"/>
    </g>
  </g>
</svg>
