<svg xmlns="http://www.w3.org/2000/svg" width="484.651" height="583.278" viewBox="0 0 484.651 583.278">
  <title>BgRock_6</title>
  <path d="M0,583.278l484.651-.861C462.4,494.142,438.64,470.169,420.556,465.3c-4.9-1.321-19.789-4.037-34.561-15.5-8.439-6.55-8.4-12.374-22.464-27.557-9.058-9.778-13.706-14.692-19.58-15.944-9.954-2.121-15.2,4.3-26.571.646-3.831-1.23-6.486-3-11.665-6.459-5.364-3.581-10.155-6.779-14.258-12.273-3.878-5.193-5.225-9.873-7.777-18.732-2.056-7.14-1.918-8.976-3.888-18.087-1.56-7.213-1.908-7.27-7.129-26.483-3.725-13.709-5.587-20.564-6.48-24.546-3.852-17.174-2.625-18.673-5.833-23.9-6.355-10.352-15.377-11.327-14.906-16.794.48-5.567,9.927-5.63,14.258-14.857,2.18-4.643,1.787-8.889,1.3-14.21-.339-3.672-1.6-15.581-10.369-25.838-6.74-7.882-10.14-5.7-25.275-17.44-7.856-6.1-6.565-6.4-14.906-12.919-8.4-6.569-10.39-6.8-25.274-16.795-6.788-4.557-12.662-8.5-20.09-14.21-11.634-8.943-12.661-11.135-20.091-16.149-11.432-7.715-17.118-4.614-23.33-11.627-4.915-5.549-6.394-12.2-7.129-15.5-2.433-10.941,1.724-13.6-1.3-21.316-1.268-3.238-2.525-4.11-12.961-14.857C88.671,52,90.933,53.8,87.315,50.383,72.767,36.629,65.927,35.535,63.984,27.129c-.919-3.976.408-4.614-.648-12.272A65.1,65.1,0,0,0,59.448,0H1.089Z" fill="#4f3118"/>
</svg>
