<svg xmlns="http://www.w3.org/2000/svg" width="422.35" height="93.26" viewBox="0 0 422.35 93.26">
  <defs>
    <style>
      .cls-1 {
        fill: #4f3118;
      }
    </style>
  </defs>
  <title>BgRock_3</title>
  <g id="Layer_2" data-name="Layer 2">
    <g id="Resources">
      <path class="cls-1" d="M5.77,93.26h412c2.83-5.46,6.93-15.5,3-24.19-1.81-3.95-4.3-5.46-14.22-12.07-15-10-24.49-16.32-33.6-23.26-2.47-1.89-6.81-5.35-15.5-12.28C350.83,16.24,346.85,13,341,8.94c-7.92-5.5-12-8.26-15.91-8.81-2.73-.37-6.24-.27-18.09,4.53-10.77,4.36-13.28,6.47-19.39,9-7.8,3.29-15.64,4.18-31,5.82-7,.75-16.25,1.52-32.3,1.94-18.73.49-28.1.74-39.42,0-28.79-1.88-43-7.61-50.4,0A69.92,69.92,0,0,0,124.76,35c-.75,1.38-2,3.74-3.23,6.46-2.72,5.83-3,7.45-3.88,9-3.24,5.55-12.29,6.13-18.74,6.46-19.33,1-34.54.65-34.89.64-35.5-.75-30.76,2.14-41.35,0-7.32-1.47-14.26-3.8-18.74,0C.53,60.52.28,65.44.05,69.92A43.43,43.43,0,0,0,5.77,93.26Z"/>
    </g>
  </g>
</svg>
