<svg xmlns="http://www.w3.org/2000/svg" width="617.54" height="215.69" viewBox="0 0 617.54 215.69">
  <defs>
    <style>
      .cls-1 {
        fill: #4f3118;
      }
    </style>
  </defs>
  <title>BgRock_26</title>
  <g id="Layer_2" data-name="Layer 2">
    <g id="Resources">
      <path class="cls-1" d="M541.94,196.72c-13.82-4.87-58.14-2.24-146.76,3-91.78,5.44-82.22,8.8-136.7,10.05-75,1.73-66.44-5.23-113.59-1-47.54,4.27-87.31,14.14-96.5-2-4.09-7.19,1.63-13-1-32.17C45.53,161,41,151.84,34.32,138.42,15.44,100.64,1.4,96.07.15,74.08c-.27-4.69-1-17.54,7-27.14C17.35,34.8,35.57,35,45.38,34.88,77.81,34.45,31.94,30,172,14.78c55.09-6,39.4-2.84,74.39-7,59.34-7.12,78.43-13.1,97.5,0,2.8,1.93,12.59,12,32.16,32.17C398.83,63.33,396.42,62,400.21,65c8.15,6.45,19,12.22,82.42,20.1,31.89,4,47.83,5.94,57.3,6,33.92.32,49.7-5.36,63.33,6,12.09,10.12,13.78,26.42,14.07,29.15,1.17,11.24-2.56,19.71-10.05,36.19-9.33,20.49-14,30.74-24.13,36.19C568.13,206.8,550,199.56,541.94,196.72Z"/>
    </g>
  </g>
</svg>
