<svg xmlns="http://www.w3.org/2000/svg" width="384.425" height="571.662" viewBox="0 0 384.425 571.662">
  <title>BgRock_8</title>
  <path d="M36.993,0H369.679A171.511,171.511,0,0,1,356.5,30.39c-6.656,12.018-8.642,12.2-13.046,21.19-10.968,22.4-3.13,30.447-12.375,40.342-10.86,11.622-26.767,5.97-32.917,18.568-1.31,2.684-1.414,6.027-1.621,12.713-.56,18.117,4,24.407,3.286,37.773-.489,9.093-2.675,7.557-5,20.5-3.969,22.044,2.31,26.857-.745,49.326-1.567,11.532-3.371,11.368-5.749,27.926-1.664,11.586-1.944,19.768,0,28.747,1.5,6.938,2.529,11.68,6.571,15.606,7.138,6.934,14.478,2.383,21.355,8.213,5.531,4.69,4.783,11.026,7.392,27.926,2.177,14.1,2.887,10.914,6.571,30.39,4,21.124,3.52,26.772,8.213,64.887,4.549,36.943,6.519,44.007,8.214,49.282,4.26,13.256,7.582,17.691,17.248,38.6,5.236,11.327,12.614,28.1,20.534,49.281H0a151.856,151.856,0,0,1,14.816-51.745c9.537-19.167,14.842-19.053,23.819-39.425,7.455-16.918,11.639-34.793,15.606-51.745,2.194-9.376,5.189-18.552,7.392-27.926,3.266-13.893,3.708-18.386,8.214-22.177,5.736-4.825,10.03-1.758,21.355-7.392,4.365-2.171,10.414-5.181,13.963-10.678,5.15-7.976,1.428-15.6,0-29.568-2.093-20.462,4.016-22.491,4.107-48.46.048-13.741-1.654-15.557-3.286-33.676-4.221-46.876,5.468-53.613-2.464-82.956C97.788,144.7,88.529,132.7,83.81,127.31a77.2,77.2,0,0,0-13.142-12.32c-14.737-10.778-22.46-7.969-27.926-15.606-4.262-5.956-.285-8.67-.821-32.033-.48-20.885-3.707-20.872-2.464-35.318a83.588,83.588,0,0,0,0-20.534A76.141,76.141,0,0,0,36.993,0Z" fill="#4f3118"/>
</svg>
