<svg xmlns="http://www.w3.org/2000/svg" width="240.51" height="71.16" viewBox="0 0 240.51 71.16">
  <defs>
    <style>
      .cls-1 {
        fill: #4f3118;
      }
    </style>
  </defs>
  <title>BgRock_14</title>
  <g id="Layer_2" data-name="Layer 2">
    <g id="Resources">
      <path class="cls-1" d="M12.29,71.16h227c1.81-5.2,1.3-7.29.32-8.16-2-1.76-6.1,1.25-9.3-1.09-1.05-.77-1-1.36-2.47-3.78a30.61,30.61,0,0,0-5.45-6.7c-3.73-3.07-8.8-2.64-13.94-2.2-6.53.55-7.39,2.24-14,3-4.29.47-5.92,0-12.4-.42-5.27-.33-5.85-.07-21.63,0-18.8.08-18.23.31-21.3,0-15.16-1.56-18-7.9-28-7.63-1.23,0-5.32.23-6.59-2-.53-.91-.14-1.47-.19-4.84,0-2.45-.25-2.23-.43-5.72-.21-4.18.1-4.5-.42-5.51C102.49,24.07,100,23,98,22.73c-3.92-.53-5.34,2.29-9.46,2.12-1.88-.08-3.26-.73-6-2.33-7.14-4.15-9.19-6.3-12.84-8.48-.83-.5-6.34-2.28-17.37-5.83a73.44,73.44,0,0,1-12-4.56c-3.75-1.9-3.82-2.43-5.83-3.07-5.15-1.66-8.46.64-15.15,2C7.82,5,2.82,1.17.52,4.5-1.13,6.9,1.58,8.71,2.64,18.07c.87,7.63-.63,9.07,1.06,15,1.09,3.82,2,4.3,3,8.49a40.18,40.18,0,0,1,.85,10.48C7.51,56.54,8.37,62.93,12.29,71.16Z"/>
    </g>
  </g>
</svg>
