<svg xmlns="http://www.w3.org/2000/svg" width="339.88" height="551.82" viewBox="0 0 339.88 551.82">
  <defs>
    <style>
      .cls-1 {
        fill: #4f3118;
      }
    </style>
  </defs>
  <title>BgRock_1</title>
  <g id="Layer_2" data-name="Layer 2">
    <g id="Resources">
      <path class="cls-1" d="M6.46,551.82H243a349.75,349.75,0,0,1-18.1-72.37c-1.52-11.11-.31-6.43-3.87-53-4.35-56.82-5.84-59.86-2.59-71.07,5.36-18.47,14.34-27.19,10.14-41.76-3.25-11.22-10.31-12.06-12.14-23.27-1.9-11.67,4.95-15.74,10.7-35.77,4.81-16.76.85-16.79,5.52-36.19,2.25-9.36,3.23-9.59,14.21-38.77,7.75-20.58,11.62-30.86,14.22-38.77,7.11-21.64,6.55-24.5,11.63-31,2.33-3,14.06-17.28,31.19-18.4,13-.84,18.76,6.56,24.38,2.89,6.8-4.44,3.62-18.76,2.58-32.31-1.14-15-.18-35.93,9.05-62H42.6c36.65,31.05,42.84,57.68,44,71.08.36,4.25.24,9.73,0,20.67a530.59,530.59,0,0,1-5.17,62C78,178.19,78,167,69.79,211.94c-3.07,16.86-4.54,26.48-12.93,33.6s-15.88,5.05-22,12.92c-5.31,6.87-2.61,12.35-3.87,28.43C29.45,307,23.36,322.52,18.09,336c-6.36,16.29-7.92,14.06-11.63,25.85-3.46,11-4.18,19.56-5.17,45.23C.41,430,0,441.43,0,449.72.16,488.89,3.55,526.27,6.46,551.82Z"/>
    </g>
  </g>
</svg>
