<svg xmlns="http://www.w3.org/2000/svg" width="396.78" height="359.42" viewBox="0 0 396.78 359.42">
  <defs>
    <style>
      .cls-1 {
        fill: #4f3118;
      }
    </style>
  </defs>
  <title>BgRock_2</title>
  <g id="Layer_2" data-name="Layer 2">
    <g id="Resources">
      <path class="cls-1" d="M1.93,359.42H396.78c-2.28-6-5.84-14.79-10.86-25.2-5.44-11.27-8.15-16.91-9.87-18.74-17.54-18.75-58.52,1.63-68.51-14.24-2-3.14.16-3.09-2.57-12.9-3.89-14-9.05-17-12.27-27.79-2-6.53-.35-6.39-1.3-23.9a305.82,305.82,0,0,0-3.87-34.25c-3.86-22.09-6.57-19.75-7.76-34.25-1.93-23.65-1.29-32.3-1.29-32.3.34-4.57,1.11-11.76-3.23-17.45-2.33-3.05-4.31-3.28-7.11-5.82-5.35-4.85-6.84-11.93-7.75-21.32a181.28,181.28,0,0,1,0-34.89c2.82-25.71,7.32-31.7,2.58-40.71C258.43,7,249.51,3.43,246.17,2.09,231.58-3.76,225.38,4.37,196.42,6c-7.82.43-23.76.75-38.77.64-9.13-.06-14-.25-20,2.59-12.56,5.92-17.3,19-18.09,21.32-2.33,6.77-1.69,11.17,0,28.43,1.17,12.06,2.6,26.64,3.23,36.83,1.46,23.62-1.48,21.16,0,40.71,1.84,24.44,6.92,34.67,0,42-1.14,1.2-5.71,4.25-14.86,10.34-8.76,5.83-8.93,5.55-10.34,7.11-5.07,5.59-4.35,10.85-7.76,22.61-1.63,5.65-1.41,3.1-6.46,16.8-4.78,13-5.7,17.22-12.28,35.54-1.58,4.41-2.37,6.62-2.58,7.11-2.22,5.21-11.56,27.18-28.43,31.66-12.84,3.42-20.25-5.9-29.08,0-4.26,2.85-5.81,7.22-7.75,12.93C1.08,328.89-2.08,341.69,1.93,359.42Z"/>
    </g>
  </g>
</svg>
