<svg xmlns="http://www.w3.org/2000/svg" width="401.05" height="785.75" viewBox="0 0 401.05 785.75">
  <defs>
    <style>
      .cls-1 {
        fill: #4f3118;
      }
    </style>
  </defs>
  <title>BgRock_16</title>
  <g id="Layer_2" data-name="Layer 2">
    <g id="Resources">
      <path class="cls-1" d="M48.21,785.75H401.05c-6.94-47.35-6.12-84.56-3.88-110.51,1.9-21.92,5.45-43.21-1.94-71.73-3.45-13.31-8.57-25.46-17.45-46.52-13.09-31.08-14.91-29.91-21.32-46.53-12.39-32.1-14.8-60.22-17.45-91.12-1.94-22.65-3.05-34-1.94-48.47,1.88-24.51,7-33.16,3.62-53.44-2-12-4.68-14.14-6.88-28.92a153.32,153.32,0,0,1-.91-36.34c4-54.09-2-62.45,4.17-117.81,3.12-27.86,5.27-31.3,7.46-59.24,4.82-61.58-3.69-69.86-7.46-72.59C332.53-.77,326-2.56,282.79,8.34c-43.78,11.06-41.39,13.4-62,17.45-44.18,8.66-61.85-.95-79.48,15.51-8.71,8.13-12,17.26-15.51,27.14-10.14,28.33-3.36,50.06,0,83.37.41,4.08,3.76,38.8,0,75.6C120.4,279.79,106,284.29,102.49,334c-2.28,32.74,3.83,32.88,0,65.91-3.62,31.35-7.78,67.26-31,79.49C57,487.06,46.85,479.29,25,491.07c-7.7,4.14-19,10.21-23.27,21.33-6.37,16.49,6.8,33.19,15.51,50.4,14.63,28.87,8.37,42.66,13.57,106.63A888.94,888.94,0,0,0,48.21,785.75Z"/>
    </g>
  </g>
</svg>
