<svg xmlns="http://www.w3.org/2000/svg" width="704.327" height="567.664" viewBox="0 0 704.327 567.664">
  <title>DarkBgRock_11</title>
  <path d="M120.812,567.664h96.955c1.748-37.261,13.788-56.8,24.5-67.768,11.043-11.306,18.734-11.511,32.563-28.163,14.5-17.457,12-24.406,26.4-36.964,8.836-7.706,11.55-6.637,29.924-20.243,17.9-13.258,14.466-13.635,21.122-16.721,12.961-6.011,19.256-1.453,56.326-3.521,11.9-.664,11.333-1.138,15.842-.88,22.625,1.294,38.724,13.339,43.125,16.722,11.591,8.909,17.7,19.434,29.923,40.485,6.417,11.052,4.325,9.126,20.243,39.6,5.345,10.234,10.341,20.652,15.841,30.8,5.281,9.747,10.308,18.528,13.2,31.684a90.735,90.735,0,0,1,1.76,11.441H704.327c-20.068-37.382-22.271-63.143-20.252-80.089.716-6.009,2.736-17.391,2.64-34.324a254.658,254.658,0,0,0-3.52-38.724c-3.12-19.071-4.81-17.214-7.041-33.444-2.669-19.425-.487-23.828-5.28-34.324-2.422-5.3-6.848-14.994-16.722-20.242-10.567-5.616-18.105-1.218-22.883-7.041-3.449-4.2-1.292-8.654,0-22.882.575-6.326-.187-1.752,0-36.964.142-26.735.561-25.537,0-29.044-1.263-7.893-4.655-17-11.441-35.2-3.3-8.861-5-13.377-7.041-17.6-5.2-10.746-9.332-19.275-16.722-25.523-6.662-5.634-10.223-4.551-36.084-11.442-.724-.193-14.732-3.95-31.683-9.681-21.942-7.418-30.847-12.067-36.084-21.122-.115-.2-1.252-3.069-3.521-8.8-9.938-25.11-11.108-28.5-12.321-32.564-2.215-7.412-3.666-12.269-4.4-19.362-.84-8.107.022-11.74,0-20.242A130.378,130.378,0,0,0,469.331,0H0A131.655,131.655,0,0,0,11.68,44.005C19.241,60.1,25.425,64.07,30.162,80.969c3.14,11.2.985,11.465,5.28,30.8,1.939,8.726,4.52,16.378,9.682,31.683,5.176,15.348,7.854,21.36,13.2,22.883,4.441,1.265,6.659-1.726,11.441,0,1.763.636,5.748,2.589,10.561,14.081,3.567,8.515,4.947,15.959,6.161,24.643,1.524,10.9,1.728,16.173,2.64,25.523,1.406,14.4,3.211,25.346,4.4,32.563,4.55,27.59,7.567,31.412,4.4,40.485C95.7,310.023,93.635,309.756,87.368,323c-3.067,6.48-6.127,12.944-7.921,20.242-2.559,10.413-1.119,19.85,1.761,38.725,1.561,10.236,3.042,19.939,7.04,32.563,3.874,12.231,5.847,13.739,9.681,27.284a195.153,195.153,0,0,1,5.281,24.642c1.216,8.245,2.159,14.871,1.76,23.763-.256,5.716-.8,6.349-.88,11.441-.117,7.2.842,13.394,2.64,21.123C111.12,541.647,118.809,562.343,120.812,567.664Z" fill="#3f2714"/>
</svg>
