<svg xmlns="http://www.w3.org/2000/svg" width="321.771" height="269.434" viewBox="0 0 321.771 269.434">
  <title>DarkBgRock_1</title>
  <path d="M14.539,269.434h266.74c-32.343-22.141-39.572-39.453-39.95-51.367-.136-4.279.58-8.849,0-19.384-.664-12.043-2.179-16.585-4.846-33.921-2.8-18.174-4.169-27.4-2.908-33.922.844-4.366,3.313-17.146,13.569-26.168,10.3-9.059,16.964-4.226,26.168-12.6,7.124-6.481,4.831-10.925,13.568-31.983,5.418-13.058,10.9-22.445,16.477-31.984A327.765,327.765,0,0,1,321.771,0H0C8.545,28.25,20.969,42.543,31.016,50.4c6.016,4.7,17.465,12.014,20.352,25.2,1.1,5.042-.184,5.735,0,15.507.278,14.682,3.282,18.143,4.846,32.952,1.7,16.082,2.815,26.647-2.907,31.014-7.791,5.945-20.634-5.411-28.107.969-3.977,3.4-2.815,8.729-3.877,20.353-1.328,14.542-4.488,20.854-6.784,31.014C11.772,219.65,9.929,238.953,14.539,269.434Z" fill="#3f2714"/>
</svg>
