<svg xmlns="http://www.w3.org/2000/svg" width="345.302" height="427.339" viewBox="0 0 345.302 427.339">
  <title>DarkBgRock_18</title>
  <path d="M7.632,427.339H345.3V0H0C7.1,11.536,12.669,21.509,16.728,29.1,25,44.566,29.143,52.3,31.607,60.528c4.311,14.392,3.434,22.913,6.611,23.42,3.674.586,8.554-10.221,14.563-23.529,6.539-14.48,5.127-19.325,10.175-22.257,5.793-3.365,8.946,1.564,24.164.954,11.522-.462,15-3.5,19.925-.514,4.07,2.468,2.065,4.769,8.391,13.878,4.876,7.023,9.375,10.417,11.111,16.842a17.64,17.64,0,0,1,.81,6.46c-.288,3.586-1.649,4.661-1.128,6.576.738,2.714,4.12,2.944,7.647,5.087,5.819,3.535,4.152,7.488,9.84,13.672,5.446,5.922,8.273,3.712,15.761,10.641,3.048,2.82,4.833,5.328,8.4,10.344,6.209,8.724,9.314,13.086,10.81,17.806,3.781,11.925-2.74,15.641,1.272,28.616a59.676,59.676,0,0,1,2.862,12.309c.194,1.676.2,2.438.318,8.676.273,13.931.346,15.428.954,17.805,1.4,5.494,2.752,4.3,4.769,10.493,2.308,7.091.787,9.411,2.7,18.963,1.307,6.518,2.341,11.676,4.292,11.879,3.53.366,9.181-15.583,11.389-29.888,1.514-9.809.563-13.977,3.237-27.98,2.087-10.933,4.337-17.142,9.8-20.56,2.362-1.476,5.535-1.883,8-2.333,4.883-.891,8.489-1.549,10.811.318,2.047,1.646.919,3.5,2.544,9.856,1.543,6.037,2.91,5.724,5.087,13.355a56.822,56.822,0,0,0,2.152,7.185c1.6,3.947,2.758,4.937,3.571,6.89,2.093,5.028-1.573,8.1-3.18,16.448-2.109,10.964,3.021,11.868.318,21.621-1.5,5.41-4.188,9.143-2.225,12.718.72,1.313,1.491,1.554,4.17,4.77,0,0,2.171,2.606,4,5.385,3.7,5.621.1,17.033-2.447,28-4.439,19.12-1.334,18.194-4.451,22.893-7.262,10.946-18.053,6.84-26.073,19.077-4.067,6.2-3.684,10.911-8.837,13.513-1.988,1.005-6.039.557-14.056-.159-8.825-.788-10.746-1.614-12.256-2.577-4.361-2.778-3.009-5.227-6.5-6.961-4.754-2.36-8.211,1.7-19.4,1.271-.389-.014-1.985-.169-5.178-.477-11.592-1.121-13.4-1.632-14.285-3.138-1.1-1.861.415-3.193-.886-5.923-.98-2.056-2.656-3.021-4.452-4.134-9.8-6.07-9.952-8.334-13.142-8.144-3.9.232-3.25,3.6-8.161,4.647-4.412.944-6.839-1.366-13.515-.053a19.8,19.8,0,0,0-2.7.689c-9.209,3.223-11.3,11.1-19.714,10.81a16.62,16.62,0,0,1-12.082-6.359c-4.969-6.425-1.777-13.305-1.272-29.252A122.663,122.663,0,0,0,63.592,270.9c-2.9-13.006-9.487-29.233-13.99-28.616-2.285.314-2.79,4.793-6.995,23.529-4.807,21.414-5.111,19.851-6.359,27.344-2.715,16.3-.266,17.614-1.908,36.883-1.319,15.471-2.485,29.149-8.9,45.15-4.418,11.013-7.693,14.076-12.082,27.344A137.762,137.762,0,0,0,7.632,427.339Z" fill="#3f2714"/>
</svg>
