<svg xmlns="http://www.w3.org/2000/svg" width="311.74" height="360.021" viewBox="0 0 311.74 360.021">
  <title>DarkBgRock_3</title>
  <path d="M288.069,318.209c-5.57-6.394-5-10.516-10.941-38.977-4.119-19.716-3.925-15.489-8.206-36.242-4.13-20.019-6.207-30.263-6.838-41.713-.89-16.154-1.239-24.417,3.419-33.507,3.258-6.356,6.639-8.621,9.574-17.095a56.245,56.245,0,0,0,2.735-19.831c-.27-9.578-2.518-15.625-8.89-32.823-8.934-24.112-13.4-36.168-13.676-36.926-7.764-21.34-7.454-22.277-10.941-29.4C236.57,15.881,231.091,4.681,220.371.92c-7.893-2.77-11.3,1.066-34.874,6.838-11.314,2.769-6.875.991-41.029,7.522a411.139,411.139,0,0,0-42.4,10.257C85.246,30.6,80.827,33.183,78.138,37.846c-3.415,5.92-2.5,12.836-.684,26.668,1.944,14.766,4.069,14,4.1,21.883.076,17.518-10.39,30.395-12.992,33.506-4.786,5.724-9.484,8.955-14.36,12.309-13.549,9.318-17.1,6.492-28.721,15.044C18.3,152.543,13.605,158.08,7.705,165.035c-4.694,5.534-7.05,8.353-7.522,10.941-1.449,7.955,5.786,14.4,18.463,28.72,5.689,6.427,13.286,15.01,19.831,23.934,11.4,15.546,18.786,31,23.25,40.345,6.084,12.736,7.327,17.568,13.676,25.985,5.425,7.192,10.056,13.332,17.779,17.1,12.173,5.932,18.358-.7,41.029,0,5.282.164,16.286,2.389,38.293,6.838,17.634,3.566,26.619,5.405,34.875,8.206,9.809,3.327,8.374,3.808,28.72,11.625,13.381,5.141,15.043,5.333,25.3,9.573,13.161,5.44,13.587,6.43,19.831,8.206,7.772,2.211,23.436,6.668,28.72,0,5-6.3-1.98-19.157-2.735-20.514C301.622,325.932,295.2,326.4,288.069,318.209Z" fill="#3f2714"/>
</svg>
