<svg xmlns="http://www.w3.org/2000/svg" width="339.88" height="551.818" viewBox="0 0 339.88 551.818">
  <title>DarkBgRock_12</title>
  <path d="M6.463,551.818H242.957a350.032,350.032,0,0,1-18.093-72.37c-1.524-11.1-.317-6.426-3.877-52.985-4.344-56.822-5.841-59.861-2.584-71.077,5.361-18.465,14.341-27.185,10.133-41.753-3.243-11.225-10.31-12.058-12.135-23.272-1.9-11.673,4.949-15.737,10.7-35.775,4.81-16.753.849-16.79,5.516-36.185,2.252-9.358,3.231-9.588,14.215-38.77,7.745-20.576,11.618-30.864,14.216-38.769,7.111-21.64,6.554-24.506,11.631-31.015,2.331-2.99,14.061-17.276,31.188-18.393,12.989-.847,18.764,6.552,24.381,2.885,6.806-4.443,3.62-18.758,2.585-32.308C329.688,47.036,330.65,26.1,339.88,0H42.6C79.25,31.053,85.435,57.676,86.587,71.077c.365,4.254.243,9.728,0,20.677a528.811,528.811,0,0,1-5.17,62.031c-3.431,24.407-3.453,13.254-11.63,58.154-3.071,16.858-4.534,26.485-12.924,33.6-8.409,7.133-15.887,5.052-21.969,12.924-5.309,6.872-2.617,12.351-3.877,28.43C29.445,306.962,23.365,322.517,18.094,336c-6.366,16.285-7.923,14.056-11.631,25.847C3,372.863,2.285,381.407,1.294,407.078.41,429.977-.031,441.426,0,449.725.158,488.889,3.553,526.269,6.463,551.818Z" fill="#3f2714"/>
</svg>
