<svg xmlns="http://www.w3.org/2000/svg" width="567.383" height="574.012" viewBox="0 0 567.383 574.012">
  <title>DarkBgRock_14</title>
  <path d="M269.2,0H562.366a178.672,178.672,0,0,0,0,41.881c2.712,22.49,8.318,31.289,2.42,40.649-6.417,10.18-18.084,7.757-24.6,19.626-4.009,7.306-2.914,14.29-2.46,21.022.556,8.264-2.964,25.208-9.855,59.126-1.47,7.238-.521,2.074-14.781,60.358-2.661,10.873-5.592,22.9-12.318,38.185-2.388,5.428-3.38,7.007-8.622,17.245-14.073,27.484-21.11,41.226-24.636,52.967-2.449,8.151-3.685,18.162-6.159,38.185-2.571,20.809-1.985,26.1-4.927,45.576a315.361,315.361,0,0,1-6.159,32.026c-3.678,14.613-5.192,15.533-14.782,44.345-7.7,23.15-8.387,27.545-13.549,38.185a162.32,162.32,0,0,1-14.782,24.636H1.9C-2.12,563.127.378,551.374,8.06,544.449c4-3.61,7.4-3.424,18.477-6.159,14.12-3.486,26.959-6.656,38.185-14.781,8-5.789,12.6-12.227,19.709-22.173a121.348,121.348,0,0,0,13.549-23.4c2.958-6.825,7.774-18.2,8.623-33.259.3-5.323-.268-4.5,0-12.317.516-15.044.782-22.819,4.927-28.332,3.4-4.524,7.74-5.3,23.4-8.622,40.091-8.51,33.613-8.1,45.576-9.854,27.959-4.1,27.218-1.033,36.954-4.927,4.3-1.722,25.19-10.078,33.258-29.563,5.316-12.84-.071-18.105,6.159-25.868,7.317-9.118,16.423-3.94,35.721-12.318,6.5-2.821,15.009-9.271,32.027-22.172,12.27-9.3,14.683-12.019,25.867-19.708,11.239-7.727,12.106-7.253,16.014-11.086,4.03-3.954,15.1-16.221,14.781-32.027-.276-13.73-9-23.194-16.013-30.794-3.553-3.853-9.789-9.9-50.5-33.259-14.372-8.246-17.508-9.739-20.941-14.781-3.859-5.669-4.229-10.148-8.622-36.954-3.018-18.41-2.634-15.02-3.7-22.172-3.557-23.957-2.214-23.937-4.927-39.417-2.624-14.974-4.537-18.735-6.159-33.258C269.619,9.977,269.322,3.969,269.2,0Z" fill="#3f2714"/>
</svg>
