<svg xmlns="http://www.w3.org/2000/svg" width="567.38" height="574.01" viewBox="0 0 567.38 574.01">
  <defs>
    <style>
      .cls-1 {
        fill: #3f2714;
      }
    </style>
  </defs>
  <title>DarkBgRock_14</title>
  <g id="Layer_2" data-name="Layer 2">
    <g id="Resources">
      <path class="cls-1" d="M269.2,0H562.37a178.52,178.52,0,0,0,0,41.88c2.71,22.49,8.32,31.29,2.42,40.65-6.41,10.18-18.08,7.76-24.59,19.63-4,7.3-2.92,14.29-2.46,21,.55,8.26-3,25.21-9.86,59.12-1.47,7.24-.52,2.08-14.78,60.36-2.66,10.88-5.59,22.9-12.32,38.19-2.38,5.43-3.38,7-8.62,17.24-14.07,27.49-21.11,41.23-24.63,53-2.45,8.15-3.69,18.16-6.16,38.18-2.57,20.81-2,26.1-4.93,45.58a315.28,315.28,0,0,1-6.16,32c-3.68,14.61-5.19,15.53-14.78,44.34-7.71,23.15-8.39,27.55-13.55,38.19A162.24,162.24,0,0,1,407.16,574H1.9c-4-10.88-1.52-22.64,6.16-29.56,4-3.61,7.4-3.42,18.48-6.16,14.12-3.49,27-6.66,38.18-14.78,8-5.79,12.6-12.23,19.71-22.17A121.42,121.42,0,0,0,98,477.93c3-6.82,7.77-18.2,8.62-33.26.3-5.32-.27-4.5,0-12.31.52-15.05.79-22.82,4.93-28.33,3.4-4.53,7.74-5.3,23.4-8.63,40.1-8.51,33.62-8.1,45.58-9.85,28-4.1,27.22-1,37-4.93,4.31-1.72,25.19-10.08,33.26-29.56,5.32-12.84-.07-18.11,6.16-25.87,7.32-9.12,16.42-3.94,35.72-12.32,6.5-2.82,15-9.27,32-22.17,12.27-9.3,14.68-12,25.87-19.71s12.1-7.25,16-11.08,15.1-16.22,14.78-32c-.28-13.73-9-23.19-16-30.79-3.56-3.86-9.79-9.9-50.51-33.26-14.37-8.25-17.5-9.74-20.94-14.78-3.85-5.67-4.23-10.15-8.62-37-3-18.41-2.63-15-3.69-22.17C278,66,279.3,66,276.59,50.5c-2.63-15-4.54-18.73-6.16-33.25C269.62,10,269.32,4,269.2,0Z"/>
    </g>
  </g>
</svg>
