<svg xmlns="http://www.w3.org/2000/svg" width="340.054" height="254.302" viewBox="0 0 340.054 254.302">
  <title>DarkBgRock_4</title>
  <path d="M1.021,52.071C5.687,75.245,24.011,78.634,58,115.752c13.709,14.972,22.525,27.3,35.751,45.806,31.687,44.326,27.7,50.26,44.688,64.8,2.882,2.466,32.608,27.2,73.736,27.93,25.441.449,23.142-8.856,63.681-13.406,32.836-3.686,51.908.448,60.33-12.29,4.979-7.53,3.958-17.516,3.351-23.461-1.317-12.9-6.765-17.513-12.289-30.165-3.045-6.972-2.357-7.786-8.938-50.274-1.306-8.433-3.485-22.293-6.7-39.1-5.987-31.267-8.151-33.981-10.055-35.75-9.128-8.481-20.352-2.751-58.095,0-20.438,1.489-39.5,2.763-63.681-1.117-13.534-2.172-26.074-4.184-41.337-11.173-12.8-5.858-17.154-10.476-36.868-20.109C89.6,11.59,83.62,8.666,75.874,6.266,65.346,3,30.821-7.7,12.193,9.617.991,20.028-1.795,38.088,1.021,52.071Z" fill="#3f2714"/>
</svg>
