<svg xmlns="http://www.w3.org/2000/svg" width="379.028" height="531.122" viewBox="0 0 379.028 531.122">
  <title>DarkBgRock_7</title>
  <path d="M10.705,531.122H379.028c-46.149-20.073-66.532-46.859-75.628-62.028-5.572-9.29-18.1-32.884-26.168-63.966-6.351-24.467-5.005-34.57-15.507-49.429-11.749-16.622-21.638-15.586-32.953-31.983-6.441-9.334-9.449-18.673-13.568-47.49-5.812-40.652-3.911-50.643-7.754-81.411-5.354-42.872-10.844-37.886-13.569-72.689-2.3-29.376,1.082-39.7-2.907-72.689C188.282,27.169,185.063.543,178.375.008c-12.336-.986-29.262,87.348-32.953,106.611-10,52.209-5.643,53.611-15.507,94.98a425.051,425.051,0,0,1-40.7,103.7C73.6,333.455,65.121,340.729,56.257,345.038c-21.95,10.671-41.026.624-51.367,13.569-5.418,6.783-3.538,13.744-2.907,35.86.874,30.656-2.4,29.227-1.939,56.213A364.43,364.43,0,0,0,10.705,531.122Z" fill="#3f2714"/>
</svg>
