<svg xmlns="http://www.w3.org/2000/svg" width="552.36" height="430.25" viewBox="0 0 552.36 430.25">
  <defs>
    <style>
      .cls-1 {
        fill: #3f2714;
      }
    </style>
  </defs>
  <title>DarkBgRock_17</title>
  <g id="Layer_2" data-name="Layer 2">
    <g id="Resources">
      <path class="cls-1" d="M389.23,0H0V430.25H552.36a86.51,86.51,0,0,0-5.2-15.25c-1.91-4.25-2.95-6.52-5.08-8.77-3.94-4.16-8-4.47-13.9-6.53-12.92-4.5-14.9-10.51-33.06-19.07A40.8,40.8,0,0,0,488.7,378c-7.34-2.15-14.34-.93-62.27-11.72-25.1-5.65-32.88-8.08-44.84-4.77-14.76,4.09-26.34,14.28-32.43,9.54-3-2.35-1.66-6-6.68-14.31-3-4.92-5.67-7.27-7.63-9.54-6.91-8-7.1-17.73-8.58-29.57C324.92,307,320.46,271.27,311,270c-3.84-.53-7.61,4.75-12.4,11.45-8.8,12.32-6.72,18.52-13.36,24.8-8,7.55-19.81,6.92-25.75,6.68-2.56-.1-20.49-1.09-31.48-14.31-7.38-8.87-3.56-13.54-10.5-35.3-7.33-23-14-25.2-12.4-36.25,1.43-10.11,7.16-9.52,19-28.8,12-19.46,9.88-26.11,20.07-34.16,6.63-5.23,6.92-2,24.7-9.6C294.12,143.62,298,135.1,311,136.42c4.85.49,9.27,2.18,15.27,0,.63-.22,7.67-2.88,11.43-9.52,5.58-9.9-2.6-17.18-1.9-31.51.94-19,16.91-38.06,28.95-37.61,6.06.22,9.4,5.32,14,3.26,2.73-1.22,3.81-4,6.68-14.31,3.61-12.9,5.41-19.35,5.72-22.89A72.78,72.78,0,0,0,389.23,0Z"/>
    </g>
  </g>
</svg>
