<svg xmlns="http://www.w3.org/2000/svg" width="1039.12" height="199.14" viewBox="0 0 1039.12 199.14">
  <defs>
    <style>
      .cls-1 {
        fill: #3f2714;
      }
    </style>
  </defs>
  <title>DarkBgRock_6</title>
  <g id="Layer_2" data-name="Layer 2">
    <g id="Resources">
      <path class="cls-1" d="M0,199.14H1039.12c-8.25-23.14-19.49-37.53-28.53-46.53-8.21-8.16-12.05-9.34-25.85-22-22.7-20.77-20.91-25.45-31-32.31-15.48-10.49-28.18-5.3-84-1.29-21.21,1.53-40.08,2.88-64.62,2.59-15.25-.18-37.74-2.71-82.71-7.76-28.19-3.16-36.49-4.48-45.23-11.63-10.79-8.83-18-23.08-24.55-36.18-6.4-12.72-6.41-16-9-20.68C630.11-.44,586.38,7.24,504,4c-62.67-2.47-71.13-8.24-93,1.29C396,11.79,389.22,19.14,351.51,37.6c-23.74,11.61-34.95,15.51-38.77,16.8-20.6,6.94-33.29,8-56.86,11.63C202,74.41,208.14,78.46,160.25,85.41,126.54,90.3,118,89.1,99.51,97c-10.17,4.38-21,11.54-42.65,25.85-22,14.57-33.21,22-40.06,31C10.59,162,2.25,176.36,0,199.14Z"/>
    </g>
  </g>
</svg>
