<svg xmlns="http://www.w3.org/2000/svg" width="704.33" height="567.66" viewBox="0 0 704.33 567.66">
  <defs>
    <style>
      .cls-1 {
        fill: #3f2714;
      }
    </style>
  </defs>
  <title>DarkBgRock_11</title>
  <g id="Layer_2" data-name="Layer 2">
    <g id="Resources">
      <path class="cls-1" d="M120.81,567.66h97c1.74-37.26,13.79-56.8,24.5-67.76,11-11.31,18.73-11.52,32.56-28.17,14.5-17.45,12-24.4,26.4-37,8.84-7.71,11.55-6.64,29.93-20.24,17.9-13.26,14.46-13.64,21.12-16.73,13-6,19.25-1.45,56.32-3.52,11.9-.66,11.34-1.13,15.85-.88,22.62,1.3,38.72,13.34,43.12,16.73,11.59,8.91,17.7,19.43,29.92,40.48,6.42,11.05,4.33,9.13,20.25,39.6,5.34,10.24,10.34,20.66,15.84,30.81,5.28,9.74,10.31,18.53,13.2,31.68a92.29,92.29,0,0,1,1.76,11.44H704.33c-20.07-37.38-22.27-63.14-20.25-80.09.71-6,2.73-17.39,2.64-34.32A255.09,255.09,0,0,0,683.2,411c-3.12-19.07-4.82-17.22-7.05-33.45-2.67-19.42-.48-23.83-5.28-34.32-2.42-5.3-6.84-15-16.72-20.24-10.56-5.62-18.1-1.22-22.88-7-3.45-4.21-1.29-8.66,0-22.89.57-6.32-.19-1.75,0-37,.14-26.74.56-25.54,0-29-1.26-7.9-4.66-17-11.44-35.21-3.3-8.86-5-13.38-7-17.6-5.21-10.75-9.33-19.27-16.72-25.52-6.67-5.64-10.23-4.55-36.09-11.44-.72-.2-14.73-4-31.68-9.69-21.94-7.41-30.85-12.06-36.09-21.12-.11-.2-1.25-3.07-3.52-8.8-9.94-25.11-11.1-28.5-12.32-32.56-2.21-7.42-3.66-12.27-4.4-19.36-.84-8.11,0-11.75,0-20.25A129.69,129.69,0,0,0,469.33,0H0A131.5,131.5,0,0,0,11.68,44c7.56,16.1,13.74,20.07,18.48,37,3.14,11.2,1,11.46,5.28,30.8,1.94,8.73,4.52,16.38,9.68,31.69S53,164.82,58.33,166.34c4.44,1.26,6.65-1.73,11.44,0,1.76.63,5.74,2.59,10.56,14.08,3.56,8.52,4.94,16,6.16,24.64,1.52,10.9,1.73,16.18,2.64,25.53,1.4,14.4,3.21,25.34,4.4,32.56,4.55,27.59,7.57,31.41,4.4,40.48C95.7,310,93.64,309.76,87.37,323c-3.07,6.48-6.13,12.94-7.92,20.24-2.56,10.41-1.12,19.85,1.76,38.72,1.56,10.24,3,19.94,7,32.57,3.87,12.23,5.84,13.74,9.68,27.28a195.68,195.68,0,0,1,5.28,24.64c1.22,8.25,2.16,14.87,1.76,23.76-.26,5.72-.8,6.35-.88,11.45-.12,7.19.84,13.39,2.64,21.12C111.12,541.65,118.81,562.34,120.81,567.66Z"/>
    </g>
  </g>
</svg>
