<svg xmlns="http://www.w3.org/2000/svg" width="552.357" height="430.253" viewBox="0 0 552.357 430.253">
  <title>DarkBgRock_17</title>
  <path d="M389.226,0H0V430.253H552.357a86.464,86.464,0,0,0-5.193-15.248c-1.914-4.255-2.958-6.524-5.088-8.775-3.936-4.161-8-4.472-13.892-6.526-12.924-4.506-14.9-10.518-33.068-19.074a41.025,41.025,0,0,0-6.42-2.59c-7.335-2.154-14.333-.926-62.265-11.719-25.1-5.652-32.883-8.077-44.836-4.77-14.77,4.087-26.345,14.282-32.435,9.54-3.022-2.354-1.664-6.03-6.678-14.31-2.982-4.925-5.67-7.269-7.631-9.539-6.914-8-7.1-17.731-8.586-29.573-1.34-10.714-5.805-46.4-15.263-47.7-3.844-.527-7.615,4.75-12.4,11.447-8.805,12.321-6.718,18.521-13.355,24.8-7.971,7.544-19.814,6.918-25.757,6.678-2.559-.1-20.487-1.089-31.481-14.309-7.375-8.868-3.561-13.538-10.493-35.3-7.332-23.011-13.96-25.2-12.4-36.25,1.427-10.115,7.159-9.527,19.039-28.805,11.99-19.456,9.883-26.109,20.073-34.157,6.625-5.232,6.919-1.949,24.693-9.6C294.119,143.624,298,135.1,311,136.416c4.848.493,9.272,2.182,15.269.016.628-.227,7.672-2.879,11.425-9.526,5.585-9.893-2.593-17.178-1.891-31.51.931-19.027,16.9-38.053,28.943-37.608,6.061.225,9.407,5.32,13.985,3.266,2.722-1.222,3.805-4.041,6.678-14.31,3.609-12.9,5.413-19.354,5.724-22.895A72.634,72.634,0,0,0,389.226,0Z" fill="#3f2714"/>
</svg>
