<svg xmlns="http://www.w3.org/2000/svg" width="340.05" height="254.3" viewBox="0 0 340.05 254.3">
  <defs>
    <style>
      .cls-1 {
        fill: #3f2714;
      }
    </style>
  </defs>
  <title>DarkBgRock_4</title>
  <g id="Layer_2" data-name="Layer 2">
    <g id="Resources">
      <path class="cls-1" d="M1,52.07c4.67,23.18,23,26.56,57,63.68,13.71,15,22.52,27.31,35.75,45.81,31.69,44.32,27.7,50.26,44.69,64.8,2.88,2.46,32.6,27.2,73.73,27.93,25.44.45,23.14-8.86,63.68-13.41,32.84-3.69,51.91.45,60.33-12.29,5-7.53,4-17.52,3.36-23.46-1.32-12.9-6.77-17.51-12.29-30.17-3.05-7-2.36-7.78-8.94-50.27-1.31-8.43-3.49-22.29-6.71-39.1-6-31.27-8.15-34-10.05-35.75-9.13-8.48-20.35-2.75-58.09,0C223,51.33,204,52.6,179.77,48.72c-13.53-2.17-26.07-4.18-41.33-11.17-12.8-5.86-17.16-10.48-36.87-20.11-12-5.85-17.95-8.77-25.7-11.17C65.35,3,30.82-7.7,12.19,9.62,1,20-1.8,38.09,1,52.07Z"/>
    </g>
  </g>
</svg>
