<svg xmlns="http://www.w3.org/2000/svg" width="783.821" height="457.524" viewBox="0 0 783.821 457.524">
  <title>DarkBgRock_8</title>
  <path d="M0,0A79.042,79.042,0,0,0,9.458,15.369c3.867,4.919,7.442,9.465,13.005,13.005,12.9,8.209,24.146,3.139,27.191,9.457,2.237,4.642-3.5,8.055-2.365,16.552.387,2.88,1.422,5.286,9.458,15.369,9.54,11.969,12.064,13.575,18.916,22.462,8.077,10.477,7.075,11.5,10.64,14.187,9.873,7.454,23.362,4.023,33.1,2.365,9.025-1.537,32.026.946,78.027,5.911,16.459,1.776,31.008,3.346,50.836,7.093,11.965,2.261,9.554,2.235,60.294,15.369,32.18,8.33,41.5,10.5,47.289,20.1,5.173,8.577,6.6,21.563,7.094,26.009,1.072,9.737-.426,11.082,0,20.1.544,11.522,4.7,22.419,13,43.743,5.5,14.144,8.258,21.215,10.64,24.827,10.329,15.654,24.426,23.259,31.921,27.191,7.56,3.966,20.118,7.033,44.925,13,18.214,4.384,36.23,9.552,54.382,14.186,20.753,5.3,26.613,6.684,31.921,13,6.565,7.818,8.376,18.531,10.64,31.92,2.017,11.933.387,11.742,2.364,21.281a87.891,87.891,0,0,0,14.187,33.1c4.105,5.671,9.17,12.669,17.734,17.734,14.611,8.642,26.716,4.151,59.111,4.729,4.376.078,14.346.84,34.285,2.364,32.459,2.481,44.9,4.173,73.3,5.911,9.811.6,17.737.975,22.462,1.182L782.639,5.911Z" fill="#3f2714"/>
</svg>
