<svg xmlns="http://www.w3.org/2000/svg" width="401.054" height="785.749" viewBox="0 0 401.054 785.749">
  <title>DarkBgRock_9</title>
  <path d="M48.212,785.749H401.054c-6.942-47.352-6.124-84.559-3.883-110.5,1.895-21.929,5.447-43.215-1.938-71.731-3.448-13.311-8.571-25.466-17.448-46.527-13.1-31.074-14.912-29.909-21.326-46.528-12.386-32.094-14.8-60.219-17.447-91.118-1.942-22.646-3.052-33.957-1.939-48.466,1.881-24.518,7.025-33.16,3.615-53.442-2.012-11.965-4.673-14.138-6.882-28.927a153.547,153.547,0,0,1-.906-36.335c4.027-54.09-2.024-62.447,4.173-117.813,3.118-27.857,5.272-31.3,7.458-59.233,4.819-61.583-3.691-69.865-7.458-72.6-4.547-3.3-11.08-5.089-54.283,5.816C239.006,19.4,241.4,21.745,220.753,25.793c-44.18,8.661-61.855-.952-79.485,15.509-8.7,8.127-11.971,17.256-15.509,27.142-10.14,28.329-3.361,50.051,0,83.362.412,4.088,3.762,38.809,0,75.608C120.4,279.8,105.966,284.287,102.5,334.04c-2.284,32.738,3.822,32.877,0,65.915-3.627,31.348-7.781,67.259-31.019,79.485-14.487,7.623-24.63-.149-46.528,11.632-7.7,4.141-18.964,10.2-23.264,21.325-6.376,16.494,6.791,33.2,15.51,50.406,14.624,28.867,8.371,42.661,13.57,106.626A887.313,887.313,0,0,0,48.212,785.749Z" fill="#3f2714"/>
</svg>
