<svg xmlns="http://www.w3.org/2000/svg" width="442.594" height="543.067" viewBox="0 0 442.594 543.067">
  <title>DarkBgRock_16</title>
  <path d="M40.7,543.067h346.02c1.284-17.043-2.015-29.111-5.172-36.882-5.718-14.076-11.2-14.633-16.533-29.252-6.865-18.834-1.126-27.15-8.9-34.339-8.565-7.917-17.694.159-28.253-6.831-6.231-4.126-10.059-11.578-14.989-51.673-1.956-15.906-3.119-29.092-3.816-38.155-.313-19.688,0-29.252,0-29.252.515-15.731,1.612-23.735-3.815-30.523-3.82-4.779-6.2-3.107-10.175-7.631-6.62-7.532-4.65-17.422-3.815-36.883.556-12.962.287-22.674,0-33.067-.835-30.171-4.449-33.224,0-40.7,4.326-7.269,12.366-12.147,27.98-21.621,6.867-4.166,9.384-5.026,12.718-8.9,7.4-8.6,4.815-15.77,10.175-22.893,5.293-7.035,11.629-5.115,26.708-10.175,18.854-6.327,15.723-13.643,44.514-30.523,11.139-6.532,15.774-7.988,20.349-14.626,6.835-9.918,7.529-22.689,7.631-25.437.228-6.191-.835-8.012-.636-16.533A98.863,98.863,0,0,1,442.594,0H0A192.845,192.845,0,0,1,2.863,25.525c.48,10.511-.239,13.322,2.224,17.081,3.395,5.181,8.6,5.694,25.992,11.224,0,0,5.3,1.685,17.917,6.107A148.121,148.121,0,0,1,85.212,78.853a43.854,43.854,0,0,1,19.077,6.359c2.773,1.724,13.284,8.718,17.806,21.621,3.868,11.039-1.14,13.583,0,33.067,1.037,17.723,5.449,20.2,2.543,29.252-2.919,9.092-10.639,16.756-19.077,20.349-12.171,5.183-17.575-1.622-27.98,3.816C67.665,198.5,63.6,209.366,61.047,216.21c-2.443,6.54-2.9,13.687-3.815,27.98a203.429,203.429,0,0,0,0,31.8c.481,5.822,1.169,10.24,2.544,19.077.786,5.056,3.113,19.5,7.63,39.427,1.641,7.235,2.047,8.472,3.816,16.534,5.259,23.961,4.6,26.338,3.815,27.98-5.1,10.712-22.024,4.389-29.251,15.261-5.78,8.695,1.831,17.573,2.543,38.155.535,15.445-3.287,23.872-6.359,36.883C38.163,485.423,35.268,509.594,40.7,543.067Z" fill="#3f2714"/>
</svg>
