<svg xmlns="http://www.w3.org/2000/svg" width="321.77" height="269.43" viewBox="0 0 321.77 269.43">
  <defs>
    <style>
      .cls-1 {
        fill: #3f2714;
      }
    </style>
  </defs>
  <title>DarkBgRock_1</title>
  <g id="Layer_2" data-name="Layer 2">
    <g id="Resources">
      <path class="cls-1" d="M14.54,269.43H281.28c-32.34-22.14-39.57-39.45-39.95-51.36-.14-4.28.58-8.85,0-19.39-.66-12-2.18-16.58-4.85-33.92-2.79-18.17-4.17-27.39-2.9-33.92.84-4.37,3.31-17.15,13.56-26.17s17-4.22,26.17-12.6c7.13-6.48,4.83-10.92,13.57-32,5.42-13.06,10.9-22.45,16.48-32A328.63,328.63,0,0,1,321.77,0H0C8.54,28.25,21,42.54,31,50.4c6,4.7,17.46,12,20.35,25.2,1.1,5-.19,5.73,0,15.5.28,14.69,3.28,18.15,4.84,33,1.7,16.08,2.82,26.64-2.9,31-7.79,6-20.64-5.41-28.11,1-4,3.4-2.81,8.73-3.88,20.35-1.33,14.54-4.49,20.86-6.78,31C11.77,219.65,9.93,239,14.54,269.43Z"/>
    </g>
  </g>
</svg>
