<svg xmlns="http://www.w3.org/2000/svg" width="311.74" height="360.02" viewBox="0 0 311.74 360.02">
  <defs>
    <style>
      .cls-1 {
        fill: #3f2714;
      }
    </style>
  </defs>
  <title>DarkBgRock_3</title>
  <g id="Layer_2" data-name="Layer 2">
    <g id="Resources">
      <path class="cls-1" d="M288.07,318.21c-5.57-6.39-5-10.52-10.94-39-4.12-19.71-3.93-15.49-8.21-36.24-4.13-20-6.21-30.26-6.84-41.71-.89-16.16-1.24-24.42,3.42-33.51,3.26-6.36,6.64-8.62,9.58-17.09a56.44,56.44,0,0,0,2.73-19.84c-.27-9.57-2.52-15.62-8.89-32.82C260,73.91,255.52,61.85,255.25,61.1c-7.77-21.35-7.46-22.28-10.95-29.41-7.73-15.81-13.21-27-23.93-30.77C212.48-1.85,209.08,2,185.5,7.76c-11.32,2.77-6.88,1-41,7.52a410.74,410.74,0,0,0-42.4,10.26C85.25,30.6,80.83,33.18,78.14,37.85c-3.42,5.92-2.51,12.83-.69,26.66,2,14.77,4.07,14,4.11,21.89.07,17.51-10.39,30.39-13,33.5-4.78,5.73-9.48,9-14.36,12.31-13.54,9.32-17.1,6.49-28.72,15C18.3,152.54,13.6,158.08,7.71,165,3,170.57.65,173.39.18,176c-1.45,8,5.79,14.39,18.47,28.72,5.68,6.42,13.28,15,19.83,23.93,11.4,15.55,18.78,31,23.25,40.34,6.08,12.74,7.32,17.57,13.67,26,5.43,7.19,10.06,13.33,17.78,17.1,12.17,5.93,18.36-.71,41,0,5.28.16,16.29,2.38,38.29,6.83,17.64,3.57,26.62,5.41,34.88,8.21,9.81,3.33,8.37,3.81,28.72,11.62,13.38,5.15,15,5.34,25.3,9.58,13.16,5.44,13.59,6.43,19.83,8.2,7.77,2.21,23.44,6.67,28.72,0,5-6.3-2-19.15-2.73-20.51C301.62,325.93,295.2,326.39,288.07,318.21Z"/>
    </g>
  </g>
</svg>
