<svg xmlns="http://www.w3.org/2000/svg" width="442.59" height="543.07" viewBox="0 0 442.59 543.07">
  <defs>
    <style>
      .cls-1 {
        fill: #3f2714;
      }
    </style>
  </defs>
  <title>DarkBgRock_16</title>
  <g id="Layer_2" data-name="Layer 2">
    <g id="Resources">
      <path class="cls-1" d="M40.7,543.07h346c1.28-17.05-2-29.11-5.17-36.89-5.72-14.07-11.21-14.63-16.54-29.25-6.86-18.83-1.12-27.15-8.9-34.34-8.56-7.91-17.69.16-28.25-6.83-6.23-4.12-10.06-11.58-15-51.67-2-15.91-3.12-29.09-3.82-38.15-.31-19.69,0-29.26,0-29.26.52-15.73,1.61-23.73-3.81-30.52-3.82-4.78-6.2-3.11-10.18-7.63-6.62-7.53-4.65-17.42-3.81-36.88.55-13,.28-22.68,0-33.07-.84-30.17-4.45-33.22,0-40.7,4.32-7.27,12.36-12.15,28-21.62,6.86-4.17,9.38-5,12.72-8.9,7.39-8.6,4.81-15.77,10.17-22.9s11.63-5.11,26.71-10.17c18.85-6.33,15.72-13.64,44.51-30.52,11.14-6.54,15.78-8,20.35-14.63,6.84-9.92,7.53-22.69,7.63-25.44.23-6.19-.83-8-.63-16.53A99.46,99.46,0,0,1,442.59,0H0A191.27,191.27,0,0,1,2.86,25.52C3.34,36,2.62,38.85,5.09,42.61c3.39,5.18,8.6,5.69,26,11.22,0,0,5.3,1.68,17.92,6.11A147.92,147.92,0,0,1,85.21,78.85a43.86,43.86,0,0,1,19.08,6.36c2.77,1.73,13.28,8.72,17.8,21.62,3.87,11-1.14,13.59,0,33.07,1,17.72,5.45,20.2,2.55,29.25S114,185.91,105.56,189.5c-12.17,5.18-17.57-1.62-28,3.82-9.92,5.18-14,16.05-16.53,22.89-2.45,6.54-2.9,13.69-3.82,28a204.62,204.62,0,0,0,0,31.8c.48,5.82,1.17,10.24,2.55,19.07.78,5.06,3.11,19.5,7.63,39.43,1.64,7.23,2,8.47,3.81,16.53,5.26,24,4.6,26.34,3.82,28-5.1,10.72-22,4.39-29.25,15.26-5.78,8.7,1.83,17.58,2.54,38.16C48.86,447.86,45,456.29,42,469.3,38.16,485.42,35.27,509.59,40.7,543.07Z"/>
    </g>
  </g>
</svg>
