<svg xmlns="http://www.w3.org/2000/svg" width="200.465" height="98.862" viewBox="0 0 200.465 98.862">
  <title>FronRock_14</title>
  <path d="M3.126,98.862H200.465a21,21,0,0,0-6.649-9.378c-6.94-5.339-14.3-2.857-34.387-3.517-8.009-.263-13.7-.884-19.928-1.563-11-1.2-19.115-2.652-27.744-5.471-5.512-1.8-8.321-2.741-10.941-4.689-8.222-6.113-6.411-12.888-12.5-15.63-5.571-2.508-8.271,2.624-20.71,1.563-4.055-.346-7.577-.691-10.941-3.126-2.385-1.727-3.369-3.548-7.424-12.114-6.161-13.01-6.129-13.534-7.816-15.63-4.473-5.56-6.471-4.08-10.941-9.769-5.364-6.828-3.216-9.891-7.815-13.286-1.18-.871-2.228-1.339-14.458-4.3C4.872,1.147,2.061.483,0,0Z" fill="#764c24"/>
</svg>
