<svg xmlns="http://www.w3.org/2000/svg" width="400.15" height="237.41" viewBox="0 0 400.15 237.41">
  <defs>
    <style>
      .cls-1 {
        fill: #845a38;
      }
    </style>
  </defs>
  <title>FronRock_17</title>
  <g id="Layer_2" data-name="Layer 2">
    <g id="Resources">
      <path class="cls-1" d="M4.48,0H400.15a258.15,258.15,0,0,1-6.8,43.84c-3.63,14.79-6.1,24.55-12.83,36.36-4.82,8.44-10.07,14.89-17.11,23.52-6.85,8.4-10.27,12.6-15,16-3.49,2.56-18.89,13.84-31,8.56-4-1.73-7-6.52-12.83-16a220.52,220.52,0,0,1-13.9-26.74c-5.81-13.71-6.27-18.77-9.63-19.24-6.21-.88-13.1,15.21-13.9,17.11-5.45,13-1.46,16.07-5.35,28.87-5,16.41-13.1,16.39-18.17,34.22-2.5,8.78-.16,7.48-3.21,21.38A170,170,0,0,1,229.75,200c-2.93,6.58-2.67,4.89-8.56,17.11-8.33,17.28-8.56,20-10.69,20.32-7.17.93-20.68-28-24.6-59.89-3.75-30.56,5.13-32.81-1.07-59.88C180.1,96.92,173.7,93,172,72.71A130.65,130.65,0,0,0,166.66,46c-2.91-9.43-4.42-14.16-7.49-15-8.09-2.14-23.92,19.53-31,40.63-3.16,9.41-3.61,15.81-9.62,26.74a122.18,122.18,0,0,1-11.77,17.11c-7.2,9.14-10.8,13.71-15,16-12.26,6.86-26.7,2.64-32.07,1.07-4.93-1.43-4.64-2.09-16-7.48-22.4-10.58-26.2-9.3-32.08-15C4.21,103,2.83,93.9.91,81.27c-2.29-15.13.24-22.92,2.14-47C3.67,26.39,4.4,14.6,4.48,0Z"/>
    </g>
  </g>
</svg>
