<svg xmlns="http://www.w3.org/2000/svg" width="231.991" height="142.77" viewBox="0 0 231.991 142.77">
  <title>FronRock_12</title>
  <path d="M0,6.978V142.77H231.991c-.664-3.46-2.24-8.476-6.482-11.73-3.745-2.872-7.5-2.784-14.862-3.23-14.886-.9-22.328-1.353-28.431-3.877-2.556-1.058-1.045-.755-16.8-10.339-7.257-4.414-10.913-6.631-12.277-7.108-7.475-2.612-11.559-.123-27.785,2.585-25.032,4.178-29.605.64-31.015-.646-2.129-1.941-1.136-2.474-6.462-11.631-3.968-6.822-5.951-10.233-9.046-13.569-5.407-5.829-7.857-4.616-18.738-12.277-7.8-5.493-11.7-8.24-13.57-12.277-2.49-5.388,0-7.2,0-23.262,0-11.433-1.256-16.4-1.938-18.738-1.749-6-2.9-9.932-6.462-12.923C31.108-2.139,20.3.3,13.569,1.809A51.459,51.459,0,0,0,0,6.978Z" fill="#764c24"/>
</svg>
