<svg xmlns="http://www.w3.org/2000/svg" width="130.47" height="206.09" viewBox="0 0 130.47 206.09">
  <defs>
    <style>
      .cls-1 {
        fill: #845a38;
      }
    </style>
  </defs>
  <title>FronRock_9</title>
  <g id="Layer_2" data-name="Layer 2">
    <g id="Resources">
      <path class="cls-1" d="M12.17,0h118.3V206.09a47.9,47.9,0,0,1-18.41-14.69c-1.67-2.24-5-7.16-9.78-27.24-4-16.76-6-25.14-6.29-37-.35-15.17,2.51-16.75,1.32-31.39-1-13-1.58-19.49-6.21-25.89-3.08-4.27-12.57-9-31.43-18.17C49.51,46.74,47.43,46,41.51,42.61c-10.74-6.1-10.57-7.39-18.87-11.87C8.3,23,1.83,23.64.29,18.86-.72,15.73.37,10.19,12.17,0Z"/>
    </g>
  </g>
</svg>
