<svg xmlns="http://www.w3.org/2000/svg" width="283.98" height="271.39" viewBox="0 0 283.98 271.39">
  <defs>
    <style>
      .cls-1 {
        fill: #845a38;
      }
    </style>
  </defs>
  <title>FronRock</title>
  <g id="Layer_2" data-name="Layer 2">
    <g id="Resources">
      <path class="cls-1" d="M54.27,270.42H284c-7.48-24.85-18.28-34.1-27.15-37.8-11-4.61-20.12-1.05-32-8.72-7.87-5.09-12.22-12.07-16.63-20.82A228.92,228.92,0,0,1,188,142.49c-8.75-53.71-6.3-61.68-14.54-92.07C171.5,43.08,159.55-1,150.22,0c-5.32.58-5.84,15.44-15.5,67.84-4.62,25-9,46.13-17.45,70.75-3.88,11.35-13.63,39.82-19.38,38.77C94,176.67,95,163.2,92.07,140.55c-.31-2.48-8.1-61.67-18.41-62-6.57-.23-6.26,23.65-24.23,63-16.59,36.33-27.15,38.52-30,63-1.54,13,.14,23.49-5.81,40.7A103.07,103.07,0,0,1,0,271.39Z"/>
    </g>
  </g>
</svg>
