<svg xmlns="http://www.w3.org/2000/svg" width="231.99" height="142.77" viewBox="0 0 231.99 142.77">
  <defs>
    <style>
      .cls-1 {
        fill: #845a38;
      }
    </style>
  </defs>
  <title>FronRock_12</title>
  <g id="Layer_2" data-name="Layer 2">
    <g id="Resources">
      <path class="cls-1" d="M0,7V142.77H232c-.66-3.46-2.24-8.48-6.48-11.73-3.75-2.87-7.5-2.78-14.86-3.23-14.89-.9-22.33-1.35-28.43-3.88-2.56-1.05-1.05-.75-16.8-10.34-7.26-4.41-10.92-6.63-12.28-7.1-7.48-2.62-11.56-.13-27.79,2.58-25,4.18-29.6.64-31-.65-2.13-1.94-1.14-2.47-6.46-11.63-4-6.82-5.95-10.23-9-13.57C73.42,77.4,71,78.61,60.09,71c-7.8-5.5-11.7-8.24-13.57-12.28-2.49-5.39,0-7.2,0-23.26,0-11.43-1.25-16.4-1.94-18.74-1.74-6-2.89-9.93-6.46-12.92C31.11-2.14,20.3.29,13.57,1.81A50.89,50.89,0,0,0,0,7Z"/>
    </g>
  </g>
</svg>
