<svg xmlns="http://www.w3.org/2000/svg" width="336.67" height="78.191" viewBox="0 0 336.67 78.191">
  <title>FronRock_15</title>
  <path d="M0,78.191H336.67c-11.391-14.821-21.307-25.975-28.453-33.6-7.425-7.921-10.928-11.039-14.937-18.049C284.8,11.705,286.319.89,281.649.049c-4.786-.861-11.031,9.667-20.6,25.8-7.407,12.488-8.553,16.76-14.215,19.385-4.486,2.079-10.375,1.2-21.97-.646-13.812-2.2-15.426-4.042-25.846-5.169a87,87,0,0,0-21.969,0c-17.421,2.377-21.966,9.205-28.431,5.815-5.472-2.869-2.726-8.027-11.631-18.092-4.833-5.463-6.813-5.267-10.985-10.985-5.422-7.433-5.064-11.861-7.753-12.277-4.99-.772-6.314,14.455-18.093,20.677-4.671,2.467-5.83.8-25.2,1.938a207.72,207.72,0,0,0-23.908,2.585c-17.283,3-21.828,6.505-23.907,8.4-4.008,3.652-5.234,7.139-7.754,12.277A126.163,126.163,0,0,1,0,78.191Z" fill="#764c24"/>
</svg>
