<svg xmlns="http://www.w3.org/2000/svg" width="397.39" height="81.29" viewBox="0 0 397.39 81.29">
  <defs>
    <style>
      .cls-1 {
        fill: #845a38;
      }
    </style>
  </defs>
  <title>FronRock_13</title>
  <g id="Layer_2" data-name="Layer 2">
    <g id="Resources">
      <path class="cls-1" d="M0,81.29H397.39c-7.64-6.65-19-40.79-34.25-47.17-7-2.91-25-10.24-48.46-9.69-3.82.09-12.67,1.36-30.37,3.88-24.1,3.44-32.54,5.4-38.77,0-3.92-3.39-2.43-5.76-9.69-15.51C230,5,227.09,1.05,222.92.52c-7-.89-9.83,8.51-22.61,18.1-11.86,8.89-23.86,11.6-29.72,12.92-12.63,2.85-13.48-.26-34.25.65-25.65,1.12-37.08,6.42-43.29-.65-2.46-2.8-1-4-5.82-12.28-5-8.62-9.58-12.45-11-13.57-4.74-3.79-8-6.44-11.09-5.5-5.4,1.66-2.87,12.3-10.88,21.66-3.61,4.21-7.61,6.13-11,7.75-13.9,6.68-22.53,1.06-31.66,6.46C7.68,38.4,2.67,69.23,0,81.29Z"/>
    </g>
  </g>
</svg>
