<svg xmlns="http://www.w3.org/2000/svg" width="283.98" height="271.39" viewBox="0 0 283.98 271.39">
  <title>FronRock</title>
  <path d="M54.275,270.421H283.98c-7.479-24.848-18.281-34.1-27.145-37.8-11.046-4.612-20.127-1.047-31.984-8.722-7.866-5.092-12.218-12.065-16.636-20.821a229.065,229.065,0,0,1-20.193-60.591c-8.747-53.708-6.3-61.681-14.538-92.073C171.5,43.083,159.55-1,150.224.017,144.9.6,144.385,15.459,134.717,67.861c-4.621,25.044-9.019,46.13-17.445,70.75-3.885,11.353-13.629,39.822-19.384,38.768-3.865-.708-2.917-14.175-5.815-36.829-.318-2.481-8.1-61.666-18.415-62.028-6.565-.231-6.259,23.647-24.23,63-16.591,36.33-27.15,38.525-30.044,63-1.539,13.013.133,23.5-5.815,40.706A103.054,103.054,0,0,1,0,271.39Z" fill="#764c24"/>
</svg>
