<svg xmlns="http://www.w3.org/2000/svg" width="305.82" height="236.67" viewBox="0 0 305.82 236.67">
  <defs>
    <style>
      .cls-1 {
        fill: #845a38;
      }
    </style>
  </defs>
  <title>FronRock_23</title>
  <g id="Layer_2" data-name="Layer 2">
    <g id="Resources">
      <path class="cls-1" d="M265.19,0H0V236.67H305.82s-15-20.67-19.25-27.8-17.1-15.68-29.22-15.68a110.65,110.65,0,0,1-38.5-7.13c-13.54-5-37.07-7.13-42.06-15.68s-11.4-20.68-30.65-23.53-49.9-12.12-49.9-12.12,11.4-15.68,16.39-16.39,54.18-5.71,57-14.26,6.42-21.39,20.68-29.94,33.5-5,47-14.26,29.22-21.38,29.22-34.22S265.19,0,265.19,0Z"/>
    </g>
  </g>
</svg>
