<svg xmlns="http://www.w3.org/2000/svg" width="231.56" height="296.98" viewBox="0 0 231.56 296.98">
  <defs>
    <style>
      .cls-1 {
        fill: #845a38;
      }
    </style>
  </defs>
  <title>FronRock_6</title>
  <g id="Layer_2" data-name="Layer 2">
    <g id="Resources">
      <path class="cls-1" d="M231.56,297H0a122.35,122.35,0,0,1,7.08-40.06C13.42,239.29,18,239.75,26.8,218.76c9.9-23.69,6.63-30.47,17.8-47.06,6-8.91,7.89-8.35,14.63-19.07,7.68-12.24,8.67-18.45,17.17-26.71,1.8-1.75,1-.75,12.08-9.54,10.27-8.16,15.4-12.23,17.8-14.63,7.88-7.85,11.47-15.89,15.9-26.07,6-13.7,5.78-18.92,10.18-33.07C135.63,32.1,145.79-.59,154.61,0c6.38.43,10,18.13,16.54,50.24,3.95,19.37,6.35,31.15,7.63,48.32,2,27.47-1.34,34.41,3.18,57.24,3.35,17,5.63,15.22,7,28,2.58,24.12-5.16,34.17,2.55,45.78,5.05,7.61,9.21,4.54,18.33,15.49,5.29,6.33,7.86,12.12,12.83,23.3a120.93,120.93,0,0,1,7.63,22.26C230.88,293.21,231.29,295.4,231.56,297Z"/>
    </g>
  </g>
</svg>
