<svg xmlns="http://www.w3.org/2000/svg" width="130.472" height="206.088" viewBox="0 0 130.472 206.088">
  <title>FronRock_9</title>
  <path d="M12.167,0H130.472V206.088A47.916,47.916,0,0,1,112.06,191.4c-1.666-2.246-4.98-7.167-9.78-27.244-4.007-16.76-6.01-25.14-6.287-37.023-.353-15.166,2.5-16.747,1.316-31.388C96.258,82.782,95.73,76.259,91.1,69.855,88.019,65.586,78.527,60.9,59.668,51.693c-10.157-4.958-12.24-5.717-18.162-9.081-10.733-6.1-10.565-7.4-18.861-11.876C8.3,22.989,1.832,23.642.291,18.861-.719,15.727.369,10.193,12.167,0Z" fill="#764c24"/>
</svg>
