<svg xmlns="http://www.w3.org/2000/svg" width="451.6" height="196.14" viewBox="0 0 451.6 196.14">
  <defs>
    <style>
      .cls-1 {
        fill: #845a38;
      }
    </style>
  </defs>
  <title>FronRock_19</title>
  <g id="Layer_2" data-name="Layer 2">
    <g id="Resources">
      <path class="cls-1" d="M39.92,0H451.6c-1.66,4.76-4.33,12.1-8,21-6.53,15.89-7.83,16.31-11.36,26.22s-2.52,10.25-8.74,31.45c-2.54,8.69-3.81,13-5.24,16.61s-5.47,13.13-14.85,26.21C391,138.86,383.7,149,376.34,147.68c-5.76-1-9.38-8.65-14-18.35-3-6.3-2.77-8.05-6.12-17.48-4.45-12.56-6.08-12.95-11.36-26.22-7.26-18.24-6.55-23.46-10.49-24.46-5.82-1.49-9.26,9.49-25.34,21.84-5.62,4.33-4.87,2.73-28.83,16.61-13.07,7.57-19.68,11.42-23.6,14.85-9.17,8-14.82,16.79-19.22,23.59-9.3,14.39-8.4,18.31-14.85,22.72-2.07,1.42-6.07,3.68-25.35,4.37-23.54.84-26.89-2.2-41.06,0-7.45,1.16-3.45,1.52-26.22,7.87-14.3,4-18.53,4.58-36.7,9.61-9.32,2.58-8.68,2.56-18.35,5.24-22.79,6.32-34.28,9.45-38.45,7.87-8.48-3.22-12.76-16.17-21-42C10.24,137.44,7.35,128.38,5,114.47.25,87-3.33,66.19,5,43.69,8.18,35,16.7,16.44,39.92,0Z"/>
    </g>
  </g>
</svg>
