<svg xmlns="http://www.w3.org/2000/svg" width="336.67" height="78.19" viewBox="0 0 336.67 78.19">
  <defs>
    <style>
      .cls-1 {
        fill: #845a38;
      }
    </style>
  </defs>
  <title>FronRock_15</title>
  <g id="Layer_2" data-name="Layer 2">
    <g id="Resources">
      <path class="cls-1" d="M0,78.19H336.67c-11.39-14.82-21.31-26-28.45-33.6-7.43-7.92-10.93-11-14.94-18.05C284.8,11.7,286.32.89,281.65.05s-11,9.67-20.6,25.8c-7.41,12.49-8.56,16.76-14.22,19.39-4.48,2.08-10.37,1.2-22-.65-13.81-2.2-15.42-4-25.84-5.17a87.3,87.3,0,0,0-22,0c-17.42,2.38-22,9.21-28.43,5.82-5.48-2.87-2.73-8-11.63-18.1-4.84-5.46-6.82-5.26-11-11-5.42-7.43-5.06-11.86-7.75-12.28-5-.77-6.32,14.46-18.1,20.68C95.48,27,94.32,25.35,75,26.5a207,207,0,0,0-23.9,2.58c-17.29,3-21.83,6.51-23.91,8.4-4,3.66-5.24,7.14-7.76,12.28A125.83,125.83,0,0,1,0,78.19Z"/>
    </g>
  </g>
</svg>
