<svg xmlns="http://www.w3.org/2000/svg" width="226.79" height="250.09" viewBox="0 0 226.79 250.09">
  <defs>
    <style>
      .cls-1 {
        fill: #845a38;
      }
    </style>
  </defs>
  <title>FronRock_1</title>
  <g id="Layer_2" data-name="Layer 2">
    <g id="Resources">
      <path class="cls-1" d="M0,250.09a208.29,208.29,0,0,0,37.8-50.4c3.79-7.1,7.55-15.76,14.54-32.95C67.27,130,74.73,111.63,77.53,100.83c7.7-29.65,3.23-35.27,12.6-62,2.46-7,14-40,22.3-38.76,5.45.84,5.73,16.09,13.56,83.35a428.19,428.19,0,0,0,11.63,64c6.14,23.07,10.56,31.22,15.51,37.8,10.23,13.59,19.51,15.3,37.8,29.08a203.29,203.29,0,0,1,35.86,34.89Z"/>
    </g>
  </g>
</svg>
