<svg xmlns="http://www.w3.org/2000/svg" width="507.94" height="247.29" viewBox="0 0 507.94 247.29">
  <defs>
    <style>
      .cls-1 {
        fill: #845a38;
      }
    </style>
  </defs>
  <title>FronRock_20</title>
  <g id="Layer_2" data-name="Layer 2">
    <g id="Resources">
      <path class="cls-1" d="M1.05,0H507.94c-3.2,6.35-7.83,41.56-12.23,54.18-4.77,13.65-3.54,14.09-7,21.84-7.43,16.67-13.9,16.45-22.72,34.08-6.06,12.12-5.77,17.75-9.62,18.35-6.93,1.09-16.78-15.89-21-30.58-3.48-12.23-.86-15.25-5.24-28-1.51-4.39-7.87-22.86-15.73-22.72-5.37.09-5.29,8.76-14.85,18.35-12.19,12.21-20.75,6.59-32.33,19.22-.22.24-4.52,6.57-13.11,19.22-7.9,11.64-8.23,12.15-9.61,14a143.28,143.28,0,0,1-18.35,20.09c-7.73,7-11.59,10.45-14.86,10.49-3.84,0-7.21-2.29-24.47-28-15.49-23-16.8-27.15-17.47-31.46-1.12-7.13,0-11.26-3.5-16.6-3.95-6-12.2-11.12-19.22-9.61-9,1.92-7.51,13-18.35,26.21-12.87,15.74-23.13,10.19-42.82,29.71-3.87,3.84-2.42,3-14.85,16.6-17.65,19.29-20.48,20.87-22.72,21.85-14.71,6.4-22-5.25-33.21.87-10,5.44-6.4,15.81-21.84,39.32-5.38,8.2-6,6.66-12.24,15.73-14.91,21.52-15.54,34.16-20.1,34.08-5.18-.09-7.6-16.47-17.47-56.8-6.74-27.52-6.78-26-13.11-51.55-8-32.32-2.71-19.44-11.36-58.55-3.32-15-5.52-23.32-1.75-33.2C21.28,35.6-5.55,3.52,1.05,0Z"/>
    </g>
  </g>
</svg>
