<svg xmlns="http://www.w3.org/2000/svg" width="209.344" height="351.815" viewBox="0 0 209.344 351.815">
  <title>FronRock_2</title>
  <path d="M0,351.815c11.239-1.657,27.886-6.041,39.737-19.383,10.469-11.788,11.451-24.1,17.445-52.336,8.315-39.169,9.925-31.953,15.507-61.059,7.61-39.685,2.874-44.009,10.661-99.826,1.986-14.236,4.555-28.551,9.692-57.182C100.451,20.734,104.205.085,106.61,0c9.527-.334,35.055,99.961,29.076,190.93-.094,1.434,1.552,29.062,4.846,84.319,1.295,21.73,2.74,41.469,16.476,51.367,4.995,3.6,8.617,3.737,27.137,11.63,10.93,4.658,19.644,8.861,25.2,11.63Z" fill="#764c24"/>
</svg>
