<svg xmlns="http://www.w3.org/2000/svg" width="263.1" height="118.95" viewBox="0 0 263.1 118.95">
  <defs>
    <style>
      .cls-1 {
        fill: #845a38;
      }
    </style>
  </defs>
  <title>FronRock_7</title>
  <g id="Layer_2" data-name="Layer 2">
    <g id="Resources">
      <path class="cls-1" d="M3.17,119c-1-2.27-6-13.75-.95-20,2.18-2.71,7-4.14,16.53-7,4.88-1.46,4.72-1.12,8.27-2.23,10-3.13,15.09-4.46,18.76-8.27,3.41-3.54,4.78-7.66,6-11.44,1.64-4.94,1-6.29,2.38-11.79,1.08-4.31,3.58-14.44,7.16-14.6C63,43.52,65,47.09,69,54.22c2.93,5.27,4.4,7.91,5.46,11.25,1.22,3.85,1.06,5.34,2.81,8a13.79,13.79,0,0,0,6.36,5.41,5.55,5.55,0,0,0,1.32.4c2,.33,3.68-.67,11.39-.08,6.92.52,9.16,1.28,12.72,0a17.94,17.94,0,0,0,7.63-5.73c3.11-3.68,4-7.25,5.09-10.49,3-9.37,4.42-8.49,8-18.12,2.73-7.45,2-8.24,6-24.8,4.37-17.85,5.93-19.76,7.63-20,4.08-.67,8.78,8.08,11.45,13,1.59,3,3.69,7.45,6.67,18.76,1.42,5.37,1.52,6.53,5.09,23.53,2,9.32,1.52,14,4.77,21,3,6.43,5.75,8.43,7,9.22,3.21,2,5.91,2,13.67,2.54,5.31.4,10.59,1.1,15.9,1.59,11.32,1,10.58,1.66,20.35,2.54,15.44,1.4,21.58.13,28,5.09a17.74,17.74,0,0,1,5.08,6,19,19,0,0,1,1,13.36Z"/>
    </g>
  </g>
</svg>
