<svg xmlns="http://www.w3.org/2000/svg" width="558.38" height="298.55" viewBox="0 0 558.38 298.55">
  <defs>
    <style>
      .cls-1 {
        fill: #845a38;
      }
    </style>
  </defs>
  <title>FronRock_16</title>
  <g id="Layer_2" data-name="Layer 2">
    <g id="Resources">
      <path class="cls-1" d="M0,0H558.38a175.63,175.63,0,0,1-5.55,41.7c-2.62,10-5.22,16.06-10.69,20.32-4.42,3.44-6.91,2.77-13.9,6.42-6.69,3.49-10.61,7.36-18.18,15a200.31,200.31,0,0,0-19.25,22.45c-9.39,12.74-15.27,23.68-20.31,33.15-5.24,9.82-4.11,8.83-10.7,21.39-9.79,18.65-11.15,18.67-15,27.8-7,16.67-6.06,25.24-9.62,25.66-5.3.63-12.67-17.71-16-32.08-3.92-16.69-.48-19.65-5.35-39.56a139.44,139.44,0,0,0-8.55-24.6c-4.27-9.37-6.41-14.06-10.7-18.17-8.76-8.42-19.84-9.67-28.87-10.7C356.05,87.66,345,86.41,336.83,93c-3.69,3-4.73,5.87-8.55,13.9-1.25,2.63-9.69,20.37-17.11,32.08-11.22,17.7-15.41,14.19-22.46,28.87-4.54,9.47-4.23,13.91-10.69,23.53-5.36,8-7.45,7.71-11.76,15-5.18,8.7-4.38,12.81-8.56,24.59-1.11,3.13-5,10.68-12.83,25.66-11,21.05-13,24.46-17.11,28.87-6,6.42-13.46,14.47-20.31,12.84-2-.48-6-2.26-16-35.29-3.77-12.33-5.65-18.49-7.49-27.8-3.2-16.22-1.45-17.32-4.28-31C176.19,187.52,173.33,188,169,170c-5.14-21.12-3.22-30.06-8.55-32.08-3.43-1.3-10.18,4.11-23.53,15-17.51,14.25-21.81,20-23.52,22.46-4.78,6.76-3.64,7.49-9.63,18.17C95.6,208,85.84,225.77,77,224.55c-3.56-.49-5.94-4.36-10.69-12.11-5.63-9.18-6.84-15.23-10.46-23.77-1.77-4.18-5.48-10.29-12.83-22.33C23.82,134.88,20.73,133.59,19.25,124c-1.09-7,0-10.19-2.14-22.46-1.44-8.3-2.89-12.37-4.28-18.17C9.4,69,10.06,59.51,9.62,49.19,9.13,37.7,7.1,21.11,0,0Z"/>
    </g>
  </g>
</svg>
