<svg xmlns="http://www.w3.org/2000/svg" width="553.93" height="556.04" viewBox="0 0 553.93 556.04">
  <defs>
    <style>
      .cls-1 {
        fill: #845a38;
      }
    </style>
  </defs>
  <title>FronRock_18</title>
  <g id="Layer_2" data-name="Layer 2">
    <g id="Resources">
      <path class="cls-1" d="M3.21,0H553.93V556c-24-15.36-44.73-21.65-58.84-24.59-32.64-6.81-48,.6-69.5-13.91-10.7-7.22-12.76-13-29.94-23.52-12-7.3-17.22-8.31-23.53-16-5.91-7.25-8.41-15.12-11.76-25.66A182.9,182.9,0,0,1,355,429.86c-4.4-23.8-2.9-31.56-8.56-48.12-3.6-10.52-5.39-15.78-9.62-17.11-10.84-3.39-27.24,19.08-40.64,37.43-7.74,10.61-14,19.15-20.31,32.08-4.47,9.11-6.88,16.1-13.9,26.73-7.28,11-12.12,18.34-18.18,18.18-4.8-.13-9.22-4.91-19.25-25.66-8.2-17-13.23-30.3-17.11-40.64-14.84-39.6-16.91-45.23-20.32-55.6-5.21-15.86-7.82-23.79-9.62-32.08-4.15-19.1-3-27.14-5.35-49.19-1.17-11.24-3.63-24.25-8.55-50.26-8.25-43.56-12.21-54.92-15-62-5.63-14.47-14.83-38.13-24.59-37.42-6.42.46-7.16,11-22.46,36.35-9.28,15.37-10.53,14-19.25,28.88C72,209,72.71,212.75,63.09,228.83c-8.76,14.66-18.93,31.64-25.66,29.94-6.52-1.64-5-19.57-8.55-46C24.72,181.5,19.51,183,10.7,143.29.3,96.48-.06,60.16,0,48.12A392.64,392.64,0,0,1,3.21,0Z"/>
    </g>
  </g>
</svg>
