<svg xmlns="http://www.w3.org/2000/svg" width="231.559" height="296.978" viewBox="0 0 231.559 296.978">
  <title>FronRock_6</title>
  <path d="M231.559,296.978H0a122.367,122.367,0,0,1,7.082-40.062c6.335-17.63,10.934-17.164,19.714-38.155C36.7,195.072,33.435,188.288,44.6,171.7c6-8.915,7.889-8.353,14.626-19.077,7.685-12.235,8.672-18.446,17.17-26.709,1.8-1.752,1.007-.743,12.082-9.538,10.269-8.155,15.4-12.233,17.805-14.626,7.881-7.851,11.469-15.891,15.9-26.073,5.959-13.7,5.778-18.926,10.175-33.067C135.626,32.1,145.789-.592,154.614.008c6.38.434,9.987,18.129,16.533,50.237,3.95,19.373,6.351,31.152,7.631,48.329,2.047,27.471-1.334,34.4,3.18,57.232,3.354,16.967,5.633,15.224,7,27.98,2.574,24.12-5.168,34.178,2.543,45.786,5.056,7.61,9.218,4.542,18.339,15.485,5.281,6.337,7.853,12.126,12.821,23.305a120.382,120.382,0,0,1,7.631,22.257C230.884,293.212,231.291,295.4,231.559,296.978Z" fill="#764c24"/>
</svg>
