<svg xmlns="http://www.w3.org/2000/svg" width="110.493" height="129.427" viewBox="0 0 110.493 129.427">
  <title>FronRock_11</title>
  <path d="M0,129.427H110.493V0A69.957,69.957,0,0,0,87.877,8.6c-6.2,3.713-11.019,6.6-13.569,12.277-2.364,5.262-.447,7.742,0,19.385.364,9.486.638,19.2-3.877,29.077C68.688,73.148,65.583,79.938,58.8,82.9c-4.834,2.114-6.6.125-12.923,1.293-9.2,1.7-15.357,7.728-21.323,13.569-2.152,2.107-3.538,3.729-12.923,16.154C6.848,120.25,2.87,125.572,0,129.427Z" fill="#764c24"/>
</svg>
