<svg xmlns="http://www.w3.org/2000/svg" width="315.82" height="236.2" viewBox="0 0 315.82 236.2">
  <defs>
    <style>
      .cls-1 {
        fill: #845a38;
      }
    </style>
  </defs>
  <title>FronRock_4</title>
  <g id="Layer_2" data-name="Layer 2">
    <g id="Resources">
      <path class="cls-1" d="M5.61,0H315.82V233.89c-13.56,3.85-18.07,2.2-19.7,0-1.95-2.65.47-5.84-2-10.83-.85-1.74-2.16-3.45-8.37-7.88-5.92-4.23-8.08-5.07-12.31-7.88-7.88-5.24-11.87-7.9-14.28-12.8-1.82-3.72-1.71-8.55-1.48-18.22.26-10.52,1.35-11.2,1-17.24-.51-8.51-2.77-8.61-5.11-19.87a86.45,86.45,0,0,1-1.79-26.41c.58-5.91,1.48-7.86,1.48-14.28a81,81,0,0,0-1.48-14.77,83,83,0,0,0-3-11.33c-3.34-9.86-5-14.79-8.37-16.74-6-3.49-11,2.72-23.14.49-5-.9-4-1.9-10.84-3.94-15.73-4.67-22.37.11-27.57-5.41-3.08-3.27-2.06-6.33-6.89-10.83a23.85,23.85,0,0,0-6.9-4.44c-9.36-4.1-22.46-3.16-34-2.46-25,1.53-29.78,1.21-34-2.46-3.45-3-4-6.13-8.86-8.37-5.43-2.53-10.58-1.34-15.76-.49C58.84,20,61.16,17.12,45,19.2c-21.1,2.72-27.36,7.91-35.95,3.45-1.52-.79-6.58-3.42-8.37-8.86a11.88,11.88,0,0,1,0-7.88A11.76,11.76,0,0,1,5.61,0Z"/>
    </g>
  </g>
</svg>
