<svg xmlns="http://www.w3.org/2000/svg" width="110.49" height="129.43" viewBox="0 0 110.49 129.43">
  <defs>
    <style>
      .cls-1 {
        fill: #845a38;
      }
    </style>
  </defs>
  <title>FronRock_11</title>
  <g id="Layer_2" data-name="Layer 2">
    <g id="Resources">
      <path class="cls-1" d="M0,129.43H110.49V0A69.74,69.74,0,0,0,87.88,8.6c-6.2,3.71-11,6.6-13.57,12.27-2.37,5.26-.45,7.74,0,19.39.36,9.48.64,19.2-3.88,29.07C68.69,73.15,65.58,79.94,58.8,82.9,54,85,52.2,83,45.88,84.2c-9.2,1.69-15.36,7.72-21.33,13.56-2.15,2.11-3.53,3.73-12.92,16.16C6.85,120.25,2.87,125.57,0,129.43Z"/>
    </g>
  </g>
</svg>
