<svg xmlns="http://www.w3.org/2000/svg" width="243.1" height="256.38" viewBox="0 0 243.1 256.38">
  <defs>
    <style>
      .cls-1 {
        fill: #845a38;
      }
    </style>
  </defs>
  <title>FronRock_8</title>
  <g id="Layer_2" data-name="Layer 2">
    <g id="Resources">
      <path class="cls-1" d="M243.1,0H0V256.38A40.61,40.61,0,0,0,16.07,248c3.41-3,11.13-10.77,17.46-41.92,3.89-19.12,1.21-17.32,4.19-27.24,1.87-6.21,8.72-26.23,27.25-41.22,16.5-13.34,25.64-9.23,31.43-20.25,6.69-12.73-4.06-20.94,2.1-37.73C103,67.31,113,60.29,122.25,53.79a94.29,94.29,0,0,1,34.23-14.67c15.32-3.29,18.05,0,46.8-2.8,19.5-1.86,24.17-3.92,27.94-7C241.56,20.93,242.92,6.68,243.1,0Z"/>
    </g>
  </g>
</svg>
