<svg xmlns="http://www.w3.org/2000/svg" width="200.47" height="98.86" viewBox="0 0 200.47 98.86">
  <defs>
    <style>
      .cls-1 {
        fill: #845a38;
      }
    </style>
  </defs>
  <title>FronRock_14</title>
  <g id="Layer_2" data-name="Layer 2">
    <g id="Resources">
      <path class="cls-1" d="M3.13,98.86H200.47a21.11,21.11,0,0,0-6.65-9.38c-6.94-5.34-14.31-2.85-34.39-3.51-8-.27-13.7-.89-19.93-1.57-11-1.2-19.11-2.65-27.74-5.47-5.51-1.8-8.32-2.74-10.94-4.69-8.23-6.11-6.42-12.88-12.51-15.63-5.57-2.5-8.27,2.63-20.71,1.57-4-.35-7.58-.69-10.94-3.13-2.39-1.73-3.37-3.55-7.42-12.11-6.16-13-6.13-13.54-7.82-15.63C37,23.75,35,25.23,30.48,19.54c-5.37-6.83-3.22-9.89-7.82-13.29C21.48,5.38,20.44,4.91,8.21,2L0,0Q1.56,49.43,3.13,98.86Z"/>
    </g>
  </g>
</svg>
