<svg xmlns="http://www.w3.org/2000/svg" width="315.816" height="236.202" viewBox="0 0 315.816 236.202">
  <title>FronRock_4</title>
  <path d="M5.606,0h310.21V233.889c-13.553,3.853-18.07,2.2-19.7,0-1.953-2.65.466-5.834-1.969-10.833-.847-1.739-2.159-3.446-8.371-7.878-5.921-4.225-8.08-5.065-12.31-7.879-7.876-5.239-11.868-7.894-14.279-12.8-1.825-3.715-1.709-8.549-1.478-18.219.253-10.516,1.345-11.2.985-17.234-.507-8.517-2.768-8.616-5.1-19.876a86.208,86.208,0,0,1-1.789-26.409c.572-5.912,1.474-7.863,1.477-14.279a81.653,81.653,0,0,0-1.477-14.772,84.54,84.54,0,0,0-2.955-11.326c-3.338-9.86-5.007-14.791-8.37-16.741-6.015-3.488-10.967,2.721-23.143.492-4.942-.9-3.979-1.9-10.833-3.939-15.733-4.679-22.37.1-27.574-5.416-3.081-3.268-2.058-6.326-6.894-10.833a23.728,23.728,0,0,0-6.893-4.432c-9.361-4.1-22.458-3.167-33.976-2.462-25.026,1.533-29.78,1.205-33.975-2.462-3.449-3.013-4.053-6.126-8.863-8.37-5.425-2.531-10.584-1.338-15.757-.493C58.84,19.971,61.163,17.12,45,19.2c-21.1,2.72-27.358,7.907-35.944,3.446-1.525-.792-6.587-3.422-8.371-8.863a11.851,11.851,0,0,1,0-7.878A11.757,11.757,0,0,1,5.606,0Z" fill="#764c24"/>
</svg>
