<svg xmlns="http://www.w3.org/2000/svg" width="243.096" height="256.383" viewBox="0 0 243.096 256.383">
  <title>FronRock_8</title>
  <path d="M243.1,0H0V256.383a40.662,40.662,0,0,0,16.067-8.4c3.411-2.965,11.129-10.771,17.464-41.914,3.889-19.12,1.213-17.327,4.191-27.243,1.865-6.209,8.717-26.234,27.243-41.215,16.508-13.348,25.645-9.237,31.435-20.257,6.685-12.725-4.063-20.932,2.1-37.722,4.52-12.322,14.508-19.346,23.751-25.847a94.484,94.484,0,0,1,34.228-14.669c15.327-3.29,18.058-.049,46.8-2.794,19.506-1.863,24.177-3.921,27.943-6.986C241.556,20.928,242.924,6.683,243.1,0Z" fill="#764c24"/>
</svg>
