<svg xmlns="http://www.w3.org/2000/svg" width="226.79" height="250.086" viewBox="0 0 226.79 250.086">
  <title>FronRock_1</title>
  <path d="M0,250.086a208.093,208.093,0,0,0,37.8-50.4c3.792-7.1,7.551-15.761,14.538-32.953,14.932-36.739,22.4-55.109,25.2-65.9,7.692-29.65,3.224-35.275,12.6-62.028C92.6,31.783,104.17-1.248,112.426.036c5.454.849,5.739,16.1,13.568,83.35a427.4,427.4,0,0,0,11.631,63.967c6.137,23.066,10.553,31.215,15.506,37.8,10.229,13.593,19.51,15.3,37.8,29.076a203.482,203.482,0,0,1,35.86,34.89Z" fill="#764c24"/>
</svg>
