<svg xmlns="http://www.w3.org/2000/svg" width="397.388" height="81.294" viewBox="0 0 397.388 81.294">
  <title>FronRock_13</title>
  <path d="M0,81.294H397.388C389.752,74.638,378.4,40.5,363.14,34.125c-6.977-2.914-25.044-10.247-48.462-9.692-3.822.09-12.671,1.352-30.369,3.876-24.1,3.438-32.536,5.4-38.77,0-3.917-3.391-2.425-5.757-9.692-15.507C230.011,4.971,227.092,1.055,222.924.525c-7.026-.894-9.831,8.509-22.616,18.092-11.863,8.892-23.862,11.6-29.723,12.923-12.625,2.85-13.479-.263-34.246.646-25.647,1.124-37.076,6.429-43.292-.646-2.457-2.8-.988-3.983-5.816-12.277C82.208,10.635,77.645,6.815,76.246,5.694,71.509,1.9,68.207-.748,65.155.19c-5.391,1.657-2.862,12.3-10.878,21.658-3.605,4.207-7.611,6.132-10.985,7.754-13.9,6.682-22.532,1.054-31.661,6.461C7.681,38.4,2.666,69.23,0,81.294Z" fill="#764c24"/>
</svg>
