<svg xmlns="http://www.w3.org/2000/svg" width="209.34" height="351.82" viewBox="0 0 209.34 351.82">
  <defs>
    <style>
      .cls-1 {
        fill: #845a38;
      }
    </style>
  </defs>
  <title>FronRock_2</title>
  <g id="Layer_2" data-name="Layer 2">
    <g id="Resources">
      <path class="cls-1" d="M0,351.82c11.24-1.66,27.89-6.05,39.74-19.39,10.47-11.79,11.45-24.1,17.44-52.33,8.32-39.17,9.93-32,15.51-61.06,7.61-39.69,2.87-44,10.66-99.83C85.34,105,87.9,90.66,93,62,100.45,20.73,104.2.09,106.61,0c9.53-.33,35.06,100,29.08,190.93-.1,1.43,1.55,29.06,4.84,84.32,1.3,21.73,2.74,41.47,16.48,51.37,5,3.6,8.61,3.73,27.14,11.63,10.93,4.65,19.64,8.86,25.19,11.63Z"/>
    </g>
  </g>
</svg>
