<svg xmlns="http://www.w3.org/2000/svg" width="317.2" height="209.72" viewBox="0 0 317.2 209.72">
  <defs>
    <style>
      .cls-1 {
        fill: #845a38;
      }
    </style>
  </defs>
  <title>FronRock_22</title>
  <g id="Layer_2" data-name="Layer 2">
    <g id="Resources">
      <path class="cls-1" d="M0,0A264,264,0,0,1,21,28.84c7.27,11.55,11.9,18.9,15.73,29.71,2.59,7.29,4.09,18.06,7,39.32,2.57,18.83,3.85,28.24,4.37,34.95,1.43,18.58.46,25.18,3.5,26.22,5,1.7,15.7-13.32,21.84-27.09,4.35-9.74,3-11.34,10.49-39.33,5-18.66,7.36-24.82,12.23-31.45a50.42,50.42,0,0,1,16.6-14.86c2.09-1.09,8.93-4.49,20.1-5.24,1.81-.12,41.9-2.28,57.67,23.59,5.17,8.48,6.13,17.33,7,25.34,1.37,12.61-1.14,17.63,0,33.21.28,3.76,1.35,9.79,3.5,21.84,2.35,13.22,4.92,26.41,8.74,41.95,5.33,21.72,6.87,22.65,7.86,22.72,4.31.31,6.85-15,20.1-48.06,10-25,14.36-30.58,17.48-34.08,8.08-9.07,12.69-9.47,20.09-20.1,5.07-7.27,5.3-10.51,12.24-24.47,6-12,10.16-18.35,13.1-23.59C306.85,48.31,314,30.71,317.2,2.62Z"/>
    </g>
  </g>
</svg>
