<svg xmlns="http://www.w3.org/2000/svg" width="188.62" height="247.99" viewBox="0 0 188.62 247.99">
  <defs>
    <style>
      .cls-1 {
        fill: #845a38;
      }
    </style>
  </defs>
  <title>FronRock_10</title>
  <g id="Layer_2" data-name="Layer 2">
    <g id="Resources">
      <path class="cls-1" d="M1.41,16.07C2.48,25.54,3,30.32,4.2,32.14c5,7.89,18.26,3,40.52,4.89,18.08,1.57,12.36,5.09,51,14,10.47,2.4,17.29,3.61,22.36,9.78,4.56,5.55,3.48,10,6.28,22.35,1,4.58,4.9,14.29,12.58,33.53,11.39,28.55,11.3,27,11.87,30,1.52,8.08.13,8.32,0,40.52-.07,16.77.32,14.81,0,20.95-1,20.22-4.3,24.26-.7,29.34,3.76,5.3,11.82,6.56,28,9.08,5.24.82,9.61,1.2,12.57,1.4V0H0C.23,3.79.65,9.35,1.41,16.07Z"/>
    </g>
  </g>
</svg>
