<svg xmlns="http://www.w3.org/2000/svg" width="188.62" height="247.989" viewBox="0 0 188.62 247.989">
  <title>FronRock_10</title>
  <path d="M1.409,16.071C2.482,25.543,3.042,30.317,4.2,32.137c5.032,7.891,18.254,2.951,40.516,4.89C62.8,38.6,57.075,42.122,95.713,51c10.465,2.4,17.287,3.617,22.354,9.78,4.566,5.555,3.485,10,6.287,22.353,1.037,4.578,4.9,14.291,12.574,33.531,11.388,28.543,11.3,26.962,11.875,30.038,1.514,8.083.131,8.315,0,40.516-.068,16.778.315,14.811,0,20.956-1.037,20.213-4.3,24.261-.7,29.339,3.759,5.3,11.82,6.559,27.942,9.081,5.24.82,9.61,1.2,12.574,1.4V0H0C.234,3.785.647,9.348,1.409,16.071Z" fill="#764c24"/>
</svg>
