<svg xmlns="http://www.w3.org/2000/svg" width="3663.888" height="1028.769" viewBox="0 0 3663.888 1028.769">
  <title>Cloud</title>
  <g>
    <path d="M3650.192,748.165a45.96,45.96,0,0,0-27.374-5.475c-10.99,1.308-10.867,5.5-19.162,5.475-12.6-.039-14.267-9.717-27.373-10.95-12.631-1.187-19.628,7-24.637,2.738-3.928-3.34-.74-9.322-5.475-16.424a22.483,22.483,0,0,0-10.949-8.212,29.661,29.661,0,0,0,8.212-13.687c1.152-4.31,2.543-9.511,0-13.687-4.055-6.661-14.452-4.7-16.424-10.95-.74-2.345.642-2.877,0-5.475-1.329-5.372-8.273-7.27-16.425-10.949-13.926-6.286-11.3-8.714-19.161-10.95-13.433-3.822-18.075,4.131-30.111,0-7.28-2.5-15.633-8.857-16.424-16.424-.5-4.786,2.438-6.091,5.474-16.424.9-3.07,2.894-9.849,2.738-16.425-.093-3.875-1.073-13.609-10.95-24.636,14.045-10.857,13.932-19.383,13.687-21.9-.509-5.221-4.11-10.459-8.212-16.424-5.217-7.587-8.49-9.454-8.212-13.687.35-5.333,5.813-6.457,5.475-10.95-.219-2.907-2.618-3.924-10.95-10.949-6.652-5.61-10-8.465-10.95-10.95-2.468-6.449,2.269-9.688,0-16.424-1.84-5.464-6.65-8.361-10.949-10.95a40.206,40.206,0,0,0-21.9-5.474c-.154-4.874-1.272-14.375-8.212-21.9-9.03-9.791-22.772-10.659-27.374-10.95-8.531-.539-10.424,1.659-19.162,0-5.593-1.062-12.453-2.365-16.424-8.212-3.807-5.606-2.912-12.371-2.738-13.687a24.913,24.913,0,0,1,2.738-8.212c2.91-5.638,5.175-5.37,5.475-8.212.355-3.368-2.752-4.437-8.213-13.687-1.728-2.929-2.593-4.393-2.737-5.475-.794-5.954,5.616-8.544,8.212-16.424,1.715-5.206.793-9.766,0-13.687-.532-2.632-2.508-12.4-10.949-19.162-10.631-8.513-23.848-6.115-27.374-5.475-16.848,3.058-25.694,16.5-27.374,19.162-1.885-9.167-8.74-15.782-16.424-16.424a16.621,16.621,0,0,0-13.687,5.474c-5,5.9-1.076,11.438-5.475,16.425-4.7,5.334-14.915,5.484-21.9,2.737-9.04-3.555-7.955-10.108-16.424-13.687-8.766-3.7-20.169-1.012-27.374,5.475-1.942,1.748-8.26,7.437-8.212,16.424a21.187,21.187,0,0,0,5.475,13.687c-3.736,2.271-18.722,11.815-24.637,27.374a36.229,36.229,0,0,0-2.737,16.424,34.385,34.385,0,0,0,2.737,10.95c-15.648-.475-24.694,3.943-30.111,8.212-9.409,7.415-9.27,15.482-19.162,19.162-8.183,3.044-11.845-1.15-21.9,2.737-3.871,1.5-11.38,4.4-13.687,10.95-2.771,7.869,3.086,17.835,5.475,21.9,3.147,5.354,5.613,7,5.475,10.949-.153,4.373-3.256,4.851-5.475,10.95a24.493,24.493,0,0,0,0,16.424,22.548,22.548,0,0,0,5.475,8.212c-2.812.79-7.412,2.12-12.92,3.908-3.6-.819-7.362-1.84-10.969-5.558-5.662-5.838-3.206-10.353-8.212-13.687-7.452-4.964-23.521-2.034-27.374,8.212-2.079,5.528.027,11.516,2.9,15.863-4.314,1.637-5.527,3.135-11.287,3.927-13.589,1.867-24.752-4.011-27.374-5.475-8.512-4.753-8.074-8.233-19.161-16.424-4.591-3.392-10.7-7.907-19.162-10.95-17.564-6.318-34.191-2.314-43.8,0a101.483,101.483,0,0,0-16.425,5.475c-1.59-.584-16.787-6.406-19.161-19.162-1.28-6.877,1.565-13.638,2.737-16.424,2.23-5.3,3.9-5.662,8.212-13.687,3.441-6.406,5.161-9.608,5.475-13.687.671-8.713-4.691-15.466-5.475-16.424-1.344-1.645-4.448-4.975-24.636-10.95-12.687-3.754-19.03-5.632-24.637-5.475-7.73.217-20.592,2.5-21.9,2.738-7.1,1.275-10.823,2.318-13.687,0-2.891-2.341-3.823-7.234-2.737-10.95,1.381-4.726,5.335-5.187,5.475-8.212.125-2.71-2.918-5.122-13.687-10.949-15.973-8.644-19.661-8.957-21.9-13.687-2.5-5.293.748-7.789-2.738-13.687-.823-1.394-4.367-6.944-10.949-8.212a14.731,14.731,0,0,0-5.475,0c6.124-24.067,2.117-33.851-2.737-38.324-3.549-3.27-5.656-1.954-21.9-8.212-14.1-5.431-14.982-7.375-21.9-8.212a48.472,48.472,0,0,0-21.9,2.737c-10.366,4.013-13.3,9.75-19.162,8.213-3.961-1.04-7.036-4.816-8.212-8.213-1.669-4.819,1.132-7,0-10.949-.382-1.331-1.893-5.243-19.162-10.95-11.132-3.679-16.7-5.519-24.636-5.474-5.7.031-14.108.078-21.9,5.474a30.229,30.229,0,0,0-8.213,8.212c-2.395,3.618-2.482,5.593-5.474,10.95-2.7,4.826-4.044,7.239-5.475,8.212-6.848,4.659-15.2-4.143-27.374,0a39.586,39.586,0,0,0-5.474,2.738c-12.183,6.668-21.6,11.823-27.374,21.9-4.5,7.848-5.194,15.9-5.475,19.161a96.03,96.03,0,0,0,0,16.424c.319,3.027.619,4.168.265,5.02-4.554-2.065-10-2.444-11.37-6.793-.74-2.345.643-2.877,0-5.475-1.329-5.372-8.273-7.27-16.424-10.949-13.927-6.286-11.3-8.713-19.162-10.95-13.433-3.822-18.075,4.131-30.111,0-7.279-2.5-15.633-8.857-16.424-16.424-.5-4.786,2.438-6.091,5.474-16.424.9-3.07,2.895-9.849,2.738-16.425-.093-3.875-1.073-13.609-10.95-24.636,14.045-10.857,13.932-19.384,13.687-21.9-.508-5.221-4.11-10.459-8.212-16.424-5.217-7.587-8.49-9.454-8.212-13.687.35-5.333,5.813-6.457,5.475-10.95-.219-2.907-2.618-3.924-10.95-10.949-6.652-5.61-10-8.465-10.949-10.95-2.469-6.449,2.268-9.688,0-16.424-1.84-5.465-6.65-8.361-10.95-10.95a40.2,40.2,0,0,0-21.9-5.474c-.153-4.874-1.272-14.375-8.212-21.9-9.03-9.791-22.772-10.659-27.374-10.95-8.53-.539-10.424,1.659-19.162,0-5.593-1.062-12.452-2.365-16.424-8.212-3.807-5.606-2.911-12.371-2.737-13.687a24.893,24.893,0,0,1,2.737-8.212c2.911-5.638,5.175-5.37,5.475-8.212.355-3.368-2.751-4.437-8.212-13.687-1.729-2.929-2.593-4.393-2.738-5.475-.793-5.954,5.616-8.544,8.212-16.424,1.716-5.206.793-9.766,0-13.687-.532-2.632-2.507-12.4-10.949-19.162C2230.223-2.237,2217.007.161,2213.48.8c-16.847,3.058-25.693,16.5-27.374,19.162-1.885-9.167-8.74-15.782-16.424-16.424A16.619,16.619,0,0,0,2156,9.014c-5,5.9-1.076,11.437-5.474,16.424-4.706,5.334-14.916,5.484-21.9,2.737-9.04-3.555-7.955-10.108-16.424-13.687-8.765-3.7-20.169-1.012-27.374,5.475-1.941,1.748-8.26,7.436-8.212,16.424a21.192,21.192,0,0,0,5.475,13.687c-3.735,2.271-18.721,11.815-24.637,27.374a36.257,36.257,0,0,0-2.737,16.424,34.385,34.385,0,0,0,2.737,10.95c-15.647-.475-24.694,3.943-30.111,8.212-9.409,7.415-9.27,15.482-19.161,19.162-8.184,3.044-11.846-1.15-21.9,2.737-3.872,1.5-11.381,4.4-13.687,10.95-2.772,7.869,3.086,17.835,5.474,21.9,3.148,5.354,5.613,6.995,5.475,10.949-.153,4.373-3.256,4.851-5.475,10.95a24.493,24.493,0,0,0,0,16.424,22.548,22.548,0,0,0,5.475,8.212c-8.321,2.337-32.241,9.368-49.273,19.162-4.372,2.514-8.912,5.568-10.949,10.949-2.346,6.2-.653,13.578,0,16.425a34.982,34.982,0,0,0,1.537,4.987,21.8,21.8,0,0,0-9.847.96,39.6,39.6,0,0,0-5.475,2.737c-12.182,6.669-21.6,11.824-27.374,21.9-4.5,7.849-5.193,15.9-5.475,19.162a96.035,96.035,0,0,0,0,16.424c.378,3.587.733,4.526,0,5.475-3.282,4.249-16.211-7.091-27.374-2.737-8.353,3.258-6.067,11.541-16.424,16.424-7.862,3.707-13.241.85-16.424,5.475-2,2.9-.53,4.974-2.738,13.687-1.2,4.745-1.8,7.118-2.737,8.212-5.513,6.459-18.917-2.78-41.061,0-8.958,1.125-13.516,3.484-16.424,5.475a28.837,28.837,0,0,0-9.542,10.361,57.716,57.716,0,0,0-15.038-5.787c-6.58-1.493-21.115-4.793-30.111,2.738-7.11,5.952-4.242,13.213-10.949,16.424-3.581,1.714-9.736.253-21.9-2.737-11.409-2.806-13.311-4.077-16.424-2.738-5.99,2.578-9.309,11.747-8.212,19.162,1.7,11.458,13.944,18.78,19.162,21.9,8.16,4.878,13.432,5.14,13.687,8.212.352,4.245-9.288,8.923-16.425,10.95-11.584,3.29-15.09-.826-24.636,2.737a35.447,35.447,0,0,0-7.044,3.553c-10.525-.177-19.074,9.285-23.124,13.771-6.31,6.992-8.89,13.758-10.949,19.162-2.658,6.971-5.965,15.646-2.738,21.9.193.373.518.951.93,1.732l-.873.105c-12.834,1.532-14.344,1.134-19.162,2.738-5.064,1.686-11.063,3.686-14.9,8.608a23.824,23.824,0,0,0-4.322-2.233c-9.546-3.843-18.467-1.92-27.374,0-11.724,2.527-15.2,6.575-16.424,8.212a17.777,17.777,0,0,0-2.738,5.475c-1.464.158-2.888.307-4.28.451a30.587,30.587,0,0,0,4.337-9.564c.914-3.573,2.224-8.693,0-13.687-4.093-9.192-16.919-10.688-19.162-10.949a31.194,31.194,0,0,0-16.424,2.737,31.527,31.527,0,0,0-13.687,10.95c-2.362,3.478-3.4,6.881-5.475,13.687a110.644,110.644,0,0,0-2.737,10.949c-2.844-9.822-7.345-14.222-10.95-16.424-2.395-1.463-4.161-1.812-21.9-8.212-2.695-.973-4.071-1.484-5.475-2.738-4.461-3.981-2.858-9.125-5.475-16.424-.965-2.69-3.961-11.049-10.949-13.687-6.658-2.512-14.818.965-19.162,5.475-4.389,4.556-6.855,12.212-8.213,16.424-.833,2.588-1.15,4.174-2.737,5.475-2.869,2.353-6.76,1.212-13.687,0-14.378-2.514-14.147-.487-19.161-2.737-8.2-3.68-6.4-8.014-13.687-10.95-9.892-3.982-20.74.962-24.637,2.737-3.341,1.524-5.883,2.716-8.212,5.475-4.386,5.2-6.008,13.56-2.737,19.162,1.257,2.154,3.036,3.555,5.475,5.475,4.973,3.917,8.295,4.332,8.212,5.474-.2,2.7-18.663-.672-24.637,8.213a15.111,15.111,0,0,0-2.154,6.254c-.215.043-.423.073-.64.12-2.762.606-5.646,1.576-19.162,8.213-2.717,1.334-4.561,2.257-5.909,2.941-2.118-1.45-5.124-3.195-9.306-5.458-15.973-8.643-19.662-8.957-21.9-13.687-2.5-5.293.748-7.788-2.738-13.687-.823-1.393-4.367-6.944-10.949-8.212a14.753,14.753,0,0,0-5.475,0c6.124-24.066,2.117-33.85-2.737-38.323-3.55-3.271-5.656-1.954-21.9-8.212-14.1-5.432-14.983-7.376-21.9-8.212a48.465,48.465,0,0,0-21.9,2.737c-10.365,4.012-13.3,9.75-19.161,8.212-3.962-1.039-7.036-4.815-8.212-8.212-1.669-4.82,1.132-7,0-10.95-.382-1.33-1.893-5.242-19.162-10.949-11.133-3.679-16.7-5.519-24.636-5.475-5.7.032-14.108.079-21.9,5.475a30.228,30.228,0,0,0-8.213,8.212c-2.395,3.618-2.482,5.593-5.474,10.95-2.7,4.826-4.044,7.238-5.475,8.212-6.848,4.658-15.2-4.143-27.374,0a39.714,39.714,0,0,0-5.475,2.737c-12.182,6.669-21.6,11.824-27.374,21.9-4.5,7.848-5.193,15.9-5.474,19.162a96.035,96.035,0,0,0,0,16.424c.377,3.586.732,4.526,0,5.475-3.282,4.249-16.211-7.091-27.374-2.738-8.354,3.259-6.068,11.541-16.425,16.425-7.861,3.707-13.241.85-16.424,5.474-2,2.9-.529,4.975-2.737,13.687-1.2,4.746-1.8,7.119-2.737,8.213-5.513,6.459-18.917-2.78-41.061,0-8.959,1.124-13.517,3.484-16.424,5.474-1.9,1.3-8.324,5.7-10.95,13.687-1.48,4.5-.987,9.391,0,19.162.856,8.473,1.929,11.025,0,13.687-2.6,3.586-6.438,1.57-10.95,5.474-5.549,4.8-5.493,12.836-5.474,13.687.08,3.758,1.879,7.119,5.474,13.687,5.785,10.57,8.538,12.255,8.213,16.425-.454,5.8-6.335,9.7-8.213,10.949-12.744,8.462-30.209,1.111-32.848,0-6.081-2.559-4.487-3.407-13.687-8.212-10.2-5.33-18.093-9.45-27.374-8.212-3.246.433-9.555,1.907-16.424,8.212a14.1,14.1,0,0,0-2.738-8.212c-3.586-4.7-9.3-5.3-10.949-5.475-11.217-1.18-20.394,8.987-24.636,13.687-6.311,6.992-8.89,13.758-10.95,19.162-2.657,6.971-5.964,15.646-2.737,21.9.422.819,1.46,2.571,2.737,5.474,1.96,4.457,2.94,6.686,2.737,8.213-.755,5.7-15.251,12.022-27.373,8.212-8.2-2.578-7.279-7.268-16.425-10.95-9.545-3.843-18.466-1.92-27.374,0-11.723,2.527-15.2,6.575-16.424,8.212a17.781,17.781,0,0,0-2.737,5.475c-13.04,1.407-23.229,2.238-30.111,2.737-8.877.645-14.919.934-19.162,5.475-3.863,4.136-1.893,7.149-5.475,10.95-7.129,7.566-22.689,3.854-27.374,2.737-9.281-2.214-10.806-5-19.161-8.212-15.913-6.125-30.767-3.88-38.324-2.737-23.689,3.581-21.857,13.794-38.323,13.686-13.636-.088-17.683-7.111-43.8-10.949-5.933-.872-10.74-1.246-16.424,0-2.763.606-5.646,1.576-19.162,8.212-8.315,4.083-8.541,4.363-10.95,5.475-2.728,1.26-30.09,13.468-52.01,2.737-3.4-1.663-3.337-2.249-5.475-2.737-9.6-2.193-15.836,8.468-32.848,16.424a64.2,64.2,0,0,1-16.424,5.475c-13.53,2.45-24.62-.474-32.849-2.737-15.022-4.132-13.639-7.083-27.374-10.95-9.393-2.644-21.722-6.116-35.586-2.737C87.764,793.167,87.6,799.41,73.958,800.81c-2.531.26-2.6.053-21.9,0-8.315-.022-12.473-.034-13.687,0-11.591.325-36.935,2.97-38.323,10.95-.468,2.689,2.426,5.442,8.212,10.949,2.636,2.509,10.078,9.59,19.162,13.687,11.628,5.244,18.569,2.27,54.748,0,23-1.443,28.583-.767,32.848,0,12.949,2.33,15.717,5.855,30.111,10.95,6.949,2.459,29.857,10.344,54.748,8.212,16.144-1.383,16.772-5.579,38.323-10.95,14.08-3.508,30.565-4.212,62.96-5.474,37.677-1.469,56.515-2.2,71.172,0,11.178,1.68,23.876,4.769,49.273,10.949,22.151,5.39,31.126,8.213,46.535,8.212a164.322,164.322,0,0,0,30.111-2.737c12.24-2.543,15.425-5.054,24.637-5.475,2.759-.126,11.9-.332,27.374,5.475,23.058,8.65,21.9,16.278,38.323,21.9,23.248,7.956,45.767-.416,52.01-2.737A87.639,87.639,0,0,0,667.97,858.3c3.236,5.721,10.9,17.261,24.636,21.9,13.078,4.417,24.977.319,41.061-5.474,23.547-8.481,23.148-14.373,43.8-21.9,20.846-7.6,38.947-8.042,49.273-8.212,18.313-.3,31.955,2.492,46.536,5.475,21.4,4.38,21.893,6.883,41.06,10.95,24.324,5.16,43.6,5.385,57.485,5.474,28.2.181,42.292.271,54.748-5.474,7.482-3.452,12.487-7.348,21.9-8.213,14.431-1.325,25.637,5.724,30.111,8.213,21.184,11.781,51.349,10.245,79.993,5.111a69.134,69.134,0,0,0,11.927-.758,59.06,59.06,0,0,0,18.957-5.981c5.264-1.31,10.312-2.618,15.043-3.847,15.7-4.078,17.377-5.818,40.413-13.118,2.388,2.586,4.373,5.567,10.445,9.26,5.725,3.48,10.786,6.557,16.425,5.474,6.54-1.256,7.4-6.868,16.424-13.687,2.158-1.631,8.687-6.564,16.424-8.212,12.293-2.617,17.129,5.3,41.061,10.95,10.222,2.413,15.333,3.62,21.9,2.737a29.132,29.132,0,0,0,13.075-4.892c2.524,6.578,13.512,11.81,21.365,13.925,22.771,6.133,47.33-6.321,57.34-12.013l4.028.243c28.446,1.709,42.856,2.457,52.011-2.738a40.879,40.879,0,0,0,6.418-4.564,29.751,29.751,0,0,0,8.86,5.385c12.765,4.984,26.724,2.262,38.323,0,9.7-1.891,11.038-3.5,16.424-2.738,11.219,1.588,19.089,10.5,21.9,13.687,7.493,8.489,5.172,11.513,10.95,16.425,9.625,8.183,23.742,6.316,30.111,5.474,4.126-.545,18.247-2.9,30.111-13.686,7.428-6.752,6.948-10.423,13.687-13.687a29.446,29.446,0,0,1,24.637,0c7.478,3.583,6.586,7.705,16.424,13.687,5.724,3.48,10.785,6.557,16.424,5.474,6.54-1.256,7.4-6.868,16.424-13.687,2.159-1.631,8.688-6.564,16.425-8.212,12.293-2.617,17.129,5.3,41.06,10.95,10.222,2.413,15.333,3.62,21.9,2.737,15.334-2.06,16.583-11.433,30.111-13.687,11.18-1.862,13.965,3.931,35.587,8.212,6.731,1.333,14.524,1.8,30.111,2.738,28.446,1.709,42.856,2.457,52.01-2.738,6.8-3.857,7.472-6.888,16.424-10.949a63.921,63.921,0,0,1,24.637-5.475c13.744-.331,17.017,3.876,38.323,5.475,7.048.529,10.634.777,13.687,0,11.413-2.907,13.539-11.706,24.636-19.162,11.415-7.669,23.64-8.085,27.374-8.212,14.428-.491,16.48,5.8,38.324,10.95,8.3,1.956,21.626,4.973,38.323,2.737,8.751-1.172,20.034-2.821,30.111-10.949,8.1-6.537,7.8-11.111,13.687-16.425,11.5-10.377,28.924-7.617,46.536-5.475,0,0,42.309,5.148,82.121,5.475,23.939.2,42.077.346,65.7-5.475,17.487-4.309,24.55-8.58,43.8-10.949,11.035-1.358,22.106-.924,43.8,0,40.838,1.739,61.257,2.609,62.96,2.737,5.35.4,13.541,1.041,22.585-.462,3.641.316,7.768.7,12.561,1.168,53.973,5.3,67.213,9.6,82.122,0,2.379-1.532,5.512-3.871,9.75-6.639,9.6.974,21.36-6.733,28.9-14.6a101.505,101.505,0,0,1,10.627-3.392c21.89-5.6,31.044,1.152,55.356.44-4.207,3.544-9.581,9.292-9.6,16.03-.009,4.092,2.731,8.2,8.212,16.425a123.051,123.051,0,0,0,8.213,10.949,19.388,19.388,0,0,0-2.738,10.95c.554,7.533,6.142,12.481,13.687,19.162a77.27,77.27,0,0,0,16.424,10.949c8.574,4.57,12.86,6.855,16.425,5.475,5.78-2.239,4.216-10.19,10.949-13.687,3.5-1.817,6.895-1.212,13.687,0,13.033,2.325,15.624,7.367,21.9,5.475,5-1.507,5.88-5.462,10.95-5.475,4-.01,4.317,2.447,8.212,2.737,5.657.421,7.816-4.553,16.424-8.212a38.54,38.54,0,0,1,10.95-2.737c13.468-1.129,18.428,8.017,24.636,5.475,8.348-3.42,3.12-21.488,13.687-27.374,3.86-2.151,9.761-2.637,13.687,0,8.809,5.917-.874,21.819,8.212,35.586,8.1,12.275,24.962,13.51,27.374,13.687,1.1.08,22.793,1.406,30.111-10.95,4.645-7.843.492-16.122,5.475-19.162,4.283-2.612,11.06,1.243,13.687,2.738,14.326,8.15,12.381,20.568,21.9,24.636,11.177,4.778,27.44-6.54,35.586-16.424,9.729-11.806,10.8-25.111,10.949-30.111a71.411,71.411,0,0,0,21.9,0c4.231-.682,7.441-1.631,10.95,0,4.867,2.261,4.492,6.781,8.212,10.949,6.929,7.764,22.883,8.51,32.848,2.738,8.059-4.668,6.113-10.071,13.687-13.687,10.192-4.866,16.364,3.651,27.374,0,13.206-4.379,16.355-20.617,21.9-19.162,4.115,1.08,2.375,10.023,8.212,16.424,6.33,6.942,17.9,6.872,27.374,5.475.967,1.461,6.35,9.288,16.425,10.95,9.261,1.527,18.855-2.756,24.636-10.95a51.377,51.377,0,0,0,19.162,0c15.476-3.018,18.569-11.493,30.111-10.949.315.015.6.054.9.08,7.279,6.22,10.514,10.219,20.25,12.52,3.5.827,17.692,4.18,30.112-2.738,5.932-3.3,5.346-5.547,10.949-8.212,9.849-4.685,16.1.135,30.111,0,4.519-.043,13.962-2.766,32.849-8.212,16.269-4.691,15.326-4.889,27.374-8.212,18-4.965,26.993-7.447,35.586-8.212,11.153-.993,14.6.3,21.9-2.738,1.478-.615,16.861-7.212,16.424-16.424C3663.578,755.509,3655.937,751.317,3650.192,748.165Z" fill="#f6eff6"/>
    <path d="M1795.574,687.943c-1.229,1.224-10.378,10.619-8.212,21.9,2.71,14.114,20.777,18.882,21.9,19.161,12.333,3.069,16.89-3.856,30.111,0,9.615,2.8,8.153,6.743,16.424,8.213,12.3,2.184,17.82-6.114,30.111-2.738,1.723.473,4.8,2.141,10.95,5.475,13.187,7.148,13.015,8.837,19.161,10.949,3.943,1.356,13.394,4.6,21.9,0a21.449,21.449,0,0,0,8.212-8.212c11.1,2.836,19.172,1.7,24.636,0,8.492-2.641,13.413-7.49,24.637-8.212,8.511-.547,10.445,1.935,10.949,2.738,1.654,2.636-.818,5.193,0,8.212,1.617,5.963,14.958,9.6,27.374,8.212,19.129-2.131,29.042-15.386,35.586-10.95,3.931,2.665,1.259,8.062,5.475,10.95,5.312,3.639,13.115-2.492,30.111-8.212a111.556,111.556,0,0,1,21.9-5.475c13.587-1.752,34.545-.943,38.323,8.212,1.208,2.928-.6,3.653,0,10.95.322,3.907,1.028,12.462,5.475,16.424,5.084,4.53,12.687.944,21.9,0,19.273-1.976,35.688,8.623,52.01,19.162,18.306,11.819,18.893,18.6,32.849,21.9,3.5.827,17.692,4.18,30.111-2.738,5.933-3.3,5.346-5.547,10.95-8.212,9.849-4.684,16.095.135,30.111,0,4.518-.043,13.962-2.766,32.848-8.212,16.269-4.691,15.327-4.888,27.374-8.212,18-4.965,26.994-7.447,35.586-8.212,11.153-.993,14.6.3,21.9-2.738,1.479-.615,16.862-7.212,16.424-16.424-.3-6.343-7.942-10.535-13.686-13.687a45.963,45.963,0,0,0-27.374-5.475c-10.991,1.308-10.868,5.5-19.162,5.475-12.6-.039-14.267-9.717-27.374-10.949-12.63-1.188-19.627,7-24.636,2.737-3.929-3.34-.74-9.322-5.475-16.424a22.485,22.485,0,0,0-10.95-8.212,29.661,29.661,0,0,0,8.213-13.687c1.152-4.31,2.542-9.511,0-13.687-4.056-6.661-14.453-4.7-16.425-10.95-.739-2.345.643-2.877,0-5.475-1.328-5.372-8.273-7.27-16.424-10.949-13.927-6.286-11.3-8.713-19.162-10.95-13.433-3.822-18.075,4.131-30.111,0-7.279-2.5-15.632-8.857-16.424-16.424-.5-4.786,2.438-6.091,5.475-16.424.9-3.07,2.894-9.849,2.737-16.425-.092-3.875-1.073-13.609-10.949-24.636,14.044-10.857,13.931-19.383,13.686-21.9-.508-5.221-4.11-10.459-8.212-16.424-5.217-7.587-8.49-9.454-8.212-13.687.35-5.333,5.813-6.457,5.475-10.95-.219-2.907-2.618-3.924-10.95-10.949-6.652-5.61-10-8.465-10.949-10.95-2.469-6.449,2.268-9.688,0-16.424-1.84-5.464-6.65-8.361-10.95-10.95a40.206,40.206,0,0,0-21.9-5.474c-.153-4.874-1.272-14.375-8.212-21.9-9.03-9.791-22.772-10.659-27.374-10.95-8.53-.539-10.424,1.659-19.161,0-5.593-1.062-12.453-2.365-16.425-8.212-3.807-5.605-2.911-12.371-2.737-13.687a24.941,24.941,0,0,1,2.737-8.212c2.911-5.638,5.175-5.37,5.475-8.212.355-3.368-2.751-4.437-8.212-13.687-1.729-2.929-2.593-4.393-2.737-5.475-.794-5.954,5.616-8.544,8.212-16.424,1.715-5.206.793-9.766,0-13.687-.533-2.632-2.508-12.4-10.95-19.162-10.63-8.513-23.847-6.115-27.374-5.475-16.847,3.058-25.693,16.5-27.373,19.162-1.886-9.167-8.741-15.782-16.425-16.424a16.619,16.619,0,0,0-13.687,5.475c-5,5.9-1.076,11.437-5.474,16.424-4.7,5.334-14.915,5.484-21.9,2.737-9.04-3.555-7.956-10.108-16.425-13.687-8.765-3.7-20.169-1.012-27.374,5.475-1.941,1.748-8.259,7.437-8.212,16.424a21.2,21.2,0,0,0,5.475,13.687c-3.735,2.271-18.721,11.815-24.636,27.374a36.24,36.24,0,0,0-2.738,16.424,34.382,34.382,0,0,0,2.738,10.95c-15.648-.475-24.694,3.943-30.112,8.212-9.408,7.415-9.27,15.482-19.161,19.162-8.184,3.044-11.845-1.15-21.9,2.737-3.872,1.5-11.381,4.4-13.687,10.95-2.771,7.869,3.086,17.835,5.475,21.9,3.147,5.354,5.613,7,5.474,10.949-.153,4.373-3.255,4.851-5.474,10.95a24.486,24.486,0,0,0,0,16.424,22.535,22.535,0,0,0,5.474,8.212c-8.32,2.337-32.241,9.368-49.273,19.162-4.372,2.514-8.912,5.568-10.949,10.949-2.345,6.2-.653,13.578,0,16.425,1.367,5.96,3.055,6.922,2.737,10.949-.426,5.4-3.9,9.25-5.474,10.95-4.076,4.4-6.528,3.756-13.687,8.212-6.525,4.06-12.021,7.481-13.687,13.687a16.094,16.094,0,0,0,2.737,13.687c.667.866,3.529,4.584,8.212,5.474,4.3.817,7.06-1.329,8.212,0,1.224,1.412-.566,5.362-2.737,8.213-5.482,7.2-11.782,5.26-16.424,10.949-5.051,6.19-3.041,15.155-2.738,16.424C1782.087,683.806,1795.015,687.781,1795.574,687.943Z" fill="#c0cfe6"/>
    <path d="M2123.9,888c-2.132,2.029-8.15,7.756-15.5,11.069-9.4,4.241-15.018,1.836-44.276,0-18.6-1.167-23.117-.621-26.566,0-10.473,1.884-12.712,4.735-24.353,8.855-5.619,1.989-24.146,8.366-44.276,6.642-13.057-1.118-13.565-4.512-30.994-8.856-11.387-2.837-24.719-3.406-50.918-4.427-30.471-1.188-45.706-1.782-57.56,0-9.04,1.359-19.31,3.858-39.849,8.855-17.914,4.359-25.172,6.642-37.635,6.642a132.987,132.987,0,0,1-24.352-2.214c-9.9-2.057-12.475-4.087-19.925-4.428-2.231-.1-9.62-.268-22.138,4.428-18.648,7-17.711,13.165-30.994,17.71-18.8,6.435-37.013-.336-42.062-2.213a70.9,70.9,0,0,1-22.139-13.283c-2.617,4.626-8.819,13.959-19.924,17.71-10.576,3.573-20.2.258-33.208-4.427-19.043-6.859-18.721-11.624-35.421-17.711-16.859-6.145-31.5-6.5-39.849-6.642-14.81-.243-25.843,2.015-37.635,4.428-17.309,3.542-17.706,5.567-33.208,8.855-19.671,4.174-35.262,4.356-46.49,4.428-22.8.146-34.2.219-44.277-4.428-6.051-2.791-10.1-5.942-17.711-6.641-11.671-1.072-20.733,4.629-24.352,6.641-26.988,15.011-72.019,3.316-101.836-4.427-15.632-4.06-14.073-5.254-48.7-15.5-20.921-6.188-31.6-9.317-42.063-11.069-6.658-1.115-23.331-3.517-61.988,0-46.867,4.264-44.15,9.779-77.484,11.069-12.892.5-30.733-.4-66.415-2.214-26.258-1.331-24.419-1.721-39.849-2.214-34.927-1.116-52.39-1.674-66.415,0a177.958,177.958,0,0,1-39.849,0c-10.214-1.145-16.627-2.8-17.71-6.641-1.279-4.532,5.439-10.077,6.641-11.069,8.563-7.068,14.423-2.806,24.352-8.856,8.374-5.1,6.924-9.788,15.5-13.283,5.554-2.264,10.92-2.237,15.5-2.214a57.569,57.569,0,0,1,15.5,2.214c1.456-15.218,7.833-23.2,11.069-26.566,5.167-5.374,15.252-8.748,35.421-15.5,13.763-4.6,16.928-4.748,19.925-4.427,7.89.845,10.18,4.436,22.138,6.641,7.252,1.338,11.3,2.028,15.5,0,6.067-2.935,4.993-7.969,11.069-13.283,4.761-4.163,10.553-4.989,22.138-6.641,7.839-1.118,15.253-2.175,24.353,0,7.4,1.769,7.177,3.588,13.283,4.427,10.99,1.511,20.017-3.243,22.138-4.427,6.884-3.844,6.53-6.658,15.5-13.283a58.748,58.748,0,0,1,15.5-8.856c14.2-5.109,27.651-1.871,35.421,0a82.07,82.07,0,0,1,13.283,4.428c1.286-.472,13.577-5.181,15.5-15.5,1.035-5.562-1.266-11.029-2.214-13.283-1.8-4.286-3.155-4.578-6.642-11.069-2.782-5.18-4.173-7.77-4.427-11.069-.543-7.046,3.794-12.508,4.427-13.283,1.088-1.33,3.6-4.023,19.925-8.855,10.26-3.037,15.39-4.555,19.924-4.428,6.252.175,16.654,2.024,17.711,2.214,5.741,1.031,8.754,1.874,11.069,0,2.339-1.893,3.092-5.85,2.214-8.856-1.117-3.822-4.314-4.2-4.428-6.641-.1-2.192,2.361-4.142,11.07-8.855,12.918-6.991,15.9-7.244,17.71-11.07,2.026-4.28-.605-6.3,2.214-11.069.666-1.126,3.532-5.615,8.855-6.641a11.924,11.924,0,0,1,4.428,0c-4.953-19.463-1.712-27.377,2.214-30.994,2.87-2.645,4.574-1.58,17.711-6.641,11.4-4.393,12.116-5.965,17.71-6.642a39.2,39.2,0,0,1,17.711,2.214c8.383,3.245,10.755,7.885,15.5,6.641,3.2-.84,5.69-3.894,6.641-6.641,1.35-3.9-.915-5.663,0-8.855.309-1.077,1.531-4.24,15.5-8.856,9-2.975,13.5-4.463,19.925-4.427,4.613.025,11.409.063,17.71,4.427a24.437,24.437,0,0,1,6.642,6.642c1.937,2.926,2.007,4.523,4.427,8.855,2.181,3.9,3.271,5.854,4.428,6.642,5.538,3.767,12.292-3.351,22.138,0a32.016,32.016,0,0,1,4.428,2.213c9.852,5.394,17.468,9.563,22.138,17.711a37.092,37.092,0,0,1,4.428,15.5,77.668,77.668,0,0,1,0,13.283c-.305,2.9-.593,3.66,0,4.428,2.654,3.436,13.111-5.735,22.138-2.214,6.757,2.635,4.908,9.333,13.283,13.283,6.358,3,10.709.687,13.283,4.427,1.616,2.348.429,4.023,2.214,11.07.973,3.838,1.459,5.757,2.214,6.641,4.459,5.224,15.3-2.248,33.208,0,7.245.91,10.931,2.818,13.283,4.428,1.532,1.049,6.731,4.607,8.855,11.069,1.2,3.643.8,7.594,0,15.5-.692,6.853-1.56,8.916,0,11.069,2.1,2.9,5.207,1.269,8.855,4.428,4.488,3.885,4.443,10.38,4.428,11.069-.065,3.039-1.52,5.757-4.428,11.069-4.678,8.548-6.9,9.91-6.641,13.283.366,4.689,5.123,7.847,6.641,8.855,10.307,6.844,24.432.9,26.566,0,4.918-2.069,3.629-2.755,11.069-6.641,8.254-4.311,14.633-7.643,22.139-6.642,2.625.351,7.727,1.543,13.283,6.642a11.394,11.394,0,0,1,2.214-6.642c2.9-3.8,7.522-4.287,8.855-4.427,9.071-.955,16.493,7.268,19.924,11.069,5.1,5.654,7.19,11.126,8.856,15.5,2.149,5.638,4.823,12.653,2.214,17.71-.342.663-1.182,2.08-2.214,4.428-1.585,3.6-2.378,5.407-2.214,6.641.611,4.609,12.334,9.723,22.138,6.642,6.634-2.085,5.887-5.878,13.283-8.855,7.72-3.108,14.935-1.553,22.139,0,9.481,2.043,12.3,5.317,13.283,6.641a14.391,14.391,0,0,1,2.213,4.428c10.547,1.137,18.786,1.809,24.353,2.214,7.178.521,12.065.754,15.5,4.427,3.125,3.345,1.532,5.782,4.428,8.856,5.765,6.119,18.35,3.117,22.138,2.213,7.506-1.79,8.74-4.04,15.5-6.641,12.869-4.954,24.882-3.138,30.994-2.214,19.158,2.9,17.677,11.156,30.994,11.069,11.028-.071,14.3-5.751,35.421-8.855,4.8-.705,8.686-1.008,13.283,0,2.234.49,4.566,1.274,15.5,6.641,6.724,3.3,6.907,3.529,8.855,4.428,2.207,1.019,24.335,10.893,42.063,2.214,2.748-1.345,2.7-1.819,4.428-2.214,7.761-1.773,12.807,6.849,26.566,13.283a51.878,51.878,0,0,0,13.283,4.428c10.941,1.981,19.911-.384,26.566-2.214,12.148-3.341,11.03-5.728,22.138-8.855,7.6-2.139,17.568-4.947,28.78-2.214,10.972,2.674,11.108,7.723,22.138,8.855,2.047.21,2.1.043,17.711,0,6.725-.018,10.087-.027,11.069,0,9.374.263,29.871,2.4,30.994,8.855C2130.922,881.314,2128.582,883.541,2123.9,888Z" fill="#c0cfe6"/>
    <path d="M3056.063,824.367c-9.069-10.031-10.84-16.493-19.443-18.876a39.408,39.408,0,0,0-19.16.284c-3.867,1.015-3.659,1.621-8.17,2.858-6.109,1.675-14.163,3.883-19.16.284-3.456-2.489-1.814-5.137-5.636-10.868a29.446,29.446,0,0,0-13.848-10.745c-9.725-3.647-18.469-.794-21.9.324a37.974,37.974,0,0,0-10.867,5.636,43.34,43.34,0,0,0-2.859-8.171,46.673,46.673,0,0,0-16.706-18.916,47.9,47.9,0,0,0-19.281-7.928c-11.753-1.923-14,2.6-27.371.4-12.092-1.983-15.582-6.546-16.544-7.968-1.275-1.882-1.342-3.015-2.859-8.17-2.115-7.192-3.621-12.31-5.717-16.342-3.664-7.048-12.2-16.691-22.14-16.1a16.779,16.779,0,0,0-8.171,2.858,22.316,22.316,0,0,0-.162-10.948c-.369-1.343-3.153-10.918-11.15-13.523-7.919-2.58-15.838,3.337-19.079,5.757-8.036,6-7.728,11.344-13.483,13.889-4.034,1.783-10.665,2.024-21.977-5.151a21.46,21.46,0,0,0,8.089-8.332,25.389,25.389,0,0,0,2.575-10.989c.313-5.376-.886-6.238-.162-10.948a34.2,34.2,0,0,1,2.616-8.252c2.647-6.554,4.144-7.449,5.312-11.03,1.562-4.787.748-8.893-.2-13.685-.783-3.947-2.836-14.3-11.272-21.735-4.485-3.95-8.894-5.419-16.545-7.968-12.973-4.322-19.538-3.023-22.018-7.887-1.336-2.622.284-3.562-.162-10.948-.334-5.543-.622-10.306-2.939-13.645-6.105-8.795-24.519-5.151-24.756-7.847-.1-1.141,3.215-1.605,8.131-5.6,2.409-1.956,4.167-3.384,5.393-5.556,3.187-5.65,1.442-13.989-3.021-19.119-2.37-2.724-4.928-3.879-8.292-5.352-3.923-1.718-14.843-6.5-24.674-2.373-7.248,3.043-5.381,7.351-13.524,11.151-4.98,2.325-4.779.294-19.119,3.021-6.908,1.314-10.782,2.513-13.685.2-1.606-1.277-1.947-2.858-2.818-5.433-1.419-4.192-4-11.811-8.455-16.3-4.41-4.445-12.621-7.8-19.24-5.191-6.949,2.741-9.822,11.144-10.746,13.848-2.508,7.337-.829,12.456-5.231,16.5-1.386,1.274-2.754,1.806-5.434,2.818-17.641,6.662-19.4,7.037-21.775,8.536-3.572,2.254-8.007,6.721-10.7,16.584a110.65,110.65,0,0,0-2.9-10.908c-2.176-6.774-3.264-10.161-5.677-13.6a31.511,31.511,0,0,0-13.847-10.745,31.182,31.182,0,0,0-16.463-2.494c-2.239.294-15.041,1.979-19,11.231-2.15,5.027-.765,10.126.2,13.686,2.895,10.656,9.678,13.312,8.495,19.038-.531,2.575-2.028,2.642-8.089,8.333-7.757,7.282-13.722,12.882-13.4,19.362.181,3.658,2.173,3.724,2.859,8.171,1.2,7.817-3.867,14.662-5.232,16.5-8.046,10.86-17.294,7.707-21.653,16.747-3.611,7.487-.13,15.589.243,16.422a21.686,21.686,0,0,0,11.111,10.787,70.45,70.45,0,0,0-38.239,6.041c7.259-14.173,6.785-23.921,5.029-30.189-2.427-8.661-6.921-9.32-11.273-21.735-1.9-5.413-6.787-19.363-.405-27.37,2.07-2.6,2.965-1.608,8.13-5.6,3.616-2.792,10.391-8.022,13.443-16.625.936-2.64,4.044-11.4-.284-19.16-3.692-6.623-10.755-8.859-16.585-10.705-4.84-1.533-6.345-1.112-19.2-2.453-17.835-1.862-20.281-3.229-21.977-5.151-1.613-1.826-1.946-3.473-2.981-16.381-1.536-19.175-1.238-21-3.1-24.594-4.784-9.221-14.868-12.816-16.625-13.442-9.6-3.421-13.043.746-24.674-2.373-7.166-1.92-16.874-6.455-16.585-10.7.209-3.075,5.477-3.415,13.564-8.413,5.171-3.2,17.309-10.7,18.835-22.181.988-7.43-2.467-16.549-8.495-19.038-3.132-1.293-5.015.007-16.381,2.98-12.119,3.171-18.251,4.722-21.857,3.061-6.754-3.111-3.994-10.414-11.191-16.26-9.107-7.4-23.591-3.882-30.148-2.291a61.294,61.294,0,0,0-19.038,8.5c-14.322,9.141-14.1,16-21.654,16.746-10.042.992-15.292-10.636-24.755-7.846-1.338.394-3.62,2.133-8.131,5.6-8.823,6.774-10.8,9.24-13.523,11.151-13.376,9.4-29.074-5.549-41.016,3.345-5.046,3.758-2.247,6.431-10.7,16.585-3.423,4.109-8.367,10.044-16.22,13.928-11.908,5.89-19.456,1.6-21.815,5.8-1.857,3.305,1.7,7.968,6.064,13.41a6,6,0,0,0-2.265.531c-5.991,2.578-9.31,11.747-8.212,19.162,1.065,7.2,6.3,12.765,11.334,16.682a41.555,41.555,0,0,0-3.374,4.915,58.878,58.878,0,0,0-7.288,20.637,23.245,23.245,0,0,0-8.885,1.564c-1.747.652-11.777,4.395-16.424,13.686-1.809,3.619-1.485,5.443-2.737,24.637-.844,12.923-1.152,14.574-2.738,16.424a6.234,6.234,0,0,1-1.982,1.578,35.448,35.448,0,0,0-5.383-3.935c-10-4.827-24.626-4.278-32.8,3.223-3.31,3.036-3.28,5.117-5,8.783-4.722,1.793-9.542,4.36-12.315,9.513a17.754,17.754,0,0,0-2.017,6.925,27.924,27.924,0,0,1-13.067,5.373,17.312,17.312,0,0,1-11.8-2.954c.244-4.571.086-7.725-.931-10.67-2.743-7.95-9.237-12.254-11.151-13.523-2.85-1.89-7.274-4.1-15.738-5.137-5.331-3.666-12.157-4.466-13.736-4.651a31.192,31.192,0,0,0-16.424,2.738,34.377,34.377,0,0,0-7.673,4.53,6.454,6.454,0,0,1-3.989-2.1c-.949-1.079-1.585-3.443-2.858-8.17-2.336-8.679-.9-10.772-2.94-13.645-3.251-4.578-8.587-1.641-16.5-5.231-10.428-4.73-8.265-13.046-16.666-16.18-11.226-4.188-23.986,7.342-27.33,3.142-.747-.937-.406-1.882-.081-5.474a96.081,96.081,0,0,0-.243-16.422c-.33-3.253-1.145-11.3-5.758-19.079-5.923-9.988-15.415-15-27.695-21.491a39.681,39.681,0,0,0-5.515-2.656c-12.235-3.963-20.454,4.962-27.371.4-1.445-.952-2.828-3.345-5.6-8.13-3.072-5.312-3.188-7.286-5.636-10.867a30.21,30.21,0,0,0-8.333-8.09c-7.871-5.281-16.274-5.2-21.978-5.15-7.937.073-13.475,2-24.553,5.839-17.182,5.962-18.636,9.895-19,11.232-1.073,3.963,1.76,6.1.162,10.948-1.126,3.413-4.144,7.235-8.09,8.333-5.84,1.624-8.857-4.069-19.28-7.928a48.476,48.476,0,0,0-21.938-2.413c-6.9.939-7.76,2.9-21.775,8.536-16.149,6.5-18.275,5.212-21.775,8.535-4.788,4.544-8.65,14.387-2.17,38.36a14.717,14.717,0,0,0-5.474.081c-6.563,1.365-10.024,6.968-10.827,8.373a11.286,11.286,0,0,0-1.658,6.24,41.249,41.249,0,0,0-3.957,1.274c-10.366,4.012-13.3,9.75-19.162,8.212-3.961-1.039-7.035-4.816-8.212-8.212-1.669-4.82,1.132-7,0-10.95-.382-1.331-1.893-5.242-19.162-10.95-11.132-3.679-16.7-5.519-24.636-5.474-5.7.031-14.107.078-21.9,5.474a30.237,30.237,0,0,0-8.212,8.213c-2.395,3.617-2.482,5.593-5.475,10.949-2.7,4.826-4.044,7.239-5.475,8.212-6.847,4.659-15.2-4.143-27.373,0a39.642,39.642,0,0,0-5.475,2.738c-12.182,6.668-21.6,11.823-27.374,21.9-4.5,7.848-5.193,15.9-5.475,19.161a96.03,96.03,0,0,0,0,16.424c.378,3.587.733,4.527,0,5.475-3.282,4.249-16.211-7.09-27.374-2.737-8.353,3.258-6.067,11.541-16.424,16.424-7.862,3.707-13.241.85-16.424,5.475-2,2.9-.53,4.975-2.737,13.687-1.2,4.745-1.8,7.118-2.738,8.212-5.513,6.46-18.917-2.78-41.061,0-8.958,1.125-13.516,3.485-16.424,5.475-1.895,1.3-8.324,5.7-10.949,13.687-1.481,4.5-.987,9.39,0,19.161.855,8.474,1.928,11.025,0,13.687-2.6,3.586-6.438,1.57-10.95,5.475-5.549,4.8-5.493,12.835-5.475,13.687a14.275,14.275,0,0,0,1.09,4.982,13.659,13.659,0,0,1-6.207,6.234c-5.146,2.584-10.169,1.805-19.16.284-14.824-2.507-17.722-6.906-27.492-7.806-3.711-.342-7.621-.106-24.553,5.839-11.14,3.911-19.773,6.944-26.481,9.709-9.258,1.29-16.687,9.517-20.379,13.606-6.31,6.992-8.89,13.759-10.949,19.162a85.615,85.615,0,0,0-3.154,9.376,70.83,70.83,0,0,0-14.946-1.451c-5.659.055-12.294.12-19.119,3.02-10.535,4.478-8.657,10.246-18.916,16.706-12.165,7.662-19.488,2.5-29.946,11.394-.983.836-4.977,4.237-7.017,8.067-10.426,1.064-18.729,1.734-24.61,2.161-8.876.645-14.918.933-19.161,5.475-3.864,4.135-1.894,7.148-5.475,10.949-7.129,7.567-22.689,3.855-27.374,2.738-9.281-2.214-10.807-5-19.162-8.212-15.912-6.125-30.766-3.88-38.323-2.738-23.689,3.581-21.858,13.794-38.323,13.687-13.637-.088-17.683-7.111-43.8-10.949-5.933-.872-10.74-1.247-16.425,0-2.762.605-5.646,1.575-19.162,8.212-8.314,4.083-8.541,4.362-10.949,5.475-2.729,1.259-30.09,13.468-52.01,2.737-3.4-1.664-3.338-2.249-5.475-2.737-9.6-2.194-15.837,8.468-32.849,16.424a64.2,64.2,0,0,1-16.424,5.475c-13.529,2.45-24.62-.475-32.848-2.738-15.022-4.131-13.639-7.082-27.374-10.949-9.393-2.645-21.723-6.116-35.586-2.738-13.568,3.307-13.735,9.549-27.374,10.95-2.532.26-2.6.053-21.9,0-8.316-.023-12.473-.034-13.687,0-11.591.325-36.936,2.97-38.324,10.949-.467,2.689,2.426,5.443,8.213,10.95,2.636,2.509,10.077,9.59,19.161,13.687,11.628,5.244,18.57,2.27,54.748,0,23-1.444,28.584-.768,32.849,0,12.948,2.33,15.717,5.855,30.111,10.949,6.948,2.46,29.856,10.344,54.747,8.212,16.145-1.382,16.773-5.578,38.324-10.949,14.08-3.509,30.564-4.212,62.959-5.475,37.677-1.469,56.516-2.2,71.173,0,11.178,1.68,23.876,4.77,49.272,10.95,22.151,5.39,31.126,8.213,46.536,8.212a164.442,164.442,0,0,0,30.111-2.737c12.239-2.543,15.425-5.054,24.637-5.475,2.759-.126,11.895-.332,27.373,5.474,23.059,8.651,21.9,16.279,38.324,21.9,23.247,7.956,45.766-.416,52.01-2.738a87.646,87.646,0,0,0,27.374-16.424c3.235,5.721,10.9,17.261,24.636,21.9,13.078,4.417,24.976.318,41.061-5.475,23.546-8.48,23.148-14.373,43.8-21.9,20.845-7.6,38.947-8.043,49.273-8.212,18.312-.3,31.954,2.491,46.535,5.475,21.4,4.379,21.894,6.883,41.061,10.949,24.323,5.16,43.6,5.386,57.485,5.475,28.195.181,42.292.271,54.748-5.475,7.481-3.451,12.487-7.347,21.9-8.212,14.431-1.326,25.637,5.723,30.111,8.212,21.183,11.782,51.349,10.245,79.993,5.112a69.23,69.23,0,0,0,11.926-.758,59.047,59.047,0,0,0,18.958-5.982c5.264-1.309,10.312-2.618,15.043-3.847,15.7-4.077,17.376-5.817,40.412-13.118,2.388,2.586,4.374,5.568,10.446,9.26,5.724,3.481,10.785,6.558,16.424,5.475,6.54-1.256,7.4-6.869,16.424-13.687,2.159-1.632,8.688-6.565,16.425-8.212,12.293-2.617,17.129,5.3,41.061,10.949,10.221,2.414,15.332,3.62,21.9,2.738,15.334-2.061,16.583-11.433,30.112-13.687,11.179-1.863,13.964,3.93,35.586,8.212,6.731,1.333,14.524,1.8,30.111,2.737,28.446,1.709,42.856,2.458,52.01-2.737,4.825-2.738,6.605-5.064,10.409-7.633,12-.5,26.741-1.245,45.491-2.2,10.2-.516,16.962-.918,22.043-1.245.486.04.935.087,1.441.124,7.048.529,10.634.778,13.687,0a22.931,22.931,0,0,0,3.729-1.3c2.34-.106,5.015-.21,8.372-.317,43.187-1.38,64.781-2.069,82.122,0a220.038,220.038,0,0,0,49.273,0c12.629-1.416,20.559-3.464,21.9-8.212,1.578-5.591-6.683-12.425-8.2-13.676.523-.384,1.055-.715,1.572-1.132,8.1-6.536,7.8-11.11,13.687-16.424,11.5-10.377,28.924-7.618,46.536-5.475,0,0,42.309,5.148,82.121,5.475,23.939.2,42.077.345,65.7-5.475,17.487-4.309,24.55-8.581,43.8-10.949,11.035-1.359,22.106-.924,43.8,0,40.838,1.739,61.257,2.608,62.96,2.737,8.363.631,23.649,1.9,38.323-5.475.474-.238.922-.475,1.357-.712a145.4,145.4,0,0,0,17.6-3.95,30.955,30.955,0,0,0,7.652,1.858c6.579.784,11.671-.5,21.856-3.062,23.846-6,28.564-13.991,40.894-11.556,7.761,1.533,14.362,6.369,16.545,7.968,9.122,6.684,10.067,12.284,16.624,13.442,5.655,1,10.67-2.152,16.342-5.717,9.748-6.126,8.8-10.234,16.22-13.928a29.449,29.449,0,0,1,24.634-.365c6.786,3.164,6.361,6.842,13.888,13.483,12.023,10.608,26.176,12.755,30.31,13.24,6.381.747,20.524,2.4,30.027-5.92,5.7-5,3.339-7.986,10.7-16.585,2.764-3.225,10.5-12.256,21.694-14.009,5.374-.842,6.74.746,16.463,2.494,11.632,2.09,25.629,4.6,38.319-.568,8.891-3.623,8.262-7.4,19-11.231a51.859,51.859,0,0,1,19.119-3.021c12.537.62,19.217,6.916,30.31,13.24,7.215,4.112,35.11,20.014,60.419,12.793,8.788-2.506,21.486-9.006,21.653-16.746C3086.753,843.108,3072.724,842.792,3056.063,824.367Z" fill="#8ab1d2"/>
    <path d="M2860.432,901.523c-.022-9.45-10.585-16.957-13.687-19.161-7.833-5.568-12.786-4.807-16.424-10.95a21.862,21.862,0,0,1-2.737-10.949c.2-7.182,4.183-9.428,2.737-13.687-1.628-4.795-7.485-4.319-8.212-8.212-.909-4.867,7.927-7.284,8.212-13.687.248-5.583-6.18-10.235-10.949-13.687-7.239-5.239-9.233-3.506-16.425-8.212-10.184-6.664-10.5-12.963-16.424-13.687-4.576-.56-8.816,2.66-16.424,10.949a212.117,212.117,0,0,0-24.637,32.849,86.976,86.976,0,0,0-21.9-38.323c1.607.371,15.32,3.321,24.637-5.475a22.609,22.609,0,0,0,5.474-8.212c.884-.354,14.2-5.93,16.425-19.162,2.2-13.1-8.369-22.371-10.95-24.636-9.931-8.714-21.853-8.366-24.636-8.212a52.8,52.8,0,0,0-16.425-21.9c-14.745-11.468-31-11.188-35.586-10.949a46.723,46.723,0,0,0-5.474-21.9,45.848,45.848,0,0,0-8.212-10.95,22.232,22.232,0,0,0,8.212-5.474c3.9-4.151,8.151-12.044,5.474-19.162-3.853-10.246-19.921-13.176-27.373-8.212-5.006,3.334-2.55,7.849-8.212,13.687-7.612,7.847-15.925,3.682-21.9,10.949-5.637,6.856-1.65,14.711-5.475,16.424-6.858,3.072-19.9-22.067-32.849-19.161-4.9,1.1-5.54,5.264-10.949,5.475-7.58.294-9.51-7.76-16.425-8.213-9.422-.617-12.582,13.9-21.9,13.687-7.41-.168-7.983-9.409-19.161-13.687-7.563-2.893-18.587-2.982-24.637,2.738-3.95,3.734-3.215,7.52-5.475,27.374-1.6,14.028-3.092,22.055-5.474,30.111-2.349,7.941-5.662,18.783-10.95,19.162-3.049.218-3.918-3.245-8.212-5.475-9.806-5.093-27.547,1.4-30.111,10.949-1.254,4.671,1.884,9.565,8.212,19.162,10.381,15.745,18.037,20.014,16.424,24.636-2.216,6.351-18.2,2.693-21.9,10.95-1.741,3.89.236,8.215,2.737,13.687,4.744,10.376,9.97,11.235,16.425,21.9,4.073,6.729,8.25,13.63,5.475,19.161-2.915,5.808-12.508,8.138-19.162,5.475-3.439-1.376-5.795-3.967-10.95-13.687-10.291-19.4-8.414-23.24-13.686-27.373-10.435-8.182-28.53-1.577-32.849,0-14.917,5.444-13.67,12.6-27.374,16.424-11.971,3.34-15.194-1.486-30.111,2.737-8.231,2.331-15.848,4.487-19.162,10.95-4.41,8.6,1.985,18.606-2.737,21.9-1.572,1.1-2.63.228-6.265.033a52.75,52.75,0,0,0-7.512-4.673,47.893,47.893,0,0,0-20.054-5.694c-11.9-.58-13.611,4.167-27.149,3.5-12.239-.6-16.222-4.74-17.34-6.044-1.48-1.726-1.675-2.844-3.765-7.795-2.916-6.905-4.992-11.82-7.531-15.589-4.439-6.588-14.016-15.2-23.82-13.488a16.777,16.777,0,0,0-7.8,3.765,22.306,22.306,0,0,0-1.4-10.859c-.519-1.293-4.369-10.491-12.61-12.174-8.16-1.667-15.358,5.108-18.3,7.881-7.305,6.874-6.395,12.145-11.824,15.325-3.806,2.229-10.368,3.219-22.42-2.629a21.452,21.452,0,0,0,7.1-9.2,25.384,25.384,0,0,0,1.314-11.21c-.3-5.377-1.587-6.1-1.4-10.859a34.254,34.254,0,0,1,1.665-8.5c1.888-6.812,3.274-7.87,4.029-11.56,1.01-4.934-.264-8.92-1.75-13.575-1.225-3.833-4.438-13.889-13.661-20.318-4.9-3.418-9.451-4.378-17.34-6.044-13.38-2.825-19.755-.792-22.77-5.344-1.625-2.453-.121-3.571-1.4-10.859-.96-5.469-1.785-10.169-4.466-13.225-7.061-8.047-24.944-2.341-25.484-4.993-.229-1.122,3.012-1.959,7.444-6.48,2.173-2.216,3.758-3.833,4.73-6.13,2.526-5.975-.152-14.063-5.166-18.654-2.663-2.439-5.336-3.3-8.845-4.38-4.092-1.263-15.483-4.778-24.784.437-6.857,3.844-4.515,7.912-12.174,12.61-4.685,2.873-4.716.833-18.655,5.166-6.715,2.087-10.428,3.717-13.574,1.75-1.74-1.087-2.257-2.619-3.415-5.079-1.885-4-5.31-11.282-10.246-15.239-4.885-3.917-13.423-6.322-19.7-2.979-6.594,3.51-8.5,12.184-9.109,14.975-1.662,7.574.586,12.47-3.329,16.99-1.232,1.422-2.531,2.106-5.08,3.415-16.773,8.616-18.479,9.188-20.669,10.946-3.293,2.644-7.194,7.584-8.758,17.69a110.225,110.225,0,0,0-4.116-10.51c-2.928-6.484-4.393-9.727-7.18-12.874a31.519,31.519,0,0,0-14.975-9.109,31.2,31.2,0,0,0-16.64-.614c-2.19.546-14.719,3.67-17.6,13.311-1.567,5.237.386,10.147,1.75,13.574,4.083,10.26,11.123,12.131,10.6,17.954-.237,2.619-1.716,2.855-7.094,9.2-6.882,8.113-12.175,14.353-11.124,20.755.594,3.614,2.581,3.454,3.766,7.794,2.082,7.631-2.182,15.006-3.33,16.99-6.764,11.7-16.31,9.616-19.618,19.091-2.74,7.848,1.637,15.5,2.1,16.289a21.682,21.682,0,0,0,12.26,9.459,70.455,70.455,0,0,0-37.308,10.332c5.607-14.9,4.033-24.535,1.578-30.564-3.391-8.33-7.931-8.477-13.66-20.319-2.5-5.164-8.937-18.471-3.5-27.149,1.762-2.814,2.764-1.932,7.445-6.48,3.276-3.183,9.415-9.147,11.473-18.04.632-2.729,2.728-11.782-2.451-19-4.418-6.163-11.689-7.585-17.69-8.759-4.983-.975-6.43-.387-19.354-.264-17.932.17-20.517-.912-22.42-2.629-1.808-1.632-2.326-3.23-4.815-15.939-3.7-18.877-3.609-20.727-5.866-24.084-5.8-8.62-16.224-11.05-18.04-11.474-9.924-2.312-12.875,2.218-24.785.437-7.337-1.1-17.5-4.5-17.69-8.759-.14-3.079,5.055-4.013,12.524-9.895,4.776-3.761,15.987-12.59,16.2-24.17.14-7.5-4.324-16.164-10.6-17.954-3.259-.931-4.983.574-15.939,4.815-11.681,4.523-17.6,6.758-21.369,5.516-7.064-2.326-5.148-9.894-12.961-14.888-9.885-6.319-23.879-1.187-30.214,1.136a61.341,61.341,0,0,0-17.954,10.6c-13.194,10.7-12.193,17.493-19.618,19.09-9.864,2.122-16.4-8.836-25.485-4.993-1.284.543-3.355,2.53-7.444,6.48-8,7.73-9.689,10.4-12.174,12.611-12.225,10.856-29.515-2.222-40.373,7.966-4.589,4.306-1.5,6.645-8.759,17.69-2.936,4.471-7.176,10.928-14.539,15.676-11.164,7.2-19.15,3.789-21.018,8.231-3.438,8.169,23.316,20.34,21.191,35.907-.913,6.687-6.057,5.96-11.474,18.04a61.32,61.32,0,0,0-4.993,25.485c-.013,11.593,2.959,11.135,2.8,21.719a65.919,65.919,0,0,1-7.358,28.549c-1.305,2.494-1.935,3.273-9.109,14.976-10.6-7.15-15.9-10.725-18.04-11.474-10.481-3.663-24.953-1.462-32.229,6.916-4.068,4.685-1.995,6.819-6.394,14.625-1.053,1.87-9.317,16.535-22.333,19.441-12.787,2.855-16.6-8.667-31.264-7.008-12.021,1.36-24.406,10.787-25.049,19.791-.319,4.483,2.435,6.553,1.751,13.574-.221,2.267-.711,7.3-4.029,11.56-5,6.417-10.936,4.059-17.954,10.6-1.36,1.266-6.725,6.263-6.744,11.91-.026,7.68,9.839,15.709,24.52,18.918a29.79,29.79,0,0,1-4.729,6.13c-6.457,6.41-11.371,5.221-15.239,10.245-2.517,3.269-.734,4.158-3.679,14.275-1.853,6.364-3.178,10.916-6.394,14.625-3.55,4.1-7.135,4.545-15.59,7.531-14.141,4.993-24.71,8.863-30.827,17.776-1.4,2.041-5.679,8.275-3.68,14.275.911,2.733,3.441,6.365,12.261,9.459,15.5,5.436,30.495,2.223,38.708.527,1.673-.345,21.813-3.819,62.093-10.768,21.4-3.691,32.32-5.537,43.438-5.6,19.393-.112,26.945,3.221,44.839,5.258,24.171,2.751,42.141.283,65.858-2.974,39.443-5.417,80.746-15.934,80.746-15.934,17.194-4.378,34.123-9.344,46.854-.523,6.52,4.518,6.8,9.093,15.675,14.539,11.034,6.773,22.436,6.965,31.265,7.008,16.845.082,29.679-4.615,37.658-7.617,21.005-7.9,22.236-14.4,36.608-15.761,3.72-.352,15.9-1.5,28.2,4.643,11.959,5.975,15.194,14.43,26.885,15.853,3.126.381,6.652-.324,13.574-1.751,20.927-4.311,23.634-8.9,37.308-10.332a63.932,63.932,0,0,1,25.135,2.279c9.4,2.883,10.454,5.8,17.69,8.759,9.743,3.981,23.939,1.395,51.933-3.938,15.339-2.922,23.008-4.383,29.513-6.566,20.9-7.012,22.918-13.114,34.244-12.7,13.706.5,16.143,9.641,31.614,9.723,6.625.035,11.54-1.815,21.369-5.516,23.013-8.664,26.8-17.135,39.323-16.112,7.884.644,14.991,4.7,17.34,6.044,9.82,5.608,11.393,11.065,18.04,11.474,5.731.353,10.357-3.346,15.589-7.531,8.992-7.19,7.58-11.164,14.539-15.675a29.445,29.445,0,0,1,24.434-3.151c7.1,2.375,7.095,6.077,15.325,11.823,13.146,9.179,27.452,9.71,31.614,9.723,6.425.021,20.665.066,29.164-9.281,5.1-5.61,2.413-8.313,8.759-17.69,2.38-3.517,9.045-13.366,19.968-16.376,5.244-1.444,6.781-.021,16.64.615,11.145.718,24.43,1.565,36.005-3.894a26.074,26.074,0,0,0,12.387-9.676c.1-.086.2-.172.3-.258,9.453,1.38,20.955,1.423,27.26-5.491a16.512,16.512,0,0,0,2.7-4.081c10.006.56,16.929,5.333,27.23,9.744,5.407,2.316,21.79,9.323,39.532,9.654a20.294,20.294,0,0,0,1.71,1.108c9.966,5.772,25.92,5.027,32.849-2.738,3.72-4.169,3.345-8.688,8.212-10.949,3.509-1.631,6.719-.682,10.949,0a71.412,71.412,0,0,0,21.9,0c.15,5,1.221,18.305,10.95,30.111,8.146,9.884,24.409,21.2,35.586,16.424,9.518-4.068,7.573-16.486,21.9-24.636,2.627-1.5,9.4-5.35,13.687-2.738,4.983,3.04.829,11.319,5.475,19.162,7.318,12.356,29.014,11.03,30.111,10.95,2.412-.177,19.271-1.412,27.374-13.687,9.086-13.767-.6-29.669,8.212-35.586,3.926-2.637,9.826-2.151,13.687,0,10.567,5.886,5.339,23.955,13.686,27.373,6.209,2.543,11.169-6.6,24.637-5.474a38.566,38.566,0,0,1,10.949,2.737c8.609,3.66,10.768,8.633,16.425,8.212,3.894-.29,4.214-2.747,8.212-2.737,5.069.013,5.955,3.969,10.949,5.475,6.276,1.892,8.867-3.15,21.9-5.475,6.792-1.212,10.188-1.817,13.687,0,6.734,3.5,5.17,11.448,10.95,13.687,3.564,1.38,7.851-.9,16.424-5.475a77.181,77.181,0,0,0,16.425-10.95c7.545-6.68,13.133-11.627,13.686-19.161a19.386,19.386,0,0,0-2.737-10.95,123.026,123.026,0,0,0,8.212-10.949C2857.7,909.725,2860.442,905.615,2860.432,901.523Z" fill="#5081a9"/>
  </g>
</svg>
