<svg xmlns="http://www.w3.org/2000/svg" width="2696.995" height="779.022" viewBox="0 0 2696.995 779.022">
  <title>Cloud_1</title>
  <g>
    <path d="M2688.584,596.71c-10.588-8.738-17.834-3.469-30.111-10.949-10.354-6.308-8.562-12.1-19.162-16.425-6.866-2.8-13.5-2.765-19.161-2.737a71.188,71.188,0,0,0-19.162,2.737c-1.8-18.816-9.686-28.686-13.687-32.848-6.389-6.646-18.859-10.818-43.8-19.162-17.018-5.693-20.931-5.871-24.637-5.474-9.755,1.044-12.587,5.485-27.373,8.212-8.968,1.653-13.979,2.507-19.162,0-7.5-3.629-6.174-9.854-13.687-16.425-5.886-5.148-13.049-6.169-27.374-8.212-9.692-1.382-18.859-2.689-30.111,0-9.155,2.188-8.875,4.437-16.424,5.475-13.59,1.868-24.752-4.011-27.374-5.475-8.513-4.752-8.074-8.233-19.162-16.424-4.59-3.391-10.7-7.906-19.161-10.95-17.565-6.318-34.191-2.313-43.8,0a101.483,101.483,0,0,0-16.425,5.475c-1.59-.584-16.787-6.406-19.161-19.162-1.28-6.877,1.565-13.638,2.737-16.424,2.229-5.3,3.9-5.661,8.212-13.687,3.44-6.4,5.16-9.608,5.475-13.687.671-8.712-4.692-15.466-5.475-16.424-1.344-1.644-4.448-4.975-24.636-10.949-12.687-3.755-19.031-5.632-24.636-5.475-7.731.216-20.593,2.5-21.9,2.737-7.1,1.275-10.823,2.318-13.687,0-2.891-2.341-3.823-7.233-2.737-10.949,1.381-4.727,5.334-5.188,5.475-8.213.126-2.709-2.918-5.121-13.687-10.949-15.973-8.644-19.662-8.957-21.9-13.687-2.505-5.293.748-7.789-2.738-13.687-.823-1.393-4.367-6.944-10.949-8.212a14.753,14.753,0,0,0-5.475,0c6.124-24.066,2.117-33.851-2.737-38.323-3.55-3.271-5.657-1.954-21.9-8.212-14.1-5.432-14.981-7.376-21.9-8.213a48.472,48.472,0,0,0-21.9,2.738c-10.365,4.012-13.3,9.75-19.161,8.212-3.962-1.039-7.036-4.816-8.213-8.212-1.668-4.82,1.132-7,0-10.95-.381-1.331-1.893-5.242-19.161-10.949-6.9-2.281-11.661-3.853-16.174-4.709a72.611,72.611,0,0,0-6.634-10.875c-5.216-7.587-8.49-9.454-8.212-13.687.35-5.333,5.813-6.457,5.475-10.95-.219-2.907-2.618-3.924-10.95-10.949-6.652-5.61-10-8.465-10.949-10.95-2.469-6.449,2.268-9.688,0-16.424-1.84-5.465-6.65-8.361-10.95-10.95a40.2,40.2,0,0,0-21.9-5.474c-.153-4.874-1.272-14.375-8.212-21.9-9.03-9.791-22.771-10.659-27.374-10.95-8.53-.539-10.424,1.659-19.161,0-5.593-1.062-12.453-2.365-16.425-8.212-3.807-5.606-2.911-12.371-2.737-13.687a24.941,24.941,0,0,1,2.737-8.212c2.911-5.638,5.175-5.37,5.475-8.212.355-3.368-2.751-4.437-8.212-13.687-1.729-2.929-2.593-4.393-2.738-5.475-.793-5.954,5.617-8.544,8.213-16.424,1.715-5.206.793-9.766,0-13.687-.533-2.632-2.508-12.4-10.95-19.162C1828.457-2.237,1815.24.161,1811.713.8c-16.847,3.058-25.693,16.5-27.373,19.162-1.886-9.167-8.741-15.782-16.425-16.424a16.621,16.621,0,0,0-13.687,5.474c-5,5.9-1.076,11.438-5.474,16.425-4.7,5.334-14.915,5.484-21.9,2.737-9.04-3.555-7.956-10.108-16.425-13.687-8.765-3.7-20.168-1.012-27.374,5.475-1.941,1.748-8.259,7.436-8.211,16.424a21.193,21.193,0,0,0,5.474,13.687c-3.735,2.271-18.721,11.815-24.636,27.374a36.24,36.24,0,0,0-2.738,16.424,34.382,34.382,0,0,0,2.738,10.95c-15.648-.476-24.694,3.943-30.111,8.212-9.409,7.415-9.271,15.482-19.162,19.162-8.184,3.044-11.845-1.15-21.9,2.737-3.872,1.5-11.381,4.4-13.687,10.95-2.771,7.869,3.086,17.835,5.475,21.9,3.147,5.354,5.613,6.995,5.474,10.949-.153,4.373-3.255,4.851-5.474,10.95a24.493,24.493,0,0,0,0,16.424,22.535,22.535,0,0,0,5.474,8.212c-3.111.874-8.4,2.4-14.7,4.49-1.812-3.663-1.891-5.61-5.124-7.944-12.072-8.715-27.547,6.466-41.06-2.737-2.747-1.871-4.764-4.307-13.687-10.949-4.562-3.4-6.869-5.1-8.213-5.475-9.5-2.649-14.581,9.055-24.636,8.212-7.568-.635-7.444-7.5-21.9-16.424a62.9,62.9,0,0,0-16.6-7.557,29.264,29.264,0,0,0-5.693-9.177c-9.03-9.791-22.772-10.659-27.374-10.95-8.53-.539-10.424,1.66-19.162,0-5.592-1.062-12.452-2.365-16.424-8.212-3.807-5.6-2.911-12.371-2.737-13.687a24.926,24.926,0,0,1,2.737-8.212c2.911-5.638,5.175-5.37,5.475-8.212.355-3.368-2.751-4.436-8.212-13.687-1.729-2.928-2.593-4.392-2.738-5.475-.793-5.954,5.616-8.544,8.213-16.424,1.715-5.206.793-9.766,0-13.687-.533-2.632-2.508-12.4-10.95-19.162-10.63-8.513-23.847-6.114-27.374-5.474-16.847,3.057-25.693,16.5-27.374,19.161-1.885-9.167-8.74-15.782-16.424-16.424a16.619,16.619,0,0,0-13.687,5.475c-5,5.9-1.076,11.437-5.475,16.424-4.7,5.334-14.915,5.484-21.9,2.737-9.04-3.555-7.956-10.108-16.425-13.686-8.765-3.7-20.169-1.012-27.374,5.474-1.941,1.748-8.26,7.437-8.212,16.425a21.192,21.192,0,0,0,5.475,13.686c-3.735,2.271-18.721,11.815-24.637,27.374a36.259,36.259,0,0,0-2.737,16.425,34.385,34.385,0,0,0,2.737,10.949c-15.647-.475-24.694,3.943-30.111,8.212-9.408,7.415-9.27,15.482-19.161,19.162-8.184,3.045-11.845-1.15-21.9,2.737-3.872,1.5-11.381,4.4-13.687,10.95-2.772,7.87,3.086,17.835,5.474,21.9,3.148,5.354,5.613,7,5.475,10.949-.153,4.374-3.256,4.851-5.475,10.95a24.5,24.5,0,0,0,0,16.424,22.548,22.548,0,0,0,5.475,8.212c-8.321,2.337-32.241,9.368-49.273,19.162-4.373,2.515-8.912,5.569-10.949,10.95-2.346,6.2-.653,13.577,0,16.424a34.051,34.051,0,0,0,1.344,4.475c-4.773-.343-5.766.1-9.167-1.428-8.2-3.68-6.4-8.014-13.687-10.95-9.892-3.982-20.74.962-24.637,2.738l-.4.183c-3.274-2.877-5.619-3.882-6.712-7.925-4.1-15.167,20.879-30.661,16.425-38.323-2.422-4.166-9.9.238-21.9-5.475-7.91-3.767-12.941-9.629-16.425-13.687-8.607-10.027-5.848-12.741-10.949-16.424-12.073-8.716-27.547,6.466-41.061-2.738-2.747-1.87-4.764-4.306-13.687-10.949-4.561-3.4-6.868-5.1-8.212-5.475-9.5-2.649-14.581,9.055-24.636,8.212-7.569-.634-7.444-7.5-21.9-16.424a61.32,61.32,0,0,0-19.161-8.212c-6.58-1.494-21.115-4.794-30.111,2.737-7.111,5.952-4.242,13.214-10.95,16.424-3.58,1.714-9.736.254-21.9-2.737-11.409-2.8-13.311-4.077-16.424-2.737-5.991,2.577-9.31,11.746-8.212,19.161,1.7,11.458,13.944,18.78,19.161,21.9,8.16,4.879,13.432,5.141,13.687,8.213.352,4.245-9.288,8.922-16.424,10.949-11.584,3.29-15.091-.825-24.636,2.737-1.748.653-11.778,4.4-16.425,13.687-1.809,3.618-1.485,5.442-2.737,24.637-.844,12.922-1.152,14.574-2.738,16.424-1.667,1.947-4.092,3.35-21.9,5.475-12.833,1.531-14.344,1.133-19.161,2.737-5.8,1.932-12.831,4.273-16.425,10.95-4.212,7.825-.975,16.536,0,19.161,3.179,8.557,10.031,13.687,13.687,16.425,5.224,3.911,6.105,2.909,8.212,5.474,6.5,7.912,1.818,21.933,0,27.374-4.167,12.478-8.651,13.2-10.949,21.9-1.663,6.294-1.993,16.048,5.475,30.112a70.457,70.457,0,0,0-38.324-5.475,21.682,21.682,0,0,0,10.95-10.95c.36-.839,3.721-8.991,0-16.424-4.493-8.974-13.693-5.685-21.9-16.424-1.392-1.821-6.564-8.591-5.475-16.425.62-4.456,2.611-4.551,2.737-8.212.224-6.484-5.823-12-13.686-19.161-6.145-5.6-7.643-5.646-8.213-8.213-1.267-5.707,5.476-8.464,8.213-19.161.914-3.574,2.223-8.693,0-13.687-4.094-9.193-16.92-10.688-19.162-10.95a31.182,31.182,0,0,0-16.424,2.738,31.5,31.5,0,0,0-13.687,10.949c-2.362,3.478-3.4,6.881-5.475,13.687a110.421,110.421,0,0,0-2.738,10.95c-2.843-9.823-7.344-14.223-10.949-16.425-2.4-1.463-4.162-1.812-21.9-8.212-2.695-.972-4.071-1.484-5.475-2.737-4.461-3.982-2.858-9.125-5.475-16.424-.964-2.691-3.96-11.05-10.949-13.687-6.657-2.513-14.818.965-19.162,5.474-4.389,4.556-6.855,12.212-8.212,16.425-.833,2.587-1.151,4.173-2.737,5.474-2.869,2.354-6.76,1.212-13.687,0-14.379-2.514-14.148-.486-19.162-2.737-8.2-3.679-6.395-8.014-13.687-10.949-9.891-3.983-20.74.961-24.636,2.737-3.342,1.523-5.883,2.716-8.212,5.475-4.386,5.195-6.008,13.559-2.738,19.161,1.258,2.154,3.037,3.555,5.475,5.475,4.974,3.917,8.3,4.333,8.212,5.475-.2,2.7-18.663-.672-24.636,8.212-2.268,3.373-2.485,8.14-2.738,13.687-.336,7.392,1.3,8.308,0,10.949-2.407,4.9-8.99,3.7-21.9,8.213-7.611,2.661-12,4.195-16.424,8.212-8.325,7.555-10.225,17.94-10.95,21.9-.879,4.806-1.632,8.923,0,13.687,1.221,3.563,2.731,4.435,5.475,10.949a34.246,34.246,0,0,1,2.738,8.212c.794,4.7-.392,5.579,0,10.95a25.367,25.367,0,0,0,2.737,10.949,21.462,21.462,0,0,0,8.212,8.213c-11.2,7.341-17.839,7.2-21.9,5.474-5.792-2.459-5.563-7.8-13.687-13.687-3.276-2.372-11.282-8.171-19.161-5.474-7.959,2.723-10.6,12.338-10.95,13.687a22.32,22.32,0,0,0,0,10.949,16.769,16.769,0,0,0-8.212-2.737c-9.942-.446-18.34,9.322-21.9,16.424-2.037,4.063-3.466,9.2-5.475,16.424-1.44,5.178-1.491,6.311-2.737,8.212-.942,1.436-4.363,6.05-16.425,8.213-13.341,2.391-15.65-2.1-27.373,0a47.9,47.9,0,0,0-19.162,8.212,46.661,46.661,0,0,0-16.424,19.161,43.272,43.272,0,0,0-2.738,8.213,37.983,37.983,0,0,0-10.949-5.475c-3.443-1.067-12.229-3.79-21.9,0a29.449,29.449,0,0,0-13.687,10.949c-3.737,5.787-2.056,8.41-5.475,10.95-4.944,3.672-13.029,1.584-19.162,0-4.529-1.17-4.33-1.779-8.212-2.738a39.422,39.422,0,0,0-19.162,0c-8.566,2.51-10.241,9-19.161,19.162C13.73,618.712-.293,619.236.005,627.416c.281,7.737,13.074,14.048,21.9,16.424,25.413,6.845,53.069-9.468,60.222-13.687,11-6.487,17.584-12.881,30.111-13.687A51.876,51.876,0,0,1,131.4,619.2c10.791,3.671,10.219,7.458,19.162,10.949,12.766,4.985,26.724,2.263,38.323,0,9.7-1.891,11.039-3.5,16.424-2.737,11.219,1.587,19.089,10.5,21.9,13.687,7.493,8.488,5.172,11.512,10.95,16.424,9.625,8.183,23.742,6.317,30.111,5.475,4.126-.546,18.247-2.9,30.111-13.687,7.428-6.752,6.948-10.423,13.687-13.687a29.448,29.448,0,0,1,24.636,0c7.479,3.584,6.587,7.7,16.425,13.687,5.725,3.481,10.785,6.558,16.424,5.475,6.54-1.256,7.4-6.869,16.424-13.687,2.159-1.631,8.688-6.565,16.425-8.212,12.293-2.617,17.129,5.3,41.06,10.949,10.222,2.413,15.333,3.62,21.9,2.738,15.334-2.061,16.583-11.433,30.111-13.687,11.18-1.863,13.965,3.93,35.587,8.212,6.731,1.333,14.524,1.8,30.111,2.737,28.446,1.709,42.856,2.457,52.01-2.737a51.731,51.731,0,0,0,7.925-5.817,54.374,54.374,0,0,0,7.4,2.609c19.424,5.231,40.146-3.062,52.035-9.147,3.307.547,7.2,1.043,12.027,1.4,7.048.529,10.634.778,13.687,0,11.257-2.867,13.5-11.465,24.2-18.854a54.739,54.739,0,0,1,7.541,1.96c10.791,3.67,10.219,7.457,19.162,10.949,12.766,4.985,26.724,2.262,38.323,0,9.7-1.891,11.039-3.5,16.425-2.737,11.218,1.587,19.088,10.5,21.9,13.687,7.494,8.488,5.172,11.512,10.95,16.424,9.625,8.183,23.743,6.316,30.112,5.475,4.126-.546,18.246-2.9,30.111-13.687,7.427-6.752,6.948-10.423,13.687-13.687a29.444,29.444,0,0,1,24.636,0c7.478,3.583,6.587,7.705,16.424,13.687,5.725,3.48,10.786,6.558,16.425,5.474,6.54-1.256,7.4-6.868,16.424-13.686,2.158-1.632,8.687-6.565,16.424-8.213,12.294-2.617,17.129,5.3,41.061,10.95,10.222,2.413,15.333,3.62,21.9,2.737a30.9,30.9,0,0,0,7.624-1.97c10.694,2.927,26.5,6.016,43.222,4.584,11.644-1,15.248-3.463,24.42-6.772,5.113.489,11.493.877,20.542,1.421,28.446,1.709,42.856,2.457,52.011-2.737,5.441-3.088,7.021-5.654,12-8.635,32.605-1.258,49.86-1.749,63.48.3,11.178,1.68,23.877,4.769,49.273,10.949,22.15,5.39,31.126,8.213,46.535,8.212a164.322,164.322,0,0,0,30.111-2.737c12.24-2.543,15.425-5.054,24.637-5.475,2.759-.126,11.895-.332,27.374,5.475,23.058,8.65,21.9,16.278,38.323,21.9,23.248,7.956,45.766-.416,52.01-2.738a87.634,87.634,0,0,0,27.374-16.424c3.236,5.721,10.9,17.261,24.637,21.9,13.077,4.417,24.976.318,41.06-5.475,23.546-8.48,23.149-14.372,43.8-21.9,20.846-7.6,38.947-8.042,49.273-8.212,18.313-.3,31.955,2.491,46.536,5.475,21.4,4.38,21.893,6.883,41.06,10.95,24.324,5.16,43.6,5.385,57.485,5.474,28.2.181,42.292.271,54.748-5.474,7.482-3.452,12.487-7.348,21.9-8.213,14.431-1.325,25.637,5.724,30.112,8.213,33.37,18.56,89.051,4.1,125.919-5.475,19.328-5.02,17.4-6.5,60.223-19.162,25.868-7.651,39.066-11.521,52.01-13.687,8.232-1.378,28.848-4.349,76.646,0,57.951,5.273,54.591,12.092,95.809,13.687,15.941.617,38-.5,82.121-2.737,32.468-1.646,30.194-2.128,49.273-2.738,43.187-1.379,64.78-2.069,82.121,0a220.038,220.038,0,0,0,49.273,0c12.63-1.416,20.56-3.464,21.9-8.212C2698.378,604.793,2690.071,597.937,2688.584,596.71Z" fill="#f6eff6"/>
    <path d="M2588.169,661.844c-10.588-8.739-17.834-3.47-30.111-10.95-10.353-6.308-8.561-12.1-19.162-16.424-6.866-2.8-13.5-2.766-19.161-2.737a71.155,71.155,0,0,0-19.162,2.737c-1.8-18.817-9.686-28.687-13.687-32.849-6.388-6.645-18.858-10.817-43.8-19.161-17.017-5.694-20.931-5.872-24.636-5.475-9.756,1.045-12.588,5.485-27.374,8.212-8.967,1.654-13.979,2.507-19.162,0-7.5-3.629-6.174-9.854-13.687-16.424-5.886-5.148-13.049-6.17-27.374-8.212-9.692-1.383-18.859-2.69-30.111,0a40.279,40.279,0,0,0-9.551,3.517c-6.937-4.715-16.2-6.8-27.759-9.274-8.766-1.879-12.379-1.868-16.424-5.475-3.664-3.268-5.561-7.612-8.212-13.687-4.216-9.657-2.56-10.767-5.475-13.687-4.479-4.488-9.2-2.68-16.424-8.212a29.765,29.765,0,0,1-5.475-5.475c14.15-5.06,22.908-14.285,21.9-21.9-.741-5.6-6.7-9.867-8.212-10.949-7.8-5.585-13.385-2.487-19.162-8.212-3.835-3.8-4.966-8.73-5.475-10.95-1.576-6.876.891-9.282,0-13.687-1.789-8.848-15.277-16.613-27.373-16.424-14.762.231-17.064,12.146-30.111,10.949-13.281-1.217-23.353-14.7-24.637-16.424-5.362-7.179-3.578-9.561-8.212-13.687-8.288-7.378-22.923-7.711-32.848-2.737-2.031,1.017-6.829,5.24-16.425,13.687-8.612-10.689-9.337-11.381-10.949-13.687a65.932,65.932,0,0,1-10.95-27.374c-1.51-10.476,1.495-10.4,0-21.9a61.322,61.322,0,0,0-8.212-24.637c-6.917-11.288-11.926-9.908-13.687-16.424-4.1-15.167,20.879-30.66,16.424-38.323-2.421-4.166-9.9.238-21.9-5.475-7.909-3.767-12.94-9.629-16.424-13.687-8.607-10.027-5.848-12.741-10.95-16.424-12.072-8.716-27.546,6.466-41.06-2.737-2.747-1.871-4.764-4.307-13.687-10.95-4.561-3.4-6.869-5.1-8.212-5.475-9.5-2.649-14.582,9.055-24.637,8.212-7.568-.634-7.443-7.5-21.9-16.424a61.339,61.339,0,0,0-19.162-8.212c-6.579-1.494-21.115-4.794-30.111,2.737-7.11,5.952-4.242,13.214-10.949,16.425-3.581,1.713-9.736.253-21.9-2.738-11.41-2.8-13.312-4.077-16.425-2.737-5.99,2.578-9.309,11.747-8.212,19.162,1.7,11.457,13.944,18.779,19.162,21.9,8.16,4.878,13.432,5.14,13.687,8.212.352,4.245-9.288,8.923-16.424,10.949-11.585,3.29-15.091-.825-24.637,2.738-1.747.652-11.777,4.4-16.424,13.687-1.81,3.618-1.485,5.442-2.737,24.636-.844,12.923-1.153,14.574-2.738,16.424-1.667,1.947-4.093,3.35-21.9,5.475-12.833,1.532-14.344,1.133-19.162,2.737-5.8,1.932-12.83,4.273-16.424,10.95-4.212,7.825-.975,16.536,0,19.162,3.179,8.556,10.03,13.686,13.687,16.424,5.224,3.912,6.1,2.909,8.212,5.475,6.5,7.912,1.817,21.933,0,27.373-3.628,10.863-7.495,12.821-9.952,18.883-5.96-.641-14.222-2.908-24.914-2.693-4.892-5.373-12.76-4.132-19.882-13.452-1.391-1.821-6.563-8.59-5.474-16.424.619-4.457,2.611-4.552,2.737-8.213.224-6.484-5.824-12-13.687-19.161-6.145-5.6-7.642-5.646-8.212-8.212-1.267-5.708,5.476-8.465,8.212-19.162.914-3.574,2.224-8.693,0-13.687-4.093-9.193-16.919-10.688-19.162-10.95a31.194,31.194,0,0,0-16.424,2.738,31.515,31.515,0,0,0-13.687,10.949c-2.362,3.479-3.4,6.881-5.474,13.687a110.421,110.421,0,0,0-2.738,10.95c-2.843-9.823-7.344-14.223-10.949-16.424-2.4-1.464-4.162-1.813-21.9-8.213-2.7-.972-4.071-1.484-5.475-2.737-4.461-3.982-2.858-9.125-5.475-16.424-.964-2.691-3.961-11.049-10.95-13.687-6.656-2.513-14.817.965-19.161,5.474-4.389,4.556-6.855,12.213-8.213,16.425-.833,2.588-1.15,4.173-2.737,5.475-2.868,2.353-6.76,1.211-13.687,0-14.378-2.515-14.147-.487-19.161-2.738-8.2-3.679-6.395-8.014-13.687-10.949-9.892-3.983-20.74.961-24.637,2.737-3.341,1.523-5.883,2.716-8.212,5.475-4.386,5.195-6.007,13.559-2.737,19.162,1.257,2.153,3.036,3.554,5.475,5.474,4.974,3.917,8.3,4.333,8.212,5.475-.2,2.7-18.663-.672-24.637,8.212-2.268,3.373-2.485,8.14-2.737,13.687-.337,7.392,1.3,8.308,0,10.95-2.407,4.9-8.99,3.7-21.9,8.212-1.744.609-3.3,1.157-4.745,1.692a11.528,11.528,0,0,1,.422-3.309c1.381-4.726,5.334-5.187,5.475-8.212.125-2.71-2.918-5.122-13.687-10.949-15.973-8.644-19.661-8.957-21.9-13.687-2.505-5.293.748-7.789-2.738-13.687-.823-1.393-4.366-6.944-10.949-8.212a14.731,14.731,0,0,0-5.475,0c6.124-24.066,2.117-33.851-2.737-38.324-3.55-3.27-5.656-1.954-21.9-8.212-14.1-5.431-14.982-7.375-21.9-8.212a48.472,48.472,0,0,0-21.9,2.737c-10.366,4.013-13.3,9.751-19.162,8.213-3.961-1.039-7.036-4.816-8.212-8.213-1.669-4.819,1.132-7,0-10.949-.382-1.331-1.893-5.242-19.162-10.95-11.133-3.679-16.7-5.519-24.636-5.474-5.7.032-14.108.078-21.9,5.474a30.236,30.236,0,0,0-8.213,8.213c-2.395,3.617-2.482,5.593-5.474,10.949-2.7,4.826-4.044,7.239-5.475,8.212-6.848,4.659-15.2-4.143-27.374,0a39.756,39.756,0,0,0-5.475,2.738c-12.182,6.668-21.6,11.823-27.373,21.9-4.5,7.848-5.194,15.9-5.475,19.161a96.03,96.03,0,0,0,0,16.424c.377,3.587.733,4.527,0,5.476-3.282,4.248-16.211-7.091-27.374-2.738-8.354,3.258-6.067,11.541-16.424,16.424-7.862,3.707-13.242.85-16.424,5.475-2,2.9-.53,4.975-2.738,13.687-1.2,4.746-1.8,7.118-2.737,8.212-5.513,6.46-18.917-2.78-41.061,0-8.959,1.125-13.517,3.485-16.424,5.475-1.895,1.3-8.324,5.7-10.95,13.687-1.48,4.5-.987,9.39,0,19.161.856,8.474,1.929,11.025,0,13.687-2.6,3.586-6.438,1.57-10.949,5.475-5.55,4.8-5.494,12.835-5.475,13.687.08,3.758,1.879,7.119,5.475,13.687,5.785,10.569,8.537,12.254,8.212,16.424-.454,5.8-6.335,9.7-8.212,10.95-12.745,8.462-30.21,1.11-32.849,0-6.081-2.559-4.487-3.407-13.687-8.212-10.205-5.331-18.093-9.451-27.374-8.213-3.246.434-9.555,1.908-16.424,8.213a14.094,14.094,0,0,0-2.737-8.213c-3.587-4.7-9.3-5.3-10.95-5.474-11.217-1.181-20.394,8.987-24.636,13.687-6.311,6.991-8.89,13.758-10.95,19.161-2.657,6.972-5.964,15.647-2.737,21.9.422.82,1.46,2.572,2.737,5.475,1.96,4.457,2.94,6.685,2.737,8.212-.755,5.7-15.251,12.022-27.373,8.212-8.2-2.577-7.279-7.267-16.425-10.949-9.545-3.843-18.466-1.92-27.373,0-11.724,2.527-15.2,6.575-16.425,8.212a17.781,17.781,0,0,0-2.737,5.475c-13.04,1.406-23.229,2.237-30.111,2.737-8.877.645-14.919.933-19.162,5.475-3.863,4.135-1.893,7.148-5.475,10.95-7.128,7.566-22.689,3.854-27.374,2.737-9.281-2.214-10.806-5-19.161-8.212-15.913-6.125-30.767-3.88-38.323-2.738-23.689,3.581-21.858,13.794-38.324,13.687-13.636-.088-17.683-7.111-43.8-10.949-5.933-.872-10.74-1.247-16.424,0-2.763.605-5.646,1.575-19.162,8.212-8.315,4.083-8.541,4.362-10.949,5.475-2.729,1.259-30.091,13.468-52.011,2.737-3.4-1.663-3.337-2.249-5.475-2.737-9.6-2.193-15.836,8.468-32.848,16.424a64.2,64.2,0,0,1-16.424,5.475c-13.529,2.45-24.62-.475-32.849-2.738-15.022-4.131-13.639-7.082-27.374-10.949-9.393-2.645-21.722-6.116-35.586-2.738-13.567,3.307-13.735,9.549-27.374,10.95-2.531.26-2.6.052-21.9,0-8.315-.023-12.472-.034-13.687,0-11.591.325-36.935,2.97-38.323,10.949-.468,2.69,2.426,5.443,8.212,10.95,2.636,2.509,10.078,9.59,19.162,13.687,11.628,5.244,18.57,2.27,54.748,0,23-1.444,28.584-.768,32.848,0,12.949,2.33,15.717,5.855,30.111,10.949,6.949,2.46,29.857,10.344,54.748,8.212,16.145-1.382,16.773-5.578,38.323-10.949,14.08-3.509,30.565-4.212,62.96-5.475,37.677-1.469,56.515-2.2,71.172,0,11.179,1.68,23.877,4.77,49.273,10.95,22.151,5.39,31.126,8.213,46.535,8.212a164.428,164.428,0,0,0,30.111-2.737c12.24-2.543,15.425-5.054,24.637-5.475,2.759-.126,11.9-.332,27.374,5.474,23.058,8.651,21.9,16.279,38.323,21.9,23.248,7.955,45.767-.417,52.011-2.738a87.626,87.626,0,0,0,27.373-16.424c3.236,5.721,10.905,17.261,24.637,21.9,13.077,4.417,24.976.318,41.061-5.475,3.433-1.236,6.346-2.416,8.9-3.556,7.633-.436,18.227-1.676,35.47-2.757,23-1.444,28.583-.768,32.848,0,12.949,2.33,15.717,5.855,30.111,10.949,6.949,2.46,29.857,10.344,54.748,8.212,16.145-1.382,16.773-5.579,38.323-10.949,14.08-3.509,30.565-4.212,62.96-5.475,37.677-1.469,56.516-2.2,71.172,0,11.179,1.68,23.877,4.77,49.273,10.949,22.151,5.39,31.126,8.213,46.536,8.213a164.384,164.384,0,0,0,30.111-2.738c12.239-2.543,15.424-5.053,24.636-5.475,2.759-.126,11.9-.331,27.374,5.475,23.059,8.65,21.9,16.279,38.323,21.9,23.248,7.956,45.767-.416,52.01-2.737a87.621,87.621,0,0,0,27.374-16.424c3.236,5.72,10.9,17.261,24.637,21.9,13.077,4.417,24.976.318,41.061-5.475,23.546-8.48,23.148-14.373,43.8-21.9,20.845-7.6,38.947-8.043,49.273-8.212,18.312-.3,31.954,2.491,46.535,5.474,21.4,4.38,21.893,6.884,41.061,10.95,24.323,5.16,43.6,5.386,57.485,5.475,28.194.18,42.291.271,54.747-5.475,7.482-3.451,12.487-7.348,21.9-8.212,14.432-1.326,25.637,5.723,30.112,8.212,33.371,18.56,89.051,4.1,125.919-5.475,19.329-5.019,17.4-6.5,60.223-19.161,25.868-7.651,39.066-11.521,52.01-13.687,8.232-1.378,28.848-4.349,76.647,0,57.951,5.272,54.591,12.091,95.808,13.687,15.942.616,38-.5,82.121-2.738,32.468-1.645,30.194-2.128,49.273-2.737,43.187-1.38,64.78-2.07,82.122,0a220.093,220.093,0,0,0,49.272,0c12.63-1.416,20.56-3.464,21.9-8.212C2597.963,669.927,2589.656,663.071,2588.169,661.844Z" fill="#c0cfe6"/>
    <path d="M2256.928,691.76c-6.78-8.42-17.614-11.471-32.1-15.37-8.657-2.331-12.266-2.507-16.118-6.318-3.49-3.453-5.159-7.89-7.492-14.094-3.71-9.863-2-10.885-4.759-13.952-4.24-4.714-9.049-3.154-15.976-9.052a29.758,29.758,0,0,1-5.184-5.751c14.393-4.321,23.617-13.08,23-20.736-.451-5.629-6.181-10.2-7.634-11.36-7.5-5.981-13.238-3.177-18.71-9.194-3.634-4-4.507-8.975-4.9-11.218-1.219-6.948,1.37-9.223.709-13.669-1.329-8.928-14.4-17.382-26.487-17.82-14.753-.534-17.67,11.245-30.638,9.375-13.2-1.9-22.559-15.895-23.752-17.679-4.983-7.447-3.078-9.733-7.492-14.094-7.895-7.8-22.493-8.888-32.663-4.435-2.08.911-7.091,4.88-17.111,12.818-8.047-11.121-8.735-11.849-10.226-14.236a65.915,65.915,0,0,1-9.516-27.905c-.966-10.54,2.032-10.311,1.134-21.869a61.3,61.3,0,0,0-6.925-25.029c-6.323-11.632-11.4-10.514-12.818-17.111-3.308-15.359,22.439-29.538,18.388-37.421-2.2-4.286-9.9-.276-21.586-6.6-7.7-4.172-12.424-10.286-15.693-14.52-8.076-10.459-5.18-13.027-10.084-16.969-11.605-9.33-27.845,5.03-40.864-4.861-2.646-2.01-4.534-4.548-13.1-11.644-4.379-3.627-6.6-5.449-7.918-5.893-9.354-3.137-15.031,8.288-25.028,6.925-7.526-1.026-7.046-7.871-21.019-17.537a61.349,61.349,0,0,0-18.711-9.193c-6.493-1.833-20.838-5.881-30.212,1.173-7.409,5.576-4.921,12.976-11.786,15.835-3.664,1.527-9.736-.251-21.728-3.868-11.248-3.392-13.082-4.761-16.26-3.584-6.116,2.264-9.906,11.248-9.194,18.71,1.1,11.53,12.953,19.477,18,22.862,7.9,5.3,13.148,5.83,13.243,8.911.132,4.257-9.737,8.429-16.969,10.084-11.739,2.685-15.028-1.607-24.745,1.457-1.779.561-11.99,3.78-17.111,12.818-2,3.519-1.765,5.357-4.011,24.461-1.511,12.862-1.905,14.5-3.584,16.261-1.766,1.857-4.261,3.133-22.153,4.332-12.9.865-14.384.389-19.278,1.741-5.893,1.629-13.035,3.6-16.969,10.084-4.612,7.6-1.832,16.464-.993,19.136,2.731,8.71,9.307,14.188,12.817,17.112,5.015,4.177,5.946,3.221,7.918,5.892,6.081,8.238.678,22-1.418,27.338-4.808,12.244-9.324,12.737-12.07,21.3-1.987,6.2-2.821,15.923,3.908,30.354a70.448,70.448,0,0,0-37.988-7.452,21.68,21.68,0,0,0,11.5-10.368c.4-.819,4.182-8.786.851-16.4-4.022-9.195-13.38-6.387-21.019-17.537-1.3-1.891-6.11-8.919-4.617-16.686.85-4.418,2.843-4.41,3.159-8.059.56-6.464-5.194-12.281-12.675-19.845-5.847-5.911-7.34-6.034-7.776-8.627-.97-5.765,5.907-8.169,9.194-18.71,1.1-3.522,2.671-8.566.709-13.669-3.612-9.392-16.343-11.55-18.569-11.927a31.186,31.186,0,0,0-16.544,1.883,31.515,31.515,0,0,0-14.236,10.225c-2.539,3.352-3.751,6.7-6.176,13.385a110.385,110.385,0,0,0-3.3,10.793c-2.331-9.956-6.6-14.584-10.084-16.969-2.317-1.585-4.062-2.025-21.444-9.336-2.641-1.11-3.989-1.693-5.326-3.017-4.249-4.208-2.382-9.261-4.616-16.686-.824-2.737-3.384-11.239-10.226-14.236-6.518-2.854-14.848.2-19.42,4.475-4.619,4.322-7.478,11.84-9.052,15.977-.966,2.541-1.365,4.108-3.017,5.325-2.987,2.2-6.813.86-13.669-.709-14.229-3.256-14.1-1.219-18.994-3.726-8-4.1-5.971-8.335-13.1-11.644-9.672-4.489-20.762-.114-24.745,1.457-3.416,1.348-6.016,2.408-8.485,5.042-.358.383-.695.791-1.022,1.21a24.771,24.771,0,0,0-5.088.675c-4.978,1.209-5.048,2.906-8.212,2.738-8.93-.475-9.745-14.071-19.162-16.425-5.157-1.289-10.738,1.878-21.9,8.213-9.8,5.561-11.822,8.831-16.424,8.212-6.563-.883-6.571-8.088-13.687-10.95-9.686-3.895-25.128,3.237-30.111,13.687-2.217,4.648-2.391,10.4-2.738,21.9-.1,3.42-.059,6.259,0,8.212-1.059-1.913-8.163-14.284-21.9-16.424-9.391-1.463-16.8,2.648-21.9,5.475-3.466,1.922-11.683,6.627-16.424,16.424a33.894,33.894,0,0,0-2.737,8.212c-7.868-7.984-18.537-11.364-27.374-8.212-7.875,2.809-11.641,9.858-13.687,13.687-1.137,2.127-7.974,14.923-2.737,24.636,3.01,5.585,7.837,6.116,8.212,10.95.333,4.3-3.378,5.21-5.475,10.95-3.695,10.114,4.01,17.732,0,21.9-1.842,1.913-3.587.431-13.687,2.737-4.574,1.044-6.861,1.566-8.212,2.737-5.65,4.895-1.226,18.4,0,21.9-.989-1.851-5.865-10.508-16.424-13.687-.764-.229-12.22-3.491-21.9,2.738-8.444,5.434-8.98,13.872-13.686,13.687-3.79-.15-4.006-5.645-10.95-10.95-1.922-1.468-9.375-7.162-16.424-5.475-3.128.749-4.643,2.584-16.424,19.162-6.994,9.841-7.1,10.089-8.213,10.95-7.993,6.16-14.024,2.109-24.636,8.212-3.646,2.1-8.866,5.1-10.95,10.949-3.574,10.039,4.752,20.976,5.475,21.9,5.493,7.019,10.809,7.05,10.95,10.95.209,5.769-11.148,13.317-19.162,10.949-5.741-1.695-6.268-7.446-10.95-8.212-3.569-.583-8.79,1.856-16.424,13.687-9.887-2.592-24.944-4.763-41.06,0C918.25,651,909.12,653.7,900.989,661.7c-3.946,3.882-6.228,7.607-10.95,8.212-5.491.7-6.872-3.761-16.424-8.212-11.224-5.23-22.927-5.407-27.374-5.475-5.736-.087-5.541.594-8.212,0-2.919-.648-8.146-2.569-19.162-16.424-6.74-8.478-5.136-8.2-8.212-10.949-10.057-8.984-23.15-8.311-24.636-8.213a34.884,34.884,0,0,0-16.425,5.475c.557-2.913,2.728-16-5.475-27.374a34.019,34.019,0,0,0-13.686-10.949c-8.343-3.844-15.693-3.395-24.637-2.738A102.752,102.752,0,0,0,687.473,596c-7.265,3.815-7.385,5.082-10.95,5.475-10.928,1.2-14.9-10.134-30.111-13.687-3.414-.8-14.03-3.279-21.9,2.737a22.366,22.366,0,0,0-8.212,16.424c-.328,8.579,5.066,11.77,2.737,16.425-1.762,3.523-5.031,2.05-13.687,8.212-5.512,3.924-7.4,6.809-8.212,8.212a21.968,21.968,0,0,0-2.737,8.212c-8.5-3.98-24.574-10.022-43.8-8.212-7.054.664-18.336,1.726-30.112,8.212-4.6,2.534-6.327,4.272-10.949,5.475-7.627,1.986-12.468-.262-24.636-2.737-13.481-2.742-20.222-4.113-24.637-2.738-9.026,2.813-7.192,8.9-21.9,19.162-6.542,4.564-9.4,5.1-16.424,10.949-6.668,5.554-11.187,9.318-10.95,13.687.425,7.8,15.756,12.682,19.162,13.687,12.008,3.543,19.212,1.227,49.273-2.737,17.591-2.32,26.515-3.465,32.849-2.738,3.4.391,8.734,1.231,35.585,10.95,25.24,9.136,23.448,9.452,30.112,10.95a97.864,97.864,0,0,0,43.8,0c16.438-4.1,15.118-9.125,30.111-13.687,12.367-3.764,23-3.306,60.222,2.737,34.2,5.552,31.274,6.148,46.536,8.212,31.087,4.2,58.647,7.93,90.333,0,13.741-3.439,20.006-7,35.586-8.212,12.343-.957,22.083.262,41.061,2.737,33.958,4.43,33.839,7.817,43.8,5.475,7-1.647,9.845-3.979,17.913-8.66,2.1,6.747,12.876,12.59,20.651,15.123,25.024,8.152,53.488-6.706,60.85-10.549,11.32-5.909,18.228-11.953,30.78-12.108a51.857,51.857,0,0,1,18.994,3.726c10.587,4.225,9.819,7.977,18.569,11.928,12.49,5.639,26.571,3.643,38.272,1.985,9.781-1.386,11.2-2.923,16.544-1.883,11.121,2.166,18.518,11.478,21.16,14.8,7.043,8.865,4.569,11.765,10.084,16.97,9.188,8.67,23.383,7.538,29.787,7.027,4.149-.331,18.373-1.953,30.78-12.108,7.767-6.358,7.479-10.05,14.378-12.96a29.448,29.448,0,0,1,24.6,1.276c7.283,3.966,6.178,8.036,15.693,14.52,5.537,3.772,10.432,7.108,16.119,6.318,6.6-.916,7.748-6.476,17.111-12.818,2.24-1.517,9.016-6.106,16.828-7.35,12.412-1.977,16.831,6.18,40.438,13.062,10.084,2.94,15.125,4.409,21.728,3.868,15.42-1.263,17.152-10.558,30.78-12.108,11.26-1.281,13.742,4.648,35.112,10.044,6.654,1.68,14.412,2.552,29.93,4.294,28.319,3.18,42.671,4.674,52.082-.039,6.988-3.5,7.819-6.492,16.969-10.084a63.938,63.938,0,0,1,24.887-4.191c13.743.381,16.794,4.752,37.988,7.453,7.012.893,10.58,1.327,13.669.709,11.548-2.312,14.128-10.989,25.6-17.86,11.8-7.067,24.026-6.85,27.762-6.783,14.434.257,16.158,6.646,37.7,12.92,8.185,2.384,21.34,6.087,38.13,4.719,8.8-.717,20.154-1.779,30.638-9.375,8.431-6.107,8.363-10.691,14.52-15.693,12.02-9.767,29.279-6.109,46.756-3.056,0,0,41.986,7.332,81.728,9.721,23.9,1.437,42,2.525,65.892-2.063,17.687-3.4,24.962-7.3,44.307-8.666,11.09-.785,22.124.222,43.739,2.269,40.693,3.852,61.039,5.778,62.734,6,8.318,1.064,23.518,3.122,38.555-3.482,8.558-3.758,10.8-7.573,11.5-10.368C2263.222,699.577,2258.48,693.689,2256.928,691.76Z" fill="#8ab1d2"/>
    <path d="M1063.377,715.416c-7.1,5.487-11.911,9.207-11.829,13.731.145,8.077,15.8,13.7,19.285,14.863,12.274,4.112,19.806,1.99,51.016-.975,18.264-1.736,27.529-2.584,34.046-1.594,3.5.532,8.979,1.6,36.359,12.653,25.737,10.389,23.873,10.649,30.7,12.447a101.194,101.194,0,0,0,45.257,1.647c17.14-3.616,15.965-8.86,31.629-13.01,12.92-3.424,23.891-2.551,62.125,5.093,35.126,7.023,32.083,7.529,47.776,10.236,31.965,5.513,60.3,10.4,93.342,3.4,14.328-3.036,20.935-6.485,37.08-7.147,12.789-.524,22.809,1.1,42.325,4.373,34.922,5.854,34.672,9.35,45.051,7.3,11.429-2.252,12.35-6.613,40.32-18.358,10.515-4.416,15.773-6.624,20.109-7.765,13.672-3.6,25.051-2.377,73.336,8.334,24.633,5.463,29.2,6.816,39.394,7.1,17.443.482,30.125-2.761,36.977-4.319,17.532-3.987,51.39-4.045,119.107-4.161,41.651-.072,47.991.951,62.434-3.393,14.332-4.31,22.872-9.763,42.943-12.6a212.808,212.808,0,0,1,34.045-1.593c23.815.4,26.172,3.48,39.6,1.441,15.985-2.427,13.686-6.945,31.526-10.181,17.529-3.18,36.369-1.833,42.531-1.285,8.894.791,12.58,1.8,19.8.721,11.221-1.683,12.127-5.6,22.937-7.662,5.465-1.043,13.072-.352,28.285,1.029,13.483,1.225,16.382,2.142,22.629.824,6.111-1.289,17.044-5.058,17.383-10.7.3-4.928-7.6-9.719-10.9-11.726-6.252-3.8-8.792-2.806-11.108-6.069-3.288-4.634.412-8.63-2.314-14.246-2.746-5.656-9.448-7.677-13.834-9-10.122-3.054-12.564.858-22.628-.824-3.984-.666-4.759-1.472-25.045-12.241-16.37-8.69-17.516-9.041-19.491-9.206-7.829-.654-10.053,3.175-28.7,10.285-17.337,6.611-21.163,5.493-22.834,4.833-4.89-1.93-4.726-5.222-13.525-17.486-5.1-7.107-5.458-6.423-16.251-20.417-9.953-12.906-10.7-14.855-10.7-17.383.019-5.994,4.288-10.752,12.035-19.388,8.143-9.078,11.152-9.42,11.829-13.731,1.4-8.935-9.927-17.632-13.422-20.315-5.644-4.332-11.522-6.88-19.491-9.206-27.141-7.925-39.984-2.033-44.948-10.133-3.515-5.737-1.116-15.291,3.55-19.7,3.248-3.067,5.572-1.729,11.52-5.245,2.779-1.643,10.892-6.439,11.829-13.731,1.051-8.189-7.541-14.914-10.7-17.383-.805-.63-12.169-9.259-25.251-6.584-5.189,1.061-5.326,2.813-8.588,2.52-9.21-.826-9.541-14.906-19.182-17.692-5.281-1.526-11.167,1.537-22.938,7.662-10.335,5.378-12.548,8.681-17.28,7.868-6.748-1.159-6.485-8.6-13.731-11.829-9.861-4.389-26.087,2.4-31.628,13.01-2.465,4.72-2.861,10.655-3.653,22.526-.235,3.529-.3,6.465-.308,8.485-1.023-2.017-7.9-15.067-22.011-17.795-9.649-1.865-17.462,2.1-22.834,4.834-3.654,1.856-12.322,6.408-17.589,16.353a35.1,35.1,0,0,0-3.138,8.383c-7.829-8.546-18.726-12.44-27.976-9.515-8.242,2.606-12.4,9.748-14.658,13.628-1.254,2.155-8.8,15.12-3.755,25.354,2.9,5.883,7.869,6.614,8.074,11.623.183,4.453-3.686,5.257-6.069,11.108-4.2,10.312,3.477,18.474-.823,22.628-1.975,1.908-3.723.311-14.246,2.314-4.765.907-7.148,1.361-8.589,2.52-6.022,4.846-1.958,18.964-.823,22.628-.952-1.95-5.665-11.079-16.457-14.76-.78-.266-12.495-4.068-22.731,2-8.93,5.3-9.8,14-14.658,13.628-3.91-.3-3.926-5.984-10.9-11.726-1.931-1.59-9.418-7.753-16.765-6.275-3.261.656-4.895,2.5-17.692,19.182-7.6,9.9-7.712,10.158-8.9,11-8.491,6.065-14.57,1.652-25.765,7.559-3.847,2.03-9.353,4.936-11.726,10.9-4.072,10.239,4.121,21.853,4.833,22.834,5.412,7.459,10.9,7.691,10.9,11.726,0,5.969-12.02,13.341-20.211,10.594-5.868-1.969-6.2-7.931-11.005-8.9-3.667-.737-9.154,1.587-17.486,13.525-10.119-3.05-25.6-5.86-42.429-1.544-10.561,2.708-20.1,5.152-28.8,13.113-4.223,3.863-6.721,7.626-11.623,8.074-5.7.521-6.959-4.145-16.662-9.1-11.4-5.826-23.488-6.449-28.08-6.686-5.924-.306-5.747.4-8.485-.309-2.992-.78-8.321-2.962-19.182-17.692-6.647-9.013-5-8.668-8.074-11.623-10.054-9.661-23.608-9.458-25.148-9.412a36.058,36.058,0,0,0-17.177,5.039c.684-2.989,3.42-16.43-4.628-28.491a35.177,35.177,0,0,0-13.731-11.829c-8.476-4.286-16.087-4.1-25.354-3.755a106.217,106.217,0,0,0-40.011,9.873c-7.651,3.669-7.822,4.973-11.52,5.245-11.338.835-15.021-11.032-30.6-15.275-3.5-.953-14.374-3.915-22.732,2a23.122,23.122,0,0,0-9.1,16.662c-.661,8.852,4.792,12.352,2.211,17.074-1.954,3.575-5.276,1.93-14.452,7.971-5.843,3.848-7.9,6.757-8.794,8.177a22.727,22.727,0,0,0-3.138,8.383c-8.631-4.433-25.015-11.28-44.948-10.133-7.313.421-19.011,1.094-31.422,7.353-4.848,2.445-6.7,4.176-11.52,5.245-7.956,1.765-12.874-.74-25.354-3.755-13.827-3.34-20.74-5.01-25.354-3.755-9.433,2.567-7.767,8.928-23.349,18.976C1073.828,709.189,1070.856,709.634,1063.377,715.416Z" fill="#5081a9"/>
  </g>
</svg>
