<svg xmlns="http://www.w3.org/2000/svg" width="2788.431" height="824.801" viewBox="0 0 2788.431 824.801">
  <title>Cloud_2</title>
  <g>
    <path d="M2780.02,631.956c-10.588-8.739-17.834-3.469-30.111-10.949-10.354-6.308-8.562-12.1-19.162-16.425-6.867-2.8-13.5-2.766-19.162-2.737a71.14,71.14,0,0,0-19.161,2.737c-1.8-18.816-9.686-28.686-13.687-32.848-6.389-6.646-18.859-10.818-43.8-19.162-17.018-5.694-20.931-5.872-24.637-5.475-9.756,1.045-12.588,5.486-27.374,8.212-8.967,1.654-13.978,2.508-19.161,0-7.5-3.629-6.174-9.853-13.687-16.424-5.887-5.148-13.049-6.169-27.374-8.212-9.692-1.382-18.859-2.69-30.111,0-9.155,2.188-8.875,4.437-16.425,5.475-13.589,1.867-24.751-4.011-27.373-5.475-8.513-4.753-8.074-8.233-19.162-16.424-4.591-3.392-10.7-7.907-19.162-10.95-17.564-6.318-34.19-2.314-43.8,0a101.465,101.465,0,0,0-16.424,5.475c-1.59-.584-16.788-6.406-19.162-19.162-1.279-6.877,1.566-13.638,2.738-16.424,2.229-5.3,3.9-5.661,8.212-13.687,3.44-6.4,5.16-9.608,5.475-13.687.671-8.712-4.692-15.466-5.475-16.424-1.344-1.644-4.448-4.975-24.637-10.95l-1.876-.554a3.987,3.987,0,0,0,2.379-2.166c2.195-4.867-3.894-12.9-9.013-17.13-9.69-8.012-17.054-3.361-25.33-10.732-7.1-6.326-4.387-12.163-10.815-20.556-8.026-10.477-21.243-12.913-27.134-14.158-15.674-3.311-21.141,2.255-34.708-3.611-1.75-.756-3.463-1.6-5.032-2.433,5.082-21.952,1.213-31.13-3.44-35.418-3.55-3.27-5.657-1.953-21.9-8.212-2.15-.828-3.99-1.574-5.593-2.249-2.875-3.629-7.312-6.529-11.986-9.571-12.994-8.458-17.5-4.8-27.946-11.544-11.953-7.715-8.64-14.179-21.272-23.8-3.657-2.786-18.979-14.46-31.371-9.741-6.26,2.385-5.606,6.6-21.188,22.084-.819.813-1.573,1.546-2.293,2.233a31.121,31.121,0,0,0-15.219,5.218c-.564.39-1.421.992-2.427,1.822-5.465-1.475-10.455-5.537-11.254-10.359-1.01-6.105,5.025-11.457,10.911-16.676,9.327-8.271,14.572-7.541,22.18-16.044,4.011-4.484,7.182-8.028,6.673-12.26-1.081-8.981-17.434-10.228-17.667-16.95-.17-4.893,8.407-6.7,22.991-18.658,8.888-7.29,13.337-11.033,13.525-15.865.383-9.882-14.635-21.342-25.51-19.386-4.763.856-6.62,3.906-9.466,2.793-4.938-1.93-4.887-13.266-4.775-21.547.113-8.4,1.065-16.509,3.7-30.38,3.73-19.63,5.554-23.028,2.889-27.766-4.082-7.256-14.636-10.441-22.717-9.92-11.944.77-15.231,9.427-22.358,7.389-8.961-2.561-7.674-17.36-16.856-19.565-6.737-1.618-10.969,5.5-18.12,2.972-5.1-1.8-4.478-5.971-8.834-8.475-11.507-6.615-31.414,13.526-37.053,8.559-3.145-2.771,2.992-9.09-.358-17.309-3.551-8.712-12.725-7.2-17.667-16.951-3.677-7.254.008-10.838-3.784-15.506-5.645-6.951-21.86-8.918-28.578-.275-4.667,6-2.943,14.8-.454,19.923a22.224,22.224,0,0,0,6.22,7.664,45.817,45.817,0,0,0-11.09,8.022,46.738,46.738,0,0,0-11.722,19.29c-4.313-1.588-19.75-6.675-37.233-.1a52.8,52.8,0,0,0-22.179,16.043c-2.613-.972-13.895-4.839-25.964.538-3.137,1.4-15.981,7.12-17.762,20.281-1.8,13.3,9.264,22.571,10,23.17a22.621,22.621,0,0,0,2.793,9.466c6.289,11.163,20.26,12.413,21.9,12.535a86.973,86.973,0,0,0-32.278,30.1,212.039,212.039,0,0,0-13.788-38.676c-4.807-10.173-7.9-14.506-12.438-15.328a7.63,7.63,0,0,0-5.264.991c-3.209-2.558-6.027-1.78-21.231-7.638-14.1-5.431-14.982-7.376-21.9-8.212a48.475,48.475,0,0,0-21.9,2.737c-10.366,4.013-13.3,9.75-19.162,8.212-3.961-1.039-7.036-4.815-8.212-8.212-1.669-4.82,1.132-7,0-10.949-.382-1.331-1.893-5.243-19.162-10.95-11.132-3.679-16.7-5.519-24.636-5.475-5.7.032-14.108.079-21.9,5.475a30.23,30.23,0,0,0-8.212,8.212c-2.4,3.618-2.483,5.593-5.475,10.95-2.7,4.826-4.044,7.239-5.475,8.212-6.847,4.659-15.2-4.143-27.374,0a39.662,39.662,0,0,0-5.474,2.737c-12.183,6.669-21.6,11.824-27.374,21.9-4.5,7.849-5.194,15.9-5.475,19.162a96.035,96.035,0,0,0,0,16.424c.378,3.587.733,4.526,0,5.475-3.282,4.249-16.211-7.091-27.374-2.737-8.354,3.258-6.067,11.541-16.424,16.424-7.862,3.707-13.242.85-16.424,5.475-2,2.9-.53,4.974-2.738,13.687-1.2,4.745-1.8,7.118-2.737,8.212-5.513,6.459-18.917-2.78-41.061,0-8.958,1.124-13.516,3.484-16.424,5.475-1.895,1.3-8.324,5.7-10.949,13.687-1.481,4.5-.987,9.39,0,19.161.855,8.474,1.928,11.025,0,13.687-2.6,3.586-6.439,1.57-10.95,5.475a16.229,16.229,0,0,0-4.96,8.924c-1.865,3.087-2.176,5.16-4.914,10.06-2.7,4.826-4.044,7.239-5.474,8.212-6.849,4.659-15.2-4.143-27.374,0a39.756,39.756,0,0,0-5.475,2.738,154.876,154.876,0,0,0-15.328,9.131,26.437,26.437,0,0,0-10.384-.742c-3.247.433-9.555,1.908-16.425,8.212a14.094,14.094,0,0,0-2.737-8.212c-3.586-4.7-9.3-5.3-10.95-5.475-11.216-1.18-20.394,8.987-24.636,13.687-6.31,6.992-8.89,13.758-10.95,19.162l-.489,1.286c-1.139-3.3-.952-7.286-2.745-12.289-.965-2.69-3.961-11.049-10.95-13.687-6.657-2.513-14.817.965-19.161,5.475-4.389,4.556-6.856,12.212-8.213,16.424-.833,2.588-1.151,4.173-2.737,5.475-2.869,2.353-6.76,1.211-13.687,0-14.378-2.515-14.147-.487-19.162-2.737-8.2-3.68-6.395-8.014-13.687-10.95-9.891-3.982-20.739.961-24.636,2.737-3.342,1.523-5.883,2.716-8.212,5.475-4.386,5.195-6.008,13.56-2.738,19.162,1.258,2.153,3.037,3.554,5.476,5.474,4.973,3.917,8.294,4.333,8.211,5.475-.2,2.7-18.662-.672-24.636,8.212-2.268,3.373-2.485,8.141-2.737,13.687-.337,7.392,1.3,8.309,0,10.95-2.408,4.9-8.991,3.7-21.9,8.212-1.068.373-2.066.723-3.016,1.062-1.98-.361-3.627-.753-4.7-1.008-.661-.158-1.271-.32-1.859-.483a11.115,11.115,0,0,0,.662-2.836c.728-7.952-7.813-14.149-10.949-16.425a36.321,36.321,0,0,0-9.739-4.723c-.192-.968-.366-1.953-.512-2.961-1.51-10.476,1.5-10.4,0-21.9a61.3,61.3,0,0,0-8.211-24.636c-6.918-11.289-11.927-9.909-13.687-16.424-4.1-15.168,20.878-30.661,16.424-38.324-2.422-4.166-9.906.238-21.9-5.475-7.91-3.767-12.941-9.629-16.425-13.687-8.607-10.027-5.847-12.741-10.949-16.424-12.073-8.716-27.547,6.466-41.061-2.737-2.747-1.871-4.764-4.307-13.687-10.95-4.561-3.4-6.869-5.1-8.212-5.474-9.5-2.65-14.581,9.055-24.637,8.212-7.567-.635-7.443-7.5-21.9-16.425a61.344,61.344,0,0,0-19.161-8.212c-6.58-1.494-21.115-4.793-30.111,2.738-7.111,5.952-4.243,13.213-10.95,16.424-3.581,1.714-9.736.253-21.9-2.737-11.409-2.806-13.311-4.077-16.424-2.738-5.991,2.578-9.309,11.747-8.212,19.162,1.7,11.458,13.944,18.78,19.161,21.9,8.16,4.878,13.432,5.14,13.687,8.212.352,4.245-9.287,8.923-16.424,10.949-11.584,3.29-15.091-.825-24.637,2.738-1.747.652-11.777,4.4-16.424,13.687-1.809,3.618-1.485,5.442-2.737,24.636-.844,12.923-1.152,14.574-2.738,16.425-1.667,1.946-4.092,3.349-21.9,5.474-12.833,1.532-14.344,1.133-19.161,2.738-5.8,1.931-12.831,4.272-16.425,10.949-4.211,7.826-.975,16.536,0,19.162,3.179,8.557,10.03,13.686,13.688,16.424,5.224,3.912,6.1,2.909,8.211,5.475,4.618,5.621,3.591,14.322,1.958,20.843-8.78-2.355-19.6-4.545-31.571-1.628-12.84,3.129-13.686,8.885-25.3,10.681-1.58-2.078-6.363-8.639-5.311-16.209.619-4.457,2.611-4.552,2.738-8.212.223-6.484-5.824-12-13.687-19.162-6.145-5.6-7.643-5.645-8.213-8.212-1.266-5.707,5.476-8.464,8.213-19.162.914-3.574,2.224-8.693,0-13.687-4.094-9.192-16.92-10.688-19.162-10.949a31.184,31.184,0,0,0-16.424,2.737,31.514,31.514,0,0,0-13.687,10.95c-2.362,3.478-3.4,6.881-5.475,13.686a110.153,110.153,0,0,0-2.737,10.95c-2.844-9.822-7.345-14.223-10.95-16.424-2.4-1.463-4.162-1.812-21.9-8.212-2.695-.973-4.071-1.484-5.475-2.738-4.461-3.982-2.858-9.125-5.475-16.424-.964-2.69-3.961-11.049-10.949-13.687-6.657-2.513-14.817.965-19.161,5.475-4.39,4.556-6.856,12.212-8.213,16.424-.833,2.588-1.151,4.173-2.737,5.475-2.869,2.353-6.76,1.211-13.687,0-14.379-2.515-14.148-.487-19.162-2.737-8.2-3.68-6.395-8.014-13.687-10.95-9.891-3.982-20.74.961-24.637,2.737-3.341,1.523-5.882,2.716-8.211,5.475-4.386,5.195-6.008,13.56-2.738,19.162,1.258,2.153,3.036,3.554,5.475,5.474,4.974,3.917,8.3,4.333,8.212,5.475-.2,2.7-18.662-.672-24.636,8.212-2.268,3.373-2.485,8.141-2.738,13.687-.336,7.392,1.3,8.309,0,10.95-2.407,4.9-8.99,3.7-21.9,8.212-7.611,2.661-12,4.2-16.424,8.212-8.325,7.556-10.225,17.941-10.95,21.9-.879,4.806-1.632,8.923,0,13.687,1.221,3.563,2.731,4.436,5.475,10.95a34.231,34.231,0,0,1,2.738,8.212c.794,4.7-.392,5.579,0,10.949a25.37,25.37,0,0,0,2.737,10.95,21.469,21.469,0,0,0,8.212,8.212c-11.2,7.341-17.839,7.2-21.9,5.475-5.792-2.459-5.563-7.8-13.687-13.687-3.276-2.373-11.282-8.171-19.162-5.475-7.958,2.724-10.6,12.339-10.949,13.687a22.324,22.324,0,0,0,0,10.95,16.768,16.768,0,0,0-8.212-2.738c-9.942-.446-18.34,9.322-21.9,16.425-2.036,4.062-3.466,9.2-5.475,16.424-1.44,5.177-1.491,6.311-2.737,8.212-.942,1.436-4.363,6.05-16.425,8.212-13.341,2.392-15.65-2.1-27.373,0a47.9,47.9,0,0,0-19.162,8.212,46.673,46.673,0,0,0-16.424,19.162,43.243,43.243,0,0,0-2.738,8.212,38.008,38.008,0,0,0-10.949-5.475c-3.443-1.067-12.228-3.79-21.9,0a29.447,29.447,0,0,0-13.687,10.95c-3.737,5.786-2.056,8.409-5.475,10.949-4.943,3.673-13.029,1.584-19.162,0-4.529-1.17-4.33-1.778-8.212-2.737a39.41,39.41,0,0,0-19.162,0c-8.566,2.51-10.241,9-19.161,19.162C13.73,648.012-.293,648.536.005,656.717c.281,7.737,13.075,14.047,21.9,16.424A52.12,52.12,0,0,0,39.48,674.61a62.143,62.143,0,0,0,9.1,3.477c12.008,3.543,19.213,1.227,49.273-2.737,17.591-2.32,26.515-3.465,32.849-2.737,3.4.39,8.734,1.23,35.586,10.949,25.239,9.136,23.447,9.452,30.111,10.95a97.848,97.848,0,0,0,43.8,0,56.689,56.689,0,0,0,8.061-2.586c7.684,2,15.659.952,20.012.376,4.075-.538,17.9-2.849,29.667-13.294,8.038.754,18.371,2.245,32.593,4.554,34.2,5.552,31.274,6.149,46.536,8.212,31.087,4.2,58.647,7.93,90.333,0,13.741-3.438,20.006-7,35.586-8.212,12.343-.956,22.084.262,41.061,2.738,33.958,4.429,33.839,7.816,43.8,5.474,10.967-2.579,11.7-6.825,38.324-19.161,10.007-4.638,15.011-6.957,19.161-8.212,12.273-3.713,22.747-3.257,62.8,3.95a50.977,50.977,0,0,0,32.629,5.916c1.832.286,3.458.507,5,.673,16.706,4.135,25.261,6.29,38.719,6.289a164.442,164.442,0,0,0,30.111-2.737c12.239-2.543,15.424-5.054,24.636-5.475,2.76-.126,11.9-.332,27.374,5.474,23.059,8.651,21.9,16.279,38.324,21.9,23.247,7.956,45.766-.416,52.01-2.738a86.492,86.492,0,0,0,12.591-5.877,59.014,59.014,0,0,0,17.395-6.342c4.077,6.014,11.14,14.018,22.024,17.694,13.077,4.417,24.976.318,41.061-5.475,23.546-8.48,23.148-14.372,43.8-21.9a133.666,133.666,0,0,1,32.288-7.315,121.054,121.054,0,0,0,15.412,4.7c10.222,2.413,15.333,3.619,21.9,2.737a30.916,30.916,0,0,0,7.624-1.971c10.054,2.753,24.626,5.646,40.232,4.792a165.284,165.284,0,0,0,19.414,5.267c24.323,5.16,43.6,5.386,57.485,5.475,28.194.181,42.292.271,54.747-5.475,7.482-3.451,12.487-7.347,21.9-8.212,14.432-1.326,25.637,5.724,30.112,8.212,33.37,18.561,89.052,4.1,125.92-5.475,8.078-2.1,12.445-3.577,17.917-5.513,3.883-.03,12.51.5,25.881,5.513,23.058,8.651,21.9,16.279,38.323,21.9,23.247,7.956,45.766-.416,52.01-2.738a87.634,87.634,0,0,0,27.374-16.424c3.235,5.721,10.9,17.261,24.636,21.9,13.078,4.417,24.976.318,41.061-5.475,23.546-8.48,23.148-14.372,43.8-21.9,20.846-7.6,38.947-8.042,49.273-8.212,18.313-.3,31.955,2.491,46.535,5.475,21.4,4.379,21.894,6.883,41.061,10.949,24.324,5.16,43.6,5.386,57.485,5.475,28.195.181,42.292.271,54.748-5.475,7.482-3.451,12.487-7.347,21.9-8.212,14.431-1.326,25.637,5.724,30.112,8.212,33.37,18.561,89.051,4.1,125.919-5.475,19.328-5.019,17.4-6.5,60.223-19.161,25.867-7.651,39.066-11.521,52.009-13.687,8.233-1.378,28.849-4.349,76.647,0,57.951,5.273,54.591,12.092,95.808,13.687,15.942.617,38-.5,82.122-2.738,32.467-1.645,30.193-2.127,49.273-2.737,43.187-1.38,64.78-2.069,82.121,0a220.046,220.046,0,0,0,49.274,0c12.628-1.416,20.559-3.464,21.9-8.212C2789.814,640.039,2781.507,633.183,2780.02,631.956Z" fill="#f6eff6"/>
    <path d="M2606.294,689.6c-10.588-8.738-17.834-3.469-30.111-10.949-10.354-6.308-8.562-12.1-19.162-16.425-6.867-2.8-13.5-2.766-19.162-2.737a71.18,71.18,0,0,0-19.161,2.737c-1.8-18.816-9.686-28.686-13.687-32.848-6.389-6.646-18.859-10.818-43.8-19.162-17.017-5.693-20.93-5.871-24.636-5.475-9.756,1.045-12.588,5.486-27.374,8.213-8.967,1.653-13.978,2.507-19.161,0-7.5-3.629-6.174-9.854-13.687-16.425-5.887-5.148-13.049-6.169-27.374-8.212-9.692-1.382-18.859-2.689-30.111,0-8.328,1.991-8.867,4.028-14.576,5.162-8.727-1.868-12.334-1.865-16.371-5.464-3.664-3.268-5.56-7.612-8.212-13.687-4.215-9.657-2.56-10.767-5.475-13.687-4.479-4.488-9.2-2.68-16.424-8.212a29.765,29.765,0,0,1-5.475-5.475c14.15-5.06,22.908-14.285,21.9-21.9-.741-5.6-6.7-9.867-8.212-10.949-7.8-5.585-13.385-2.487-19.162-8.212-3.835-3.8-4.965-8.73-5.474-10.95-1.577-6.876.89-9.282,0-13.687-1.79-8.848-15.278-16.613-27.374-16.424-14.762.231-17.064,12.146-30.112,10.949-13.28-1.217-23.352-14.7-24.636-16.424-5.361-7.179-3.577-9.561-8.212-13.687-8.288-7.378-22.923-7.711-32.848-2.737-2.031,1.017-6.829,5.24-16.425,13.687-8.612-10.689-9.337-11.381-10.949-13.687a65.932,65.932,0,0,1-10.95-27.374c-1.51-10.477,1.5-10.4,0-21.9a61.306,61.306,0,0,0-8.212-24.637c-6.917-11.288-11.926-9.908-13.687-16.424-4.1-15.167,20.879-30.66,16.424-38.323-2.421-4.166-9.9.238-21.9-5.475-7.909-3.767-12.94-9.629-16.424-13.687-8.607-10.027-5.848-12.741-10.949-16.424-12.073-8.716-27.547,6.466-41.061-2.737-2.747-1.871-4.764-4.307-13.687-10.95-4.561-3.395-6.869-5.1-8.212-5.475-9.5-2.649-14.582,9.055-24.636,8.212-7.569-.634-7.444-7.5-21.9-16.424a61.331,61.331,0,0,0-19.161-8.212c-6.58-1.494-21.115-4.793-30.112,2.737-7.11,5.952-4.241,13.214-10.949,16.425-3.581,1.714-9.736.253-21.9-2.738-11.41-2.805-13.311-4.077-16.424-2.737-5.991,2.578-9.31,11.746-8.213,19.162,1.7,11.457,13.945,18.78,19.162,21.9,8.16,4.878,13.432,5.14,13.687,8.212.353,4.245-9.288,8.922-16.424,10.949-11.585,3.29-15.091-.825-24.637,2.738-1.748.652-11.777,4.4-16.424,13.687-1.809,3.618-1.485,5.441-2.737,24.636-.844,12.922-1.152,14.574-2.738,16.424-1.667,1.947-4.093,3.35-21.9,5.475-12.833,1.531-14.344,1.133-19.161,2.737-5.8,1.932-12.831,4.273-16.425,10.95-4.212,7.825-.975,16.536,0,19.162,3.179,8.556,10.03,13.686,13.687,16.424,5.224,3.911,6.105,2.909,8.212,5.475a13.244,13.244,0,0,1,2,3.364,19.086,19.086,0,0,1-3.9,2.412c-7.862,3.707-13.241.85-16.424,5.475-2,2.9-.53,4.975-2.737,13.687-1.2,4.746-1.8,7.119-2.738,8.212-4.4,5.152-13.818.323-28.682-.435a26.535,26.535,0,0,1-2.264-2.6c-1.392-1.821-6.564-8.59-5.475-16.425.62-4.456,2.611-4.551,2.737-8.212.224-6.484-5.823-12-13.687-19.161-6.144-5.6-7.642-5.646-8.212-8.212-1.267-5.708,5.476-8.465,8.212-19.162.915-3.574,2.224-8.693,0-13.687-4.093-9.193-16.919-10.688-19.161-10.95a31.2,31.2,0,0,0-16.425,2.738,31.515,31.515,0,0,0-13.687,10.949c-2.362,3.479-3.4,6.881-5.474,13.687a110.421,110.421,0,0,0-2.738,10.95c-2.843-9.823-7.344-14.223-10.949-16.424-2.4-1.464-4.162-1.813-21.9-8.213-2.7-.972-4.071-1.484-5.475-2.737-4.461-3.982-2.858-9.125-5.475-16.424-.964-2.691-3.961-11.049-10.949-13.687-6.657-2.513-14.818.965-19.162,5.475-4.389,4.555-6.855,12.212-8.212,16.424-.834,2.587-1.151,4.173-2.737,5.475-2.869,2.353-6.76,1.211-13.688,0-14.378-2.515-14.147-.487-19.161-2.738-8.2-3.679-6.4-8.014-13.687-10.949-9.892-3.983-20.74.961-24.636,2.737-3.342,1.523-5.883,2.716-8.213,5.475-4.386,5.195-6.007,13.559-2.737,19.162,1.257,2.153,3.037,3.554,5.475,5.474,4.974,3.917,8.3,4.333,8.212,5.475-.2,2.7-18.663-.672-24.637,8.212-2.267,3.373-2.485,8.14-2.737,13.687-.337,7.392,1.3,8.308,0,10.95-2.407,4.9-8.99,3.7-21.9,8.212-1.743.609-3.3,1.157-4.745,1.692a11.528,11.528,0,0,1,.422-3.309c1.381-4.726,5.335-5.187,5.475-8.212.126-2.71-2.918-5.122-13.687-10.949-15.973-8.644-19.661-8.957-21.9-13.687-2.5-5.293.748-7.789-2.737-13.687-.824-1.393-4.368-6.944-10.95-8.212a14.731,14.731,0,0,0-5.475,0c6.124-24.066,2.117-33.851-2.737-38.324-3.549-3.27-5.656-1.954-21.9-8.212-14.1-5.431-14.982-7.375-21.9-8.212a48.475,48.475,0,0,0-21.9,2.737c-10.366,4.013-13.3,9.751-19.162,8.213-3.961-1.039-7.036-4.816-8.212-8.213-1.669-4.819,1.132-7,0-10.949-.382-1.331-1.893-5.242-19.162-10.949-11.132-3.68-16.7-5.52-24.636-5.475-5.7.032-14.108.078-21.9,5.475a30.2,30.2,0,0,0-8.212,8.212c-2.4,3.617-2.482,5.592-5.475,10.949-2.7,4.826-4.044,7.239-5.475,8.212-6.848,4.659-15.2-4.143-27.374,0a39.705,39.705,0,0,0-5.474,2.738c-12.182,6.668-21.6,11.823-27.374,21.9-4.5,7.848-5.194,15.9-5.475,19.161a96.03,96.03,0,0,0,0,16.424c.377,3.587.733,4.527,0,5.475-3.282,4.249-16.211-7.09-27.374-2.737-8.354,3.258-6.067,11.541-16.424,16.424-7.862,3.707-13.242.85-16.424,5.475-2,2.9-.53,4.975-2.737,13.687-1.2,4.745-1.8,7.118-2.738,8.212-5.513,6.46-18.917-2.78-41.061,0-8.959,1.125-13.516,3.485-16.424,5.475-1.9,1.3-8.324,5.7-10.95,13.687-1.48,4.5-.987,9.39,0,19.161.856,8.474,1.929,11.025,0,13.687-2.6,3.586-6.438,1.57-10.95,5.475-5.548,4.8-5.492,12.835-5.474,13.687.08,3.758,1.88,7.119,5.474,13.687,5.786,10.569,8.539,12.254,8.213,16.424-.453,5.8-6.335,9.7-8.213,10.95-12.744,8.462-30.209,1.11-32.848,0-6.08-2.559-4.487-3.407-13.687-8.212-10.205-5.331-18.092-9.451-27.374-8.213-3.246.434-9.554,1.908-16.424,8.213a14.094,14.094,0,0,0-2.737-8.213c-3.586-4.7-9.3-5.3-10.95-5.474-11.217-1.181-20.394,8.987-24.636,13.687-6.311,6.991-8.89,13.758-10.949,19.161-2.658,6.972-5.965,15.647-2.738,21.9.423.82,1.461,2.572,2.738,5.475,1.959,4.457,2.939,6.685,2.737,8.212-.756,5.7-15.252,12.022-27.374,8.213-8.2-2.578-7.279-7.268-16.425-10.95-9.545-3.843-18.465-1.92-27.374,0-11.723,2.527-15.2,6.575-16.423,8.212a17.787,17.787,0,0,0-2.738,5.475c-13.04,1.406-23.229,2.237-30.111,2.737-8.876.645-14.918.933-19.162,5.475-3.863,4.135-1.893,7.148-5.475,10.949-7.129,7.567-22.689,3.855-27.373,2.738-9.281-2.214-10.807-5-19.162-8.212-15.912-6.125-30.766-3.88-38.323-2.738-23.69,3.581-21.858,13.794-38.324,13.687-13.636-.088-17.682-7.111-43.8-10.949-5.933-.872-10.739-1.247-16.424,0-2.762.605-5.646,1.575-19.162,8.212-8.315,4.083-8.541,4.362-10.949,5.475-2.729,1.259-30.09,13.468-52.011,2.737-3.4-1.663-3.337-2.249-5.474-2.737-9.6-2.194-15.837,8.468-32.849,16.424a64.2,64.2,0,0,1-16.424,5.475c-13.529,2.45-24.62-.475-32.849-2.738-15.022-4.131-13.638-7.082-27.373-10.949-9.393-2.645-21.723-6.116-35.587-2.738-13.567,3.307-13.735,9.549-27.373,10.95-2.532.26-2.6.053-21.9,0-8.316-.023-12.473-.034-13.687,0-11.592.325-36.936,2.97-38.324,10.949-.467,2.69,2.426,5.443,8.212,10.95,2.637,2.509,10.078,9.59,19.162,13.687,11.628,5.244,18.57,2.27,54.748,0,23-1.444,28.584-.768,32.849,0,12.948,2.33,15.717,5.855,30.111,10.949,6.948,2.46,29.856,10.344,54.747,8.212,16.145-1.382,16.773-5.578,38.323-10.949,14.08-3.509,30.565-4.212,62.96-5.475,37.677-1.469,56.515-2.2,71.172,0,7.7,1.157,16.114,2.982,28.9,6.024.538,1.523,2.41,3.318,5.5,6.26,1.811,1.724,6.925,6.591,13.169,9.407,7.992,3.6,12.763,1.56,37.628,0,15.809-.992,19.645-.528,22.576,0,8.9,1.6,10.8,4.024,20.7,7.525,4.776,1.69,20.52,7.109,37.627,5.644,11.1-.95,11.528-3.834,26.339-7.525,1.422-.355,2.881-.666,4.4-.945,6.108,4.548,9.66,8.6,19.414,11.934,23.248,7.956,45.767-.416,52.011-2.738a87.065,87.065,0,0,0,20.907-11.242c3.32.622,7.049,1.435,11.642,2.5,4.25,5.332,10.581,11.214,19.461,14.213,12.441,4.2,23.822.693,38.749-4.646a104.375,104.375,0,0,0,12.142-1.555c8.412-1.747,10.6-3.473,16.932-3.763,1.9-.086,8.176-.228,18.814,3.763,15.848,5.945,15.052,11.188,26.339,15.051,15.978,5.468,31.455-.286,35.746-1.881a60.072,60.072,0,0,0,17.656-10.3c.59.029,1.186.05,1.782.069,2.509,4.159,7.652,11.066,16.308,13.989,8.988,3.036,17.166.219,28.221-3.762,16.183-5.829,15.909-9.879,30.1-15.051a98.768,98.768,0,0,1,33.139-5.631c1.122.01,2.223.019,3.283.026l3.195.02c9.815.351,17.8,1.978,26.23,3.7,14.71,3.01,15.047,4.731,28.221,7.526a185.109,185.109,0,0,0,39.509,3.763c19.377.124,29.066.186,37.627-3.763,1.773-.818,3.344-1.671,4.906-2.463,11.251,2.691,18.9,4.083,29.713,4.082q2.2,0,4.3-.059c20.872,9.28,52.158,2.623,75.856-3.387.649.23,1.294.456,1.967.709,23.058,8.65,21.9,16.278,38.323,21.9,23.247,7.956,45.766-.416,52.01-2.738a87.646,87.646,0,0,0,27.374-16.424c3.235,5.721,10.9,17.261,24.636,21.9,13.078,4.417,24.976.318,41.061-5.475,23.546-8.48,23.148-14.372,43.8-21.9,20.845-7.6,38.947-8.042,49.273-8.212,18.313-.3,31.954,2.491,46.535,5.475,21.4,4.38,21.894,6.883,41.061,10.949,24.324,5.16,43.6,5.386,57.485,5.475,28.194.181,42.292.271,54.748-5.475,7.482-3.451,12.487-7.347,21.9-8.212,14.431-1.326,25.637,5.724,30.111,8.212,33.371,18.561,89.051,4.1,125.919-5.474,19.329-5.02,17.4-6.5,60.223-19.162,25.868-7.651,39.067-11.521,52.01-13.687,8.233-1.378,28.848-4.349,76.647,0,57.951,5.273,54.591,12.092,95.808,13.687,15.942.617,38-.5,82.122-2.737,32.467-1.646,30.193-2.128,49.272-2.738,43.187-1.38,64.781-2.069,82.122,0a220.038,220.038,0,0,0,49.273,0c12.629-1.416,20.56-3.464,21.9-8.212C2616.087,697.682,2607.78,690.826,2606.294,689.6Z" fill="#c0cfe6"/>
    <path d="M2580.785,735.162c-10.588-8.739-17.834-3.47-30.111-10.95-10.354-6.308-8.562-12.1-19.162-16.424-6.867-2.8-13.5-2.766-19.162-2.737a71.14,71.14,0,0,0-19.161,2.737c-1.8-18.817-9.686-28.686-13.687-32.849-6.389-6.645-18.859-10.817-43.8-19.161-17.018-5.694-20.931-5.872-24.637-5.475-9.756,1.045-12.587,5.486-27.374,8.212-8.966,1.654-13.978,2.507-19.161,0-7.5-3.629-6.174-9.854-13.687-16.424-5.886-5.148-13.049-6.169-27.374-8.212-9.692-1.382-18.859-2.69-30.111,0-9.155,2.188-8.875,4.437-16.424,5.475-13.59,1.867-24.752-4.011-27.374-5.475-8.513-4.753-8.074-8.233-19.162-16.425-4.59-3.391-10.7-7.906-19.162-10.949-17.564-6.318-34.191-2.314-43.8,0a101.4,101.4,0,0,0-16.424,5.475c-1.59-.584-16.788-6.406-19.161-19.162-1.28-6.877,1.564-13.638,2.737-16.424,2.229-5.3,3.9-5.662,8.212-13.687,3.44-6.4,5.16-9.608,5.475-13.687.671-8.713-4.692-15.466-5.475-16.424-1.344-1.645-4.448-4.975-24.636-10.95-12.687-3.754-19.031-5.632-24.637-5.475-7.73.217-20.592,2.5-21.9,2.738-7.1,1.275-10.824,2.318-13.687,0-2.892-2.341-3.823-7.234-2.737-10.95,1.381-4.726,5.334-5.187,5.474-8.212.126-2.71-2.918-5.122-13.686-10.949-15.974-8.644-19.661-8.957-21.9-13.687-2.5-5.293.749-7.789-2.737-13.687-.823-1.393-4.367-6.944-10.949-8.212a14.73,14.73,0,0,0-5.475,0c6.124-24.067,2.117-33.851-2.738-38.324-3.549-3.27-5.656-1.954-21.9-8.212-14.1-5.431-14.982-7.375-21.9-8.212a48.478,48.478,0,0,0-21.9,2.737c-10.366,4.013-13.3,9.75-19.162,8.212-3.961-1.039-7.035-4.815-8.212-8.212-1.668-4.82,1.132-7,0-10.949-.381-1.331-1.893-5.243-19.161-10.95-11.133-3.679-16.7-5.519-24.637-5.474-5.7.031-14.107.078-21.9,5.474a30.244,30.244,0,0,0-8.212,8.212c-2.4,3.618-2.482,5.593-5.475,10.95-2.7,4.826-4.044,7.239-5.474,8.212-6.848,4.659-15.2-4.143-27.374,0a39.656,39.656,0,0,0-5.475,2.737c-12.182,6.669-21.6,11.824-27.374,21.9-4.5,7.848-5.193,15.9-5.475,19.161a96.03,96.03,0,0,0,0,16.424c.378,3.587.733,4.527,0,5.475-3.281,4.249-16.211-7.091-27.373-2.737-8.354,3.258-6.068,11.541-16.425,16.424-7.861,3.707-13.241.85-16.424,5.475-2,2.9-.53,4.974-2.737,13.687-1.2,4.745-1.8,7.118-2.738,8.212-5.513,6.459-18.917-2.78-41.06,0-8.959,1.125-13.517,3.485-16.425,5.475-1.895,1.3-8.324,5.7-10.949,13.687-1.48,4.5-.987,9.39,0,19.161.855,8.474,1.929,11.025,0,13.687-2.6,3.586-6.438,1.57-10.95,5.475-5.549,4.8-5.493,12.835-5.475,13.687.081,3.758,1.88,7.118,5.475,13.687,5.785,10.569,8.538,12.254,8.212,16.424-.453,5.8-6.334,9.7-8.212,10.95-12.744,8.461-30.21,1.11-32.848,0-6.081-2.56-4.488-3.407-13.687-8.213-10.2-5.33-18.093-9.45-27.374-8.212-3.074.41-8.894,1.761-15.334,7.254q-.585-.215-1.184-.418a13.653,13.653,0,0,0-2.644-6.836c-3.586-4.7-9.3-5.3-10.949-5.474-7.822-.824-14.648,3.87-19.505,8.381a36.057,36.057,0,0,1-3.725-.836c-13.7-3.824-12.457-10.98-27.373-16.424-4.32-1.577-22.414-8.182-32.849,0-5.272,4.133-3.395,7.969-13.687,27.373-5.155,9.72-7.511,12.311-10.95,13.687-6.653,2.663-16.247.333-19.161-5.474-2.776-5.532,1.4-12.432,5.475-19.162,6.454-10.664,11.68-11.523,16.424-21.9,2.5-5.472,4.479-9.8,2.737-13.687-3.695-8.257-19.683-4.6-21.9-10.95-1.613-4.622,6.044-8.891,16.424-24.636,6.328-9.6,9.466-14.491,8.213-19.162-2.564-9.551-20.305-16.042-30.112-10.949-4.294,2.23-5.163,5.693-8.211,5.474-5.289-.378-8.6-11.22-10.95-19.161-2.383-8.055-3.879-16.083-5.475-30.111-2.259-19.854-1.524-23.64-5.475-27.374-6.05-5.72-17.073-5.631-24.636-2.738-11.179,4.278-11.751,13.519-19.162,13.687-9.317.212-12.476-14.3-21.9-13.687-6.914.453-8.844,8.507-16.424,8.213-5.41-.21-6.047-4.375-10.95-5.475-12.95-2.906-25.99,22.233-32.848,19.161-3.826-1.713.161-9.568-5.475-16.424-5.975-7.267-14.287-3.1-21.9-10.949-5.662-5.838-3.206-10.353-8.212-13.687-7.452-4.964-23.521-2.034-27.374,8.212-2.677,7.118,1.579,15.011,5.475,19.162a22.224,22.224,0,0,0,8.212,5.474,45.848,45.848,0,0,0-8.212,10.95,46.726,46.726,0,0,0-5.475,21.9c-4.59-.239-20.841-.519-35.586,10.949a52.8,52.8,0,0,0-16.424,21.9c-2.784-.153-14.706-.5-24.637,8.213-2.581,2.265-13.151,11.539-10.949,24.636,2.224,13.232,15.54,18.808,16.424,19.162a22.613,22.613,0,0,0,5.475,8.212c9.316,8.8,23.029,5.846,24.636,5.475a87,87,0,0,0-21.9,38.323,212.122,212.122,0,0,0-24.636-32.849c-7.608-8.289-11.849-11.509-16.425-10.949-5.921.724-6.24,7.023-16.424,13.687-7.192,4.706-9.185,2.973-16.424,8.212-4.769,3.452-11.2,8.1-10.95,13.687.285,6.4,9.122,8.82,8.212,13.687-.727,3.893-6.584,3.417-8.212,8.212-1.446,4.259,2.541,6.5,2.738,13.687a21.88,21.88,0,0,1-2.738,10.949c-3.638,6.143-8.59,5.382-16.424,10.95-3.1,2.2-13.664,9.711-13.687,19.161-.01,4.091,2.731,8.2,8.212,16.425a123.269,123.269,0,0,0,8.212,10.949,19.4,19.4,0,0,0-2.737,10.95,16.021,16.021,0,0,0,2.234,7.011,86.836,86.836,0,0,1-20.065-3.607c-15.022-4.131-13.639-7.082-27.374-10.949-9.393-2.645-21.722-6.116-35.586-2.738-13.568,3.306-13.735,9.549-27.374,10.95-2.532.26-2.6.052-21.9,0-8.315-.023-12.473-.034-13.687,0-11.591.325-36.935,2.97-38.323,10.949-.468,2.689,2.425,5.443,8.212,10.95,2.636,2.509,10.077,9.59,19.161,13.687,11.628,5.243,18.57,2.27,54.748,0,23-1.444,28.584-.768,32.849,0,12.949,2.33,15.717,5.855,30.111,10.949,6.949,2.46,29.856,10.344,54.747,8.212,16.145-1.382,16.773-5.578,38.324-10.949,14.08-3.509,30.565-4.212,62.96-5.475,37.676-1.469,56.515-2.2,71.172,0,11.178,1.68,23.877,4.77,49.272,10.95,22.151,5.39,31.126,8.213,46.536,8.212a164.384,164.384,0,0,0,30.111-2.738c12.239-2.542,15.425-5.053,24.637-5.474,2.759-.127,11.9-.332,27.373,5.474,23.059,8.65,21.9,16.279,38.324,21.9,23.248,7.956,45.767-.416,52.01-2.737a87.634,87.634,0,0,0,27.374-16.424c3.236,5.72,10.9,17.261,24.636,21.9,13.078,4.417,24.976.318,41.061-5.475,23.546-8.48,23.148-14.373,43.8-21.9,20.846-7.6,38.947-8.043,49.273-8.212,18.313-.3,31.954,2.491,46.535,5.475,21.4,4.379,21.894,6.883,41.062,10.949,24.323,5.16,43.6,5.386,57.484,5.475,28.195.181,42.292.271,54.748-5.475,7.481-3.451,12.487-7.347,21.9-8.212,14.431-1.326,25.637,5.723,30.111,8.212,33.371,18.561,89.051,4.1,125.92-5.475,19.328-5.019,17.4-6.5,60.222-19.161,25.868-7.651,39.067-11.521,52.011-13.687,8.232-1.378,28.848-4.349,76.646,0,57.951,5.273,54.591,12.092,95.808,13.687,15.942.617,38-.5,82.122-2.738,32.467-1.645,30.194-2.128,49.273-2.737,43.187-1.38,64.78-2.07,82.121,0a220.038,220.038,0,0,0,49.273,0c12.63-1.416,20.559-3.464,21.9-8.212C2590.578,743.245,2582.272,736.389,2580.785,735.162Z" fill="#8ab1d2"/>
    <path d="M2275.483,764.118c-5.981-3.777-8.453-2.862-10.637-6.058-3.1-4.536.545-8.337-1.995-13.814-2.558-5.516-9.005-7.586-13.224-8.939-9.736-3.126-12.164.615-21.867-1.183-3.841-.711-4.577-1.5-24.009-12.263-15.681-8.683-16.783-9.042-18.69-9.235-7.56-.766-9.776,2.9-27.925,9.456-16.878,6.1-20.558,4.951-22.163,4.284-4.7-1.95-4.48-5.13-12.78-17.139-4.811-6.96-5.168-6.3-15.366-20.021-9.405-12.649-10.1-14.547-10.047-16.991.12-5.8,4.33-10.324,11.968-18.543,8.029-8.638,10.944-8.918,11.672-13.075,1.51-8.617-9.3-17.219-12.632-19.873-5.384-4.286-11.025-6.849-18.69-9.235-26.11-8.126-38.629-2.648-43.291-10.565-3.3-5.607-.819-14.8,3.768-18.986,3.194-2.91,5.418-1.577,11.229-4.875,2.715-1.541,10.643-6.041,11.673-13.076,1.156-7.9-7.038-14.55-10.047-16.991-.768-.624-11.609-9.161-24.3-6.8-5.036.937-5.2,2.628-8.348,2.29-8.892-.956-8.972-14.576-18.247-17.435-5.08-1.566-10.824,1.3-22.311,7.018-10.086,5.024-12.282,8.18-16.843,7.313-6.5-1.236-6.125-8.431-13.076-11.672-9.462-4.412-25.267,1.875-30.806,12.041-2.465,4.522-2.949,10.254-3.916,21.719-.288,3.409-.4,6.247-.444,8.2-.954-1.969-7.38-14.7-20.98-17.583-9.3-1.968-16.921,1.737-22.163,4.284-3.564,1.733-12.023,5.987-17.286,15.514a33.894,33.894,0,0,0-3.177,8.052c-7.425-8.4-17.9-12.348-26.891-9.678-8.014,2.38-12.156,9.215-14.406,12.928-1.25,2.063-8.768,14.471-4.063,24.453,2.705,5.739,7.5,6.53,7.609,11.377.1,4.309-3.654,5.02-6.058,10.638-4.236,9.9,3.047,17.923-1.182,21.867-1.943,1.811-3.605.237-13.815,1.994-4.623.8-6.935,1.194-8.348,2.291-5.906,4.583-2.218,18.3-1.183,21.867-.887-1.9-5.288-10.81-15.661-14.554-.75-.271-12.013-4.146-22.015,1.551-8.725,4.97-9.716,13.367-14.406,12.928-3.776-.354-3.694-5.853-10.342-11.525-1.84-1.57-8.975-7.657-16.105-6.353-3.163.579-4.776,2.329-17.435,18.247-7.514,9.449-7.63,9.691-8.791,10.49-8.314,5.72-14.118,1.349-25.044,6.87-3.754,1.9-9.128,4.613-11.524,10.343-4.112,9.831,3.612,21.2,4.284,22.162,5.106,7.305,10.412,7.623,10.342,11.525-.1,5.772-11.85,12.7-19.724,9.9-5.642-2-5.857-7.774-10.491-8.791-3.532-.776-8.878,1.378-17.139,12.78-9.733-3.122-24.651-6.1-41-2.217-10.259,2.438-19.521,4.64-28.073,12.189-4.149,3.663-6.629,7.26-11.377,7.609-5.521.407-6.659-4.126-15.957-9.087-10.924-5.828-22.6-6.637-27.038-6.944-5.723-.4-5.565.293-8.2-.444-2.219-.62-5.768-2.075-11.969-9.308.588-2.321,1.034-4.925-.274-7.074-1.948-3.2-6.361-3.048-8.594-4.841-.485-.744-.886-1.384-1.22-1.938-.248-1.155.418-1.541.064-2.97-.619-2.5-3.3-3.738-6.761-5.209a32.9,32.9,0,0,0-9.462-4.994c-1.6-1.24-2.233-2.037-4.9-2.8-7.973-2.269-10.729,2.452-17.874,0a18.744,18.744,0,0,1-4.624-2.39,35.243,35.243,0,0,0-2.55-15.031c.221-.618.448-1.3.675-2.078a33.283,33.283,0,0,0,1.625-9.75c-.055-2.3-.637-8.078-6.5-14.624,8.337-6.444,8.27-11.506,8.125-13-.3-3.1-2.44-6.209-4.875-9.75-3.1-4.5-5.04-5.611-4.875-8.124.208-3.166,3.451-3.833,3.25-6.5-.129-1.725-1.553-2.329-6.5-6.5-3.948-3.329-5.934-5.024-6.5-6.5-1.465-3.828,1.347-5.751,0-9.75-1.092-3.243-3.947-4.963-6.5-6.5a23.858,23.858,0,0,0-13-3.25c-.091-2.893-.755-8.533-4.875-13-5.36-5.812-13.517-6.327-16.249-6.5-5.064-.32-6.187.985-11.374,0-3.32-.63-7.392-1.4-9.75-4.875a12.082,12.082,0,0,1-1.625-8.124,14.833,14.833,0,0,1,1.625-4.875c1.728-3.347,3.073-3.188,3.25-4.875.211-2-1.633-2.633-4.875-8.124a11.537,11.537,0,0,1-1.624-3.25c-.471-3.534,3.333-5.072,4.874-9.75,1.018-3.09.471-5.8,0-8.124a19.3,19.3,0,0,0-6.5-11.374c-6.311-5.054-14.156-3.63-16.249-3.25-10,1.815-15.252,9.792-16.25,11.374-1.119-5.441-5.188-9.368-9.749-9.749a9.861,9.861,0,0,0-8.124,3.25c-2.97,3.5-.639,6.789-3.25,9.749-2.793,3.166-8.854,3.255-13,1.625-5.365-2.111-4.722-6-9.749-8.125-5.2-2.2-11.972-.6-16.249,3.25-1.153,1.038-4.9,4.414-4.875,9.75a12.585,12.585,0,0,0,3.25,8.124c-2.217,1.348-11.113,7.013-14.624,16.249a21.51,21.51,0,0,0-1.625,9.75,20.4,20.4,0,0,0,1.625,6.5c-9.289-.282-14.659,2.341-17.874,4.875-5.585,4.4-5.5,9.19-11.374,11.374-4.858,1.808-7.032-.682-13,1.625-2.3.889-6.755,2.612-8.124,6.5-1.645,4.671,1.832,10.587,3.25,13,1.868,3.179,3.331,4.152,3.249,6.5-.091,2.6-1.932,2.879-3.249,6.5a14.534,14.534,0,0,0,0,9.75,13.392,13.392,0,0,0,3.249,4.875c-4.939,1.387-19.138,5.56-29.248,11.374-2.6,1.493-5.29,3.306-6.5,6.5-1.392,3.678-.387,8.059,0,9.749.812,3.538,1.814,4.109,1.625,6.5a11.051,11.051,0,0,1-3.249,6.5c-2.42,2.612-3.875,2.23-8.125,4.875-3.873,2.411-7.136,4.441-8.125,8.125a9.553,9.553,0,0,0,1.625,8.124,8.441,8.441,0,0,0,4.875,3.25c2.551.485,4.19-.789,4.875,0,.726.838-.336,3.183-1.625,4.875-3.255,4.272-6.994,3.122-9.75,6.5-3,3.674-1.805,9-1.624,9.75,0,.015.009.028.012.043-9.4-2.395-14.681-3.455-18.428-2.506-9.166,2.321-7.663,8.5-22.9,17.951-6.779,4.2-9.66,4.583-16.992,10.047-6.957,5.185-11.673,8.7-11.672,13.076,0,7.813,15.048,13.514,18.395,14.7,11.8,4.186,19.118,2.263,49.349-.073,17.69-1.367,26.663-2.028,32.948-.96,3.373.573,8.655,1.7,34.943,12.855,24.71,10.485,22.9,10.7,29.476,12.559a97.855,97.855,0,0,0,43.734,2.365c16.636-3.205,15.589-8.295,30.806-12.042,12.553-3.09,23.146-2.059,59.987,5.985,33.846,7.39,30.9,7.828,46.025,10.713,30.815,5.875,58.133,11.084,90.2,4.877,13.907-2.693,20.355-5.915,35.978-6.279,12.376-.289,22.037,1.453,40.853,4.95,33.669,6.256,33.368,9.632,43.438,7.831,11.09-1.983,12.056-6.184,39.3-17.065,10.243-4.09,15.365-6.136,19.577-7.165,13.282-3.247,24.264-1.871,70.772,9.309,23.726,5.7,28.124,7.09,37.972,7.536,16.859.764,29.178-2.156,35.83-3.546,17.021-3.556,49.763-3.035,115.246-1.993,40.276.641,46.389,1.738,60.429-2.215,13.932-3.924,22.284-9.051,41.741-11.451a205.79,205.79,0,0,1,32.948-.959c23.022.795,25.247,3.811,38.267,2.069,15.5-2.075,13.353-6.483,30.659-9.308,17-2.776,35.2-1.152,41.148-.517,8.587.917,12.134,1.958,19.134,1.035,10.879-1.436,11.823-5.207,22.31-7.018,5.3-.916,12.647-.118,27.334,1.478,13.017,1.414,15.8,2.35,21.868,1.182,5.931-1.142,16.568-4.6,16.991-10.047C2286.2,770.883,2278.647,766.116,2275.483,764.118Z" fill="#5081a9"/>
  </g>
</svg>
