<svg xmlns="http://www.w3.org/2000/svg" xmlns:xlink="http://www.w3.org/1999/xlink" width="1172.504" height="394.483" viewBox="0 0 1172.504 394.483">
  <defs>
    <linearGradient id="a" y1="197.241" x2="1172.504" y2="197.241" gradientUnits="userSpaceOnUse">
      <stop offset="0" stop-color="#f7ffff"/>
      <stop offset="1" stop-color="#c6f3f7"/>
    </linearGradient>
  </defs>
  <title>Cloud_5</title>
  <path d="M67.3,348.538C-70.473,250.345,30.375,10.9,128.854,3.861S207.989,114.65,207.989,114.65s31.654-10.551,65.067,5.276,36.929,43.964,36.929,43.964S292.4,42.549,369.776,24.964s73.86,42.205,73.86,42.205,80.893-72.1,142.443-21.1S654.663-6.69,797.106.344s70.342,94.962,70.342,94.962,21.982-4.836,53.636.44,38.249,21.1,38.249,21.1S927.679,4.74,1027.916,4.74s36.93,127.935,36.93,127.935,151.676-43.524,94.962,110.79-183.329,73.859-200.475-19.784c0,0-15.827,36.929-170.141,36.929s-205.751-61.989-205.751-61.989,30.335,67.265-43.524,87.049-114.746-23.741-114.746-23.741S264.7,489.223,67.3,348.538Z" fill="url(#a)"/>
</svg>
