<svg xmlns="http://www.w3.org/2000/svg" width="3208.661" height="841.606" viewBox="0 0 3208.661 841.606">
  <title>Cloud_4</title>
  <g>
    <path d="M3200.25,582.718c-10.589-8.739-17.835-3.47-30.112-10.95-10.353-6.308-8.561-12.1-19.161-16.424-6.867-2.8-13.5-2.766-19.162-2.738a71.189,71.189,0,0,0-19.162,2.738c-1.8-18.817-9.686-28.687-13.687-32.849-6.389-6.645-18.858-10.817-43.8-19.161-17.017-5.694-20.931-5.872-24.636-5.475-9.756,1.045-12.588,5.486-27.374,8.212-8.967,1.654-13.979,2.507-19.162,0-7.5-3.629-6.174-9.854-13.687-16.424-5.886-5.148-13.049-6.17-27.374-8.213-9.692-1.381-18.859-2.689-30.111,0-9.154,2.189-8.875,4.437-16.424,5.475-13.589,1.868-24.751-4.011-27.373-5.475-8.513-4.752-8.075-8.233-19.162-16.424-4.591-3.391-10.7-7.906-19.162-10.949-17.564-6.319-34.191-2.314-43.8,0a101.5,101.5,0,0,0-16.425,5.474c-1.59-.584-16.787-6.406-19.161-19.161-1.28-6.878,1.565-13.638,2.738-16.425,2.229-5.3,3.9-5.661,8.211-13.687,3.441-6.4,5.161-9.607,5.475-13.687.671-8.712-4.692-15.465-5.475-16.424-1.344-1.644-4.448-4.974-24.636-10.949-12.687-3.754-19.03-5.632-24.636-5.475-7.73.217-20.593,2.5-21.9,2.737-7.1,1.276-10.824,2.319-13.687,0-2.892-2.341-3.823-7.233-2.738-10.949,1.381-4.727,5.335-5.187,5.475-8.212.126-2.71-2.918-5.122-13.687-10.95-15.973-8.643-19.662-8.957-21.9-13.687-2.505-5.293.748-7.788-2.738-13.686-.823-1.394-4.367-6.945-10.949-8.213a14.747,14.747,0,0,0-5.474,0c6.124-24.066,2.116-33.85-2.738-38.323-3.55-3.27-5.656-1.954-21.9-8.212-14.1-5.431-14.982-7.376-21.9-8.212a48.459,48.459,0,0,0-21.9,2.737c-10.366,4.012-13.3,9.75-19.162,8.212-3.961-1.039-7.036-4.815-8.212-8.212-1.669-4.82,1.132-7,0-10.95-.381-1.331-1.893-5.242-19.162-10.949-11.133-3.679-16.7-5.519-24.636-5.475-5.7.032-14.108.079-21.9,5.475a30.214,30.214,0,0,0-8.212,8.212c-2.395,3.618-2.483,5.593-5.475,10.95-2.7,4.825-4.044,7.239-5.474,8.212-6.849,4.658-15.2-4.143-27.374,0a39.656,39.656,0,0,0-5.475,2.737c-9.25,5.064-16.9,9.259-22.577,15.393a24.105,24.105,0,0,0-3.734-4.1c-5.886-5.148-13.049-6.169-27.374-8.212-9.692-1.382-18.859-2.689-30.111,0-9.155,2.188-8.875,4.437-16.424,5.475-13.589,1.867-24.752-4.011-27.374-5.475-8.513-4.752-8.074-8.233-19.161-16.424-4.591-3.392-10.7-7.907-19.162-10.95-17.564-6.318-34.191-2.313-43.8,0a101.483,101.483,0,0,0-16.425,5.475c-1.59-.584-16.788-6.406-19.161-19.162-1.28-6.877,1.565-13.638,2.737-16.424,2.23-5.3,3.9-5.661,8.212-13.687,3.441-6.405,5.161-9.608,5.475-13.687.671-8.712-4.691-15.466-5.475-16.424-1.344-1.645-4.448-4.975-24.636-10.949-12.687-3.755-19.03-5.632-24.637-5.475-7.73.216-20.592,2.5-21.9,2.737-7.1,1.275-10.823,2.318-13.687,0-2.891-2.341-3.823-7.234-2.737-10.949,1.381-4.727,5.334-5.187,5.475-8.213.125-2.71-2.918-5.122-13.687-10.949-15.973-8.644-19.661-8.957-21.9-13.687-2.5-5.293.748-7.789-2.737-13.687-.824-1.393-4.368-6.944-10.95-8.212a14.731,14.731,0,0,0-5.475,0c6.124-24.066,2.117-33.851-2.737-38.324-3.55-3.27-5.656-1.953-21.9-8.212-14.1-5.431-14.982-7.375-21.9-8.212a48.475,48.475,0,0,0-21.9,2.737c-10.366,4.013-13.3,9.751-19.162,8.213-3.961-1.039-7.036-4.816-8.212-8.213-1.669-4.819,1.131-7,0-10.949-.382-1.331-1.893-5.242-19.162-10.95C1914.56,1.8,1908.994-.043,1901.057,0c-5.7.032-14.108.078-21.9,5.474a30.236,30.236,0,0,0-8.213,8.213c-2.395,3.617-2.481,5.593-5.474,10.949-2.7,4.826-4.044,7.239-5.475,8.212-6.848,4.659-15.2-4.143-27.374,0a39.756,39.756,0,0,0-5.475,2.738c-12.182,6.668-21.6,11.823-27.373,21.9-4.5,7.848-5.194,15.9-5.475,19.161a96.044,96.044,0,0,0,0,16.425c.377,3.586.733,4.526,0,5.475-3.282,4.248-16.211-7.092-27.374-2.738-8.354,3.258-6.067,11.541-16.424,16.425-7.862,3.706-13.242.849-16.425,5.474-2,2.9-.529,4.974-2.737,13.687-1.2,4.746-1.8,7.118-2.737,8.212-5.513,6.46-18.917-2.78-41.061,0-8.959,1.125-13.516,3.485-16.424,5.475-1.9,1.3-8.324,5.7-10.95,13.687-1.021,3.108-1.1,6.4-.731,11.349-5.814-1.563-7.507-2.078-9.9-1.049-5.99,2.578-9.309,11.746-8.212,19.161a22.448,22.448,0,0,0,5.645,11.383,20.315,20.315,0,0,0-3.228,11.166c.08,3.758,1.879,7.119,5.474,13.687,1.3,2.379,2.443,4.291,3.437,5.9-7.785,1.059-11.561-1.315-19.54,1.664-1.748.652-11.777,4.4-16.424,13.686a14.278,14.278,0,0,0-1.491,5.61c-4.737-2.182-3.963-3.23-12.517-7.7-10.2-5.331-18.092-9.45-27.374-8.213-3.246.433-9.555,1.908-16.424,8.213a14.094,14.094,0,0,0-2.737-8.213c-3.587-4.7-9.3-5.3-10.95-5.474-11.217-1.18-20.394,8.987-24.636,13.687-6.311,6.991-8.89,13.758-10.95,19.161-2.637,6.919-5.906,15.513-2.8,21.754a28.578,28.578,0,0,0-5.647,3.122c-5.448-5.145-14.067-6.154-15.867-6.364a31.192,31.192,0,0,0-16.424,2.738,32.071,32.071,0,0,0-12.531,9.383c-5.131.054-10.149,1.135-15.163,2.216-6.048,1.3-9.891,3.011-12.373,4.584-3.047-1.082-7.583-2.673-14.681-5.234-2.694-.972-4.07-1.484-5.474-2.737-4.462-3.982-2.858-9.126-5.475-16.425-.965-2.69-3.961-11.049-10.949-13.686-6.657-2.513-14.818.965-19.162,5.475-4.389,4.555-6.856,12.211-8.213,16.424-.833,2.587-1.15,4.173-2.737,5.474-2.869,2.353-6.76,1.212-13.687,0-14.378-2.514-14.147-.486-19.161-2.737-8.2-3.68-6.4-8.014-13.687-10.95-9.892-3.982-20.74.962-24.637,2.738-3.341,1.523-5.883,2.716-8.212,5.475-4.386,5.195-6.008,13.559-2.737,19.161,1.257,2.154,3.036,3.555,5.474,5.475,4.975,3.917,8.3,4.333,8.213,5.475-.2,2.7-18.663-.672-24.637,8.212a11.121,11.121,0,0,0-.983,1.882c-9.657,4.334-11.908,9.795-23.974,9.717-10.266-.066-15.1-4.063-28-7.672-3.411-1.839-4.955-3.1-6.109-5.544-2.5-5.293.748-7.788-2.738-13.686-.823-1.394-4.367-6.944-10.949-8.213a14.753,14.753,0,0,0-5.475,0c6.124-24.065,2.117-33.85-2.737-38.323-3.55-3.27-5.657-1.954-21.9-8.212-14.1-5.431-14.981-7.375-21.9-8.212a48.483,48.483,0,0,0-21.9,2.737c-10.365,4.012-13.3,9.75-19.161,8.212-3.962-1.039-7.036-4.815-8.212-8.212-1.669-4.82,1.131-7,0-10.949-.382-1.331-1.893-5.243-19.162-10.95-11.133-3.679-16.7-5.519-24.636-5.475-5.7.032-14.108.079-21.9,5.475a30.228,30.228,0,0,0-8.213,8.212c-2.395,3.618-2.482,5.593-5.474,10.95-2.7,4.826-4.044,7.239-5.475,8.212-6.848,4.659-15.2-4.143-27.374,0a39.834,39.834,0,0,0-5.475,2.737c-12.182,6.669-21.6,11.824-27.373,21.9-4.5,7.848-5.194,15.9-5.475,19.161a95.908,95.908,0,0,0,0,16.424c.377,3.587.732,4.527,0,5.475-3.282,4.249-16.211-7.091-27.374-2.737-8.354,3.258-6.068,11.541-16.424,16.424-7.862,3.707-13.242.85-16.425,5.475-2,2.9-.529,4.974-2.737,13.687-.255,1.007-.479,1.886-.689,2.69-8.707.718-19.642,2.359-25.912,5.476a72.492,72.492,0,0,0-17.2.046c-8.959,1.125-13.517,3.485-16.424,5.475-1.9,1.3-8.324,5.7-10.95,13.687-1.48,4.5-.987,9.39,0,19.161.856,8.474,1.929,11.025,0,13.687-2.6,3.586-6.438,1.57-10.95,5.475-5.549,4.8-5.493,12.835-5.474,13.687.08,3.758,1.879,7.118,5.474,13.687,5.785,10.569,8.538,12.254,8.213,16.424-.454,5.8-6.335,9.7-8.213,10.95-12.744,8.461-30.209,1.11-32.848,0-6.081-2.56-4.488-3.407-13.687-8.213-10.2-5.33-18.093-9.45-27.374-8.212-3.246.433-9.555,1.908-16.424,8.212a14.1,14.1,0,0,0-2.738-8.212c-3.586-4.7-9.3-5.3-10.949-5.474-11.217-1.181-20.394,8.986-24.637,13.686-6.31,6.992-8.889,13.758-10.949,19.162-2.657,6.971-5.964,15.647-2.737,21.9.422.82,1.46,2.571,2.737,5.475,1.96,4.457,2.94,6.685,2.737,8.212-.756,5.7-15.251,12.022-27.374,8.212-8.2-2.578-7.278-7.267-16.424-10.949-9.545-3.843-18.466-1.921-27.374,0-11.723,2.527-15.2,6.575-16.424,8.212a17.766,17.766,0,0,0-2.737,5.474c-13.041,1.407-23.229,2.238-30.111,2.738-8.877.645-14.919.933-19.162,5.475-3.863,4.135-1.893,7.148-5.475,10.95-7.129,7.565-22.689,3.854-27.374,2.737-9.281-2.214-10.806-5-19.161-8.213-15.913-6.125-30.767-3.879-38.324-2.737-23.689,3.581-21.858,13.794-38.323,13.687-13.636-.088-17.683-7.111-43.8-10.95-5.933-.871-10.74-1.246-16.424,0-2.763.606-5.646,1.576-19.162,8.213-8.315,4.082-8.541,4.362-10.95,5.474-2.728,1.26-30.09,13.469-52.01,2.738-3.4-1.663-3.337-2.249-5.475-2.738-9.6-2.193-15.836,8.468-32.848,16.425a64.225,64.225,0,0,1-16.424,5.474c-13.53,2.451-24.62-.474-32.849-2.737-15.022-4.132-13.639-7.082-27.374-10.95-9.393-2.644-21.722-6.115-35.586-2.737-13.567,3.307-13.735,9.549-27.374,10.95-2.531.26-2.6.052-21.9,0-8.315-.023-12.473-.034-13.687,0-11.591.324-36.935,2.969-38.323,10.949-.468,2.689,2.426,5.443,8.212,10.95,2.636,2.508,10.078,9.59,19.162,13.687,11.628,5.243,18.569,2.27,54.748,0,23-1.444,28.583-.768,32.848,0,12.949,2.33,15.717,5.855,30.111,10.949,6.949,2.459,29.857,10.344,54.748,8.212,16.145-1.383,16.772-5.579,38.323-10.949,14.08-3.509,30.565-4.212,62.96-5.475,37.677-1.469,56.515-2.2,71.172,0,11.178,1.68,23.876,4.77,49.273,10.95,22.151,5.389,31.126,8.213,46.535,8.212a164.384,164.384,0,0,0,30.111-2.738c12.24-2.543,15.425-5.053,24.637-5.474,2.759-.127,11.9-.332,27.374,5.474,23.058,8.651,21.9,16.279,38.323,21.9,23.248,7.956,45.767-.416,52.01-2.737A87.64,87.64,0,0,0,667.97,630.07c3.236,5.72,10.9,17.261,24.637,21.9,13.077,4.417,24.976.318,41.06-5.475,23.547-8.481,23.149-14.373,43.8-21.9,20.846-7.6,38.947-8.043,49.273-8.212,18.313-.3,31.955,2.491,46.536,5.475,21.4,4.379,21.893,6.883,41.06,10.949,24.324,5.16,43.6,5.386,57.485,5.475,28.2.18,42.292.271,54.748-5.475,7.482-3.451,12.487-7.348,21.9-8.212,14.431-1.326,25.637,5.723,30.111,8.212,21.184,11.782,51.349,10.245,79.993,5.111a69.13,69.13,0,0,0,11.926-.757,59.04,59.04,0,0,0,18.958-5.982c5.264-1.31,10.312-2.618,15.043-3.847,15.7-4.078,17.377-5.818,40.413-13.118,2.388,2.586,4.373,5.568,10.445,9.26,5.725,3.481,10.786,6.558,16.425,5.475,6.539-1.256,7.4-6.869,16.424-13.687.744-.563,2.017-1.521,3.67-2.6,5.324-.517,10.5-1.518,15.272-2.449,4.715-.919,7.45-1.769,9.64-2.315,5.852,1.966,12.507,5.721,24.637,9.017,1.8,1.709,3.171,3.256,4.046,4.248,7.493,8.489,5.172,11.512,10.95,16.424,9.625,8.183,23.742,6.317,30.111,5.475,4.126-.546,18.247-2.9,30.111-13.687,7.428-6.752,6.948-10.423,13.687-13.687.525-.254,1.065-.486,1.614-.7.443.092.883.185,1.343.276,5.954,1.179,12.749,1.682,25.021,2.43,4.162,3.131,5.021,6.783,13.083,11.685,5.724,3.481,10.785,6.558,16.424,5.475,6.54-1.257,7.4-6.869,16.424-13.687a58.11,58.11,0,0,1,5.092-3.494,25.268,25.268,0,0,0,6.078-2.409c.96-.545,1.8-1.074,2.557-1.592.879-.277,1.779-.522,2.7-.717,12.293-2.617,17.128,5.3,41.06,10.949,10.222,2.414,15.333,3.62,21.9,2.738a30.937,30.937,0,0,0,7.624-1.971c10.694,2.927,26.5,6.017,43.222,4.584,11.644-1,15.248-3.463,24.421-6.772,5.112.489,11.492.878,20.542,1.421,28.446,1.709,42.856,2.458,52.01-2.737,5.441-3.088,7.021-5.654,12-8.634,32.605-1.259,49.86-1.749,63.48.3,11.179,1.68,23.877,4.77,49.273,10.95,22.151,5.389,31.126,8.212,46.536,8.212a164.384,164.384,0,0,0,30.111-2.738c12.239-2.543,15.424-5.054,24.636-5.474,2.759-.127,11.9-.332,27.374,5.474,23.059,8.651,21.9,16.279,38.323,21.9,23.248,7.956,45.767-.416,52.011-2.737a87.664,87.664,0,0,0,27.373-16.424c3.236,5.72,10.906,17.261,24.637,21.9,13.077,4.417,24.976.319,41.061-5.474,23.546-8.481,23.148-14.373,43.8-21.9,20.846-7.6,38.946-8.043,49.272-8.212,18.313-.3,31.955,2.491,46.536,5.475,21.4,4.379,21.894,6.882,41.061,10.949,24.323,5.16,43.6,5.386,57.485,5.474,28.194.181,42.292.272,54.747-5.474,7.482-3.451,12.487-7.348,21.9-8.212,14.431-1.326,25.637,5.723,30.112,8.212,33.37,18.56,89.051,4.1,125.919-5.475,19.329-5.019,17.4-6.5,60.223-19.161,25.868-7.652,39.067-11.521,52.01-13.687,8.232-1.378,28.849-4.35,76.646,0,57.952,5.272,54.592,12.091,95.809,13.687,15.941.616,38-.5,82.121-2.738,32.468-1.646,30.194-2.128,49.273-2.738,43.187-1.379,64.78-2.069,82.122,0a219.966,219.966,0,0,0,49.273,0c12.629-1.416,20.559-3.463,21.9-8.211C3210.043,590.8,3201.736,583.945,3200.25,582.718Z" fill="#f6eff6"/>
    <path d="M2620.865,623.216c-6.929-8.3-17.816-11.157-32.364-14.8-8.7-2.177-12.309-2.288-16.229-6.031-3.551-3.39-5.3-7.8-7.741-13.958-3.885-9.795-2.193-10.848-5.006-13.865-4.324-4.638-9.1-2.992-16.136-8.766a29.811,29.811,0,0,1-5.285-5.658c14.314-4.577,23.38-13.5,22.632-21.141-.551-5.621-6.362-10.09-7.835-11.223-7.6-5.847-13.293-2.941-18.871-8.86-3.705-3.929-4.666-8.893-5.1-11.129-1.342-6.926,1.206-9.246.465-13.679-1.487-8.9-14.7-17.124-26.8-17.346-14.761-.272-17.467,11.558-30.466,9.918-13.232-1.669-22.839-15.491-24.063-17.253-5.114-7.358-3.251-9.677-7.742-13.958-8.032-7.656-22.647-8.487-32.736-3.854-2.064.948-7,5.006-16.881,13.12-8.243-10.975-8.944-11.691-10.477-14.051a65.91,65.91,0,0,1-10.012-27.731c-1.153-10.521,1.848-10.345.745-21.886a61.327,61.327,0,0,0-7.369-24.9c-6.529-11.517-11.582-10.309-13.12-16.88-3.581-15.3,21.909-29.933,17.719-37.742-2.279-4.246-9.908-.1-21.7-6.217-7.776-4.034-12.605-10.064-15.949-14.238-8.261-10.314-5.411-12.933-10.384-16.787-11.769-9.122-27.751,5.525-40.944-4.133-2.681-1.963-4.614-4.467-13.306-11.409-4.443-3.548-6.691-5.331-8.021-5.751-9.409-2.971-14.881,8.553-24.9,7.369-7.542-.892-7.184-7.745-21.327-17.16a61.342,61.342,0,0,0-18.871-8.859c-6.526-1.717-20.94-5.509-30.187,1.711-7.309,5.707-4.69,13.062-11.5,16.042-3.637,1.591-9.739-.078-21.794-3.481-11.307-3.192-13.164-4.527-16.321-3.294-6.075,2.372-9.7,11.423-8.86,18.871,1.3,11.508,13.3,19.243,18.406,22.538,7.989,5.153,13.249,5.594,13.4,8.673.208,4.255-9.586,8.6-16.787,10.385-11.69,2.893-15.054-1.339-24.715,1.9-1.769.592-11.92,3.993-16.881,13.12-1.931,3.554-1.669,5.388-3.574,24.529-1.282,12.886-1.647,14.526-3.3,16.322-1.732,1.888-4.2,3.208-22.072,4.726-12.878,1.094-14.375.645-19.244,2.084-5.863,1.733-12.968,3.833-16.787,10.384-4.476,7.678-1.538,16.494-.652,19.151,2.886,8.66,9.558,14.019,13.12,16.88,5.088,4.087,6,3.116,8.021,5.751,6.227,8.129,1.07,21.982-.932,27.358-4.589,12.328-9.1,12.9-11.688,21.514-1.876,6.234-2.537,15.971,4.447,30.28a70.463,70.463,0,0,0-38.115-6.775,21.683,21.683,0,0,0,11.316-10.571c.389-.826,4.025-8.859.559-16.415-4.185-9.121-13.492-6.147-21.328-17.16-1.329-1.867-6.267-8.808-4.912-16.6.77-4.433,2.764-4.46,3.015-8.114.444-6.473-5.412-12.187-13.027-19.616-5.951-5.806-7.446-5.9-7.928-8.487-1.072-5.747,5.76-8.273,8.859-18.871,1.036-3.541,2.519-8.612.466-13.679-3.778-9.327-16.546-11.258-18.778-11.6a33.905,33.905,0,0,0-30.559,12.655c-2.479,3.4-3.632,6.761-5.938,13.493a110.353,110.353,0,0,0-3.108,10.85c-2.508-9.914-6.856-14.465-10.384-16.788-2.345-1.543-4.1-1.952-21.607-8.952-2.66-1.064-4.018-1.622-5.379-2.922-4.323-4.132-2.546-9.217-4.913-16.6-.872-2.722-3.582-11.178-10.477-14.052-6.568-2.738-14.842.461-19.337,4.82-4.541,4.4-7.267,11.971-8.766,16.135-.921,2.558-1.292,4.132-2.922,5.379-2.947,2.254-6.8.98-13.679-.466-14.285-3-14.123-.968-19.058-3.388-8.068-3.956-6.119-8.227-13.306-11.409-9.75-4.317-20.76.255-24.716,1.9-3.391,1.408-5.971,2.513-8.393,5.192-4.56,5.043-6.466,13.347-3.388,19.057,1.183,2.2,2.914,3.656,5.286,5.658,4.837,4.084,8.143,4.612,8.021,5.751-.289,2.691-18.629-1.307-24.9,7.369-2.382,3.294-2.761,8.051-3.2,13.586-.587,7.376,1.015,8.348-.372,10.943-2.573,4.815-9.111,3.391-22.166,7.462-1.763.55-3.338,1.045-4.8,1.53a11.5,11.5,0,0,1,.535-3.292c1.541-4.677,5.507-5,5.751-8.021.218-2.7-2.742-5.219-13.307-11.409-15.669-9.182-19.345-9.621-21.42-14.424-2.323-5.375,1.012-7.759-2.27-13.772-.776-1.421-4.129-7.089-10.664-8.58a14.756,14.756,0,0,0-5.472-.187c6.94-23.843,3.268-33.759-1.432-38.394-3.436-3.389-5.586-2.145-21.607-8.952-13.9-5.908-14.722-7.881-21.606-8.953a48.459,48.459,0,0,0-21.98,1.991c-10.5,3.657-13.622,9.292-19.43,7.555-3.924-1.173-6.868-5.052-7.928-8.487-1.5-4.874,1.369-6.96.373-10.943-.337-1.343-1.714-5.3-18.778-11.6-11-4.056-16.5-6.084-24.436-6.31-5.7-.162-14.1-.4-22.073,4.726a30.237,30.237,0,0,0-8.487,7.928c-2.517,3.535-2.671,5.506-5.844,10.757-2.858,4.732-4.288,7.1-5.751,8.021-7,4.423-15.049-4.657-27.358-.931a39.733,39.733,0,0,0-5.565,2.549c-12.4,6.251-21.989,11.082-28.1,20.955-4.762,7.691-5.731,15.718-6.123,18.965a95.986,95.986,0,0,0-.559,16.414c.255,3.6.578,4.549-.186,5.472-3.425,4.135-15.961-7.638-27.265-3.667-8.46,2.972-6.457,11.328-16.974,15.856-7.983,3.437-13.263.4-16.6,4.912-2.1,2.834-.7,4.954-3.2,13.586-1.364,4.7-2.046,7.053-3.016,8.115-5.729,6.268-18.811-3.422-41.037-1.4-8.992.82-13.627,3.023-16.6,4.913-1.938,1.232-8.513,5.411-11.409,13.307-1.632,4.451-1.305,9.351-.652,19.15.567,8.5,1.553,11.084-.465,13.679-2.719,3.5-6.488,1.35-11.13,5.1-5.709,4.612-5.927,12.641-5.937,13.493-.048,3.758,1.636,7.178,5.006,13.865,5.422,10.76,8.116,12.538,7.648,16.694-.65,5.779-6.661,9.482-8.58,10.664-13.024,8.023-30.23.082-32.829-1.118-5.99-2.764-4.369-3.557-13.4-8.673-10.018-5.674-17.76-10.06-27.078-9.139-3.26.323-9.615,1.582-16.695,7.649a14.092,14.092,0,0,0-2.456-8.3c-3.424-4.819-9.115-5.614-10.757-5.844-11.17-1.561-20.688,8.288-25.088,12.841-6.544,6.773-9.352,13.448-11.6,18.778-2.893,6.877-6.493,15.434-3.481,21.793.395.834,1.372,2.62,2.55,5.565,1.807,4.521,2.71,6.781,2.456,8.3-.949,5.671-15.651,11.5-27.637,7.277-8.11-2.856-7.028-7.512-16.043-11.5-9.409-4.165-18.39-2.547-27.358-.931-11.8,2.127-15.418,6.054-16.694,7.648a17.792,17.792,0,0,0-2.922,5.379c-13.08.962-23.291,1.446-30.187,1.711-8.893.342-14.941.425-19.337,4.82-4,4-2.135,7.08-5.844,10.757-7.382,7.319-22.807,3.08-27.451,1.8-9.2-2.528-10.63-5.361-18.871-8.859-15.7-6.663-30.617-4.925-38.208-4.04-23.8,2.772-22.315,13.042-38.767,12.375-13.625-.553-17.43-7.709-43.4-12.434-5.9-1.073-10.691-1.611-16.415-.559-2.781.512-5.7,1.383-19.43,7.556-8.449,3.8-8.684,4.069-11.129,5.1-2.77,1.166-30.531,12.437-52.074.966-3.339-1.778-3.259-2.361-5.378-2.922-9.517-2.519-16.116,7.924-33.388,15.3a64.251,64.251,0,0,1-16.6,4.913c-13.605,1.988-24.59-1.312-32.737-3.854-14.873-4.64-13.39-7.542-26.985-11.875-9.3-2.962-21.5-6.851-35.473-3.946-13.672,2.843-14.052,9.076-27.73,10.012-2.539.173-2.6-.036-21.886-.746-8.31-.3-12.465-.458-13.679-.465-11.6-.07-37.016,1.711-38.674,9.639-.559,2.672,2.239,5.522,7.835,11.222,2.549,2.6,9.745,9.928,18.684,14.332,11.443,5.636,18.482,2.9,54.717,1.862,23.038-.66,28.593.206,32.829,1.118,12.862,2.769,15.509,6.387,29.721,11.968,6.861,2.694,29.487,11.354,54.437,10.07,16.182-.833,16.952-5,38.673-9.639,14.192-3.028,30.691-3.169,63.11-3.329,37.7-.186,56.558-.279,71.131,2.421,11.115,2.06,23.7,5.58,48.871,12.62,21.955,6.141,30.829,9.267,46.23,9.791a164.357,164.357,0,0,0,30.186-1.711c12.319-2.125,15.588-4.526,24.809-4.634,2.762-.032,11.9.074,27.172,6.4,22.751,9.43,21.333,17.014,37.556,23.191,22.963,8.742,45.754,1.141,52.073-.966a87.64,87.64,0,0,0,27.917-15.484c3.039,5.828,10.311,17.622,23.877,22.725,12.919,4.859,24.95,1.168,41.223-4.074,23.821-7.675,23.624-13.577,44.518-20.4,21.092-6.883,39.2-6.712,49.524-6.53,18.312.322,31.851,3.577,46.322,7.055,21.241,5.1,21.646,7.624,40.664,12.34,24.134,5.985,43.394,6.866,57.266,7.428,28.172,1.139,42.258,1.709,54.9-3.609,7.6-3.2,12.73-6.919,22.166-7.462,14.468-.834,25.427,6.592,29.814,9.232,20.77,12.5,50.971,11.986,79.773,7.83a69.211,69.211,0,0,0,11.945-.351,59.053,59.053,0,0,0,19.15-5.334c5.305-1.129,10.395-2.266,15.165-3.333,15.832-3.541,17.565-5.223,40.836-11.735,2.3,2.666,4.181,5.714,10.124,9.61,5.6,3.674,10.556,6.921,16.229,6.031,6.579-1.033,7.631-6.613,16.88-13.121,2.213-1.557,8.906-6.265,16.695-7.648,12.375-2.2,16.938,5.879,40.664,12.34,10.134,2.76,15.2,4.14,21.793,3.481,15.395-1.538,16.962-10.862,30.559-12.654,11.236-1.481,13.823,4.4,35.287,9.418,6.681,1.561,14.454,2.294,30,3.76,28.372,2.676,42.748,3.914,52.073-.966,4.916-2.572,6.773-4.836,10.663-7.275,12.015-.09,26.768-.334,45.539-.646,10.208-.169,16.983-.34,22.073-.495.484.058.931.119,1.436.174,7.026.769,10.6,1.139,13.679.466a23.036,23.036,0,0,0,3.771-1.172c2.342-.027,5.019-.039,8.378-.032,43.209.091,64.814.136,82.074,2.8a220.065,220.065,0,0,0,49.245,1.676c12.67-.986,20.665-2.762,22.165-7.462,1.767-5.534-6.256-12.645-7.728-13.947.536-.366,1.078-.678,1.609-1.078,8.321-6.257,8.172-10.838,14.238-15.949,11.845-9.98,29.166-6.629,46.695-3.888,0,0,42.11,6.584,81.888,8.266,23.918,1.011,42.04,1.777,65.845-3.237,17.623-3.711,24.828-7.74,44.145-9.452,11.075-.982,22.125-.171,43.773,1.49,40.755,3.128,61.132,4.692,62.83,4.878,8.337.916,23.571,2.7,38.488-4.168,8.49-3.91,10.666-7.764,11.316-10.57C2627.3,630.919,2622.451,625.116,2620.865,623.216Z" fill="#c0cfe6"/>
    <path d="M2836.2,722.209a45.954,45.954,0,0,0-27.373-5.475c-10.991,1.308-10.868,5.5-19.162,5.475-12.6-.039-14.267-9.717-27.374-10.95-12.63-1.187-19.627,7-24.636,2.738-3.929-3.34-.74-9.322-5.475-16.424a22.487,22.487,0,0,0-10.949-8.212,29.661,29.661,0,0,0,8.212-13.687c1.152-4.31,2.543-9.511,0-13.687-4.056-6.661-14.453-4.7-16.424-10.95-.74-2.345.642-2.877,0-5.475-1.329-5.372-8.274-7.27-16.425-10.949-13.927-6.286-11.3-8.713-19.162-10.95-13.432-3.822-18.074,4.131-30.111,0-7.279-2.5-15.632-8.857-16.424-16.424-.5-4.786,2.438-6.091,5.475-16.424.9-3.07,2.894-9.849,2.737-16.425-.092-3.875-1.073-13.609-10.949-24.636,14.045-10.857,13.931-19.383,13.686-21.9-.508-5.221-4.109-10.459-8.212-16.424-5.216-7.587-8.49-9.454-8.212-13.687.35-5.333,5.813-6.457,5.475-10.95-.219-2.907-2.618-3.924-10.95-10.949-6.652-5.61-10-8.465-10.949-10.95-2.469-6.449,2.268-9.688,0-16.424-1.84-5.464-6.65-8.361-10.949-10.95a40.209,40.209,0,0,0-21.9-5.474c-.153-4.874-1.272-14.375-8.212-21.9-9.03-9.791-22.771-10.659-27.374-10.95-8.53-.539-10.423,1.659-19.161,0-5.593-1.062-12.453-2.365-16.425-8.212-3.807-5.605-2.911-12.371-2.737-13.687a24.941,24.941,0,0,1,2.737-8.212c2.911-5.638,5.176-5.37,5.475-8.212.355-3.368-2.751-4.437-8.212-13.687-1.729-2.929-2.593-4.393-2.737-5.475-.794-5.954,5.616-8.544,8.212-16.424,1.715-5.206.793-9.766,0-13.687-.532-2.632-2.508-12.4-10.95-19.162-10.63-8.513-23.847-6.115-27.373-5.475-16.848,3.058-25.694,16.5-27.374,19.162-1.886-9.167-8.74-15.782-16.425-16.424a16.619,16.619,0,0,0-13.687,5.475c-5,5.9-1.075,11.437-5.474,16.424-4.7,5.334-14.915,5.484-21.9,2.737-9.04-3.555-7.955-10.108-16.425-13.687-8.765-3.7-20.168-1.012-27.373,5.475-1.942,1.748-8.26,7.437-8.213,16.424A21.2,21.2,0,0,0,2338,336.238c-3.735,2.271-18.721,11.815-24.636,27.374a36.24,36.24,0,0,0-2.738,16.424,34.382,34.382,0,0,0,2.738,10.95c-15.648-.475-24.694,3.943-30.111,8.212-9.409,7.415-9.271,15.482-19.162,19.162-8.184,3.044-11.845-1.15-21.9,2.737-3.872,1.5-11.381,4.4-13.687,10.95-2.771,7.869,3.086,17.835,5.475,21.9,3.147,5.354,5.613,6.995,5.474,10.949-.152,4.374-3.255,4.851-5.474,10.95a24.486,24.486,0,0,0,0,16.424,22.56,22.56,0,0,0,5.474,8.212c-4.229,1.188-12.493,3.591-21.831,6.951-1.763-.571-3.687-1.168-5.811-1.8-12.687-3.754-19.03-5.632-24.637-5.475-7.73.217-20.592,2.5-21.9,2.738-7.1,1.275-10.823,2.318-13.687,0-2.891-2.341-3.823-7.234-2.737-10.95,1.381-4.726,5.334-5.187,5.475-8.212.125-2.71-2.919-5.122-13.687-10.949-15.973-8.644-19.661-8.957-21.9-13.687-2.505-5.293.748-7.789-2.738-13.687-.823-1.393-4.367-6.944-10.949-8.212a14.731,14.731,0,0,0-5.475,0c6.124-24.067,2.117-33.851-2.737-38.324-3.55-3.27-5.657-1.954-21.9-8.212-14.1-5.431-14.983-7.375-21.9-8.212a48.472,48.472,0,0,0-21.9,2.737c-10.366,4.013-13.3,9.75-19.162,8.213-3.962-1.04-7.036-4.816-8.212-8.213-1.669-4.819,1.132-7,0-10.949-.382-1.331-1.893-5.242-19.162-10.95-11.133-3.679-16.7-5.519-24.636-5.474-5.705.031-14.108.078-21.9,5.474a30.244,30.244,0,0,0-8.212,8.212c-2.395,3.618-2.482,5.593-5.475,10.95-2.7,4.826-4.043,7.239-5.474,8.212-6.848,4.659-15.2-4.143-27.374,0a39.756,39.756,0,0,0-5.475,2.738c-12.182,6.668-21.6,11.823-27.374,21.9-4.5,7.849-5.193,15.9-5.474,19.162a95.908,95.908,0,0,0,0,16.424c.377,3.587.733,4.527,0,5.475-3.282,4.249-16.211-7.091-27.374-2.737-8.354,3.258-6.068,11.541-16.424,16.424-7.862,3.707-13.242.85-16.425,5.475-2,2.9-.529,4.974-2.737,13.687-1.2,4.746-1.8,7.118-2.737,8.212-5.513,6.459-18.918-2.78-41.061,0-8.959,1.125-13.517,3.485-16.425,5.475-1.895,1.3-8.323,5.7-10.949,13.687-1.48,4.5-.987,9.39,0,19.161.856,8.474,1.929,11.025,0,13.687-2.6,3.586-6.438,1.57-10.949,5.475-5.55,4.8-5.494,12.835-5.475,13.687.08,3.758,1.879,7.118,5.475,13.687,5.784,10.569,8.537,12.254,8.212,16.424-.453,5.8-6.335,9.7-8.212,10.95a25.19,25.19,0,0,1-12.887,3.978c-.609-.451-1.21-.886-1.785-1.3-7.239-5.24-9.232-3.506-16.424-8.212-10.185-6.664-10.5-12.963-16.424-13.687-3.325-.407-6.478,1.194-10.868,5.271-5.189-2.092-10.12-3.193-15.522-2.473-3.246.433-9.555,1.908-16.424,8.213a14.509,14.509,0,0,0-1.856-6.876,21.479,21.479,0,0,0,6.346-4.135,22.62,22.62,0,0,0,5.475-8.213c.884-.353,14.2-5.929,16.424-19.161,2.2-13.1-8.368-22.372-10.949-24.637-9.932-8.713-21.854-8.365-24.637-8.212a52.8,52.8,0,0,0-16.424-21.9c-14.745-11.468-31-11.188-35.586-10.949a46.739,46.739,0,0,0-5.475-21.9,45.848,45.848,0,0,0-8.212-10.95,22.237,22.237,0,0,0,8.212-5.475c3.9-4.15,8.152-12.043,5.475-19.161-3.853-10.246-19.922-13.176-27.374-8.212-5.006,3.334-2.55,7.849-8.212,13.686-7.612,7.848-15.924,3.683-21.9,10.95-5.636,6.856-1.649,14.711-5.475,16.424-6.858,3.072-19.9-22.067-32.849-19.161-4.9,1.1-5.54,5.264-10.949,5.474-7.58.294-9.51-7.759-16.424-8.212-9.423-.617-12.582,13.9-21.9,13.687-7.411-.168-7.983-9.41-19.162-13.687-7.563-2.894-18.586-2.982-24.636,2.738-3.951,3.734-3.216,7.52-5.475,27.373-1.6,14.029-3.092,22.056-5.475,30.112-2.349,7.941-5.662,18.783-10.95,19.161-3.048.219-3.917-3.244-8.212-5.474-9.806-5.093-27.547,1.4-30.111,10.949-1.253,4.671,1.885,9.564,8.212,19.162,10.381,15.745,18.038,20.014,16.425,24.636-2.217,6.351-18.2,2.693-21.9,10.95-1.742,3.89.236,8.215,2.737,13.687,4.744,10.376,9.97,11.235,16.424,21.9,4.074,6.729,8.251,13.63,5.475,19.161-2.915,5.808-12.508,8.138-19.162,5.475-3.439-1.376-5.794-3.967-10.949-13.687-10.292-19.4-8.415-23.24-13.687-27.374-10.435-8.181-28.53-1.576-32.849,0-14.916,5.445-13.67,12.6-27.374,16.425-11.97,3.34-15.193-1.487-30.111,2.737-8.231,2.331-15.847,4.487-19.161,10.95-4.41,8.6,1.984,18.605-2.738,21.9-1.823,1.271-2.946-.1-8.212,0-7.176.139-10,2.786-19.162,5.474a90.054,90.054,0,0,1-13.687,2.738c-14.7,1.579-18.266-5.358-34.217-6.844-5.995-.558-19.339-2.151-30.111,5.475-8.628,6.109-7.764,12.489-16.424,16.424-10.091,4.585-15.744-2.04-27.374,2.738-5.235,2.15-11.94,6.726-13.411,11.31a48.8,48.8,0,0,0-6.135,1.069c-13.568,3.307-13.735,9.549-27.374,10.95-2.531.26-2.6.052-21.9,0-8.315-.023-12.473-.034-13.687,0-11.591.325-36.935,2.97-38.323,10.949-.468,2.689,2.426,5.443,8.212,10.95,2.636,2.509,10.078,9.59,19.162,13.687,11.628,5.243,18.569,2.27,54.747,0,23-1.443,28.584-.768,32.849,0,12.949,2.33,15.717,5.855,30.111,10.949,6.949,2.46,29.857,10.344,54.748,8.212,16.145-1.382,16.772-5.578,38.323-10.949,14.08-3.509,30.565-4.212,62.96-5.475,37.677-1.469,56.515-2.2,71.172,0,11.179,1.68,23.877,4.77,49.273,10.95,22.151,5.39,31.125,8.213,46.535,8.212,5.326,0,10.278-.271,14.566-.642,8.739,8.264,21.639,15.525,30.985,11.53,7.494-3.2,7.887-11.58,14.7-18.976a82.129,82.129,0,0,1,21.868,5.35c.947.356,1.839.709,2.707,1.06a16.491,16.491,0,0,0,1.783,4.354c4.684,7.909,15.253,10.209,22.546,10.821a42.641,42.641,0,0,0,11.287,5.664c23.248,7.956,45.767-.416,52.01-2.737a87.621,87.621,0,0,0,27.374-16.424c3.236,5.721,10.905,17.261,24.637,21.9,13.077,4.417,24.976.318,41.06-5.475,14.716-5.3,20.079-9.589,27.073-13.9,1.059,2.417,2.17,4.61,4.791,5.625,3.565,1.38,7.851-.905,16.425-5.475a77.241,77.241,0,0,0,16.424-10.95c1.4-1.238,2.729-2.417,3.974-3.564a171.392,171.392,0,0,1,24.384-1.849c18.313-.3,31.955,2.491,46.536,5.475,21.4,4.379,21.893,6.883,41.061,10.949,24.323,5.16,43.6,5.386,57.485,5.475,28.194.181,42.291.271,54.747-5.475,7.482-3.451,12.487-7.347,21.9-8.212,14.431-1.326,25.637,5.723,30.111,8.212,33.371,18.561,89.052,4.1,125.92-5.475,19.328-5.019,17.4-6.5,60.222-19.161,25.869-7.651,39.067-11.521,52.011-13.687,8.232-1.378,28.848-4.349,76.646,0,57.951,5.273,54.592,12.092,95.809,13.687,15.941.617,38-.5,82.121-2.738,32.468-1.645,30.194-2.127,49.273-2.737l4.1-.131c.759,3.263,2.056,6.591,4.382,8.664,5.084,4.53,12.687.945,21.9,0,19.273-1.976,35.688,8.623,52.011,19.162,18.3,11.819,18.892,18.6,32.848,21.9,3.5.827,17.692,4.18,30.111-2.738,5.933-3.3,5.346-5.547,10.95-8.212,9.849-4.684,16.1.135,30.111,0,4.519-.043,13.962-2.766,32.849-8.212,16.268-4.691,15.326-4.889,27.373-8.212,18-4.965,26.994-7.448,35.586-8.212,11.153-.993,14.6.3,21.9-2.738,1.479-.615,16.862-7.212,16.424-16.424C2849.585,729.553,2841.944,725.361,2836.2,722.209Z" fill="#8ab1d2"/>
    <path d="M2896.3,775.51c-11.275-5.565-17.369.657-27.121-4.61-8.37-4.52-7.07-10.826-15.259-17.512-10.223-8.348-23.644-7.674-29.664-7.529-16.016.387-20.053,7.063-34.606,4.479a89.989,89.989,0,0,1-13.467-3.67c-8.958-3.311-11.591-6.145-18.741-6.777-5.246-.463-6.461.83-8.193-.563-4.485-3.61,2.582-13.154-1.228-22.036-2.863-6.674-10.313-9.348-18.365-12.238-14.592-5.238-18.139-.644-29.852-4.8-13.409-4.755-11.674-11.808-26.182-18.264-4.2-1.869-21.8-9.7-32.771-2.254-5.544,3.761-3.935,7.717-15.533,26.37-5.81,9.343-8.338,11.766-11.864,12.9-6.82,2.2-16.231-.783-18.74-6.777-2.39-5.709,2.251-12.307,6.776-18.741,7.172-10.2,12.444-10.694,17.889-20.72,2.871-5.287,5.14-9.466,3.67-13.467-3.12-8.491-19.321-5.939-21.1-12.427-1.292-4.722,6.639-8.455,18.076-23.451,6.972-9.14,10.438-13.807,9.508-18.553-1.9-9.7-19.156-17.4-29.288-12.99-4.438,1.93-5.542,5.325-8.569,4.9-5.249-.74-7.81-11.784-9.609-19.868-1.824-8.2-2.765-16.31-3.395-30.416-.891-19.961.1-23.688-3.583-27.684-5.643-6.122-16.647-6.79-24.391-4.422-11.445,3.5-12.651,12.68-20.055,12.339-9.31-.428-11.466-15.126-20.909-15.157-6.928-.023-9.407,7.879-16.949,7.065-5.382-.58-5.732-4.779-10.548-6.213-12.72-3.787-27.455,20.4-34.086,16.862-3.7-1.972.818-9.535-4.334-16.761-5.462-7.66-14.041-4.075-21.1-12.427-5.248-6.212-2.488-10.548-7.254-14.218-7.094-5.463-23.326-3.643-27.873,6.314-3.159,6.918.545,15.084,4.147,19.493a22.244,22.244,0,0,0,7.817,6.025,45.836,45.836,0,0,0-8.944,10.36,46.736,46.736,0,0,0-6.965,21.472c-4.562-.553-20.756-1.948-36.253,8.481a52.8,52.8,0,0,0-17.889,20.721c-2.766-.345-14.636-1.51-25.142,6.5-2.731,2.083-13.912,10.61-12.614,23.827,1.311,13.354,14.213,19.831,15.07,20.244a22.624,22.624,0,0,0,4.9,8.569c8.692,9.414,22.575,7.413,24.2,7.152a86.978,86.978,0,0,0-24.477,36.73,212.2,212.2,0,0,0-22.324-34.462c-7.021-8.792-11.031-12.295-15.635-12.051-5.957.317-6.707,6.579-17.324,12.528-7.5,4.2-9.368,2.335-16.949,7.066-5,3.116-11.728,7.317-11.864,12.9-.155,6.407,8.495,9.425,7.254,14.218-.993,3.834-6.8,2.958-8.756,7.629a5.813,5.813,0,0,0-.324,1.067c-3.313-4.417-4.856-5.628-13.7-17.254-9.544-12.544-10.258-14.434-10.235-16.879.056-5.8,4.215-10.371,11.762-18.674,7.932-8.728,10.845-9.04,11.527-13.205,1.413-8.632-9.489-17.114-12.853-19.731-5.431-4.225-11.1-6.726-18.791-9.027-26.2-7.835-38.656-2.219-43.406-10.083-3.364-5.571-.983-14.795,3.557-19.027,3.161-2.946,5.4-1.637,11.175-5,2.7-1.571,10.574-6.158,11.526-13.2,1.069-7.914-7.2-14.471-10.235-16.879-.774-.615-11.709-9.032-24.378-6.527-5.026.993-5.169,2.686-8.322,2.382-8.9-.857-9.133-14.475-18.44-17.231-5.1-1.509-10.808,1.416-22.231,7.265-10.03,5.136-12.191,8.316-16.762,7.5-6.518-1.164-6.217-8.363-13.2-11.527-9.51-4.306-25.244,2.156-30.671,12.383-2.414,4.548-2.834,10.286-3.674,21.761-.25,3.412-.328,6.251-.352,8.205-.976-1.958-7.543-14.622-21.175-17.349-9.32-1.865-16.9,1.924-22.114,4.53-3.544,1.772-11.956,6.12-17.113,15.7a33.837,33.837,0,0,0-3.087,8.087c-7.518-8.315-18.033-12.149-27-9.379-7.987,2.468-12.053,9.349-14.261,13.087-1.227,2.076-8.607,14.567-3.792,24.5,2.768,5.708,7.568,6.446,7.735,11.292.148,4.307-3.6,5.06-5.94,10.7-4.126,9.947,3.246,17.889-.94,21.879-1.921,1.833-3.6.277-13.791,2.148-4.614.847-6.922,1.27-8.322,2.382-5.855,4.649-2.014,18.328-.94,21.879-.908-1.892-5.408-10.75-15.822-14.379-.753-.262-12.058-4.012-22,1.8-8.67,5.066-9.568,13.474-14.262,13.087-3.78-.312-3.759-5.812-10.469-11.41-1.858-1.549-9.06-7.557-16.175-6.174-3.157.614-4.749,2.382-17.231,18.439-7.409,9.532-7.522,9.776-8.674,10.587-8.251,5.812-14.1,1.506-24.966,7.148-3.733,1.939-9.077,4.714-11.41,10.47-4,9.876,3.848,21.16,4.531,22.113,5.187,7.248,10.5,7.508,10.469,11.41-.039,5.772-11.709,12.826-19.613,10.117-5.663-1.94-5.943-7.709-10.588-8.674-3.541-.737-8.862,1.476-17,12.969-9.767-3.013-24.717-5.828-41.023-1.761-10.231,2.551-19.469,4.856-27.936,12.5-4.108,3.709-6.548,7.333-11.292,7.735-5.516.468-6.7-4.052-16.057-8.909-10.988-5.707-22.674-6.386-27.113-6.644-5.728-.333-5.561.355-8.2-.353-2.888-.773-8.028-2.916-18.439-17.231-6.371-8.759-4.779-8.414-7.735-11.292-9.662-9.406-22.772-9.3-24.261-9.261a34.87,34.87,0,0,0-16.644,4.765c.681-2.887,3.412-15.869-4.3-27.584a34.011,34.011,0,0,0-13.2-11.526c-8.171-4.2-15.532-4.065-24.5-3.792a102.733,102.733,0,0,0-38.758,9.295c-7.422,3.5-7.6,4.76-11.175,5-10.97.735-14.456-10.764-29.5-14.966-3.376-.944-13.876-3.878-22,1.8a22.367,22.367,0,0,0-8.91,16.057c-.695,8.556,4.557,11.976,2.031,16.526-1.912,3.445-5.115,1.833-14.027,7.618-5.675,3.684-7.685,6.485-8.557,7.852a21.971,21.971,0,0,0-3.087,8.087c-8.319-4.341-24.122-11.067-43.4-10.084-7.076.361-18.394.938-30.436,6.913-4.7,2.334-6.506,4-11.175,5-7.7,1.657-12.445-.8-24.5-3.792-13.351-3.318-20.026-4.977-24.5-3.792-9.139,2.423-7.567,8.586-22.7,18.205-6.732,4.278-9.609,4.69-16.879,10.234-6.9,5.263-11.577,8.83-11.527,13.205.089,7.813,15.2,13.346,18.557,14.5,11.845,4.055,19.142,2.05,49.345-.621,17.674-1.562,26.64-2.324,32.936-1.325,3.378.536,8.673,1.6,35.083,12.466,24.825,10.211,23.021,10.45,29.614,12.232a97.869,97.869,0,0,0,43.758,1.879c16.6-3.389,15.5-8.468,30.67-12.383,12.517-3.229,23.122-2.315,60.05,5.319,33.926,7.014,30.981,7.485,46.14,10.2,30.878,5.534,58.253,10.439,90.25,3.876,13.876-2.846,20.288-6.14,35.906-6.678,12.372-.426,22.051,1.209,40.9,4.5,33.737,5.883,33.473,9.261,43.523,7.349,11.068-2.106,11.986-6.318,39.111-17.5,10.2-4.2,15.3-6.306,19.5-7.382,13.245-3.395,24.242-2.14,70.871,8.523,23.789,5.44,28.2,6.777,38.054,7.114,16.866.577,29.152-2.48,35.788-3.943,16.981-3.745,49.726-3.588,115.216-3.272,40.282.194,46.407,1.224,60.4-2.886,13.888-4.078,22.182-9.3,41.61-11.912a205.789,205.789,0,0,1,32.936-1.326c16.383.384,22.255,2.007,28.96,2.234.977,6.38,5.822,11.321,12.148,17.748a77.208,77.208,0,0,0,15.634,12.051c8.24,5.148,12.359,7.722,16.01,6.589,5.92-1.836,4.906-9.876,11.863-12.9,3.616-1.573,6.962-.736,13.655.939,12.843,3.214,15.081,8.423,21.471,6.965,5.086-1.16,6.242-5.045,11.3-4.71,3.989.264,4.139,2.738,8.005,3.294,5.614.808,8.11-4,16.949-7.065a38.515,38.515,0,0,1,11.112-1.98c13.513-.2,17.834,9.264,24.2,7.153,8.563-2.838,4.588-21.223,15.534-26.37,4-1.88,9.919-1.961,13.654.939,8.383,6.508-2.37,21.708,5.751,36.066,7.24,12.8,23.975,15.191,26.37,15.533,1.089.156,22.642,2.968,30.791-8.857,5.173-7.506,1.6-16.05,6.777-18.741,4.453-2.312,10.949,2,13.467,3.67,13.733,9.115,10.94,21.37,20.157,26.082,10.822,5.533,27.824-4.642,36.629-13.944,10.516-11.11,12.5-24.31,12.99-29.288a71.4,71.4,0,0,0,21.847,1.5c4.268-.389,7.535-1.116,10.924.752,4.7,2.59,4.016,7.073,7.441,11.487,6.38,8.222,22.246,10.06,32.584,4.985,8.359-4.1,6.789-9.627,14.594-12.715,10.5-4.155,16.074,4.765,27.309,1.879,13.475-3.462,17.731-19.446,23.162-17.614,4.031,1.36,1.681,10.162,7.066,16.949,5.839,7.36,17.386,8.084,26.934,7.341.864,1.523,5.7,9.7,15.634,12.051,9.135,2.159,19-1.455,25.33-9.233a51.378,51.378,0,0,0,19.116,1.315c15.646-1.949,19.314-10.192,30.792-8.857,10.475,1.218,12.579,8.685,21.472,6.965,5.716-1.107,7.68-4.742,14.03-4.523,5.084.175,6.347,2.592,10.736,3.482,7.468,1.514,12.2-3.784,22.6-9.421,18.048-9.778,28.586-7.25,29.708-13.047C2910.028,784.862,2902.254,778.449,2896.3,775.51Z" fill="#5081a9"/>
  </g>
</svg>
