<svg xmlns="http://www.w3.org/2000/svg" xmlns:xlink="http://www.w3.org/1999/xlink" width="1423.902" height="950.125" viewBox="0 0 1423.902 950.125">
  <defs>
    <linearGradient id="a" y1="475.063" x2="1423.902" y2="475.063" gradientUnits="userSpaceOnUse">
      <stop offset="0" stop-color="#f7ffff"/>
      <stop offset="1" stop-color="#c6f3f7"/>
    </linearGradient>
  </defs>
  <title>Cloud_3</title>
  <path d="M26.939,810.256S-29.335,878.839,20.784,922.8s117.291,28.739,151.236-2.638,22.861-73.859,22.861-73.859,53.636,72.1,169.7,36.93S525.49,685.4,699.587,693.312,1037.23,870.926,1231.551,825.2s201.355-225.1,188.166-254.111-58.912-48.361-87.928-14.948,48.36,74.739,48.36,74.739-2.638,104.634-125.737,93.2-56.274-138.926-171.459-156.511-136.288,46.6-136.288,46.6,7.034-58.911-47.481-61.549-71.222,21.1-71.222,21.1,4.478-19.392-6.155-37.809-41.326-28.137-41.326-28.137,183.769-97.6,94.083-233.009-221.578-88.807-221.578-88.807S605.505-109.47,298.636,44.4s-63.308,523.171-63.308,523.171-45.722-1.759-58.032,27.257-7.914,70.343,26.378,93.2C203.674,688.036,15.508,622.09,26.939,810.256Z" fill="url(#a)"/>
</svg>
