<svg xmlns="http://www.w3.org/2000/svg" width="3208.916" height="909.854" viewBox="0 0 3208.916 909.854">
  <title>Cloud_7</title>
  <g>
    <path d="M3200.505,629.3c-10.588-8.739-17.834-3.47-30.111-10.95-10.354-6.308-8.562-12.1-19.162-16.424-6.867-2.8-13.5-2.766-19.162-2.738a71.174,71.174,0,0,0-19.161,2.738c-1.8-18.817-9.686-28.687-13.687-32.849-6.389-6.645-18.859-10.817-43.8-19.162-17.018-5.693-20.931-5.871-24.637-5.474-9.756,1.044-12.588,5.485-27.374,8.212-8.967,1.653-13.978,2.507-19.161,0-7.5-3.629-6.174-9.854-13.687-16.424-5.887-5.148-13.049-6.17-27.374-8.213-9.692-1.382-18.859-2.689-30.111,0-9.155,2.189-8.875,4.438-16.425,5.475-13.589,1.868-24.751-4.011-27.373-5.475-8.513-4.752-8.074-8.232-19.162-16.424-4.591-3.391-10.7-7.906-19.162-10.949-17.564-6.318-34.191-2.314-43.8,0a101.382,101.382,0,0,0-16.424,5.474c-1.59-.584-16.788-6.406-19.162-19.161-1.28-6.878,1.565-13.639,2.738-16.425,2.23-5.3,3.9-5.661,8.212-13.687,3.44-6.4,5.16-9.608,5.475-13.687.67-8.712-4.692-15.466-5.475-16.424-1.345-1.644-4.448-4.975-24.637-10.949-12.686-3.755-19.03-5.632-24.636-5.475-7.73.216-20.592,2.5-21.9,2.737-7.1,1.275-10.824,2.318-13.687,0-2.892-2.341-3.823-7.233-2.737-10.949,1.381-4.726,5.334-5.187,5.474-8.212.126-2.71-2.918-5.122-13.687-10.95-15.973-8.644-19.661-8.957-21.9-13.687-2.5-5.293.748-7.788-2.737-13.687-.823-1.393-4.367-6.944-10.95-8.212a14.747,14.747,0,0,0-5.474,0c6.124-24.066,2.117-33.85-2.738-38.323-3.549-3.271-5.656-1.954-21.9-8.212-14.1-5.432-14.982-7.376-21.9-8.212a48.459,48.459,0,0,0-21.9,2.737c-10.365,4.012-13.3,9.75-19.162,8.212-3.961-1.039-7.035-4.815-8.212-8.212-1.669-4.82,1.132-7,0-10.95-.381-1.331-1.893-5.242-19.161-10.949-11.133-3.679-16.7-5.519-24.637-5.475-5.7.032-14.108.079-21.9,5.475a30.214,30.214,0,0,0-8.212,8.212c-2.395,3.618-2.482,5.593-5.475,10.95-2.7,4.825-4.043,7.238-5.474,8.212-6.848,4.658-15.2-4.143-27.374,0a39.537,39.537,0,0,0-5.475,2.737c-12.182,6.669-21.6,11.824-27.374,21.9a43.448,43.448,0,0,0-5.156,16.085,15.237,15.237,0,0,1-4.938-4.575c-3.807-5.605-2.911-12.371-2.737-13.687a24.935,24.935,0,0,1,2.737-8.212c2.911-5.638,5.175-5.37,5.475-8.212.355-3.367-2.751-4.436-8.212-13.687-1.729-2.928-2.593-4.392-2.738-5.475-.793-5.954,5.617-8.544,8.213-16.424,1.715-5.205.793-9.766,0-13.687-.533-2.632-2.508-12.4-10.95-19.161-10.63-8.514-23.847-6.115-27.374-5.475-16.847,3.058-25.693,16.5-27.374,19.162-1.885-9.167-8.74-15.783-16.424-16.425a16.625,16.625,0,0,0-13.687,5.475c-3.03,3.575-2.787,7.014-3.1,10.28a55.838,55.838,0,0,0-12.77-2.471c.085-3.489,1.168-5.627.529-8.786-1.064-5.259-6.262-10.136-12.844-13.187l-.009-.019a45.819,45.819,0,0,0-8.212-10.949,22.237,22.237,0,0,0,8.212-5.475c3.9-4.151,8.151-12.044,5.474-19.162-3.853-10.246-19.921-13.175-27.373-8.212-5.006,3.334-2.55,7.849-8.213,13.687-7.611,7.847-15.924,3.682-21.9,10.949-5.637,6.856-1.649,14.711-5.475,16.425-3.424,1.533-8.388-3.964-14.112-9.492-2.591-4.584-2.108-6.79-5.884-10.151-8.288-7.378-22.923-7.711-32.849-2.737a19.531,19.531,0,0,0-2.91,2.031,9.124,9.124,0,0,0-4.468-1.55c-5.585-.366-8.969,4.585-12.74,8.634-5.181-6.388-5.912-7.195-7.255-9.115a65.932,65.932,0,0,1-10.95-27.374c-1.51-10.477,1.5-10.4,0-21.9a61.3,61.3,0,0,0-8.212-24.637c-6.917-11.288-11.926-9.909-13.687-16.424-4.1-15.167,20.879-30.661,16.424-38.323-2.421-4.166-9.9.238-21.9-5.475-7.909-3.767-12.94-9.629-16.424-13.687-8.607-10.027-5.848-12.741-10.95-16.424-12.072-8.716-27.546,6.466-41.06-2.738-2.747-1.87-4.764-4.306-13.687-10.949-4.561-3.395-6.869-5.1-8.212-5.475-9.5-2.649-14.582,9.055-24.637,8.212-7.568-.634-7.443-7.5-21.9-16.424a61.331,61.331,0,0,0-19.161-8.212c-6.58-1.494-21.116-4.794-30.112,2.737-7.11,5.952-4.242,13.214-10.949,16.425-3.581,1.713-9.736.253-21.9-2.738-11.409-2.805-13.312-4.077-16.425-2.737-5.99,2.578-9.309,11.746-8.212,19.161,1.7,11.458,13.945,18.78,19.162,21.9,8.16,4.879,13.432,5.141,13.687,8.213.352,4.245-9.288,8.922-16.424,10.949-11.585,3.29-15.091-.825-24.637,2.737-1.747.653-11.777,4.4-16.424,13.687-1.81,3.619-1.485,5.442-2.738,24.637-.843,12.923-1.152,14.574-2.737,16.424-1.667,1.947-4.093,3.35-21.9,5.475-12.833,1.531-14.344,1.133-19.162,2.737-5.8,1.932-12.83,4.273-16.424,10.95-4.212,7.825-.975,16.536,0,19.161,3.179,8.557,10.03,13.687,13.687,16.425,5.224,3.911,6.1,2.909,8.212,5.475,6.5,7.911,1.817,21.933,0,27.373-4.167,12.478-8.651,13.2-10.949,21.9-1.664,6.294-1.993,16.048,5.474,30.112a70.452,70.452,0,0,0-38.323-5.475,21.686,21.686,0,0,0,10.95-10.95c.36-.839,3.721-8.991,0-16.424-4.493-8.974-13.693-5.685-21.9-16.424-1.392-1.821-6.564-8.591-5.475-16.425.619-4.456,2.611-4.551,2.737-8.212.224-6.484-5.823-12-13.687-19.161-6.144-5.6-7.642-5.646-8.212-8.213-1.267-5.707,5.476-8.464,8.212-19.161.915-3.574,2.224-8.693,0-13.687-4.093-9.193-16.919-10.688-19.161-10.95a31.2,31.2,0,0,0-16.425,2.738,31.515,31.515,0,0,0-13.687,10.949c-2.362,3.478-3.4,6.881-5.474,13.687a110.421,110.421,0,0,0-2.738,10.95c-2.843-9.823-7.344-14.223-10.949-16.425-2.4-1.463-4.162-1.812-21.9-8.212-2.695-.972-4.071-1.484-5.475-2.737-4.461-3.982-2.858-9.125-5.475-16.424-.964-2.691-3.961-11.05-10.949-13.687-6.657-2.513-14.818.965-19.162,5.474-4.389,4.556-6.855,12.212-8.212,16.425-.834,2.587-1.151,4.173-2.738,5.475-2.868,2.353-6.759,1.211-13.686,0-14.379-2.515-14.148-.487-19.162-2.738-8.2-3.679-6.395-8.014-13.687-10.949-9.892-3.983-20.74.961-24.637,2.737-3.341,1.523-5.882,2.716-8.212,5.475-4.386,5.2-6.007,13.559-2.737,19.161,1.257,2.154,3.036,3.555,5.475,5.475,4.974,3.917,8.3,4.333,8.212,5.475-.2,2.7-18.663-.672-24.636,8.212-2.269,3.373-2.485,8.14-2.738,13.687-.336,7.392,1.3,8.308,0,10.95-2.407,4.9-8.99,3.7-21.9,8.212-7.611,2.661-12,4.195-16.424,8.212-8.325,7.555-10.226,17.94-10.95,21.9-.879,4.806-1.633,8.923,0,13.687,1.221,3.563,2.731,4.435,5.475,10.949a34.2,34.2,0,0,1,2.737,8.213c.794,4.7-.392,5.578,0,10.949a25.384,25.384,0,0,0,2.738,10.949,21.454,21.454,0,0,0,8.212,8.213c-11.2,7.341-17.839,7.2-21.9,5.474-5.792-2.459-5.563-7.8-13.687-13.687-3.276-2.372-11.282-8.171-19.162-5.474-7.958,2.723-10.6,12.338-10.949,13.687a22.307,22.307,0,0,0,0,10.949,16.769,16.769,0,0,0-8.212-2.737c-9.943-.446-18.34,9.322-21.9,16.424-2.037,4.063-3.466,9.2-5.475,16.424-1.44,5.178-1.491,6.311-2.738,8.213-.941,1.435-4.363,6.05-16.424,8.212-13.341,2.391-15.65-2.1-27.374,0a47.9,47.9,0,0,0-19.161,8.212,46.661,46.661,0,0,0-16.425,19.161,43.218,43.218,0,0,0-2.558,7.454c-2.759-2.392-3.638-7.159-2.574-10.8,1.381-4.726,5.334-5.187,5.475-8.212.125-2.71-2.919-5.122-13.687-10.949-15.973-8.644-19.661-8.957-21.9-13.687-2.5-5.293.748-7.789-2.738-13.687-.823-1.393-4.367-6.944-10.949-8.212a14.731,14.731,0,0,0-5.475,0c6.124-24.066,2.117-33.851-2.737-38.323-3.55-3.271-5.657-1.954-21.9-8.213-14.1-5.431-14.983-7.375-21.9-8.212a48.457,48.457,0,0,0-21.9,2.738c-10.365,4.012-13.3,9.75-19.161,8.212-3.962-1.039-7.036-4.816-8.212-8.212-1.669-4.82,1.131-7,0-10.95-.382-1.331-1.893-5.242-19.162-10.95-11.133-3.679-16.7-5.518-24.636-5.474-5.7.031-14.108.078-21.9,5.474a30.237,30.237,0,0,0-8.212,8.213c-2.395,3.617-2.482,5.593-5.475,10.949-2.695,4.826-4.043,7.239-5.474,8.212-6.848,4.659-15.2-4.143-27.374,0a39.756,39.756,0,0,0-5.475,2.738c-12.182,6.668-21.6,11.823-27.374,21.9-4.5,7.848-5.193,15.9-5.474,19.161a95.908,95.908,0,0,0,0,16.424c.377,3.587.733,4.527,0,5.475-3.282,4.249-16.211-7.09-27.374-2.737-8.354,3.258-6.068,11.541-16.424,16.424-7.862,3.707-13.242.85-16.425,5.475-2,2.9-.529,4.975-2.737,13.687-1.2,4.746-1.8,7.118-2.738,8.212-5.512,6.46-18.917-2.78-41.06,0-8.959,1.125-13.517,3.485-16.425,5.475-1.895,1.3-8.323,5.7-10.949,13.687-1.48,4.5-.987,9.39,0,19.162.856,8.473,1.929,11.024,0,13.686-2.6,3.586-6.438,1.57-10.95,5.475-5.549,4.8-5.493,12.835-5.474,13.687.08,3.758,1.879,7.119,5.474,13.687,5.785,10.569,8.538,12.254,8.213,16.424-.454,5.8-6.335,9.7-8.213,10.95-12.744,8.462-30.209,1.111-32.848,0-6.081-2.559-4.488-3.407-13.687-8.212-10.2-5.331-18.093-9.45-27.374-8.212-3.247.433-9.555,1.907-16.424,8.212a14.092,14.092,0,0,0-2.738-8.212c-3.586-4.7-9.3-5.3-10.949-5.475-11.217-1.181-20.394,8.987-24.636,13.687-6.311,6.991-8.89,13.758-10.95,19.161-2.657,6.972-5.964,15.647-2.737,21.9.422.82,1.46,2.572,2.737,5.475,1.96,4.457,2.94,6.685,2.737,8.212-.756,5.7-15.251,12.022-27.373,8.212-8.2-2.577-7.279-7.267-16.425-10.949-9.545-3.843-18.466-1.92-27.374,0-11.723,2.527-15.2,6.575-16.424,8.212a17.758,17.758,0,0,0-2.737,5.475c-13.041,1.406-23.229,2.237-30.111,2.737-8.877.645-14.919.933-19.162,5.475-3.864,4.135-1.893,7.149-5.475,10.95-7.129,7.566-22.689,3.854-27.374,2.737-9.281-2.214-10.807-5-19.161-8.212-15.913-6.125-30.767-3.88-38.324-2.738-23.689,3.581-21.858,13.794-38.323,13.687-13.636-.088-17.683-7.111-43.8-10.949-5.933-.872-10.74-1.247-16.424,0-2.763.606-5.646,1.575-19.162,8.212-8.315,4.083-8.541,4.362-10.95,5.475-2.728,1.26-30.09,13.468-52.01,2.737-3.4-1.663-3.337-2.249-5.475-2.737-9.6-2.193-15.836,8.468-32.848,16.424A64.214,64.214,0,0,1,197.14,600.9c-13.529,2.45-24.619-.474-32.848-2.738-15.022-4.131-13.639-7.082-27.374-10.949-9.393-2.645-21.722-6.116-35.586-2.738-13.567,3.307-13.735,9.549-27.374,10.95-2.531.26-2.6.053-21.9,0-8.315-.023-12.473-.034-13.687,0-11.591.325-36.935,2.97-38.323,10.95-.468,2.689,2.426,5.442,8.212,10.949,2.636,2.509,10.078,9.59,19.162,13.687,11.628,5.244,18.569,2.27,54.747,0,23-1.443,28.584-.767,32.849,0,12.949,2.33,15.717,5.855,30.111,10.949,6.949,2.46,29.856,10.344,54.748,8.213,16.144-1.383,16.772-5.579,38.323-10.95,14.08-3.509,30.565-4.212,62.96-5.475,37.677-1.468,56.515-2.2,71.172,0,11.178,1.681,23.876,4.77,49.273,10.95,22.151,5.39,31.125,8.213,46.535,8.212,4.467,0,8.668-.192,12.439-.472a53.456,53.456,0,0,0,7.559,4.236c11.628,5.244,18.57,2.27,54.748,0,8.844-.555,15.106-.795,19.715-.839,11.079,6.313,13.249,11.878,25.984,16.237,14.15,4.842,28.023,3.634,38.128,1.424a119.506,119.506,0,0,0,33.88,2.34c10.71-.917,14.6-3.073,22.286-5.988a38.35,38.35,0,0,0,9.727,4.961c13.077,4.417,24.975.318,41.06-5.475a100.01,100.01,0,0,0,20.3-9.611c2.53-.1,5.159-.2,7.91-.311,37.677-1.469,56.516-2.2,71.172,0,11.179,1.68,23.877,4.77,49.273,10.949,22.151,5.39,31.126,8.213,46.536,8.212a164.318,164.318,0,0,0,30.11-2.737c12.24-2.543,15.425-5.054,24.637-5.475,2.759-.126,11.9-.331,27.374,5.475,23.059,8.65,21.9,16.278,38.323,21.9,23.248,7.956,45.767-.416,52.011-2.737a87.644,87.644,0,0,0,27.373-16.425c3.236,5.721,10.9,17.261,24.637,21.9,13.077,4.417,24.976.319,41.061-5.474,23.546-8.481,23.148-14.373,43.8-21.9,20.845-7.6,38.947-8.043,49.273-8.213,18.312-.3,31.954,2.491,46.535,5.475,21.4,4.38,21.893,6.883,41.061,10.95,24.323,5.16,43.6,5.386,57.485,5.474,28.194.181,42.291.272,54.747-5.474,7.482-3.451,12.487-7.348,21.9-8.212,14.432-1.326,25.637,5.723,30.112,8.212,33.371,18.56,89.051,4.1,125.919-5.475,17.262-4.483,17.575-6.141,47.944-15.466,6.651-.322,14.175-.62,22.849-.958,37.676-1.469,56.515-2.2,71.172,0,11.178,1.68,23.876,4.77,49.272,10.949,22.152,5.39,31.126,8.213,46.536,8.212a164.336,164.336,0,0,0,30.111-2.737c12.239-2.543,15.425-5.054,24.636-5.475,2.76-.126,11.9-.331,27.374,5.475,23.059,8.65,21.9,16.278,38.324,21.9,23.248,7.956,45.766-.416,52.01-2.737a87.664,87.664,0,0,0,27.374-16.425c3.235,5.721,10.9,17.261,24.636,21.9,13.078,4.417,24.976.319,41.061-5.474,23.546-8.481,23.148-14.373,43.8-21.9a133.187,133.187,0,0,1,31.122-7.191c2.162,5.688,15.127,9.1,27.219,7.751,8.205-.914,14.712-3.875,19.987-6.608,5.916.949,11.625,2.112,17.48,3.31.462.1.9.187,1.343.28a5.775,5.775,0,0,0,2.25,3.018c2.446,1.675,5.422,1.277,9.576-.2,9.752,2.688,13.721,4.84,27.892,7.847a261.316,261.316,0,0,0,53.927,5.446c.754,3.306,2.055,6.7,4.414,8.8,5.084,4.53,12.687.945,21.9,0,19.273-1.976,32.172-46.342,48.494-35.8,18.306,11.82,18.893,18.6,32.849,21.9,3.5.827,17.692,4.18,30.111-2.738,5.933-3.305,5.346-5.547,10.95-8.212,9.849-4.684,16.1.135,30.111,0,4.518-.043,13.962-2.766,32.848-8.212,16.269-4.691,15.327-4.889,27.374-8.212,18-4.965,30.51,47.517,39.1,46.752,11.153-.993,14.6.3,21.9-2.737,1.479-.616,16.862-7.212,16.424-16.425-.3-6.342-7.942-10.535-13.687-13.686a46.185,46.185,0,0,0-25.62-5.632c5.22-1.65,11.515-3.579,19.29-5.879,25.868-7.651,39.067-11.52,52.01-13.687,8.233-1.377,28.849-4.349,76.647,0,57.951,5.273,54.591,12.092,95.808,13.687,15.942.617,38-.5,82.122-2.737,32.467-1.646,30.194-2.128,49.273-2.738,43.186-1.379,64.78-2.069,82.121,0a219.971,219.971,0,0,0,49.273,0c12.63-1.416,20.559-3.463,21.9-8.212C3210.3,637.378,3201.992,630.523,3200.505,629.3Z" fill="#f6eff6"/>
    <path d="M2930.8,691.412c-10.589-8.739-17.835-3.469-30.112-10.949-10.353-6.308-8.561-12.1-19.161-16.425-6.867-2.8-13.5-2.766-19.162-2.737a71.155,71.155,0,0,0-19.162,2.737c-1.8-18.816-9.685-28.686-13.687-32.848-6.388-6.646-18.858-10.818-43.8-19.162-17.017-5.694-20.931-5.872-24.636-5.475-9.756,1.045-12.588,5.486-27.374,8.212-8.967,1.654-13.978,2.508-19.162,0-7.5-3.629-6.173-9.853-13.687-16.424-5.886-5.148-13.049-6.169-27.374-8.212-9.692-1.382-18.859-2.69-30.111,0-9.155,2.188-8.875,4.437-16.424,5.475-13.59,1.867-24.752-4.011-27.374-5.475-8.512-4.753-8.074-8.233-19.161-16.424-4.591-3.392-10.7-7.907-19.162-10.95-17.564-6.318-34.191-2.314-43.8,0a101.483,101.483,0,0,0-16.425,5.475c-1.59-.584-16.787-6.406-19.161-19.162-1.28-6.877,1.565-13.638,2.738-16.424,2.229-5.3,3.9-5.661,8.211-13.687,3.441-6.4,5.161-9.608,5.476-13.687.67-8.712-4.692-15.466-5.476-16.424-1.344-1.645-4.448-4.975-24.636-10.95-12.687-3.754-19.03-5.631-24.636-5.474-7.73.216-20.593,2.5-21.9,2.737-7.1,1.275-10.824,2.318-13.687,0-2.892-2.341-3.823-7.234-2.738-10.95,1.382-4.726,5.335-5.187,5.475-8.212.126-2.71-2.918-5.122-13.687-10.949-15.973-8.644-19.661-8.957-21.9-13.687-2.5-5.293.748-7.789-2.737-13.687-.824-1.393-4.368-6.944-10.95-8.212a14.731,14.731,0,0,0-5.475,0c6.124-24.066,2.118-33.851-2.737-38.324-3.549-3.27-5.656-1.954-21.9-8.212-14.1-5.431-14.982-7.375-21.9-8.212a48.454,48.454,0,0,0-21.9,2.738c-10.366,4.012-13.3,9.75-19.162,8.212-3.961-1.039-7.036-4.816-8.212-8.212-1.669-4.82,1.132-7,0-10.95-.381-1.331-1.893-5.242-19.162-10.949-11.133-3.68-16.7-5.519-24.636-5.475-5.7.031-14.108.078-21.9,5.475a30.2,30.2,0,0,0-8.212,8.212c-2.395,3.617-2.482,5.593-5.475,10.949-2.7,4.826-4.044,7.239-5.474,8.212-6.849,4.659-15.2-4.143-27.374,0a39.642,39.642,0,0,0-5.475,2.738c-12.183,6.668-21.6,11.823-27.374,21.9-4.5,7.848-5.193,15.9-5.475,19.161a96.03,96.03,0,0,0,0,16.424c.378,3.587.733,4.527,0,5.475-3.281,4.249-16.211-7.091-27.374-2.737-8.353,3.258-6.068,11.541-16.424,16.424-7.862,3.707-13.241.85-16.424,5.475-2,2.9-.53,4.974-2.738,13.687-1.2,4.746-1.8,7.118-2.737,8.212-5.513,6.459-18.917-2.78-41.061,0-8.959,1.125-13.516,3.485-16.424,5.475-1.895,1.3-8.324,5.7-10.949,13.687-.974,2.96-1.085,6.115-.773,10.682a17.31,17.31,0,0,1-11.751,3.129c-13.28-1.218-23.352-14.7-24.635-16.425-5.362-7.179-3.578-9.561-8.213-13.686-8.288-7.379-22.923-7.712-32.848-2.738-2.031,1.017-6.829,5.241-16.425,13.687-8.611-10.689-9.337-11.38-10.949-13.687a65.925,65.925,0,0,1-10.95-27.374c-1.51-10.476,1.5-10.4,0-21.9A61.3,61.3,0,0,0,1850.7,395.9c-6.917-11.289-11.926-9.909-13.686-16.424-4.1-15.168,20.878-30.661,16.423-38.324-2.421-4.166-9.9.238-21.9-5.475-7.909-3.767-12.94-9.629-16.424-13.687-8.607-10.027-5.848-12.741-10.949-16.424-12.073-8.716-27.547,6.466-41.061-2.737-2.747-1.871-4.764-4.307-13.687-10.95-4.561-3.395-6.869-5.1-8.212-5.475-9.5-2.649-14.582,9.056-24.637,8.213-7.567-.635-7.443-7.5-21.9-16.425a61.341,61.341,0,0,0-19.162-8.212c-6.579-1.494-21.114-4.794-30.111,2.738-7.11,5.952-4.242,13.213-10.949,16.424-3.581,1.714-9.735.253-21.9-2.738-11.409-2.805-13.311-4.076-16.424-2.737-5.991,2.578-9.31,11.747-8.212,19.162,1.7,11.458,13.944,18.78,19.161,21.9,8.16,4.878,13.432,5.14,13.687,8.212.352,4.245-9.288,8.923-16.424,10.949-11.585,3.29-15.091-.825-24.637,2.738-1.747.652-11.777,4.4-16.424,13.687-1.81,3.618-1.485,5.442-2.737,24.636-.844,12.923-1.153,14.574-2.738,16.424-1.667,1.947-4.093,3.35-21.9,5.475-12.833,1.532-14.344,1.133-19.161,2.738-5.8,1.931-12.831,4.272-16.425,10.949-4.212,7.825-.975,16.536,0,19.162,3.179,8.557,10.03,13.686,13.687,16.424,5.224,3.912,6.105,2.909,8.212,5.475,6.5,7.912,1.818,21.933,0,27.374-4.167,12.477-8.651,13.2-10.949,21.9-1.664,6.293-1.993,16.047,5.475,30.111a70.457,70.457,0,0,0-38.324-5.475,21.674,21.674,0,0,0,10.95-10.949c.36-.839,3.721-8.992,0-16.425-4.493-8.973-13.693-5.684-21.9-16.424-1.392-1.821-6.564-8.59-5.475-16.424.619-4.457,2.611-4.552,2.737-8.212.224-6.484-5.823-12-13.687-19.162-6.144-5.6-7.642-5.645-8.212-8.212-1.267-5.708,5.476-8.464,8.212-19.162.915-3.574,2.224-8.693,0-13.687-4.093-9.192-16.919-10.688-19.161-10.949a31.191,31.191,0,0,0-16.425,2.737,31.5,31.5,0,0,0-13.686,10.95c-2.362,3.478-3.4,6.881-5.475,13.686a110.153,110.153,0,0,0-2.737,10.95c-2.844-9.822-7.345-14.223-10.95-16.424-2.4-1.463-4.162-1.812-21.9-8.212-2.695-.973-4.071-1.485-5.475-2.738l-.014-.013a18.324,18.324,0,0,0-2.807-4.419c-1.033-3.24-.913-7.137-2.654-11.992-.964-2.69-3.96-11.049-10.949-13.687-6.657-2.513-14.817.965-19.162,5.475-2.866,2.975-4.909,7.27-6.361,11.067a6.9,6.9,0,0,1-.895.01c-8.93-.474-9.745-14.071-19.162-16.424-5.157-1.289-10.738,1.878-21.9,8.212-3.973,2.254-6.657,4.124-8.763,5.519-.134-.058-.265-.116-.405-.172a24.074,24.074,0,0,0-13.257-1.04c-1.933-2.459-3.688-5.437-7.686-7.045-9.686-3.894-25.128,3.237-30.111,13.687-2.217,4.648-2.39,10.4-2.737,21.9-.1,3.42-.06,6.259,0,8.212-1.06-1.913-8.164-14.284-21.9-16.424-9.391-1.463-16.8,2.648-21.9,5.475-3.465,1.922-11.683,6.627-16.424,16.424a33.894,33.894,0,0,0-2.737,8.212c-7.868-7.984-18.537-11.364-27.374-8.212-7.875,2.809-11.641,9.858-13.687,13.687-1.136,2.127-7.974,14.924-2.737,24.637,3.01,5.584,7.837,6.115,8.212,10.949.333,4.3-3.378,5.21-5.475,10.95-3.695,10.114,4.01,17.732,0,21.9-1.842,1.913-3.586.431-13.687,2.737-4.574,1.044-6.86,1.566-8.212,2.737-5.65,4.9-1.226,18.4,0,21.9-.989-1.852-5.865-10.509-16.424-13.687-.764-.23-12.22-3.492-21.9,2.737-8.445,5.434-8.981,13.872-13.687,13.687-3.79-.15-4.006-5.645-10.95-10.95-1.922-1.468-9.375-7.162-16.424-5.474-3.128.748-4.643,2.584-16.425,19.161-6.993,9.841-7.1,10.09-8.212,10.95-7.993,6.16-14.024,2.109-24.636,8.212-3.646,2.1-8.866,5.1-10.95,10.95-3.574,10.038,4.752,20.975,5.475,21.9,5.493,7.019,10.809,7.05,10.95,10.95.209,5.769-11.148,13.317-19.162,10.95-5.741-1.7-6.268-7.447-10.949-8.213-3.57-.583-8.791,1.856-16.425,13.687-9.887-2.591-24.944-4.763-41.06,0-10.113,2.989-19.243,5.687-27.374,13.687-3.946,3.882-6.228,7.607-10.95,8.212-5.491.7-6.872-3.761-16.424-8.212-11.224-5.23-22.927-5.407-27.374-5.475-5.736-.087-5.541.594-8.212,0-2.919-.648-8.146-2.569-19.162-16.424-6.74-8.477-5.136-8.2-8.212-10.949-10.057-8.984-23.15-8.311-24.636-8.213a34.884,34.884,0,0,0-16.425,5.475c.557-2.913,2.728-16-5.474-27.373a34.016,34.016,0,0,0-13.687-10.95c-8.343-3.844-15.693-3.395-24.637-2.738a102.752,102.752,0,0,0-38.323,10.95c-7.265,3.816-7.385,5.082-10.95,5.475-10.928,1.2-14.9-10.134-30.111-13.687-3.414-.8-14.03-3.278-21.9,2.737a22.367,22.367,0,0,0-8.212,16.425c-.327,8.578,5.066,11.769,2.737,16.424-1.762,3.523-5.031,2.05-13.686,8.212-5.513,3.924-7.4,6.809-8.213,8.212a21.968,21.968,0,0,0-2.737,8.212c-8.5-3.98-24.574-10.022-43.8-8.212-7.054.664-18.336,1.726-30.111,8.212-4.6,2.534-6.328,4.272-10.95,5.475-7.627,1.986-12.468-.262-24.636-2.737-13.481-2.742-20.222-4.113-24.637-2.738-9.026,2.813-7.192,8.9-21.9,19.162-6.542,4.564-9.4,5.1-16.424,10.95-6.668,5.553-11.187,9.317-10.95,13.686.425,7.8,15.756,12.682,19.162,13.687,12.008,3.543,19.213,1.227,49.273-2.737,17.591-2.32,26.515-3.465,32.849-2.737,3.4.39,8.734,1.23,35.585,10.949,25.24,9.136,23.448,9.452,30.112,10.95a97.848,97.848,0,0,0,43.8,0c16.438-4.1,15.118-9.125,30.111-13.687,12.367-3.764,23-3.306,60.222,2.737,34.2,5.552,31.274,6.149,46.536,8.212,31.087,4.2,58.647,7.93,90.333,0,13.741-3.439,20.006-7,35.586-8.212,12.343-.956,22.084.262,41.061,2.737,2.323.3,4.472.6,6.49.893-14.829,15.018-26.884,16.026-26.607,23.616.281,7.738,13.074,14.048,21.9,16.425,25.413,6.844,53.069-9.468,60.222-13.687,11-6.488,17.585-12.882,30.111-13.687a51.86,51.86,0,0,1,19.162,2.737c10.791,3.671,10.219,7.458,19.161,10.95,12.766,4.984,26.725,2.262,38.324,0,9.7-1.891,11.038-3.5,16.424-2.738,11.218,1.588,34.667,5.123,37.478,8.308,7.493,8.488,5.172,11.512,10.95,16.424,9.625,8.183,8.163,11.7,14.532,10.854,4.126-.545,18.247-2.9,30.111-13.687,7.428-6.751,6.948-10.423,13.687-13.687a29.453,29.453,0,0,1,24.637,0c7.478,3.584,6.586,7.706,16.424,13.687,5.724,3.481,10.785,6.558,16.424,5.475,6.54-1.256,7.4-6.869,16.424-13.687,2.159-1.631,8.687-6.565,16.425-8.212,12.293-2.617,17.128,5.3,41.06,10.95,10.222,2.413,15.333,3.619,21.9,2.737a30.893,30.893,0,0,0,7.624-1.971c10.694,2.928,26.5,6.017,43.222,4.584,11.644-1,15.248-3.462,24.421-6.772,5.112.489,11.492.878,20.542,1.422,28.446,1.709,42.856,2.457,52.01-2.738,5.441-3.087,7.021-5.653,12-8.634,32.605-1.259,49.86-1.749,63.48.3,11.179,1.681,23.877,4.77,49.273,10.95,22.151,5.39,31.126,8.213,46.536,8.212a164.442,164.442,0,0,0,30.111-2.737c12.239-2.543,15.425-5.054,24.636-5.475,2.759-.126,11.9-.332,27.374,5.474,23.059,8.651,21.9,16.279,38.323,21.9,23.248,7.956,45.767-.416,52.011-2.738a87.626,87.626,0,0,0,27.373-16.424c3.236,5.721,10.906,17.261,24.637,21.9,13.077,4.417,24.976.318,41.061-5.475,23.546-8.48,23.148-14.372,43.8-21.9,20.846-7.6,38.946-8.043,49.272-8.212,18.313-.3,31.955,2.491,46.536,5.475,21.4,4.379,21.894,6.883,41.061,10.949,24.323,5.16,43.6,5.386,57.485,5.475,28.194.181,42.292.271,54.747-5.475,7.482-3.451,12.487-7.347,21.9-8.212,14.43-1.326,25.636,5.724,30.111,8.212,33.371,18.561,89.051,4.1,125.919-5.475,19.328-5.019,17.4-6.5,60.223-19.161,25.868-7.651,39.067-11.521,52.01-13.687,8.233-1.378,28.848-4.349,76.647,0,57.951,5.273,54.591,12.092,95.808,13.687,15.941.617,38-.5,82.121-2.738,32.468-1.645,30.194-2.127,49.273-2.737,43.187-1.38,64.78-2.069,82.122,0a220.036,220.036,0,0,0,49.273,0c12.629-1.416,20.559-3.464,21.9-8.212C2940.59,699.5,2932.283,692.639,2930.8,691.412Z" fill="#c0cfe6"/>
    <path d="M3140.56,665.279c-11.631-4.778-17.284,1.848-27.374-2.737-8.661-3.935-7.8-10.315-16.424-16.424-10.772-7.627-24.116-6.033-30.112-5.475-15.95,1.485-19.521,8.422-34.217,6.843a90.012,90.012,0,0,1-13.687-2.737c-9.163-2.688-11.985-5.336-19.161-5.475-5.266-.1-6.389,1.272-8.213,0-4.722-3.293,1.673-13.3-2.737-21.9-3.314-6.462-10.93-8.619-19.162-10.949-14.917-4.224-18.14.6-30.111-2.738-13.7-3.823-12.457-10.979-27.374-16.424-4.319-1.577-22.413-8.181-32.848,0-5.272,4.133-3.4,7.969-13.687,27.374-5.155,9.719-7.511,12.31-10.95,13.687a14.4,14.4,0,0,1-1.708.546c-4.172-2.667-9.26-3.888-16.9-5.093a8.518,8.518,0,0,1-.551-.928c-2.776-5.531,1.4-12.432,5.474-19.162,6.455-10.664,11.681-11.523,16.425-21.9,2.5-5.471,4.478-9.8,2.737-13.687-3.7-8.257-19.683-4.6-21.9-10.949-1.613-4.623,6.043-8.892,16.424-24.637,6.328-9.6,9.466-14.491,8.212-19.161-2.564-9.552-20.305-16.042-30.111-10.95-4.294,2.23-5.163,5.693-8.212,5.475-5.288-.379-8.6-11.221-10.949-19.162-2.383-8.055-3.879-16.082-5.475-30.111-2.259-19.853-1.525-23.639-5.475-27.374-6.05-5.719-17.074-5.631-24.637-2.737-11.178,4.277-11.75,13.519-19.161,13.687-9.317.211-12.477-14.3-21.9-13.687-6.914.453-8.845,8.506-16.424,8.212-5.41-.21-6.047-4.375-10.95-5.475-12.951-2.905-25.991,22.233-32.848,19.162-3.826-1.713.161-9.569-5.475-16.424-5.975-7.268-14.288-3.1-21.9-10.95-5.662-5.838-3.207-10.353-8.212-13.687-7.453-4.963-23.521-2.034-27.374,8.212-2.677,7.119,1.578,15.012,5.474,19.162a22.231,22.231,0,0,0,8.213,5.475,45.814,45.814,0,0,0-8.213,10.949,46.735,46.735,0,0,0-5.474,21.9c-4.59-.238-20.841-.519-35.586,10.95a52.694,52.694,0,0,0-16.1,21.118c-2.417-2.5-3.147-6.951-2.141-10.4,1.382-4.727,5.335-5.187,5.475-8.213.126-2.71-2.918-5.122-13.687-10.949-15.973-8.644-19.661-8.957-21.9-13.687-2.5-5.293.748-7.789-2.737-13.687-.823-1.393-4.367-6.944-10.95-8.212a14.753,14.753,0,0,0-5.475,0c6.124-24.066,2.117-33.851-2.737-38.323-3.549-3.271-5.656-1.954-21.9-8.213-14.1-5.431-14.982-7.375-21.9-8.212a48.454,48.454,0,0,0-21.9,2.738c-10.366,4.012-13.3,9.75-19.162,8.212-3.961-1.039-7.036-4.816-8.212-8.212-1.669-4.82,1.132-7,0-10.95-.381-1.331-1.893-5.242-19.161-10.949-11.133-3.68-16.7-5.519-24.637-5.475-5.7.032-14.108.078-21.9,5.475a30.2,30.2,0,0,0-8.212,8.212c-2.395,3.618-2.482,5.593-5.475,10.949-2.7,4.826-4.044,7.239-5.475,8.212-6.847,4.659-15.2-4.142-27.374,0a39.763,39.763,0,0,0-5.474,2.738c-12.183,6.668-21.6,11.823-27.374,21.9-4.5,7.848-5.193,15.9-5.475,19.162a96.021,96.021,0,0,0,0,16.423c.378,3.587.733,4.527,0,5.476-3.282,4.248-16.211-7.091-27.374-2.738-8.354,3.258-6.067,11.541-16.424,16.425-7.861,3.706-13.241.849-16.424,5.474-2,2.9-.53,4.975-2.738,13.687-1.2,4.746-1.8,7.119-2.737,8.212-5.513,6.46-18.917-2.78-41.061,0-8.958,1.125-13.516,3.485-16.424,5.475-1.895,1.3-8.324,5.7-10.949,13.687-1.481,4.5-.987,9.39,0,19.162.855,8.473,1.928,11.025,0,13.687-2.6,3.585-6.439,1.569-10.95,5.474-5.549,4.8-5.493,12.835-5.475,13.687.08,3.758,1.88,7.119,5.475,13.687,5.785,10.569,8.538,12.254,8.212,16.424-.453,5.8-6.334,9.7-8.212,10.95-12.744,8.462-30.21,1.111-32.849,0-6.08-2.559-4.487-3.407-13.686-8.212-10.206-5.33-18.093-9.45-27.374-8.212-3.247.433-9.555,1.907-16.425,8.212a14.094,14.094,0,0,0-2.737-8.212c-3.586-4.7-9.3-5.3-10.95-5.475-11.216-1.181-20.394,8.987-24.636,13.687-6.31,6.991-8.89,13.758-10.95,19.162-.875,2.3-1.816,4.778-2.576,7.3a19.641,19.641,0,0,0-4.5-4.309c-5.87-4.2-10.078-1.872-14.427-6.183a16.39,16.39,0,0,1-4.121-8.244c-1.187-5.176.67-6.988,0-10.3-1.348-6.662-11.5-12.508-20.61-12.366-11.113.174-12.847,9.145-22.67,8.244-10-.917-17.581-11.071-18.548-12.366-4.036-5.405-2.694-7.2-6.183-10.3-6.239-5.555-17.258-5.806-24.731-2.061-1.528.766-5.141,3.945-12.365,10.3-6.484-8.048-7.03-8.569-8.244-10.3a49.636,49.636,0,0,1-8.244-20.609c-1.137-7.888,1.126-7.832,0-16.488a46.16,46.16,0,0,0-6.182-18.548c-5.208-8.5-8.979-7.46-10.305-12.365-3.086-11.419,15.719-23.084,12.365-28.853-1.823-3.136-7.457.179-16.487-4.122-5.955-2.836-9.743-7.249-12.365-10.305-6.481-7.549-4.4-9.592-8.244-12.365-9.089-6.562-20.739,4.868-30.914-2.061-2.068-1.409-3.586-3.243-10.3-8.244-3.434-2.556-5.172-3.84-6.183-4.122-7.156-1.994-10.978,6.818-18.548,6.183-5.7-.478-5.6-5.644-16.488-12.365a46.162,46.162,0,0,0-14.426-6.183c-4.954-1.125-15.9-3.609-22.67,2.061-5.353,4.481-3.194,9.948-8.244,12.365-2.7,1.291-7.33.191-16.487-2.061-8.59-2.112-10.022-3.069-12.366-2.06-4.51,1.94-7.009,8.843-6.183,14.426,1.277,8.626,10.5,14.139,14.427,16.487,6.143,3.673,10.112,3.87,10.3,6.183.266,3.2-6.992,6.718-12.365,8.244-8.722,2.477-11.362-.622-18.548,2.061-1.316.491-8.867,3.309-12.366,10.3-1.362,2.724-1.118,4.1-2.061,18.548-.635,9.73-.867,10.973-2.061,12.366-1.255,1.465-3.081,2.522-16.487,4.122-9.662,1.153-10.8.853-14.426,2.061-4.368,1.454-9.66,3.217-12.366,8.243-3.171,5.892-.735,12.45,0,14.427,2.394,6.442,7.551,10.3,10.305,12.365,3.933,2.945,4.6,2.191,6.182,4.122,4.894,5.957,1.369,16.513,0,20.609-3.137,9.394-6.513,9.941-8.243,16.488-1.253,4.738-1.5,12.081,4.122,22.67a53.046,53.046,0,0,0-28.853-4.122,16.319,16.319,0,0,0,8.243-8.244c.272-.631,2.8-6.769,0-12.365-3.382-6.756-10.309-4.28-16.487-12.366-1.048-1.371-4.942-6.467-4.122-12.365.467-3.355,1.966-3.427,2.061-6.183.169-4.882-4.384-9.031-10.305-14.426-4.626-4.217-5.753-4.251-6.182-6.183-.954-4.3,4.122-6.373,6.182-14.427.689-2.69,1.675-6.544,0-10.3-3.081-6.921-12.738-8.047-14.426-8.244a23.482,23.482,0,0,0-12.365,2.061,23.724,23.724,0,0,0-10.305,8.244c-1.778,2.618-2.56,5.18-4.122,10.3a83.219,83.219,0,0,0-2.061,8.244c-2.141-7.395-5.529-10.708-8.244-12.366-1.8-1.1-3.133-1.364-16.487-6.182a11.3,11.3,0,0,1-4.122-2.061c-3.359-3-2.152-6.87-4.122-12.366-.726-2.025-2.982-8.318-8.243-10.3-5.012-1.892-11.156.726-14.427,4.121-3.3,3.431-5.161,9.2-6.182,12.366-.628,1.948-.867,3.142-2.061,4.122-2.16,1.772-5.09.912-10.3,0-10.825-1.893-10.651-.367-14.426-2.061-6.172-2.77-4.815-6.034-10.3-8.244-7.447-3-15.614.724-18.548,2.061-2.516,1.147-4.429,2.045-6.183,4.122-3.3,3.911-4.523,10.209-2.061,14.426a9.643,9.643,0,0,0,1.839,2.225c-.489.035-.98.072-1.479.147-4.07.607-4.249,1.96-6.769,1.6-7.111-1.025-6.781-11.963-14.146-14.527-4.034-1.4-8.728.727-18.117,4.99-8.243,3.742-10.1,6.213-13.736,5.385-5.187-1.181-4.673-6.947-10.161-9.751-7.469-3.816-20.341.775-25.083,8.777-2.11,3.559-2.664,8.148-3.773,17.326-.329,2.729-.5,5-.593,6.571-.709-1.608-5.5-12.02-16.337-14.724-7.409-1.85-13.637.9-17.919,2.8-2.912,1.288-9.827,4.459-14.329,11.956a27.279,27.279,0,0,0-2.784,6.373c-5.719-6.957-14.012-10.432-21.311-8.548-6.5,1.678-10.027,7.046-11.941,9.963-1.063,1.62-7.459,11.365-3.97,19.516,2.006,4.686,5.83,5.46,5.781,9.355-.044,3.463-3.08,3.925-5.172,8.366-3.688,7.827,1.928,14.48-1.582,17.524-1.612,1.4-2.9.086-11.15,1.2-3.735.5-5.6.757-6.769,1.6-4.875,3.509-2.31,14.633-1.582,17.523a22.888,22.888,0,0,0-12.154-12.138c-.594-.239-9.526-3.677-17.721.608-7.15,3.738-8.189,10.452-11.941,9.964-3.022-.394-2.8-4.807-7.971-9.553-1.432-1.314-6.984-6.408-12.747-5.568-2.557.374-3.9,1.733-14.527,14.147-6.307,7.369-6.406,7.561-7.362,8.169-6.841,4.352-11.374.674-20.307,4.791-3.069,1.415-7.463,3.44-9.553,7.971-3.586,7.775,2.287,17.128,2.8,17.919,3.889,6.013,8.14,6.422,7.971,9.553-.25,4.631-9.883,9.85-16.124,7.377-4.471-1.772-4.478-6.411-8.169-7.362-2.814-.725-7.168.85-14.131,9.766-7.724-2.788-19.616-5.614-32.856-2.967-8.308,1.661-15.809,3.161-22.893,8.975-3.438,2.822-5.533,5.637-9.355,5.781-4.445.166-5.228-3.507-12.55-7.758-8.6-5-17.955-5.983-21.509-6.358-4.584-.484-4.476.074-6.571-.594-2.289-.729-6.333-2.644-14.147-14.526-4.781-7.271-3.517-6.934-5.78-9.355-7.4-7.915-17.924-8.323-19.121-8.351a28.02,28.02,0,0,0-13.538,3.194c.656-2.291,3.339-12.606-2.4-22.3a27.338,27.338,0,0,0-10.161-9.75c-6.4-3.679-12.312-3.85-19.516-3.97a82.533,82.533,0,0,0-31.458,5.993c-6.089,2.528-6.276,3.533-9.157,3.59-8.832.175-11.195-9.186-23.106-13.127-2.674-.885-10.99-3.637-17.721.608a17.97,17.97,0,0,0-7.758,12.55c-.881,6.84,3.2,9.783,1,13.34-1.665,2.692-4.174,1.277-11.545,5.582-4.694,2.742-6.413,4.914-7.165,5.978a17.645,17.645,0,0,0-2.783,6.374c-6.513-3.8-18.941-9.795-34.454-9.735-5.692.022-14.8.057-24.688,4.4-3.864,1.695-5.372,2.961-9.157,3.59-6.247,1.038-9.958-1.111-19.516-3.97-10.59-3.168-15.884-4.752-19.517-3.97-7.426,1.6-6.4,6.6-18.907,13.751-5.565,3.179-7.889,3.4-13.934,7.575-5.736,3.962-9.625,6.648-9.75,10.161-.224,6.274,11.691,11.286,14.344,12.337,9.353,3.7,15.285,2.369,39.626,1.369,14.243-.586,21.467-.858,26.483.182,2.691.558,6.9,1.615,27.684,11.332,19.537,9.134,18.08,9.258,23.3,10.937a78.611,78.611,0,0,0,35.047,3.164c13.45-2.091,12.757-6.209,25.083-8.777,10.168-2.118,18.645-.984,47.992,6.541,26.962,6.913,24.581,7.179,36.644,9.933,24.573,5.609,46.357,10.582,72.285,6.525,11.243-1.759,16.514-4.16,29.069-4,9.945.126,17.651,1.8,32.658,5.156,26.853,6,26.514,8.7,34.652,7.545,8.961-1.272,9.858-4.617,32.05-12.565,8.343-2.988,12.515-4.482,15.926-5.187,8.63-1.783,16-1.215,37.676,4.4-12,13.209-22.117,13.722-21.9,19.752.212,5.825,9.844,10.576,16.488,12.365,19.133,5.153,39.954-7.128,45.34-10.3,6.332-3.736,10.728-7.423,16.661-9.225a98.963,98.963,0,0,0,12.931-.792,41.227,41.227,0,0,1,7.5,1.773c8.125,2.764,7.694,5.615,14.427,8.244,9.611,3.752,20.12,1.7,28.853,0,7.3-1.424,8.31-2.635,12.365-2.061,8.446,1.2,14.371,7.907,16.488,10.3,5.641,6.391,3.893,8.668,8.243,12.366,7.247,6.16,17.875,4.755,22.67,4.121a42.9,42.9,0,0,0,22.67-10.3c5.592-5.083,5.231-7.847,10.3-10.3a22.174,22.174,0,0,1,18.548,0c5.631,2.7,4.959,5.8,12.366,10.3,4.31,2.621,8.12,4.937,12.365,4.122,4.924-.946,5.573-5.172,12.366-10.305,1.625-1.228,6.54-4.942,12.365-6.183,9.256-1.97,12.9,3.991,30.914,8.244,7.7,1.817,11.544,2.725,16.488,2.061,11.544-1.551,12.484-8.608,22.67-10.305,8.416-1.4,10.513,2.96,26.792,6.183,5.067,1,10.935,1.356,22.67,2.061,21.416,1.287,32.265,1.85,39.157-2.061,3.79-2.15,5.057-3.961,8.194-6a135.941,135.941,0,0,1,16.305-5.062c1.921-.479,3.89-.9,5.935-1.286.161-.006.317-.016.48-.02,10.348-.25,12.812,2.918,28.853,4.122,5.306.4,8.006.585,10.3,0,5.412-1.379,8.052-4.517,11.35-8.054l6.038-.237c37.676-1.468,56.515-2.2,71.171,0,11.179,1.681,23.877,4.771,49.273,10.95,22.151,5.39,31.126,8.213,46.536,8.212a164.442,164.442,0,0,0,30.111-2.737c12.239-2.543,15.424-5.054,24.636-5.475,2.76-.126,11.9-.332,27.374,5.475,23.059,8.65,21.9,16.278,38.324,21.9,23.247,7.956,45.766-.416,52.01-2.738a87.646,87.646,0,0,0,27.374-16.424c3.235,5.721,10.9,17.261,24.636,21.9,13.077,4.417,24.976.318,41.061-5.475,23.546-8.48,23.148-14.372,43.8-21.9,20.845-7.6,38.947-8.042,49.273-8.212,18.312-.3,31.954,2.491,46.535,5.475,21.4,4.38,21.894,6.883,41.061,10.949,24.323,5.161,43.6,5.386,57.485,5.475,28.195.181,42.292.271,54.748-5.475,7.481-3.451,12.487-7.347,21.9-8.212,14.431-1.325,25.637,5.724,30.111,8.212,33.371,18.561,89.051,4.1,125.919-5.474,19.329-5.02,17.4-6.5,60.223-19.162,25.868-7.651,39.067-11.521,52.01-13.687,2.111-.353,5.044-.811,9.034-1.223a24.885,24.885,0,0,0,3.733,9.663c8.1,12.275,24.961,13.51,27.374,13.687,1.1.08,22.793,1.406,30.111-10.95,2.352-3.97,2.448-8.051,2.617-11.509,1.243.107,2.5.215,3.778.332,8.382.763,15.475,1.558,21.612,2.365,5.293,6.865,6.213,14.1,13.053,17.025,8.476,3.622,19.873-2.012,28.441-9.256,8.38,1.668,17.514,2.965,32.7,3.553,15.942.617,38-.5,82.122-2.737,32.467-1.646,30.193-2.128,49.273-2.738,43.186-1.38,64.78-2.069,82.121,0a220.038,220.038,0,0,0,49.273,0c12.629-1.416,20.559-3.464,21.9-8.212,1.581-5.6-6.726-12.46-8.212-13.687-10.588-8.738-17.834-3.469-30.112-10.949a29.9,29.9,0,0,1-8.892-8.191,19.7,19.7,0,0,1,10.71-2.531c10.534.5,13.146,7.8,21.9,5.475,5.627-1.5,7.336-5.257,13.687-5.475,5.084-.174,6.509,2.151,10.949,2.737,7.555,1,11.908-4.612,21.9-10.949,17.334-10.994,28.02-9.2,28.743-15.056C3154.9,673.667,3146.7,667.8,3140.56,665.279Z" fill="#8ab1d2"/>
    <path d="M2991.852,723.14c-6.176-3.448-8.6-2.4-10.95-5.475-3.341-4.362.095-8.355-2.737-13.687-2.852-5.369-9.4-7.087-13.687-8.212-9.891-2.595-12.113,1.271-21.9,0-3.874-.5-4.652-1.255-24.636-10.949-16.128-7.823-17.247-8.122-19.162-8.212-7.59-.357-9.605,3.422-27.374,10.949-16.523,7-20.26,6.054-21.9,5.475-4.793-1.694-4.751-4.881-13.687-16.424-5.179-6.69-5.5-6.016-16.424-19.162-10.074-12.123-10.868-13.981-10.95-16.424-.192-5.793,3.766-10.543,10.95-19.162,7.551-9.06,10.447-9.5,10.949-13.687,1.042-8.685-10.214-16.692-13.686-19.162-5.608-3.988-11.379-6.243-19.162-8.212-26.511-6.7-38.716-.558-43.8-8.212-3.6-5.421-1.617-14.739,2.737-19.161,3.032-3.08,5.325-1.868,10.95-5.475,2.628-1.686,10.3-6.607,10.949-13.687.729-7.952-7.813-14.149-10.949-16.425-.8-.58-12.087-8.52-24.637-5.474-4.977,1.208-5.048,2.905-8.212,2.737-8.93-.474-9.745-14.071-19.161-16.424-5.158-1.289-10.739,1.878-21.9,8.212-9.8,5.562-11.822,8.831-16.424,8.212-6.562-.883-6.571-8.088-13.687-10.949-9.686-3.895-25.128,3.236-30.111,13.686-2.216,4.649-2.39,10.4-2.737,21.9-.1,3.42-.06,6.259,0,8.213-1.06-1.914-8.163-14.285-21.9-16.425-9.392-1.463-16.8,2.648-21.9,5.475-3.466,1.923-11.683,6.627-16.425,16.425a33.442,33.442,0,0,0-1.846,4.691c-7.675-5.124-16.713-5.7-20.151-5.922-7.764-.49-9.487,1.511-17.439,0-5.09-.966-11.334-2.152-14.948-7.474-3.465-5.1-2.65-11.259-2.492-12.456a22.656,22.656,0,0,1,2.492-7.474c2.649-5.132,4.71-4.888,4.983-7.474.323-3.065-2.5-4.038-7.475-12.457-1.573-2.665-2.36-4-2.491-4.983-.722-5.419,5.111-7.776,7.474-14.948,1.561-4.737.722-8.888,0-12.456-.484-2.4-2.282-11.287-9.965-17.44-9.675-7.748-21.7-5.565-24.914-4.982-15.333,2.783-23.384,15.013-24.913,17.439-1.716-8.343-7.954-14.364-14.948-14.948a15.124,15.124,0,0,0-12.456,4.983c-4.553,5.372-.98,10.409-4.983,14.948-4.282,4.854-13.574,4.991-19.93,2.491-8.228-3.236-7.241-9.2-14.949-12.456-7.977-3.372-18.356-.922-24.913,4.982-1.767,1.591-7.517,6.768-7.474,14.948a19.291,19.291,0,0,0,4.983,12.457c-3.4,2.066-17.039,10.753-22.422,24.913a32.978,32.978,0,0,0-2.492,14.948,31.3,31.3,0,0,0,2.492,9.965c-14.242-.432-22.474,3.589-27.405,7.474-8.563,6.748-8.437,14.09-17.439,17.44-7.448,2.77-10.781-1.047-19.931,2.491-3.523,1.362-10.357,4-12.456,9.965-2.523,7.163,2.808,16.232,4.982,19.931,2.865,4.873,5.109,6.366,4.983,9.965-.139,3.98-2.963,4.415-4.983,9.966a22.3,22.3,0,0,0,0,14.948,20.513,20.513,0,0,0,4.983,7.473c-7.573,2.127-29.343,8.526-44.844,17.44-3.98,2.288-8.112,5.068-9.965,9.965-2.135,5.639-.594,12.357,0,14.948,1.244,5.424,2.78,6.3,2.491,9.965-.388,4.913-3.55,8.419-4.983,9.966-3.709,4-5.941,3.419-12.456,7.474-5.938,3.695-10.941,6.809-12.457,12.456a14.647,14.647,0,0,0,2.491,12.457,12.948,12.948,0,0,0,7.474,4.983c3.911.743,6.426-1.211,7.474,0,1.114,1.285-.515,4.88-2.491,7.474a14.712,14.712,0,0,1-4.78,4.143c-3.114-1.014-8.314-4.044-17.881-16.078-6.741-8.477-5.136-8.2-8.213-10.949-10.056-8.983-23.15-8.311-24.636-8.212a34.865,34.865,0,0,0-16.424,5.474c.556-2.913,2.728-16-5.475-27.373a34.016,34.016,0,0,0-13.687-10.95c-8.343-3.844-15.693-3.395-24.637-2.737a102.738,102.738,0,0,0-38.323,10.949c-7.265,3.816-7.385,5.082-10.949,5.475-10.929,1.205-14.906-10.134-30.112-13.687-2.535-.592-9.044-2.106-15.45-.385a55.443,55.443,0,0,0-7.065-5.752c-7.239-5.239-9.232-3.506-16.424-8.212-10.185-6.664-10.5-12.962-16.425-13.687-4.575-.559-8.816,2.66-16.424,10.95a212.073,212.073,0,0,0-24.636,32.849,87,87,0,0,0-21.9-38.324c1.607.372,15.32,3.321,24.636-5.475a22.609,22.609,0,0,0,5.475-8.212c.884-.353,14.2-5.93,16.424-19.161,2.2-13.1-8.368-22.372-10.949-24.637-9.932-8.714-21.853-8.366-24.637-8.212a52.793,52.793,0,0,0-16.424-21.9c-14.745-11.469-31-11.188-35.586-10.95a46.744,46.744,0,0,0-5.475-21.9A45.84,45.84,0,0,0,1838.8,533.6a22.229,22.229,0,0,0,8.212-5.475c3.9-4.15,8.152-12.043,5.475-19.162-3.853-10.246-19.921-13.175-27.374-8.212-5.006,3.334-2.55,7.85-8.212,13.687-7.612,7.848-15.924,3.682-21.9,10.95-5.636,6.855-1.649,14.711-5.475,16.424-6.857,3.071-19.9-22.067-32.848-19.162-4.9,1.1-5.54,5.265-10.95,5.475-7.579.294-9.51-7.759-16.424-8.212-9.423-.617-12.582,13.9-21.9,13.687-7.411-.168-7.983-9.41-19.162-13.687-7.563-2.894-18.586-2.982-24.636,2.737-3.951,3.735-3.216,7.521-5.475,27.374-1.6,14.029-3.092,22.056-5.475,30.111-2.349,7.941-5.662,18.783-10.949,19.162-3.049.218-3.918-3.245-8.213-5.475-9.806-5.092-27.547,1.4-30.111,10.95-1.254,4.67,1.885,9.564,8.212,19.162,10.382,15.745,18.038,20.013,16.425,24.636-2.217,6.351-18.2,2.692-21.9,10.949-1.742,3.891.235,8.216,2.737,13.687,4.744,10.377,9.97,11.236,16.424,21.9,4.074,6.73,8.251,13.631,5.475,19.162-2.915,5.808-12.508,8.138-19.162,5.475-3.439-1.377-5.794-3.967-10.949-13.687-10.292-19.4-8.415-23.24-13.687-27.374-10.435-8.181-28.53-1.576-32.849,0-14.916,5.445-13.67,12.6-27.373,16.424-11.971,3.34-15.194-1.486-30.112,2.738-8.231,2.33-15.847,4.487-19.161,10.949-4.41,8.6,1.985,18.606-2.738,21.9-1.823,1.272-2.946-.1-8.212,0-7.176.14-10,2.787-19.162,5.475a89.984,89.984,0,0,1-13.686,2.737c-14.7,1.579-18.267-5.358-34.218-6.843-6-.558-19.339-2.151-30.111,5.475-8.628,6.109-7.763,12.489-16.424,16.424-10.091,4.585-15.744-2.04-27.374,2.737-6.144,2.524-14.34,8.388-13.687,13.687.722,5.861,11.409,4.062,28.743,15.056,9.99,6.337,14.344,11.947,21.9,10.949,4.44-.586,5.865-2.911,10.949-2.737,6.35.218,8.059,3.979,13.687,5.475,8.753,2.327,11.365-4.978,21.9-5.475,11.542-.544,14.636,7.932,30.111,10.95a51.376,51.376,0,0,0,19.162,0c5.782,8.194,15.375,12.477,24.637,10.949,10.074-1.661,15.457-9.489,16.424-10.949,9.473,1.4,21.044,1.466,27.374-5.475,5.837-6.4,4.1-15.345,8.212-16.424,5.544-1.455,8.694,14.783,21.9,19.161,11.01,3.651,17.182-4.866,27.374,0,7.574,3.617,5.628,9.019,13.686,13.687,9.966,5.773,25.92,5.027,32.849-2.737,3.72-4.169,3.346-8.688,8.212-10.95,3.509-1.63,6.719-.682,10.95,0a71.379,71.379,0,0,0,21.9,0c.149,5,1.22,18.306,10.949,30.111,8.146,9.885,24.409,21.2,35.586,16.425,9.518-4.069,7.573-16.486,21.9-24.637,2.627-1.494,9.4-5.35,13.687-2.737,4.983,3.039.83,11.319,5.475,19.162,7.318,12.356,29.014,11.029,30.111,10.949,2.412-.177,19.272-1.411,27.374-13.687,7.54-11.423,2.165-24.31,5.146-31.75,4.96-.671,10.963-1.566,18.553-2.6,8.167,6.846,4.06,22.93,11.887,26.136,6.208,2.543,11.168-6.6,24.636-5.475a38.527,38.527,0,0,1,10.95,2.738c8.608,3.659,10.767,8.633,16.424,8.212,3.9-.29,4.215-2.748,8.212-2.738,5.07.013,5.956,3.969,10.95,5.475,6.275,1.893,8.866-3.15,21.9-5.475,6.792-1.211,10.188-1.817,13.687,0,6.733,3.5,5.169,11.449,10.949,13.687,3.565,1.381,7.852-.9,16.425-5.474a77.216,77.216,0,0,0,16.424-10.95c7.545-6.68,13.133-11.628,13.687-19.162a16.6,16.6,0,0,0,.022-1.888c.2-.062.389-.125.594-.187,12.367-3.763,23-3.306,60.222,2.737,34.2,5.552,31.274,6.149,46.536,8.212,27.275,3.688,51.834,7.007,78.847,2.411a36.059,36.059,0,0,0,14,7.371c11.225,2.792,15.372-3.51,27.405,0,8.75,2.552,7.421,6.137,14.948,7.474,11.191,1.988,16.218-5.564,27.4-2.491,1.567.43,4.366,1.948,9.965,4.982,12,6.506,11.846,8.043,17.439,9.966,3.589,1.233,12.19,4.189,19.931,0a19.52,19.52,0,0,0,7.474-7.474c10.1,2.58,17.449,1.546,22.422,0,7.729-2.4,12.207-6.817,22.422-7.474,7.746-.5,9.507,1.76,9.965,2.491,1.506,2.4-.745,4.727,0,7.474,1.471,5.427,13.613,8.733,24.913,7.474,17.41-1.94,26.432-14,32.388-9.965,3.577,2.425,1.145,7.337,4.982,9.965,4.835,3.312,11.936-2.268,27.4-7.474a101.516,101.516,0,0,1,19.931-4.983c12.366-1.594,31.439-.858,34.878,7.474,1.1,2.665-.547,3.325,0,9.966.293,3.556.935,11.341,4.983,14.948,4.627,4.122,11.547.859,19.93,0,17.542-1.8,32.481,7.847,47.336,17.439,16.66,10.757,17.194,16.929,29.9,19.931,3.186.752,16.1,3.8,27.4-2.492,5.4-3.007,4.866-5.048,9.966-7.474,8.964-4.263,14.648.123,27.4,0,4.113-.039,12.707-2.517,29.9-7.474,14.807-4.269,13.949-4.449,24.914-7.474,16.378-4.518,24.567-6.778,32.387-7.474,10.151-.9,13.286.275,19.93-2.491,1.346-.56,15.347-6.564,14.948-14.948-.274-5.773-7.228-9.588-12.456-12.457a41.832,41.832,0,0,0-24.913-4.982c-10,1.19-9.891,5.006-17.44,4.982-11.466-.035-12.985-8.843-24.913-9.965-11.495-1.081-17.863,6.367-22.422,2.491-3.576-3.039-.674-8.484-4.983-14.948a20.473,20.473,0,0,0-9.965-7.474,26.986,26.986,0,0,0,7.474-12.456c1.049-3.923,2.314-8.656,0-12.457-2.661-4.37-8.31-4.67-11.935-6.624,1.4-.4,2.84-.851,4.374-1.374,13.7-4.669,21.762-10.24,41.061-13.686a205.762,205.762,0,0,1,32.848-2.738c23.032-.448,25.417,2.443,38.324,0,15.364-2.908,12.983-7.194,30.111-10.949,16.83-3.69,35.086-3.051,41.061-2.738,8.624.452,12.222,1.3,19.161,0,10.786-2.021,11.525-5.838,21.9-8.212,5.246-1.2,12.622-.8,27.374,0,13.074.709,15.908,1.493,21.9,0,5.861-1.461,16.3-5.488,16.425-10.949C3002.914,729.317,2995.118,724.964,2991.852,723.14Z" fill="#5081a9"/>
  </g>
</svg>
