<svg xmlns="http://www.w3.org/2000/svg" xmlns:xlink="http://www.w3.org/1999/xlink" width="1351.908" height="695.619" viewBox="0 0 1351.908 695.619">
  <defs>
    <linearGradient id="a" y1="347.81" x2="1351.908" y2="347.81" gradientUnits="userSpaceOnUse">
      <stop offset="0" stop-color="#f7ffff"/>
      <stop offset="1" stop-color="#c6f3f7"/>
    </linearGradient>
  </defs>
  <title>Cloud_1</title>
  <path d="M1238.464,436.07c-117.384-6.594-166.184,71.222-166.184,71.222a151.031,151.031,0,0,0-1.319-61.989c-7.913-32.973-40.886-51.438-40.886-51.438s164.865-110.789,81.773-211.027-230.811,7.913-230.811,7.913S1012.929,66.773,816.41,11.379s-220.259,109.47-220.259,109.47-53.416-23.081-102.876,26.378-23.74,134.53-23.74,134.53-35.611-15.827-102.876-13.189-100.238,39.567-100.238,39.567C175.416,225.043,0,280.473,0,476.957c0,59.351,67.265,129.254,240.043,129.254S461.621,511.249,606.7,478.276c50.125-11.393,93.48-.422,135.341,21.475-15.8,34-30.245,91.666,23.42,134.248,59.458,47.178,129.364,14.078,162.239-6.777a481.641,481.641,0,0,0,72.038,37.021c159.589,64.627,284.886,15.827,329.729-25.059S1355.848,442.665,1238.464,436.07Z" fill="url(#a)"/>
</svg>
