<svg xmlns="http://www.w3.org/2000/svg" xmlns:xlink="http://www.w3.org/1999/xlink" width="2701.226" height="1290.873" viewBox="0 0 2701.226 1290.873">
  <defs>
    <linearGradient id="a" y1="645.437" x2="2701.226" y2="645.437" gradientUnits="userSpaceOnUse">
      <stop offset="0" stop-color="#f7ffff"/>
      <stop offset="1" stop-color="#c6f3f7"/>
    </linearGradient>
  </defs>
  <title>Cloud_2</title>
  <path d="M2604.382,868.412c-92.324-13.189-211.027,63.308-147.718,179.373,0,0-156.952,77.816-247.957-13.189-21.9-21.9-45.188-49.769-71.219-79.452,71.734-81.054,84.418-223.51-38.56-305.183,0,0,133.211-123.978,29.016-254.551s-199.157-36.93-199.157-36.93,13.19-50.118-109.469-50.118c-14.921,0-28.668.673-41.344,1.838-4.074-133.8-96.467-194.6-146.953-201.485-58.033-7.914-195.2-15.827-218.941,79.135,0,0-121.34-263.784-414.14-166.184S887.151,319.742,887.151,319.742s-234.767-134.53-429.967-52.757-171.46,319.178-171.46,319.178S19.3,586.163.838,844.671s274.335,179.373,274.335,179.373-29.016,195.2,160.908,255.87,432.605-150.356,432.605-150.356c97.6,182.011,308.627,55.394,308.627,55.394s44.843,126.617,232.13,100.238,168.821-192.562,168.821-192.562,187.286-126.616,379.848-36.93,636.593,177.24,706.941,55.395S2696.707,881.6,2604.382,868.412Z" fill="url(#a)"/>
</svg>
