<svg xmlns="http://www.w3.org/2000/svg" xmlns:xlink="http://www.w3.org/1999/xlink" width="1019.078" height="708.177" viewBox="0 0 1019.078 708.177">
  <defs>
    <linearGradient id="a" y1="354.088" x2="1019.078" y2="354.088" gradientUnits="userSpaceOnUse">
      <stop offset="0" stop-color="#f7ffff"/>
      <stop offset="1" stop-color="#c6f3f7"/>
    </linearGradient>
  </defs>
  <title>Cloud_4</title>
  <path d="M77.061,399.632S5.839,498.551,116.628,559.221s264.445-126.442,394.357-51.438S703.547,722.767,853.9,706.94s245.318-250.594,72.54-365.34c0,0,133.211-123.979,29.016-254.551S756.3,50.119,756.3,50.119,769.493,0,646.834,0s-167.5,44.843-167.5,44.843S387.007-36.93,294.682,50.119,274.9,284.886,367.223,319.178c0,0-34.951-13.189-75.838,7.914S250.5,355.448,250.5,355.448s-11.211-51.437-60.011-59.351-79.135,11.87-79.135,11.87,9.892-97.6-53.416-87.708S-8.669,286.205,9.8,323.794,77.061,399.632,77.061,399.632Z" fill="url(#a)"/>
</svg>
