<svg xmlns="http://www.w3.org/2000/svg" xmlns:xlink="http://www.w3.org/1999/xlink" width="1192.641" height="617.52" viewBox="0 0 1192.641 617.52">
  <defs>
    <linearGradient id="a" y1="308.76" x2="1192.641" y2="308.76" gradientUnits="userSpaceOnUse">
      <stop offset="0" stop-color="#f7ffff"/>
      <stop offset="1" stop-color="#c6f3f7"/>
    </linearGradient>
  </defs>
  <title>Cloud</title>
  <path d="M1188.093,294.862c-29.016-65.946-125.3-61.989-127.935,22.422,0,0-65.946-34.292-138.486-3.957s-176.735,48.8-207.07-7.914c0,0,59.351-73.859-23.741-123.978s-110.789,15.827-110.789,15.827S506.213-70.478,237.154,17.889s51.437,309.946,51.437,309.946-44.843-19.784-80.454-1.319-42.205,43.524-42.205,43.524S35.359,272.44,5.024,437.305,88.116,628.548,173.845,606.127,358.494,501.932,358.494,501.932s0,81.773,97.6,75.179,80.454-69.9,80.454-69.9S649.3,573.176,853.066,546.121c2,50.877,65.39,83.9,120.006,66.891,44.669-13.909,71.221-80.526,38.74-109.039C1147.625,445.31,1210.846,346.572,1188.093,294.862Z" fill="url(#a)"/>
</svg>
