<svg xmlns="http://www.w3.org/2000/svg" width="6228.419" height="1545.067" viewBox="0 0 6228.419 1545.067">
  <title>Cloud_3</title>
  <g>
    <path d="M6198.3,1365.637c-8.921-10.164-10.6-16.652-19.162-19.162a39.405,39.405,0,0,0-19.161,0c-3.882.959-3.684,1.568-8.212,2.738-6.134,1.583-14.219,3.672-19.162,0-3.419-2.541-1.738-5.164-5.475-10.95a29.451,29.451,0,0,0-13.687-10.95c-9.671-3.79-18.456-1.067-21.9,0a38.055,38.055,0,0,0-10.95,5.475,43.228,43.228,0,0,0-2.737-8.212,46.666,46.666,0,0,0-16.424-19.162,47.923,47.923,0,0,0-19.162-8.212c-11.723-2.1-14.032,2.392-27.374,0-12.061-2.162-15.482-6.776-16.424-8.212-1.247-1.9-1.3-3.035-2.738-8.212-2.008-7.222-3.438-12.361-5.474-16.424-3.56-7.1-11.957-16.87-21.9-16.425a16.783,16.783,0,0,0-8.213,2.738,22.312,22.312,0,0,0,0-10.95c-.349-1.348-2.991-10.963-10.949-13.687-7.879-2.7-15.886,3.1-19.161,5.475-8.125,5.884-7.9,11.228-13.687,13.687-4.06,1.724-10.695,1.866-21.9-5.475a21.469,21.469,0,0,0,8.212-8.212,25.4,25.4,0,0,0,2.737-10.95c.392-5.37-.794-6.25,0-10.949a34.231,34.231,0,0,1,2.738-8.212c2.744-6.514,4.253-7.387,5.474-10.95,1.633-4.764.88-8.881,0-13.687-.724-3.958-2.624-14.343-10.949-21.9-4.426-4.017-8.813-5.551-16.425-8.212-12.908-4.514-19.491-3.312-21.9-8.212-1.3-2.641.337-3.558,0-10.95-.252-5.546-.469-10.313-2.737-13.687-5.974-8.884-24.44-5.513-24.637-8.212-.083-1.142,3.239-1.558,8.213-5.475,2.438-1.919,4.217-3.32,5.474-5.474,3.271-5.6,1.649-13.966-2.737-19.162-2.329-2.759-4.871-3.952-8.212-5.475-3.9-1.776-14.745-6.719-24.637-2.737-7.291,2.936-5.489,7.27-13.687,10.95-5.014,2.25-4.782.222-19.161,2.737-6.927,1.211-10.818,2.353-13.687,0-1.587-1.3-1.9-2.887-2.738-5.475-1.357-4.212-3.823-11.868-8.211-16.424-4.345-4.51-12.505-7.987-19.162-5.475-6.989,2.638-9.985,11-10.95,13.687-2.617,7.3-1.013,12.442-5.474,16.424-1.4,1.254-2.781,1.765-5.476,2.738-17.737,6.4-19.5,6.749-21.9,8.212-3.6,2.2-8.106,6.6-10.95,16.424a110.72,110.72,0,0,0-2.737-10.95c-2.075-6.8-3.113-10.208-5.475-13.686a31.514,31.514,0,0,0-13.687-10.95,31.184,31.184,0,0,0-16.424-2.737c-2.243.261-15.069,1.757-19.162,10.949-2.224,4.994-.914,10.113,0,13.687,2.737,10.7,9.479,13.455,8.212,19.162-.569,2.567-2.067,2.612-8.212,8.212-7.863,7.166-13.911,12.678-13.687,19.162.127,3.66,2.118,3.755,2.738,8.212,1.089,7.834-4.084,14.6-5.475,16.424-8.206,10.74-17.407,7.451-21.9,16.424-3.721,7.434-.361,15.586,0,16.425a21.678,21.678,0,0,0,10.949,10.949,70.452,70.452,0,0,0-38.323,5.475c7.467-14.064,7.138-23.817,5.475-30.111-2.3-8.7-6.782-9.422-10.95-21.9-1.817-5.441-6.5-19.462,0-27.374,2.108-2.566,2.988-1.563,8.213-5.475,3.656-2.738,10.507-7.867,13.686-16.424.976-2.626,4.212-11.336,0-19.162-3.594-6.677-10.623-9.017-16.424-10.949-4.818-1.605-6.328-1.206-19.162-2.738-17.806-2.125-20.231-3.528-21.9-5.474-1.585-1.851-1.894-3.5-2.737-16.425-1.253-19.194-.928-21.018-2.737-24.636-4.647-9.291-14.677-13.035-16.425-13.687-9.546-3.563-13.052.552-24.636-2.737-7.137-2.027-16.777-6.7-16.424-10.95.255-3.072,5.526-3.334,13.686-8.212,5.218-3.119,17.466-10.441,19.162-21.9,1.1-7.415-2.222-16.584-8.212-19.162-3.113-1.339-5.015-.068-16.424,2.738-12.164,2.99-18.319,4.451-21.9,2.737-6.708-3.211-3.84-10.472-10.95-16.424-9-7.531-23.531-4.232-30.111-2.738a61.339,61.339,0,0,0-19.162,8.212c-14.456,8.929-14.331,15.79-21.9,16.425-10.055.842-15.132-10.862-24.637-8.212-1.343.374-3.65,2.079-8.212,5.474-8.923,6.643-10.939,9.079-13.687,10.95-13.513,9.2-28.987-5.979-41.06,2.737-5.1,3.683-2.342,6.4-10.95,16.425-3.483,4.058-8.514,9.919-16.424,13.686a32.756,32.756,0,0,1-11.488,3.137,25.85,25.85,0,0,0-3.94-.751,48.475,48.475,0,0,0-21.9,2.737c-10.366,4.012-13.3,9.75-19.162,8.212-3.961-1.039-7.036-4.815-8.212-8.212-1.669-4.82,1.132-7,0-10.949-.2-.709-.728-2.15-3.78-4.2,0-.133.009-.265,0-.4-.3-6.343-7.943-10.535-13.687-13.687a46.966,46.966,0,0,0-14.263-5.057,50.952,50.952,0,0,0-17.495-14.939c-37.7-19.958-58.287-2.963-67.829,10.589-2.273-3.473-.217-8.9-4.434-15.23a19.062,19.062,0,0,0-3.732-4.107c-.642-2.575-2.486-4.772-4.818-6.673a29.121,29.121,0,0,0,5.813-11.119c1.152-4.309,2.543-9.51,0-13.687-4.056-6.66-14.453-4.7-16.424-10.949-.74-2.345.642-2.877,0-5.475-1.329-5.373-8.274-7.27-16.425-10.949-13.927-6.287-11.3-8.714-19.161-10.95-13.433-3.823-18.075,4.131-30.112,0-7.279-2.5-15.632-8.857-16.424-16.424-.5-4.786,2.438-6.091,5.475-16.424.9-3.07,2.894-9.849,2.737-16.425-.092-3.876-1.072-13.609-10.949-24.636,14.045-10.857,13.931-19.384,13.687-21.9-.509-5.222-4.111-10.459-8.213-16.425-5.216-7.586-8.489-9.453-8.211-13.686.35-5.333,5.812-6.457,5.474-10.95-.219-2.907-2.618-3.924-10.95-10.949-6.652-5.61-10-8.465-10.949-10.95-2.469-6.449,2.268-9.688,0-16.424-1.84-5.465-6.65-8.361-10.949-10.95a40.211,40.211,0,0,0-21.9-5.475c-.154-4.873-1.273-14.374-8.213-21.9-9.03-9.791-22.771-10.659-27.373-10.95-8.531-.539-10.424,1.659-19.162,0-5.593-1.062-12.453-2.365-16.424-8.212-3.807-5.606-2.912-12.371-2.738-13.687a24.913,24.913,0,0,1,2.738-8.212c2.91-5.638,5.175-5.37,5.474-8.212.356-3.368-2.751-4.437-8.212-13.687-1.729-2.929-2.593-4.393-2.737-5.475-.794-5.954,5.616-8.544,8.212-16.424,1.715-5.206.793-9.766,0-13.687-.532-2.632-2.508-12.4-10.95-19.162-10.63-8.513-23.847-6.115-27.373-5.475-16.848,3.058-25.694,16.5-27.374,19.162-1.886-9.167-8.74-15.783-16.425-16.424a16.622,16.622,0,0,0-13.687,5.474c-5,5.9-1.075,11.438-5.474,16.425-4.135,4.688-12.522,5.369-19.234,3.6a74.958,74.958,0,0,1-6.146-8.867c-1.729-2.928-2.593-4.392-2.737-5.475-.794-5.954,5.616-8.544,8.212-16.424,1.715-5.206.793-9.766,0-13.687-.533-2.632-2.508-12.4-10.95-19.162-10.631-8.513-23.847-6.114-27.374-5.474-16.847,3.057-25.693,16.5-27.373,19.161-1.886-9.167-8.74-15.782-16.425-16.424a16.622,16.622,0,0,0-13.687,5.475c-5,5.9-1.075,11.437-5.474,16.424-4.7,5.334-14.915,5.484-21.9,2.738-9.04-3.556-7.956-10.109-16.425-13.687-8.765-3.7-20.168-1.012-27.373,5.474-1.942,1.748-8.26,7.437-8.213,16.425a21.2,21.2,0,0,0,5.475,13.687c-3.735,2.27-18.721,11.815-24.636,27.374a36.234,36.234,0,0,0-2.738,16.424,34.382,34.382,0,0,0,2.738,10.949c-15.648-.475-24.694,3.943-30.111,8.212-9.409,7.415-9.271,15.482-19.162,19.162a18.243,18.243,0,0,1-5.815,1.176,34.685,34.685,0,0,0,6.68-9.895c2.5-5.471,4.478-9.8,2.737-13.687-3.7-8.257-19.682-4.6-21.9-10.949-1.613-4.623,6.043-8.891,16.425-24.637,6.327-9.6,9.465-14.491,8.211-19.161-2.564-9.552-20.305-16.042-30.111-10.95-4.294,2.23-5.163,5.693-8.212,5.475-3.845-.275-6.645-6.083-8.79-12.285a27.38,27.38,0,0,0,12.846-.077c1.122-.279,19.189-5.048,21.9-19.162,2.166-11.279-6.984-20.675-8.212-21.9.559-.162,13.487-4.136,16.424-16.424.3-1.269,2.313-10.235-2.737-16.425-4.643-5.689-10.942-3.752-16.424-10.949-2.172-2.85-3.961-6.8-2.738-8.212,1.152-1.33,3.915.817,8.212,0,4.683-.89,7.545-4.608,8.213-5.475a16.094,16.094,0,0,0,2.737-13.687c-1.666-6.205-7.163-9.626-13.687-13.687-7.159-4.455-9.612-3.812-13.687-8.212-1.574-1.7-5.049-5.551-5.475-10.949-.318-4.027,1.371-4.99,2.738-10.95.652-2.847,2.345-10.228,0-16.424-2.037-5.381-6.577-8.435-10.95-10.95-17.032-9.794-40.952-16.825-49.273-19.162a22.548,22.548,0,0,0,5.475-8.212,24.493,24.493,0,0,0,0-16.424c-2.219-6.1-5.322-6.576-5.475-10.949-.138-3.955,2.328-5.6,5.475-10.95,2.389-4.064,8.246-14.029,5.475-21.9-2.307-6.549-9.815-9.452-13.687-10.95-10.054-3.887-13.716.308-21.9-2.737-9.891-3.68-9.753-11.747-19.162-19.161-5.417-4.27-14.463-8.688-30.111-8.213a34.409,34.409,0,0,0,2.738-10.949,36.248,36.248,0,0,0-2.738-16.424c-5.915-15.559-20.9-25.1-24.637-27.374a21.192,21.192,0,0,0,5.475-13.687c.048-8.988-6.27-14.676-8.212-16.425-7.2-6.486-18.608-9.178-27.374-5.474-8.469,3.578-7.384,10.131-16.424,13.687-6.984,2.746-17.194,2.6-21.9-2.738-4.4-4.987-.473-10.521-5.475-16.424a16.623,16.623,0,0,0-13.687-5.475c-7.684.642-14.539,7.257-16.424,16.424-1.68-2.665-10.526-16.1-27.374-19.161-3.526-.64-16.743-3.039-27.374,5.475-8.441,6.76-10.417,16.529-10.949,19.161-.793,3.921-1.715,8.482,0,13.687,2.6,7.88,9.006,10.471,8.212,16.424-.144,1.083-1.009,2.547-2.737,5.475-5.462,9.251-8.568,10.32-8.213,13.687.3,2.842,2.565,2.574,5.475,8.212a24.93,24.93,0,0,1,2.738,8.212c.174,1.316,1.069,8.082-2.738,13.687a16.31,16.31,0,0,1-7.655,5.92,25.856,25.856,0,0,0-3.954-3.423c-10.771-7.626-24.116-6.033-30.111-5.475-15.951,1.485-19.521,8.422-34.217,6.843a89.98,89.98,0,0,1-13.687-2.737c-9.164-2.688-11.985-5.335-19.162-5.475-5.266-.1-6.389,1.272-8.212,0-4.722-3.293,1.672-13.3-2.737-21.9-3.315-6.462-10.931-8.619-19.162-10.949-14.917-4.224-18.141.6-30.111-2.738-13.7-3.823-12.457-10.979-27.374-16.424-4.319-1.576-22.414-8.181-32.849,0-5.272,4.133-3.395,7.969-13.686,27.374a76.067,76.067,0,0,1-5.289,8.886,107.466,107.466,0,0,0-17.957-22.013c5.822-8.657,10.635-10.1,15.033-19.722,2.5-5.471,4.479-9.8,2.737-13.686-3.695-8.258-19.682-4.6-21.9-10.95-1.614-4.623,6.042-8.892,16.424-24.637,6.327-9.6,9.466-14.491,8.212-19.161-2.564-9.552-20.305-16.042-30.111-10.95-4.295,2.23-5.164,5.693-8.213,5.475-5.287-.379-8.6-11.221-10.949-19.162-2.383-8.055-3.878-16.082-5.475-30.111-2.259-19.853-1.524-23.639-5.474-27.374-6.051-5.719-17.074-5.631-24.637-2.737-11.178,4.277-11.751,13.519-19.162,13.687-9.317.211-12.476-14.3-21.9-13.687-6.914.453-8.844,8.506-16.424,8.212-5.409-.21-6.047-4.375-10.949-5.475-12.951-2.9-25.991,22.233-32.849,19.162-3.826-1.713.161-9.569-5.475-16.424-5.975-7.268-14.287-3.1-21.9-10.95-5.662-5.837-3.206-10.353-8.212-13.687-7.452-4.963-23.521-2.034-27.374,8.212-2.677,7.119,1.579,15.012,5.475,19.162a22.237,22.237,0,0,0,8.212,5.475,45.84,45.84,0,0,0-8.212,10.949,46.745,46.745,0,0,0-5.475,21.9c-4.59-.239-20.841-.52-35.586,10.949a52.793,52.793,0,0,0-16.424,21.9c-2.783-.154-14.7-.5-24.636,8.212-2.582,2.265-13.152,11.539-10.95,24.637a21.684,21.684,0,0,0,.727,2.979,45.2,45.2,0,0,0-15.872,15.054c-1.885-9.167-8.74-15.782-16.424-16.424a16.625,16.625,0,0,0-13.687,5.475c-5,5.9-1.076,11.437-5.475,16.424-4.7,5.334-14.915,5.484-21.9,2.738-9.04-3.556-7.955-10.109-16.424-13.687-8.765-3.7-20.169-1.012-27.374,5.474-1.942,1.749-8.26,7.437-8.212,16.425A21.2,21.2,0,0,0,3412.3,181.9c-3.734,2.27-18.721,11.815-24.636,27.374a36.237,36.237,0,0,0-2.737,16.424,34.385,34.385,0,0,0,2.737,10.949c-15.648-.475-24.694,3.943-30.111,8.213-9.409,7.414-9.27,15.481-19.162,19.161-8.183,3.045-11.845-1.15-21.9,2.737-3.871,1.5-11.38,4.4-13.687,10.95-2.771,7.87,3.086,17.835,5.475,21.9,3.147,5.354,5.613,7,5.475,10.95-.153,4.373-3.256,4.85-5.475,10.949a24.493,24.493,0,0,0,0,16.424,22.548,22.548,0,0,0,5.475,8.212c-8.321,2.337-32.241,9.368-49.273,19.162-4.373,2.515-8.913,5.569-10.95,10.95-2.345,6.2-.652,13.577,0,16.424,1.367,5.96,3.056,6.923,2.738,10.95-.426,5.4-3.9,9.25-5.475,10.949-4.075,4.4-6.528,3.757-13.687,8.212-6.524,4.061-12.021,7.482-13.687,13.687a16.091,16.091,0,0,0,2.738,13.687c.667.867,3.529,4.585,8.212,5.475,4.3.817,7.06-1.33,8.212,0,1.223,1.412-.566,5.362-2.737,8.212-5.483,7.2-11.782,5.26-16.425,10.949a15.774,15.774,0,0,0-3.281,8.6,44.49,44.49,0,0,0-4.94,6.409c-1.886-9.167-8.74-15.783-16.424-16.425a16.623,16.623,0,0,0-13.687,5.475c-5,5.9-1.076,11.438-5.475,16.424-4.7,5.334-14.915,5.485-21.9,2.738-9.04-3.555-7.955-10.108-16.424-13.687-8.766-3.7-20.169-1.012-27.374,5.475-1.942,1.748-8.26,7.436-8.212,16.424a21.2,21.2,0,0,0,5.474,13.687c-3.735,2.27-18.721,11.815-24.636,27.374a36.223,36.223,0,0,0-2.737,16.424,34.393,34.393,0,0,0,2.737,10.95c-15.648-.476-24.694,3.943-30.111,8.212-9.409,7.414-9.271,15.481-19.162,19.161-8.183,3.045-11.845-1.15-21.9,2.738-3.872,1.5-11.381,4.4-13.687,10.949-2.771,7.87,3.086,17.835,5.475,21.9,3.147,5.355,5.613,7,5.475,10.95-.153,4.373-3.256,4.851-5.475,10.949a24.5,24.5,0,0,0,0,16.425,22.557,22.557,0,0,0,5.475,8.212c-8.321,2.337-32.242,9.367-49.273,19.161-4.373,2.515-8.913,5.569-10.95,10.95-.025.068-.044.138-.069.206-13.109,4.626-20.121,15.283-21.6,17.626-1.885-9.167-8.74-15.783-16.424-16.425a16.625,16.625,0,0,0-13.687,5.475c-5,5.9-1.076,11.438-5.475,16.425a12.619,12.619,0,0,1-5.677,3.522,10.731,10.731,0,0,0-6.777.963,26.732,26.732,0,0,1-9.445-1.748c-9.04-3.556-7.955-10.108-16.424-13.687-6.778-2.864-15.125-1.892-21.9,1.689a55.964,55.964,0,0,0-10.323-3.446c-6.58-1.493-21.115-4.793-30.111,2.738-7.11,5.952-4.242,13.213-10.95,16.424-3.58,1.714-9.735.253-21.9-2.737-11.409-2.806-13.311-4.077-16.424-2.738-5.99,2.578-9.309,11.747-8.212,19.162,1.7,11.458,13.944,18.78,19.161,21.9,8.16,4.878,13.432,5.14,13.687,8.212.353,4.245-9.288,8.923-16.424,10.95-11.584,3.289-15.091-.826-24.636,2.737-1.748.653-11.778,4.4-16.425,13.687-1.809,3.618-1.484,5.442-2.737,24.636-.844,12.923-1.152,14.574-2.737,16.425-1.668,1.946-4.093,3.35-21.9,5.474-12.833,1.532-14.344,1.133-19.161,2.738-5.8,1.932-12.831,4.273-16.424,10.949-4.212,7.826-.976,16.536,0,19.162,3.179,8.557,10.03,13.686,13.687,16.424,5.224,3.912,6.1,2.909,8.212,5.475,6.5,7.912,1.817,21.933,0,27.374-4.168,12.477-8.652,13.2-10.95,21.9-1.62,6.13-1.953,15.556,4.931,29.038l-.085.092c-.166.18-.326.338-.487.5a70.364,70.364,0,0,0-37.207-5,21.673,21.673,0,0,0,10.949-10.949c.36-.839,3.721-8.991,0-16.424-4.493-8.974-13.693-5.685-21.9-16.425-1.392-1.821-6.564-8.59-5.475-16.424.62-4.457,2.611-4.552,2.738-8.212.223-6.484-5.824-12-13.687-19.162-6.145-5.6-7.643-5.645-8.212-8.212-1.267-5.707,5.475-8.464,8.212-19.162.914-3.573,2.223-8.693,0-13.687-4.094-9.192-16.92-10.688-19.162-10.949a31.194,31.194,0,0,0-16.424,2.737,31.514,31.514,0,0,0-13.687,10.95,25.487,25.487,0,0,0-2.7,5.24c-6.2-13.067-17-24.847-35.011-32.484-50.029-21.208-87.2-2.179-102.012,8.04-5.846-2.309-12-1.523-16.866-.131-8.561-3.24-22.727-5.3-42.5,2.481a46.931,46.931,0,0,0-5.712.724c-16.847,3.058-25.694,16.5-27.374,19.162-1.885-9.167-8.74-15.782-16.424-16.424a16.619,16.619,0,0,0-13.687,5.475c-5,5.9-1.076,11.437-5.475,16.424-4.705,5.334-14.915,5.484-21.9,2.737-9.04-3.555-7.955-10.108-16.424-13.686-8.765-3.7-20.169-1.012-27.374,5.474-1.941,1.748-8.26,7.437-8.212,16.425a21.192,21.192,0,0,0,5.475,13.686c-3.735,2.271-18.722,11.815-24.637,27.374a36.259,36.259,0,0,0-2.737,16.425,34.385,34.385,0,0,0,2.737,10.949c-15.648-.475-24.694,3.943-30.111,8.212-9.409,7.415-9.27,15.482-19.162,19.162-8.183,3.044-11.845-1.15-21.9,2.737-3.871,1.5-11.38,4.4-13.686,10.95-2.772,7.87,3.086,17.835,5.474,21.9,3.148,5.354,5.613,7,5.475,10.949-.153,4.373-3.256,4.851-5.475,10.95a24.493,24.493,0,0,0,0,16.424,22.548,22.548,0,0,0,5.475,8.212c-8.321,2.337-32.241,9.368-49.273,19.162-4.373,2.515-8.913,5.568-10.949,10.949-2.346,6.2-.653,13.578,0,16.425,1.366,5.96,3.055,6.923,2.737,10.949a14.518,14.518,0,0,1-.922,4.027,35.187,35.187,0,0,0-10.524,1.153c-8.567,2.51-10.242,9-19.162,19.162-13.723,15.636-25.783,18.545-29.167,23.883-2.428,1.633-7.139,5.779-15.468,13.11-8.612-10.689-9.337-11.38-10.949-13.687a65.919,65.919,0,0,1-10.95-27.374c-1.51-10.476,1.5-10.4,0-21.9a61.3,61.3,0,0,0-8.212-24.636c-6.917-11.289-11.926-9.909-13.687-16.424-4.1-15.168,20.879-30.661,16.424-38.324-2.421-4.165-9.9.238-21.9-5.475-7.909-3.767-12.94-9.628-16.424-13.686-8.607-10.028-5.848-12.742-10.949-16.425-12.073-8.716-27.547,6.466-41.061-2.737-2.747-1.871-4.764-4.307-13.687-10.95-4.561-3.395-6.869-5.1-8.212-5.474-9.5-2.65-14.582,9.055-24.637,8.212-7.568-.635-7.443-7.5-21.9-16.425a61.355,61.355,0,0,0-19.161-8.212c-6.58-1.494-21.115-4.793-30.112,2.738-7.11,5.952-4.242,13.213-10.949,16.424-3.581,1.714-9.736.253-21.9-2.737-11.409-2.806-13.311-4.077-16.425-2.738-5.99,2.578-9.309,11.747-8.212,19.162,1.7,11.458,13.945,18.78,19.162,21.9,8.16,4.878,13.432,5.14,13.687,8.212.352,4.245-9.288,8.923-16.424,10.95-11.585,3.29-15.091-.826-24.637,2.737-1.747.652-11.777,4.4-16.424,13.687-1.81,3.618-1.485,5.442-2.737,24.636-.844,12.923-1.153,14.574-2.738,16.425-1.667,1.946-4.093,3.349-21.9,5.474-12.833,1.532-14.344,1.134-19.162,2.738-5.8,1.932-12.83,4.272-16.424,10.949-4.212,7.826-.975,16.536,0,19.162,3.179,8.557,10.03,13.686,13.687,16.424,5.224,3.912,6.1,2.909,8.212,5.475,6.5,7.912,1.818,21.933,0,27.374-4.167,12.477-8.651,13.2-10.949,21.9-1.663,6.294-1.993,16.047,5.474,30.111a70.452,70.452,0,0,0-38.323-5.475,21.674,21.674,0,0,0,10.95-10.949c.36-.839,3.721-8.991,0-16.425-4.493-8.973-13.693-5.684-21.9-16.424-1.392-1.821-6.564-8.59-5.475-16.424.619-4.457,2.611-4.552,2.737-8.212.224-6.484-5.823-12-13.687-19.162-6.144-5.6-7.642-5.645-8.212-8.212-1.267-5.707,5.476-8.465,8.212-19.162.915-3.574,2.224-8.693,0-13.687-4.093-9.192-16.919-10.688-19.161-10.949a31.194,31.194,0,0,0-16.424,2.737,31.523,31.523,0,0,0-13.688,10.95c-2.361,3.478-3.4,6.881-5.474,13.687a110.414,110.414,0,0,0-2.738,10.949c-2.843-9.822-7.344-14.222-10.949-16.424-2.4-1.463-4.162-1.812-21.9-8.212-2.695-.973-4.071-1.484-5.475-2.738-4.461-3.982-2.858-9.125-5.475-16.424-.964-2.69-3.961-11.049-10.949-13.687-6.657-2.513-14.818.965-19.162,5.475-4.389,4.556-6.855,12.212-8.212,16.424-.834,2.588-1.151,4.173-2.738,5.475-2.868,2.353-6.759,1.211-13.686,0-1.537-.269-2.9-.483-4.126-.659a35.911,35.911,0,0,0-7.607-5.56,39.062,39.062,0,0,0-17.463-5.383,13.913,13.913,0,0,0-3.653-2.085c-.306-.123-.615-.213-.922-.319-.447-5.194-2.107-13.117-8.074-19.587-9.03-9.79-22.772-10.659-27.374-10.949-8.53-.539-10.423,1.659-19.161,0-5.593-1.063-12.453-2.365-16.425-8.212-3.807-5.606-2.911-12.372-2.737-13.687a24.941,24.941,0,0,1,2.737-8.212c2.911-5.639,5.176-5.371,5.475-8.213.356-3.367-2.751-4.436-8.212-13.687-1.729-2.928-2.593-4.392-2.737-5.474-.794-5.954,5.616-8.545,8.212-16.425,1.715-5.2.793-9.765,0-13.687-.532-2.632-2.508-12.4-10.95-19.161-10.63-8.514-23.847-6.115-27.373-5.475-16.848,3.058-25.694,16.5-27.374,19.162-1.886-9.167-8.74-15.783-16.425-16.425a16.621,16.621,0,0,0-13.686,5.475c-5,5.9-1.076,11.438-5.475,16.424-4.7,5.334-14.915,5.485-21.9,2.738-9.04-3.556-7.955-10.108-16.425-13.687-8.765-3.7-20.168-1.012-27.373,5.475-1.942,1.748-8.26,7.436-8.213,16.424a21.2,21.2,0,0,0,5.475,13.687c-2.994,1.82-13.215,8.318-20.2,18.838-11.871-6.833-26.73,6.971-39.765-1.906-2.746-1.871-4.764-4.307-13.687-10.95-4.561-3.395-6.868-5.1-8.212-5.474-9.5-2.649-14.581,9.054-24.636,8.212-7.568-.635-7.444-7.5-21.9-16.425a61.339,61.339,0,0,0-19.162-8.212c-5.582-1.267-16.889-3.831-25.683.018.063-.124.13-.257.185-.362,2.91-5.638,5.175-5.37,5.475-8.213.355-3.367-2.751-4.436-8.212-13.686-1.729-2.929-2.594-4.393-2.738-5.475-.794-5.954,5.616-8.544,8.212-16.425,1.715-5.205.793-9.765,0-13.686-.532-2.632-2.508-12.4-10.949-19.162-10.631-8.513-23.848-6.115-27.374-5.475-16.848,3.058-25.694,16.5-27.374,19.162-1.885-9.167-8.74-15.783-16.424-16.425a16.625,16.625,0,0,0-13.687,5.475c-5,5.9-1.076,11.438-5.475,16.425-4.7,5.333-14.915,5.484-21.9,2.737-9.04-3.555-7.955-10.108-16.424-13.687-8.766-3.7-20.169-1.012-27.374,5.475-1.942,1.748-8.26,7.436-8.212,16.424a21.192,21.192,0,0,0,5.475,13.687c-3.735,2.27-18.722,11.815-24.637,27.374a36.243,36.243,0,0,0-2.737,16.424,34.393,34.393,0,0,0,2.737,10.95c-15.648-.476-24.694,3.943-30.111,8.212-9.409,7.414-9.27,15.482-19.162,19.161-8.183,3.045-11.845-1.15-21.9,2.738-3.871,1.5-11.38,4.4-13.687,10.949-2.771,7.87,3.086,17.836,5.475,21.9,3.147,5.355,5.613,7,5.475,10.95-.153,4.373-3.256,4.851-5.475,10.95a24.492,24.492,0,0,0,0,16.424,22.557,22.557,0,0,0,5.475,8.212c-4.7,1.321-14.387,4.141-24.994,8.111a12.084,12.084,0,0,1-4.256-2.292c-4.461-3.982-2.858-9.125-5.474-16.424-.965-2.69-3.961-11.049-10.95-13.687-6.657-2.512-14.817.965-19.162,5.475-4.389,4.556-6.855,12.212-8.212,16.424-.833,2.588-1.15,4.174-2.737,5.475-2.869,2.353-6.76,1.211-13.687,0-14.379-2.515-14.148-.487-19.162-2.738-8.2-3.679-6.395-8.013-13.687-10.949-9.891-3.982-20.739.961-24.636,2.737-3.342,1.523-5.883,2.716-8.212,5.475-4.386,5.2-6.008,13.56-2.737,19.162,1.257,2.154,3.036,3.555,5.474,5.475,4.974,3.916,8.3,4.332,8.212,5.474-.2,2.7-18.662-.672-24.636,8.212-2.268,3.373-2.485,8.141-2.737,13.687-.337,7.392,1.3,8.309,0,10.95-2.408,4.9-8.991,3.7-21.9,8.212-7.611,2.661-12,4.195-16.424,8.212-8.325,7.556-10.225,17.941-10.949,21.9-.88,4.807-1.633,8.923,0,13.687,1.221,3.563,2.73,4.436,5.474,10.95a34.231,34.231,0,0,1,2.738,8.212c.794,4.7-.392,5.579,0,10.949a25.37,25.37,0,0,0,2.737,10.95,21.461,21.461,0,0,0,8.212,8.212c-11.2,7.341-17.839,7.2-21.9,5.475-5.791-2.459-5.562-7.8-13.687-13.687-3.276-2.373-11.282-8.171-19.161-5.475-7.958,2.724-10.6,12.338-10.95,13.687a22.336,22.336,0,0,0,0,10.95,16.779,16.779,0,0,0-8.212-2.738c-9.942-.446-18.34,9.323-21.9,16.425-2.036,4.063-3.466,9.2-5.475,16.424-1.44,5.177-1.49,6.311-2.737,8.212-.942,1.436-4.363,6.05-16.424,8.212-13.342,2.392-15.651-2.1-27.374,0a47.916,47.916,0,0,0-19.162,8.212,46.666,46.666,0,0,0-16.424,19.162,43.243,43.243,0,0,0-2.738,8.212,38.034,38.034,0,0,0-10.949-5.475c-3.443-1.067-12.228-3.79-21.9,0a29.451,29.451,0,0,0-13.687,10.95c-3.737,5.786-2.056,8.409-5.475,10.949-4.943,3.673-13.028,1.584-19.162,0-4.528-1.169-4.33-1.778-8.212-2.737a39.405,39.405,0,0,0-19.161,0c-8.567,2.51-10.242,9-19.162,19.162-16.386,18.669-30.409,19.193-30.111,27.373.282,7.738,13.075,14.048,21.9,16.425,25.413,6.844,53.069-9.468,60.222-13.687,11-6.488,17.585-12.881,30.111-13.687a51.874,51.874,0,0,1,19.162,2.737c10.791,3.671,10.219,7.458,19.162,10.95,12.766,4.984,26.724,2.262,38.323,0,9.7-1.891,11.039-3.5,16.424-2.738,11.219,1.588,19.089,10.5,21.9,13.687,7.494,8.489,9.96-4.167,15.738.744,9.625,8.184,18.344,7.021,24.713,6.179,4.126-.546,18.857,12.074,30.721,1.29,7.428-6.752,6.948-10.424,13.687-13.687a29.442,29.442,0,0,1,24.637,0c7.478,3.583,6.586,7.7,16.424,13.687,5.725,3.48,10.786,6.557,16.424,5.474,6.54-1.256,7.4-6.868,16.425-13.687,2.158-1.631,8.687-6.565,16.424-8.212,12.293-2.617,17.129,5.3,41.061,10.95,10.222,2.413,15.333,3.619,21.9,2.737,15.333-2.061,16.582-11.433,30.111-13.687,11.179-1.862,13.964,3.931,35.586,8.212,6.731,1.333,14.524,1.8,30.111,2.738,28.446,1.709,42.856,2.457,52.01-2.738,6.8-3.857,7.473-6.888,16.425-10.949a63.914,63.914,0,0,1,24.636-5.475c13.744-.331,17.017,3.876,38.323,5.475,7.048.529,10.635.777,13.687,0,11.413-2.907,13.539-11.706,24.637-19.162,11.414-7.669,23.639-8.085,27.374-8.212,14.427-.491,16.48,5.8,38.323,10.949,1.1.26,2.291.537,3.561.819a6.028,6.028,0,0,0-.3,2.155c.282,7.738,13.075,14.048,21.9,16.425,25.414,6.844,53.07-9.468,60.223-13.687,11-6.488,17.584-12.881,30.111-13.687a51.854,51.854,0,0,1,19.162,2.738c10.791,3.67,10.219,7.457,19.161,10.949,12.766,4.984,26.725,2.262,38.324,0,9.7-1.891,11.038-3.5,16.424-2.738,11.218,1.588,19.088,10.5,21.9,13.687,7.493,8.489,5.172,11.513,10.95,16.425,9.625,8.182,23.742,6.316,30.111,5.474,4.126-.545,18.247-2.9,30.111-13.687,7.427-6.751,6.948-10.422,13.687-13.686a29.413,29.413,0,0,1,18.04-2.146,89.132,89.132,0,0,1,10.529-.913c9.657-.584,19.34-.668,29.01-.449,9.079.2,18.172.6,27.246.984,1.284.055,2.546.126,3.793.22.565-.159,1.135-.31,1.716-.434,12.293-2.617,17.128,5.3,41.06,10.95a131.082,131.082,0,0,0,13.463,2.756c10.244,8.047,12.79,12.994,24.077,15.661,3.5.827,17.692,4.18,30.111-2.737,5.933-3.3,5.346-5.547,10.95-8.212,9.849-4.685,16.1.134,30.111,0,4.012-.039,11.922-2.195,26.859-6.487,16.882.741,26.924.26,33.913-3.593,17.9,2.864,36.094,4.426,53.921,1.744,53.7-8.08,258.059,19.96,405.861,19.96s268.991-37.544,393.505-24.237,240.476,56.079,401.585,31.366,185.346-67.01,373.069-37.544,357.862,55.128,493.782,20.91,260.436-71.762,420.119-25.188,288.475-19.96,391.128-21.386c3.771-.052,7.33-.058,10.733-.03,21.818,5.317,30.782,8.1,46.085,8.1,4.285,0,8.327-.176,11.978-.437,22.445,8.031,26.98,19.2,82.333,17.079a150.269,150.269,0,0,0,17.236-1.574,44.122,44.122,0,0,0,8.9,4.094c23.248,7.956,45.767-.416,52.011-2.737a87.625,87.625,0,0,0,27.373-16.425c3.236,5.721,10.9,17.261,24.637,21.9,13.077,4.417,24.976.318,41.061-5.475,23.546-8.48,23.148-14.373,43.8-21.9a130.063,130.063,0,0,1,18.64-5.248c35.931,5.213,69.587,8.991,104.368,9.953,3.585,1.085,7.783,2.217,13.861,3.507,24.323,5.16,43.6,5.386,57.485,5.475,28.194.18,42.292.271,54.748-5.475,7.481-3.452,12.486-7.348,21.9-8.212,14.431-1.326,25.636,5.723,30.111,8.212,33.37,18.56,89.051,4.1,125.919-5.475,17.763-4.613,17.579-6.235,50.664-16.3,91.673,6.041,193.593,17.243,272.613,23.973.463.292.945.586,1.476.887,8.814,5,22.506,4.494,48.9,2.923,45.736,2.857,77.139,2.573,83.559-3.944,3.813,2.787,7.934,5.5,15.356,6.5,6.566.882,11.677-.324,21.9-2.737,23.932-5.65,28.768-13.567,41.061-10.95,7.737,1.647,14.266,6.581,16.424,8.212,9.022,6.819,9.885,12.431,16.425,13.687,5.638,1.083,10.7-1.994,16.424-5.475,9.838-5.981,8.946-10.1,16.424-13.686a29.442,29.442,0,0,1,24.637,0c6.739,3.263,6.259,6.935,13.687,13.686,11.864,10.785,25.984,13.142,30.11,13.687,6.37.842,20.487,2.708,30.112-5.474,5.778-4.912,3.456-7.936,10.949-16.425,2.811-3.184,10.681-12.1,21.9-13.687,5.386-.761,6.728.847,16.425,2.738,11.6,2.262,25.557,4.985,38.323,0,8.943-3.492,8.371-7.279,19.162-10.95a51.85,51.85,0,0,1,19.161-2.737c12.527.805,19.113,7.2,30.112,13.687,7.153,4.219,34.809,20.531,60.222,13.687,8.824-2.377,21.617-8.687,21.9-16.425C6228.712,1384.83,6214.689,1384.307,6198.3,1365.637ZM3150.831,947.725a33.594,33.594,0,0,0-5.117-.958,6.086,6.086,0,0,1-.319-1.864,12.433,12.433,0,0,1,.974-5.186A34.064,34.064,0,0,1,3150.831,947.725Z" fill="#f6eff6"/>
    <g>
      <path d="M1381.259,1275.363c-4.242-4.7-13.42-14.867-24.636-13.687-1.649.174-7.364.775-10.95,5.475a14.094,14.094,0,0,0-2.737,8.212c-6.87-6.3-13.178-7.779-16.425-8.212-9.281-1.238-17.168,2.882-27.373,8.212-9.2,4.806-7.607,5.653-13.687,8.212-2.639,1.111-20.105,8.462-32.849,0-1.878-1.246-7.759-5.151-8.212-10.949-.326-4.17,2.427-5.855,8.212-16.424,3.595-6.569,5.395-9.929,5.475-13.687.018-.852.074-8.884-5.475-13.687-4.511-3.9-8.351-1.889-10.949-5.475-1.929-2.662-.856-5.213,0-13.687.986-9.771,1.48-14.657,0-19.161-2.626-7.99-9.055-12.39-10.95-13.688-2.908-1.99-7.466-4.35-16.424-5.474-22.144-2.78-35.548,6.459-41.061,0-.933-1.094-1.535-3.466-2.737-8.213-2.208-8.712-.74-10.783-2.738-13.686-3.183-4.625-8.562-1.768-16.424-5.475-10.357-4.883-8.07-13.166-16.424-16.424-11.163-4.354-24.092,6.986-27.374,2.737-.733-.948-.378-1.888,0-5.475a96.035,96.035,0,0,0,0-16.424c-.281-3.258-.977-11.314-5.475-19.162-5.774-10.075-15.191-15.23-27.374-21.9a39.662,39.662,0,0,0-5.474-2.737c-12.175-4.143-20.526,4.659-27.374,0-1.431-.974-2.779-3.386-5.475-8.212-2.993-5.357-3.08-7.332-5.475-10.95a30.23,30.23,0,0,0-8.212-8.212c-7.791-5.4-16.2-5.443-21.9-5.475-7.938-.044-13.5,1.8-24.636,5.475-17.269,5.708-18.781,9.619-19.162,10.95-1.132,3.947,1.669,6.13,0,10.949-1.176,3.4-4.251,7.173-8.212,8.212-5.864,1.538-8.8-4.2-19.162-8.212a48.475,48.475,0,0,0-21.9-2.737c-6.917.837-7.8,2.781-21.9,8.212-16.243,6.258-18.35,4.942-21.9,8.212-4.854,4.473-8.861,14.257-2.737,38.324a14.731,14.731,0,0,0-5.475,0c-6.583,1.268-10.126,6.819-10.95,8.212-3.485,5.9-.233,8.393-2.737,13.687-2.238,4.73-5.926,5.043-21.9,13.687-10.769,5.827-13.813,8.239-13.687,10.949.14,3.025,4.094,3.486,5.475,8.212,1.085,3.716.154,8.609-2.738,10.949-2.863,2.318-6.588,1.275-13.687,0-1.306-.234-14.169-2.521-21.9-2.737-5.606-.157-11.95,1.72-24.636,5.475-20.189,5.975-23.292,9.3-24.637,10.95-.783.958-6.145,7.711-5.474,16.424.314,4.078,2.034,7.282,5.474,13.687,4.311,8.025,5.983,8.387,8.213,13.687,1.172,2.786,4.017,9.547,2.737,16.424-2.374,12.756-17.571,18.578-19.162,19.162a101.332,101.332,0,0,0-16.424-5.475c-9.607-2.314-26.234-6.318-43.8,0-8.46,3.043-14.571,7.558-19.162,10.949-11.087,8.192-10.649,11.672-19.161,16.425-2.622,1.464-13.785,7.342-27.374,5.474-7.549-1.037-7.269-3.286-16.425-5.474-11.251-2.69-20.418-1.383-30.111,0-14.324,2.043-21.487,3.064-27.373,8.212-7.514,6.57-6.186,12.8-13.688,16.424-5.182,2.507-10.194,1.654-19.161,0-14.786-2.727-17.618-7.168-27.374-8.212-3.706-.4-7.619-.219-24.636,5.475-24.94,8.344-37.41,12.516-43.8,19.161-4,4.162-11.886,14.032-13.687,32.849a71.155,71.155,0,0,0-19.162-2.737c-5.66-.029-12.295-.062-19.162,2.737-10.6,4.321-8.808,10.116-19.161,16.424-12.277,7.48-19.524,2.211-30.112,10.95-1.486,1.227-9.793,8.082-8.212,13.686,1.34,4.749,9.27,6.8,21.9,8.213a220.1,220.1,0,0,0,49.273,0c17.341-2.07,38.935-1.38,82.122,0,19.079.609,16.805,1.092,49.273,2.737,44.119,2.236,66.179,3.355,82.121,2.737,41.217-1.6,37.857-8.414,95.808-13.687,47.8-4.348,68.414-1.377,76.647,0,12.943,2.167,26.142,6.037,52.01,13.687,6.257,1.851,11.552,3.461,16.1,4.88q4.4-.57,8.8-1.127c29.547-3.717,59.174-6.789,88.814-9.658,59.381-5.747,118.857-10.582,178.127-17.443,29.831-3.453,59.6-7.43,89.238-12.306,29.134-4.793,58.012-10.858,86.97-16.591,28.661-5.675,57.336-11.42,85.588-18.915,13.277-3.523,26.645-7.1,39.325-12.43,2.567-1.08,5.157-2.192,7.773-3.253a19.454,19.454,0,0,1,1.676-5.289,49.811,49.811,0,0,1,2.55-6.413c1.276-2.9,2.314-4.655,2.737-5.475,3.226-6.253-.08-14.928-2.737-21.9C1390.149,1289.121,1387.569,1282.355,1381.259,1275.363Z" fill="#c0cfe6"/>
      <path d="M4456.1,826c-7.207-8.058-18.185-10.544-32.849-13.687-8.767-1.88-12.38-1.869-16.424-5.475-3.665-3.268-5.561-7.612-8.213-13.687-4.214-9.658-2.56-10.767-5.474-13.687-4.48-4.488-9.2-2.68-16.425-8.212a29.753,29.753,0,0,1-5.474-5.475c14.15-5.061,22.908-14.285,21.9-21.9-.741-5.6-6.7-9.867-8.212-10.949-7.8-5.585-13.385-2.488-19.162-8.213-3.836-3.8-4.966-8.729-5.475-10.949-1.576-6.876.891-9.282,0-13.687-1.789-8.848-15.278-16.614-27.373-16.424-14.762.231-17.064,12.145-30.112,10.949-13.28-1.217-23.352-14.7-24.636-16.424-5.362-7.18-3.578-9.561-8.212-13.687-8.288-7.378-22.923-7.711-32.849-2.738-2.03,1.018-6.828,5.241-16.424,13.687-8.612-10.688-9.337-11.38-10.95-13.687a65.936,65.936,0,0,1-10.949-27.373c-1.51-10.477,1.495-10.4,0-21.9a61.307,61.307,0,0,0-8.213-24.637c-6.917-11.288-11.925-9.909-13.686-16.424-4.1-15.167,20.878-30.661,16.424-38.323-2.422-4.166-9.9.237-21.9-5.475-7.909-3.768-12.941-9.629-16.425-13.687-8.606-10.027-5.847-12.741-10.949-16.424-12.073-8.716-27.547,6.466-41.06-2.738-2.747-1.87-4.764-4.306-13.687-10.949-4.561-3.395-6.869-5.1-8.213-5.475-9.5-2.649-14.581,9.055-24.636,8.212-7.568-.634-7.444-7.5-21.9-16.424a61.339,61.339,0,0,0-19.162-8.212c-3.767-.855-10.142-2.3-16.591-1.967-1.535-6.427-6.1-10.546-7.7-11.986-7.2-6.486-18.608-9.178-27.374-5.474-4.66,1.969-6.428,4.839-8.582,7.615-1.573-1.574-4.4-3.624-9.235-7.7-6.652-5.609-10-8.465-10.95-10.95-2.469-6.448,2.269-9.688,0-16.424-1.84-5.464-6.65-8.361-10.949-10.949a40.2,40.2,0,0,0-21.9-5.475c-.153-4.873-1.272-14.375-8.212-21.9-9.03-9.79-22.772-10.659-27.374-10.95-8.531-.539-10.424,1.66-19.162,0-5.593-1.062-12.453-2.364-16.424-8.212-3.807-5.605-2.912-12.371-2.738-13.687a24.921,24.921,0,0,1,2.738-8.212c2.91-5.638,5.175-5.37,5.475-8.212.355-3.368-2.752-4.436-8.213-13.687-1.728-2.928-2.593-4.392-2.737-5.475-.793-5.954,5.616-8.544,8.212-16.424,1.715-5.206.793-9.766,0-13.687-.532-2.632-2.508-12.4-10.949-19.161-10.631-8.514-23.848-6.115-27.374-5.475-16.847,3.057-25.694,16.5-27.374,19.161-1.885-9.167-8.74-15.782-16.424-16.424a16.622,16.622,0,0,0-13.687,5.475c-5,5.9-1.076,11.437-5.475,16.424-4.7,5.334-14.915,5.484-21.9,2.737-9.04-3.555-7.955-10.108-16.424-13.686-8.766-3.7-20.169-1.013-27.374,5.474-1.942,1.748-8.26,7.437-8.212,16.425a21.2,21.2,0,0,0,5.475,13.687c-3.735,2.27-18.721,11.815-24.637,27.373a36.245,36.245,0,0,0-2.737,16.425,34.385,34.385,0,0,0,2.737,10.949c-15.648-.475-24.694,3.943-30.111,8.212-9.409,7.415-9.27,15.482-19.162,19.162-8.183,3.045-11.845-1.15-21.9,2.738-3.871,1.5-11.38,4.4-13.687,10.949-2.771,7.87,3.087,17.835,5.475,21.9,3.147,5.354,5.613,7,5.475,10.949-.153,4.374-3.256,4.851-5.475,10.95a24.493,24.493,0,0,0,0,16.424,22.562,22.562,0,0,0,5.475,8.213c-8.321,2.336-32.241,9.367-49.273,19.161-4.373,2.515-8.913,5.569-10.949,10.95-2.346,6.2-.653,13.577,0,16.424,1.366,5.96,3.054,6.923,2.737,10.949-.426,5.4-3.9,9.251-5.475,10.95-4.075,4.4-6.528,3.756-13.687,8.212-6.525,4.061-12.021,7.482-13.687,13.687a16.091,16.091,0,0,0,2.738,13.687c.667.867,3.528,4.585,8.212,5.475,4.3.817,7.06-1.33,8.212,0,1.223,1.412-.566,5.362-2.737,8.212-5.483,7.2-11.782,5.26-16.425,10.95-5.05,6.189-3.041,15.155-2.737,16.424,2.938,12.288,15.865,16.262,16.424,16.424-1.228,1.224-10.378,10.62-8.212,21.9,2.71,14.114,20.777,18.883,21.9,19.162a26.748,26.748,0,0,0,12.156.207c-.055.049-.109.093-.163.143-8.326,7.555-10.226,17.94-10.95,21.9-.88,4.806-1.633,8.923,0,13.687,1.221,3.563,2.73,4.435,5.474,10.949a34.246,34.246,0,0,1,2.738,8.212c.794,4.7-.392,5.579,0,10.95a25.37,25.37,0,0,0,2.738,10.949,21.45,21.45,0,0,0,8.211,8.212c-11.2,7.342-17.838,7.2-21.9,5.475-4.964-2.107-5.52-6.336-10.688-11.2a13.454,13.454,0,0,0-.72-4.4c-2.306-6.549-9.815-9.452-13.687-10.949-10.053-3.888-13.715.307-21.9-2.738-9.891-3.68-9.753-11.747-19.161-19.161-5.417-4.269-14.464-8.688-30.112-8.213a34.348,34.348,0,0,0,2.738-10.949,36.234,36.234,0,0,0-2.738-16.424c-5.915-15.559-20.9-25.1-24.636-27.374a21.2,21.2,0,0,0,5.475-13.687c.048-8.988-6.271-14.676-8.212-16.424-7.2-6.487-18.608-9.179-27.374-5.475-8.469,3.578-7.384,10.131-16.424,13.687-6.984,2.747-17.194,2.6-21.9-2.738-4.4-4.986-.473-10.521-5.475-16.424a16.625,16.625,0,0,0-13.687-5.475c-7.684.642-14.539,7.258-16.424,16.425-1.68-2.666-10.527-16.1-27.374-19.162-3.527-.64-16.743-3.039-27.374,5.475-8.442,6.76-10.417,16.529-10.95,19.161-.792,3.921-1.714,8.482,0,13.687,2.6,7.88,9.006,10.471,8.213,16.424-.144,1.083-1.009,2.547-2.738,5.475-5.461,9.251-8.567,10.32-8.212,13.687.3,2.842,2.565,2.574,5.475,8.212a24.911,24.911,0,0,1,2.737,8.212c.175,1.316,1.07,8.082-2.737,13.687-3.972,5.848-10.831,7.151-16.424,8.213-8.738,1.659-10.631-.539-19.162,0-4.6.29-18.344,1.159-27.374,10.949-6.94,7.525-8.059,17.026-8.212,21.9a40.2,40.2,0,0,0-21.9,5.475c-4.3,2.589-9.109,5.485-10.95,10.95-2.268,6.736,2.469,9.975,0,16.424-.951,2.484-4.3,5.34-10.949,10.949-8.332,7.026-10.731,8.043-10.95,10.95-.338,4.492,5.125,5.616,5.475,10.949.278,4.234-2.995,6.1-8.212,13.687-4.1,5.965-7.7,11.2-8.212,16.424-.245,2.516-.358,11.043,13.687,21.9-7.873,8.79-10.088,16.747-10.711,21.582-6.267,1.114-11.3,3.685-15.7.688-1.431-.974-2.779-3.386-5.475-8.213-2.992-5.356-3.079-7.331-5.474-10.949a30.214,30.214,0,0,0-8.213-8.212c-7.791-5.4-16.194-5.443-21.9-5.475-7.937-.044-13.5,1.8-24.636,5.475-17.269,5.707-18.78,9.618-19.162,10.949-1.131,3.948,1.67,6.13,0,10.95-1.176,3.4-4.25,7.173-8.212,8.212-5.863,1.538-8.8-4.2-19.161-8.212a48.493,48.493,0,0,0-21.9-2.738c-6.917.837-7.8,2.782-21.9,8.213-16.242,6.258-18.349,4.942-21.9,8.212-4.854,4.472-8.861,14.257-2.737,38.323a14.753,14.753,0,0,0-5.475,0c-6.582,1.268-10.126,6.819-10.949,8.212-3.486,5.9-.233,8.394-2.738,13.687-2.237,4.73-5.926,5.043-21.9,13.687-10.769,5.828-13.812,8.24-13.687,10.95.141,3.025,4.094,3.485,5.475,8.212,1.086,3.716.154,8.608-2.737,10.949-2.864,2.318-6.588,1.275-13.687,0-1.307-.235-14.169-2.521-21.9-2.737-5.607-.157-11.95,1.72-24.637,5.474-20.188,5.976-23.292,9.306-24.636,10.95-.783.958-6.146,7.712-5.475,16.425.314,4.078,2.034,7.281,5.475,13.687,4.31,8.025,5.982,8.387,8.212,13.687,1.172,2.786,4.017,9.546,2.737,16.424-2.373,12.755-17.571,18.577-19.161,19.161a101.582,101.582,0,0,0-16.425-5.475c-9.607-2.313-26.233-6.317-43.8,0-8.46,3.044-14.571,7.558-19.161,10.95-11.088,8.191-10.649,11.671-19.162,16.424-.364.2-.909.5-1.586.839a25.1,25.1,0,0,0-1.394-7.041c-2.219-6.1-5.322-6.577-5.475-10.95-.138-3.955,2.328-5.6,5.475-10.949,2.388-4.064,8.246-14.03,5.475-21.9-2.307-6.549-9.816-9.452-13.687-10.949-10.054-3.887-13.716.307-21.9-2.737-9.892-3.681-9.753-11.747-19.162-19.162-5.417-4.269-14.463-8.687-30.111-8.212a34.385,34.385,0,0,0,2.737-10.95,36.257,36.257,0,0,0-2.737-16.424c-5.915-15.559-20.9-25.1-24.637-27.374a21.192,21.192,0,0,0,5.475-13.687c.048-8.988-6.27-14.676-8.212-16.424-7.2-6.487-18.609-9.179-27.374-5.475-8.469,3.579-7.384,10.132-16.424,13.687-6.984,2.747-17.194,2.6-21.9-2.737-4.4-4.987-.473-10.522-5.475-16.425a16.621,16.621,0,0,0-13.687-5.474c-7.684.642-14.539,7.257-16.424,16.424-1.68-2.666-10.527-16.1-27.374-19.162-3.526-.64-16.743-3.038-27.374,5.475-8.441,6.76-10.417,16.53-10.949,19.162-.793,3.921-1.715,8.481,0,13.687,2.6,7.88,9.005,10.47,8.212,16.424-.144,1.082-1.009,2.546-2.738,5.475-5.461,9.25-8.567,10.319-8.212,13.687.3,2.842,2.564,2.574,5.475,8.212a24.893,24.893,0,0,1,2.737,8.212c.175,1.316,1.07,8.081-2.737,13.687a16.017,16.017,0,0,1-7.024,5.645,71.176,71.176,0,0,0-14.076-11.243,21.2,21.2,0,0,0,5.475-13.687c.047-8.988-6.271-14.677-8.212-16.425-7.2-6.486-18.609-9.178-27.374-5.474-8.469,3.578-7.384,10.131-16.424,13.687-6.985,2.746-17.194,2.6-21.9-2.738-4.4-4.986-.472-10.521-5.474-16.424a16.622,16.622,0,0,0-13.687-5.475c-7.684.642-14.539,7.257-16.425,16.424-1.68-2.665-10.526-16.1-27.373-19.161-3.527-.64-16.743-3.039-27.374,5.475-8.442,6.76-10.417,16.529-10.95,19.161-.793,3.921-1.715,8.481,0,13.687,2.6,7.88,9.006,10.47,8.213,16.424-.145,1.083-1.009,2.547-2.738,5.475-5.461,9.251-8.567,10.32-8.212,13.687.3,2.842,2.564,2.574,5.475,8.212a24.91,24.91,0,0,1,2.737,8.213c.174,1.315,1.07,8.081-2.737,13.686-3.972,5.848-10.832,7.15-16.425,8.212-8.737,1.66-10.631-.538-19.161,0-4.6.291-18.344,1.16-27.374,10.95-6.94,7.525-8.059,17.026-8.212,21.9a40.2,40.2,0,0,0-21.9,5.475c-4.3,2.589-9.11,5.485-10.95,10.949-2.268,6.737,2.469,9.976,0,16.425-.951,2.484-4.3,5.34-10.949,10.949-8.332,7.026-10.731,8.043-10.95,10.95-.338,4.493,5.125,5.616,5.475,10.949.278,4.234-2.995,6.1-8.212,13.687-4.1,5.965-7.7,11.2-8.212,16.424-.245,2.516-.358,11.043,13.687,21.9-9.877,11.027-10.858,20.761-10.95,24.637-.157,6.576,1.835,13.354,2.737,16.424,3.037,10.334,5.976,11.639,5.475,16.424-.791,7.568-9.145,13.926-16.424,16.425-12.036,4.131-16.678-3.823-30.111,0-7.858,2.236-5.235,4.663-19.162,10.949-8.151,3.679-15.1,5.577-16.424,10.95-.643,2.6.74,3.129,0,5.475-1.972,6.252-12.369,4.289-16.425,10.949-2.542,4.177-1.152,9.378,0,13.687a29.661,29.661,0,0,0,8.213,13.687,22.491,22.491,0,0,0-10.95,8.212c-4.734,7.1-1.546,13.085-5.475,16.425-5.009,4.258-12.006-3.926-24.636-2.738-13.107,1.233-14.775,10.91-27.374,10.949-8.294.026-8.171-4.167-19.162-5.474a45.969,45.969,0,0,0-27.373,5.474c-5.745,3.152-13.386,7.345-13.687,13.687-.438,9.213,14.946,15.809,16.424,16.425,7.3,3.039,10.746,1.744,21.9,2.737,8.592.765,17.59,3.247,35.586,8.212,12.047,3.324,11.105,3.521,27.374,8.212,18.887,5.446,28.33,8.169,32.848,8.213,14.016.134,20.262-4.685,30.112,0,5.6,2.665,5.016,4.907,10.949,8.212,12.419,6.918,26.61,3.564,30.111,2.737,13.956-3.3,14.543-10.079,32.849-21.9,16.322-10.539,32.737-21.138,52.01-19.162,9.212.945,16.815,4.53,21.9,0,4.448-3.962,5.153-12.517,5.475-16.424.1-1.242.131-2.281.121-3.185a26.286,26.286,0,0,0,4.555.571c14.015.135,20.262-4.684,30.111,0,5.6,2.665,5.016,4.908,10.949,8.212,12.42,6.918,26.61,3.565,30.112,2.738,13.944-3.3,14.543-10.069,32.8-21.871,5.722,3.044,13.046,6.98,22.742,8.06,12.416,1.384,25.757-2.248,27.374-8.212.818-3.018-1.654-5.575,0-8.212.5-.8,2.439-3.285,10.95-2.738,11.223.723,16.144,5.572,24.636,8.213,5.464,1.7,13.535,2.835,24.636,0a21.453,21.453,0,0,0,8.213,8.212c8.505,4.6,17.956,1.355,21.9,0,6.146-2.113,5.974-3.8,19.161-10.949,6.152-3.335,9.227-5,10.95-5.476,12.291-3.376,17.815,4.922,30.111,2.738,8.271-1.47,6.81-5.408,16.424-8.212,13.222-3.856,17.778,3.068,30.112,0,1.121-.279,19.188-5.048,21.9-19.162,2.09-10.885-6.355-20.012-8.053-21.738,4.287,1.757,7.94,3.948,12.728,5.437,5.464,1.7,13.535,2.836,24.637,0a21.435,21.435,0,0,0,8.212,8.212c8.5,4.6,17.956,1.356,21.9,0,6.146-2.112,5.974-3.8,19.162-10.949,6.151-3.334,9.226-5,10.949-5.475,12.292-3.376,17.815,4.922,30.111,2.737,8.271-1.469,6.81-5.407,16.425-8.212,13.221-3.856,17.777,3.068,30.111,0,1.122-.279,19.189-5.047,21.9-19.161,2.166-11.28-6.984-20.675-8.212-21.9.559-.162,13.487-4.137,16.424-16.425.3-1.269,2.313-10.235-2.737-16.424-4.643-5.689-10.942-3.752-16.425-10.949-2.171-2.851-3.96-6.8-2.737-8.213,1.152-1.329,3.915.817,8.212,0,4.683-.89,7.545-4.608,8.212-5.474a16.016,16.016,0,0,0,3.226-9.745c19.564-.175,30.033,1.372,35.34,2.26,12.944,2.167,26.142,6.036,52.011,13.687,6.256,1.851,11.551,3.461,16.1,4.88q4.4-.57,8.8-1.127,17.607-2.215,35.246-4.149a23.457,23.457,0,0,0-.247,11.745c2.938,12.288,15.866,16.262,16.425,16.424-1.228,1.224-10.378,10.619-8.212,21.9,2.71,14.114,20.777,18.883,21.9,19.162,12.333,3.068,16.89-3.857,30.111,0,9.615,2.8,8.153,6.743,16.424,8.212,12.3,2.184,17.82-6.114,30.111-2.738,1.723.474,4.8,2.141,10.95,5.475,13.187,7.148,13.015,8.837,19.161,10.95,3.943,1.355,13.394,4.6,21.9,0a21.456,21.456,0,0,0,8.212-8.212c11.1,2.835,19.172,1.7,24.636,0,8.492-2.641,13.413-7.491,24.637-8.213,8.511-.547,10.445,1.935,10.949,2.738,1.654,2.637-.818,5.193,0,8.212,1.617,5.963,14.958,9.6,27.374,8.212,19.129-2.131,29.042-15.385,35.586-10.949,3.931,2.664,1.259,8.061,5.475,10.949,5.312,3.639,13.115-2.491,30.111-8.212a111.556,111.556,0,0,1,21.9-5.475c13.587-1.752,34.545-.943,38.323,8.212,1.208,2.928-.6,3.654,0,10.95.322,3.907,1.028,12.462,5.475,16.424,5.084,4.53,12.687.945,21.9,0,19.273-1.976,35.688,8.623,52.01,19.162,18.306,11.82,18.893,18.6,32.849,21.9,3.5.827,17.692,4.18,30.111-2.737,5.933-3.3,5.346-5.547,10.949-8.213,9.85-4.684,16.1.135,30.112,0,4.518-.043,13.962-2.766,32.848-8.212,16.269-4.691,15.327-4.888,27.374-8.212,18-4.965,26.994-7.447,35.586-8.212,11.154-.993,14.6.3,21.9-2.737,1.479-.616,16.862-7.212,16.425-16.425-.3-6.342-7.943-10.535-13.687-13.687a45.973,45.973,0,0,0-27.374-5.474c-10.991,1.307-10.868,5.5-19.162,5.474-12.6-.039-14.267-9.717-27.374-10.949-12.63-1.188-19.627,7-24.636,2.737-3.929-3.34-.74-9.322-5.475-16.424a22.485,22.485,0,0,0-10.95-8.212,29.652,29.652,0,0,0,8.213-13.687c1.152-4.31,2.542-9.511,0-13.687-4.056-6.661-14.452-4.7-16.425-10.95-.739-2.345.643-2.877,0-5.474-1.328-5.373-8.273-7.271-16.424-10.95-13.927-6.286-11.3-8.713-19.162-10.949-13.433-3.823-18.075,4.13-30.111,0a31.221,31.221,0,0,1-6.292-3.031,54.876,54.876,0,0,0,21.005-11.7c7.428-6.751,6.948-10.423,13.687-13.686a29.446,29.446,0,0,1,24.637,0c7.478,3.583,6.586,7.7,16.424,13.686,5.725,3.481,10.786,6.558,16.424,5.475,6.54-1.256,7.4-6.868,16.425-13.687,2.158-1.631,8.687-6.565,16.424-8.212,12.293-2.617,17.129,5.3,41.061,10.95,10.222,2.413,15.333,3.619,21.9,2.737,15.333-2.061,16.582-11.433,30.111-13.687,11.179-1.862,13.964,3.931,35.586,8.212,6.731,1.333,14.524,1.8,30.111,2.738,28.446,1.708,42.856,2.457,52.01-2.738,6.8-3.857,7.473-6.888,16.425-10.949a63.914,63.914,0,0,1,24.636-5.475c13.744-.331,17.017,3.876,38.323,5.475,7.048.529,10.634.777,13.687,0,11.413-2.907,13.539-11.706,24.636-19.162,11.415-7.669,23.64-8.085,27.374-8.212,14.428-.491,16.48,5.8,38.324,10.949,8.3,1.957,21.627,4.974,38.323,2.738,8.751-1.172,20.035-2.821,30.111-10.95,8.1-6.536,7.8-11.11,13.687-16.424,11.5-10.377,28.924-7.618,46.535-5.475,0,0,42.31,5.148,82.122,5.475,23.939.2,42.077.346,65.7-5.475,17.487-4.309,24.551-8.581,43.8-10.949,11.034-1.358,22.1-.924,43.8,0,40.838,1.739,61.257,2.608,62.96,2.737,8.363.631,23.649,1.9,38.324-5.475,8.351-4.2,10.395-8.122,10.949-10.949,1.216-6.207-3.824-11.842-5.475-13.687-7.207-8.058-18.184-10.544-32.848-13.687-8.767-1.879-12.38-1.868-16.425-5.475-3.664-3.267-5.56-7.612-8.212-13.687-4.215-9.657-2.56-10.767-5.474-13.687a11.9,11.9,0,0,0-1.12-.979,25.943,25.943,0,0,0,8.509-2.067c1.479-.616,16.862-7.212,16.425-16.425-.3-6.342-7.943-10.534-13.687-13.686a46.95,46.95,0,0,0-10.561-4.234c-1.582-4.7-6.435-8.182-7.779-9.144-7.8-5.585-13.385-2.487-19.161-8.212-3.836-3.8-4.966-8.73-5.475-10.95-1.577-6.876.891-9.282,0-13.687-1.789-8.848-15.278-16.613-27.374-16.424-14.761.231-17.064,12.146-30.111,10.95a23.072,23.072,0,0,1-4.978-1.04,11.607,11.607,0,0,0-1.319-7.482c-4.056-6.66-14.453-4.7-16.424-10.949-.74-2.345.642-2.877,0-5.475-1.329-5.373-8.274-7.27-16.425-10.949-13.927-6.287-11.3-8.714-19.161-10.95-13.433-3.823-18.076,4.131-30.112,0-6.171-2.118-13.1-7.016-15.549-13.067-.016-.105-.038-.205-.053-.311a34.664,34.664,0,0,1-.4-6.841c.9-2.65,2.953-5.477,5.055-12.63.9-3.069,2.894-9.848,2.737-16.424-.083-3.481-.9-11.694-8.224-21.32,6.057.285,12.409,1.139,18.788,1.915,0,0,42.309,5.148,82.121,5.474,23.939.2,42.077.346,65.7-5.474,17.486-4.309,24.55-8.581,43.8-10.95,11.034-1.358,22.106-.924,43.8,0,40.837,1.739,61.256,2.609,62.959,2.738,8.363.631,23.649,1.9,38.324-5.475,8.352-4.2,10.4-8.123,10.949-10.95C4462.786,833.482,4457.746,827.847,4456.1,826ZM3365.089,1026.383c-7.959,2.724-10.6,12.338-10.95,13.687a22.324,22.324,0,0,0,0,10.95,16.758,16.758,0,0,0-8.212-2.738c-5.574-.25-10.663,2.712-14.685,6.613-.011-.033-.017-.064-.028-.1-1.84-5.464-6.65-8.361-10.95-10.949a40.2,40.2,0,0,0-21.9-5.475c-.035-1.129-.127-2.514-.327-4.058a54.363,54.363,0,0,0,18.849,6.026c12.416,1.384,25.758-2.248,27.374-8.212.819-3.018-1.654-5.575,0-8.212.5-.8,2.439-3.285,10.95-2.737,7.005.45,11.555,2.509,16.051,4.635A13.6,13.6,0,0,0,3365.089,1026.383Zm32.848,19.162c-5.791-2.459-5.562-7.8-13.687-13.687-.762-.552-1.789-1.291-3-2.064,5.411,1.454,13.043,2.2,23.235-.4a21.453,21.453,0,0,0,8.213,8.212,19.585,19.585,0,0,0,6.626,2.152c.171.105.337.211.514.314C3408.631,1047.411,3402,1047.269,3397.937,1045.545Z" fill="#c0cfe6"/>
    </g>
    <path d="M6067.694,1371.093c-7.351-5.436-10.234-5.8-17.029-9.983-15.275-9.392-13.8-15.578-22.969-17.864-4.487-1.119-11.137.639-24.437,4.155-12.006,3.174-16.709,5.7-24.438,4.156-4.683-.935-6.509-2.57-11.247-4.834-12.13-5.795-23.455-6.2-30.535-6.459-19.3-.7-35,6.263-43.251,10.727a21.959,21.959,0,0,0-3.207-8.04c-.892-1.354-2.943-4.125-8.673-7.724-9-5.652-12.175-3.993-14.138-7.408-2.594-4.512,2.607-8.01,1.784-16.555a22.361,22.361,0,0,0-9.147-15.923c-8.2-5.551-18.658-2.461-22.02-1.468-14.975,4.425-18.29,15.975-29.271,15.4-3.581-.187-3.774-1.444-11.247-4.833a102.731,102.731,0,0,0-38.892-8.718c-8.967-.14-16.33-.164-24.437,4.155a34.033,34.033,0,0,0-13.032,11.722c-7.532,11.828-4.608,24.767-3.884,27.644a34.883,34.883,0,0,0-16.714-4.517c-1.49-.013-14.6.072-24.121,9.621-2.912,2.921-1.326,2.553-7.566,11.405-10.2,14.468-15.3,16.688-18.181,17.5-2.633.746-2.477.056-8.2.475-4.436.323-16.11,1.176-27.012,7.046-9.28,5-10.4,9.532-15.923,9.147-4.749-.332-7.242-3.919-11.406-7.567-8.579-7.517-17.85-9.683-28.118-12.083-16.364-3.824-31.271-.787-40.992,2.372-4.118-5.639-7.509-9-10.313-10.868,7.088-16.1-2.711-25.97-21.431-31.714a15.6,15.6,0,0,0-1.163-4.871c-2.418-5.72-7.8-8.415-11.563-10.3-10.947-5.48-16.734-1.088-25.07-6.776-1.164-.794-1.281-1.036-8.83-10.457-12.719-15.87-14.338-17.614-17.5-18.181-7.135-1.278-14.246,4.837-16.08,6.414-6.627,5.7-6.525,11.2-10.3,11.564-4.687.457-5.71-7.937-14.454-12.874-10.023-5.66-21.272-1.742-22.021-1.468-10.358,3.783-14.726,12.707-15.606,14.612,1.022-3.567,4.659-17.3-1.265-21.862-1.417-1.092-3.73-1.48-8.356-2.259-10.217-1.719-11.873-.139-13.823-1.942-4.244-3.928,3.009-11.979-1.264-21.863-2.425-5.609-6.182-6.306-6.1-10.615.095-4.848,4.883-5.657,7.566-11.4,4.667-10-2.9-22.38-4.155-24.438-2.265-3.7-6.432-10.524-14.455-12.873-9-2.637-19.46,1.353-26.854,9.779a33.9,33.9,0,0,0-3.207-8.041c-5.3-9.507-13.774-13.729-17.345-15.448-5.251-2.528-12.887-6.2-22.179-4.2-13.589,2.93-19.967,15.69-20.914,17.662-.053-1.954-.174-4.791-.474-8.2-1.011-11.461-1.517-17.192-4-21.7-5.578-10.145-21.406-16.373-30.851-11.925-6.939,3.267-6.531,10.461-13.032,11.721-4.558.884-6.766-2.263-16.871-7.25-11.508-5.679-17.262-8.518-22.336-6.934-9.266,2.894-9.294,16.515-18.182,17.5-3.149.35-3.317-1.34-8.357-2.259-12.7-2.316-23.513,6.263-24.278,6.889-.285.232-.627.514-.992.82-1.742-6.806-3-14.3-4.317-25.913-2.259-19.853-1.524-23.639-5.475-27.374-6.05-5.719-17.073-5.631-24.636-2.737-11.179,4.277-11.751,13.519-19.162,13.687-9.317.211-12.476-14.3-21.9-13.687-6.914.453-8.845,8.506-16.424,8.212-5.41-.21-6.047-4.375-10.95-5.475-12.951-2.905-25.991,22.234-32.848,19.162-3.826-1.713.161-9.569-5.475-16.424-5.975-7.267-14.288-3.1-21.9-10.95-5.662-5.837-3.207-10.352-8.212-13.687-7.453-4.963-23.521-2.033-27.374,8.213-2.677,7.118,1.579,15.011,5.475,19.161a22.221,22.221,0,0,0,8.212,5.475,45.822,45.822,0,0,0-8.212,10.95,46.726,46.726,0,0,0-5.475,21.9c-4.59-.238-20.841-.519-35.586,10.95a52.8,52.8,0,0,0-16.425,21.9c-2.783-.154-14.7-.5-24.636,8.212-2.043,1.793-9.084,7.979-10.843,16.972-8.784-.251-13.684,4.434-23.515,1.06-7.279-2.5-15.632-8.858-16.424-16.425-.5-4.786,2.438-6.091,5.475-16.424.9-3.07,2.894-9.848,2.737-16.424-.092-3.876-1.073-13.61-10.949-24.637,14.044-10.856,13.932-19.383,13.687-21.9-.509-5.221-4.111-10.459-8.212-16.424-5.217-7.587-8.491-9.453-8.213-13.687.35-5.333,5.813-6.457,5.475-10.95-.218-2.907-2.617-3.924-10.949-10.949-6.653-5.609-10-8.465-10.95-10.95-2.469-6.449,2.268-9.688,0-16.424-1.84-5.464-6.65-8.361-10.949-10.949a40.2,40.2,0,0,0-21.9-5.475c-.153-4.873-1.272-14.375-8.212-21.9-9.029-9.791-22.771-10.659-27.374-10.95-8.53-.539-10.423,1.66-19.161,0-5.593-1.062-12.453-2.365-16.425-8.212-3.807-5.605-2.911-12.371-2.737-13.687a24.949,24.949,0,0,1,2.737-8.212c2.911-5.638,5.176-5.37,5.476-8.212.354-3.367-2.752-4.436-8.213-13.687-1.728-2.928-2.593-4.392-2.737-5.475a7.048,7.048,0,0,1,.109-2.483c5-2.692,12.71-7.924,12.4-14.484a10.312,10.312,0,0,0-3.352-6.694,41.88,41.88,0,0,0-.943-6.45c-.533-2.632-2.508-12.4-10.95-19.162-10.63-8.513-23.847-6.115-27.374-5.474-16.847,3.057-25.693,16.5-27.373,19.161-1.886-9.167-8.74-15.782-16.424-16.424a16.617,16.617,0,0,0-13.687,5.475,12.368,12.368,0,0,0-2.884,7.525c-3.847,1.326-6.787,2.234-9.246.144-3.929-3.34-.74-9.323-5.474-16.425a22.5,22.5,0,0,0-10.95-8.212,29.661,29.661,0,0,0,8.212-13.687c1.152-4.309,2.543-9.511,0-13.687-4.055-6.66-14.452-4.7-16.424-10.949-.74-2.346.642-2.877,0-5.475-1.329-5.373-8.273-7.27-16.424-10.949-13.928-6.287-11.305-8.714-19.162-10.95a25.552,25.552,0,0,0-8.966-1.01c-6.087-17.635-20.654-26.836-32.2-31.507.035-.115.069-.215.1-.332.9-3.07,2.894-9.848,2.737-16.424a31.825,31.825,0,0,0-2.046-10.279c12.64-20.463,23.937-50.157-.785-68.373a61.953,61.953,0,0,0-7.179-4.552,5.767,5.767,0,0,0,1.8-4.392c-.218-2.907-2.617-3.924-10.949-10.95-6.653-5.609-10-8.464-10.95-10.949-2.469-6.449,2.269-9.688,0-16.424-1.84-5.465-6.65-8.361-10.949-10.95a40.2,40.2,0,0,0-21.9-5.475c-.153-4.873-1.273-14.374-8.213-21.9-9.029-9.79-22.771-10.658-27.373-10.949-8.531-.539-10.424,1.659-19.162,0-5.593-1.062-12.453-2.365-16.424-8.212-3.807-5.606-2.912-12.371-2.738-13.687a24.929,24.929,0,0,1,2.738-8.213c2.91-5.637,5.175-5.369,5.475-8.212.355-3.367-2.751-4.436-8.213-13.687-1.728-2.928-2.593-4.392-2.737-5.474-.794-5.954,5.616-8.545,8.212-16.425,1.715-5.2.793-9.765,0-13.687-.532-2.631-2.508-12.4-10.949-19.161-10.631-8.514-23.848-6.115-27.374-5.475-16.848,3.058-25.694,16.5-27.374,19.162-1.885-9.167-8.74-15.783-16.424-16.425a16.623,16.623,0,0,0-13.687,5.475c-5,5.9-1.076,11.438-5.475,16.424-4.705,5.334-14.915,5.485-21.9,2.738-9.04-3.555-7.955-10.108-16.424-13.687-8.766-3.7-20.169-1.012-27.374,5.475-1.942,1.748-8.26,7.436-8.212,16.424a21.2,21.2,0,0,0,5.474,13.687c-3.734,2.27-18.721,11.815-24.636,27.374a36.248,36.248,0,0,0-2.738,16.424,34.416,34.416,0,0,0,2.738,10.95c-15.648-.476-24.694,3.943-30.111,8.212-9.409,7.414-9.271,15.481-19.162,19.161-8.183,3.045-11.845-1.15-21.9,2.738-3.872,1.5-11.38,4.4-13.687,10.949-2.243,6.37,1.167,14.111,3.814,18.986-39.559-9.984-88.13-6.689-126.414,44.706-78.059,104.792,27.8,149.7,27.8,149.7-27.13,41.164-23.567,63.5-10.973,75.608-2.944-.6-6.471-1.46-10.756-2.514-11.41-2.806-13.311-4.077-16.425-2.738-5.99,2.578-9.309,11.747-8.212,19.162,1.7,11.458,13.944,18.78,19.162,21.9,8.16,4.878,13.432,5.141,13.686,8.212.353,4.246-9.287,8.923-16.423,10.95-11.585,3.29-15.091-.825-24.637,2.737-1.748.653-11.777,4.4-16.424,13.687-1.809,3.618-1.485,5.442-2.737,24.637-.844,12.922-1.153,14.573-2.738,16.424-1.667,1.946-4.093,3.35-21.9,5.475-12.833,1.531-14.344,1.133-19.162,2.737-5.8,1.932-12.83,4.273-16.424,10.95-4.212,7.825-.975,16.536,0,19.161,3.179,8.557,10.03,13.686,13.687,16.424,5.224,3.912,6.1,2.91,8.212,5.475,5.46,6.646,3.03,17.6,1.035,24.161q-3.9,1.06-7.665,2.366a114.249,114.249,0,0,0-30.082,15.386c-4.89-3.575-11.753-3.579-18.036-11.8-1.391-1.821-6.563-8.59-5.474-16.424.619-4.456,2.611-4.551,2.737-8.212.224-6.484-5.824-12-13.687-19.162-6.145-5.6-7.642-5.645-8.212-8.212-1.267-5.707,5.475-8.464,8.212-19.161.914-3.574,2.224-8.693,0-13.687-4.093-9.193-16.919-10.688-19.161-10.95a31.2,31.2,0,0,0-16.425,2.737,31.527,31.527,0,0,0-13.687,10.95c-2.362,3.478-3.4,6.881-5.474,13.687a110.483,110.483,0,0,0-2.738,10.949c-2.843-9.822-7.344-14.222-10.949-16.424-2.4-1.463-4.162-1.812-21.9-8.212-2.7-.972-4.071-1.484-5.475-2.737-4.461-3.982-2.858-9.126-5.475-16.424-.964-2.691-3.961-11.05-10.949-13.688-6.657-2.512-14.818.966-19.162,5.475-4.389,4.556-6.855,12.212-8.212,16.424-.834,2.588-1.151,4.174-2.738,5.475-2.868,2.353-6.76,1.212-13.687,0-14.378-2.514-14.147-.487-19.161-2.737-8.2-3.68-6.4-8.014-13.687-10.949-9.892-3.983-20.74.961-24.637,2.737-3.341,1.523-5.883,2.715-8.212,5.474-4.386,5.2-6.008,13.56-2.737,19.162,1.257,2.154,3.036,3.555,5.474,5.475,4.975,3.917,8.3,4.332,8.213,5.475-.2,2.7-18.663-.672-24.637,8.212-2.268,3.373-2.485,8.14-2.737,13.687-.337,7.392,1.3,8.308,0,10.949-2.407,4.9-8.99,3.7-21.9,8.212-1.743.61-3.3,1.158-4.745,1.692a11.521,11.521,0,0,1,.422-3.308c1.381-4.726,5.334-5.187,5.475-8.212.125-2.71-2.918-5.122-13.687-10.95-15.973-8.643-19.661-8.957-21.9-13.687-2.505-5.293.748-7.788-2.737-13.687-.824-1.393-4.368-6.943-10.95-8.211a14.71,14.71,0,0,0-5.475,0c6.124-24.067,2.117-33.851-2.737-38.324-3.549-3.27-5.656-1.954-21.9-8.212-14.1-5.431-14.981-7.376-21.9-8.212a48.472,48.472,0,0,0-21.9,2.737c-10.366,4.012-13.3,9.75-19.162,8.212-3.961-1.039-7.036-4.815-8.212-8.212-1.669-4.82,1.132-7,0-10.949-.382-1.331-1.893-5.243-19.162-10.95-11.133-3.679-16.7-5.519-24.636-5.475-5.7.032-14.108.079-21.9,5.475a30.228,30.228,0,0,0-8.213,8.212c-2.395,3.618-2.482,5.593-5.474,10.95-2.7,4.826-4.044,7.238-5.475,8.212-6.848,4.659-15.2-4.143-27.374,0a39.714,39.714,0,0,0-5.475,2.737c-12.182,6.669-21.6,11.824-27.373,21.9-4.5,7.848-5.194,15.9-5.475,19.162a96.035,96.035,0,0,0,0,16.424c.377,3.586.733,4.526,0,5.475-3.282,4.249-16.211-7.091-27.374-2.737-8.354,3.258-6.067,11.541-16.424,16.424-7.862,3.707-13.242.85-16.425,5.475-2,2.9-.529,4.974-2.737,13.687-1.2,4.745-1.8,7.118-2.737,8.212-5.513,6.459-18.917-2.78-41.061,0-8.959,1.124-13.516,3.484-16.424,5.475-1.9,1.3-8.324,5.7-10.95,13.687-1.48,4.5-.987,9.39,0,19.161.856,8.474,1.929,11.025,0,13.687-2.6,3.586-6.438,1.57-10.95,5.475-5.549,4.8-5.493,12.835-5.474,13.687.08,3.757,1.879,7.118,5.474,13.687,5.786,10.569,8.538,12.254,8.213,16.424-.453,5.8-6.335,9.7-8.213,10.949-12.744,8.462-30.209,1.111-32.848,0-6.081-2.559-4.488-3.407-13.687-8.212-10.2-5.33-18.093-9.45-27.374-8.212-3.246.433-9.555,1.908-16.424,8.212a14.094,14.094,0,0,0-2.737-8.212c-3.587-4.7-9.3-5.3-10.95-5.475-11.217-1.18-20.394,8.987-24.636,13.687a48.229,48.229,0,0,0-5.411,7.25c-6.122,3.514-10.04,8.646-18.822,7.841-13.281-1.218-23.353-14.7-24.636-16.424-5.362-7.18-3.578-9.562-8.213-13.687-8.288-7.379-22.923-7.711-32.848-2.738-2.009,1.007-6.733,5.157-16.123,13.422a10.019,10.019,0,0,0-1.09-.713c-7.87-9.755-8.6-10.475-10.161-12.709-.605-.865-1.663-2.432-2.9-4.573a143.265,143.265,0,0,0,11.108-14.588c6.328-9.6,9.466-14.491,8.212-19.162-2.351-8.758-17.457-14.935-27.511-11.977a60.494,60.494,0,0,0-8.075-23.609c-6.917-11.289-11.926-9.909-13.687-16.424-4.1-15.168,20.879-30.661,16.425-38.324-2.422-4.165-9.9.238-21.9-5.474-7.91-3.768-12.941-9.629-16.425-13.687-8.607-10.027-5.848-12.741-10.949-16.425-12.073-8.716-27.547,6.467-41.061-2.737-2.747-1.871-4.764-4.307-13.687-10.95-4.561-3.395-6.869-5.1-8.212-5.474-9.5-2.649-14.581,9.055-24.637,8.212-7.568-.635-7.443-7.5-21.9-16.424a61.371,61.371,0,0,0-19.162-8.213c-6.58-1.493-21.115-4.793-30.111,2.738-7.11,5.952-4.243,13.213-10.95,16.424-3.58,1.714-9.735.254-21.9-2.737-11.409-2.806-13.311-4.077-16.424-2.738-5.991,2.578-9.31,11.747-8.212,19.162,1.555,10.513,11.991,17.541,17.733,21.038-10.443,5.35-17.291,12.836-21.5,21.539a24.635,24.635,0,0,0-4.445,1.221c-1.747.652-11.777,4.4-16.424,13.687-1.81,3.618-1.485,5.442-2.737,24.637-.844,12.922-1.153,14.573-2.738,16.424-1.234,1.44-2.89,2.584-10.885,3.942a73.028,73.028,0,0,0-23.755.171c-58.812,9.623-34.218,72.713-34.218,72.713a97.747,97.747,0,0,0-26.724,2.806,16.77,16.77,0,0,1-.226-5.723c.619-4.457,2.611-4.552,2.737-8.212.224-6.484-5.823-12-13.686-19.162-6.145-5.6-7.643-5.645-8.213-8.212-1.267-5.707,5.476-8.464,8.213-19.162.914-3.574,2.223-8.692,0-13.687-4.094-9.192-16.92-10.688-19.162-10.949a31.194,31.194,0,0,0-16.424,2.737,31.516,31.516,0,0,0-13.687,10.95c-2.362,3.478-3.4,6.881-5.475,13.687a110.078,110.078,0,0,0-2.737,10.949c-2.844-9.822-7.345-14.222-10.95-16.424-2.4-1.463-4.162-1.812-21.9-8.212-2.7-.972-4.071-1.484-5.475-2.738-4.461-3.982-2.858-9.125-5.475-16.424-.964-2.69-3.961-11.049-10.949-13.687-6.657-2.512-14.817.965-19.162,5.475-4.389,4.556-6.855,12.212-8.212,16.424-.833,2.588-1.151,4.174-2.737,5.475-2.869,2.353-6.76,1.212-13.687,0-14.379-2.515-14.148-.487-19.162-2.737-8.2-3.68-6.395-8.014-13.687-10.95-9.891-3.982-20.74.962-24.636,2.738-3.342,1.522-5.883,2.715-8.212,5.474-4.386,5.2-6.008,13.56-2.738,19.162,1.258,2.154,3.036,3.555,5.475,5.475,4.974,3.916,8.3,4.332,8.212,5.475-.2,2.7-18.663-.673-24.636,8.212-2.268,3.373-2.485,8.14-2.738,13.687-.336,7.391,1.3,8.308,0,10.949-2.407,4.9-8.99,3.7-21.9,8.212-7.611,2.662-12,4.2-16.424,8.212-8.325,7.556-10.225,17.941-10.95,21.9-.879,4.807-1.632,8.923,0,13.687,1.222,3.563,2.731,4.436,5.475,10.95a34.231,34.231,0,0,1,2.738,8.212c.794,4.7-.393,5.579,0,10.95a25.37,25.37,0,0,0,2.737,10.949,21.455,21.455,0,0,0,8.212,8.212c-11.2,7.341-17.839,7.2-21.9,5.475-5.791-2.459-5.563-7.8-13.687-13.687-3.276-2.373-11.282-8.171-19.162-5.475-7.958,2.724-10.6,12.339-10.949,13.687a22.324,22.324,0,0,0,0,10.95,16.779,16.779,0,0,0-8.212-2.738c-6.168-.276-11.739,3.379-15.932,7.889-3.839,1.784-8.847,4.852-18.958,9.135-16.523,7-20.26,6.053-21.9,5.475-4.793-1.694-4.75-4.881-13.687-16.425-5.179-6.69-5.5-6.016-16.424-19.161-10.074-12.123-10.868-13.981-10.949-16.425-.193-5.793,3.765-10.542,10.949-19.161,7.551-9.06,10.447-9.5,10.95-13.687,1.041-8.685-10.215-16.692-13.687-19.162-5.608-3.989-11.379-6.244-19.162-8.212-26.511-6.7-38.716-.558-43.8-8.212-3.6-5.421-1.617-14.739,2.737-19.162,3.032-3.079,5.325-1.867,10.95-5.475,2.628-1.685,10.3-6.606,10.949-13.686.729-7.953-7.813-14.149-10.949-16.425-.8-.581-12.087-8.52-24.637-5.475-4.978,1.209-5.048,2.906-8.212,2.738-8.93-.475-9.745-14.071-19.161-16.425-5.158-1.289-10.738,1.879-21.9,8.213-9.8,5.561-11.822,8.831-16.424,8.212-6.562-.883-6.571-8.088-13.687-10.95-9.685-3.9-25.128,3.237-30.111,13.687-2.216,4.648-2.39,10.4-2.737,21.9-.1,3.42-.06,6.259,0,8.212-1.06-1.913-8.163-14.284-21.9-16.424-9.392-1.463-16.8,2.648-21.9,5.475-3.466,1.922-11.683,6.627-16.425,16.424a33.894,33.894,0,0,0-2.737,8.212c-7.868-7.984-18.537-11.364-27.374-8.212-7.874,2.809-11.64,9.858-13.687,13.687-1.136,2.127-7.974,14.923-2.737,24.636,3.01,5.585,7.837,6.116,8.212,10.95.333,4.3-3.378,5.21-5.475,10.949-3.695,10.115,4.011,17.733,0,21.9-1.841,1.913-3.586.431-13.687,2.737-4.573,1.044-6.86,1.566-8.212,2.737-5.65,4.895-1.226,18.4,0,21.9-.989-1.851-5.865-10.508-16.424-13.687-.764-.229-12.22-3.491-21.9,2.738-8.445,5.434-8.981,13.872-13.687,13.687-3.79-.15-4.005-5.645-10.95-10.95-1.922-1.468-9.375-7.162-16.424-5.475-3.128.749-4.643,2.584-16.424,19.162-6.994,9.841-7.1,10.089-8.212,10.95-7.994,6.16-14.024,2.109-24.637,8.212-3.646,2.1-8.866,5.1-10.949,10.949-1.689,4.742-.721,9.682.845,13.675-7.336,2.034-7.605,4.043-14.616,5.007-13.59,1.868-24.752-4.011-27.374-5.475-8.513-4.753-8.074-8.233-19.162-16.424-4.59-3.392-10.7-7.907-19.161-10.95-17.565-6.318-34.191-2.313-43.8,0a101.5,101.5,0,0,0-16.424,5.475c-1.59-.584-16.788-6.406-19.161-19.162-1.28-6.877,1.565-13.638,2.737-16.424,2.23-5.3,3.9-5.661,8.212-13.687,3.44-6.4,5.161-9.608,5.475-13.687.671-8.712-4.692-15.466-5.475-16.424-1.344-1.644-4.448-4.975-24.636-10.95-12.687-3.754-19.03-5.631-24.637-5.474-7.73.216-20.592,2.5-21.9,2.737-7.1,1.275-10.823,2.318-13.687,0-2.891-2.341-3.823-7.234-2.737-10.95,1.381-4.726,5.334-5.187,5.475-8.212.125-2.71-2.919-5.122-13.687-10.949-15.973-8.644-19.661-8.957-21.9-13.687-2.5-5.293.748-7.789-2.738-13.687-.823-1.393-4.367-6.944-10.949-8.212a14.731,14.731,0,0,0-5.475,0c6.124-24.066,2.117-33.851-2.737-38.323-3.55-3.271-5.657-1.955-21.9-8.213-14.1-5.431-14.983-7.375-21.9-8.212a48.457,48.457,0,0,0-21.9,2.738c-10.365,4.012-13.3,9.75-19.161,8.212-3.962-1.039-7.036-4.816-8.212-8.212-1.669-4.82,1.131-7,0-10.95-.382-1.331-1.893-5.242-19.162-10.949-11.133-3.68-16.7-5.519-24.637-5.475-5.7.032-14.107.078-21.9,5.475a30.213,30.213,0,0,0-8.212,8.212c-2.395,3.617-2.482,5.593-5.475,10.949-2.695,4.826-4.043,7.239-5.474,8.212-6.848,4.659-15.2-4.143-27.374,0a39.756,39.756,0,0,0-5.475,2.738c-12.182,6.668-21.6,11.823-27.374,21.9-4.5,7.848-5.193,15.9-5.474,19.161a95.908,95.908,0,0,0,0,16.424c.377,3.587.733,4.527,0,5.475-3.282,4.249-16.211-7.09-27.374-2.737-8.354,3.258-6.068,11.541-16.424,16.424-7.862,3.707-13.242.85-16.425,5.475-2,2.9-.529,4.975-2.737,13.687-1.2,4.746-1.8,7.118-2.738,8.212-5.512,6.459-18.917-2.78-41.06,0-8.959,1.125-13.517,3.485-16.425,5.475-1.895,1.3-8.323,5.7-10.949,13.687-1.48,4.5-.987,9.39,0,19.161.856,8.474,1.929,11.025,0,13.687-2.6,3.586-6.438,1.57-10.95,5.475-5.549,4.8-5.493,12.835-5.474,13.687.08,3.758,1.879,7.118,5.474,13.687,5.785,10.569,8.538,12.254,8.212,16.424-.453,5.8-6.334,9.7-8.212,10.95-12.744,8.462-30.209,1.11-32.848,0-6.081-2.559-4.488-3.407-13.687-8.212-10.2-5.331-18.093-9.45-27.374-8.212-3.246.433-9.555,1.907-16.424,8.212a14.1,14.1,0,0,0-2.737-8.212c-3.587-4.7-9.3-5.3-10.95-5.475-11.217-1.181-20.394,8.987-24.637,13.687-6.31,6.991-8.889,13.758-10.949,19.162-2.657,6.971-5.964,15.646-2.737,21.9.422.819,1.46,2.571,2.737,5.474,1.96,4.457,2.94,6.685,2.737,8.213-.755,5.7-15.251,12.021-27.373,8.211-8.2-2.577-7.279-7.267-16.425-10.949-9.545-3.843-18.466-1.92-27.374,0-11.723,2.527-15.2,6.575-16.424,8.212a17.781,17.781,0,0,0-2.737,5.475c-13.041,1.406-23.229,2.237-30.111,2.737-8.877.645-14.919.933-19.162,5.475-3.864,4.135-1.893,7.149-5.475,10.949-7.129,7.567-22.689,3.855-27.374,2.738-9.281-2.214-10.807-5-19.161-8.212-15.913-6.125-30.767-3.88-38.324-2.738-23.689,3.582-21.858,13.794-38.323,13.687-13.636-.088-17.683-7.111-43.8-10.949-5.933-.872-10.74-1.247-16.424,0-2.763.606-5.646,1.575-19.162,8.212-8.315,4.083-8.541,4.362-10.95,5.475-2.728,1.26-30.09,13.468-52.01,2.737-3.4-1.664-3.337-2.249-5.475-2.737-9.6-2.193-15.837,8.468-32.848,16.424a64.214,64.214,0,0,1-16.425,5.475c-13.529,2.45-24.619-.474-32.848-2.738-15.022-4.131-13.639-7.082-27.374-10.949-9.393-2.645-21.722-6.116-35.586-2.738-13.567,3.307-13.735,9.55-27.374,10.95-2.531.26-2.6.052-21.9,0-8.315-.023-12.473-.034-13.687,0-11.591.325-36.935,2.97-38.323,10.949-.468,2.69,2.426,5.443,8.212,10.95,2.636,2.509,10.078,9.59,19.162,13.687,11.628,5.244,18.569,2.27,54.747,0,23-1.443,28.584-.768,32.849,0,12.949,2.33,15.717,5.855,30.111,10.949,6.949,2.46,29.856,10.344,54.748,8.213,16.144-1.383,16.772-5.579,38.323-10.95,14.08-3.509,30.565-4.212,62.96-5.475,37.677-1.468,56.515-2.2,71.172,0,11.178,1.68,23.877,4.77,49.273,10.95,22.151,5.39,31.125,8.212,46.535,8.212a164.442,164.442,0,0,0,30.111-2.737c12.24-2.543,15.425-5.054,24.637-5.475,2.759-.126,11.9-.332,27.374,5.475,23.058,8.65,21.9,16.278,38.323,21.9,23.248,7.956,45.767-.416,52.01-2.738a87.621,87.621,0,0,0,27.374-16.424c3.236,5.721,10.9,17.261,24.636,21.9,13.078,4.417,24.976.318,41.061-5.475,23.547-8.48,23.148-14.372,43.8-21.9,20.846-7.6,38.947-8.043,49.273-8.212,18.313-.3,31.955,2.491,46.536,5.475,21.4,4.379,21.893,6.883,41.061,10.949,24.323,5.16,43.6,5.386,57.484,5.475,28.2.181,42.292.271,54.748-5.475,7.482-3.451,12.487-7.347,21.9-8.212,14.431-1.326,25.637,5.723,30.111,8.212,33.371,18.561,89.052,4.1,125.92-5.474,19.328-5.02,17.4-6.5,60.222-19.162,25.869-7.651,39.067-11.521,52.011-13.687.659-.11,1.409-.232,2.235-.358,53.309,17.877,191.916,18.2,242.866,16.5,64.158-2.138,165.952-17.888,294.059,14.235s337.188,35.31,461.228,13.924,144-40.99,307.6-1.426,300.475-1.069,399.92-28.871,152.911-20.317,312.238,16.373,337.9,8.221,468.356-13.165,227.763,2.138,331.486,20.317,165.742-57.743,301.544-51.327c88.817,4.2,182.075-7.295,272.77-13.058,1.714,5.794,6.686,10.214,13.075,15.87a77.191,77.191,0,0,0,16.424,10.95c8.573,4.57,12.86,6.855,16.425,5.474,5.779-2.238,4.216-10.19,10.949-13.686,3.5-1.818,6.9-1.212,13.687,0,13.033,2.325,15.623,7.367,21.9,5.474,4.994-1.506,5.88-5.461,10.949-5.474,4-.01,4.318,2.447,8.212,2.737,5.658.421,7.816-4.553,16.425-8.212a38.516,38.516,0,0,1,10.949-2.738c13.469-1.129,18.429,8.018,24.637,5.475,4.657-1.907,5.09-8.374,6.4-14.742,1.505-.187,3.228-.41,5.257-.659q9.63.252,19.786.338c-.123,6.971-1.008,15.466,4.147,23.275,8.1,12.276,24.961,13.51,27.374,13.687,1.1.081,22.792,1.407,30.111-10.949,4.645-7.843.492-16.122,5.474-19.162,4.284-2.613,11.061,1.243,13.687,2.737,14.327,8.151,12.381,20.568,21.9,24.637,11.177,4.777,27.44-6.54,35.586-16.424a45.672,45.672,0,0,0,3.673-5.171,203.618,203.618,0,0,1,21.528-1.895,205.864,205.864,0,0,1,32.952.836c19.465,2.326,27.836,7.422,41.782,11.293,14.056,3.9,20.164,2.781,60.438,1.988,65.479-1.289,98.218-1.933,115.253,1.559,6.657,1.364,18.987,4.238,35.843,3.41,9.846-.483,14.238-1.885,37.943-7.678,46.465-11.355,57.443-12.773,70.737-9.576,4.216,1.014,9.345,3.04,19.6,7.092,27.287,10.778,28.268,14.975,39.366,16.917,10.077,1.762,9.763-1.612,43.409-7.995,18.8-3.568,28.457-5.347,40.834-5.1,15.624.3,22.084,3.5,36,6.143,32.091,6.087,59.39.775,90.182-5.217,15.118-2.941,12.166-3.368,45.984-10.885,36.81-8.183,47.4-9.254,59.964-6.211,15.231,3.689,14.2,8.783,30.851,11.926a97.855,97.855,0,0,0,43.725-2.53c6.566-1.88,4.758-2.092,29.429-12.67,26.245-11.254,31.524-12.4,34.894-12.987,6.281-1.091,15.256-.464,32.952.836,30.239,2.222,37.565,4.118,49.349-.112,3.342-1.2,18.365-6.957,18.339-14.771C6079.4,1379.75,6074.671,1376.253,6067.694,1371.093Z" fill="#8ab1d2"/>
    <g>
      <path d="M1555.032,1433.467c-11.631-4.778-17.283,1.848-27.374-2.737-8.661-3.935-7.8-10.316-16.424-16.425-10.772-7.626-24.116-6.032-30.112-5.474-15.951,1.485-19.521,8.422-34.217,6.843a89.984,89.984,0,0,1-13.686-2.737c-9.165-2.688-11.986-5.336-19.162-5.475-5.266-.1-6.389,1.272-8.212,0-4.723-3.293,1.672-13.3-2.738-21.9-3.314-6.462-10.93-8.619-19.162-10.95-14.917-4.223-18.14.6-30.111-2.737-13.7-3.824-12.457-10.979-27.374-16.424-4.319-1.577-22.413-8.182-32.848,0-5.146,4.034-3.488,7.793-12.973,26.011-2.455-1.2-5.376-2.631-8.906-4.344-8.43-4.089-12.755-6.12-15.241-7.143,5.906-8.909,10.775-10.275,15.221-20,2.5-5.472,4.478-9.8,2.737-13.687-3.7-8.257-19.683-4.6-21.9-10.95-1.613-4.622,6.043-8.891,16.424-24.636,6.328-9.6,9.466-14.491,8.213-19.162-2.564-9.551-20.306-16.042-30.112-10.949-4.294,2.23-5.163,5.693-8.212,5.474-5.288-.378-8.6-11.22-10.949-19.161-2.383-8.055-3.879-16.083-5.475-30.111-2.259-19.853-1.525-23.64-5.475-27.374-6.05-5.72-17.073-5.631-24.636-2.737-11.179,4.277-11.751,13.519-19.162,13.686-9.317.212-12.477-14.3-21.9-13.686-6.914.452-8.845,8.506-16.424,8.212-5.41-.21-6.047-4.375-10.95-5.475-4.818-1.081-9.648,1.721-14.168,5.507a27.146,27.146,0,0,0-13.186-.264c-4.978,1.208-5.048,2.9-8.212,2.737-.02,0-.038,0-.057-.006a13.937,13.937,0,0,0-2.7-5.237c-2.462-2.994-5.32-4.047-8.363-4.8-2.038-2.87-4.394-5.47-8.042-6.382a10.983,10.983,0,0,0-5.547.173c-5.588-5.809-3.17-10.305-8.159-13.628-7.453-4.964-23.521-2.034-27.374,8.212-2.677,7.118,1.578,15.011,5.475,19.162a20.939,20.939,0,0,0,1.807,1.7,7.363,7.363,0,0,1-4.525.809c-6.562-.883-6.571-8.088-13.687-10.949-9.686-3.895-25.128,3.237-30.111,13.687-2.216,4.648-2.39,10.4-2.737,21.9-.1,3.419-.06,6.258,0,8.212-1.06-1.914-8.163-14.284-21.9-16.424-9.391-1.464-16.8,2.647-21.9,5.474-3.466,1.923-11.684,6.627-16.425,16.425a33.866,33.866,0,0,0-2.737,8.212c-7.868-7.985-18.537-11.364-27.374-8.212-7.874,2.808-11.641,9.857-13.687,13.686-1.136,2.127-7.974,14.924-2.737,24.637,3.01,5.584,7.837,6.115,8.212,10.949.333,4.3-3.378,5.211-5.475,10.95-3.7,10.114,4.011,17.733,0,21.9-1.841,1.913-3.586.431-13.687,2.738-4.573,1.044-6.86,1.566-8.212,2.737-5.65,4.895-1.226,18.4,0,21.9-.989-1.852-5.865-10.508-16.424-13.687-.764-.23-12.22-3.492-21.9,2.737-8.445,5.434-8.981,13.873-13.687,13.687-3.79-.149-4-5.644-10.95-10.949-1.922-1.469-9.375-7.162-16.424-5.475-3.128.749-4.643,2.584-16.424,19.161-6.994,9.841-7.1,10.09-8.213,10.95-7.993,6.16-14.023,2.109-24.636,8.212-3.646,2.1-8.866,5.1-10.949,10.95-3.575,10.039,4.751,20.975,5.474,21.9,5.494,7.018,10.809,7.05,10.95,10.949.209,5.769-11.148,13.317-19.162,10.95-5.74-1.7-6.268-7.447-10.949-8.212-3.57-.584-8.791,1.855-16.425,13.687-9.887-2.592-24.944-4.763-41.06,0-10.112,2.988-19.243,5.687-27.374,13.687-3.946,3.882-6.228,7.606-10.95,8.212-5.491.7-6.872-3.762-16.424-8.212-11.224-5.23-22.927-5.408-27.374-5.475-5.736-.087-5.541.593-8.212,0-2.919-.648-8.146-2.57-19.162-16.425-6.74-8.477-5.136-8.2-8.212-10.949-10.056-8.983-23.15-8.311-24.636-8.212a34.864,34.864,0,0,0-16.424,5.475c.556-2.914,2.728-16-5.475-27.374a34.025,34.025,0,0,0-13.687-10.95c-8.343-3.844-15.693-3.394-24.636-2.737a102.759,102.759,0,0,0-38.324,10.949c-7.265,3.816-7.385,5.082-10.949,5.475-10.929,1.206-14.906-10.134-30.112-13.687-3.414-.8-14.029-3.278-21.9,2.738a22.363,22.363,0,0,0-8.212,16.424c-.327,8.578,5.066,11.77,2.738,16.424-1.763,3.523-5.031,2.05-13.687,8.212-5.513,3.924-7.4,6.809-8.212,8.212a21.953,21.953,0,0,0-2.738,8.213c-8.5-3.98-24.574-10.022-43.8-8.213-7.054.664-18.336,1.727-30.111,8.213-4.6,2.533-6.328,4.271-10.95,5.474-7.627,1.986-12.467-.262-24.636-2.737-13.481-2.742-20.221-4.113-24.637-2.737-9.026,2.812-7.192,8.9-21.9,19.161-6.542,4.564-9.4,5.1-16.424,10.95-6.668,5.553-11.187,9.318-10.949,13.687.424,7.8,15.755,12.682,19.161,13.687,12.008,3.542,19.213,1.227,49.273-2.738,17.591-2.32,26.515-3.465,32.849-2.737,3.4.39,8.734,1.23,35.586,10.949,25.24,9.136,23.448,9.452,30.111,10.95a97.848,97.848,0,0,0,43.8,0c16.438-4.1,15.118-9.125,30.111-13.687,12.367-3.763,23-3.306,60.222,2.737,34.2,5.552,31.274,6.149,46.536,8.213,31.087,4.2,58.647,7.93,90.334,0,13.74-3.439,20-7,35.586-8.213,12.342-.956,22.083.262,41.06,2.738,33.958,4.43,33.84,7.817,43.8,5.475,10.967-2.58,11.7-6.826,38.324-19.162,10.007-4.638,15.011-6.957,19.161-8.212,13.088-3.96,24.128-3.178,71.172,5.475,24,4.414,28.466,5.56,38.324,5.474,3.8-.033,7.348-.247,10.66-.568,2.424,3.955,6.423,7.5,11.219,11.75a77.182,77.182,0,0,0,16.424,10.949c8.573,4.57,12.86,6.856,16.424,5.475,5.78-2.239,4.217-10.19,10.95-13.687,3.5-1.817,6.895-1.212,13.687,0,13.033,2.325,15.623,7.367,21.9,5.475,4.994-1.507,5.88-5.462,10.949-5.475,4-.01,4.318,2.447,8.212,2.738,5.657.42,7.816-4.553,16.425-8.213a38.577,38.577,0,0,1,10.949-2.737c13.469-1.13,18.428,8.017,24.637,5.475,7.8-3.195,3.752-19.174,11.8-26.061a126.636,126.636,0,0,0,15.453-1.384c.038.025.079.046.117.071,8.809,5.917-.875,21.819,8.212,35.586,8.1,12.275,24.961,13.51,27.374,13.687,1.1.08,22.793,1.406,30.111-10.95,4.645-7.843.491-16.122,5.475-19.161,4.283-2.613,11.059,1.242,13.686,2.737,14.327,8.15,12.381,20.568,21.9,24.637,11.176,4.777,27.44-6.541,35.586-16.425,9.729-11.8,10.8-25.111,10.949-30.111a71.411,71.411,0,0,0,21.9,0c4.231-.682,7.44-1.631,10.95,0,4.866,2.262,4.492,6.781,8.212,10.95,6.928,7.764,22.883,8.509,32.848,2.737,8.058-4.668,6.113-10.071,13.687-13.687,10.192-4.866,16.363,3.651,27.374,0,13.205-4.379,16.355-20.617,21.9-19.162,4.115,1.08,2.375,10.023,8.212,16.425,6.33,6.941,17.9,6.871,27.374,5.474.967,1.461,6.35,9.288,16.424,10.95,9.262,1.527,18.855-2.756,24.637-10.95a51.371,51.371,0,0,0,19.161,0c15.476-3.017,18.57-11.493,30.112-10.949,10.534.5,13.146,7.8,21.9,5.475,5.627-1.5,7.336-5.258,13.686-5.475,5.085-.174,6.51,2.15,10.95,2.737,7.555,1,11.908-4.613,21.9-10.949,17.334-11,28.021-9.2,28.743-15.056C1569.372,1441.855,1561.175,1435.991,1555.032,1433.467Z" fill="#5081a9"/>
      <path d="M6202.018,1397.4c-7.459-5.287-10.349-5.6-17.226-9.639-15.46-9.085-14.105-15.3-23.323-17.4-4.509-1.028-11.122.863-24.349,4.645-11.939,3.414-16.591,6.031-24.349,4.644-4.7-.839-6.56-2.438-11.342-4.606-12.244-5.551-23.574-5.732-30.658-5.846-19.307-.31-34.865,6.964-43.028,11.593a21.95,21.95,0,0,0-3.367-7.974c-.919-1.336-3.025-4.066-8.826-7.549-9.109-5.471-12.253-3.748-14.284-7.123-2.683-4.46,2.445-8.061,1.452-16.588a22.359,22.359,0,0,0-9.465-15.736c-8.313-5.385-18.7-2.087-22.045-1.026-14.884,4.725-17.966,16.339-28.956,15.987-3.584-.115-3.8-1.368-11.342-4.607a102.746,102.746,0,0,0-39.058-7.937c-8.969.04-16.33.164-24.35,4.645a34.027,34.027,0,0,0-12.793,11.981c-7.294,11.977-4.111,24.855-3.331,27.716a34.882,34.882,0,0,0-16.8-4.181c-1.49.018-14.6.365-23.923,10.1-2.853,2.979-1.275,2.579-7.336,11.555-9.905,14.669-14.966,16.991-17.826,17.864-2.617.8-2.475.106-8.188.639-4.428.413-16.082,1.5-26.865,7.587-9.177,5.18-10.207,9.739-15.736,9.464-4.755-.236-7.319-3.773-11.555-7.336-8.729-7.343-18.041-9.324-28.355-11.517-16.438-3.5-31.281-.16-40.937,3.193-8.53-11.2-13.925-13.228-17.438-12.368-4.608,1.127-4.687,6.9-10.278,9.038-7.806,2.984-19.715-3.658-19.955-9.426-.163-3.9,5.134-4.344,10.065-11.768.648-.977,8.1-12.528,3.755-22.258-2.532-5.671-7.969-8.258-11.768-10.065-11.054-5.26-16.752-.752-25.2-6.272-1.18-.771-1.3-1.011-9.038-10.278-13.035-15.612-14.688-17.323-17.865-17.826-7.159-1.135-14.147,5.121-15.949,6.735-6.511,5.829-6.3,11.324-10.065,11.768-4.678.55-5.868-7.821-14.71-12.581-10.135-5.458-21.3-1.315-22.045-1.027-10.281,3.99-14.468,13-15.31,14.923.949-3.587,4.31-17.392-1.7-21.833-1.439-1.063-3.76-1.4-8.4-2.091-10.25-1.513-11.874.1-13.859-1.664-4.322-3.842,2.768-12.037-1.7-21.833-2.537-5.559-6.308-6.181-6.31-10.491,0-4.848,4.769-5.754,7.336-11.555,4.465-10.091-3.347-22.317-4.645-24.349-2.338-3.659-6.641-10.393-14.709-12.581-9.056-2.456-19.43,1.744-26.653,10.316a33.952,33.952,0,0,0-3.367-7.975c-5.489-9.4-14.047-13.45-17.652-15.1-5.3-2.422-13.009-5.945-22.259-3.756-13.528,3.2-19.648,16.087-20.555,18.078-.093-1.952-.27-4.786-.639-8.188-1.24-11.438-1.861-17.158-4.432-21.619-5.78-10.031-21.731-15.941-31.084-11.3-6.872,3.406-6.32,10.59-12.794,11.981-4.54.975-6.811-2.127-17.013-6.91-11.62-5.447-17.43-8.171-22.471-6.485-9.206,3.079-8.961,16.7-17.827,17.865-3.141.413-3.343-1.273-8.4-2.091-12.749-2.061-23.383,6.733-24.137,7.374-2.95,2.513-10.983,9.355-9.639,17.226,1.2,7.009,9.23,11.318,11.981,12.794,5.888,3.159,8.08,1.773,11.342,4.607,4.685,4.071,7.387,13.206,4.219,18.891-4.472,8.025-17.118,2.847-43.027,11.593-7.607,2.567-13.185,5.264-18.465,9.677-3.27,2.732-13.869,11.59-12.156,20.168.827,4.138,3.749,4.349,11.981,12.794,3.068,3.147,5.587,5.736,7.543,8.075a87.2,87.2,0,0,1-11.951,3.026c-11.29,2.082-17.6,3.157-24.125,0-9.444-4.569-7.773-12.406-17.232-20.678-7.41-6.481-16.428-7.767-34.463-10.339-12.2-1.74-23.744-3.386-37.91,0-11.526,2.755-11.173,5.586-20.678,6.893-17.109,2.351-31.162-5.05-34.464-6.893-10.717-5.983-10.165-10.365-24.124-20.678-5.779-4.27-13.473-9.954-24.125-13.786-22.112-7.954-43.046-2.912-55.141,0a127.763,127.763,0,0,0-20.678,6.893c-2-.735-21.136-8.065-24.125-24.124-1.611-8.659,1.971-17.171,3.447-20.679,2.807-6.671,4.912-7.127,10.339-17.231,4.331-8.064,6.5-12.1,6.892-17.232.845-10.969-5.906-19.472-6.892-20.678-1.693-2.07-5.6-6.263-31.017-13.786-15.973-4.726-23.959-7.09-31.018-6.892-9.731.272-25.925,3.151-27.57,3.446-8.938,1.605-13.627,2.918-17.232,0-3.641-2.947-4.814-9.107-3.447-13.785,1.739-5.951,6.716-6.531,6.893-10.339.158-3.412-3.674-6.449-17.232-13.786-20.109-10.882-24.753-11.277-27.571-17.232-3.153-6.664.942-9.8-3.446-17.231-1.037-1.755-5.5-8.743-13.786-10.339a18.542,18.542,0,0,0-6.892,0c7.71-30.3,2.665-42.618-3.447-48.249-4.468-4.118-7.121-2.46-27.57-10.339-17.748-6.838-18.863-9.286-27.571-10.339a61,61,0,0,0-27.571,3.446c-9.84,3.809-14.361,8.848-19.153,10.269q-.879-1.3-1.806-2.643c-5.217-7.587-8.49-9.454-8.212-13.687.35-5.333,5.813-6.457,5.475-10.95-.219-2.907-2.618-3.924-10.95-10.949-6.652-5.609-10-8.465-10.949-10.95-2.469-6.449,2.268-9.688,0-16.424-1.84-5.464-6.651-8.361-10.95-10.949a40.2,40.2,0,0,0-21.9-5.475c-.153-4.874-1.272-14.375-8.212-21.9-9.03-9.791-22.772-10.659-27.374-10.95-8.53-.539-10.424,1.66-19.162,0-5.593-1.062-12.452-2.365-16.424-8.212-3.807-5.605-2.912-12.371-2.737-13.687a24.926,24.926,0,0,1,2.737-8.212c2.911-5.638,5.175-5.37,5.475-8.212.355-3.368-2.751-4.436-8.212-13.687-1.729-2.928-2.594-4.392-2.738-5.475-.793-5.954,5.616-8.544,8.213-16.424,1.714-5.206.793-9.766,0-13.687-.533-2.632-2.508-12.4-10.95-19.162-10.63-8.513-23.847-6.114-27.374-5.474-16.847,3.057-25.693,16.5-27.374,19.161-1.885-9.167-8.74-15.782-16.424-16.424a16.619,16.619,0,0,0-13.687,5.475c-5,5.9-1.076,11.437-5.475,16.424-4.7,5.334-14.915,5.484-21.9,2.737-9.041-3.555-7.956-10.108-16.425-13.687-8.765-3.7-20.169-1.011-27.374,5.475-1.941,1.748-8.26,7.437-8.212,16.425a21.192,21.192,0,0,0,5.475,13.686c-3.735,2.271-18.721,11.816-24.637,27.374a36.259,36.259,0,0,0-2.737,16.425,34.385,34.385,0,0,0,2.737,10.949c-15.647-.475-24.694,3.943-30.111,8.212-9.408,7.415-9.27,15.482-19.161,19.162-8.184,3.044-11.846-1.15-21.9,2.737-3.871,1.5-11.38,4.4-13.686,10.95-2.772,7.87,3.086,17.835,5.474,21.9,3.147,5.354,5.614,7,5.475,10.949-.153,4.374-3.256,4.851-5.475,10.95a24.493,24.493,0,0,0,0,16.424,22.548,22.548,0,0,0,5.475,8.212c-8.321,2.337-32.241,9.368-49.273,19.162-4.373,2.515-8.913,5.569-10.949,10.95-2.346,6.2-.653,13.577,0,16.424,1.367,5.96,3.055,6.923,2.737,10.949-.426,5.4-3.9,9.251-5.474,10.95-4.076,4.4-6.528,3.756-13.688,8.212-6.524,4.061-12.021,7.482-13.687,13.687a16.091,16.091,0,0,0,2.738,13.687c.667.867,3.529,4.584,8.212,5.475,4.3.817,7.06-1.33,8.212,0,1.223,1.412-.566,5.362-2.737,8.212-5.483,7.2-11.782,5.26-16.425,10.949-5.05,6.19-3.04,15.156-2.737,16.425,2.938,12.288,15.865,16.262,16.424,16.424a31.7,31.7,0,0,0-7.741,12.831c-3-1.411-6.647-2.435-10.2-1.585-3.128.749-4.643,2.584-16.424,19.162-6.994,9.841-7.1,10.089-8.213,10.949-7.993,6.161-14.024,2.11-24.636,8.213-3.646,2.1-8.866,5.1-10.95,10.949-3.574,10.039,4.752,20.976,5.475,21.9,5.493,7.018,10.809,7.05,10.95,10.95.209,5.769-11.148,13.316-19.162,10.949-5.741-1.7-6.268-7.446-10.95-8.212-2.955-.483-7.047,1.124-12.7,8.4a53.562,53.562,0,0,1-8.586-9.046c-5.362-7.18-3.578-9.561-8.213-13.687-8.288-7.378-22.923-7.711-32.848-2.737-2.031,1.017-6.829,5.24-16.425,13.686-8.611-10.688-9.337-11.38-10.949-13.686a65.932,65.932,0,0,1-10.95-27.374c-1.51-10.476,1.5-10.4,0-21.9a61.316,61.316,0,0,0-8.211-24.637c-6.918-11.288-11.927-9.908-13.687-16.424-4.1-15.167,20.878-30.661,16.424-38.323-2.422-4.166-9.905.238-21.9-5.475-7.91-3.767-12.941-9.629-16.425-13.687-8.607-10.027-5.848-12.741-10.949-16.424-12.073-8.716-27.547,6.466-41.061-2.737-2.747-1.871-4.764-4.307-13.687-10.95-4.561-3.395-6.868-5.1-8.212-5.475-9.5-2.649-14.581,9.055-24.636,8.212-7.569-.634-7.444-7.5-21.9-16.424a61.339,61.339,0,0,0-19.162-8.212c-6.58-1.494-21.115-4.794-30.111,2.737-7.111,5.952-4.242,13.214-10.95,16.425-3.58,1.713-9.735.253-21.9-2.738-11.409-2.8-13.311-4.077-16.424-2.737-5.99,2.578-9.31,11.746-8.212,19.162,1.7,11.457,13.944,18.779,19.161,21.9,8.16,4.878,13.433,5.14,13.687,8.212.353,4.245-9.288,8.923-16.424,10.949-11.584,3.29-15.091-.825-24.636,2.737-1.748.653-11.778,4.4-16.425,13.688-1.809,3.617-1.485,5.441-2.737,24.636-.843,12.922-1.152,14.574-2.737,16.424-1.668,1.947-4.093,3.35-21.9,5.475-12.834,1.531-14.345,1.133-19.162,2.737-5.8,1.932-12.83,4.273-16.424,10.95-4.213,7.825-.976,16.536,0,19.162,3.178,8.556,10.03,13.686,13.687,16.424,5.223,3.911,6.1,2.909,8.212,5.474,6.5,7.913,1.817,21.934,0,27.374-.462,1.384-.928,2.615-1.395,3.737a69.206,69.206,0,0,0-26.592,7.859c-3.156,1.738-4.96,3.1-7.275,4.175-4.913-4.9-12.554-3.961-19.486-13.033-1.392-1.821-6.564-8.591-5.475-16.425.62-4.456,2.611-4.551,2.737-8.212.224-6.484-5.823-12-13.686-19.161-6.145-5.6-7.643-5.646-8.213-8.212-1.267-5.708,5.476-8.465,8.213-19.162.914-3.574,2.223-8.693,0-13.687-4.094-9.192-16.92-10.688-19.162-10.95a31.192,31.192,0,0,0-16.424,2.738,31.509,31.509,0,0,0-13.687,10.949c-2.362,3.479-3.4,6.881-5.475,13.687a110.7,110.7,0,0,0-2.738,10.95c-2.843-9.823-7.344-14.223-10.949-16.424-2.4-1.464-4.161-1.813-21.9-8.213-2.695-.972-4.07-1.484-5.475-2.737-4.461-3.982-2.858-9.125-5.474-16.424-.965-2.691-3.961-11.049-10.95-13.687-6.657-2.513-14.817.965-19.162,5.474-4.389,4.556-6.855,12.213-8.212,16.425-.833,2.587-1.151,4.173-2.737,5.475-2.869,2.353-6.76,1.211-13.687,0-14.379-2.515-14.148-.487-19.162-2.738-8.2-3.679-6.395-8.014-13.687-10.949-9.891-3.983-20.739.961-24.636,2.737-3.342,1.523-5.883,2.716-8.212,5.475-4.386,5.195-6.008,13.559-2.738,19.162,1.258,2.153,3.037,3.554,5.475,5.474,4.974,3.917,8.3,4.333,8.212,5.475-.2,2.7-18.662-.672-24.636,8.212-2.268,3.373-2.485,8.14-2.738,13.687-.336,7.392,1.3,8.308,0,10.949-2.407,4.9-8.99,3.7-21.9,8.213-1.744.609-3.3,1.157-4.746,1.692a11.494,11.494,0,0,1,.423-3.309c1.381-4.726,5.334-5.187,5.474-8.212.126-2.71-2.918-5.122-13.687-10.949-15.972-8.644-19.661-8.957-21.9-13.687-2.5-5.293.748-7.789-2.737-13.687-.824-1.393-4.367-6.944-10.95-8.212a14.726,14.726,0,0,0-5.474,0c6.124-24.066,2.117-33.851-2.738-38.324-3.549-3.27-5.656-1.954-21.9-8.212-14.1-5.431-14.982-7.375-21.9-8.212a48.475,48.475,0,0,0-21.9,2.737c-10.365,4.013-13.3,9.751-19.161,8.213-3.962-1.04-7.036-4.816-8.213-8.213-1.669-4.819,1.132-7,0-10.949-.381-1.331-1.893-5.243-19.161-10.95-11.133-3.679-16.7-5.519-24.637-5.474-5.7.032-14.108.078-21.9,5.474a30.223,30.223,0,0,0-8.212,8.213c-2.395,3.618-2.482,5.592-5.475,10.949-2.7,4.826-4.043,7.239-5.474,8.212-6.848,4.659-15.2-4.143-27.374,0a39.637,39.637,0,0,0-5.475,2.738c-12.182,6.668-21.6,11.823-27.374,21.9-4.5,7.849-5.193,15.9-5.475,19.162a96.03,96.03,0,0,0,0,16.424c.378,3.587.733,4.527,0,5.475-3.281,4.249-16.211-7.091-27.373-2.737-8.354,3.258-6.068,11.541-16.425,16.424-7.862,3.707-13.241.85-16.424,5.475-2,2.9-.53,4.974-2.737,13.687-1.2,4.745-1.805,7.119-2.738,8.212-5.513,6.459-18.917-2.78-41.06,0-8.959,1.125-13.517,3.485-16.425,5.475-1.895,1.3-8.324,5.7-10.949,13.687-1.48,4.5-.987,9.39,0,19.161.855,8.474,1.928,11.025,0,13.687-2.6,3.586-6.438,1.57-10.95,5.475-5.549,4.8-5.493,12.835-5.475,13.687.08,3.708,1.836,7.036,5.337,13.434-.136.259-.265.509-.4.774-5.155,9.72-7.511,12.311-10.95,13.687-6.653,2.663-16.247.333-19.162-5.475-2.775-5.531,1.4-12.432,5.475-19.162,6.455-10.663,11.681-11.522,16.424-21.9,2.5-5.472,4.479-9.8,2.738-13.688-3.7-8.257-19.683-4.6-21.9-10.949-1.613-4.623,6.043-8.891,16.424-24.636,6.328-9.6,9.466-14.491,8.212-19.162-2.564-9.552-20.3-16.042-30.111-10.95-4.294,2.23-5.163,5.694-8.212,5.475-5.288-.379-8.6-11.22-10.95-19.162-2.382-8.055-3.878-16.082-5.474-30.111-2.26-19.853-1.525-23.639-5.475-27.374-6.05-5.719-17.074-5.631-24.637-2.737-11.178,4.277-11.751,13.519-19.161,13.687-9.317.211-12.477-14.3-21.9-13.687-6.915.453-8.845,8.506-16.425,8.212-5.409-.21-6.047-4.375-10.949-5.475-12.951-2.9-25.991,22.234-32.849,19.162-3.826-1.713.162-9.568-5.474-16.424-5.975-7.267-14.288-3.1-21.9-10.95-5.662-5.837-3.206-10.352-8.212-13.687-7.452-4.963-23.52-2.034-27.374,8.213-2.677,7.118,1.579,15.011,5.475,19.161a22.224,22.224,0,0,0,8.212,5.475,45.828,45.828,0,0,0-8.212,10.95,46.739,46.739,0,0,0-5.475,21.9c-4.589-.239-20.84-.52-35.585,10.949a52.8,52.8,0,0,0-16.425,21.9c-2.783-.153-14.7-.5-24.636,8.212-2.582,2.265-13.151,11.539-10.95,24.637,2.225,13.231,15.541,18.808,16.425,19.161a22.592,22.592,0,0,0,5.474,8.212c9.317,8.8,23.03,5.847,24.637,5.475a86.973,86.973,0,0,0-21.9,38.324,212.067,212.067,0,0,0-24.637-32.849c-7.607-8.29-11.848-11.509-16.424-10.95-5.921.725-6.24,7.024-16.424,13.688-7.193,4.706-9.186,2.972-16.425,8.212-4.769,3.451-11.2,8.1-10.949,13.686.285,6.4,9.121,8.821,8.212,13.687-.728,3.894-6.584,3.418-8.212,8.212-1.446,4.26,2.541,6.506,2.737,13.687a21.865,21.865,0,0,1-2.737,10.95c-3.639,6.143-8.591,5.382-16.424,10.95-3.1,2.2-13.665,9.711-13.687,19.161-.01,4.091,2.73,8.2,8.212,16.425a123.026,123.026,0,0,0,8.212,10.949,19.386,19.386,0,0,0-2.737,10.95,15.526,15.526,0,0,0,.57,3.153c-7.386-2.36-14.907-6.509-32.875-9.149-5.933-.872-10.74-1.247-16.425,0-2.762.606-5.646,1.575-19.162,8.212-8.314,4.082-8.541,4.362-10.949,5.475-2.729,1.259-30.09,13.468-52.01,2.737-3.4-1.663-3.338-2.249-5.475-2.737-9.6-2.194-15.837,8.467-32.849,16.424a64.157,64.157,0,0,1-16.424,5.474c-13.529,2.451-24.619-.474-32.848-2.737-15.022-4.132-13.639-7.082-27.374-10.95-9.393-2.644-21.722-6.115-35.586-2.737-13.568,3.307-13.735,9.549-27.374,10.95-2.531.26-2.6.053-21.9,0-8.316-.023-12.473-.034-13.687,0-11.591.325-36.936,2.97-38.323,10.95-.468,2.689,2.425,5.442,8.212,10.949,2.636,2.509,10.077,9.59,19.161,13.687,11.628,5.243,18.57,2.27,54.748,0,23-1.444,28.584-.768,32.849,0,12.949,2.33,15.717,5.855,30.111,10.949,6.949,2.46,29.856,10.344,54.747,8.212,16.145-1.382,16.773-5.579,38.324-10.949,14.08-3.509,30.564-4.212,62.96-5.475,37.676-1.469,56.515-2.2,71.172,0,11.178,1.68,23.876,4.77,49.272,10.95,22.151,5.389,31.126,8.213,46.536,8.212a164.384,164.384,0,0,0,30.111-2.738c12.239-2.543,15.425-5.053,24.636-5.474,2.76-.126,11.9-.332,27.374,5.474,23.059,8.651,21.9,16.279,38.324,21.9,23.248,7.956,45.766-.416,52.01-2.737a87.646,87.646,0,0,0,27.374-16.424c3.235,5.72,10.9,17.261,24.636,21.9,13.078,4.417,24.976.318,41.061-5.475,23.546-8.48,23.148-14.372,43.8-21.9,20.846-7.6,38.947-8.043,49.273-8.212,18.313-.3,31.954,2.491,46.535,5.475,21.4,4.379,21.894,6.883,41.061,10.949,24.323,5.16,43.6,5.386,57.485,5.475,28.195.18,42.292.271,54.748-5.475,7.481-3.451,12.487-7.348,21.9-8.212,14.431-1.326,25.637,5.723,30.111,8.212,21.183,11.782,51.349,10.245,79.993,5.111a69.137,69.137,0,0,0,11.926-.757,59.047,59.047,0,0,0,18.958-5.982c5.264-1.309,10.312-2.618,15.043-3.847,15.7-4.078,17.376-5.817,40.412-13.118,2.388,2.586,4.374,5.568,10.446,9.26,5.725,3.481,10.785,6.558,16.424,5.475,6.54-1.256,7.4-6.869,16.424-13.687,2.159-1.631,8.688-6.565,16.425-8.212,12.293-2.617,17.129,5.3,41.061,10.949,10.221,2.414,15.333,3.62,21.9,2.738,15.333-2.061,16.582-11.433,30.111-13.687,11.179-1.863,13.964,3.93,35.586,8.212,6.731,1.333,14.524,1.8,30.111,2.737,28.446,1.709,42.856,2.457,52.01-2.737,4.825-2.738,6.605-5.064,10.409-7.634,12.005-.5,26.741-1.244,45.49-2.194,10.2-.518,16.963-.919,22.044-1.247.486.041.935.087,1.441.125,7.048.529,10.635.778,13.687,0a23.027,23.027,0,0,0,3.729-1.3c2.34-.106,5.015-.21,8.372-.317,43.187-1.38,64.781-2.07,82.122,0a220.038,220.038,0,0,0,49.273,0,86.036,86.036,0,0,0,13.723-2.4c2.318.121,4.717.184,7.258.184a206.992,206.992,0,0,0,37.91-3.446c15.409-3.2,19.419-6.363,31.017-6.894,3.474-.158,14.977-.417,34.463,6.893,29.031,10.891,27.572,20.5,48.25,27.571,29.269,10.017,57.62-.524,65.48-3.446a110.339,110.339,0,0,0,34.464-20.678c4.074,7.2,13.729,21.731,31.017,27.571,16.465,5.561,31.445.4,51.7-6.893,29.644-10.677,29.143-18.095,55.141-27.571,26.244-9.566,49.034-10.126,62.035-10.339,23.055-.379,40.23,3.136,58.587,6.892,26.946,5.515,27.564,8.666,51.7,13.786,30.623,6.5,54.895,6.78,72.373,6.893,35.5.227,53.246.341,68.928-6.893,9.419-4.345,15.721-9.25,27.57-10.339,18.169-1.669,32.277,7.206,37.91,10.339,42.014,23.367,112.116,5.162,158.533-6.893,24.334-6.319,21.908-8.179,75.82-24.124,32.568-9.633,49.185-14.505,65.48-17.232,10.365-1.735,36.32-5.476,96.5,0,28.712,2.612,45.467,5.526,58.4,8.222a46.409,46.409,0,0,0,9.682,2.74,26.864,26.864,0,0,0,4.759.41c12.65,2.757,24.631,4.964,47.786,5.86,18.531.717,43.649-.429,91.111-2.825,6.022,2.207,8.427,4.663,19.064,5.829,13.058,1.432,15.211-1.636,38.207-2.98a205.8,205.8,0,0,1,32.962.176c19.508,1.935,27.979,6.862,42,10.452,14.13,3.619,20.215,2.376,60.466.776,65.439-2.6,98.158-3.9,115.26-.753,6.683,1.231,19.068,3.857,35.9,2.692,9.835-.681,14.2-2.172,37.781-8.438,46.229-12.285,57.176-13.923,70.531-10.993,4.236.929,9.4,2.852,19.742,6.7,27.5,10.228,28.564,14.4,39.7,16.123,10.11,1.561,9.729-1.806,43.239-8.863,18.728-3.944,28.345-5.916,40.724-5.922,15.627-.008,22.15,3.06,36.117,5.42,32.207,5.442,59.394-.416,90.06-7.024,15.055-3.244,12.1-3.612,45.756-11.805,36.639-8.919,47.205-10.2,59.827-7.412,15.3,3.382,14.377,8.5,31.084,11.3a97.858,97.858,0,0,0,43.666-3.406c6.527-2.011,4.716-2.187,29.169-13.257,26.014-11.778,31.269-13.03,34.626-13.684,6.258-1.217,15.244-.77,32.962.175,30.278,1.615,37.641,3.363,49.337-1.1,3.317-1.267,18.223-7.324,18.039-15.136C6213.9,1405.821,6209.1,1402.42,6202.018,1397.4Z" fill="#5081a9"/>
    </g>
  </g>
</svg>
