<svg xmlns="http://www.w3.org/2000/svg" xmlns:xlink="http://www.w3.org/1999/xlink" width="3001.128" height="958.315" viewBox="0 0 3001.128 958.315">
  <defs>
    <linearGradient id="a" y1="479.157" x2="3001.128" y2="479.157" gradientUnits="userSpaceOnUse">
      <stop offset="0" stop-color="#f7ffff"/>
      <stop offset="1" stop-color="#c6f3f7"/>
    </linearGradient>
  </defs>
  <title>Cloud_6</title>
  <path d="M671.238,527.023S599.631,485.9,632.532,387.439,783.487,345.1,783.487,345.1,564.8,201.89,804.775,47.064,1085.4,168.989,1085.4,168.989s152.89-90.96,245.785,42.577-61.93,170.308-61.93,170.308,205.144-79.348,321.263,36.771,13.547,158.7,13.547,158.7,114.184-94.831,381.258-61.931,367.711,197.4,621.238,147.085,251.591-158.7,251.591-158.7-92.979-21.5-71.691-89.234,158.176-130.348,211.68,18.132c29.26,81.2-155.471,309.147-587.048,293.664s-611.561,54.189-770.257,149.02S1298.282,892.8,1340.859,747.65c0,0-3.581,240.77-427.706,207.511C573.1,928.5,622.271,708.319,622.271,708.319s-119.406-175.49-307.132-121.3S-25.477,550.247,3.553,412.839s181.92-114.184,189.661-42.577-58.059,102.572-58.059,102.572,61.93,112.249,199.338,56.125S671.238,527.023,671.238,527.023Z" fill="url(#a)"/>
</svg>
