<svg xmlns="http://www.w3.org/2000/svg" width="2502.2" height="838.032" viewBox="0 0 2502.2 838.032">
  <title>Cloud_6</title>
  <g>
    <path d="M2493.789,583.189c-10.589-8.739-17.835-3.469-30.112-10.949-10.353-6.308-8.561-12.1-19.161-16.425-6.867-2.8-13.5-2.766-19.162-2.737a71.14,71.14,0,0,0-19.161,2.737c-1.8-18.816-9.686-28.686-13.687-32.848-6.39-6.646-18.859-10.818-43.8-19.162-17.017-5.693-20.93-5.872-24.636-5.475-6.346.68-9.765,2.8-15.447,4.943-.215-4.3,1.229-6.557.514-10.092-1.789-8.848-15.277-16.614-27.374-16.424-11.53.18-15.459,7.489-22.844,10.11-4.9-2.373-11.222-3.356-21-4.754a52.5,52.5,0,0,1-10.906-10.831c-5.362-7.18-3.578-9.562-8.213-13.687-8.288-7.379-22.922-7.711-32.848-2.737-2.031,1.017-6.828,5.24-16.425,13.686-8.611-10.688-9.336-11.38-10.949-13.686a65.921,65.921,0,0,1-10.949-27.374c-1.511-10.477,1.5-10.4,0-21.9a61.317,61.317,0,0,0-8.212-24.637c-6.918-11.288-11.927-9.909-13.687-16.424-4.1-15.167,20.878-30.661,16.424-38.323-2.422-4.166-9.9.238-21.9-5.475-7.91-3.767-12.941-9.629-16.424-13.687-8.608-10.027-5.848-12.741-10.95-16.424-12.073-8.716-27.547,6.466-41.061-2.738-2.747-1.87-4.763-4.307-13.687-10.949-4.561-3.395-6.868-5.1-8.212-5.475-9.5-2.649-14.581,9.055-24.636,8.212-7.569-.634-7.444-7.5-21.9-16.424a61.339,61.339,0,0,0-19.162-8.212c-6.58-1.494-21.115-4.794-30.111,2.737-7.11,5.952-4.242,13.214-10.95,16.424a6.732,6.732,0,0,1-1.487.5c-.847-5.989-3.057-9.543-5.479-11.775-3.549-3.27-5.656-1.953-21.9-8.212-14.1-5.431-14.982-7.375-21.9-8.212a48.454,48.454,0,0,0-21.9,2.738c-10.366,4.012-13.3,9.75-19.162,8.212-3.961-1.039-7.036-4.816-8.212-8.212-1.669-4.82,1.132-7,0-10.95-.381-1.331-1.893-5.242-19.162-10.949-11.132-3.68-16.7-5.519-24.636-5.475-5.705.031-14.108.078-21.9,5.475a30.185,30.185,0,0,0-8.212,8.212c-2.4,3.617-2.483,5.593-5.475,10.949-2.7,4.826-4.044,7.239-5.474,8.212-3.309,2.251-6.971,1.359-11.243.3,5.122-6.623,5.016-11.513,4.841-13.316-.509-5.221-4.111-10.459-8.213-16.424-5.216-7.587-8.489-9.454-8.211-13.687.35-5.333,5.812-6.457,5.474-10.95-.219-2.907-2.618-3.924-10.949-10.949-6.653-5.61-10-8.465-10.95-10.95-2.469-6.449,2.268-9.688,0-16.424-1.84-5.465-6.65-8.361-10.95-10.95a40.194,40.194,0,0,0-21.9-5.474c-.154-4.874-1.272-14.375-8.213-21.9-9.029-9.79-22.771-10.658-27.373-10.949-8.531-.539-10.424,1.659-19.162,0-5.593-1.062-12.453-2.365-16.424-8.212-3.807-5.606-2.912-12.371-2.738-13.687A24.913,24.913,0,0,1,1595,82.923c2.91-5.638,5.174-5.37,5.474-8.212.356-3.368-2.751-4.437-8.212-13.687-1.729-2.929-2.593-4.393-2.737-5.475-.794-5.954,5.616-8.544,8.212-16.424,1.715-5.206.793-9.766,0-13.687-.532-2.632-2.508-12.4-10.95-19.162C1576.158-2.237,1562.941.161,1559.415.8c-16.848,3.058-25.694,16.5-27.374,19.162-1.886-9.167-8.74-15.782-16.425-16.424a16.618,16.618,0,0,0-13.686,5.475c-5,5.9-1.076,11.437-5.475,16.424-4.7,5.334-14.915,5.484-21.9,2.737-9.04-3.555-7.955-10.108-16.424-13.687-8.766-3.7-20.169-1.012-27.374,5.475-1.942,1.748-8.26,7.436-8.212,16.424a21.2,21.2,0,0,0,5.474,13.687c-3.735,2.271-18.721,11.815-24.636,27.374a36.229,36.229,0,0,0-2.737,16.424,34.385,34.385,0,0,0,2.737,10.95c-15.648-.475-24.694,3.943-30.111,8.212-9.409,7.415-9.271,15.482-19.162,19.162-8.183,3.044-11.845-1.15-21.9,2.737-3.871,1.5-11.381,4.4-13.687,10.95-2.771,7.869,3.086,17.835,5.475,21.9,3.147,5.354,5.613,6.995,5.475,10.949-.154,4.373-3.256,4.851-5.475,10.95a22.728,22.728,0,0,0-.776,2.661c-2.067-1.766-4.942-4.311-10.82-8.687-4.561-3.4-6.869-5.1-8.212-5.474-9.5-2.65-14.581,9.055-24.637,8.212-7.567-.635-7.443-7.5-21.9-16.425a61.344,61.344,0,0,0-19.161-8.212c-6.58-1.494-21.115-4.793-30.111,2.738-7.111,5.952-4.243,13.213-10.95,16.424-3.581,1.714-9.736.253-21.9-2.737-11.409-2.806-13.311-4.078-16.424-2.738-5.991,2.578-9.31,11.747-8.212,19.162,1.7,11.458,13.944,18.78,19.161,21.9,8.16,4.878,13.432,5.14,13.687,8.212.352,4.245-9.288,8.923-16.424,10.949-11.585,3.29-15.091-.825-24.637,2.738-1.747.652-11.777,4.4-16.424,13.687-1.809,3.618-1.484,5.442-2.737,24.636-.844,12.923-1.152,14.574-2.738,16.424-1.667,1.947-4.092,3.35-21.9,5.475-1.46.175-2.766.323-3.954.453a8.636,8.636,0,0,0,.068-4.53c-.382-1.331-1.893-5.242-19.162-10.95-11.133-3.679-16.7-5.519-24.637-5.474-5.7.031-14.107.078-21.9,5.474a30.23,30.23,0,0,0-8.212,8.212c-2.395,3.618-2.482,5.593-5.475,10.95-.144.259-.27.484-.407.729a14.276,14.276,0,0,0-1.181-4.864c-4.093-9.192-16.919-10.688-19.161-10.949a31.184,31.184,0,0,0-16.424,2.737,31.514,31.514,0,0,0-13.687,10.95c-2.362,3.478-3.4,6.881-5.475,13.686A110.153,110.153,0,0,0,956.545,326c-2.844-9.822-7.345-14.223-10.95-16.424-2.4-1.463-4.162-1.812-21.9-8.212-2.7-.973-4.071-1.484-5.475-2.738-4.461-3.982-2.858-9.125-5.475-16.424-.964-2.69-3.961-11.049-10.949-13.687-6.657-2.513-14.817.965-19.162,5.475-4.389,4.556-6.855,12.212-8.212,16.424-.833,2.588-1.151,4.173-2.737,5.475-2.869,2.353-6.76,1.211-13.687,0-14.379-2.515-14.148-.487-19.162-2.738-8.2-3.679-6.395-8.013-13.687-10.949-9.891-3.982-20.739.961-24.636,2.737-3.342,1.523-5.883,2.716-8.213,5.475-4.385,5.195-6.007,13.559-2.737,19.162,1.257,2.153,3.037,3.554,5.475,5.474,4.974,3.917,8.295,4.333,8.212,5.475-.2,2.7-18.662-.672-24.636,8.212-2.268,3.374-2.485,8.141-2.738,13.687-.336,7.392,1.3,8.309,0,10.95-2.407,4.9-8.99,3.7-21.9,8.212-7.611,2.661-12,4.195-16.424,8.212-8.325,7.556-10.225,17.941-10.95,21.9-.879,4.806-1.632,8.923,0,13.687,1.221,3.563,2.731,4.436,5.475,10.95a34.231,34.231,0,0,1,2.738,8.212c.794,4.7-.392,5.579,0,10.949a25.37,25.37,0,0,0,2.737,10.95,21.461,21.461,0,0,0,8.212,8.212c-11.2,7.341-17.839,7.2-21.9,5.475-5.792-2.459-5.563-7.8-13.687-13.687-3.276-2.373-11.282-8.171-19.161-5.475-7.959,2.724-10.6,12.339-10.95,13.687a22.324,22.324,0,0,0,0,10.95,16.768,16.768,0,0,0-8.212-2.738c-9.942-.446-18.34,9.322-21.9,16.425-2.036,4.062-3.466,9.2-5.475,16.424-1.44,5.177-1.491,6.311-2.737,8.212-.942,1.436-4.363,6.05-16.425,8.212-13.341,2.392-15.65-2.1-27.374,0a47.9,47.9,0,0,0-19.161,8.212,46.673,46.673,0,0,0-16.424,19.162,43.172,43.172,0,0,0-2.738,8.212,38.008,38.008,0,0,0-10.949-5.475c-3.443-1.067-12.229-3.79-21.9,0a29.451,29.451,0,0,0-13.687,10.95c-3.737,5.786-2.056,8.41-5.475,10.949-4.943,3.673-13.029,1.584-19.162,0-4.528-1.17-4.33-1.778-8.212-2.737a39.41,39.41,0,0,0-19.162,0c-8.566,2.51-10.241,9-19.161,19.162-14.727,16.779-27.539,18.9-29.767,25.1-5.31,3.38-8.828,6.467-17.918,6.408-13.637-.088-17.683-7.111-43.8-10.949-5.933-.872-10.74-1.247-16.425,0-2.762.605-5.646,1.575-19.161,8.212-8.315,4.082-8.541,4.362-10.95,5.474-2.728,1.26-30.09,13.469-52.01,2.738-3.4-1.663-3.338-2.249-5.475-2.738-9.6-2.192-15.837,8.469-32.848,16.425a64.214,64.214,0,0,1-16.425,5.475c-13.529,2.45-24.619-.475-32.848-2.738-15.022-4.131-13.639-7.082-27.374-10.949-9.393-2.645-21.722-6.116-35.586-2.738-13.568,3.307-13.735,9.549-27.374,10.95-2.531.26-2.6.052-21.9,0-8.315-.023-12.473-.034-13.687,0-11.591.325-36.935,2.97-38.323,10.949-.468,2.689,2.426,5.443,8.212,10.95,2.636,2.509,10.077,9.59,19.162,13.687,11.627,5.243,18.569,2.27,54.747,0,23-1.444,28.584-.768,32.849,0,12.949,2.33,15.717,5.855,30.111,10.949,6.949,2.46,29.856,10.344,54.748,8.212,16.144-1.382,16.772-5.578,38.323-10.949,14.08-3.509,30.565-4.212,62.96-5.475,37.677-1.469,56.515-2.2,71.172,0,11.178,1.68,23.876,4.77,49.273,10.95,22.151,5.389,31.125,8.212,46.535,8.212a164.384,164.384,0,0,0,30.111-2.738c12.239-2.542,15.425-5.053,24.637-5.474,2.759-.127,11.9-.332,27.374,5.474,23.058,8.651,21.9,16.279,38.323,21.9,23.248,7.957,45.766-.416,52.01-2.737a87.621,87.621,0,0,0,27.374-16.424c3.236,5.721,10.9,17.261,24.636,21.9,13.078,4.417,24.976.318,41.061-5.475,23.547-8.48,23.148-14.373,43.8-21.9,20.846-7.6,38.947-8.043,49.273-8.212,18.313-.3,31.955,2.491,46.536,5.475,21.4,4.379,21.893,6.883,41.06,10.949,24.323,5.16,43.6,5.386,57.486,5.475,28.194.181,42.291.271,54.747-5.475,7.482-3.451,12.487-7.347,21.9-8.212,14.431-1.326,25.637,5.724,30.111,8.212,16.068,8.937,37.311,10.208,59.133,8.065a6.164,6.164,0,0,0-.171,1.689c.282,7.737,13.074,14.047,21.9,16.424,25.413,6.845,53.069-9.468,60.222-13.687,11-6.487,17.585-12.881,30.112-13.687a51.848,51.848,0,0,1,19.161,2.738c10.791,3.671,10.219,7.458,19.162,10.949,12.766,4.985,26.724,2.262,38.323,0,9.7-1.891,11.039-3.5,16.424-2.737,11.219,1.587,19.089,10.5,21.9,13.687,7.494,8.488,5.172,11.512,10.95,16.424,9.625,8.183,23.742,6.317,30.111,5.475,4.126-.546,18.247-2.9,30.111-13.687,7.428-6.752,6.949-10.423,13.687-13.687a29.45,29.45,0,0,1,24.637,0c7.478,3.584,6.586,7.705,16.424,13.687,5.725,3.481,10.785,6.558,16.424,5.475,6.54-1.256,7.4-6.869,16.424-13.687,2.159-1.632,8.687-6.565,16.425-8.212,12.293-2.618,17.129,5.3,41.06,10.949,10.223,2.413,15.333,3.62,21.9,2.738,15.333-2.061,16.582-11.434,30.111-13.687,11.179-1.863,13.964,3.93,35.586,8.212,6.731,1.333,14.524,1.8,30.111,2.737,28.446,1.709,42.856,2.457,52.01-2.737,6.8-3.858,7.473-6.889,16.424-10.95a63.94,63.94,0,0,1,24.637-5.475c13.744-.331,17.017,3.876,38.323,5.475,7.048.529,10.635.778,13.687,0,11.413-2.907,13.539-11.706,24.637-19.161,11.414-7.669,23.639-8.086,27.374-8.213,14.427-.491,16.48,5.8,38.323,10.95,8.3,1.956,21.626,4.973,38.323,2.737,8.751-1.171,20.035-2.82,30.111-10.949,8.1-6.536,7.8-11.11,13.687-16.424,11.5-10.378,28.924-7.618,46.536-5.475,0,0,42.309,5.147,82.121,5.475,23.939.2,42.077.345,65.7-5.475,17.487-4.309,24.551-8.581,43.8-10.95,11.035-1.358,22.106-.924,43.8,0,40.837,1.739,61.256,2.609,62.959,2.738,8.363.631,23.649,1.9,38.324-5.475,8.351-4.2,10.395-8.123,10.949-10.95,1.216-6.206-3.824-11.841-5.475-13.687-7.207-8.057-18.184-10.543-32.848-13.687-1.7-.363-3.194-.655-4.544-.917,31.028-.936,48.662-1.152,63.275.592a220.036,220.036,0,0,0,49.273,0c12.629-1.416,20.559-3.464,21.9-8.212C2503.582,591.272,2495.276,584.416,2493.789,583.189Z" fill="#f6eff6"/>
    <path d="M2417.887,689.684c-10.587-8.739-17.834-3.47-30.111-10.95-10.353-6.308-8.561-12.1-19.162-16.424-6.866-2.8-13.5-2.766-19.161-2.737a71.148,71.148,0,0,0-19.162,2.737c-1.8-18.817-9.686-28.687-13.687-32.849-6.388-6.645-18.858-10.817-43.8-19.161-17.017-5.694-20.931-5.872-24.636-5.475-9.756,1.045-12.588,5.485-27.374,8.212-8.967,1.654-13.979,2.507-19.162,0-7.5-3.629-6.174-9.854-13.687-16.424-5.886-5.148-13.049-6.17-27.374-8.212-9.692-1.382-18.859-2.69-30.111,0-9.155,2.188-8.875,4.437-16.424,5.474-13.59,1.868-24.752-4.01-27.374-5.474-8.512-4.753-8.074-8.233-19.161-16.425-4.591-3.391-10.7-7.906-19.162-10.949-17.564-6.318-34.191-2.314-43.8,0a101.384,101.384,0,0,0-16.425,5.475c-1.59-.584-16.787-6.407-19.161-19.162-1.28-6.877,1.565-13.638,2.737-16.424,2.23-5.3,3.9-5.662,8.212-13.687,3.441-6.406,5.161-9.608,5.475-13.687.671-8.713-4.691-15.466-5.475-16.424-1.344-1.645-4.448-4.975-24.636-10.95-12.687-3.754-19.03-5.632-24.636-5.475-7.73.217-20.593,2.5-21.9,2.738-7.1,1.275-10.824,2.318-13.687,0-2.893-2.341-3.824-7.234-2.738-10.95,1.381-4.726,5.335-5.187,5.475-8.212.125-2.71-2.918-5.122-13.687-10.95-15.973-8.643-19.661-8.956-21.9-13.686-2.5-5.294.748-7.789-2.737-13.687-.824-1.394-4.368-6.944-10.95-8.213a14.775,14.775,0,0,0-5.475,0c6.124-24.066,2.117-33.85-2.737-38.323-3.55-3.27-5.656-1.954-21.9-8.212-14.1-5.431-14.982-7.375-21.9-8.212a48.475,48.475,0,0,0-21.9,2.737c-10.366,4.013-13.3,9.75-19.162,8.212-3.961-1.039-7.036-4.815-8.212-8.212-1.669-4.82,1.132-7,0-10.949-.382-1.331-1.893-5.243-19.162-10.95-11.132-3.679-16.7-5.519-24.636-5.475-5.7.032-14.108.079-21.9,5.475a30.244,30.244,0,0,0-8.211,8.212c-2.395,3.618-2.482,5.593-5.475,10.95-2.7,4.826-4.044,7.239-5.475,8.212-6.848,4.659-15.2-4.143-27.374,0a39.662,39.662,0,0,0-5.474,2.737c-12.183,6.669-21.6,11.824-27.374,21.9-4.5,7.849-5.194,15.9-5.475,19.162a96.035,96.035,0,0,0,0,16.424c.377,3.587.732,4.527,0,5.475-3.282,4.249-16.211-7.091-27.374-2.737-8.353,3.258-6.067,11.541-16.424,16.424-7.862,3.707-13.241.85-16.425,5.475-2,2.9-.529,4.974-2.737,13.687-1.2,4.745-1.8,7.118-2.737,8.212-5.513,6.459-18.917-2.78-41.061,0-8.959,1.125-13.516,3.484-16.424,5.475a29.552,29.552,0,0,0-8.71,8.877c-8.364-6.972-22.614-7.216-32.349-2.338-2.03,1.018-6.829,5.241-16.424,13.687-8.612-10.688-9.337-11.38-10.95-13.687a65.908,65.908,0,0,1-10.949-27.373c-1.511-10.477,1.5-10.4,0-21.9a61.323,61.323,0,0,0-8.213-24.637c-6.917-11.288-11.926-9.909-13.687-16.424-4.1-15.167,20.879-30.661,16.425-38.323-2.422-4.166-9.9.237-21.9-5.475-7.91-3.768-12.941-9.629-16.425-13.687-8.607-10.027-5.848-12.741-10.949-16.424-12.073-8.716-27.547,6.466-41.061-2.738-2.747-1.87-4.764-4.307-13.687-10.949-4.561-3.395-6.868-5.1-8.212-5.475-9.5-2.649-14.581,9.055-24.636,8.212-7.569-.634-7.444-7.5-21.9-16.424a61.32,61.32,0,0,0-19.161-8.212c-6.58-1.494-21.115-4.794-30.111,2.737-7.11,5.952-4.242,13.214-10.95,16.424-3.58,1.714-9.736.254-21.9-2.737-11.409-2.8-13.311-4.077-16.424-2.737-5.991,2.577-9.31,11.746-8.212,19.161,1.7,11.458,13.944,18.78,19.161,21.9,8.16,4.878,13.432,5.141,13.687,8.212.352,4.246-9.287,8.923-16.424,10.95-11.585,3.29-15.091-.826-24.636,2.737-1.748.653-11.778,4.4-16.425,13.687-1.809,3.618-1.484,5.442-2.737,24.637-.844,12.922-1.152,14.573-2.738,16.424-1.667,1.946-4.092,3.35-21.9,5.475-12.833,1.531-14.343,1.133-19.161,2.737-5.8,1.932-12.831,4.273-16.425,10.95-4.211,7.825-.975,16.536,0,19.161,3.18,8.557,10.031,13.686,13.687,16.425,5.225,3.911,6.105,2.909,8.212,5.474,6.5,7.912,1.818,21.933,0,27.374-4.167,12.477-8.651,13.2-10.949,21.9-1.663,6.294-1.993,16.048,5.475,30.111a70.467,70.467,0,0,0-38.323-5.474,21.681,21.681,0,0,0,10.949-10.95c.36-.839,3.721-8.991,0-16.424-4.492-8.974-13.693-5.685-21.9-16.425-1.392-1.821-6.564-8.59-5.475-16.424.62-4.456,2.611-4.551,2.737-8.212.225-6.484-5.823-12-13.687-19.162-6.144-5.6-7.642-5.645-8.211-8.212-1.268-5.707,5.475-8.464,8.211-19.161.915-3.574,2.225-8.693,0-13.687-4.093-9.193-16.918-10.688-19.161-10.95a31.182,31.182,0,0,0-16.424,2.738,31.509,31.509,0,0,0-13.687,10.949c-2.362,3.478-3.4,6.881-5.475,13.687a110.146,110.146,0,0,0-2.737,10.949c-2.844-9.822-7.345-14.222-10.95-16.424-2.4-1.463-4.162-1.812-21.9-8.212-2.695-.972-4.071-1.484-5.475-2.737-4.461-3.982-2.858-9.126-5.475-16.425-.964-2.69-3.961-11.049-10.949-13.686-6.657-2.513-14.817.965-19.162,5.474-4.389,4.556-6.855,12.212-8.212,16.425-.833,2.587-1.15,4.173-2.737,5.474-2.869,2.353-6.76,1.212-13.687,0-14.379-2.514-14.148-.486-19.162-2.737-8.2-3.68-6.4-8.014-13.687-10.95-9.891-3.982-20.739.962-24.636,2.738-3.342,1.523-5.883,2.715-8.212,5.475-4.386,5.2-6.008,13.559-2.738,19.161,1.257,2.154,3.037,3.555,5.475,5.475,4.974,3.917,8.295,4.332,8.212,5.475-.2,2.7-18.662-.672-24.636,8.212-2.268,3.373-2.485,8.14-2.738,13.687-.336,7.392,1.3,8.308,0,10.949-2.407,4.9-8.99,3.7-21.9,8.212-7.611,2.662-12,4.2-16.424,8.213-8.325,7.555-10.225,17.94-10.949,21.9-.88,4.806-1.633,8.922,0,13.687,1.221,3.563,2.73,4.435,5.474,10.949a34.246,34.246,0,0,1,2.738,8.212c.794,4.7-.392,5.579,0,10.95a25.37,25.37,0,0,0,2.737,10.949,21.455,21.455,0,0,0,8.212,8.212c-11.205,7.342-17.839,7.2-21.9,5.475-5.792-2.459-5.563-7.8-13.687-13.687-3.276-2.372-11.282-8.171-19.161-5.474-7.959,2.723-10.6,12.338-10.95,13.686a22.324,22.324,0,0,0,0,10.95,16.769,16.769,0,0,0-8.212-2.737c-9.942-.446-18.34,9.322-21.9,16.424-2.036,4.063-3.466,9.2-5.475,16.424-1.44,5.178-1.49,6.311-2.737,8.212-.942,1.436-4.363,6.05-16.425,8.212-13.341,2.392-15.65-2.1-27.373,0A47.913,47.913,0,0,0,551,638.739,46.661,46.661,0,0,0,534.571,657.9a43.289,43.289,0,0,0-2.738,8.212,38.01,38.01,0,0,0-10.949-5.474c-3.443-1.067-12.229-3.791-21.9,0A29.44,29.44,0,0,0,485.3,671.587c-3.737,5.787-2.056,8.41-5.475,10.95-4.943,3.672-13.029,1.584-19.162,0-4.528-1.17-4.33-1.779-8.212-2.738a39.405,39.405,0,0,0-19.161,0c-8.567,2.51-10.242,9-19.162,19.162-16.386,18.67-30.409,19.194-30.111,27.374.282,7.737,13.075,14.047,21.9,16.424,25.413,6.845,53.069-9.468,60.222-13.687,11-6.487,17.585-12.881,30.111-13.687a51.85,51.85,0,0,1,19.162,2.738c10.791,3.671,10.219,7.458,19.162,10.949,12.766,4.985,26.724,2.262,38.323,0,9.7-1.891,11.039-3.5,16.424-2.737,11.219,1.587,19.089,10.5,21.9,13.687,7.493,8.488,5.172,11.512,10.95,16.424,9.625,8.183,23.742,6.317,30.111,5.475,4.126-.546,18.247-2.9,30.111-13.687,7.428-6.752,6.948-10.423,13.687-13.687a29.45,29.45,0,0,1,24.637,0c7.478,3.583,6.586,7.7,16.424,13.687,5.725,3.481,10.786,6.558,16.424,5.475,6.54-1.257,7.4-6.869,16.425-13.687,2.158-1.632,8.687-6.565,16.424-8.212,12.293-2.618,17.129,5.3,41.06,10.949,10.223,2.413,15.333,3.62,21.9,2.737,15.334-2.06,16.583-11.433,30.112-13.686,11.179-1.863,13.964,3.93,35.586,8.212,6.731,1.333,14.524,1.8,30.111,2.737,28.446,1.709,42.856,2.457,52.01-2.737,6.8-3.858,7.472-6.889,16.425-10.95a63.914,63.914,0,0,1,24.636-5.475,53.152,53.152,0,0,1,6.718.237c7.545,1.723,16.762,3.965,28.866,6.911,22.151,5.389,31.126,8.212,46.535,8.212a164.37,164.37,0,0,0,30.111-2.738c12.24-2.542,15.425-5.053,24.637-5.474,2.759-.127,11.9-.332,27.374,5.474,23.059,8.65,21.9,16.279,38.323,21.9,23.248,7.956,45.767-.416,52.01-2.737a87.621,87.621,0,0,0,27.374-16.424c3.236,5.72,10.905,17.261,24.637,21.9,13.077,4.417,24.976.318,41.061-5.475,23.546-8.48,23.148-14.373,43.8-21.9,20.845-7.6,38.946-8.043,49.273-8.212,18.312-.3,31.954,2.491,46.535,5.475,21.4,4.379,21.893,6.883,41.061,10.949,24.323,5.16,43.6,5.386,57.485,5.475,28.194.181,42.292.271,54.747-5.475,7.482-3.451,12.487-7.347,21.9-8.212,14.43-1.326,25.636,5.723,30.11,8.212,33.371,18.56,89.052,4.1,125.92-5.475,19.328-5.019,17.4-6.5,60.222-19.161,25.869-7.651,39.067-11.521,52.011-13.687,8.232-1.378,28.848-4.349,76.647,0,57.95,5.272,54.591,12.092,95.808,13.687,15.942.617,38-.5,82.121-2.738,32.468-1.645,30.194-2.128,49.273-2.737,43.187-1.38,64.78-2.07,82.121,0a220.108,220.108,0,0,0,49.273,0c12.63-1.416,20.56-3.464,21.9-8.212C2427.681,697.767,2419.374,690.911,2417.887,689.684Z" fill="#c0cfe6"/>
    <path d="M2007.506,742.877c-5.967-3.8-8.443-2.894-10.616-6.1-3.083-4.549.577-8.336-1.942-13.823-2.538-5.525-8.977-7.619-13.19-8.988-9.725-3.162-12.166.569-21.862-1.265-3.839-.726-4.572-1.522-23.964-12.354-15.648-8.741-16.749-9.1-18.655-9.3-7.557-.8-9.787,2.861-27.96,9.35-16.9,6.035-20.577,4.874-22.179,4.2-4.688-1.968-4.461-5.148-12.716-17.188-4.784-6.977-5.144-6.323-15.29-20.078-9.357-12.684-10.043-14.585-9.983-17.029.142-5.794,4.368-10.307,12.037-18.5,8.062-8.609,10.978-8.878,11.722-13.032,1.541-8.611-9.234-17.254-12.558-19.92-5.368-4.306-11-6.89-18.655-9.305-26.08-8.224-38.619-2.793-43.251-10.727-3.281-5.62-.764-14.808,3.839-18.972,3.205-2.9,5.423-1.557,11.247-4.833,2.721-1.531,10.666-6,11.722-13.032,1.186-7.9-6.983-14.576-9.983-17.029-.766-.626-11.574-9.2-24.28-6.888-5.039.918-5.207,2.609-8.356,2.258-8.888-.989-8.916-14.609-18.181-17.5-5.075-1.585-10.829,1.255-22.337,6.934-10.105,4.987-12.313,8.134-16.871,7.25-6.5-1.26-6.093-8.454-13.032-11.721-9.445-4.448-25.273,1.78-30.851,11.925-2.481,4.513-2.987,10.243-4,21.705-.3,3.408-.42,6.245-.474,8.2-.946-1.972-7.324-14.732-20.914-17.661-9.291-2-16.927,1.673-22.178,4.2-3.571,1.719-12.046,5.941-17.346,15.449a33.923,33.923,0,0,0-3.207,8.04c-7.393-8.425-17.849-12.416-26.854-9.779-8.023,2.349-12.19,9.169-14.454,12.874-1.257,2.058-8.823,14.438-4.155,24.437,2.683,5.749,7.471,6.558,7.566,11.405.085,4.31-3.673,5.007-6.1,10.616-3.568,8.255.9,15.228,0,19.592-7.459-1.969-18.522-3.494-25.831,2.237-3.9,3.056-3.893,5.958-7.784,15.1a26.26,26.26,0,0,0-6.7-3.62c-.73-.266-11.435-3.991-21.258,1.062,5.291-7.2,9.744-9.067,13.838-18.021,2.5-5.471,4.478-9.8,2.737-13.687-3.7-8.257-19.682-4.6-21.9-10.949-1.613-4.623,6.043-8.892,16.425-24.637,6.327-9.6,9.465-14.491,8.211-19.162-2.564-9.551-20.305-16.042-30.111-10.949-4.294,2.23-5.163,5.693-8.212,5.475-5.287-.379-8.6-11.221-10.949-19.162-2.383-8.055-3.878-16.083-5.475-30.111-2.259-19.854-1.525-23.64-5.475-27.374-6.05-5.72-17.073-5.631-24.636-2.737-11.179,4.277-11.751,13.519-19.162,13.687-9.317.211-12.477-14.3-21.9-13.687-6.914.452-8.845,8.506-16.424,8.212-5.409-.21-6.047-4.375-10.95-5.475-12.951-2.905-25.991,22.233-32.848,19.162-3.826-1.714.161-9.569-5.475-16.425-5.975-7.267-14.287-3.1-21.9-10.949-5.662-5.838-3.206-10.353-8.212-13.687-7.453-4.964-23.521-2.034-27.374,8.212-2.677,7.118,1.579,15.011,5.475,19.162a22.234,22.234,0,0,0,8.212,5.475,45.767,45.767,0,0,0-8.212,10.949,46.739,46.739,0,0,0-5.475,21.9c-4.59-.238-20.841-.519-35.586,10.95a52.793,52.793,0,0,0-16.424,21.9c-2.784-.154-14.7-.5-24.637,8.212-2.581,2.265-13.151,11.539-10.949,24.636,2.224,13.232,15.54,18.809,16.424,19.162a22.617,22.617,0,0,0,5.475,8.212c9.316,8.8,23.029,5.847,24.636,5.475a87,87,0,0,0-21.9,38.323,212.169,212.169,0,0,0-24.636-32.848c-7.608-8.29-11.849-11.51-16.425-10.95-5.921.724-6.24,7.023-16.424,13.687-7.192,4.706-9.185,2.973-16.424,8.212-4.769,3.452-11.2,8.105-10.949,13.687.147,3.314,2.584,5.56,4.776,7.631q-.75,0-1.515,0a22.2,22.2,0,0,0-5.11-3.758c-10.164-5.4-21.309-1.2-22.051-.908a28.176,28.176,0,0,0-14.492,13.442l-.4.184c1.158-4.9,3.271-16.48-2.16-20.446-1.444-1.054-3.766-1.385-8.411-2.045-10.257-1.459-11.873.163-13.867-1.591-4.343-3.819,2.7-12.051-1.819-21.823-2.567-5.545-6.341-6.147-6.366-10.457-.028-4.848,4.738-5.779,7.274-11.594,4.412-10.115-3.465-22.3-4.775-24.324-2.357-3.646-6.7-10.358-14.776-12.5-9.069-2.407-19.42,1.847-26.6,10.458a33.839,33.839,0,0,0-3.41-7.956c-5.538-9.37-14.118-13.375-17.732-15-5.313-2.394-13.04-5.875-22.278-3.637C942.851,543.9,936.8,556.817,935.9,558.812c-.1-1.951-.3-4.784-.683-8.183-1.3-11.432-1.952-17.148-4.547-21.6-5.834-10-21.816-15.824-31.145-11.138-6.854,3.443-6.263,10.623-12.729,12.049-4.535,1-6.822-2.091-17.05-6.819-11.649-5.385-17.473-8.078-22.506-6.365-9.188,3.128-8.871,16.745-17.731,17.96-3.139.43-3.35-1.255-8.411-2.046-12.759-1.992-23.347,6.858-24.1,7.5-2.937,2.528-10.934,9.413-9.547,17.277,1.234,7,9.289,11.269,12.049,12.73,5.9,3.128,8.089,1.73,11.366,4.546,4.707,4.046,7.457,13.167,4.32,18.868-4.429,8.05-17.1,2.939-42.964,11.823-7.593,2.608-13.157,5.335-18.413,9.776-3.256,2.75-13.808,11.664-12.048,20.232.849,4.134,3.771,4.329,12.049,12.73,7.875,7.993,12.214,12.4,12.5,18.186.123,2.442-.515,4.359-9.546,17.277C746.981,697.63,746.6,696.985,742,704.082c-7.946,12.246-7.639,15.419-12.275,17.5-1.585.713-5.23,1.966-22.278-3.637-18.333-6.025-20.655-9.623-28.189-8.637-1.9.249-2.992.64-18.413,9.776-19.11,11.321-19.823,12.135-23.642,12.959-9.646,2.079-12.182-1.589-21.823,1.819-4.177,1.476-10.56,3.733-12.957,9.321-2.38,5.549,1.376,9.242-1.591,13.867-2.09,3.257-4.589,2.416-10.457,6.365-3.1,2.089-10.51,7.075-10,11.822.582,5.432,11.315,8.578,17.278,9.547,6.094.99,8.853-.026,21.823-1.82,14.635-2.023,21.952-3.034,27.279-2.274,10.536,1.5,11.589,5.246,22.506,6.364,7.023.72,10.538-.425,19.095-1.592,5.928-.808,24.068-2.962,41.146-.683,17.381,2.319,15.364,6.788,30.917,8.41,13.065,1.362,15.2-1.718,38.191-3.185a205.908,205.908,0,0,1,32.963,0c19.517,1.831,28.015,6.713,42.055,10.228,14.15,3.543,20.228,2.268,60.469.453,65.425-2.952,98.137-4.428,115.255-1.369,6.689,1.195,19.088,3.754,35.918,2.5,9.831-.733,14.186-2.247,37.736-8.64,1.518-.412,2.993-.811,4.436-1.2,6.192,3.234,9.73,4.691,12.741,3.525,2.509-.971,3.634-3.02,4.654-5.312,27.151,5.171,52.146,8.923,81.02,3.446.174-.033.332-.067.5-.1,15.221,6.44,17.656,9.431,26.677,10.774,10.12,1.507,9.72-1.859,43.192-9.1,1.464-.316,2.854-.616,4.212-.907,8.348,5.779,18.571,6.534,20.41,6.669a55.065,55.065,0,0,0,13.662-1c4.526,1.146,6.968,1.42,11.588.612,7.21-1.261,10.156-3.477,18.814-7.829,2.486.523,5.14,1.05,8.151,1.542a152.7,152.7,0,0,0,15.517,1.726,12.148,12.148,0,0,0,3.44,2.21c5.4,2.311,12,.851,18.29-2.384,17.562-1.274,34.553-5.029,52.774-9.057,3.244-.718,5.649-1.3,7.765-1.847,1.61.39,3.252.789,4.956,1.205,23.7,5.793,28.1,7.2,37.943,7.678,16.856.828,29.186-2.046,35.843-3.411,17.035-3.492,49.774-2.848,115.252-1.56,40.275.793,46.383,1.913,60.438-1.988,13.947-3.871,22.318-8.967,41.783-11.294a205.864,205.864,0,0,1,32.952-.836c23.018.882,25.233,3.907,38.259,2.213,15.506-2.016,13.377-6.432,30.693-9.193,17.015-2.712,35.2-1.019,41.15-.362,8.584.949,12.127,2,19.13,1.107,10.885-1.395,11.843-5.163,22.337-6.934,5.306-.9,12.647-.07,27.328,1.58,13.011,1.463,15.8,2.41,21.863,1.265,5.935-1.12,16.585-4.538,17.029-9.983C2018.193,749.682,2010.661,744.887,2007.506,742.877Z" fill="#8ab1d2"/>
    <path d="M872.944,787.77c-6.732,5.475-11.295,9.186-11.109,13.558.333,7.806,15.606,12.865,19,13.91,11.966,3.682,19.2,1.451,49.3-2.161,17.617-2.114,26.554-3.155,32.878-2.353,3.394.43,8.72,1.332,35.456,11.365,25.131,9.431,23.335,9.726,29.981,11.3a97.839,97.839,0,0,0,43.8.512c16.485-3.905,15.224-8.947,30.269-13.333,12.41-3.619,23.038-3.037,60.186,3.441,34.129,5.952,31.2,6.514,46.437,8.756,31.036,4.567,58.55,8.616,90.327,1.057,13.78-3.278,20.086-6.77,35.68-7.795,12.352-.812,22.078.52,41.026,3.217,33.9,4.827,33.745,8.212,43.731,5.987,11-2.451,11.783-6.689,38.544-18.712,10.062-4.521,15.092-6.781,19.257-7.988,13.133-3.806,24.164-2.9,71.1,6.307,23.946,4.695,28.4,5.894,38.257,5.923,16.876.05,29.06-3.388,35.647-5.058,16.856-4.273,49.59-5.138,115.058-6.867,40.269-1.063,46.422-.226,60.283-4.77,13.753-4.509,21.88-9.985,41.218-13.205a205.734,205.734,0,0,1,32.878-2.353c23.035-.18,25.386,2.74,38.321.448,15.4-2.728,13.066-7.042,30.237-10.6,16.872-3.492,35.12-2.639,41.09-2.256,8.618.552,12.206,1.443,19.16.224,10.809-1.895,11.592-5.7,21.994-7.956,5.259-1.139,12.63-.652,27.372.32,13.064.863,15.889,1.68,21.9.257,5.878-1.393,16.359-5.3,16.552-10.757.168-4.771-7.576-9.215-10.821-11.077-6.135-3.52-8.567-2.5-10.885-5.6-3.29-4.4.193-8.354-2.577-13.718-2.79-5.4-9.318-7.2-13.59-8.372-9.86-2.71-12.127,1.129-21.9-.256-3.868-.549-4.637-1.31-24.507-11.237-16.035-8.011-17.151-8.323-19.064-8.436-7.585-.445-9.645,3.309-27.5,10.629-16.605,6.806-20.33,5.816-21.962,5.218-4.773-1.75-4.693-4.936-13.494-16.583-5.1-6.75-5.43-6.08-16.2-19.353-9.931-12.24-10.7-14.107-10.756-16.551-.125-5.8,3.889-10.5,11.172-19.032,7.657-8.971,10.558-9.374,11.109-13.558,1.143-8.673-10.018-16.81-13.461-19.321-5.561-4.054-11.3-6.376-19.065-8.435-26.43-7.014-38.706-1.012-43.7-8.724-3.536-5.463-1.445-14.757,2.962-19.129,3.067-3.043,5.346-1.8,11.012-5.346,2.648-1.655,10.378-6.485,11.109-13.558.822-7.943-7.647-14.239-10.756-16.551-.794-.59-11.987-8.662-24.571-5.763-4.992,1.15-5.082,2.846-8.244,2.641-8.924-.578-9.58-14.183-18.968-16.647-5.142-1.349-10.759,1.752-21.994,7.955-9.864,5.447-11.925,8.693-16.519,8.02-6.551-.96-6.476-8.164-13.558-11.109-9.639-4.008-25.164,2.943-30.269,13.334-2.271,4.622-2.512,10.37-2.993,21.865-.144,3.419-.133,6.258-.1,8.212-1.037-1.926-8-14.379-21.706-16.679-9.374-1.573-16.832,2.451-21.961,5.218-3.488,1.882-11.76,6.49-16.616,16.231a33.93,33.93,0,0,0-2.833,8.179c-7.774-8.075-18.4-11.58-27.276-8.531-7.906,2.716-11.755,9.72-13.846,13.525-1.161,2.114-8.148,14.83-3.025,24.6,2.945,5.619,7.765,6.207,8.083,11.045.283,4.3-3.438,5.17-5.6,10.885-3.813,10.07,3.8,17.778-.256,21.9-1.864,1.892-3.592.39-13.718,2.577-4.586.991-6.879,1.486-8.244,2.642-5.707,4.828-1.441,18.381-.256,21.9-.967-1.863-5.742-10.576-16.263-13.878-.761-.239-12.178-3.634-21.93,2.481-8.507,5.335-9.142,13.766-13.846,13.526-3.788-.194-3.939-5.691-10.821-11.077-1.9-1.491-9.29-7.271-16.359-5.666-3.136.712-4.673,2.529-16.647,18.968-7.108,9.758-7.213,10-8.34,10.852-8.065,6.067-14.047,1.945-24.73,7.924-3.671,2.054-8.926,5-11.077,10.821-3.692,10,4.506,21.029,5.218,21.961,5.411,7.082,10.725,7.176,10.821,11.077.141,5.771-11.3,13.185-19.289,10.725-5.72-1.763-6.18-7.52-10.853-8.34-3.562-.625-8.811,1.752-16.583,13.494-9.856-2.707-24.887-5.055-41.058-.481-10.146,2.87-19.308,5.462-27.532,13.366-3.991,3.836-6.316,7.534-11.045,8.084-5.5.639-6.827-3.842-16.327-8.4-11.161-5.361-22.862-5.675-27.308-5.795-5.735-.154-5.547.529-8.211-.1-2.912-.682-8.116-2.664-18.968-16.647-6.641-8.556-5.04-8.261-8.084-11.045-9.951-9.1-23.051-8.581-24.539-8.5a34.868,34.868,0,0,0-16.487,5.283c.591-2.907,2.915-15.967-5.154-27.436a34.019,34.019,0,0,0-13.558-11.109c-8.3-3.942-15.652-3.578-24.6-3.026a102.727,102.727,0,0,0-38.448,10.5c-7.31,3.73-7.445,5-11.013,5.346-10.942,1.078-14.786-10.307-29.949-14.038-3.4-.838-13.991-3.442-21.93,2.481a22.365,22.365,0,0,0-8.4,16.327c-.427,8.574,4.928,11.828,2.545,16.455-1.8,3.5-5.054,1.992-13.782,8.052-5.557,3.859-7.479,6.722-8.307,8.115a21.966,21.966,0,0,0-2.833,8.18c-8.451-4.079-24.456-10.309-43.7-8.724-7.061.582-18.354,1.512-30.2,7.859-4.628,2.48-6.377,4.2-11.013,5.347-7.649,1.9-12.463-.408-24.6-3.026-13.448-2.9-20.172-4.349-24.6-3.025-9.059,2.707-7.3,8.818-22.122,18.9C882.9,781.5,880.037,782,872.944,787.77Z" fill="#5081a9"/>
  </g>
</svg>
