<svg xmlns="http://www.w3.org/2000/svg" width="2749.639" height="697.449" viewBox="0 0 2749.639 697.449">
  <title>Cloud_5</title>
  <g>
    <path d="M2741.228,486.858c-10.588-8.739-17.834-3.47-30.111-10.95-10.353-6.308-8.561-12.1-19.162-16.424-6.867-2.8-13.5-2.766-19.162-2.738a71.181,71.181,0,0,0-19.161,2.738c-1.8-18.817-9.686-28.687-13.687-32.849-6.389-6.645-18.859-10.817-43.8-19.161-17.018-5.694-20.931-5.872-24.637-5.475-9.756,1.045-12.587,5.485-27.373,8.212-8.967,1.654-13.979,2.507-19.162,0-7.5-3.629-6.174-9.854-13.687-16.424-5.886-5.148-13.049-6.17-27.374-8.212a115.574,115.574,0,0,0-16.838-1.559,10.081,10.081,0,0,0,1.962-4.239c1.216-6.206-3.825-11.841-5.475-13.686-7.207-8.058-18.185-10.544-32.849-13.687-8.767-1.88-12.379-1.868-16.424-5.475-3.664-3.268-5.561-7.612-8.212-13.687-4.215-9.658-2.56-10.767-5.475-13.687-4.479-4.488-9.2-2.68-16.424-8.212a29.765,29.765,0,0,1-5.475-5.475c14.15-5.061,22.908-14.285,21.9-21.9-.741-5.6-6.7-9.867-8.212-10.949-7.8-5.585-13.385-2.487-19.162-8.213-3.835-3.8-4.966-8.729-5.474-10.949-1.577-6.876.89-9.282,0-13.687-1.79-8.848-15.278-16.614-27.374-16.424-14.762.231-17.064,12.145-30.111,10.949-13.281-1.217-23.353-14.7-24.637-16.424-5.361-7.18-3.578-9.561-8.212-13.687-8.288-7.378-22.923-7.711-32.849-2.737-2.03,1.017-6.828,5.24-16.424,13.687-8.612-10.689-9.337-11.381-10.949-13.687a65.932,65.932,0,0,1-10.95-27.374c-1.51-10.477,1.5-10.4,0-21.9a61.3,61.3,0,0,0-8.212-24.637c-6.917-11.288-11.926-9.909-13.687-16.424-4.1-15.167,20.878-30.661,16.424-38.323-2.421-4.166-9.9.238-21.9-5.475-7.909-3.767-12.94-9.629-16.424-13.687C2153.844,44,2156.6,41.288,2151.5,37.6c-12.072-8.716-27.546,6.466-41.06-2.738-2.747-1.87-4.764-4.306-13.687-10.949-4.561-3.395-6.869-5.1-8.212-5.475-9.505-2.649-14.582,9.055-24.637,8.212-7.568-.634-7.443-7.5-21.9-16.424a61.328,61.328,0,0,0-19.162-8.212c-6.579-1.494-21.115-4.794-30.111,2.737-7.11,5.952-4.242,13.214-10.949,16.424-3.581,1.714-9.736.254-21.9-2.737-11.41-2.805-13.312-4.077-16.425-2.737-5.99,2.578-9.309,11.746-8.212,19.161,1.7,11.458,13.944,18.78,19.162,21.9,8.16,4.879,13.432,5.141,13.687,8.213.352,4.245-9.288,8.922-16.424,10.949-11.585,3.29-15.091-.825-24.637,2.738-1.747.652-11.777,4.4-16.424,13.686-1.81,3.618-1.485,5.442-2.738,24.637-.843,12.922-1.152,14.574-2.737,16.424-1.667,1.947-4.093,3.35-21.9,5.475-12.833,1.531-14.344,1.133-19.162,2.737-5.8,1.932-12.83,4.273-16.424,10.95-4.212,7.825-.976,16.536,0,19.161,3.179,8.557,10.03,13.687,13.687,16.425,5.224,3.911,6.1,2.909,8.212,5.474,6.5,7.912,1.817,21.933,0,27.374-4.167,12.478-8.651,13.2-10.949,21.9a30.816,30.816,0,0,0-.83,10.769c-.183.97-.413,2.037-.718,3.241-1.2,4.745-1.8,7.118-2.738,8.212-3.951,4.629-11.957,1.2-24.327-.1a20.845,20.845,0,0,0,6.714-8.437c.36-.839,3.721-8.991,0-16.424-4.493-8.974-13.693-5.685-21.9-16.424-1.391-1.821-6.563-8.591-5.474-16.425.619-4.456,2.611-4.551,2.737-8.212.224-6.484-5.824-12-13.687-19.161-6.145-5.6-7.642-5.646-8.212-8.213-1.267-5.707,5.476-8.464,8.212-19.161.914-3.574,2.224-8.693,0-13.687-4.093-9.193-16.919-10.688-19.161-10.95a31.2,31.2,0,0,0-16.425,2.738,31.515,31.515,0,0,0-13.687,10.949c-2.362,3.478-3.4,6.881-5.474,13.687a110.421,110.421,0,0,0-2.738,10.95c-2.843-9.823-7.344-14.223-10.949-16.425-2.4-1.463-4.162-1.812-21.9-8.212-2.695-.972-4.071-1.484-5.475-2.737-4.461-3.982-2.858-9.125-5.475-16.424-.964-2.691-3.961-11.05-10.95-13.687-6.657-2.513-14.817.965-19.161,5.474-4.389,4.556-6.855,12.212-8.212,16.425-.834,2.587-1.151,4.173-2.738,5.474-2.869,2.354-6.759,1.212-13.687,0-14.378-2.514-14.147-.486-19.161-2.737-8.2-3.68-6.395-8.014-13.687-10.949-9.892-3.983-20.74.961-24.637,2.737-3.341,1.523-5.883,2.716-8.212,5.475-4.386,5.2-6.007,13.559-2.737,19.161,1.257,2.154,3.036,3.555,5.475,5.475,4.974,3.917,8.3,4.333,8.212,5.475-.2,2.7-18.663-.672-24.637,8.212-2.267,3.373-2.485,8.14-2.737,13.687-.337,7.392,1.3,8.308,0,10.949-2.407,4.9-8.99,3.7-21.9,8.213-6.824,2.386-11.055,3.871-15.047,7.046-1.183-1.87-4.653-6.6-10.669-7.756a14.748,14.748,0,0,0-5.474,0c6.124-24.066,2.117-33.85-2.738-38.323-3.549-3.271-5.656-1.954-21.9-8.212-14.1-5.432-14.982-7.376-21.9-8.212a48.475,48.475,0,0,0-21.9,2.737c-10.366,4.012-13.3,9.75-19.162,8.212-3.961-1.039-7.036-4.815-8.212-8.212-1.669-4.82,1.132-7,0-10.95-.381-1.33-1.893-5.242-19.162-10.949-11.133-3.679-16.7-5.519-24.636-5.475-5.7.032-14.108.079-21.9,5.475a30.214,30.214,0,0,0-8.212,8.212c-2.395,3.618-2.482,5.593-5.475,10.95-2.7,4.825-4.044,7.238-5.474,8.212-6.849,4.659-15.2-4.143-27.374,0a39.537,39.537,0,0,0-5.475,2.737c-12.183,6.669-21.6,11.824-27.374,21.9-4.5,7.848-5.193,15.9-5.475,19.162a96.035,96.035,0,0,0,0,16.424c.378,3.586.733,4.526,0,5.475-3.281,4.248-16.211-7.091-27.374-2.737-8.353,3.257-6.067,11.54-16.424,16.424-7.862,3.707-13.241.85-16.424,5.475-2,2.9-.53,4.974-2.738,13.686-1.2,4.746-1.8,7.119-2.737,8.213-5.513,6.459-18.917-2.78-41.06,0-8.96,1.124-13.517,3.484-16.425,5.474-1.895,1.3-8.324,5.7-10.949,13.687-.974,2.96-1.085,6.116-.773,10.683a17.314,17.314,0,0,1-11.75,3.128c-13.281-1.218-23.353-14.705-24.636-16.424-5.362-7.18-3.578-9.561-8.213-13.687-8.288-7.379-22.923-7.711-32.848-2.737-2.031,1.017-6.829,5.24-16.425,13.686-8.611-10.688-9.337-11.38-10.949-13.686a65.932,65.932,0,0,1-10.95-27.374c-1.51-10.477,1.5-10.4,0-21.9a61.3,61.3,0,0,0-8.211-24.637c-6.918-11.288-11.927-9.909-13.687-16.424-4.1-15.167,20.878-30.661,16.423-38.323-2.421-4.166-9.905.238-21.9-5.475-7.91-3.767-12.941-9.629-16.424-13.687-8.608-10.027-5.848-12.741-10.95-16.424-12.073-8.716-27.547,6.466-41.061-2.738-2.747-1.87-4.764-4.306-13.687-10.949-4.561-3.4-6.869-5.1-8.212-5.475-9.5-2.649-14.581,9.055-24.637,8.212-7.567-.634-7.443-7.5-21.9-16.424a61.32,61.32,0,0,0-19.161-8.212c-6.58-1.494-21.115-4.794-30.111,2.737-7.111,5.952-4.243,13.214-10.95,16.424-3.581,1.714-9.735.254-21.9-2.737-11.409-2.8-13.311-4.077-16.424-2.737C741.32,77.92,738,87.089,739.1,94.5c1.7,11.458,13.944,18.78,19.161,21.9,8.16,4.879,13.432,5.141,13.687,8.213.353,4.245-9.288,8.922-16.424,10.949-11.585,3.29-15.091-.826-24.637,2.737-1.747.653-11.777,4.4-16.424,13.687-1.809,3.618-1.485,5.442-2.737,24.637-.843,12.922-1.152,14.574-2.738,16.424-1.667,1.946-4.092,3.35-21.9,5.475-12.833,1.531-14.344,1.133-19.161,2.737-5.8,1.932-12.831,4.273-16.425,10.95-4.212,7.825-.975,16.536,0,19.161,3.179,8.557,10.03,13.687,13.687,16.425,5.224,3.911,6.105,2.909,8.212,5.474,6.5,7.912,1.818,21.933,0,27.374-4.167,12.477-8.651,13.2-10.949,21.9-1.663,6.294-1.993,16.048,5.475,30.112a70.457,70.457,0,0,0-38.324-5.475,21.678,21.678,0,0,0,10.95-10.95c.36-.839,3.721-8.991,0-16.424-4.493-8.974-13.693-5.685-21.9-16.424-1.392-1.821-6.564-8.591-5.475-16.425.62-4.456,2.611-4.551,2.737-8.212.224-6.484-5.823-12-13.687-19.161-6.144-5.6-7.642-5.646-8.212-8.213-1.267-5.707,5.476-8.464,8.212-19.161.915-3.574,2.224-8.693,0-13.687-4.093-9.193-16.919-10.688-19.161-10.95a31.182,31.182,0,0,0-16.424,2.738,31.509,31.509,0,0,0-13.687,10.949c-2.362,3.478-3.4,6.881-5.475,13.687a110.085,110.085,0,0,0-2.737,10.95c-2.844-9.823-7.345-14.223-10.95-16.425-2.4-1.463-4.162-1.812-21.9-8.212-2.695-.972-4.071-1.484-5.475-2.737-4.461-3.982-2.858-9.125-5.475-16.425-.964-2.69-3.96-11.049-10.949-13.687-6.657-2.512-14.817.966-19.162,5.475-4.389,4.556-6.855,12.212-8.212,16.425-.833,2.587-1.151,4.173-2.737,5.474-2.869,2.354-6.76,1.212-13.687,0-14.379-2.514-14.148-.486-19.162-2.737-8.2-3.68-6.395-8.014-13.687-10.95-9.891-3.982-20.739.962-24.636,2.738-3.342,1.523-5.883,2.716-8.212,5.475-4.386,5.2-6.008,13.559-2.738,19.161,1.258,2.154,3.037,3.555,5.475,5.475,4.974,3.917,8.3,4.332,8.212,5.475-.2,2.7-18.662-.672-24.636,8.212-2.268,3.373-2.485,8.14-2.738,13.687-.336,7.392,1.3,8.308,0,10.949-2.407,4.9-8.99,3.7-21.9,8.213-7.611,2.661-12,4.195-16.424,8.212-8.325,7.555-10.225,17.94-10.95,21.9-.879,4.806-1.632,8.923,0,13.687,1.221,3.563,2.731,4.435,5.475,10.949a34.246,34.246,0,0,1,2.738,8.212c.794,4.7-.393,5.579,0,10.95a25.367,25.367,0,0,0,2.737,10.949,21.462,21.462,0,0,0,8.212,8.213c-11.2,7.341-17.839,7.2-21.9,5.474-5.792-2.459-5.563-7.8-13.687-13.687-3.276-2.372-11.282-8.171-19.161-5.474-7.959,2.723-10.6,12.338-10.95,13.687a22.32,22.32,0,0,0,0,10.949,16.769,16.769,0,0,0-8.212-2.737c-9.942-.446-18.34,9.322-21.9,16.424-2.037,4.063-3.466,9.2-5.475,16.424-1.44,5.178-1.49,6.311-2.737,8.212-.942,1.436-4.363,6.05-16.425,8.213-13.341,2.391-15.65-2.1-27.374,0a47.9,47.9,0,0,0-19.161,8.212,46.661,46.661,0,0,0-16.424,19.161,43.272,43.272,0,0,0-2.738,8.213,37.983,37.983,0,0,0-10.949-5.475c-3.443-1.067-12.229-3.791-21.9,0A29.44,29.44,0,0,0,101.288,453.1c-3.737,5.787-2.056,8.41-5.475,10.95-4.944,3.672-13.029,1.584-19.162,0-4.529-1.17-4.33-1.779-8.212-2.738a39.422,39.422,0,0,0-19.162,0c-8.566,2.51-10.241,9-19.161,19.162C13.73,499.145-.294,499.669.005,507.849c.281,7.737,13.075,14.048,21.9,16.424,25.413,6.845,53.069-9.468,60.222-13.687,11-6.487,17.585-12.881,30.111-13.687a51.876,51.876,0,0,1,19.162,2.738c10.791,3.671,10.219,7.458,19.162,10.949,12.766,4.985,26.724,2.263,38.323,0,9.7-1.891,11.039-3.5,16.424-2.737,11.219,1.587,19.088,10.5,21.9,13.687,7.493,8.488,5.172,11.512,10.95,16.424,9.625,8.183,23.742,6.317,30.111,5.475,4.126-.546,18.247-2.9,30.111-13.687,7.428-6.752,6.948-10.423,13.687-13.687a29.45,29.45,0,0,1,24.637,0c7.478,3.584,6.586,7.7,16.424,13.687,5.724,3.481,10.785,6.558,16.424,5.475,6.54-1.256,9.868-25.029,18.89-31.847,2.159-1.631,6.222,11.6,13.959,9.948,12.293-2.618,17.129,5.3,41.06,10.949,10.222,2.413,15.333,3.62,21.9,2.738a30.937,30.937,0,0,0,7.624-1.971c10.695,2.928,26.5,6.017,43.222,4.584,11.645-1,15.248-3.463,24.421-6.772,5.112.489,11.492.878,20.542,1.421,28.446,1.709,42.856,2.457,52.01-2.737,5.441-3.088,7.021-5.654,12-8.635,32.605-1.258,49.86-1.749,63.48.3,11.179,1.68,23.877,4.77,49.273,10.949,22.151,5.39,31.126,8.213,46.536,8.212a164.336,164.336,0,0,0,30.111-2.737c12.239-2.543,15.425-5.054,24.636-5.475,2.76-.126,11.9-.331,27.374,5.475,23.059,8.65,21.9,16.278,38.324,21.9,23.247,7.956,45.766-.416,52.01-2.737A87.645,87.645,0,0,0,984.3,532.361c3.235,5.721,10.9,17.261,24.636,21.9,13.077,4.418,24.976.319,41.061-5.474,23.546-8.48,23.148-14.373,43.8-21.9a129.834,129.834,0,0,1,18.164-5.146c2.437,1.058,5.244,2.2,8.741,3.44,6.949,2.46,29.856,10.344,54.748,8.212,11.746-1.006,15.285-3.5,24.637-6.855,11.826,3.034,15.176,5.293,30.579,8.561,24.323,5.16,43.6,5.386,57.485,5.475,28.2.18,42.292.271,54.747-5.475,7.482-3.451,12.488-7.348,21.9-8.212,14.431-1.326,25.637,5.723,30.111,8.212,32.3,17.963,85.493,5,122.305-4.537,2.617.734,5.482,1.654,8.621,2.831,23.058,8.65,21.9,16.279,38.323,21.9,23.248,7.956,45.767-.416,52.01-2.737a87.621,87.621,0,0,0,27.374-16.424c3.236,5.72,10.9,17.261,24.637,21.9,13.077,4.417,24.975.318,41.06-5.475,23.547-8.48,23.148-14.373,43.8-21.9,20.846-7.6,38.947-8.043,49.273-8.212,18.313-.3,31.955,2.491,46.536,5.474,21.4,4.38,21.893,6.884,41.06,10.95,24.324,5.16,43.6,5.386,57.485,5.475,28.2.18,42.292.271,54.748-5.475,7.482-3.451,12.487-7.348,21.9-8.212,14.431-1.326,25.637,5.723,30.111,8.212,33.371,18.56,89.052,4.1,125.92-5.475,19.328-5.019,17.4-6.5,60.222-19.161,25.869-7.651,39.067-11.521,52.011-13.687,8.232-1.378,28.848-4.349,76.646,0,57.951,5.272,54.591,12.092,95.808,13.687,15.942.617,38-.5,82.122-2.738,32.468-1.645,30.194-2.128,49.273-2.737,43.187-1.38,64.78-2.07,82.121,0a220.038,220.038,0,0,0,49.273,0c12.63-1.416,20.56-3.464,21.9-8.212C2751.021,494.941,2742.715,488.085,2741.228,486.858Z" fill="#f6eff6"/>
    <path d="M2614.04,500.7c-6.989-8.248-17.895-11.028-32.47-14.564-8.713-2.114-12.325-2.2-16.271-5.913-3.575-3.365-5.354-7.759-7.842-13.9-3.955-9.767-2.271-10.832-5.105-13.829-4.358-4.606-9.126-2.926-16.2-8.65a29.753,29.753,0,0,1-5.326-5.62c14.281-4.678,23.283-13.665,22.479-21.3-.591-5.616-6.434-10.044-7.915-11.166-7.645-5.792-13.314-2.845-18.935-8.723-3.732-3.9-4.729-8.86-5.179-11.093-1.391-6.916,1.14-9.255.367-13.682-1.551-8.893-14.826-17.018-26.922-17.153-14.763-.165-17.384,11.683-30.395,10.137-13.243-1.573-22.949-15.326-24.186-17.079-5.167-7.321-3.32-9.654-7.842-13.9-8.087-7.6-22.708-8.323-32.763-3.618-2.058.963-6.967,5.056-16.786,13.241-8.322-10.916-9.028-11.627-10.578-13.976a65.9,65.9,0,0,1-10.211-27.658c-1.229-10.513,1.774-10.358.588-21.891A61.32,61.32,0,0,0,2355,255.506c-6.612-11.47-11.656-10.225-13.242-16.785-3.69-15.272,21.694-30.089,17.447-37.869-2.308-4.229-9.907-.028-21.744-6.061-7.805-3.978-12.677-9.972-16.051-14.123-8.335-10.254-5.5-12.893-10.5-16.712-11.835-9.037-27.711,5.725-40.973-3.838-2.7-1.944-4.646-4.433-13.388-11.313-4.468-3.516-6.729-5.283-8.062-5.693-9.43-2.9-14.82,8.66-24.848,7.547-7.549-.837-7.24-7.693-21.451-17.006a61.339,61.339,0,0,0-18.934-8.723c-6.537-1.67-20.979-5.359-30.174,1.928-7.267,5.759-4.595,13.1-11.386,16.125-3.625,1.617-9.739-.009-21.818-3.325-11.33-3.11-13.2-4.433-16.345-3.177-6.057,2.416-9.621,11.493-8.723,18.934,1.388,11.5,13.435,19.148,18.567,22.406,8.026,5.095,13.289,5.5,13.461,8.576.238,4.253-9.523,8.671-16.712,10.5-11.669,2.978-15.063-1.23-24.7,2.075-1.765.6-11.891,4.078-16.786,13.241-1.906,3.569-1.63,5.4-3.4,24.554-1.19,12.9-1.543,14.538-3.178,16.345-1.719,1.9-4.181,3.239-22.038,4.885-12.87,1.187-14.369.748-19.228,2.222-5.851,1.776-12.941,3.927-16.712,10.5-4.421,7.71-1.419,16.5-.515,19.155,2.949,8.639,9.66,13.95,13.242,16.786,5.117,4.05,6.023,3.072,8.062,5.693,6.285,8.083,1.228,21.974-.735,27.364-4.5,12.361-9,12.966-11.533,21.6-1.832,6.247-2.423,15.988,4.664,30.247a70.456,70.456,0,0,0-38.163-6.5,21.677,21.677,0,0,0,11.24-10.652c.383-.829,3.961-8.888.441-16.418-4.25-9.091-13.536-6.05-21.45-17.006-1.343-1.858-6.331-8.764-5.032-16.566.739-4.438,2.732-4.479,2.956-8.135.4-6.476-5.5-12.148-13.167-19.523-5.992-5.762-7.488-5.848-7.989-8.429-1.113-5.739,5.7-8.314,8.724-18.934,1.009-3.549,2.456-8.63.367-13.682-3.845-9.3-16.626-11.139-18.861-11.46a31.186,31.186,0,0,0-16.492,2.3,31.524,31.524,0,0,0-13.976,10.578c-2.454,3.414-3.583,6.788-5.84,13.535a110.521,110.521,0,0,0-3.03,10.873c-2.579-9.9-6.96-14.415-10.5-16.713-2.356-1.527-4.111-1.923-21.67-8.8-2.668-1.044-4.03-1.592-5.4-2.883-4.353-4.1-2.612-9.2-5.032-16.565-.892-2.716-3.663-11.152-10.578-13.976-6.587-2.691-14.838.567-19.3,4.958-4.509,4.437-7.18,12.024-8.65,16.2-.9,2.564-1.262,4.141-2.883,5.4-2.931,2.275-6.79,1.029-13.682-.368-14.306-2.9-14.129-.866-19.081-3.251-8.1-3.9-6.178-8.182-13.389-11.313-9.781-4.246-20.757.405-24.7,2.075-3.382,1.433-5.954,2.557-8.357,5.253-4.523,5.076-6.369,13.393-3.25,19.081,1.2,2.187,2.94,3.635,5.326,5.62,4.866,4.049,8.176,4.554,8.062,5.693-.269,2.693-18.638-1.173-24.848,7.548-2.358,3.311-2.7,8.07-3.1,13.609-.535,7.38,1.074,8.34-.294,10.945-2.538,4.834-9.086,3.456-22.111,7.621-1.759.563-3.331,1.069-4.789,1.565a11.457,11.457,0,0,1,.511-3.3c1.507-4.688,5.471-5.042,5.693-8.063.2-2.7-2.78-5.2-13.388-11.313-15.735-9.069-19.414-9.481-21.524-14.269-2.362-5.359.957-7.766-2.369-13.756-.786-1.415-4.179-7.058-10.725-8.5a14.754,14.754,0,0,0-5.473-.147c6.768-23.893,3.025-33.781-1.708-38.383-3.46-3.364-5.6-2.1-21.671-8.8-13.945-5.808-14.778-7.775-21.67-8.8a48.464,48.464,0,0,0-21.965,2.149c-10.47,3.732-13.555,9.389-19.375,7.695-3.932-1.145-6.9-5-7.989-8.43-1.539-4.863,1.32-6.97.294-10.946-.346-1.34-1.752-5.291-18.861-11.459-11.03-3.977-16.545-5.966-24.48-6.135-5.7-.121-14.105-.3-22.038,4.885a30.23,30.23,0,0,0-8.43,7.989c-2.492,3.553-2.632,5.524-5.767,10.8-2.824,4.752-4.237,7.127-5.693,8.062-6.97,4.473-15.082-4.549-27.364-.735a39.7,39.7,0,0,0-5.546,2.59c-12.357,6.339-21.909,11.239-27.952,21.156-4.707,7.725-5.618,15.759-5.987,19.008a96.033,96.033,0,0,0-.441,16.418c.281,3.6.611,4.545-.147,5.473-3.394,4.159-16.015-7.523-27.29-3.471-8.439,3.033-6.376,11.374-16.86,15.978-7.958,3.494-13.259.494-16.565,5.031-2.075,2.849-.663,4.959-3.1,13.609-1.329,4.711-1.994,7.067-2.957,8.136-5.684,6.309-18.835-3.287-41.045-1.1-8.986.883-13.606,3.12-16.566,5.032-1.929,1.245-8.474,5.471-11.313,13.388-1.6,4.463-1.238,9.36-.514,19.154.628,8.494,1.632,11.073-.367,13.682-2.694,3.515-6.478,1.4-11.093,5.179-5.676,4.653-5.836,12.683-5.84,13.535-.021,3.759,1.688,7.167,5.105,13.829,5.5,10.721,8.206,12.479,7.769,16.639-.609,5.784-6.593,9.529-8.5,10.725-12.966,8.117-30.228.3-32.836-.882-6.01-2.721-4.395-3.526-13.462-8.576-10.058-5.6-17.832-9.933-27.143-8.944-3.257.346-9.6,1.65-16.639,7.768a14.091,14.091,0,0,0-2.516-8.282c-3.459-4.8-9.155-5.549-10.8-5.767-11.181-1.481-20.628,8.436-24.995,13.021-6.5,6.819-9.255,13.514-11.46,18.86-2.843,6.9-6.381,15.481-3.324,21.818.4.831,1.391,2.61,2.59,5.546,1.839,4.508,2.759,6.762,2.516,8.283-.909,5.677-15.569,11.608-27.585,7.475-8.13-2.8-7.081-7.461-16.124-11.387-9.439-4.1-18.408-2.415-27.364-.735-11.788,2.212-15.375,6.165-16.639,7.769a17.751,17.751,0,0,0-2.883,5.4c-13.074,1.056-23.281,1.613-30.174,1.928-8.891.406-14.938.532-19.3,4.959-3.973,4.03-2.084,7.095-5.767,10.8-7.329,7.372-22.784,3.244-27.437,2-9.218-2.462-10.669-5.285-18.934-8.724-15.743-6.55-30.652-4.7-38.236-3.765-23.777,2.944-22.221,13.2-38.677,12.653-13.629-.454-17.486-7.583-43.489-12.121-5.907-1.03-10.7-1.534-16.418-.44l-.128.024a17.977,17.977,0,0,0-2.348-3.865,99.93,99.93,0,0,0,5.255-9.8c3.4-7.271,5.1-10.907,4.587-14.191-1.173-7.585-10.572-12.322-13.332-13.713-6.97-3.512-10.853-2.3-14.525-6.784a17.769,17.769,0,0,1-3.536-8.457c-.72-5.791,2.207-8.081.525-11.324-1.893-3.651-6.538-2.553-7.6-5.591-1.324-3.8,5.475-6.817,4.921-11.993-.483-4.512-6.213-7.463-10.464-9.651-6.453-3.322-7.841-1.687-14.191-4.587-8.992-4.106-10.017-9.124-14.86-8.982-3.743.11-6.754,3.213-11.85,10.8a172.251,172.251,0,0,0-15.767,29.386,70.644,70.644,0,0,0-22.267-28.1c1.336.1,12.707.794,19.113-7.407a18.37,18.37,0,0,0,3.392-7.262c.666-.392,10.677-6.5,10.846-17.393.167-10.786-9.453-16.94-11.8-18.443-9.039-5.783-18.569-4.047-20.785-3.583a42.871,42.871,0,0,0-15.864-15.576,43.967,43.967,0,0,0-29.911-4.443A37.962,37.962,0,0,0,610.79,286.6a37.254,37.254,0,0,0-7.932-7.788,18.051,18.051,0,0,0,5.925-5.4c2.621-3.809,5.073-10.666,2.054-16.055-4.346-7.756-17.606-8.144-22.983-3.248-3.612,3.289-1.088,6.614-4.921,11.993-5.153,7.232-12.336,4.9-16.245,11.468-3.688,6.194.473,12.014-2.389,13.857-5.131,3.3-18.673-15.287-28.717-11.371-3.8,1.482-3.8,4.9-8.123,5.734-6.05,1.162-8.584-5.068-14.191-4.587-7.641.656-8.4,12.7-15.91,13.666-5.971.771-7.56-6.579-17.059-8.648-6.426-1.4-15.288-.123-19.446,5.209-2.716,3.481-1.663,6.432-1.051,22.649.433,11.459.213,18.087-.716,24.846-.915,6.663-2.25,15.773-6.45,16.723-2.421.548-3.542-2.126-7.263-3.392-8.5-2.89-21.947,4.489-22.839,12.472-.436,3.9,2.682,7.449,8.936,14.382,10.259,11.373,16.929,13.865,16.2,17.774-1,5.37-14.287,4.386-16.245,11.468-.923,3.336,1.193,6.567,3.871,10.655,5.077,7.752,9.378,7.8,15.864,15.576,4.093,4.906,8.29,9.936,6.737,14.716-1.63,5.02-9.048,8.063-14.716,6.738-2.93-.685-5.138-2.477-10.465-9.651-10.634-14.323-9.6-17.632-14.335-20.307-9.378-5.294-23.1,2.221-26.375,4.015-11.311,6.194-9.436,11.788-19.972,16.532-9.2,4.145-12.381.664-23.842,5.878-6.325,2.878-12.176,5.54-14.048,11.134-2.49,7.443,3.868,14.7.479,17.918-1.309,1.244-2.379.278-6.594,1-5.745.989-7.687,3.46-14.717,6.738a73.113,73.113,0,0,1-10.655,3.871c-11.607,3.063-15.321-2.07-28.31-1.313-4.882.284-15.792.636-23.508,8.075-6.182,5.96-4.708,10.977-11.18,15.195-7.542,4.915-12.891.286-21.645,5.543-4.625,2.778-10.489,8.488-9.317,12.663,1.3,4.617,9.657,1.867,24.918,8.576,8.8,3.867,12.978,7.84,18.922,6.115,3.493-1.014,4.353-3.055,8.457-3.536,5.125-.6,6.957,2.21,11.658,2.723,7.313.8,8.517-5.386,16.915-7.072,9.2-1.847,12.72,4.58,25.515,5.112a41.739,41.739,0,0,0,15.386-2.342c5.643,5.873,13.869,8.139,21.119,5.781,7.886-2.565,11.252-9.508,11.849-10.8,7.778-.036,17.077-1.394,21.311-7.741,3.9-5.854,1.414-12.822,4.586-14.192,4.274-1.845,8.787,10.808,19.925,12.71,9.287,1.585,13.2-6.007,21.98-3.346,6.523,1.978,5.621,6.554,12.662,9.317,7.684,3.016,18.485,1.379,24.09-3.913.73.4,1.468.795,2.224,1.161,9.782,4.731,16.338,3.41,40.452,2.112a37.1,37.1,0,0,0,3.377,3.457c7.748,6.941,22.19,14.04,30.58,8.839,4.478-2.776,4.941-7.635,7.248-12.917a46.531,46.531,0,0,1,5.908.86c12.882,2.677,15.554,6.275,29.806,11.754,6.88,2.645,29.568,11.142,54.508,9.678,16.176-.949,16.916-5.126,38.6-9.916,14.169-3.13,30.667-3.39,63.084-3.783,37.7-.457,56.554-.686,71.147,1.91,11.129,1.98,23.74,5.409,48.961,12.268,22,5.983,30.894,9.046,46.3,9.459a164.448,164.448,0,0,0,30.174-1.929c12.3-2.213,15.555-4.638,24.774-4.811,2.762-.052,11.9-.013,27.217,6.207,22.818,9.266,21.455,16.861,37.722,22.92,23.026,8.577,45.761.813,52.065-1.34a87.635,87.635,0,0,0,27.805-15.684c3.081,5.806,10.437,17.548,24.04,22.553,12.954,4.766,24.958.988,41.193-4.371,23.765-7.845,23.525-13.746,44.37-20.716,21.042-7.035,39.148-6.994,49.475-6.886,18.314.191,31.876,3.348,46.372,6.722,21.277,4.952,21.7,7.468,40.752,12.047,24.176,5.811,43.442,6.554,57.317,7.016,28.18.937,42.27,1.406,54.875-4,7.572-3.249,12.68-7.01,22.112-7.622,14.461-.938,25.474,6.41,29.88,9.018,20.859,12.346,51.055,11.619,79.827,7.257a69.185,69.185,0,0,0,11.942-.438,59.04,59.04,0,0,0,19.111-5.471c5.3-1.167,10.379-2.34,15.141-3.441,15.806-3.655,17.527-5.349,40.75-12.029,2.318,2.649,4.223,5.683,10.193,9.537,5.63,3.633,10.606,6.845,16.272,5.914,6.571-1.08,7.584-6.668,16.786-13.241,2.2-1.573,8.86-6.33,16.639-7.769,12.359-2.286,16.98,5.758,40.752,12.048,10.153,2.687,15.23,4.03,21.817,3.324,15.384-1.648,16.883-10.984,30.468-12.873,11.225-1.562,13.854,4.3,35.353,9.164,6.693,1.513,14.471,2.19,30.027,3.544,28.389,2.472,42.774,3.607,52.064-1.34,4.9-2.607,6.738-4.885,10.611-7.351,12.014-.177,26.765-.527,45.533-.974,10.206-.242,16.98-.462,22.068-.653.485.053.932.112,1.438.163,7.031.718,10.609,1.063,13.682.368a23.038,23.038,0,0,0,3.762-1.2c2.342-.044,5.019-.075,8.378-.092,43.208-.22,64.813-.33,82.092,2.2a220.069,220.069,0,0,0,49.255,1.323c12.663-1.077,20.645-2.911,22.112-7.622,1.727-5.546-6.348-12.6-7.829-13.891.533-.37,1.074-.686,1.6-1.089,8.275-6.317,8.094-10.9,14.123-16.051,11.773-10.065,29.118-6.839,46.665-4.224,0,0,42.156,6.282,81.945,7.677,23.925.839,42.052,1.475,65.821-3.709,17.6-3.838,24.772-7.919,44.076-9.77,11.067-1.062,22.123-.33,43.782,1.175,40.777,2.835,61.165,4.252,62.864,4.427,8.343.855,23.589,2.533,38.456-4.445,8.462-3.97,10.611-7.84,11.24-10.651C2620.527,508.357,2615.64,502.589,2614.04,500.7Z" fill="#c0cfe6"/>
    <path d="M2590.226,528.393c-6.176-3.449-8.6-2.4-10.949-5.475-3.342-4.362.095-8.355-2.738-13.687-2.853-5.37-9.4-7.088-13.687-8.212-9.891-2.6-12.113,1.271-21.9,0-3.874-.5-4.652-1.255-24.636-10.95-16.128-7.823-17.247-8.122-19.162-8.212-7.59-.356-9.605,3.422-27.374,10.95-16.523,7-20.26,6.054-21.9,5.475-4.793-1.694-4.75-4.881-13.687-16.425-5.179-6.689-5.5-6.015-16.424-19.161-10.074-12.123-10.868-13.981-10.949-16.425-.193-5.793,3.765-10.542,10.949-19.161,7.551-9.06,10.447-9.5,10.95-13.687,1.041-8.685-10.215-16.692-13.687-19.162-5.608-3.988-11.379-6.244-19.162-8.212-26.511-6.7-38.716-.558-43.8-8.212-3.6-5.421-1.617-14.739,2.737-19.162,3.032-3.079,5.325-1.867,10.95-5.475,2.628-1.685,10.3-6.606,10.949-13.686.729-7.952-7.813-14.149-10.949-16.425-.8-.58-12.087-8.52-24.637-5.474-4.978,1.208-5.048,2.9-8.212,2.737-8.93-.474-9.745-14.071-19.162-16.424-5.157-1.289-10.738,1.878-21.9,8.212-9.8,5.561-11.823,8.831-16.425,8.212-6.562-.883-6.571-8.088-13.687-10.95-9.686-3.894-25.128,3.237-30.111,13.687-2.216,4.649-2.39,10.4-2.737,21.9-.1,3.42-.06,6.259,0,8.212-1.06-1.913-8.163-14.284-21.9-16.424-9.392-1.463-16.8,2.648-21.9,5.475-3.466,1.923-11.683,6.627-16.425,16.424a33.938,33.938,0,0,0-2.737,8.212c-7.868-7.984-18.537-11.364-27.374-8.212-7.874,2.809-11.641,9.858-13.687,13.687-1.136,2.127-7.974,14.923-2.737,24.637,3.011,5.584,7.837,6.115,8.212,10.949.333,4.3-3.378,5.21-5.475,10.95-3.7,10.114,4.011,17.732,0,21.9-1.841,1.913-3.586.431-13.687,2.737-4.573,1.044-6.86,1.566-8.212,2.737-5.65,4.9-1.226,18.4,0,21.9-.989-1.852-5.865-10.509-16.424-13.687-.764-.23-12.219-3.492-21.9,2.737-8.445,5.434-8.981,13.872-13.687,13.687-3.79-.15-4-5.645-10.95-10.95-1.922-1.468-9.375-7.162-16.424-5.474-3.128.748-4.643,2.584-16.424,19.161-6.994,9.841-7.1,10.09-8.212,10.95-7.994,6.16-14.024,2.109-24.637,8.212-3.646,2.1-8.866,5.1-10.949,10.95-3.575,10.038,4.752,20.975,5.474,21.9,4.052,5.175,8,6.553,9.852,8.483a54.077,54.077,0,0,1-8.052,1.838c-2.647-3.381-4.321-7.329-9.747-11.17a30,30,0,0,0-6.737-3.554c-.574-.868-1.18-1.77-1.861-2.751-4.824-6.95-5.18-6.294-15.4-19.991-9.429-12.631-10.126-14.527-10.08-16.972.109-5.795,4.31-10.332,11.932-18.565,8.013-8.655,10.927-8.94,11.648-13.1,1.492-8.619-9.332-17.2-12.671-19.848-5.392-4.275-11.038-6.828-18.708-9.2-26.126-8.075-38.634-2.573-43.311-10.481-3.313-5.6-.848-14.8,3.731-18.993,3.188-2.917,5.415-1.588,11.22-4.9,2.712-1.547,10.63-6.061,11.647-13.1,1.141-7.9-7.066-14.536-10.08-16.972-.769-.621-11.626-9.138-24.318-6.75-5.034.948-5.193,2.639-8.343,2.306-8.894-.938-9-14.558-18.281-17.4-5.083-1.556-10.821,1.316-22.3,7.061-10.076,5.044-12.266,8.2-16.829,7.346-6.508-1.224-6.141-8.42-13.1-11.648-9.47-4.393-25.262,1.925-30.782,12.1-2.456,4.526-2.929,10.26-3.874,21.727-.282,3.409-.386,6.247-.428,8.2-.958-1.967-7.408-14.69-21.014-17.542-9.3-1.951-16.918,1.769-22.154,4.327-3.562,1.739-12.013,6.01-17.258,15.547a33.36,33.36,0,0,0-1.571,3.272c-1.056,1.018-2.01,1.737-3.447,1.634-5.288-.379-8.6-11.221-10.95-19.161-2.383-8.056-3.878-16.083-5.475-30.112-2.259-19.853-1.524-23.639-5.474-27.374-6.05-5.719-17.074-5.631-24.637-2.737-11.178,4.277-11.751,13.519-19.161,13.687-9.318.211-12.477-14.3-21.9-13.687-6.914.453-8.844,8.506-16.424,8.212-5.409-.21-6.047-4.375-10.949-5.475-12.951-2.905-25.991,22.234-32.849,19.162-3.826-1.713.161-9.568-5.475-16.424-5.974-7.267-14.287-3.1-21.9-10.95-5.662-5.837-3.206-10.352-8.212-13.687-7.452-4.963-23.521-2.034-27.374,8.213-2.677,7.118,1.579,15.011,5.475,19.161a22.237,22.237,0,0,0,8.212,5.475,45.828,45.828,0,0,0-8.212,10.95,46.739,46.739,0,0,0-5.475,21.9c-4.59-.239-20.84-.519-35.586,10.949a52.809,52.809,0,0,0-16.424,21.9c-2.783-.154-14.7-.5-24.636,8.212-2.582,2.265-13.152,11.539-10.95,24.637,2.224,13.232,15.541,18.808,16.424,19.162a22.626,22.626,0,0,0,5.475,8.212c9.317,8.8,23.03,5.846,24.637,5.474a86.973,86.973,0,0,0-21.9,38.324,212.131,212.131,0,0,0-24.637-32.849c-7.608-8.29-11.848-11.509-16.424-10.949-5.922.724-6.24,7.023-16.424,13.686-7.193,4.706-9.186,2.973-16.425,8.213-4.769,3.451-11.2,8.1-10.949,13.687.284,6.4,9.121,8.82,8.212,13.686-.728,3.894-6.584,3.418-8.212,8.213-1.447,4.259,2.541,6.5,2.737,13.687a21.878,21.878,0,0,1-2.737,10.949c-3.639,6.143-8.591,5.382-16.425,10.949-2.275,1.618-8.56,6.089-11.759,12.086-1.049-1.349-2.159-2.836-3.339-4.491-6.29-8.817-4.7-8.458-7.631-11.362-9.576-9.5-22.686-9.5-24.176-9.484a34.87,34.87,0,0,0-16.687,4.612c.708-2.88,3.558-15.836-4.042-27.622a32.381,32.381,0,0,0-7.428-8.049,6.912,6.912,0,0,0,.518-2.884c-.187-3.805-3.955-7.007-4.911-7.818-4.93-4.189-8.859-2.418-12.423-6.589a14.684,14.684,0,0,1-3.07-7.665c-.677-4.71,1.116-6.19.762-9.2-.709-6.048-9.344-12.019-17.486-12.566-9.936-.667-12.147,7.214-20.852,5.683-8.859-1.559-14.879-11.187-15.646-12.414-3.2-5.125-1.872-6.627-4.758-9.658-5.16-5.422-14.979-6.461-21.929-3.671-1.421.571-4.882,3.142-11.8,8.286-5.194-7.666-5.643-8.171-6.6-9.811a44.46,44.46,0,0,1-5.836-19.012c-.431-7.127,1.585-6.909,1.221-14.721a41.363,41.363,0,0,0-4.148-17.019c-4.021-7.974-7.465-7.326-8.285-11.8-1.911-10.425,15.743-19.448,13.176-24.847-1.4-2.936-6.672-.392-14.416-4.9-5.107-2.973-8.163-7.194-10.279-10.116-5.227-7.22-3.221-8.891-6.445-11.651-7.63-6.532-18.878,2.812-27.45-4.128-1.742-1.41-2.962-3.161-8.59-8.123-2.877-2.537-4.333-3.811-5.216-4.138-6.241-2.31-10.306,5.275-17.019,4.148-5.052-.849-4.586-5.454-13.806-12.261a41.364,41.364,0,0,0-12.423-6.589c-4.34-1.37-13.927-4.4-20.394.163-5.111,3.605-3.588,8.646-8.276,10.43-2.5.953-6.559-.372-14.569-3.06-7.513-2.522-8.721-3.482-10.888-2.755-4.17,1.4-6.913,7.377-6.588,12.423.5,7.8,8.327,13.4,11.661,15.789,5.213,3.734,8.743,4.2,8.743,6.283,0,2.874-6.741,5.481-11.651,6.446-7.971,1.566-10.1-1.4-16.714.467-1.211.341-8.162,2.3-11.8,8.285-1.419,2.332-1.3,3.576-3.213,16.409-1.287,8.64-1.587,9.733-2.756,10.889-1.229,1.215-2.938,2.023-15.026,2.46-8.712.314-9.706-.038-13.034.772-4.007.975-8.863,2.157-11.651,6.446-3.267,5.025-1.577,11.061-1.067,12.881,1.66,5.929,5.98,9.759,8.285,11.8,3.294,2.921,3.942,2.3,5.216,4.138,3.928,5.681,0,14.845-1.526,18.4-3.5,8.156-6.551,8.394-8.581,14.112-1.468,4.138-2.233,10.676,2,20.546a47.53,47.53,0,0,0-25.457-5.816,14.623,14.623,0,0,0,7.971-6.75c.289-.544,3-5.837.915-11.041-2.52-6.283-8.888-4.584-13.806-12.261-.834-1.3-3.934-6.14-2.765-11.346.665-2.961,2.009-2.914,2.3-5.368.512-4.346-3.246-8.388-8.133-13.644-3.818-4.106-4.822-4.22-5.062-5.978-.534-3.907,4.152-5.384,6.588-12.423.813-2.351,1.979-5.72.762-9.2-2.239-6.407-10.778-8.127-12.271-8.428a21.039,21.039,0,0,0-11.193.925,21.263,21.263,0,0,0-9.811,6.6c-1.781,2.206-2.669,4.436-4.443,8.9a74.528,74.528,0,0,0-2.45,7.208c-1.364-6.762-4.145-9.971-6.445-11.651-1.529-1.117-2.7-1.45-14.264-6.741a10.118,10.118,0,0,1-3.528-2.145c-2.777-2.926-1.413-6.294-2.765-11.346-.5-1.862-2.047-7.648-6.6-9.811-4.335-2.06-10.014-.177-13.186,2.613-3.2,2.818-5.289,7.827-6.435,10.583-.705,1.693-1.007,2.741-2.146,3.528-2.059,1.422-4.611.437-9.2-.763-9.526-2.492-9.484-1.116-12.729-2.908-5.306-2.93-3.852-5.743-8.59-8.123-6.428-3.228-14-.509-16.714.467-2.332.838-4.106,1.5-5.826,3.223-3.238,3.248-4.794,8.78-2.908,12.728a13.548,13.548,0,0,0,3.375,3.986c3.126,2.91,5.335,3.374,5.216,4.138-.283,1.8-12.508-1.492-17.019,4.147-1.713,2.141-2.124,5.334-2.6,9.049-.638,4.95.41,5.657-.61,7.36-1.891,3.16-6.25,1.985-15.179,4.3-5.265,1.365-8.3,2.152-11.5,4.606-6.018,4.615-7.874,11.49-8.581,14.111-.859,3.181-1.6,5.907-.763,9.2.623,2.464,1.589,3.134,3.071,7.666a23.129,23.129,0,0,1,1.382,5.673c.272,3.2-.574,3.728-.61,7.361a17.114,17.114,0,0,0,1.23,7.513,14.486,14.486,0,0,0,5.063,5.978c-7.941,4.31-12.393,3.845-15.026,2.46-3.757-1.976-3.3-5.556-8.438-9.964-2.071-1.777-7.13-6.121-12.576-4.748-5.5,1.388-7.814,7.7-8.124,8.591a15.057,15.057,0,0,0-.61,7.361,11.3,11.3,0,0,0-5.368-2.3c-6.658-.854-12.848,5.245-15.636,9.82-1.6,2.618-2.843,5.994-4.6,10.736-1.256,3.4-1.353,4.16-2.3,5.368-.713.913-3.27,3.824-11.5,4.6-9.1.865-10.4-2.281-18.4-1.525a32.321,32.321,0,0,0-13.339,4.453,31.471,31.471,0,0,0-12.108,11.966,29.053,29.053,0,0,0-2.3,5.368,25.617,25.617,0,0,0-7.056-4.291c-2.255-.909-8.009-3.229-14.721-1.22a19.872,19.872,0,0,0-9.811,6.6c-2.834,3.682-1.85,5.539-4.29,7.056-3.528,2.193-8.847.338-12.881-1.068-2.98-1.039-2.812-1.437-5.368-2.3a26.587,26.587,0,0,0-12.881-1.068c-5.9,1.21-7.386,5.478-13.949,11.814-12.055,11.637-21.511,11.208-21.767,16.723-.241,5.217,8.007,10.172,13.806,12.261,16.7,6.018,36.2-3.407,41.246-5.845,7.755-3.748,12.539-7.679,21-7.523a35.007,35.007,0,0,1,12.729,2.908c7.049,3.069,6.454,5.583,12.271,8.429,8.3,4.062,17.838,3.009,25.762,2.135,6.623-.731,7.615-1.737,11.193-.925,7.453,1.692,12.247,8.124,13.959,10.421,4.564,6.124,2.835,8.027,6.445,11.651,6.014,6.037,15.608,5.569,19.937,5.358a38.448,38.448,0,0,0,21-7.523c5.369-4.125,5.251-6.619,9.963-8.438a19.865,19.865,0,0,1,16.562,1.373c4.827,2.826,4,5.547,10.278,10.116,3.654,2.659,6.885,5.009,10.736,4.6,4.466-.48,5.359-4.205,11.8-8.285,1.542-.977,6.206-3.929,11.5-4.606,8.41-1.074,11.219,4.518,26.992,9.649,6.737,2.192,10.1,3.288,14.568,3.06,10.423-.53,11.785-6.761,21-7.523,7.618-.629,9.168,3.421,23.464,7.5,4.451,1.271,9.663,2.02,20.089,3.518,19.027,2.734,28.672,4.04,35.116,1.058,4.784-2.215,5.406-4.215,11.651-6.446a43.114,43.114,0,0,1,16.866-2.307c9.258.543,11.223,3.553,25.457,5.815,1.119.178,2.1.333,2.985.463a6.075,6.075,0,0,0-.152,1.3c.018,7.814,15.074,13.486,18.423,14.666,11.808,4.163,19.123,2.226,49.349-.168,17.688-1.4,26.66-2.08,32.946-1.023,3.374.566,8.659,1.683,34.968,12.787,24.73,10.438,22.924,10.66,29.5,12.5a97.855,97.855,0,0,0,43.739,2.281c16.629-3.237,15.573-8.325,30.783-12.1,12.546-3.114,23.142-2.1,60,5.869,33.861,7.325,30.911,7.768,46.045,10.624,30.826,5.816,58.155,10.973,90.211,4.7,5.753-1.125,10.227-2.336,14.605-3.4,1.583.908,3.132,1.739,4.668,2.558,8.573,4.57,12.859,6.855,16.424,5.475,4.54-1.759,4.563-7.035,7.621-10.916,9.358.4,18.536,2.053,33.51,4.806,33.681,6.192,12.294,25.744,22.361,23.923,11.087-2,48.7,8.275,75.921-2.658,8.225-3.3,18.686-10.746,24.667-14.084a45.581,45.581,0,0,0,16.587,4.4c1.041.077,20.624,1.266,28.874-9.171a86.313,86.313,0,0,0,16.028-2.3,55.522,55.522,0,0,0,8.551-2.79c3.7.848,6.556,1.438,9.171,1.854,2.222,4.168,4.177,7.8,8.548,9.668,9.25,3.954,21.981-3.118,30.714-11.277,2.105-.42,3.94-.824,5.463-1.145,10.45-2.2,26.85-2.881,53.106-2.864,9.243,1.782,11.6,2.5,21.316,3.816,31.087,4.2,58.647,7.93,90.334,0,13.74-3.439,20.005-7,35.586-8.212,12.342-.956,22.083.262,41.061,2.737,33.957,4.43,33.839,7.817,43.8,5.475,10.967-2.579,11.7-6.826,38.324-19.161,9.171-4.25,14.136-6.55,18.1-7.872,8.477.032,15.488.668,18.77,1.012,8.589.9,12.138,1.935,19.136,1a35.276,35.276,0,0,0,7.108-1.635c7.481,1.2,16.387,2.766,27.222,4.759,24,4.414,28.466,5.561,38.324,5.475,16.875-.147,29.019-3.728,35.586-5.475,16.8-4.47,49.526-5.717,114.97-8.212,40.253-1.534,46.416-.769,60.222-5.475,13.7-4.67,21.762-10.24,41.061-13.687a205.858,205.858,0,0,1,32.848-2.737c23.032-.449,25.417,2.443,38.324,0,15.364-2.908,12.983-7.194,30.111-10.95,16.829-3.689,35.086-3.05,41.061-2.737,8.624.452,12.222,1.3,19.161,0,10.786-2.021,11.524-5.838,21.9-8.212,5.246-1.2,12.622-.8,27.374,0,13.074.709,15.908,1.493,21.9,0,5.861-1.461,16.3-5.488,16.425-10.95C2601.288,534.569,2593.492,530.217,2590.226,528.393Z" fill="#8ab1d2"/>
    <path d="M2363.991,602.931c-11.63-4.778-17.283,1.847-27.374-2.738-8.66-3.935-7.8-10.315-16.424-16.424-10.772-7.626-24.116-6.033-30.111-5.475-15.951,1.486-19.521,8.423-34.218,6.844a90.058,90.058,0,0,1-13.686-2.738c-9.164-2.688-11.986-5.335-19.162-5.474-5.266-.1-6.389,1.271-8.212,0-4.722-3.294,1.672-13.3-2.738-21.9-3.314-6.463-10.93-8.619-19.161-10.95-14.918-4.224-18.141.6-30.112-2.737-13.7-3.824-12.457-10.98-27.373-16.425-4.319-1.576-22.414-8.181-32.849,0-5.272,4.134-3.395,7.97-13.687,27.374-5.155,9.72-7.51,12.311-10.949,13.687-6.654,2.663-16.248.333-19.162-5.475-2.776-5.531,1.4-12.432,5.475-19.161,6.454-10.664,11.68-11.523,16.424-21.9,2.5-5.472,4.479-9.8,2.737-13.687-3.7-8.258-19.682-4.6-21.9-10.95-1.613-4.622,6.043-8.891,16.425-24.636,6.327-9.6,9.465-14.491,8.212-19.162-2.564-9.551-20.3-16.042-30.111-10.949-4.3,2.23-5.164,5.693-8.213,5.474-5.287-.378-8.6-11.221-10.949-19.161-2.383-8.056-3.878-16.083-5.475-30.112-2.259-19.853-1.524-23.639-5.475-27.373-6.05-5.72-17.073-5.632-24.636-2.738-11.179,4.277-11.751,13.519-19.162,13.687-9.317.211-12.476-14.3-21.9-13.687-6.914.453-8.844,8.507-16.424,8.212-5.409-.21-6.047-4.375-10.95-5.474-12.95-2.906-25.99,22.233-32.848,19.161-3.826-1.713.161-9.568-5.475-16.424-5.975-7.267-14.287-3.1-21.9-10.95-5.662-5.837-3.206-10.352-8.212-13.686-7.452-4.964-23.521-2.034-27.374,8.212-2.677,7.118,1.579,15.011,5.475,19.161a22.229,22.229,0,0,0,8.212,5.475,45.828,45.828,0,0,0-8.212,10.95,46.739,46.739,0,0,0-5.475,21.9c-4.59-.239-20.841-.519-35.586,10.949a52.8,52.8,0,0,0-16.424,21.9c-2.784-.153-14.705-.5-24.637,8.212-2.391,2.1-11.63,10.214-11.229,21.809-4.541-1.016-4.217-6.1-9.113-8.494-6.709-3.279-18.094,1.011-22.189,8.209-1.821,3.2-2.242,7.3-3.084,15.482-.25,2.434-.365,4.462-.424,5.858-.657-1.42-5.086-10.611-14.775-12.848-6.624-1.529-12.124,1.021-15.9,2.775a27.053,27.053,0,0,0-12.566,10.869,24.286,24.286,0,0,0-2.377,5.717c-5.2-6.1-12.637-9.064-19.1-7.272-5.763,1.6-8.814,6.431-10.471,9.058-.921,1.458-6.46,10.234-3.225,17.434,1.859,4.139,5.275,4.768,5.292,8.236.016,3.082-2.678,3.542-4.471,7.528-3.158,7.025,1.946,12.858-1.131,15.623-1.412,1.27-2.58.123-9.9,1.246-3.317.509-4.975.763-6,1.529-4.284,3.2-1.825,13.062-1.131,15.623a20.378,20.378,0,0,0-11.011-10.612c-.532-.2-8.537-3.122-15.764.821-6.305,3.441-7.123,9.433-10.471,9.058-2.7-.3-2.566-4.234-7.246-8.377-1.3-1.147-6.319-5.594-11.435-4.754-2.27.373-3.445,1.6-12.706,12.822-5.5,6.659-5.583,6.831-6.424,7.387-6.021,3.982-10.114.781-18,4.587-2.71,1.307-6.589,3.179-8.377,7.246-3.069,6.977,2.307,15.209,2.774,15.9,3.557,5.291,7.347,5.588,7.246,8.377-.148,4.127-8.64,8.925-14.235,6.822-4.008-1.506-4.087-5.636-7.387-6.424-2.517-.6-6.368.87-12.425,8.916-6.919-2.359-17.549-4.686-29.293-2.12-7.368,1.61-14.021,3.063-20.235,8.35-3.015,2.566-4.836,5.106-8.236,5.294-3.953.218-4.708-3.039-11.293-6.707-7.737-4.311-16.077-5.042-19.246-5.32-4.088-.358-3.983.137-5.858-.424-2.049-.613-5.679-2.254-12.822-12.707-4.371-6.4-3.241-6.116-5.293-8.235-6.711-6.928-16.086-7.125-17.152-7.131a24.945,24.945,0,0,0-12,3.057c.547-2.049,2.772-11.273-2.492-19.811a24.329,24.329,0,0,0-9.2-8.518c-5.753-3.173-11.02-3.233-17.434-3.225a73.46,73.46,0,0,0-27.906,5.832c-5.38,2.347-5.531,3.244-8.094,3.34-7.859.3-10.11-8-20.775-11.319-2.394-.746-9.84-3.063-15.764.822a15.994,15.994,0,0,0-6.707,11.293c-.677,6.1,3.006,8.658,1.105,11.858-1.44,2.423-3.7,1.2-10.189,5.152-4.135,2.515-5.631,4.475-6.283,5.435a15.058,15.058,0,0,0-.949,1.6,15.774,15.774,0,0,0-3.974-1.577,17.615,17.615,0,0,0,3.887-8.649c.378-2.623.834-5.788-.958-8.074-2.858-3.646-8.855-1.759-10.455-5.31-.6-1.332.177-1.742-.384-3.23-1.159-3.077-5.389-3.71-10.455-5.31-8.656-2.734-7.278-4.349-12.07-5.119-8.193-1.315-10.375,3.7-17.764,2.107-4.469-.964-9.842-4.131-10.839-8.54-.63-2.788,1.012-3.764,2.081-10.072a33.325,33.325,0,0,0,.465-9.881c-.325-2.28-1.585-7.954-8.183-13.768,7.526-7.387,6.862-12.41,6.542-13.876-.666-3.045-3.157-5.883-5.994-9.115-3.609-4.111-5.67-4.983-5.8-7.5-.166-3.17,2.978-4.216,2.464-6.842-.333-1.7-1.819-2.132-7.226-5.694-4.317-2.843-6.491-4.294-7.226-5.693-1.908-3.632.66-5.874-1.149-9.689-1.468-3.1-4.508-4.467-7.226-5.694a23.89,23.89,0,0,0-13.3-1.7c-.431-2.864-1.756-8.391-6.377-12.345-6.012-5.143-14.18-4.694-16.915-4.543-5.07.279-6.033,1.708-11.3,1.34-3.374-.235-7.512-.523-10.264-3.695a12.084,12.084,0,0,1-2.573-7.883,14.811,14.811,0,0,1,1.04-5.036c1.323-3.53,2.677-3.53,2.655-5.228-.026-2.011-1.933-2.424-5.8-7.5a11.564,11.564,0,0,1-2-3.039c-.885-3.457,2.715-5.433,3.7-10.264.648-3.191-.215-5.816-.957-8.074a19.331,19.331,0,0,0-7.8-10.538c-6.867-4.278-14.5-1.939-16.532-1.314-9.725,2.983-14,11.529-14.808,13.22-1.754-5.276-6.26-8.7-10.838-8.54a9.873,9.873,0,0,0-7.692,4.187c-2.538,3.832.166,6.823-2.08,10.073-2.4,3.475-8.415,4.279-12.728,3.147-5.581-1.465-5.4-5.407-10.647-6.925-5.43-1.572-11.969.814-15.765,5.145-1.024,1.167-4.353,4.965-3.7,10.264a12.591,12.591,0,0,0,4.188,7.691c-2.045,1.6-10.218,8.28-12.619,17.873a21.529,21.529,0,0,0-.465,9.881,20.421,20.421,0,0,0,2.381,6.268c-9.265.815-14.292,4.054-17.189,6.952-5.032,5.032-4.386,9.782-9.963,12.645-4.615,2.369-7.069.15-12.728,3.147-2.179,1.154-6.406,3.392-7.308,7.417-1.084,4.837,3.069,10.306,4.762,12.536,2.231,2.939,3.8,3.734,4,6.077.216,2.59-1.581,3.089-2.463,6.842a14.546,14.546,0,0,0,1.149,9.69,13.39,13.39,0,0,0,3.8,4.461,179.358,179.358,0,0,0-18.074,8.622c-3.864-1.193-10.865-2.7-15.3.775-2.822,2.213-1.817,4.267-7.327,14.655-2.76,5.2-4.021,6.591-5.862,7.327-3.562,1.426-8.7.179-10.258-2.931-1.486-2.961.75-6.655,2.931-10.258,3.455-5.709,6.253-6.169,8.793-11.724,1.339-2.929,2.4-5.244,1.465-7.327-1.978-4.421-10.537-2.462-11.724-5.862-.863-2.475,3.235-4.76,8.793-13.189,3.388-5.138,5.068-7.758,4.4-10.259-1.372-5.113-10.87-8.588-16.12-5.862-2.3,1.194-2.764,3.048-4.4,2.931-2.831-.2-4.605-6.007-5.862-10.258a89.124,89.124,0,0,1-2.931-16.12c-1.21-10.629-.816-12.656-2.931-14.655-3.239-3.062-9.14-3.015-13.189-1.465-5.985,2.289-6.291,7.237-10.259,7.327-4.988.113-6.679-7.658-11.723-7.327-3.7.242-4.736,4.553-8.793,4.4-2.9-.113-3.238-2.342-5.862-2.931-6.934-1.555-13.915,11.9-17.586,10.258-2.048-.917.087-5.122-2.931-8.793-3.2-3.89-7.649-1.66-11.724-5.861-3.031-3.126-1.716-5.543-4.4-7.328-3.99-2.657-12.592-1.089-14.655,4.4-1.433,3.81.845,8.036,2.931,10.258a11.906,11.906,0,0,0,4.4,2.931,24.543,24.543,0,0,0-4.4,5.862,25.028,25.028,0,0,0-2.931,11.724,28.983,28.983,0,0,0-19.051,5.862,28.256,28.256,0,0,0-8.793,11.723,18.781,18.781,0,0,0-13.189,4.4c-1.382,1.212-7.041,6.177-5.862,13.189,1.19,7.084,8.319,10.069,8.793,10.259a12.107,12.107,0,0,0,2.931,4.4c4.987,4.709,12.329,3.13,13.189,2.931a46.561,46.561,0,0,0-11.724,20.517,113.521,113.521,0,0,0-13.189-17.586c-4.073-4.438-6.343-6.162-8.793-5.862-3.17.388-3.341,3.76-8.793,7.327-3.85,2.52-4.917,1.592-8.793,4.4-2.553,1.848-6,4.339-5.862,7.327.153,3.428,4.883,4.722,4.4,7.327-.39,2.085-3.525,1.83-4.4,4.4-.774,2.28,1.361,3.482,1.466,7.327a11.719,11.719,0,0,1-1.466,5.862c-1.948,3.289-4.6,2.882-8.793,5.862-1.66,1.18-7.315,5.2-7.327,10.258,0,2.191,1.462,4.392,4.4,8.793a65.978,65.978,0,0,0,4.4,5.862,10.383,10.383,0,0,0-1.466,5.862c.3,4.033,3.288,6.682,7.328,10.258a41.282,41.282,0,0,0,8.793,5.862c4.589,2.447,6.884,3.67,8.792,2.931,3.1-1.2,2.258-5.455,5.862-7.327,1.874-.973,3.692-.649,7.328,0,6.977,1.245,8.364,3.944,11.724,2.931,2.673-.806,3.148-2.924,5.862-2.931,2.14,0,2.311,1.31,4.4,1.466,3.028.225,4.184-2.438,8.793-4.4a20.671,20.671,0,0,1,5.862-1.466c7.21-.6,9.865,4.293,13.189,2.931,4.469-1.83,1.67-11.5,7.327-14.654a7.462,7.462,0,0,1,7.328,0c4.716,3.168-.468,11.681,4.4,19.051,4.338,6.572,13.364,7.233,14.655,7.327.587.043,12.2.753,16.12-5.862,2.487-4.2.263-8.631,2.931-10.258,2.293-1.4,5.921.665,7.328,1.465,7.669,4.364,6.628,11.012,11.723,13.19,5.984,2.557,14.691-3.5,19.052-8.793a26.764,26.764,0,0,0,5.861-16.12,38.244,38.244,0,0,0,11.724,0c2.265-.365,3.984-.873,5.862,0,2.606,1.211,2.405,3.63,4.4,5.862,2.48,2.779,7.118,3.869,11.516,3.369a13.564,13.564,0,0,0,.55,7.527c2.592,7.044,10.5,8.484,10.838,8.54-.638.808-5.379,6.991-3.312,13.494,2.587,8.136,13.579,9.685,14.26,9.771,7.491.947,9.694-3.456,17.764-2.107,5.868.982,5.282,3.408,10.264,3.7,7.407.428,10.085-4.854,17.572-3.722,1.049.158,2.98.927,6.843,2.463,8.279,3.294,8.3,4.3,12.07,5.119,2.421.523,8.224,1.778,12.919-1.533a12.738,12.738,0,0,0,4.27-5.419c6.748.9,11.429-.339,14.534-1.724,4.825-2.152,7.389-5.357,13.959-6.569,4.983-.918,6.3.411,6.651.849,1.161,1.44-.119,3.121.575,4.845,1.371,3.4,9.5,4.614,16.723,2.929,11.136-2.6,16.057-11.109,20.228-8.95,2.5,1.3,1.307,4.668,4,6.076,3.388,1.775,7.562-2.387,17.189-6.951a66.2,66.2,0,0,1,12.536-4.762c.754-.19,1.559-.366,2.384-.533,2.312,4.366,10.314,7.56,12.333,8.318a28.786,28.786,0,0,0,9.459,1.92c.552,2.52,1.65,6.475,4.152,8.223,3.317,2.317,7.551-.331,12.919-1.532,11.232-2.515,21.657,2.589,32.024,7.664,11.626,5.692,12.447,9.652,20.911,10.621,2.123.243,10.729,1.228,17.572-3.722,2.8-2.025,2.839-3.257,4.748-4.8a28.746,28.746,0,0,0,2.821.979,69.988,69.988,0,0,0,31.246,2.262c11.939-2.074,11.257-5.729,22.189-8.209,9.017-2.046,16.579-1.171,42.821,5.063,24.109,5.726,21.993,6,32.775,8.261,21.961,4.605,41.43,8.687,64.445,4.666,9.98-1.744,14.634-3.964,25.811-4.021,8.855-.045,15.741,1.327,29.152,4.073,24,4.914,23.737,7.324,30.963,6.168,7.957-1.274,8.7-4.265,28.33-11.691,7.379-2.792,11.068-4.188,14.094-4.869,9.541-2.149,17.377-1.021,50.492,7.581,16.893,4.389,20.02,5.437,27.057,5.885a94.433,94.433,0,0,0,25.67-2.068c8.248-1.567,21.607-1.71,43.806-1.147,2.134,2.277,4.717,4.566,7.586,7.106a77.241,77.241,0,0,0,16.424,10.95c8.574,4.57,12.86,6.855,16.425,5.475,5.78-2.239,4.216-10.19,10.949-13.687,3.5-1.818,6.895-1.212,13.687,0,13.033,2.325,15.624,7.367,21.9,5.475,4.994-1.507,5.88-5.462,10.95-5.475,4-.011,4.317,2.447,8.212,2.737,5.656.421,7.816-4.553,16.424-8.212a38.527,38.527,0,0,1,10.95-2.738c13.468-1.129,18.428,8.018,24.636,5.475,4.177-1.71,4.955-7.089,6.014-12.773,9.647-1.376,8.811-4.363,20.691-6.08,1.54-.223,3.091-.394,4.636-.524.646,7.552-2.032,18.079,4.245,27.59,8.1,12.275,24.962,13.51,27.374,13.686,1.1.081,22.793,1.407,30.111-10.949,4.645-7.843.491-16.122,5.475-19.162,4.283-2.612,11.06,1.243,13.687,2.737,14.326,8.151,12.381,20.568,21.9,24.637,11.176,4.777,27.44-6.54,35.586-16.424,9.729-11.806,10.8-25.111,10.949-30.112a71.379,71.379,0,0,0,21.9,0c4.231-.681,7.44-1.63,10.95,0,4.866,2.262,4.492,6.781,8.212,10.95,6.928,7.764,22.883,8.51,32.849,2.737,8.058-4.667,6.112-10.07,13.686-13.687,10.192-4.866,16.363,3.651,27.374,0,13.205-4.378,16.355-20.616,21.9-19.161,4.115,1.08,2.375,10.022,8.212,16.424,6.33,6.942,17.9,6.872,27.374,5.475.967,1.461,6.35,9.288,16.425,10.949,9.261,1.528,18.854-2.755,24.636-10.949a51.376,51.376,0,0,0,19.162,0c15.475-3.018,18.569-11.494,30.111-10.95,10.534.5,13.146,7.8,21.9,5.475,5.627-1.5,7.337-5.257,13.687-5.475,5.084-.174,6.509,2.151,10.949,2.738,7.555,1,11.909-4.613,21.9-10.95,17.334-10.994,28.021-9.2,28.743-15.055C2378.331,611.319,2370.135,605.455,2363.991,602.931Z" fill="#5081a9"/>
  </g>
</svg>
