<svg xmlns="http://www.w3.org/2000/svg" xmlns:xlink="http://www.w3.org/1999/xlink" width="212.888" height="179.069" viewBox="0 0 212.888 179.069">
  <defs>
    <linearGradient id="a" y1="89.535" x2="212.888" y2="89.535" gradientUnits="userSpaceOnUse">
      <stop offset="0" stop-color="#65bad7"/>
      <stop offset="1" stop-color="#c3faf5"/>
    </linearGradient>
  </defs>
  <title>CaveShrub_20</title>
  <path d="M190.341,90.313a34.715,34.715,0,0,1,6.837,4.337c7.535,1.793,15.009,5.112,15.009,11.219,0,12.313-30.178,3.449-30.178,3.449s8.993,5.909,5.173,9.73a3.931,3.931,0,0,1-4.338.661c-1.61,4.246-8.066,3.182-10.527,2.6,3.532,1.01,15.776,5.271,18.07,16.468,1.914,9.388-7.512,9.365-14.721,4.6-3.623,2.552-11.082.4-11.507.281.365.334,8.917,8.173.463,13.566-4.633,2.954-9.677-.889-13.353-5.09a8.612,8.612,0,0,1-.517,4.224c-2.878,7.193-10.489,1.147-15.221-3.654a6,6,0,0,1-3.5.35c.608,8.575.532,25.582-9.761,24.838-7-.509-8.757-8.363-8.8-15.951a15.273,15.273,0,0,1-5.8-3.494,20.173,20.173,0,0,1-4.086,3.342,2.912,2.912,0,0,1-.684.44,1.694,1.694,0,0,1-.395.137,9.017,9.017,0,0,1-9.221-.539,7.257,7.257,0,0,1-3.266-3.722c-1.36,8.925-4.618,20.956-12.366,20.956-12.32,0-3.448-30.178-3.448-30.178s-5.91,8.986-9.73,5.173c-1.823-1.823-.9-4.489.577-6.775a10.163,10.163,0,0,1-.631-4.6,3.81,3.81,0,0,1-.554-.334c-2,5.036-6.51,13.1-15.381,14.9-5.8,1.185-8-1.96-7.71-6.244a7.166,7.166,0,0,1-2.8-.326c-5.986-1.9-2.568-13.194-2.568-13.194s-8.066,9.115-13.573.471,12.624-18.7,12.624-18.7a44.664,44.664,0,0,1-3.517-3.5,18.584,18.584,0,0,1-4.459.335c-13.429-.616-11.7-10.224-1.845-17.736,0,0-6.13,2.468-7.809-1.109s7.064-11.948,13.6-11.948c0,0-30.428-.98-30.428-13.3s30.178-3.449,30.178-3.449-8.993-5.909-5.173-9.73c1.421-1.413,3.342-1.17,5.2-.3,1.907-2.051,5.591-1.906,8.082-1.5a1.556,1.556,0,0,1,.327-.076c-4.565-1.511-14.751-5.97-16.81-16.08-2.332-11.409,12.1-8.91,18.944-.9a7.366,7.366,0,0,1,.342-1.99c1.9-5.986,13.2-2.568,13.2-2.568s-9.115-8.066-.478-13.573c4.633-2.955,9.677.888,13.353,5.089a8.608,8.608,0,0,1,.517-4.223c2.878-7.194,10.489-1.147,15.221,3.653a6,6,0,0,1,3.5-.349C85.8,17.432,85.877.425,96.17,1.17c7,.509,8.757,8.363,8.8,15.951a15.248,15.248,0,0,1,5.8,3.494,20.173,20.173,0,0,1,4.086-3.342,2.968,2.968,0,0,1,.684-.441,1.741,1.741,0,0,1,.395-.137,9.015,9.015,0,0,1,9.221.54,7.25,7.25,0,0,1,3.266,3.722C129.781,12.032,133.039,0,140.787,0c12.32,0,3.448,30.178,3.448,30.178s5.91-8.986,9.73-5.173c1.823,1.823.9,4.489-.577,6.776a10.157,10.157,0,0,1,.631,4.595,3.81,3.81,0,0,1,.554.334c2-5.036,6.51-13.1,15.381-14.9,9.153-1.868,9.351,7.042,4.938,14.174,4.9,2.461,2.035,12.4,1.891,12.9.334-.365,8.181-8.918,13.574-.456,2.947,4.626-.889,9.662-5.09,13.345.145,0,.289,0,.433.008a14.508,14.508,0,0,1,6.966,1.739,6.749,6.749,0,0,1,4.193.183c8,3.205-6.039,14.287-6.039,14.287s22.787-3.327,22.05,6.9C212.134,94.954,190.979,90.45,190.341,90.313Z" fill="url(#a)"/>
</svg>
