<svg xmlns="http://www.w3.org/2000/svg" xmlns:xlink="http://www.w3.org/1999/xlink" width="117.927" height="48.037" viewBox="0 0 117.927 48.037">
  <defs>
    <linearGradient id="a" y1="24.018" x2="117.927" y2="24.018" gradientUnits="userSpaceOnUse">
      <stop offset="0" stop-color="#eb4a7c"/>
      <stop offset="1" stop-color="#fab5b8"/>
    </linearGradient>
  </defs>
  <title>CaveShrub_2</title>
  <path d="M107.25,43.178c10.821-4.708,16-24.046,2.933-21.377C100.071,23.866,95.616,34.049,94.1,38.611a2.066,2.066,0,0,0-.077-.324c.4-2.492.547-6.178-1.508-8.081.869-1.861,1.115-3.786-.3-5.2-3.818-3.819-9.73,5.173-9.73,5.173S91.355,0,79.038,0s-13.3,30.423-13.3,30.423c0-6.528-8.376-15.273-11.948-13.595s-1.108,7.806-1.108,7.806c-7.514-9.853-17.121-11.578-17.737,1.848a18.643,18.643,0,0,0,.337,4.462,44.715,44.715,0,0,0-3.5,3.515s-10.064-18.134-18.7-12.628.474,13.578.474,13.578-11.3-3.418-13.2,2.563S4.816,48.037,4.816,48.037H113.97C116.127,39.321,108.292,42.7,107.25,43.178Z" fill="url(#a)"/>
</svg>
