<svg xmlns="http://www.w3.org/2000/svg" xmlns:xlink="http://www.w3.org/1999/xlink" width="130.328" height="48.037" viewBox="0 0 130.328 48.037">
  <defs>
    <linearGradient id="a" y1="24.018" x2="130.328" y2="24.018" gradientUnits="userSpaceOnUse">
      <stop offset="0" stop-color="#eb4a7c"/>
      <stop offset="1" stop-color="#fab5b8"/>
    </linearGradient>
  </defs>
  <title>CaveShrub_3</title>
  <path d="M129.7,40.346c-1.994-2.658-6.172-1.994-6.172-1.994s5.982-8.545.76-11.868c-3.2-2.04-8.123,1.427-11.447,4.41.842-2,.518-4.044-2.2-5.767-2.925-1.854-5.7-1.277-8.092.3-2.162-2.182-4.66-4.023-7.215-4.508-.617-4.068-2.322-7.46-6.248-7.744a6.367,6.367,0,0,0-.895,0C88.551,6.321,87.352,0,81.715,0,71.533,0,69.1,20.789,68.555,28a4.706,4.706,0,0,0-.351.554c-.891-4.209-4.494-8.809-7.729-10.851,2.8-6.467,1.659-13.107-6.356-11.47-7.807,1.594-12.243,8.031-14.556,12.982a9.158,9.158,0,0,0-1.131,2.354c-.1,0-.211,0-.318,0,.342-3.3-.066-7.675-4.5-8.13-4.989-.512-5.992,5.308-6.137,8.938a9.493,9.493,0,0,0-1.109.971c-2.784-3.164-9.153-6.224-8-.21a11.656,11.656,0,0,0,5.265,7.545,31.284,31.284,0,0,0-2.143,3.776,12.288,12.288,0,0,0-1.537.164c-.163-2.672-1.212-5.268-4.573-5.613-7.2-.739-6.1,11.732-6.1,11.732C8.176,37.321-1.247,31.5.139,38.707s8.96,9.33,8.96,9.33H128.28S131.7,43.005,129.7,40.346Z" fill="url(#a)"/>
</svg>
