<svg xmlns="http://www.w3.org/2000/svg" xmlns:xlink="http://www.w3.org/1999/xlink" width="136.959" height="48.043" viewBox="0 0 136.959 48.043">
  <defs>
    <linearGradient id="a" y1="24.021" x2="136.959" y2="24.021" gradientUnits="userSpaceOnUse">
      <stop offset="0" stop-color="#eb4a7c"/>
      <stop offset="1" stop-color="#fab5b8"/>
    </linearGradient>
  </defs>
  <title>CaveShrub_1</title>
  <path d="M133.006,48.043H4.82S-1.545,43.956.354,37.979s13.2-2.568,13.2-2.568-9.115-8.066-.478-13.573c4.633-2.955,9.677.888,13.353,5.089a8.619,8.619,0,0,1,.516-4.223c2.879-7.194,10.49-1.147,15.222,3.653a6,6,0,0,1,3.5-.349C45.062,17.432,45.138.425,55.43,1.17c7,.509,8.758,8.363,8.8,15.951a15.237,15.237,0,0,1,5.8,3.494,20.206,20.206,0,0,1,4.087-3.342,2.961,2.961,0,0,1,.683-.441,1.775,1.775,0,0,1,.395-.137,9.017,9.017,0,0,1,9.222.54,7.25,7.25,0,0,1,3.266,3.722C89.041,12.032,92.3,0,100.048,0c12.32,0,3.448,30.178,3.448,30.178s5.91-8.986,9.73-5.173c1.823,1.823.9,4.489-.577,6.776a10.143,10.143,0,0,1,.63,4.595,3.819,3.819,0,0,1,.555.334c2-5.036,6.51-13.1,15.381-14.9,13.027-2.666,7.923,16.536-2.825,21.329C127.764,42.513,135.1,39.574,133.006,48.043Z" fill="url(#a)"/>
</svg>
