<svg xmlns="http://www.w3.org/2000/svg" xmlns:xlink="http://www.w3.org/1999/xlink" width="111.186" height="48.737" viewBox="0 0 111.186 48.737">
  <defs>
    <linearGradient id="a" y1="24.369" x2="111.186" y2="24.369" gradientUnits="userSpaceOnUse">
      <stop offset="0" stop-color="#65bad7"/>
      <stop offset="1" stop-color="#c3faf5"/>
    </linearGradient>
  </defs>
  <title>CaveShrub_13</title>
  <path d="M100.509,43.879c10.821-4.708,16-24.047,2.933-21.377C92.24,24.79,87.979,37.04,86.973,40.571c.579-2.461,1.642-8.923-2.611-10.531A3.928,3.928,0,0,0,83.7,25.7c-3.818-3.818-9.73,5.173-9.73,5.173S82.842.7,70.525.7C64.422.7,61.1,8.17,59.3,15.707a34.975,34.975,0,0,0-4.343,6.851s4.8-21.8-5.419-22.54-6.9,22.047-6.9,22.047S31.559,8.024,28.356,16.03a6.756,6.756,0,0,0-.188,4.189,14.6,14.6,0,0,0-1.738,6.963c-.007.147,0,.29-.006.435-3.68-4.2-8.717-8.036-13.347-5.085-8.64,5.507.474,13.577.474,13.577s-11.3-3.418-13.2,2.564S4.816,48.737,4.816,48.737H107.229C109.386,40.022,101.551,43.4,100.509,43.879Z" fill="url(#a)"/>
</svg>
