<svg xmlns="http://www.w3.org/2000/svg" xmlns:xlink="http://www.w3.org/1999/xlink" width="344.888" height="131.209" viewBox="0 0 344.888 131.209">
  <defs>
    <linearGradient id="a" y1="65.604" x2="344.888" y2="65.604" gradientUnits="userSpaceOnUse">
      <stop offset="0" stop-color="#65bad7"/>
      <stop offset="1" stop-color="#c3faf5"/>
    </linearGradient>
  </defs>
  <title>CaveShrub_19</title>
  <path d="M342.838,131.209H4.82S-1.545,127.13.354,121.144s13.2-2.559,13.2-2.559S4.44,110.51,13.077,105s18.708,12.632,18.708,12.632a45.327,45.327,0,0,1,3.494-3.517,18.577,18.577,0,0,1-.334-4.458,16.729,16.729,0,0,1,1.185-5.918c-.973-1.359-1.421-3.266-.821-5.962,1.185-5.363,7.459-6.206,13.035-5.841-.107-.107-.206-.2-.3-.312a14.631,14.631,0,0,1-3.7-6.152,6.76,6.76,0,0,1-2.826-3.1c-3.4-7.923,14.371-5.834,14.371-5.834S37.421,62.779,45.169,56.072c7.648-6.609,19.452,11.614,19.764,12.1a35.551,35.551,0,0,1-1.763-7.908c-4.056-6.6-7-14.226-2.681-18.541C69.065,33.148,83.8,59.763,84.264,60.6c-.107-.555-2.021-10.52,3.228-10.52a3.934,3.934,0,0,1,3.532,2.6c4.14-1.869,7.96,3.448,9.29,5.6-1.785-3.2-7.437-14.88-1.132-24.42,3.782-5.72,8.256-3.912,11.128.668a27.774,27.774,0,0,1,4.61.874c-.364-.335-8.917-8.173-.463-13.566,4.633-2.955,9.677.888,13.353,5.089a8.608,8.608,0,0,1,.517-4.223c2.878-7.194,10.489-1.147,15.221,3.653a6,6,0,0,1,3.5-.349c-.608-8.576-.532-25.583,9.761-24.838,7,.509,8.757,8.363,8.8,15.951a15.248,15.248,0,0,1,5.8,3.494,20.173,20.173,0,0,1,4.086-3.342,2.968,2.968,0,0,1,.684-.441,1.741,1.741,0,0,1,.395-.137,9.015,9.015,0,0,1,9.221.54,7.25,7.25,0,0,1,3.266,3.722C190.422,12.032,193.68,0,201.428,0c12.32,0,3.448,30.178,3.448,30.178s5.91-8.986,9.73-5.173c1.823,1.823.9,4.489-.577,6.776a10.157,10.157,0,0,1,.631,4.595,3.864,3.864,0,0,1,.554.334c2-5.036,6.51-13.1,15.381-14.9,9.465-1.937,9.358,7.672,4.467,14.9a5.142,5.142,0,0,1,1.375,1.208c2.134,2.62,1.04,5.2-.737,7.2a13.174,13.174,0,0,1,1.208.972,31.9,31.9,0,0,1,4.185-1.155,11.616,11.616,0,0,1,1.61-9.054c3.433-5.074,5.773,1.595,5.507,5.8a9.148,9.148,0,0,1,1.466.1c2.674-2.469,7.5-5.871,10.664-1.982,2.818,3.456.008,6.843-2.567,8.932l.228.228a8.806,8.806,0,0,1,2.461-.866c5.135-1.868,12.821-3.281,19.475,1.109,6.821,4.512,2.932,10.019-3.623,12.609.843,3.73.145,9.533-2.2,13.141a4.261,4.261,0,0,1,.638-.145c5.477-4.717,21.907-17.69,29.1-10.489,3.987,3.987.364,9.3-4.732,13.9a6.24,6.24,0,0,1,.63.63,5.963,5.963,0,0,1,.912,6.4c1.891,2.408,2.324,6.639,2.1,11.105a6.935,6.935,0,0,1,.889,0c3.927.288,5.636,3.676,6.251,7.747,2.552.487,5.051,2.325,7.216,4.5,2.392-1.58,5.165-2.157,8.089-.3,2.72,1.724,3.046,3.767,2.2,5.773,3.327-2.985,8.241-6.457,11.447-4.413,5.226,3.319-.76,11.864-.76,11.864s4.178-.661,6.176,2S342.838,131.209,342.838,131.209Z" fill="url(#a)"/>
</svg>
