<svg xmlns="http://www.w3.org/2000/svg" xmlns:xlink="http://www.w3.org/1999/xlink" width="317.077" height="200.185" viewBox="0 0 317.077 200.185">
  <defs>
    <linearGradient id="a" y1="100.093" x2="317.077" y2="100.093" gradientUnits="userSpaceOnUse">
      <stop offset="0" stop-color="#65bad7"/>
      <stop offset="1" stop-color="#c3faf5"/>
    </linearGradient>
  </defs>
  <title>CaveShrub_18</title>
  <path d="M313.122,200.185H9.1S1.522,198.059.14,190.858s8.036-1.39,9.145,2.028c0,0-1.109-12.472,6.092-11.728,3.364.342,4.413,2.94,4.572,5.613a11.472,11.472,0,0,1,1.542-.167,30.747,30.747,0,0,1,2.142-3.775,11.65,11.65,0,0,1-5.264-7.542c-1.162-6.016,5.211-2.955,7.991.2a10.284,10.284,0,0,1,1.109-.973c.144-3.623,1.147-9.449,6.137-8.932,4.436.456,4.846,4.831,4.5,8.127h.319a9.029,9.029,0,0,1,1.131-2.354,30.046,30.046,0,0,1,3.35-5.576c-2.7-1.116-4.907-2.263-4.185-6.008.607-3.129,4.322-2.787,6.7-2.643.114-.425.1-.9.213-1.345-1.2-.85-2.385-1.8-3.464-2.742-3.015,1.687-5.431,3.137-9.2,2.606-6.046-.859-1.345-5.241,2.111-6.73-.326-.418-.508-.767-.812-1.215-3.631-1.018-9.3-2.94-7.824-7.611,1.307-4.148,5.879-3.327,9.145-2.416.084-.076.046-.212.092-.311a13.4,13.4,0,0,1-2.264-1.717c-5.347-4.58-10.338-10.292-9.981-17.7s7.626-7.7,12.7-4.284c3.745-3.638,6.206-6.487,11.7-6.441-.2-.213-.266-.349-.531-.623-8.28-3.919-23.524-13.057-21.4-23.63,1.185-5.857,10.065-3.244,13.49-2.021.251-.228.243-.524.4-.82,1.869-3.8,4.717-5.423,8.963-4.876A12.066,12.066,0,0,1,50.9,72.478c-2.081-5.21.516-10.383,4.307-14.014-5.12.828-9.32-2.719-8.037-8.712s12.784-7.687,18.2-4.93c0-4.352,1.58-12.806,6.57-13.619,3.213-.531,4.861,3.3,5.294,5.773,3.054-.1,6.988.03,9.616,1.724A4.026,4.026,0,0,1,89.5,37.553c-1.58-6.479-4.17-21.792,4.4-24.306,5.826-1.717,9.646,8.484,10.641,12.784a16.576,16.576,0,0,1,2.135.577c.281-1.641,1.314-3.3,3.623-4.77,3.714-2.37,7.679-.372,11.006,2.673a12.239,12.239,0,0,1,4.839,1.588c1.769,1.01,2.491,2.537,3.3,4.056,1.307-6.168,3.532-21.215,12.024-21.033,5.18.114,6.16,6.457,5.91,12.587a29.661,29.661,0,0,1,2.529,2.932s-2.461-6.13,1.109-7.809c1.952-.919,5.34,1.284,8.013,4.535a6.542,6.542,0,0,1,5.1-3.046c.076-.008.152,0,.22-.008C165.916,9.829,169.258,0,176.254,0c9.525,0,6.388,18.04,4.474,26.22h.015a4.836,4.836,0,0,1,1.755.555c2.043-2.051,4.816-3.9,6.942-1.77a3.347,3.347,0,0,1,1,2.461c3.365-3.129,7.3-5.4,12.351-5.18a9.992,9.992,0,0,1,1.982.273,16.873,16.873,0,0,1,2.628-.752c8.34-1.709,9.237,5.553,5.993,12.252,4.125,2.249,7.231,10.87,4.52,15.306,4.663-7.14,14.568-20.068,24.5-14.759,6.41,3.426-2.8,14.645-6.745,17.4a29.643,29.643,0,0,1,.615,4.375c.387.061.569.334,1.033.365,2.028-4.087,9.449-15.382,14.341-9.4,5.5,6.722-3.069,16.035-8.515,20.023.068.053.022.144.266.06,7.527-2.559,13.322.95,14.485,8.811.455,3.084-.722,5.674-3.57,6.274a17.872,17.872,0,0,1-1.839,6.92c.122-.061.251-.152.373-.213,2.37-1.184,3.972-1.473,6.517-.615a3.558,3.558,0,0,1,3.608-.433c6.768,4.026,2.225,12.943-.912,18.139,5.416-2.568,20.144-5.773,21.982,2.658s-13.345,10.847-19.6,10.733a46.859,46.859,0,0,1,7.595,2.788c4.778-.433,16.719.835,16.886,6.7.326,11.819-21.549,11.9-29.829,12.639,3.775,1.375,8.69,3.631,6.51,8.485-.684,1.511-2.9,2.157-4.527,2.187-2.127,4.55-6.722,5.333-11.242,5.371,5.553,1.169,11.622,1.39,16.285,4.291a19.368,19.368,0,0,1,3.32-2.537c1.959-4.3,4.755-7.474,8.735-7.474,12.32,0,3.448,30.178,3.448,30.178s5.917-8.993,9.73-5.173c1.421,1.413,1.178,3.342.3,5.2,2.059,1.9,1.907,5.583,1.512,8.075a2.559,2.559,0,0,1,.076.326c1.511-4.557,5.962-14.743,16.08-16.809,13.019-2.659,7.915,16.543-2.833,21.329C307.888,194.663,315.218,191.724,313.122,200.185Z" fill="url(#a)"/>
</svg>
