<svg xmlns="http://www.w3.org/2000/svg" xmlns:xlink="http://www.w3.org/1999/xlink" width="437.815" height="48.737" viewBox="0 0 437.815 48.737">
  <defs>
    <linearGradient id="a" y1="24.368" x2="437.815" y2="24.368" gradientUnits="userSpaceOnUse">
      <stop offset="0" stop-color="#65bad7"/>
      <stop offset="1" stop-color="#c3faf5"/>
    </linearGradient>
  </defs>
  <title>CaveShrub_9</title>
  <path d="M433.862,48.737H9.1S1.528,46.61.138,39.409s8.044-1.39,9.145,2.028c0,0-1.1-12.472,6.1-11.728,3.365.342,4.413,2.94,4.572,5.613a11.493,11.493,0,0,1,1.535-.167,32.065,32.065,0,0,1,2.149-3.775,11.681,11.681,0,0,1-5.271-7.542c-1.155-6.016,5.218-2.955,8,.2a10.172,10.172,0,0,1,1.109-.972c.144-3.624,1.147-9.45,6.138-8.933,4.435.456,4.846,4.831,4.5,8.127h.319a9.029,9.029,0,0,1,1.132-2.354C41.877,14.958,46.313,8.525,54.121,6.93c8.013-1.633,9.16,5.005,6.358,11.469,3.235,2.043,6.836,6.646,7.724,10.854a4.365,4.365,0,0,1,.357-.554c.54-7.208,2.978-28,13.156-28,5.636,0,6.836,6.32,6.479,13.179a5.837,5.837,0,0,1,.9,0c3.927.281,5.628,3.676,6.251,7.74a10.051,10.051,0,0,1,3.137,1.253c2.256-5.454,13.057-2.188,13.057-2.188s-9.115-8.066-.478-13.573,18.708,12.624,18.708,12.624,9.776-11.295,15-7.975c3.358,2.142,2.074,6.441.737,9.236a31.189,31.189,0,0,1,7.725,6.054,6,6,0,0,1,3.5-.35c-.608-8.575-.532-25.582,9.76-24.838,7,.509,8.758,8.363,8.8,15.951a15.263,15.263,0,0,1,5.8,3.494,20.206,20.206,0,0,1,4.087-3.342,2.905,2.905,0,0,1,.683-.44,1.726,1.726,0,0,1,.4-.137,9.019,9.019,0,0,1,9.222.539,7.262,7.262,0,0,1,3.266,3.722C200.1,12.725,203.362.694,211.109.694c7.877,0,7.095,12.335,5.5,21.23,1.694.106,3.669,1.336,5.476,2.84a2.94,2.94,0,0,1,2.2.935,3.341,3.341,0,0,1,.988,2.088c1.291,1.375,2.18,2.477,2.286,2.606-.1-.722-3.152-22.757,6.9-22.028,5.887.426,6.791,7.816,6.5,14.03a10.558,10.558,0,0,1,1.565-.145,6.225,6.225,0,0,1,2.818-.729c.608-3.069,2.119-6.092,5.773-5.72a4.758,4.758,0,0,1,4.4,4.224c.167.091.334.182.5.288a7.346,7.346,0,0,1,1.208.942c2.354-4.907,6.76-11.1,14.4-12.654,8.386-1.717,9.252,5.636,5.94,12.373a28.678,28.678,0,0,1,4.049,4.36s-2.461-6.13,1.109-7.808,11.948,7.071,11.948,13.6c0,0,.987-30.421,13.307-30.421,7.953,0,7.072,12.594,5.447,21.511a40.4,40.4,0,0,1,3.243,3.289,5.569,5.569,0,0,1,1.109-.516c-.532-5.629-1.162-20.547,7.14-19.947,9.327.676,6.152,18.86,5.522,22.058.084-.083.167-.159.251-.235,1.572-3.069,8.157-14.706,15.784-9.875,2.992,1.9,3.083,4.186,1.906,6.381a24.908,24.908,0,0,1,4.672,4.253c0-.152-.008-.288,0-.44a14.663,14.663,0,0,1,1.739-6.965,6.785,6.785,0,0,1,.19-4.186c3.2-8.006,14.287,6.039,14.287,6.039S365.948-.719,376.172.017c10.072.73,5.568,21.884,5.431,22.522a35.116,35.116,0,0,1,4.33-6.836c1.8-7.535,5.119-15,11.226-15,12.313,0,3.449,30.178,3.449,30.178s5.909-8.993,9.73-5.173a3.916,3.916,0,0,1,.653,4.33c4.254,1.61,3.19,8.074,2.613,10.535,1.01-3.532,5.264-15.784,16.468-18.07,13.026-2.659,7.922,16.543-2.826,21.329C428.621,43.214,435.958,40.275,433.862,48.737Z" fill="url(#a)"/>
</svg>
