<svg xmlns="http://www.w3.org/2000/svg" xmlns:xlink="http://www.w3.org/1999/xlink" width="127.65" height="151.12" viewBox="0 0 127.65 151.12">
  <defs>
    <style>
      .cls-1 {
        fill: url(#linear-gradient);
      }

      .cls-2 {
        fill: url(#linear-gradient-2);
      }

      .cls-3 {
        fill: url(#linear-gradient-3);
      }

      .cls-4 {
        fill: url(#linear-gradient-4);
      }

      .cls-5 {
        fill: url(#linear-gradient-5);
      }

      .cls-6 {
        fill: url(#linear-gradient-6);
      }

      .cls-7 {
        fill: url(#linear-gradient-7);
      }

      .cls-8 {
        fill: url(#linear-gradient-8);
      }

      .cls-9 {
        fill: url(#linear-gradient-9);
      }
    </style>
    <linearGradient id="linear-gradient" x1="59.95" y1="133.27" x2="89.47" y2="133.27" gradientUnits="userSpaceOnUse">
      <stop offset="0" stop-color="#fdf2dc"/>
      <stop offset="1" stop-color="#f0dde1"/>
    </linearGradient>
    <linearGradient id="linear-gradient-2" x1="60.71" y1="54.27" x2="127.65" y2="54.27" gradientUnits="userSpaceOnUse">
      <stop offset="0" stop-color="#fea9bc"/>
      <stop offset="1" stop-color="#e9517a"/>
    </linearGradient>
    <linearGradient id="linear-gradient-3" x1="24.86" y1="112.22" x2="75.12" y2="112.22" xlink:href="#linear-gradient"/>
    <linearGradient id="linear-gradient-4" x1="0" y1="53.82" x2="51.51" y2="53.82" xlink:href="#linear-gradient-2"/>
    <linearGradient id="linear-gradient-5" x1="58.35" y1="79.47" x2="116.28" y2="79.47" xlink:href="#linear-gradient-2"/>
    <linearGradient id="linear-gradient-6" x1="31.5" y1="42.06" x2="93.88" y2="42.06" xlink:href="#linear-gradient-2"/>
    <linearGradient id="linear-gradient-7" x1="20.56" y1="94.33" x2="79.4" y2="94.33" gradientUnits="userSpaceOnUse">
      <stop offset="0" stop-color="#eeef6f"/>
      <stop offset="1" stop-color="#f8d48a"/>
    </linearGradient>
    <linearGradient id="linear-gradient-8" x1="7.2" y1="131.83" x2="40.36" y2="131.83" xlink:href="#linear-gradient"/>
    <linearGradient id="linear-gradient-9" x1="46.84" y1="140.24" x2="68.45" y2="140.24" xlink:href="#linear-gradient"/>
  </defs>
  <title>EggPlant_6</title>
  <g id="Layer_2" data-name="Layer 2">
    <g id="Resources">
      <g>
        <path class="cls-1" d="M60.71,140.13C64.46,148.3,77.3,146,83,141.62s7.72-11.64,5.7-16.39-11.27-5.58-18.11-2.31S57.79,133.76,60.71,140.13Z"/>
        <path class="cls-2" d="M61,73.78S57.28,40.46,76,39.92s26.91,13.9,39,7.31-4.46-24.77-4.46-24.77S136.23,28.34,124.64,49s-24.59,5.35-36.35,9.27-20,27.8-20,27.8Z"/>
        <path class="cls-3" d="M57.34,77.7c16.32,0,22.33,23.53,14.13,43.13s-13.9,25.9-27.56,25.9-20.2-21.86-18.89-39S35,77.7,57.34,77.7Z"/>
        <path class="cls-4" d="M34.46,84.12s9.09-12.65,2-19.78-20,1.42-30.12-8.91-8-24.06,6.23-31.91c0,0-10.69,10.88-4.09,18S23.77,44,41.77,49.19,47.3,84.12,47.3,84.12Z"/>
        <path class="cls-5" d="M58.35,85.72S65.3,67.19,80.62,71.11s6.24,18.71,17.83,18.53,11.76-15.5,2.31-23-30.3-1.07-30.3-1.07S78.48,51,94,53.82s24.24,13.55,21.92,30.3-11.07,22.42-18,21.21C82.67,102.65,83.39,81.89,77,83.14S65.3,95.88,65.3,95.88Z"/>
        <path class="cls-6" d="M44.27,81.09s8.37-15.51.71-27.27S29.47,38.67,32,26,48.9,0,69.4,0s32.8,11.41,17.91,29.23c0,0,5.25-15.51-6.69-18.36s-29,7.31-29.11,19.61,15,13.72,16.28,25.3-5.1,28.34-5.1,28.34Z"/>
        <path class="cls-7" d="M38.32,76.28S24.84,79,20.56,95.17c0,0,11.5-.36,20.68-8.2,0,0,6.41,15.33,18.35,24.51,0,0,7.76-6.78,9.09-20,0,0,4.9,2.14,7.13,8.83a29.51,29.51,0,0,1,1.52,12s4.9-12.66-.36-29.23c0,0-13,.62-23.44-1.52S38.32,76.28,38.32,76.28Z"/>
        <path class="cls-8" d="M37.33,147.23c6.75-6.74,1.12-18.07-6.23-25.42s-18.18-8.11-21.3-5-5.7,10.87,6.33,22.9S36.11,148.46,37.33,147.23Z"/>
        <path class="cls-9" d="M50,147.68c6.29,5.71,14.25,4,17.1-3s1.31-12.35-5-14.61-14.73.83-15.21,7.6S50,147.68,50,147.68Z"/>
      </g>
    </g>
  </g>
</svg>
