<svg xmlns="http://www.w3.org/2000/svg" xmlns:xlink="http://www.w3.org/1999/xlink" width="133.71" height="154.9" viewBox="0 0 133.71 154.9">
  <defs>
    <style>
      .cls-1 {
        fill: url(#linear-gradient);
      }

      .cls-2 {
        fill: url(#linear-gradient-2);
      }

      .cls-3 {
        fill: url(#linear-gradient-3);
      }

      .cls-4 {
        fill: url(#linear-gradient-4);
      }

      .cls-5 {
        fill: url(#linear-gradient-5);
      }

      .cls-6 {
        fill: url(#linear-gradient-6);
      }

      .cls-7 {
        fill: url(#linear-gradient-7);
      }

      .cls-8 {
        fill: url(#linear-gradient-8);
      }

      .cls-9 {
        fill: url(#linear-gradient-9);
      }
    </style>
    <linearGradient id="linear-gradient" y1="90.62" x2="49.59" y2="90.62" gradientUnits="userSpaceOnUse">
      <stop offset="0" stop-color="#fea9bc"/>
      <stop offset="1" stop-color="#e9517a"/>
    </linearGradient>
    <linearGradient id="linear-gradient-2" x1="17.86" y1="50.87" x2="58.26" y2="50.87" xlink:href="#linear-gradient"/>
    <linearGradient id="linear-gradient-3" x1="101.59" y1="127.75" x2="133.71" y2="127.75" gradientUnits="userSpaceOnUse">
      <stop offset="0" stop-color="#fdf2dc"/>
      <stop offset="1" stop-color="#f0dde1"/>
    </linearGradient>
    <linearGradient id="linear-gradient-4" x1="59.6" y1="141.33" x2="99.7" y2="141.33" xlink:href="#linear-gradient-3"/>
    <linearGradient id="linear-gradient-5" x1="43.79" y1="115.62" x2="109.35" y2="115.62" xlink:href="#linear-gradient-3"/>
    <linearGradient id="linear-gradient-6" x1="52.07" y1="97.03" x2="75.6" y2="97.03" xlink:href="#linear-gradient"/>
    <linearGradient id="linear-gradient-7" x1="8.36" y1="106.72" x2="64.56" y2="106.72" xlink:href="#linear-gradient"/>
    <linearGradient id="linear-gradient-8" x1="32.83" y1="49.5" x2="80.38" y2="49.5" xlink:href="#linear-gradient"/>
    <linearGradient id="linear-gradient-9" x1="41.4" y1="106.24" x2="106.73" y2="106.24" gradientUnits="userSpaceOnUse">
      <stop offset="0" stop-color="#eeef6f"/>
      <stop offset="1" stop-color="#f8d48a"/>
    </linearGradient>
  </defs>
  <title>EggPlant_1</title>
  <g id="Layer_2" data-name="Layer 2">
    <g id="Resources">
      <g>
        <path class="cls-1" d="M49.59,82.08s-4.4-7.8-17.71-6.61S25.35,88,15.49,95.59,0,88.21,0,88.21s-1.31,20.05,10.69,17.44,15-7.73,20.8-15,9.87,0,9.87,0Z"/>
        <path class="cls-2" d="M43.79,83.2S33.31,79.27,33.31,65s8.79-9.15,9.39-21.15-12.84-23.17-24.84-24c0,0,15.45-4.87,25.19,4s14.62,20.43,10,33.5a19.42,19.42,0,0,0,5.23,21.18Z"/>
        <path class="cls-3" d="M114.67,149.82s-15.51-3.92-12.75-21.57,10.87-24,20.14-22.45,13.64,16.84,10.78,28.07S121.26,150.89,114.67,149.82Z"/>
        <path class="cls-4" d="M79,127.75c13,0,20.68,6.83,20.68,13.25s-7,13.9-20,13.9-20.13-6-20.13-14.62S71,127.75,79,127.75Z"/>
        <path class="cls-5" d="M101,148.42c13.19-5.27,9.74-34.1-3.68-48S63,76.19,49.82,85s-1.66,34.7,5.23,42.77S86.77,154.13,101,148.42Z"/>
        <circle class="cls-6" cx="63.83" cy="97.03" r="11.76"/>
        <path class="cls-7" d="M42.81,105.56s-4.15-2.29-5.58,3.54-3.68,24.47-14.14,24.23S8.36,120.62,8.36,120.62s6.77,8.44,13.66,3.21,2.5-34.58,12.71-40.52S57.67,80,62.3,88.78s.71,18.65.71,18.65l-13.42,1.79Z"/>
        <path class="cls-8" d="M62.06,90.68S42.93,82.36,48,63.47s15.8-11.28,15.68-22.93S52.68,2.17,32.83,1.1c0,0,28.88-7.85,40.28,18.41s3.45,35.61-2.26,40.56-4.13,18.85,5.72,22.77S74.07,99,74.07,99,71.45,95.31,62.06,90.68Z"/>
        <path class="cls-9" d="M42.81,105.56s-4,15.06,1.55,24.21c0,0,6.06-3.68,10.81-17.11,0,0,10.34,9.27,27.92,10.22,0,0,2.5-16.28-3.44-26.85,0,0,3.92-2.85,13.07-3.21s14,1.31,14,1.31S93.45,81.29,76.57,82.84c0,0,.46,12.12-6.9,17.58S49.82,108.68,42.81,105.56Z"/>
      </g>
    </g>
  </g>
</svg>
