<svg xmlns="http://www.w3.org/2000/svg" xmlns:xlink="http://www.w3.org/1999/xlink" width="154.1" height="121.87" viewBox="0 0 154.1 121.87">
  <defs>
    <style>
      .cls-1 {
        fill: url(#linear-gradient);
      }

      .cls-2 {
        fill: url(#linear-gradient-2);
      }

      .cls-3 {
        fill: url(#linear-gradient-3);
      }

      .cls-4 {
        fill: url(#linear-gradient-4);
      }

      .cls-5 {
        fill: url(#linear-gradient-5);
      }

      .cls-6 {
        fill: url(#linear-gradient-6);
      }

      .cls-7 {
        fill: url(#linear-gradient-7);
      }

      .cls-8 {
        fill: url(#linear-gradient-8);
      }

      .cls-9 {
        fill: url(#linear-gradient-9);
      }
    </style>
    <linearGradient id="linear-gradient" x1="101.59" y1="98.57" x2="131.31" y2="98.57" gradientUnits="userSpaceOnUse">
      <stop offset="0" stop-color="#fdf2dc"/>
      <stop offset="1" stop-color="#f0dde1"/>
    </linearGradient>
    <linearGradient id="linear-gradient-2" x1="93.86" y1="26.83" x2="154.1" y2="26.83" gradientUnits="userSpaceOnUse">
      <stop offset="0" stop-color="#fea9bc"/>
      <stop offset="1" stop-color="#e9517a"/>
    </linearGradient>
    <linearGradient id="linear-gradient-3" x1="35.83" y1="21.33" x2="75.55" y2="21.33" xlink:href="#linear-gradient-2"/>
    <linearGradient id="linear-gradient-4" x1="59.29" y1="85.12" x2="117.43" y2="85.12" xlink:href="#linear-gradient"/>
    <linearGradient id="linear-gradient-5" x1="0" y1="36.61" x2="72.71" y2="36.61" xlink:href="#linear-gradient-2"/>
    <linearGradient id="linear-gradient-6" x1="68.21" y1="28.02" x2="115.01" y2="28.02" xlink:href="#linear-gradient-2"/>
    <linearGradient id="linear-gradient-7" x1="109.08" y1="108.44" x2="133.25" y2="108.44" xlink:href="#linear-gradient"/>
    <linearGradient id="linear-gradient-8" x1="54.88" y1="109.53" x2="83.43" y2="109.53" xlink:href="#linear-gradient"/>
    <linearGradient id="linear-gradient-9" x1="48.12" y1="61.81" x2="122.85" y2="61.81" gradientUnits="userSpaceOnUse">
      <stop offset="0" stop-color="#eeef6f"/>
      <stop offset="1" stop-color="#f8d48a"/>
    </linearGradient>
  </defs>
  <title>EggPlant_2</title>
  <g id="Layer_2" data-name="Layer 2">
    <g id="Resources">
      <g>
        <path class="cls-1" d="M109.16,118.63c11,3.77,18.62-6.95,20.94-16.57s1.69-21.47-5.35-23.83-16.22,4-20.94,16.16S102.39,116.32,109.16,118.63Z"/>
        <path class="cls-2" d="M106.93,53.64s5.7,1,9.74-9.15,11.77,9.87,21.27,7S149.7,41.05,149.7,27.15s-4.63-11.29-3.32-18.42A10.44,10.44,0,0,1,154.1.3s-14.38-2.5-15.92,7,5.82,16.87,2.37,22.57-8.55,7-13.78,1.19-8.91-11.53-14.37-8.44-2.62,14.26-5.47,17.23-13.07,3.92-13.07,3.92Z"/>
        <path class="cls-3" d="M74.5,34.87A16.09,16.09,0,0,0,72,19.07c-4.63-5.9-8.15-6.46-13.54-4.28-6.18,2.5-4.64,5.11-10.22,5.11s-10.46-12.24-8-17.35c0,0-9.54,12.83-.67,20.8S51.68,26.64,59.88,28,71.17,40.1,71.17,40.1Z"/>
        <path class="cls-4" d="M106.34,121.25c-10.43.39-22,1.42-36.84-19.61S55.25,60.41,76.28,51.27,110.14,60.65,114.89,78,118.21,120.8,106.34,121.25Z"/>
        <path class="cls-5" d="M65.7,58.39S60.12,48.06,50.26,48.06s-5.59,14.3-19.73,14.3-20.76-9-23.28-12.52c-5-7-5.94-12.47-5.94-18.06s4.16-6.06,4.16-9.62S2.85,13.13,0,10.87c0,0,10.22,3.21,11.17,9.5s-1.67,11.17.24,17.11,8,13.19,19.24,12.36S36,29.64,53,29.64,72.71,51.5,72.71,51.5Z"/>
        <path class="cls-6" d="M70.1,51.62s-8-22,8.79-24.95,10,17.94,16.28,13.43-5.35-17.47,2.14-28.64S115,4.1,115,4.1s-10.22,2.61-10.46,12.71,8.68,19.37,4.52,26.5S97.41,53.39,88.36,50.2s-6,2.37-6,2.37Z"/>
        <path class="cls-7" d="M109.22,115.42c.53,5.24,10.69,4.73,17.11,2s7.84-10.78,6.41-15-9.58-8.15-16.66-1.06S108.77,111.06,109.22,115.42Z"/>
        <path class="cls-8" d="M82.78,118.81c-2.58,5.26-15,3.65-22.72-4.19s-5-12.21-3.32-14.88,11.34-4.9,20.43,2.41S82.78,118.81,82.78,118.81Z"/>
        <path class="cls-9" d="M122.85,63.86S109,43.31,98.73,45.56c-3.09.69-4.65,1.59-5.31,2.52l0,0c-8.53-3.94-25.1,0-28.62,6.93C48,55.82,48.12,78.23,48.12,78.23L65.06,60.32C70,68.38,92.67,77.05,92.67,77.05S98.8,61.88,97,53.25Z"/>
      </g>
    </g>
  </g>
</svg>
