<svg xmlns="http://www.w3.org/2000/svg" xmlns:xlink="http://www.w3.org/1999/xlink" width="75.53" height="133.6" viewBox="0 0 75.53 133.6">
  <defs>
    <style>
      .cls-1 {
        fill: url(#linear-gradient);
      }

      .cls-2 {
        fill: url(#linear-gradient-2);
      }

      .cls-3 {
        fill: url(#linear-gradient-3);
      }

      .cls-4 {
        fill: url(#linear-gradient-4);
      }

      .cls-5 {
        fill: url(#linear-gradient-5);
      }
    </style>
    <linearGradient id="linear-gradient" x1="15.87" y1="104.1" x2="72.04" y2="104.1" gradientUnits="userSpaceOnUse">
      <stop offset="0" stop-color="#fdf2dc"/>
      <stop offset="1" stop-color="#f0dde1"/>
    </linearGradient>
    <linearGradient id="linear-gradient-2" y1="51.06" x2="32.17" y2="51.06" gradientUnits="userSpaceOnUse">
      <stop offset="0" stop-color="#fea9bc"/>
      <stop offset="1" stop-color="#e9517a"/>
    </linearGradient>
    <linearGradient id="linear-gradient-3" x1="39.34" y1="43.04" x2="72.43" y2="43.04" xlink:href="#linear-gradient-2"/>
    <linearGradient id="linear-gradient-4" x1="28.09" y1="42.42" x2="53.05" y2="42.42" xlink:href="#linear-gradient-2"/>
    <linearGradient id="linear-gradient-5" x1="7.69" y1="90.88" x2="75.53" y2="90.88" gradientUnits="userSpaceOnUse">
      <stop offset="0" stop-color="#eeef6f"/>
      <stop offset="1" stop-color="#f8d48a"/>
    </linearGradient>
  </defs>
  <title>EggPlant_3</title>
  <g id="Layer_2" data-name="Layer 2">
    <g id="Resources">
      <g>
        <path class="cls-1" d="M20.39,84.83s-10.16,12.3,0,30.3,25.84,21,38.67,16.75S76,107.29,67.8,91.6,39.28,66.12,20.39,84.83Z"/>
        <path class="cls-2" d="M21.28,83.41s3-8.74-3.39-8.2S5.24,80.73,1.32,63.62,3.46,18.71,3.46,18.71,3.1,59.52,6.85,65.05,15.58,68.26,22,63.8s11.22,6.06,10,18.54Z"/>
        <path class="cls-3" d="M43.91,82.16s-9.26-18.36-1.42-31.1,14.08-1,19.42-6.15-7.3-41-7.3-41S72.43,28.34,72.43,52.4s-11.05-.72-15.15,7.12S57.64,79,57.64,79Z"/>
        <path class="cls-4" d="M32.17,84.83l13.35-5.34s-6.6-8.92-2.85-13.19,11,6.06,10.33-10.87S34.47,0,34.47,0s10.69,47.41,9.44,52.22-6.37-3.92-11.74,1.6S26.67,73.43,32.17,84.83Z"/>
        <path class="cls-5" d="M21.91,80.55s6.14,2,16,0A74.52,74.52,0,0,0,56.24,74s11-2.9,16.19,7.46,2.32,16.43,2.32,16.43-7-18.18-15.15-14.43c0,0,1.66,13.18-3.72,20.13,0,0-10.18-3-14.1-13,0,0-3.21,12.3-11,17.65,0,0-13.49-8.27-11.59-20.14,0,0-11,4.46-11,12.83C8.09,100.87,4,74.84,21.91,80.55Z"/>
      </g>
    </g>
  </g>
</svg>
