<svg xmlns="http://www.w3.org/2000/svg" xmlns:xlink="http://www.w3.org/1999/xlink" width="127.96" height="150.73" viewBox="0 0 127.96 150.73">
  <defs>
    <style>
      .cls-1 {
        fill: url(#linear-gradient);
      }

      .cls-2 {
        fill: url(#linear-gradient-2);
      }

      .cls-3 {
        fill: url(#linear-gradient-3);
      }

      .cls-4 {
        fill: url(#linear-gradient-4);
      }

      .cls-5 {
        fill: url(#linear-gradient-5);
      }

      .cls-6 {
        fill: url(#linear-gradient-6);
      }

      .cls-7 {
        fill: url(#linear-gradient-7);
      }

      .cls-8 {
        fill: url(#linear-gradient-8);
      }

      .cls-9 {
        fill: url(#linear-gradient-9);
      }
    </style>
    <linearGradient id="linear-gradient" x1="41.71" y1="30.78" x2="83.96" y2="30.78" gradientUnits="userSpaceOnUse">
      <stop offset="0" stop-color="#fea9bc"/>
      <stop offset="1" stop-color="#e9517a"/>
    </linearGradient>
    <linearGradient id="linear-gradient-2" x1="95.72" y1="123.46" x2="127.96" y2="123.46" gradientUnits="userSpaceOnUse">
      <stop offset="0" stop-color="#fdf2dc"/>
      <stop offset="1" stop-color="#f0dde1"/>
    </linearGradient>
    <linearGradient id="linear-gradient-3" x1="25.94" y1="100.8" x2="108.37" y2="100.8" xlink:href="#linear-gradient-2"/>
    <linearGradient id="linear-gradient-4" x1="21.3" y1="129.83" x2="63.45" y2="129.83" xlink:href="#linear-gradient-2"/>
    <linearGradient id="linear-gradient-5" x1="53.13" y1="129.79" x2="97.06" y2="129.79" xlink:href="#linear-gradient-2"/>
    <linearGradient id="linear-gradient-6" x1="0" y1="57.16" x2="49.01" y2="57.16" xlink:href="#linear-gradient"/>
    <linearGradient id="linear-gradient-7" x1="39.03" y1="50.76" x2="73.48" y2="50.76" xlink:href="#linear-gradient"/>
    <linearGradient id="linear-gradient-8" x1="3.4" y1="40.08" x2="60.35" y2="40.08" xlink:href="#linear-gradient"/>
    <linearGradient id="linear-gradient-9" x1="18.63" y1="79.12" x2="94.26" y2="79.12" gradientUnits="userSpaceOnUse">
      <stop offset="0" stop-color="#eeef6f"/>
      <stop offset="1" stop-color="#f8d48a"/>
    </linearGradient>
  </defs>
  <title>EggPlant_5</title>
  <g id="Layer_2" data-name="Layer 2">
    <g id="Resources">
      <g>
        <path class="cls-1" d="M63.23,59.74s-5.67-10,.92-19.25,6.18-18-.92-23.34S46.17,11,41.88,20.53c0,0-1.92-13.19,7.33-17.11S72.17,2,80,19.46s3.52,33.33-8.85,40.28Z"/>
        <path class="cls-2" d="M100.33,142.35c6.53,5.53,18,2.32,24.6-13.72s1.07-22.81-3.57-25.31-17.46-2.67-22.63,13.37S95.7,138.43,100.33,142.35Z"/>
        <path class="cls-3" d="M47.05,61.91c21.45-13.59,43,4,55.12,24.24s5,44.68-8.79,53.23-40.87,8.32-58.93-16.16S30.17,72.61,47.05,61.91Z"/>
        <path class="cls-4" d="M38.13,111.87s-15.68-1.78-16.75,10,8.38,26,23.35,26,19.78-5.7,18.53-12.47S56.13,114,38.13,111.87Z"/>
        <path class="cls-5" d="M78.05,150.73c17.83,0,20-14.44,18.72-23.71s-9.27-18.17-25.31-18.17-19.55,17.7-18,24.59S59.7,150.73,78.05,150.73Z"/>
        <path class="cls-6" d="M34.19,74.21s-5-7.42-14.23-3.5S-1.61,65,.17,52.88,9.26,34.71,17.82,35.24,34.19,46.65,34.19,46.65,21.56,36.31,13.9,43.26s-2.68,17.47,3.92,16.58,10.4-8,19.78-3.67C49,61.44,49,67.19,49,76.7l-8.74,2.42Z"/>
        <path class="cls-7" d="M54.89,76.23s3.61-10.84-1.76-17.36-8.58-.46-10-6,5.71-14,3-17.67S39,41.84,39,41.84s.53-21.75,12.65-17.65,4.4,17.29,4.4,17.29,11.38-4.28,15.74,7.31-1.25,23.34-1.25,23.34l-9.45,5.71Z"/>
        <path class="cls-8" d="M54.71,80.15s9.62-7.84,3.74-25-37-22.81-32.51-35.29S39,27,39,27,34.93-11.63,11.58,3.52C-12.12,18.9,22.44,41.26,30.47,46.47,50.25,59.3,37.59,77,37.59,77Z"/>
        <path class="cls-9" d="M30.06,81.2s-1,4.3,6.11,15.7c0,0,8.91-4.45,10.34-11.22,0,0,15.15,15.5,27.8,16.39a56.63,56.63,0,0,0,1.78-27.62s2-1.25,8.2,0a11.23,11.23,0,0,1,8.2,6.06s5.7-14.44-3.39-21.21-16.6-.45-16.6-.45S67,74.45,54.89,76.23s-20.7-2-20.7-2-12.27-.12-14.95,8.26,4.28,13.19,4.28,13.19S20.65,86.62,30.06,81.2Z"/>
      </g>
    </g>
  </g>
</svg>
