<svg xmlns="http://www.w3.org/2000/svg" xmlns:xlink="http://www.w3.org/1999/xlink" width="108.24" height="97.66" viewBox="0 0 108.24 97.66">
  <defs>
    <style>
      .cls-1 {
        fill: url(#linear-gradient);
      }

      .cls-2 {
        fill: url(#linear-gradient-2);
      }

      .cls-3 {
        fill: url(#linear-gradient-3);
      }

      .cls-4 {
        fill: url(#linear-gradient-4);
      }

      .cls-5 {
        fill: url(#linear-gradient-5);
      }
    </style>
    <linearGradient id="linear-gradient" x1="48.61" y1="12.74" x2="83.81" y2="12.74" gradientUnits="userSpaceOnUse">
      <stop offset="0" stop-color="#fea9bc"/>
      <stop offset="1" stop-color="#e9517a"/>
    </linearGradient>
    <linearGradient id="linear-gradient-2" x1="0" y1="46.65" x2="49.72" y2="46.65" xlink:href="#linear-gradient"/>
    <linearGradient id="linear-gradient-3" x1="27.43" y1="59.25" x2="85.18" y2="59.25" gradientUnits="userSpaceOnUse">
      <stop offset="0" stop-color="#fdf2dc"/>
      <stop offset="1" stop-color="#f0dde1"/>
    </linearGradient>
    <linearGradient id="linear-gradient-4" x1="14.14" y1="57.34" x2="57.98" y2="57.34" xlink:href="#linear-gradient"/>
    <linearGradient id="linear-gradient-5" x1="56.3" y1="51.88" x2="108.24" y2="51.88" xlink:href="#linear-gradient"/>
  </defs>
  <title>EggPlant_4</title>
  <g id="Layer_2" data-name="Layer 2">
    <g id="Resources">
      <g>
        <path class="cls-1" d="M48.89,20.5S45,0,66.36,0,83.47,25.47,83.47,25.47Z"/>
        <path class="cls-2" d="M49.72,18.23s-6.23-20-25.66-9.45-5.17,38-4.46,49.9S19.6,84.17,0,85.41c0,0,13.54,7,24.86-4.09s2.62-28.7,5.9-44S41.35,25.71,41.35,25.71Z"/>
        <path class="cls-3" d="M56,94.4c23.52,0,43.2-35.29,15.92-63.21-20-20.44-44.51,7.6-44.51,30.18S43.9,94.4,56,94.4Z"/>
        <path class="cls-4" d="M58,26c0,9.68-11.58,9.51-11.58,20.2S58,74.26,47.82,84.09,14.14,97.66,14.14,97.66s16-6.59,20.67-21.56S26.26,43.49,32,29.41,58,12,58,26Z"/>
        <path class="cls-5" d="M56.3,25.47c0,9.46,8.27,5.72,12.55,17.12s0,20.14,0,31.91,16,19.42,39.39,15.32c0,0-23-4.27-23.06-17.29S94.69,49,90.42,32.08,56.3,2.12,56.3,25.47Z"/>
      </g>
    </g>
  </g>
</svg>
