<svg xmlns="http://www.w3.org/2000/svg" xmlns:xlink="http://www.w3.org/1999/xlink" width="121.01" height="185.35" viewBox="0 0 121.01 185.35">
  <defs>
    <style>
      .cls-1 {
        fill: url(#linear-gradient);
      }

      .cls-2 {
        fill: url(#linear-gradient-2);
      }

      .cls-3 {
        fill: url(#linear-gradient-3);
      }

      .cls-4 {
        fill: url(#linear-gradient-4);
      }

      .cls-5 {
        fill: url(#linear-gradient-5);
      }

      .cls-6 {
        fill: url(#linear-gradient-6);
      }
    </style>
    <linearGradient id="linear-gradient" x1="26.12" y1="51.59" x2="82.16" y2="51.59" gradientUnits="userSpaceOnUse">
      <stop offset="0" stop-color="#fea9bc"/>
      <stop offset="1" stop-color="#e9517a"/>
    </linearGradient>
    <linearGradient id="linear-gradient-2" x1="39.47" y1="166.1" x2="93.26" y2="166.1" gradientUnits="userSpaceOnUse">
      <stop offset="0" stop-color="#fdf2dc"/>
      <stop offset="1" stop-color="#f0dde1"/>
    </linearGradient>
    <linearGradient id="linear-gradient-3" x1="5.06" y1="141.49" x2="72.14" y2="141.49" xlink:href="#linear-gradient-2"/>
    <linearGradient id="linear-gradient-4" x1="28.78" y1="63.37" x2="119.58" y2="63.37" xlink:href="#linear-gradient"/>
    <linearGradient id="linear-gradient-5" x1="48.24" y1="81.8" x2="121.01" y2="81.8" xlink:href="#linear-gradient"/>
    <linearGradient id="linear-gradient-6" y1="118" x2="84.53" y2="118" gradientUnits="userSpaceOnUse">
      <stop offset="0" stop-color="#eeef6f"/>
      <stop offset="1" stop-color="#f8d48a"/>
    </linearGradient>
  </defs>
  <title>EggPlant</title>
  <g id="Layer_2" data-name="Layer 2">
    <g id="Resources">
      <g>
        <path class="cls-1" d="M35.64,101.94A41.75,41.75,0,0,0,36.89,75c-3.56-11.66-16.22-20-8.11-40.28S82.16,0,82.16,0,37.25,22.81,40.28,42.24s9.89,17.1,14.16,36-12.18,25-12.18,25Z"/>
        <path class="cls-2" d="M41,180.71s8.48,8.74,31.15.72S94.81,157,92,152.55,68.61,141,51.15,159.33,41,180.71,41,180.71Z"/>
        <path class="cls-3" d="M32.26,185.35c27.8,0,36.35-28.34,39-40.64s-.18-43.13-19.52-46.51-38.05,8.37-44.28,35.11S6.19,185.35,32.26,185.35Z"/>
        <path class="cls-4" d="M29.58,100.16S26.83,90,39.17,81.8s19.74,1.07,33-6.77-3.42-16,12.39-38.5,35.05-27.8,35.05-27.8S96.77,26.91,93.21,43s6.06,34.93-5.35,44.2-27.09-3.57-33.5,4.63.35,26.22.35,26.22l-18.8-5.54-7.13-7.76Z"/>
        <path class="cls-5" d="M68,112.94s-1.92-8.15,4.18-10.29,23.38,9.63,36.39.89S121,43,121,43s-7,42.42-21,48.65S77.17,75.21,60.06,84.12s-10.61,32.33-10.61,32.33L64,120.65Z"/>
        <path class="cls-6" d="M29.58,112.81S12.3,107.29,0,110.14c0,0,10.87-17.11,29.58-10,0,0,2.68,8.91,18.18,13.9S68,112.94,68,112.94,80,113.35,83.41,121s-2,16.57-2,16.57-17.65-3-22.46-12.47c0,0-12.48-1.07-24.77,10.51C34.22,135.62,26.86,125.47,29.58,112.81Z"/>
      </g>
    </g>
  </g>
</svg>
