<svg xmlns="http://www.w3.org/2000/svg" xmlns:xlink="http://www.w3.org/1999/xlink" width="18.557" height="161.466" viewBox="0 0 18.557 161.466">
  <defs>
    <linearGradient id="a" x1="9.278" y1="161.297" x2="9.278" y2="-3.906" gradientUnits="userSpaceOnUse">
      <stop offset="0" stop-color="#65bad7"/>
      <stop offset="1" stop-color="#c3faf5"/>
    </linearGradient>
  </defs>
  <title>LightMushroom_1</title>
  <path d="M5.723,155.94c-.242-1.673-.446-3.248-.656-4.867l-.594-4.819c-.376-3.21-.74-6.418-1.066-9.629q-1-9.63-1.718-19.277T.528,98.032Q.111,88.361.013,78.675-.063,68.988.287,59.29T1.605,39.908l.528-4.838.652-4.83c.2-1.61.5-3.214.76-4.819l.4-2.407.482-2.4a121.353,121.353,0,0,1,5.2-18.929,2.594,2.594,0,0,1,4.9,1.689l-.007.022a115.91,115.91,0,0,0-4.037,18.269l-.348,2.325-.27,2.343c-.168,1.564-.389,3.116-.5,4.69l-.4,4.7L8.7,40.451Q8.249,49.9,8.365,59.4q.139,9.489.685,18.981.569,9.489,1.458,18.962.9,9.471,2.094,18.916T15.24,135.1c.478,3.134.994,6.26,1.519,9.381l.816,4.671c.278,1.541.566,3.126.857,4.6l0,.011a6.449,6.449,0,0,1-12.656,2.491C5.758,156.161,5.738,156.039,5.723,155.94Z" fill="url(#a)"/>
</svg>
