<svg xmlns="http://www.w3.org/2000/svg" xmlns:xlink="http://www.w3.org/1999/xlink" width="70.721" height="539.58" viewBox="0 0 70.721 539.58">
  <defs>
    <linearGradient id="a" x1="51.499" y1="489.94" x2="51.499" y2="118.894" gradientUnits="userSpaceOnUse">
      <stop offset="0" stop-color="#65bad7"/>
      <stop offset="1" stop-color="#c3faf5"/>
    </linearGradient>
    <linearGradient id="b" x1="30.973" y1="475.415" x2="30.973" y2="119.392" xlink:href="#a"/>
  </defs>
  <title>LightMushroom_20</title>
  <g>
    <path d="M57.21,131.2s-15.19-1.125-21.8-49.607-1.327-52.59,2.812-61.061S37.189.665,40.251.04C44.333-.793,45.57,11.666,49,18.064s11.7,5.322,19.772,58.06S57.21,131.2,57.21,131.2Z" fill="url(#a)"/>
    <path d="M54.742,539.58a5.485,5.485,0,0,1-4.225-1.977c-.618-.742-15.3-18.539-28.776-50.364A279.538,279.538,0,0,1,1.269,352.231c4.233-44.817,15.543-76.988,26.481-108.1C43.69,198.793,58.745,155.968,46.316,80.5a5.5,5.5,0,1,1,10.853-1.788C70.056,156.96,54.547,201.074,38.128,247.78c-10.719,30.486-21.8,62.01-25.908,105.485A268.573,268.573,0,0,0,31.7,482.545C44.534,513,58.827,530.392,58.97,530.564a5.5,5.5,0,0,1-4.228,9.016Z" fill="url(#b)"/>
  </g>
</svg>
