<svg xmlns="http://www.w3.org/2000/svg" xmlns:xlink="http://www.w3.org/1999/xlink" width="169.886" height="536.238" viewBox="0 0 169.886 536.238">
  <defs>
    <linearGradient id="a" x1="84.943" y1="536.238" x2="84.943" gradientUnits="userSpaceOnUse">
      <stop offset="0" stop-color="#65bad7"/>
      <stop offset="1" stop-color="#c3faf5"/>
    </linearGradient>
  </defs>
  <title>LightMushroom_23</title>
  <path d="M111.871,536.238a10.165,10.165,0,0,1-7.187-17.352c33.983-33.983,49.49-79.973,43.664-129.5-6.374-54.183-37.557-104.577-81.379-131.516C26.061,232.726,1.682,187.188.083,132.938-1.53,78.215,20.46,26.754,56.1,1.834A10.164,10.164,0,0,1,67.752,18.5C38.036,39.27,19.008,85.02,20.4,132.339c1.393,47.278,22.246,86.722,57.212,108.217,49,30.122,83.838,86.241,90.922,146.459,6.569,55.832-11,107.77-49.479,146.246A10.136,10.136,0,0,1,111.871,536.238Z" fill="url(#a)"/>
</svg>
