<svg xmlns="http://www.w3.org/2000/svg" xmlns:xlink="http://www.w3.org/1999/xlink" width="60.526" height="313.992" viewBox="0 0 60.526 313.992">
  <defs>
    <linearGradient id="a" x1="25.313" y1="249.825" x2="25.313" y2="-106.197" gradientUnits="userSpaceOnUse">
      <stop offset="0" stop-color="#65bad7"/>
      <stop offset="1" stop-color="#c3faf5"/>
    </linearGradient>
    <linearGradient id="b" x1="42.922" y1="249.771" x2="42.922" y2="-106.125" xlink:href="#a"/>
  </defs>
  <title>LightMushroom_17</title>
  <g>
    <path d="M32.392,313.992a5.469,5.469,0,0,1-3.253-1.069c-1.007-.74-24.71-18.662-28.887-64.6-1.646-18.109,4.985-39.335,13.379-66.208C26.169,141.974,43.342,87,38.907,14.829,38.721,11.8,41.028.189,44.059,0s5.642,11.12,5.828,14.152C54.446,88.345,36.924,144.438,24.13,185.4,16.1,211.1,9.76,231.4,11.207,247.327c3.733,41.059,24.241,56.582,24.448,56.734a5.5,5.5,0,0,1-3.263,9.931Z" fill="url(#a)"/>
    <path d="M35.567,96.307c19.91,5.212,26.062-21.582,24.8-45.236S56.947,9.594,44.626,9.047C25.563,8.2,27.1,35.839,25.8,53.711S25.264,93.611,35.567,96.307Z" fill="url(#b)"/>
  </g>
</svg>
