<svg xmlns="http://www.w3.org/2000/svg" xmlns:xlink="http://www.w3.org/1999/xlink" width="125.769" height="299.174" viewBox="0 0 125.769 299.174">
  <defs>
    <linearGradient id="a" x1="62.884" y1="304.82" x2="62.884" y2="-1.678" gradientUnits="userSpaceOnUse">
      <stop offset="0" stop-color="#65bad7"/>
      <stop offset="1" stop-color="#c3faf5"/>
    </linearGradient>
  </defs>
  <title>LightMushroom_7</title>
  <path d="M86.053,290.828c.82-4.522,1.613-9.137,2.384-13.718s1.524-9.186,2.256-13.785q2.2-13.8,4.178-27.628c2.637-18.437,4.987-36.906,6.937-55.387s3.5-36.977,4.341-55.418c.412-9.217.646-18.421.575-27.562s-.432-18.231-1.351-27.087c-.46-4.423-1.069-8.785-1.9-12.98a69.717,69.717,0,0,0-3.283-11.758A29.552,29.552,0,0,0,97.9,40.821a14.759,14.759,0,0,0-1.233-1.731l-.149-.187-.237-.267-.489-.553c-.325-.369-.648-.741-.992-1.09a49.142,49.142,0,0,0-4.223-4.028c-.728-.637-1.495-1.22-2.251-1.814l-1.165-.845c-.385-.287-.793-.537-1.186-.809a48.338,48.338,0,0,0-4.938-2.864,46.334,46.334,0,0,0-5.23-2.2,44.174,44.174,0,0,0-11.029-2.36,43.661,43.661,0,0,0-21.813,3.7,37.076,37.076,0,0,0-9.007,5.791A30.715,30.715,0,0,0,27.5,39.418a27.724,27.724,0,0,0-3.28,9.283c-.083.405-.123.822-.176,1.235s-.093.829-.123,1.248l-.053.626-.019.634-.024.634c-.011.208.007.46.008.687l.026,1.4c.016.462-.013.943.046,1.384l.116,1.346a13.138,13.138,0,0,0,.134,1.329,27.277,27.277,0,0,0,2.788,9.209A19.656,19.656,0,0,0,29.406,72a18.954,18.954,0,0,0,3.2,2.966,24.5,24.5,0,0,0,3.972,2.406,32.433,32.433,0,0,0,4.669,1.793,37.741,37.741,0,0,0,5.129,1.145c.875.14,1.755.233,2.615.309l.639.047.617.031.567.616h.245l.076-.6.031.6H51.08A11.783,11.783,0,0,1,63.9,93.154a13.158,13.158,0,0,1-12.442,13.16h-.493l-.362-.351-.631-.023-1.185-.065-1.133-.088-1.108-.111c-1.466-.164-2.907-.362-4.336-.625a62.57,62.57,0,0,1-8.5-2.138,57.171,57.171,0,0,1-8.318-3.472,49.189,49.189,0,0,1-7.866-5.081A44.3,44.3,0,0,1,5.4,79.5,51.324,51.324,0,0,1,.434,61.9c-.11-.736-.117-1.443-.17-2.164L.143,57.586C.087,56.861.125,56.171,0,55.464V53.356a3.083,3.083,0,0,0,.162-1.065l.067-1.118L.3,50.056l.117-1.12c.075-.745.159-1.49.282-2.235s.221-1.488.379-2.228A51.134,51.134,0,0,1,7.561,27.609,53.731,53.731,0,0,1,19.179,14.175,59.739,59.739,0,0,1,33.916,5.2,66.324,66.324,0,0,1,83.2,4.321,67.449,67.449,0,0,1,90.8,7.758a69.513,69.513,0,0,1,7.084,4.35c.56.4,1.135.79,1.68,1.212l1.642,1.259c1.065.871,2.132,1.741,3.145,2.665a70.093,70.093,0,0,1,5.778,5.8c.462.5.9,1.02,1.331,1.539l.653.778.332.4.391.5a35.476,35.476,0,0,1,2.727,4.052,49.955,49.955,0,0,1,3.688,7.989,89.414,89.414,0,0,1,3.916,15.324c.863,5.005,1.417,9.934,1.8,14.824.766,9.778.891,19.406.734,28.974s-.644,19.062-1.3,28.519c-1.333,18.913-3.39,37.669-5.822,56.346s-5.279,37.263-8.4,55.793q-2.343,13.9-4.905,27.753-1.282,6.927-2.622,13.847c-.9,4.622-1.8,9.206-2.767,13.866a7.052,7.052,0,0,1-13.846-2.678Z" fill="url(#a)"/>
</svg>
