<svg xmlns="http://www.w3.org/2000/svg" xmlns:xlink="http://www.w3.org/1999/xlink" width="117.092" height="561.877" viewBox="0 0 117.092 561.877">
  <defs>
    <linearGradient id="a" x1="58.546" y1="561.877" x2="58.546" gradientUnits="userSpaceOnUse">
      <stop offset="0" stop-color="#65bad7"/>
      <stop offset="1" stop-color="#c3faf5"/>
    </linearGradient>
  </defs>
  <title>LightMushroom_25</title>
  <path d="M106.931,561.877a10.141,10.141,0,0,1-7.609-3.421C32.488,483.074,0,376.6,0,232.964c0-69.172,21.8-127.742,40.085-164.7C59.916,28.192,79.621,4.6,80.45,3.617A10.165,10.165,0,0,1,96,16.712c-.413.494-19.331,23.31-37.974,61.135-17.2,34.894-37.7,90.131-37.7,155.117,0,138.45,30.815,240.508,94.205,312.006a10.165,10.165,0,0,1-7.6,16.907Z" fill="url(#a)"/>
</svg>
