<svg xmlns="http://www.w3.org/2000/svg" xmlns:xlink="http://www.w3.org/1999/xlink" width="62.403" height="387.949" viewBox="0 0 62.403 387.949">
  <defs>
    <linearGradient id="a" x1="32.742" y1="323.782" x2="32.742" y2="-32.24" gradientUnits="userSpaceOnUse">
      <stop offset="0" stop-color="#65bad7"/>
      <stop offset="1" stop-color="#c3faf5"/>
    </linearGradient>
    <linearGradient id="b" x1="21.494" y1="323.782" x2="21.494" y2="-32.24" xlink:href="#a"/>
  </defs>
  <title>LightMushroom_18</title>
  <g>
    <path d="M23.348,387.949a5.5,5.5,0,0,1-4.859-8.07c.36-.681,35.925-68.92,32.7-139.178C47.926,169.53,5.172,22.8,4.741,21.328,3.887,18.413,1.6.886,4.518.032s9.926,15.29,10.779,18.2C17.074,24.306,58.854,167.7,62.18,240.2c3.364,73.322-32.44,141.938-33.966,144.823A5.5,5.5,0,0,1,23.348,387.949Z" fill="url(#a)"/>
    <path d="M35.7,130.267s-20.28,10.426-31.74-58.385S8.71,6.126,17.547,15.931s27.255,60.593,25.3,87.19S35.7,130.267,35.7,130.267Z" fill="url(#b)"/>
  </g>
</svg>
