<svg xmlns="http://www.w3.org/2000/svg" xmlns:xlink="http://www.w3.org/1999/xlink" width="79.493" height="213.608" viewBox="0 0 79.493 213.608">
  <defs>
    <linearGradient id="a" x1="39.746" y1="222.559" x2="39.746" y2="-1.245" gradientUnits="userSpaceOnUse">
      <stop offset="0" stop-color="#65bad7"/>
      <stop offset="1" stop-color="#c3faf5"/>
    </linearGradient>
  </defs>
  <title>LightMushroom_6</title>
  <path d="M21.908,209.8c0,.146.006.2-.021.609,10.947.038-16.211,5.833-13.74,1.724a7.46,7.46,0,0,1-.217-.772l-.055-.26-.095-.511-.109-.667L7.5,208.767l-.306-2.209-.557-4.346q-.534-4.331-1.01-8.645-.96-8.636-1.756-17.274-1.6-17.283-2.607-34.639C.6,130.079.158,118.474.033,106.819S.1,83.46.867,71.661c.391-5.9.93-11.827,1.719-17.8A161.692,161.692,0,0,1,5.941,35.768a96.573,96.573,0,0,1,2.8-9.256,61.862,61.862,0,0,1,4.3-9.488,37.366,37.366,0,0,1,7.493-9.518,27.509,27.509,0,0,1,5.926-4.055A25.459,25.459,0,0,1,30.01,1.988q.924-.3,1.872-.529l.442-.1.324-.069L33.3,1.15,34.6.88,35.931.654c.881-.161,1.808-.266,2.726-.376.454-.061.931-.094,1.4-.13S41,.075,41.482.049c.978-.02,1.929-.077,2.939-.033a36.448,36.448,0,0,1,6.157.629,31.748,31.748,0,0,1,6.357,1.876,31.069,31.069,0,0,1,6.054,3.313,31.471,31.471,0,0,1,5.121,4.538,37.834,37.834,0,0,1,6.7,10.6,54.344,54.344,0,0,1,3.227,10.636,76.86,76.86,0,0,1,1.285,10.2,98.041,98.041,0,0,1,.085,9.868c-.067,1.629-.17,3.251-.312,4.883-.072.816-.154,1.635-.248,2.466l-.155,1.265-.089.66-.121.795-.2,1.283a12.723,12.723,0,0,1-25.155-3.838,13.742,13.742,0,0,1,.448-1.924l.006-.017.014-.069L53.634,57l.073-.4.143-.867c.092-.592.179-1.2.258-1.809.158-1.223.288-2.463.391-3.7a73.414,73.414,0,0,0,.245-7.345,52.807,52.807,0,0,0-.564-6.912,31,31,0,0,0-1.476-5.9,14.629,14.629,0,0,0-2.2-4.046,7.405,7.405,0,0,0-2.665-2.148,8.435,8.435,0,0,0-1.855-.657,13.319,13.319,0,0,0-2.386-.355,25.367,25.367,0,0,0-5.991.383l-.7.112c-.069.008-.136.019-.2.033a2.693,2.693,0,0,0-.444.131,4.835,4.835,0,0,0-1.207.725A15.344,15.344,0,0,0,31.819,28.1a40.158,40.158,0,0,0-3.04,6.07A75.335,75.335,0,0,0,26.305,41.3a141.166,141.166,0,0,0-3.549,15.632c-.936,5.381-1.666,10.873-2.258,16.41-1.178,11.083-1.82,22.346-2.163,33.649s-.368,22.668-.183,34.04.59,22.762,1.179,34.142q.443,8.535,1.035,17.056.3,4.257.645,8.5l.367,4.215.2,2.066.105.976.047.4c0,.041.013.094,0,.02l-.029-.128a5.688,5.688,0,0,0-.182-.642c2.485-4.035-24.633,1.712-13.694,1.7-.024.367-.016.373-.018.474a7.052,7.052,0,0,1,14.1,0Z" fill="url(#a)"/>
</svg>
