<svg xmlns="http://www.w3.org/2000/svg" xmlns:xlink="http://www.w3.org/1999/xlink" width="73.058" height="149.3" viewBox="0 0 73.058 149.3">
  <defs>
    <linearGradient id="a" x1="36.529" y1="152.59" x2="36.529" y2="-0.994" gradientUnits="userSpaceOnUse">
      <stop offset="0" stop-color="#65bad7"/>
      <stop offset="1" stop-color="#c3faf5"/>
    </linearGradient>
  </defs>
  <title>LightMushroom_9</title>
  <path d="M4.591,143.2l-.457-3.349-.418-3.3q-.4-3.294-.762-6.586-.722-6.585-1.276-13.186C.939,107.98.4,99.148.155,90.27S-.07,72.47.418,63.475A170.334,170.334,0,0,1,3.874,36.2,84.4,84.4,0,0,1,8.156,22.258a54.739,54.739,0,0,1,3.535-7.025,38.8,38.8,0,0,1,5.227-6.811,28.058,28.058,0,0,1,7.7-5.633A26.947,26.947,0,0,1,34.161.125L35.369.05l.6-.031c.2-.01.418-.022.559-.018l1.908.007c1.286.035,2.579.087,3.9.208A45.1,45.1,0,0,1,50.471,1.65a33.143,33.143,0,0,1,8.373,3.571c.345.2.683.419,1.019.648s.674.449,1,.69c.655.5,1.313.986,1.933,1.545.635.533,1.225,1.128,1.816,1.72.566.615,1.14,1.23,1.65,1.893a27.128,27.128,0,0,1,2.746,4.142,29.249,29.249,0,0,1,1.952,4.39,36.436,36.436,0,0,1,1.888,8.726,55.908,55.908,0,0,1-.961,15.874c-.484,2.485-1.084,4.906-1.788,7.29-.352,1.192-.731,2.375-1.14,3.559-.206.593-.418,1.186-.644,1.787l-.352.915-.192.477-.244.581a10.309,10.309,0,1,1-18.82-8.419c0,.011.04-.081.079-.169l.122-.277.254-.6c.171-.413.339-.841.505-1.271.329-.864.643-1.746.936-2.633.586-1.776,1.091-3.572,1.5-5.35a36.477,36.477,0,0,0,1.015-10.092,16.966,16.966,0,0,0-.7-4.045A9.817,9.817,0,0,0,51.79,25a7.849,7.849,0,0,0-.8-1.332,7.309,7.309,0,0,0-1-1.137c-.175-.188-.4-.345-.594-.523-.106-.085-.225-.161-.334-.246a3.165,3.165,0,0,0-.349-.243,13.985,13.985,0,0,0-3.561-1.642,26.177,26.177,0,0,0-4.691-.97c-.846-.108-1.728-.169-2.618-.225l-1.357-.049a1.657,1.657,0,0,0-.257,0l-.21.009c-.141,0-.282.006-.423,0a8.456,8.456,0,0,0-2.991.688A9.652,9.652,0,0,0,29.745,21.3a20.739,20.739,0,0,0-2.809,3.452,36.972,36.972,0,0,0-2.473,4.564,66.931,66.931,0,0,0-3.7,10.9,153.9,153.9,0,0,0-3.84,24.415c-.718,8.385-1.01,16.895-1.038,25.434s.224,17.118.676,25.693q.342,6.432.84,12.857.249,3.211.541,6.414l.3,3.194.329,3.136.01.1A7.051,7.051,0,0,1,4.591,143.2Z" fill="url(#a)"/>
</svg>
