<svg xmlns="http://www.w3.org/2000/svg" xmlns:xlink="http://www.w3.org/1999/xlink" width="22.248" height="279.164" viewBox="0 0 22.248 279.164">
  <defs>
    <linearGradient id="a" x1="11.124" y1="279.164" x2="11.124" y2="-2.687" gradientUnits="userSpaceOnUse">
      <stop offset="0" stop-color="#65bad7"/>
      <stop offset="1" stop-color="#c3faf5"/>
    </linearGradient>
  </defs>
  <title>LightMushroom</title>
  <path d="M.044,271.969c1.245-11.117,2.388-22.324,3.475-33.5s2.1-22.38,3.052-33.579c1.9-22.4,3.528-44.817,4.74-67.245,1.193-22.424,2.02-44.87,1.881-67.257-.09-11.187-.408-22.369-1.331-33.434-.47-5.528-1.078-11.034-2.01-16.418l-.374-2.008-.188-1-.217-.989-.433-1.979-.5-1.94A43.528,43.528,0,0,0,5.574,5.329l-.021-.045a3.689,3.689,0,0,1,6.621-3.255,50.667,50.667,0,0,1,3.238,8.554l.6,2.138.515,2.137.256,1.069L17,17l.442,2.136c1.105,5.694,1.848,11.381,2.448,17.063,1.182,11.364,1.732,22.708,2.055,34.039.6,22.662.229,45.273-.51,67.853-.759,22.581-1.938,45.13-3.383,67.658q-1.083,16.9-2.377,33.777c-.863,11.263-1.777,22.488-2.809,33.782A6.448,6.448,0,0,1,.027,272.129c0-.033.006-.066.01-.1Z" fill="url(#a)"/>
</svg>
