<svg xmlns="http://www.w3.org/2000/svg" xmlns:xlink="http://www.w3.org/1999/xlink" width="21.817" height="214.453" viewBox="0 0 21.817 214.453">
  <defs>
    <linearGradient id="a" x1="10.909" y1="214.453" x2="10.909" y2="-3.024" gradientUnits="userSpaceOnUse">
      <stop offset="0" stop-color="#65bad7"/>
      <stop offset="1" stop-color="#c3faf5"/>
    </linearGradient>
  </defs>
  <title>LightMushroom_3</title>
  <path d="M4.037,208.731c-.254-2.239-.465-4.363-.672-6.536s-.4-4.319-.581-6.477c-.371-4.315-.68-8.629-.979-12.943Q.946,169.833.49,156.88q-.927-25.906-.082-51.845c.319-8.641.775-17.278,1.449-25.906C2.563,70.5,3.419,61.887,4.567,53.3c.271-2.148.617-4.29.922-6.435l.472-3.215.544-3.208.545-3.206c.185-1.069.352-2.139.572-3.2l1.249-6.389c1.781-8.5,3.876-16.944,6.415-25.275A3.338,3.338,0,0,1,21.7,4.209l-.01.038c-2.218,8.16-4.011,16.443-5.5,24.789L15.16,35.314c-.183,1.043-.315,2.1-.464,3.148l-.438,3.154-.438,3.152-.367,3.165c-.235,2.111-.511,4.215-.713,6.33-.871,8.454-1.455,16.942-1.894,25.437-.4,8.5-.6,17.013-.655,25.528q-.08,25.55,1.625,51.084.834,12.754,2.065,25.473c.423,4.235.855,8.47,1.347,12.692q.365,3.166.76,6.323c.263,2.092.542,4.23.833,6.246l0,.036a6.448,6.448,0,1,1-12.764,1.843C4.054,208.87,4.044,208.786,4.037,208.731Z" fill="url(#a)"/>
</svg>
