<svg xmlns="http://www.w3.org/2000/svg" xmlns:xlink="http://www.w3.org/1999/xlink" width="64.848" height="217.25" viewBox="0 0 64.848 217.25">
  <defs>
    <linearGradient id="a" x1="32.424" y1="217.25" x2="32.424" y2="-3.602" gradientUnits="userSpaceOnUse">
      <stop offset="0" stop-color="#65bad7"/>
      <stop offset="1" stop-color="#c3faf5"/>
    </linearGradient>
  </defs>
  <title>LightMushroom_2</title>
  <path d="M37.24,216.906l-.261-.095-.166-.065-.324-.129-.567-.243c-.371-.163-.707-.327-1.061-.492l-1-.507-.967-.526q-1.907-1.071-3.654-2.278a56.208,56.208,0,0,1-6.544-5.288,65.674,65.674,0,0,1-5.625-6.093l-1.256-1.633c-.207-.273-.421-.542-.622-.82l-.586-.842-1.167-1.686-1.084-1.732a74.676,74.676,0,0,1-6.9-14.587,94.537,94.537,0,0,1-3.9-15.356L1.237,162.6c-.107-.647-.217-1.292-.281-1.941L.5,156.769c-.138-1.3-.2-2.591-.3-3.885l-.139-1.941C.033,150.3.021,149.65,0,149l.017-3.875L.1,141.266v-1.93a7.891,7.891,0,0,1-.052-1.923l.2-3.841c.025-.642.081-1.279.141-1.915l.172-1.91.353-3.824q.453-3.957,1.3-7.876a74.314,74.314,0,0,1,2.185-7.709,68.79,68.79,0,0,1,3.082-7.389,76.255,76.255,0,0,1,8.411-13.388A128.088,128.088,0,0,1,26.122,78.04c7.1-7.212,14.493-13.729,20.46-21.126A56.905,56.905,0,0,0,54.093,45.12a45.717,45.717,0,0,0,3.861-13.259,55.894,55.894,0,0,0,.444-7,69.737,69.737,0,0,0-.42-7.084A92.083,92.083,0,0,0,55.093,3.674l0-.013A2.878,2.878,0,0,1,60.6,2.013a98,98,0,0,1,3.524,14.969,75.929,75.929,0,0,1,.695,7.771,62.8,62.8,0,0,1-.265,7.88,52.64,52.64,0,0,1-3.985,15.376,64.223,64.223,0,0,1-8.045,13.542,138.566,138.566,0,0,1-10.043,11.58c-3.465,3.649-6.956,7.162-10.268,10.737A119.592,119.592,0,0,0,22.985,94.9a67.217,67.217,0,0,0-7.07,12.02,59.311,59.311,0,0,0-2.46,6.436,64.41,64.41,0,0,0-1.677,6.677q-.626,3.393-.916,6.855l-.222,3.605-.109,1.805c-.04.6-.075,1.2-.079,1.805l-.079,3.6c-.009.6-.037,1.2-.031,1.8l.033,1.8.063,3.589.212,3.569.109,1.783.181,1.771c.131,1.178.22,2.364.381,3.535l.515,3.5c.075.587.192,1.162.306,1.738l.336,1.729A83.335,83.335,0,0,0,16.3,175.908a62.878,62.878,0,0,0,6.182,12.128l.933,1.4,1,1.346.5.674c.17.221.351.432.526.648l1.053,1.291a53.323,53.323,0,0,0,4.622,4.713,43.66,43.66,0,0,0,5.157,3.918c.894.58,1.807,1.107,2.716,1.582l.68.345.671.314.638.272.293.115.111.039.051.018-.042-.016a6.447,6.447,0,0,1-4.145,12.21Z" fill="url(#a)"/>
</svg>
