<svg xmlns="http://www.w3.org/2000/svg" xmlns:xlink="http://www.w3.org/1999/xlink" width="61.628" height="282.825" viewBox="0 0 61.628 282.825">
  <defs>
    <linearGradient id="a" x1="30.814" y1="282.825" x2="30.814" y2="-3.216" gradientUnits="userSpaceOnUse">
      <stop offset="0" stop-color="#65bad7"/>
      <stop offset="1" stop-color="#c3faf5"/>
    </linearGradient>
  </defs>
  <title>LightMushroom_5</title>
  <path d="M5.728,278.034l-.246-.728-.2-.636c-.131-.417-.256-.829-.37-1.231-.243-.814-.451-1.612-.668-2.415l-.6-2.395-.538-2.391c-.686-3.185-1.219-6.376-1.676-9.572A154.381,154.381,0,0,1,.01,239.436,162.225,162.225,0,0,1,4.2,201.341,182.035,182.035,0,0,1,9.637,182.99l1.709-4.463c.289-.742.565-1.489.865-2.226l.946-2.192c.637-1.459,1.251-2.927,1.907-4.375l2.071-4.3c.349-.714.682-1.436,1.045-2.142l1.122-2.1,2.246-4.2,2.413-4.1c.808-1.364,1.594-2.741,2.478-4.055,1.73-2.652,3.4-5.342,5.277-7.888l5.293-7.453a95.236,95.236,0,0,0,8.485-15.225,80.353,80.353,0,0,0,5.185-16.521L50.9,100.7l.174-1.07c.111-.713.242-1.425.339-2.141l.265-2.152c.1-.717.133-1.441.2-2.161a74.669,74.669,0,0,0,.237-8.687,87.05,87.05,0,0,0-2.279-17.331A115.536,115.536,0,0,0,36.2,34.478,147.66,147.66,0,0,0,26.038,19.685q-2.758-3.55-5.729-6.925-1.486-1.683-3.019-3.311-.767-.814-1.545-1.6l-.778-.78-.75-.727-.108-.1A3.63,3.63,0,0,1,19.1.961l.925.855.869.831q.858.834,1.693,1.678,1.671,1.689,3.273,3.426,3.2,3.478,6.19,7.138A155.8,155.8,0,0,1,43.112,30.221,124.084,124.084,0,0,1,58.545,65a96.163,96.163,0,0,1,2.96,19.106,84.115,84.115,0,0,1-.039,9.736c-.059.81-.081,1.624-.172,2.433l-.243,2.429c-.09.808-.216,1.613-.324,2.42l-.17,1.209-.213,1.2a90.422,90.422,0,0,1-5.4,18.724A105.733,105.733,0,0,1,45.9,139.42l-5.2,7.7c-1.719,2.444-3.229,5.016-4.8,7.547-.806,1.255-1.512,2.566-2.239,3.864l-2.177,3.9-2.009,3.979L28.469,168.4c-.324.668-.617,1.35-.928,2.024l-1.84,4.052c-.58,1.365-1.118,2.746-1.68,4.117l-.835,2.06c-.263.692-.5,1.393-.755,2.088l-1.492,4.182a169.921,169.921,0,0,0-4.636,17.1,149.343,149.343,0,0,0-3.048,35.121,140.716,140.716,0,0,0,1.7,17.486c.48,2.877,1.026,5.741,1.7,8.549l.523,2.1.565,2.066c.2.675.4,1.36.608,2.013.1.335.209.656.317.97l.157.459.131.36.082.228a7.052,7.052,0,1,1-13.261,4.8C5.764,278.137,5.74,278.069,5.728,278.034Z" fill="url(#a)"/>
</svg>
