<svg xmlns="http://www.w3.org/2000/svg" xmlns:xlink="http://www.w3.org/1999/xlink" width="42.567" height="207.504" viewBox="0 0 42.567 207.504">
  <defs>
    <linearGradient id="a" x1="21.284" y1="207.504" x2="21.284" y2="-3.535" gradientUnits="userSpaceOnUse">
      <stop offset="0" stop-color="#65bad7"/>
      <stop offset="1" stop-color="#c3faf5"/>
    </linearGradient>
  </defs>
  <title>LightMushroom_4</title>
  <path d="M.94,197.7l.325-.566.354-.638c.238-.428.474-.869.709-1.315.475-.88.932-1.8,1.4-2.7q1.368-2.736,2.669-5.535c1.739-3.727,3.356-7.534,4.909-11.371q4.634-11.524,8.318-23.474,3.687-11.925,6.463-24.141l.7-3.049.64-3.063.637-3.065.318-1.533.286-1.539,1.137-6.16,1-6.186c1.257-8.26,2.325-16.563,3-24.906l.277-3.128c.1-1.042.14-2.088.213-3.132l.4-6.269c.109-2.091.166-4.185.252-6.278s.177-4.187.178-6.283A398.508,398.508,0,0,0,32.8,3.094V3.085a2.782,2.782,0,0,1,5.518-.706,404.841,404.841,0,0,1,4.194,51c.076,2.136.052,4.272.051,6.41s.008,4.275-.026,6.413l-.174,6.412c-.035,1.069-.043,2.139-.1,3.207l-.167,3.2c-.378,8.551-1.162,17.084-2.145,25.6l-.8,6.38-.938,6.364-.237,1.591-.27,1.586-.54,3.172-.545,3.172-.608,3.162q-2.418,12.649-5.766,25.129-3.366,12.465-7.756,24.676c-1.476,4.065-3.025,8.11-4.72,12.119q-1.266,3.007-2.631,6c-.469,1-.922,1.993-1.416,2.994-.241.5-.486,1-.744,1.506l-.389.765-.435.826A6.449,6.449,0,0,1,.746,198.045c.031-.059.063-.118.1-.176Z" fill="url(#a)"/>
</svg>
