<svg xmlns="http://www.w3.org/2000/svg" xmlns:xlink="http://www.w3.org/1999/xlink" width="67.122" height="691.135" viewBox="0 0 67.122 691.135">
  <defs>
    <linearGradient id="a" x1="33.561" y1="691.135" x2="33.561" gradientUnits="userSpaceOnUse">
      <stop offset="0" stop-color="#65bad7"/>
      <stop offset="1" stop-color="#c3faf5"/>
    </linearGradient>
  </defs>
  <title>LightMushroom_24</title>
  <path d="M56.957,691.135a10.165,10.165,0,0,1-9.5-6.555c-.489-1.289-12.123-32.217-23.851-89.33C12.836,542.811,0,457.418,0,348.4,0,140.322,28.365,9.278,28.652,7.978A10.164,10.164,0,0,1,48.5,12.354h0c-.281,1.28-28.175,130.383-28.175,336.05,0,107,12.542,190.733,23.063,242.141,11.4,55.714,22.955,86.516,23.07,86.821a10.17,10.17,0,0,1-9.5,13.769Z" fill="url(#a)"/>
</svg>
