<svg xmlns="http://www.w3.org/2000/svg" xmlns:xlink="http://www.w3.org/1999/xlink" width="120.234" height="809.312" viewBox="0 0 120.234 809.312">
  <defs>
    <linearGradient id="a" x1="60.117" y1="809.312" x2="60.117" gradientUnits="userSpaceOnUse">
      <stop offset="0" stop-color="#65bad7"/>
      <stop offset="1" stop-color="#c3faf5"/>
    </linearGradient>
  </defs>
  <title>LightMushroom_22</title>
  <path d="M26.492,809.312a10.17,10.17,0,0,1-9.848-7.678C-20.93,652.851,12.072,582.01,47.01,507.011,66.328,465.543,86.3,422.663,95.738,363.482c13.529-84.861-8.711-174.984-29.751-235.643-22.9-66.021-49.255-112.147-49.518-112.6A10.164,10.164,0,1,1,34.09,5.1c1.115,1.938,27.581,48.262,51.1,116.078,13.833,39.884,23.716,78.881,29.373,115.908,7.114,46.564,7.533,90.167,1.247,129.6C105.931,428.671,85.345,472.86,65.438,515.6,30.62,590.335.55,654.882,36.354,796.656a10.174,10.174,0,0,1-9.862,12.656Z" fill="url(#a)"/>
</svg>
