<svg xmlns="http://www.w3.org/2000/svg" xmlns:xlink="http://www.w3.org/1999/xlink" width="73.877" height="149.854" viewBox="0 0 73.877 149.854">
  <defs>
    <linearGradient id="a" x1="36.938" y1="155.816" x2="36.938" y2="-1.557" gradientUnits="userSpaceOnUse">
      <stop offset="0" stop-color="#65bad7"/>
      <stop offset="1" stop-color="#c3faf5"/>
    </linearGradient>
  </defs>
  <title>LightMushroom_10</title>
  <path d="M37.28,140.338l1.01-2.933,1-3.012q.986-3.021,1.919-6.07,1.873-6.09,3.547-12.237c2.231-8.19,4.2-16.433,5.815-24.688a223.163,223.163,0,0,0,3.524-24.7c.322-4.084.49-8.139.444-12.115a79.951,79.951,0,0,0-.886-11.558l-.222-1.375c-.083-.452-.181-.893-.269-1.34-.162-.9-.4-1.747-.608-2.612A34.9,34.9,0,0,0,50.92,32.94l-.23-.555-.259-.515c-.176-.339-.33-.7-.513-1.022l-.552-.949a3.423,3.423,0,0,0-.287-.45l-.3-.429a13.925,13.925,0,0,0-2.546-2.867c-.115-.1-.214-.214-.336-.3l-.359-.255a5.752,5.752,0,0,0-.716-.5q-.378-.219-.739-.457c-.271-.12-.536-.246-.8-.38a5.845,5.845,0,0,0-.83-.342,6.1,6.1,0,0,0-.866-.308c-.307-.083-.609-.172-.91-.268-.317-.075-.655-.125-.978-.2l-.488-.107c-.171-.025-.351-.039-.525-.06q-.526-.062-1.049-.135l-1.279-.1c-.435-.042-.841-.037-1.262-.061a26.277,26.277,0,0,0-4.554.213,16.246,16.246,0,0,0-1.829.373,9.22,9.22,0,0,0-1.373.515c-.209.08-.343.193-.516.27-.128.106-.289.177-.386.278-.126.081-.2.185-.306.261-.073.1-.167.171-.228.27a4.951,4.951,0,0,0-.767,1.534,12.916,12.916,0,0,0-.546,3.088,34.006,34.006,0,0,0,.895,9.258c.369,1.7.836,3.427,1.377,5.143.271.858.561,1.713.864,2.549.153.416.308.829.465,1.226l.232.576.11.26c.034.082.073.167.063.133A12.9,12.9,0,0,1,4.685,58.3l-.23-.622-.175-.5-.319-.951c-.2-.622-.394-1.234-.578-1.846-.365-1.221-.7-2.437-1.011-3.663-.618-2.451-1.14-4.936-1.543-7.5a67.428,67.428,0,0,1-.79-7.94,49.636,49.636,0,0,1,.39-8.632,35.843,35.843,0,0,1,2.586-9.462,30.18,30.18,0,0,1,2.653-4.809A26.694,26.694,0,0,1,9.4,8a28.389,28.389,0,0,1,2.2-1.881c.77-.563,1.549-1.122,2.353-1.594.8-.508,1.614-.909,2.432-1.328.813-.365,1.641-.751,2.453-1.034A33.116,33.116,0,0,1,23.659.776,39.652,39.652,0,0,1,28.236.14a49.326,49.326,0,0,1,8.407.088c.656.07,1.332.119,1.97.212s1.275.167,1.945.269l2.15.4c.359.071.714.135,1.073.215l1.086.288c.724.2,1.443.384,2.163.611q1.084.382,2.161.782c.718.245,1.427.6,2.134.921a23.177,23.177,0,0,1,2.094,1.055q1.029.587,2.041,1.195.981.672,1.944,1.367c.656.445,1.239.981,1.845,1.487l.895.774c.3.259.56.546.839.82a35.276,35.276,0,0,1,5.61,7.177l.559.95c.189.316.371.634.525.954l.959,1.922c.307.642.557,1.285.833,1.929l.4.967.342.963a55.4,55.4,0,0,1,2.137,7.649c.232,1.254.494,2.516.651,3.753.087.62.184,1.243.259,1.86l.194,1.843a99.755,99.755,0,0,1,.3,14.348c-.211,4.675-.668,9.257-1.282,13.774a240.594,240.594,0,0,1-5.293,26.429c-2.194,8.626-4.738,17.1-7.532,25.467q-2.1,6.275-4.39,12.473-1.146,3.1-2.347,6.187l-1.219,3.088-.626,1.547-.657,1.589a7.052,7.052,0,0,1-13.192-4.969Z" fill="url(#a)"/>
</svg>
