<svg xmlns="http://www.w3.org/2000/svg" xmlns:xlink="http://www.w3.org/1999/xlink" width="105.169" height="231.077" viewBox="0 0 105.169 231.077">
  <defs>
    <linearGradient id="a" x1="59.957" y1="69.656" x2="59.957" y2="69.575" gradientUnits="userSpaceOnUse">
      <stop offset="0" stop-color="#65bad7"/>
      <stop offset="1" stop-color="#c3faf5"/>
    </linearGradient>
    <linearGradient id="b" x1="52.585" y1="237.146" x2="52.585" y2="-1.972" xlink:href="#a"/>
  </defs>
  <title>LightMushroom_8</title>
  <g>
    <path d="M59.9,69.59l-.024-.007c-.013,0-.043-.011-.024,0a.393.393,0,0,1,.043.018c.061.022.123.035.183.058Z" fill="url(#a)"/>
    <path d="M104.733,44.887a52.639,52.639,0,0,0-1.486-7.07A56.54,56.54,0,0,0,89.233,13.684a49.2,49.2,0,0,0-11.6-8.736A42.154,42.154,0,0,0,63.165.293,40.39,40.39,0,0,0,55.434.1c-1.286.077-2.549.259-3.81.446-1.244.235-2.491.474-3.695.81a42.851,42.851,0,0,0-6.94,2.473c-1.118.475-2.151,1.045-3.215,1.583l-1.526.876-.759.443-.73.467a62.457,62.457,0,0,0-10.433,8.379,87.459,87.459,0,0,0-8.3,9.55c-.608.83-1.236,1.653-1.823,2.491L12.46,30.143a60.07,60.07,0,0,0-3.412,5.772A70.2,70.2,0,0,0,4.194,47.95a102.5,102.5,0,0,0-4,24.242A168.78,168.78,0,0,0,.73,95.746a304.027,304.027,0,0,0,7.882,45.131c3.605,14.694,7.944,29.1,12.636,43.314,2.344,7.1,4.787,14.164,7.233,21.169,1.219,3.5,2.445,6.991,3.6,10.432.576,1.715,1.14,3.428,1.625,5.048.149.5.29.994.411,1.449a7.047,7.047,0,0,0,4.095,8.183,8.15,8.15,0,0,0,.94.329,7.416,7.416,0,0,0,1.45.254,7.246,7.246,0,0,0,2.1-.143,7.295,7.295,0,0,0,4.1-2.494,7.243,7.243,0,0,0,.917-1.407,7.754,7.754,0,0,0,.433-1.052c.082-.251.151-.507.209-.765a8.848,8.848,0,0,0,.2-1.752c0-.187,0-.39,0-.534l-.01-.236-.012-.2c-.037-.533-.091-.927-.145-1.292s-.112-.684-.17-.986c-.235-1.2-.485-2.193-.74-3.18-.513-1.95-1.049-3.777-1.59-5.6-1.086-3.625-2.2-7.169-3.3-10.711-2.2-7.074-4.371-14.108-6.433-21.159-4.126-14.1-7.859-28.248-10.837-42.47a286.333,286.333,0,0,1-5.984-42.656,149.746,149.746,0,0,1,.228-20.89A82.869,82.869,0,0,1,23.412,54.1a49.794,49.794,0,0,1,3.739-8.444,39.792,39.792,0,0,1,2.376-3.716l1.488-2c.5-.665,1.023-1.3,1.53-1.945a66.337,66.337,0,0,1,6.515-7.01,40.91,40.91,0,0,1,7.052-5.293l.448-.27.454-.237.9-.48c.606-.262,1.2-.587,1.8-.8a20.844,20.844,0,0,1,3.565-1.126c.587-.148,1.169-.219,1.747-.319.577-.049,1.151-.124,1.719-.126a18.022,18.022,0,0,1,3.363.211,19.574,19.574,0,0,1,6.494,2.406,26.329,26.329,0,0,1,5.906,4.843A32.921,32.921,0,0,1,80.09,44.013a28.455,28.455,0,0,1,.663,3.83,23.483,23.483,0,0,1,.068,3.649,18.311,18.311,0,0,1-.5,3.3c-.075.249-.125.511-.207.751l-.239.718c-.095.23-.179.451-.269.691l-.441.985a31.156,31.156,0,0,1-4,6.807c-.174.253-.381.434-.565.658-.192.206-.366.45-.565.63-.393.374-.762.782-1.163,1.092-.379.364-.792.618-1.174.929-.409.243-.792.531-1.2.727A12.147,12.147,0,0,1,68,69.8a13.484,13.484,0,0,1-2.747.449,14.793,14.793,0,0,1-2.987-.121,13.455,13.455,0,0,1-1.471-.274c-.118-.026-.232-.054-.337-.085s-.216-.058-.306-.088-.173-.056-.245-.08L59.89,69.6a13.12,13.12,0,0,0-9.033,24.636l.342.122.188.063.354.114.6.183c.373.106.747.21,1.093.3s.7.172,1.043.247.684.148,1.021.212a39.587,39.587,0,0,0,4.021.575,40.673,40.673,0,0,0,8.113-.033,39.171,39.171,0,0,0,8.136-1.734A37.8,37.8,0,0,0,83.4,90.758a41.174,41.174,0,0,0,3.442-2.321c1.06-.853,2.14-1.7,3.091-2.633,1-.9,1.88-1.87,2.768-2.836.451-.48.829-.985,1.242-1.481.394-.5.828-.993,1.18-1.5a56.059,56.059,0,0,0,6.869-12.52l.63-1.581c.225-.631.447-1.284.663-1.928s.376-1.3.557-1.945.306-1.3.453-1.949a42.912,42.912,0,0,0,.864-7.724A48.027,48.027,0,0,0,104.733,44.887Z" fill="url(#b)"/>
  </g>
</svg>
