<svg xmlns="http://www.w3.org/2000/svg" xmlns:xlink="http://www.w3.org/1999/xlink" width="87.647" height="193.628" viewBox="0 0 87.647 193.628">
  <defs>
    <linearGradient id="a" x1="43.823" y1="199.493" x2="43.823" y2="-2.802" gradientUnits="userSpaceOnUse">
      <stop offset="0" stop-color="#65bad7"/>
      <stop offset="1" stop-color="#c3faf5"/>
    </linearGradient>
  </defs>
  <title>LightMushroom_12</title>
  <path d="M74.7,190.442l-.668-1.019-.608-.957c-.4-.635-.788-1.266-1.166-1.9-.768-1.264-1.495-2.538-2.226-3.811q-2.18-3.82-4.144-7.743a164.255,164.255,0,0,1-7.125-16.1,127.918,127.918,0,0,1-5.188-17.065,92.075,92.075,0,0,1-2.33-18.122,67.521,67.521,0,0,1,2.142-18.8c.1-.421.181-.7.268-1.033l.258-.962L54.4,101c.318-1.3.627-2.6.9-3.912q.846-3.935,1.517-7.924c.9-5.313,1.572-10.673,2.017-16.027.42-5.356.608-10.71.5-15.992a106.008,106.008,0,0,0-1.367-15.462,59.549,59.549,0,0,0-1.66-7.164,37.613,37.613,0,0,0-2.463-6.3,24.94,24.94,0,0,0-1.525-2.6,18.086,18.086,0,0,0-1.675-2.072,11.716,11.716,0,0,0-1.737-1.487,8.929,8.929,0,0,0-1.781-.94,10.664,10.664,0,0,0-4.214-.626c-.4-.009-.837.054-1.265.085-.209.006-.444.06-.667.089l-.678.1c-.474.111-.931.176-1.417.306l-.729.189-.367.094-.4.122A30.037,30.037,0,0,0,31.6,23.8a21.27,21.27,0,0,0-2.31,1.476A16.229,16.229,0,0,0,27.437,26.9a12.323,12.323,0,0,0-2.456,3.705,14.1,14.1,0,0,0-.735,2.187,18.274,18.274,0,0,0-.415,2.5,33.627,33.627,0,0,0,1.393,12.14,56.89,56.89,0,0,0,2.282,6.534c.452,1.079.934,2.15,1.441,3.19.253.52.512,1.033.772,1.525l.387.712.183.323.082.137.031.048,0-.018A13.048,13.048,0,1,1,7.311,72.044L7.1,71.606l-.154-.335-.277-.623-.506-1.193c-.324-.784-.626-1.557-.917-2.33-.582-1.546-1.111-3.093-1.6-4.657a84.966,84.966,0,0,1-2.438-9.616A68.483,68.483,0,0,1,.035,42.593,49.607,49.607,0,0,1,.826,31.572a40.918,40.918,0,0,1,1.5-5.693,37.81,37.81,0,0,1,2.453-5.592A34.521,34.521,0,0,1,8.2,15.106a36.429,36.429,0,0,1,4.249-4.449,38.522,38.522,0,0,1,4.772-3.55,43.318,43.318,0,0,1,5-2.677A52.467,52.467,0,0,1,32.27,1.13l.62-.143.662-.128,1.329-.25c.886-.163,1.824-.264,2.733-.387.467-.047.944-.08,1.415-.117s.937-.081,1.43-.082c.974-.018,1.934-.049,2.941.018A31.871,31.871,0,0,1,49.479.88,28.9,28.9,0,0,1,60.9,6.449a31.478,31.478,0,0,1,4.376,4.279,37.4,37.4,0,0,1,3.329,4.685,44.438,44.438,0,0,1,2.457,4.806,56.453,56.453,0,0,1,3.147,9.553,81.012,81.012,0,0,1,1.637,9.335,123.521,123.521,0,0,1,.74,18.112c-.165,5.942-.66,11.8-1.4,17.611q-1.076,8.713-2.878,17.276-.9,4.284-1.992,8.54-.547,2.127-1.138,4.253l-.609,2.124-.32,1.062c-.1.347-.225.735-.29,1a52.6,52.6,0,0,0-2.079,14.492,77.55,77.55,0,0,0,1.644,15.255c.113.639.271,1.276.416,1.913l.442,1.913.511,1.9c.168.636.336,1.271.534,1.9l.567,1.9c.187.633.409,1.259.612,1.89.4,1.262.856,2.512,1.3,3.764.216.628.467,1.247.7,1.871s.468,1.248.728,1.863c.512,1.235,1.013,2.473,1.561,3.695q1.6,3.683,3.425,7.28t3.833,7.08c.671,1.158,1.361,2.306,2.064,3.431.349.566.706,1.121,1.061,1.672l.532.812.5.733.121.18a7.051,7.051,0,1,1-11.686,7.9Z" fill="url(#a)"/>
</svg>
