<svg xmlns="http://www.w3.org/2000/svg" xmlns:xlink="http://www.w3.org/1999/xlink" width="109.362" height="469.157" viewBox="0 0 109.362 469.157">
  <defs>
    <linearGradient id="a" x1="54.681" y1="469.157" x2="54.681" gradientUnits="userSpaceOnUse">
      <stop offset="0" stop-color="#65bad7"/>
      <stop offset="1" stop-color="#c3faf5"/>
    </linearGradient>
  </defs>
  <title>LightMushroom_26</title>
  <path d="M27.239,469.157a10.164,10.164,0,0,1-7.187-17.351C67.759,404.1,89.034,329.2,89.034,208.966,89.034,91.84,4.439,18.637,3.585,17.912A10.164,10.164,0,1,1,16.744,2.418C17.7,3.229,40.4,22.69,63.208,57.839c21.055,32.448,46.154,85.008,46.154,151.127,0,63.013-5.84,113.879-17.855,155.5C79.322,406.686,60.651,439.956,34.426,466.18A10.132,10.132,0,0,1,27.239,469.157Z" fill="url(#a)"/>
</svg>
