<svg xmlns="http://www.w3.org/2000/svg" xmlns:xlink="http://www.w3.org/1999/xlink" width="23.492" height="133.663" viewBox="0 0 23.492 133.663">
  <defs>
    <linearGradient id="a" x1="11.746" y1="133.663" x2="11.746" y2="-2.321" gradientUnits="userSpaceOnUse">
      <stop offset="0" stop-color="#65bad7"/>
      <stop offset="1" stop-color="#c3faf5"/>
    </linearGradient>
  </defs>
  <title>LightMushroom_14</title>
  <path d="M23.063,50.6v-.039l-.24-7.827L22.7,38.819l-.225-3.9-.449-7.8c-.15-2.6-.282-5.2-.522-7.79L20.224,3.781a4.138,4.138,0,0,0-5.7-3.475A4.091,4.091,0,0,0,12,4.328l0,.074.7,15.414c.143,2.568.178,5.136.231,7.7l.16,7.7.081,3.848-.023,3.962-.167,7.459s.107,2.865.054,4.151L12.909,58.5l-.273,7.714A295.244,295.244,0,0,1,9.59,96.664L8.9,100.37l-.344,1.851c-.117.616-.218,1.239-.374,1.838l-.853,3.622c-.148.6-.268,1.216-.438,1.8l-.512,1.755A65.379,65.379,0,0,1,4.1,118.017l-.668,1.569-.165.393-.182.355-.362.706-.356.708L2,122.331l-.176.294a1.308,1.308,0,0,1-.083.134l-.067.086-.128.175-.03.044-.011.017.029-.042a1.366,1.366,0,0,1,.132-.153,6.447,6.447,0,1,0,9.554,8.659q.225-.262.438-.534l.106-.137.059-.084.107-.156.425-.631.209-.317c.073-.11.111-.189.167-.285l.312-.553.615-1.109.492-1.051.487-1.053.24-.526.2-.514.789-2.057a77.767,77.767,0,0,0,2.412-8.117l.5-2.017c.166-.672.275-1.341.414-2.011l.79-4.017c.145-.67.23-1.337.332-2l.3-2,.593-4c1.35-10.661,1.98-23.311,2.28-31.3Z" fill="url(#a)"/>
</svg>
