<svg xmlns="http://www.w3.org/2000/svg" xmlns:xlink="http://www.w3.org/1999/xlink" width="58.941" height="452.169" viewBox="0 0 58.941 452.169">
  <defs>
    <linearGradient id="a" x1="35.018" y1="388.022" x2="35.018" y2="31.972" gradientUnits="userSpaceOnUse">
      <stop offset="0" stop-color="#65bad7"/>
      <stop offset="1" stop-color="#c3faf5"/>
    </linearGradient>
    <linearGradient id="b" x1="21.417" y1="388.002" x2="21.417" y2="31.979" xlink:href="#a"/>
  </defs>
  <title>LightMushroom_21</title>
  <g>
    <path d="M16.8,120.46s-13.349-7.336.787-54.181S38.237,17.9,45.522,11.91,50.355-.65,54.387.052c3.544.616,1.507,6.846,1.969,14.092s8.427,9.7-6.146,61.025S16.8,120.46,16.8,120.46Z" fill="url(#a)"/>
    <path d="M18.76,452.169a5.5,5.5,0,0,1-4.964-7.861c30.315-63.8,15.934-110.472,2.025-155.61C9.792,269.132,3.558,248.9,1.3,227.925-6.1,159.3,20.56,95.221,21.7,92.527A5.5,5.5,0,1,1,31.83,96.809c-.312.742-26.679,64.274-19.6,129.936,2.148,19.925,7.954,38.767,14.1,58.714,14.527,47.15,29.55,95.9-2.6,163.569A5.5,5.5,0,0,1,18.76,452.169Z" fill="url(#b)"/>
  </g>
</svg>
