<svg xmlns="http://www.w3.org/2000/svg" xmlns:xlink="http://www.w3.org/1999/xlink" width="63.163" height="429.636" viewBox="0 0 63.163 429.636">
  <defs>
    <linearGradient id="a" x1="27.102" y1="365.469" x2="27.102" y2="9.446" gradientUnits="userSpaceOnUse">
      <stop offset="0" stop-color="#65bad7"/>
      <stop offset="1" stop-color="#c3faf5"/>
    </linearGradient>
    <linearGradient id="b" x1="45.559" y1="365.469" x2="45.559" y2="9.446" xlink:href="#a"/>
  </defs>
  <title>LightMushroom_16</title>
  <g>
    <path d="M29.7,429.636a5.469,5.469,0,0,1-3.026-.912c-1.559-1.029-38-26.611-23.1-148.589,5.91-48.362,14.744-88.389,22.537-123.7,11.7-53.019,20.942-94.9,15.462-140.3-.364-3.016-.215-15.756,2.8-16.12s7.755,11.786,8.12,14.8C58.2,62.075,48.779,104.76,36.854,158.8,29.113,193.876,20.34,233.63,14.494,281.47.628,394.916,32.407,419.331,32.732,419.546a5.5,5.5,0,0,1-3.036,10.09Z" fill="url(#a)"/>
    <path d="M38.205,97.7c19.91,5.211,26.062-21.582,24.8-45.237S59.54,9.265,47.263,10.44,29.737,37.232,28.434,55.105,27.9,95,38.205,97.7Z" fill="url(#b)"/>
  </g>
</svg>
