<svg xmlns="http://www.w3.org/2000/svg" xmlns:xlink="http://www.w3.org/1999/xlink" width="73.273" height="136.993" viewBox="0 0 73.273 136.993">
  <defs>
    <linearGradient id="a" x1="36.637" y1="142.006" x2="36.637" y2="-1.728" gradientUnits="userSpaceOnUse">
      <stop offset="0" stop-color="#65bad7"/>
      <stop offset="1" stop-color="#c3faf5"/>
    </linearGradient>
  </defs>
  <title>LightMushroom_11</title>
  <path d="M13.687,132.089l-.53-1.657-.5-1.608-.959-3.2q-.94-3.2-1.81-6.414-1.745-6.424-3.245-12.918c-2-8.663-3.676-17.429-4.884-26.35A175.3,175.3,0,0,1,.036,52.594,101.123,101.123,0,0,1,1.329,38.35a70.569,70.569,0,0,1,1.613-7.3,53.789,53.789,0,0,1,2.6-7.379,44.643,44.643,0,0,1,4-7.274,38.739,38.739,0,0,1,2.655-3.455c.492-.543,1-1.121,1.493-1.626.493-.489.978-.98,1.485-1.46a39.234,39.234,0,0,1,6.924-5.21,34.39,34.39,0,0,1,8.494-3.583,31.39,31.39,0,0,1,18.97.869A33.751,33.751,0,0,1,53.9,3.867a35.053,35.053,0,0,1,3.972,2.5,36.056,36.056,0,0,1,6.7,6.324A38.284,38.284,0,0,1,72.4,28.963a40.355,40.355,0,0,1-.267,17.886,46.99,46.99,0,0,1-7.071,15.633,58.056,58.056,0,0,1-5.107,6.409,72.54,72.54,0,0,1-5.709,5.5l-.059.05A11.99,11.99,0,0,1,38.468,56.334c.165-.142.362-.3.531-.434,5.509-4.253,9.561-9.412,11.115-14.722A17.936,17.936,0,0,0,50.7,33.24a16.5,16.5,0,0,0-2.956-7.179,14.766,14.766,0,0,0-2.594-2.749,14,14,0,0,0-1.479-1.062,13.153,13.153,0,0,0-1.561-.809,11.4,11.4,0,0,0-3.248-.876,11.594,11.594,0,0,0-3.385.167A16.432,16.432,0,0,0,28.33,24.45l-.879.781c-.279.256-.493.493-.75.735a18.809,18.809,0,0,0-1.4,1.639,25.243,25.243,0,0,0-2.467,4.015,34.689,34.689,0,0,0-1.957,4.817,51.378,51.378,0,0,0-1.454,5.356,82.818,82.818,0,0,0-1.605,11.631A158.546,158.546,0,0,0,18.228,78.1c.73,8.345,1.923,16.732,3.436,25.083q1.135,6.264,2.517,12.494.687,3.113,1.437,6.206l.766,3.078.394,1.526.393,1.466.044.163a7.051,7.051,0,0,1-13.528,3.971Z" fill="url(#a)"/>
</svg>
