<svg xmlns="http://www.w3.org/2000/svg" xmlns:xlink="http://www.w3.org/1999/xlink" width="60.619" height="418.506" viewBox="0 0 60.619 418.506">
  <defs>
    <linearGradient id="a" x1="35.164" y1="354.338" x2="35.164" y2="-1.684" gradientUnits="userSpaceOnUse">
      <stop offset="0" stop-color="#65bad7"/>
      <stop offset="1" stop-color="#c3faf5"/>
    </linearGradient>
    <linearGradient id="b" x1="17.581" y1="354.338" x2="17.581" y2="-1.684" xlink:href="#a"/>
  </defs>
  <title>LightMushroom_19</title>
  <g>
    <path d="M55.116,418.506a5.5,5.5,0,0,1-5.25-3.868c-30.5-98.074-38.538-200.2-39.914-268.606-1.489-74.1,4.31-125.8,4.369-126.319C14.666,16.7,19.345-.332,22.368.005s3.226,17.94,2.881,20.958C25.191,21.471,19.466,72.6,20.954,146,22.325,213.647,30.277,314.6,60.37,411.371a5.5,5.5,0,0,1-5.254,7.135Z" fill="url(#a)"/>
    <path d="M17.89,135.3S-4.271,140.677.737,71.1,20.79,8.3,27.08,19.9s12.274,65.3,4.129,90.692S17.89,135.3,17.89,135.3Z" fill="url(#b)"/>
  </g>
</svg>
