<svg xmlns="http://www.w3.org/2000/svg" xmlns:xlink="http://www.w3.org/1999/xlink" width="84.603" height="167.231" viewBox="0 0 84.603 167.231">
  <defs>
    <linearGradient id="a" x1="42.302" y1="170.026" x2="42.302" y2="-2.805" gradientUnits="userSpaceOnUse">
      <stop offset="0" stop-color="#65bad7"/>
      <stop offset="1" stop-color="#c3faf5"/>
    </linearGradient>
  </defs>
  <title>LightMushroom_13</title>
  <path d="M4.738,155.723l.371-.688.407-.783c.271-.533.542-1.07.806-1.619.391-.8.77-1.609,1.143-2.424.935-2.042,2.344-5.435,3.122-7.541.875-2.372,1.7-4.763,2.42-7.174.687-2.347,1.329-4.707,1.836-7.075.285-1.183.479-2.37.723-3.555l.29-1.778L16,122.2l.114-.888.231-1.777.163-1.771.079-.886c.021-.3.029-.588.045-.882l.086-1.763A56.939,56.939,0,0,0,16.5,107.3c-.074-1.148-.272-2.256-.429-3.376l-.061-.42-.086-.409-.172-.821-.174-.846c-.056-.274-.168-.717-.243-.987-.279-1-.519-2.009-.889-2.96-.19-.511-.347-1.039-.557-1.539l-.651-1.487c-.111-.246-.2-.5-.33-.741L12.529,93l-.749-1.428-1.032-1.865c-.346-.62-.689-1.242-1-1.879a89.017,89.017,0,0,1-6.3-15.769,82.718,82.718,0,0,1-3.195-16.8,71.536,71.536,0,0,1-.2-8.7c.09-1.465.145-2.927.337-4.4l.123-1.1c.037-.367.083-.734.149-1.1l.364-2.2A49.577,49.577,0,0,1,7.458,20.622l.616-1,.685-.97c.468-.639.9-1.3,1.4-1.916L11.7,14.9c.249-.31.529-.6.808-.879l.837-.856.853-.862c.141-.142.289-.278.442-.408.754-.641,1.493-1.307,2.257-1.936A45.487,45.487,0,0,1,29.24,3.121l2.191-.731c.366-.116.731-.251,1.1-.35l1.1-.291,2.208-.574L38.114.74l.379-.07L40.371.391,42.757.125c1.592-.051,3.168-.193,4.792-.086L48.76.086c.2.01.4.013.606.029l.609.068,2.438.292A41.6,41.6,0,0,1,57.267,1.6,35.285,35.285,0,0,1,66.46,5.8a37.053,37.053,0,0,1,7.658,6.647l.819.962c.268.324.553.639.79.982L77.2,16.43c.448.7.878,1.412,1.312,2.123l.321.536.286.549.569,1.1a45.1,45.1,0,0,1,3.4,9.176,50.744,50.744,0,0,1,1.436,9.5c.061.8.043,1.585.064,2.38l.02,1.191c0,.4-.024.789-.036,1.184-.033.789-.057,1.581-.1,2.369l-.232,2.35a67.371,67.371,0,0,1-4.883,18.253,10.309,10.309,0,0,1-9.775,6.437,10.679,10.679,0,0,1-9.237-15.953l.051-.087a40.684,40.684,0,0,0,2.848-5.671c.428-.953.725-1.933,1.074-2.909a12.041,12.041,0,0,0,.34-1.165c.158-.634.369-1.267.479-1.906l.322-1.526.227-1.53c.036-.255.083-.512.112-.767l.06-.765c.028-.51.1-1.026.1-1.533a32.591,32.591,0,0,0-.36-6.027l-.267-1.463c-.117-.477-.255-.944-.376-1.421a14.2,14.2,0,0,0-.443-1.388l-.232-.69c-.085-.226-.189-.44-.281-.661l-.28-.662-.138-.333c-.051-.107-.109-.209-.164-.314l-.651-1.262q-.285-.448-.563-.905c-.144-.237-.395-.615-.558-.839l-.425-.582a20.034,20.034,0,0,0-3.9-3.835,18.719,18.719,0,0,0-4.877-2.527,22.52,22.52,0,0,0-2.736-.769q-.722-.1-1.441-.224L47.9,15.8c-.122-.015-.247-.018-.37-.028l-.744-.054a11.672,11.672,0,0,0-1.5-.069l-1.528,0-1.556.135c-.26.023-.519.038-.78.065l-.788.13-1.58.248-1.59.371-.8.181c-.266.061-.513.157-.77.232l-1.533.474a30.509,30.509,0,0,0-8.21,4.308l-1.168.971c-.192.165-.4.314-.582.489l-.539.535-.545.531a5.467,5.467,0,0,0-.528.548L21.784,26.03c-.037.042-.072.086-.106.13l-1.285,1.706-.413.658a29.763,29.763,0,0,0-2.862,5.632l-.568,1.516-.474,1.57c-.175.516-.289,1.06-.414,1.6s-.275,1.07-.363,1.624l-.291,1.655c-.055.274-.093.553-.122.835l-.1.843c-.165,1.116-.21,2.264-.3,3.4a57.363,57.363,0,0,0,.1,6.943A67.2,67.2,0,0,0,17.1,68.065a74.817,74.817,0,0,0,5.28,13.27c.258.537.547,1.057.836,1.576l.859,1.563,1.076,2.034.533,1.021c.174.341.313.7.471,1.045l.91,2.1c.291.7.518,1.426.777,2.139.522,1.358.879,2.746,1.269,4.129.1.343.24.908.315,1.256l.243,1.125.234,1.095.116.547.087.548c.224,1.461.478,2.926.592,4.383a71.24,71.24,0,0,1,.339,8.7,95.905,95.905,0,0,1-1.984,16.84,130.558,130.558,0,0,1-4.42,16.025c-.9,2.609-1.872,5.186-2.91,7.746-.527,1.279-1.062,2.554-1.634,3.828-.281.636-.576,1.274-.875,1.915l-.463.97-.243.5-.315.622a7.444,7.444,0,0,1-7.218,4.163,7.7,7.7,0,0,1-6.411-11.147c.025-.05.05-.1.076-.148Z" fill="url(#a)"/>
</svg>
