<svg xmlns="http://www.w3.org/2000/svg" xmlns:xlink="http://www.w3.org/1999/xlink" width="45.403" height="49.95" viewBox="0 0 45.403 49.95">
  <defs>
    <linearGradient id="a" x1="17.175" y1="17.005" x2="25.264" y2="17.005" gradientUnits="userSpaceOnUse">
      <stop offset="0" stop-color="#434180"/>
      <stop offset="1" stop-color="#467baf"/>
    </linearGradient>
    <linearGradient id="b" x1="15.982" y1="8.909" x2="26.054" y2="8.909" xlink:href="#a"/>
    <linearGradient id="c" y1="7.637" x2="45.403" y2="7.637" gradientUnits="userSpaceOnUse">
      <stop offset="0" stop-color="#65bad7"/>
      <stop offset="1" stop-color="#c3faf5"/>
    </linearGradient>
  </defs>
  <title>Mushroom_14</title>
  <g>
    <g>
      <path d="M19.473,19.665s-3.336,28.28-1.1,29.484a7.757,7.757,0,0,0,6.732.069c1.336-.834-2.126-29.885-2.126-29.885Z" fill="#ecdac2"/>
      <path d="M19.509,12.583s-3.26,6.68-2.074,7.984,7.182,1.088,7.751-.381S23.051,12.6,23.051,12.6Z" fill="url(#a)"/>
    </g>
    <path d="M24.7,5.591s-3.3-.029-4.229,1.424-.954,3.2-2.261,3.2H15.982l1.043,2.012,6.416-.544,2.613-4.61Z" fill="url(#b)"/>
    <path d="M36.962,5.145a.385.385,0,0,1-.13.079,16.826,16.826,0,0,0-2.2.663c-.528.25-1.329.92-1.977.652-.449-.185-.731-.783-1.153-1.054a3.072,3.072,0,0,1-1.343-1.176A6.553,6.553,0,0,1,29.649,2C26.434.781,23.444-.071,21.5.005A26.352,26.352,0,0,0,14.277,1.85c-.5.532-1.034,1.043-1.492,1.617-.045.057-.555.925-.761,1.277-.019.283-.042.566-.075.848a5.948,5.948,0,0,1-1.036,3.345c-.286.361-.408-.2-.459-.462-.078-.407-.138-.812-.191-1.217A4.209,4.209,0,0,0,8.148,4.672c-.1-.045-.191-.093-.277-.142C3.516,6.521,0,8.415,0,8.415s9.953,7.905,22.231,6.741a78.008,78.008,0,0,0,10.353-1.738,6.19,6.19,0,0,1,.683-2.51q.157-.327.317,0c.325.342.963.191,1.353.518.273.23.359.586.6.828a1.1,1.1,0,0,0,.477.292c.8-.219,1.561-.439,2.28-.656l.067-.029a.04.04,0,0,1,.032,0C42.666,10.568,45.4,9.42,45.4,9.42S41.636,7.346,36.962,5.145ZM23.546,8.37c-.53.132-1.139-.213-1.639,0-.659.278-1.147,1.094-1.6,1.61-.668.752-1.833,1.272-2.7.425-.577-.567-.316-1.22.112-1.739a8.254,8.254,0,0,1,1.489-2.338,4.019,4.019,0,0,1,2.478-1.7,2.6,2.6,0,0,1,2.481,1.307C24.59,6.732,24.636,8.1,23.546,8.37Z" fill="url(#c)"/>
  </g>
</svg>
