<svg xmlns="http://www.w3.org/2000/svg" xmlns:xlink="http://www.w3.org/1999/xlink" width="40.656" height="166.246" viewBox="0 0 40.656 166.246">
  <defs>
    <linearGradient id="a" x1="32.337" y1="29.961" x2="3.836" y2="29.961" gradientUnits="userSpaceOnUse">
      <stop offset="0" stop-color="#932b4c"/>
      <stop offset="1" stop-color="#a73b6c"/>
    </linearGradient>
    <linearGradient id="b" x1="32.337" y1="17.891" x2="3.836" y2="17.891" xlink:href="#a"/>
    <linearGradient id="c" x1="32.337" y1="35.962" x2="3.836" y2="35.962" gradientUnits="userSpaceOnUse">
      <stop offset="0" stop-color="#eb4a7c"/>
      <stop offset="1" stop-color="#fab5b8"/>
    </linearGradient>
    <linearGradient id="d" x1="32.337" y1="65.179" x2="3.836" y2="65.179" xlink:href="#c"/>
  </defs>
  <title>Mushroom_29</title>
  <g>
    <path d="M20.328,70.926s3.885,54.091-6.57,95.32H24.33s3.7-61.843-1.233-95.32Z" fill="#e1dfed"/>
    <g>
      <g>
        <path d="M12.936,16.188S8.179,19.3,9.177,23.177s7.472,7.614,7.472,7.614l10.794,6.775-2.878,10.22-8.692-.177L7.18,33.69,2.365,21.709l3.054-9.573Z" fill="url(#a)"/>
        <path d="M18.516,7.79s2.819-2.584,5.462-2.056,5.109.822,5.285,2.467-1.82,2.995-1.82,2.995,2.584,1.821,2.878,4.053-1.88,5.05-1.88,5.05l-2.584,5.345s5.051-3.465,6.754-3.23,1.527.7,1.468,2.173-1.483,5.579-2.474,5.168-4.162,2-4.162,2l5.168,2.76,6.637-14.095L31.605,3.5l-9.8-2.231L17.047,4.192Z" fill="url(#b)"/>
        <path d="M23.978.037C10.822-.668.72,8.729.015,21.18S23.273,47.022,19.044,71.924h4.934S21.863,50.546,34.784,36.216,37.133.742,23.978.037ZM4.949,19.536s.117-1.175,2.114-2.584,7.576,1.82,10.454,4.7S15.168,31.165,11.174,32.1,3.774,25.057,4.949,19.536Zm12.6,25.225c-2.82-.529-3.452-9.842-1.146-10.4,4.405-1.058,7.312,3.964,7.312,6.519S20.366,45.29,17.547,44.761ZM21.158,7.672c-2.867-1.655.114-4.434,4.582-3.964,3.347.352,5.2,2.467,5.2,5.2S24.025,9.328,21.158,7.672Zm6.079,5.022c3.524-3.172,5.2,2.29,5.9,4.14s-2.555,2.643-4.581,2.379S25.389,14.358,27.237,12.694Zm2.643,18.06a7.51,7.51,0,0,1-2.2-7.136c.616-3.084,8.016-6.255,8.016,0C35.694,26.53,31.466,32.075,29.88,30.754Z" fill="url(#c)"/>
      </g>
      <path d="M23.356,59.348c1.126-8.551-3.8-3.1-3.8-3.1s2.046,10.26-3.683,15,1.947,3.191,2.568,1.852,1.039,2.285,2.99.592,3.682,3.128,4.166.993,4.089,3.669,4.171-.275S22.229,67.9,23.356,59.348Z" fill="url(#d)"/>
    </g>
  </g>
</svg>
