<svg xmlns="http://www.w3.org/2000/svg" xmlns:xlink="http://www.w3.org/1999/xlink" width="50.654" height="177.889" viewBox="0 0 50.654 177.889">
  <defs>
    <linearGradient id="a" x1="31.832" y1="32.783" x2="46.878" y2="32.783" gradientUnits="userSpaceOnUse">
      <stop offset="0" stop-color="#932b4c"/>
      <stop offset="1" stop-color="#a73b6c"/>
    </linearGradient>
    <linearGradient id="b" x1="13.523" y1="31.246" x2="28.521" y2="31.246" xlink:href="#a"/>
    <linearGradient id="c" x1="1.742" y1="17.833" x2="16.693" y2="17.833" xlink:href="#a"/>
    <linearGradient id="d" x1="10.022" y1="55.351" x2="22.559" y2="55.351" xlink:href="#a"/>
    <linearGradient id="e" x1="27.508" y1="20.104" x2="39.024" y2="20.104" xlink:href="#a"/>
    <linearGradient id="f" x1="49.635" y1="38.384" x2="-4.867" y2="38.384" gradientUnits="userSpaceOnUse">
      <stop offset="0" stop-color="#eb4a7c"/>
      <stop offset="1" stop-color="#fab5b8"/>
    </linearGradient>
    <linearGradient id="g" x1="49.635" y1="78.339" x2="-4.867" y2="78.339" xlink:href="#f"/>
  </defs>
  <title>Mushroom_32</title>
  <g>
    <path d="M19.475,79.867l-3.447-.353C6.547,112.931,4.8,177.889,4.8,177.889l13.342-.24C9.243,134.384,19.475,79.867,19.475,79.867Z" fill="#e1dfed"/>
    <g>
      <g>
        <path d="M31.832,40.495s6.293-1.277,6.435-5.062,3.5-5.11,3.5-8.327-2.656-7.617-2.656-7.617l6.536.283,1.23,10.456-5.587,9.677-5.674,6.173Z" fill="url(#a)"/>
        <polygon points="28.521 39.312 20.383 40.353 14.043 36.994 13.523 28.194 16.693 22.327 20.099 22.138 24.546 25.308 26.25 33.871 28.521 39.312" fill="url(#b)"/>
        <polygon points="9.185 25.261 2.641 22.8 1.742 17.801 3.776 13.054 7.892 10.405 15.037 12.061 16.693 16.271 16.361 20.955 9.185 25.261" fill="url(#c)"/>
        <path d="M15.936,47.639s-1.609,2.792.662,6.955,5.961,3.832,5.961,3.832l-5.488,4.637L10.022,48.254Z" fill="url(#d)"/>
        <path d="M27.716,27.011s-1.135-5.251,1.893-7.144,2.6-6.624-.521-7.665l.852-2.081,9.084,4.92L30.082,30.086Z" fill="url(#e)"/>
        <path d="M46.909,13.937C40.853-.446,25.284-5.2,9.186,6.872s-7.7,29.144,0,44.789,7.57,23.467,7.57,23.467l2.775,1.64S37.7,48,44.512,42.7,52.965,28.32,46.909,13.937ZM5.968,23.21c-4.605-2.271-2.838-7.633-1.45-9.777s7.475-1.546,10.282,1.261S9.422,24.913,5.968,23.21ZM21.487,54.373c-.442,3.218-2.46,6.813-4.858,3.785-.858-1.084-5.147-7.9-2.775-9.273S21.928,51.156,21.487,54.373Zm2.965-18.231c-.189,4.479-3.659,1.01-6.939-.757s-2.923-9.127-.631-10.534C20.478,22.643,24.641,31.663,24.452,36.142Zm4.794-10.408c-3.848,0-7.254-6.561-7.444-9.526s2.713-4.1,9.4-2.649,4.163,6.119,1.829,7.065S31.584,25.734,29.246,25.734ZM42.935,32.1c-2.271,2.271-2.9,8.642-5.488,8.706s-2.048-3.417-3.154-7c-1.83-5.93,2.081-12.3,6.434-12.364S45.206,29.834,42.935,32.1Z" fill="url(#f)"/>
      </g>
      <path d="M17.329,67.8s1.261,8.809-7.307,11.687,1.827,3.7,2.943,2.584-.059,4.347,2.877,3.289,4.112,4.165,5.228,2.232,4.522,4.816,5.52,1-8.4-8.634-4.992-16.621S17.329,67.8,17.329,67.8Z" fill="url(#g)"/>
    </g>
  </g>
</svg>
