<svg xmlns="http://www.w3.org/2000/svg" xmlns:xlink="http://www.w3.org/1999/xlink" width="58.849" height="49.687" viewBox="0 0 58.849 49.687">
  <defs>
    <linearGradient id="a" x1="23.176" y1="16.315" x2="32.023" y2="16.315" gradientUnits="userSpaceOnUse">
      <stop offset="0" stop-color="#932b4c"/>
      <stop offset="1" stop-color="#a73b6c"/>
    </linearGradient>
    <linearGradient id="b" x1="0" y1="10.846" x2="25.079" y2="10.846" xlink:href="#a"/>
    <linearGradient id="c" y1="7.576" x2="58.849" y2="7.576" gradientUnits="userSpaceOnUse">
      <stop offset="0" stop-color="#eb4a7c"/>
      <stop offset="1" stop-color="#fab5b8"/>
    </linearGradient>
  </defs>
  <title>Mushroom_51</title>
  <g>
    <g>
      <path d="M25.372,19.029S22.2,49.687,29.6,49.687s-.353-30.658-.353-30.658Z" fill="#e1dfed"/>
      <path d="M24.667,12.334s-2.819,7.752-.705,8.1,6.343.353,7.753-.7-2.467-7.753-2.467-7.753Z" fill="url(#a)"/>
    </g>
    <g>
      <path d="M0,8.105s14.992,6.763,25.079,6.833L14.991,6.754,3.274,7.5Z" fill="url(#b)"/>
      <path d="M0,8.105c12.334,0,13.743,7.048,29.6,7.048s18.324-3.172,29.248-1.41C58.849,13.743,38.763,0,28.9,0S0,8.105,0,8.105Z" fill="url(#c)"/>
    </g>
  </g>
</svg>
