<svg xmlns="http://www.w3.org/2000/svg" xmlns:xlink="http://www.w3.org/1999/xlink" width="58.144" height="50.991" viewBox="0 0 58.144 50.991">
  <defs>
    <linearGradient id="a" x1="26.097" y1="18.046" x2="34.186" y2="18.046" gradientUnits="userSpaceOnUse">
      <stop offset="0" stop-color="#434180"/>
      <stop offset="1" stop-color="#467baf"/>
    </linearGradient>
    <linearGradient id="b" x1="0" y1="13.747" x2="58.144" y2="13.747" xlink:href="#a"/>
    <linearGradient id="c" y1="8.126" x2="58.144" y2="8.126" gradientUnits="userSpaceOnUse">
      <stop offset="0" stop-color="#65bad7"/>
      <stop offset="1" stop-color="#c3faf5"/>
    </linearGradient>
  </defs>
  <title>Mushroom_16</title>
  <g>
    <g>
      <path d="M28.394,20.706s-3.336,28.28-1.1,29.484a7.757,7.757,0,0,0,6.732.069c1.337-.834-2.125-29.885-2.125-29.885Z" fill="#ecdac2"/>
      <path d="M28.431,13.624s-3.26,6.68-2.075,7.984,7.183,1.088,7.751-.381-2.135-7.585-2.135-7.585Z" fill="url(#a)"/>
    </g>
    <g>
      <path d="M23.447,12.2a3.258,3.258,0,0,1-2.537,1.419,2.542,2.542,0,0,1-2.044-.718,1.156,1.156,0,0,1-.224-.672L0,12.341c5.908,3.411,13.915,3.239,28.25,3.113s29.894-3.465,29.894-3.465Z" fill="url(#b)"/>
      <path d="M39.678,2.857c-.175,1.191-.356,2.386-.531,3.593.015-.1-.326,1.918-.579,1.178-.74-2.16-1.834-4.159-2.767-6.22A21.021,21.021,0,0,0,28.9.007a10.814,10.814,0,0,0-3.257.709A12.284,12.284,0,0,0,23.61,2.35c-1.092,1.1-1.646,2.848-3.436,2.8a6.939,6.939,0,0,1-1.856-.332C13.5,7.936,7.844,11.557,0,12.341A25.062,25.062,0,0,0,9.514,14.1c5.639,0,11.629,2.467,19.382,2.114s10.219-4.228,16.562-3.876a87.611,87.611,0,0,0,12.686-.352A180.835,180.835,0,0,0,39.678,2.857ZM20.91,13.618a2.542,2.542,0,0,1-2.044-.718,1.455,1.455,0,0,1,.573-2.018,3.278,3.278,0,0,1,1.32-.423c.733-.152.789-.461.784-1.136-.006-.792.149-1.63,1.071-1.766a1.443,1.443,0,0,1,1.762,1.4,1.621,1.621,0,0,1-.022.184.769.769,0,0,1,.077.354C24.417,11.342,22.892,13.628,20.91,13.618Z" fill="url(#c)"/>
    </g>
  </g>
</svg>
