<svg xmlns="http://www.w3.org/2000/svg" xmlns:xlink="http://www.w3.org/1999/xlink" width="52.506" height="48.964" viewBox="0 0 52.506 48.964">
  <defs>
    <linearGradient id="a" x1="14.163" y1="8.977" x2="21.717" y2="8.977" gradientUnits="userSpaceOnUse">
      <stop offset="0" stop-color="#932b4c"/>
      <stop offset="1" stop-color="#a73b6c"/>
    </linearGradient>
    <linearGradient id="b" x1="21.985" y1="16.019" x2="30.075" y2="16.019" xlink:href="#a"/>
    <linearGradient id="c" x1="16.562" y1="11.032" x2="52.506" y2="11.032" xlink:href="#a"/>
    <linearGradient id="d" y1="7.278" x2="52.506" y2="7.278" gradientUnits="userSpaceOnUse">
      <stop offset="0" stop-color="#eb4a7c"/>
      <stop offset="1" stop-color="#fab5b8"/>
    </linearGradient>
  </defs>
  <title>Mushroom_42</title>
  <g>
    <path d="M16.783,6.719s-.44,1.74.749,2.159,4.185-.463,4.185-.463l-.991,2.731-5.066.088-1.5-3.391Z" fill="url(#a)"/>
    <g>
      <path d="M24.283,18.679s-3.336,28.28-1.1,29.484a7.753,7.753,0,0,0,6.732.069c1.337-.834-2.126-29.885-2.126-29.885Z" fill="#e1dfed"/>
      <path d="M24.32,11.6s-3.261,6.68-2.075,7.984S29.427,20.669,30,19.2s-2.135-7.585-2.135-7.585Z" fill="url(#b)"/>
    </g>
    <g>
      <path d="M36.3,7.508H21.5l-.788.844a1.389,1.389,0,0,1-.256,1.258.485.485,0,0,1-.384.359l-.088.015a1.815,1.815,0,0,1-.422.161,3.362,3.362,0,0,1-.592.073l-2.4,2.576c9.162.7,23.963-1.057,35.944,1.762Z" fill="url(#c)"/>
      <path d="M38.087,2.742c-1.527,1.634-3.409,3.154-4.9,2.2C31.769,4.03,31.626,1.955,31.1.4A22.178,22.178,0,0,0,28.9.108a41.136,41.136,0,0,0-7.313.127c-.731,1.023-1.615,1.938-2.342,1.71A2.826,2.826,0,0,1,17.98.718,81.105,81.105,0,0,0,0,6.1,22.387,22.387,0,0,0,5.03,9.567a8.34,8.34,0,0,1,2.8-1.677A2.758,2.758,0,0,1,11.3,9.09a7.6,7.6,0,0,0,1.576,2.228c.47.4.926.807,1.369,1.226.748.109,1.52.2,2.321.25,10.572.7,11.629-2.115,22.2-1.057s13.743,2.819,13.743,2.819A45.7,45.7,0,0,0,38.087,2.742ZM20.452,9.61a.485.485,0,0,1-.384.359l-.088.015a1.815,1.815,0,0,1-.422.161,4.074,4.074,0,0,1-1.034.076c-1.329.151-2.822.055-2.625-1.437.2-1.519,2.451-1.786,3.634-1.5A1.454,1.454,0,0,1,20.452,9.61Z" fill="url(#d)"/>
    </g>
  </g>
</svg>
