<svg xmlns="http://www.w3.org/2000/svg" xmlns:xlink="http://www.w3.org/1999/xlink" width="63.612" height="180.672" viewBox="0 0 63.612 180.672">
  <defs>
    <linearGradient id="a" x1="22.304" y1="41.961" x2="54.9" y2="41.961" gradientUnits="userSpaceOnUse">
      <stop offset="0" stop-color="#932b4c"/>
      <stop offset="1" stop-color="#a73b6c"/>
    </linearGradient>
    <linearGradient id="b" x1="40.276" y1="28.702" x2="57.543" y2="28.702" xlink:href="#a"/>
    <linearGradient id="c" x1="17.635" y1="14.122" x2="37.105" y2="14.122" xlink:href="#a"/>
    <linearGradient id="d" x1="5.037" y1="42.842" x2="27.502" y2="42.842" xlink:href="#a"/>
    <linearGradient id="e" y1="39.635" x2="63.612" y2="39.635" gradientUnits="userSpaceOnUse">
      <stop offset="0" stop-color="#eb4a7c"/>
      <stop offset="1" stop-color="#fab5b8"/>
    </linearGradient>
    <linearGradient id="f" x1="27.33" y1="80.267" x2="46.016" y2="80.267" xlink:href="#e"/>
  </defs>
  <title>Mushroom_33</title>
  <g>
    <path d="M34,85.351s10.814,50.344-2.191,95.321H42.985s8.31-61.844-2.77-95.321Z" fill="#e1dfed"/>
    <g>
      <g>
        <path d="M35.7,23.769s-4.228,3.788-4.052,6.607,7.4,7.665,7.4,7.665L50.76,39.362,54.9,46.41l-3.589,6.217L38.69,60.682l-7.312-8.193L28.207,41.565,22.3,28.174l4.67-4.934Z" fill="url(#a)"/>
        <path d="M40.276,23.505s5.991-2.291,7.753,3-2.2,9.691-2.2,9.691l5.815,1.762,5.9-13.832L52.61,19.452l-7.753.265Z" fill="url(#b)"/>
        <path d="M25.916,5.8S22.04,8.528,23.978,11,37.1,17.426,37.1,17.426l-5.55,5.022-13.92-4.141L17.812,8Z" fill="url(#c)"/>
        <path d="M15.961,32.314s-3.259,5.2-1.321,9.779S27.5,51.784,27.5,51.784L16.314,53.37l-10.4-7.665L5.037,34.693Z" fill="url(#d)"/>
        <path d="M36.312,0C-1.746,0-2.775,26.02,2.013,40.272c5.051,15.036,20.673,17.385,31.245,39h6.813s.7-16.435,12.92-25.954S74.37,0,36.312,0Zm-8.9,6.414c4.933,0,6.607,2.379,8.722,5.022s-2.579,7.446-4.33,8.457-8.621-4.141-10.823-6.7S23.61,6.414,27.414,6.414ZM21.981,49.9c-4.346.353-12.1-2.7-13.038-5.873s-2.936-5.99,2.232-8.574c3.068-1.535,10.1-3.183,11.511.581S26.328,49.552,21.981,49.9Zm6.138-15.828c-1.366-1.365,1.5-9.338,5.462-9.338,6.607,0,4.669,10.572,3.348,13.479S29.484,35.442,28.119,34.076ZM43.125,56.952c-1.762,1.762-7.512-1.411-7.635-6.343-.118-4.7,2.114-10.806,7.047-10.974s9.591,3.5,9.75,6.746C52.592,52.606,44.887,55.19,43.125,56.952Zm5.08-20.914c-2.026-.152-6.872-3.547-8.545-7.071s4.669-7.4,8.016-7.224a7.075,7.075,0,0,1,5.11,3.964C54.284,29.143,50.231,36.191,48.205,36.038Z" fill="url(#e)"/>
      </g>
      <path d="M40.686,74.754C42,66.2,30.674,71.341,30.674,71.341S36.482,81.41,29.8,86.149s2.273,3.192,3,1.853,1.212,2.284,3.49.591,4.3,3.128,4.863.993,4.773,3.67,4.869-.275S39.371,83.3,40.686,74.754Z" fill="url(#f)"/>
    </g>
  </g>
</svg>
