<svg xmlns="http://www.w3.org/2000/svg" xmlns:xlink="http://www.w3.org/1999/xlink" width="45.403" height="49.95" viewBox="0 0 45.403 49.95">
  <defs>
    <linearGradient id="a" x1="17.175" y1="17.005" x2="25.264" y2="17.005" gradientUnits="userSpaceOnUse">
      <stop offset="0" stop-color="#434180"/>
      <stop offset="1" stop-color="#467baf"/>
    </linearGradient>
    <linearGradient id="b" y1="7.637" x2="45.403" y2="7.637" gradientUnits="userSpaceOnUse">
      <stop offset="0" stop-color="#65bad7"/>
      <stop offset="1" stop-color="#c3faf5"/>
    </linearGradient>
  </defs>
  <title>Mushroom_21</title>
  <g>
    <g>
      <path d="M19.473,19.665s-3.336,28.28-1.1,29.484a7.757,7.757,0,0,0,6.732.069c1.336-.834-2.126-29.885-2.126-29.885Z" fill="#ecdac2"/>
      <path d="M19.509,12.583s-3.26,6.68-2.074,7.984,7.182,1.088,7.751-.381S23.051,12.6,23.051,12.6Z" fill="url(#a)"/>
    </g>
    <path d="M0,8.415s9.953,7.905,22.231,6.741A89.465,89.465,0,0,0,45.4,9.42S27.85-.243,21.5.005,0,8.415,0,8.415Z" fill="url(#b)"/>
  </g>
</svg>
