<svg xmlns="http://www.w3.org/2000/svg" xmlns:xlink="http://www.w3.org/1999/xlink" width="63.629" height="55.96" viewBox="0 0 63.629 55.96">
  <defs>
    <linearGradient id="a" y1="15.681" x2="63.346" y2="15.681" gradientUnits="userSpaceOnUse">
      <stop offset="0" stop-color="#932b4c"/>
      <stop offset="1" stop-color="#a73b6c"/>
    </linearGradient>
    <linearGradient id="b" y1="8.203" x2="63.629" y2="8.203" gradientUnits="userSpaceOnUse">
      <stop offset="0" stop-color="#eb4a7c"/>
      <stop offset="1" stop-color="#fab5b8"/>
    </linearGradient>
    <linearGradient id="c" x1="28.765" y1="22.589" x2="37.613" y2="22.589" xlink:href="#a"/>
  </defs>
  <title>Mushroom_53</title>
  <g>
    <g>
      <path d="M0,11.631S12.361,20.4,33.2,20.27s30.147-9.181,30.147-9.181Z" fill="url(#a)"/>
      <path d="M0,11.631S17,16.559,30.368,16.4s33.261-5.181,33.261-5.181S38.19-.851,28.06.048,14.216,7.453,0,11.631Z" fill="url(#b)"/>
    </g>
    <g>
      <path d="M30.961,25.3S27.79,55.96,35.19,55.96,34.837,25.3,34.837,25.3Z" fill="#e1dfed"/>
      <path d="M30.256,18.607s-2.819,7.753-.7,8.105,6.343.352,7.752-.7-2.467-7.752-2.467-7.752Z" fill="url(#c)"/>
    </g>
  </g>
</svg>
