<svg xmlns="http://www.w3.org/2000/svg" xmlns:xlink="http://www.w3.org/1999/xlink" width="52.78" height="49.256" viewBox="0 0 52.78 49.256">
  <defs>
    <linearGradient id="a" x1="22.345" y1="16.311" x2="30.434" y2="16.311" gradientUnits="userSpaceOnUse">
      <stop offset="0" stop-color="#932b4c"/>
      <stop offset="1" stop-color="#a73b6c"/>
    </linearGradient>
    <linearGradient id="b" x1="0" y1="9.828" x2="32.85" y2="9.828" xlink:href="#a"/>
    <linearGradient id="c" y1="7.258" x2="52.78" y2="7.258" gradientUnits="userSpaceOnUse">
      <stop offset="0" stop-color="#eb4a7c"/>
      <stop offset="1" stop-color="#fab5b8"/>
    </linearGradient>
  </defs>
  <title>Mushroom_48</title>
  <g>
    <g>
      <path d="M24.643,18.971s-3.336,28.279-1.1,29.483a7.757,7.757,0,0,0,6.732.07c1.337-.835-2.126-29.886-2.126-29.886Z" fill="#e1dfed"/>
      <path d="M24.679,11.888s-3.26,6.68-2.074,7.984,7.182,1.089,7.751-.381-2.135-7.585-2.135-7.585Z" fill="url(#a)"/>
    </g>
    <g>
      <path d="M0,14.516s4.065,1.96,11.5.351,17.323-1.743,21.35-.894L30.594,4.156,13.665,7.969S4.6,12.7,0,14.516Z" fill="url(#b)"/>
      <path d="M0,14.516s4.118-1.192,9.739-7.4S25.02-1.77,35.056,1.236s11.712,6.5,17.724,5.185c0,0-6.714,5.561-14.467,7.322S22.927,10.174,16.929,10.7,0,14.516,0,14.516Z" fill="url(#c)"/>
    </g>
  </g>
</svg>
