<svg xmlns="http://www.w3.org/2000/svg" xmlns:xlink="http://www.w3.org/1999/xlink" width="42.876" height="25.531" viewBox="0 0 42.876 25.531">
  <defs>
    <linearGradient id="a" y1="6.565" x2="42.876" y2="6.565" gradientUnits="userSpaceOnUse">
      <stop offset="0" stop-color="#65bad7"/>
      <stop offset="1" stop-color="#c3faf5"/>
    </linearGradient>
  </defs>
  <title>Mushroom_18</title>
  <g>
    <path d="M20.126,11.334s-4.164,14.2,2.081,14.2.047-13.94.047-13.94Z" fill="#ecdac2"/>
    <path d="M30.621,5.6l-.154-.158A10.192,10.192,0,0,1,28.272,7a.771.771,0,0,1-.3-.625,22.564,22.564,0,0,1-.645-4.035A10.14,10.14,0,0,0,21.946.117a10.024,10.024,0,0,0-4.317.256c-.041.445-.088.886-.146,1.313-.1.754-.237,2.105-1.108,2.413s-2.089-.234-3.217-.856C10.28,5.906,7.369,9.32,0,9.84c0,0,4.437,2.4,20.744,3.144S42.876,11.4,42.876,11.4,33.169,8.181,30.621,5.6Zm-.164,5.873a1.3,1.3,0,0,1-.467-1.784c.253-.495.816-1.116,1.442-.924a1.183,1.183,0,0,1,.741,1.123.208.208,0,0,1,.021.021.83.83,0,0,1,0,1A1.513,1.513,0,0,1,30.457,11.471Z" fill="url(#a)"/>
  </g>
</svg>
