<svg xmlns="http://www.w3.org/2000/svg" xmlns:xlink="http://www.w3.org/1999/xlink" width="52.78" height="49.253" viewBox="0 0 52.78 49.253">
  <defs>
    <linearGradient id="a" x1="22.345" y1="16.308" x2="30.434" y2="16.308" gradientUnits="userSpaceOnUse">
      <stop offset="0" stop-color="#932b4c"/>
      <stop offset="1" stop-color="#a73b6c"/>
    </linearGradient>
    <linearGradient id="b" x1="0" y1="9.826" x2="32.85" y2="9.826" xlink:href="#a"/>
    <linearGradient id="c" y1="7.257" x2="52.78" y2="7.257" gradientUnits="userSpaceOnUse">
      <stop offset="0" stop-color="#eb4a7c"/>
      <stop offset="1" stop-color="#fab5b8"/>
    </linearGradient>
  </defs>
  <title>Mushroom_41</title>
  <g>
    <g>
      <path d="M24.643,18.968s-3.336,28.28-1.1,29.483a7.754,7.754,0,0,0,6.732.07c1.337-.835-2.126-29.886-2.126-29.886Z" fill="#e1dfed"/>
      <path d="M24.679,11.885s-3.26,6.681-2.074,7.984,7.182,1.089,7.751-.381S28.221,11.9,28.221,11.9Z" fill="url(#a)"/>
    </g>
    <g>
      <path d="M31.2,6.776l-.6-2.623L13.665,7.966S4.6,12.7,0,14.513c0,0,4.065,1.96,11.5.351s17.323-1.743,21.35-.894l-.668-2.906A4.553,4.553,0,0,1,31.2,6.776Z" fill="url(#b)"/>
      <path d="M40.8,3.316c-.625.736-1.266,1.457-1.941,2.15-.153.157-.414-1.309-.425-1.364l0,.022c0-.024,0-.027,0-.022q-.148-.9-.262-1.833c-.943-.346-1.971-.694-3.112-1.036A27.986,27.986,0,0,0,23.719.183a5.188,5.188,0,0,0-.912,2.427c0,.081-.148,2.358-.514,2.269a12.232,12.232,0,0,1-5.326-2.893A20.962,20.962,0,0,0,9.739,7.112C4.118,13.322,0,14.513,0,14.513S10.931,11.23,16.929,10.7s13.632,4.8,21.384,3.04S52.78,6.418,52.78,6.418C48.148,7.433,46.087,5.59,40.8,3.316Zm-4.5,7.765a3.484,3.484,0,0,1-4.013.07c-1.593-1.189-2.089-5.987.881-5.478,1.2.2,1.261,1.662,2.37,1.913.913.206,1.95.007,2.365,1.074C38.383,9.9,37.432,10.779,36.3,11.081Z" fill="url(#c)"/>
    </g>
  </g>
</svg>
