<svg xmlns="http://www.w3.org/2000/svg" xmlns:xlink="http://www.w3.org/1999/xlink" width="200.286" height="257.605" viewBox="0 0 200.286 257.605">
  <defs>
    <linearGradient id="a" x1="108.87" y1="10.187" x2="165.735" y2="10.187" gradientUnits="userSpaceOnUse">
      <stop offset="0" stop-color="#434180"/>
      <stop offset="1" stop-color="#467baf"/>
    </linearGradient>
    <linearGradient id="b" x1="108.87" y1="8.368" x2="165.735" y2="8.368" gradientUnits="userSpaceOnUse">
      <stop offset="0" stop-color="#65bad7"/>
      <stop offset="1" stop-color="#c3faf5"/>
    </linearGradient>
    <linearGradient id="c" x1="80.727" y1="95.451" x2="168.104" y2="95.451" xlink:href="#a"/>
    <linearGradient id="d" x1="80.727" y1="90.546" x2="168.104" y2="90.546" xlink:href="#b"/>
    <linearGradient id="e" x1="50.932" y1="148.181" x2="122.544" y2="148.181" xlink:href="#a"/>
    <linearGradient id="f" x1="50.932" y1="146.629" x2="163.897" y2="146.629" xlink:href="#b"/>
    <linearGradient id="g" x1="0" y1="190.769" x2="126.445" y2="190.769" xlink:href="#a"/>
    <linearGradient id="h" x1="42.185" y1="175.949" x2="60.31" y2="175.949" xlink:href="#a"/>
    <linearGradient id="i" x1="0" y1="177.23" x2="126.988" y2="177.23" xlink:href="#b"/>
    <linearGradient id="j" x1="39.92" y1="114.347" x2="108.49" y2="114.347" xlink:href="#b"/>
    <linearGradient id="k" x1="72.843" y1="27.042" x2="130.233" y2="27.042" xlink:href="#b"/>
    <linearGradient id="l" x1="93.537" y1="61.602" x2="158.288" y2="61.602" xlink:href="#a"/>
    <linearGradient id="m" x1="93.537" y1="57.15" x2="200.286" y2="57.15" xlink:href="#b"/>
  </defs>
  <title>Mushroom_10</title>
  <g>
    <path d="M128.159,126.716s2.023-56.291,16.456-61.919l-1.872-1.572S131.188,61.107,123.3,99.154Z" fill="#ecdac2"/>
    <path d="M41.012,257.605s-7.988-49.656,16.471-75.789,53.2-38.812,54.905-65.509-9-61.783-2.189-77.431,26.61-31.8,26.61-31.8l2.943,2.869s-26.541,23.766-23.876,44.935,18.257,63.717,10.405,78.181-45.727,47.779-49.593,66.3,8.6,57.514,8.6,57.514Z" fill="#ecdac2"/>
    <g>
      <path d="M108.87,3.743s6.013,5.949,18.2,9.268,38.661,3.62,38.661,3.62Z" fill="url(#a)"/>
      <path d="M108.87,3.743S143.213,18.1,165.735,16.631c0,0-13.04-10.139-21.661-14.785S120.119,2.657,108.87,3.743Z" fill="url(#b)"/>
    </g>
    <g>
      <path d="M80.727,87.473s10.126,16.286,36.283,15.951,32.076-5.541,51.094-2.535l-46.65-11.031-29.064.373Z" fill="url(#c)"/>
      <path d="M80.727,87.473a92.47,92.47,0,0,0,39.3,10.782c22.068.744,33.334-.768,48.082,2.634,0,0-21.466-20.586-40.447-20.685S93.394,88.508,80.727,87.473Z" fill="url(#d)"/>
    </g>
    <g>
      <path d="M122.38,149.628,67.007,137.749l-16.075-.136s13.46,9.574,22.217,12.369,29.014,6.688,45.1,8.766l4.3-7.392A4.983,4.983,0,0,1,122.38,149.628Z" fill="url(#e)"/>
      <path d="M147.427,149.889c-2.3,1.615-4.6,3.24-6.865,4.914l-.225-.232a23.625,23.625,0,0,1-1.768-7.078,16.623,16.623,0,0,0-.671-2.635c-8.062-4.058-16.782-7.9-24.246-9.929-20.419-5.552-62.72,2.684-62.72,2.684S77.7,145.136,99.021,154.1s64.876,5.5,64.876,5.5S156.931,155.129,147.427,149.889Zm-17.913,4.393c-.878,1.1-2.635.935-3.819.52a5.019,5.019,0,0,1-3.022-3.025,4.852,4.852,0,0,1,4.059-6.582,2.786,2.786,0,0,1,.628.011,1.517,1.517,0,0,1,1.6,1.644,3.684,3.684,0,0,1-.148,1.278C129.214,150.132,131,152.42,129.514,154.282Z" fill="url(#f)"/>
    </g>
    <g>
      <path d="M0,179.474s23.332,19.365,64.92,22.253,61.525-13.756,61.525-13.756Z" fill="url(#g)"/>
      <path d="M51.372,169.012s-4.562,4.125-.75,5.687,9.688-1.687,9.688-1.687l-5.937,9.875-12.188-1.313,2.875-9.312Z" fill="url(#h)"/>
      <path d="M57.725,160.61a45.913,45.913,0,0,0-8.178.822c-1.64,1.905-3.663,3.457-5.156,5.489a47.984,47.984,0,0,0-4.94,8.317q-.225.464-.449,0a15.388,15.388,0,0,0-7.056-7.343C23.721,171.79,14.4,176.4,0,179.474c0,0,33.16,12.4,59.857,14.11s67.131-5.305,67.131-5.305S78.069,160.349,57.725,160.61Zm-1.891,15.927c-1.788,1.037-5.231,1.208-7.249.8-1.983-.4-1.848-2.734-.773-4.037,1.138-1.379,2.944-1.723,4.555-2.355.208-.26.418-.514.638-.747a2.817,2.817,0,0,1,3.664-.647,1.137,1.137,0,0,1,.287,1.369c-.014.025-.032.052-.048.078a1.181,1.181,0,0,1,.049.119C57.469,172.75,57.536,175.55,55.834,176.537Z" fill="url(#i)"/>
    </g>
    <g>
      <path d="M77.272,163.341s8.719-7.51-3.673-22.712-2.589-24.106-2.589-24.106l1.98,1.058s-6.5,10.827,6.116,21.353,6.742,19.121,6.742,19.121L80,163.973Z" fill="#ecdac2"/>
      <path d="M89.894,115.635a33.11,33.11,0,0,0,9.573,3.218c6.79-1.7,9.023-3.158,9.023-3.158s-16.867-8.716-36.711-9.277a39.885,39.885,0,0,0-9.541,1.12c-1.862,1.913-3.725,3.826-5.453,5.865l-.225.232a10.771,10.771,0,0,1-2.628-3.749,128.43,128.43,0,0,0-14.012,5.66s22,8.781,42.487,6.3c2.443-.3,4.668-.61,6.7-.931C89.232,118.965,89.523,115.453,89.894,115.635Z" fill="url(#j)"/>
    </g>
    <g>
      <path d="M107.931,51.687s.775-12.6-6.3-21.122l2.775-1.917s7.781,6.7,7.345,14.376S107.931,51.687,107.931,51.687Z" fill="#ecdac2"/>
      <path d="M72.843,36.551A107.171,107.171,0,0,0,101.945,32a131.93,131.93,0,0,0,28.288-13.034s-16.977-4.054-30.861,1.5S72.843,36.551,72.843,36.551Z" fill="url(#k)"/>
    </g>
    <g>
      <path d="M93.537,60.389S100.788,65.768,116,65.4s34.693,3.088,42.287,6.269l-.743-20.138-34.7,1.128S103.26,58.555,93.537,60.389Z" fill="url(#l)"/>
      <path d="M167.411,47.474a56.049,56.049,0,0,0-21.54-6.3c-.537.292-1.068.6-1.59.918-2.238,1.379-3.82,3.6-6.053,4.877L138,46.735a17.326,17.326,0,0,1-2.879-5.23,42.59,42.59,0,0,0-19.669,8C102.076,59.6,93.537,60.389,93.537,60.389s22.712-2.342,34.7-1.128c10.99,1.114,22.831,12.417,36.977,13.867q.828-.608,1.678-1.19A34.272,34.272,0,0,1,171.4,68.87c2.675-1.229,5.706,1.288,8.4,1.57,1.57.164,3.064.163,4.529.246a86.242,86.242,0,0,0,15.956-6.363C187.979,64.652,186,57.153,167.411,47.474Z" fill="url(#m)"/>
    </g>
  </g>
</svg>
