<svg xmlns="http://www.w3.org/2000/svg" xmlns:xlink="http://www.w3.org/1999/xlink" width="58.144" height="50.991" viewBox="0 0 58.144 50.991">
  <defs>
    <linearGradient id="a" x1="26.097" y1="18.046" x2="34.186" y2="18.046" gradientUnits="userSpaceOnUse">
      <stop offset="0" stop-color="#434180"/>
      <stop offset="1" stop-color="#467baf"/>
    </linearGradient>
    <linearGradient id="b" x1="0" y1="13.747" x2="58.144" y2="13.747" xlink:href="#a"/>
    <linearGradient id="c" y1="8.126" x2="58.144" y2="8.126" gradientUnits="userSpaceOnUse">
      <stop offset="0" stop-color="#65bad7"/>
      <stop offset="1" stop-color="#c3faf5"/>
    </linearGradient>
  </defs>
  <title>Mushroom_23</title>
  <g>
    <g>
      <path d="M28.394,20.706s-3.336,28.28-1.1,29.484a7.757,7.757,0,0,0,6.732.069c1.337-.834-2.125-29.885-2.125-29.885Z" fill="#ecdac2"/>
      <path d="M28.431,13.624s-3.26,6.68-2.075,7.984,7.183,1.088,7.751-.381-2.135-7.585-2.135-7.585Z" fill="url(#a)"/>
    </g>
    <g>
      <path d="M58.144,11.989S42.585,15.328,28.25,15.454,5.908,15.752,0,12.341Z" fill="url(#b)"/>
      <path d="M0,12.341A25.062,25.062,0,0,0,9.514,14.1c5.639,0,11.629,2.467,19.382,2.114s10.219-4.228,16.562-3.876a87.611,87.611,0,0,0,12.686-.352S36.648-.345,28.9.007,14.1,10.931,0,12.341Z" fill="url(#c)"/>
    </g>
  </g>
</svg>
