<svg xmlns="http://www.w3.org/2000/svg" xmlns:xlink="http://www.w3.org/1999/xlink" width="144.151" height="236.909" viewBox="0 0 144.151 236.909">
  <defs>
    <linearGradient id="a" y1="130.494" x2="55.512" y2="130.494" gradientUnits="userSpaceOnUse">
      <stop offset="0" stop-color="#65bad7"/>
      <stop offset="1" stop-color="#c3faf5"/>
    </linearGradient>
    <linearGradient id="b" x1="58.851" y1="8.971" x2="97.714" y2="8.971" gradientUnits="userSpaceOnUse">
      <stop offset="0" stop-color="#434180"/>
      <stop offset="1" stop-color="#467baf"/>
    </linearGradient>
    <linearGradient id="c" x1="58.851" y1="6.42" x2="113.838" y2="6.42" xlink:href="#a"/>
    <linearGradient id="d" x1="23.721" y1="172.359" x2="140.039" y2="172.359" xlink:href="#b"/>
    <linearGradient id="e" x1="23.721" y1="161.113" x2="140.039" y2="161.113" xlink:href="#a"/>
    <linearGradient id="f" x1="83.525" y1="110.252" x2="144.151" y2="110.252" xlink:href="#a"/>
    <linearGradient id="g" x1="33.59" y1="21.298" x2="93.568" y2="21.298" xlink:href="#a"/>
    <linearGradient id="h" x1="9.269" y1="89.103" x2="60.026" y2="89.103" xlink:href="#a"/>
    <linearGradient id="i" x1="35" y1="65.252" x2="106.906" y2="65.252" xlink:href="#b"/>
    <linearGradient id="j" x1="34.192" y1="58.481" x2="46.776" y2="58.481" xlink:href="#b"/>
    <linearGradient id="k" x1="1.867" y1="57.742" x2="106.906" y2="57.742" xlink:href="#a"/>
  </defs>
  <title>Mushroom_9</title>
  <g>
    <g>
      <path d="M72.12,142.018s-4.494-10.593-22.751-3.427-23.746-4.885-23.746-4.885l1.611-1.563s8.329,9.494,22.2.687,20.267-.591,20.267-.591l3.851,7.377Z" fill="#ecdac2"/>
      <path d="M22.1,123.244C11.855,126.437,0,140.471,0,140.471a91.1,91.1,0,0,0,17.192-.591,36.181,36.181,0,0,0,3.65-5.041c.386-.641.569.4.652.656a13.752,13.752,0,0,1,.381,3.643,55.714,55.714,0,0,0,15.014-4.917c15.57-8.012,18.623-12.9,18.623-12.9S38.369,118.171,22.1,123.244Zm19.083,2.717A4,4,0,0,1,39.4,128.95a3.613,3.613,0,0,1-2.791.967,5.506,5.506,0,0,1-1.194-.152,3.133,3.133,0,0,1-2.589-1.192,2.355,2.355,0,0,1,1.2-3.258,5.792,5.792,0,0,1,2.377-.4c.419-.01,1.8.158,2.051-.29a1.09,1.09,0,0,1,.158-.214.925.925,0,0,1,.5-.784.723.723,0,0,1,.256-.149C40.982,122.963,41.345,124.757,41.178,125.961Z" fill="url(#a)"/>
    </g>
    <path d="M57.206,236.909H80.117s31.019-52.465,11.632-90.56S49.8,80.409,64.256,61.727,87.167,7.8,87.167,7.8H82.232S72.363,41.283,55.091,58.555,66.753,135.748,76.607,150.9,72.01,217.17,57.206,236.909Z" fill="#ecdac2"/>
    <path d="M116.951,114.511S96.067,164.444,96.6,177.369s-11.28-9.81-11.28-9.81,20.18-36.217,26.613-55.163Z" fill="#ecdac2"/>
    <g>
      <path d="M58.851,5.33s5.64,3.966,11.456,5.111,27.407,2.17,27.407,2.17l-27.5-6.487Z" fill="url(#b)"/>
      <path d="M98.9,9.105c-.462.168-.749-4.313-.825-5.944A43.963,43.963,0,0,0,88.459.4C75.065-1.719,58.851,5.33,58.851,5.33s9.87,4.23,28.2,6.345,26.788.705,26.788.705a66.368,66.368,0,0,0-9.265-6.1A31.993,31.993,0,0,1,98.9,9.105Z" fill="url(#c)"/>
    </g>
    <g>
      <path d="M140.039,168.84s-31.127,6.681-59.8,6.933-44.695.6-56.514-6.228Z" fill="url(#d)"/>
      <path d="M119.71,158.1c-2.881,2.107-5.733,4.264-8.641,6.338-.239.17-.573-1.724-.6-1.9a33.923,33.923,0,0,1-.247-4.6,36.424,36.424,0,0,1,.011-4.307c-10.941-4.917-22.226-9.057-28.708-8.762-6.673.3-13.087,4.392-20.473,9.177.034,1.095.029,2.192-.005,3.287a16.469,16.469,0,0,1-.388,3.884c-.055.183-.272,1.3-.651.655a15.617,15.617,0,0,0-4.2-4.467q-1.4.875-2.849,1.743c-.01.9-.048,1.663-.048,1.957,0,.5-.156,6.7-.845,6.5-2.9-.843-5.475-2.388-8.206-3.63a62.934,62.934,0,0,1-20.141,5.567,50.138,50.138,0,0,0,19.034,3.525c11.279,0,23.263,4.935,38.772,4.23s20.444-8.46,33.133-7.755a175.066,175.066,0,0,0,25.379-.7S131,163.653,119.71,158.1Z" fill="url(#e)"/>
    </g>
    <path d="M117.363,99.942a35.654,35.654,0,0,0-6.782-1.683c0,.581-.009,1.162-.031,1.742-.013.371-.282,5.424-1.039,4.54-1.84-2.15-2.926-4.819-4.726-6.943a145.242,145.242,0,0,0-21.26.229c11.279,5.64,16.919,14.8,24.673,18.329s24.674,2.115,35.953,7.049C144.151,123.205,128.642,104.171,117.363,99.942Zm-10.532,10.04c-.548,1.083-1.837.908-2.648.237a3.415,3.415,0,0,1-1.017-2.809,1.123,1.123,0,0,1-.126-.533,2.2,2.2,0,0,1,.234-1c.122-.239.384-.536.691-.5a1.527,1.527,0,0,1,1.349,1.014c.122.312.1.8.312.971a2.9,2.9,0,0,0,.5.2,1.571,1.571,0,0,1,.622.508A1.942,1.942,0,0,1,106.831,109.982Z" fill="url(#f)"/>
    <g>
      <path d="M63.66,47.863s3.961-11.985-.709-22.031l3.172-1.146s5.816,8.46,3.437,15.774S63.66,47.863,63.66,47.863Z" fill="#ecdac2"/>
      <path d="M63.344,15.487a90.3,90.3,0,0,0-14.185,3.059c-.037.544-.084,1.085-.156,1.618,0,0,0,.009-.005.037L49,20.164c-.009,0-.372,2.168-.6,1.941q-1.3-1.284-2.64-2.5A119.962,119.962,0,0,0,33.59,24.282a107.185,107.185,0,0,0,29.3,3.014A131.951,131.951,0,0,0,93.568,21.9S78.186,13.656,63.344,15.487Z" fill="url(#g)"/>
    </g>
    <path d="M65.755,130.6S41.6,92.611,33.59,87.987l2.291-2.115s27.141,26.965,33.133,40.183S65.755,130.6,65.755,130.6Z" fill="#ecdac2"/>
    <path d="M43.812,76.059C34.648,76.9,21.958,81.108,9.269,107.2c0,0,6.4-3.34,15.013-8.637,1.757-2.33,3.427-4.741,5.227-7.055.437-.561.547.327.651.655a9.423,9.423,0,0,1,.347,2.468c10.092-6.558,21.64-15,29.519-23.619A42.619,42.619,0,0,1,43.812,76.059Z" fill="url(#h)"/>
    <g>
      <path d="M74.478,58.2H44.87l-1.42,1.522a3.583,3.583,0,0,1-.248.933,4.284,4.284,0,0,1-2.767,2.3L35,68.777c18.329,1.41,47.937-2.115,71.906,3.524Z" fill="url(#i)"/>
      <path d="M40.317,51.9s2.167,3.375,1.167,5.292-1.167,4.583-3.208,4.542S34.442,58.2,34.442,58.2l-.25,7.487,10.542,1.083,2.042-12.333-2.083-4.25Z" fill="url(#j)"/>
      <path d="M90.087,56.091a15.9,15.9,0,0,1-7.685.848c-1.113-.214-.858-5.469-.846-6.44a53.517,53.517,0,0,0-21.882-7.1c-2.4-.189-4.84-.248-7.285-.2,0,.1,0,.2-.006.3a19.028,19.028,0,0,1-.389,3.885c-.109.433-.222,1.129-.651.655-.1-.118-.212-.232-.319-.347-1.248-1.273-2.622-2.408-3.956-3.588a1.363,1.363,0,0,1-.371-.6c-3.543.3-7.063.784-10.482,1.4-.088,1.8-.364,5.9-.814,5.7a51.133,51.133,0,0,1-7.023-4.053,163.522,163.522,0,0,0-26.511,8.83s6.312,6.305,17.848,10.306a48.13,48.13,0,0,1,8.352-6.249c.347-.187.845,6.029.845,6.5,0,.4.046,1.209.059,2.122A59.3,59.3,0,0,0,35,68.777c21.149,1.41,23.264-4.23,44.412-2.115S106.906,72.3,106.906,72.3A94.39,94.39,0,0,0,90.087,56.091ZM43.534,58.606a5.638,5.638,0,0,1-.332,2.051,4.366,4.366,0,0,1-3.094,2.388,2.347,2.347,0,0,1-2.9-1.227c-.722-1.714.312-3.346,1.255-4.711a1.124,1.124,0,0,1,.084-.1,7.846,7.846,0,0,1,.311-1.115A2.99,2.99,0,0,1,40.267,53.6a2.109,2.109,0,0,1,2.156-.573,2.2,2.2,0,0,1,1.423,1.758,1.154,1.154,0,0,1,.105.448C44,56.387,43.586,57.46,43.534,58.606Z" fill="url(#k)"/>
    </g>
  </g>
</svg>
