<svg xmlns="http://www.w3.org/2000/svg" xmlns:xlink="http://www.w3.org/1999/xlink" width="223.876" height="242.955" viewBox="0 0 223.876 242.955">
  <defs>
    <linearGradient id="a" x1="34.587" y1="145.35" x2="72.938" y2="145.35" gradientUnits="userSpaceOnUse">
      <stop offset="0" stop-color="#eb4a7c"/>
      <stop offset="1" stop-color="#fab5b8"/>
    </linearGradient>
    <linearGradient id="b" x1="68.547" y1="72.152" x2="126.048" y2="72.152" gradientUnits="userSpaceOnUse">
      <stop offset="0" stop-color="#932b4c"/>
      <stop offset="1" stop-color="#a73b6c"/>
    </linearGradient>
    <linearGradient id="c" x1="68.547" y1="72.152" x2="126.048" y2="72.152" xlink:href="#a"/>
    <linearGradient id="d" x1="121.089" y1="130.751" x2="223.495" y2="130.751" xlink:href="#b"/>
    <linearGradient id="e" x1="121.089" y1="127.025" x2="223.876" y2="127.025" xlink:href="#a"/>
    <linearGradient id="f" x1="0" y1="105.961" x2="105.299" y2="105.961" xlink:href="#b"/>
    <linearGradient id="g" x1="0" y1="95.78" x2="105.299" y2="95.78" xlink:href="#a"/>
    <linearGradient id="h" x1="96.022" y1="98.759" x2="139.023" y2="98.759" xlink:href="#a"/>
    <linearGradient id="i" x1="1.509" y1="57.994" x2="37.189" y2="57.994" xlink:href="#a"/>
    <linearGradient id="j" x1="62.408" y1="180.056" x2="118.398" y2="180.056" xlink:href="#b"/>
    <linearGradient id="k" x1="31.403" y1="182.984" x2="118.398" y2="182.984" xlink:href="#a"/>
    <linearGradient id="l" x1="45.896" y1="15.375" x2="91.397" y2="15.375" xlink:href="#b"/>
    <linearGradient id="m" x1="45.896" y1="14.574" x2="118.398" y2="14.574" xlink:href="#a"/>
  </defs>
  <title>Mushroom_57</title>
  <g>
    <path d="M110.982,242.955h28s-13.5-88.1-63-131.535,10-94.936,10-94.936l-8.5-4.018s-42,36.763-33,75.519C54.965,133.134,108.482,141.42,110.982,242.955Z" fill="#e1dfed"/>
    <path d="M138.982,242.955s-8-64.968,33.5-109.719l-3.5-3s-45.751,29.934-41.751,112.719Z" fill="#e1dfed"/>
    <path d="M98.041,136.54s-20.608-49.388,0-62.055l-3.393-2.333s-18.917,6.333-6.917,54.834Z" fill="#e1dfed"/>
    <g>
      <path d="M85.7,151.172S82,143.894,69.43,149.852s-17.041-2.3-17.041-2.3l1.064-1.185s6.355,6.313,15.743-.592,14.312-1.4,14.312-1.4l3.084,5.033Z" fill="#e1dfed"/>
      <path d="M34.587,153.58s15.172.212,25.8-6.214,12.551-10.035,12.551-10.035-12.284-1.394-23.553,2.986C42.294,143.073,34.587,153.58,34.587,153.58Z" fill="url(#a)"/>
    </g>
    <g>
      <path d="M68.547,59.652s4,13,22,17.5,23,2,35.5,7.5l-30-16-20-5Z" fill="url(#b)"/>
      <path d="M115.022,71.182c-.341.1-.68.211-1.012.34-1.818.71-2.853,2.152-4.488,3.088l-.19-.232c-1.374-2.431-.855-5.246-2.69-7.489a26.632,26.632,0,0,0-3.751-3.48c-.281-.09-.561-.181-.843-.257-13-3.5-25-.5-33.5-3.5a65.6,65.6,0,0,0,25,14.5c15,4.5,23,5.5,32.5,10.5A74.15,74.15,0,0,0,115.022,71.182Z" fill="url(#c)"/>
    </g>
    <g>
      <path d="M121.089,111.69s15.027,21.038,48.689,32.459,53.717,2.032,53.717,2.032Z" fill="url(#d)"/>
      <path d="M202.169,127.149c-1.581,2.36-3.044,5.014-5.9,5.712a1.15,1.15,0,0,1-.361-.887,21.975,21.975,0,0,0-1.672-5.182c-.835-1.525-2.138-2.716-2.967-4.253-.956-1.77-1.423-3.618-2.158-5.311-6.034-4.157-11.812-7.413-16.333-8.544-16.83-4.207-26.448,4.208-51.694,3.006,0,0,24.645,17.432,46.284,24.645s56.5,10.218,56.5,10.218S213.956,136.808,202.169,127.149Z" fill="url(#e)"/>
    </g>
    <g>
      <path d="M105.3,102.776s-28.178,6.047-54.139,6.275S10.7,109.592,0,103.414Z" fill="url(#f)"/>
      <path d="M52.33,81.078c-5.338.243-10.493,3.163-16.233,6.827-1.312,2.112-3.49,3.183-5.6,4.464a14.279,14.279,0,0,0-1.7,1.144c-.388.32-1,1.339-1.388,1.572-.012.129-.021.259-.035.388a9.455,9.455,0,0,1-.662,2.906l-.19.232a8.1,8.1,0,0,0-4.312-2.2,59.181,59.181,0,0,1-22.208,7,45.393,45.393,0,0,0,17.231,3.191c10.211,0,21.059,4.467,35.1,3.829s18.507-7.658,30-7.02a158.528,158.528,0,0,0,22.974-.638S66.37,80.44,52.33,81.078Z" fill="url(#g)"/>
    </g>
    <g>
      <path d="M119.731,101.78s-14.813,35.416-14.438,44.584-8-6.958-8-6.958,14.313-25.688,18.875-39.126Z" fill="#e1dfed"/>
      <path d="M96.022,89.946c8,4,12,10.5,17.5,13s17.5,1.5,25.5,5c0,0-11-13.5-19-16.5S96.022,89.946,96.022,89.946Z" fill="url(#h)"/>
    </g>
    <g>
      <path d="M44,81.294s.9-8.112-12.88-10.02-12.99-11.268-12.99-11.268l1.54-.407s1.854,8.763,13.491,8.134S45.9,74.406,45.9,74.406l-.18,5.9Z" fill="#e1dfed"/>
      <path d="M1.509,74.519s15.667-6.068,25.105-17.256S37.189,41.469,37.189,41.469A67.731,67.731,0,0,0,13.643,54.387C6.988,60.236,1.509,74.519,1.509,74.519Z" fill="url(#i)"/>
    </g>
    <g>
      <path d="M112.377,231.041S91.5,185.15,77.633,185.417l1.013-1.94s9.8-7.736,35.765,32.6Z" fill="#e1dfed"/>
      <g>
        <path d="M118.4,164.342s-4.165,6.925-16.879,11.813S73.863,190.547,68.665,195.77l-6.257-16.917,29.1-10.9S109.726,166.142,118.4,164.342Z" fill="url(#j)"/>
        <path d="M96.547,162.816c-11.187-2.917-23.9-.327-34.679,7.584-2.141,4.768-4.251,9.794-4.966,14.934.029-.209-.187,1.985-.506,1.9-2.337-.592-4.1-2.126-5.989-3.544-.3-.225-.595-.432-.891-.63C40.854,194.6,40.638,200.5,31.4,204.02c0,0,15.513,1.739,28.853-3.232S79.8,180.341,89.3,175.247s29.1-10.9,29.1-10.9S111.06,166.6,96.547,162.816Z" fill="url(#k)"/>
      </g>
    </g>
    <g>
      <path d="M45.9,5.652s4,5,14.5,7.5S83.632,21.543,88.265,25.1L91.4,11.153l-24-5.5S52.9,6.152,45.9,5.652Z" fill="url(#l)"/>
      <path d="M102.325,13.468c-2.162,2-4.245,4.151-6.428,6.266a16.981,16.981,0,0,1-.562-2.561,49.613,49.613,0,0,1-.128-5.667c.005-.2.014-.4.02-.6-.787-1.32-1.646-2.694-2.328-4.071a11.809,11.809,0,0,1-.655-1.629C82.61-.548,71.776-1.48,62.9,2.152c-11,4.5-17,3.5-17,3.5s16,2.5,24,5.5,14.5,14.5,25.5,17,23-.5,23-.5C110.889,25.886,110.008,21.386,102.325,13.468Z" fill="url(#m)"/>
    </g>
  </g>
</svg>
