<svg xmlns="http://www.w3.org/2000/svg" xmlns:xlink="http://www.w3.org/1999/xlink" width="200.286" height="257.605" viewBox="0 0 200.286 257.605">
  <defs>
    <linearGradient id="a" x1="108.87" y1="10.187" x2="165.735" y2="10.187" gradientUnits="userSpaceOnUse">
      <stop offset="0" stop-color="#434180"/>
      <stop offset="1" stop-color="#467baf"/>
    </linearGradient>
    <linearGradient id="b" x1="108.87" y1="8.368" x2="165.735" y2="8.368" gradientUnits="userSpaceOnUse">
      <stop offset="0" stop-color="#65bad7"/>
      <stop offset="1" stop-color="#c3faf5"/>
    </linearGradient>
    <linearGradient id="c" x1="80.727" y1="95.451" x2="168.104" y2="95.451" xlink:href="#a"/>
    <linearGradient id="d" x1="80.727" y1="90.546" x2="168.104" y2="90.546" xlink:href="#b"/>
    <linearGradient id="e" x1="50.932" y1="148.181" x2="123.419" y2="148.181" xlink:href="#a"/>
    <linearGradient id="f" x1="50.932" y1="146.629" x2="163.897" y2="146.629" xlink:href="#b"/>
    <linearGradient id="g" x1="0" y1="190.769" x2="126.445" y2="190.769" xlink:href="#a"/>
    <linearGradient id="h" x1="0" y1="177.23" x2="126.988" y2="177.23" xlink:href="#b"/>
    <linearGradient id="i" x1="39.92" y1="114.347" x2="108.49" y2="114.347" xlink:href="#b"/>
    <linearGradient id="j" x1="72.843" y1="27.042" x2="130.233" y2="27.042" xlink:href="#b"/>
    <linearGradient id="k" x1="93.537" y1="61.602" x2="158.288" y2="61.602" xlink:href="#a"/>
    <linearGradient id="l" x1="93.537" y1="57.151" x2="200.286" y2="57.151" xlink:href="#b"/>
  </defs>
  <title>Mushroom_26</title>
  <g>
    <path d="M128.159,126.716s2.023-56.291,16.456-61.919l-1.872-1.572S131.188,61.107,123.3,99.154Z" fill="#ecdac2"/>
    <path d="M41.012,257.605s-7.988-49.656,16.471-75.789,53.2-38.812,54.905-65.509-9-61.783-2.189-77.431,26.61-31.8,26.61-31.8l2.943,2.869s-26.541,23.766-23.876,44.935,18.257,63.717,10.405,78.181-45.727,47.779-49.593,66.3,8.6,57.514,8.6,57.514Z" fill="#ecdac2"/>
    <g>
      <path d="M108.87,3.743s6.013,5.949,18.2,9.268,38.661,3.62,38.661,3.62Z" fill="url(#a)"/>
      <path d="M108.87,3.743S143.213,18.1,165.735,16.631c0,0-13.04-10.139-21.661-14.785S120.119,2.657,108.87,3.743Z" fill="url(#b)"/>
    </g>
    <g>
      <path d="M80.727,87.473s10.126,16.286,36.283,15.951,32.076-5.541,51.094-2.535l-46.65-11.031-29.064.373Z" fill="url(#c)"/>
      <path d="M80.727,87.473a92.47,92.47,0,0,0,39.3,10.782c22.068.744,33.334-.768,48.082,2.634,0,0-21.466-20.586-40.447-20.685S93.394,88.508,80.727,87.473Z" fill="url(#d)"/>
    </g>
    <g>
      <path d="M50.932,137.613s13.46,9.574,22.217,12.369,29.014,6.688,45.1,8.766l5.172-8.9-56.412-12.1Z" fill="url(#e)"/>
      <path d="M50.932,137.613s42.3-8.236,62.72-2.684S163.9,159.593,163.9,159.593s-43.558,3.464-64.876-5.5S50.932,137.613,50.932,137.613Z" fill="url(#f)"/>
    </g>
    <g>
      <path d="M0,179.474s23.332,19.365,64.92,22.253,61.525-13.756,61.525-13.756Z" fill="url(#g)"/>
      <path d="M0,179.474s33.16,12.4,59.857,14.11,67.131-5.305,67.131-5.305-48.919-27.93-69.263-27.669S28.989,173.289,0,179.474Z" fill="url(#h)"/>
    </g>
    <g>
      <path d="M77.272,163.341s8.719-7.51-3.673-22.712-2.589-24.106-2.589-24.106l1.98,1.058s-6.5,10.827,6.116,21.353,6.742,19.121,6.742,19.121L80,163.973Z" fill="#ecdac2"/>
      <path d="M39.92,115.546s22,8.781,42.487,6.3S108.49,115.7,108.49,115.7s-16.867-8.716-36.711-9.277C59.292,106.065,39.92,115.546,39.92,115.546Z" fill="url(#i)"/>
    </g>
    <g>
      <path d="M107.931,51.687s.775-12.6-6.3-21.122l2.775-1.917s7.781,6.7,7.345,14.376S107.931,51.687,107.931,51.687Z" fill="#ecdac2"/>
      <path d="M72.843,36.551A107.171,107.171,0,0,0,101.945,32a131.93,131.93,0,0,0,28.288-13.034s-16.977-4.054-30.861,1.5S72.843,36.551,72.843,36.551Z" fill="url(#j)"/>
    </g>
    <g>
      <path d="M93.537,60.389S100.788,65.768,116,65.4s34.693,3.088,42.287,6.269l-.743-20.138-34.7,1.128S103.26,58.555,93.537,60.389Z" fill="url(#k)"/>
      <path d="M93.537,60.389s8.539-.793,21.919-10.882S148.82,37.8,167.411,47.474s20.568,17.178,32.875,16.849c0,0-15.282,8.4-31.177,8.949s-28.89-12.8-40.875-14.011S93.537,60.389,93.537,60.389Z" fill="url(#l)"/>
    </g>
  </g>
</svg>
