<svg xmlns="http://www.w3.org/2000/svg" xmlns:xlink="http://www.w3.org/1999/xlink" width="52.506" height="48.965" viewBox="0 0 52.506 48.965">
  <defs>
    <linearGradient id="a" x1="21.985" y1="16.02" x2="30.075" y2="16.02" gradientUnits="userSpaceOnUse">
      <stop offset="0" stop-color="#434180"/>
      <stop offset="1" stop-color="#467baf"/>
    </linearGradient>
    <linearGradient id="b" x1="16.562" y1="11.032" x2="52.506" y2="11.032" xlink:href="#a"/>
    <linearGradient id="c" y1="7.278" x2="52.506" y2="7.278" gradientUnits="userSpaceOnUse">
      <stop offset="0" stop-color="#65bad7"/>
      <stop offset="1" stop-color="#c3faf5"/>
    </linearGradient>
  </defs>
  <title>Mushroom_20</title>
  <g>
    <g>
      <path d="M24.283,18.68s-3.336,28.279-1.1,29.483a7.757,7.757,0,0,0,6.732.07c1.337-.835-2.126-29.886-2.126-29.886Z" fill="#ecdac2"/>
      <path d="M24.32,11.6s-3.261,6.68-2.075,7.984S29.428,20.67,30,19.2s-2.135-7.585-2.135-7.585Z" fill="url(#a)"/>
    </g>
    <g>
      <path d="M16.562,12.794c9.162.705,23.963-1.057,35.944,1.762L36.3,7.508H21.5Z" fill="url(#b)"/>
      <path d="M0,6.1a27.3,27.3,0,0,0,16.562,6.7c10.572.705,11.629-2.114,22.2-1.057s13.743,2.819,13.743,2.819S42.286,1.165,28.9.108,0,6.1,0,6.1Z" fill="url(#c)"/>
    </g>
  </g>
</svg>
