<svg xmlns="http://www.w3.org/2000/svg" xmlns:xlink="http://www.w3.org/1999/xlink" width="144.151" height="236.909" viewBox="0 0 144.151 236.909">
  <defs>
    <linearGradient id="a" y1="130.494" x2="55.512" y2="130.494" gradientUnits="userSpaceOnUse">
      <stop offset="0" stop-color="#eb4a7c"/>
      <stop offset="1" stop-color="#fab5b8"/>
    </linearGradient>
    <linearGradient id="b" x1="58.851" y1="8.971" x2="97.714" y2="8.971" gradientUnits="userSpaceOnUse">
      <stop offset="0" stop-color="#932b4c"/>
      <stop offset="1" stop-color="#a73b6c"/>
    </linearGradient>
    <linearGradient id="c" x1="58.851" y1="6.42" x2="113.838" y2="6.42" xlink:href="#a"/>
    <linearGradient id="d" x1="23.721" y1="172.359" x2="140.039" y2="172.359" xlink:href="#b"/>
    <linearGradient id="e" x1="23.721" y1="161.113" x2="140.039" y2="161.113" xlink:href="#a"/>
    <linearGradient id="f" x1="83.525" y1="110.252" x2="144.151" y2="110.252" xlink:href="#a"/>
    <linearGradient id="g" x1="33.59" y1="21.298" x2="93.568" y2="21.298" xlink:href="#a"/>
    <linearGradient id="h" x1="9.269" y1="89.103" x2="60.026" y2="89.103" xlink:href="#a"/>
    <linearGradient id="i" x1="35" y1="65.252" x2="106.906" y2="65.252" xlink:href="#b"/>
    <linearGradient id="j" x1="1.867" y1="57.742" x2="106.906" y2="57.742" xlink:href="#a"/>
  </defs>
  <title>Mushroom_40</title>
  <g>
    <g>
      <path d="M72.12,142.018s-4.494-10.593-22.751-3.427-23.746-4.885-23.746-4.885l1.611-1.563s8.329,9.494,22.2.687,20.267-.591,20.267-.591l3.851,7.377Z" fill="#e1dfed"/>
      <path d="M0,140.471s21.32,1.763,36.889-6.25,18.623-12.9,18.623-12.9-17.143-3.148-33.417,1.925C11.855,126.437,0,140.471,0,140.471Z" fill="url(#a)"/>
    </g>
    <path d="M57.206,236.909H80.117s31.019-52.465,11.632-90.56S49.8,80.409,64.256,61.727,87.167,7.8,87.167,7.8H82.232S72.363,41.283,55.091,58.555,66.753,135.748,76.607,150.9,72.01,217.17,57.206,236.909Z" fill="#e1dfed"/>
    <path d="M116.951,114.511S96.067,164.444,96.6,177.369s-11.279-9.81-11.279-9.81S105.5,131.342,111.929,112.4Z" fill="#e1dfed"/>
    <g>
      <path d="M58.851,5.33s5.64,3.966,11.456,5.111,27.407,2.17,27.407,2.17l-27.5-6.487Z" fill="url(#b)"/>
      <path d="M58.851,5.33s9.87,4.23,28.2,6.345,26.788.705,26.788.705S101.854,2.511,88.459.4,58.851,5.33,58.851,5.33Z" fill="url(#c)"/>
    </g>
    <g>
      <path d="M140.039,168.84s-31.127,6.681-59.8,6.933-44.695.6-56.514-6.228Z" fill="url(#d)"/>
      <path d="M23.721,169.545a50.138,50.138,0,0,0,19.034,3.525c11.279,0,23.263,4.935,38.772,4.23s20.444-8.46,33.133-7.755a175.066,175.066,0,0,0,25.379-.7s-43-24.673-58.512-23.968S51.919,166.726,23.721,169.545Z" fill="url(#e)"/>
    </g>
    <path d="M83.525,97.827c11.279,5.64,16.919,14.8,24.673,18.329s24.674,2.115,35.953,7.049c0,0-15.509-19.034-26.788-23.263S83.525,97.827,83.525,97.827Z" fill="url(#f)"/>
    <g>
      <path d="M63.66,47.863s3.961-11.985-.709-22.031l3.172-1.146s5.816,8.46,3.437,15.774S63.66,47.863,63.66,47.863Z" fill="#e1dfed"/>
      <path d="M33.59,24.282a107.185,107.185,0,0,0,29.3,3.014A131.951,131.951,0,0,0,93.568,21.9s-15.382-8.248-30.224-6.417S33.59,24.282,33.59,24.282Z" fill="url(#g)"/>
    </g>
    <path d="M65.755,130.6S41.6,92.611,33.59,87.987l2.291-2.115s27.141,26.965,33.133,40.183S65.755,130.6,65.755,130.6Z" fill="#e1dfed"/>
    <path d="M9.269,107.2S43.107,89.524,60.026,71.009a42.619,42.619,0,0,1-16.214,5.05C34.648,76.9,21.958,81.108,9.269,107.2Z" fill="url(#h)"/>
    <g>
      <path d="M35,68.777c18.329,1.41,47.937-2.115,71.906,3.524L74.478,58.2H44.87Z" fill="url(#i)"/>
      <path d="M1.867,55.383S13.851,67.367,35,68.777s23.264-4.23,44.412-2.115S106.906,72.3,106.906,72.3,86.462,45.513,59.674,43.4,1.867,55.383,1.867,55.383Z" fill="url(#j)"/>
    </g>
  </g>
</svg>
