<svg xmlns="http://www.w3.org/2000/svg" xmlns:xlink="http://www.w3.org/1999/xlink" width="62.234" height="202.297" viewBox="0 0 62.234 202.297">
  <defs>
    <linearGradient id="a" x1="35.721" y1="53.875" x2="60.123" y2="53.875" gradientUnits="userSpaceOnUse">
      <stop offset="0" stop-color="#932b4c"/>
      <stop offset="1" stop-color="#a73b6c"/>
    </linearGradient>
    <linearGradient id="b" x1="16.956" y1="65.724" x2="34.135" y2="65.724" xlink:href="#a"/>
    <linearGradient id="c" x1="1.451" y1="33.833" x2="16.604" y2="33.833" xlink:href="#a"/>
    <linearGradient id="d" x1="12.15" y1="12.91" x2="36.866" y2="12.91" xlink:href="#a"/>
    <linearGradient id="e" x1="21.096" y1="34.714" x2="38.716" y2="34.714" xlink:href="#a"/>
    <linearGradient id="f" y1="53.213" x2="62.234" y2="53.213" gradientUnits="userSpaceOnUse">
      <stop offset="0" stop-color="#eb4a7c"/>
      <stop offset="1" stop-color="#fab5b8"/>
    </linearGradient>
    <linearGradient id="g" x1="23.442" y1="104.318" x2="44.947" y2="104.318" xlink:href="#f"/>
  </defs>
  <title>Mushroom_36</title>
  <g>
    <path d="M32.6,106.976s3.884,54.092-6.57,95.321H36.6s3.7-61.844-1.234-95.321Z" fill="#e1dfed"/>
    <g>
      <g>
        <path d="M35.721,70.746s7.664-2.907,8.1-7.224,9.515-12.95,9.515-15.5-3-13.831-9.515-11.981S48.759,28.9,48.759,28.9L60.123,39.3,58.1,56.827,43.3,78.851Z" fill="url(#a)"/>
        <path d="M16.956,56.923s10.219,1.508,9.514,8.414-4.739,9.236-4.739,9.236l7.03,4.454,5.374-11.806-3.26-10.747-7.928-4.052Z" fill="url(#b)"/>
        <polygon points="16.604 22.645 11.758 46.431 2.684 45.198 1.451 37.181 4.182 21.236 16.604 22.645" fill="url(#c)"/>
        <path d="M36.866,7.757S26.03,7.14,24.62,12.514s6.255,8.722,6.255,8.722l-11.54,3L12.15,11.787,18.542,3.7,27.528,1.59l7.223,1.938Z" fill="url(#d)"/>
        <path d="M38.363,24.4s-8.193,5.647-7.4,9.612,7.753,8.721,7.753,8.721L25.545,45.2,21.1,29.605l5.022-5.374Z" fill="url(#e)"/>
        <path d="M57.392,22.733C48.054,5.466,26.382-5.458,15.458,2.823S-7.094,42.9,5.415,57.309s23.108,26.035,26.442,49.116h5.449S36.425,89.631,49.111,78.47,66.731,40,57.392,22.733ZM11.142,33.745c-.441,2.908-3.56,7.969-6.255,6.7-3.172-1.5-1.234-6.079-1.234-8.37s3.877-7.928,6.96-7.664S11.582,30.838,11.142,33.745Zm9.25-20.864c.352-3.8,3.054-6.769,7.752-7.121s5.286,5.286,6.7,8.34-6.658,5.873-9.632,5.873C21.8,19.973,20.039,16.684,20.392,12.881Zm3.054,60.537c-4.68-2.7-5.442-13.2-3.172-15.74,3.994-4.463,9.162,2.7,9.515,6.931S28.125,76.12,23.446,73.418Zm5.873-32.889c-4.464-1.057-5.169-13.156,2.819-14.918,5.425-1.2,8.692,3.641,9.045,7.459S33.782,41.586,29.319,40.529ZM49.27,61.075c-1.309,4.806-5.928,10.252-8.792,8.937-7.165-3.289,5.638-8.927,2.7-28.309-.879-5.806,8.928-7.987,13.039-.352S50.58,56.269,49.27,61.075Z" fill="url(#f)"/>
      </g>
      <path d="M31.227,95.388s2.749,10.26-4.948,15,2.616,3.192,3.451,1.853,1.395,2.284,4.016.591,4.946,3.128,5.6.993,5.493,3.67,5.6-.275-10.132-6.513-8.618-15.063S31.227,95.388,31.227,95.388Z" fill="url(#g)"/>
    </g>
  </g>
</svg>
