<svg xmlns="http://www.w3.org/2000/svg" xmlns:xlink="http://www.w3.org/1999/xlink" width="63.629" height="55.96" viewBox="0 0 63.629 55.96">
  <defs>
    <linearGradient id="a" y1="15.68" x2="63.346" y2="15.68" gradientUnits="userSpaceOnUse">
      <stop offset="0" stop-color="#434180"/>
      <stop offset="1" stop-color="#467baf"/>
    </linearGradient>
    <linearGradient id="b" y1="8.203" x2="63.629" y2="8.203" gradientUnits="userSpaceOnUse">
      <stop offset="0" stop-color="#65bad7"/>
      <stop offset="1" stop-color="#c3faf5"/>
    </linearGradient>
    <linearGradient id="c" x1="28.765" y1="22.588" x2="37.613" y2="22.588" xlink:href="#a"/>
  </defs>
  <title>Mushroom_17</title>
  <g>
    <g>
      <path d="M38.377,11.3a1.946,1.946,0,0,1-1.717.963.529.529,0,0,1-.366.058c-.413-.075-.757-.251-1.152-.36a3.94,3.94,0,0,0-1.842.019,3.867,3.867,0,0,1-2,.087,3.509,3.509,0,0,1-1.207-.7L0,11.631S12.361,20.4,33.2,20.27s30.147-9.181,30.147-9.181Z" fill="url(#a)"/>
      <path d="M60.767,9.914c-.2-.043-.4-.085-.606-.116a24.487,24.487,0,0,0-3.614-.151c-1.889-.007-4.434.211-6.182-.658a13.847,13.847,0,0,1-2.9-2.488C46.542,5.645,45.6,4.812,44.7,3.933q-.329-.322-.651-.646c-.232-.078-.464-.158-.7-.235-1.157,1.431-.479,5.34-3.17,2.719a18.015,18.015,0,0,0-2.515-2.623c-1.1-.729-2.367-1.194-3.432-1.989a6.377,6.377,0,0,1-.808-.738A21.528,21.528,0,0,0,28.06.047,22.835,22.835,0,0,0,21.534,1.6q-.288.346-.548.715c-.215.3-.377.647-.593.946a3.414,3.414,0,0,1-.163.4c0,.112,0,.224-.008.336,0,.068-.355,3.834-.733,3.2A33.446,33.446,0,0,0,17.04,3.778C12.676,6.19,8,9.279,0,11.631c0,0,17,4.928,30.368,4.772s33.261-5.181,33.261-5.181S62.555,10.713,60.767,9.914ZM38.38,11.3a1.946,1.946,0,0,1-1.72.967.529.529,0,0,1-.366.058c-.413-.075-.757-.251-1.152-.36a3.94,3.94,0,0,0-1.842.019,3.867,3.867,0,0,1-2,.087,2.817,2.817,0,0,1-2.016-2.152c-.161-2.386,3.33-2.162,4.856-2.02C35.688,8.042,39.672,8.817,38.38,11.3Z" fill="url(#b)"/>
    </g>
    <g>
      <path d="M30.961,25.3S27.79,55.96,35.19,55.96,34.837,25.3,34.837,25.3Z" fill="#ecdac2"/>
      <path d="M30.256,18.607s-2.819,7.752-.7,8.105,6.343.352,7.752-.7-2.467-7.753-2.467-7.753Z" fill="url(#c)"/>
    </g>
  </g>
</svg>
