<svg xmlns="http://www.w3.org/2000/svg" xmlns:xlink="http://www.w3.org/1999/xlink" width="58.849" height="49.687" viewBox="0 0 58.849 49.687">
  <defs>
    <linearGradient id="a" x1="23.176" y1="16.315" x2="32.023" y2="16.315" gradientUnits="userSpaceOnUse">
      <stop offset="0" stop-color="#434180"/>
      <stop offset="1" stop-color="#467baf"/>
    </linearGradient>
    <linearGradient id="b" x1="16.374" y1="8.477" x2="25.91" y2="8.477" xlink:href="#a"/>
    <linearGradient id="c" x1="0" y1="10.846" x2="25.079" y2="10.846" xlink:href="#a"/>
    <linearGradient id="d" y1="7.576" x2="58.849" y2="7.576" gradientUnits="userSpaceOnUse">
      <stop offset="0" stop-color="#65bad7"/>
      <stop offset="1" stop-color="#c3faf5"/>
    </linearGradient>
  </defs>
  <title>Mushroom_15</title>
  <g>
    <g>
      <path d="M25.372,19.029S22.2,49.687,29.6,49.687s-.353-30.658-.353-30.658Z" fill="#ecdac2"/>
      <path d="M24.667,12.334s-2.819,7.752-.705,8.1,6.343.353,7.753-.7-2.467-7.753-2.467-7.753Z" fill="url(#a)"/>
    </g>
    <g>
      <path d="M21.329,6.186s-1.63,1.608-.638,2.048,2.18,2.4,3.634.639S25.91,11.45,25.91,11.45l-6.078.176-3.458-3.48,3.149-2.819Z" fill="url(#b)"/>
      <path d="M0,8.105s14.992,6.763,25.079,6.833L14.991,6.754,3.274,7.5Z" fill="url(#c)"/>
      <path d="M44.593,5.289c-.752.247-1.513.432-2.119.606-.4.113-7.427,1.94-6.179-.742.284-.612,1.48-.742,1.66-1.3.234-.728-.683-1.011-1.153-1.365a1.643,1.643,0,0,1-.748-.969A22.74,22.74,0,0,0,28.9,0a37.664,37.664,0,0,0-8.02,1.112c-.485.345-.96.7-1.439,1.027a3.25,3.25,0,0,0-1.22,1.394A12.84,12.84,0,0,1,17.09,4.855q-.158.327-.317,0a16.219,16.219,0,0,0-1.188-2.34A164.254,164.254,0,0,0,0,8.105c12.334,0,13.743,7.048,29.6,7.048A96.975,96.975,0,0,0,45.779,13.83c.053-.423.124-.843.218-1.255a.772.772,0,0,1,.3-.626,4.789,4.789,0,0,1,1.009,1.223,2.809,2.809,0,0,0,.376.395,35.654,35.654,0,0,1,11.167.176A149.072,149.072,0,0,0,44.593,5.289ZM23.038,10.22a2.146,2.146,0,0,1-2.588-.747c-.578-.133-1.125-.47-1.157-1.124-.073-1.481,1.89-1.444,2.866-1.275A2.1,2.1,0,0,1,23.8,8.3,1.572,1.572,0,0,1,23.038,10.22Z" fill="url(#d)"/>
    </g>
  </g>
</svg>
