<svg xmlns="http://www.w3.org/2000/svg" xmlns:xlink="http://www.w3.org/1999/xlink" width="552.445" height="353.576" viewBox="0 0 552.445 353.576">
  <defs>
    <linearGradient id="a" y1="176.788" x2="552.445" y2="176.788" gradientUnits="userSpaceOnUse">
      <stop offset="0" stop-color="#65bad7"/>
      <stop offset="1" stop-color="#c3faf5"/>
    </linearGradient>
  </defs>
  <title>Spores_2</title>
  <path d="M222.7,318.244a10.685,10.685,0,0,1,8.733,2.969,47.7,47.7,0,0,1,3.425,3.929,12.033,12.033,0,0,1,2.714,8.087c.045,2.12.016,3.615,2.359,4.3s3.123-.616,4.293-2.38a12.071,12.071,0,0,1,6.616-5.382,51.244,51.244,0,0,1,4.992-1.483,10.635,10.635,0,0,1,8.954,2.181,46.032,46.032,0,0,1,3.752,3.612,12,12,0,0,1,3.4,7.818c.225,2.117.325,3.605,2.717,4.08s3.052-.866,4.068-2.736a12.005,12.005,0,0,1,6.127-5.929,45.992,45.992,0,0,1,4.846-1.906,10.64,10.64,0,0,1,9.111,1.395c1.21.884,2.57,1.947,4.053,3.272a12.1,12.1,0,0,1,4.073,7.5c.411,2.08.639,3.571,3.069,3.839,2.431.25,2.973-1.145,3.821-3.09a12.1,12.1,0,0,1,5.586-6.451c1.731-.964,3.291-1.741,4.661-2.334a10.728,10.728,0,0,1,9.209.566,48.437,48.437,0,0,1,4.345,2.886,12.054,12.054,0,0,1,4.78,7.08c.611,2.03.984,3.478,3.443,3.511s2.865-1.422,3.521-3.442a12.1,12.1,0,0,1,4.941-6.969,48.211,48.211,0,0,1,4.411-2.787,10.081,10.081,0,0,1,4.572-1.238,10.2,10.2,0,0,1,4.662.835c1.365.635,2.915,1.385,4.643,2.4a12.2,12.2,0,0,1,5.557,6.5c.839,1.944,1.377,3.379,3.847,3.111s2.713-1.744,3.137-3.823a12.19,12.19,0,0,1,4.12-7.508c1.492-1.32,2.848-2.436,4.059-3.309a10.678,10.678,0,0,1,4.394-1.8,10.786,10.786,0,0,1,4.742.237q2.154.653,4.935,1.766a12.363,12.363,0,0,1,6.425,5.688c1.105,1.817,1.837,3.128,4.287,2.547,2.443-.633,2.478-2.134,2.607-4.256a12.38,12.38,0,0,1,3.03-8.039c1.292-1.52,2.472-2.826,3.538-3.884a9.324,9.324,0,0,1,1.878-1.43,11.066,11.066,0,0,1,2.2-1.029,10.942,10.942,0,0,1,2.372-.523,9.834,9.834,0,0,1,2.363,0c1.488.181,3.226.514,5.182.921a12.428,12.428,0,0,1,4.674,1.986,14.913,14.913,0,0,1,2.678,2.5c1.412,1.592,2.367,2.752,4.723,1.732,2.337-1.078,2.107-2.568,1.86-4.682a14.893,14.893,0,0,1-.085-3.666,12.619,12.619,0,0,1,1.637-4.818c1-1.735,1.91-3.258,2.761-4.5a9.873,9.873,0,0,1,1.573-1.771,10.976,10.976,0,0,1,1.961-1.447,11.485,11.485,0,0,1,2.228-.987,9.437,9.437,0,0,1,2.319-.494c1.508-.116,3.273-.172,5.284-.189A12.7,12.7,0,0,1,481.073,314c1.727,1.238,2.935,2.184,5.036.623,2.08-1.6,1.533-3,.829-5.005a12.639,12.639,0,0,1-.366-8.65c.577-1.934,1.11-3.637,1.66-5.034a11.565,11.565,0,0,1,6.749-6.513c1.455-.465,3.122-.987,5.089-1.486a14.35,14.35,0,0,1,2.8-.434,11.365,11.365,0,0,1,2.3.076,15.159,15.159,0,0,1,3.544,1.012,7.607,7.607,0,0,0,2.65.723,2.982,2.982,0,0,0,2.4-1.4c1.63-2.073.751-3.294-.431-5.062a12.578,12.578,0,0,1-2.528-8.279,51.867,51.867,0,0,1,.342-5.279,11.341,11.341,0,0,1,4.929-7.937,51.78,51.78,0,0,1,4.574-2.619,12.37,12.37,0,0,1,8.525-1.27c2.118.324,3.577.594,4.713-1.7s-.018-3.3-1.563-4.768a15.06,15.06,0,0,1-2.426-2.765,12.893,12.893,0,0,1-1.813-4.733c-.385-1.987-.571-3.7-.741-5.212a10.6,10.6,0,0,1,.687-4.718,10.415,10.415,0,0,1,2.589-4.007,50.11,50.11,0,0,1,3.985-3.448,12.36,12.36,0,0,1,8.119-2.9c2.139-.093,3.625-.114,4.3-2.6s-.654-3.258-2.456-4.4a15.153,15.153,0,0,1-2.921-2.245,13.048,13.048,0,0,1-2.71-4.3c-.775-1.881-1.3-3.526-1.773-4.977a10.715,10.715,0,0,1-.3-4.776,10.594,10.594,0,0,1,1.675-4.491,52.889,52.889,0,0,1,3.131-4.287,12.61,12.61,0,0,1,7.239-4.8c2.035-.62,3.49-1.01,3.544-3.692a3.06,3.06,0,0,0-.968-2.652,7.5,7.5,0,0,0-2.514-1.136,15.208,15.208,0,0,1-3.39-1.472,11.847,11.847,0,0,1-1.842-1.4,14.91,14.91,0,0,1-1.917-2.121q-.924-1.23-1.665-2.323-.792-1.092-1.423-2.049a9.682,9.682,0,0,1-1.053-2.152,12.952,12.952,0,0,1-.643-2.383,11.282,11.282,0,0,1-.13-2.467,9.921,9.921,0,0,1,.31-2.383q.291-1.113.692-2.41c.252-.862.5-1.782.816-2.773a15.656,15.656,0,0,1,1.1-2.68,12.954,12.954,0,0,1,1.245-1.991,15.472,15.472,0,0,1,2.661-2.61,7.236,7.236,0,0,0,1.947-2,2.627,2.627,0,0,0,.311-1.28,5.126,5.126,0,0,0-.424-1.729c-1.113-2.7-2.592-2.561-4.775-2.4a15.837,15.837,0,0,1-3.761-.06,12.2,12.2,0,0,1-2.294-.589c-.406-.147-.825-.321-1.256-.525s-.916-.422-1.395-.682c-.932-.5-1.784-.979-2.563-1.434l-1.121-.663-1.068-.6a13.66,13.66,0,0,1-5.853-7.734c-.2-.757-.449-1.556-.678-2.451l-.354-1.4q-.2-.716-.413-1.48a19.974,19.974,0,0,1-.559-2.918,12.81,12.81,0,0,1-.074-2.4,16.622,16.622,0,0,1,.747-3.72,6.731,6.731,0,0,0,.429-2.78,2.927,2.927,0,0,0-.536-1.282,4.916,4.916,0,0,0-1.415-1.293c-2.621-1.733-3.829-.713-5.528.638a15.753,15.753,0,0,1-3.141,2.075,15.568,15.568,0,0,1-5.148,1.429c-1.059.147-2.036.266-2.938.36-.91.121-1.751.23-2.521.306a13.137,13.137,0,0,1-9.239-2.7c-.592-.508-1.231-1.008-1.907-1.605l-2.155-1.927a15,15,0,0,1-1.934-2.109,11.689,11.689,0,0,1-1.221-1.978,15.333,15.333,0,0,1-1.135-3.531c-.473-2.1-.744-3.566-3.412-3.833-2.639-.211-3.162,1.21-3.98,3.174a12.618,12.618,0,0,1-5.462,6.7c-1.709,1.062-3.23,1.926-4.569,2.609a10.9,10.9,0,0,1-9.259.095,49.568,49.568,0,0,1-4.542-2.55c-6.946-4.342-4.051-10.248-8.815-10.007-4.75.258-1.254,5.839-7.668,10.852a43.754,43.754,0,0,1-4.234,2.956,10.19,10.19,0,0,1-9.1.539,41.687,41.687,0,0,1-4.522-2.454c-6.839-4.288-3.981-10.215-8.557-10-4.561.171-1.221,5.848-7.645,10.686a39.336,39.336,0,0,1-4.286,2.805,9.893,9.893,0,0,1-9.055.095,37.36,37.36,0,0,1-4.327-2.724,11.434,11.434,0,0,1-4.588-7.02c-.556-2.036-.883-3.473-3.1-3.556s-2.644,1.359-3.333,3.345a11.45,11.45,0,0,1-5.037,6.694,40.059,40.059,0,0,1-4.5,2.416,9.6,9.6,0,0,1-4.589.713,9.468,9.468,0,0,1-4.4-1.494,35.339,35.339,0,0,1-4-3.153,11.329,11.329,0,0,1-3.776-7.465c-.325-2.091-.489-3.539-2.662-3.865s-2.744,1.044-3.651,2.952a11.33,11.33,0,0,1-5.742,6.074,34.412,34.412,0,0,1-4.734,1.869,9.053,9.053,0,0,1-4.635.164,9.168,9.168,0,0,1-4.18-2.009,38.59,38.59,0,0,1-3.583-3.608A11.413,11.413,0,0,1,313,92.293c-.064-2.1-.033-3.587-2.142-4.176s-2.851.707-3.989,2.482a11.375,11.375,0,0,1-6.458,5.3,35.339,35.339,0,0,1-4.93,1.248,9.014,9.014,0,0,1-4.619-.426,9.316,9.316,0,0,1-3.892-2.52,39.268,39.268,0,0,1-3.093-4.046,11.368,11.368,0,0,1-1.79-8.174c.206-2.1.412-3.546-1.612-4.4s-2.916.32-4.269,1.939a11.282,11.282,0,0,1-7.079,4.451,36.107,36.107,0,0,1-5.06.645,9.729,9.729,0,0,1-8.086-3.985,37.7,37.7,0,0,1-2.6-4.374,11.462,11.462,0,0,1-.812-8.336c.449-2.061.826-3.473-1.089-4.577s-2.949-.023-4.485,1.428a11.317,11.317,0,0,1-7.56,3.589,34.067,34.067,0,0,1-5.1.052,9.566,9.566,0,0,1-4.407-1.488,9.685,9.685,0,0,1-3.22-3.361,37.225,37.225,0,0,1-2.134-4.651c-2.852-7.5,3-10.536-.754-13.093-3.744-2.629-4.5,3.921-12.567,3.883a40.3,40.3,0,0,1-5.135-.343,10.253,10.253,0,0,1-7.431-5.311,44.109,44.109,0,0,1-2.042-4.761c-2.873-7.666,3.053-10.577-.964-13.33-2.007-1.382-3.186-.4-4.843.917a12.167,12.167,0,0,1-8,3.068c-2,.053-3.737-.007-5.252-.095a11.012,11.012,0,0,1-4.551-1.437,11.335,11.335,0,0,1-3.569-3.192c-.874-1.231-1.8-2.754-2.859-4.477a13.072,13.072,0,0,1-1.893-8.5c.142-2.122.329-3.67-2.216-4.676-2.568-.975-3.485.225-4.831,1.878a12.953,12.953,0,0,1-7.239,4.925c-1.989.621-3.71,1.07-5.192,1.389a10.782,10.782,0,0,1-4.85.045,10.817,10.817,0,0,1-4.492-1.821c-1.256-.865-2.693-1.886-4.31-3.193a13.7,13.7,0,0,1-3.468-3.816,15.538,15.538,0,0,1-1.422-3.44C126.05,1.461,125.643,0,122.917,0s-3.148,1.429-3.792,3.492a12.678,12.678,0,0,1-4.918,7.179c-1.614,1.267-3.06,2.251-4.322,3.108a11.572,11.572,0,0,1-9.292,1.334c-1.44-.418-3.112-1.037-4.99-1.763a12.62,12.62,0,0,1-6.6-5.6c-1.156-1.8-1.931-3.109-4.452-2.418-2.527.673-2.518,2.228-2.6,4.347a12.619,12.619,0,0,1-2.835,8.17c-1.242,1.6-2.375,2.954-3.4,4.054a11.5,11.5,0,0,1-8.676,3.553c-1.518-.1-3.267-.242-5.282-.508a12.733,12.733,0,0,1-7.813-3.8c-1.568-1.441-2.643-2.5-4.973-1.2-2.312,1.356-1.937,2.832-1.484,4.912a12.846,12.846,0,0,1-.678,8.684c-.777,1.908-1.543,3.48-2.207,4.869a12.169,12.169,0,0,1-7.36,5.981c-1.469.409-3.209.819-5.235,1.247a13.487,13.487,0,0,1-8.769-.8c-1.989-.773-3.437-1.433-5.239.82-1.823,2.225-.911,3.528.264,5.32a13.644,13.644,0,0,1,2.592,8.476c-.026,1.062.016,2.1-.009,3.026,0,.938-.067,1.773-.069,2.579-.018,1.6-.15,2.885-.226,3.943a16.509,16.509,0,0,1-.457,3.159l1.1.452h0l-1.1-.452a16.453,16.453,0,0,1-1.89,2.573c-.689.807-1.492,1.815-2.6,2.971-.569.576-1.1,1.217-1.76,1.89l-2.115,2.168A14.468,14.468,0,0,1,7.5,84.9,15.4,15.4,0,0,1,3.943,86.02a7.177,7.177,0,0,0-2.641.909,3.369,3.369,0,0,0-1.269,2.72c-.275,2.878,1.192,3.423,3.173,4.258a13.546,13.546,0,0,1,6.843,5.557q.417.648.807,1.254l.77,1.172c.486.757.916,1.464,1.3,2.123a12.254,12.254,0,0,1,1.089,9.418c-.441,1.443-1.094,3.129-1.816,5.016A12.821,12.821,0,0,1,6.6,125.1a7.567,7.567,0,0,0-2.134,1.736,3.028,3.028,0,0,0-.258,2.779c.723,2.549,2.219,2.554,4.367,2.616a15.273,15.273,0,0,1,3.668.453,13.273,13.273,0,0,1,4.538,2.325c1.623,1.222,2.938,2.361,4.085,3.36A11.328,11.328,0,0,1,24.413,147c-.083,1.5-.289,3.258-.568,5.235a12.406,12.406,0,0,1-4,7.618c-1.5,1.506-2.607,2.541-1.437,4.791,1.2,2.228,2.662,1.9,4.753,1.524a12.339,12.339,0,0,1,8.525,1.014c1.788.887,3.341,1.714,4.609,2.5a10.958,10.958,0,0,1,4.93,7.848c.14,1.5.231,3.237.24,5.227a12.224,12.224,0,0,1-2.855,8.07c-1.271,1.7-2.218,2.869-.778,4.89,1.466,2,2.868,1.464,4.882.791a12.216,12.216,0,0,1,8.551-.183c1.883.634,3.5,1.267,4.875,1.873a10.764,10.764,0,0,1,5.823,7.171,46.829,46.829,0,0,1,.828,5.153,12.035,12.035,0,0,1-1.954,8.309c-1.086,1.833-1.9,3.09-.253,4.909s2.972,1.146,4.905.253a12.028,12.028,0,0,1,8.465-1.094,47.921,47.921,0,0,1,5.037,1.355,10.672,10.672,0,0,1,6.494,6.546,49.868,49.868,0,0,1,1.31,5.045,12.022,12.022,0,0,1-1.183,8.451c-.907,1.918-1.6,3.241.193,4.9s3.057.857,4.9-.209a11.978,11.978,0,0,1,8.318-1.858,45.945,45.945,0,0,1,5.135.9,10.638,10.638,0,0,1,7.04,5.946,48.657,48.657,0,0,1,1.74,4.911,12,12,0,0,1-.453,8.516c-.744,1.993-1.317,3.366.609,4.86s3.113.594,4.859-.627a11.988,11.988,0,0,1,8.131-2.567,48.128,48.128,0,0,1,5.19.456,10.641,10.641,0,0,1,7.519,5.329,46.151,46.151,0,0,1,2.152,4.746,11.988,11.988,0,0,1,.284,8.519c-.57,2.05-1.032,3.481,1.024,4.8s3.162.317,4.79-1.039a12.042,12.042,0,0,1,7.887-3.263c1.976-.08,3.725-.087,5.212,0a10.679,10.679,0,0,1,7.962,4.652,45.9,45.9,0,0,1,2.577,4.53,12.047,12.047,0,0,1,1.065,8.465c-.373,2.085-.713,3.572,1.469,4.692s3.192.025,4.689-1.477a12.119,12.119,0,0,1,7.558-3.98c1.963-.267,3.7-.428,5.194-.486a10.722,10.722,0,0,1,8.388,3.86,46.627,46.627,0,0,1,3.029,4.249,12.119,12.119,0,0,1,1.935,8.326c-.158,2.125-.326,3.608,1.959,4.515s3.183-.3,4.518-1.955a12.105,12.105,0,0,1,7.1-4.743A51.953,51.953,0,0,1,222.7,318.244Z" fill="url(#a)"/>
</svg>
