<svg xmlns="http://www.w3.org/2000/svg" xmlns:xlink="http://www.w3.org/1999/xlink" width="507.199" height="427.411" viewBox="0 0 507.199 427.411">
  <defs>
    <linearGradient id="a" y1="213.706" x2="507.199" y2="213.706" gradientUnits="userSpaceOnUse">
      <stop offset="0" stop-color="#65bad7"/>
      <stop offset="1" stop-color="#c3faf5"/>
    </linearGradient>
  </defs>
  <title>Spores_1</title>
  <path d="M503.786,187.88a12.26,12.26,0,0,1-6.97-5.294c-1.168-1.735-2.069-3.3-2.821-4.683a11.537,11.537,0,0,1-1.3-4.843,11.655,11.655,0,0,1,.748-4.957c.57-1.455,1.351-3.116,2.284-4.965a12.279,12.279,0,0,1,6.344-6.02c1.922-.927,3.329-1.529,2.983-4.148s-1.843-2.843-3.939-3.25a12.235,12.235,0,0,1-7.659-4.2c-1.4-1.544-2.53-2.957-3.465-4.215a11.771,11.771,0,0,1-1.822-9.567,54.057,54.057,0,0,1,1.695-5.162,12.082,12.082,0,0,1,5.661-6.609c1.821-1.115,3.139-1.846,2.552-4.365s-2.1-2.588-4.227-2.778a12.084,12.084,0,0,1-8.013-3.408c-1.521-1.4-2.783-2.7-3.822-3.872a12.017,12.017,0,0,1-2.712-9.394c.257-1.545.626-3.319,1.16-5.324a12.216,12.216,0,0,1,4.922-7.21c1.683-1.312,2.925-2.189,2.042-4.671s-2.4-2.387-4.532-2.342a12.25,12.25,0,0,1-8.386-2.5c-1.692-1.22-3.105-2.363-4.294-3.395a12.432,12.432,0,0,1-4.013-8.993c.015-1.575.107-3.4.3-5.492a12.63,12.63,0,0,1,3.582-8.056c1.427-1.612,2.466-2.709,1.089-5.113-1.419-2.4-2.893-2.035-5-1.595a12.807,12.807,0,0,1-8.832-.874q-2.907-1.3-5.02-2.413a13.983,13.983,0,0,1-6.418-7.753c-.487-1.531-1-3.337-1.577-5.435a14.134,14.134,0,0,1,.151-9.107,6.65,6.65,0,0,0,.481-2.79,3.936,3.936,0,0,0-1.937-2.664,4.041,4.041,0,0,0-3.184-.991,6.71,6.71,0,0,0-2.507,1.348,15.871,15.871,0,0,1-3.3,1.947,17.092,17.092,0,0,1-5.428,1.164l-5.819.478a18.215,18.215,0,0,1-10.227-2.4c-.717-.424-1.492-.918-2.349-1.39l-1.336-.776-1.456-.793A30.812,30.812,0,0,1,404.7,7.348a17.951,17.951,0,0,1-1.962-1.63,16.443,16.443,0,0,1-2.4-3.076A6.373,6.373,0,0,0,398.411.458,3.47,3.47,0,0,0,396.93.011a7.149,7.149,0,0,0-2.169.254c-3.448.928-3.515,2.543-3.673,4.734A15.786,15.786,0,0,1,388,13.8l-1.723,2.585c-.52.809-1.007,1.547-1.469,2.212a14.507,14.507,0,0,1-8.314,5.8c-1.561.347-3.378.7-5.473,1.019a12.5,12.5,0,0,1-8.695-1.536c-1.886-1-3.229-1.751-5.156.1s-1.2,3.176-.285,5.106a12.162,12.162,0,0,1,1.186,8.631,51.3,51.3,0,0,1-1.353,5.245A11.454,11.454,0,0,1,350,49.921a42.827,42.827,0,0,1-5.164,1.44,11.457,11.457,0,0,1-8.473-1.29c-1.888-.973-3.181-1.7-4.865-.044s-.953,2.946,0,4.85a11.362,11.362,0,0,1,1.192,8.441,38.333,38.333,0,0,1-1.538,5.078,10.618,10.618,0,0,1-7.2,6.2,35.415,35.415,0,0,1-5.226.722,11.02,11.02,0,0,1-8.034-2.613c-1.693-1.277-2.826-2.223-4.632-.944-1.818,1.252-1.3,2.655-.688,4.664a10.969,10.969,0,0,1-.276,8.422,33.164,33.164,0,0,1-2.479,4.62,10.19,10.19,0,0,1-8.317,4.392,32.83,32.83,0,0,1-5.2-.581,10.839,10.839,0,0,1-7.038-4.586c-1.292-1.654-2.132-2.868-4.154-2.134s-1.9,2.175-1.825,4.3a14,14,0,0,1-.246,3.623,10.818,10.818,0,0,1-2.221,4.416,29.614,29.614,0,0,1-6.879,6.21,16.222,16.222,0,0,1-2.892,1.492,16.375,16.375,0,0,1-3.245-.319,24.556,24.556,0,0,1-3.785-.973,37.564,37.564,0,0,1-4.9-2.186,10.859,10.859,0,0,1-5.235-6.546,8.921,8.921,0,0,0-1.089-2.414,2.356,2.356,0,0,0-2.132-.924c-2.1.042-2.436,1.528-3.028,3.523a10.84,10.84,0,0,1-4.853,6.809,36.827,36.827,0,0,1-4.627,2.371,9.9,9.9,0,0,1-9.261-1.28,34.713,34.713,0,0,1-3.84-3.529,10.936,10.936,0,0,1-2.963-7.854c-.065-2.118-.026-3.608-2.13-4.2-2.109-.606-2.886.622-4.074,2.381a10.972,10.972,0,0,1-6.781,5.068,35.859,35.859,0,0,1-5.2,1.011,11.029,11.029,0,0,1-8.965-3.418,47.863,47.863,0,0,1-3.366-4.211,12.19,12.19,0,0,1-2.4-8.351c.049-2.133.207-3.643-2.3-4.548s-3.393.309-4.743,2a14.774,14.774,0,0,1-2.59,2.677,13.368,13.368,0,0,1-4.751,2.244c-1.024.279-1.979.509-2.879.714-.908.223-1.753.408-2.534.561a13.307,13.307,0,0,1-5.109-.092,18.155,18.155,0,0,1-2.509-.74,11.076,11.076,0,0,1-2.254-1.2c-1.352-.842-2.888-1.956-4.661-3.214a14.68,14.68,0,0,1-3.887-3.791,15,15,0,0,1-1.709-3.353,6.937,6.937,0,0,0-1.352-2.482,3.712,3.712,0,0,0-3.089-.874c-3.11.219-3.489,1.679-4.068,3.781a15.542,15.542,0,0,1-1.336,3.567,12.4,12.4,0,0,1-1.369,2.007,24.676,24.676,0,0,1-2.1,2.151q-1.22,1.105-2.294,2.008l-1.044.86-.958.833a14.415,14.415,0,0,1-9.633,3.079c-1.614-.154-3.448-.3-5.588-.594a14.169,14.169,0,0,1-5.106-1.54,15.426,15.426,0,0,1-3.011-2.244c-1.594-1.437-2.695-2.5-5.243-1.111-2.488,1.454-2.152,2.935-1.748,5.042a15.421,15.421,0,0,1,.373,3.733,13.93,13.93,0,0,1-1.318,5.127c-.856,1.956-1.693,3.579-2.416,5.007a10.566,10.566,0,0,1-1.428,2.062,13.484,13.484,0,0,1-1.857,1.8,12.7,12.7,0,0,1-4.5,2.323c-1.554.379-3.313.816-5.4,1.179a12.593,12.593,0,0,1-8.745-1.28c-1.929-.933-3.259-1.637-5.19.316-1.915,1.964-1.138,3.3-.16,5.2a12.612,12.612,0,0,1,1.509,8.674c-.345,2.057-.669,3.878-1.058,5.4a11.975,11.975,0,0,1-2.258,4.5,11.73,11.73,0,0,1-3.844,3.246c-1.405.716-3.04,1.5-4.994,2.274a12.321,12.321,0,0,1-8.765.469c-2.068-.538-3.507-.973-4.977,1.265s-.443,3.4.885,5.064a12.4,12.4,0,0,1,3.139,8.183q.081,3.115-.053,5.475a10.3,10.3,0,0,1-.454,2.438,12.319,12.319,0,0,1-4.2,6.215c-.63.47-1.323.96-2.085,1.467s-1.564,1.045-2.453,1.589a12.339,12.339,0,0,1-8.553,1.859c-2.12-.2-3.647-.42-4.709,2.01s.094,3.4,1.675,4.831a12.214,12.214,0,0,1,4.383,7.572,51.908,51.908,0,0,1,.8,5.412,11.418,11.418,0,0,1-.673,4.969,11.468,11.468,0,0,1-2.606,4.284c-1.111,1.115-2.414,2.366-4.022,3.7a12.259,12.259,0,0,1-8.177,3.122c-2.146.114-3.65.137-4.345,2.7s.6,3.344,2.386,4.528a12.291,12.291,0,0,1,5.476,6.831c.714,1.969,1.193,3.7,1.6,5.231a12.335,12.335,0,0,1-1.825,9.657q-1.35,1.92-3.4,4.295a12.334,12.334,0,0,1-7.58,4.4c-2.086.462-3.568.73-3.862,3.391-.276,2.664,1.153,3.235,3.1,4.113a12.431,12.431,0,0,1,6.527,5.865q1.491,2.74,2.463,4.9a10.342,10.342,0,0,1,.718,2.378,12.289,12.289,0,0,1,.237,2.561,12.656,12.656,0,0,1-.295,2.554,10.313,10.313,0,0,1-.772,2.364q-.506,1.068-1.157,2.284c-.424.81-.884,1.668-1.41,2.575A12.578,12.578,0,0,1,3.181,283.2c-1.951.856-3.413,1.4-3.15,4.121s1.741,3.006,3.821,3.5a12.461,12.461,0,0,1,7.573,4.512c1.389,1.6,2.5,3.045,3.418,4.326a11.689,11.689,0,0,1,1.979,4.647,11.809,11.809,0,0,1,.034,5.054c-.317,1.54-.792,3.323-1.405,5.345a12.709,12.709,0,0,1-5.088,7.232c-1.7,1.305-2.931,2.183-2.056,4.831.939,2.632,2.469,2.558,4.61,2.536a14.585,14.585,0,0,1,3.7.319,13.183,13.183,0,0,1,4.783,2.234c1.705,1.228,3.228,2.321,4.432,3.334a12.508,12.508,0,0,1,3.146,3.98,12.347,12.347,0,0,1,1.415,4.876c.088,1.593.2,3.409.169,5.548a19.24,19.24,0,0,1-.258,2.924,11.6,11.6,0,0,1-.645,2.28,14.87,14.87,0,0,1-1.875,3.238c-1.25,1.753-2.212,2.986-.515,5.268s3.094,1.8,5.164,1.129a12.792,12.792,0,0,1,8.892-.065c2.048.625,3.781,1.251,5.239,1.852a11.631,11.631,0,0,1,4.225,2.827,11.834,11.834,0,0,1,2.853,4.2c.582,1.482,1.237,3.184,1.865,5.228a12.777,12.777,0,0,1-.068,8.877c-.667,2.065-1.174,3.484,1.093,5.148s3.479.731,5.235-.521A14.834,14.834,0,0,1,65,390.111a13.963,13.963,0,0,1,5.188-.881c2.129-.016,3.933.123,5.529.215a12.071,12.071,0,0,1,4.833,1.492,11.814,11.814,0,0,1,3.889,3.233c.971,1.236,2.037,2.728,3.174,4.517A12.439,12.439,0,0,1,89.8,407.23c-.118,2.138-.257,3.634,2.278,4.654s3.471-.217,4.846-1.85a14.681,14.681,0,0,1,2.649-2.606,13.492,13.492,0,0,1,4.774-2.118c2.043-.515,3.82-.81,5.385-1.084a11.743,11.743,0,0,1,5.016.374,11.433,11.433,0,0,1,4.46,2.324,52.328,52.328,0,0,1,3.991,3.754,12.262,12.262,0,0,1,3.728,7.929c.276,2.134.412,3.63,3.023,4.133s3.294-.834,4.34-2.712a12.221,12.221,0,0,1,6.4-5.966,51.162,51.162,0,0,1,5.091-1.98,12.129,12.129,0,0,1,9.736,1.144c1.327.848,2.826,1.857,4.472,3.12a12.219,12.219,0,0,1,4.757,7.317c.559,2.059.893,3.539,3.5,3.692,2.606.125,3.1-1.3,3.88-3.283a12.213,12.213,0,0,1,5.525-6.745c1.773-1.059,3.373-1.92,4.785-2.6a11.988,11.988,0,0,1,9.771.009,49.736,49.736,0,0,1,4.774,2.611,12.01,12.01,0,0,1,5.477,6.761c.768,2,1.248,3.417,3.828,3.294s2.922-1.583,3.492-3.647a12,12,0,0,1,4.8-7.254,49.452,49.452,0,0,1,4.5-3.047,11.872,11.872,0,0,1,9.711-.9c1.463.552,3.127,1.264,4.975,2.174a12.054,12.054,0,0,1,6.019,6.27c.931,1.919,1.527,3.3,4.074,2.973,2.542-.348,2.757-1.839,3.154-3.934a12.046,12.046,0,0,1,4.173-7.621c1.545-1.364,2.966-2.477,4.233-3.393a11.823,11.823,0,0,1,9.6-1.643,49.06,49.06,0,0,1,5.121,1.793c7.913,3.162,5.741,9.488,10.738,8.452,2.508-.516,2.61-2.03,2.85-4.148a12,12,0,0,1,3.6-7.906,52.434,52.434,0,0,1,3.974-3.691,11.8,11.8,0,0,1,9.457-2.341,49.676,49.676,0,0,1,5.24,1.411c8.133,2.58,6.425,9.028,11.35,7.637,2.467-.717,2.459-2.228,2.541-4.357a12.041,12.041,0,0,1,3-8.16,53.187,53.187,0,0,1,3.682-3.993,11.91,11.91,0,0,1,9.256-3.105,52.556,52.556,0,0,1,5.358.946c8.382,1.833,7.183,8.429,11.923,6.633,4.727-1.829-.5-5.964,4.451-12.91a53.724,53.724,0,0,1,3.349-4.28,12,12,0,0,1,8.98-3.864,54,54,0,0,1,5.429.478,12.245,12.245,0,0,1,7.78,3.965c1.514,1.5,2.545,2.628,4.9,1.432s2.07-2.674,1.751-4.795a12.256,12.256,0,0,1,1.407-8.638c.991-1.839,1.954-3.367,2.819-4.688a12.333,12.333,0,0,1,8.406-5.092q2.346-.255,5.468-.34a12.424,12.424,0,0,1,8.344,2.7c1.735,1.236,2.949,2.2,5.111.608s1.648-3.008,1-5.043a12.315,12.315,0,0,1,0-8.778,52.982,52.982,0,0,1,2-5.112,11.448,11.448,0,0,1,3.029-4.016,11.578,11.578,0,0,1,4.367-2.5c1.519-.44,3.26-.925,5.324-1.338a12.435,12.435,0,0,1,8.717,1.1c1.947.9,3.314,1.6,5.149-.38s1.081-3.267.054-5.155a12.32,12.32,0,0,1-1.653-8.629,54.078,54.078,0,0,1,.977-5.411,12.549,12.549,0,0,1,6-7.824c1.4-.732,3.065-1.507,4.969-2.338a12.785,12.785,0,0,1,5.105-1.124,14.613,14.613,0,0,1,3.659.515c2.075.5,3.524.913,4.967-1.367s.447-3.4-.936-5.061a12.358,12.358,0,0,1-3.3-8.154c-.067-2.066-.138-3.925-.079-5.5a11.883,11.883,0,0,1,1.316-4.851,11.326,11.326,0,0,1,3.094-3.965c1.261-.972,2.692-2.077,4.422-3.248a12.569,12.569,0,0,1,8.5-2.264c2.133.1,3.634.224,4.616-2.287s-.233-3.428-1.9-4.79a12.267,12.267,0,0,1-4.768-7.365c-.511-2.031-.893-3.829-1.129-5.38a10.241,10.241,0,0,1-.069-2.48,12.507,12.507,0,0,1,.425-2.535,11.917,11.917,0,0,1,2.323-4.463,52.54,52.54,0,0,1,3.745-4,12.337,12.337,0,0,1,7.912-3.775,7.656,7.656,0,0,0,2.68-.654,3.078,3.078,0,0,0,1.455-2.412c.47-2.636-.875-3.312-2.745-4.347a14.632,14.632,0,0,1-3.045-2.1,12.666,12.666,0,0,1-2.983-4.276c-.43-.951-.792-1.848-1.135-2.7s-.649-1.644-.909-2.386a12.329,12.329,0,0,1,.993-9.782,52.3,52.3,0,0,1,3.014-4.569,12.241,12.241,0,0,1,7.175-5.018c2.056-.633,3.507-1.021,3.559-3.678S505.813,188.592,503.786,187.88Z" fill="url(#a)"/>
</svg>
