<svg xmlns="http://www.w3.org/2000/svg" xmlns:xlink="http://www.w3.org/1999/xlink" width="196.32" height="199.274" viewBox="0 0 196.32 199.274">
  <defs>
    <linearGradient id="a" x1="98.16" y1="199.274" x2="98.16" gradientUnits="userSpaceOnUse">
      <stop offset="0" stop-color="#65bad7"/>
      <stop offset="1" stop-color="#c3faf5"/>
    </linearGradient>
  </defs>
  <title>Spores_3</title>
  <path d="M187.027,109.53q-.536-.765-.974-1.466a15.746,15.746,0,0,1-2.32-8.391V99.6a15.74,15.74,0,0,1,2.32-8.39q.44-.7.974-1.467c3.758-5.366,9.821-4.207,9.257-7.409s-5.866-.038-11.233-3.8c-.495-.346-.953-.685-1.378-1.015a15.664,15.664,0,0,1-5.052-7.073l-.06-.164a15.666,15.666,0,0,1-.68-8.676q.169-.789.4-1.664c1.7-6.328,7.79-7.313,6.165-10.128s-5.526,1.97-11.854.274q-.9-.242-1.689-.5a15.686,15.686,0,0,1-7.157-4.918l-.079-.094a15.694,15.694,0,0,1-3.6-7.9c-.076-.546-.143-1.128-.2-1.749-.571-6.526,4.819-9.536,2.329-11.625s-4.519,3.741-11.045,4.312q-.916.079-1.732.109a15.679,15.679,0,0,1-8.418-2.177l-.132-.076a15.679,15.679,0,0,1-6.083-6.2c-.254-.481-.511-1-.77-1.552-2.769-5.938,1.267-10.609-1.788-11.721s-2.966,5.061-8.9,7.829q-.833.389-1.588.694a15.676,15.676,0,0,1-8.642.838l-.146-.025a15.678,15.678,0,0,1-7.85-3.744q-.606-.548-1.259-1.2C99.217,5.77,101.411,0,98.16,0S97.1,5.77,92.471,10.4q-.651.651-1.259,1.2a15.678,15.678,0,0,1-7.85,3.744l-.146.025a15.676,15.676,0,0,1-8.642-.838q-.754-.306-1.588-.694c-5.937-2.768-5.849-8.941-8.9-7.829s.981,5.783-1.788,11.721c-.258.555-.516,1.071-.77,1.551a15.669,15.669,0,0,1-6.083,6.2l-.132.076a15.679,15.679,0,0,1-8.418,2.177q-.816-.03-1.732-.109c-6.526-.571-8.554-6.4-11.044-4.312s2.9,5.1,2.328,11.625c-.054.62-.121,1.2-.2,1.749a15.686,15.686,0,0,1-3.6,7.9l-.078.093A15.689,15.689,0,0,1,25.414,49.6q-.788.255-1.689.5C17.4,51.789,13.5,47,11.872,49.819s4.469,3.8,6.164,10.128c.157.584.29,1.138.4,1.664a15.665,15.665,0,0,1-.68,8.676l-.06.164a15.664,15.664,0,0,1-5.052,7.073q-.636.5-1.378,1.015C5.9,82.3.6,79.134.037,82.335s5.5,2.043,9.256,7.409c.358.51.681,1,.974,1.467a15.732,15.732,0,0,1,2.32,8.391v.071a15.732,15.732,0,0,1-2.32,8.39c-.293.468-.616.957-.974,1.467C5.536,114.9-.528,113.738.037,116.939s5.866.038,11.232,3.8q.742.52,1.378,1.015a15.667,15.667,0,0,1,5.052,7.074l.06.163a15.667,15.667,0,0,1,.68,8.676c-.113.526-.246,1.081-.4,1.665-1.7,6.328-7.79,7.312-6.164,10.128s5.525-1.97,11.853-.275q.9.242,1.689.5a15.689,15.689,0,0,1,7.158,4.919l.078.094a15.679,15.679,0,0,1,3.6,7.9c.076.547.143,1.129.2,1.749.571,6.526-4.819,9.536-2.328,11.626s4.518-3.741,11.044-4.312c.611-.054,1.188-.089,1.732-.109a15.669,15.669,0,0,1,8.418,2.176l.132.076a15.675,15.675,0,0,1,6.083,6.2c.254.48.512,1,.77,1.552,2.769,5.937-1.267,10.609,1.788,11.72s2.967-5.06,8.9-7.829c.555-.259,1.085-.489,1.588-.694a15.685,15.685,0,0,1,8.642-.838l.146.026a15.684,15.684,0,0,1,7.851,3.743c.4.366.824.764,1.258,1.2,4.633,4.632,2.438,10.4,5.689,10.4s1.057-5.77,5.689-10.4c.434-.435.854-.833,1.259-1.2a15.676,15.676,0,0,1,7.85-3.743l.146-.026a15.685,15.685,0,0,1,8.642.838c.5.205,1.033.435,1.588.694,5.938,2.769,5.849,8.941,8.9,7.829s-.981-5.783,1.788-11.72q.388-.832.77-1.552a15.682,15.682,0,0,1,6.083-6.2l.132-.076a15.669,15.669,0,0,1,8.418-2.176c.544.02,1.121.055,1.732.109,6.526.571,8.554,6.4,11.045,4.312s-2.9-5.1-2.329-11.626c.054-.62.121-1.2.2-1.749a15.687,15.687,0,0,1,3.6-7.9l.079-.094a15.681,15.681,0,0,1,7.157-4.919q.788-.255,1.689-.5c6.328-1.7,10.228,3.09,11.854.275s-4.469-3.8-6.165-10.128q-.234-.876-.4-1.665a15.662,15.662,0,0,1,.68-8.675l.06-.164a15.667,15.667,0,0,1,5.052-7.074c.425-.329.883-.668,1.378-1.015,5.367-3.758,10.668-.595,11.233-3.8S190.785,114.9,187.027,109.53Z" fill="url(#a)"/>
</svg>
