<svg xmlns="http://www.w3.org/2000/svg" xmlns:xlink="http://www.w3.org/1999/xlink" width="467.907" height="332.368" viewBox="0 0 467.907 332.368">
  <defs>
    <linearGradient id="a" y1="166.184" x2="467.907" y2="166.184" gradientUnits="userSpaceOnUse">
      <stop offset="0" stop-color="#65bad7"/>
      <stop offset="1" stop-color="#c3faf5"/>
    </linearGradient>
  </defs>
  <title>Spores</title>
  <path d="M464.313,168.434a13.133,13.133,0,0,1-7.291-4.125c-1.257-1.387-2.366-2.608-3.2-3.684a9.481,9.481,0,0,1-1.7-8.153c.2-.669.415-1.392.648-2.174s.486-1.613.788-2.515a14.674,14.674,0,0,1,1.077-2.462,11.63,11.63,0,0,1,1.218-1.863,16.61,16.61,0,0,1,2.627-2.531,7.641,7.641,0,0,0,1.92-1.938,2.422,2.422,0,0,0,.313-1.169,3.872,3.872,0,0,0-.4-1.511c-1.059-2.324-2.541-2.077-4.628-1.777a17.123,17.123,0,0,1-3.663.239,13.571,13.571,0,0,1-4.749-1.236c-1.783-.755-3.189-1.492-4.475-2.091a9.856,9.856,0,0,1-3.3-2.778,9.755,9.755,0,0,1-1.113-1.876,8.085,8.085,0,0,1-.685-2.041c-.241-1.392-.551-2.965-.815-4.869a17.585,17.585,0,0,1-.173-2.673,11.955,11.955,0,0,1,.262-2.232,17.049,17.049,0,0,1,1.218-3.464c.855-1.929,1.5-3.288-.436-4.929-1.954-1.588-3.18-.662-4.909.542a16.839,16.839,0,0,1-3.134,1.836,12.648,12.648,0,0,1-4.758,1.029c-1.886.089-3.5.121-4.866.066a9.033,9.033,0,0,1-7.2-4.006c-.742-1.13-1.538-2.546-2.4-4.174a12.048,12.048,0,0,1-1.409-4.578,16.2,16.2,0,0,1,.125-3.6c.248-2.088.47-3.567-1.625-4.444-2.09-.823-2.957.387-4.236,2.057a12.6,12.6,0,0,1-6.582,4.951c-1.742.549-3.274.985-4.592,1.258a8.33,8.33,0,0,1-7.677-2.458,45.15,45.15,0,0,1-2.961-3.693,12.211,12.211,0,0,1-2.266-7.856c0-2.1.046-3.58-2-4.143-2.039-.542-2.739.768-3.8,2.579a12.191,12.191,0,0,1-5.89,5.643,40.839,40.839,0,0,1-4.4,1.675,8,8,0,0,1-7.754-1.883,38.147,38.147,0,0,1-3.12-3.508c-4.622-5.839-.632-10.828-4.629-11.756s-2.594,5.323-9.287,8.545-10.481,2.943-10.481,2.943-3.544-1.4-8.149-7.209-.626-10.822-4.578-11.737-2.587,5.324-9.279,8.524a36.741,36.741,0,0,1-4.337,1.754,7.862,7.862,0,0,1-7.728-1.816,36.809,36.809,0,0,1-3.1-3.507c-4.564-5.844-.561-10.821-4.506-11.762s-2.619,5.307-9.33,8.463a35.982,35.982,0,0,1-4.348,1.73,7.871,7.871,0,0,1-7.716-1.865,36.323,36.323,0,0,1-3.076-3.527c-4.526-5.874-.49-10.827-4.429-11.79s-2.653,5.289-9.384,8.4a35.955,35.955,0,0,1-4.359,1.7,7.869,7.869,0,0,1-7.7-1.917,36.608,36.608,0,0,1-3.052-3.548c-4.485-5.9-.416-10.826-4.347-11.821s-2.689,5.271-9.441,8.339a36.63,36.63,0,0,1-4.371,1.668A7.848,7.848,0,0,1,207,51.717a36.444,36.444,0,0,1-3.028-3.566c-4.443-5.936-.338-10.834-4.263-11.853s-2.727,5.254-9.5,8.271a36.293,36.293,0,0,1-4.383,1.64,7.859,7.859,0,0,1-7.675-2.026,36.519,36.519,0,0,1-3-3.588c-4.4-5.965-.265-10.836-4.184-11.881s-2.763,5.234-9.557,8.207a36.548,36.548,0,0,1-4.394,1.611,7.863,7.863,0,0,1-7.664-2.073,36.618,36.618,0,0,1-2.984-3.605c-4.375-5.991-.209-10.837-4.13-11.906s-2.791,5.221-9.6,8.162a36.944,36.944,0,0,1-4.4,1.594,7.885,7.885,0,0,1-7.665-2.095A37.047,37.047,0,0,1,117.578,25c-4.385-6-.219-10.84-4.161-11.911S110.626,18.3,103.8,21.27a37.974,37.974,0,0,1-4.4,1.617,7.976,7.976,0,0,1-7.708-2.022,39.9,39.9,0,0,1-3.06-3.57,12.127,12.127,0,0,1-2.46-7.769c-.059-2.1-.041-3.582-2.09-4.075-4.091-.97-2.7,5.268-9.489,8.476a42.671,42.671,0,0,1-4.376,1.82,8.48,8.48,0,0,1-7.974-1.48c-1.048-.867-2.23-1.94-3.572-3.239a13.546,13.546,0,0,1-3.99-7.38,7.035,7.035,0,0,0-.922-2.558A2.911,2.911,0,0,0,51.233,0,4.4,4.4,0,0,0,49.6.226a2.585,2.585,0,0,0-1.054.73,7.011,7.011,0,0,0-1.131,2.51A17.171,17.171,0,0,1,46,6.9a13.551,13.551,0,0,1-1.332,1.918q-.408.494-.9.993c-.33.342-.692.7-1.082,1.047-.753.664-1.46,1.353-2.095,1.934-.64.636-1.223,1.166-1.749,1.715a16.024,16.024,0,0,1-3.782,2.736,15.687,15.687,0,0,1-4.374,1.587c-1.473.26-3.161.622-5.148,1.046a15.552,15.552,0,0,1-5.074.37,17.644,17.644,0,0,1-3.635-.854c-2.023-.64-3.489-1.125-5.123,1.232-1.493,2.393-.495,3.529.909,5.141a17.235,17.235,0,0,1,2.221,2.966,15.65,15.65,0,0,1,1.656,4.712c.334,1.9.665,3.521.876,4.9a8.365,8.365,0,0,1,.091,1.073,8.45,8.45,0,0,1-.007,1.091,8.823,8.823,0,0,1-.419,2.137,9.076,9.076,0,0,1-2.108,3.736c-.921,1.008-2.137,2.148-3.478,3.438A13.153,13.153,0,0,1,3.86,53.381a7.835,7.835,0,0,0-2.61.723A2.614,2.614,0,0,0,.025,56.351C-.206,58.74,1.2,59.242,3.184,60a16.452,16.452,0,0,1,3.271,1.574,12.929,12.929,0,0,1,3.431,3.372c1.089,1.518,1.921,2.861,2.643,4.032a8.769,8.769,0,0,1,.281,8.165c-.6,1.209-1.427,2.6-2.384,4.158a11.894,11.894,0,0,1-3.254,3.493,16.164,16.164,0,0,1-3.178,1.685C2.06,87.3.673,87.845.954,90.076c.322,2.215,1.811,2.359,3.9,2.634a12.608,12.608,0,0,1,7.575,3.242c1.346,1.237,2.467,2.358,3.382,3.359a8.434,8.434,0,0,1,1.74,7.9,41.874,41.874,0,0,1-1.672,4.458,12.3,12.3,0,0,1-5.545,6.052c-1.8,1.108-3.08,1.84-2.466,3.936s2.093,2.017,4.2,1.971A12.278,12.278,0,0,1,20,125.708a41.751,41.751,0,0,1,3.807,2.841,8.287,8.287,0,0,1,2.739,7.578,43,43,0,0,1-1.118,4.612,12.247,12.247,0,0,1-4.8,6.64c-1.657,1.305-2.846,2.18-2,4.166s2.3,1.735,4.385,1.45a12.259,12.259,0,0,1,8.115,1.149,45.347,45.347,0,0,1,4.088,2.4,8.228,8.228,0,0,1,3.514,7.235,40.12,40.12,0,0,1-.622,4.69,12.281,12.281,0,0,1-4.1,7.083c-1.508,1.46-2.618,2.458-1.592,4.345,1.05,1.873,2.48,1.474,4.521.981a12.321,12.321,0,0,1,8.179.329,41.11,41.11,0,0,1,4.29,1.988,8.211,8.211,0,0,1,4.219,6.843,44.19,44.19,0,0,1-.178,4.733,12.214,12.214,0,0,1-3.4,7.446c-1.369,1.6-2.368,2.695-1.154,4.465s2.6,1.237,4.579.552a12.3,12.3,0,0,1,8.179-.463c1.736.518,3.218,1.05,4.469,1.561a8.3,8.3,0,0,1,4.848,6.413c.149,1.344.264,2.91.287,4.725a12.331,12.331,0,0,1-2.668,7.747c-1.2,1.721-2.087,2.908-.712,4.56s2.7.988,4.614.106a12.234,12.234,0,0,1,8.094-1.254,45.812,45.812,0,0,1,4.608,1.111,8.257,8.257,0,0,1,5.462,5.908,45.727,45.727,0,0,1,.768,4.671,12.386,12.386,0,0,1-1.86,7.981c-1.016,1.836-1.779,3.11-.239,4.621s2.806.7,4.613-.367a12.224,12.224,0,0,1,7.921-2.073,42.888,42.888,0,0,1,4.707.621,8.267,8.267,0,0,1,6.062,5.3,42.459,42.459,0,0,1,1.278,4.56,12.416,12.416,0,0,1-.962,8.143c-.806,1.939-1.422,3.291.282,4.632s2.885.382,4.558-.875a12.236,12.236,0,0,1,7.644-2.94,41.126,41.126,0,0,1,4.754.08,8.294,8.294,0,0,1,6.646,4.568,40.888,40.888,0,0,1,1.818,4.378,12.45,12.45,0,0,1,.038,8.207c-.563,2.024-1.009,3.441.856,4.574s2.923.032,4.433-1.421a12.291,12.291,0,0,1,7.234-3.859,41.833,41.833,0,0,1,4.74-.53,7.853,7.853,0,0,1,4.051.942,8,8,0,0,1,3.129,2.736,41.46,41.46,0,0,1,2.339,4.146,12.305,12.305,0,0,1,1.07,8.115c-.307,2.077-.574,3.538,1.409,4.423s2.872-.29,4.2-1.941a12.363,12.363,0,0,1,6.7-4.759,39.973,39.973,0,0,1,4.609-1.037A8.094,8.094,0,0,1,191,303.339c.847,1.068,1.806,2.279,2.805,3.807a12.291,12.291,0,0,1,1.962,7.967c-.072,2.093-.188,3.623,1.884,4.229s2.823-.662,3.951-2.435a12.137,12.137,0,0,1,6.113-5.418,43.5,43.5,0,0,1,4.479-1.6,8.357,8.357,0,0,1,7.8,1.973,40.36,40.36,0,0,1,3.192,3.505,12.45,12.45,0,0,1,2.8,7.7c.152,2.091.208,3.573,2.325,3.991s2.73-.932,3.661-2.809a15.993,15.993,0,0,1,1.855-3.058,11.661,11.661,0,0,1,3.652-3.025,40.32,40.32,0,0,1,4.279-2.03,7.349,7.349,0,0,1,2.021-.484,8.611,8.611,0,0,1,2.11.013,7.848,7.848,0,0,1,3.842,1.589c1.059.827,2.241,1.911,3.548,3.161a12.165,12.165,0,0,1,3.622,7.33c.378,2.068.594,3.539,2.747,3.75s2.623-1.255,3.344-3.219a12.282,12.282,0,0,1,4.817-6.639c1.5-1.033,2.846-1.805,4.033-2.481a8.129,8.129,0,0,1,8.055.24,40.4,40.4,0,0,1,3.892,2.684A12.39,12.39,0,0,1,288.246,329c.616,2.026,1,3.444,3.181,3.361s2.474-1.542,2.962-3.585a12.286,12.286,0,0,1,4.013-7.134,41.636,41.636,0,0,1,3.711-2.991,7.84,7.84,0,0,1,3.921-1.381,7.952,7.952,0,0,1,4.115.611,41.985,41.985,0,0,1,4.216,2.227,12.164,12.164,0,0,1,3.56,3.108,16.1,16.1,0,0,1,1.767,3.124c.877,1.909,1.452,3.28,3.624,2.939s2.276-1.8,2.49-3.917a12.5,12.5,0,0,1,3.032-7.677,41.111,41.111,0,0,1,3.289-3.407,8.186,8.186,0,0,1,7.866-1.919c1.307.4,2.792.842,4.5,1.524a12.5,12.5,0,0,1,6.247,5.4c1.165,1.766,1.952,3.058,4.062,2.32s1.986-2.209,1.878-4.31a12.392,12.392,0,0,1,1.83-8,43.779,43.779,0,0,1,2.682-3.978,8.019,8.019,0,0,1,3.342-2.5,7.935,7.935,0,0,1,4.117-.714,44.32,44.32,0,0,1,4.744.783A12.4,12.4,0,0,1,380.509,307c1.466,1.512,2.471,2.615,4.471,1.557,2.008-1.039,1.582-2.552,1.095-4.591a12.583,12.583,0,0,1,.307-8.273c.669-1.711,1.34-3.118,1.913-4.382a8.07,8.07,0,0,1,2.759-3.176A9.166,9.166,0,0,1,395,286.668a44.3,44.3,0,0,1,4.773-.271,12.213,12.213,0,0,1,4.738.863A16.688,16.688,0,0,1,407.661,289c1.747,1.159,2.959,2.019,4.688.511s1.046-2.83.14-4.723a16.016,16.016,0,0,1-1.269-3.352,12.649,12.649,0,0,1-.19-4.816,44.811,44.811,0,0,1,.921-4.706,7.885,7.885,0,0,1,.8-1.936,8.4,8.4,0,0,1,1.233-1.737,8.833,8.833,0,0,1,1.625-1.378,7.558,7.558,0,0,1,1.88-.941q1.94-.64,4.616-1.289a12.664,12.664,0,0,1,8.221.816c1.958.764,3.339,1.356,4.7-.446,1.327-1.824.373-2.968-.922-4.626a16.152,16.152,0,0,1-1.969-3.008,11.85,11.85,0,0,1-1.172-4.625c-.092-1.825-.133-3.428-.082-4.781a7.538,7.538,0,0,1,.372-2.063,8.484,8.484,0,0,1,3.854-4.874c1.169-.671,2.619-1.366,4.286-2.119a12.574,12.574,0,0,1,8.223-.7c2.064.392,3.516.716,4.519-1.3s-.184-2.984-1.753-4.371a16.353,16.353,0,0,1-2.5-2.6A12.3,12.3,0,0,1,445.9,225.6c-.462-1.8-.727-3.336-.951-4.687a8.671,8.671,0,0,1,2.864-7.622c1.038-.878,2.269-1.864,3.8-2.922a12.693,12.693,0,0,1,7.935-2.348c2.1-.035,3.633,0,4.186-2.234s-.749-2.934-2.572-3.979a12.644,12.644,0,0,1-5.828-5.905q-1.24-2.506-1.954-4.409a8.929,8.929,0,0,1,1.03-8.145c.4-.557.863-1.15,1.355-1.785s1.02-1.314,1.62-2.031a13.247,13.247,0,0,1,3.7-3.1,16.4,16.4,0,0,1,3.371-1.323c2.01-.611,3.509-.994,3.45-3.41C467.817,169.278,466.356,168.95,464.313,168.434Z" fill="url(#a)"/>
</svg>
