<svg xmlns="http://www.w3.org/2000/svg" width="186.042" height="73.25" viewBox="0 0 186.042 73.25">
  <title>Cart</title>
  <g>
    <g>
      <path d="M68.766,44.432A25.816,25.816,0,0,0,46.2,18.827v-.21H42.95a25.815,25.815,0,0,0,0,51.63H46.2v-.21A25.816,25.816,0,0,0,68.766,44.432Z" fill="#66421f"/>
      <circle cx="46.2" cy="44.432" r="25.815" fill="#754c24"/>
    </g>
    <polygon points="0 1.75 40.375 6.625 30.063 43.125 2.438 39.849 0 1.75" fill="#754c24"/>
    <polygon points="2 40.635 0 1.75 1.75 2.375 3.583 40.083 2 40.635" fill="#66421f"/>
    <g>
      <polygon points="99.875 50.667 96.708 50.917 181.125 69.25 184.458 68.75 99.875 50.667" fill="#66421f"/>
      <polygon points="99.875 50.667 184.458 68.75 186.042 65.333 101.625 47.333 99.875 50.667" fill="#754c24"/>
    </g>
    <polygon points="2 40.635 97.118 52.773 107.458 51.5 20.813 40 2.938 39.75 2 40.635" fill="#66421f"/>
    <polygon points="24.25 0 22.458 0.667 20.43 40.635 107.458 51.5 110.5 51 24.25 0" fill="#66421f"/>
    <polygon points="22.125 39.875 110.5 51 123.125 12.375 24.25 0 22.125 39.875" fill="#754c24"/>
    <g>
      <path d="M87.089,47.435A25.814,25.814,0,0,0,64.524,21.83v-.211h-3.25a25.816,25.816,0,1,0,0,51.631h3.25v-.211A25.814,25.814,0,0,0,87.089,47.435Z" fill="#66421f"/>
      <circle cx="64.524" cy="47.435" r="25.815" fill="#754c24"/>
    </g>
    <polygon points="20.43 40.635 2 40.635 2.25 39.063 21 39.063 20.43 40.635" fill="#66421f"/>
  </g>
</svg>
