<svg xmlns="http://www.w3.org/2000/svg" xmlns:xlink="http://www.w3.org/1999/xlink" width="190.136" height="77.029" viewBox="0 0 190.136 77.029">
  <defs>
    <linearGradient id="a" x1="127.863" y1="-144.28" x2="139.322" y2="-135.044" gradientTransform="translate(84.69 191.863) rotate(-67.728)" gradientUnits="userSpaceOnUse">
      <stop offset="0" stop-color="#c5d654"/>
      <stop offset="1" stop-color="#a4bd47"/>
    </linearGradient>
  </defs>
  <title>Cart_1</title>
  <g>
    <g>
      <path d="M72.86,50.378A25.813,25.813,0,0,0,50.3,24.774v-.211h-3.25a25.815,25.815,0,1,0,0,51.63H50.3v-.21A25.815,25.815,0,0,0,72.86,50.378Z" fill="#66421f"/>
      <circle cx="50.295" cy="50.378" r="25.815" fill="#754c24"/>
    </g>
    <polygon points="4.095 7.696 44.47 12.571 34.157 49.071 6.532 45.795 4.095 7.696" fill="#754c24"/>
    <polygon points="6.095 46.581 4.095 7.696 5.845 8.321 7.678 46.029 6.095 46.581" fill="#66421f"/>
    <g>
      <polygon points="103.97 56.613 100.803 56.863 185.22 75.196 188.553 74.696 103.97 56.613" fill="#66421f"/>
      <polygon points="103.97 56.613 188.553 74.696 190.136 71.279 105.72 53.279 103.97 56.613" fill="#754c24"/>
    </g>
    <polygon points="6.095 46.581 101.212 58.72 111.553 57.446 24.907 45.946 7.032 45.696 6.095 46.581" fill="#66421f"/>
    <g>
      <g>
        <path d="M43.589,1.132c3.326.755,7.267,1.824,11.623,3.141,3.571,1.077,7.431,2.322,11.456,3.7,3.236,1.1,6.576,2.292,9.975,3.535,3.34,1.23,6.728,2.523,10.12,3.846,2.919,1.145,5.829,2.328,8.707,3.515q3.709,1.549,7.312,3.116c5.317,2.325,10.4,4.689,15.014,7,3.929,1.979,7.53,3.914,10.617,5.764,7.627,4.572,12.239,8.6,11.617,11.343-.657,2.9-7.212,4.577-16.9,5.341-3.594.291-7.62.454-11.939.509-3.466.044-7.113.027-10.877-.059-3.374-.089-6.853-.212-10.362-.383-4.595-.223-9.264-.524-13.879-.885-2.913-.22-5.808-.477-8.66-.745-4.818-.458-9.5-.977-13.893-1.544-3.427-.44-6.674-.91-9.683-1.388-3.839-.615-7.29-1.266-10.206-1.927A45.551,45.551,0,0,1,26.7,42.869a29.444,29.444,0,0,1-8.312-4.943C8.236,29.12,11.305,16.865,11.305,16.865S14.143,2.918,29.3.39A34.432,34.432,0,0,1,40.544.543C41.525.694,42.536.893,43.589,1.132Z" fill="#ff931e"/>
        <path d="M40.544.543a65.693,65.693,0,0,1-3.1,22.01A65.643,65.643,0,0,1,26.7,42.869a29.444,29.444,0,0,1-8.312-4.943,66.146,66.146,0,0,0,7.587-15.669A66.45,66.45,0,0,0,29.3.39,34.432,34.432,0,0,1,40.544.543Z" fill="#ffa61e"/>
        <path d="M117.8,28.98c3.929,1.979,7.53,3.914,10.617,5.764a63.689,63.689,0,0,1-2.148,8.741,64.639,64.639,0,0,1-3.136,7.943c-3.594.291-7.62.454-11.939.509A65.667,65.667,0,0,0,117.8,28.98Z" fill="#ffa61e"/>
        <path d="M55.212,4.273c3.571,1.077,7.431,2.322,11.456,3.7a93.652,93.652,0,0,1-2.239,19.938c-1.924,8.475-6.535,15.416-10.91,20.412-3.427-.44-6.674-.91-9.683-1.388,3.63-5.647,7.791-13.449,9.677-21.758A85.677,85.677,0,0,0,55.212,4.273Z" fill="#ffa61e"/>
        <path d="M76.643,11.506c3.34,1.23,6.728,2.523,10.12,3.846a80.16,80.16,0,0,1-1.831,18.227c-1.459,6.427-5.043,12.278-8.86,17.031-2.913-.22-5.808-.477-8.66-.745a59.344,59.344,0,0,0,6.7-17.193A105.85,105.85,0,0,0,76.643,11.506Z" fill="#ffa61e"/>
        <path d="M95.47,18.867q3.709,1.549,7.312,3.116a37.668,37.668,0,0,1,.932,19.2,60.952,60.952,0,0,1-3.4,10.692c-3.374-.089-6.853-.212-10.362-.383A78.53,78.53,0,0,0,94.76,36.589,46.862,46.862,0,0,0,95.47,18.867Z" fill="#ffa61e"/>
      </g>
      <path d="M12.385,19.939a33.551,33.551,0,0,0-8.66-2.052A4.17,4.17,0,0,1,.944,16.874C-.426,15.482.074,13.093.157,12.7.432,11.38,1.343,9.275,2.982,8.929a3.369,3.369,0,0,1,2.39.611,43.639,43.639,0,0,0,9.041,3.8,4.448,4.448,0,0,1,.682,4.044A4.354,4.354,0,0,1,12.385,19.939Z" fill="url(#a)"/>
    </g>
    <polygon points="28.345 5.946 26.553 6.613 24.525 46.581 111.553 57.446 114.595 56.946 28.345 5.946" fill="#66421f"/>
    <polygon points="26.22 45.821 114.595 56.946 127.22 18.321 28.345 5.946 26.22 45.821" fill="#754c24"/>
    <g>
      <path d="M91.184,51.214a25.816,25.816,0,0,0-22.566-25.6V25.4h-3.25a25.815,25.815,0,0,0,0,51.63h3.25v-.21A25.816,25.816,0,0,0,91.184,51.214Z" fill="#66421f"/>
      <circle cx="68.618" cy="51.214" r="25.815" fill="#754c24"/>
    </g>
    <polygon points="24.525 46.581 6.095 46.581 6.345 45.009 25.095 45.009 24.525 46.581" fill="#66421f"/>
  </g>
</svg>
