<svg xmlns="http://www.w3.org/2000/svg" width="186.04" height="71.25" viewBox="0 0 186.04 71.25">
  <defs>
    <style>
      .cls-1 {
        fill: #66421f;
      }

      .cls-2 {
        fill: #754c24;
      }
    </style>
  </defs>
  <title>Cart</title>
  <g id="Layer_2" data-name="Layer 2">
    <g id="_0" data-name="0">
      <g>
        <g>
          <path class="cls-1" d="M68.77,44.43A25.82,25.82,0,0,0,46.2,18.83v-.21H43a25.82,25.82,0,1,0,0,51.63H46.2V70A25.82,25.82,0,0,0,68.77,44.43Z"/>
          <circle class="cls-2" cx="46.2" cy="44.43" r="25.82"/>
        </g>
        <polygon class="cls-2" points="0 1.75 40.38 6.63 30.06 43.13 2.44 39.85 0 1.75"/>
        <polygon class="cls-1" points="2 40.63 0 1.75 1.75 2.38 3.58 40.08 2 40.63"/>
        <g>
          <polygon class="cls-1" points="99.88 50.67 96.71 50.92 181.13 69.25 184.46 68.75 99.88 50.67"/>
          <polygon class="cls-2" points="99.88 50.67 184.46 68.75 186.04 65.33 101.63 47.33 99.88 50.67"/>
        </g>
        <polygon class="cls-1" points="2 40.63 97.12 52.77 107.46 51.5 20.81 40 2.94 39.75 2 40.63"/>
        <polygon class="cls-1" points="24.25 0 22.46 0.67 20.43 40.63 107.46 51.5 110.5 51 24.25 0"/>
        <polygon class="cls-2" points="22.13 39.88 110.5 51 123.13 12.38 24.25 0 22.13 39.88"/>
        <g>
          <path class="cls-1" d="M86.76,45.43a25.82,25.82,0,0,0-22.57-25.6v-.21H60.94a25.82,25.82,0,1,0,0,51.63h3.25V71A25.82,25.82,0,0,0,86.76,45.43Z"/>
          <circle class="cls-2" cx="64.19" cy="45.43" r="25.82"/>
        </g>
        <polygon class="cls-1" points="20.43 40.63 2 40.63 2.25 39.06 21 39.06 20.43 40.63"/>
      </g>
    </g>
  </g>
</svg>
