<svg xmlns="http://www.w3.org/2000/svg" xmlns:xlink="http://www.w3.org/1999/xlink" width="190.14" height="77.03" viewBox="0 0 190.14 77.03">
  <defs>
    <style>
      .cls-1 {
        fill: #3b2612;
      }

      .cls-2 {
        fill: #6d4722;
      }

      .cls-3 {
        fill: #ff931e;
      }

      .cls-4 {
        fill: #ffa61e;
      }

      .cls-5 {
        fill: url(#linear-gradient);
      }
    </style>
    <linearGradient id="linear-gradient" x1="127.86" y1="-144.28" x2="139.32" y2="-135.04" gradientTransform="translate(84.69 191.86) rotate(-67.73)" gradientUnits="userSpaceOnUse">
      <stop offset="0" stop-color="#c5d654"/>
      <stop offset="1" stop-color="#a4bd47"/>
    </linearGradient>
  </defs>
  <title>Cart_1</title>
  <g id="Layer_2" data-name="Layer 2">
    <g id="_0" data-name="0">
      <g>
        <g>
          <path class="cls-1" d="M72.86,50.38A25.81,25.81,0,0,0,50.29,24.77v-.21H47a25.82,25.82,0,0,0,0,51.63h3.25V76A25.81,25.81,0,0,0,72.86,50.38Z"/>
          <circle class="cls-2" cx="50.29" cy="50.38" r="25.82"/>
        </g>
        <polygon class="cls-2" points="4.09 7.7 44.47 12.57 34.16 49.07 6.53 45.8 4.09 7.7"/>
        <polygon class="cls-1" points="6.09 46.58 4.09 7.7 5.84 8.32 7.68 46.03 6.09 46.58"/>
        <g>
          <polygon class="cls-1" points="103.97 56.61 100.8 56.86 185.22 75.2 188.55 74.7 103.97 56.61"/>
          <polygon class="cls-2" points="103.97 56.61 188.55 74.7 190.14 71.28 105.72 53.28 103.97 56.61"/>
        </g>
        <polygon class="cls-1" points="6.09 46.58 101.21 58.72 111.55 57.45 24.91 45.95 7.03 45.7 6.09 46.58"/>
        <g>
          <g>
            <path class="cls-3" d="M43.59,1.13c3.32.76,7.27,1.83,11.62,3.14C58.78,5.35,62.64,6.6,66.67,8c3.23,1.1,6.57,2.29,10,3.54S83.37,14,86.76,15.35q4.38,1.72,8.71,3.52,3.7,1.54,7.31,3.11c5.32,2.33,10.4,4.69,15,7,3.92,2,7.53,3.91,10.61,5.76C136,39.32,140.65,43.35,140,46.09s-7.21,4.57-16.9,5.34c-3.6.29-7.62.45-11.94.51-3.47,0-7.11,0-10.88-.06-3.37-.09-6.85-.21-10.36-.39-4.59-.22-9.26-.52-13.88-.88-2.91-.22-5.81-.48-8.66-.75-4.82-.45-9.5-1-13.89-1.54-3.43-.44-6.67-.91-9.68-1.39C40,46.32,36.55,45.67,33.63,45a46.23,46.23,0,0,1-6.93-2.14,29.5,29.5,0,0,1-8.31-4.94c-10.15-8.81-7.08-21.06-7.08-21.06S14.14,2.92,29.3.39A34.42,34.42,0,0,1,40.54.54C41.53.69,42.54.89,43.59,1.13Z"/>
            <path class="cls-4" d="M40.54.54a65.57,65.57,0,0,1-3.1,22A65.48,65.48,0,0,1,26.7,42.87a29.5,29.5,0,0,1-8.31-4.94A66.52,66.52,0,0,0,26,22.26,66.55,66.55,0,0,0,29.3.39,34.42,34.42,0,0,1,40.54.54Z"/>
            <path class="cls-4" d="M117.8,29c3.92,2,7.53,3.91,10.61,5.76a61.4,61.4,0,0,1-2.15,8.74,64.21,64.21,0,0,1-3.13,8c-3.6.29-7.62.45-11.94.51a66.93,66.93,0,0,0,3.61-8.75A65.8,65.8,0,0,0,117.8,29Z"/>
            <path class="cls-4" d="M55.21,4.27C58.78,5.35,62.64,6.6,66.67,8a93.86,93.86,0,0,1-2.24,19.94c-1.93,8.47-6.54,15.42-10.91,20.41-3.43-.44-6.67-.91-9.68-1.39,3.63-5.64,7.79-13.45,9.67-21.75A85.18,85.18,0,0,0,55.21,4.27Z"/>
            <path class="cls-4" d="M76.64,11.51C80,12.74,83.37,14,86.76,15.35a79.94,79.94,0,0,1-1.83,18.23c-1.46,6.43-5,12.28-8.86,17-2.91-.22-5.81-.48-8.66-.75a58.9,58.9,0,0,0,6.7-17.19A105.61,105.61,0,0,0,76.64,11.51Z"/>
            <path class="cls-4" d="M95.47,18.87q3.7,1.54,7.31,3.11a37.69,37.69,0,0,1,.93,19.21,60.76,60.76,0,0,1-3.4,10.69c-3.37-.09-6.85-.21-10.36-.39a77.94,77.94,0,0,0,4.81-14.9A46.77,46.77,0,0,0,95.47,18.87Z"/>
          </g>
          <path class="cls-5" d="M12.39,19.94a33.64,33.64,0,0,0-8.67-2.05,4.19,4.19,0,0,1-2.78-1C-.43,15.48.07,13.09.16,12.7.43,11.38,1.34,9.28,3,8.93a3.34,3.34,0,0,1,2.39.61,43.55,43.55,0,0,0,9,3.8,4.44,4.44,0,0,1,.68,4A4.36,4.36,0,0,1,12.39,19.94Z"/>
        </g>
        <polygon class="cls-1" points="28.34 5.95 26.55 6.61 24.52 46.58 111.55 57.45 114.59 56.95 28.34 5.95"/>
        <polygon class="cls-2" points="26.22 45.82 114.59 56.95 127.22 18.32 28.34 5.95 26.22 45.82"/>
        <g>
          <path class="cls-1" d="M91.18,51.21a25.81,25.81,0,0,0-22.56-25.6V25.4H65.37a25.82,25.82,0,1,0,0,51.63h3.25v-.21A25.81,25.81,0,0,0,91.18,51.21Z"/>
          <circle class="cls-2" cx="68.62" cy="51.21" r="25.82"/>
        </g>
        <polygon class="cls-1" points="24.52 46.58 6.09 46.58 6.34 45.01 25.09 45.01 24.52 46.58"/>
      </g>
    </g>
  </g>
</svg>
