<svg xmlns="http://www.w3.org/2000/svg" xmlns:xlink="http://www.w3.org/1999/xlink" width="1058.12" height="409.65" viewBox="0 0 1058.12 409.65">
  <defs>
    <style>
      .cls-1 {
        fill: #6d4722;
      }

      .cls-2 {
        fill: #3b2612;
      }

      .cls-3 {
        fill: #a4bd47;
      }

      .cls-4 {
        fill: #66421f;
      }

      .cls-5 {
        fill: #8d5fce;
      }

      .cls-6 {
        fill: #00a99d;
      }

      .cls-7 {
        fill: #d8563d;
      }

      .cls-8 {
        fill: url(#linear-gradient);
      }

      .cls-9 {
        fill: url(#linear-gradient-2);
      }

      .cls-10 {
        fill: url(#linear-gradient-3);
      }

      .cls-11 {
        fill: url(#linear-gradient-4);
      }

      .cls-12 {
        fill: url(#linear-gradient-5);
      }

      .cls-13 {
        fill: url(#linear-gradient-6);
      }

      .cls-14 {
        fill: url(#linear-gradient-7);
      }

      .cls-15 {
        fill: #333;
      }

      .cls-16 {
        fill: #847263;
      }

      .cls-17 {
        fill: url(#linear-gradient-8);
      }
    </style>
    <linearGradient id="linear-gradient" x1="230.69" y1="15.29" x2="160.52" y2="15.29" gradientUnits="userSpaceOnUse">
      <stop offset="0" stop-color="#998675"/>
      <stop offset="1" stop-color="#c7b299"/>
    </linearGradient>
    <linearGradient id="linear-gradient-2" x1="343.36" y1="18.04" x2="294.19" y2="18.04" xlink:href="#linear-gradient"/>
    <linearGradient id="linear-gradient-3" x1="459.53" y1="17.79" x2="403.36" y2="17.79" xlink:href="#linear-gradient"/>
    <linearGradient id="linear-gradient-4" x1="117.19" y1="18.71" x2="187.37" y2="18.71" xlink:href="#linear-gradient"/>
    <linearGradient id="linear-gradient-5" x1="74.69" y1="14.83" x2="110.73" y2="14.83" xlink:href="#linear-gradient"/>
    <linearGradient id="linear-gradient-6" x1="-21.38" y1="130.82" x2="399.34" y2="130.82" xlink:href="#linear-gradient"/>
    <linearGradient id="linear-gradient-7" x1="76.95" y1="129.07" x2="497.67" y2="129.07" xlink:href="#linear-gradient"/>
    <linearGradient id="linear-gradient-8" x1="41.33" y1="318.6" x2="1058.12" y2="318.6" xlink:href="#linear-gradient"/>
  </defs>
  <title>City_1</title>
  <g id="Layer_2" data-name="Layer 2">
    <g id="_0" data-name="0">
      <g>
        <g>
          <g>
            <polygon class="cls-1" points="906.03 95.1 912.51 94.83 932.33 258.11 926.76 258.11 906.03 95.1"/>
            <polygon class="cls-2" points="906.03 95.1 902.57 96.74 924.3 258.11 926.76 258.11 906.03 95.1"/>
          </g>
          <g>
            <polygon class="cls-1" points="968.17 115.1 974.65 114.83 934.46 258.11 928.9 258.11 968.17 115.1"/>
            <polygon class="cls-2" points="968.17 115.1 964.71 116.74 926.44 258.11 928.9 258.11 968.17 115.1"/>
          </g>
        </g>
        <path class="cls-3" d="M922.88,206.6s3.5-4.25-.47-7.92-9,.58-9,.58-1-4.88-8.46-4.91A9.84,9.84,0,0,0,895.5,201S895,196.75,890,198a6.86,6.86,0,0,0-5.49,5.46s.51-6.09-5.46-7.94a6.92,6.92,0,0,0-8.48,3,6.17,6.17,0,0,0-6.46-5.5c-6,0-7.49,6.67-7.49,6.67s-1.82-5-5.93-2.23c-3.41-1-6.78,1.84-6.78,1.84s-1-4.88-8.46-4.91A9.84,9.84,0,0,0,826,201s-.48-4.26-5.47-3.06a6.86,6.86,0,0,0-5.49,5.46s.51-6.09-5.46-7.94a6.92,6.92,0,0,0-8.48,3,6.17,6.17,0,0,0-6.46-5.5c-6,0-7.49,6.67-7.49,6.67s-2-5.49-6.47-1.85-2,7.29-2,7.29-5.48,0-5.5,7.29,6,7.93,6,7.93l77.21.3a2.6,2.6,0,0,0,.38-.27l69.12.27c3-1.81,1-4.86,1-4.86C930.35,207.85,922.88,206.6,922.88,206.6Z"/>
        <g>
          <polygon class="cls-4" points="794.05 215.7 763.38 215.7 761.05 258.11 799.38 258.11 794.05 215.7"/>
          <polygon class="cls-1" points="938.05 258.14 933.38 215.7 794.05 215.7 794.72 258.14 938.05 258.14"/>
        </g>
        <g>
          <g>
            <polygon class="cls-1" points="751.15 95.1 757.63 94.83 777.45 258.11 771.88 258.11 751.15 95.1"/>
            <polygon class="cls-2" points="751.15 95.1 747.69 96.74 769.42 258.11 771.88 258.11 751.15 95.1"/>
          </g>
          <g>
            <polygon class="cls-1" points="813.29 115.1 819.77 114.83 779.58 258.11 774.02 258.11 813.29 115.1"/>
            <polygon class="cls-2" points="813.29 115.1 809.83 116.74 771.56 258.11 774.02 258.11 813.29 115.1"/>
          </g>
        </g>
        <g>
          <path class="cls-5" d="M748.24,98s15.81,19.42,63.31,19.42l164.74.06s1.43-2.73-.91-3.4-34.75-.73-62.87-19.28H750.84a1.14,1.14,0,0,0-.4.08l-2.36,1a1,1,0,0,0-.27,1.67Z"/>
          <g>
            <path class="cls-5" d="M811.56,117.16c.44,9.72,4.88,17.36,10.29,17.36s9.85-7.64,10.3-17.36Z"/>
            <path class="cls-5" d="M832.15,117.16c.45,9.72,4.88,17.36,10.3,17.36s9.85-7.64,10.29-17.36Z"/>
            <path class="cls-5" d="M852.74,117.16c.45,9.72,4.89,17.36,10.3,17.36s9.85-7.64,10.3-17.36Z"/>
            <path class="cls-5" d="M873.34,117.16c.44,9.72,4.88,17.36,10.29,17.36s9.86-7.64,10.3-17.36Z"/>
            <path class="cls-5" d="M893.93,117.16c.45,9.72,4.88,17.36,10.3,17.36s9.85-7.64,10.3-17.36Z"/>
            <path class="cls-5" d="M914.53,117.16c.44,9.72,4.88,17.36,10.29,17.36s9.85-7.64,10.3-17.36Z"/>
            <path class="cls-5" d="M935.12,117.16c.44,9.72,4.88,17.36,10.3,17.36s9.85-7.64,10.29-17.36Z"/>
            <path class="cls-5" d="M955.71,117.16c.45,9.72,4.88,17.36,10.3,17.36s9.85-7.64,10.3-17.36Z"/>
          </g>
        </g>
      </g>
      <g>
        <g>
          <g>
            <polygon class="cls-1" points="695.59 95.1 702.07 94.83 721.88 258.11 716.32 258.11 695.59 95.1"/>
            <polygon class="cls-2" points="695.59 95.1 692.13 96.74 713.86 258.11 716.32 258.11 695.59 95.1"/>
          </g>
          <g>
            <polygon class="cls-1" points="757.73 115.1 764.21 114.83 724.02 258.11 718.46 258.11 757.73 115.1"/>
            <polygon class="cls-2" points="757.73 115.1 754.27 116.74 716 258.11 718.46 258.11 757.73 115.1"/>
          </g>
        </g>
        <path class="cls-6" d="M714.71,208.43s3.5-3.48-.48-6.48-9,.47-9,.47-1-4-8.45-4-9.48,5.45-9.48,5.45-.49-3.49-5.47-2.51-5.5,4.46-5.5,4.46.52-5-5.46-6.49-8.47,2.47-8.47,2.47-.48-4.49-6.46-4.51a7.74,7.74,0,0,0-7.49,5.46,4,4,0,0,0-5.94-1.83c-3.41-.83-6.78,1.51-6.78,1.51s-1-4-8.45-4-9.48,5.45-9.48,5.45-.49-3.49-5.47-2.51-5.5,4.46-5.5,4.46.52-5-5.46-6.49-8.47,2.47-8.47,2.47-.48-4.49-6.46-4.51a7.74,7.74,0,0,0-7.49,5.46s-2-4.49-6.47-1.52-2,6-2,6a5.54,5.54,0,0,0-5.5,6c0,6,6,6.5,6,6.5l77.2.24a3.44,3.44,0,0,0,.38-.22l69.12.22a2.48,2.48,0,0,0,1-4C722.18,209.45,714.71,208.43,714.71,208.43Z"/>
        <g>
          <polygon class="cls-4" points="583.61 215.7 552.94 215.7 550.61 258.11 588.94 258.11 583.61 215.7"/>
          <polygon class="cls-1" points="727.61 258.14 722.94 215.7 583.61 215.7 584.28 258.14 727.61 258.14"/>
        </g>
        <g>
          <g>
            <polygon class="cls-1" points="540.71 95.1 547.19 94.83 567 258.11 561.44 258.11 540.71 95.1"/>
            <polygon class="cls-2" points="540.71 95.1 537.25 96.74 558.98 258.11 561.44 258.11 540.71 95.1"/>
          </g>
          <g>
            <polygon class="cls-1" points="602.85 115.1 609.33 114.83 569.14 258.11 563.58 258.11 602.85 115.1"/>
            <polygon class="cls-2" points="602.85 115.1 599.39 116.74 561.12 258.11 563.58 258.11 602.85 115.1"/>
          </g>
        </g>
        <g>
          <path class="cls-7" d="M537.8,98s15.81,19.42,63.31,19.42l164.74.06s1.43-2.73-.91-3.4-34.75-.73-62.87-19.28H540.4a1.1,1.1,0,0,0-.4.08l-2.37,1a1,1,0,0,0-.26,1.67Z"/>
          <g>
            <path class="cls-7" d="M601.12,117.16c.44,9.72,4.88,17.36,10.29,17.36s9.85-7.64,10.3-17.36Z"/>
            <path class="cls-7" d="M621.71,117.16c.45,9.72,4.88,17.36,10.3,17.36s9.85-7.64,10.29-17.36Z"/>
            <path class="cls-7" d="M642.3,117.16c.45,9.72,4.88,17.36,10.3,17.36s9.85-7.64,10.3-17.36Z"/>
            <path class="cls-7" d="M662.9,117.16c.44,9.72,4.88,17.36,10.29,17.36s9.85-7.64,10.3-17.36Z"/>
            <path class="cls-7" d="M683.49,117.16c.45,9.72,4.88,17.36,10.3,17.36s9.85-7.64,10.29-17.36Z"/>
            <path class="cls-7" d="M704.08,117.16c.45,9.72,4.89,17.36,10.3,17.36s9.85-7.64,10.3-17.36Z"/>
            <path class="cls-7" d="M724.68,117.16c.44,9.72,4.88,17.36,10.3,17.36s9.85-7.64,10.29-17.36Z"/>
            <path class="cls-7" d="M745.27,117.16c.45,9.72,4.88,17.36,10.3,17.36s9.85-7.64,10.3-17.36Z"/>
          </g>
        </g>
      </g>
      <g>
        <polygon class="cls-8" points="246.44 0 227.32 0.42 222.53 30.58 247.36 30.58 246.44 0"/>
        <polygon class="cls-9" points="355.69 0 331.69 1.25 326.69 36.08 356.69 34.25 355.69 0"/>
        <polygon class="cls-10" points="469.94 0 451.19 1.25 446.03 35.58 472.53 34.75 469.94 0"/>
        <polygon class="cls-11" points="164.69 3.5 183.86 4.25 189.03 33.92 167.69 32.58 164.69 3.5"/>
        <polygon class="cls-12" points="94.44 4.25 106.86 4.25 110.53 25.42 89.19 23.08 94.44 4.25"/>
        <polygon class="cls-13" points="392.37 44.25 196.05 44.25 196.44 28.5 169.19 28.25 164.69 3.5 127.94 3.5 125.19 22.13 97.19 20.75 94.44 4.25 63.19 4.25 60.51 44.25 55.3 258.14 399.34 258.14 392.37 44.25"/>
        <polygon class="cls-14" points="526.7 44.25 516.44 0 469.94 0 464.69 31 418.94 31 414.69 0.5 355.69 0 352.69 29.25 296.69 30.75 293.69 0 246.44 0 242.44 28.5 196.44 28.5 194.85 44.25 189.64 258.14 533.67 258.14 526.7 44.25"/>
        <g>
          <polygon class="cls-15" points="406.6 130.28 407.87 188.99 460.86 189.97 456.42 131.23 406.6 130.28"/>
          <polygon class="cls-16" points="456.42 131.23 460.86 189.97 453.7 189.83 450.29 131.1 456.42 131.23"/>
        </g>
        <g>
          <polygon class="cls-15" points="336.81 258.14 265.72 258.14 271.22 113.37 329.19 113.37 336.81 258.14"/>
          <polygon class="cls-16" points="336.81 258.14 323.18 258.14 319.68 113.37 329.19 113.37 336.81 258.14"/>
        </g>
        <g>
          <polygon class="cls-15" points="141.88 189.09 144.87 131.16 99.48 132.11 99.48 188.28 141.88 189.09"/>
          <polygon class="cls-16" points="106.44 188.41 106.44 131.97 99.48 132.11 99.48 188.28 106.44 188.41"/>
        </g>
        <g>
          <g>
            <polygon class="cls-2" points="225.44 63.49 225.44 77.49 234.19 77.49 234.19 62.99 225.44 63.49"/>
            <polygon class="cls-1" points="234.19 62.99 249.36 62.99 249.36 77.99 234.19 77.49 234.19 62.99"/>
          </g>
          <g>
            <polygon class="cls-2" points="311.44 63.49 311.44 77.49 320.19 77.49 320.19 62.99 311.44 63.49"/>
            <polygon class="cls-1" points="320.19 62.99 335.36 64.24 333.86 77.57 320.19 77.49 320.19 62.99"/>
          </g>
          <g>
            <polygon class="cls-2" points="397.44 63.49 397.44 77.49 406.19 77.49 406.19 62.99 397.44 63.49"/>
            <polygon class="cls-1" points="406.19 62.99 421.36 62.99 421.36 76.57 406.19 77.49 406.19 62.99"/>
          </g>
          <g>
            <polygon class="cls-2" points="483.44 63.49 483.44 77.49 492.19 77.49 492.19 62.99 483.44 63.49"/>
            <polygon class="cls-1" points="492.19 62.99 507.36 62.99 507.36 76.57 492.19 77.49 492.19 62.99"/>
          </g>
        </g>
        <g>
          <polygon class="cls-2" points="140.78 63.49 140.78 77.49 155.53 77.49 155.53 62.99 140.78 63.49"/>
          <polygon class="cls-1" points="155.53 62.99 164.69 63.55 164.69 77.13 155.53 77.49 155.53 62.99"/>
        </g>
        <g>
          <polygon class="cls-2" points="77.24 63.49 77.24 77.49 91.99 77.49 91.99 62.99 77.24 63.49"/>
          <polygon class="cls-1" points="91.99 62.99 101.15 63.55 101.15 77.13 91.99 77.49 91.99 62.99"/>
        </g>
      </g>
      <g>
        <g>
          <g>
            <polygon class="cls-1" points="226.16 181.85 232.64 181.58 232.46 244.86 226.89 244.86 226.16 181.85"/>
            <polygon class="cls-2" points="226.16 181.85 222.7 183.49 224.43 244.86 226.89 244.86 226.16 181.85"/>
          </g>
          <g>
            <polygon class="cls-1" points="381.04 181.85 387.52 181.58 387.33 244.86 381.77 244.86 381.04 181.85"/>
            <polygon class="cls-2" points="381.04 181.85 377.58 183.49 379.31 244.86 381.77 244.86 381.04 181.85"/>
          </g>
          <g>
            <g>
              <rect class="cls-2" x="210.4" y="199.64" width="189.67" height="9.67"/>
              <polygon class="cls-2" points="210.4 199.64 212.1 197.93 401.77 207.6 400.06 209.31 210.4 199.64"/>
            </g>
            <rect class="cls-1" x="212.1" y="197.93" width="189.67" height="9.67"/>
          </g>
        </g>
        <g>
          <g>
            <polygon class="cls-1" points="430.5 181.85 436.97 181.58 436.79 244.86 431.23 244.86 430.5 181.85"/>
            <polygon class="cls-2" points="430.5 181.85 427.03 183.49 428.76 244.86 431.23 244.86 430.5 181.85"/>
          </g>
          <g>
            <polygon class="cls-1" points="585.38 181.85 591.85 181.58 591.67 244.86 586.11 244.86 585.38 181.85"/>
            <polygon class="cls-2" points="585.38 181.85 581.91 183.49 583.64 244.86 586.11 244.86 585.38 181.85"/>
          </g>
          <g>
            <g>
              <rect class="cls-2" x="414.73" y="199.64" width="189.67" height="9.67"/>
              <polygon class="cls-2" points="414.73 199.64 416.44 197.93 606.1 207.6 604.4 209.31 414.73 199.64"/>
            </g>
            <rect class="cls-1" x="416.44" y="197.93" width="189.67" height="9.67"/>
          </g>
        </g>
        <g>
          <g>
            <polygon class="cls-1" points="634.83 181.85 641.3 181.58 641.12 244.86 635.56 244.86 634.83 181.85"/>
            <polygon class="cls-2" points="634.83 181.85 631.37 183.49 633.1 244.86 635.56 244.86 634.83 181.85"/>
          </g>
          <g>
            <polygon class="cls-1" points="789.71 181.85 796.18 181.58 796 244.86 790.44 244.86 789.71 181.85"/>
            <polygon class="cls-2" points="789.71 181.85 786.24 183.49 787.98 244.86 790.44 244.86 789.71 181.85"/>
          </g>
          <g>
            <g>
              <rect class="cls-2" x="619.06" y="199.64" width="189.67" height="9.67"/>
              <polygon class="cls-2" points="619.06 199.64 620.77 197.93 810.44 207.6 808.73 209.31 619.06 199.64"/>
            </g>
            <rect class="cls-1" x="620.77" y="197.93" width="189.67" height="9.67"/>
          </g>
        </g>
        <g>
          <g>
            <polygon class="cls-1" points="839.16 181.85 845.64 181.58 845.46 244.86 839.89 244.86 839.16 181.85"/>
            <polygon class="cls-2" points="839.16 181.85 835.7 183.49 837.43 244.86 839.89 244.86 839.16 181.85"/>
          </g>
          <g>
            <polygon class="cls-1" points="994.04 181.85 1000.52 181.58 1000.33 244.86 994.77 244.86 994.04 181.85"/>
            <polygon class="cls-2" points="994.04 181.85 990.58 183.49 992.31 244.86 994.77 244.86 994.04 181.85"/>
          </g>
          <g>
            <g>
              <rect class="cls-2" x="823.4" y="199.64" width="189.67" height="9.67"/>
              <polygon class="cls-2" points="823.4 199.64 825.1 197.93 1014.77 207.6 1013.06 209.31 823.4 199.64"/>
            </g>
            <rect class="cls-1" x="825.1" y="197.93" width="189.67" height="9.67"/>
          </g>
        </g>
        <g>
          <polygon class="cls-16" points="0 409.65 17.5 227.56 997.46 227.56 981.46 409.65 0 409.65"/>
          <polygon class="cls-17" points="226.67 409.65 234.17 227.56 1044.13 227.56 1058.13 409.65 226.67 409.65"/>
        </g>
        <g>
          <g>
            <polygon class="cls-2" points="288.05 282.4 288.05 296.4 296.8 296.4 296.8 281.9 288.05 282.4"/>
            <polygon class="cls-1" points="296.8 281.9 311.97 282.46 311.97 296.04 296.8 296.4 296.8 281.9"/>
          </g>
          <g>
            <polygon class="cls-2" points="374.05 282.4 374.05 296.4 382.8 296.4 382.8 281.9 374.05 282.4"/>
            <polygon class="cls-1" points="382.8 281.9 397.97 281.9 397.97 295.48 382.8 296.4 382.8 281.9"/>
          </g>
          <g>
            <polygon class="cls-2" points="460.05 282.4 460.05 296.4 468.8 296.4 468.8 281.9 460.05 282.4"/>
            <polygon class="cls-1" points="468.8 281.9 483.97 281.9 484.14 296.4 468.8 296.4 468.8 281.9"/>
          </g>
          <g>
            <polygon class="cls-2" points="546.05 282.4 546.05 296.4 554.8 296.4 554.8 281.9 546.05 282.4"/>
            <polygon class="cls-1" points="554.8 281.9 569.97 282.58 569.97 296.17 554.8 296.4 554.8 281.9"/>
          </g>
          <g>
            <polygon class="cls-2" points="632.05 282.4 632.05 296.4 640.8 296.4 640.8 281.9 632.05 282.4"/>
            <polygon class="cls-1" points="640.8 281.9 655.97 282.65 655.97 296.48 640.8 296.4 640.8 281.9"/>
          </g>
          <g>
            <polygon class="cls-2" points="718.05 282.4 718.05 296.4 726.8 296.4 726.8 281.9 718.05 282.4"/>
            <polygon class="cls-1" points="726.8 281.9 741.97 281.9 741.97 296.9 726.8 296.4 726.8 281.9"/>
          </g>
          <g>
            <polygon class="cls-2" points="804.05 282.4 804.05 296.4 812.8 296.4 812.8 281.9 804.05 282.4"/>
            <polygon class="cls-1" points="812.8 281.9 827.97 283.15 826.47 296.48 812.8 296.4 812.8 281.9"/>
          </g>
          <g>
            <polygon class="cls-2" points="890.05 282.4 890.05 296.4 898.8 296.4 898.8 281.9 890.05 282.4"/>
            <polygon class="cls-1" points="898.8 281.9 913.97 281.9 913.97 295.48 898.8 296.4 898.8 281.9"/>
          </g>
          <g>
            <polygon class="cls-2" points="976.05 282.4 976.05 296.4 984.8 296.4 984.8 281.9 976.05 282.4"/>
            <polygon class="cls-1" points="984.8 281.9 999.97 281.9 999.97 295.48 984.8 296.4 984.8 281.9"/>
          </g>
        </g>
      </g>
    </g>
  </g>
</svg>
