<svg xmlns="http://www.w3.org/2000/svg" xmlns:xlink="http://www.w3.org/1999/xlink" width="2076.57" height="1036.2" viewBox="0 0 2076.57 1036.2">
  <defs>
    <style>
      .cls-1 {
        fill: #d6b93e;
      }

      .cls-2 {
        fill: url(#linear-gradient);
      }

      .cls-3 {
        fill: url(#linear-gradient-2);
      }

      .cls-4 {
        fill: url(#linear-gradient-3);
      }

      .cls-5 {
        fill: #66421f;
      }

      .cls-6 {
        fill: #6d4722;
      }

      .cls-7 {
        fill: #333;
      }

      .cls-8 {
        fill: #847263;
      }

      .cls-9 {
        fill: #603813;
      }

      .cls-10 {
        fill: url(#linear-gradient-4);
      }

      .cls-11 {
        fill: url(#linear-gradient-5);
      }

      .cls-12 {
        fill: #3b2612;
      }

      .cls-13 {
        fill: #355db7;
      }

      .cls-14 {
        fill: #d8563d;
      }

      .cls-15 {
        fill: #b23e2f;
      }

      .cls-16 {
        fill: url(#linear-gradient-6);
      }

      .cls-17 {
        fill: url(#linear-gradient-7);
      }

      .cls-18 {
        fill: url(#linear-gradient-8);
      }

      .cls-19 {
        fill: url(#linear-gradient-9);
      }

      .cls-20 {
        fill: #a4bd47;
      }

      .cls-21 {
        fill: #5e9dd1;
      }

      .cls-22 {
        fill: #30a090;
      }

      .cls-23 {
        fill: url(#linear-gradient-10);
      }

      .cls-24 {
        fill: url(#linear-gradient-11);
      }

      .cls-25 {
        fill: url(#linear-gradient-12);
      }

      .cls-26 {
        fill: url(#linear-gradient-13);
      }

      .cls-27 {
        fill: url(#linear-gradient-14);
      }

      .cls-28 {
        fill: url(#linear-gradient-15);
      }

      .cls-29 {
        fill: url(#linear-gradient-16);
      }

      .cls-30 {
        fill: url(#linear-gradient-17);
      }

      .cls-31 {
        fill: url(#linear-gradient-18);
      }

      .cls-32 {
        fill: url(#linear-gradient-19);
      }

      .cls-33 {
        fill: url(#linear-gradient-20);
      }

      .cls-34 {
        fill: url(#linear-gradient-21);
      }

      .cls-35 {
        fill: url(#linear-gradient-22);
      }

      .cls-36 {
        fill: url(#linear-gradient-23);
      }

      .cls-37 {
        fill: url(#linear-gradient-24);
      }

      .cls-38 {
        fill: url(#linear-gradient-25);
      }

      .cls-39 {
        fill: url(#linear-gradient-26);
      }

      .cls-40 {
        fill: url(#linear-gradient-27);
      }
    </style>
    <linearGradient id="linear-gradient" x1="1102.86" y1="515.03" x2="1102.86" y2="448.03" gradientUnits="userSpaceOnUse">
      <stop offset="0" stop-color="#998675"/>
      <stop offset="1" stop-color="#c7b299"/>
    </linearGradient>
    <linearGradient id="linear-gradient-2" x1="1250.59" y1="406.65" x2="1622.7" y2="406.65" xlink:href="#linear-gradient"/>
    <linearGradient id="linear-gradient-3" x1="1350.61" y1="474.84" x2="1609.2" y2="474.84" xlink:href="#linear-gradient"/>
    <linearGradient id="linear-gradient-4" x1="1458.71" y1="641.44" x2="1738.03" y2="641.44" xlink:href="#linear-gradient"/>
    <linearGradient id="linear-gradient-5" x1="1517.27" y1="708.24" x2="1972.77" y2="708.24" xlink:href="#linear-gradient"/>
    <linearGradient id="linear-gradient-6" x1="614.86" y1="466.65" x2="965.05" y2="466.65" xlink:href="#linear-gradient"/>
    <linearGradient id="linear-gradient-7" x1="693.72" y1="534.84" x2="972.24" y2="534.84" xlink:href="#linear-gradient"/>
    <linearGradient id="linear-gradient-8" x1="340.46" y1="641.44" x2="619.78" y2="641.44" xlink:href="#linear-gradient"/>
    <linearGradient id="linear-gradient-9" x1="399.02" y1="708.24" x2="854.52" y2="708.24" xlink:href="#linear-gradient"/>
    <linearGradient id="linear-gradient-10" x1="59.09" y1="895.16" x2="1088.12" y2="895.16" xlink:href="#linear-gradient"/>
    <linearGradient id="linear-gradient-11" x1="759.42" y1="902.95" x2="1203.88" y2="902.95" xlink:href="#linear-gradient"/>
    <linearGradient id="linear-gradient-12" x1="855.08" y1="1028.36" x2="956.56" y2="1028.36" xlink:href="#linear-gradient"/>
    <linearGradient id="linear-gradient-13" x1="870.75" y1="1012.68" x2="972.24" y2="1012.68" xlink:href="#linear-gradient"/>
    <linearGradient id="linear-gradient-14" x1="886.43" y1="997.01" x2="987.91" y2="997.01" xlink:href="#linear-gradient"/>
    <linearGradient id="linear-gradient-15" x1="902.11" y1="981.33" x2="1003.59" y2="981.33" xlink:href="#linear-gradient"/>
    <linearGradient id="linear-gradient-16" x1="917.78" y1="965.66" x2="1019.27" y2="965.66" xlink:href="#linear-gradient"/>
    <linearGradient id="linear-gradient-17" x1="933.46" y1="949.98" x2="1034.94" y2="949.98" xlink:href="#linear-gradient"/>
    <linearGradient id="linear-gradient-18" x1="949.13" y1="934.3" x2="1050.62" y2="934.3" xlink:href="#linear-gradient"/>
    <linearGradient id="linear-gradient-19" x1="964.81" y1="918.63" x2="1066.3" y2="918.63" xlink:href="#linear-gradient"/>
    <linearGradient id="linear-gradient-20" x1="980.49" y1="902.95" x2="1081.97" y2="902.95" xlink:href="#linear-gradient"/>
    <linearGradient id="linear-gradient-21" x1="996.16" y1="887.27" x2="1097.65" y2="887.27" xlink:href="#linear-gradient"/>
    <linearGradient id="linear-gradient-22" x1="1011.84" y1="871.6" x2="1113.33" y2="871.6" xlink:href="#linear-gradient"/>
    <linearGradient id="linear-gradient-23" x1="1027.52" y1="855.92" x2="1129" y2="855.92" xlink:href="#linear-gradient"/>
    <linearGradient id="linear-gradient-24" x1="1043.19" y1="840.24" x2="1144.68" y2="840.24" xlink:href="#linear-gradient"/>
    <linearGradient id="linear-gradient-25" x1="1058.87" y1="824.57" x2="1160.35" y2="824.57" xlink:href="#linear-gradient"/>
    <linearGradient id="linear-gradient-26" x1="883.4" y1="902.95" x2="1216.87" y2="902.95" xlink:href="#linear-gradient"/>
    <linearGradient id="linear-gradient-27" x1="1047.54" y1="895.16" x2="2076.57" y2="895.16" xlink:href="#linear-gradient"/>
  </defs>
  <title>City</title>
  <g id="Layer_2" data-name="Layer 2">
    <g id="_0" data-name="0">
      <g>
        <path class="cls-1" d="M1083.36,537.67s12.57,20.39,17.18,43a2,2,0,0,0,3.91,0c2.47-12.21,7.5-29.44,17.53-43Z"/>
        <path class="cls-1" d="M1125,536.79s12.58,20.4,17.18,43a2,2,0,0,0,3.92,0c2.46-12.21,7.49-29.44,17.52-43Z"/>
        <path class="cls-1" d="M1165.37,535.18s12.57,20.4,17.18,43a2,2,0,0,0,3.91,0c2.47-12.21,7.49-29.44,17.52-43Z"/>
        <path class="cls-1" d="M1202.94,531.67s12.57,20.4,17.18,43a2,2,0,0,0,3.91,0c2.46-12.21,7.49-29.43,17.52-43Z"/>
        <path class="cls-1" d="M1241.38,528.31s12.37,20.06,17.07,42.46a2,2,0,0,0,3.92,0c2.5-14,7.71-34.2,18.15-48.35Z"/>
        <path class="cls-1" d="M1079.54,536.79s-12.57,20.4-17.18,43a2,2,0,0,1-3.91,0c-2.47-12.21-7.5-29.44-17.52-43Z"/>
        <path class="cls-1" d="M1039.2,535.18s-12.58,20.4-17.19,43a2,2,0,0,1-3.91,0c-2.46-12.21-7.49-29.44-17.52-43Z"/>
        <path class="cls-1" d="M997.58,530.6S985,550.94,980.42,573.53a2,2,0,0,1-3.91,0c-2.49-12.66-7.58-30.65-17.73-44.41Z"/>
        <path class="cls-1" d="M956.94,526.75s-12.36,20.06-17.06,42.46a2,2,0,0,1-3.92,0c-2.5-14-7.71-34.2-18.16-48.35Z"/>
        <path class="cls-2" d="M1110.46,539.71c-161.73,0-213.51-23.44-215.64-24.44l2.48-5.3h0c.74.34,53.49,23.89,213.15,23.89,159.27,0,196.83-23.44,197.19-23.68l3.25,4.86C1309.41,516.05,1272.44,539.71,1110.46,539.71Z"/>
      </g>
      <g>
        <polygon class="cls-3" points="1397.74 142.33 1344.63 5.95 1296.92 142.33 1282.25 579.59 1271.55 583.93 1254.41 807.35 1548.07 807.35 1397.74 142.33"/>
        <polygon class="cls-4" points="1423.85 807.35 1397.74 142.33 1540.87 142.33 1579.58 635 1586.69 639.5 1609.2 807.35 1423.85 807.35"/>
        <g>
          <polygon class="cls-5" points="1397.64 155.38 1406.84 156.83 1345.31 0 1343.86 8.71 1397.64 155.38"/>
          <polygon class="cls-5" points="1294.38 155.38 1288.14 156.83 1345.3 0 1346.28 8.71 1294.38 155.38"/>
          <polygon class="cls-6" points="1345.3 0 1490.67 4.76 1550.1 160.56 1406.84 156.83 1345.3 0"/>
        </g>
        <g>
          <polygon class="cls-7" points="1460.4 397.47 1460.16 455.46 1505.55 454.51 1505.55 398.33 1460.4 397.47"/>
          <polygon class="cls-8" points="1498.59 398.2 1498.59 454.65 1505.55 454.51 1505.55 398.33 1498.59 398.2"/>
        </g>
        <g>
          <polygon class="cls-7" points="1482.73 669.73 1487.17 727.8 1532.55 726.85 1532.55 670.68 1482.73 669.73"/>
          <polygon class="cls-8" points="1525.6 670.55 1525.6 727 1532.55 726.85 1532.55 670.68 1525.6 670.55"/>
        </g>
        <g>
          <polygon class="cls-7" points="1363.76 519.79 1366.75 461.86 1321.37 462.81 1321.37 518.98 1363.76 519.79"/>
          <polygon class="cls-8" points="1328.32 519.11 1328.32 462.66 1321.37 462.81 1321.37 518.98 1328.32 519.11"/>
        </g>
        <g>
          <polygon class="cls-7" points="1455.72 219.38 1460.16 277.46 1505.55 276.51 1505.55 220.33 1455.72 219.38"/>
          <polygon class="cls-8" points="1498.59 220.2 1498.59 276.65 1505.55 276.51 1505.55 220.33 1498.59 220.2"/>
        </g>
        <g>
          <polygon class="cls-7" points="1365.91 278.14 1361.75 220.2 1316.37 221.15 1316.37 277.33 1365.91 278.14"/>
          <polygon class="cls-8" points="1323.32 277.46 1323.32 221.01 1316.37 221.15 1316.37 277.33 1323.32 277.46"/>
        </g>
        <g>
          <polygon class="cls-7" points="1366.36 726.93 1369.75 668.99 1318.37 669.95 1318.37 726.12 1366.36 726.93"/>
          <polygon class="cls-8" points="1326.24 726.25 1326.24 669.8 1318.37 669.95 1318.37 726.12 1326.24 726.25"/>
        </g>
        <g>
          <g>
            <polygon class="cls-9" points="1451.8 393.95 1454.08 458.87 1466.13 458.87 1465.51 393.95 1451.8 393.95"/>
            <polygon class="cls-9" points="1496.96 393.95 1499.25 458.87 1511.3 458.87 1510.67 393.95 1496.96 393.95"/>
            <polygon class="cls-9" points="1497.39 458.87 1495.1 393.95 1483.05 393.95 1483.68 458.87 1497.39 458.87"/>
            <polygon class="cls-9" points="1467.7 393.95 1467.53 458.98 1482.04 458.87 1481.41 393.95 1467.7 393.95"/>
          </g>
          <g>
            <polygon class="cls-6" points="1454.41 393.95 1456.7 458.87 1468.75 458.87 1468.12 393.95 1454.41 393.95"/>
            <polygon class="cls-6" points="1499.58 393.95 1501.86 458.87 1513.91 458.87 1513.29 393.95 1499.58 393.95"/>
            <polygon class="cls-6" points="1500 458.87 1497.72 393.95 1485.67 393.95 1486.3 458.87 1500 458.87"/>
            <polygon class="cls-6" points="1470.32 393.95 1470.14 458.98 1484.65 458.87 1484.03 393.95 1470.32 393.95"/>
          </g>
        </g>
      </g>
      <g>
        <g>
          <g>
            <polygon class="cls-10" points="1617.47 807.35 1623.53 609.13 1521.13 475.53 1447.84 609.13 1438.38 807.35 1617.47 807.35"/>
            <polygon class="cls-11" points="1957.76 703.27 1945.53 700.22 1937.19 609.13 1600.29 609.13 1611.91 807.35 1927.75 807.35 1955.34 807.35 1972.77 807.35 1957.76 703.27"/>
            <g>
              <polygon class="cls-5" points="1599.57 625.1 1613.36 626.55 1521.15 469.72 1518.97 478.44 1599.57 625.1"/>
              <polygon class="cls-5" points="1444.83 625.1 1435.47 626.55 1521.13 469.72 1522.6 478.44 1444.83 625.1"/>
              <polygon class="cls-6" points="1521.13 469.72 1873.05 478.68 1962.12 628.73 1613.36 626.55 1521.13 469.72"/>
            </g>
            <polygon class="cls-7" points="1673.28 668.92 1677.72 727 1723.1 726.05 1723.1 669.88 1673.28 668.92"/>
            <polygon class="cls-7" points="1827.73 668.92 1829 727.64 1881.99 728.61 1877.56 669.88 1827.73 668.92"/>
            <polygon class="cls-8" points="1716.15 669.74 1716.15 726.19 1723.1 726.05 1723.1 669.88 1716.15 669.74"/>
            <polygon class="cls-8" points="1877.56 669.88 1881.99 728.61 1874.83 728.48 1871.42 669.74 1877.56 669.88"/>
            <polygon class="cls-8" points="1492.9 662.58 1487.4 807.35 1498.61 807.35 1502.79 662.58 1492.9 662.58"/>
            <polygon class="cls-7" points="1550.88 662.58 1502.79 662.58 1498.61 807.35 1558.49 807.35 1550.88 662.58"/>
          </g>
          <g>
            <g>
              <polygon class="cls-9" points="1488.78 661.4 1487.62 807.09 1502.85 807.09 1502.05 661.4 1488.78 661.4"/>
              <polygon class="cls-9" points="1541.81 661.4 1544.7 807.09 1559.93 807.09 1555.08 661.4 1541.81 661.4"/>
              <polygon class="cls-9" points="1542.35 807.09 1539.46 661.4 1524.23 661.4 1525.02 807.09 1542.35 807.09"/>
              <polygon class="cls-9" points="1504.83 661.4 1504.61 807.35 1522.95 807.09 1522.15 661.4 1504.83 661.4"/>
            </g>
            <g>
              <polygon class="cls-6" points="1486.32 661.4 1483.81 807.09 1499.04 807.09 1498.25 661.4 1486.32 661.4"/>
              <polygon class="cls-6" points="1538 661.4 1540.89 807.09 1556.12 807.09 1551.28 661.4 1538 661.4"/>
              <polygon class="cls-6" points="1538.54 807.09 1535.65 661.4 1520.42 661.4 1521.22 807.09 1538.54 807.09"/>
              <polygon class="cls-6" points="1501.03 661.4 1500.8 807.35 1519.14 807.09 1518.35 661.4 1501.03 661.4"/>
            </g>
          </g>
        </g>
        <g>
          <rect class="cls-12" x="1436.65" y="649.5" width="90.78" height="6.21"/>
          <g>
            <polygon class="cls-12" points="1528.63 655.71 1524.15 655.71 1524.39 648.96 1569.44 631.94 1573.95 631.94 1528.63 655.71"/>
            <polygon class="cls-6" points="1528.63 649.37 1528.63 655.71 1573.95 638.71 1573.95 631.87 1528.63 649.37"/>
          </g>
          <g>
            <path class="cls-13" d="M1574.19,632.92s-13.07,17.19-49.06,17.19l-93,.06s-1.09-2.73.68-3.4,26.33-.73,47.64-19.28h94.27c.51.29.2,4.52-.22,5Z"/>
            <g>
              <path class="cls-13" d="M1525.13,649.82c-.34,9.72-3.68,17.36-7.76,17.36s-7.42-7.64-7.75-17.36Z"/>
              <path class="cls-13" d="M1509.62,649.82c-.34,9.72-3.68,17.36-7.76,17.36s-7.41-7.64-7.75-17.36Z"/>
              <path class="cls-13" d="M1494.11,649.82c-.34,9.72-3.68,17.36-7.75,17.36s-7.42-7.64-7.76-17.36Z"/>
              <path class="cls-13" d="M1478.6,649.82c-.33,9.72-3.67,17.36-7.75,17.36s-7.42-7.64-7.76-17.36Z"/>
              <path class="cls-13" d="M1463.09,649.82c-.33,9.72-3.67,17.36-7.75,17.36s-7.42-7.64-7.75-17.36Z"/>
              <path class="cls-13" d="M1447.59,649.82c-.34,9.72-3.68,17.36-7.76,17.36s-7.42-7.64-7.75-17.36Z"/>
            </g>
          </g>
        </g>
      </g>
      <g>
        <g>
          <path class="cls-14" d="M1255.69,647.34c15.59,0,26.29-5.67,33.48-12.29a174.28,174.28,0,0,1-30.32,2.29c-36.16,0-58.41-9.5-58.41-9.5,1,1,2.11,2,3.18,2.9C1210.25,636.18,1227.31,647.34,1255.69,647.34Z"/>
          <path class="cls-15" d="M1340.69,625.59c-30.25,0-38.75-11.5-38.75-11.5a49.19,49.19,0,0,1-13.27,20.46c-7.19,6.62-17.89,12.29-33.48,12.29-28.38,0-45.46-11.08-52.08-16.51,21.84,18.93,49.62,21,84.06,21.22,4.36,0,8.82,0,13.4,0,42.5,0,95.87-41.75,95.87-41.75S1370.94,625.59,1340.69,625.59Z"/>
        </g>
        <g>
          <polygon class="cls-6" points="1301.07 606.46 1307.53 606.93 1304.49 796.33 1298.97 795.66 1301.07 606.46"/>
          <polygon class="cls-12" points="1301.07 606.46 1297.4 607.92 1296.52 795.36 1298.97 795.66 1301.07 606.46"/>
        </g>
        <g>
          <polygon class="cls-6" points="1196.16 606.72 1202.64 606.71 1213.44 795.82 1207.88 795.56 1196.16 606.72"/>
          <polygon class="cls-12" points="1196.16 606.72 1192.61 608.44 1205.43 795.44 1207.88 795.56 1196.16 606.72"/>
        </g>
      </g>
      <g>
        <g>
          <polygon class="cls-16" points="744.49 262.33 691.38 125.95 643.67 262.33 618.46 807.35 894.82 807.35 744.49 262.33"/>
          <polygon class="cls-17" points="770.6 807.35 744.49 262.33 887.62 262.33 926.33 635 949.73 639.5 972.24 807.35 770.6 807.35"/>
          <g>
            <polygon class="cls-18" points="499.22 807.35 505.28 609.13 402.88 475.53 329.6 609.13 320.13 807.35 499.22 807.35"/>
            <polygon class="cls-19" points="839.51 703.27 827.28 700.22 818.94 609.13 482.05 609.13 493.66 807.35 809.5 807.35 837.09 807.35 854.52 807.35 839.51 703.27"/>
            <g>
              <polygon class="cls-5" points="481.32 625.1 495.11 626.55 402.9 469.72 400.73 478.44 481.32 625.1"/>
              <polygon class="cls-5" points="326.58 625.1 317.23 626.55 402.88 469.72 404.36 478.44 326.58 625.1"/>
              <polygon class="cls-6" points="402.88 469.72 754.81 478.68 843.87 628.73 495.11 626.55 402.88 469.72"/>
            </g>
            <polygon class="cls-7" points="555.03 668.92 559.47 727 604.86 726.05 604.86 669.88 555.03 668.92"/>
            <polygon class="cls-7" points="709.48 668.92 710.75 727.64 763.74 728.61 759.31 669.88 709.48 668.92"/>
            <polygon class="cls-8" points="597.9 669.74 597.9 726.19 604.86 726.05 604.86 669.88 597.9 669.74"/>
            <polygon class="cls-8" points="759.31 669.88 763.74 728.61 756.58 728.48 753.17 669.74 759.31 669.88"/>
            <polygon class="cls-8" points="374.66 662.58 369.16 807.35 380.36 807.35 384.54 662.58 374.66 662.58"/>
            <polygon class="cls-7" points="432.63 662.58 384.54 662.58 380.36 807.35 440.25 807.35 432.63 662.58"/>
          </g>
          <g>
            <polygon class="cls-5" points="744.38 275.38 753.59 276.83 692.06 120 690.61 128.71 744.38 275.38"/>
            <polygon class="cls-5" points="641.13 275.38 634.89 276.83 692.04 120 693.03 128.71 641.13 275.38"/>
            <polygon class="cls-6" points="692.04 120 837.42 124.76 896.85 280.56 753.59 276.83 692.04 120"/>
          </g>
          <g>
            <polygon class="cls-7" points="802.47 319.2 806.91 377.28 852.29 376.33 852.29 320.15 802.47 319.2"/>
            <polygon class="cls-8" points="845.34 320.02 845.34 376.47 852.29 376.33 852.29 320.15 845.34 320.02"/>
          </g>
          <g>
            <polygon class="cls-7" points="710.51 426.76 713.5 368.82 668.12 369.78 668.12 425.95 710.51 426.76"/>
            <polygon class="cls-8" points="675.07 426.08 675.07 369.63 668.12 369.78 668.12 425.95 675.07 426.08"/>
          </g>
        </g>
        <g>
          <g>
            <polygon class="cls-9" points="367.95 661.4 370.84 807.09 386.07 807.09 385.28 661.4 367.95 661.4"/>
            <polygon class="cls-9" points="425.04 661.4 427.92 807.09 443.15 807.09 442.36 661.4 425.04 661.4"/>
            <polygon class="cls-9" points="425.57 807.09 422.69 661.4 407.45 661.4 408.25 807.09 425.57 807.09"/>
            <polygon class="cls-9" points="388.06 661.4 387.83 807.35 406.17 807.09 405.38 661.4 388.06 661.4"/>
          </g>
          <g>
            <polygon class="cls-6" points="364.15 661.4 367.03 807.09 382.26 807.09 381.47 661.4 364.15 661.4"/>
            <polygon class="cls-6" points="421.23 661.4 424.12 807.09 439.35 807.09 438.55 661.4 421.23 661.4"/>
            <polygon class="cls-6" points="421.76 807.09 418.88 661.4 403.65 661.4 404.44 807.09 421.76 807.09"/>
            <polygon class="cls-6" points="384.25 661.4 384.03 807.35 402.37 807.09 401.57 661.4 384.25 661.4"/>
          </g>
        </g>
        <g>
          <g>
            <polygon class="cls-9" points="704.54 665.45 706.82 730.37 718.87 730.37 718.24 665.45 704.54 665.45"/>
            <polygon class="cls-9" points="749.7 665.45 751.99 730.37 764.04 730.37 763.41 665.45 749.7 665.45"/>
            <polygon class="cls-9" points="750.13 730.37 747.84 665.45 735.79 665.45 736.42 730.37 750.13 730.37"/>
            <polygon class="cls-9" points="720.44 665.45 720.27 730.48 734.78 730.37 734.15 665.45 720.44 665.45"/>
          </g>
          <g>
            <polygon class="cls-6" points="707.15 665.45 709.44 730.37 721.49 730.37 720.86 665.45 707.15 665.45"/>
            <polygon class="cls-6" points="752.32 665.45 754.6 730.37 766.65 730.37 766.03 665.45 752.32 665.45"/>
            <polygon class="cls-6" points="752.74 730.37 750.46 665.45 738.41 665.45 739.03 730.37 752.74 730.37"/>
            <polygon class="cls-6" points="723.06 665.45 722.88 730.48 737.39 730.37 736.77 665.45 723.06 665.45"/>
          </g>
        </g>
      </g>
      <g>
        <g>
          <g>
            <polygon class="cls-6" points="1031.94 644.31 1038.42 644.03 1058.24 807.31 1052.67 807.31 1031.94 644.31"/>
            <polygon class="cls-12" points="1031.94 644.31 1028.48 645.95 1050.21 807.31 1052.67 807.31 1031.94 644.31"/>
          </g>
          <g>
            <polygon class="cls-6" points="1094.08 664.31 1100.56 664.03 1060.38 807.31 1054.81 807.31 1094.08 664.31"/>
            <polygon class="cls-12" points="1094.08 664.31 1090.62 665.95 1052.35 807.31 1054.81 807.31 1094.08 664.31"/>
          </g>
        </g>
        <path class="cls-20" d="M1048.06,756.56s3.5-3.47-.48-6.47-9,.47-9,.47-1-4-8.45-4-9.48,5.45-9.48,5.45-.49-3.48-5.47-2.5-5.5,4.46-5.5,4.46.52-5-5.46-6.49-8.47,2.46-8.47,2.46-.48-4.48-6.46-4.5a7.73,7.73,0,0,0-7.49,5.45,4,4,0,0,0-5.94-1.82c-3.41-.83-6.78,1.51-6.78,1.51s-1-4-8.45-4-9.48,5.45-9.48,5.45-.49-3.48-5.47-2.5-5.5,4.46-5.5,4.46.52-5-5.46-6.49-8.47,2.46-8.47,2.46-.48-4.48-6.46-4.5a7.73,7.73,0,0,0-7.49,5.45s-2-4.48-6.47-1.51-2,6-2,6a5.53,5.53,0,0,0-5.5,6c0,6,6,6.49,6,6.49l77.2.25c.14-.07.26-.15.38-.22L1051,768a2.48,2.48,0,0,0,1-4C1055.53,757.58,1048.06,756.56,1048.06,756.56Z"/>
        <g>
          <polygon class="cls-5" points="919.96 764.9 889.3 764.9 886.96 807.31 925.3 807.31 919.96 764.9"/>
          <polygon class="cls-6" points="1063.96 807.35 1059.3 764.9 919.96 764.9 920.63 807.35 1063.96 807.35"/>
        </g>
        <g>
          <g>
            <polygon class="cls-6" points="877.07 644.31 883.54 644.03 903.36 807.31 897.79 807.31 877.07 644.31"/>
            <polygon class="cls-12" points="877.07 644.31 873.6 645.95 895.33 807.31 897.79 807.31 877.07 644.31"/>
          </g>
          <g>
            <polygon class="cls-6" points="939.2 664.31 945.68 664.03 905.5 807.31 899.93 807.31 939.2 664.31"/>
            <polygon class="cls-12" points="939.2 664.31 935.74 665.95 897.47 807.31 899.93 807.31 939.2 664.31"/>
          </g>
        </g>
        <g>
          <path class="cls-21" d="M874.15,647.23s15.81,19.42,63.31,19.42l164.74.07s1.43-2.74-.9-3.4-34.76-.74-62.88-19.29H876.75a.89.89,0,0,0-.39.09l-2.37,1a1,1,0,0,0-.26,1.67Z"/>
          <g>
            <path class="cls-21" d="M937.47,666.37c.44,9.72,4.88,17.35,10.3,17.35s9.85-7.63,10.29-17.35Z"/>
            <path class="cls-21" d="M958.06,666.37c.45,9.72,4.88,17.35,10.3,17.35s9.85-7.63,10.3-17.35Z"/>
            <path class="cls-21" d="M978.66,666.37c.44,9.72,4.88,17.35,10.29,17.35s9.85-7.63,10.3-17.35Z"/>
            <path class="cls-21" d="M999.25,666.37c.45,9.72,4.88,17.35,10.3,17.35s9.85-7.63,10.29-17.35Z"/>
            <path class="cls-21" d="M1019.84,666.37c.45,9.72,4.88,17.35,10.3,17.35s9.85-7.63,10.3-17.35Z"/>
            <path class="cls-21" d="M1040.44,666.37c.44,9.72,4.88,17.35,10.29,17.35s9.85-7.63,10.3-17.35Z"/>
            <path class="cls-21" d="M1061,666.37c.45,9.72,4.88,17.35,10.3,17.35s9.85-7.63,10.29-17.35Z"/>
            <path class="cls-21" d="M1081.62,666.37c.45,9.72,4.89,17.35,10.3,17.35s9.85-7.63,10.3-17.35Z"/>
          </g>
        </g>
      </g>
      <g>
        <g>
          <g>
            <polygon class="cls-5" points="200.14 644.31 193.66 644.03 173.85 807.31 179.41 807.31 200.14 644.31"/>
            <polygon class="cls-6" points="200.14 644.31 203.6 645.95 181.87 807.31 179.41 807.31 200.14 644.31"/>
          </g>
          <g>
            <polygon class="cls-5" points="138 664.31 131.53 664.03 171.71 807.31 177.27 807.31 138 664.31"/>
            <polygon class="cls-6" points="138 664.31 141.47 665.95 179.73 807.31 177.27 807.31 138 664.31"/>
          </g>
        </g>
        <g>
          <polygon class="cls-6" points="312.12 764.9 342.79 764.9 345.12 807.31 306.79 807.31 312.12 764.9"/>
          <polygon class="cls-5" points="168.12 807.35 172.79 764.9 312.12 764.9 311.45 807.35 168.12 807.35"/>
        </g>
        <g>
          <g>
            <polygon class="cls-5" points="355.02 644.31 348.55 644.03 328.73 807.31 334.29 807.31 355.02 644.31"/>
            <polygon class="cls-6" points="355.02 644.31 358.48 645.95 336.75 807.31 334.29 807.31 355.02 644.31"/>
          </g>
          <g>
            <polygon class="cls-5" points="292.88 664.31 286.41 664.03 326.59 807.31 332.15 807.31 292.88 664.31"/>
            <polygon class="cls-6" points="292.88 664.31 296.35 665.95 334.61 807.31 332.15 807.31 292.88 664.31"/>
          </g>
        </g>
        <g>
          <path class="cls-22" d="M357.93,647.23s-15.81,19.42-63.31,19.42l-164.74.07s-1.43-2.74.91-3.4,34.75-.74,62.88-19.29H355.33a.93.93,0,0,1,.4.09l2.37,1a1,1,0,0,1,.26,1.67Z"/>
          <g>
            <path class="cls-22" d="M294.62,666.37c-.45,9.72-4.89,17.35-10.3,17.35s-9.85-7.63-10.3-17.35Z"/>
            <path class="cls-22" d="M274,666.37c-.44,9.72-4.88,17.35-10.3,17.35s-9.85-7.63-10.29-17.35Z"/>
            <path class="cls-22" d="M253.43,666.37c-.45,9.72-4.88,17.35-10.3,17.35s-9.85-7.63-10.3-17.35Z"/>
            <path class="cls-22" d="M232.83,666.37c-.44,9.72-4.88,17.35-10.29,17.35s-9.85-7.63-10.3-17.35Z"/>
            <path class="cls-22" d="M212.24,666.37c-.45,9.72-4.88,17.35-10.3,17.35s-9.85-7.63-10.29-17.35Z"/>
            <path class="cls-22" d="M191.65,666.37c-.45,9.72-4.88,17.35-10.3,17.35s-9.85-7.63-10.3-17.35Z"/>
            <path class="cls-22" d="M171.05,666.37c-.44,9.72-4.88,17.35-10.29,17.35s-9.85-7.63-10.3-17.35Z"/>
            <path class="cls-22" d="M150.46,666.37c-.45,9.72-4.88,17.35-10.3,17.35s-9.85-7.63-10.29-17.35Z"/>
          </g>
        </g>
      </g>
      <g>
        <g>
          <polygon class="cls-6" points="207.91 708.4 211.38 709.13 211.2 771.41 208.64 771.41 207.91 708.4"/>
          <polygon class="cls-12" points="207.91 708.4 201.44 709.05 203.18 771.41 208.64 771.41 207.91 708.4"/>
        </g>
        <g>
          <polygon class="cls-6" points="67.16 708.4 70.63 709.13 70.45 771.41 67.88 771.41 67.16 708.4"/>
          <polygon class="cls-12" points="67.16 708.4 59.69 709.05 61.42 771.41 67.88 771.41 67.16 708.4"/>
        </g>
        <g>
          <g>
            <polygon class="cls-6" points="246.16 708.4 252.63 708.13 252.45 771.41 246.88 771.41 246.16 708.4"/>
            <polygon class="cls-12" points="246.16 708.4 242.69 710.05 244.42 771.41 246.88 771.41 246.16 708.4"/>
          </g>
          <g>
            <polygon class="cls-6" points="401.03 708.4 407.51 708.13 407.33 771.41 401.76 771.41 401.03 708.4"/>
            <polygon class="cls-12" points="401.03 708.4 397.57 710.05 399.3 771.41 401.76 771.41 401.03 708.4"/>
          </g>
          <g>
            <g>
              <rect class="cls-12" x="230.39" y="726.19" width="189.67" height="9.67"/>
              <polygon class="cls-12" points="230.39 726.19 232.1 724.49 421.76 734.15 420.05 735.86 230.39 726.19"/>
            </g>
            <rect class="cls-6" x="232.1" y="724.49" width="189.67" height="9.67"/>
          </g>
        </g>
        <g>
          <g>
            <polygon class="cls-6" points="450.49 708.4 456.96 708.13 456.78 771.41 451.22 771.41 450.49 708.4"/>
            <polygon class="cls-12" points="450.49 708.4 447.02 710.05 448.75 771.41 451.22 771.41 450.49 708.4"/>
          </g>
          <g>
            <polygon class="cls-6" points="605.37 708.4 611.84 708.13 611.66 771.41 606.1 771.41 605.37 708.4"/>
            <polygon class="cls-12" points="605.37 708.4 601.9 710.05 603.63 771.41 606.1 771.41 605.37 708.4"/>
          </g>
          <g>
            <g>
              <rect class="cls-12" x="434.72" y="726.19" width="189.67" height="9.67"/>
              <polygon class="cls-12" points="434.72 726.19 436.43 724.49 626.1 734.15 624.39 735.86 434.72 726.19"/>
            </g>
            <rect class="cls-6" x="436.43" y="724.49" width="189.67" height="9.67"/>
          </g>
        </g>
        <g>
          <g>
            <polygon class="cls-6" points="654.82 708.4 661.29 708.13 661.11 771.41 655.55 771.41 654.82 708.4"/>
            <polygon class="cls-12" points="654.82 708.4 651.36 710.05 653.09 771.41 655.55 771.41 654.82 708.4"/>
          </g>
          <g>
            <polygon class="cls-6" points="809.7 708.4 816.17 708.13 815.99 771.41 810.43 771.41 809.7 708.4"/>
            <polygon class="cls-12" points="809.7 708.4 806.24 710.05 807.97 771.41 810.43 771.41 809.7 708.4"/>
          </g>
          <g>
            <g>
              <rect class="cls-12" x="639.05" y="726.19" width="189.67" height="9.67"/>
              <polygon class="cls-12" points="639.05 726.19 640.76 724.49 830.43 734.15 828.72 735.86 639.05 726.19"/>
            </g>
            <rect class="cls-6" x="640.76" y="724.49" width="189.67" height="9.67"/>
          </g>
        </g>
        <g>
          <g>
            <polygon class="cls-6" points="859.15 708.4 865.63 708.13 865.45 771.41 859.88 771.41 859.15 708.4"/>
            <polygon class="cls-12" points="859.15 708.4 855.69 710.05 857.42 771.41 859.88 771.41 859.15 708.4"/>
          </g>
          <g>
            <polygon class="cls-6" points="1014.03 708.4 1020.51 708.13 1020.33 771.41 1014.76 771.41 1014.03 708.4"/>
            <polygon class="cls-12" points="1014.03 708.4 1010.57 710.05 1012.3 771.41 1014.76 771.41 1014.03 708.4"/>
          </g>
          <g>
            <g>
              <rect class="cls-12" x="843.39" y="726.19" width="189.67" height="9.67"/>
              <polygon class="cls-12" points="843.39 726.19 845.1 724.49 1034.76 734.15 1033.05 735.86 843.39 726.19"/>
            </g>
            <rect class="cls-6" x="845.1" y="724.49" width="189.67" height="9.67"/>
          </g>
        </g>
        <g>
          <polygon class="cls-8" points="0 1036.2 25.77 754.12 1018.96 754.12 1041.45 1036.2 0 1036.2"/>
          <polygon class="cls-23" points="246.66 1036.2 254.16 754.12 1064.12 754.12 1088.12 1036.2 246.66 1036.2"/>
        </g>
        <g>
          <g>
            <polygon class="cls-12" points="312.32 808.95 312.32 822.95 321.07 822.95 321.07 808.45 312.32 808.95"/>
            <polygon class="cls-6" points="321.07 808.45 336.24 809.01 336.24 822.6 321.07 822.95 321.07 808.45"/>
          </g>
          <g>
            <polygon class="cls-12" points="398.32 808.95 398.32 822.95 407.07 822.95 407.07 808.45 398.32 808.95"/>
            <polygon class="cls-6" points="407.07 808.45 422.24 808.45 422.24 822.03 407.07 822.95 407.07 808.45"/>
          </g>
          <g>
            <polygon class="cls-12" points="484.32 808.95 484.32 822.95 493.07 822.95 493.07 808.45 484.32 808.95"/>
            <polygon class="cls-6" points="493.07 808.45 508.24 808.45 508.41 822.95 493.07 822.95 493.07 808.45"/>
          </g>
          <g>
            <polygon class="cls-12" points="570.32 808.95 570.32 822.95 579.07 822.95 579.07 808.45 570.32 808.95"/>
            <polygon class="cls-6" points="579.07 808.45 594.24 809.14 594.24 822.72 579.07 822.95 579.07 808.45"/>
          </g>
          <g>
            <polygon class="cls-12" points="656.32 808.95 656.32 822.95 665.07 822.95 665.07 808.45 656.32 808.95"/>
            <polygon class="cls-6" points="665.07 808.45 680.24 809.2 680.24 823.03 665.07 822.95 665.07 808.45"/>
          </g>
          <g>
            <polygon class="cls-12" points="742.32 808.95 742.32 822.95 751.07 822.95 751.07 808.45 742.32 808.95"/>
            <polygon class="cls-6" points="751.07 808.45 766.24 808.45 766.24 823.45 751.07 822.95 751.07 808.45"/>
          </g>
          <g>
            <polygon class="cls-12" points="828.32 808.95 828.32 822.95 837.07 822.95 837.07 808.45 828.32 808.95"/>
            <polygon class="cls-6" points="837.07 808.45 852.24 809.7 850.74 823.03 837.07 822.95 837.07 808.45"/>
          </g>
          <g>
            <polygon class="cls-12" points="914.32 808.95 914.32 822.95 923.07 822.95 923.07 808.45 914.32 808.95"/>
            <polygon class="cls-6" points="923.07 808.45 938.24 808.45 938.24 822.03 923.07 822.95 923.07 808.45"/>
          </g>
          <g>
            <polygon class="cls-12" points="1000.32 808.95 1000.32 822.95 1009.07 822.95 1009.07 808.45 1000.32 808.95"/>
            <polygon class="cls-6" points="1009.07 808.45 1024.24 808.45 1024.24 822.03 1009.07 822.95 1009.07 808.45"/>
          </g>
        </g>
        <g>
          <rect class="cls-12" x="49.29" y="724.2" width="172.25" height="9.95"/>
          <rect class="cls-12" x="50.72" y="725.64" width="172.25" height="9.95"/>
          <polygon class="cls-12" points="49.29 734.15 50.72 735.59 51.49 733.73 49.63 733.59 49.29 734.15"/>
          <polygon class="cls-6" points="221.54 724.2 222.97 725.64 222.97 735.59 221.54 734.15 221.54 724.2"/>
        </g>
        <g>
          <polygon class="cls-12" points="183.32 808.95 183.32 822.95 198.07 822.95 198.07 808.45 183.32 808.95"/>
          <polygon class="cls-6" points="198.07 808.45 207.24 809.01 207.24 822.6 198.07 822.95 198.07 808.45"/>
        </g>
        <g>
          <polygon class="cls-12" points="112.32 808.95 112.32 822.95 127.07 822.95 127.07 808.45 112.32 808.95"/>
          <polygon class="cls-6" points="127.07 808.45 136.24 809.01 136.24 822.6 127.07 822.95 127.07 808.45"/>
        </g>
        <g>
          <polygon class="cls-12" points="43.24 808.95 43.24 822.95 57.99 822.95 57.99 808.45 43.24 808.95"/>
          <polygon class="cls-6" points="57.99 808.45 67.16 809.01 67.16 822.6 57.99 822.95 57.99 808.45"/>
        </g>
      </g>
      <g>
        <polygon class="cls-8" points="1096.62 769.7 1031.44 769.7 823.93 977.21 823.93 1036.2 1096.62 1036.2 1096.62 769.7"/>
        <polygon class="cls-24" points="1203.88 769.7 1047.94 769.7 840.43 977.21 840.43 1036.2 1203.88 1036.2 1203.88 769.7"/>
        <g>
          <rect class="cls-25" x="855.08" y="1020.52" width="101.48" height="15.68"/>
          <rect class="cls-26" x="870.75" y="1004.85" width="101.48" height="15.68"/>
          <rect class="cls-27" x="886.43" y="989.17" width="101.48" height="15.68"/>
          <rect class="cls-28" x="902.11" y="973.49" width="101.48" height="15.68"/>
          <rect class="cls-29" x="917.78" y="957.82" width="101.48" height="15.68"/>
          <rect class="cls-30" x="933.46" y="942.14" width="101.48" height="15.68"/>
          <rect class="cls-31" x="949.13" y="926.46" width="101.48" height="15.68"/>
          <rect class="cls-32" x="964.81" y="910.79" width="101.48" height="15.68"/>
          <rect class="cls-33" x="980.49" y="895.11" width="101.48" height="15.68"/>
          <rect class="cls-34" x="996.16" y="879.43" width="101.48" height="15.68"/>
          <rect class="cls-35" x="1011.84" y="863.76" width="101.48" height="15.68"/>
          <rect class="cls-36" x="1027.52" y="848.08" width="101.48" height="15.68"/>
          <rect class="cls-37" x="1043.19" y="832.41" width="101.48" height="15.68"/>
          <rect class="cls-38" x="1058.87" y="816.73" width="101.48" height="15.68"/>
        </g>
        <polygon class="cls-8" points="1200.37 769.7 1135.19 769.7 927.68 977.21 927.68 1036.2 1200.37 1036.2 1200.37 769.7"/>
        <polygon class="cls-39" points="1216.87 769.7 1151.69 769.7 944.18 977.21 944.18 1036.2 1216.87 1036.2 1216.87 769.7"/>
      </g>
      <g>
        <g>
          <g>
            <polygon class="cls-6" points="1234.61 708.4 1241.08 708.13 1240.9 771.41 1235.34 771.41 1234.61 708.4"/>
            <polygon class="cls-12" points="1234.61 708.4 1231.14 710.05 1232.87 771.41 1235.34 771.41 1234.61 708.4"/>
          </g>
          <g>
            <polygon class="cls-6" points="1389.48 708.4 1395.96 708.13 1395.78 771.41 1390.21 771.41 1389.48 708.4"/>
            <polygon class="cls-12" points="1389.48 708.4 1386.02 710.05 1387.75 771.41 1390.21 771.41 1389.48 708.4"/>
          </g>
          <g>
            <g>
              <rect class="cls-12" x="1218.84" y="726.19" width="189.67" height="9.67"/>
              <polygon class="cls-12" points="1218.84 726.19 1220.55 724.49 1410.21 734.15 1408.51 735.86 1218.84 726.19"/>
            </g>
            <rect class="cls-6" x="1220.55" y="724.49" width="189.67" height="9.67"/>
          </g>
        </g>
        <g>
          <g>
            <polygon class="cls-6" points="1438.94 708.4 1445.41 708.13 1445.23 771.41 1439.67 771.41 1438.94 708.4"/>
            <polygon class="cls-12" points="1438.94 708.4 1435.47 710.05 1437.21 771.41 1439.67 771.41 1438.94 708.4"/>
          </g>
          <g>
            <polygon class="cls-6" points="1593.82 708.4 1600.29 708.13 1600.11 771.41 1594.55 771.41 1593.82 708.4"/>
            <polygon class="cls-12" points="1593.82 708.4 1590.35 710.05 1592.09 771.41 1594.55 771.41 1593.82 708.4"/>
          </g>
          <g>
            <g>
              <rect class="cls-12" x="1423.17" y="726.19" width="189.67" height="9.67"/>
              <polygon class="cls-12" points="1423.17 726.19 1424.88 724.49 1614.55 734.15 1612.84 735.86 1423.17 726.19"/>
            </g>
            <rect class="cls-6" x="1424.88" y="724.49" width="189.67" height="9.67"/>
          </g>
        </g>
        <g>
          <g>
            <polygon class="cls-6" points="1643.27 708.4 1649.75 708.13 1649.56 771.41 1644 771.41 1643.27 708.4"/>
            <polygon class="cls-12" points="1643.27 708.4 1639.81 710.05 1641.54 771.41 1644 771.41 1643.27 708.4"/>
          </g>
          <g>
            <polygon class="cls-6" points="1798.15 708.4 1804.63 708.13 1804.44 771.41 1798.88 771.41 1798.15 708.4"/>
            <polygon class="cls-12" points="1798.15 708.4 1794.69 710.05 1796.42 771.41 1798.88 771.41 1798.15 708.4"/>
          </g>
          <g>
            <g>
              <rect class="cls-12" x="1627.5" y="726.19" width="189.67" height="9.67"/>
              <polygon class="cls-12" points="1627.51 726.19 1629.21 724.49 1818.88 734.15 1817.17 735.86 1627.51 726.19"/>
            </g>
            <rect class="cls-6" x="1629.21" y="724.49" width="189.67" height="9.67"/>
          </g>
        </g>
        <g>
          <g>
            <polygon class="cls-6" points="1847.61 708.4 1854.08 708.13 1853.9 771.41 1848.34 771.41 1847.61 708.4"/>
            <polygon class="cls-12" points="1847.61 708.4 1844.14 710.05 1845.87 771.41 1848.34 771.41 1847.61 708.4"/>
          </g>
          <g>
            <polygon class="cls-6" points="2002.48 708.4 2008.96 708.13 2008.78 771.41 2003.21 771.41 2002.48 708.4"/>
            <polygon class="cls-12" points="2002.48 708.4 1999.02 710.05 2000.75 771.41 2003.21 771.41 2002.48 708.4"/>
          </g>
          <g>
            <g>
              <rect class="cls-12" x="1831.84" y="726.19" width="189.67" height="9.67"/>
              <polygon class="cls-12" points="1831.84 726.19 1833.55 724.49 2023.21 734.15 2021.51 735.86 1831.84 726.19"/>
            </g>
            <rect class="cls-6" x="1833.55" y="724.49" width="189.67" height="9.67"/>
          </g>
        </g>
        <g>
          <polygon class="cls-8" points="1188.44 1036.2 1195.94 754.12 2005.9 754.12 2029.9 1036.2 1188.44 1036.2"/>
          <polygon class="cls-40" points="1235.11 1036.2 1242.61 754.12 2052.57 754.12 2076.57 1036.2 1235.11 1036.2"/>
        </g>
        <g>
          <g>
            <polygon class="cls-12" points="1296.49 808.95 1296.49 822.95 1305.24 822.95 1305.24 808.45 1296.49 808.95"/>
            <polygon class="cls-6" points="1305.24 808.45 1320.41 809.01 1320.41 822.6 1305.24 822.95 1305.24 808.45"/>
          </g>
          <g>
            <polygon class="cls-12" points="1382.49 808.95 1382.49 822.95 1391.24 822.95 1391.24 808.45 1382.49 808.95"/>
            <polygon class="cls-6" points="1391.24 808.45 1406.41 808.45 1406.41 822.03 1391.24 822.95 1391.24 808.45"/>
          </g>
          <g>
            <polygon class="cls-12" points="1468.49 808.95 1468.49 822.95 1477.24 822.95 1477.24 808.45 1468.49 808.95"/>
            <polygon class="cls-6" points="1477.24 808.45 1492.41 808.45 1492.58 822.95 1477.24 822.95 1477.24 808.45"/>
          </g>
          <g>
            <polygon class="cls-12" points="1554.49 808.95 1554.49 822.95 1563.24 822.95 1563.24 808.45 1554.49 808.95"/>
            <polygon class="cls-6" points="1563.24 808.45 1578.41 809.14 1578.41 822.72 1563.24 822.95 1563.24 808.45"/>
          </g>
          <g>
            <polygon class="cls-12" points="1640.49 808.95 1640.49 822.95 1649.24 822.95 1649.24 808.45 1640.49 808.95"/>
            <polygon class="cls-6" points="1649.24 808.45 1664.41 809.2 1664.41 823.03 1649.24 822.95 1649.24 808.45"/>
          </g>
          <g>
            <polygon class="cls-12" points="1726.49 808.95 1726.49 822.95 1735.24 822.95 1735.24 808.45 1726.49 808.95"/>
            <polygon class="cls-6" points="1735.24 808.45 1750.41 808.45 1750.41 823.45 1735.24 822.95 1735.24 808.45"/>
          </g>
          <g>
            <polygon class="cls-12" points="1812.49 808.95 1812.49 822.95 1821.24 822.95 1821.24 808.45 1812.49 808.95"/>
            <polygon class="cls-6" points="1821.24 808.45 1836.41 809.7 1834.91 823.03 1821.24 822.95 1821.24 808.45"/>
          </g>
          <g>
            <polygon class="cls-12" points="1898.49 808.95 1898.49 822.95 1907.24 822.95 1907.24 808.45 1898.49 808.95"/>
            <polygon class="cls-6" points="1907.24 808.45 1922.41 808.45 1922.41 822.03 1907.24 822.95 1907.24 808.45"/>
          </g>
          <g>
            <polygon class="cls-12" points="1984.49 808.95 1984.49 822.95 1993.24 822.95 1993.24 808.45 1984.49 808.95"/>
            <polygon class="cls-6" points="1993.24 808.45 2008.41 808.45 2008.41 822.03 1993.24 822.95 1993.24 808.45"/>
          </g>
        </g>
      </g>
    </g>
  </g>
</svg>
