<svg xmlns="http://www.w3.org/2000/svg" xmlns:xlink="http://www.w3.org/1999/xlink" width="1058.125" height="409.646" viewBox="0 0 1058.125 409.646">
  <defs>
    <linearGradient id="a" x1="230.694" y1="15.292" x2="160.52" y2="15.292" gradientUnits="userSpaceOnUse">
      <stop offset="0" stop-color="#998675"/>
      <stop offset="1" stop-color="#c7b299"/>
    </linearGradient>
    <linearGradient id="b" x1="343.361" y1="18.042" x2="294.192" y2="18.042" xlink:href="#a"/>
    <linearGradient id="c" x1="459.527" y1="17.792" x2="403.361" y2="17.792" xlink:href="#a"/>
    <linearGradient id="d" x1="117.194" y1="18.708" x2="187.368" y2="18.708" xlink:href="#a"/>
    <linearGradient id="e" x1="74.694" y1="14.833" x2="110.733" y2="14.833" xlink:href="#a"/>
    <linearGradient id="f" x1="-21.382" y1="130.819" x2="399.336" y2="130.819" xlink:href="#a"/>
    <linearGradient id="g" x1="76.952" y1="129.069" x2="497.671" y2="129.069" xlink:href="#a"/>
    <linearGradient id="h" x1="41.331" y1="318.604" x2="1058.125" y2="318.604" xlink:href="#a"/>
  </defs>
  <title>City_1</title>
  <g>
    <g>
      <g>
        <g>
          <polygon points="906.033 95.101 912.507 94.827 932.325 258.108 926.762 258.108 906.033 95.101" fill="#754c24"/>
          <polygon points="906.033 95.101 902.568 96.742 924.301 258.108 926.762 258.108 906.033 95.101" fill="#66421f"/>
        </g>
        <g>
          <polygon points="968.172 115.101 974.646 114.827 934.464 258.108 928.901 258.108 968.172 115.101" fill="#754c24"/>
          <polygon points="968.172 115.101 964.707 116.742 926.44 258.108 928.901 258.108 968.172 115.101" fill="#66421f"/>
        </g>
      </g>
      <path d="M922.884,206.6s3.5-4.248-.477-7.915-8.968.574-8.968.574-.983-4.875-8.455-4.9a9.828,9.828,0,0,0-9.481,6.66s-.487-4.264-5.471-3.065a6.855,6.855,0,0,0-5.494,5.457s.514-6.086-5.458-7.935a6.911,6.911,0,0,0-8.476,3.011,6.176,6.176,0,0,0-6.461-5.5c-5.977-.023-7.489,6.668-7.489,6.668s-1.826-5.023-5.937-2.232c-3.407-1.013-6.778,1.843-6.778,1.843s-.983-4.875-8.455-4.9a9.828,9.828,0,0,0-9.481,6.66s-.487-4.264-5.471-3.065a6.855,6.855,0,0,0-5.494,5.457s.514-6.086-5.458-7.935a6.911,6.911,0,0,0-8.476,3.011,6.176,6.176,0,0,0-6.461-5.5c-5.977-.023-7.489,6.668-7.489,6.668s-1.978-5.487-6.47-1.852-2.012,7.3-2.012,7.3-5.479-.022-5.5,7.283,5.957,7.938,5.957,7.938l77.206.3c.141-.086.261-.177.381-.267l69.119.267c2.993-1.815,1.008-4.866,1.008-4.866C930.353,207.846,922.884,206.6,922.884,206.6Z" fill="#a4bd47"/>
      <g>
        <polygon points="794.051 215.697 763.385 215.697 761.051 258.108 799.385 258.108 794.051 215.697" fill="#66421f"/>
        <polygon points="938.051 258.14 933.385 215.697 794.051 215.697 794.718 258.14 938.051 258.14" fill="#754c24"/>
      </g>
      <g>
        <g>
          <polygon points="751.153 95.101 757.627 94.827 777.445 258.108 771.883 258.108 751.153 95.101" fill="#754c24"/>
          <polygon points="751.153 95.101 747.688 96.742 769.421 258.108 771.883 258.108 751.153 95.101" fill="#66421f"/>
        </g>
        <g>
          <polygon points="813.292 115.101 819.766 114.827 779.584 258.108 774.022 258.108 813.292 115.101" fill="#754c24"/>
          <polygon points="813.292 115.101 809.827 116.742 771.56 258.108 774.022 258.108 813.292 115.101" fill="#66421f"/>
        </g>
      </g>
      <g>
        <path d="M748.241,98.03s15.81,19.416,63.31,19.416l164.738.066s1.429-2.733-.9-3.4-34.756-.738-62.878-19.286H750.843a1,1,0,0,0-.4.084l-2.368,1.032a1,1,0,0,0-.262,1.667Z" fill="#8d5fce"/>
        <g>
          <path d="M811.557,117.164c.446,9.717,4.881,17.352,10.3,17.352s9.851-7.635,10.3-17.352Z" fill="#8d5fce"/>
          <path d="M832.15,117.164c.446,9.717,4.882,17.352,10.3,17.352s9.851-7.635,10.3-17.352Z" fill="#8d5fce"/>
          <path d="M852.744,117.164c.446,9.717,4.882,17.352,10.3,17.352s9.851-7.635,10.3-17.352Z" fill="#8d5fce"/>
          <path d="M873.338,117.164c.446,9.717,4.881,17.352,10.3,17.352s9.851-7.635,10.3-17.352Z" fill="#8d5fce"/>
          <path d="M893.932,117.164c.445,9.717,4.881,17.352,10.3,17.352s9.85-7.635,10.3-17.352Z" fill="#8d5fce"/>
          <path d="M914.525,117.164c.446,9.717,4.882,17.352,10.3,17.352s9.851-7.635,10.3-17.352Z" fill="#8d5fce"/>
          <path d="M935.119,117.164c.446,9.717,4.882,17.352,10.3,17.352s9.851-7.635,10.3-17.352Z" fill="#8d5fce"/>
          <path d="M955.713,117.164c.445,9.717,4.881,17.352,10.3,17.352s9.85-7.635,10.3-17.352Z" fill="#8d5fce"/>
        </g>
      </g>
    </g>
    <g>
      <g>
        <g>
          <polygon points="695.592 95.101 702.066 94.827 721.884 258.108 716.322 258.108 695.592 95.101" fill="#754c24"/>
          <polygon points="695.592 95.101 692.127 96.742 713.86 258.108 716.322 258.108 695.592 95.101" fill="#66421f"/>
        </g>
        <g>
          <polygon points="757.731 115.101 764.205 114.827 724.023 258.108 718.461 258.108 757.731 115.101" fill="#754c24"/>
          <polygon points="757.731 115.101 754.266 116.742 715.999 258.108 718.461 258.108 757.731 115.101" fill="#66421f"/>
        </g>
      </g>
      <path d="M714.709,208.426s3.5-3.476-.477-6.477-8.968.47-8.968.47-.983-3.988-8.455-4.012-9.481,5.449-9.481,5.449-.487-3.488-5.471-2.507-5.494,4.465-5.494,4.465.514-4.98-5.458-6.493-8.476,2.464-8.476,2.464-.484-4.484-6.461-4.5a7.74,7.74,0,0,0-7.489,5.455,4.03,4.03,0,0,0-5.937-1.825c-3.407-.83-6.778,1.507-6.778,1.507s-.983-3.988-8.455-4.012-9.481,5.449-9.481,5.449-.487-3.488-5.471-2.507-5.494,4.465-5.494,4.465.514-4.98-5.458-6.493-8.476,2.464-8.476,2.464-.484-4.484-6.461-4.5a7.74,7.74,0,0,0-7.489,5.455s-1.978-4.489-6.47-1.515-2.012,5.971-2.012,5.971a5.535,5.535,0,0,0-5.5,5.96c-.019,5.977,5.957,6.494,5.957,6.494l77.206.245c.141-.071.261-.145.381-.219l69.119.219a2.481,2.481,0,0,0,1.008-3.982C722.178,209.446,714.709,208.426,714.709,208.426Z" fill="#00a99d"/>
      <g>
        <polygon points="583.611 215.697 552.944 215.697 550.611 258.108 588.944 258.108 583.611 215.697" fill="#66421f"/>
        <polygon points="727.611 258.14 722.944 215.697 583.611 215.697 584.277 258.14 727.611 258.14" fill="#754c24"/>
      </g>
      <g>
        <g>
          <polygon points="540.712 95.101 547.186 94.827 567.004 258.108 561.442 258.108 540.712 95.101" fill="#754c24"/>
          <polygon points="540.712 95.101 537.248 96.742 558.98 258.108 561.442 258.108 540.712 95.101" fill="#66421f"/>
        </g>
        <g>
          <polygon points="602.852 115.101 609.325 114.827 569.143 258.108 563.581 258.108 602.852 115.101" fill="#754c24"/>
          <polygon points="602.852 115.101 599.387 116.742 561.119 258.108 563.581 258.108 602.852 115.101" fill="#66421f"/>
        </g>
      </g>
      <g>
        <path d="M537.8,98.03s15.811,19.416,63.311,19.416l164.737.066s1.429-2.733-.9-3.4-34.756-.738-62.878-19.286H540.4a1,1,0,0,0-.4.084l-2.368,1.032a1,1,0,0,0-.262,1.667Z" fill="#d8563d"/>
        <g>
          <path d="M601.116,117.164c.446,9.717,4.881,17.352,10.3,17.352s9.851-7.635,10.3-17.352Z" fill="#d8563d"/>
          <path d="M621.71,117.164c.445,9.717,4.881,17.352,10.3,17.352s9.85-7.635,10.3-17.352Z" fill="#d8563d"/>
          <path d="M642.3,117.164c.446,9.717,4.882,17.352,10.3,17.352s9.851-7.635,10.3-17.352Z" fill="#d8563d"/>
          <path d="M662.9,117.164c.446,9.717,4.882,17.352,10.3,17.352s9.851-7.635,10.3-17.352Z" fill="#d8563d"/>
          <path d="M683.491,117.164c.445,9.717,4.881,17.352,10.3,17.352s9.85-7.635,10.3-17.352Z" fill="#d8563d"/>
          <path d="M704.084,117.164c.446,9.717,4.882,17.352,10.3,17.352s9.851-7.635,10.3-17.352Z" fill="#d8563d"/>
          <path d="M724.678,117.164c.446,9.717,4.882,17.352,10.3,17.352s9.851-7.635,10.3-17.352Z" fill="#d8563d"/>
          <path d="M745.272,117.164c.446,9.717,4.881,17.352,10.3,17.352s9.851-7.635,10.3-17.352Z" fill="#d8563d"/>
        </g>
      </g>
    </g>
    <g>
      <polygon points="246.444 0 227.32 0.417 222.527 30.583 247.361 30.583 246.444 0" fill="url(#a)"/>
      <polygon points="355.694 0 331.694 1.25 326.694 36.083 356.694 34.25 355.694 0" fill="url(#b)"/>
      <polygon points="469.944 0 451.194 1.25 446.027 35.583 472.527 34.75 469.944 0" fill="url(#c)"/>
      <polygon points="164.694 3.5 183.861 4.25 189.027 33.917 167.694 32.583 164.694 3.5" fill="url(#d)"/>
      <polygon points="94.444 4.25 106.861 4.25 110.527 25.417 89.194 23.083 94.444 4.25" fill="url(#e)"/>
      <polygon points="392.367 44.25 196.05 44.25 196.444 28.5 169.194 28.25 164.694 3.5 127.944 3.5 125.194 22.125 97.194 20.75 94.444 4.25 63.194 4.25 60.511 44.25 55.304 258.138 399.336 258.138 392.367 44.25" fill="url(#f)"/>
      <polygon points="526.702 44.25 516.444 0 469.944 0 464.694 31 418.944 31 414.694 0.5 355.694 0 352.694 29.25 296.694 30.75 293.694 0 246.444 0 242.444 28.5 196.444 28.5 194.846 44.25 189.639 258.138 533.671 258.138 526.702 44.25" fill="url(#g)"/>
      <g>
        <polygon points="406.598 130.281 407.867 188.994 460.856 189.966 456.424 131.233 406.598 130.281" fill="#333"/>
        <polygon points="456.424 131.233 460.856 189.966 453.7 189.834 450.289 131.1 456.424 131.233" fill="#847263"/>
      </g>
      <g>
        <polygon points="336.814 258.14 265.724 258.14 271.224 113.37 329.194 113.37 336.814 258.14" fill="#333"/>
        <polygon points="336.814 258.14 323.184 258.14 319.684 113.37 329.194 113.37 336.814 258.14" fill="#847263"/>
      </g>
      <g>
        <polygon points="141.876 189.091 144.869 131.155 99.485 132.107 99.485 188.281 141.876 189.091" fill="#333"/>
        <polygon points="106.44 188.414 106.44 131.965 99.485 132.107 99.485 188.281 106.44 188.414" fill="#847263"/>
      </g>
      <g>
        <g>
          <polygon points="225.444 63.486 225.444 77.486 234.194 77.486 234.194 62.986 225.444 63.486" fill="#66421f"/>
          <polygon points="234.194 62.986 249.361 62.986 249.361 77.986 234.194 77.486 234.194 62.986" fill="#754c24"/>
        </g>
        <g>
          <polygon points="311.444 63.486 311.444 77.486 320.194 77.486 320.194 62.986 311.444 63.486" fill="#66421f"/>
          <polygon points="320.194 62.986 335.361 64.236 333.861 77.569 320.194 77.486 320.194 62.986" fill="#754c24"/>
        </g>
        <g>
          <polygon points="397.444 63.486 397.444 77.486 406.194 77.486 406.194 62.986 397.444 63.486" fill="#66421f"/>
          <polygon points="406.194 62.986 421.361 62.986 421.361 76.569 406.194 77.486 406.194 62.986" fill="#754c24"/>
        </g>
        <g>
          <polygon points="483.444 63.486 483.444 77.486 492.194 77.486 492.194 62.986 483.444 63.486" fill="#66421f"/>
          <polygon points="492.194 62.986 507.361 62.986 507.361 76.569 492.194 77.486 492.194 62.986" fill="#754c24"/>
        </g>
      </g>
      <g>
        <polygon points="140.777 63.486 140.777 77.486 155.527 77.486 155.527 62.986 140.777 63.486" fill="#66421f"/>
        <polygon points="155.527 62.986 164.694 63.548 164.694 77.131 155.527 77.486 155.527 62.986" fill="#754c24"/>
      </g>
      <g>
        <polygon points="77.236 63.486 77.236 77.486 91.986 77.486 91.986 62.986 77.236 63.486" fill="#66421f"/>
        <polygon points="91.986 62.986 101.152 63.548 101.152 77.131 91.986 77.486 91.986 62.986" fill="#754c24"/>
      </g>
    </g>
    <g>
      <g>
        <g>
          <polygon points="226.163 181.851 232.637 181.578 232.455 244.858 226.892 244.858 226.163 181.851" fill="#754c24"/>
          <polygon points="226.163 181.851 222.698 183.493 224.431 244.858 226.892 244.858 226.163 181.851" fill="#66421f"/>
        </g>
        <g>
          <polygon points="381.043 181.851 387.517 181.578 387.334 244.858 381.772 244.858 381.043 181.851" fill="#754c24"/>
          <polygon points="381.043 181.851 377.578 183.493 379.31 244.858 381.772 244.858 381.043 181.851" fill="#66421f"/>
        </g>
        <g>
          <g>
            <rect x="210.396" y="199.64" width="189.667" height="9.667" fill="#66421f"/>
            <polygon points="210.396 199.64 212.104 197.932 401.771 207.599 400.062 209.307 210.396 199.64" fill="#66421f"/>
          </g>
          <rect x="212.104" y="197.932" width="189.667" height="9.667" fill="#754c24"/>
        </g>
      </g>
      <g>
        <g>
          <polygon points="430.496 181.851 436.97 181.578 436.788 244.858 431.226 244.858 430.496 181.851" fill="#754c24"/>
          <polygon points="430.496 181.851 427.031 183.493 428.764 244.858 431.226 244.858 430.496 181.851" fill="#66421f"/>
        </g>
        <g>
          <polygon points="585.376 181.851 591.85 181.578 591.668 244.858 586.105 244.858 585.376 181.851" fill="#754c24"/>
          <polygon points="585.376 181.851 581.911 183.493 583.644 244.858 586.105 244.858 585.376 181.851" fill="#66421f"/>
        </g>
        <g>
          <g>
            <rect x="414.729" y="199.64" width="189.667" height="9.667" fill="#66421f"/>
            <polygon points="414.729 199.64 416.437 197.932 606.104 207.599 604.396 209.307 414.729 199.64" fill="#66421f"/>
          </g>
          <rect x="416.437" y="197.932" width="189.667" height="9.667" fill="#754c24"/>
        </g>
      </g>
      <g>
        <g>
          <polygon points="634.83 181.851 641.304 181.578 641.121 244.858 635.559 244.858 634.83 181.851" fill="#754c24"/>
          <polygon points="634.83 181.851 631.365 183.493 633.097 244.858 635.559 244.858 634.83 181.851" fill="#66421f"/>
        </g>
        <g>
          <polygon points="789.709 181.851 796.183 181.578 796.001 244.858 790.439 244.858 789.709 181.851" fill="#754c24"/>
          <polygon points="789.709 181.851 786.244 183.493 787.977 244.858 790.439 244.858 789.709 181.851" fill="#66421f"/>
        </g>
        <g>
          <g>
            <rect x="619.062" y="199.64" width="189.667" height="9.667" fill="#66421f"/>
            <polygon points="619.062 199.64 620.771 197.932 810.437 207.599 808.729 209.307 619.062 199.64" fill="#66421f"/>
          </g>
          <rect x="620.771" y="197.932" width="189.667" height="9.667" fill="#754c24"/>
        </g>
      </g>
      <g>
        <g>
          <polygon points="839.163 181.851 845.637 181.578 845.455 244.858 839.892 244.858 839.163 181.851" fill="#754c24"/>
          <polygon points="839.163 181.851 835.698 183.493 837.431 244.858 839.892 244.858 839.163 181.851" fill="#66421f"/>
        </g>
        <g>
          <polygon points="994.043 181.851 1000.517 181.578 1000.334 244.858 994.772 244.858 994.043 181.851" fill="#754c24"/>
          <polygon points="994.043 181.851 990.578 183.493 992.31 244.858 994.772 244.858 994.043 181.851" fill="#66421f"/>
        </g>
        <g>
          <g>
            <rect x="823.396" y="199.64" width="189.667" height="9.667" fill="#66421f"/>
            <polygon points="823.396 199.64 825.104 197.932 1014.771 207.599 1013.062 209.307 823.396 199.64" fill="#66421f"/>
          </g>
          <rect x="825.104" y="197.932" width="189.667" height="9.667" fill="#754c24"/>
        </g>
      </g>
      <g>
        <polygon points="0 409.646 17.5 227.563 997.459 227.563 981.458 409.646 0 409.646" fill="#847263"/>
        <polygon points="226.667 409.646 234.166 227.563 1044.126 227.563 1058.125 409.646 226.667 409.646" fill="url(#h)"/>
      </g>
      <g>
        <g>
          <polygon points="288.053 282.396 288.053 296.396 296.803 296.396 296.803 281.896 288.053 282.396" fill="#66421f"/>
          <polygon points="296.803 281.896 311.97 282.458 311.97 296.042 296.803 296.396 296.803 281.896" fill="#754c24"/>
        </g>
        <g>
          <polygon points="374.053 282.396 374.053 296.396 382.803 296.396 382.803 281.896 374.053 282.396" fill="#66421f"/>
          <polygon points="382.803 281.896 397.97 281.896 397.97 295.479 382.803 296.396 382.803 281.896" fill="#754c24"/>
        </g>
        <g>
          <polygon points="460.053 282.396 460.053 296.396 468.803 296.396 468.803 281.896 460.053 282.396" fill="#66421f"/>
          <polygon points="468.803 281.896 483.97 281.896 484.136 296.396 468.803 296.396 468.803 281.896" fill="#754c24"/>
        </g>
        <g>
          <polygon points="546.053 282.396 546.053 296.396 554.803 296.396 554.803 281.896 546.053 282.396" fill="#66421f"/>
          <polygon points="554.803 281.896 569.97 282.583 569.97 296.167 554.803 296.396 554.803 281.896" fill="#754c24"/>
        </g>
        <g>
          <polygon points="632.053 282.396 632.053 296.396 640.803 296.396 640.803 281.896 632.053 282.396" fill="#66421f"/>
          <polygon points="640.803 281.896 655.97 282.646 655.97 296.479 640.803 296.396 640.803 281.896" fill="#754c24"/>
        </g>
        <g>
          <polygon points="718.053 282.396 718.053 296.396 726.803 296.396 726.803 281.896 718.053 282.396" fill="#66421f"/>
          <polygon points="726.803 281.896 741.97 281.896 741.97 296.896 726.803 296.396 726.803 281.896" fill="#754c24"/>
        </g>
        <g>
          <polygon points="804.053 282.396 804.053 296.396 812.803 296.396 812.803 281.896 804.053 282.396" fill="#66421f"/>
          <polygon points="812.803 281.896 827.97 283.146 826.47 296.479 812.803 296.396 812.803 281.896" fill="#754c24"/>
        </g>
        <g>
          <polygon points="890.053 282.396 890.053 296.396 898.803 296.396 898.803 281.896 890.053 282.396" fill="#66421f"/>
          <polygon points="898.803 281.896 913.97 281.896 913.97 295.479 898.803 296.396 898.803 281.896" fill="#754c24"/>
        </g>
        <g>
          <polygon points="976.053 282.396 976.053 296.396 984.803 296.396 984.803 281.896 976.053 282.396" fill="#66421f"/>
          <polygon points="984.803 281.896 999.97 281.896 999.97 295.479 984.803 296.396 984.803 281.896" fill="#754c24"/>
        </g>
      </g>
    </g>
  </g>
</svg>
