<svg xmlns="http://www.w3.org/2000/svg" xmlns:xlink="http://www.w3.org/1999/xlink" width="2076.567" height="1036.2" viewBox="0 0 2076.567 1036.2">
  <defs>
    <linearGradient id="a" x1="1102.863" y1="515.033" x2="1102.863" y2="448.025" gradientUnits="userSpaceOnUse">
      <stop offset="0" stop-color="#998675"/>
      <stop offset="1" stop-color="#c7b299"/>
    </linearGradient>
    <linearGradient id="b" x1="1250.587" y1="406.647" x2="1622.696" y2="406.647" xlink:href="#a"/>
    <linearGradient id="c" x1="1350.608" y1="474.836" x2="1609.2" y2="474.836" xlink:href="#a"/>
    <linearGradient id="d" x1="1458.708" y1="641.438" x2="1738.03" y2="641.438" xlink:href="#a"/>
    <linearGradient id="e" x1="1517.266" y1="708.237" x2="1972.766" y2="708.237" xlink:href="#a"/>
    <linearGradient id="f" x1="614.863" y1="466.647" x2="965.046" y2="466.647" xlink:href="#a"/>
    <linearGradient id="g" x1="693.724" y1="534.836" x2="972.237" y2="534.836" xlink:href="#a"/>
    <linearGradient id="h" x1="340.461" y1="641.438" x2="619.783" y2="641.438" xlink:href="#a"/>
    <linearGradient id="i" x1="399.019" y1="708.237" x2="854.519" y2="708.237" xlink:href="#a"/>
    <linearGradient id="j" x1="59.094" y1="895.158" x2="1088.116" y2="895.158" xlink:href="#a"/>
    <linearGradient id="k" x1="759.417" y1="902.95" x2="1203.877" y2="902.95" xlink:href="#a"/>
    <linearGradient id="l" x1="855.076" y1="1028.361" x2="956.561" y2="1028.361" xlink:href="#a"/>
    <linearGradient id="m" x1="870.752" y1="1012.685" x2="972.237" y2="1012.685" xlink:href="#a"/>
    <linearGradient id="n" x1="886.429" y1="997.008" x2="987.913" y2="997.008" xlink:href="#a"/>
    <linearGradient id="o" x1="902.105" y1="981.332" x2="1003.59" y2="981.332" xlink:href="#a"/>
    <linearGradient id="p" x1="917.782" y1="965.655" x2="1019.266" y2="965.655" xlink:href="#a"/>
    <linearGradient id="q" x1="933.458" y1="949.979" x2="1034.943" y2="949.979" xlink:href="#a"/>
    <linearGradient id="r" x1="949.135" y1="934.302" x2="1050.619" y2="934.302" xlink:href="#a"/>
    <linearGradient id="s" x1="964.811" y1="918.626" x2="1066.296" y2="918.626" xlink:href="#a"/>
    <linearGradient id="t" x1="980.488" y1="902.95" x2="1081.972" y2="902.95" xlink:href="#a"/>
    <linearGradient id="u" x1="996.164" y1="887.273" x2="1097.649" y2="887.273" xlink:href="#a"/>
    <linearGradient id="v" x1="1011.841" y1="871.597" x2="1113.325" y2="871.597" xlink:href="#a"/>
    <linearGradient id="w" x1="1027.517" y1="855.92" x2="1129.002" y2="855.92" xlink:href="#a"/>
    <linearGradient id="x" x1="1043.194" y1="840.244" x2="1144.678" y2="840.244" xlink:href="#a"/>
    <linearGradient id="y" x1="1058.87" y1="824.567" x2="1160.355" y2="824.567" xlink:href="#a"/>
    <linearGradient id="z" x1="883.401" y1="902.95" x2="1216.872" y2="902.95" xlink:href="#a"/>
    <linearGradient id="aa" x1="1047.545" y1="895.158" x2="2076.567" y2="895.158" xlink:href="#a"/>
  </defs>
  <title>City</title>
  <g>
    <g>
      <path d="M1083.36,537.668s12.575,20.4,17.182,43.026a2,2,0,0,0,3.911,0c2.465-12.21,7.494-29.437,17.522-43.028Z" fill="#d6b93e"/>
      <path d="M1125.021,536.791s12.576,20.4,17.183,43.026a2,2,0,0,0,3.911,0c2.465-12.209,7.494-29.436,17.522-43.027Z" fill="#d6b93e"/>
      <path d="M1165.367,535.183s12.576,20.4,17.183,43.026a2,2,0,0,0,3.911,0c2.465-12.209,7.494-29.436,17.522-43.027Z" fill="#d6b93e"/>
      <path d="M1202.936,531.675s12.575,20.4,17.183,43.025a2,2,0,0,0,3.911,0c2.464-12.209,7.493-29.436,17.522-43.027Z" fill="#d6b93e"/>
      <path d="M1241.382,528.312s12.367,20.059,17.066,42.462a2,2,0,0,0,3.919-.042c2.5-13.974,7.709-34.2,18.155-48.356Z" fill="#d6b93e"/>
      <path d="M1079.541,536.791s-12.575,20.4-17.182,43.026a2,2,0,0,1-3.912,0c-2.464-12.209-7.493-29.436-17.521-43.027Z" fill="#d6b93e"/>
      <path d="M1039.2,535.183s-12.575,20.4-17.182,43.026a2,2,0,0,1-3.912,0c-2.464-12.209-7.493-29.436-17.521-43.027Z" fill="#d6b93e"/>
      <path d="M997.582,530.6s-12.538,20.336-17.162,42.925a2,2,0,0,1-3.914-.019c-2.485-12.658-7.578-30.651-17.729-44.409Z" fill="#d6b93e"/>
      <path d="M956.944,526.753s-12.367,20.059-17.066,42.462a2,2,0,0,1-3.919-.042c-2.5-13.974-7.71-34.2-18.156-48.357Z" fill="#d6b93e"/>
      <path d="M1110.464,539.714c-161.737,0-213.518-23.447-215.643-24.445l2.482-5.3,0,0h0c.741.341,53.489,23.891,213.157,23.891,159.269,0,196.827-23.442,197.188-23.679l3.252,4.859C1309.41,516.054,1272.438,539.714,1110.464,539.714Z" fill="url(#a)"/>
    </g>
    <g>
      <polygon points="1397.743 142.326 1344.632 5.948 1296.922 142.326 1282.25 579.585 1271.547 583.935 1254.414 807.345 1548.074 807.345 1397.743 142.326" fill="url(#b)"/>
      <polygon points="1423.848 807.345 1397.743 142.326 1540.872 142.326 1579.58 635.003 1586.695 639.504 1609.2 807.345 1423.848 807.345" fill="url(#c)"/>
      <g>
        <polygon points="1397.638 155.379 1406.843 156.831 1345.314 0 1343.86 8.713 1397.638 155.379" fill="#66421f"/>
        <polygon points="1294.385 155.379 1288.145 156.831 1345.297 0 1346.283 8.713 1294.385 155.379" fill="#66421f"/>
        <polygon points="1345.297 0 1490.67 4.762 1550.099 160.555 1406.843 156.831 1345.297 0" fill="#754c24"/>
      </g>
      <g>
        <polygon points="1460.397 397.471 1460.164 455.46 1505.548 454.508 1505.548 398.334 1460.397 397.471" fill="#333"/>
        <polygon points="1498.593 398.201 1498.593 454.651 1505.548 454.508 1505.548 398.334 1498.593 398.201" fill="#847263"/>
      </g>
      <g>
        <polygon points="1482.726 669.726 1487.17 727.805 1532.553 726.853 1532.553 670.679 1482.726 669.726" fill="#333"/>
        <polygon points="1525.599 670.546 1525.599 726.995 1532.553 726.853 1532.553 670.679 1525.599 670.546" fill="#847263"/>
      </g>
      <g>
        <polygon points="1363.76 519.791 1366.753 461.855 1321.369 462.807 1321.369 518.981 1363.76 519.791" fill="#333"/>
        <polygon points="1328.324 519.114 1328.324 462.664 1321.369 462.807 1321.369 518.981 1328.324 519.114" fill="#847263"/>
      </g>
      <g>
        <polygon points="1455.721 219.382 1460.164 277.46 1505.548 276.508 1505.548 220.334 1455.721 219.382" fill="#333"/>
        <polygon points="1498.593 220.201 1498.593 276.651 1505.548 276.508 1505.548 220.334 1498.593 220.201" fill="#847263"/>
      </g>
      <g>
        <polygon points="1365.912 278.137 1361.753 220.201 1316.369 221.153 1316.369 277.327 1365.912 278.137" fill="#333"/>
        <polygon points="1323.324 277.46 1323.324 221.011 1316.369 221.153 1316.369 277.327 1323.324 277.46" fill="#847263"/>
      </g>
      <g>
        <polygon points="1366.362 726.93 1369.75 668.994 1318.372 669.946 1318.372 726.12 1366.362 726.93" fill="#333"/>
        <polygon points="1326.245 726.253 1326.245 669.804 1318.372 669.946 1318.372 726.12 1326.245 726.253" fill="#847263"/>
      </g>
      <g>
        <g>
          <polygon points="1451.798 393.95 1454.081 458.869 1466.132 458.869 1465.505 393.95 1451.798 393.95" fill="#603813"/>
          <polygon points="1496.963 393.95 1499.246 458.869 1511.298 458.869 1510.67 393.95 1496.963 393.95" fill="#603813"/>
          <polygon points="1497.386 458.869 1495.103 393.95 1483.052 393.95 1483.679 458.869 1497.386 458.869" fill="#603813"/>
          <polygon points="1467.704 393.95 1467.528 458.982 1482.038 458.869 1481.41 393.95 1467.704 393.95" fill="#603813"/>
        </g>
        <g>
          <polygon points="1454.414 393.95 1456.697 458.869 1468.749 458.869 1468.121 393.95 1454.414 393.95" fill="#754c24"/>
          <polygon points="1499.579 393.95 1501.862 458.869 1513.914 458.869 1513.286 393.95 1499.579 393.95" fill="#754c24"/>
          <polygon points="1500.002 458.869 1497.719 393.95 1485.668 393.95 1486.295 458.869 1500.002 458.869" fill="#754c24"/>
          <polygon points="1470.32 393.95 1470.144 458.982 1484.654 458.869 1484.027 393.95 1470.32 393.95" fill="#754c24"/>
        </g>
      </g>
    </g>
    <g>
      <g>
        <g>
          <polygon points="1617.468 807.345 1623.526 609.128 1521.126 475.531 1447.843 609.128 1438.378 807.345 1617.468 807.345" fill="url(#d)"/>
          <polygon points="1957.76 703.275 1945.53 700.218 1937.189 609.128 1600.292 609.128 1611.909 807.345 1927.75 807.345 1955.34 807.345 1972.766 807.345 1957.76 703.275" fill="url(#e)"/>
          <g>
            <polygon points="1599.566 625.102 1613.361 626.554 1521.15 469.722 1518.972 478.435 1599.566 625.102" fill="#66421f"/>
            <polygon points="1444.825 625.102 1435.473 626.554 1521.126 469.722 1522.602 478.435 1444.825 625.102" fill="#66421f"/>
            <polygon points="1521.126 469.722 1873.052 478.677 1962.117 628.732 1613.361 626.554 1521.126 469.722" fill="#754c24"/>
          </g>
          <polygon points="1673.276 668.923 1677.719 727.001 1723.103 726.049 1723.103 669.875 1673.276 668.923" fill="#333"/>
          <polygon points="1827.728 668.923 1828.998 727.636 1881.987 728.608 1877.555 669.875 1827.728 668.923" fill="#333"/>
          <polygon points="1716.148 669.742 1716.148 726.192 1723.103 726.049 1723.103 669.875 1716.148 669.742" fill="#847263"/>
          <polygon points="1877.555 669.875 1881.987 728.608 1874.831 728.477 1871.419 669.742 1877.555 669.875" fill="#847263"/>
          <polygon points="1492.905 662.576 1487.404 807.345 1498.609 807.345 1502.79 662.576 1492.905 662.576" fill="#847263"/>
          <polygon points="1550.878 662.576 1502.79 662.576 1498.609 807.345 1558.495 807.345 1550.878 662.576" fill="#333"/>
        </g>
        <g>
          <g>
            <polygon points="1488.78 661.403 1487.615 807.091 1502.846 807.091 1502.053 661.403 1488.78 661.403" fill="#603813"/>
            <polygon points="1541.811 661.403 1544.696 807.091 1559.927 807.091 1555.083 661.403 1541.811 661.403" fill="#603813"/>
            <polygon points="1542.345 807.091 1539.46 661.403 1524.229 661.403 1525.022 807.091 1542.345 807.091" fill="#603813"/>
            <polygon points="1504.832 661.403 1504.609 807.345 1522.948 807.091 1522.155 661.403 1504.832 661.403" fill="#603813"/>
          </g>
          <g>
            <polygon points="1486.324 661.403 1483.808 807.091 1499.04 807.091 1498.246 661.403 1486.324 661.403" fill="#754c24"/>
            <polygon points="1538.004 661.403 1540.889 807.091 1556.121 807.091 1551.276 661.403 1538.004 661.403" fill="#754c24"/>
            <polygon points="1538.539 807.091 1535.654 661.403 1520.423 661.403 1521.216 807.091 1538.539 807.091" fill="#754c24"/>
            <polygon points="1501.026 661.403 1500.803 807.345 1519.142 807.091 1518.349 661.403 1501.026 661.403" fill="#754c24"/>
          </g>
        </g>
      </g>
      <g>
        <rect x="1436.648" y="649.498" width="90.777" height="6.208" fill="#66421f"/>
        <g>
          <polygon points="1528.632 655.706 1524.148 655.706 1524.387 648.957 1569.436 631.936 1573.952 631.936 1528.632 655.706" fill="#66421f"/>
          <polygon points="1528.632 649.373 1528.632 655.706 1573.952 638.706 1573.952 631.873 1528.632 649.373" fill="#754c24"/>
        </g>
        <g>
          <path d="M1574.188,632.916s-13.07,17.19-49.059,17.19l-92.994.066s-1.083-2.733.685-3.4,26.333-.738,47.641-19.286h94.271c.509.293.195,4.526-.221,5.01Z" fill="#355db7"/>
          <g>
            <path d="M1525.125,649.824c-.335,9.717-3.676,17.352-7.754,17.352s-7.418-7.635-7.754-17.352Z" fill="#355db7"/>
            <path d="M1509.617,649.824c-.335,9.717-3.676,17.352-7.754,17.352s-7.418-7.635-7.754-17.352Z" fill="#355db7"/>
            <path d="M1494.109,649.824c-.335,9.717-3.676,17.352-7.754,17.352s-7.418-7.635-7.754-17.352Z" fill="#355db7"/>
            <path d="M1478.6,649.824c-.335,9.717-3.676,17.352-7.754,17.352s-7.418-7.635-7.754-17.352Z" fill="#355db7"/>
            <path d="M1463.093,649.824c-.335,9.717-3.676,17.352-7.754,17.352s-7.418-7.635-7.754-17.352Z" fill="#355db7"/>
            <path d="M1447.585,649.824c-.335,9.717-3.676,17.352-7.754,17.352s-7.418-7.635-7.754-17.352Z" fill="#355db7"/>
          </g>
        </g>
      </g>
    </g>
    <g>
      <g>
        <path d="M1255.685,647.338c15.6,0,26.294-5.668,33.484-12.286a174.633,174.633,0,0,1-30.317,2.286c-36.167,0-58.417-9.5-58.417-9.5,1.047,1.016,2.114,1.974,3.189,2.906C1210.249,636.177,1227.307,647.338,1255.685,647.338Z" fill="#d8563d"/>
        <path d="M1340.685,625.588c-30.25,0-38.75-11.5-38.75-11.5a49.209,49.209,0,0,1-13.266,20.464c-7.19,6.618-17.887,12.286-33.484,12.286-28.378,0-45.451-11.08-52.075-16.513,21.841,18.931,49.617,20.991,84.056,21.23,4.361.03,8.824.032,13.4.032,42.5,0,95.868-41.749,95.868-41.749S1370.935,625.588,1340.685,625.588Z" fill="#b23e2f"/>
      </g>
      <g>
        <polygon points="1301.068 606.463 1307.533 606.931 1304.488 796.327 1298.967 795.656 1301.068 606.463" fill="#754c24"/>
        <polygon points="1301.068 606.463 1297.4 607.925 1296.523 795.359 1298.967 795.656 1301.068 606.463" fill="#66421f"/>
      </g>
      <g>
        <polygon points="1196.161 606.716 1202.642 606.71 1213.44 795.823 1207.885 795.557 1196.161 606.716" fill="#754c24"/>
        <polygon points="1196.161 606.716 1192.609 608.442 1205.426 795.44 1207.885 795.557 1196.161 606.716" fill="#66421f"/>
      </g>
    </g>
    <g>
      <g>
        <polygon points="744.49 262.326 691.379 125.948 643.669 262.326 618.464 807.345 894.821 807.345 744.49 262.326" fill="url(#f)"/>
        <polygon points="770.595 807.345 744.49 262.326 887.619 262.326 926.327 635.003 949.732 639.504 972.237 807.345 770.595 807.345" fill="url(#g)"/>
        <g>
          <polygon points="499.221 807.345 505.279 609.128 402.879 475.531 329.597 609.128 320.131 807.345 499.221 807.345" fill="url(#h)"/>
          <polygon points="839.514 703.275 827.283 700.218 818.942 609.128 482.045 609.128 493.662 807.345 809.503 807.345 837.094 807.345 854.519 807.345 839.514 703.275" fill="url(#i)"/>
          <g>
            <polygon points="481.319 625.102 495.114 626.554 402.903 469.722 400.725 478.435 481.319 625.102" fill="#66421f"/>
            <polygon points="326.578 625.102 317.227 626.554 402.879 469.722 404.355 478.435 326.578 625.102" fill="#66421f"/>
            <polygon points="402.879 469.722 754.806 478.677 843.87 628.732 495.114 626.554 402.879 469.722" fill="#754c24"/>
          </g>
          <polygon points="555.029 668.923 559.472 727.001 604.856 726.049 604.856 669.875 555.029 668.923" fill="#333"/>
          <polygon points="709.482 668.923 710.751 727.636 763.74 728.608 759.308 669.875 709.482 668.923" fill="#333"/>
          <polygon points="597.901 669.742 597.901 726.192 604.856 726.049 604.856 669.875 597.901 669.742" fill="#847263"/>
          <polygon points="759.308 669.875 763.74 728.608 756.584 728.477 753.173 669.742 759.308 669.875" fill="#847263"/>
          <polygon points="374.659 662.576 369.158 807.345 380.363 807.345 384.544 662.576 374.659 662.576" fill="#847263"/>
          <polygon points="432.631 662.576 384.544 662.576 380.363 807.345 440.248 807.345 432.631 662.576" fill="#333"/>
        </g>
        <g>
          <polygon points="744.385 275.379 753.59 276.831 692.061 120 690.607 128.713 744.385 275.379" fill="#66421f"/>
          <polygon points="641.132 275.379 634.892 276.831 692.045 120 693.03 128.713 641.132 275.379" fill="#66421f"/>
          <polygon points="692.045 120 837.417 124.762 896.846 280.555 753.59 276.831 692.045 120" fill="#754c24"/>
        </g>
        <g>
          <polygon points="802.468 319.201 806.911 377.279 852.295 376.327 852.295 320.153 802.468 319.201" fill="#333"/>
          <polygon points="845.34 320.02 845.34 376.47 852.295 376.327 852.295 320.153 845.34 320.02" fill="#847263"/>
        </g>
        <g>
          <polygon points="710.507 426.76 713.5 368.824 668.116 369.776 668.116 425.95 710.507 426.76" fill="#333"/>
          <polygon points="675.071 426.083 675.071 369.633 668.116 369.776 668.116 425.95 675.071 426.083" fill="#847263"/>
        </g>
      </g>
      <g>
        <g>
          <polygon points="367.955 661.403 370.84 807.091 386.071 807.091 385.278 661.403 367.955 661.403" fill="#603813"/>
          <polygon points="425.036 661.403 427.921 807.091 443.152 807.091 442.359 661.403 425.036 661.403" fill="#603813"/>
          <polygon points="425.571 807.091 422.686 661.403 407.454 661.403 408.248 807.091 425.571 807.091" fill="#603813"/>
          <polygon points="388.057 661.403 387.835 807.345 406.174 807.091 405.38 661.403 388.057 661.403" fill="#603813"/>
        </g>
        <g>
          <polygon points="364.149 661.403 367.034 807.091 382.265 807.091 381.472 661.403 364.149 661.403" fill="#754c24"/>
          <polygon points="421.23 661.403 424.115 807.091 439.346 807.091 438.553 661.403 421.23 661.403" fill="#754c24"/>
          <polygon points="421.764 807.091 418.879 661.403 403.648 661.403 404.441 807.091 421.764 807.091" fill="#754c24"/>
          <polygon points="384.251 661.403 384.028 807.345 402.367 807.091 401.574 661.403 384.251 661.403" fill="#754c24"/>
        </g>
      </g>
      <g>
        <g>
          <polygon points="704.538 665.451 706.82 730.37 718.872 730.37 718.244 665.451 704.538 665.451" fill="#603813"/>
          <polygon points="749.703 665.451 751.986 730.37 764.038 730.37 763.41 665.451 749.703 665.451" fill="#603813"/>
          <polygon points="750.126 730.37 747.843 665.451 735.791 665.451 736.419 730.37 750.126 730.37" fill="#603813"/>
          <polygon points="720.444 665.451 720.268 730.483 734.778 730.37 734.15 665.451 720.444 665.451" fill="#603813"/>
        </g>
        <g>
          <polygon points="707.154 665.451 709.437 730.37 721.488 730.37 720.861 665.451 707.154 665.451" fill="#754c24"/>
          <polygon points="752.319 665.451 754.602 730.37 766.654 730.37 766.026 665.451 752.319 665.451" fill="#754c24"/>
          <polygon points="752.742 730.37 750.459 665.451 738.407 665.451 739.035 730.37 752.742 730.37" fill="#754c24"/>
          <polygon points="723.06 665.451 722.884 730.483 737.394 730.37 736.766 665.451 723.06 665.451" fill="#754c24"/>
        </g>
      </g>
    </g>
    <g>
      <g>
        <g>
          <polygon points="1031.944 644.306 1038.418 644.033 1058.236 807.313 1052.674 807.313 1031.944 644.306" fill="#754c24"/>
          <polygon points="1031.944 644.306 1028.479 645.947 1050.212 807.313 1052.674 807.313 1031.944 644.306" fill="#66421f"/>
        </g>
        <g>
          <polygon points="1094.083 664.306 1100.557 664.033 1060.375 807.313 1054.813 807.313 1094.083 664.306" fill="#754c24"/>
          <polygon points="1094.083 664.306 1090.619 665.947 1052.351 807.313 1054.813 807.313 1094.083 664.306" fill="#66421f"/>
        </g>
      </g>
      <path d="M1048.059,756.563s3.5-3.476-.477-6.477-8.968.47-8.968.47-.983-3.988-8.455-4.012-9.481,5.45-9.481,5.45-.487-3.489-5.471-2.508-5.494,4.465-5.494,4.465.514-4.979-5.458-6.493-8.476,2.464-8.476,2.464-.484-4.484-6.461-4.5a7.74,7.74,0,0,0-7.489,5.455,4.03,4.03,0,0,0-5.937-1.825c-3.407-.829-6.778,1.507-6.778,1.507s-.983-3.988-8.455-4.012-9.481,5.45-9.481,5.45-.487-3.489-5.471-2.508-5.494,4.465-5.494,4.465.514-4.979-5.458-6.493-8.476,2.464-8.476,2.464-.484-4.484-6.461-4.5a7.74,7.74,0,0,0-7.489,5.455s-1.978-4.489-6.47-1.515-2.012,5.971-2.012,5.971a5.535,5.535,0,0,0-5.5,5.96c-.019,5.977,5.957,6.5,5.957,6.5l77.206.244c.141-.071.261-.145.381-.219l69.119.219a2.481,2.481,0,0,0,1.008-3.982C1055.528,757.583,1048.059,756.563,1048.059,756.563Z" fill="#a4bd47"/>
      <g>
        <polygon points="919.963 764.902 889.296 764.902 886.963 807.313 925.296 807.313 919.963 764.902" fill="#66421f"/>
        <polygon points="1063.963 807.345 1059.296 764.902 919.963 764.902 920.63 807.345 1063.963 807.345" fill="#754c24"/>
      </g>
      <g>
        <g>
          <polygon points="877.065 644.306 883.539 644.033 903.356 807.313 897.794 807.313 877.065 644.306" fill="#754c24"/>
          <polygon points="877.065 644.306 873.6 645.947 895.332 807.313 897.794 807.313 877.065 644.306" fill="#66421f"/>
        </g>
        <g>
          <polygon points="939.204 664.306 945.678 664.033 905.495 807.313 899.933 807.313 939.204 664.306" fill="#754c24"/>
          <polygon points="939.204 664.306 935.739 665.947 897.471 807.313 899.933 807.313 939.204 664.306" fill="#66421f"/>
        </g>
      </g>
      <g>
        <path d="M874.152,647.235s15.811,19.416,63.311,19.416l164.737.066s1.43-2.732-.9-3.4-34.756-.737-62.878-19.285H876.755a1,1,0,0,0-.4.083l-2.368,1.032a1,1,0,0,0-.261,1.667Z" fill="#5e9dd1"/>
        <g>
          <path d="M937.468,666.369c.446,9.717,4.882,17.352,10.3,17.352s9.851-7.635,10.3-17.352Z" fill="#5e9dd1"/>
          <path d="M958.062,666.369c.446,9.717,4.881,17.352,10.3,17.352s9.851-7.635,10.3-17.352Z" fill="#5e9dd1"/>
          <path d="M978.656,666.369c.445,9.717,4.881,17.352,10.3,17.352s9.85-7.635,10.3-17.352Z" fill="#5e9dd1"/>
          <path d="M999.249,666.369c.446,9.717,4.882,17.352,10.3,17.352s9.851-7.635,10.3-17.352Z" fill="#5e9dd1"/>
          <path d="M1019.843,666.369c.446,9.717,4.882,17.352,10.3,17.352s9.851-7.635,10.3-17.352Z" fill="#5e9dd1"/>
          <path d="M1040.437,666.369c.445,9.717,4.881,17.352,10.3,17.352s9.85-7.635,10.3-17.352Z" fill="#5e9dd1"/>
          <path d="M1061.03,666.369c.446,9.717,4.882,17.352,10.3,17.352s9.851-7.635,10.3-17.352Z" fill="#5e9dd1"/>
          <path d="M1081.624,666.369c.446,9.717,4.882,17.352,10.3,17.352s9.851-7.635,10.3-17.352Z" fill="#5e9dd1"/>
        </g>
      </g>
    </g>
    <g>
      <g>
        <g>
          <polygon points="200.139 644.306 193.665 644.033 173.848 807.313 179.41 807.313 200.139 644.306" fill="#66421f"/>
          <polygon points="200.139 644.306 203.604 645.947 181.872 807.313 179.41 807.313 200.139 644.306" fill="#754c24"/>
        </g>
        <g>
          <polygon points="138 664.306 131.526 664.033 171.709 807.313 177.271 807.313 138 664.306" fill="#66421f"/>
          <polygon points="138 664.306 141.465 665.947 179.733 807.313 177.271 807.313 138 664.306" fill="#754c24"/>
        </g>
      </g>
      <g>
        <polygon points="312.121 764.902 342.787 764.902 345.121 807.313 306.787 807.313 312.121 764.902" fill="#754c24"/>
        <polygon points="168.121 807.345 172.787 764.902 312.121 764.902 311.454 807.345 168.121 807.345" fill="#66421f"/>
      </g>
      <g>
        <g>
          <polygon points="355.019 644.306 348.545 644.033 328.727 807.313 334.289 807.313 355.019 644.306" fill="#66421f"/>
          <polygon points="355.019 644.306 358.484 645.947 336.751 807.313 334.289 807.313 355.019 644.306" fill="#754c24"/>
        </g>
        <g>
          <polygon points="292.88 664.306 286.406 664.033 326.588 807.313 332.15 807.313 292.88 664.306" fill="#66421f"/>
          <polygon points="292.88 664.306 296.345 665.947 334.612 807.313 332.15 807.313 292.88 664.306" fill="#754c24"/>
        </g>
      </g>
      <g>
        <path d="M357.931,647.235s-15.81,19.416-63.31,19.416l-164.737.066s-1.43-2.732.9-3.4,34.756-.737,62.878-19.285H355.329a1,1,0,0,1,.4.083l2.368,1.032a1,1,0,0,1,.261,1.667Z" fill="#30a090"/>
        <g>
          <path d="M294.615,666.369c-.445,9.717-4.881,17.352-10.3,17.352s-9.85-7.635-10.3-17.352Z" fill="#30a090"/>
          <path d="M274.022,666.369c-.446,9.717-4.882,17.352-10.3,17.352s-9.851-7.635-10.3-17.352Z" fill="#30a090"/>
          <path d="M253.428,666.369c-.446,9.717-4.882,17.352-10.3,17.352s-9.851-7.635-10.3-17.352Z" fill="#30a090"/>
          <path d="M232.834,666.369c-.445,9.717-4.881,17.352-10.3,17.352s-9.85-7.635-10.3-17.352Z" fill="#30a090"/>
          <path d="M212.241,666.369c-.446,9.717-4.882,17.352-10.3,17.352s-9.851-7.635-10.3-17.352Z" fill="#30a090"/>
          <path d="M191.647,666.369c-.446,9.717-4.882,17.352-10.3,17.352s-9.851-7.635-10.3-17.352Z" fill="#30a090"/>
          <path d="M171.053,666.369c-.445,9.717-4.881,17.352-10.3,17.352s-9.85-7.635-10.3-17.352Z" fill="#30a090"/>
          <path d="M150.46,666.369c-.446,9.717-4.882,17.352-10.3,17.352s-9.851-7.635-10.3-17.352Z" fill="#30a090"/>
        </g>
      </g>
    </g>
    <g>
      <g>
        <polygon points="207.91 708.405 211.384 709.132 211.202 771.412 208.639 771.412 207.91 708.405" fill="#754c24"/>
        <polygon points="207.91 708.405 201.445 709.047 203.178 771.412 208.639 771.412 207.91 708.405" fill="#66421f"/>
      </g>
      <g>
        <polygon points="67.155 708.405 70.628 709.132 70.446 771.412 67.884 771.412 67.155 708.405" fill="#754c24"/>
        <polygon points="67.155 708.405 59.69 709.047 61.422 771.412 67.884 771.412 67.155 708.405" fill="#66421f"/>
      </g>
      <g>
        <g>
          <polygon points="246.155 708.405 252.628 708.132 252.446 771.412 246.884 771.412 246.155 708.405" fill="#754c24"/>
          <polygon points="246.155 708.405 242.69 710.047 244.422 771.412 246.884 771.412 246.155 708.405" fill="#66421f"/>
        </g>
        <g>
          <polygon points="401.034 708.405 407.508 708.132 407.326 771.412 401.764 771.412 401.034 708.405" fill="#754c24"/>
          <polygon points="401.034 708.405 397.569 710.047 399.302 771.412 401.764 771.412 401.034 708.405" fill="#66421f"/>
        </g>
        <g>
          <g>
            <rect x="230.387" y="726.194" width="189.667" height="9.667" fill="#66421f"/>
            <polygon points="230.387 726.194 232.096 724.486 421.762 734.153 420.054 735.861 230.387 726.194" fill="#66421f"/>
          </g>
          <rect x="232.096" y="724.486" width="189.667" height="9.667" fill="#754c24"/>
        </g>
      </g>
      <g>
        <g>
          <polygon points="450.488 708.405 456.962 708.132 456.779 771.412 451.217 771.412 450.488 708.405" fill="#754c24"/>
          <polygon points="450.488 708.405 447.023 710.047 448.755 771.412 451.217 771.412 450.488 708.405" fill="#66421f"/>
        </g>
        <g>
          <polygon points="605.367 708.405 611.841 708.132 611.659 771.412 606.097 771.412 605.367 708.405" fill="#754c24"/>
          <polygon points="605.367 708.405 601.903 710.047 603.635 771.412 606.097 771.412 605.367 708.405" fill="#66421f"/>
        </g>
        <g>
          <g>
            <rect x="434.721" y="726.194" width="189.667" height="9.667" fill="#66421f"/>
            <polygon points="434.721 726.194 436.429 724.486 626.096 734.153 624.387 735.861 434.721 726.194" fill="#66421f"/>
          </g>
          <rect x="436.429" y="724.486" width="189.667" height="9.667" fill="#754c24"/>
        </g>
      </g>
      <g>
        <g>
          <polygon points="654.821 708.405 661.295 708.132 661.113 771.412 655.551 771.412 654.821 708.405" fill="#754c24"/>
          <polygon points="654.821 708.405 651.356 710.047 653.089 771.412 655.551 771.412 654.821 708.405" fill="#66421f"/>
        </g>
        <g>
          <polygon points="809.701 708.405 816.175 708.132 815.992 771.412 810.43 771.412 809.701 708.405" fill="#754c24"/>
          <polygon points="809.701 708.405 806.236 710.047 807.968 771.412 810.43 771.412 809.701 708.405" fill="#66421f"/>
        </g>
        <g>
          <g>
            <rect x="639.054" y="726.194" width="189.667" height="9.667" fill="#66421f"/>
            <polygon points="639.054 726.194 640.762 724.486 830.429 734.153 828.721 735.861 639.054 726.194" fill="#66421f"/>
          </g>
          <rect x="640.762" y="724.486" width="189.667" height="9.667" fill="#754c24"/>
        </g>
      </g>
      <g>
        <g>
          <polygon points="859.155 708.405 865.628 708.132 865.446 771.412 859.884 771.412 859.155 708.405" fill="#754c24"/>
          <polygon points="859.155 708.405 855.69 710.047 857.422 771.412 859.884 771.412 859.155 708.405" fill="#66421f"/>
        </g>
        <g>
          <polygon points="1014.034 708.405 1020.508 708.132 1020.326 771.412 1014.764 771.412 1014.034 708.405" fill="#754c24"/>
          <polygon points="1014.034 708.405 1010.569 710.047 1012.302 771.412 1014.764 771.412 1014.034 708.405" fill="#66421f"/>
        </g>
        <g>
          <g>
            <rect x="843.387" y="726.194" width="189.667" height="9.667" fill="#66421f"/>
            <polygon points="843.387 726.194 845.096 724.486 1034.762 734.153 1033.054 735.861 843.387 726.194" fill="#66421f"/>
          </g>
          <rect x="845.096" y="724.486" width="189.667" height="9.667" fill="#754c24"/>
        </g>
      </g>
      <g>
        <polygon points="0 1036.2 25.767 754.116 1018.962 754.116 1041.449 1036.2 0 1036.2" fill="#847263"/>
        <polygon points="246.658 1036.2 254.158 754.116 1064.117 754.116 1088.116 1036.2 246.658 1036.2" fill="url(#j)"/>
      </g>
      <g>
        <g>
          <polygon points="312.324 808.95 312.324 822.95 321.074 822.95 321.074 808.45 312.324 808.95" fill="#66421f"/>
          <polygon points="321.074 808.45 336.24 809.012 336.24 822.595 321.074 822.95 321.074 808.45" fill="#754c24"/>
        </g>
        <g>
          <polygon points="398.324 808.95 398.324 822.95 407.074 822.95 407.074 808.45 398.324 808.95" fill="#66421f"/>
          <polygon points="407.074 808.45 422.24 808.45 422.24 822.033 407.074 822.95 407.074 808.45" fill="#754c24"/>
        </g>
        <g>
          <polygon points="484.324 808.95 484.324 822.95 493.074 822.95 493.074 808.45 484.324 808.95" fill="#66421f"/>
          <polygon points="493.074 808.45 508.24 808.45 508.407 822.95 493.074 822.95 493.074 808.45" fill="#754c24"/>
        </g>
        <g>
          <polygon points="570.324 808.95 570.324 822.95 579.074 822.95 579.074 808.45 570.324 808.95" fill="#66421f"/>
          <polygon points="579.074 808.45 594.24 809.137 594.24 822.72 579.074 822.95 579.074 808.45" fill="#754c24"/>
        </g>
        <g>
          <polygon points="656.324 808.95 656.324 822.95 665.074 822.95 665.074 808.45 656.324 808.95" fill="#66421f"/>
          <polygon points="665.074 808.45 680.24 809.2 680.24 823.033 665.074 822.95 665.074 808.45" fill="#754c24"/>
        </g>
        <g>
          <polygon points="742.324 808.95 742.324 822.95 751.074 822.95 751.074 808.45 742.324 808.95" fill="#66421f"/>
          <polygon points="751.074 808.45 766.24 808.45 766.24 823.45 751.074 822.95 751.074 808.45" fill="#754c24"/>
        </g>
        <g>
          <polygon points="828.324 808.95 828.324 822.95 837.074 822.95 837.074 808.45 828.324 808.95" fill="#66421f"/>
          <polygon points="837.074 808.45 852.24 809.7 850.74 823.033 837.074 822.95 837.074 808.45" fill="#754c24"/>
        </g>
        <g>
          <polygon points="914.324 808.95 914.324 822.95 923.074 822.95 923.074 808.45 914.324 808.95" fill="#66421f"/>
          <polygon points="923.074 808.45 938.24 808.45 938.24 822.033 923.074 822.95 923.074 808.45" fill="#754c24"/>
        </g>
        <g>
          <polygon points="1000.324 808.95 1000.324 822.95 1009.074 822.95 1009.074 808.45 1000.324 808.95" fill="#66421f"/>
          <polygon points="1009.074 808.45 1024.24 808.45 1024.24 822.033 1009.074 822.95 1009.074 808.45" fill="#754c24"/>
        </g>
      </g>
      <g>
        <rect x="49.287" y="724.2" width="172.25" height="9.953" fill="#66421f"/>
        <rect x="50.724" y="725.637" width="172.25" height="9.953" fill="#66421f"/>
        <polygon points="49.287 734.153 50.724 735.59 51.49 733.731 49.63 733.59 49.287 734.153" fill="#66421f"/>
        <polygon points="221.537 724.2 222.974 725.637 222.974 735.59 221.537 734.153 221.537 724.2" fill="#754c24"/>
      </g>
      <g>
        <polygon points="183.324 808.95 183.324 822.95 198.074 822.95 198.074 808.45 183.324 808.95" fill="#66421f"/>
        <polygon points="198.074 808.45 207.24 809.012 207.24 822.595 198.074 822.95 198.074 808.45" fill="#754c24"/>
      </g>
      <g>
        <polygon points="112.324 808.95 112.324 822.95 127.074 822.95 127.074 808.45 112.324 808.95" fill="#66421f"/>
        <polygon points="127.074 808.45 136.24 809.012 136.24 822.595 127.074 822.95 127.074 808.45" fill="#754c24"/>
      </g>
      <g>
        <polygon points="43.238 808.95 43.238 822.95 57.988 822.95 57.988 808.45 43.238 808.95" fill="#66421f"/>
        <polygon points="57.988 808.45 67.155 809.012 67.155 822.595 57.988 822.95 57.988 808.45" fill="#754c24"/>
      </g>
    </g>
    <g>
      <polygon points="1096.617 769.7 1031.436 769.7 823.929 977.207 823.929 1036.2 1096.617 1036.2 1096.617 769.7" fill="#847263"/>
      <polygon points="1203.877 769.7 1047.938 769.7 840.431 977.207 840.431 1036.2 1203.877 1036.2 1203.877 769.7" fill="url(#k)"/>
      <g>
        <rect x="855.076" y="1020.523" width="101.485" height="15.676" fill="url(#l)"/>
        <rect x="870.752" y="1004.847" width="101.485" height="15.676" fill="url(#m)"/>
        <rect x="886.429" y="989.17" width="101.485" height="15.676" fill="url(#n)"/>
        <rect x="902.105" y="973.494" width="101.485" height="15.676" fill="url(#o)"/>
        <rect x="917.782" y="957.817" width="101.485" height="15.676" fill="url(#p)"/>
        <rect x="933.458" y="942.141" width="101.485" height="15.676" fill="url(#q)"/>
        <rect x="949.135" y="926.464" width="101.485" height="15.676" fill="url(#r)"/>
        <rect x="964.811" y="910.788" width="101.485" height="15.676" fill="url(#s)"/>
        <rect x="980.488" y="895.111" width="101.485" height="15.676" fill="url(#t)"/>
        <rect x="996.164" y="879.435" width="101.485" height="15.676" fill="url(#u)"/>
        <rect x="1011.841" y="863.758" width="101.485" height="15.676" fill="url(#v)"/>
        <rect x="1027.517" y="848.082" width="101.485" height="15.676" fill="url(#w)"/>
        <rect x="1043.194" y="832.405" width="101.485" height="15.676" fill="url(#x)"/>
        <rect x="1058.87" y="816.729" width="101.485" height="15.676" fill="url(#y)"/>
      </g>
      <polygon points="1200.371 769.7 1135.19 769.7 927.683 977.207 927.683 1036.2 1200.371 1036.2 1200.371 769.7" fill="#847263"/>
      <polygon points="1216.872 769.7 1151.691 769.7 944.184 977.207 944.184 1036.2 1216.872 1036.2 1216.872 769.7" fill="url(#z)"/>
    </g>
    <g>
      <g>
        <g>
          <polygon points="1234.605 708.405 1241.079 708.132 1240.897 771.412 1235.335 771.412 1234.605 708.405" fill="#754c24"/>
          <polygon points="1234.605 708.405 1231.14 710.047 1232.873 771.412 1235.335 771.412 1234.605 708.405" fill="#66421f"/>
        </g>
        <g>
          <polygon points="1389.485 708.405 1395.959 708.132 1395.776 771.412 1390.214 771.412 1389.485 708.405" fill="#754c24"/>
          <polygon points="1389.485 708.405 1386.02 710.047 1387.752 771.412 1390.214 771.412 1389.485 708.405" fill="#66421f"/>
        </g>
        <g>
          <g>
            <rect x="1218.838" y="726.194" width="189.667" height="9.667" fill="#66421f"/>
            <polygon points="1218.838 726.194 1220.546 724.486 1410.213 734.153 1408.505 735.861 1218.838 726.194" fill="#66421f"/>
          </g>
          <rect x="1220.546" y="724.486" width="189.667" height="9.667" fill="#754c24"/>
        </g>
      </g>
      <g>
        <g>
          <polygon points="1438.938 708.405 1445.412 708.132 1445.23 771.412 1439.668 771.412 1438.938 708.405" fill="#754c24"/>
          <polygon points="1438.938 708.405 1435.473 710.047 1437.206 771.412 1439.668 771.412 1438.938 708.405" fill="#66421f"/>
        </g>
        <g>
          <polygon points="1593.818 708.405 1600.292 708.132 1600.11 771.412 1594.548 771.412 1593.818 708.405" fill="#754c24"/>
          <polygon points="1593.818 708.405 1590.353 710.047 1592.086 771.412 1594.548 771.412 1593.818 708.405" fill="#66421f"/>
        </g>
        <g>
          <g>
            <rect x="1423.171" y="726.194" width="189.667" height="9.667" fill="#66421f"/>
            <polygon points="1423.171 726.194 1424.88 724.486 1614.546 734.153 1612.838 735.861 1423.171 726.194" fill="#66421f"/>
          </g>
          <rect x="1424.88" y="724.486" width="189.667" height="9.667" fill="#754c24"/>
        </g>
      </g>
      <g>
        <g>
          <polygon points="1643.272 708.405 1649.746 708.132 1649.563 771.412 1644.001 771.412 1643.272 708.405" fill="#754c24"/>
          <polygon points="1643.272 708.405 1639.807 710.047 1641.539 771.412 1644.001 771.412 1643.272 708.405" fill="#66421f"/>
        </g>
        <g>
          <polygon points="1798.151 708.405 1804.625 708.132 1804.443 771.412 1798.881 771.412 1798.151 708.405" fill="#754c24"/>
          <polygon points="1798.151 708.405 1794.686 710.047 1796.419 771.412 1798.881 771.412 1798.151 708.405" fill="#66421f"/>
        </g>
        <g>
          <g>
            <rect x="1627.505" y="726.194" width="189.667" height="9.667" fill="#66421f"/>
            <polygon points="1627.505 726.194 1629.213 724.486 1818.88 734.153 1817.171 735.861 1627.505 726.194" fill="#66421f"/>
          </g>
          <rect x="1629.213" y="724.486" width="189.667" height="9.667" fill="#754c24"/>
        </g>
      </g>
      <g>
        <g>
          <polygon points="1847.605 708.405 1854.079 708.132 1853.897 771.412 1848.335 771.412 1847.605 708.405" fill="#754c24"/>
          <polygon points="1847.605 708.405 1844.14 710.047 1845.873 771.412 1848.335 771.412 1847.605 708.405" fill="#66421f"/>
        </g>
        <g>
          <polygon points="2002.485 708.405 2008.959 708.132 2008.776 771.412 2003.214 771.412 2002.485 708.405" fill="#754c24"/>
          <polygon points="2002.485 708.405 1999.02 710.047 2000.752 771.412 2003.214 771.412 2002.485 708.405" fill="#66421f"/>
        </g>
        <g>
          <g>
            <rect x="1831.838" y="726.194" width="189.667" height="9.667" fill="#66421f"/>
            <polygon points="1831.838 726.194 1833.546 724.486 2023.213 734.153 2021.505 735.861 1831.838 726.194" fill="#66421f"/>
          </g>
          <rect x="1833.546" y="724.486" width="189.667" height="9.667" fill="#754c24"/>
        </g>
      </g>
      <g>
        <polygon points="1188.442 1036.2 1195.942 754.116 2005.901 754.116 2029.9 1036.2 1188.442 1036.2" fill="#847263"/>
        <polygon points="1235.109 1036.2 1242.608 754.116 2052.568 754.116 2076.567 1036.2 1235.109 1036.2" fill="url(#aa)"/>
      </g>
      <g>
        <g>
          <polygon points="1296.495 808.95 1296.495 822.95 1305.245 822.95 1305.245 808.45 1296.495 808.95" fill="#66421f"/>
          <polygon points="1305.245 808.45 1320.412 809.012 1320.412 822.595 1305.245 822.95 1305.245 808.45" fill="#754c24"/>
        </g>
        <g>
          <polygon points="1382.495 808.95 1382.495 822.95 1391.245 822.95 1391.245 808.45 1382.495 808.95" fill="#66421f"/>
          <polygon points="1391.245 808.45 1406.412 808.45 1406.412 822.033 1391.245 822.95 1391.245 808.45" fill="#754c24"/>
        </g>
        <g>
          <polygon points="1468.495 808.95 1468.495 822.95 1477.245 822.95 1477.245 808.45 1468.495 808.95" fill="#66421f"/>
          <polygon points="1477.245 808.45 1492.412 808.45 1492.578 822.95 1477.245 822.95 1477.245 808.45" fill="#754c24"/>
        </g>
        <g>
          <polygon points="1554.495 808.95 1554.495 822.95 1563.245 822.95 1563.245 808.45 1554.495 808.95" fill="#66421f"/>
          <polygon points="1563.245 808.45 1578.412 809.137 1578.412 822.72 1563.245 822.95 1563.245 808.45" fill="#754c24"/>
        </g>
        <g>
          <polygon points="1640.495 808.95 1640.495 822.95 1649.245 822.95 1649.245 808.45 1640.495 808.95" fill="#66421f"/>
          <polygon points="1649.245 808.45 1664.412 809.2 1664.412 823.033 1649.245 822.95 1649.245 808.45" fill="#754c24"/>
        </g>
        <g>
          <polygon points="1726.495 808.95 1726.495 822.95 1735.245 822.95 1735.245 808.45 1726.495 808.95" fill="#66421f"/>
          <polygon points="1735.245 808.45 1750.412 808.45 1750.412 823.45 1735.245 822.95 1735.245 808.45" fill="#754c24"/>
        </g>
        <g>
          <polygon points="1812.495 808.95 1812.495 822.95 1821.245 822.95 1821.245 808.45 1812.495 808.95" fill="#66421f"/>
          <polygon points="1821.245 808.45 1836.412 809.7 1834.912 823.033 1821.245 822.95 1821.245 808.45" fill="#754c24"/>
        </g>
        <g>
          <polygon points="1898.495 808.95 1898.495 822.95 1907.245 822.95 1907.245 808.45 1898.495 808.95" fill="#66421f"/>
          <polygon points="1907.245 808.45 1922.412 808.45 1922.412 822.033 1907.245 822.95 1907.245 808.45" fill="#754c24"/>
        </g>
        <g>
          <polygon points="1984.495 808.95 1984.495 822.95 1993.245 822.95 1993.245 808.45 1984.495 808.95" fill="#66421f"/>
          <polygon points="1993.245 808.45 2008.412 808.45 2008.412 822.033 1993.245 822.95 1993.245 808.45" fill="#754c24"/>
        </g>
      </g>
    </g>
  </g>
</svg>
