<svg xmlns="http://www.w3.org/2000/svg" width="109.327" height="66.016" viewBox="0 0 109.327 66.016">
  <title>Fence_2</title>
  <g>
    <g>
      <polygon points="85.483 3.009 91.957 2.735 91.775 66.016 86.212 66.016 85.483 3.009" fill="#754c24"/>
      <polygon points="85.483 3.009 82.018 4.65 83.751 66.016 86.212 66.016 85.483 3.009" fill="#66421f"/>
    </g>
    <g>
      <polygon points="21.2 66.016 26.67 1.094 20.105 0 16.823 66.016 21.2 66.016" fill="#754c24"/>
      <polygon points="20.105 0 16.701 1.702 13.297 66.016 16.823 66.016 20.105 0" fill="#66421f"/>
    </g>
    <g>
      <polygon points="1.626 8.237 0 9.175 1.626 33.008 107.929 32.674 109.327 31.397 1.626 8.237" fill="#66421f"/>
      <polygon points="1.626 8.237 109.221 10.79 109.327 31.397 3.085 31.671 1.626 8.237" fill="#754c24"/>
    </g>
  </g>
</svg>
