<svg xmlns="http://www.w3.org/2000/svg" width="107.032" height="66.016" viewBox="0 0 107.032 66.016">
  <title>Fence_4</title>
  <g>
    <g>
      <polygon points="1.626 14.224 0 15.163 1.626 30.637 105.634 32.035 107.032 30.759 1.626 14.224" fill="#66421f"/>
      <polygon points="1.626 14.224 105.573 16.778 107.032 30.759 3.085 29.3 1.626 14.224" fill="#754c24"/>
    </g>
    <g>
      <polygon points="84.754 3.009 91.227 2.735 91.045 66.016 85.483 66.016 84.754 3.009" fill="#754c24"/>
      <polygon points="84.754 3.009 81.289 4.65 83.021 66.016 85.483 66.016 84.754 3.009" fill="#66421f"/>
    </g>
    <g>
      <polygon points="27.765 66.016 25.941 1.094 19.376 0 23.388 66.016 27.765 66.016" fill="#754c24"/>
      <polygon points="19.376 0 15.972 1.702 20.592 66.016 23.388 66.016 19.376 0" fill="#66421f"/>
    </g>
  </g>
</svg>
