<svg xmlns="http://www.w3.org/2000/svg" width="151.061" height="77.068" viewBox="0 0 151.061 77.068">
  <title>Fence_6</title>
  <g>
    <g>
      <polygon points="6.143 9.188 4.284 9.45 0 24.407 95.925 64.633 97.699 63.973 6.143 9.188" fill="#66421f"/>
      <polygon points="6.143 9.188 101.579 50.462 97.699 63.973 1.853 23.713 6.143 9.188" fill="#754c24"/>
    </g>
    <g>
      <polygon points="148.091 44.866 151.061 50.625 93.57 77.068 91.232 72.021 148.091 44.866" fill="#754c24"/>
      <polygon points="148.091 44.866 145.145 42.413 90.196 69.788 91.232 72.021 148.091 44.866" fill="#66421f"/>
    </g>
    <g>
      <polygon points="22.624 66.016 20.8 1.094 14.235 0 18.247 66.016 22.624 66.016" fill="#754c24"/>
      <polygon points="14.235 0 10.831 1.702 15.451 66.016 18.247 66.016 14.235 0" fill="#66421f"/>
    </g>
  </g>
</svg>
