<svg xmlns="http://www.w3.org/2000/svg" width="151.06" height="77.07" viewBox="0 0 151.06 77.07">
  <defs>
    <style>
      .cls-1 {
        fill: #3b2612;
      }

      .cls-2 {
        fill: #6d4722;
      }
    </style>
  </defs>
  <title>Fence_6</title>
  <g id="Layer_2" data-name="Layer 2">
    <g id="_0" data-name="0">
      <g>
        <g>
          <polygon class="cls-1" points="6.14 9.19 4.28 9.45 0 24.41 95.92 64.63 97.7 63.97 6.14 9.19"/>
          <polygon class="cls-2" points="6.14 9.19 101.58 50.46 97.7 63.97 1.85 23.71 6.14 9.19"/>
        </g>
        <g>
          <polygon class="cls-2" points="148.09 44.87 151.06 50.63 93.57 77.07 91.23 72.02 148.09 44.87"/>
          <polygon class="cls-1" points="148.09 44.87 145.15 42.41 90.2 69.79 91.23 72.02 148.09 44.87"/>
        </g>
        <g>
          <polygon class="cls-2" points="22.62 66.02 20.8 1.09 14.23 0 18.25 66.02 22.62 66.02"/>
          <polygon class="cls-1" points="14.23 0 10.83 1.7 15.45 66.02 18.25 66.02 14.23 0"/>
        </g>
      </g>
    </g>
  </g>
</svg>
