<svg xmlns="http://www.w3.org/2000/svg" width="109.33" height="66.02" viewBox="0 0 109.33 66.02">
  <defs>
    <style>
      .cls-1 {
        fill: #754c24;
      }

      .cls-2 {
        fill: #66421f;
      }
    </style>
  </defs>
  <title>Fence_2</title>
  <g id="Layer_2" data-name="Layer 2">
    <g id="_0" data-name="0">
      <g>
        <g>
          <polygon class="cls-1" points="85.48 3.01 91.96 2.73 91.78 66.02 86.21 66.02 85.48 3.01"/>
          <polygon class="cls-2" points="85.48 3.01 82.02 4.65 83.75 66.02 86.21 66.02 85.48 3.01"/>
        </g>
        <g>
          <polygon class="cls-1" points="21.2 66.02 26.67 1.09 20.11 0 16.82 66.02 21.2 66.02"/>
          <polygon class="cls-2" points="20.11 0 16.7 1.7 13.3 66.02 16.82 66.02 20.11 0"/>
        </g>
        <g>
          <polygon class="cls-2" points="1.63 8.24 0 9.18 1.63 33.01 107.93 32.67 109.33 31.4 1.63 8.24"/>
          <polygon class="cls-1" points="1.63 8.24 109.22 10.79 109.33 31.4 3.08 31.67 1.63 8.24"/>
        </g>
      </g>
    </g>
  </g>
</svg>
