<svg xmlns="http://www.w3.org/2000/svg" width="110.63" height="66.02" viewBox="0 0 110.63 66.02">
  <defs>
    <style>
      .cls-1 {
        fill: #3b2612;
      }

      .cls-2 {
        fill: #6d4722;
      }
    </style>
  </defs>
  <title>Fence</title>
  <g id="Layer_2" data-name="Layer 2">
    <g id="_0" data-name="0">
      <g>
        <g>
          <polygon class="cls-1" points="3.22 10.94 1.6 11.88 3.22 27.36 107.23 28.75 108.63 27.48 3.22 10.94"/>
          <polygon class="cls-2" points="3.22 10.94 107.17 13.49 108.63 27.48 4.68 26.02 3.22 10.94"/>
        </g>
        <g>
          <polygon class="cls-1" points="3.22 30.64 1.6 31.58 0 47.54 107.23 48.45 108.63 47.17 3.22 30.64"/>
          <polygon class="cls-2" points="3.22 30.64 110.63 34.16 108.63 47.17 1.46 46.2 3.22 30.64"/>
        </g>
        <g>
          <polygon class="cls-2" points="86.35 3.01 92.82 2.73 92.64 66.02 87.08 66.02 86.35 3.01"/>
          <polygon class="cls-1" points="86.35 3.01 82.89 4.65 84.62 66.02 87.08 66.02 86.35 3.01"/>
        </g>
        <g>
          <polygon class="cls-2" points="29.36 66.02 27.54 1.09 20.97 0 24.98 66.02 29.36 66.02"/>
          <polygon class="cls-1" points="20.97 0 17.57 1.7 22.19 66.02 24.98 66.02 20.97 0"/>
        </g>
      </g>
    </g>
  </g>
</svg>
