<svg xmlns="http://www.w3.org/2000/svg" width="110.63" height="66.02" viewBox="0 0 110.63 66.02">
  <defs>
    <style>
      .cls-1 {
        fill: #6d4722;
      }

      .cls-2 {
        fill: #3b2612;
      }
    </style>
  </defs>
  <title>Fence_5</title>
  <g id="Layer_2" data-name="Layer 2">
    <g id="_0" data-name="0">
      <g>
        <g>
          <polygon class="cls-1" points="86.35 3.01 92.82 2.73 92.64 66.02 87.08 66.02 86.35 3.01"/>
          <polygon class="cls-2" points="86.35 3.01 82.89 4.65 84.62 66.02 87.08 66.02 86.35 3.01"/>
        </g>
        <g>
          <polygon class="cls-1" points="29.36 66.02 27.54 1.09 20.97 0 24.98 66.02 29.36 66.02"/>
          <polygon class="cls-2" points="20.97 0 17.57 1.7 22.19 66.02 24.98 66.02 20.97 0"/>
        </g>
        <g>
          <polygon class="cls-2" points="3.22 10.94 1.6 11.88 3.22 27.36 107.23 28.75 108.63 27.48 3.22 10.94"/>
          <polygon class="cls-1" points="3.22 10.94 107.17 13.49 108.63 27.48 4.68 26.02 3.22 10.94"/>
        </g>
        <g>
          <polygon class="cls-2" points="59.9 32.5 58.42 32.7 55.71 38.06 57.65 43.39 55.1 47.27 55.86 48.01 60.5 47.38 61.94 41.91 59.9 32.5"/>
          <polygon class="cls-2" points="55.86 48.01 107.23 48.45 108.63 47.17 56.78 46.7 55.86 48.01"/>
          <polygon class="cls-2" points="1.46 46.2 3.22 30.64 1.6 31.58 0 47.54 51.11 47.98 52.07 46.66 1.46 46.2"/>
          <polygon class="cls-1" points="59.9 32.5 57.17 38.06 57.51 39.15 108.63 47.17 110.63 34.16 59.9 32.5"/>
          <polygon class="cls-1" points="47.1 32.08 3.22 30.64 51.19 38.16 47.1 32.08"/>
          <polygon class="cls-1" points="52.07 46.66 50.24 42.16 51.61 38.79 51.19 38.16 3.22 30.64 1.46 46.2 52.07 46.66"/>
          <polygon class="cls-1" points="58.9 43.71 56.78 46.7 108.63 47.17 57.51 39.15 58.9 43.71"/>
        </g>
      </g>
    </g>
  </g>
</svg>
