<svg xmlns="http://www.w3.org/2000/svg" width="107.032" height="66.016" viewBox="0 0 107.032 66.016">
  <title>Fence_3</title>
  <g>
    <g>
      <polygon points="84.754 3.009 91.227 2.735 91.045 66.016 85.483 66.016 84.754 3.009" fill="#754c24"/>
      <polygon points="84.754 3.009 81.289 4.65 83.021 66.016 85.483 66.016 84.754 3.009" fill="#66421f"/>
    </g>
    <g>
      <polygon points="27.765 66.016 25.941 1.094 19.376 0 23.388 66.016 27.765 66.016" fill="#754c24"/>
      <polygon points="19.376 0 15.972 1.702 20.592 66.016 23.388 66.016 19.376 0" fill="#66421f"/>
    </g>
    <g>
      <polygon points="1.626 10.942 0 11.881 1.626 27.355 105.634 28.753 107.032 27.476 1.626 10.942" fill="#66421f"/>
      <polygon points="1.626 10.942 105.573 13.495 107.032 27.476 3.085 26.017 1.626 10.942" fill="#754c24"/>
    </g>
  </g>
</svg>
