<svg xmlns="http://www.w3.org/2000/svg" width="107.03" height="66.02" viewBox="0 0 107.03 66.02">
  <defs>
    <style>
      .cls-1 {
        fill: #6d4722;
      }

      .cls-2 {
        fill: #3b2612;
      }
    </style>
  </defs>
  <title>Fence_3</title>
  <g id="Layer_2" data-name="Layer 2">
    <g id="_0" data-name="0">
      <g>
        <g>
          <polygon class="cls-1" points="84.75 3.01 91.23 2.73 91.05 66.02 85.48 66.02 84.75 3.01"/>
          <polygon class="cls-2" points="84.75 3.01 81.29 4.65 83.02 66.02 85.48 66.02 84.75 3.01"/>
        </g>
        <g>
          <polygon class="cls-1" points="27.77 66.02 25.94 1.09 19.38 0 23.39 66.02 27.77 66.02"/>
          <polygon class="cls-2" points="19.38 0 15.97 1.7 20.59 66.02 23.39 66.02 19.38 0"/>
        </g>
        <g>
          <polygon class="cls-2" points="1.63 10.94 0 11.88 1.63 27.36 105.63 28.75 107.03 27.48 1.63 10.94"/>
          <polygon class="cls-1" points="1.63 10.94 105.57 13.49 107.03 27.48 3.08 26.02 1.63 10.94"/>
        </g>
      </g>
    </g>
  </g>
</svg>
