<svg xmlns="http://www.w3.org/2000/svg" width="110.634" height="66.016" viewBox="0 0 110.634 66.016">
  <title>Fence</title>
  <g>
    <g>
      <polygon points="3.222 10.942 1.596 11.881 3.222 27.355 107.23 28.753 108.628 27.476 3.222 10.942" fill="#66421f"/>
      <polygon points="3.222 10.942 107.169 13.495 108.628 27.476 4.681 26.017 3.222 10.942" fill="#754c24"/>
    </g>
    <g>
      <polygon points="3.222 30.637 1.596 31.576 0 47.536 107.23 48.448 108.628 47.172 3.222 30.637" fill="#66421f"/>
      <polygon points="3.222 30.637 110.634 34.163 108.628 47.172 1.459 46.199 3.222 30.637" fill="#754c24"/>
    </g>
    <g>
      <polygon points="86.349 3.009 92.823 2.735 92.641 66.016 87.079 66.016 86.349 3.009" fill="#754c24"/>
      <polygon points="86.349 3.009 82.885 4.65 84.617 66.016 87.079 66.016 86.349 3.009" fill="#66421f"/>
    </g>
    <g>
      <polygon points="29.361 66.016 27.537 1.094 20.972 0 24.984 66.016 29.361 66.016" fill="#754c24"/>
      <polygon points="20.972 0 17.568 1.702 22.188 66.016 24.984 66.016 20.972 0" fill="#66421f"/>
    </g>
  </g>
</svg>
