<svg xmlns="http://www.w3.org/2000/svg" width="107.03" height="66.02" viewBox="0 0 107.03 66.02">
  <defs>
    <style>
      .cls-1 {
        fill: #66421f;
      }

      .cls-2 {
        fill: #754c24;
      }
    </style>
  </defs>
  <title>Fence_4</title>
  <g id="Layer_2" data-name="Layer 2">
    <g id="_0" data-name="0">
      <g>
        <g>
          <polygon class="cls-1" points="1.63 14.22 0 15.16 1.63 30.64 105.63 32.03 107.03 30.76 1.63 14.22"/>
          <polygon class="cls-2" points="1.63 14.22 105.57 16.78 107.03 30.76 3.08 29.3 1.63 14.22"/>
        </g>
        <g>
          <polygon class="cls-2" points="84.75 3.01 91.23 2.73 91.05 66.02 85.48 66.02 84.75 3.01"/>
          <polygon class="cls-1" points="84.75 3.01 81.29 4.65 83.02 66.02 85.48 66.02 84.75 3.01"/>
        </g>
        <g>
          <polygon class="cls-2" points="27.77 66.02 25.94 1.09 19.38 0 23.39 66.02 27.77 66.02"/>
          <polygon class="cls-1" points="19.38 0 15.97 1.7 20.59 66.02 23.39 66.02 19.38 0"/>
        </g>
      </g>
    </g>
  </g>
</svg>
