<svg xmlns="http://www.w3.org/2000/svg" xmlns:xlink="http://www.w3.org/1999/xlink" width="537.29" height="337.62" viewBox="0 0 537.29 337.62">
  <defs>
    <style>
      .cls-1 {
        fill: url(#linear-gradient);
      }

      .cls-2 {
        fill: url(#linear-gradient-2);
      }

      .cls-3 {
        fill: #3b2612;
      }

      .cls-4 {
        fill: #6d4722;
      }

      .cls-5 {
        fill: #333;
      }

      .cls-6 {
        fill: #847263;
      }
    </style>
    <linearGradient id="linear-gradient" x1="23.23" y1="171.72" x2="302.56" y2="171.72" gradientUnits="userSpaceOnUse">
      <stop offset="0" stop-color="#998675"/>
      <stop offset="1" stop-color="#c7b299"/>
    </linearGradient>
    <linearGradient id="linear-gradient-2" x1="81.79" y1="238.51" x2="537.29" y2="238.51" xlink:href="#linear-gradient"/>
  </defs>
  <title>House</title>
  <g id="Layer_2" data-name="Layer 2">
    <g id="_0" data-name="0">
      <g>
        <polygon class="cls-1" points="181.99 337.62 188.05 139.41 85.65 5.81 12.37 139.41 2.9 337.62 181.99 337.62"/>
        <polygon class="cls-2" points="522.29 233.55 510.06 230.5 501.71 139.41 164.82 139.41 176.44 337.62 492.28 337.62 519.87 337.62 537.29 337.62 522.29 233.55"/>
        <g>
          <polygon class="cls-3" points="164.09 155.38 177.89 156.83 85.68 0 83.5 8.71 164.09 155.38"/>
          <polygon class="cls-3" points="9.35 155.38 0 156.83 85.65 0 87.13 8.71 9.35 155.38"/>
          <polygon class="cls-4" points="85.65 0 437.58 8.96 526.64 159.01 177.89 156.83 85.65 0"/>
        </g>
        <polygon class="cls-5" points="237.8 199.2 242.25 257.28 287.63 256.33 287.63 200.15 237.8 199.2"/>
        <polygon class="cls-5" points="392.25 199.2 393.52 257.91 446.51 258.89 442.08 200.15 392.25 199.2"/>
        <polygon class="cls-6" points="280.68 200.02 280.68 256.47 287.63 256.33 287.63 200.15 280.68 200.02"/>
        <polygon class="cls-6" points="442.08 200.15 446.51 258.89 439.36 258.75 435.95 200.02 442.08 200.15"/>
        <polygon class="cls-6" points="57.43 192.85 51.93 337.62 63.14 337.62 67.32 192.85 57.43 192.85"/>
        <polygon class="cls-5" points="115.4 192.85 67.32 192.85 63.14 337.62 123.02 337.62 115.4 192.85"/>
      </g>
    </g>
  </g>
</svg>
