<svg xmlns="http://www.w3.org/2000/svg" xmlns:xlink="http://www.w3.org/1999/xlink" width="655.01" height="687.35" viewBox="0 0 655.01 687.35">
  <defs>
    <style>
      .cls-1 {
        fill: url(#linear-gradient);
      }

      .cls-2 {
        fill: url(#linear-gradient-2);
      }

      .cls-3 {
        fill: url(#linear-gradient-3);
      }

      .cls-4 {
        fill: url(#linear-gradient-4);
      }

      .cls-5 {
        fill: #66421f;
      }

      .cls-6 {
        fill: #6d4722;
      }

      .cls-7 {
        fill: #333;
      }

      .cls-8 {
        fill: #847263;
      }
    </style>
    <linearGradient id="linear-gradient" x1="297.64" y1="346.65" x2="647.82" y2="346.65" gradientUnits="userSpaceOnUse">
      <stop offset="0" stop-color="#998675"/>
      <stop offset="1" stop-color="#c7b299"/>
    </linearGradient>
    <linearGradient id="linear-gradient-2" x1="376.5" y1="414.84" x2="655.01" y2="414.84" xlink:href="#linear-gradient"/>
    <linearGradient id="linear-gradient-3" x1="23.23" y1="521.44" x2="302.56" y2="521.44" xlink:href="#linear-gradient"/>
    <linearGradient id="linear-gradient-4" x1="81.79" y1="588.24" x2="537.29" y2="588.24" xlink:href="#linear-gradient"/>
  </defs>
  <title>House_1</title>
  <g id="Layer_2" data-name="Layer 2">
    <g id="_0" data-name="0">
      <g>
        <polygon class="cls-1" points="427.26 142.33 374.15 5.95 326.44 142.33 301.24 687.35 577.59 687.35 427.26 142.33"/>
        <polygon class="cls-2" points="453.37 687.35 427.26 142.33 570.39 142.33 609.1 515 632.51 519.5 655.01 687.35 453.37 687.35"/>
        <g>
          <polygon class="cls-3" points="181.99 687.35 188.05 489.13 85.65 355.53 12.37 489.13 2.9 687.35 181.99 687.35"/>
          <polygon class="cls-4" points="522.29 583.27 510.06 580.22 501.71 489.13 164.82 489.13 176.44 687.35 492.28 687.35 519.87 687.35 537.29 687.35 522.29 583.27"/>
          <g>
            <polygon class="cls-5" points="164.09 505.1 177.89 506.55 85.68 349.72 83.5 358.44 164.09 505.1"/>
            <polygon class="cls-5" points="9.35 505.1 0 506.55 85.65 349.72 87.13 358.44 9.35 505.1"/>
            <polygon class="cls-6" points="85.65 349.72 437.58 358.68 526.64 508.73 177.89 506.55 85.65 349.72"/>
          </g>
          <polygon class="cls-7" points="237.8 548.92 242.25 607 287.63 606.05 287.63 549.88 237.8 548.92"/>
          <polygon class="cls-7" points="392.25 548.92 393.52 607.64 446.51 608.61 442.08 549.88 392.25 548.92"/>
          <polygon class="cls-8" points="280.68 549.74 280.68 606.19 287.63 606.05 287.63 549.88 280.68 549.74"/>
          <polygon class="cls-8" points="442.08 549.88 446.51 608.61 439.36 608.48 435.95 549.74 442.08 549.88"/>
          <polygon class="cls-8" points="57.43 542.58 51.93 687.35 63.14 687.35 67.32 542.58 57.43 542.58"/>
          <polygon class="cls-7" points="115.4 542.58 67.32 542.58 63.14 687.35 123.02 687.35 115.4 542.58"/>
        </g>
        <g>
          <polygon class="cls-5" points="427.16 155.38 436.36 156.83 374.83 0 373.38 8.71 427.16 155.38"/>
          <polygon class="cls-5" points="323.9 155.38 317.67 156.83 374.82 0 375.8 8.71 323.9 155.38"/>
          <polygon class="cls-6" points="374.82 0 520.19 4.76 579.62 160.56 436.36 156.83 374.82 0"/>
        </g>
        <g>
          <polygon class="cls-7" points="485.24 199.2 489.68 257.28 535.07 256.33 535.07 200.15 485.24 199.2"/>
          <polygon class="cls-8" points="528.11 200.02 528.11 256.47 535.07 256.33 535.07 200.15 528.11 200.02"/>
        </g>
        <g>
          <polygon class="cls-7" points="393.28 306.76 396.27 248.82 350.89 249.78 350.89 305.95 393.28 306.76"/>
          <polygon class="cls-8" points="357.84 306.08 357.84 249.63 350.89 249.78 350.89 305.95 357.84 306.08"/>
        </g>
      </g>
    </g>
  </g>
</svg>
