<svg xmlns="http://www.w3.org/2000/svg" xmlns:xlink="http://www.w3.org/1999/xlink" width="397.912" height="250.039" viewBox="0 0 397.912 250.039">
  <defs>
    <linearGradient id="a" x1="17.207" y1="127.171" x2="224.069" y2="127.171" gradientUnits="userSpaceOnUse">
      <stop offset="0" stop-color="#998675"/>
      <stop offset="1" stop-color="#c7b299"/>
    </linearGradient>
    <linearGradient id="b" x1="60.574" y1="176.641" x2="397.912" y2="176.641" xlink:href="#a"/>
  </defs>
  <title>House</title>
  <g>
    <polygon points="134.783 250.039 139.269 103.242 63.433 4.302 9.161 103.242 2.151 250.039 134.783 250.039" fill="url(#a)"/>
    <polygon points="386.799 172.966 377.741 170.702 371.564 103.242 122.062 103.242 130.666 250.039 364.573 250.039 385.007 250.039 397.912 250.039 386.799 172.966" fill="url(#b)"/>
    <g>
      <polygon points="121.524 115.072 131.741 116.147 63.451 0 61.838 6.453 121.524 115.072" fill="#66421f"/>
      <polygon points="6.925 115.072 0 116.147 63.433 0 64.526 6.453 6.925 115.072" fill="#66421f"/>
      <polygon points="63.433 0 324.065 6.632 390.025 117.76 131.741 116.147 63.433 0" fill="#754c24"/>
    </g>
    <polygon points="176.114 147.526 179.404 190.538 213.015 189.832 213.015 148.231 176.114 147.526" fill="#333"/>
    <polygon points="290.499 147.526 291.439 191.008 330.682 191.727 327.4 148.231 290.499 147.526" fill="#333"/>
    <polygon points="207.864 148.132 207.864 189.938 213.015 189.832 213.015 148.231 207.864 148.132" fill="#847263"/>
    <polygon points="327.4 148.231 330.682 191.727 325.383 191.63 322.856 148.132 327.4 148.231" fill="#847263"/>
    <polygon points="42.533 142.825 38.459 250.039 46.758 250.039 49.854 142.825 42.533 142.825" fill="#847263"/>
    <polygon points="85.467 142.825 49.854 142.825 46.758 250.039 91.108 250.039 85.467 142.825" fill="#333"/>
  </g>
</svg>
