<svg xmlns="http://www.w3.org/2000/svg" xmlns:xlink="http://www.w3.org/1999/xlink" width="516.792" height="509.039" viewBox="0 0 516.792 509.039">
  <defs>
    <linearGradient id="a" x1="17.207" y1="386.171" x2="224.069" y2="386.171" gradientUnits="userSpaceOnUse">
      <stop offset="0" stop-color="#998675"/>
      <stop offset="1" stop-color="#c7b299"/>
    </linearGradient>
    <linearGradient id="b" x1="60.574" y1="435.641" x2="397.912" y2="435.641" xlink:href="#a"/>
    <linearGradient id="c" x1="251.209" y1="256.722" x2="526.787" y2="256.722" xlink:href="#a"/>
    <linearGradient id="d" x1="325.282" y1="307.222" x2="516.792" y2="307.222" xlink:href="#a"/>
  </defs>
  <title>House_2</title>
  <g>
    <g>
      <polygon points="134.783 509.039 139.269 362.242 63.433 263.302 9.161 362.242 2.151 509.039 134.783 509.039" fill="url(#a)"/>
      <polygon points="386.799 431.966 377.741 429.702 371.564 362.242 122.062 362.242 130.666 509.039 364.573 509.039 385.007 509.039 397.912 509.039 386.799 431.966" fill="url(#b)"/>
      <g>
        <polygon points="121.524 374.072 131.741 375.147 63.451 259 61.838 265.453 121.524 374.072" fill="#66421f"/>
        <polygon points="6.925 374.072 0 375.147 63.433 259 64.526 265.453 6.925 374.072" fill="#66421f"/>
        <polygon points="63.433 259 324.065 265.632 390.025 376.76 131.741 375.147 63.433 259" fill="#754c24"/>
      </g>
      <polygon points="176.114 406.526 179.404 449.538 213.015 448.832 213.015 407.231 176.114 406.526" fill="#333"/>
      <polygon points="290.499 406.526 291.439 450.008 330.682 450.727 327.4 407.231 290.499 406.526" fill="#333"/>
      <polygon points="207.864 407.132 207.864 448.938 213.015 448.832 213.015 407.231 207.864 407.132" fill="#847263"/>
      <polygon points="327.4 407.231 330.682 450.727 325.383 450.63 322.856 407.132 327.4 407.231" fill="#847263"/>
      <polygon points="42.533 401.825 38.459 509.039 46.758 509.039 49.854 401.825 42.533 401.825" fill="#847263"/>
      <polygon points="85.467 401.825 49.854 401.825 46.758 509.039 91.108 509.039 85.467 401.825" fill="#333"/>
    </g>
    <g>
      <polygon points="360.19 105.405 320.856 4.405 285.523 105.405 274.657 340.363 266.731 343.584 254.042 509.039 471.523 509.039 360.19 105.405" fill="url(#c)"/>
      <polygon points="379.523 509.039 360.19 105.405 466.19 105.405 494.857 381.405 500.126 384.738 516.792 509.039 379.523 509.039" fill="url(#d)"/>
      <g>
        <polygon points="360.112 115.072 366.929 116.147 321.362 0 320.285 6.453 360.112 115.072" fill="#66421f"/>
        <polygon points="283.644 115.072 279.023 116.147 321.35 0 322.079 6.453 283.644 115.072" fill="#66421f"/>
        <polygon points="321.35 0 429.01 3.526 473.023 118.905 366.929 116.147 321.35 0" fill="#754c24"/>
      </g>
      <g>
        <polygon points="403.128 164.192 406.418 207.204 440.029 206.499 440.029 164.897 403.128 164.192" fill="#333"/>
        <polygon points="434.878 164.799 434.878 206.605 440.029 206.499 440.029 164.897 434.878 164.799" fill="#847263"/>
      </g>
      <g>
        <polygon points="423.128 407.12 426.418 450.132 460.029 449.427 460.029 407.826 423.128 407.12" fill="#333"/>
        <polygon points="454.878 407.727 454.878 449.533 460.029 449.427 460.029 407.826 454.878 407.727" fill="#847263"/>
      </g>
      <g>
        <polygon points="335.023 207.706 337.239 164.799 303.629 165.504 303.629 207.106 335.023 207.706" fill="#333"/>
        <polygon points="308.779 207.204 308.779 165.398 303.629 165.504 303.629 207.106 308.779 207.204" fill="#847263"/>
      </g>
      <g>
        <polygon points="336.95 449.485 339.459 406.578 301.409 407.283 301.409 448.885 336.95 449.485" fill="#333"/>
        <polygon points="307.24 448.984 307.24 407.178 301.409 407.283 301.409 448.885 307.24 448.984" fill="#847263"/>
      </g>
    </g>
  </g>
</svg>
