<svg xmlns="http://www.w3.org/2000/svg" xmlns:xlink="http://www.w3.org/1999/xlink" width="478.368" height="258.14" viewBox="0 0 478.368 258.14">
  <defs>
    <linearGradient id="a" x1="175.39" y1="15.292" x2="105.217" y2="15.292" gradientUnits="userSpaceOnUse">
      <stop offset="0" stop-color="#998675"/>
      <stop offset="1" stop-color="#c7b299"/>
    </linearGradient>
    <linearGradient id="b" x1="288.057" y1="18.042" x2="238.888" y2="18.042" xlink:href="#a"/>
    <linearGradient id="c" x1="404.224" y1="17.792" x2="348.057" y2="17.792" xlink:href="#a"/>
    <linearGradient id="d" x1="61.89" y1="18.708" x2="132.064" y2="18.708" xlink:href="#a"/>
    <linearGradient id="e" x1="19.39" y1="14.833" x2="55.429" y2="14.833" xlink:href="#a"/>
    <linearGradient id="f" x1="-76.686" y1="130.819" x2="344.033" y2="130.819" xlink:href="#a"/>
    <linearGradient id="g" x1="21.649" y1="129.069" x2="442.368" y2="129.069" xlink:href="#a"/>
  </defs>
  <title>House_3</title>
  <g>
    <polygon points="191.14 0 172.016 0.417 167.224 30.583 192.057 30.583 191.14 0" fill="url(#a)"/>
    <polygon points="300.39 0 276.39 1.25 271.39 36.083 301.39 34.25 300.39 0" fill="url(#b)"/>
    <polygon points="414.64 0 395.89 1.25 390.724 35.583 417.224 34.75 414.64 0" fill="url(#c)"/>
    <polygon points="109.39 3.5 128.557 4.25 133.724 33.917 112.39 32.583 109.39 3.5" fill="url(#d)"/>
    <polygon points="39.14 4.25 51.557 4.25 55.224 25.417 33.89 23.083 39.14 4.25" fill="url(#e)"/>
    <polygon points="337.063 44.25 140.747 44.25 141.14 28.5 113.89 28.25 109.39 3.5 72.64 3.5 69.89 22.125 41.89 20.75 39.14 4.25 7.89 4.25 5.207 44.25 0 258.138 344.033 258.138 337.063 44.25" fill="url(#f)"/>
    <polygon points="471.398 44.25 461.14 0 414.64 0 409.39 31 363.64 31 359.39 0.5 300.39 0 297.39 29.25 241.39 30.75 238.39 0 191.14 0 187.14 28.5 141.14 28.5 139.542 44.25 134.335 258.138 478.368 258.138 471.398 44.25" fill="url(#g)"/>
    <g>
      <polygon points="351.294 130.281 352.563 188.994 405.552 189.966 401.121 131.233 351.294 130.281" fill="#333"/>
      <polygon points="401.121 131.233 405.552 189.966 398.396 189.834 394.985 131.1 401.121 131.233" fill="#847263"/>
    </g>
    <g>
      <polygon points="281.51 258.14 210.42 258.14 215.92 113.37 273.89 113.37 281.51 258.14" fill="#333"/>
      <polygon points="281.51 258.14 267.88 258.14 264.38 113.37 273.89 113.37 281.51 258.14" fill="#847263"/>
    </g>
    <g>
      <polygon points="86.572 189.091 89.565 131.155 44.181 132.107 44.181 188.281 86.572 189.091" fill="#333"/>
      <polygon points="51.136 188.414 51.136 131.965 44.181 132.107 44.181 188.281 51.136 188.414" fill="#847263"/>
    </g>
    <g>
      <g>
        <polygon points="170.14 63.486 170.14 77.486 178.89 77.486 178.89 62.986 170.14 63.486" fill="#66421f"/>
        <polygon points="178.89 62.986 194.057 62.986 194.057 77.986 178.89 77.486 178.89 62.986" fill="#754c24"/>
      </g>
      <g>
        <polygon points="256.14 63.486 256.14 77.486 264.89 77.486 264.89 62.986 256.14 63.486" fill="#66421f"/>
        <polygon points="264.89 62.986 280.057 64.236 278.557 77.569 264.89 77.486 264.89 62.986" fill="#754c24"/>
      </g>
      <g>
        <polygon points="342.14 63.486 342.14 77.486 350.89 77.486 350.89 62.986 342.14 63.486" fill="#66421f"/>
        <polygon points="350.89 62.986 366.057 62.986 366.057 76.569 350.89 77.486 350.89 62.986" fill="#754c24"/>
      </g>
      <g>
        <polygon points="428.14 63.486 428.14 77.486 436.89 77.486 436.89 62.986 428.14 63.486" fill="#66421f"/>
        <polygon points="436.89 62.986 452.057 62.986 452.057 76.569 436.89 77.486 436.89 62.986" fill="#754c24"/>
      </g>
    </g>
    <g>
      <polygon points="85.474 63.486 85.474 77.486 100.224 77.486 100.224 62.986 85.474 63.486" fill="#66421f"/>
      <polygon points="100.224 62.986 109.39 63.548 109.39 77.131 100.224 77.486 100.224 62.986" fill="#754c24"/>
    </g>
    <g>
      <polygon points="21.932 63.486 21.932 77.486 36.682 77.486 36.682 62.986 21.932 63.486" fill="#66421f"/>
      <polygon points="36.682 62.986 45.849 63.548 45.849 77.131 36.682 77.486 36.682 62.986" fill="#754c24"/>
    </g>
  </g>
</svg>
