<svg xmlns="http://www.w3.org/2000/svg" xmlns:xlink="http://www.w3.org/1999/xlink" width="485.092" height="509.039" viewBox="0 0 485.092 509.039">
  <defs>
    <linearGradient id="a" x1="220.426" y1="256.722" x2="479.767" y2="256.722" gradientUnits="userSpaceOnUse">
      <stop offset="0" stop-color="#998675"/>
      <stop offset="1" stop-color="#c7b299"/>
    </linearGradient>
    <linearGradient id="b" x1="278.829" y1="307.222" x2="485.092" y2="307.222" xlink:href="#a"/>
    <linearGradient id="c" x1="17.207" y1="386.171" x2="224.069" y2="386.171" xlink:href="#a"/>
    <linearGradient id="d" x1="60.574" y1="435.641" x2="397.912" y2="435.641" xlink:href="#a"/>
  </defs>
  <title>House_1</title>
  <g>
    <polygon points="316.426 105.405 277.092 4.405 241.759 105.405 223.092 509.039 427.759 509.039 316.426 105.405" fill="url(#a)"/>
    <polygon points="335.759 509.039 316.426 105.405 422.426 105.405 451.092 381.405 468.426 384.738 485.092 509.039 335.759 509.039" fill="url(#b)"/>
    <g>
      <polygon points="134.783 509.039 139.269 362.242 63.433 263.302 9.161 362.242 2.151 509.039 134.783 509.039" fill="url(#c)"/>
      <polygon points="386.799 431.966 377.741 429.702 371.564 362.242 122.062 362.242 130.666 509.039 364.573 509.039 385.007 509.039 397.912 509.039 386.799 431.966" fill="url(#d)"/>
      <g>
        <polygon points="121.524 374.072 131.741 375.147 63.451 259 61.838 265.453 121.524 374.072" fill="#66421f"/>
        <polygon points="6.925 374.072 0 375.147 63.433 259 64.526 265.453 6.925 374.072" fill="#66421f"/>
        <polygon points="63.433 259 324.065 265.632 390.025 376.76 131.741 375.147 63.433 259" fill="#754c24"/>
      </g>
      <polygon points="176.114 406.526 179.404 449.538 213.015 448.832 213.015 407.231 176.114 406.526" fill="#333"/>
      <polygon points="290.499 406.526 291.439 450.008 330.682 450.727 327.4 407.231 290.499 406.526" fill="#333"/>
      <polygon points="207.864 407.132 207.864 448.938 213.015 448.832 213.015 407.231 207.864 407.132" fill="#847263"/>
      <polygon points="327.4 407.231 330.682 450.727 325.383 450.63 322.856 407.132 327.4 407.231" fill="#847263"/>
      <polygon points="42.533 401.825 38.459 509.039 46.758 509.039 49.854 401.825 42.533 401.825" fill="#847263"/>
      <polygon points="85.467 401.825 49.854 401.825 46.758 509.039 91.108 509.039 85.467 401.825" fill="#333"/>
    </g>
    <g>
      <polygon points="316.348 115.072 323.165 116.147 277.597 0 276.521 6.453 316.348 115.072" fill="#66421f"/>
      <polygon points="239.88 115.072 235.259 116.147 277.585 0 278.315 6.453 239.88 115.072" fill="#66421f"/>
      <polygon points="277.585 0 385.246 3.526 429.259 118.905 323.165 116.147 277.585 0" fill="#754c24"/>
    </g>
    <g>
      <polygon points="359.364 147.526 362.654 190.538 396.265 189.832 396.265 148.231 359.364 147.526" fill="#333"/>
      <polygon points="391.114 148.132 391.114 189.938 396.265 189.832 396.265 148.231 391.114 148.132" fill="#847263"/>
    </g>
    <g>
      <polygon points="291.258 227.182 293.475 184.276 259.864 184.981 259.864 226.582 291.258 227.182" fill="#333"/>
      <polygon points="265.015 226.681 265.015 184.875 259.864 184.981 259.864 226.582 265.015 226.681" fill="#847263"/>
    </g>
  </g>
</svg>
