<svg xmlns="http://www.w3.org/2000/svg" xmlns:xlink="http://www.w3.org/1999/xlink" width="697.81" height="687.35" viewBox="0 0 697.81 687.35">
  <defs>
    <style>
      .cls-1 {
        fill: url(#linear-gradient);
      }

      .cls-2 {
        fill: url(#linear-gradient-2);
      }

      .cls-3 {
        fill: #66421f;
      }

      .cls-4 {
        fill: #6d4722;
      }

      .cls-5 {
        fill: #333;
      }

      .cls-6 {
        fill: #847263;
      }

      .cls-7 {
        fill: url(#linear-gradient-3);
      }

      .cls-8 {
        fill: url(#linear-gradient-4);
      }
    </style>
    <linearGradient id="linear-gradient" x1="23.23" y1="521.44" x2="302.56" y2="521.44" gradientUnits="userSpaceOnUse">
      <stop offset="0" stop-color="#998675"/>
      <stop offset="1" stop-color="#c7b299"/>
    </linearGradient>
    <linearGradient id="linear-gradient-2" x1="81.79" y1="588.24" x2="537.29" y2="588.24" xlink:href="#linear-gradient"/>
    <linearGradient id="linear-gradient-3" x1="339.2" y1="346.65" x2="711.31" y2="346.65" xlink:href="#linear-gradient"/>
    <linearGradient id="linear-gradient-4" x1="439.22" y1="414.84" x2="697.81" y2="414.84" xlink:href="#linear-gradient"/>
  </defs>
  <title>House_2</title>
  <g id="Layer_2" data-name="Layer 2">
    <g id="_0" data-name="0">
      <g>
        <g>
          <polygon class="cls-1" points="181.99 687.35 188.05 489.13 85.65 355.53 12.37 489.13 2.9 687.35 181.99 687.35"/>
          <polygon class="cls-2" points="522.29 583.27 510.06 580.22 501.71 489.13 164.82 489.13 176.44 687.35 492.28 687.35 519.87 687.35 537.29 687.35 522.29 583.27"/>
          <g>
            <polygon class="cls-3" points="164.09 505.1 177.89 506.55 85.68 349.72 83.5 358.44 164.09 505.1"/>
            <polygon class="cls-3" points="9.35 505.1 0 506.55 85.65 349.72 87.13 358.44 9.35 505.1"/>
            <polygon class="cls-4" points="85.65 349.72 437.58 358.68 526.64 508.73 177.89 506.55 85.65 349.72"/>
          </g>
          <polygon class="cls-5" points="237.8 548.92 242.25 607 287.63 606.05 287.63 549.88 237.8 548.92"/>
          <polygon class="cls-5" points="392.25 548.92 393.52 607.64 446.51 608.61 442.08 549.88 392.25 548.92"/>
          <polygon class="cls-6" points="280.68 549.74 280.68 606.19 287.63 606.05 287.63 549.88 280.68 549.74"/>
          <polygon class="cls-6" points="442.08 549.88 446.51 608.61 439.36 608.48 435.95 549.74 442.08 549.88"/>
          <polygon class="cls-6" points="57.43 542.58 51.93 687.35 63.14 687.35 67.32 542.58 57.43 542.58"/>
          <polygon class="cls-5" points="115.4 542.58 67.32 542.58 63.14 687.35 123.02 687.35 115.4 542.58"/>
        </g>
        <g>
          <polygon class="cls-7" points="486.36 142.33 433.25 5.95 385.54 142.33 370.86 459.58 360.16 463.94 343.03 687.35 636.69 687.35 486.36 142.33"/>
          <polygon class="cls-8" points="512.46 687.35 486.36 142.33 629.49 142.33 668.2 515 675.31 519.5 697.81 687.35 512.46 687.35"/>
          <g>
            <polygon class="cls-3" points="486.25 155.38 495.46 156.83 433.93 0 432.48 8.71 486.25 155.38"/>
            <polygon class="cls-3" points="383 155.38 376.76 156.83 433.91 0 434.9 8.71 383 155.38"/>
            <polygon class="cls-4" points="433.91 0 579.28 4.76 638.71 160.56 495.46 156.83 433.91 0"/>
          </g>
          <g>
            <polygon class="cls-5" points="544.34 221.71 548.78 279.78 594.16 278.83 594.16 222.66 544.34 221.71"/>
            <polygon class="cls-6" points="587.21 222.53 587.21 278.97 594.16 278.83 594.16 222.66 587.21 222.53"/>
          </g>
          <g>
            <polygon class="cls-5" points="571.34 549.73 575.78 607.8 621.17 606.85 621.17 550.68 571.34 549.73"/>
            <polygon class="cls-6" points="614.21 550.55 614.21 607 621.17 606.85 621.17 550.68 614.21 550.55"/>
          </g>
          <g>
            <polygon class="cls-5" points="452.37 280.46 455.37 222.53 409.98 223.48 409.98 279.65 452.37 280.46"/>
            <polygon class="cls-6" points="416.94 279.78 416.94 223.33 409.98 223.48 409.98 279.65 416.94 279.78"/>
          </g>
          <g>
            <polygon class="cls-5" points="454.98 606.93 458.37 548.99 406.99 549.95 406.99 606.12 454.98 606.93"/>
            <polygon class="cls-6" points="414.86 606.25 414.86 549.8 406.99 549.95 406.99 606.12 414.86 606.25"/>
          </g>
        </g>
      </g>
    </g>
  </g>
</svg>
