<svg xmlns="http://www.w3.org/2000/svg" xmlns:xlink="http://www.w3.org/1999/xlink" width="478.37" height="258.14" viewBox="0 0 478.37 258.14">
  <defs>
    <style>
      .cls-1 {
        fill: url(#linear-gradient);
      }

      .cls-2 {
        fill: url(#linear-gradient-2);
      }

      .cls-3 {
        fill: url(#linear-gradient-3);
      }

      .cls-4 {
        fill: url(#linear-gradient-4);
      }

      .cls-5 {
        fill: url(#linear-gradient-5);
      }

      .cls-6 {
        fill: url(#linear-gradient-6);
      }

      .cls-7 {
        fill: url(#linear-gradient-7);
      }

      .cls-8 {
        fill: #333;
      }

      .cls-9 {
        fill: #847263;
      }

      .cls-10 {
        fill: #66421f;
      }

      .cls-11 {
        fill: #754c24;
      }
    </style>
    <linearGradient id="linear-gradient" x1="175.39" y1="15.29" x2="105.22" y2="15.29" gradientUnits="userSpaceOnUse">
      <stop offset="0" stop-color="#998675"/>
      <stop offset="1" stop-color="#c7b299"/>
    </linearGradient>
    <linearGradient id="linear-gradient-2" x1="288.06" y1="18.04" x2="238.89" y2="18.04" xlink:href="#linear-gradient"/>
    <linearGradient id="linear-gradient-3" x1="404.22" y1="17.79" x2="348.06" y2="17.79" xlink:href="#linear-gradient"/>
    <linearGradient id="linear-gradient-4" x1="61.89" y1="18.71" x2="132.06" y2="18.71" xlink:href="#linear-gradient"/>
    <linearGradient id="linear-gradient-5" x1="19.39" y1="14.83" x2="55.43" y2="14.83" xlink:href="#linear-gradient"/>
    <linearGradient id="linear-gradient-6" x1="-76.69" y1="130.82" x2="344.03" y2="130.82" xlink:href="#linear-gradient"/>
    <linearGradient id="linear-gradient-7" x1="21.65" y1="129.07" x2="442.37" y2="129.07" xlink:href="#linear-gradient"/>
  </defs>
  <title>House_3</title>
  <g id="Layer_2" data-name="Layer 2">
    <g id="_0" data-name="0">
      <g>
        <polygon class="cls-1" points="191.14 0 172.02 0.42 167.22 30.58 192.06 30.58 191.14 0"/>
        <polygon class="cls-2" points="300.39 0 276.39 1.25 271.39 36.08 301.39 34.25 300.39 0"/>
        <polygon class="cls-3" points="414.64 0 395.89 1.25 390.72 35.58 417.22 34.75 414.64 0"/>
        <polygon class="cls-4" points="109.39 3.5 128.56 4.25 133.72 33.92 112.39 32.58 109.39 3.5"/>
        <polygon class="cls-5" points="39.14 4.25 51.56 4.25 55.22 25.42 33.89 23.08 39.14 4.25"/>
        <polygon class="cls-6" points="337.06 44.25 140.75 44.25 141.14 28.5 113.89 28.25 109.39 3.5 72.64 3.5 69.89 22.13 41.89 20.75 39.14 4.25 7.89 4.25 5.21 44.25 0 258.14 344.03 258.14 337.06 44.25"/>
        <polygon class="cls-7" points="471.4 44.25 461.14 0 414.64 0 409.39 31 363.64 31 359.39 0.5 300.39 0 297.39 29.25 241.39 30.75 238.39 0 191.14 0 187.14 28.5 141.14 28.5 139.54 44.25 134.34 258.14 478.37 258.14 471.4 44.25"/>
        <g>
          <polygon class="cls-8" points="351.29 130.28 352.56 188.99 405.55 189.97 401.12 131.23 351.29 130.28"/>
          <polygon class="cls-9" points="401.12 131.23 405.55 189.97 398.4 189.83 394.99 131.1 401.12 131.23"/>
        </g>
        <g>
          <polygon class="cls-8" points="281.51 258.14 210.42 258.14 215.92 113.37 273.89 113.37 281.51 258.14"/>
          <polygon class="cls-9" points="281.51 258.14 267.88 258.14 264.38 113.37 273.89 113.37 281.51 258.14"/>
        </g>
        <g>
          <polygon class="cls-8" points="86.57 189.09 89.56 131.16 44.18 132.11 44.18 188.28 86.57 189.09"/>
          <polygon class="cls-9" points="51.14 188.41 51.14 131.97 44.18 132.11 44.18 188.28 51.14 188.41"/>
        </g>
        <g>
          <g>
            <polygon class="cls-10" points="170.14 63.49 170.14 77.49 178.89 77.49 178.89 62.99 170.14 63.49"/>
            <polygon class="cls-11" points="178.89 62.99 194.06 62.99 194.06 77.99 178.89 77.49 178.89 62.99"/>
          </g>
          <g>
            <polygon class="cls-10" points="256.14 63.49 256.14 77.49 264.89 77.49 264.89 62.99 256.14 63.49"/>
            <polygon class="cls-11" points="264.89 62.99 280.06 64.24 278.56 77.57 264.89 77.49 264.89 62.99"/>
          </g>
          <g>
            <polygon class="cls-10" points="342.14 63.49 342.14 77.49 350.89 77.49 350.89 62.99 342.14 63.49"/>
            <polygon class="cls-11" points="350.89 62.99 366.06 62.99 366.06 76.57 350.89 77.49 350.89 62.99"/>
          </g>
          <g>
            <polygon class="cls-10" points="428.14 63.49 428.14 77.49 436.89 77.49 436.89 62.99 428.14 63.49"/>
            <polygon class="cls-11" points="436.89 62.99 452.06 62.99 452.06 76.57 436.89 77.49 436.89 62.99"/>
          </g>
        </g>
        <g>
          <polygon class="cls-10" points="85.47 63.49 85.47 77.49 100.22 77.49 100.22 62.99 85.47 63.49"/>
          <polygon class="cls-11" points="100.22 62.99 109.39 63.55 109.39 77.13 100.22 77.49 100.22 62.99"/>
        </g>
        <g>
          <polygon class="cls-10" points="21.93 63.49 21.93 77.49 36.68 77.49 36.68 62.99 21.93 63.49"/>
          <polygon class="cls-11" points="36.68 62.99 45.85 63.55 45.85 77.13 36.68 77.49 36.68 62.99"/>
        </g>
      </g>
    </g>
  </g>
</svg>
