<svg xmlns="http://www.w3.org/2000/svg" width="139.74" height="493.33" viewBox="0 0 139.74 493.33">
  <defs>
    <style>
      .cls-1 {
        fill: #3b2612;
      }

      .cls-2 {
        fill: #6d4722;
      }
    </style>
  </defs>
  <title>Pillar_5</title>
  <g id="Layer_2" data-name="Layer 2">
    <g id="_0" data-name="0">
      <g>
        <g>
          <polygon class="cls-1" points="127.86 42.17 19.19 128.5 19.19 157.5 127.86 66.83 127.86 42.17"/>
          <polygon class="cls-2" points="119.06 0.87 139.74 0 129.16 493.33 111.39 493.33 119.06 0.87"/>
          <polygon class="cls-1" points="119.06 0.87 108 6.12 103.53 493.33 111.39 493.33 119.06 0.87"/>
        </g>
        <polygon class="cls-2" points="127.86 52.17 19.19 138.5 19.19 167.5 127.86 76.83 127.86 52.17"/>
        <g>
          <polygon class="cls-2" points="11.07 0.87 31.74 0 31.16 493.33 13.4 493.33 11.07 0.87"/>
          <polygon class="cls-1" points="11.07 0.87 0 6.12 5.53 493.33 13.4 493.33 11.07 0.87"/>
        </g>
      </g>
    </g>
  </g>
</svg>
