<svg xmlns="http://www.w3.org/2000/svg" width="96.8" height="154.46" viewBox="0 0 96.8 154.46">
  <defs>
    <style>
      .cls-1 {
        fill: #6d4722;
      }

      .cls-2 {
        fill: #3b2612;
      }
    </style>
  </defs>
  <title>Roadsign_2</title>
  <g id="Layer_2" data-name="Layer 2">
    <g id="_0" data-name="0">
      <g>
        <g>
          <polygon class="cls-1" points="38.29 0.27 44.76 0 44.58 154.46 39.02 154.46 38.29 0.27"/>
          <polygon class="cls-2" points="38.29 0.27 34.82 1.92 36.56 154.46 39.02 154.46 38.29 0.27"/>
        </g>
        <g>
          <polygon class="cls-2" points="1.62 13.76 0 14.5 1.42 37.69 87.57 36.14 89.66 34.32 1.62 13.76"/>
          <polygon class="cls-1" points="1.62 13.76 84.74 12.01 96.8 24.14 89.66 34.32 2.96 35.8 1.62 13.76"/>
        </g>
        <g>
          <polygon class="cls-2" points="4.15 46.12 2.46 46.69 1.48 69.89 72.82 76.05 75.08 74.45 4.15 46.12"/>
          <polygon class="cls-1" points="4.15 46.12 72.49 51.76 83.24 65.07 75.08 74.45 3.21 68.18 4.15 46.12"/>
        </g>
      </g>
    </g>
  </g>
</svg>
