<svg xmlns="http://www.w3.org/2000/svg" width="96.803" height="154.463" viewBox="0 0 96.803 154.463">
  <title>Roadsign_2</title>
  <g>
    <g>
      <polygon points="38.289 0.274 44.763 0 44.581 154.463 39.019 154.463 38.289 0.274" fill="#754c24"/>
      <polygon points="38.289 0.274 34.824 1.915 36.557 154.463 39.019 154.463 38.289 0.274" fill="#66421f"/>
    </g>
    <g>
      <polygon points="1.617 13.763 0 14.504 1.415 37.686 87.57 36.136 89.659 34.317 1.617 13.763" fill="#66421f"/>
      <polygon points="1.617 13.763 84.74 12.01 96.803 24.141 89.659 34.317 2.965 35.799 1.617 13.763" fill="#754c24"/>
    </g>
    <g>
      <polygon points="4.148 46.119 2.463 46.689 1.478 69.893 72.818 76.047 75.083 74.453 4.148 46.119" fill="#66421f"/>
      <polygon points="4.148 46.119 72.493 51.758 83.239 65.069 75.083 74.453 3.214 68.177 4.148 46.119" fill="#754c24"/>
    </g>
  </g>
</svg>
