<svg xmlns="http://www.w3.org/2000/svg" xmlns:xlink="http://www.w3.org/1999/xlink" width="1102.301" height="671.776" viewBox="0 0 1102.301 671.776">
  <defs>
    <linearGradient id="a" x1="-8.598" y1="335.888" x2="759.387" y2="335.888" gradientUnits="userSpaceOnUse">
      <stop offset="0" stop-color="#998675"/>
      <stop offset="1" stop-color="#c7b299"/>
    </linearGradient>
    <linearGradient id="b" x1="819.699" y1="430.733" x2="665.664" y2="430.733" xlink:href="#a"/>
    <linearGradient id="c" x1="819.699" y1="543.919" x2="665.664" y2="543.919" xlink:href="#a"/>
    <linearGradient id="e" x1="813.474" y1="407.677" x2="1106.463" y2="407.677" xlink:href="#a"/>
  </defs>
  <title>Ruins_21</title>
  <g>
    <polygon points="1058.725 498.854 1048.244 498.854 1037.764 383.573 1025.188 382.315 1025.188 251.523 1006.324 251.523 1004.228 241.043 989.556 217.987 964.404 217.987 951.387 199.764 951.387 144.626 920.387 144.626 899.427 159.298 899.427 190.738 876.37 190.738 865.89 197.026 865.89 249.427 855.41 266.195 847.026 266.195 840.738 282.963 805.106 282.963 805.106 549.159 798.817 553.351 794.625 670.728 805.106 670.728 813.49 670.728 1016.804 670.728 1025.188 670.728 1071.301 670.728 1058.725 498.854" fill="#847263"/>
    <path d="M598.983,108.993V77.553H572.215v90.129l-25.152,14.672H488.374l-6.288-37.728L447.5,139.438V88.258l15.721-19.089h8.384l4.192-6.288L471.606,20.96H454.837V14.672L446.453,0h-54.5l-6.288,10.48H379.38l-2.445,7.336H244.187l-1.048-5.24H211.7L207.507,2.1H144.626l-4.192,10.48H111.089V60.785l10.48,6.288h4.192l17.817,16.446V147.77H101.657v75.457H45.064V183.4H15.72v282.44L8.384,469.51,0,670.728H15.72v1.048H642.432V268.99l7.336-19.563,12.576-2.1-2.1-8.384-8.384-2.1-2.1-16.768,2.1-14.673-4.192-4.192c0-75.457,77.553-75.457,77.553-75.457V108.993ZM130.888,343.587h-66v-25h66Zm153.833,0h-66v-25h66Zm153.834,0h-66v-25h66Zm153.833,0h-66v-25h66Z" fill="#847263"/>
    <path d="M612.236,108.993V77.553H595.468v90.129l-25.152,14.672H511.627l-6.288-37.728-34.585-5.188V88.258l15.721-19.089h8.384l4.192-6.288L494.859,20.96H478.09V14.672L469.706,0h-54.5l-6.288,10.48h-6.288l-2.446,7.336H267.44l-1.048-5.24h-31.44L230.76,2.1H167.879l-4.192,10.48H134.342V60.785l10.48,6.288h4.192l17.817,16.446V147.77H124.91v75.457H68.317V183.4H38.973v282.44l-7.336,3.668L23.253,670.728h15.72v1.048H665.685V268.99l7.336-19.563,12.576-2.1-2.1-8.384-8.384-2.1-2.1-16.768,2.1-14.673-4.192-4.192c0-75.457,77.553-75.457,77.553-75.457V108.993ZM154.141,343.587h-66v-25h66Zm153.833,0h-66v-25h66Zm153.834,0h-66v-25h66Zm153.833,0h-66v-25h66Z" fill="url(#a)"/>
    <g>
      <g>
        <polygon points="120.879 407.572 120.879 421.572 129.629 421.572 129.629 407.072 120.879 407.572" fill="#66421f"/>
        <polygon points="129.629 407.072 144.796 407.76 144.796 421.343 129.629 421.572 129.629 407.072" fill="#754c24"/>
      </g>
      <g>
        <polygon points="206.879 407.572 206.879 421.572 215.629 421.572 215.629 407.072 206.879 407.572" fill="#66421f"/>
        <polygon points="215.629 407.072 230.796 407.822 230.796 421.655 215.629 421.572 215.629 407.072" fill="#754c24"/>
      </g>
      <g>
        <polygon points="292.879 407.572 292.879 421.572 301.629 421.572 301.629 407.072 292.879 407.572" fill="#66421f"/>
        <polygon points="301.629 407.072 316.796 407.072 316.796 422.072 301.629 421.572 301.629 407.072" fill="#754c24"/>
      </g>
      <g>
        <polygon points="378.879 407.572 378.879 421.572 387.629 421.572 387.629 407.072 378.879 407.572" fill="#66421f"/>
        <polygon points="387.629 407.072 402.796 408.322 401.296 421.655 387.629 421.572 387.629 407.072" fill="#754c24"/>
      </g>
      <g>
        <polygon points="464.879 407.572 464.879 421.572 473.629 421.572 473.629 407.072 464.879 407.572" fill="#66421f"/>
        <polygon points="473.629 407.072 488.796 407.072 488.796 420.655 473.629 421.572 473.629 407.072" fill="#754c24"/>
      </g>
      <g>
        <polygon points="550.879 407.572 550.879 421.572 559.629 421.572 559.629 407.072 550.879 407.572" fill="#66421f"/>
        <polygon points="559.629 407.072 574.796 407.072 574.796 420.655 559.629 421.572 559.629 407.072" fill="#754c24"/>
      </g>
    </g>
    <g>
      <g>
        <polygon points="705.936 670.728 715.076 670.728 715.076 427.872 705.936 428.278 705.936 670.728" fill="#847263"/>
        <path d="M756.5,417.712l-13.029,11.974s.153.007.447.025a128.348,128.348,0,0,1,18.027,2.655V670.728h9.14V434.674c16.2,4.708,35.543,13.785,46.283,31.2h10.5l1.167-30.48Z" fill="#847263"/>
      </g>
      <g>
        <path d="M665.685,402.437l40.118,2.1,4.012-8.384H824.154v69.169s-12.036-35.633-80.238-35.633-78.231,35.633-78.231,35.633Z" fill="url(#b)"/>
        <rect x="711.821" y="417.109" width="10.03" height="253.619" fill="url(#c)"/>
        <rect x="767.987" y="417.109" width="10.03" height="253.619" fill="url(#c)"/>
      </g>
    </g>
    <polygon points="1089.725 498.854 1079.244 498.854 1068.764 383.573 1056.188 382.315 1056.188 251.523 1037.324 251.523 1035.228 241.043 1020.556 217.987 995.404 217.987 974.443 188.642 963.963 159.298 955.579 159.298 951.387 144.626 930.427 159.298 930.427 201.218 915.754 201.218 907.37 190.738 896.89 197.026 896.89 249.427 886.41 266.195 878.026 266.195 871.738 282.963 836.106 282.963 836.106 549.159 829.817 553.351 825.625 670.728 836.106 670.728 844.49 670.728 1047.804 670.728 1056.188 670.728 1102.301 670.728 1089.725 498.854" fill="url(#e)"/>
  </g>
</svg>
