<svg xmlns="http://www.w3.org/2000/svg" xmlns:xlink="http://www.w3.org/1999/xlink" width="478.4" height="295.09" viewBox="0 0 478.4 295.09">
  <defs>
    <style>
      .cls-1 {
        fill: #4f453c;
      }

      .cls-2 {
        fill: url(#linear-gradient);
      }

      .cls-3 {
        fill: #3d2d1d;
      }

      .cls-4 {
        fill: #47331f;
      }
    </style>
    <linearGradient id="linear-gradient" x1="-119" y1="147.54" x2="431.31" y2="147.54" gradientUnits="userSpaceOnUse">
      <stop offset="0" stop-color="#695d51"/>
      <stop offset="1" stop-color="#7d7060"/>
    </linearGradient>
  </defs>
  <title>Ruins_26</title>
  <g id="Layer_2" data-name="Layer 2">
    <g id="_0" data-name="0">
      <g>
        <path class="cls-1" d="M445,163.5H432.5L418,45.37H405.9L403,24.5H250L247.5,0H104l-4,14H23.86l-3,31.37H10L8,153l-8,1V295.09H58.62V269A153.75,153.75,0,0,1,212.37,115.26h0A153.75,153.75,0,0,1,366.12,269v26.08H450Z"/>
        <path class="cls-2" d="M473.4,163.5H460.9L446.4,45.37H434.3L431.4,24.5h-153L275.9,0H132.4l-4,14H52.26l-3,31.37H38.4L36.4,153l-8,1V295.09H87V269A153.75,153.75,0,0,1,240.77,115.26h0A153.75,153.75,0,0,1,394.52,269v26.08H478.4Z"/>
        <g>
          <g>
            <polygon class="cls-3" points="67.88 62.01 67.88 76.01 76.63 76.01 76.63 61.51 67.88 62.01"/>
            <polygon class="cls-4" points="76.63 61.51 91.8 62.26 91.8 76.1 76.63 76.01 76.63 61.51"/>
          </g>
          <g>
            <polygon class="cls-3" points="153.88 62.01 153.88 76.01 162.63 76.01 162.63 61.51 153.88 62.01"/>
            <polygon class="cls-4" points="162.63 61.51 177.8 61.51 177.8 76.51 162.63 76.01 162.63 61.51"/>
          </g>
          <g>
            <polygon class="cls-3" points="239.88 62.01 239.88 76.01 248.63 76.01 248.63 61.51 239.88 62.01"/>
            <polygon class="cls-4" points="248.63 61.51 263.8 62.76 262.3 76.1 248.63 76.01 248.63 61.51"/>
          </g>
          <g>
            <polygon class="cls-3" points="411.88 62.01 411.88 76.01 420.63 76.01 420.63 61.51 411.88 62.01"/>
            <polygon class="cls-4" points="420.63 61.51 435.8 61.51 435.8 75.1 420.63 76.01 420.63 61.51"/>
          </g>
        </g>
      </g>
    </g>
  </g>
</svg>
