<svg xmlns="http://www.w3.org/2000/svg" xmlns:xlink="http://www.w3.org/1999/xlink" width="139.196" height="271.061" viewBox="0 0 139.196 271.061">
  <defs>
    <linearGradient id="a" x1="6.423" y1="135.53" x2="157.641" y2="135.53" gradientUnits="userSpaceOnUse">
      <stop offset="0" stop-color="#998675"/>
      <stop offset="1" stop-color="#c7b299"/>
    </linearGradient>
  </defs>
  <title>Ruins_12</title>
  <g>
    <path d="M75.446.813V0h-25l-.008.037L47.51,9.5l-33.689.346L9.675,115.925,3.11,118.343,0,271.061H51.311L50.274,152.9H43.018V77.744c0-37.317,19.7-65.046,65.046-65.046l1.123-3.714,5.01-1.037V2.073Z" fill="#847263"/>
    <path d="M36.4,271.061H76.31L75.273,152.9H68.017V77.744c0-37.317,19.7-65.046,65.046-65.046l1.123-3.714,5.01-1.037V2.073L75.446,0,72.509,9.5,38.82,9.848,34.674,115.925l-6.565,2.418L25,271.061Z" fill="url(#a)"/>
  </g>
</svg>
