<svg xmlns="http://www.w3.org/2000/svg" xmlns:xlink="http://www.w3.org/1999/xlink" width="124.444" height="288.252" viewBox="0 0 124.444 288.252">
  <defs>
    <linearGradient id="a" x1="8.301" y1="144.126" x2="140.579" y2="144.126" gradientUnits="userSpaceOnUse">
      <stop offset="0" stop-color="#998675"/>
      <stop offset="1" stop-color="#c7b299"/>
    </linearGradient>
  </defs>
  <title>Ruins_9</title>
  <g>
    <polygon points="0 288.252 99.894 288.252 95.237 182.433 89.735 178.2 93.544 86.349 99.894 85.502 99.894 6.349 83.386 5.079 89.735 0 57.142 0 54.18 16.931 30.476 17.778 24.55 131.639 4.233 134.179 0 288.252" fill="#847263"/>
    <polygon points="24.55 288.252 124.444 288.252 119.788 182.433 114.285 178.2 118.094 86.349 124.444 85.502 124.444 6.349 107.936 5.079 105.819 0 81.693 0 78.73 16.931 55.026 17.778 49.1 131.639 28.783 134.179 24.55 288.252" fill="url(#a)"/>
  </g>
</svg>
