<svg xmlns="http://www.w3.org/2000/svg" xmlns:xlink="http://www.w3.org/1999/xlink" width="114.003" height="174.668" viewBox="0 0 114.003 174.668">
  <defs>
    <linearGradient id="a" x1="-40.374" y1="87.334" x2="203.06" y2="87.334" gradientUnits="userSpaceOnUse">
      <stop offset="0" stop-color="#998675"/>
      <stop offset="1" stop-color="#c7b299"/>
    </linearGradient>
  </defs>
  <title>Ruins_3</title>
  <g>
    <polygon points="58.694 0 80.141 0 46.137 27.725 49.876 7.196 58.694 0" fill="#847263"/>
    <polygon points="92.557 174.668 82.962 74.497 69.418 74.497 58.694 0 7.901 4.515 9.03 111.745 19.189 113.438 19.189 136.013 0 137.706 0 174.668 92.557 174.668" fill="#847263"/>
    <polygon points="114.003 174.668 104.408 74.497 90.864 74.497 80.141 0 29.347 4.515 30.476 111.745 40.635 113.438 40.635 136.013 21.446 137.706 21.446 174.668 114.003 174.668" fill="url(#a)"/>
  </g>
</svg>
