<svg xmlns="http://www.w3.org/2000/svg" xmlns:xlink="http://www.w3.org/1999/xlink" width="921.612" height="551" viewBox="0 0 921.612 551">
  <defs>
    <linearGradient id="a" x1="615.157" y1="334.382" x2="1012.637" y2="334.382" gradientUnits="userSpaceOnUse">
      <stop offset="0" stop-color="#998675"/>
      <stop offset="1" stop-color="#c7b299"/>
    </linearGradient>
    <linearGradient id="b" x1="615.157" y1="431.516" x2="1012.637" y2="431.516" xlink:href="#a"/>
    <linearGradient id="c" x1="615.157" y1="498.565" x2="1012.637" y2="498.565" xlink:href="#a"/>
    <linearGradient id="d" x1="-13.812" y1="350.715" x2="641.826" y2="350.715" xlink:href="#a"/>
    <linearGradient id="e" x1="-13.812" y1="336.101" x2="641.826" y2="336.101" xlink:href="#a"/>
    <linearGradient id="f" x1="-13.812" y1="282.807" x2="641.826" y2="282.807" xlink:href="#a"/>
    <linearGradient id="g" x1="-13.812" y1="367.047" x2="641.826" y2="367.047" xlink:href="#a"/>
    <linearGradient id="h" x1="-13.812" y1="38.682" x2="641.826" y2="38.682" xlink:href="#a"/>
    <linearGradient id="i" x1="-13.812" y1="42.98" x2="641.826" y2="42.98" xlink:href="#a"/>
    <linearGradient id="j" x1="-13.812" y1="147.85" x2="641.826" y2="147.85" xlink:href="#a"/>
    <linearGradient id="k" x1="-13.812" y1="464.181" x2="641.826" y2="464.181" xlink:href="#a"/>
    <linearGradient id="l" x1="687.833" y1="353.293" x2="555.818" y2="353.293" xlink:href="#a"/>
    <linearGradient id="m" x1="687.833" y1="446.129" x2="555.818" y2="446.129" xlink:href="#a"/>
  </defs>
  <title>Ruins</title>
  <g>
    <polygon points="797.83 118.624 788.083 119.321 773.333 129.946 773.333 167.821 765.083 166.321 761.727 156.446 753.583 156.571 751.708 157.821 744.958 160.446 744.958 203.196 738.958 218.337 730.833 218.337 720.583 234.946 788.333 234.946 797.83 118.624" fill="#847263"/>
    <polygon points="504.26 63.61 492.167 66.613 492.167 159.28 509.917 141.53 504.26 63.61" fill="#847263"/>
    <polygon points="47.815 150.429 28.333 153.28 28.333 374.946 18.333 378.222 0 550.14 97.667 550.14 178.667 205.613 153.545 1.719 133 1.719 126.038 10.315 102 10.315 102 53.946 118.302 64.946 126.667 74.613 126.667 121.203 93.333 121.203 93.333 190.613 59.85 190.613 47.815 150.429" fill="#847263"/>
    <polygon points="638.333 351.28 638.333 550.14 646.167 550.14 646.167 350.946 638.333 351.28" fill="#847263"/>
    <polygon points="590.333 351.28 590.333 550.14 598.167 550.14 598.167 350.946 590.333 351.28" fill="#847263"/>
    <path d="M622.5,352.434s.131.006.383.021c4.427.269,46.075,3.478,62.95,29.658h9l1-25-62.166-14.5" fill="#847263"/>
    <polygon points="703.275 232.09 675.5 238.28 675.5 449.946 669.167 452.613 654.167 550.14 716.167 550.14 703.275 232.09" fill="#847263"/>
    <g>
      <polygon points="703.275 550.14 703.275 232.09 732.501 232.09 737.659 218.337 744.535 218.337 753.131 204.583 753.131 161.604 761.727 156.446 768.604 165.042 780.638 165.042 780.638 130.658 797.83 118.624 801.269 130.658 808.145 130.658 816.741 154.727 833.933 178.796 854.563 178.796 866.598 197.707 868.317 206.303 883.79 206.303 883.79 550.14 703.275 550.14" fill="url(#a)"/>
      <polygon points="876.913 312.892 894.105 314.612 902.701 409.167 911.297 409.167 921.612 550.14 876.913 550.14 876.913 312.892" fill="url(#b)"/>
      <polygon points="708.432 446.989 698.117 453.866 694.679 550.14 710.152 550.14 708.432 446.989" fill="url(#c)"/>
    </g>
    <g>
      <rect x="47.815" y="150.429" width="24.069" height="400.571" fill="url(#d)"/>
      <rect x="118.302" y="121.203" width="309.454" height="429.797" fill="url(#e)"/>
      <rect x="152.686" y="14.613" width="249.282" height="536.387" fill="url(#f)"/>
      <rect x="66.726" y="183.094" width="495.126" height="367.906" fill="url(#g)"/>
      <polygon points="160.422 75.644 138.073 55.014 134.634 55.014 126.038 49.856 126.038 10.315 150.107 10.315 153.545 1.719 205.121 1.719 208.56 10.315 234.347 10.315 236.067 18.911 160.422 75.644" fill="url(#h)"/>
      <polygon points="342.656 18.911 346.095 8.596 351.252 8.596 356.41 0 401.109 0 407.985 12.034 407.985 17.192 421.739 17.192 425.177 51.576 421.739 56.733 414.862 56.733 390.794 85.959 342.656 18.911" fill="url(#i)"/>
      <path d="M395.951,113.466l34.384,5.158,5.157,30.945H483.63l20.63-12.034V63.61h13.754V89.4H629.761v13.753s-63.61,0-63.61,61.891l3.438,3.438-1.719,12.035,1.719,13.753,6.877,1.72,1.719,6.876-10.315,1.719L557.555,232.09H389.074V113.466Z" fill="url(#j)"/>
      <polygon points="55.552 378.222 41.798 385.098 34.921 550.14 64.577 550.14 55.552 378.222" fill="url(#k)"/>
    </g>
    <g>
      <path d="M555.836,330.084l34.383,1.719,3.439-6.876h97.994V381.66s-10.316-29.226-68.768-29.226-67.048,29.226-67.048,29.226Z" fill="url(#l)"/>
      <rect x="595.377" y="342.119" width="8.596" height="208.022" fill="url(#m)"/>
      <rect x="643.514" y="342.119" width="8.596" height="208.022" fill="url(#m)"/>
    </g>
  </g>
</svg>
