<svg xmlns="http://www.w3.org/2000/svg" xmlns:xlink="http://www.w3.org/1999/xlink" width="763.07" height="813.6" viewBox="0 0 763.07 813.6">
  <defs>
    <style>
      .cls-1 {
        fill: #4f453c;
      }

      .cls-2 {
        fill: url(#linear-gradient);
      }

      .cls-3 {
        fill: #3d2d1d;
      }

      .cls-4 {
        fill: #47331f;
      }
    </style>
    <linearGradient id="linear-gradient" x1="-218.75" y1="406.8" x2="685.68" y2="406.8" gradientUnits="userSpaceOnUse">
      <stop offset="0" stop-color="#695d51"/>
      <stop offset="1" stop-color="#7d7060"/>
    </linearGradient>
  </defs>
  <title>Ruins_27</title>
  <g id="Layer_2" data-name="Layer 2">
    <g id="_0" data-name="0">
      <g>
        <path class="cls-1" d="M712.65,295.83V87.89h19.06L739.57,0H0L7.86,87.89H29.53V295.83H7.86L0,383.72H37l3,37.16H77l26.3,103.23h0l10.68,4.7-9.81,153.47h-7l-2.82,41h7.19L95.79,813.6H260.53l-5.78-90.37h7.19l-2.83-41h-7l-9.82-153.47,10.68-4.7h0c1.42-54.81,42-95.76,94.58-103.23h47.36c52.56,7.47,93.16,48.42,94.58,103.23h0l10.68,4.7-9.82,153.47h-7l-2.83,41h7.19L482,813.6H646.4l-5.78-90.37h7.19l-2.83-41h-7l-9.81-153.47,10.68-4.7h0l26.29-103.23h34.38l3-37.16h37l-7.86-87.89ZM128.14,235.19H79.08v-62a24.53,24.53,0,0,1,24.53-24.53h0a24.53,24.53,0,0,1,24.53,24.53Zm133.09,0H212.16v-62a24.54,24.54,0,0,1,24.54-24.53h0a24.53,24.53,0,0,1,24.53,24.53Zm133.09,0H345.25v-62a24.53,24.53,0,0,1,24.53-24.53h0a24.53,24.53,0,0,1,24.53,24.53Zm133.09,0H478.34v-62a24.53,24.53,0,0,1,24.53-24.53h0a24.54,24.54,0,0,1,24.54,24.53Zm133.08,0H611.43v-62A24.53,24.53,0,0,1,636,148.63h0a24.53,24.53,0,0,1,24.53,24.53Z"/>
        <path class="cls-2" d="M736.15,295.83V87.89h19.06L763.07,0H23.5l7.86,87.89H53V295.83H31.36L23.5,383.72h37l3,37.16h37l26.3,103.23h0l10.68,4.7-9.81,153.47h-7l-2.82,41h7.19l-5.78,90.37H284l-5.78-90.37h7.19l-2.82-41h-7l-9.82-153.47,10.68-4.7h0c1.42-54.81,42-95.76,94.58-103.23h47.35C471,428.35,511.59,469.3,513,524.11h0l10.68,4.7-9.81,153.47h-7l-2.83,41h7.19l-5.78,90.37H669.89l-5.77-90.37h7.19l-2.83-41h-7l-9.82-153.47,10.68-4.7h0l26.3-103.23H723l3-37.16h37l-7.86-87.89ZM151.64,235.19H102.57v-62a24.54,24.54,0,0,1,24.54-24.53h0a24.53,24.53,0,0,1,24.53,24.53Zm133.09,0H235.66v-62a24.53,24.53,0,0,1,24.53-24.53h0a24.53,24.53,0,0,1,24.53,24.53Zm133.08,0H368.75v-62a24.53,24.53,0,0,1,24.53-24.53h0a24.53,24.53,0,0,1,24.53,24.53Zm133.09,0H501.84v-62a24.53,24.53,0,0,1,24.53-24.53h0a24.53,24.53,0,0,1,24.53,24.53Zm133.09,0H634.92v-62a24.53,24.53,0,0,1,24.53-24.53h0A24.53,24.53,0,0,1,684,173.16Z"/>
        <g>
          <g>
            <polygon class="cls-3" points="102.58 256.25 102.58 271.61 112.18 271.61 112.18 255.7 102.58 256.25"/>
            <polygon class="cls-4" points="112.18 255.7 128.82 255.7 129 271.61 112.18 271.61 112.18 255.7"/>
          </g>
          <g>
            <polygon class="cls-3" points="196.95 256.25 196.95 271.61 206.55 271.61 206.55 255.7 196.95 256.25"/>
            <polygon class="cls-4" points="206.55 255.7 223.19 256.45 223.19 271.36 206.55 271.61 206.55 255.7"/>
          </g>
          <g>
            <polygon class="cls-3" points="291.32 256.25 291.32 271.61 300.92 271.61 300.92 255.7 291.32 256.25"/>
            <polygon class="cls-4" points="300.92 255.7 317.56 256.52 317.56 271.7 300.92 271.61 300.92 255.7"/>
          </g>
          <g>
            <polygon class="cls-3" points="385.69 256.25 385.69 271.61 395.29 271.61 395.29 255.7 385.69 256.25"/>
            <polygon class="cls-4" points="395.29 255.7 411.94 255.7 411.94 272.16 395.29 271.61 395.29 255.7"/>
          </g>
          <g>
            <polygon class="cls-3" points="480.06 256.25 480.06 271.61 489.67 271.61 489.67 255.7 480.06 256.25"/>
            <polygon class="cls-4" points="489.67 255.7 506.31 257.07 504.66 271.7 489.67 271.61 489.67 255.7"/>
          </g>
          <g>
            <polygon class="cls-3" points="668.81 256.25 668.81 271.61 678.41 271.61 678.41 255.7 668.81 256.25"/>
            <polygon class="cls-4" points="678.41 255.7 695.05 255.7 695.05 270.6 678.41 271.61 678.41 255.7"/>
          </g>
        </g>
      </g>
    </g>
  </g>
</svg>
