<svg xmlns="http://www.w3.org/2000/svg" xmlns:xlink="http://www.w3.org/1999/xlink" width="191.629" height="330.965" viewBox="0 0 191.629 330.965">
  <defs>
    <linearGradient id="a" x1="3.629" y1="165.483" x2="217.747" y2="165.483" gradientUnits="userSpaceOnUse">
      <stop offset="0" stop-color="#998675"/>
      <stop offset="1" stop-color="#c7b299"/>
    </linearGradient>
  </defs>
  <title>Ruins_6</title>
  <g>
    <polygon points="14.45 0 143.808 0 139.68 134.175 153.441 136.239 161.698 330.965 105.964 330.965 98.395 218.808 78.441 217.432 74.312 242.203 50.23 243.579 46.789 330.965 0 330.965 2.752 128.67 17.202 127.294 14.45 0" fill="#847263"/>
    <polygon points="44.381 0 173.739 0 169.611 134.175 183.373 136.239 191.629 330.965 135.895 330.965 128.326 218.808 108.372 217.432 104.244 242.203 80.161 243.579 76.721 330.965 29.931 330.965 32.684 128.67 47.133 127.294 44.381 0" fill="url(#a)"/>
  </g>
</svg>
