<svg xmlns="http://www.w3.org/2000/svg" xmlns:xlink="http://www.w3.org/1999/xlink" width="319.434" height="155.479" viewBox="0 0 319.434 155.479">
  <defs>
    <linearGradient id="a" x1="-181.348" y1="77.74" x2="608.328" y2="77.74" gradientUnits="userSpaceOnUse">
      <stop offset="0" stop-color="#998675"/>
      <stop offset="1" stop-color="#c7b299"/>
    </linearGradient>
  </defs>
  <title>Ruins_4</title>
  <g>
    <polygon points="269.205 4.515 288.393 4.515 288.393 8.148 267.441 8.148 269.205 4.515" fill="#847263"/>
    <polygon points="56.437 0 75.626 0 69.523 6.102 54.638 6.102 56.437 0" fill="#847263"/>
    <g>
      <polygon points="300.245 155.479 290.086 51.358 275.977 51.358 269.205 4.515 190.757 5.079 187.371 18.06 112.31 18.06 112.31 27.09 62.645 27.09 56.437 0 14.674 0.564 16.367 62.081 2.822 67.724 0 155.479 300.245 155.479" fill="#847263"/>
      <polygon points="319.434 155.479 309.275 51.358 295.166 51.358 288.393 4.515 209.946 5.079 206.559 18.06 131.498 18.06 131.498 27.09 81.834 27.09 75.626 0 33.862 0.564 35.555 62.081 22.01 67.724 19.189 155.479 319.434 155.479" fill="url(#a)"/>
    </g>
  </g>
</svg>
