<svg xmlns="http://www.w3.org/2000/svg" xmlns:xlink="http://www.w3.org/1999/xlink" width="151.721" height="162.146" viewBox="0 0 151.721 162.146">
  <defs>
    <linearGradient id="a" x1="10.121" y1="81.073" x2="171.393" y2="81.073" gradientUnits="userSpaceOnUse">
      <stop offset="0" stop-color="#998675"/>
      <stop offset="1" stop-color="#c7b299"/>
    </linearGradient>
  </defs>
  <title>Ruins_13</title>
  <g>
    <polygon points="0 162.146 121.79 162.146 116.113 102.621 109.404 100.24 114.049 48.572 121.79 48.096 121.79 3.571 101.663 2.857 109.404 0 69.668 0 66.055 9.524 37.156 10 29.931 74.049 5.161 75.478 0 162.146" fill="#847263"/>
    <polygon points="29.931 162.146 151.721 162.146 146.044 102.621 139.336 100.24 143.98 48.572 151.721 48.096 151.721 3.571 131.595 2.857 129.014 0 99.599 0 95.987 9.524 67.088 10 59.863 74.049 35.092 75.478 29.931 162.146" fill="url(#a)"/>
  </g>
</svg>
