<svg xmlns="http://www.w3.org/2000/svg" xmlns:xlink="http://www.w3.org/1999/xlink" width="267.445" height="431.516" viewBox="0 0 267.445 431.516">
  <defs>
    <linearGradient id="a" x1="-39.01" y1="215.758" x2="358.471" y2="215.758" gradientUnits="userSpaceOnUse">
      <stop offset="0" stop-color="#998675"/>
      <stop offset="1" stop-color="#c7b299"/>
    </linearGradient>
    <linearGradient id="b" x1="-39.01" y1="312.892" x2="358.471" y2="312.892" xlink:href="#a"/>
    <linearGradient id="c" x1="-39.01" y1="379.941" x2="358.471" y2="379.941" xlink:href="#a"/>
  </defs>
  <title>Ruins_11</title>
  <g>
    <polygon points="143.664 0 133.917 0.697 119.167 11.322 119.167 49.197 110.917 47.697 107.561 37.822 99.417 37.947 97.542 39.197 90.792 41.822 90.792 84.572 84.792 99.713 76.667 99.713 66.417 116.322 134.167 116.322 143.664 0" fill="#847263"/>
    <polygon points="49.108 113.466 21.333 119.656 21.333 331.322 15 333.989 0 431.516 62 431.516 49.108 113.466" fill="#847263"/>
    <g>
      <polygon points="49.108 431.516 49.108 113.466 78.334 113.466 83.492 99.713 90.369 99.713 98.965 85.959 98.965 42.98 107.561 37.822 114.437 46.418 126.472 46.418 126.472 12.034 143.664 0 147.102 12.034 153.979 12.034 162.575 36.103 179.766 60.172 200.397 60.172 212.431 79.083 214.15 87.679 229.623 87.679 229.623 431.516 49.108 431.516" fill="url(#a)"/>
      <polygon points="222.746 194.268 239.938 195.988 248.534 290.543 257.13 290.543 267.445 431.516 222.746 431.516 222.746 194.268" fill="url(#b)"/>
      <polygon points="54.266 328.365 43.951 335.242 40.512 431.516 55.985 431.516 54.266 328.365" fill="url(#c)"/>
    </g>
  </g>
</svg>
