<svg xmlns="http://www.w3.org/2000/svg" xmlns:xlink="http://www.w3.org/1999/xlink" width="191.63" height="330.97" viewBox="0 0 191.63 330.97">
  <defs>
    <style>
      .cls-1 {
        fill: #4f453c;
      }

      .cls-2 {
        fill: url(#linear-gradient);
      }
    </style>
    <linearGradient id="linear-gradient" x1="3.63" y1="165.48" x2="217.75" y2="165.48" gradientUnits="userSpaceOnUse">
      <stop offset="0" stop-color="#695d51"/>
      <stop offset="1" stop-color="#7d7060"/>
    </linearGradient>
  </defs>
  <title>Ruins_6</title>
  <g id="Layer_2" data-name="Layer 2">
    <g id="_0" data-name="0">
      <g>
        <polygon class="cls-1" points="14.45 0 143.81 0 139.68 134.18 153.44 136.24 161.7 330.96 105.96 330.96 98.39 218.81 78.44 217.43 74.31 242.2 50.23 243.58 46.79 330.96 0 330.96 2.75 128.67 17.2 127.29 14.45 0"/>
        <polygon class="cls-2" points="44.38 0 173.74 0 169.61 134.18 183.37 136.24 191.63 330.96 135.9 330.96 128.33 218.81 108.37 217.43 104.24 242.2 80.16 243.58 76.72 330.96 29.93 330.96 32.68 128.67 47.13 127.29 44.38 0"/>
      </g>
    </g>
  </g>
</svg>
