<svg xmlns="http://www.w3.org/2000/svg" xmlns:xlink="http://www.w3.org/1999/xlink" width="138.99" height="212.95" viewBox="0 0 138.99 212.95">
  <defs>
    <style>
      .cls-1 {
        fill: #847263;
      }

      .cls-2 {
        fill: #4f453c;
      }

      .cls-3 {
        fill: url(#linear-gradient);
      }
    </style>
    <linearGradient id="linear-gradient" x1="-49.22" y1="106.48" x2="247.57" y2="106.48" gradientUnits="userSpaceOnUse">
      <stop offset="0" stop-color="#695d51"/>
      <stop offset="1" stop-color="#7d7060"/>
    </linearGradient>
  </defs>
  <title>Ruins_2</title>
  <g id="Layer_2" data-name="Layer 2">
    <g id="_0" data-name="0">
      <g>
        <polygon class="cls-1" points="71.56 0 97.71 0 56.25 33.8 60.81 8.77 71.56 0"/>
        <polygon class="cls-2" points="112.84 212.95 101.15 90.83 84.63 90.83 71.56 0 9.63 5.5 11.01 136.24 23.39 138.3 23.39 165.83 0 167.89 0 212.95 112.84 212.95"/>
        <polygon class="cls-3" points="138.99 212.95 127.29 90.83 110.78 90.83 97.71 0 35.78 5.5 37.16 136.24 49.54 138.3 49.54 165.83 26.15 167.89 26.15 212.95 138.99 212.95"/>
      </g>
    </g>
  </g>
</svg>
