<svg xmlns="http://www.w3.org/2000/svg" xmlns:xlink="http://www.w3.org/1999/xlink" width="478.368" height="258.14" viewBox="0 0 478.368 258.14">
  <defs>
    <linearGradient id="a" x1="175.39" y1="15.292" x2="105.217" y2="15.292" gradientUnits="userSpaceOnUse">
      <stop offset="0" stop-color="#998675"/>
      <stop offset="1" stop-color="#c7b299"/>
    </linearGradient>
    <linearGradient id="b" x1="288.057" y1="18.042" x2="238.888" y2="18.042" xlink:href="#a"/>
    <linearGradient id="c" x1="21.649" y1="129.069" x2="442.368" y2="129.069" xlink:href="#a"/>
  </defs>
  <title>Ruins_28</title>
  <g>
    <polygon points="109.39 3.5 128.557 4.25 133.724 33.917 112.39 32.583 109.39 3.5" fill="#9a8776"/>
    <polygon points="167.063 44.25 140.747 44.25 141.141 28.5 113.891 28.25 109.391 3.5 85.107 3.5 80.933 35.502 74.6 38.169 72.6 77.486 65.6 78.835 54.6 144.169 37.266 147.835 42.6 205.169 33.933 206.502 29.266 225.502 0.708 229.072 0 258.138 174.033 258.138 167.063 44.25" fill="#847263"/>
    <g>
      <polygon points="85.474 63.486 85.474 77.486 100.224 77.486 100.224 62.986 85.474 63.486" fill="#66421f"/>
      <polygon points="100.224 62.986 109.39 63.548 109.39 77.131 100.224 77.486 100.224 62.986" fill="#754c24"/>
    </g>
    <polygon points="191.14 0 172.016 0.417 167.224 30.583 192.057 30.583 191.14 0" fill="url(#a)"/>
    <polygon points="300.39 0 276.39 1.25 271.39 36.083 301.39 34.25 300.39 0" fill="url(#b)"/>
    <path d="M469.933,147.169,460.6,93.835l-22,.667-7-31.516-1-15.484-21.667-1L405.556,31H363.641L359.391.5l-59-.5-3,29.25-56,1.5-3-30.75h-47.25l-4,28.5h-46l-1.6,15.75-5.207,213.888H210.42l5.5-144.768h48.46l3.5,144.768H478.368l-3.6-110.567Zm-117.37,41.825-1.269-58.713,43.692.835,3.41,58.718Z" fill="url(#c)"/>
    <g>
      <polygon points="394.985 131.1 394.986 131.116 401.121 131.233 394.985 131.1" fill="#847263"/>
      <polygon points="405.552 189.966 398.396 189.834 398.396 189.834 405.552 189.966" fill="#847263"/>
      <polygon points="401.121 131.233 394.986 131.116 398.396 189.834 405.552 189.966 401.121 131.233" fill="#847263"/>
    </g>
    <polygon points="273.891 113.37 264.38 113.37 267.88 258.14 281.511 258.14 273.891 113.37" fill="#847263"/>
    <g>
      <g>
        <polygon points="170.14 63.486 170.14 77.486 178.89 77.486 178.89 62.986 170.14 63.486" fill="#66421f"/>
        <polygon points="178.89 62.986 194.057 62.986 194.057 77.986 178.89 77.486 178.89 62.986" fill="#754c24"/>
      </g>
      <g>
        <polygon points="256.14 63.486 256.14 77.486 264.89 77.486 264.89 62.986 256.14 63.486" fill="#66421f"/>
        <polygon points="264.89 62.986 280.057 64.236 278.557 77.569 264.89 77.486 264.89 62.986" fill="#754c24"/>
      </g>
      <g>
        <polygon points="342.14 63.486 342.14 77.486 350.89 77.486 350.89 62.986 342.14 63.486" fill="#66421f"/>
        <polygon points="350.89 62.986 366.057 62.986 366.057 76.569 350.89 77.486 350.89 62.986" fill="#754c24"/>
      </g>
    </g>
  </g>
</svg>
