<svg xmlns="http://www.w3.org/2000/svg" xmlns:xlink="http://www.w3.org/1999/xlink" width="1512.62" height="299.05" viewBox="0 0 1512.62 299.05">
  <defs>
    <style>
      .cls-1 {
        fill: #4f453c;
      }

      .cls-2 {
        fill: url(#linear-gradient);
      }
    </style>
    <linearGradient id="linear-gradient" x1="20.67" y1="149.35" x2="1512.62" y2="149.35" gradientUnits="userSpaceOnUse">
      <stop offset="0" stop-color="#695d51"/>
      <stop offset="1" stop-color="#7d7060"/>
    </linearGradient>
  </defs>
  <title>Ruins_20</title>
  <g id="Layer_2" data-name="Layer 2">
    <g id="_0" data-name="0">
      <g>
        <path class="cls-1" d="M1400.81,142.18l-18.69,156.87h109.16l.67-95.75-8.14-3.64-5.73-76.14-26.8-1.56,3-31.33L1453,70l-8.1-3.31-2.57-61L1432.66.4,1412,.75l-3.86,4.88V22.29H1300l-1.22-4.87L1119.58,18.6V5.23L1114.71.35h-39l-4.87,4.88v6.06H956.44l-1.22,6.13L776,18.6V5.23c-1.9-1.91-3-3-4.88-4.88h-39l-4.88,4.88V22.29H613l-1.22-4.87L432.58,18.6V5.23L427.71.35h-39l-4.87,4.88V22.29H269.44l-1.22-4.87L89,18.6V5.23L84.12.35h-39L40.23,5.23V22.29H0L7.32,56.43H40.23v88.39l-6.09,1.83L28,299.05H100L93.88,193,89,191.76V153.15s23.17-96.72,156.06-96.72c88.52,0,124.55,50.3,138.76,83.89v4.5l-6.1,1.83-6.1,152.4h71.94L437.46,193l-4.88-1.22V153.15s23.17-96.72,156.06-96.72c88.17,0,124.27,49.9,138.59,83.5v4.89l-6.09,1.83L715,299.05H787L780.88,193,776,191.76V153.15s23.17-96.72,156.06-96.72c88.52,0,124.55,50.3,138.76,83.89v4.5l-6.1,1.83-6.1,152.4h71.94L1124.46,193l-4.88-1.22V153.15s23.17-96.72,156.06-96.72c77.66,0,114.92,38.71,132.49,70.9v12.41Z"/>
        <path class="cls-2" d="M1421.48,141.83,1402.79,298.7H1512l.67-95.75-8.15-3.63-5.72-76.15-26.8-1.56,3-31.33-1.33-20.67-8.1-3.31-2.57-61L1456.42,0l-23.76.4-3.86,4.88V22H1320.69l-1.22-4.88-179.22,1.19V4.88L1135.37,0h-39l-4.88,4.88V11H977.11l-1.22,6.12L796.67,18.26V4.88c-1.91-1.91-3-3-4.88-4.88h-39c-1.91,1.9-3,3-4.88,4.88V22H633.69l-1.22-4.88L453.25,18.26V4.88L448.37,0h-39l-4.88,4.88V22H290.11l-1.22-4.88L109.67,18.26V4.88L104.79,0h-39c-1.91,1.9-3,3-4.88,4.88V22H20.67L28,56.08H60.9v88.39l-6.1,1.83L48.71,298.7h71.93l-6.1-106.07-4.87-1.22v-38.6s23.16-96.73,156.05-96.73c88.52,0,124.56,50.3,138.76,83.89v4.5l-6.09,1.83-6.1,152.4h71.93l-6.09-106.07-4.88-1.22v-38.6s23.17-96.73,156.06-96.73c88.17,0,124.27,49.91,138.59,83.5v4.89l-6.1,1.83-6.09,152.4h71.93l-6.1-106.07-4.87-1.22v-38.6s23.16-96.73,156.05-96.73c88.52,0,124.56,50.3,138.76,83.89v4.5l-6.09,1.83-6.1,152.4h71.93l-6.09-106.07-4.88-1.22v-38.6s23.17-96.73,156.06-96.73c77.66,0,114.92,38.72,132.49,70.9v12.41Z"/>
      </g>
    </g>
  </g>
</svg>
