<svg xmlns="http://www.w3.org/2000/svg" xmlns:xlink="http://www.w3.org/1999/xlink" width="138.992" height="212.954" viewBox="0 0 138.992 212.954">
  <defs>
    <linearGradient id="a" x1="-49.223" y1="106.477" x2="247.57" y2="106.477" gradientUnits="userSpaceOnUse">
      <stop offset="0" stop-color="#998675"/>
      <stop offset="1" stop-color="#c7b299"/>
    </linearGradient>
  </defs>
  <title>Ruins_2</title>
  <g>
    <polygon points="71.56 0 97.707 0 56.25 33.802 60.809 8.773 71.56 0" fill="#847263"/>
    <polygon points="112.845 212.954 101.147 90.826 84.633 90.826 71.56 0 9.633 5.505 11.009 136.239 23.395 138.303 23.395 165.827 0 167.891 0 212.954 112.845 212.954" fill="#847263"/>
    <polygon points="138.992 212.954 127.294 90.826 110.78 90.826 97.707 0 35.78 5.505 37.156 136.239 49.542 138.303 49.542 165.827 26.147 167.891 26.147 212.954 138.992 212.954" fill="url(#a)"/>
  </g>
</svg>
