<svg xmlns="http://www.w3.org/2000/svg" xmlns:xlink="http://www.w3.org/1999/xlink" width="767.8" height="671.78" viewBox="0 0 767.8 671.78">
  <defs>
    <style>
      .cls-1 {
        fill: #4f453c;
      }

      .cls-2 {
        fill: url(#linear-gradient);
      }

      .cls-3 {
        fill: url(#linear-gradient-2);
      }

      .cls-4 {
        fill: url(#linear-gradient-3);
      }

      .cls-5 {
        fill: url(#linear-gradient-4);
      }

      .cls-6 {
        fill: url(#linear-gradient-5);
      }

      .cls-7 {
        fill: url(#linear-gradient-6);
      }

      .cls-8 {
        fill: url(#linear-gradient-7);
      }

      .cls-9 {
        fill: url(#linear-gradient-8);
      }
    </style>
    <linearGradient id="linear-gradient" x1="-16.84" y1="427.59" x2="782.51" y2="427.59" gradientUnits="userSpaceOnUse">
      <stop offset="0" stop-color="#695d51"/>
      <stop offset="1" stop-color="#7d7060"/>
    </linearGradient>
    <linearGradient id="linear-gradient-2" x1="-16.84" y1="409.77" x2="782.51" y2="409.77" xlink:href="#linear-gradient"/>
    <linearGradient id="linear-gradient-3" x1="-16.84" y1="344.8" x2="782.51" y2="344.8" xlink:href="#linear-gradient"/>
    <linearGradient id="linear-gradient-4" x1="-16.84" y1="447.5" x2="782.51" y2="447.5" xlink:href="#linear-gradient"/>
    <linearGradient id="linear-gradient-5" x1="-16.84" y1="47.16" x2="782.51" y2="47.16" xlink:href="#linear-gradient"/>
    <linearGradient id="linear-gradient-6" x1="-16.84" y1="52.4" x2="782.51" y2="52.4" xlink:href="#linear-gradient"/>
    <linearGradient id="linear-gradient-7" x1="-16.84" y1="180.26" x2="782.51" y2="180.26" xlink:href="#linear-gradient"/>
    <linearGradient id="linear-gradient-8" x1="-16.84" y1="565.93" x2="782.51" y2="565.93" xlink:href="#linear-gradient"/>
  </defs>
  <title>Ruins_9</title>
  <g id="Layer_2" data-name="Layer 2">
    <g id="_0" data-name="0">
      <g>
        <polygon class="cls-1" points="614.79 77.55 600.05 81.21 600.05 194.19 621.69 172.55 614.79 77.55"/>
        <polygon class="cls-1" points="58.3 183.4 34.54 186.88 34.54 457.13 22.35 461.13 0 670.73 119.08 670.73 217.83 250.68 187.2 2.1 162.15 2.1 153.66 12.58 124.36 12.58 124.36 65.77 144.23 79.18 154.43 90.97 154.43 147.77 113.79 147.77 113.79 232.39 72.97 232.39 58.3 183.4"/>
        <g>
          <rect class="cls-2" x="58.3" y="183.4" width="29.34" height="488.37"/>
          <rect class="cls-3" x="144.23" y="147.77" width="377.28" height="524.01"/>
          <rect class="cls-4" x="186.15" y="17.82" width="303.92" height="653.96"/>
          <rect class="cls-5" x="81.35" y="223.23" width="603.66" height="448.55"/>
          <polygon class="cls-6" points="195.59 92.22 168.34 67.07 164.15 67.07 153.66 60.78 153.66 12.58 183.01 12.58 187.2 2.1 250.08 2.1 254.28 12.58 285.71 12.58 287.81 23.06 195.59 92.22"/>
          <polygon class="cls-7" points="417.76 23.06 421.96 10.48 428.25 10.48 434.53 0 489.03 0 497.41 14.67 497.41 20.96 514.18 20.96 518.37 62.88 514.18 69.17 505.8 69.17 476.45 104.8 417.76 23.06"/>
          <path class="cls-8" d="M482.74,138.34l41.92,6.29L531,182.35h58.69l25.15-14.67V77.55h16.77V109H767.8v16.77s-77.55,0-77.55,75.46l4.19,4.19-2.1,14.67,2.1,16.77,8.38,2.1,2.1,8.38-12.58,2.1L679.77,283H474.36V138.34Z"/>
          <polygon class="cls-9" points="67.73 461.13 50.96 469.51 42.58 670.73 78.73 670.73 67.73 461.13"/>
        </g>
      </g>
    </g>
  </g>
</svg>
