<svg xmlns="http://www.w3.org/2000/svg" xmlns:xlink="http://www.w3.org/1999/xlink" width="241.81" height="269.03" viewBox="0 0 241.81 269.03">
  <defs>
    <style>
      .cls-1 {
        fill: #4f453c;
      }

      .cls-2 {
        fill: url(#linear-gradient);
      }
    </style>
    <linearGradient id="linear-gradient" x1="-6.73" y1="134.51" x2="276.33" y2="134.51" gradientUnits="userSpaceOnUse">
      <stop offset="0" stop-color="#695d51"/>
      <stop offset="1" stop-color="#7d7060"/>
    </linearGradient>
  </defs>
  <title>Ruins_11</title>
  <g id="Layer_2" data-name="Layer 2">
    <g id="_0" data-name="0">
      <g>
        <path class="cls-1" d="M65.43,269V74c0-57.3-40.23-62.17-62.18-62.17L0,0H88.19l2.44,28,12.6,1.22,5.68,93.07,33.33,4.87,2.84-18.29h37.39l.82,27.64,7.72,1.63L199.14,228l11.78.81L213.77,269Z"/>
        <path class="cls-2" d="M93.47,269V74c0-57.3-40.23-62.17-62.18-62.17L28,0h88.19l2.44,28,12.6,1.22L137,122.33l33.32,4.87,2.85-18.29h37.38l.82,27.64,7.72,1.63L227.18,228l11.78.81L241.81,269Z"/>
      </g>
    </g>
  </g>
</svg>
