<svg xmlns="http://www.w3.org/2000/svg" xmlns:xlink="http://www.w3.org/1999/xlink" width="1512.615" height="299.051" viewBox="0 0 1512.615 299.051">
  <defs>
    <linearGradient id="a" x1="20.667" y1="149.351" x2="1512.615" y2="149.351" gradientUnits="userSpaceOnUse">
      <stop offset="0" stop-color="#998675"/>
      <stop offset="1" stop-color="#c7b299"/>
    </linearGradient>
  </defs>
  <title>Ruins_20</title>
  <g>
    <path d="M1400.813,142.176l-18.694,156.875h109.163l.667-95.755-8.142-3.631-5.727-76.143-26.8-1.56,3-31.333-1.333-20.667-8.1-3.315-2.572-61.018L1432.656.4,1411.989.75l-3.86,4.877V22.294h-108.1l-1.219-4.877L1119.585,18.6V5.226L1114.708.349h-39.014l-4.877,4.877v6.068H956.442l-1.219,6.123L776,18.6V5.226L771.125.349H732.11l-4.877,4.877V22.294H613.025l-1.219-4.877L432.585,18.6V5.226L427.708.349H388.694l-4.877,4.877V22.294H269.442l-1.219-4.877L89,18.6V5.226L84.125.349H45.11L40.233,5.226V22.294H0L7.315,56.432H40.233v88.391l-6.1,1.829-6.095,152.4H99.974l-6.1-106.069L89,191.762V153.154s23.165-96.722,156.057-96.722c88.518,0,124.555,50.3,138.759,83.891v4.5l-6.1,1.829-6.1,152.4h71.932l-6.1-106.069-4.876-1.22V153.154s23.164-96.722,156.056-96.722c88.169,0,124.272,49.9,138.592,83.495v4.9l-6.1,1.829-6.095,152.4h71.932l-6.1-106.069L776,191.762V153.154s23.165-96.722,156.057-96.722c88.518,0,124.555,50.3,138.759,83.891v4.5l-6.1,1.829-6.1,152.4h71.932l-6.1-106.069-4.876-1.22V153.154s23.164-96.722,156.056-96.722c77.658,0,114.921,38.712,132.488,70.9v12.409Z" fill="#847263"/>
    <path d="M1421.48,141.828,1402.786,298.7h109.163l.666-95.756-8.142-3.631-5.727-76.142-26.8-1.561,3-31.333-1.334-20.667-8.094-3.315L1462.949,5.28,1456.42,0l-23.764.4L1428.8,5.278V21.946h-108.1l-1.219-4.877-179.222,1.187V4.877L1135.374,0H1096.36l-4.877,4.877v6.069H977.109l-1.219,6.123L796.668,18.256V4.877L791.791,0H752.777L747.9,4.877V21.946H633.692l-1.219-4.877L453.251,18.256V4.877L448.374,0H409.36l-4.877,4.877V21.946H290.109l-1.219-4.877L109.668,18.256V4.877L104.791,0H65.777L60.9,4.877V21.946H20.667l7.315,34.137H60.9v88.392L54.8,146.3l-6.1,152.4h71.933l-6.1-106.07-4.877-1.219V152.806s23.165-96.723,156.057-96.723c88.518,0,124.554,50.3,138.758,83.891v4.5l-6.1,1.828-6.1,152.4h71.932l-6.1-106.07-4.877-1.219V152.806s23.165-96.723,156.057-96.723c88.169,0,124.272,49.9,138.592,83.5v4.9l-6.1,1.828-6.1,152.4h71.933l-6.1-106.07-4.877-1.219V152.806s23.165-96.723,156.057-96.723c88.518,0,124.554,50.3,138.758,83.891v4.5l-6.1,1.828-6.1,152.4h71.932l-6.1-106.07-4.877-1.219V152.806s23.165-96.723,156.057-96.723c77.658,0,114.92,38.713,132.487,70.9v12.409Z" fill="url(#a)"/>
  </g>
</svg>
