<svg xmlns="http://www.w3.org/2000/svg" xmlns:xlink="http://www.w3.org/1999/xlink" width="157.177" height="271.462" viewBox="0 0 157.177 271.462">
  <defs>
    <linearGradient id="a" x1="2.977" y1="135.731" x2="178.599" y2="135.731" gradientUnits="userSpaceOnUse">
      <stop offset="0" stop-color="#998675"/>
      <stop offset="1" stop-color="#c7b299"/>
    </linearGradient>
  </defs>
  <title>Ruins_7</title>
  <g>
    <polygon points="11.852 0 117.953 0 114.567 110.052 125.855 111.745 132.627 271.462 86.913 271.462 80.705 179.47 64.338 178.341 60.952 198.658 41.199 199.787 38.377 271.462 0 271.462 2.257 105.537 14.109 104.408 11.852 0" fill="#847263"/>
    <polygon points="36.402 0 142.503 0 139.117 110.052 150.405 111.745 157.177 271.462 111.463 271.462 105.255 179.47 88.888 178.341 85.502 198.658 65.749 199.787 62.927 271.462 24.55 271.462 26.808 105.537 38.659 104.408 36.402 0" fill="url(#a)"/>
  </g>
</svg>
