<svg xmlns="http://www.w3.org/2000/svg" xmlns:xlink="http://www.w3.org/1999/xlink" width="151.72" height="351.44" viewBox="0 0 151.72 351.44">
  <defs>
    <style>
      .cls-1 {
        fill: #4f453c;
      }

      .cls-2 {
        fill: url(#linear-gradient);
      }
    </style>
    <linearGradient id="linear-gradient" x1="10.12" y1="175.72" x2="171.39" y2="175.72" gradientUnits="userSpaceOnUse">
      <stop offset="0" stop-color="#695d51"/>
      <stop offset="1" stop-color="#7d7060"/>
    </linearGradient>
  </defs>
  <title>Ruins_8</title>
  <g id="Layer_2" data-name="Layer 2">
    <g id="_0" data-name="0">
      <g>
        <polygon class="cls-1" points="0 351.44 121.79 351.44 116.11 222.42 109.4 217.26 114.05 105.28 121.79 104.24 121.79 7.74 101.66 6.19 109.4 0 69.67 0 66.06 20.64 37.16 21.67 29.93 160.49 5.16 163.59 0 351.44"/>
        <polygon class="cls-2" points="29.93 351.44 151.72 351.44 146.04 222.42 139.34 217.26 143.98 105.28 151.72 104.24 151.72 7.74 131.59 6.19 129.01 0 99.6 0 95.99 20.64 67.09 21.67 59.86 160.49 35.09 163.59 29.93 351.44"/>
      </g>
    </g>
  </g>
</svg>
