<svg xmlns="http://www.w3.org/2000/svg" xmlns:xlink="http://www.w3.org/1999/xlink" width="629.761" height="551" viewBox="0 0 629.761 551">
  <defs>
    <linearGradient id="a" x1="-13.812" y1="350.715" x2="641.826" y2="350.715" gradientUnits="userSpaceOnUse">
      <stop offset="0" stop-color="#998675"/>
      <stop offset="1" stop-color="#c7b299"/>
    </linearGradient>
    <linearGradient id="b" x1="-13.812" y1="336.101" x2="641.826" y2="336.101" xlink:href="#a"/>
    <linearGradient id="c" x1="-13.812" y1="282.807" x2="641.826" y2="282.807" xlink:href="#a"/>
    <linearGradient id="d" x1="-13.812" y1="367.047" x2="641.826" y2="367.047" xlink:href="#a"/>
    <linearGradient id="e" x1="-13.812" y1="38.682" x2="641.826" y2="38.682" xlink:href="#a"/>
    <linearGradient id="f" x1="-13.812" y1="42.98" x2="641.826" y2="42.98" xlink:href="#a"/>
    <linearGradient id="g" x1="-13.812" y1="147.85" x2="641.826" y2="147.85" xlink:href="#a"/>
    <linearGradient id="h" x1="-13.812" y1="464.181" x2="641.826" y2="464.181" xlink:href="#a"/>
  </defs>
  <title>Ruins_10</title>
  <g>
    <polygon points="504.26 63.61 492.167 66.613 492.167 159.28 509.917 141.53 504.26 63.61" fill="#847263"/>
    <polygon points="47.815 150.429 28.333 153.28 28.333 374.946 18.333 378.222 0 550.14 97.667 550.14 178.667 205.613 153.545 1.719 133 1.719 126.038 10.315 102 10.315 102 53.946 118.302 64.946 126.667 74.613 126.667 121.203 93.333 121.203 93.333 190.613 59.85 190.613 47.815 150.429" fill="#847263"/>
    <g>
      <rect x="47.815" y="150.429" width="24.069" height="400.571" fill="url(#a)"/>
      <rect x="118.302" y="121.203" width="309.454" height="429.797" fill="url(#b)"/>
      <rect x="152.686" y="14.613" width="249.282" height="536.387" fill="url(#c)"/>
      <rect x="66.726" y="183.094" width="495.126" height="367.906" fill="url(#d)"/>
      <polygon points="160.422 75.644 138.073 55.014 134.634 55.014 126.038 49.856 126.038 10.315 150.107 10.315 153.545 1.719 205.121 1.719 208.56 10.315 234.347 10.315 236.067 18.911 160.422 75.644" fill="url(#e)"/>
      <polygon points="342.656 18.911 346.095 8.596 351.252 8.596 356.41 0 401.109 0 407.985 12.034 407.985 17.192 421.739 17.192 425.177 51.576 421.739 56.733 414.862 56.733 390.794 85.959 342.656 18.911" fill="url(#f)"/>
      <path d="M395.951,113.466l34.384,5.158,5.157,30.945H483.63l20.63-12.034V63.61h13.754V89.4H629.761v13.753s-63.61,0-63.61,61.891l3.438,3.438-1.719,12.035,1.719,13.753,6.877,1.72,1.719,6.876-10.315,1.719L557.555,232.09H389.074V113.466Z" fill="url(#g)"/>
      <polygon points="55.552 378.222 41.798 385.098 34.921 550.14 64.577 550.14 55.552 378.222" fill="url(#h)"/>
    </g>
  </g>
</svg>
