<svg xmlns="http://www.w3.org/2000/svg" xmlns:xlink="http://www.w3.org/1999/xlink" width="478.37" height="258.14" viewBox="0 0 478.37 258.14">
  <defs>
    <style>
      .cls-1 {
        fill: url(#linear-gradient);
      }

      .cls-2 {
        fill: #4f453c;
      }

      .cls-3 {
        fill: #3d2d1d;
      }

      .cls-4 {
        fill: #47331f;
      }

      .cls-5 {
        fill: url(#linear-gradient-2);
      }

      .cls-6 {
        fill: #847263;
      }
    </style>
    <linearGradient id="linear-gradient" x1="109.39" y1="18.71" x2="133.72" y2="18.71" gradientUnits="userSpaceOnUse">
      <stop offset="0" stop-color="#695d51"/>
      <stop offset="1" stop-color="#7d7060"/>
    </linearGradient>
    <linearGradient id="linear-gradient-2" x1="21.65" y1="129.07" x2="442.37" y2="129.07" xlink:href="#linear-gradient"/>
  </defs>
  <title>Ruins_28</title>
  <g id="Layer_2" data-name="Layer 2">
    <g id="_0" data-name="0">
      <g>
        <polygon class="cls-1" points="109.39 3.5 128.56 4.25 133.72 33.92 112.39 32.58 109.39 3.5"/>
        <polygon class="cls-2" points="167.06 44.25 140.75 44.25 141.14 28.5 113.89 28.25 109.39 3.5 85.11 3.5 80.93 35.5 74.6 38.17 72.6 77.49 65.6 78.83 54.6 144.17 37.27 147.84 42.6 205.17 33.93 206.5 29.27 225.5 0.71 229.07 0 258.14 174.03 258.14 167.06 44.25"/>
        <g>
          <polygon class="cls-3" points="85.47 63.49 85.47 77.49 100.22 77.49 100.22 62.99 85.47 63.49"/>
          <polygon class="cls-4" points="100.22 62.99 109.39 63.55 109.39 77.13 100.22 77.49 100.22 62.99"/>
        </g>
        <polygon class="cls-2" points="191.14 0 172.02 0.42 167.22 30.58 192.06 30.58 191.14 0"/>
        <polygon class="cls-2" points="300.39 0 276.39 1.25 271.39 36.08 301.39 34.25 300.39 0"/>
        <path class="cls-5" d="M469.93,147.17,460.6,93.84l-22,.66L431.6,63l-1-15.49-21.67-1L405.56,31H363.64L359.39.5l-59-.5-3,29.25-56,1.5L238.39,0H191.14l-4,28.5h-46l-1.6,15.75-5.21,213.89h76.09l5.5-144.77h48.46l3.5,144.77H478.37l-3.6-110.57ZM352.56,189l-1.27-58.71,43.7.84,3.41,58.71Z"/>
        <g>
          <polygon class="cls-6" points="394.99 131.1 394.99 131.12 401.12 131.23 394.99 131.1"/>
          <polygon class="cls-6" points="405.55 189.97 398.4 189.83 398.4 189.83 405.55 189.97"/>
          <polygon class="cls-2" points="401.12 131.23 394.99 131.12 398.4 189.83 405.55 189.97 401.12 131.23"/>
        </g>
        <polygon class="cls-2" points="273.89 113.37 264.38 113.37 267.88 258.14 281.51 258.14 273.89 113.37"/>
        <g>
          <g>
            <polygon class="cls-3" points="170.14 63.49 170.14 77.49 178.89 77.49 178.89 62.99 170.14 63.49"/>
            <polygon class="cls-4" points="178.89 62.99 194.06 62.99 194.06 77.99 178.89 77.49 178.89 62.99"/>
          </g>
          <g>
            <polygon class="cls-3" points="256.14 63.49 256.14 77.49 264.89 77.49 264.89 62.99 256.14 63.49"/>
            <polygon class="cls-4" points="264.89 62.99 280.06 64.24 278.56 77.57 264.89 77.49 264.89 62.99"/>
          </g>
          <g>
            <polygon class="cls-3" points="342.14 63.49 342.14 77.49 350.89 77.49 350.89 62.99 342.14 63.49"/>
            <polygon class="cls-4" points="350.89 62.99 366.06 62.99 366.06 76.57 350.89 77.49 350.89 62.99"/>
          </g>
        </g>
      </g>
    </g>
  </g>
</svg>
