<svg xmlns="http://www.w3.org/2000/svg" xmlns:xlink="http://www.w3.org/1999/xlink" width="627.499" height="571.907" viewBox="0 0 627.499 571.907">
  <defs>
    <linearGradient id="a" x1="25.499" y1="285.954" x2="1632.841" y2="285.954" gradientUnits="userSpaceOnUse">
      <stop offset="0" stop-color="#998675"/>
      <stop offset="1" stop-color="#c7b299"/>
    </linearGradient>
  </defs>
  <title>Ruins_19</title>
  <g>
    <path d="M598.5,54,602,0H5L7.5,54l14.333.023v132L0,187.5l3,33,18.833,1.37v18.364L12.5,241.5V301l8.747,1.886-.381,26.4H53.785v88.392l-6.1,1.829-6.1,152.4H153.525l-6.1-106.07-4.877-1.219V426.01s23.165-96.723,156.057-96.723c88.518,0,124.555,50.3,138.759,83.892v4.5l-6.1,1.829-6.1,152.4h71.933l-6.1-106.07-4.877-1.219V426.01s9.085-37.861,48.432-66.207l-4.625-42.615,31.224-3.021V303.5l11.333-9.333V272.409l12-1.909,7-43.5-19-1.393V56.925ZM202.333,189.5h-72V104a36,36,0,0,1,36-36h0a36,36,0,0,1,36,36Zm266,0h-72V104a36,36,0,0,1,36-36h0a36,36,0,0,1,36,36Z" fill="#847263"/>
    <path d="M624,54l3.5-54H30.5L33,54l14.333.023v132L25.5,187.5l3,33,18.833,1.37v18.364L38,241.5V301l8.747,1.886-.381,26.4H79.283v88.392l-6.1,1.829-6.1,152.4H179.024l-6.1-106.07-4.877-1.219V426.01s23.165-96.723,156.057-96.723c88.518,0,124.555,50.3,138.759,83.892v4.5l-6.1,1.829-6.1,152.4h71.932l-6.1-106.07-4.877-1.219V426.01s9.086-37.861,48.433-66.207l-4.625-42.615,31.223-3.021V303.5L598,294.167V272.409l12-1.909,7-43.5-19-1.393V56.925ZM227.832,189.5h-72V104a36,36,0,0,1,36-36h0a36,36,0,0,1,36,36Zm266,0h-72V104a36,36,0,0,1,36-36h0a36,36,0,0,1,36,36Z" fill="url(#a)"/>
    <g>
      <g>
        <polygon points="105.744 258.917 105.744 272.917 114.494 272.917 114.494 258.417 105.744 258.917" fill="#66421f"/>
        <polygon points="114.494 258.417 129.661 259.104 129.661 272.687 114.494 272.917 114.494 258.417" fill="#754c24"/>
      </g>
      <g>
        <polygon points="191.744 258.917 191.744 272.917 200.494 272.917 200.494 258.417 191.744 258.917" fill="#66421f"/>
        <polygon points="200.494 258.417 215.661 259.167 215.661 273 200.494 272.917 200.494 258.417" fill="#754c24"/>
      </g>
      <g>
        <polygon points="277.744 258.917 277.744 272.917 286.494 272.917 286.494 258.417 277.744 258.917" fill="#66421f"/>
        <polygon points="286.494 258.417 301.661 258.417 301.661 273.417 286.494 272.917 286.494 258.417" fill="#754c24"/>
      </g>
      <g>
        <polygon points="363.744 258.917 363.744 272.917 372.494 272.917 372.494 258.417 363.744 258.917" fill="#66421f"/>
        <polygon points="372.494 258.417 387.661 259.667 386.161 273 372.494 272.917 372.494 258.417" fill="#754c24"/>
      </g>
      <g>
        <polygon points="449.744 258.917 449.744 272.917 458.494 272.917 458.494 258.417 449.744 258.917" fill="#66421f"/>
        <polygon points="458.494 258.417 473.661 258.417 473.661 272 458.494 272.917 458.494 258.417" fill="#754c24"/>
      </g>
      <g>
        <polygon points="535.744 258.917 535.744 272.917 544.494 272.917 544.494 258.417 535.744 258.917" fill="#66421f"/>
        <polygon points="544.494 258.417 559.661 258.417 559.661 272 544.494 272.917 544.494 258.417" fill="#754c24"/>
      </g>
    </g>
    <g>
      <g>
        <polygon points="60.911 21.25 60.911 35.25 69.661 35.25 69.661 20.75 60.911 21.25" fill="#66421f"/>
        <polygon points="69.661 20.75 84.828 20.75 84.994 35.25 69.661 35.25 69.661 20.75" fill="#754c24"/>
      </g>
      <g>
        <polygon points="146.911 21.25 146.911 35.25 155.661 35.25 155.661 20.75 146.911 21.25" fill="#66421f"/>
        <polygon points="155.661 20.75 170.828 21.438 170.828 35.021 155.661 35.25 155.661 20.75" fill="#754c24"/>
      </g>
      <g>
        <polygon points="232.911 21.25 232.911 35.25 241.661 35.25 241.661 20.75 232.911 21.25" fill="#66421f"/>
        <polygon points="241.661 20.75 256.828 21.5 256.828 35.333 241.661 35.25 241.661 20.75" fill="#754c24"/>
      </g>
      <g>
        <polygon points="318.911 21.25 318.911 35.25 327.661 35.25 327.661 20.75 318.911 21.25" fill="#66421f"/>
        <polygon points="327.661 20.75 342.828 20.75 342.828 35.75 327.661 35.25 327.661 20.75" fill="#754c24"/>
      </g>
      <g>
        <polygon points="404.911 21.25 404.911 35.25 413.661 35.25 413.661 20.75 404.911 21.25" fill="#66421f"/>
        <polygon points="413.661 20.75 428.828 22 427.328 35.333 413.661 35.25 413.661 20.75" fill="#754c24"/>
      </g>
      <g>
        <polygon points="490.911 21.25 490.911 35.25 499.661 35.25 499.661 20.75 490.911 21.25" fill="#66421f"/>
        <polygon points="499.661 20.75 514.828 20.75 514.828 34.333 499.661 35.25 499.661 20.75" fill="#754c24"/>
      </g>
      <g>
        <polygon points="576.911 21.25 576.911 35.25 585.661 35.25 585.661 20.75 576.911 21.25" fill="#66421f"/>
        <polygon points="585.661 20.75 600.828 20.75 600.828 34.333 585.661 35.25 585.661 20.75" fill="#754c24"/>
      </g>
    </g>
  </g>
</svg>
