<svg xmlns="http://www.w3.org/2000/svg" xmlns:xlink="http://www.w3.org/1999/xlink" width="241.807" height="269.029" viewBox="0 0 241.807 269.029">
  <defs>
    <linearGradient id="a" x1="-6.73" y1="134.514" x2="276.335" y2="134.514" gradientUnits="userSpaceOnUse">
      <stop offset="0" stop-color="#998675"/>
      <stop offset="1" stop-color="#c7b299"/>
    </linearGradient>
  </defs>
  <title>Ruins_11</title>
  <g>
    <path d="M65.43,269.029V73.964c0-57.3-40.233-62.178-62.179-62.178L0,0H88.188l2.439,28.041,12.6,1.22,5.69,93.065,33.324,4.877,2.845-18.288h37.389l.813,27.635,7.721,1.625,8.128,89.814,11.786.813,2.844,40.227Z" fill="#847263"/>
    <path d="M93.472,269.029V73.964c0-57.3-40.234-62.178-62.179-62.178L28.041,0H116.23l2.438,28.041,12.6,1.22,5.689,93.065,33.325,4.877,2.845-18.288h37.388l.813,27.635,7.722,1.625,8.128,89.814,11.785.813,2.845,40.227Z" fill="url(#a)"/>
  </g>
</svg>
