<svg xmlns="http://www.w3.org/2000/svg" xmlns:xlink="http://www.w3.org/1999/xlink" width="592.999" height="1125.886" viewBox="0 0 592.999 1125.886">
  <defs>
    <linearGradient id="a" x1="13.5" y1="562.943" x2="227.928" y2="562.943" gradientUnits="userSpaceOnUse">
      <stop offset="0" stop-color="#998675"/>
      <stop offset="1" stop-color="#c7b299"/>
    </linearGradient>
    <linearGradient id="b" x1="197.666" y1="562.943" x2="592.999" y2="562.943" xlink:href="#a"/>
  </defs>
  <title>Ruins_23</title>
  <g>
    <g>
      <path d="M227.928,0H20.212L13.5,23.667l6.712,23.666H38.666v222.3H20.212L13.5,293.305l6.712,23.666H38.666v222.3H20.212L13.5,562.943l6.712,23.667H38.666v222.3H20.212L13.5,832.581l6.712,23.667H38.666v222.305H20.212L13.5,1102.219l6.712,23.667H227.928ZM109.342,1030.3H88.8V925.88c0-11.81,4.6-21.38,10.273-21.38s10.268,9.57,10.268,21.38Zm0-269.638H88.8V656.242c0-11.81,4.6-21.38,10.273-21.38s10.268,9.57,10.268,21.38Zm0-269.638H88.8V386.6c0-11.81,4.6-21.38,10.273-21.38s10.268,9.57,10.268,21.38Zm0-269.638H88.8V116.966c0-11.81,4.6-21.38,10.273-21.38s10.268,9.57,10.268,21.38Zm69.19,808.914H157.986V925.88c0-11.81,4.6-21.38,10.273-21.38s10.273,9.57,10.273,21.38Zm0-269.638H157.986V656.242c0-11.81,4.6-21.38,10.273-21.38s10.273,9.57,10.273,21.38Zm0-269.638H157.986V386.6c0-11.81,4.6-21.38,10.273-21.38s10.273,9.57,10.273,21.38ZM157.986,221.386V116.966c0-11.81,4.6-21.38,10.273-21.38s10.273,9.57,10.273,21.38v104.42Z" fill="url(#a)"/>
      <path d="M561.621,316.971l6.712-23.666-6.712-23.667H543.167V47.333h18.454l6.712-23.666L561.621,0H6.712L0,23.667,6.712,47.333H25.167v222.3H6.712L0,293.305l6.712,23.666H25.167v222.3H6.712L0,562.943,6.712,586.61H25.167v222.3H6.712L0,832.581l6.712,23.667H25.167v222.305H6.712L0,1102.219l6.712,23.667H561.621l6.712-23.667-6.712-23.666H543.167V856.248h18.454l6.712-23.667-6.712-23.667H543.167V586.61h18.454l6.712-23.667-6.712-23.667H543.167v-222.3ZM95.842,1030.3H75.3V925.88c0-11.81,4.6-21.38,10.273-21.38s10.267,9.57,10.267,21.38Zm0-269.638H75.3V656.242c0-11.81,4.6-21.38,10.273-21.38s10.267,9.57,10.267,21.38Zm0-269.638H75.3V386.6c0-11.81,4.6-21.38,10.273-21.38s10.267,9.57,10.267,21.38Zm0-269.638H75.3V116.966c0-11.81,4.6-21.38,10.273-21.38s10.267,9.57,10.267,21.38Zm69.19,808.914H144.487V925.88c0-11.81,4.6-21.38,10.273-21.38s10.272,9.57,10.272,21.38Zm0-269.638H144.487V656.242c0-11.81,4.6-21.38,10.273-21.38s10.272,9.57,10.272,21.38Zm0-269.638H144.487V386.6c0-11.81,4.6-21.38,10.273-21.38s10.272,9.57,10.272,21.38Zm0-269.638H144.487V116.966c0-11.81,4.6-21.38,10.273-21.38s10.272,9.57,10.272,21.38ZM313.547,1030.3H270.793V925.874a21.377,21.377,0,0,1,42.754,0Zm0-269.638H270.793V656.236a21.377,21.377,0,0,1,42.754,0Zm0-269.639H270.793V386.6a21.377,21.377,0,0,1,42.754,0Zm0-269.638H270.793V116.96a21.377,21.377,0,0,1,42.754,0ZM457.54,1030.3H414.786V925.874a21.377,21.377,0,0,1,42.754,0Zm0-269.638H414.786V656.236a21.377,21.377,0,0,1,42.754,0Zm0-269.639H414.786V386.6a21.377,21.377,0,1,1,42.754,0Zm0-269.638H414.786V116.96a21.377,21.377,0,1,1,42.754,0Z" fill="#847263"/>
      <g>
        <g>
          <polygon points="150.668 1048.731 150.668 1062.731 159.527 1062.731 159.527 1048.231 150.668 1048.731" fill="#66421f"/>
          <polygon points="159.527 1048.231 165.032 1048.794 165.032 1062.377 159.527 1062.731 159.527 1048.231" fill="#754c24"/>
        </g>
        <g>
          <polygon points="108.025 1048.731 108.025 1062.731 116.884 1062.731 116.884 1048.231 108.025 1048.731" fill="#66421f"/>
          <polygon points="116.884 1048.231 122.39 1048.794 122.39 1062.377 116.884 1062.731 116.884 1048.231" fill="#754c24"/>
        </g>
        <g>
          <polygon points="66.532 1048.731 66.532 1062.731 75.391 1062.731 75.391 1048.231 66.532 1048.731" fill="#66421f"/>
          <polygon points="75.391 1048.231 80.897 1048.794 80.897 1062.377 75.391 1062.731 75.391 1048.231" fill="#754c24"/>
        </g>
      </g>
      <g>
        <g>
          <polygon points="150.668 778.843 150.668 792.843 159.527 792.843 159.527 778.343 150.668 778.843" fill="#66421f"/>
          <polygon points="159.527 778.343 165.032 778.906 165.032 792.489 159.527 792.843 159.527 778.343" fill="#754c24"/>
        </g>
        <g>
          <polygon points="108.025 778.843 108.025 792.843 116.884 792.843 116.884 778.343 108.025 778.843" fill="#66421f"/>
          <polygon points="116.884 778.343 122.39 778.906 122.39 792.489 116.884 792.843 116.884 778.343" fill="#754c24"/>
        </g>
        <g>
          <polygon points="66.532 778.843 66.532 792.843 75.391 792.843 75.391 778.343 66.532 778.843" fill="#66421f"/>
          <polygon points="75.391 778.343 80.897 778.906 80.897 792.489 75.391 792.843 75.391 778.343" fill="#754c24"/>
        </g>
      </g>
      <g>
        <g>
          <polygon points="150.668 508.955 150.668 522.955 159.527 522.955 159.527 508.455 150.668 508.955" fill="#66421f"/>
          <polygon points="159.527 508.455 165.032 509.018 165.032 522.601 159.527 522.955 159.527 508.455" fill="#754c24"/>
        </g>
        <g>
          <polygon points="108.025 508.955 108.025 522.955 116.884 522.955 116.884 508.455 108.025 508.955" fill="#66421f"/>
          <polygon points="116.884 508.455 122.39 509.018 122.39 522.601 116.884 522.955 116.884 508.455" fill="#754c24"/>
        </g>
        <g>
          <polygon points="66.532 508.955 66.532 522.955 75.391 522.955 75.391 508.455 66.532 508.955" fill="#66421f"/>
          <polygon points="75.391 508.455 80.897 509.018 80.897 522.601 75.391 522.955 75.391 508.455" fill="#754c24"/>
        </g>
      </g>
      <g>
        <g>
          <polygon points="150.668 239.067 150.668 253.067 159.527 253.067 159.527 238.567 150.668 239.067" fill="#66421f"/>
          <polygon points="159.527 238.567 165.032 239.129 165.032 252.713 159.527 253.067 159.527 238.567" fill="#754c24"/>
        </g>
        <g>
          <polygon points="108.025 239.067 108.025 253.067 116.884 253.067 116.884 238.567 108.025 239.067" fill="#66421f"/>
          <polygon points="116.884 238.567 122.39 239.129 122.39 252.713 116.884 253.067 116.884 238.567" fill="#754c24"/>
        </g>
        <g>
          <polygon points="66.532 239.067 66.532 253.067 75.391 253.067 75.391 238.567 66.532 239.067" fill="#66421f"/>
          <polygon points="75.391 238.567 80.897 239.129 80.897 252.713 75.391 253.067 75.391 238.567" fill="#754c24"/>
        </g>
      </g>
    </g>
    <path d="M586.287,316.971,593,293.305l-6.712-23.667H567.832V47.333h18.455L593,23.667,586.287,0H201.378l-3.712,23.667,3.712,23.666h8.454v222.3h-8.454l-3.712,23.667,3.712,23.666h8.454v222.3h-8.454l-3.712,23.667,3.712,23.667h8.454v222.3h-8.454l-3.712,23.667,3.712,23.667h8.454v222.305h-8.454l-3.712,23.666,3.712,23.667H586.287L593,1102.219l-6.712-23.666H567.832V856.248h18.455L593,832.581l-6.712-23.667H567.832V586.61h18.455L593,562.943l-6.712-23.667H567.832v-222.3ZM295.459,221.388V116.96a21.377,21.377,0,1,1,42.754,0V221.388Zm143.993,0V116.96a21.377,21.377,0,0,1,42.754,0V221.388Zm42.754,704.486V1030.3H439.452V925.874a21.377,21.377,0,0,1,42.754,0Zm-143.993,0V1030.3H295.459V925.874a21.377,21.377,0,0,1,42.754,0ZM482.206,656.236V760.665H439.452V656.236a21.377,21.377,0,0,1,42.754,0Zm-143.993,0V760.665H295.459V656.236a21.377,21.377,0,0,1,42.754,0ZM482.206,386.6V491.026H439.452V386.6a21.377,21.377,0,0,1,42.754,0Zm-143.993,0V491.026H295.459V386.6a21.377,21.377,0,1,1,42.754,0Z" fill="url(#b)"/>
    <g>
      <g>
        <polygon points="295.874 1048.231 295.874 1062.231 304.624 1062.231 304.624 1047.731 295.874 1048.231" fill="#66421f"/>
        <polygon points="304.624 1047.731 319.791 1047.731 319.791 1062.731 304.624 1062.231 304.624 1047.731" fill="#754c24"/>
      </g>
      <g>
        <polygon points="381.874 1048.231 381.874 1062.231 390.624 1062.231 390.624 1047.731 381.874 1048.231" fill="#66421f"/>
        <polygon points="390.624 1047.731 405.791 1048.981 404.291 1062.315 390.624 1062.231 390.624 1047.731" fill="#754c24"/>
      </g>
      <g>
        <polygon points="467.874 1048.231 467.874 1062.231 476.624 1062.231 476.624 1047.731 467.874 1048.231" fill="#66421f"/>
        <polygon points="476.624 1047.731 491.791 1047.731 491.791 1061.315 476.624 1062.231 476.624 1047.731" fill="#754c24"/>
      </g>
    </g>
    <g>
      <g>
        <polygon points="295.874 778.593 295.874 792.593 304.624 792.593 304.624 778.093 295.874 778.593" fill="#66421f"/>
        <polygon points="304.624 778.093 319.791 778.093 319.791 793.093 304.624 792.593 304.624 778.093" fill="#754c24"/>
      </g>
      <g>
        <polygon points="381.874 778.593 381.874 792.593 390.624 792.593 390.624 778.093 381.874 778.593" fill="#66421f"/>
        <polygon points="390.624 778.093 405.791 779.343 404.291 792.677 390.624 792.593 390.624 778.093" fill="#754c24"/>
      </g>
      <g>
        <polygon points="467.874 778.593 467.874 792.593 476.624 792.593 476.624 778.093 467.874 778.593" fill="#66421f"/>
        <polygon points="476.624 778.093 491.791 778.093 491.791 791.677 476.624 792.593 476.624 778.093" fill="#754c24"/>
      </g>
    </g>
    <g>
      <g>
        <polygon points="295.874 508.955 295.874 522.955 304.624 522.955 304.624 508.455 295.874 508.955" fill="#66421f"/>
        <polygon points="304.624 508.455 319.791 508.455 319.791 523.455 304.624 522.955 304.624 508.455" fill="#754c24"/>
      </g>
      <g>
        <polygon points="381.874 508.955 381.874 522.955 390.624 522.955 390.624 508.455 381.874 508.955" fill="#66421f"/>
        <polygon points="390.624 508.455 405.791 509.705 404.291 523.038 390.624 522.955 390.624 508.455" fill="#754c24"/>
      </g>
      <g>
        <polygon points="467.874 508.955 467.874 522.955 476.624 522.955 476.624 508.455 467.874 508.955" fill="#66421f"/>
        <polygon points="476.624 508.455 491.791 508.455 491.791 522.038 476.624 522.955 476.624 508.455" fill="#754c24"/>
      </g>
    </g>
    <g>
      <g>
        <polygon points="295.874 239.317 295.874 253.317 304.624 253.317 304.624 238.817 295.874 239.317" fill="#66421f"/>
        <polygon points="304.624 238.817 319.791 238.817 319.791 253.817 304.624 253.317 304.624 238.817" fill="#754c24"/>
      </g>
      <g>
        <polygon points="381.874 239.317 381.874 253.317 390.624 253.317 390.624 238.817 381.874 239.317" fill="#66421f"/>
        <polygon points="390.624 238.817 405.791 240.067 404.291 253.4 390.624 253.317 390.624 238.817" fill="#754c24"/>
      </g>
      <g>
        <polygon points="467.874 239.317 467.874 253.317 476.624 253.317 476.624 238.817 467.874 239.317" fill="#66421f"/>
        <polygon points="476.624 238.817 491.791 238.817 491.791 252.4 476.624 253.317 476.624 238.817" fill="#754c24"/>
      </g>
    </g>
  </g>
</svg>
