<svg xmlns="http://www.w3.org/2000/svg" xmlns:xlink="http://www.w3.org/1999/xlink" width="575.67" height="324.41" viewBox="0 0 575.67 324.41">
  <defs>
    <style>
      .cls-1 {
        fill: #4f453c;
      }

      .cls-2 {
        fill: url(#linear-gradient);
      }

      .cls-3 {
        fill: #3d2d1d;
      }

      .cls-4 {
        fill: #47331f;
      }
    </style>
    <linearGradient id="linear-gradient" x1="30" y1="162.2" x2="1486.93" y2="162.2" gradientUnits="userSpaceOnUse">
      <stop offset="0" stop-color="#695d51"/>
      <stop offset="1" stop-color="#7d7060"/>
    </linearGradient>
  </defs>
  <title>Ruins_18</title>
  <g id="Layer_2" data-name="Layer 2">
    <g id="_0" data-name="0">
      <g>
        <path class="cls-1" d="M545.67,174l-10-114.67-6-9.33h-16l-1.5-13-29.5-2-7-35h-59.5l-4,30.67h-75L333.67,2h-58.5l-5,32.5h-49l-4-32.5h-64.5l-3.5,27-66-1-2-23.5H21.67L19.33,59.33,17.46,121a31.09,31.09,0,0,1,26.33,30.72v86.92H3.44L0,324.41H531.67l-3-144.41ZM224.79,238.67H162.63V151.75a31.07,31.07,0,0,1,31.08-31.08h0a31.07,31.07,0,0,1,31.08,31.08Zm181,0H343.63V151.75a31.07,31.07,0,0,1,31.08-31.08h0a31.07,31.07,0,0,1,31.08,31.08Z"/>
        <path class="cls-2" d="M575.67,174l-10-114.67-6-9.33h-16l-1.5-13-29.5-2-7-35h-59.5l-4,30.67h-75L363.67,2h-58.5l-5,32.5h-49l-4-32.5h-64.5l-3.5,27-66-1-2-23.5H51.67L49.33,59.33,47.46,121a31.09,31.09,0,0,1,26.33,30.72v86.92H33.44L30,324.41H561.67l-3-144.41ZM254.79,238.67H192.63V151.75a31.07,31.07,0,0,1,31.08-31.08h0a31.07,31.07,0,0,1,31.08,31.08Zm181,0H373.63V151.75a31.07,31.07,0,0,1,31.08-31.08h0a31.07,31.07,0,0,1,31.08,31.08Z"/>
        <g>
          <g>
            <polygon class="cls-3" points="87.91 66.42 87.91 80.42 96.66 80.42 96.66 65.92 87.91 66.42"/>
            <polygon class="cls-4" points="96.66 65.92 111.83 66.6 111.83 80.19 96.66 80.42 96.66 65.92"/>
          </g>
          <g>
            <polygon class="cls-3" points="173.91 66.42 173.91 80.42 182.66 80.42 182.66 65.92 173.91 66.42"/>
            <polygon class="cls-4" points="182.66 65.92 197.83 66.67 197.83 80.5 182.66 80.42 182.66 65.92"/>
          </g>
          <g>
            <polygon class="cls-3" points="259.91 66.42 259.91 80.42 268.66 80.42 268.66 65.92 259.91 66.42"/>
            <polygon class="cls-4" points="268.66 65.92 283.83 65.92 283.83 80.92 268.66 80.42 268.66 65.92"/>
          </g>
          <g>
            <polygon class="cls-3" points="431.91 66.42 431.91 80.42 440.66 80.42 440.66 65.92 431.91 66.42"/>
            <polygon class="cls-4" points="440.66 65.92 455.83 65.92 455.83 79.5 440.66 80.42 440.66 65.92"/>
          </g>
          <g>
            <polygon class="cls-3" points="517.91 66.42 517.91 80.42 526.66 80.42 526.66 65.92 517.91 66.42"/>
            <polygon class="cls-4" points="526.66 65.92 541.83 65.92 541.83 79.5 526.66 80.42 526.66 65.92"/>
          </g>
        </g>
      </g>
    </g>
  </g>
</svg>
