<svg xmlns="http://www.w3.org/2000/svg" xmlns:xlink="http://www.w3.org/1999/xlink" width="1102.3" height="671.78" viewBox="0 0 1102.3 671.78">
  <defs>
    <style>
      .cls-1 {
        fill: #4f453c;
      }

      .cls-2 {
        fill: url(#linear-gradient);
      }

      .cls-3 {
        fill: #3d2d1d;
      }

      .cls-4 {
        fill: #47331f;
      }

      .cls-5 {
        fill: url(#linear-gradient-2);
      }

      .cls-6 {
        fill: url(#linear-gradient-3);
      }

      .cls-7 {
        fill: url(#linear-gradient-5);
      }
    </style>
    <linearGradient id="linear-gradient" x1="-8.6" y1="335.89" x2="759.39" y2="335.89" gradientUnits="userSpaceOnUse">
      <stop offset="0" stop-color="#695d51"/>
      <stop offset="1" stop-color="#7d7060"/>
    </linearGradient>
    <linearGradient id="linear-gradient-2" x1="819.7" y1="430.73" x2="665.66" y2="430.73" xlink:href="#linear-gradient"/>
    <linearGradient id="linear-gradient-3" x1="819.7" y1="543.92" x2="665.66" y2="543.92" xlink:href="#linear-gradient"/>
    <linearGradient id="linear-gradient-5" x1="813.47" y1="407.68" x2="1106.46" y2="407.68" xlink:href="#linear-gradient"/>
  </defs>
  <title>Ruins_21</title>
  <g id="Layer_2" data-name="Layer 2">
    <g id="_0" data-name="0">
      <g>
        <polygon class="cls-1" points="1058.72 498.85 1048.24 498.85 1037.76 383.57 1025.19 382.31 1025.19 251.52 1006.32 251.52 1004.23 241.04 989.56 217.99 964.4 217.99 951.39 199.76 951.39 144.63 920.39 144.63 899.43 159.3 899.43 190.74 876.37 190.74 865.89 197.03 865.89 249.43 855.41 266.19 847.03 266.19 840.74 282.96 805.11 282.96 805.11 549.16 798.82 553.35 794.63 670.73 805.11 670.73 813.49 670.73 1016.8 670.73 1025.19 670.73 1071.3 670.73 1058.72 498.85"/>
        <path class="cls-1" d="M599,109V77.55H572.21v90.13l-25.15,14.67H488.37l-6.28-37.72-34.59-5.19V88.26l15.72-19.09h8.39l4.19-6.29L471.61,21H454.84V14.67L446.45,0H392l-6.29,10.48h-6.29l-2.44,7.34H244.19l-1.05-5.24H211.7L207.51,2.1H144.63l-4.2,10.48H111.09v48.2l10.48,6.29h4.19l17.82,16.45v64.25H101.66v75.46H45.06V183.4H15.72V465.84l-7.34,3.67L0,670.73H15.72v1H642.43V269l7.34-19.56,12.57-2.1L660.25,239l-8.39-2.1-2.09-16.77,2.09-14.67-4.19-4.19c0-75.46,77.55-75.46,77.55-75.46V109ZM130.89,343.59h-66v-25h66Zm153.83,0h-66v-25h66Zm153.83,0h-66v-25h66Zm153.84,0h-66v-25h66Z"/>
        <path class="cls-2" d="M612.24,109V77.55H595.47v90.13l-25.15,14.67H511.63l-6.29-37.72-34.59-5.19V88.26l15.72-19.09h8.39l4.19-6.29L494.86,21H478.09V14.67L469.71,0h-54.5l-6.29,10.48h-6.29l-2.44,7.34H267.44l-1.05-5.24H235L230.76,2.1H167.88l-4.19,10.48H134.34v48.2l10.48,6.29H149l17.82,16.45v64.25H124.91v75.46H68.32V183.4H39V465.84l-7.33,3.67L23.25,670.73H39v1H665.68V269L673,249.43l12.58-2.1L683.5,239l-8.38-2.1L673,220.08l2.1-14.67-4.2-4.19c0-75.46,77.56-75.46,77.56-75.46V109Zm-458.1,234.6h-66v-25h66Zm153.83,0H242v-25h66Zm153.84,0h-66v-25h66Zm153.83,0h-66v-25h66Z"/>
        <g>
          <g>
            <polygon class="cls-3" points="120.88 407.57 120.88 421.57 129.63 421.57 129.63 407.07 120.88 407.57"/>
            <polygon class="cls-4" points="129.63 407.07 144.8 407.76 144.8 421.34 129.63 421.57 129.63 407.07"/>
          </g>
          <g>
            <polygon class="cls-3" points="206.88 407.57 206.88 421.57 215.63 421.57 215.63 407.07 206.88 407.57"/>
            <polygon class="cls-4" points="215.63 407.07 230.8 407.82 230.8 421.65 215.63 421.57 215.63 407.07"/>
          </g>
          <g>
            <polygon class="cls-3" points="292.88 407.57 292.88 421.57 301.63 421.57 301.63 407.07 292.88 407.57"/>
            <polygon class="cls-4" points="301.63 407.07 316.8 407.07 316.8 422.07 301.63 421.57 301.63 407.07"/>
          </g>
          <g>
            <polygon class="cls-3" points="550.88 407.57 550.88 421.57 559.63 421.57 559.63 407.07 550.88 407.57"/>
            <polygon class="cls-4" points="559.63 407.07 574.8 407.07 574.8 420.65 559.63 421.57 559.63 407.07"/>
          </g>
        </g>
        <g>
          <g>
            <polygon class="cls-1" points="705.94 670.73 715.08 670.73 715.08 427.87 705.94 428.28 705.94 670.73"/>
            <path class="cls-1" d="M756.5,417.71l-13,12,.44,0a128.7,128.7,0,0,1,18,2.66V670.73h9.14V434.67c16.2,4.71,35.54,13.79,46.29,31.2h10.5L829,435.39Z"/>
          </g>
          <g>
            <path class="cls-5" d="M665.68,402.44l40.12,2.09,4-8.38H824.15v69.17s-12-35.63-80.23-35.63-78.24,35.63-78.24,35.63Z"/>
            <rect class="cls-6" x="711.82" y="417.11" width="10.03" height="253.62"/>
            <rect class="cls-6" x="767.99" y="417.11" width="10.03" height="253.62"/>
          </g>
        </g>
        <polygon class="cls-7" points="1089.72 498.85 1079.24 498.85 1068.76 383.57 1056.19 382.31 1056.19 251.52 1037.32 251.52 1035.23 241.04 1020.56 217.99 995.4 217.99 974.44 188.64 963.96 159.3 955.58 159.3 951.39 144.63 930.43 159.3 930.43 201.22 915.75 201.22 907.37 190.74 896.89 197.03 896.89 249.43 886.41 266.19 878.03 266.19 871.74 282.96 836.11 282.96 836.11 549.16 829.82 553.35 825.63 670.73 836.11 670.73 844.49 670.73 1047.8 670.73 1056.19 670.73 1102.3 670.73 1089.72 498.85"/>
      </g>
    </g>
  </g>
</svg>
