<svg xmlns="http://www.w3.org/2000/svg" xmlns:xlink="http://www.w3.org/1999/xlink" width="575.667" height="324.407" viewBox="0 0 575.667 324.407">
  <defs>
    <linearGradient id="a" x1="30" y1="162.204" x2="1486.932" y2="162.204" gradientUnits="userSpaceOnUse">
      <stop offset="0" stop-color="#998675"/>
      <stop offset="1" stop-color="#c7b299"/>
    </linearGradient>
  </defs>
  <title>Ruins_18</title>
  <g>
    <path d="M545.667,174l-10-114.667-6-9.333h-16l-1.5-13-29.5-2-7-35h-59.5l-4,30.667h-75L333.667,2h-58.5l-5,32.5h-49l-4-32.5h-64.5l-3.5,27-66-1-2-23.5h-59.5L19.333,59.333l-1.869,61.7A31.088,31.088,0,0,1,43.79,151.747v86.92H3.437L0,324.407H531.667l-3-144.407ZM224.79,238.667H162.629v-86.92a31.081,31.081,0,0,1,31.081-31.08h0a31.08,31.08,0,0,1,31.08,31.08Zm181,0H343.629v-86.92a31.081,31.081,0,0,1,31.081-31.08h0a31.08,31.08,0,0,1,31.08,31.08Z" fill="#847263"/>
    <path d="M575.667,174l-10-114.667-6-9.333h-16l-1.5-13-29.5-2-7-35h-59.5l-4,30.667h-75L363.667,2h-58.5l-5,32.5h-49l-4-32.5h-64.5l-3.5,27-66-1-2-23.5h-59.5L49.333,59.333l-1.869,61.7A31.088,31.088,0,0,1,73.79,151.747v86.92H33.437L30,324.407H561.667l-3-144.407ZM254.79,238.667H192.629v-86.92a31.081,31.081,0,0,1,31.081-31.08h0a31.08,31.08,0,0,1,31.08,31.08Zm181,0H373.629v-86.92a31.081,31.081,0,0,1,31.081-31.08h0a31.08,31.08,0,0,1,31.08,31.08Z" fill="url(#a)"/>
    <g>
      <g>
        <polygon points="87.912 66.417 87.912 80.417 96.662 80.417 96.662 65.917 87.912 66.417" fill="#66421f"/>
        <polygon points="96.662 65.917 111.829 66.604 111.829 80.187 96.662 80.417 96.662 65.917" fill="#754c24"/>
      </g>
      <g>
        <polygon points="173.912 66.417 173.912 80.417 182.662 80.417 182.662 65.917 173.912 66.417" fill="#66421f"/>
        <polygon points="182.662 65.917 197.829 66.667 197.829 80.5 182.662 80.417 182.662 65.917" fill="#754c24"/>
      </g>
      <g>
        <polygon points="259.912 66.417 259.912 80.417 268.662 80.417 268.662 65.917 259.912 66.417" fill="#66421f"/>
        <polygon points="268.662 65.917 283.829 65.917 283.829 80.917 268.662 80.417 268.662 65.917" fill="#754c24"/>
      </g>
      <g>
        <polygon points="345.912 66.417 345.912 80.417 354.662 80.417 354.662 65.917 345.912 66.417" fill="#66421f"/>
        <polygon points="354.662 65.917 369.829 67.167 368.329 80.5 354.662 80.417 354.662 65.917" fill="#754c24"/>
      </g>
      <g>
        <polygon points="431.912 66.417 431.912 80.417 440.662 80.417 440.662 65.917 431.912 66.417" fill="#66421f"/>
        <polygon points="440.662 65.917 455.829 65.917 455.829 79.5 440.662 80.417 440.662 65.917" fill="#754c24"/>
      </g>
      <g>
        <polygon points="517.912 66.417 517.912 80.417 526.662 80.417 526.662 65.917 517.912 66.417" fill="#66421f"/>
        <polygon points="526.662 65.917 541.829 65.917 541.829 79.5 526.662 80.417 526.662 65.917" fill="#754c24"/>
      </g>
    </g>
  </g>
</svg>
