<svg xmlns="http://www.w3.org/2000/svg" xmlns:xlink="http://www.w3.org/1999/xlink" width="509" height="314.14" viewBox="0 0 509 314.14">
  <defs>
    <style>
      .cls-1 {
        fill: #4f453c;
      }

      .cls-2 {
        fill: url(#linear-gradient);
      }

      .cls-3 {
        fill: url(#linear-gradient-2);
      }

      .cls-4 {
        fill: url(#linear-gradient-3);
      }

      .cls-5 {
        fill: url(#linear-gradient-4);
      }
    </style>
    <linearGradient id="linear-gradient" x1="390.64" y1="187.33" x2="229.69" y2="187.33" gradientUnits="userSpaceOnUse">
      <stop offset="0" stop-color="#695d51"/>
      <stop offset="1" stop-color="#7d7060"/>
    </linearGradient>
    <linearGradient id="linear-gradient-2" x1="477.65" y1="187.33" x2="316.7" y2="187.33" xlink:href="#linear-gradient"/>
    <linearGradient id="linear-gradient-3" x1="564.67" y1="187.33" x2="403.72" y2="187.33" xlink:href="#linear-gradient"/>
    <linearGradient id="linear-gradient-4" x1="5260.08" y1="157.07" x2="-2219.19" y2="157.07" xlink:href="#linear-gradient"/>
  </defs>
  <title>Ruins_15</title>
  <g id="Layer_2" data-name="Layer 2">
    <g id="_0" data-name="0">
      <g>
        <g>
          <polygon class="cls-1" points="271.77 60.95 271.77 314.14 281.32 314.14 281.32 60.52 271.77 60.95"/>
          <rect class="cls-2" x="277.92" y="60.52" width="10.48" height="253.62"/>
        </g>
        <g>
          <polygon class="cls-1" points="358.78 60.95 358.78 314.14 368.33 314.14 368.33 60.52 358.78 60.95"/>
          <rect class="cls-3" x="364.93" y="60.52" width="10.48" height="253.62"/>
        </g>
        <g>
          <polygon class="cls-1" points="445.8 60.95 445.8 314.14 455.35 314.14 455.35 60.52 445.8 60.95"/>
          <rect class="cls-4" x="451.95" y="60.52" width="10.48" height="253.62"/>
        </g>
        <g>
          <polygon class="cls-1" points="182 82.5 319.5 76.5 321.5 68 475 68 487 0 9 0 18 87.5 40 93.5 45 185 9 198 0 314.14 161.5 314.14 149.5 168 183 162.5 182 82.5"/>
          <polygon class="cls-5" points="204 82.5 341.5 76.5 343.5 68 497 68 509 0 31 0 40 87.5 62 93.5 67 185 31 198 22 314.14 183.5 314.14 171.5 168 205 162.5 204 82.5"/>
        </g>
      </g>
    </g>
  </g>
</svg>
