<svg xmlns="http://www.w3.org/2000/svg" xmlns:xlink="http://www.w3.org/1999/xlink" width="509" height="314.142" viewBox="0 0 509 314.142">
  <defs>
    <linearGradient id="a" x1="390.638" y1="187.332" x2="229.686" y2="187.332" gradientUnits="userSpaceOnUse">
      <stop offset="0" stop-color="#998675"/>
      <stop offset="1" stop-color="#c7b299"/>
    </linearGradient>
    <linearGradient id="b" x1="477.654" y1="187.332" x2="316.702" y2="187.332" xlink:href="#a"/>
    <linearGradient id="c" x1="564.67" y1="187.332" x2="403.718" y2="187.332" xlink:href="#a"/>
    <linearGradient id="d" x1="5260.079" y1="157.071" x2="-2219.19" y2="157.071" xlink:href="#a"/>
  </defs>
  <title>Ruins_15</title>
  <g>
    <g>
      <polygon points="271.767 60.947 271.767 314.142 281.317 314.142 281.317 60.522 271.767 60.947" fill="#847263"/>
      <rect x="277.916" y="60.522" width="10.48" height="253.619" fill="url(#a)"/>
    </g>
    <g>
      <polygon points="358.783 60.947 358.783 314.142 368.333 314.142 368.333 60.522 358.783 60.947" fill="#847263"/>
      <rect x="364.932" y="60.522" width="10.48" height="253.619" fill="url(#b)"/>
    </g>
    <g>
      <polygon points="445.799 60.947 445.799 314.142 455.349 314.142 455.349 60.522 445.799 60.947" fill="#847263"/>
      <rect x="451.948" y="60.522" width="10.48" height="253.619" fill="url(#c)"/>
    </g>
    <g>
      <polygon points="182 82.5 319.5 76.5 321.5 68 475 68 487 0 9 0 18 87.5 40 93.5 45 185 9 198 0 314.142 161.5 314.142 149.5 168 183 162.5 182 82.5" fill="#847263"/>
      <polygon points="204 82.5 341.5 76.5 343.5 68 497 68 509 0 31 0 40 87.5 62 93.5 67 185 31 198 22 314.142 183.5 314.142 171.5 168 205 162.5 204 82.5" fill="url(#d)"/>
    </g>
  </g>
</svg>
