<svg xmlns="http://www.w3.org/2000/svg" xmlns:xlink="http://www.w3.org/1999/xlink" width="763.067" height="813.596" viewBox="0 0 763.067 813.596">
  <defs>
    <linearGradient id="a" x1="-218.746" y1="406.798" x2="685.677" y2="406.798" gradientUnits="userSpaceOnUse">
      <stop offset="0" stop-color="#998675"/>
      <stop offset="1" stop-color="#c7b299"/>
    </linearGradient>
  </defs>
  <title>Ruins_27</title>
  <g>
    <path d="M712.654,295.828V87.891H731.71L739.57,0H0L7.86,87.891H29.534V295.828H7.86L0,383.719H37l3.027,37.157H77.023l26.3,103.23h0L114,528.813l-9.815,153.466H97.2L94.38,723.227h7.189L95.79,813.6H260.526l-5.779-90.369h7.19l-2.824-40.948h-6.984l-9.815-153.466L253,524.106h0c1.418-54.811,42.02-95.754,94.579-103.23h47.353c52.56,7.476,93.162,48.419,94.58,103.23h0l10.681,4.707-9.815,153.466h-6.984l-2.825,40.948h7.19L481.975,813.6H646.4l-5.779-90.369h7.19l-2.825-40.948H638l-9.815-153.466,10.681-4.707h0l26.3-103.23h34.374l3.028-37.157h37l-7.86-87.891Zm-584.51-60.639H79.078v-62.03a24.53,24.53,0,0,1,24.531-24.53h0a24.53,24.53,0,0,1,24.531,24.53Zm133.087,0H212.165v-62.03a24.53,24.53,0,0,1,24.531-24.53h0a24.53,24.53,0,0,1,24.531,24.53Zm133.087,0H345.252v-62.03a24.53,24.53,0,0,1,24.531-24.53h0a24.53,24.53,0,0,1,24.531,24.53Zm133.087,0H478.339v-62.03a24.53,24.53,0,0,1,24.531-24.53h0a24.53,24.53,0,0,1,24.531,24.53Zm133.087,0H611.426v-62.03a24.53,24.53,0,0,1,24.531-24.53h0a24.53,24.53,0,0,1,24.531,24.53Z" fill="#847263"/>
    <path d="M736.151,295.828V87.891h19.056L763.067,0H23.5l7.86,87.891H53.031V295.828H31.357L23.5,383.719h37l3.028,37.157H100.52l26.3,103.23h0l10.682,4.707-9.815,153.466H120.7l-2.824,40.948h7.19L119.287,813.6H284.023l-5.779-90.369h7.19l-2.824-40.948h-6.985l-9.814-153.466,10.681-4.707h0c1.418-54.811,42.02-95.754,94.579-103.23h47.353c52.56,7.476,93.161,48.419,94.58,103.23h0l10.68,4.707L513.87,682.279h-6.984l-2.825,40.948h7.19L505.472,813.6H669.9l-5.78-90.369h7.19l-2.824-40.948H661.5l-9.815-153.466,10.681-4.707h0l26.3-103.23h34.374l3.027-37.157h37l-7.86-87.891Zm-584.51-60.639H102.575v-62.03a24.53,24.53,0,0,1,24.531-24.53h0a24.53,24.53,0,0,1,24.531,24.53Zm133.087,0H235.662v-62.03a24.53,24.53,0,0,1,24.531-24.53h0a24.53,24.53,0,0,1,24.531,24.53Zm133.087,0H368.749v-62.03a24.529,24.529,0,0,1,24.53-24.53h0a24.53,24.53,0,0,1,24.531,24.53Zm133.087,0H501.835v-62.03a24.53,24.53,0,0,1,24.531-24.53h0a24.53,24.53,0,0,1,24.531,24.53Zm133.087,0H634.922v-62.03a24.53,24.53,0,0,1,24.531-24.53h0a24.53,24.53,0,0,1,24.531,24.53Z" fill="url(#a)"/>
    <g>
      <g>
        <polygon points="102.575 256.245 102.575 271.608 112.177 271.608 112.177 255.697 102.575 256.245" fill="#66421f"/>
        <polygon points="112.177 255.697 128.82 255.697 129.003 271.608 112.177 271.608 112.177 255.697" fill="#754c24"/>
      </g>
      <g>
        <polygon points="196.947 256.245 196.947 271.608 206.549 271.608 206.549 255.697 196.947 256.245" fill="#66421f"/>
        <polygon points="206.549 255.697 223.192 256.451 223.192 271.357 206.549 271.608 206.549 255.697" fill="#754c24"/>
      </g>
      <g>
        <polygon points="291.319 256.245 291.319 271.608 300.921 271.608 300.921 255.697 291.319 256.245" fill="#66421f"/>
        <polygon points="300.921 255.697 317.564 256.52 317.564 271.7 300.921 271.608 300.921 255.697" fill="#754c24"/>
      </g>
      <g>
        <polygon points="385.691 256.245 385.691 271.608 395.293 271.608 395.293 255.697 385.691 256.245" fill="#66421f"/>
        <polygon points="395.293 255.697 411.936 255.697 411.936 272.157 395.293 271.608 395.293 255.697" fill="#754c24"/>
      </g>
      <g>
        <polygon points="480.063 256.245 480.063 271.608 489.665 271.608 489.665 255.697 480.063 256.245" fill="#66421f"/>
        <polygon points="489.665 255.697 506.308 257.068 504.662 271.7 489.665 271.608 489.665 255.697" fill="#754c24"/>
      </g>
      <g>
        <polygon points="574.435 256.245 574.435 271.608 584.037 271.608 584.037 255.697 574.435 256.245" fill="#66421f"/>
        <polygon points="584.037 255.697 600.68 255.697 600.68 270.602 584.037 271.608 584.037 255.697" fill="#754c24"/>
      </g>
      <g>
        <polygon points="668.807 256.245 668.807 271.608 678.409 271.608 678.409 255.697 668.807 256.245" fill="#66421f"/>
        <polygon points="678.409 255.697 695.052 255.697 695.052 270.602 678.409 271.608 678.409 255.697" fill="#754c24"/>
      </g>
    </g>
  </g>
</svg>
