<svg xmlns="http://www.w3.org/2000/svg" xmlns:xlink="http://www.w3.org/1999/xlink" width="124.444" height="132.994" viewBox="0 0 124.444 132.994">
  <defs>
    <linearGradient id="a" x1="8.301" y1="66.497" x2="140.579" y2="66.497" gradientUnits="userSpaceOnUse">
      <stop offset="0" stop-color="#998675"/>
      <stop offset="1" stop-color="#c7b299"/>
    </linearGradient>
  </defs>
  <title>Ruins_14</title>
  <g>
    <polygon points="0 132.994 99.894 132.994 95.237 84.171 89.735 82.218 93.544 39.84 99.894 39.449 99.894 2.929 83.386 2.344 89.735 0 57.142 0 54.18 7.812 30.476 8.202 24.55 60.736 4.233 61.908 0 132.994" fill="#847263"/>
    <polygon points="24.55 132.994 124.444 132.994 119.788 84.171 114.285 82.218 118.094 39.84 124.444 39.449 124.444 2.929 107.936 2.344 105.819 0 81.693 0 78.73 7.812 55.026 8.202 49.1 60.736 28.783 61.908 24.55 132.994" fill="url(#a)"/>
  </g>
</svg>
