<svg xmlns="http://www.w3.org/2000/svg" xmlns:xlink="http://www.w3.org/1999/xlink" width="236.49" height="619.92" viewBox="0 0 236.49 619.92">
  <defs>
    <style>
      .cls-1 {
        fill: #4f453c;
      }

      .cls-2 {
        fill: url(#linear-gradient);
      }

      .cls-3 {
        fill: #3d2d1d;
      }

      .cls-4 {
        fill: #47331f;
      }
    </style>
    <linearGradient id="linear-gradient" x1="79" y1="309.96" x2="236.49" y2="309.96" gradientUnits="userSpaceOnUse">
      <stop offset="0" stop-color="#695d51"/>
      <stop offset="1" stop-color="#7d7060"/>
    </linearGradient>
  </defs>
  <title>Ruins_22</title>
  <g id="Layer_2" data-name="Layer 2">
    <g id="_0" data-name="0">
      <g>
        <polygon class="cls-1" points="0 619.92 6.37 465.27 46.48 462.61 52 328.48 76 328.48 100 0 143.5 0 156.99 430.48 182.49 430.48 197.49 619.92 0 619.92"/>
        <polygon class="cls-2" points="79 619.92 91 328.48 115 328.48 139 0 182.49 0 195.99 430.48 221.49 430.48 236.49 619.92 79 619.92"/>
        <g>
          <g>
            <polygon class="cls-3" points="149.5 473.96 149.5 487.96 158.25 487.96 158.25 473.46 149.5 473.96"/>
            <polygon class="cls-4" points="158.25 473.46 173.42 473.46 173.42 488.46 158.25 487.96 158.25 473.46"/>
          </g>
          <g>
            <polygon class="cls-3" points="149.5 328.54 149.5 342.54 158.25 342.54 158.25 328.04 149.5 328.54"/>
            <polygon class="cls-4" points="158.25 328.04 173.42 329.29 171.92 342.63 158.25 342.54 158.25 328.04"/>
          </g>
          <g>
            <polygon class="cls-3" points="149.5 183.21 149.5 197.21 158.25 197.21 158.25 182.71 149.5 183.21"/>
            <polygon class="cls-4" points="158.25 182.71 173.42 182.71 173.42 196.29 158.25 197.21 158.25 182.71"/>
          </g>
        </g>
      </g>
    </g>
  </g>
</svg>
