<svg xmlns="http://www.w3.org/2000/svg" xmlns:xlink="http://www.w3.org/1999/xlink" width="593" height="1125.89" viewBox="0 0 593 1125.89">
  <defs>
    <style>
      .cls-1 {
        fill: #695d51;
      }

      .cls-2 {
        fill: #4f453c;
      }

      .cls-3 {
        fill: #3d2d1d;
      }

      .cls-4 {
        fill: #47331f;
      }

      .cls-5 {
        fill: url(#linear-gradient);
      }
    </style>
    <linearGradient id="linear-gradient" x1="197.67" y1="562.94" x2="593" y2="562.94" gradientUnits="userSpaceOnUse">
      <stop offset="0" stop-color="#695d51"/>
      <stop offset="1" stop-color="#7d7060"/>
    </linearGradient>
  </defs>
  <title>Ruins_23</title>
  <g id="Layer_2" data-name="Layer 2">
    <g id="_0" data-name="0">
      <g>
        <g>
          <path class="cls-1" d="M227.93,0H20.21L13.5,23.67l6.71,23.66H38.67V269.64H20.21L13.5,293.3,20.21,317H38.67V539.28H20.21L13.5,562.94l6.71,23.67H38.67v222.3H20.21L13.5,832.58l6.71,23.67H38.67v222.3H20.21l-6.71,23.67,6.71,23.67H227.93ZM109.34,1030.3H88.8V925.88c0-11.81,4.6-21.38,10.27-21.38s10.27,9.57,10.27,21.38Zm0-269.64H88.8V656.24c0-11.81,4.6-21.38,10.27-21.38s10.27,9.57,10.27,21.38Zm0-269.64H88.8V386.6c0-11.81,4.6-21.38,10.27-21.38s10.27,9.57,10.27,21.38Zm0-269.63H88.8V117c0-11.81,4.6-21.38,10.27-21.38s10.27,9.57,10.27,21.38Zm69.19,808.91H158V925.88c0-11.81,4.59-21.38,10.27-21.38s10.27,9.57,10.27,21.38Zm0-269.64H158V656.24c0-11.81,4.59-21.38,10.27-21.38s10.27,9.57,10.27,21.38Zm0-269.64H158V386.6c0-11.81,4.59-21.38,10.27-21.38s10.27,9.57,10.27,21.38ZM158,221.39V117c0-11.81,4.59-21.38,10.27-21.38s10.27,9.57,10.27,21.38V221.39Z"/>
          <path class="cls-2" d="M561.62,317l6.71-23.67-6.71-23.66H543.17V47.33h18.45l6.71-23.66L561.62,0H6.71L0,23.67,6.71,47.33H25.17V269.64H6.71L0,293.3,6.71,317H25.17V539.28H6.71L0,562.94l6.71,23.67H25.17v222.3H6.71L0,832.58l6.71,23.67H25.17v222.3H6.71L0,1102.22l6.71,23.67H561.62l6.71-23.67-6.71-23.67H543.17V856.25h18.45l6.71-23.67-6.71-23.67H543.17V586.61h18.45l6.71-23.67-6.71-23.66H543.17V317ZM95.84,1030.3H75.3V925.88c0-11.81,4.6-21.38,10.27-21.38s10.27,9.57,10.27,21.38Zm0-269.64H75.3V656.24c0-11.81,4.6-21.38,10.27-21.38s10.27,9.57,10.27,21.38Zm0-269.64H75.3V386.6c0-11.81,4.6-21.38,10.27-21.38s10.27,9.57,10.27,21.38Zm0-269.63H75.3V117c0-11.81,4.6-21.38,10.27-21.38S95.84,105.16,95.84,117ZM165,1030.3H144.49V925.88c0-11.81,4.59-21.38,10.27-21.38S165,914.07,165,925.88Zm0-269.64H144.49V656.24c0-11.81,4.59-21.38,10.27-21.38S165,644.43,165,656.24ZM165,491H144.49V386.6c0-11.81,4.59-21.38,10.27-21.38S165,374.79,165,386.6Zm0-269.63H144.49V117c0-11.81,4.59-21.38,10.27-21.38S165,105.16,165,117ZM313.55,1030.3H270.79V925.87a21.38,21.38,0,0,1,42.76,0Zm0-269.64H270.79V656.24a21.38,21.38,0,0,1,42.76,0Zm0-269.63H270.79V386.6a21.38,21.38,0,0,1,42.76,0Zm0-269.64H270.79V117a21.38,21.38,0,1,1,42.76,0Zm144,808.91H414.79V925.87a21.38,21.38,0,0,1,42.75,0Zm0-269.64H414.79V656.24a21.38,21.38,0,1,1,42.75,0Zm0-269.63H414.79V386.6a21.38,21.38,0,1,1,42.75,0Zm0-269.64H414.79V117a21.38,21.38,0,1,1,42.75,0Z"/>
          <g>
            <g>
              <polygon class="cls-3" points="150.67 1048.73 150.67 1062.73 159.53 1062.73 159.53 1048.23 150.67 1048.73"/>
              <polygon class="cls-4" points="159.53 1048.23 165.03 1048.79 165.03 1062.38 159.53 1062.73 159.53 1048.23"/>
            </g>
            <g>
              <polygon class="cls-3" points="108.03 1048.73 108.03 1062.73 116.88 1062.73 116.88 1048.23 108.03 1048.73"/>
              <polygon class="cls-4" points="116.88 1048.23 122.39 1048.79 122.39 1062.38 116.88 1062.73 116.88 1048.23"/>
            </g>
            <g>
              <polygon class="cls-3" points="66.53 1048.73 66.53 1062.73 75.39 1062.73 75.39 1048.23 66.53 1048.73"/>
              <polygon class="cls-4" points="75.39 1048.23 80.9 1048.79 80.9 1062.38 75.39 1062.73 75.39 1048.23"/>
            </g>
          </g>
          <g>
            <g>
              <polygon class="cls-3" points="150.67 778.84 150.67 792.84 159.53 792.84 159.53 778.34 150.67 778.84"/>
              <polygon class="cls-4" points="159.53 778.34 165.03 778.91 165.03 792.49 159.53 792.84 159.53 778.34"/>
            </g>
            <g>
              <polygon class="cls-3" points="108.03 778.84 108.03 792.84 116.88 792.84 116.88 778.34 108.03 778.84"/>
              <polygon class="cls-4" points="116.88 778.34 122.39 778.91 122.39 792.49 116.88 792.84 116.88 778.34"/>
            </g>
            <g>
              <polygon class="cls-3" points="66.53 778.84 66.53 792.84 75.39 792.84 75.39 778.34 66.53 778.84"/>
              <polygon class="cls-4" points="75.39 778.34 80.9 778.91 80.9 792.49 75.39 792.84 75.39 778.34"/>
            </g>
          </g>
          <g>
            <g>
              <polygon class="cls-3" points="150.67 508.95 150.67 522.96 159.53 522.96 159.53 508.45 150.67 508.95"/>
              <polygon class="cls-4" points="159.53 508.45 165.03 509.02 165.03 522.6 159.53 522.96 159.53 508.45"/>
            </g>
            <g>
              <polygon class="cls-3" points="108.03 508.95 108.03 522.96 116.88 522.96 116.88 508.45 108.03 508.95"/>
              <polygon class="cls-4" points="116.88 508.45 122.39 509.02 122.39 522.6 116.88 522.96 116.88 508.45"/>
            </g>
            <g>
              <polygon class="cls-3" points="66.53 508.95 66.53 522.96 75.39 522.96 75.39 508.45 66.53 508.95"/>
              <polygon class="cls-4" points="75.39 508.45 80.9 509.02 80.9 522.6 75.39 522.96 75.39 508.45"/>
            </g>
          </g>
          <g>
            <g>
              <polygon class="cls-3" points="150.67 239.07 150.67 253.07 159.53 253.07 159.53 238.57 150.67 239.07"/>
              <polygon class="cls-4" points="159.53 238.57 165.03 239.13 165.03 252.71 159.53 253.07 159.53 238.57"/>
            </g>
            <g>
              <polygon class="cls-3" points="108.03 239.07 108.03 253.07 116.88 253.07 116.88 238.57 108.03 239.07"/>
              <polygon class="cls-4" points="116.88 238.57 122.39 239.13 122.39 252.71 116.88 253.07 116.88 238.57"/>
            </g>
            <g>
              <polygon class="cls-3" points="66.53 239.07 66.53 253.07 75.39 253.07 75.39 238.57 66.53 239.07"/>
              <polygon class="cls-4" points="75.39 238.57 80.9 239.13 80.9 252.71 75.39 253.07 75.39 238.57"/>
            </g>
          </g>
        </g>
        <path class="cls-5" d="M586.29,317,593,293.3l-6.71-23.66H567.83V47.33h18.46L593,23.67,586.29,0H201.38l-3.71,23.67,3.71,23.66h8.45V269.64h-8.45l-3.71,23.66L201.38,317h8.45V539.28h-8.45l-3.71,23.66,3.71,23.67h8.45v222.3h-8.45l-3.71,23.67,3.71,23.67h8.45v222.3h-8.45l-3.71,23.67,3.71,23.67H586.29l6.71-23.67-6.71-23.67H567.83V856.25h18.46L593,832.58l-6.71-23.67H567.83V586.61h18.46L593,562.94l-6.71-23.66H567.83V317ZM295.46,221.39V117a21.38,21.38,0,1,1,42.75,0V221.39Zm144,0V117a21.38,21.38,0,1,1,42.76,0V221.39Zm42.76,704.48V1030.3H439.45V925.87a21.38,21.38,0,0,1,42.76,0Zm-144,0V1030.3H295.46V925.87a21.38,21.38,0,0,1,42.75,0Zm144-269.63V760.66H439.45V656.24a21.38,21.38,0,0,1,42.76,0Zm-144,0V760.66H295.46V656.24a21.38,21.38,0,1,1,42.75,0Zm144-269.64V491H439.45V386.6a21.38,21.38,0,0,1,42.76,0Zm-144,0V491H295.46V386.6a21.38,21.38,0,1,1,42.75,0Z"/>
        <g>
          <g>
            <polygon class="cls-3" points="295.87 1048.23 295.87 1062.23 304.62 1062.23 304.62 1047.73 295.87 1048.23"/>
            <polygon class="cls-4" points="304.62 1047.73 319.79 1047.73 319.79 1062.73 304.62 1062.23 304.62 1047.73"/>
          </g>
          <g>
            <polygon class="cls-3" points="381.87 1048.23 381.87 1062.23 390.62 1062.23 390.62 1047.73 381.87 1048.23"/>
            <polygon class="cls-4" points="390.62 1047.73 405.79 1048.98 404.29 1062.32 390.62 1062.23 390.62 1047.73"/>
          </g>
          <g>
            <polygon class="cls-3" points="467.87 1048.23 467.87 1062.23 476.62 1062.23 476.62 1047.73 467.87 1048.23"/>
            <polygon class="cls-4" points="476.62 1047.73 491.79 1047.73 491.79 1061.32 476.62 1062.23 476.62 1047.73"/>
          </g>
        </g>
        <g>
          <g>
            <polygon class="cls-3" points="295.87 778.59 295.87 792.59 304.62 792.59 304.62 778.09 295.87 778.59"/>
            <polygon class="cls-4" points="304.62 778.09 319.79 778.09 319.79 793.09 304.62 792.59 304.62 778.09"/>
          </g>
          <g>
            <polygon class="cls-3" points="381.87 778.59 381.87 792.59 390.62 792.59 390.62 778.09 381.87 778.59"/>
            <polygon class="cls-4" points="390.62 778.09 405.79 779.34 404.29 792.68 390.62 792.59 390.62 778.09"/>
          </g>
          <g>
            <polygon class="cls-3" points="467.87 778.59 467.87 792.59 476.62 792.59 476.62 778.09 467.87 778.59"/>
            <polygon class="cls-4" points="476.62 778.09 491.79 778.09 491.79 791.68 476.62 792.59 476.62 778.09"/>
          </g>
        </g>
        <g>
          <g>
            <polygon class="cls-3" points="295.87 508.95 295.87 522.96 304.62 522.96 304.62 508.45 295.87 508.95"/>
            <polygon class="cls-4" points="304.62 508.45 319.79 508.45 319.79 523.46 304.62 522.96 304.62 508.45"/>
          </g>
          <g>
            <polygon class="cls-3" points="467.87 508.95 467.87 522.96 476.62 522.96 476.62 508.45 467.87 508.95"/>
            <polygon class="cls-4" points="476.62 508.45 491.79 508.45 491.79 522.04 476.62 522.96 476.62 508.45"/>
          </g>
        </g>
        <g>
          <g>
            <polygon class="cls-3" points="295.87 239.32 295.87 253.32 304.62 253.32 304.62 238.82 295.87 239.32"/>
            <polygon class="cls-4" points="304.62 238.82 319.79 238.82 319.79 253.82 304.62 253.32 304.62 238.82"/>
          </g>
          <g>
            <polygon class="cls-3" points="381.87 239.32 381.87 253.32 390.62 253.32 390.62 238.82 381.87 239.32"/>
            <polygon class="cls-4" points="390.62 238.82 405.79 240.07 404.29 253.4 390.62 253.32 390.62 238.82"/>
          </g>
        </g>
      </g>
    </g>
  </g>
</svg>
