<svg xmlns="http://www.w3.org/2000/svg" xmlns:xlink="http://www.w3.org/1999/xlink" width="478.399" height="295.085" viewBox="0 0 478.399 295.085">
  <defs>
    <linearGradient id="a" x1="-118.997" y1="147.543" x2="431.31" y2="147.543" gradientUnits="userSpaceOnUse">
      <stop offset="0" stop-color="#998675"/>
      <stop offset="1" stop-color="#c7b299"/>
    </linearGradient>
  </defs>
  <title>Ruins_26</title>
  <g>
    <path d="M445,163.5H432.5L418,45.371H405.9L403,24.5H250L247.5,0H104l-4,14H23.856l-3,31.371H10L8,153l-8,1V295.085H58.619V269.011A153.749,153.749,0,0,1,212.368,115.262h0A153.748,153.748,0,0,1,366.117,269.011v26.074H450Z" fill="#847263"/>
    <path d="M473.4,163.5H460.9L446.4,45.371H434.3L431.4,24.5h-153L275.9,0H132.4l-4,14H52.255l-3,31.371H38.4L36.4,153l-8,1V295.085H87.018V269.011A153.749,153.749,0,0,1,240.767,115.262h0A153.749,153.749,0,0,1,394.516,269.011v26.074H478.4Z" fill="url(#a)"/>
    <g>
      <g>
        <polygon points="67.879 62.013 67.879 76.013 76.629 76.013 76.629 61.513 67.879 62.013" fill="#66421f"/>
        <polygon points="76.629 61.513 91.796 62.263 91.796 76.096 76.629 76.013 76.629 61.513" fill="#754c24"/>
      </g>
      <g>
        <polygon points="153.879 62.013 153.879 76.013 162.629 76.013 162.629 61.513 153.879 62.013" fill="#66421f"/>
        <polygon points="162.629 61.513 177.796 61.513 177.796 76.513 162.629 76.013 162.629 61.513" fill="#754c24"/>
      </g>
      <g>
        <polygon points="239.879 62.013 239.879 76.013 248.629 76.013 248.629 61.513 239.879 62.013" fill="#66421f"/>
        <polygon points="248.629 61.513 263.796 62.763 262.296 76.096 248.629 76.013 248.629 61.513" fill="#754c24"/>
      </g>
      <g>
        <polygon points="325.879 62.013 325.879 76.013 334.629 76.013 334.629 61.513 325.879 62.013" fill="#66421f"/>
        <polygon points="334.629 61.513 349.796 61.513 349.796 75.096 334.629 76.013 334.629 61.513" fill="#754c24"/>
      </g>
      <g>
        <polygon points="411.879 62.013 411.879 76.013 420.629 76.013 420.629 61.513 411.879 62.013" fill="#66421f"/>
        <polygon points="420.629 61.513 435.796 61.513 435.796 75.096 420.629 76.013 420.629 61.513" fill="#754c24"/>
      </g>
    </g>
  </g>
</svg>
