<svg xmlns="http://www.w3.org/2000/svg" xmlns:xlink="http://www.w3.org/1999/xlink" width="627.5" height="571.91" viewBox="0 0 627.5 571.91">
  <defs>
    <style>
      .cls-1 {
        fill: #4f453c;
      }

      .cls-2 {
        fill: url(#linear-gradient);
      }

      .cls-3 {
        fill: #3d2d1d;
      }

      .cls-4 {
        fill: #47331f;
      }
    </style>
    <linearGradient id="linear-gradient" x1="25.5" y1="285.95" x2="1632.84" y2="285.95" gradientUnits="userSpaceOnUse">
      <stop offset="0" stop-color="#695d51"/>
      <stop offset="1" stop-color="#7d7060"/>
    </linearGradient>
  </defs>
  <title>Ruins_19</title>
  <g id="Layer_2" data-name="Layer 2">
    <g id="_0" data-name="0">
      <g>
        <path class="cls-1" d="M598.5,54,602,0H5L7.5,54l14.33,0V186L0,187.5l3,33,18.83,1.37v18.36L12.5,241.5V301l8.75,1.89-.38,26.4H53.78v88.39l-6.09,1.83-6.1,152.4H153.53l-6.1-106.07-4.88-1.22V426s23.17-96.72,156.06-96.72c88.52,0,124.55,50.29,138.76,83.89v4.5l-6.1,1.83-6.09,152.4h71.93L491,465.84l-4.87-1.22V426s9.08-37.86,48.43-66.21l-4.63-42.61,31.23-3V303.5l11.33-9.33V272.41l12-1.91,7-43.5-19-1.39V56.93ZM202.33,189.5h-72V104a36,36,0,0,1,36-36h0a36,36,0,0,1,36,36Zm266,0h-72V104a36,36,0,0,1,36-36h0a36,36,0,0,1,36,36Z"/>
        <path class="cls-2" d="M624,54l3.5-54H30.5L33,54l14.33,0V186L25.5,187.5l3,33,18.83,1.37v18.36L38,241.5V301l8.75,1.89-.38,26.4H79.28v88.39l-6.09,1.83-6.1,152.4H179l-6.09-106.07-4.88-1.22V426s23.17-96.72,156.06-96.72c88.52,0,124.55,50.29,138.76,83.89v4.5l-6.1,1.83-6.1,152.4h71.94l-6.1-106.07-4.88-1.22V426s9.09-37.86,48.44-66.21l-4.63-42.61,31.23-3V303.5L598,294.17V272.41l12-1.91,7-43.5-19-1.39V56.93ZM227.83,189.5h-72V104a36,36,0,0,1,36-36h0a36,36,0,0,1,36,36Zm266,0h-72V104a36,36,0,0,1,36-36h0a36,36,0,0,1,36,36Z"/>
        <g>
          <g>
            <polygon class="cls-3" points="105.74 258.92 105.74 272.92 114.49 272.92 114.49 258.42 105.74 258.92"/>
            <polygon class="cls-4" points="114.49 258.42 129.66 259.1 129.66 272.69 114.49 272.92 114.49 258.42"/>
          </g>
          <g>
            <polygon class="cls-3" points="191.74 258.92 191.74 272.92 200.49 272.92 200.49 258.42 191.74 258.92"/>
            <polygon class="cls-4" points="200.49 258.42 215.66 259.17 215.66 273 200.49 272.92 200.49 258.42"/>
          </g>
          <g>
            <polygon class="cls-3" points="277.74 258.92 277.74 272.92 286.49 272.92 286.49 258.42 277.74 258.92"/>
            <polygon class="cls-4" points="286.49 258.42 301.66 258.42 301.66 273.42 286.49 272.92 286.49 258.42"/>
          </g>
          <g>
            <polygon class="cls-3" points="449.74 258.92 449.74 272.92 458.49 272.92 458.49 258.42 449.74 258.92"/>
            <polygon class="cls-4" points="458.49 258.42 473.66 258.42 473.66 272 458.49 272.92 458.49 258.42"/>
          </g>
          <g>
            <polygon class="cls-3" points="535.74 258.92 535.74 272.92 544.49 272.92 544.49 258.42 535.74 258.92"/>
            <polygon class="cls-4" points="544.49 258.42 559.66 258.42 559.66 272 544.49 272.92 544.49 258.42"/>
          </g>
        </g>
        <g>
          <g>
            <polygon class="cls-3" points="60.91 21.25 60.91 35.25 69.66 35.25 69.66 20.75 60.91 21.25"/>
            <polygon class="cls-4" points="69.66 20.75 84.83 20.75 84.99 35.25 69.66 35.25 69.66 20.75"/>
          </g>
          <g>
            <polygon class="cls-3" points="318.91 21.25 318.91 35.25 327.66 35.25 327.66 20.75 318.91 21.25"/>
            <polygon class="cls-4" points="327.66 20.75 342.83 20.75 342.83 35.75 327.66 35.25 327.66 20.75"/>
          </g>
          <g>
            <polygon class="cls-3" points="404.91 21.25 404.91 35.25 413.66 35.25 413.66 20.75 404.91 21.25"/>
            <polygon class="cls-4" points="413.66 20.75 428.83 22 427.33 35.33 413.66 35.25 413.66 20.75"/>
          </g>
          <g>
            <polygon class="cls-3" points="490.91 21.25 490.91 35.25 499.66 35.25 499.66 20.75 490.91 21.25"/>
            <polygon class="cls-4" points="499.66 20.75 514.83 20.75 514.83 34.33 499.66 35.25 499.66 20.75"/>
          </g>
          <g>
            <polygon class="cls-3" points="576.91 21.25 576.91 35.25 585.66 35.25 585.66 20.75 576.91 21.25"/>
            <polygon class="cls-4" points="585.66 20.75 600.83 20.75 600.83 34.33 585.66 35.25 585.66 20.75"/>
          </g>
        </g>
      </g>
    </g>
  </g>
</svg>
