<svg xmlns="http://www.w3.org/2000/svg" xmlns:xlink="http://www.w3.org/1999/xlink" width="114.17" height="222.328" viewBox="0 0 114.17 222.328">
  <defs>
    <linearGradient id="a" x1="5.268" y1="111.164" x2="129.299" y2="111.164" gradientUnits="userSpaceOnUse">
      <stop offset="0" stop-color="#998675"/>
      <stop offset="1" stop-color="#c7b299"/>
    </linearGradient>
  </defs>
  <title>Ruins_13</title>
  <g>
    <path d="M61.882.667V0H41.374l-.006.031-2.4,7.763-27.632.283-3.4,87.006L2.551,97.067,0,222.328H42.086l-.85-96.921H35.284V63.766c0-30.607,16.154-53.351,53.351-53.351l.921-3.046,4.11-.851V1.7Z" fill="#847263"/>
    <path d="M29.857,222.328H62.59l-.85-96.921H55.788V63.766c0-30.607,16.155-53.351,53.352-53.351l.921-3.046,4.109-.851V1.7L61.882,0,59.473,7.794l-27.632.283-3.4,87.006-5.385,1.984L20.5,222.328Z" fill="url(#a)"/>
  </g>
</svg>
