<svg xmlns="http://www.w3.org/2000/svg" xmlns:xlink="http://www.w3.org/1999/xlink" width="151.721" height="351.435" viewBox="0 0 151.721 351.435">
  <defs>
    <linearGradient id="a" x1="10.121" y1="175.718" x2="171.393" y2="175.718" gradientUnits="userSpaceOnUse">
      <stop offset="0" stop-color="#998675"/>
      <stop offset="1" stop-color="#c7b299"/>
    </linearGradient>
  </defs>
  <title>Ruins_8</title>
  <g>
    <polygon points="0 351.435 121.79 351.435 116.113 222.421 109.404 217.26 114.049 105.276 121.79 104.244 121.79 7.741 101.663 6.193 109.404 0 69.668 0 66.055 20.642 37.156 21.674 29.931 160.494 5.161 163.59 0 351.435" fill="#847263"/>
    <polygon points="29.931 351.435 151.721 351.435 146.044 222.421 139.336 217.26 143.98 105.276 151.721 104.244 151.721 7.741 131.595 6.193 129.014 0 99.599 0 95.987 20.642 67.088 21.674 59.863 160.494 35.092 163.59 29.931 351.435" fill="url(#a)"/>
  </g>
</svg>
