<svg xmlns="http://www.w3.org/2000/svg" xmlns:xlink="http://www.w3.org/1999/xlink" width="326.07" height="526.1" viewBox="0 0 326.07 526.1">
  <defs>
    <style>
      .cls-1 {
        fill: #4f453c;
      }

      .cls-2 {
        fill: url(#linear-gradient);
      }

      .cls-3 {
        fill: url(#linear-gradient-2);
      }

      .cls-4 {
        fill: url(#linear-gradient-3);
      }
    </style>
    <linearGradient id="linear-gradient" x1="-47.56" y1="263.05" x2="437.05" y2="263.05" gradientUnits="userSpaceOnUse">
      <stop offset="0" stop-color="#695d51"/>
      <stop offset="1" stop-color="#7d7060"/>
    </linearGradient>
    <linearGradient id="linear-gradient-2" x1="-47.56" y1="381.48" x2="437.05" y2="381.48" xlink:href="#linear-gradient"/>
    <linearGradient id="linear-gradient-3" x1="-47.56" y1="463.22" x2="437.05" y2="463.22" xlink:href="#linear-gradient"/>
  </defs>
  <title>Ruins_10</title>
  <g id="Layer_2" data-name="Layer 2">
    <g id="_0" data-name="0">
      <g>
        <polygon class="cls-1" points="175.15 0 163.27 0.85 145.29 13.8 145.29 59.98 135.23 58.15 131.14 46.11 121.21 46.27 118.92 47.79 110.69 50.99 110.69 103.11 103.38 121.57 93.47 121.57 80.97 141.82 163.57 141.82 175.15 0"/>
        <polygon class="cls-1" points="59.87 138.34 26.01 145.88 26.01 403.95 18.29 407.2 0 526.1 75.59 526.1 59.87 138.34"/>
        <g>
          <polygon class="cls-2" points="59.87 526.1 59.87 138.34 95.5 138.34 101.79 121.57 110.18 121.57 120.66 104.8 120.66 52.4 131.14 46.11 139.52 56.59 154.19 56.59 154.19 14.67 175.15 0 179.35 14.67 187.73 14.67 198.21 44.02 219.17 73.36 244.32 73.36 259 96.42 261.09 106.9 279.95 106.9 279.95 526.1 59.87 526.1"/>
          <polygon class="cls-3" points="271.57 236.85 292.53 238.95 303.01 354.23 313.49 354.23 326.07 526.1 271.57 526.1 271.57 236.85"/>
          <polygon class="cls-4" points="66.16 400.34 53.58 408.73 49.39 526.1 68.26 526.1 66.16 400.34"/>
        </g>
      </g>
    </g>
  </g>
</svg>
