<svg xmlns="http://www.w3.org/2000/svg" xmlns:xlink="http://www.w3.org/1999/xlink" width="151.72" height="162.15" viewBox="0 0 151.72 162.15">
  <defs>
    <style>
      .cls-1 {
        fill: #4f453c;
      }

      .cls-2 {
        fill: url(#linear-gradient);
      }
    </style>
    <linearGradient id="linear-gradient" x1="10.12" y1="81.07" x2="171.39" y2="81.07" gradientUnits="userSpaceOnUse">
      <stop offset="0" stop-color="#695d51"/>
      <stop offset="1" stop-color="#7d7060"/>
    </linearGradient>
  </defs>
  <title>Ruins_13</title>
  <g id="Layer_2" data-name="Layer 2">
    <g id="_0" data-name="0">
      <g>
        <polygon class="cls-1" points="0 162.15 121.79 162.15 116.11 102.62 109.4 100.24 114.05 48.57 121.79 48.1 121.79 3.57 101.66 2.86 109.4 0 69.67 0 66.06 9.52 37.16 10 29.93 74.05 5.16 75.48 0 162.15"/>
        <polygon class="cls-2" points="29.93 162.15 151.72 162.15 146.04 102.62 139.34 100.24 143.98 48.57 151.72 48.1 151.72 3.57 131.59 2.86 129.01 0 99.6 0 95.99 9.52 67.09 10 59.86 74.05 35.09 75.48 29.93 162.15"/>
      </g>
    </g>
  </g>
</svg>
