<svg xmlns="http://www.w3.org/2000/svg" xmlns:xlink="http://www.w3.org/1999/xlink" width="139.2" height="271.06" viewBox="0 0 139.2 271.06">
  <defs>
    <style>
      .cls-1 {
        fill: #4f453c;
      }

      .cls-2 {
        fill: url(#linear-gradient);
      }
    </style>
    <linearGradient id="linear-gradient" x1="6.42" y1="135.53" x2="157.64" y2="135.53" gradientUnits="userSpaceOnUse">
      <stop offset="0" stop-color="#695d51"/>
      <stop offset="1" stop-color="#7d7060"/>
    </linearGradient>
  </defs>
  <title>Ruins_12</title>
  <g id="Layer_2" data-name="Layer 2">
    <g id="_0" data-name="0">
      <g>
        <path class="cls-1" d="M75.45.81V0h-25V0L47.51,9.5l-33.69.35L9.67,115.92l-6.56,2.42L0,271.06H51.31l-1-118.16H43V77.74c0-37.31,19.69-65,65-65L109.19,9l5-1V2.07Z"/>
        <path class="cls-2" d="M36.4,271.06H76.31l-1-118.16H68V77.74c0-37.31,19.69-65,65-65L134.19,9l5-1V2.07L75.45,0,72.51,9.5l-33.69.35L34.67,115.92l-6.56,2.42L25,271.06Z"/>
      </g>
    </g>
  </g>
</svg>
