<svg xmlns="http://www.w3.org/2000/svg" xmlns:xlink="http://www.w3.org/1999/xlink" width="236.49" height="619.917" viewBox="0 0 236.49 619.917">
  <defs>
    <linearGradient id="a" x1="27.412" y1="309.959" x2="220.01" y2="309.959" gradientUnits="userSpaceOnUse">
      <stop offset="0" stop-color="#998675"/>
      <stop offset="1" stop-color="#c7b299"/>
    </linearGradient>
  </defs>
  <title>Ruins_22</title>
  <g>
    <polygon points="0 619.917 6.367 465.275 46.477 462.606 51.999 328.484 75.998 328.484 99.997 0 143.495 0 156.994 430.478 182.493 430.478 197.492 619.917 0 619.917" fill="#847263"/>
    <polygon points="78.998 619.917 90.997 328.484 114.996 328.484 138.995 0 182.493 0 195.992 430.478 221.491 430.478 236.49 619.917 78.998 619.917" fill="url(#a)"/>
    <g>
      <g>
        <polygon points="149.503 473.958 149.503 487.958 158.253 487.958 158.253 473.458 149.503 473.958" fill="#66421f"/>
        <polygon points="158.253 473.458 173.419 473.458 173.419 488.458 158.253 487.958 158.253 473.458" fill="#754c24"/>
      </g>
      <g>
        <polygon points="149.503 328.542 149.503 342.542 158.253 342.542 158.253 328.042 149.503 328.542" fill="#66421f"/>
        <polygon points="158.253 328.042 173.419 329.292 171.919 342.625 158.253 342.542 158.253 328.042" fill="#754c24"/>
      </g>
      <g>
        <polygon points="149.503 183.209 149.503 197.209 158.253 197.209 158.253 182.709 149.503 183.209" fill="#66421f"/>
        <polygon points="158.253 182.709 173.419 182.709 173.419 196.292 158.253 197.209 158.253 182.709" fill="#754c24"/>
      </g>
    </g>
  </g>
</svg>
