<svg xmlns="http://www.w3.org/2000/svg" xmlns:xlink="http://www.w3.org/1999/xlink" width="326.068" height="526.102" viewBox="0 0 326.068 526.102">
  <defs>
    <linearGradient id="a" x1="-47.56" y1="263.051" x2="437.045" y2="263.051" gradientUnits="userSpaceOnUse">
      <stop offset="0" stop-color="#998675"/>
      <stop offset="1" stop-color="#c7b299"/>
    </linearGradient>
    <linearGradient id="b" x1="-47.56" y1="381.477" x2="437.045" y2="381.477" xlink:href="#a"/>
    <linearGradient id="c" x1="-47.56" y1="463.222" x2="437.045" y2="463.222" xlink:href="#a"/>
  </defs>
  <title>Ruins_10</title>
  <g>
    <polygon points="175.154 0 163.27 0.85 145.287 13.804 145.287 59.981 135.229 58.152 131.137 46.113 121.208 46.265 118.922 47.789 110.693 50.989 110.693 103.11 103.378 121.569 93.472 121.569 80.975 141.819 163.575 141.819 175.154 0" fill="#847263"/>
    <polygon points="59.872 138.338 26.009 145.883 26.009 403.946 18.288 407.197 0 526.102 75.59 526.102 59.872 138.338" fill="#847263"/>
    <g>
      <polygon points="59.872 526.102 59.872 138.338 95.505 138.338 101.793 121.569 110.177 121.569 120.657 104.801 120.657 52.401 131.137 46.113 139.521 56.593 154.194 56.593 154.194 14.672 175.154 0 179.346 14.672 187.73 14.672 198.21 44.017 219.17 73.361 244.323 73.361 258.995 96.417 261.091 106.897 279.955 106.897 279.955 526.102 59.872 526.102" fill="url(#a)"/>
      <polygon points="271.571 236.851 292.531 238.947 303.011 354.228 313.491 354.228 326.068 526.102 271.571 526.102 271.571 236.851" fill="url(#b)"/>
      <polygon points="66.16 400.341 53.584 408.725 49.392 526.102 68.256 526.102 66.16 400.341" fill="url(#c)"/>
    </g>
  </g>
</svg>
