<svg xmlns="http://www.w3.org/2000/svg" xmlns:xlink="http://www.w3.org/1999/xlink" width="198.333" height="220.661" viewBox="0 0 198.333 220.661">
  <defs>
    <linearGradient id="a" x1="-5.52" y1="110.33" x2="226.653" y2="110.33" gradientUnits="userSpaceOnUse">
      <stop offset="0" stop-color="#998675"/>
      <stop offset="1" stop-color="#c7b299"/>
    </linearGradient>
  </defs>
  <title>Ruins_12</title>
  <g>
    <path d="M53.667,220.661V60.667c0-47-33-51-51-51L0,0H72.333l2,23,10.334,1,4.666,76.333,27.334,4,2.333-15h30.667L150.333,112l6.334,1.333L163.333,187l9.667.667,2.333,32.994Z" fill="#847263"/>
    <path d="M76.667,220.661V60.667c0-47-33-51-51-51L23,0H95.333l2,23,10.334,1,4.666,76.333,27.334,4,2.333-15h30.667L173.333,112l6.334,1.333L186.333,187l9.667.667,2.333,32.994Z" fill="url(#a)"/>
  </g>
</svg>
