<svg xmlns="http://www.w3.org/2000/svg" xmlns:xlink="http://www.w3.org/1999/xlink" width="659.17" height="896.31" viewBox="0 0 659.17 896.31">
  <defs>
    <style>
      .cls-1 {
        fill: #4f453c;
      }

      .cls-2 {
        fill: url(#linear-gradient);
      }

      .cls-3 {
        fill: #3d2d1d;
      }

      .cls-4 {
        fill: #47331f;
      }
    </style>
    <linearGradient id="linear-gradient" x1="25.5" y1="448.16" x2="1717.39" y2="448.16" gradientUnits="userSpaceOnUse">
      <stop offset="0" stop-color="#695d51"/>
      <stop offset="1" stop-color="#7d7060"/>
    </linearGradient>
  </defs>
  <title>Ruins_24</title>
  <g id="Layer_2" data-name="Layer 2">
    <g id="_0" data-name="0">
      <g>
        <g>
          <path class="cls-1" d="M616.67,378.41l3.5-54H579.08l-3-144.41,17-6-10-114.67-6-9.33h-16l-1.5-13-29.5-2-7-35h-59.5l-4,30.67h-75L381.08,2h-58.5l-5,32.5h-49l-4-32.5h-64.5l-3.5,27-66-1-2-23.5H69.08L66.75,59.33,64.88,121A31.08,31.08,0,0,1,91.2,151.75v86.92H50.85l-3.44,85.74H23.17l2.5,54L0,378.43v132l18.17,1.48,3,33L40,546.28v18.36l-9.33,1.27v59.5l8.74,1.88L39,653.69H72v88.4l-6.1,1.82-6.09,152.4H171.69L165.6,790.24,160.72,789V750.42s23.16-96.73,156.06-96.73c88.51,0,124.55,50.3,138.75,83.9v4.5l-6.09,1.82-6.1,152.4h71.93l-6.09-106.07L504.3,789V750.42s9.09-37.86,48.43-66.21l-4.62-42.61,31.22-3V627.91l11.34-9.34V596.82l12-1.91,7-43.5-19-1.4V381.33ZM391,151.75a31.08,31.08,0,1,1,62.16,0v86.92H391Zm-181,0a31.08,31.08,0,1,1,62.16,0v86.92H210ZM220.5,513.91h-72v-85.5a36,36,0,0,1,36-36h0a36,36,0,0,1,36,36Zm266,0h-72v-85.5a36,36,0,0,1,36-36h0a36,36,0,0,1,36,36Z"/>
          <path class="cls-2" d="M650.17,378.41l-4.5-94H609.08l-3-104.41,17-6V59.33l-16-9.33h-16l-1.5-13-29.5-2-7-35h-59.5l-4,30.67h-75L411.08,2h-58.5l-5,32.5h-49l-4-32.5h-64.5l-3.5,27-66-1-2-23.5H99.08L96.75,59.33,94.88,121a31.08,31.08,0,0,1,26.32,30.72v86.92H80.85l-3.44,85.74H48.67l2.5,54-25.67,0v132l18.17,1.48,3,33,18.83,1.37v18.36l-9.33,1.27v59.5l8.74,1.88-.38,26.4H97.45v88.4l-6.1,1.82-6.09,152.4H197.19l-6.1-106.07L186.22,789V750.42s23.16-96.73,156-96.73c88.52,0,124.56,50.3,138.76,83.9v4.5l-6.09,1.82-6.1,152.4h71.93l-6.09-106.07L529.8,789V750.42s9.09-37.86,48.43-66.21l-4.62-42.61,31.22-3V627.91l11.34-9.34V596.82l12-1.91,7-43.5,24-2.4V380.33ZM421,151.75a31.08,31.08,0,1,1,62.16,0v86.92H421Zm-181,0a31.08,31.08,0,1,1,62.16,0v86.92H240Zm6,362.16H174v-85.5a36,36,0,0,1,36-36h0a36,36,0,0,1,36,36Zm266,0H440v-85.5a36,36,0,0,1,36-36h0a36,36,0,0,1,36,36Z"/>
          <g>
            <g>
              <polygon class="cls-3" points="135.32 66.42 135.32 80.42 144.07 80.42 144.07 65.92 135.32 66.42"/>
              <polygon class="cls-4" points="144.07 65.92 159.24 66.6 159.24 80.19 144.07 80.42 144.07 65.92"/>
            </g>
            <g>
              <polygon class="cls-3" points="307.32 66.42 307.32 80.42 316.07 80.42 316.07 65.92 307.32 66.42"/>
              <polygon class="cls-4" points="316.07 65.92 331.24 65.92 331.24 80.92 316.07 80.42 316.07 65.92"/>
            </g>
            <g>
              <polygon class="cls-3" points="393.32 66.42 393.32 80.42 402.07 80.42 402.07 65.92 393.32 66.42"/>
              <polygon class="cls-4" points="402.07 65.92 417.24 67.17 415.74 80.5 402.07 80.42 402.07 65.92"/>
            </g>
            <g>
              <polygon class="cls-3" points="479.32 66.42 479.32 80.42 488.07 80.42 488.07 65.92 479.32 66.42"/>
              <polygon class="cls-4" points="488.07 65.92 503.24 65.92 503.24 79.5 488.07 80.42 488.07 65.92"/>
            </g>
            <g>
              <polygon class="cls-3" points="565.33 66.42 565.33 80.42 574.08 80.42 574.08 65.92 565.33 66.42"/>
              <polygon class="cls-4" points="574.08 65.92 589.24 65.92 589.24 79.5 574.08 80.42 574.08 65.92"/>
            </g>
          </g>
        </g>
        <g>
          <g>
            <polygon class="cls-3" points="123.91 583.32 123.91 597.32 132.66 597.32 132.66 582.82 123.91 583.32"/>
            <polygon class="cls-4" points="132.66 582.82 147.83 583.51 147.83 597.1 132.66 597.32 132.66 582.82"/>
          </g>
          <g>
            <polygon class="cls-3" points="381.91 583.32 381.91 597.32 390.66 597.32 390.66 582.82 381.91 583.32"/>
            <polygon class="cls-4" points="390.66 582.82 405.83 584.07 404.33 597.41 390.66 597.32 390.66 582.82"/>
          </g>
          <g>
            <polygon class="cls-3" points="467.91 583.32 467.91 597.32 476.66 597.32 476.66 582.82 467.91 583.32"/>
            <polygon class="cls-4" points="476.66 582.82 491.83 582.82 491.83 596.41 476.66 597.32 476.66 582.82"/>
          </g>
          <g>
            <polygon class="cls-3" points="553.91 583.32 553.91 597.32 562.66 597.32 562.66 582.82 553.91 583.32"/>
            <polygon class="cls-4" points="562.66 582.82 577.83 582.82 577.83 596.41 562.66 597.32 562.66 582.82"/>
          </g>
        </g>
        <g>
          <g>
            <polygon class="cls-3" points="79.08 345.66 79.08 359.66 87.83 359.66 87.83 345.16 79.08 345.66"/>
            <polygon class="cls-4" points="87.83 345.16 102.99 345.16 103.16 359.66 87.83 359.66 87.83 345.16"/>
          </g>
          <g>
            <polygon class="cls-3" points="165.08 345.66 165.08 359.66 173.83 359.66 173.83 345.16 165.08 345.66"/>
            <polygon class="cls-4" points="173.83 345.16 188.99 345.85 188.99 359.43 173.83 359.66 173.83 345.16"/>
          </g>
          <g>
            <polygon class="cls-3" points="251.08 345.66 251.08 359.66 259.83 359.66 259.83 345.16 251.08 345.66"/>
            <polygon class="cls-4" points="259.83 345.16 274.99 345.91 274.99 359.74 259.83 359.66 259.83 345.16"/>
          </g>
          <g>
            <polygon class="cls-3" points="337.08 345.66 337.08 359.66 345.83 359.66 345.83 345.16 337.08 345.66"/>
            <polygon class="cls-4" points="345.83 345.16 360.99 345.16 360.99 360.16 345.83 359.66 345.83 345.16"/>
          </g>
          <g>
            <polygon class="cls-3" points="509.08 345.66 509.08 359.66 517.83 359.66 517.83 345.16 509.08 345.66"/>
            <polygon class="cls-4" points="517.83 345.16 532.99 345.16 532.99 358.74 517.83 359.66 517.83 345.16"/>
          </g>
          <g>
            <polygon class="cls-3" points="595.08 345.66 595.08 359.66 603.83 359.66 603.83 345.16 595.08 345.66"/>
            <polygon class="cls-4" points="603.83 345.16 618.99 345.16 618.99 358.74 603.83 359.66 603.83 345.16"/>
          </g>
        </g>
      </g>
    </g>
  </g>
</svg>
