<svg xmlns="http://www.w3.org/2000/svg" xmlns:xlink="http://www.w3.org/1999/xlink" width="767.801" height="671.776" viewBox="0 0 767.801 671.776">
  <defs>
    <linearGradient id="a" x1="-16.84" y1="427.589" x2="782.511" y2="427.589" gradientUnits="userSpaceOnUse">
      <stop offset="0" stop-color="#998675"/>
      <stop offset="1" stop-color="#c7b299"/>
    </linearGradient>
    <linearGradient id="b" x1="-16.84" y1="409.773" x2="782.511" y2="409.773" xlink:href="#a"/>
    <linearGradient id="c" x1="-16.84" y1="344.796" x2="782.511" y2="344.796" xlink:href="#a"/>
    <linearGradient id="d" x1="-16.84" y1="447.501" x2="782.511" y2="447.501" xlink:href="#a"/>
    <linearGradient id="e" x1="-16.84" y1="47.161" x2="782.511" y2="47.161" xlink:href="#a"/>
    <linearGradient id="f" x1="-16.84" y1="52.401" x2="782.511" y2="52.401" xlink:href="#a"/>
    <linearGradient id="g" x1="-16.84" y1="180.258" x2="782.511" y2="180.258" xlink:href="#a"/>
    <linearGradient id="h" x1="-16.84" y1="565.927" x2="782.511" y2="565.927" xlink:href="#a"/>
  </defs>
  <title>Ruins_9</title>
  <g>
    <polygon points="614.791 77.553 600.047 81.214 600.047 194.193 621.688 172.552 614.791 77.553" fill="#847263"/>
    <polygon points="58.296 183.402 34.544 186.878 34.544 457.132 22.352 461.126 0 670.728 119.075 670.728 217.829 250.682 187.202 2.096 162.153 2.096 153.665 12.576 124.358 12.576 124.358 65.771 144.233 79.182 154.431 90.968 154.431 147.77 113.791 147.77 113.791 232.394 72.968 232.394 58.296 183.402" fill="#847263"/>
    <g>
      <rect x="58.296" y="183.402" width="29.344" height="488.374" fill="url(#a)"/>
      <rect x="144.233" y="147.77" width="377.285" height="524.006" fill="url(#b)"/>
      <rect x="186.154" y="17.816" width="303.924" height="653.96" fill="url(#c)"/>
      <rect x="81.353" y="223.227" width="603.655" height="448.549" fill="url(#d)"/>
      <polygon points="195.586 92.225 168.338 67.073 164.146 67.073 153.665 60.785 153.665 12.576 183.01 12.576 187.202 2.096 250.083 2.096 254.275 12.576 285.715 12.576 287.811 23.056 195.586 92.225" fill="url(#e)"/>
      <polygon points="417.765 23.056 421.957 10.48 428.245 10.48 434.533 0 489.029 0 497.414 14.672 497.414 20.96 514.182 20.96 518.374 62.881 514.182 69.169 505.798 69.169 476.453 104.801 417.765 23.056" fill="url(#f)"/>
      <path d="M482.741,138.338l41.921,6.288,6.288,37.728h58.689l25.152-14.672V77.553h16.768v31.44H767.8v16.769s-77.553,0-77.553,75.456l4.192,4.192-2.1,14.673,2.1,16.768,8.384,2.1,2.1,8.384-12.576,2.1-12.576,33.536H474.357V138.338Z" fill="url(#g)"/>
      <polygon points="67.728 461.126 50.96 469.51 42.576 670.728 78.732 670.728 67.728 461.126" fill="url(#h)"/>
    </g>
  </g>
</svg>
