<svg xmlns="http://www.w3.org/2000/svg" xmlns:xlink="http://www.w3.org/1999/xlink" width="659.165" height="896.314" viewBox="0 0 659.165 896.314">
  <defs>
    <linearGradient id="a" x1="25.499" y1="448.157" x2="1717.391" y2="448.157" gradientUnits="userSpaceOnUse">
      <stop offset="0" stop-color="#998675"/>
      <stop offset="1" stop-color="#c7b299"/>
    </linearGradient>
  </defs>
  <title>Ruins_24</title>
  <g>
    <g>
      <path d="M616.666,378.407l3.5-54H579.079l-3-144.407,17-6-10-114.667-6-9.333h-16l-1.5-13-29.5-2-7-35h-59.5l-4,30.667h-75L381.079,2h-58.5l-5,32.5h-49l-4-32.5h-64.5l-3.5,27-66-1-2-23.5h-59.5L66.746,59.333l-1.87,61.7A31.088,31.088,0,0,1,91.2,151.747v86.92H50.85l-3.437,85.74H23.167l2.5,54L0,378.43v132l18.167,1.48,3,33L40,546.277v18.364l-9.333,1.266v59.5l8.746,1.887-.38,26.4H71.951v88.391l-6.1,1.829-6.1,152.4H171.692l-6.1-106.07-4.877-1.219V750.417S183.884,653.7,316.776,653.7c88.517,0,124.555,50.3,138.759,83.891v4.5l-6.1,1.829-6.095,152.4h71.932l-6.1-106.07-4.877-1.219V750.417s9.085-37.861,48.432-66.207L548.109,641.6l31.224-3.021V627.907l11.333-9.333V596.816l12-1.909,7-43.5-19-1.393V381.332ZM391.042,151.747a31.081,31.081,0,0,1,62.161,0v86.92H391.042Zm-181,0a31.081,31.081,0,0,1,62.161,0v86.92H210.042ZM220.5,513.907h-72v-85.5a36,36,0,0,1,36-36h0a36,36,0,0,1,36,36Zm266,0h-72v-85.5a36,36,0,0,1,36-36h0a36,36,0,0,1,36,36Z" fill="#847263"/>
      <path d="M650.165,378.407l-4.5-94H609.079l-3-104.407,17-6V59.333l-16-9.333h-16l-1.5-13-29.5-2-7-35h-59.5l-4,30.667h-75L411.079,2h-58.5l-5,32.5h-49l-4-32.5h-64.5l-3.5,27-66-1-2-23.5h-59.5L96.746,59.333l-1.87,61.7A31.088,31.088,0,0,1,121.2,151.747v86.92H80.85l-3.437,85.74H48.665l2.5,54L25.5,378.43v132l18.166,1.48,3,33,18.834,1.37v18.364l-9.334,1.266v59.5l8.747,1.887-.381,26.4H97.45v88.391l-6.1,1.829-6.1,152.4H197.19l-6.1-106.07-4.876-1.219V750.417S209.382,653.7,342.274,653.7c88.518,0,124.555,50.3,138.759,83.891v4.5l-6.1,1.829-6.1,152.4h71.933l-6.1-106.07-4.877-1.219V750.417s9.085-37.861,48.432-66.207L573.608,641.6l31.224-3.021V627.907l11.333-9.333V596.816l12-1.909,7-43.5,24-2.393V380.332ZM421.042,151.747a31.081,31.081,0,0,1,62.161,0v86.92H421.042Zm-181,0a31.081,31.081,0,0,1,62.161,0v86.92H240.042ZM246,513.907H174v-85.5a36,36,0,0,1,36-36h0a36,36,0,0,1,36,36Zm266,0H440v-85.5a36,36,0,0,1,36-36h0a36,36,0,0,1,36,36Z" fill="url(#a)"/>
      <g>
        <g>
          <polygon points="135.325 66.417 135.325 80.417 144.075 80.417 144.075 65.917 135.325 66.417" fill="#66421f"/>
          <polygon points="144.075 65.917 159.241 66.604 159.241 80.188 144.075 80.417 144.075 65.917" fill="#754c24"/>
        </g>
        <g>
          <polygon points="221.325 66.417 221.325 80.417 230.075 80.417 230.075 65.917 221.325 66.417" fill="#66421f"/>
          <polygon points="230.075 65.917 245.241 66.667 245.241 80.5 230.075 80.417 230.075 65.917" fill="#754c24"/>
        </g>
        <g>
          <polygon points="307.325 66.417 307.325 80.417 316.075 80.417 316.075 65.917 307.325 66.417" fill="#66421f"/>
          <polygon points="316.075 65.917 331.241 65.917 331.241 80.917 316.075 80.417 316.075 65.917" fill="#754c24"/>
        </g>
        <g>
          <polygon points="393.325 66.417 393.325 80.417 402.075 80.417 402.075 65.917 393.325 66.417" fill="#66421f"/>
          <polygon points="402.075 65.917 417.241 67.167 415.741 80.5 402.075 80.417 402.075 65.917" fill="#754c24"/>
        </g>
        <g>
          <polygon points="479.325 66.417 479.325 80.417 488.075 80.417 488.075 65.917 479.325 66.417" fill="#66421f"/>
          <polygon points="488.075 65.917 503.241 65.917 503.241 79.5 488.075 80.417 488.075 65.917" fill="#754c24"/>
        </g>
        <g>
          <polygon points="565.325 66.417 565.325 80.417 574.075 80.417 574.075 65.917 565.325 66.417" fill="#66421f"/>
          <polygon points="574.075 65.917 589.241 65.917 589.241 79.5 574.075 80.417 574.075 65.917" fill="#754c24"/>
        </g>
      </g>
    </g>
    <g>
      <g>
        <polygon points="123.911 583.324 123.911 597.324 132.661 597.324 132.661 582.824 123.911 583.324" fill="#66421f"/>
        <polygon points="132.661 582.824 147.827 583.511 147.827 597.095 132.661 597.324 132.661 582.824" fill="#754c24"/>
      </g>
      <g>
        <polygon points="209.911 583.324 209.911 597.324 218.661 597.324 218.661 582.824 209.911 583.324" fill="#66421f"/>
        <polygon points="218.661 582.824 233.827 583.574 233.827 597.407 218.661 597.324 218.661 582.824" fill="#754c24"/>
      </g>
      <g>
        <polygon points="295.911 583.324 295.911 597.324 304.661 597.324 304.661 582.824 295.911 583.324" fill="#66421f"/>
        <polygon points="304.661 582.824 319.827 582.824 319.827 597.824 304.661 597.324 304.661 582.824" fill="#754c24"/>
      </g>
      <g>
        <polygon points="381.911 583.324 381.911 597.324 390.661 597.324 390.661 582.824 381.911 583.324" fill="#66421f"/>
        <polygon points="390.661 582.824 405.827 584.074 404.327 597.407 390.661 597.324 390.661 582.824" fill="#754c24"/>
      </g>
      <g>
        <polygon points="467.911 583.324 467.911 597.324 476.661 597.324 476.661 582.824 467.911 583.324" fill="#66421f"/>
        <polygon points="476.661 582.824 491.827 582.824 491.827 596.407 476.661 597.324 476.661 582.824" fill="#754c24"/>
      </g>
      <g>
        <polygon points="553.911 583.324 553.911 597.324 562.661 597.324 562.661 582.824 553.911 583.324" fill="#66421f"/>
        <polygon points="562.661 582.824 577.827 582.824 577.827 596.407 562.661 597.324 562.661 582.824" fill="#754c24"/>
      </g>
    </g>
    <g>
      <g>
        <polygon points="79.077 345.657 79.077 359.657 87.827 359.657 87.827 345.157 79.077 345.657" fill="#66421f"/>
        <polygon points="87.827 345.157 102.994 345.157 103.161 359.657 87.827 359.657 87.827 345.157" fill="#754c24"/>
      </g>
      <g>
        <polygon points="165.077 345.657 165.077 359.657 173.827 359.657 173.827 345.157 165.077 345.657" fill="#66421f"/>
        <polygon points="173.827 345.157 188.994 345.845 188.994 359.428 173.827 359.657 173.827 345.157" fill="#754c24"/>
      </g>
      <g>
        <polygon points="251.077 345.657 251.077 359.657 259.827 359.657 259.827 345.157 251.077 345.657" fill="#66421f"/>
        <polygon points="259.827 345.157 274.994 345.907 274.994 359.74 259.827 359.657 259.827 345.157" fill="#754c24"/>
      </g>
      <g>
        <polygon points="337.077 345.657 337.077 359.657 345.827 359.657 345.827 345.157 337.077 345.657" fill="#66421f"/>
        <polygon points="345.827 345.157 360.994 345.157 360.994 360.157 345.827 359.657 345.827 345.157" fill="#754c24"/>
      </g>
      <g>
        <polygon points="423.077 345.657 423.077 359.657 431.827 359.657 431.827 345.157 423.077 345.657" fill="#66421f"/>
        <polygon points="431.827 345.157 446.994 346.407 445.494 359.74 431.827 359.657 431.827 345.157" fill="#754c24"/>
      </g>
      <g>
        <polygon points="509.077 345.657 509.077 359.657 517.827 359.657 517.827 345.157 509.077 345.657" fill="#66421f"/>
        <polygon points="517.827 345.157 532.994 345.157 532.994 358.74 517.827 359.657 517.827 345.157" fill="#754c24"/>
      </g>
      <g>
        <polygon points="595.077 345.657 595.077 359.657 603.827 359.657 603.827 345.157 595.077 345.657" fill="#66421f"/>
        <polygon points="603.827 345.157 618.994 345.157 618.994 358.74 603.827 359.657 603.827 345.157" fill="#754c24"/>
      </g>
    </g>
  </g>
</svg>
