<svg xmlns="http://www.w3.org/2000/svg" width="229.247" height="163.313" viewBox="0 0 229.247 163.313">
  <title>Stand_11</title>
  <g>
    <g>
      <g>
        <polygon points="158.558 0.274 165.032 0 184.85 163.28 179.287 163.28 158.558 0.274" fill="#754c24"/>
        <polygon points="158.558 0.274 155.093 1.915 176.826 163.28 179.287 163.28 158.558 0.274" fill="#66421f"/>
      </g>
      <g>
        <polygon points="220.697 20.274 227.171 20 186.989 163.28 181.427 163.28 220.697 20.274" fill="#754c24"/>
        <polygon points="220.697 20.274 217.232 21.915 178.965 163.28 181.427 163.28 220.697 20.274" fill="#66421f"/>
      </g>
    </g>
    <path d="M171.4,114.437s3.5-3.475-.478-6.476-8.967.469-8.967.469-.984-3.988-8.455-4.011-9.482,5.449-9.482,5.449-.487-3.488-5.471-2.508-5.493,4.465-5.493,4.465.514-4.979-5.459-6.492-8.475,2.464-8.475,2.464-.484-4.485-6.461-4.5a7.739,7.739,0,0,0-7.489,5.456,4.031,4.031,0,0,0-5.937-1.826c-3.408-.829-6.778,1.507-6.778,1.507s-.984-3.988-8.455-4.011-9.482,5.449-9.482,5.449-.487-3.488-5.471-2.508-5.493,4.465-5.493,4.465.514-4.979-5.459-6.492-8.475,2.464-8.475,2.464-.484-4.485-6.461-4.5a7.74,7.74,0,0,0-7.489,5.456s-1.978-4.49-6.471-1.515-2.011,5.971-2.011,5.971a5.534,5.534,0,0,0-5.5,5.959c-.019,5.978,5.957,6.5,5.957,6.5l77.205.244a4.229,4.229,0,0,0,.382-.219l69.118.219a2.48,2.48,0,0,0,1.009-3.981C178.869,115.457,171.4,114.437,171.4,114.437Z" fill="#a4bd47"/>
    <g>
      <polygon points="46.576 120.869 15.91 120.869 13.576 163.28 51.91 163.28 46.576 120.869" fill="#66421f"/>
      <polygon points="190.576 163.313 185.91 120.869 46.576 120.869 47.243 163.313 190.576 163.313" fill="#754c24"/>
    </g>
    <g>
      <g>
        <polygon points="3.678 0.274 10.152 0 29.97 163.28 24.408 163.28 3.678 0.274" fill="#754c24"/>
        <polygon points="3.678 0.274 0.213 1.915 21.946 163.28 24.408 163.28 3.678 0.274" fill="#66421f"/>
      </g>
      <g>
        <polygon points="65.817 20.274 72.291 20 32.109 163.28 26.547 163.28 65.817 20.274" fill="#754c24"/>
        <polygon points="65.817 20.274 62.353 21.915 24.085 163.28 26.547 163.28 65.817 20.274" fill="#66421f"/>
      </g>
    </g>
    <g>
      <path d="M.766,3.2s15.81,19.417,63.31,19.417l164.738.066s1.429-2.733-.9-3.4S193.154,18.548,165.032,0H3.368a1,1,0,0,0-.4.083L.6,1.116A1,1,0,0,0,.339,2.783Z" fill="#8d5fce"/>
      <g>
        <path d="M64.082,22.337c.446,9.717,4.881,17.352,10.3,17.352s9.851-7.635,10.3-17.352Z" fill="#8d5fce"/>
        <path d="M84.676,22.337c.445,9.717,4.881,17.352,10.3,17.352s9.85-7.635,10.3-17.352Z" fill="#8d5fce"/>
        <path d="M105.269,22.337c.446,9.717,4.882,17.352,10.3,17.352s9.851-7.635,10.3-17.352Z" fill="#8d5fce"/>
        <path d="M125.863,22.337c.446,9.717,4.881,17.352,10.3,17.352s9.851-7.635,10.3-17.352Z" fill="#8d5fce"/>
        <path d="M146.457,22.337c.445,9.717,4.881,17.352,10.3,17.352s9.85-7.635,10.3-17.352Z" fill="#8d5fce"/>
        <path d="M167.05,22.337c.446,9.717,4.882,17.352,10.3,17.352s9.851-7.635,10.3-17.352Z" fill="#8d5fce"/>
        <path d="M187.644,22.337c.446,9.717,4.882,17.352,10.3,17.352s9.851-7.635,10.3-17.352Z" fill="#8d5fce"/>
        <path d="M208.238,22.337c.445,9.717,4.881,17.352,10.3,17.352s9.85-7.635,10.3-17.352Z" fill="#8d5fce"/>
      </g>
    </g>
  </g>
</svg>
