<svg xmlns="http://www.w3.org/2000/svg" width="229.25" height="163.31" viewBox="0 0 229.25 163.31">
  <defs>
    <style>
      .cls-1 {
        fill: #754c24;
      }

      .cls-2 {
        fill: #66421f;
      }

      .cls-3 {
        fill: #ff6f1f;
      }

      .cls-4 {
        fill: #ffa61e;
      }

      .cls-5 {
        fill: #ff931e;
      }
    </style>
  </defs>
  <title>Stand_18</title>
  <g id="Layer_2" data-name="Layer 2">
    <g id="_0" data-name="0">
      <g>
        <g>
          <g>
            <polygon class="cls-1" points="158.56 0.27 165.03 0 184.85 163.28 179.29 163.28 158.56 0.27"/>
            <polygon class="cls-2" points="158.56 0.27 155.09 1.92 176.83 163.28 179.29 163.28 158.56 0.27"/>
          </g>
          <g>
            <polygon class="cls-1" points="220.7 20.27 227.17 20 186.99 163.28 181.43 163.28 220.7 20.27"/>
            <polygon class="cls-2" points="220.7 20.27 217.23 21.91 178.97 163.28 181.43 163.28 220.7 20.27"/>
          </g>
        </g>
        <g>
          <path class="cls-3" d="M120.19,112.15s-5.36-4.91-16.32-4.54a38,38,0,0,0-16.77,4.67l13,8.48,16.29-3.57Z"/>
          <path class="cls-4" d="M118.37,119.88c.62-2.54,1.22-5.12,1.82-7.73a46.94,46.94,0,0,1-17.58,2.32,78.37,78.37,0,0,1-15.51-2.19c.43,3.49.9,6.93,1.39,10.27a60.21,60.21,0,0,0,11.12,1.53A37.61,37.61,0,0,0,118.37,119.88Z"/>
        </g>
        <g>
          <path class="cls-3" d="M92.25,88.92s-8.53,1.36-15,10.12c-7.35,10-6.64,19.72-6.64,19.72l11.42,1,15.67-18.48Z"/>
          <path class="cls-5" d="M99.33,95.08C97,93,94.63,91,92.25,88.92a80.5,80.5,0,0,1-7.68,16.63c-3.48,5.6-8.77,10-13.93,13.21,4.24,1.85,8.56,3.66,12.83,5.37a78.27,78.27,0,0,0,9.41-12.53A46.82,46.82,0,0,0,99.33,95.08Z"/>
        </g>
        <g>
          <path class="cls-3" d="M69.57,83.83s-4.56,5-7.29,14.29,1.89,24.79,1.89,24.79l9.5-7.92L75,95.62Z"/>
          <path class="cls-4" d="M80,86.66c-3.51-1-7-1.93-10.45-2.83a105.66,105.66,0,0,1-.43,21.31,59.25,59.25,0,0,1-5,17.77c2.86,0,5.77,0,8.69-.11,3.33-5.1,6.32-11.28,7.13-17.82A80.08,80.08,0,0,0,80,86.66Z"/>
        </g>
        <g>
          <path class="cls-3" d="M181.78,110.29s-5.94-3.26-15.59-3.75-23.67,7.65-23.67,7.65l9.93,7.39,19.14-3.26Z"/>
          <path class="cls-4" d="M181.48,121.11c.13-3.64.24-7.26.3-10.82A105.19,105.19,0,0,1,161,114.86a59.48,59.48,0,0,1-18.44-.67c.69,2.78,1.4,5.6,2.15,8.42,5.74,2,12.44,3.5,19,2.77A79.77,79.77,0,0,0,181.48,121.11Z"/>
        </g>
        <g>
          <path class="cls-3" d="M55.11,81.3S48.87,86.47,45,97.64,46,122.75,46,122.75l14.38-14.06V85.76Z"/>
          <path class="cls-5" d="M65.39,83.83c-3.51-.9-7-1.75-10.28-2.53a93.26,93.26,0,0,1-.26,20.06c-1.08,8.62-5,16-8.84,21.39,4.42.13,9.13.18,14,.16a59.23,59.23,0,0,0,5-17.77A106.4,106.4,0,0,0,65.39,83.83Z"/>
        </g>
        <g>
          <path class="cls-3" d="M36.68,78.83s-5.23,5.31-7.77,21.61c-1.51,9.65,2.49,22.22,2.49,22.22L42,109.88,40.35,86.6Z"/>
          <path class="cls-4" d="M48.54,80.88c-4.18-.79-8.18-1.49-11.86-2a85.82,85.82,0,0,1,1.25,20.93c-.71,8.49-3.73,16.8-6.53,22.9,3,0,6.32.06,9.78,0,3.63-5.56,7.22-13.08,7.94-21.74A94,94,0,0,0,48.54,80.88Z"/>
        </g>
        <g>
          <polygon class="cls-2" points="46.58 120.87 15.91 120.87 13.58 163.28 51.91 163.28 46.58 120.87"/>
          <polygon class="cls-1" points="190.58 163.31 185.91 120.87 46.58 120.87 47.24 163.31 190.58 163.31"/>
        </g>
        <g>
          <g>
            <polygon class="cls-1" points="3.68 0.27 10.15 0 29.97 163.28 24.41 163.28 3.68 0.27"/>
            <polygon class="cls-2" points="3.68 0.27 0.21 1.92 21.95 163.28 24.41 163.28 3.68 0.27"/>
          </g>
          <g>
            <polygon class="cls-1" points="65.82 20.27 72.29 20 32.11 163.28 26.55 163.28 65.82 20.27"/>
            <polygon class="cls-2" points="65.82 20.27 62.35 21.91 24.09 163.28 26.55 163.28 65.82 20.27"/>
          </g>
        </g>
        <g>
          <path class="cls-5" d="M.77,3.2S16.58,22.62,64.08,22.62l164.73.06s1.43-2.73-.9-3.39S193.15,18.55,165,0H3.37A1.06,1.06,0,0,0,3,.08L.6,1.12A1,1,0,0,0,.34,2.78Z"/>
          <g>
            <path class="cls-5" d="M64.08,22.34c.45,9.71,4.88,17.35,10.3,17.35s9.85-7.64,10.3-17.35Z"/>
            <path class="cls-5" d="M84.68,22.34c.44,9.71,4.88,17.35,10.29,17.35s9.85-7.64,10.3-17.35Z"/>
            <path class="cls-5" d="M105.27,22.34c.44,9.71,4.88,17.35,10.3,17.35s9.85-7.64,10.29-17.35Z"/>
            <path class="cls-5" d="M125.86,22.34c.45,9.71,4.88,17.35,10.3,17.35s9.85-7.64,10.3-17.35Z"/>
            <path class="cls-5" d="M146.46,22.34c.44,9.71,4.88,17.35,10.29,17.35s9.85-7.64,10.3-17.35Z"/>
            <path class="cls-5" d="M167.05,22.34c.45,9.71,4.88,17.35,10.3,17.35s9.85-7.64,10.29-17.35Z"/>
            <path class="cls-5" d="M187.64,22.34c.45,9.71,4.89,17.35,10.3,17.35s9.85-7.64,10.3-17.35Z"/>
            <path class="cls-5" d="M208.24,22.34c.44,9.71,4.88,17.35,10.29,17.35s9.86-7.64,10.3-17.35Z"/>
          </g>
        </g>
        <g>
          <path class="cls-3" d="M177.35,100.65S172,95.74,161,96.11a38,38,0,0,0-16.77,4.67l13,8.48,16.3-3.57Z"/>
          <path class="cls-4" d="M175.52,108.39c.63-2.54,1.23-5.13,1.83-7.74A46.79,46.79,0,0,1,159.76,103a78.25,78.25,0,0,1-15.5-2.19c.43,3.49.9,6.94,1.39,10.28a61.05,61.05,0,0,0,11.11,1.52A37.69,37.69,0,0,0,175.52,108.39Z"/>
        </g>
      </g>
    </g>
  </g>
</svg>
