<svg xmlns="http://www.w3.org/2000/svg" xmlns:xlink="http://www.w3.org/1999/xlink" width="229.247" height="163.313" viewBox="0 0 229.247 163.313">
  <defs>
    <linearGradient id="a" x1="21.241" y1="110.948" x2="181.669" y2="110.948" gradientUnits="userSpaceOnUse">
      <stop offset="0" stop-color="#005437"/>
      <stop offset="1" stop-color="#006837"/>
    </linearGradient>
  </defs>
  <title>Stand_14</title>
  <g>
    <g>
      <g>
        <polygon points="158.558 0.274 165.032 0 184.85 163.28 179.287 163.28 158.558 0.274" fill="#754c24"/>
        <polygon points="158.558 0.274 155.093 1.915 176.826 163.28 179.287 163.28 158.558 0.274" fill="#66421f"/>
      </g>
      <g>
        <polygon points="220.697 20.274 227.171 20 186.989 163.28 181.427 163.28 220.697 20.274" fill="#754c24"/>
        <polygon points="220.697 20.274 217.232 21.915 178.965 163.28 181.427 163.28 220.697 20.274" fill="#66421f"/>
      </g>
    </g>
    <path d="M180.725,120.172c-2.82-5.194-6.814-2.378-6.814-2.378s1.178-6.81-2.428-7.6-4.8,1.217-4.8,1.217-1.63-8.4-8.035-8.378a6.851,6.851,0,0,0-7.187,5.629s-1.609-2.4-3.209-1.991a12.222,12.222,0,0,0-3.6,2.014s1.19-3.206-1.216-4.4c-2.147-1.065-3.01.417-3.171.748a2.15,2.15,0,0,0-1.241-3.135c-2.4-.792-3.6,2.014-3.6,2.014s-1.232-9.2-6.037-9.587-9.986,6.44-9.986,6.44-1.618-4.8-8.423-4.775c-6.2.022-9.074,2.027-9.532,2.381-.458-.354-3.327-2.359-9.532-2.381-6.805-.023-8.423,4.775-8.423,4.775s-5.18-6.823-9.985-6.44-6.038,9.587-6.038,9.587-1.192-2.806-3.6-2.014a2.15,2.15,0,0,0-1.241,3.135c-.161-.331-1.023-1.813-3.171-.748-2.406,1.193-1.216,4.4-1.216,4.4a12.222,12.222,0,0,0-3.6-2.014c-1.6-.406-3.209,1.991-3.209,1.991a6.85,6.85,0,0,0-7.186-5.629c-6.405-.023-8.036,8.378-8.036,8.378s-1.194-2-4.8-1.217-2.428,7.6-2.428,7.6-3.994-2.816-6.814,2.378,1.578,6.811,1.578,6.811,54.032,1.455,77.692-.168c23.66,1.623,77.692.168,77.692.168S183.545,125.366,180.725,120.172Z" fill="url(#a)"/>
    <g>
      <polygon points="46.576 120.869 15.91 120.869 13.576 163.28 51.91 163.28 46.576 120.869" fill="#66421f"/>
      <polygon points="190.576 163.313 185.91 120.869 46.576 120.869 47.243 163.313 190.576 163.313" fill="#754c24"/>
    </g>
    <g>
      <g>
        <polygon points="3.678 0.274 10.152 0 29.97 163.28 24.408 163.28 3.678 0.274" fill="#754c24"/>
        <polygon points="3.678 0.274 0.213 1.915 21.946 163.28 24.408 163.28 3.678 0.274" fill="#66421f"/>
      </g>
      <g>
        <polygon points="65.817 20.274 72.291 20 32.109 163.28 26.547 163.28 65.817 20.274" fill="#754c24"/>
        <polygon points="65.817 20.274 62.353 21.915 24.085 163.28 26.547 163.28 65.817 20.274" fill="#66421f"/>
      </g>
    </g>
    <g>
      <path d="M.766,3.2s15.81,19.417,63.31,19.417l164.738.066s1.429-2.733-.9-3.4S193.154,18.548,165.032,0H3.368a1,1,0,0,0-.4.083L.6,1.116A1,1,0,0,0,.339,2.783Z" fill="#d8563d"/>
      <g>
        <path d="M64.082,22.337c.446,9.717,4.881,17.352,10.3,17.352s9.851-7.635,10.3-17.352Z" fill="#d8563d"/>
        <path d="M84.676,22.337c.445,9.717,4.881,17.352,10.3,17.352s9.85-7.635,10.3-17.352Z" fill="#d8563d"/>
        <path d="M105.269,22.337c.446,9.717,4.882,17.352,10.3,17.352s9.851-7.635,10.3-17.352Z" fill="#d8563d"/>
        <path d="M125.863,22.337c.446,9.717,4.881,17.352,10.3,17.352s9.851-7.635,10.3-17.352Z" fill="#d8563d"/>
        <path d="M146.457,22.337c.445,9.717,4.881,17.352,10.3,17.352s9.85-7.635,10.3-17.352Z" fill="#d8563d"/>
        <path d="M167.05,22.337c.446,9.717,4.882,17.352,10.3,17.352s9.851-7.635,10.3-17.352Z" fill="#d8563d"/>
        <path d="M187.644,22.337c.446,9.717,4.882,17.352,10.3,17.352s9.851-7.635,10.3-17.352Z" fill="#d8563d"/>
        <path d="M208.238,22.337c.445,9.717,4.881,17.352,10.3,17.352s9.85-7.635,10.3-17.352Z" fill="#d8563d"/>
      </g>
    </g>
  </g>
</svg>
