<svg xmlns="http://www.w3.org/2000/svg" xmlns:xlink="http://www.w3.org/1999/xlink" width="229.25" height="163.31" viewBox="0 0 229.25 163.31">
  <defs>
    <style>
      .cls-1 {
        fill: url(#linear-gradient);
      }

      .cls-2 {
        fill: url(#linear-gradient-2);
      }

      .cls-3 {
        fill: #fbb03b;
      }

      .cls-4 {
        fill: #66421f;
      }

      .cls-5 {
        fill: #754c24;
      }

      .cls-6 {
        fill: url(#linear-gradient-3);
      }

      .cls-7 {
        fill: url(#linear-gradient-4);
      }

      .cls-8 {
        fill: url(#linear-gradient-5);
      }

      .cls-9 {
        fill: url(#linear-gradient-6);
      }

      .cls-10 {
        fill: url(#linear-gradient-7);
      }

      .cls-11 {
        fill: #ff7bac;
      }
    </style>
    <linearGradient id="linear-gradient" x1="89.78" y1="95.84" x2="114.86" y2="95.84" gradientTransform="translate(40.5 -32.35) rotate(23.71)" gradientUnits="userSpaceOnUse">
      <stop offset="0" stop-color="#ff6c6c"/>
      <stop offset="1" stop-color="#dd5963"/>
    </linearGradient>
    <linearGradient id="linear-gradient-2" x1="93.22" y1="95.84" x2="132.15" y2="95.84" gradientTransform="translate(40.5 -32.35) rotate(23.71)" gradientUnits="userSpaceOnUse">
      <stop offset="0" stop-color="#c1272d"/>
      <stop offset="1" stop-color="#ed1c24"/>
    </linearGradient>
    <linearGradient id="linear-gradient-3" x1="-226.54" y1="-445.5" x2="-161.61" y2="-445.5" gradientTransform="translate(391.35 547.6) rotate(-3.4)" xlink:href="#linear-gradient-2"/>
    <linearGradient id="linear-gradient-4" x1="2329.84" y1="1005.54" x2="2368.77" y2="1005.54" gradientTransform="matrix(0.78, 0.63, -0.63, 0.78, -1031.99, -2171.51)" gradientUnits="userSpaceOnUse">
      <stop offset="0" stop-color="#5a8539"/>
      <stop offset="1" stop-color="#46952f"/>
    </linearGradient>
    <linearGradient id="linear-gradient-5" x1="98.51" y1="-611.37" x2="108.08" y2="-611.37" gradientTransform="matrix(1, 0.06, -0.11, 1.73, -2.33, 1119.6)" xlink:href="#linear-gradient-4"/>
    <linearGradient id="linear-gradient-6" x1="49.51" y1="94.74" x2="74.58" y2="94.74" gradientTransform="translate(10.02 -6.71) rotate(5.85)" xlink:href="#linear-gradient"/>
    <linearGradient id="linear-gradient-7" x1="52.95" y1="94.74" x2="91.87" y2="94.74" gradientTransform="translate(10.02 -6.71) rotate(5.85)" xlink:href="#linear-gradient-2"/>
  </defs>
  <title>Stand_19</title>
  <g id="Layer_2" data-name="Layer 2">
    <g id="_0" data-name="0">
      <g>
        <g>
          <path class="cls-1" d="M110.59,71.18S94,77.48,85.7,89.82s-10.13,29.84-10.13,29.84l22-6L111.34,92Z"/>
          <g>
            <path class="cls-2" d="M87.26,111.48a68.19,68.19,0,0,1-11.69,8.18c15.75,5.32,36.43,5.91,44.12-4.58s.83-30.39-9.1-43.9a67.31,67.31,0,0,1-4.54,14.53l0,.05a1.3,1.3,0,0,0-.14.32v0a77.11,77.11,0,0,1-7.59,13.23,69.46,69.46,0,0,1-8.59,9.93Z"/>
            <path class="cls-3" d="M108,100.5c-.11.9,1,1.86,2,2.2,2,.68,4.39-.83,4.44-2,0-.95-1.54-1.76-2.74-1.92C110.11,98.59,108.14,99.4,108,100.5Z"/>
            <path class="cls-3" d="M111.58,113.08c.91.43,2-.45,2.56-1.09.85-1.06,1.07-2.81.4-3.31-.87-.66-3.56.55-3.83,2.34A2,2,0,0,0,111.58,113.08Z"/>
            <path class="cls-3" d="M97.85,107.69c.35.75,2.29.69,3.64.07,1-.46,2.24-1.48,2-2.19s-2.28-1.15-3.77-.45C98.57,105.68,97.53,107,97.85,107.69Z"/>
            <path class="cls-3" d="M113.9,86.86c.82.13,1.3,2,1.08,3.47-.16,1.08-.78,2.57-1.52,2.57S111.71,91,112,89.41C112.17,88.11,113.15,86.75,113.9,86.86Z"/>
            <path class="cls-3" d="M104.86,117.11c.1,1-1.56,2-2.81,2.29s-3.73.27-4.31-1.14a.33.33,0,0,1,0-.13,1.37,1.37,0,0,1-.08-.35v0a2.66,2.66,0,0,1,.77-2c1.22-1.22,3.26-.57,4.1-.3C103.17,115.65,104.76,116.16,104.86,117.11Z"/>
          </g>
        </g>
        <g>
          <g>
            <polygon class="cls-4" points="70.69 0.27 64.22 0 44.4 163.28 49.96 163.28 70.69 0.27"/>
            <polygon class="cls-5" points="70.69 0.27 74.15 1.92 52.42 163.28 49.96 163.28 70.69 0.27"/>
          </g>
          <g>
            <polygon class="cls-4" points="8.55 20.27 2.08 20 42.26 163.28 47.82 163.28 8.55 20.27"/>
            <polygon class="cls-5" points="8.55 20.27 12.02 21.91 50.28 163.28 47.82 163.28 8.55 20.27"/>
          </g>
        </g>
        <g>
          <path class="cls-6" d="M169.55,83.56c4.26-.93,23.87-4.91,30.5,4,8.87,12-5.69,57.06-26.59,58.52-20.75,1.44-41.32-40.71-34.23-54C144.74,81.87,166,83.29,169.55,83.56Z"/>
          <path class="cls-7" d="M170,77.66s-18.31-4.25-21.17.37,2.42,4.52,2.42,4.52-5.42,3.8-4.83,6.25,7.08.29,7.08.29-2.86,6.5-1.16,7.46,10.59-4.28,10.59-4.28,1.86,6.3,3.47,5.68,5.82-7.24,7.81-7S182.44,96.64,184,96s0-8.83,0-8.83,10-.36,9.69-3.54-7.17-3.2-7.17-3.2,5.09-2.56,3.6-4.48S176.55,75.64,170,77.66Z"/>
          <path class="cls-8" d="M169.27,83s-7.89-13.52-3.64-20.32,6.53-2.3,7.67,13.91c0,0,.09,3.8-.91,5.3S169.27,83,169.27,83Z"/>
          <path class="cls-3" d="M157.7,131.14c-.76.5-.76,2-.4,2.93.73,1.93,3.47,2.82,4.38,2.11.75-.59.36-2.32-.3-3.33C160.52,131.52,158.62,130.54,157.7,131.14Z"/>
          <path class="cls-3" d="M173.62,141.25c.74-.68.35-2.06-.05-2.78-.67-1.19-2.21-2-2.93-1.61-.93.56-.81,3.51.74,4.43A2,2,0,0,0,173.62,141.25Z"/>
          <path class="cls-3" d="M144.39,107.57c-.85.54-.72,2-.45,2.75.44,1.29,1.81,2.41,2.59,2.11,1-.39,1.44-3.31.07-4.49A2,2,0,0,0,144.39,107.57Z"/>
          <path class="cls-3" d="M166.73,124.63a2.13,2.13,0,0,0-2.34,1.91,2.29,2.29,0,0,0,1.54,2.21c1.15.28,2.89-.63,2.92-1.79A2.78,2.78,0,0,0,166.73,124.63Z"/>
          <path class="cls-3" d="M155.22,101.27a2.12,2.12,0,0,0-2.33,1.91,2.28,2.28,0,0,0,1.53,2.21c1.15.28,2.9-.62,2.92-1.79A2.77,2.77,0,0,0,155.22,101.27Z"/>
          <path class="cls-3" d="M174.5,117.14c-.92.44-.52,2.36.5,3.61.75.93,2.29,2,3.17,1.76s1.15-2.41,0-3.81C177.24,117.6,175.34,116.74,174.5,117.14Z"/>
          <path class="cls-3" d="M150.79,120.41c-.86,1.49.3,3.31.77,4s1.29,2,2.23,1.87,1.5-2,1.48-3.31c0-1.44-.7-3.67-2.21-3.87A2.47,2.47,0,0,0,150.79,120.41Z"/>
          <path class="cls-3" d="M146.42,96.77A2.5,2.5,0,0,0,144,95.58c-1.18.28-1.29,1.85-1.3,2-.08,1.14.63,2.57,1.55,2.61C145.36,100.28,147.2,98.21,146.42,96.77Z"/>
          <path class="cls-3" d="M163.77,111.08c.81.41,1,1.89.74,2.87-.5,2-3.11,3.2-4.1,2.6-.81-.49-.62-2.25-.09-3.34C161,111.79,162.78,110.59,163.77,111.08Z"/>
          <path class="cls-3" d="M175.08,102.35c-.15,1-1.5,1.46-2.33,1.53-1.35.13-2.93-.65-3-1.49-.06-1.08,2.42-2.66,4.06-1.91A2,2,0,0,1,175.08,102.35Z"/>
          <path class="cls-3" d="M195.37,103.9c1,.23,1.32,1.62,1.32,2.45,0,1.36-.92,2.86-1.76,2.83-1.08,0-2.43-2.65-1.53-4.21A2,2,0,0,1,195.37,103.9Z"/>
          <path class="cls-3" d="M184.38,129.45c.43.71-.69,2.29-1.95,3.07-.93.58-2.47,1.06-2.94.5s.29-2.54,1.7-3.4C182.31,128.94,184,128.81,184.38,129.45Z"/>
          <path class="cls-3" d="M183.7,104c1,.11,1.26,2,.71,3.58-.41,1.12-1.5,2.68-2.43,2.69s-1.87-1.9-1.23-3.6C181.26,105.3,182.77,103.86,183.7,104Z"/>
          <path class="cls-3" d="M189.11,117.36c1.3,1.13.8,3.22.59,4.07-.17.7-.56,2.33-1.5,2.49s-2.08-1.41-2.48-2.64-.53-3.7.83-4.38A2.47,2.47,0,0,1,189.11,117.36Z"/>
          <path class="cls-3" d="M191.3,90.51c1.17-.05,1.88,1.8,2,2,.52,1.34.45,3.29-.36,3.64-1,.44-3.46-1.45-3.33-3.43C189.65,91.75,190.38,90.54,191.3,90.51Z"/>
        </g>
        <g>
          <path class="cls-9" d="M68.52,65.13s-13.88,11.1-18,25.38-.49,31.5-.49,31.5l19.07-12.43,6.5-24.85Z"/>
          <g>
            <path class="cls-10" d="M58.67,110.64A67.89,67.89,0,0,1,50.06,122c16.62.24,36.48-5.54,40.59-17.88S82.12,75,68.52,65.13a66.42,66.42,0,0,1,.14,15.22v.05a.86.86,0,0,0,0,.35v0a77,77,0,0,1-3.17,14.92,68.78,68.78,0,0,1-5.13,12.09Z"/>
            <path class="cls-3" d="M70.8,113c.17.89,1.56,1.46,2.56,1.49,2.06.06,3.92-2.14,3.61-3.25-.25-.92-2-1.21-3.19-1C72.22,110.53,70.59,111.91,70.8,113Z"/>
            <path class="cls-3" d="M82.32,104.71c1,.13,1.81-1,2.1-1.82.48-1.28.16-3-.64-3.28-1-.35-3.22,1.62-2.92,3.4A2,2,0,0,0,82.32,104.71Z"/>
            <path class="cls-3" d="M67.6,103.79c.56.61,2.38-.05,3.48-1.05.8-.74,1.68-2.1,1.26-2.7s-2.52-.41-3.73.72C67.66,101.66,67.08,103.24,67.6,103.79Z"/>
            <path class="cls-3" d="M79.4,87.68c.81-.13,1.85,1.51,2.09,3,.18,1.08,0,2.69-.66,2.91s-2.24-1.23-2.5-2.87C78.13,89.4,78.65,87.8,79.4,87.68Z"/>
            <path class="cls-3" d="M76.76,82.68c-.22,1-2.1,1.38-3.39,1.29s-3.63-.92-3.73-2.44a.33.33,0,0,1,0-.14,1.08,1.08,0,0,1,0-.35V81A2.67,2.67,0,0,1,71,79.34c1.54-.77,3.28.49,4,1S77,81.75,76.76,82.68Z"/>
          </g>
        </g>
        <g>
          <polygon class="cls-5" points="182.67 120.87 213.34 120.87 215.67 163.28 177.34 163.28 182.67 120.87"/>
          <polygon class="cls-4" points="38.67 163.31 43.34 120.87 182.67 120.87 182 163.31 38.67 163.31"/>
        </g>
        <g>
          <g>
            <polygon class="cls-4" points="225.57 0.27 219.09 0 199.28 163.28 204.84 163.28 225.57 0.27"/>
            <polygon class="cls-5" points="225.57 0.27 229.03 1.92 207.3 163.28 204.84 163.28 225.57 0.27"/>
          </g>
          <g>
            <polygon class="cls-4" points="163.43 20.27 156.96 20 197.14 163.28 202.7 163.28 163.43 20.27"/>
            <polygon class="cls-5" points="163.43 20.27 166.9 21.91 205.16 163.28 202.7 163.28 163.43 20.27"/>
          </g>
        </g>
        <g>
          <path class="cls-11" d="M228.48,3.2s-15.81,19.42-63.31,19.42L.43,22.68S-1,20,1.34,19.29,36.09,18.55,64.22,0H225.88a1.1,1.1,0,0,1,.4.08l2.37,1a1,1,0,0,1,.26,1.66Z"/>
          <g>
            <path class="cls-11" d="M165.17,22.34c-.45,9.71-4.89,17.35-10.3,17.35s-9.85-7.64-10.3-17.35Z"/>
            <path class="cls-11" d="M144.57,22.34c-.44,9.71-4.88,17.35-10.3,17.35S124.42,32.05,124,22.34Z"/>
            <path class="cls-11" d="M124,22.34c-.45,9.71-4.88,17.35-10.3,17.35s-9.85-7.64-10.3-17.35Z"/>
            <path class="cls-11" d="M103.38,22.34c-.44,9.71-4.88,17.35-10.29,17.35s-9.85-7.64-10.3-17.35Z"/>
            <path class="cls-11" d="M82.79,22.34c-.45,9.71-4.88,17.35-10.3,17.35S62.64,32.05,62.2,22.34Z"/>
            <path class="cls-11" d="M62.2,22.34c-.45,9.71-4.88,17.35-10.3,17.35s-9.85-7.64-10.3-17.35Z"/>
            <path class="cls-11" d="M41.6,22.34c-.44,9.71-4.88,17.35-10.29,17.35S21.46,32.05,21,22.34Z"/>
            <path class="cls-11" d="M21,22.34c-.45,9.71-4.88,17.35-10.3,17.35S.86,32.05.42,22.34Z"/>
          </g>
        </g>
      </g>
    </g>
  </g>
</svg>
