<svg xmlns="http://www.w3.org/2000/svg" width="229.247" height="163.313" viewBox="0 0 229.247 163.313">
  <title>Stand_5</title>
  <g>
    <g>
      <g>
        <polygon points="70.689 0.274 64.215 0 44.397 163.28 49.96 163.28 70.689 0.274" fill="#66421f"/>
        <polygon points="70.689 0.274 74.154 1.915 52.421 163.28 49.96 163.28 70.689 0.274" fill="#754c24"/>
      </g>
      <g>
        <polygon points="8.55 20.274 2.076 20 42.258 163.28 47.821 163.28 8.55 20.274" fill="#66421f"/>
        <polygon points="8.55 20.274 12.015 21.915 50.282 163.28 47.821 163.28 8.55 20.274" fill="#754c24"/>
      </g>
    </g>
    <g>
      <polygon points="182.671 120.869 213.337 120.869 215.671 163.28 177.337 163.28 182.671 120.869" fill="#754c24"/>
      <polygon points="38.671 163.313 43.337 120.869 182.671 120.869 182.004 163.313 38.671 163.313" fill="#66421f"/>
    </g>
    <g>
      <g>
        <polygon points="225.569 0.274 219.095 0 199.277 163.28 204.839 163.28 225.569 0.274" fill="#66421f"/>
        <polygon points="225.569 0.274 229.034 1.915 207.301 163.28 204.839 163.28 225.569 0.274" fill="#754c24"/>
      </g>
      <g>
        <polygon points="163.43 20.274 156.956 20 197.138 163.28 202.7 163.28 163.43 20.274" fill="#66421f"/>
        <polygon points="163.43 20.274 166.895 21.915 205.162 163.28 202.7 163.28 163.43 20.274" fill="#754c24"/>
      </g>
    </g>
    <g>
      <path d="M228.481,3.2s-15.81,19.417-63.31,19.417L.433,22.685s-1.429-2.733.9-3.4S36.093,18.548,64.215,0H225.879a1,1,0,0,1,.4.083l2.368,1.033a1,1,0,0,1,.262,1.667Z" fill="#355db7"/>
      <g>
        <path d="M165.165,22.337c-.446,9.717-4.881,17.352-10.3,17.352s-9.851-7.635-10.3-17.352Z" fill="#355db7"/>
        <path d="M144.572,22.337c-.446,9.717-4.882,17.352-10.3,17.352s-9.851-7.635-10.3-17.352Z" fill="#355db7"/>
        <path d="M123.978,22.337c-.446,9.717-4.882,17.352-10.3,17.352s-9.851-7.635-10.3-17.352Z" fill="#355db7"/>
        <path d="M103.384,22.337c-.446,9.717-4.881,17.352-10.3,17.352s-9.851-7.635-10.3-17.352Z" fill="#355db7"/>
        <path d="M82.79,22.337c-.445,9.717-4.881,17.352-10.3,17.352s-9.85-7.635-10.3-17.352Z" fill="#355db7"/>
        <path d="M62.2,22.337c-.446,9.717-4.882,17.352-10.3,17.352s-9.851-7.635-10.3-17.352Z" fill="#355db7"/>
        <path d="M41.6,22.337c-.446,9.717-4.882,17.352-10.3,17.352s-9.851-7.635-10.3-17.352Z" fill="#355db7"/>
        <path d="M21.009,22.337c-.445,9.717-4.881,17.352-10.3,17.352S.862,32.054.416,22.337Z" fill="#355db7"/>
      </g>
    </g>
  </g>
</svg>
