<svg xmlns="http://www.w3.org/2000/svg" width="229.25" height="163.31" viewBox="0 0 229.25 163.31">
  <defs>
    <style>
      .cls-1 {
        fill: #6d4722;
      }

      .cls-2 {
        fill: #3b2612;
      }

      .cls-3 {
        fill: #a4bd47;
      }

      .cls-4 {
        fill: #8d5fce;
      }
    </style>
  </defs>
  <title>Stand_11</title>
  <g id="Layer_2" data-name="Layer 2">
    <g id="_0" data-name="0">
      <g>
        <g>
          <g>
            <polygon class="cls-1" points="158.56 0.27 165.03 0 184.85 163.28 179.29 163.28 158.56 0.27"/>
            <polygon class="cls-2" points="158.56 0.27 155.09 1.92 176.83 163.28 179.29 163.28 158.56 0.27"/>
          </g>
          <g>
            <polygon class="cls-1" points="220.7 20.27 227.17 20 186.99 163.28 181.43 163.28 220.7 20.27"/>
            <polygon class="cls-2" points="220.7 20.27 217.23 21.91 178.97 163.28 181.43 163.28 220.7 20.27"/>
          </g>
        </g>
        <path class="cls-3" d="M171.4,114.44s3.5-3.48-.48-6.48-9,.47-9,.47-1-4-8.46-4-9.48,5.45-9.48,5.45-.49-3.49-5.47-2.51-5.5,4.47-5.5,4.47.52-5-5.45-6.5-8.48,2.47-8.48,2.47-.48-4.49-6.46-4.51a7.74,7.74,0,0,0-7.49,5.46,4,4,0,0,0-5.94-1.83c-3.4-.83-6.77,1.51-6.77,1.51s-1-4-8.46-4-9.48,5.45-9.48,5.45-.49-3.49-5.47-2.51-5.5,4.47-5.5,4.47.52-5-5.45-6.5-8.48,2.47-8.48,2.47-.48-4.49-6.46-4.51a7.74,7.74,0,0,0-7.49,5.46s-2-4.49-6.47-1.52-2,6-2,6a5.54,5.54,0,0,0-5.5,6c0,6,6,6.5,6,6.5l77.2.24a3.44,3.44,0,0,0,.38-.22l69.12.22a2.48,2.48,0,0,0,1-4C178.87,115.46,171.4,114.44,171.4,114.44Z"/>
        <g>
          <polygon class="cls-2" points="46.58 120.87 15.91 120.87 13.58 163.28 51.91 163.28 46.58 120.87"/>
          <polygon class="cls-1" points="190.58 163.31 185.91 120.87 46.58 120.87 47.24 163.31 190.58 163.31"/>
        </g>
        <g>
          <g>
            <polygon class="cls-1" points="3.68 0.27 10.15 0 29.97 163.28 24.41 163.28 3.68 0.27"/>
            <polygon class="cls-2" points="3.68 0.27 0.21 1.92 21.95 163.28 24.41 163.28 3.68 0.27"/>
          </g>
          <g>
            <polygon class="cls-1" points="65.82 20.27 72.29 20 32.11 163.28 26.55 163.28 65.82 20.27"/>
            <polygon class="cls-2" points="65.82 20.27 62.35 21.91 24.09 163.28 26.55 163.28 65.82 20.27"/>
          </g>
        </g>
        <g>
          <path class="cls-4" d="M.77,3.2S16.58,22.62,64.08,22.62l164.73.06s1.43-2.73-.9-3.39S193.15,18.55,165,0H3.37A1.06,1.06,0,0,0,3,.08L.6,1.12A1,1,0,0,0,.34,2.78Z"/>
          <g>
            <path class="cls-4" d="M64.08,22.34c.45,9.71,4.88,17.35,10.3,17.35s9.85-7.64,10.3-17.35Z"/>
            <path class="cls-4" d="M84.68,22.34c.44,9.71,4.88,17.35,10.29,17.35s9.85-7.64,10.3-17.35Z"/>
            <path class="cls-4" d="M105.27,22.34c.44,9.71,4.88,17.35,10.3,17.35s9.85-7.64,10.29-17.35Z"/>
            <path class="cls-4" d="M125.86,22.34c.45,9.71,4.88,17.35,10.3,17.35s9.85-7.64,10.3-17.35Z"/>
            <path class="cls-4" d="M146.46,22.34c.44,9.71,4.88,17.35,10.29,17.35s9.85-7.64,10.3-17.35Z"/>
            <path class="cls-4" d="M167.05,22.34c.45,9.71,4.88,17.35,10.3,17.35s9.85-7.64,10.29-17.35Z"/>
            <path class="cls-4" d="M187.64,22.34c.45,9.71,4.89,17.35,10.3,17.35s9.85-7.64,10.3-17.35Z"/>
            <path class="cls-4" d="M208.24,22.34c.44,9.71,4.88,17.35,10.29,17.35s9.86-7.64,10.3-17.35Z"/>
          </g>
        </g>
      </g>
    </g>
  </g>
</svg>
