<svg xmlns="http://www.w3.org/2000/svg" xmlns:xlink="http://www.w3.org/1999/xlink" width="267.63" height="166.77" viewBox="0 0 267.63 166.77">
  <defs>
    <style>
      .cls-1 {
        fill: #6d4722;
      }

      .cls-2 {
        fill: #3b2612;
      }

      .cls-3 {
        fill: url(#linear-gradient);
      }

      .cls-4 {
        fill: url(#linear-gradient-2);
      }

      .cls-5 {
        fill: #fbb03b;
      }

      .cls-6 {
        fill: url(#linear-gradient-3);
      }

      .cls-7 {
        fill: url(#linear-gradient-4);
      }

      .cls-8 {
        fill: url(#linear-gradient-5);
      }

      .cls-9 {
        fill: #66421f;
      }

      .cls-10 {
        fill: #cc58ab;
      }

      .cls-11 {
        fill: url(#linear-gradient-6);
      }

      .cls-12 {
        fill: url(#linear-gradient-7);
      }

      .cls-13 {
        fill: url(#linear-gradient-8);
      }
    </style>
    <linearGradient id="linear-gradient" x1="89.84" y1="103.51" x2="114.92" y2="103.51" gradientTransform="matrix(0.92, 0.4, -0.4, 0.92, 48.35, -39.56)" gradientUnits="userSpaceOnUse">
      <stop offset="0" stop-color="#ff6c6c"/>
      <stop offset="1" stop-color="#dd5963"/>
    </linearGradient>
    <linearGradient id="linear-gradient-2" x1="93.28" y1="103.51" x2="132.21" y2="103.51" gradientTransform="matrix(0.92, 0.4, -0.4, 0.92, 48.35, -39.56)" gradientUnits="userSpaceOnUse">
      <stop offset="0" stop-color="#c1272d"/>
      <stop offset="1" stop-color="#ed1c24"/>
    </linearGradient>
    <linearGradient id="linear-gradient-3" x1="169.42" y1="107.79" x2="234.35" y2="107.79" gradientTransform="translate(200.23 -131.09) rotate(66.72)" xlink:href="#linear-gradient-2"/>
    <linearGradient id="linear-gradient-4" x1="3157.92" y1="1572.02" x2="3196.85" y2="1572.02" gradientTransform="translate(2726.16 -2411.25) rotate(108.93)" gradientUnits="userSpaceOnUse">
      <stop offset="0" stop-color="#5a8539"/>
      <stop offset="1" stop-color="#46952f"/>
    </linearGradient>
    <linearGradient id="linear-gradient-5" x1="564.62" y1="-277.2" x2="574.19" y2="-277.2" gradientTransform="matrix(0.28, 0.96, -1.66, 0.48, -398.23, -333.14)" xlink:href="#linear-gradient-4"/>
    <linearGradient id="linear-gradient-6" x1="5.38" y1="127.36" x2="70.31" y2="127.36" gradientTransform="matrix(0.62, -0.82, 0.8, 0.6, -81.88, 93.73)" xlink:href="#linear-gradient-2"/>
    <linearGradient id="linear-gradient-7" x1="-5.24" y1="105.5" x2="46.42" y2="105.5" gradientTransform="translate(-75.13 74.02) rotate(-52.79)" xlink:href="#linear-gradient-4"/>
    <linearGradient id="linear-gradient-8" x1="-225.42" y1="-53.78" x2="-215.85" y2="-53.78" gradientTransform="matrix(0.58, -0.81, 1.26, 0.9, 205.59, -16.66)" xlink:href="#linear-gradient-4"/>
  </defs>
  <title>Stand_20</title>
  <g id="Layer_2" data-name="Layer 2">
    <g id="_0" data-name="0">
      <g>
        <g>
          <g>
            <polygon class="cls-1" points="196.95 0.27 203.42 0 223.24 163.28 217.68 163.28 196.95 0.27"/>
            <polygon class="cls-2" points="196.95 0.27 193.48 1.92 215.21 163.28 217.68 163.28 196.95 0.27"/>
          </g>
          <g>
            <polygon class="cls-1" points="259.08 20.27 265.56 20 225.38 163.28 219.81 163.28 259.08 20.27"/>
            <polygon class="cls-2" points="259.08 20.27 255.62 21.91 217.35 163.28 219.81 163.28 259.08 20.27"/>
          </g>
        </g>
        <g>
          <path class="cls-3" d="M116,70.66S99.38,77.05,91.17,89.43s-10,29.89-10,29.89l21.93-6.09,13.7-21.73Z"/>
          <g>
            <path class="cls-4" d="M92.83,111.08a67.63,67.63,0,0,1-11.64,8.24c15.77,5.24,36.45,5.73,44.1-4.8S126,84.13,116,70.66a66.76,66.76,0,0,1-4.46,14.56l0,0a.94.94,0,0,0-.14.33l0,0a76.77,76.77,0,0,1-7.52,13.27,68.43,68.43,0,0,1-8.54,10Z"/>
            <path class="cls-5" d="M103.68,117c-.1.9,1,1.86,2,2.19,2,.68,4.39-.85,4.43-2,0-1-1.55-1.76-2.75-1.9C105.78,115.07,103.81,115.88,103.68,117Z"/>
            <path class="cls-5" d="M117.17,112.56c.9.43,2-.46,2.55-1.1.84-1.07,1-2.82.38-3.32-.87-.64-3.56.57-3.82,2.36A2,2,0,0,0,117.17,112.56Z"/>
            <path class="cls-5" d="M103.41,107.24c.35.75,2.29.67,3.63.05,1-.46,2.24-1.49,2-2.19s-2.29-1.15-3.78-.44C104.11,105.22,103.08,106.56,103.41,107.24Z"/>
            <path class="cls-5" d="M119.52,95.44c.82.12,1.31,2,1.1,3.47-.15,1.08-.78,2.57-1.51,2.57s-1.76-1.85-1.51-3.48C117.79,96.7,118.77,95.33,119.52,95.44Z"/>
            <path class="cls-5" d="M118.51,89.89c-.51.87-2.42.67-3.61.19-1.34-.52-3.19-2-2.83-3.44a.29.29,0,0,1,.05-.13.94.94,0,0,1,.14-.33l0,0A2.63,2.63,0,0,1,114.07,85c1.7-.27,3,1.46,3.5,2.16S119,89.06,118.51,89.89Z"/>
          </g>
        </g>
        <g>
          <path class="cls-6" d="M209.44,84.93c2.33,3.69,12.73,20.78,6.56,30.07-8.25,12.4-55.6,14-64.07-5.12s24.23-52.7,39.1-50.54C202.6,61,208.49,81.51,209.44,84.93Z"/>
          <path class="cls-7" d="M215.13,83.33s-2.23-18.67-7.54-19.79-3.43,3.82-3.43,3.82-5.42-3.81-7.52-2.42,2.13,6.76,2.13,6.76-7.08-.48-7.4,1.45,7.62,8.5,7.62,8.5-5.3,3.89-4.16,5.19,8.78,3,9.25,5-2.56,9.7-1.47,11,8.3-3,8.3-3,3.75,9.32,6.62,7.92.57-7.84.57-7.84,4.14,3.92,5.44,1.87S219.27,88.82,215.13,83.33Z"/>
          <path class="cls-8" d="M209.9,84.47s10-12,17.88-10.34,4.38,5.36-10.48,12c0,0-3.53,1.37-5.28.94S209.9,84.47,209.9,84.47Z"/>
          <path class="cls-5" d="M160.66,90c-.73-.54-2.13,0-2.89.62-1.57,1.35-1.47,4.22-.49,4.84.81.51,2.3-.45,3-1.42C161.26,92.74,161.54,90.63,160.66,90Z"/>
          <path class="cls-5" d="M156.57,108.38c.89.46,2.06-.38,2.6-1,.88-1,1.16-2.77.51-3.3-.84-.68-3.58.42-3.91,2.2A2,2,0,0,0,156.57,108.38Z"/>
          <path class="cls-5" d="M178.3,69.43c-.79-.61-2.09,0-2.73.52-1.06.85-1.65,2.51-1.11,3.15.71.82,3.6.22,4.25-1.46A2,2,0,0,0,178.3,69.43Z"/>
          <path class="cls-5" d="M169.86,96.24a2.14,2.14,0,0,0-2.59-1.55,2.28,2.28,0,0,0-1.56,2.2c.13,1.17,1.57,2.51,2.67,2.14A2.79,2.79,0,0,0,169.86,96.24Z"/>
          <path class="cls-5" d="M187.91,77.48a2.13,2.13,0,0,0-2.59-1.55,2.27,2.27,0,0,0-1.55,2.19c.12,1.18,1.57,2.52,2.67,2.14A2.75,2.75,0,0,0,187.91,77.48Z"/>
          <path class="cls-5" d="M179.54,101c-.73-.72-2.39.31-3.23,1.7-.62,1-1.14,2.85-.57,3.58s2.66.26,3.57-1.3C180,103.74,180.21,101.66,179.54,101Z"/>
          <path class="cls-5" d="M168.4,79.81c-1.69-.3-3,1.41-3.54,2.11s-1.45,1.9-1,2.72,2.41.73,3.62.28,3.21-1.92,2.88-3.4A2.47,2.47,0,0,0,168.4,79.81Z"/>
          <path class="cls-5" d="M189.15,67.67a2.52,2.52,0,0,0,.29-2.72c-.67-1-2.18-.58-2.37-.53-1.1.32-2.21,1.47-1.93,2.35C185.49,67.87,188.07,68.89,189.15,67.67Z"/>
          <path class="cls-5" d="M181.59,88.85c-.1.9-1.44,1.57-2.44,1.68-2.05.21-4.07-1.84-3.85-3,.19-.93,1.91-1.35,3.11-1.22C180,86.51,181.72,87.75,181.59,88.85Z"/>
          <path class="cls-5" d="M193.65,96.52c-1,.2-1.89-.92-2.24-1.67-.57-1.23-.38-3,.39-3.31,1-.43,3.34,1.37,3.18,3.17A2,2,0,0,1,193.65,96.52Z"/>
          <path class="cls-5" d="M199.09,116.13c.12,1-1.08,1.79-1.85,2.07-1.28.47-3,.11-3.27-.68-.34-1,1.67-3.2,3.45-2.88A2,2,0,0,1,199.09,116.13Z"/>
          <path class="cls-5" d="M171.32,114.48c-.51.65-2.38.13-3.55-.79-.86-.68-1.83-2-1.46-2.6s2.48-.59,3.77.44C171.1,112.35,171.79,113.89,171.32,114.48Z"/>
          <path class="cls-5" d="M195.06,105.18c.23,1-1.51,1.88-3.13,1.88-1.2,0-3-.5-3.36-1.37s1.15-2.41,3-2.38C193,103.33,194.84,104.27,195.06,105.18Z"/>
          <path class="cls-5" d="M184.3,114.82c-.61,1.6-2.76,1.84-3.63,1.94-.71.08-2.38.26-2.85-.57s.63-2.43,1.64-3.23,3.3-1.75,4.41-.71A2.48,2.48,0,0,1,184.3,114.82Z"/>
          <path class="cls-5" d="M210.3,107.75c.45,1.08-1.05,2.38-1.24,2.54-1.09.94-2.94,1.55-3.55.9s.19-3.75,2.1-4.3C208.57,106.62,210,106.89,210.3,107.75Z"/>
        </g>
        <g>
          <polygon class="cls-9" points="84.96 120.87 54.3 120.87 51.96 163.28 90.3 163.28 84.96 120.87"/>
          <polygon class="cls-1" points="228.96 163.31 224.3 120.87 84.96 120.87 85.63 163.31 228.96 163.31"/>
        </g>
        <g>
          <g>
            <polygon class="cls-1" points="42.07 0.27 48.54 0 68.36 163.28 62.8 163.28 42.07 0.27"/>
            <polygon class="cls-2" points="42.07 0.27 38.6 1.92 60.33 163.28 62.8 163.28 42.07 0.27"/>
          </g>
          <g>
            <polygon class="cls-1" points="104.2 20.27 110.68 20 70.5 163.28 64.94 163.28 104.2 20.27"/>
            <polygon class="cls-2" points="104.2 20.27 100.74 21.91 62.47 163.28 64.94 163.28 104.2 20.27"/>
          </g>
        </g>
        <g>
          <path class="cls-10" d="M39.15,3.2S55,22.62,102.46,22.62l164.74.06s1.43-2.73-.9-3.39S231.54,18.55,203.42,0H41.76a1.06,1.06,0,0,0-.4.08L39,1.12a1,1,0,0,0-.26,1.66Z"/>
          <g>
            <path class="cls-10" d="M102.47,22.34c.45,9.71,4.88,17.35,10.3,17.35s9.85-7.64,10.29-17.35Z"/>
            <path class="cls-10" d="M123.06,22.34c.45,9.71,4.88,17.35,10.3,17.35s9.85-7.64,10.3-17.35Z"/>
            <path class="cls-10" d="M143.66,22.34c.44,9.71,4.88,17.35,10.29,17.35s9.85-7.64,10.3-17.35Z"/>
            <path class="cls-10" d="M164.25,22.34c.45,9.71,4.88,17.35,10.3,17.35s9.85-7.64,10.29-17.35Z"/>
            <path class="cls-10" d="M184.84,22.34c.45,9.71,4.89,17.35,10.3,17.35s9.85-7.64,10.3-17.35Z"/>
            <path class="cls-10" d="M205.44,22.34c.44,9.71,4.88,17.35,10.3,17.35s9.85-7.64,10.29-17.35Z"/>
            <path class="cls-10" d="M226,22.34c.45,9.71,4.88,17.35,10.3,17.35s9.85-7.64,10.3-17.35Z"/>
            <path class="cls-10" d="M246.63,22.34c.44,9.71,4.88,17.35,10.29,17.35s9.85-7.64,10.3-17.35Z"/>
          </g>
        </g>
        <g>
          <path class="cls-11" d="M18.66,120.55C20.78,116.61,30.75,98.69,42,99.31c15,.83,39.65,41.48,26.91,58.77S10.51,164,5.12,149.86C.93,138.86,16.11,123.14,18.66,120.55Z"/>
          <path class="cls-12" d="M28.46,103.92S30.11,98,27.61,98s-9.8,11-12.89,17.76c0,0-16.1,12.39-14.62,17.78s5.12,1,5.12,1-1,7,1.33,8.1,5.2-5.67,5.2-5.67,2.9,6.63,4.82,5.84,4.22-11.58,4.22-11.58,6.07,2.6,6.73.85-1.38-9.56.19-11.07,10.12-3.1,10.75-4.77-6.68-5.77-6.68-5.77,6.79-8.56,4.15-10.35S28.46,103.92,28.46,103.92Z"/>
          <path class="cls-13" d="M18.94,120s-14.55.38-17.51-6.39,1.71-6.6,14.74,0c0,0,3,1.69,3.57,3.23S18.94,120,18.94,120Z"/>
          <path class="cls-5" d="M47.89,159.44c-.12.9,1,1.87,2,2.21,1.94.7,4.39-.8,4.45-2,0-.95-1.53-1.77-2.73-1.93C50,157.55,48,158.34,47.89,159.44Z"/>
          <path class="cls-5" d="M61.42,155.18c.91.43,2-.44,2.57-1.08.86-1,1.09-2.8.42-3.31-.86-.66-3.56.53-3.84,2.32A2,2,0,0,0,61.42,155.18Z"/>
          <path class="cls-5" d="M10.54,150c.91.43,2.05-.44,2.57-1.08.86-1,1.09-2.8.42-3.31-.87-.66-3.57.53-3.85,2.32A2,2,0,0,0,10.54,150Z"/>
          <path class="cls-5" d="M28.21,159.76c-.14,1,1,1.82,1.8,2.12,1.26.5,3,.2,3.28-.59.37-1-1.57-3.24-3.36-3A2,2,0,0,0,28.21,159.76Z"/>
          <path class="cls-5" d="M49.35,150c.35.75,2.29.69,3.64.08,1-.45,2.25-1.46,2-2.17s-2.28-1.17-3.77-.47C50.08,147.94,49,149.26,49.35,150Z"/>
          <path class="cls-5" d="M25.93,142.43c-.27,1,1.44,1.93,3.06,2,1.2,0,3.05-.41,3.4-1.27s-1.08-2.44-2.89-2.46C28.06,140.64,26.17,141.52,25.93,142.43Z"/>
          <path class="cls-5" d="M37.25,154.16c.57,1.62,2.71,1.93,3.58,2.05.7.1,2.37.33,2.86-.48s-.55-2.45-1.55-3.28-3.24-1.85-4.38-.84A2.48,2.48,0,0,0,37.25,154.16Z"/>
          <path class="cls-5" d="M19.67,149.42c-.48,1.07,1,2.41,1.17,2.58,1.06,1,2.89,1.63,3.51,1,.78-.78-.07-3.76-2-4.37C21.44,148.34,20.05,148.58,19.67,149.42Z"/>
          <path class="cls-5" d="M58.31,122c.84-.35,2.08.48,2.66,1.3,1.19,1.68.41,4.45-.69,4.81-.9.3-2.12-1-2.6-2.1C57.06,124.59,57.3,122.47,58.31,122Z"/>
          <path class="cls-5" d="M34.81,124.27c.66.75.13,2.09-.34,2.76-.79,1.11-2.41,1.8-3.08,1.29-.86-.65-.45-3.57,1.2-4.32A2,2,0,0,1,34.81,124.27Z"/>
          <path class="cls-5" d="M51.73,113.11c.81-.59,2.09,0,2.72.59,1,.88,1.57,2.56,1,3.18-.73.8-3.6.12-4.2-1.58A2,2,0,0,1,51.73,113.11Z"/>
          <path class="cls-5" d="M64,138.09c.81.13,1.28,2,1.06,3.47-.17,1.08-.81,2.57-1.54,2.56s-1.74-1.87-1.48-3.5C62.23,139.33,63.23,138,64,138.09Z"/>
          <path class="cls-5" d="M42.12,122.35c.75-.7,2.38.38,3.18,1.79.59,1,1.06,2.88.46,3.6s-2.66.18-3.53-1.41C41.54,125.07,41.44,123,42.12,122.35Z"/>
          <path class="cls-5" d="M54.27,131.07c1.7-.26,3,1.49,3.47,2.2s1.4,1.95.92,2.76-2.43.66-3.63.16-3.15-2-2.78-3.48A2.47,2.47,0,0,1,54.27,131.07Z"/>
          <path class="cls-5" d="M38.92,107.48c.72-.92,2.59-.25,2.82-.17,1.36.48,2.79,1.8,2.53,2.64-.32,1-3.36,1.69-4.77.29C38.78,109.55,38.35,108.21,38.92,107.48Z"/>
          <path class="cls-5" d="M42,138.54c.72-.92,2.59-.26,2.83-.17,1.35.48,2.79,1.79,2.53,2.64-.33,1-3.36,1.68-4.78.29C41.83,140.6,41.39,139.26,42,138.54Z"/>
        </g>
      </g>
    </g>
  </g>
</svg>
