<svg xmlns="http://www.w3.org/2000/svg" xmlns:xlink="http://www.w3.org/1999/xlink" width="229.25" height="163.31" viewBox="0 0 229.25 163.31">
  <defs>
    <style>
      .cls-1 {
        fill: #6d4722;
      }

      .cls-2 {
        fill: #3b2612;
      }

      .cls-3 {
        fill: url(#linear-gradient);
      }

      .cls-4 {
        fill: #66421f;
      }

      .cls-5 {
        fill: #d8563d;
      }
    </style>
    <linearGradient id="linear-gradient" x1="21.24" y1="110.95" x2="181.67" y2="110.95" gradientUnits="userSpaceOnUse">
      <stop offset="0" stop-color="#005437"/>
      <stop offset="1" stop-color="#006837"/>
    </linearGradient>
  </defs>
  <title>Stand_14</title>
  <g id="Layer_2" data-name="Layer 2">
    <g id="_0" data-name="0">
      <g>
        <g>
          <g>
            <polygon class="cls-1" points="158.56 0.27 165.03 0 184.85 163.28 179.29 163.28 158.56 0.27"/>
            <polygon class="cls-2" points="158.56 0.27 155.09 1.92 176.83 163.28 179.29 163.28 158.56 0.27"/>
          </g>
          <g>
            <polygon class="cls-1" points="220.7 20.27 227.17 20 186.99 163.28 181.43 163.28 220.7 20.27"/>
            <polygon class="cls-2" points="220.7 20.27 217.23 21.91 178.97 163.28 181.43 163.28 220.7 20.27"/>
          </g>
        </g>
        <path class="cls-3" d="M180.72,120.17c-2.82-5.19-6.81-2.38-6.81-2.38s1.18-6.81-2.43-7.59-4.8,1.21-4.8,1.21-1.63-8.4-8-8.38-7.19,5.63-7.19,5.63-1.61-2.39-3.21-2a12.22,12.22,0,0,0-3.59,2s1.19-3.21-1.22-4.4c-2.15-1.07-3,.41-3.17.75A2.15,2.15,0,0,0,139,101.9c-2.41-.79-3.6,2-3.6,2s-1.23-9.21-6-9.59-10,6.44-10,6.44S117.79,96,111,96c-6.21,0-9.08,2-9.53,2.38C101,98,98.13,96,91.92,96c-6.8,0-8.42,4.78-8.42,4.78s-5.18-6.83-10-6.44-6,9.59-6,9.59-1.19-2.81-3.6-2A2.15,2.15,0,0,0,62.64,105c-.16-.34-1-1.82-3.17-.75-2.41,1.19-1.22,4.4-1.22,4.4a12.22,12.22,0,0,0-3.59-2c-1.6-.4-3.21,2-3.21,2s-.78-5.6-7.19-5.63-8,8.38-8,8.38-1.2-2-4.8-1.21S29,117.79,29,117.79s-4-2.81-6.81,2.38S23.76,127,23.76,127s54,1.46,77.7-.17c23.65,1.63,77.69.17,77.69.17S183.55,125.37,180.72,120.17Z"/>
        <g>
          <polygon class="cls-4" points="46.58 120.87 15.91 120.87 13.58 163.28 51.91 163.28 46.58 120.87"/>
          <polygon class="cls-1" points="190.58 163.31 185.91 120.87 46.58 120.87 47.24 163.31 190.58 163.31"/>
        </g>
        <g>
          <g>
            <polygon class="cls-1" points="3.68 0.27 10.15 0 29.97 163.28 24.41 163.28 3.68 0.27"/>
            <polygon class="cls-2" points="3.68 0.27 0.21 1.92 21.95 163.28 24.41 163.28 3.68 0.27"/>
          </g>
          <g>
            <polygon class="cls-1" points="65.82 20.27 72.29 20 32.11 163.28 26.55 163.28 65.82 20.27"/>
            <polygon class="cls-2" points="65.82 20.27 62.35 21.91 24.09 163.28 26.55 163.28 65.82 20.27"/>
          </g>
        </g>
        <g>
          <path class="cls-5" d="M.77,3.2S16.58,22.62,64.08,22.62l164.73.06s1.43-2.73-.9-3.39S193.15,18.55,165,0H3.37A1.06,1.06,0,0,0,3,.08L.6,1.12A1,1,0,0,0,.34,2.78Z"/>
          <g>
            <path class="cls-5" d="M64.08,22.34c.45,9.71,4.88,17.35,10.3,17.35s9.85-7.64,10.3-17.35Z"/>
            <path class="cls-5" d="M84.68,22.34c.44,9.71,4.88,17.35,10.29,17.35s9.85-7.64,10.3-17.35Z"/>
            <path class="cls-5" d="M105.27,22.34c.44,9.71,4.88,17.35,10.3,17.35s9.85-7.64,10.29-17.35Z"/>
            <path class="cls-5" d="M125.86,22.34c.45,9.71,4.88,17.35,10.3,17.35s9.85-7.64,10.3-17.35Z"/>
            <path class="cls-5" d="M146.46,22.34c.44,9.71,4.88,17.35,10.29,17.35s9.85-7.64,10.3-17.35Z"/>
            <path class="cls-5" d="M167.05,22.34c.45,9.71,4.88,17.35,10.3,17.35s9.85-7.64,10.29-17.35Z"/>
            <path class="cls-5" d="M187.64,22.34c.45,9.71,4.89,17.35,10.3,17.35s9.85-7.64,10.3-17.35Z"/>
            <path class="cls-5" d="M208.24,22.34c.44,9.71,4.88,17.35,10.29,17.35s9.86-7.64,10.3-17.35Z"/>
          </g>
        </g>
      </g>
    </g>
  </g>
</svg>
