<svg xmlns="http://www.w3.org/2000/svg" width="229.25" height="163.31" viewBox="0 0 229.25 163.31">
  <defs>
    <style>
      .cls-1 {
        fill: #66421f;
      }

      .cls-2 {
        fill: #6d4722;
      }

      .cls-3 {
        fill: #00a99d;
      }

      .cls-4 {
        fill: #355db7;
      }
    </style>
  </defs>
  <title>Stand_13</title>
  <g id="Layer_2" data-name="Layer 2">
    <g id="_0" data-name="0">
      <g>
        <g>
          <g>
            <polygon class="cls-1" points="70.69 0.27 64.22 0 44.4 163.28 49.96 163.28 70.69 0.27"/>
            <polygon class="cls-2" points="70.69 0.27 74.15 1.92 52.42 163.28 49.96 163.28 70.69 0.27"/>
          </g>
          <g>
            <polygon class="cls-1" points="8.55 20.27 2.08 20 42.26 163.28 47.82 163.28 8.55 20.27"/>
            <polygon class="cls-2" points="8.55 20.27 12.02 21.91 50.28 163.28 47.82 163.28 8.55 20.27"/>
          </g>
        </g>
        <path class="cls-3" d="M208.06,118.92c-2.82-5.19-6.82-2.38-6.82-2.38s1.18-6.81-2.42-7.59-4.8,1.21-4.8,1.21-1.63-8.4-8-8.38a6.85,6.85,0,0,0-7.18,5.63s-1.61-2.39-3.21-2a12.32,12.32,0,0,0-3.6,2s1.19-3.21-1.22-4.4c-2.14-1.07-3,.41-3.17.75a2.15,2.15,0,0,0-1.24-3.14c-2.4-.79-3.59,2-3.59,2s-1.24-9.21-6-9.59-10,6.44-10,6.44-1.61-4.8-8.42-4.78c-6.2,0-9.07,7.89-9.53,8.24-.46-.35-3.33-2.36-9.53-2.38-6.81,0-8.43,4.77-8.43,4.77s-3-7.61-7.78-7.22-8.24,4.52-8.24,4.52-1.19-2.81-3.6-2A2.16,2.16,0,0,0,90,103.79c-.16-.34-1-1.82-3.17-.75-2.4,1.19-1.21,4.4-1.21,4.4a12.32,12.32,0,0,0-3.6-2c-1.6-.4-3.21,2-3.21,2s-.78-5.6-7.19-5.63-8,8.38-8,8.38-1.19-2-4.8-1.21-2.43,7.59-2.43,7.59-4-2.81-6.81,2.38,1.58,6.81,1.58,6.81,54,1.46,77.69-.17c23.66,1.63,77.69.17,77.69.17S210.88,124.12,208.06,118.92Z"/>
        <g>
          <polygon class="cls-2" points="182.67 120.87 213.34 120.87 215.67 163.28 177.34 163.28 182.67 120.87"/>
          <polygon class="cls-1" points="38.67 163.31 43.34 120.87 182.67 120.87 182 163.31 38.67 163.31"/>
        </g>
        <g>
          <g>
            <polygon class="cls-1" points="225.57 0.27 219.09 0 199.28 163.28 204.84 163.28 225.57 0.27"/>
            <polygon class="cls-2" points="225.57 0.27 229.03 1.92 207.3 163.28 204.84 163.28 225.57 0.27"/>
          </g>
          <g>
            <polygon class="cls-1" points="163.43 20.27 156.96 20 197.14 163.28 202.7 163.28 163.43 20.27"/>
            <polygon class="cls-2" points="163.43 20.27 166.9 21.91 205.16 163.28 202.7 163.28 163.43 20.27"/>
          </g>
        </g>
        <g>
          <path class="cls-4" d="M228.48,3.2s-15.81,19.42-63.31,19.42L.43,22.68S-1,20,1.34,19.29,36.09,18.55,64.22,0H225.88a1.1,1.1,0,0,1,.4.08l2.37,1a1,1,0,0,1,.26,1.66Z"/>
          <g>
            <path class="cls-4" d="M165.17,22.34c-.45,9.71-4.89,17.35-10.3,17.35s-9.85-7.64-10.3-17.35Z"/>
            <path class="cls-4" d="M144.57,22.34c-.44,9.71-4.88,17.35-10.3,17.35S124.42,32.05,124,22.34Z"/>
            <path class="cls-4" d="M124,22.34c-.45,9.71-4.88,17.35-10.3,17.35s-9.85-7.64-10.3-17.35Z"/>
            <path class="cls-4" d="M103.38,22.34c-.44,9.71-4.88,17.35-10.29,17.35s-9.85-7.64-10.3-17.35Z"/>
            <path class="cls-4" d="M82.79,22.34c-.45,9.71-4.88,17.35-10.3,17.35S62.64,32.05,62.2,22.34Z"/>
            <path class="cls-4" d="M62.2,22.34c-.45,9.71-4.88,17.35-10.3,17.35s-9.85-7.64-10.3-17.35Z"/>
            <path class="cls-4" d="M41.6,22.34c-.44,9.71-4.88,17.35-10.29,17.35S21.46,32.05,21,22.34Z"/>
            <path class="cls-4" d="M21,22.34c-.45,9.71-4.88,17.35-10.3,17.35S.86,32.05.42,22.34Z"/>
          </g>
        </g>
      </g>
    </g>
  </g>
</svg>
