<svg xmlns="http://www.w3.org/2000/svg" width="229.25" height="163.31" viewBox="0 0 229.25 163.31">
  <defs>
    <style>
      .cls-1 {
        fill: #754c24;
      }

      .cls-2 {
        fill: #66421f;
      }

      .cls-3 {
        fill: #ff6f1f;
      }

      .cls-4 {
        fill: #ffa61e;
      }

      .cls-5 {
        fill: #ff931e;
      }
    </style>
  </defs>
  <title>Stand_17</title>
  <g id="Layer_2" data-name="Layer 2">
    <g id="_0" data-name="0">
      <g>
        <g>
          <g>
            <polygon class="cls-1" points="158.56 0.27 165.03 0 184.85 163.28 179.29 163.28 158.56 0.27"/>
            <polygon class="cls-2" points="158.56 0.27 155.09 1.92 176.83 163.28 179.29 163.28 158.56 0.27"/>
          </g>
          <g>
            <polygon class="cls-1" points="220.7 20.27 227.17 20 186.99 163.28 181.43 163.28 220.7 20.27"/>
            <polygon class="cls-2" points="220.7 20.27 217.23 21.91 178.97 163.28 181.43 163.28 220.7 20.27"/>
          </g>
        </g>
        <g>
          <g>
            <path class="cls-3" d="M186.79,111s-5.37-4.92-16.32-4.54a38.06,38.06,0,0,0-16.78,4.66l13,8.48,16.3-3.57Z"/>
            <path class="cls-4" d="M185,118.75c.63-2.54,1.23-5.12,1.83-7.73a47,47,0,0,1-17.59,2.32,78.37,78.37,0,0,1-15.51-2.2c.43,3.49.91,6.94,1.4,10.28A61,61,0,0,0,166.2,123,37.59,37.59,0,0,0,185,118.75Z"/>
          </g>
          <g>
            <path class="cls-3" d="M158.84,87.79s-8.53,1.36-15,10.12c-7.35,10-6.65,19.72-6.65,19.72l11.42,1,15.68-18.48Z"/>
            <path class="cls-5" d="M165.93,94c-2.34-2.06-4.7-4.13-7.09-6.16a80.14,80.14,0,0,1-7.67,16.63c-3.48,5.6-8.78,10-13.94,13.21,4.25,1.84,8.56,3.65,12.83,5.36a78.11,78.11,0,0,0,9.41-12.52A46.94,46.94,0,0,0,165.93,94Z"/>
          </g>
          <g>
            <path class="cls-3" d="M136.16,82.7s-4.56,5-7.29,14.28,1.89,24.8,1.89,24.8l9.51-7.93,1.31-19.36Z"/>
            <path class="cls-4" d="M146.61,85.53c-3.5-1-7-1.94-10.45-2.83a105.6,105.6,0,0,1-.42,21.31,59.61,59.61,0,0,1-5,17.77c2.86,0,5.77,0,8.69-.11,3.33-5.11,6.32-11.28,7.14-17.82A80,80,0,0,0,146.61,85.53Z"/>
          </g>
          <g>
            <path class="cls-3" d="M121.71,80.16s-6.25,5.18-10.17,16.35,1.06,25.1,1.06,25.1l14.39-14V84.63Z"/>
            <path class="cls-5" d="M132,82.7c-3.5-.9-6.94-1.76-10.27-2.54a94.06,94.06,0,0,1-.27,20.07c-1.07,8.62-5,16-8.84,21.38,4.43.14,9.14.19,14,.17a59.33,59.33,0,0,0,5-17.77A105.68,105.68,0,0,0,132,82.7Z"/>
          </g>
          <g>
            <path class="cls-3" d="M103.27,77.7S98,83,95.5,99.31C94,109,98,121.53,98,121.53l10.56-12.78-1.61-23.29Z"/>
            <path class="cls-4" d="M115.13,79.75c-4.18-.8-8.17-1.49-11.86-2a85.26,85.26,0,0,1,1.25,20.93c-.7,8.49-3.72,16.8-6.53,22.9,3.05,0,6.33.06,9.79,0,3.63-5.56,7.22-13.08,7.93-21.74A92.66,92.66,0,0,0,115.13,79.75Z"/>
          </g>
          <g>
            <path class="cls-3" d="M82.85,77.23s-6.1,7-7.52,21.8c-1.61,16.92,3.49,22.55,3.49,22.55l12-14.93-4-22.52Z"/>
            <path class="cls-5" d="M98,77.58c-4.54-.31-8.62-.47-12-.46-1.08,0-2.11,0-3.1.11a65.56,65.56,0,0,1-4,44.35,45.57,45.57,0,0,0,7.23.53c3,0,6.5-.15,10.38-.4,2.27-6.32,4.58-14.85,4.56-23.37A85.67,85.67,0,0,0,98,77.58Z"/>
          </g>
        </g>
        <g>
          <path class="cls-3" d="M69.11,110.57s-5.8-3.51-15.41-4.41-24,6.63-24,6.63l9.61,7.8,19.26-2.43Z"/>
          <path class="cls-5" d="M68.35,121.37c.29-3.63.55-7.25.76-10.8a106.25,106.25,0,0,1-21,3.68,59.53,59.53,0,0,1-18.4-1.46c.57,2.8,1.16,5.65,1.79,8.5,5.65,2.29,12.28,4,18.86,3.58A80.63,80.63,0,0,0,68.35,121.37Z"/>
        </g>
        <g>
          <polygon class="cls-2" points="46.58 120.87 15.91 120.87 13.58 163.28 51.91 163.28 46.58 120.87"/>
          <polygon class="cls-1" points="190.58 163.31 185.91 120.87 46.58 120.87 47.24 163.31 190.58 163.31"/>
        </g>
        <g>
          <g>
            <polygon class="cls-1" points="3.68 0.27 10.15 0 29.97 163.28 24.41 163.28 3.68 0.27"/>
            <polygon class="cls-2" points="3.68 0.27 0.21 1.92 21.95 163.28 24.41 163.28 3.68 0.27"/>
          </g>
          <g>
            <polygon class="cls-1" points="65.82 20.27 72.29 20 32.11 163.28 26.55 163.28 65.82 20.27"/>
            <polygon class="cls-2" points="65.82 20.27 62.35 21.91 24.09 163.28 26.55 163.28 65.82 20.27"/>
          </g>
        </g>
        <g>
          <path class="cls-3" d="M.77,3.2S16.58,22.62,64.08,22.62l164.73.06s1.43-2.73-.9-3.39S193.15,18.55,165,0H3.37A1.06,1.06,0,0,0,3,.08L.6,1.12A1,1,0,0,0,.34,2.78Z"/>
          <g>
            <path class="cls-3" d="M64.08,22.34c.45,9.71,4.88,17.35,10.3,17.35s9.85-7.64,10.3-17.35Z"/>
            <path class="cls-3" d="M84.68,22.34c.44,9.71,4.88,17.35,10.29,17.35s9.85-7.64,10.3-17.35Z"/>
            <path class="cls-3" d="M105.27,22.34c.44,9.71,4.88,17.35,10.3,17.35s9.85-7.64,10.29-17.35Z"/>
            <path class="cls-3" d="M125.86,22.34c.45,9.71,4.88,17.35,10.3,17.35s9.85-7.64,10.3-17.35Z"/>
            <path class="cls-3" d="M146.46,22.34c.44,9.71,4.88,17.35,10.29,17.35s9.85-7.64,10.3-17.35Z"/>
            <path class="cls-3" d="M167.05,22.34c.45,9.71,4.88,17.35,10.3,17.35s9.85-7.64,10.29-17.35Z"/>
            <path class="cls-3" d="M187.64,22.34c.45,9.71,4.89,17.35,10.3,17.35s9.85-7.64,10.3-17.35Z"/>
            <path class="cls-3" d="M208.24,22.34c.44,9.71,4.88,17.35,10.29,17.35s9.86-7.64,10.3-17.35Z"/>
          </g>
        </g>
      </g>
    </g>
  </g>
</svg>
