<svg xmlns="http://www.w3.org/2000/svg" width="229.247" height="163.313" viewBox="0 0 229.247 163.313">
  <title>Stand_6</title>
  <g>
    <g>
      <g>
        <polygon points="158.558 0.274 165.032 0 184.85 163.28 179.287 163.28 158.558 0.274" fill="#754c24"/>
        <polygon points="158.558 0.274 155.093 1.915 176.826 163.28 179.287 163.28 158.558 0.274" fill="#66421f"/>
      </g>
      <g>
        <polygon points="220.697 20.274 227.171 20 186.989 163.28 181.427 163.28 220.697 20.274" fill="#754c24"/>
        <polygon points="220.697 20.274 217.232 21.915 178.965 163.28 181.427 163.28 220.697 20.274" fill="#66421f"/>
      </g>
    </g>
    <g>
      <polygon points="46.576 120.869 15.91 120.869 13.576 163.28 51.91 163.28 46.576 120.869" fill="#66421f"/>
      <polygon points="190.576 163.313 185.91 120.869 46.576 120.869 47.243 163.313 190.576 163.313" fill="#754c24"/>
    </g>
    <g>
      <g>
        <polygon points="3.678 0.274 10.152 0 29.97 163.28 24.408 163.28 3.678 0.274" fill="#754c24"/>
        <polygon points="3.678 0.274 0.213 1.915 21.946 163.28 24.408 163.28 3.678 0.274" fill="#66421f"/>
      </g>
      <g>
        <polygon points="65.817 20.274 72.291 20 32.109 163.28 26.547 163.28 65.817 20.274" fill="#754c24"/>
        <polygon points="65.817 20.274 62.353 21.915 24.085 163.28 26.547 163.28 65.817 20.274" fill="#66421f"/>
      </g>
    </g>
    <g>
      <path d="M.766,3.2s15.81,19.417,63.31,19.417l164.738.066s1.429-2.733-.9-3.4S193.154,18.548,165.032,0H3.368a1,1,0,0,0-.4.083L.6,1.116A1,1,0,0,0,.339,2.783Z" fill="#d8563d"/>
      <g>
        <path d="M64.082,22.337c.446,9.717,4.881,17.352,10.3,17.352s9.851-7.635,10.3-17.352Z" fill="#d8563d"/>
        <path d="M84.676,22.337c.445,9.717,4.881,17.352,10.3,17.352s9.85-7.635,10.3-17.352Z" fill="#d8563d"/>
        <path d="M105.269,22.337c.446,9.717,4.882,17.352,10.3,17.352s9.851-7.635,10.3-17.352Z" fill="#d8563d"/>
        <path d="M125.863,22.337c.446,9.717,4.881,17.352,10.3,17.352s9.851-7.635,10.3-17.352Z" fill="#d8563d"/>
        <path d="M146.457,22.337c.445,9.717,4.881,17.352,10.3,17.352s9.85-7.635,10.3-17.352Z" fill="#d8563d"/>
        <path d="M167.05,22.337c.446,9.717,4.882,17.352,10.3,17.352s9.851-7.635,10.3-17.352Z" fill="#d8563d"/>
        <path d="M187.644,22.337c.446,9.717,4.882,17.352,10.3,17.352s9.851-7.635,10.3-17.352Z" fill="#d8563d"/>
        <path d="M208.238,22.337c.445,9.717,4.881,17.352,10.3,17.352s9.85-7.635,10.3-17.352Z" fill="#d8563d"/>
      </g>
    </g>
  </g>
</svg>
