<svg xmlns="http://www.w3.org/2000/svg" width="229.247" height="163.313" viewBox="0 0 229.247 163.313">
  <title>Stand_13</title>
  <g>
    <g>
      <g>
        <polygon points="70.689 0.274 64.215 0 44.397 163.28 49.96 163.28 70.689 0.274" fill="#66421f"/>
        <polygon points="70.689 0.274 74.154 1.915 52.421 163.28 49.96 163.28 70.689 0.274" fill="#754c24"/>
      </g>
      <g>
        <polygon points="8.55 20.274 2.076 20 42.258 163.28 47.821 163.28 8.55 20.274" fill="#66421f"/>
        <polygon points="8.55 20.274 12.015 21.915 50.282 163.28 47.821 163.28 8.55 20.274" fill="#754c24"/>
      </g>
    </g>
    <path d="M208.058,118.922c-2.82-5.194-6.813-2.378-6.813-2.378s1.177-6.81-2.428-7.6-4.8,1.217-4.8,1.217-1.63-8.4-8.035-8.378a6.849,6.849,0,0,0-7.186,5.629s-1.61-2.4-3.21-1.991a12.222,12.222,0,0,0-3.6,2.014s1.19-3.206-1.216-4.4c-2.147-1.065-3.01.417-3.17.748a2.151,2.151,0,0,0-1.241-3.135c-2.405-.792-3.6,2.014-3.6,2.014s-1.233-9.2-6.038-9.587-9.986,6.44-9.986,6.44-1.618-4.8-8.423-4.775c-6.2.022-9.073,7.882-9.532,8.237-.458-.355-3.327-2.36-9.531-2.382-6.806-.023-8.424,4.775-8.424,4.775s-2.982-7.611-7.787-7.227-8.236,4.519-8.236,4.519-1.191-2.806-3.6-2.014a2.15,2.15,0,0,0-1.241,3.135c-.161-.331-1.023-1.813-3.171-.748-2.406,1.193-1.216,4.4-1.216,4.4a12.226,12.226,0,0,0-3.595-2.014c-1.6-.406-3.21,1.991-3.21,1.991a6.849,6.849,0,0,0-7.186-5.629c-6.405-.023-8.035,8.378-8.035,8.378s-1.194-2-4.8-1.217-2.428,7.6-2.428,7.6-3.993-2.816-6.814,2.378,1.578,6.811,1.578,6.811,54.033,1.455,77.692-.168c23.66,1.623,77.693.168,77.693.168S210.878,124.116,208.058,118.922Z" fill="#00a99d"/>
    <g>
      <polygon points="182.671 120.869 213.337 120.869 215.671 163.28 177.337 163.28 182.671 120.869" fill="#754c24"/>
      <polygon points="38.671 163.313 43.337 120.869 182.671 120.869 182.004 163.313 38.671 163.313" fill="#66421f"/>
    </g>
    <g>
      <g>
        <polygon points="225.569 0.274 219.095 0 199.277 163.28 204.839 163.28 225.569 0.274" fill="#66421f"/>
        <polygon points="225.569 0.274 229.034 1.915 207.301 163.28 204.839 163.28 225.569 0.274" fill="#754c24"/>
      </g>
      <g>
        <polygon points="163.43 20.274 156.956 20 197.138 163.28 202.7 163.28 163.43 20.274" fill="#66421f"/>
        <polygon points="163.43 20.274 166.895 21.915 205.162 163.28 202.7 163.28 163.43 20.274" fill="#754c24"/>
      </g>
    </g>
    <g>
      <path d="M228.481,3.2s-15.81,19.417-63.31,19.417L.433,22.685s-1.429-2.733.9-3.4S36.093,18.548,64.215,0H225.879a1,1,0,0,1,.4.083l2.368,1.033a1,1,0,0,1,.262,1.667Z" fill="#355db7"/>
      <g>
        <path d="M165.165,22.337c-.446,9.717-4.881,17.352-10.3,17.352s-9.851-7.635-10.3-17.352Z" fill="#355db7"/>
        <path d="M144.572,22.337c-.446,9.717-4.882,17.352-10.3,17.352s-9.851-7.635-10.3-17.352Z" fill="#355db7"/>
        <path d="M123.978,22.337c-.446,9.717-4.882,17.352-10.3,17.352s-9.851-7.635-10.3-17.352Z" fill="#355db7"/>
        <path d="M103.384,22.337c-.446,9.717-4.881,17.352-10.3,17.352s-9.851-7.635-10.3-17.352Z" fill="#355db7"/>
        <path d="M82.79,22.337c-.445,9.717-4.881,17.352-10.3,17.352s-9.85-7.635-10.3-17.352Z" fill="#355db7"/>
        <path d="M62.2,22.337c-.446,9.717-4.882,17.352-10.3,17.352s-9.851-7.635-10.3-17.352Z" fill="#355db7"/>
        <path d="M41.6,22.337c-.446,9.717-4.882,17.352-10.3,17.352s-9.851-7.635-10.3-17.352Z" fill="#355db7"/>
        <path d="M21.009,22.337c-.445,9.717-4.881,17.352-10.3,17.352S.862,32.054.416,22.337Z" fill="#355db7"/>
      </g>
    </g>
  </g>
</svg>
