<svg xmlns="http://www.w3.org/2000/svg" width="229.25" height="163.31" viewBox="0 0 229.25 163.31">
  <defs>
    <style>
      .cls-1 {
        fill: #3b2612;
      }

      .cls-2 {
        fill: #6d4722;
      }

      .cls-3 {
        fill: #006837;
      }

      .cls-4 {
        fill: #1c5c7f;
      }
    </style>
  </defs>
  <title>Stand_9</title>
  <g id="Layer_2" data-name="Layer 2">
    <g id="_0" data-name="0">
      <g>
        <g>
          <g>
            <polygon class="cls-1" points="70.69 0.27 64.22 0 44.4 163.28 49.96 163.28 70.69 0.27"/>
            <polygon class="cls-2" points="70.69 0.27 74.15 1.92 52.42 163.28 49.96 163.28 70.69 0.27"/>
          </g>
          <g>
            <polygon class="cls-1" points="8.55 20.27 2.08 20 42.26 163.28 47.82 163.28 8.55 20.27"/>
            <polygon class="cls-2" points="8.55 20.27 12.02 21.91 50.28 163.28 47.82 163.28 8.55 20.27"/>
          </g>
        </g>
        <path class="cls-3" d="M199,114.44s3.5-3.48-.47-6.48-9,.47-9,.47-1-4-8.46-4-9.48,5.45-9.48,5.45-.48-3.49-5.47-2.51-5.49,4.47-5.49,4.47.51-5-5.46-6.5-8.48,2.47-8.48,2.47-.48-4.49-6.46-4.51a7.75,7.75,0,0,0-7.49,5.46,4,4,0,0,0-5.93-1.83c-3.41-.83-6.78,1.51-6.78,1.51s-1-4-8.46-4-9.48,5.45-9.48,5.45-.48-3.49-5.47-2.51-5.49,4.47-5.49,4.47.51-5-5.46-6.5-8.48,2.47-8.48,2.47-.48-4.49-6.46-4.51a7.75,7.75,0,0,0-7.49,5.46s-2-4.49-6.47-1.52-2,6-2,6a5.54,5.54,0,0,0-5.5,6c0,6,6,6.5,6,6.5l77.21.24a3.44,3.44,0,0,0,.38-.22l69.12.22a2.48,2.48,0,0,0,1-4C206.48,115.46,199,114.44,199,114.44Z"/>
        <g>
          <polygon class="cls-2" points="182.67 120.87 213.34 120.87 215.67 163.28 177.34 163.28 182.67 120.87"/>
          <polygon class="cls-1" points="38.67 163.31 43.34 120.87 182.67 120.87 182 163.31 38.67 163.31"/>
        </g>
        <g>
          <g>
            <polygon class="cls-1" points="225.57 0.27 219.09 0 199.28 163.28 204.84 163.28 225.57 0.27"/>
            <polygon class="cls-2" points="225.57 0.27 229.03 1.92 207.3 163.28 204.84 163.28 225.57 0.27"/>
          </g>
          <g>
            <polygon class="cls-1" points="163.43 20.27 156.96 20 197.14 163.28 202.7 163.28 163.43 20.27"/>
            <polygon class="cls-2" points="163.43 20.27 166.9 21.91 205.16 163.28 202.7 163.28 163.43 20.27"/>
          </g>
        </g>
        <g>
          <path class="cls-4" d="M228.48,3.2s-15.81,19.42-63.31,19.42L.43,22.68S-1,20,1.34,19.29,36.09,18.55,64.22,0H225.88a1.1,1.1,0,0,1,.4.08l2.37,1a1,1,0,0,1,.26,1.66Z"/>
          <g>
            <path class="cls-4" d="M165.17,22.34c-.45,9.71-4.89,17.35-10.3,17.35s-9.85-7.64-10.3-17.35Z"/>
            <path class="cls-4" d="M144.57,22.34c-.44,9.71-4.88,17.35-10.3,17.35S124.42,32.05,124,22.34Z"/>
            <path class="cls-4" d="M124,22.34c-.45,9.71-4.88,17.35-10.3,17.35s-9.85-7.64-10.3-17.35Z"/>
            <path class="cls-4" d="M103.38,22.34c-.44,9.71-4.88,17.35-10.29,17.35s-9.85-7.64-10.3-17.35Z"/>
            <path class="cls-4" d="M82.79,22.34c-.45,9.71-4.88,17.35-10.3,17.35S62.64,32.05,62.2,22.34Z"/>
            <path class="cls-4" d="M62.2,22.34c-.45,9.71-4.88,17.35-10.3,17.35s-9.85-7.64-10.3-17.35Z"/>
            <path class="cls-4" d="M41.6,22.34c-.44,9.71-4.88,17.35-10.29,17.35S21.46,32.05,21,22.34Z"/>
            <path class="cls-4" d="M21,22.34c-.45,9.71-4.88,17.35-10.3,17.35S.86,32.05.42,22.34Z"/>
          </g>
        </g>
      </g>
    </g>
  </g>
</svg>
