<svg xmlns="http://www.w3.org/2000/svg" width="229.25" height="163.31" viewBox="0 0 229.25 163.31">
  <defs>
    <style>
      .cls-1 {
        fill: #66421f;
      }

      .cls-2 {
        fill: #754c24;
      }

      .cls-3 {
        fill: #ff6f1f;
      }

      .cls-4 {
        fill: #ffa61e;
      }

      .cls-5 {
        fill: #ff931e;
      }

      .cls-6 {
        fill: #355db7;
      }
    </style>
  </defs>
  <title>Stand_16</title>
  <g id="Layer_2" data-name="Layer 2">
    <g id="_0" data-name="0">
      <g>
        <g>
          <g>
            <polygon class="cls-1" points="70.69 0.27 64.22 0 44.4 163.28 49.96 163.28 70.69 0.27"/>
            <polygon class="cls-2" points="70.69 0.27 74.15 1.92 52.42 163.28 49.96 163.28 70.69 0.27"/>
          </g>
          <g>
            <polygon class="cls-1" points="8.55 20.27 2.08 20 42.26 163.28 47.82 163.28 8.55 20.27"/>
            <polygon class="cls-2" points="8.55 20.27 12.02 21.91 50.28 163.28 47.82 163.28 8.55 20.27"/>
          </g>
        </g>
        <g>
          <path class="cls-3" d="M143.07,111.39s-5.36-4.91-16.32-4.53A37.89,37.89,0,0,0,110,111.52L123,120l16.3-3.57Z"/>
          <path class="cls-4" d="M141.25,119.13c.62-2.54,1.22-5.13,1.82-7.74a46.73,46.73,0,0,1-17.58,2.32A78.37,78.37,0,0,1,110,111.52c.43,3.49.9,6.94,1.39,10.28a61.18,61.18,0,0,0,11.12,1.52A37.72,37.72,0,0,0,141.25,119.13Z"/>
        </g>
        <g>
          <path class="cls-3" d="M115.13,88.16s-8.53,1.36-15,10.12c-7.35,10-6.64,19.72-6.64,19.72l11.42,1,15.68-18.48Z"/>
          <path class="cls-5" d="M122.21,94.33c-2.33-2.07-4.7-4.13-7.08-6.17a80.5,80.5,0,0,1-7.68,16.63c-3.48,5.6-8.77,10-13.93,13.21,4.24,1.85,8.56,3.66,12.83,5.37a78.58,78.58,0,0,0,9.41-12.52A47,47,0,0,0,122.21,94.33Z"/>
        </g>
        <g>
          <path class="cls-3" d="M92.45,83.07s-4.56,5-7.29,14.29,1.89,24.8,1.89,24.8l9.5-7.93,1.32-19.37Z"/>
          <path class="cls-4" d="M102.9,85.9c-3.51-1-7-1.93-10.45-2.83A105.76,105.76,0,0,1,92,104.39a59.42,59.42,0,0,1-5,17.77c2.86,0,5.77,0,8.69-.12,3.33-5.1,6.32-11.28,7.13-17.82A80.08,80.08,0,0,0,102.9,85.9Z"/>
        </g>
        <g>
          <path class="cls-3" d="M195.64,111.7s-5.72-3.64-15.32-4.75-24.11,6.1-24.11,6.1l9.43,8,19.31-2Z"/>
          <path class="cls-4" d="M194.63,122.48c.37-3.63.71-7.24,1-10.78a105.6,105.6,0,0,1-21.08,3.21,59.17,59.17,0,0,1-18.35-1.86c.5,2.82,1,5.68,1.59,8.54,5.6,2.41,12.2,4.3,18.78,4A80.17,80.17,0,0,0,194.63,122.48Z"/>
        </g>
        <g>
          <path class="cls-3" d="M85,110.78s-6-5.46-17.6-7.78-24.72,4.57-24.72,4.57l15.94,12.27,22.7-3.21Z"/>
          <path class="cls-5" d="M84,121.31c.4-3.6.77-7.13,1.07-10.53a93.39,93.39,0,0,1-19.9,2.55c-8.69.14-16.53-2.7-22.42-5.76.5,4.4,1.1,9.07,1.8,13.86a59.39,59.39,0,0,0,18.29,2.44A106.12,106.12,0,0,0,84,121.31Z"/>
        </g>
        <g>
          <path class="cls-3" d="M192.47,101.44s-5.37-4.91-16.32-4.54a38,38,0,0,0-16.77,4.67l13,8.48,16.3-3.57Z"/>
          <path class="cls-4" d="M190.64,109.18c.63-2.55,1.23-5.13,1.83-7.74a47,47,0,0,1-17.59,2.32,78.25,78.25,0,0,1-15.5-2.19c.43,3.49.9,6.94,1.39,10.28a61.05,61.05,0,0,0,11.11,1.52A37.69,37.69,0,0,0,190.64,109.18Z"/>
        </g>
        <g>
          <polygon class="cls-2" points="182.67 120.87 213.34 120.87 215.67 163.28 177.34 163.28 182.67 120.87"/>
          <polygon class="cls-1" points="38.67 163.31 43.34 120.87 182.67 120.87 182 163.31 38.67 163.31"/>
        </g>
        <g>
          <g>
            <polygon class="cls-1" points="225.57 0.27 219.09 0 199.28 163.28 204.84 163.28 225.57 0.27"/>
            <polygon class="cls-2" points="225.57 0.27 229.03 1.92 207.3 163.28 204.84 163.28 225.57 0.27"/>
          </g>
          <g>
            <polygon class="cls-1" points="163.43 20.27 156.96 20 197.14 163.28 202.7 163.28 163.43 20.27"/>
            <polygon class="cls-2" points="163.43 20.27 166.9 21.91 205.16 163.28 202.7 163.28 163.43 20.27"/>
          </g>
        </g>
        <g>
          <path class="cls-6" d="M228.48,3.2s-15.81,19.42-63.31,19.42L.43,22.68S-1,20,1.34,19.29,36.09,18.55,64.22,0H225.88a1.1,1.1,0,0,1,.4.08l2.37,1a1,1,0,0,1,.26,1.66Z"/>
          <g>
            <path class="cls-6" d="M165.17,22.34c-.45,9.71-4.89,17.35-10.3,17.35s-9.85-7.64-10.3-17.35Z"/>
            <path class="cls-6" d="M144.57,22.34c-.44,9.71-4.88,17.35-10.3,17.35S124.42,32.05,124,22.34Z"/>
            <path class="cls-6" d="M124,22.34c-.45,9.71-4.88,17.35-10.3,17.35s-9.85-7.64-10.3-17.35Z"/>
            <path class="cls-6" d="M103.38,22.34c-.44,9.71-4.88,17.35-10.29,17.35s-9.85-7.64-10.3-17.35Z"/>
            <path class="cls-6" d="M82.79,22.34c-.45,9.71-4.88,17.35-10.3,17.35S62.64,32.05,62.2,22.34Z"/>
            <path class="cls-6" d="M62.2,22.34c-.45,9.71-4.88,17.35-10.3,17.35s-9.85-7.64-10.3-17.35Z"/>
            <path class="cls-6" d="M41.6,22.34c-.44,9.71-4.88,17.35-10.29,17.35S21.46,32.05,21,22.34Z"/>
            <path class="cls-6" d="M21,22.34c-.45,9.71-4.88,17.35-10.3,17.35S.86,32.05.42,22.34Z"/>
          </g>
        </g>
        <g>
          <path class="cls-3" d="M80.68,99.56S76,94,65,93.08a38,38,0,0,0-17.22,2.6l11.84,10,16.61-1.57Z"/>
          <path class="cls-4" d="M77.94,107q1.38-3.67,2.74-7.46A46.93,46.93,0,0,1,63,99.74a79.27,79.27,0,0,1-15.13-4.06c0,3.51.06,7,.13,10.37a60.6,60.6,0,0,0,10.85,2.86A37.77,37.77,0,0,0,77.94,107Z"/>
        </g>
      </g>
    </g>
  </g>
</svg>
