<svg xmlns="http://www.w3.org/2000/svg" xmlns:xlink="http://www.w3.org/1999/xlink" width="15.63" height="81.13" viewBox="0 0 15.63 81.13">
  <defs>
    <style>
      .cls-1 {
        isolation: isolate;
      }

      .cls-2 {
        fill: #3a2512;
      }

      .cls-3 {
        fill: #342210;
      }

      .cls-4 {
        fill: #5c3b1c;
      }

      .cls-5 {
        fill: url(#linear-gradient);
      }

      .cls-6 {
        fill: url(#linear-gradient-2);
      }

      .cls-7 {
        fill: url(#linear-gradient-3);
      }

      .cls-8 {
        fill: url(#linear-gradient-4);
      }

      .cls-9 {
        fill: url(#linear-gradient-5);
      }
    </style>
    <linearGradient id="linear-gradient" x1="0.52" y1="11.56" x2="15.17" y2="11.56" gradientUnits="userSpaceOnUse">
      <stop offset="0" stop-color="#736357"/>
      <stop offset="1" stop-color="#c7b299"/>
    </linearGradient>
    <linearGradient id="linear-gradient-2" x1="0.25" y1="14.64" x2="15.42" y2="14.64" gradientUnits="userSpaceOnUse">
      <stop offset="0" stop-color="#534741"/>
      <stop offset="1" stop-color="#736357"/>
    </linearGradient>
    <linearGradient id="linear-gradient-3" x1="0" y1="8.92" x2="15.63" y2="8.92" xlink:href="#linear-gradient-2"/>
    <linearGradient id="linear-gradient-4" x1="1.33" y1="19.88" x2="14.48" y2="19.88" xlink:href="#linear-gradient-2"/>
    <linearGradient id="linear-gradient-5" x1="0.76" y1="4.38" x2="15.35" y2="4.38" xlink:href="#linear-gradient-2"/>
  </defs>
  <title>TorchB</title>
  <g id="Layer_2" data-name="Layer 2">
    <g id="_0" data-name="0">
      <g>
        <g class="cls-1">
          <polygon class="cls-2" points="8.25 18.43 3.96 18.43 9.54 18.43 12.46 18.43 8.25 18.43"/>
          <polygon class="cls-3" points="7.03 81.13 4.8 81.13 3.96 18.43 8.25 18.43 7.03 81.13"/>
          <polygon class="cls-4" points="12.46 18.43 10.09 81.13 7.03 81.13 8.25 18.43 12.46 18.43"/>
        </g>
        <g>
          <path class="cls-5" d="M8.33,23.1s-3.91,0-5.12-1.36a12.38,12.38,0,0,1-2.6-7.35C.46,11.1.32,4.9,1.63,3s4-3,7.11-3S15.1,1.61,15.1,4s.58,14.32-1.76,16.91A6,6,0,0,1,8.33,23.1Z"/>
          <path class="cls-6" d="M.61,14.39A2,2,0,0,0,1,17.14s9.21.58,14-2.49a2.24,2.24,0,0,0,.15-2.55A39.77,39.77,0,0,1,.61,14.39Z"/>
          <path class="cls-7" d="M15.16,9.86s1.05-1,0-2.89A32.59,32.59,0,0,1,.63,7.34a2.42,2.42,0,0,0-.11,3.1S8.64,11.7,15.16,9.86Z"/>
          <path class="cls-8" d="M1.38,18.43s7.26,2.13,13,.21a1.4,1.4,0,0,1-.71,1.84s-3.91,2-11.4-.11A1.85,1.85,0,0,1,1.38,18.43Z"/>
          <path class="cls-9" d="M.92,5S.09,2.74,2.22,2.33A36,36,0,0,0,15.11,4.55a1.55,1.55,0,0,1,0,1.62S9.45,7.2.92,5Z"/>
        </g>
      </g>
    </g>
  </g>
</svg>
