<svg xmlns="http://www.w3.org/2000/svg" width="329.33" height="226.7" viewBox="0 0 329.33 226.7">
  <defs>
    <style>
      .cls-1 {
        fill: #6d4722;
      }

      .cls-2 {
        fill: #3b2612;
      }

      .cls-3 {
        font-size: 14px;
        letter-spacing: -0.07em;
      }

      .cls-15, .cls-3, .cls-7 {
        fill: #fff;
        font-family: CHAWP;
      }

      .cls-4 {
        letter-spacing: -0.04em;
      }

      .cls-5 {
        letter-spacing: 0em;
      }

      .cls-6 {
        letter-spacing: -0.06em;
      }

      .cls-15, .cls-7 {
        font-size: 12px;
      }

      .cls-8 {
        letter-spacing: -0.06em;
      }

      .cls-9 {
        letter-spacing: -0.07em;
      }

      .cls-10 {
        letter-spacing: 0em;
      }

      .cls-11 {
        letter-spacing: -0.04em;
      }

      .cls-12 {
        letter-spacing: -0.1em;
      }

      .cls-13 {
        letter-spacing: -0.13em;
      }

      .cls-14 {
        letter-spacing: -0.2em;
      }

      .cls-15 {
        letter-spacing: -0.03em;
      }

      .cls-16 {
        letter-spacing: -0.1em;
      }

      .cls-17 {
        letter-spacing: -0.06em;
      }

      .cls-18 {
        letter-spacing: -0.07em;
      }

      .cls-19 {
        letter-spacing: 0em;
      }

      .cls-20 {
        letter-spacing: -0.11em;
      }

      .cls-21 {
        letter-spacing: -0.1em;
      }
    </style>
  </defs>
  <title>UnfSign</title>
  <g id="Layer_2" data-name="Layer 2">
    <g id="_0" data-name="0">
      <g>
        <g>
          <g>
            <polygon class="cls-1" points="59.77 72.51 66.24 72.24 66.06 226.7 60.5 226.7 59.77 72.51"/>
            <polygon class="cls-2" points="59.77 72.51 56.3 74.15 58.04 226.7 60.5 226.7 59.77 72.51"/>
          </g>
          <g>
            <polygon class="cls-1" points="264.96 72.51 271.44 72.24 271.25 226.7 265.69 226.7 264.96 72.51"/>
            <polygon class="cls-2" points="264.96 72.51 261.5 74.15 263.23 226.7 265.69 226.7 264.96 72.51"/>
          </g>
          <g>
            <polygon class="cls-2" points="1.63 0 0 0.94 1.63 149.77 327.93 149.44 329.33 148.16 1.63 0"/>
            <polygon class="cls-1" points="1.63 0 329.22 2.55 329.33 148.16 3.08 148.43 1.63 0"/>
          </g>
        </g>
        <text class="cls-3" transform="translate(21.8 36.52)">T<tspan class="cls-4" x="7.95" y="0">h</tspan><tspan class="cls-5" x="16.39" y="0">ank </tspan><tspan class="cls-6" x="47.15" y="0">y</tspan><tspan class="cls-5" x="53.34" y="0">ou for playing Stonicorn demo</tspan></text>
        <text class="cls-7" transform="translate(21.8 67.36)"><tspan class="cls-8">Y</tspan><tspan x="5.3" y="0">ou </tspan><tspan class="cls-9" x="24.9" y="0">c</tspan><tspan class="cls-10" x="32.03" y="0">an con</tspan><tspan class="cls-11" x="73.1" y="0">t</tspan><tspan x="80.27" y="0">inue </tspan><tspan class="cls-8" x="114.42" y="0">y</tspan><tspan x="119.72" y="0">our </tspan><tspan class="cls-12" x="146.83" y="0">j</tspan><tspan x="154.43" y="0">ourney </tspan><tspan class="cls-9" x="201.81" y="0">t</tspan><tspan x="208.63" y="0">hrough </tspan><tspan class="cls-9" x="259.26" y="0">t</tspan><tspan x="266.07" y="0">he</tspan><tspan x="0" y="14.4">land of unfinished crea</tspan><tspan class="cls-11" x="164.63" y="14.4">t</tspan><tspan x="171.79" y="14.4">ion but be </tspan><tspan class="cls-13" x="244.5" y="14.4">w</tspan><tspan x="252.08" y="14.4">arne</tspan><tspan class="cls-14" x="281.86" y="14.4">d</tspan></text>
        <text class="cls-15" transform="translate(310.18 81.76) scale(0.99 1)">,</text>
        <text class="cls-7" transform="translate(21.8 96.16)">af<tspan class="cls-16" x="15.3" y="0">t</tspan><tspan class="cls-10" x="21.79" y="0">er </tspan><tspan class="cls-9" x="41.35" y="0">t</tspan><tspan x="48.17" y="0">his sign </tspan><tspan class="cls-17" x="109.19" y="0">y</tspan><tspan x="114.49" y="0">ou’</tspan><tspan class="cls-18" x="132.37" y="0">l</tspan><tspan class="cls-19" x="138.56" y="0">l encoun</tspan><tspan class="cls-12" x="194.29" y="0">t</tspan><tspan x="200.78" y="0">er bugs and </tspan><tspan x="0" y="14.4">old ugly </tspan><tspan class="cls-16" x="61.15" y="14.4">t</tspan><tspan x="67.64" y="14.4">extures</tspan></text>
        <text class="cls-7" transform="translate(185.12 127.26)">g<tspan class="cls-20" x="8.04" y="0">o</tspan><tspan x="13.58" y="0">od luck tr</tspan><tspan class="cls-21" x="83.81" y="0">a</tspan><tspan x="90.6" y="0">veler</tspan></text>
      </g>
    </g>
  </g>
</svg>
