<svg xmlns="http://www.w3.org/2000/svg" width="227.3" height="493.33" viewBox="0 0 227.3 493.33">
  <defs>
    <style>
      .cls-1 {
        isolation: isolate;
      }

      .cls-2 {
        fill: #3b2612;
      }

      .cls-3 {
        fill: #6d4722;
      }
    </style>
  </defs>
  <title>Wall_3</title>
  <g id="Layer_2" data-name="Layer 2">
    <g id="_0" data-name="0">
      <g>
        <g class="cls-1">
          <polygon class="cls-2" points="219.87 432.07 217.3 434.68 6.03 447.27 8.59 444.67 219.87 432.07"/>
          <polygon class="cls-2" points="8.59 444.67 6.03 447.27 0 399.58 2.56 396.97 8.59 444.67"/>
          <polygon class="cls-3" points="2.56 396.97 220.23 386.6 219.87 432.07 8.59 444.67 2.56 396.97"/>
        </g>
        <g class="cls-1">
          <polygon class="cls-2" points="219.39 335.39 216.82 337.99 7.38 330.33 9.95 327.73 219.39 335.39"/>
          <polygon class="cls-2" points="9.95 327.73 7.38 330.33 6.23 292.71 8.79 290.1 9.95 327.73"/>
          <polygon class="cls-3" points="8.79 290.1 218.33 300.81 219.39 335.39 9.95 327.73 8.79 290.1"/>
        </g>
        <g class="cls-1">
          <polygon class="cls-2" points="222.01 285.5 219.44 288.11 4.67 285.3 7.24 282.7 222.01 285.5"/>
          <polygon class="cls-2" points="7.24 282.7 4.67 285.3 2.13 248.26 4.7 245.66 7.24 282.7"/>
          <polygon class="cls-3" points="4.7 245.66 222.98 243.74 222.01 285.5 7.24 282.7 4.7 245.66"/>
        </g>
        <g class="cls-1">
          <polygon class="cls-2" points="224.45 87.49 221.88 90.1 7.7 88.22 10.26 85.61 224.45 87.49"/>
          <polygon class="cls-2" points="10.26 85.61 7.7 88.22 1.96 38.14 4.52 35.54 10.26 85.61"/>
          <polygon class="cls-3" points="4.52 35.54 227.3 35.54 224.45 87.49 10.26 85.61 4.52 35.54"/>
        </g>
        <g class="cls-1">
          <polygon class="cls-2" points="224.25 177.41 221.69 180.01 163.41 180.79 165.98 178.19 224.25 177.41"/>
          <polygon class="cls-2" points="165.98 178.19 163.41 180.79 161.36 173.92 163.92 171.32 165.98 178.19"/>
          <polygon class="cls-2" points="163.92 171.32 161.36 173.92 140.96 172.75 143.53 170.15 163.92 171.32"/>
          <polygon class="cls-2" points="143.53 170.15 140.96 172.75 122.62 169.71 125.19 167.11 143.53 170.15"/>
          <polygon class="cls-2" points="125.19 167.11 122.62 169.71 121.03 163.86 123.6 161.26 125.19 167.11"/>
          <polygon class="cls-2" points="123.6 161.26 121.03 163.86 111.91 160.12 114.48 157.52 123.6 161.26"/>
          <polygon class="cls-2" points="114.61 161.96 112.05 164.56 104.75 167.14 107.32 164.54 114.61 161.96"/>
          <polygon class="cls-2" points="107.32 164.54 104.75 167.14 99.28 171.82 101.85 169.22 107.32 164.54"/>
          <polygon class="cls-2" points="101.85 169.22 99.28 171.82 88.09 173.22 90.66 170.62 101.85 169.22"/>
          <polygon class="cls-3" points="6.16 139.5 225.05 134.82 224.25 177.41 165.98 178.19 163.92 171.32 143.53 170.15 125.19 167.11 123.6 161.26 114.48 157.52 114.61 161.96 107.32 164.54 101.85 169.22 90.66 170.62 84.56 179.29 10.21 180.22 6.16 139.5"/>
          <polygon class="cls-2" points="84.56 179.29 82 181.89 7.65 182.82 10.21 180.22 84.56 179.29"/>
          <polygon class="cls-2" points="10.21 180.22 7.65 182.82 3.59 142.1 6.16 139.5 10.21 180.22"/>
        </g>
        <g>
          <polygon class="cls-3" points="194.19 0.87 214.87 0 204.28 493.33 186.52 493.33 194.19 0.87"/>
          <polygon class="cls-2" points="194.19 0.87 183.12 6.12 178.66 493.33 186.52 493.33 194.19 0.87"/>
        </g>
        <g>
          <polygon class="cls-3" points="28.44 0.87 49.12 0 48.54 493.33 30.77 493.33 28.44 0.87"/>
          <polygon class="cls-2" points="28.44 0.87 17.38 6.12 22.91 493.33 30.77 493.33 28.44 0.87"/>
        </g>
      </g>
    </g>
  </g>
</svg>
