<svg xmlns="http://www.w3.org/2000/svg" width="225.63" height="521.54" viewBox="0 0 225.63 521.54">
  <defs>
    <style>
      .cls-1 {
        isolation: isolate;
      }

      .cls-2 {
        fill: #3b2612;
      }

      .cls-3 {
        fill: #6d4722;
      }
    </style>
  </defs>
  <title>Wall_2</title>
  <g id="Layer_2" data-name="Layer 2">
    <g id="_0" data-name="0">
      <g>
        <g class="cls-1">
          <polygon class="cls-2" points="107.24 518.93 104.68 521.54 64.45 504.45 67.02 501.84 107.24 518.93"/>
          <polygon class="cls-2" points="67.02 501.84 64.45 504.45 190.62 291.87 193.18 289.27 67.02 501.84"/>
          <polygon class="cls-3" points="193.18 289.27 225.63 314.9 191.41 365.65 107.24 518.93 67.02 501.84 193.18 289.27"/>
        </g>
        <g class="cls-1">
          <polygon class="cls-2" points="215.12 93.89 212.55 96.49 95.3 139.15 97.87 136.55 215.12 93.89"/>
          <polygon class="cls-2" points="97.87 136.55 95.3 139.15 83.69 126.51 86.25 123.91 97.87 136.55"/>
          <polygon class="cls-2" points="86.25 123.91 83.69 126.51 69.59 124.64 72.15 122.04 86.25 123.91"/>
          <polygon class="cls-2" points="72.15 122.04 69.59 124.64 61.68 111.06 64.25 108.46 72.15 122.04"/>
          <polygon class="cls-3" points="203.16 59.32 215.12 93.89 97.87 136.55 86.25 123.91 72.15 122.04 64.25 108.46 203.16 59.32"/>
        </g>
        <g class="cls-1">
          <polygon class="cls-2" points="210.14 51.93 207.57 54.54 6.44 60.97 9 58.37 210.14 51.93"/>
          <polygon class="cls-2" points="9 58.37 6.44 60.97 0 14.52 2.56 11.91 9 58.37"/>
          <polygon class="cls-3" points="208.91 11.91 210.14 51.93 9 58.37 2.56 11.91 208.91 11.91"/>
        </g>
        <g>
          <polygon class="cls-3" points="168.38 0.87 189.06 0 178.47 493.33 160.71 493.33 168.38 0.87"/>
          <polygon class="cls-2" points="168.38 0.87 157.31 6.12 152.84 493.33 160.71 493.33 168.38 0.87"/>
        </g>
      </g>
    </g>
  </g>
</svg>
