<svg xmlns="http://www.w3.org/2000/svg" width="248.08" height="546.93" viewBox="0 0 248.08 546.93">
  <defs>
    <style>
      .cls-1 {
        isolation: isolate;
      }

      .cls-2 {
        fill: #3b2612;
      }

      .cls-3 {
        fill: #6d4722;
      }
    </style>
  </defs>
  <title>Wall_1</title>
  <g id="Layer_2" data-name="Layer 2">
    <g id="_0" data-name="0">
      <g>
        <g class="cls-1">
          <polygon class="cls-2" points="209.93 544.33 207.36 546.93 5.37 455.57 7.94 452.96 209.93 544.33"/>
          <polygon class="cls-2" points="7.94 452.96 5.37 455.57 21.02 412.14 23.58 409.53 7.94 452.96"/>
          <polygon class="cls-3" points="23.58 409.53 222.99 498.39 209.93 544.33 7.94 452.96 23.58 409.53"/>
        </g>
        <g class="cls-1">
          <polygon class="cls-2" points="130.01 395.67 127.45 398.28 24.16 387.52 26.72 384.91 130.01 395.67"/>
          <polygon class="cls-2" points="26.72 384.91 24.16 387.52 26.86 338.25 29.42 335.65 26.72 384.91"/>
          <polygon class="cls-3" points="29.42 335.65 130.74 342.79 122.87 361.04 123.61 384.91 130.01 395.67 26.72 384.91 29.42 335.65"/>
        </g>
        <g class="cls-1">
          <polygon class="cls-2" points="248.08 41.03 245.52 43.63 23.57 154.25 26.13 151.64 248.08 41.03"/>
          <polygon class="cls-2" points="26.13 151.64 23.57 154.25 0 103.35 2.56 100.75 26.13 151.64"/>
          <polygon class="cls-3" points="215.91 0 248.08 41.03 26.13 151.64 2.56 100.75 215.91 0"/>
        </g>
        <g>
          <polygon class="cls-3" points="54.71 41.55 75.39 40.68 74.8 534.01 57.04 534.01 54.71 41.55"/>
          <polygon class="cls-2" points="54.71 41.55 43.64 46.8 49.17 534.01 57.04 534.01 54.71 41.55"/>
        </g>
      </g>
    </g>
  </g>
</svg>
