<svg xmlns="http://www.w3.org/2000/svg" xmlns:xlink="http://www.w3.org/1999/xlink" width="256.77" height="493.33" viewBox="0 0 256.77 493.33">
  <defs>
    <style>
      .cls-1 {
        fill: none;
      }

      .cls-2 {
        isolation: isolate;
      }

      .cls-3 {
        fill: #3b2612;
      }

      .cls-4 {
        fill: #6d4722;
      }

      .cls-5 {
        clip-path: url(#clip-path);
      }
    </style>
    <clipPath id="clip-path">
      <path class="cls-1" d="M166.27,304.86l-2.57,2.61c1.37-1.39,1.8-2.73,1.54-3.36-.45-1.12-2.09-5.12-7.91-5.12a18.28,18.28,0,0,0-5.38.91,5.57,5.57,0,0,0-2.3,1.44l2.57-2.6a5.43,5.43,0,0,1,2.3-1.45,18.56,18.56,0,0,1,5.37-.91c5.82,0,7.47,4,7.92,5.12C168.07,302.13,167.64,303.47,166.27,304.86Z"/>
    </clipPath>
  </defs>
  <title>Wall</title>
  <g id="Layer_2" data-name="Layer 2">
    <g id="_0" data-name="0">
      <g>
        <g class="cls-2">
          <polygon class="cls-3" points="252.36 82.61 249.79 85.22 5.05 82.41 7.61 79.81 252.36 82.61"/>
          <polygon class="cls-3" points="7.61 79.81 5.05 82.41 0 32.21 2.56 29.6 7.61 79.81"/>
          <polygon class="cls-4" points="2.56 29.6 256.77 31.71 252.36 82.61 7.61 79.81 2.56 29.6"/>
        </g>
        <g class="cls-2">
          <polygon class="cls-3" points="252.36 387.45 249.79 390.06 7.52 387.95 10.09 385.34 252.36 387.45"/>
          <polygon class="cls-3" points="10.09 385.34 7.52 387.95 11.65 337.06 14.22 334.45 10.09 385.34"/>
          <polygon class="cls-4" points="14.22 334.45 247.48 337.25 252.36 387.45 10.09 385.34 14.22 334.45"/>
        </g>
        <g class="cls-2">
          <polygon class="cls-3" points="252.55 142.92 249.99 145.53 5.17 151.84 7.73 149.24 252.55 142.92"/>
          <polygon class="cls-3" points="7.73 149.24 5.17 151.84 5.9 95.68 8.47 93.07 7.73 149.24"/>
          <polygon class="cls-4" points="8.47 93.07 249.5 95.64 252.55 142.92 7.73 149.24 8.47 93.07"/>
        </g>
        <g class="cls-2">
          <polygon class="cls-3" points="252.67 209.53 250.1 212.13 9.85 206.87 12.41 204.26 252.67 209.53"/>
          <polygon class="cls-3" points="12.41 204.26 9.85 206.87 6.02 162.28 8.58 159.68 12.41 204.26"/>
          <polygon class="cls-4" points="8.58 159.68 249.62 162.24 252.67 209.53 12.41 204.26 8.58 159.68"/>
        </g>
        <g class="cls-2">
          <polygon class="cls-3" points="252.67 443.81 250.1 446.41 9.85 441.15 12.41 438.54 252.67 443.81"/>
          <polygon class="cls-3" points="12.41 438.54 9.85 441.15 6.02 396.57 8.58 393.96 12.41 438.54"/>
          <polygon class="cls-4" points="8.58 393.96 249.62 396.52 252.67 443.81 12.41 438.54 8.58 393.96"/>
        </g>
        <g class="cls-2">
          <polygon class="cls-3" points="252.28 261.61 249.71 264.22 10.01 267.55 12.57 264.94 252.28 261.61"/>
          <polygon class="cls-3" points="12.57 264.94 10.01 267.55 12.72 218.6 15.29 215.99 12.57 264.94"/>
          <polygon class="cls-4" points="15.29 215.99 249.78 222.93 252.28 261.61 12.57 264.94 15.29 215.99"/>
        </g>
        <g class="cls-2">
          <g class="cls-2">
            <g class="cls-5">
              <path class="cls-3" d="M166.27,304.86l-2.57,2.61c1.37-1.39,1.8-2.73,1.54-3.36-.45-1.12-2.09-5.12-7.91-5.12a18.28,18.28,0,0,0-5.38.91,5.57,5.57,0,0,0-2.3,1.44l2.57-2.6a5.43,5.43,0,0,1,2.3-1.45,18.56,18.56,0,0,1,5.37-.91c5.82,0,7.47,4,7.92,5.12.26.63-.17,2-1.54,3.36"/>
            </g>
          </g>
          <polygon class="cls-3" points="15.87 326.45 13.3 329.06 8.45 278.87 11.02 276.26 15.87 326.45"/>
          <polygon class="cls-3" points="247.1 329.26 244.53 331.87 13.3 329.06 15.87 326.45 247.1 329.26"/>
          <path class="cls-4" d="M11,276.26l240.16,2.1-4.08,50.9L15.87,326.45Zm145.44,32.79c9.09-1.23,11.92-6.15,11.35-7.55-.45-1.12-2.1-5.12-7.92-5.12a18.56,18.56,0,0,0-5.37.91c-5.24,1.62-7,11.85.62,11.85a10.22,10.22,0,0,0,1.32-.09"/>
        </g>
        <g>
          <polygon class="cls-4" points="209.45 0.87 230.13 0 219.54 493.33 201.78 493.33 209.45 0.87"/>
          <polygon class="cls-3" points="209.45 0.87 198.38 6.12 193.92 493.33 201.78 493.33 209.45 0.87"/>
        </g>
        <g>
          <polygon class="cls-4" points="43.7 0.87 64.38 0 63.8 493.33 46.03 493.33 43.7 0.87"/>
          <polygon class="cls-3" points="43.7 0.87 32.64 6.12 38.17 493.33 46.03 493.33 43.7 0.87"/>
        </g>
      </g>
    </g>
  </g>
</svg>
