<svg xmlns="http://www.w3.org/2000/svg" xmlns:xlink="http://www.w3.org/1999/xlink" width="135.1" height="686.55" viewBox="0 0 135.1 686.55">
  <defs>
    <style>
      .cls-1 {
        fill: #66421f;
      }

      .cls-2 {
        fill: url(#linear-gradient);
      }

      .cls-3 {
        fill: #5e3f1e;
      }
    </style>
    <linearGradient id="linear-gradient" x1="-30.11" y1="343.27" x2="135.1" y2="343.27" gradientUnits="userSpaceOnUse">
      <stop offset="0" stop-color="#998675"/>
      <stop offset="1" stop-color="#c7b299"/>
    </linearGradient>
  </defs>
  <title>Windmill_1</title>
  <g id="Layer_2" data-name="Layer 2">
    <g id="_0" data-name="0">
      <g>
        <path class="cls-1" d="M87.53,50v4.76h29.26a2.3,2.3,0,0,0,0-4.49Z"/>
        <polygon class="cls-2" points="0 686.55 23.82 509.65 30.48 505.81 44.18 270.91 50.05 269.84 54.07 3.74 73.69 0 75.83 4.27 92.91 6.94 95.05 112.14 99.18 114.52 101.09 358.63 108.57 361.3 116.02 551.04 124.03 553.18 135.1 686.55 0 686.55"/>
        <g>
          <path class="cls-1" d="M34.41,52.35h0a2.37,2.37,0,0,0,2.37,2.37h26.9a2.3,2.3,0,0,0,0-4.49L36.8,50A2.37,2.37,0,0,0,34.41,52.35Z"/>
          <path class="cls-3" d="M36.8,50a2.33,2.33,0,0,1,2.45,2.45,2.27,2.27,0,0,1-2.6,2.29s-2.49.08-2.49-2.28S35.92,50,36.8,50Z"/>
        </g>
      </g>
    </g>
  </g>
</svg>
