<svg xmlns="http://www.w3.org/2000/svg" xmlns:xlink="http://www.w3.org/1999/xlink" width="100.052" height="508.449" viewBox="0 0 100.052 508.449">
  <defs>
    <linearGradient id="a" x1="-22.302" y1="254.225" x2="100.052" y2="254.225" gradientUnits="userSpaceOnUse">
      <stop offset="0" stop-color="#998675"/>
      <stop offset="1" stop-color="#c7b299"/>
    </linearGradient>
  </defs>
  <title>Windmill_1</title>
  <g>
    <path d="M64.82,37.005V40.53H86.494a1.7,1.7,0,0,0,0-3.321Z" fill="#66421f"/>
    <polygon points="0 508.449 17.641 377.439 22.57 374.593 32.72 200.634 37.07 199.843 40.04 2.768 54.574 0 56.155 3.164 68.81 5.141 70.392 83.047 73.45 84.812 74.868 265.593 80.405 267.57 85.922 408.093 91.854 409.675 100.052 508.449 0 508.449" fill="url(#a)"/>
    <g>
      <path d="M25.487,38.771v.009a1.749,1.749,0,0,0,1.75,1.75H47.161a1.7,1.7,0,0,0,0-3.321l-19.908-.188A1.75,1.75,0,0,0,25.487,38.771Z" fill="#66421f"/>
      <path d="M27.253,37.021a1.729,1.729,0,0,1,1.817,1.817,1.678,1.678,0,0,1-1.927,1.692s-1.844.063-1.844-1.687S26.6,37.021,27.253,37.021Z" fill="#5e3f1e"/>
    </g>
  </g>
</svg>
