<svg xmlns="http://www.w3.org/2000/svg" xmlns:xlink="http://www.w3.org/1999/xlink" width="333.11" height="900.13" viewBox="0 0 333.11 900.13">
  <defs>
    <style>
      .cls-1 {
        fill: #603813;
      }

      .cls-2 {
        fill: url(#linear-gradient);
      }

      .cls-3 {
        fill: #754c24;
      }

      .cls-4 {
        fill: #66421f;
      }

      .cls-5 {
        fill: url(#linear-gradient-2);
      }

      .cls-6 {
        fill: url(#linear-gradient-3);
      }

      .cls-7 {
        fill: url(#linear-gradient-4);
      }
    </style>
    <linearGradient id="linear-gradient" x1="11.96" y1="494.84" x2="381.58" y2="494.84" gradientUnits="userSpaceOnUse">
      <stop offset="0" stop-color="#998675"/>
      <stop offset="1" stop-color="#c7b299"/>
    </linearGradient>
    <linearGradient id="linear-gradient-2" x1="11.96" y1="763.58" x2="381.58" y2="763.58" xlink:href="#linear-gradient"/>
    <linearGradient id="linear-gradient-3" x1="11.96" y1="720.97" x2="381.58" y2="720.97" xlink:href="#linear-gradient"/>
    <linearGradient id="linear-gradient-4" x1="11.96" y1="835.77" x2="381.58" y2="835.77" xlink:href="#linear-gradient"/>
  </defs>
  <title>Windmill</title>
  <g id="Layer_2" data-name="Layer 2">
    <g id="_0" data-name="0">
      <g>
        <path class="cls-1" d="M46.1,166.08s34.79,15.65,115.67,15.65,115.67-15.65,115.67-15.65l-76.53-33.92H96.54Z"/>
        <polygon class="cls-2" points="257.44 160.86 173.95 89.54 149.59 89.54 66.1 160.86 27.83 894.91 27.83 900.13 149.59 900.13 173.95 900.13 295.71 900.13 295.71 894.91 257.44 160.86"/>
        <path class="cls-3" d="M161.77,0S132.28,72.73,40.88,154.31l4.91,11.79S87.07,153,161.77,153s116,13.07,116,13.07l4.91-11.79C191.26,72.73,161.77,0,161.77,0Z"/>
        <polygon class="cls-4" points="93.06 282.62 93.06 294.8 15.65 300.88 4.35 300.88 4.35 286.1 93.06 282.62"/>
        <polygon class="cls-4" points="31.31 297.41 82.63 348.72 89.58 348.72 89.58 336.54 46.1 293.93 31.31 297.41"/>
        <polygon class="cls-5" points="4.35 900.13 31.31 627.03 54.79 627.03 54.79 900.13 4.35 900.13"/>
        <polygon class="cls-6" points="267.88 541.8 288.75 548.76 305.28 749.67 320.93 754.88 333.11 900.13 266.14 900.13 267.88 541.8"/>
        <polygon class="cls-7" points="24.35 771.41 6.96 771.41 0 900.13 40.44 900.13 24.35 771.41"/>
      </g>
    </g>
  </g>
</svg>
