<svg xmlns="http://www.w3.org/2000/svg" xmlns:xlink="http://www.w3.org/1999/xlink" width="333.107" height="900.13" viewBox="0 0 333.107 900.13">
  <defs>
    <linearGradient id="a" x1="11.957" y1="494.835" x2="381.576" y2="494.835" gradientUnits="userSpaceOnUse">
      <stop offset="0" stop-color="#998675"/>
      <stop offset="1" stop-color="#c7b299"/>
    </linearGradient>
    <linearGradient id="b" x1="11.957" y1="763.582" x2="381.576" y2="763.582" xlink:href="#a"/>
    <linearGradient id="c" x1="11.957" y1="720.966" x2="381.576" y2="720.966" xlink:href="#a"/>
    <linearGradient id="d" x1="11.957" y1="835.77" x2="381.576" y2="835.77" xlink:href="#a"/>
  </defs>
  <title>Windmill</title>
  <g>
    <path d="M46.1,166.077s34.789,15.655,115.674,15.655,115.674-15.655,115.674-15.655l-76.536-33.92H96.54Z" fill="#603813"/>
    <polygon points="257.441 160.858 173.946 89.54 149.594 89.54 66.1 160.858 27.831 894.912 27.831 900.13 149.594 900.13 173.946 900.13 295.709 900.13 295.709 894.912 257.441 160.858" fill="url(#a)"/>
    <path d="M161.77,0S132.284,72.732,40.877,154.31l4.915,11.795s41.28-13.074,115.978-13.074,115.979,13.074,115.979,13.074l4.914-11.795C191.256,72.732,161.77,0,161.77,0Z" fill="#754c24"/>
    <polygon points="93.061 282.621 93.061 294.797 15.655 300.885 4.349 300.885 4.349 286.1 93.061 282.621" fill="#66421f"/>
    <polygon points="31.31 297.406 82.625 348.72 89.582 348.72 89.582 336.544 46.096 293.927 31.31 297.406" fill="#66421f"/>
    <polygon points="4.349 900.13 31.31 627.035 54.793 627.035 54.793 900.13 4.349 900.13" fill="url(#b)"/>
    <polygon points="267.877 541.801 288.751 548.759 305.276 749.667 320.931 754.885 333.107 900.13 266.138 900.13 267.877 541.801" fill="url(#c)"/>
    <polygon points="24.352 771.41 6.958 771.41 0 900.13 40.443 900.13 24.352 771.41" fill="url(#d)"/>
  </g>
</svg>
