<svg xmlns="http://www.w3.org/2000/svg" xmlns:xlink="http://www.w3.org/1999/xlink" width="233.69" height="686.55" viewBox="0 0 233.69 686.55">
  <defs>
    <style>
      .cls-1 {
        fill: #66421f;
      }

      .cls-2 {
        fill: url(#linear-gradient);
      }

      .cls-3 {
        fill: #5e3f1e;
      }

      .cls-4 {
        fill: #847263;
      }

      .cls-5 {
        fill: url(#linear-gradient-2);
      }
    </style>
    <linearGradient id="linear-gradient" x1="68.48" y1="343.27" x2="233.69" y2="343.27" gradientUnits="userSpaceOnUse">
      <stop offset="0" stop-color="#998675"/>
      <stop offset="1" stop-color="#c7b299"/>
    </linearGradient>
    <linearGradient id="linear-gradient-2" x1="-21.49" y1="616.43" x2="262.78" y2="616.43" xlink:href="#linear-gradient"/>
  </defs>
  <title>Windmill_2</title>
  <g id="Layer_2" data-name="Layer 2">
    <g id="_0" data-name="0">
      <g>
        <g>
          <path class="cls-1" d="M186.11,50v4.76h29.27a2.3,2.3,0,0,0,0-4.49Z"/>
          <polygon class="cls-2" points="98.59 686.55 122.41 509.65 129.06 505.81 142.77 270.91 148.64 269.84 152.66 3.74 172.28 0 174.41 4.27 191.5 6.94 193.64 112.14 197.77 114.52 199.68 358.63 207.16 361.3 214.61 551.04 222.62 553.18 233.69 686.55 98.59 686.55"/>
          <g>
            <path class="cls-1" d="M133,52.35h0a2.37,2.37,0,0,0,2.37,2.37h26.9a2.3,2.3,0,0,0,0-4.49L135.39,50A2.36,2.36,0,0,0,133,52.35Z"/>
            <path class="cls-3" d="M135.39,50a2.33,2.33,0,0,1,2.45,2.45,2.27,2.27,0,0,1-2.6,2.29s-2.49.08-2.49-2.28S134.5,50,135.39,50Z"/>
          </g>
        </g>
        <polygon class="cls-4" points="113.54 546.31 90.92 547.89 77.19 602.8 23.18 611.35 0 686.55 117.47 686.55 113.54 546.31"/>
        <polygon class="cls-5" points="148.31 547.66 113.54 546.31 99.7 605.05 46.02 613.49 29.48 686.55 153.71 686.55 148.31 547.66"/>
      </g>
    </g>
  </g>
</svg>
