<svg xmlns="http://www.w3.org/2000/svg" xmlns:xlink="http://www.w3.org/1999/xlink" width="173.065" height="508.449" viewBox="0 0 173.065 508.449">
  <defs>
    <linearGradient id="a" x1="50.712" y1="254.225" x2="173.065" y2="254.225" gradientUnits="userSpaceOnUse">
      <stop offset="0" stop-color="#998675"/>
      <stop offset="1" stop-color="#c7b299"/>
    </linearGradient>
    <linearGradient id="b" x1="-15.917" y1="456.521" x2="194.612" y2="456.521" xlink:href="#a"/>
  </defs>
  <title>Windmill_2</title>
  <g>
    <g>
      <path d="M137.834,37.005V40.53h21.674a1.7,1.7,0,0,0,0-3.321Z" fill="#66421f"/>
      <polygon points="73.014 508.449 90.654 377.439 95.583 374.593 105.733 200.634 110.083 199.843 113.054 2.768 127.587 0 129.169 3.164 141.824 5.141 143.406 83.047 146.464 84.812 147.882 265.593 153.418 267.57 158.936 408.093 164.868 409.675 173.065 508.449 73.014 508.449" fill="url(#a)"/>
      <g>
        <path d="M98.5,38.771v.009a1.75,1.75,0,0,0,1.75,1.75h19.925a1.7,1.7,0,0,0,0-3.321l-19.908-.188A1.751,1.751,0,0,0,98.5,38.771Z" fill="#66421f"/>
        <path d="M100.267,37.021a1.728,1.728,0,0,1,1.816,1.817,1.678,1.678,0,0,1-1.927,1.692s-1.843.063-1.843-1.687S99.612,37.021,100.267,37.021Z" fill="#5e3f1e"/>
      </g>
    </g>
    <polygon points="84.083 404.593 67.333 405.76 57.167 446.426 17.167 452.76 0 508.449 87 508.449 84.083 404.593" fill="#847263"/>
    <polygon points="109.833 405.593 84.083 404.593 73.833 448.093 34.083 454.343 21.833 508.449 113.833 508.449 109.833 405.593" fill="url(#b)"/>
  </g>
</svg>
