<svg xmlns="http://www.w3.org/2000/svg" xmlns:xlink="http://www.w3.org/1999/xlink" width="411.379" height="558.69" viewBox="0 0 411.379 558.69">
  <defs>
    <linearGradient id="a" x1="-22.302" y1="304.465" x2="100.052" y2="304.465" gradientUnits="userSpaceOnUse">
      <stop offset="0" stop-color="#998675"/>
      <stop offset="1" stop-color="#c7b299"/>
    </linearGradient>
    <linearGradient id="b" x1="136.698" y1="279.345" x2="259.052" y2="279.345" xlink:href="#a"/>
    <linearGradient id="c" x1="315.835" y1="309.699" x2="411.379" y2="309.699" xlink:href="#a"/>
  </defs>
  <title>Windmill_4</title>
  <g>
    <g>
      <path d="M64.82,87.245v3.526H86.494a1.7,1.7,0,0,0,0-3.322Z" fill="#66421f"/>
      <polygon points="0 558.69 17.641 427.679 22.57 424.833 32.636 182.791 36.987 182 40.04 53.009 54.574 50.24 56.155 53.404 68.81 55.381 70.392 133.287 73.45 135.053 74.868 315.833 80.405 317.811 85.922 458.333 91.854 459.915 100.052 558.69 0 558.69" fill="url(#a)"/>
      <g>
        <path d="M25.487,89.012v.009a1.75,1.75,0,0,0,1.75,1.75H47.161a1.7,1.7,0,0,0,0-3.322l-19.908-.187A1.75,1.75,0,0,0,25.487,89.012Z" fill="#66421f"/>
        <path d="M27.253,87.262a1.728,1.728,0,0,1,1.817,1.816,1.679,1.679,0,0,1-1.927,1.693s-1.844.062-1.844-1.688S26.6,87.262,27.253,87.262Z" fill="#5e3f1e"/>
      </g>
    </g>
    <rect x="55.917" y="352.5" width="146.667" height="6.667" rx="3.333" ry="3.333" transform="translate(33.098 -10.333) rotate(5.249)" fill="#754c24"/>
    <rect x="55.917" y="184.667" width="146.667" height="6.667" rx="3.333" ry="3.333" fill="#754c24"/>
    <g>
      <path d="M223.82,23v3.526h21.674a1.7,1.7,0,0,0,0-3.322Z" fill="#66421f"/>
      <polygon points="159 558.69 171.654 305.888 176.583 303.042 190.299 165.715 196.07 160.083 199.04 7.938 213.574 5.17 215.421 0 227.81 5.381 229.392 133.287 232.45 135.053 233.868 315.833 239.405 317.811 244.922 458.333 250.854 459.915 259.052 558.69 159 558.69" fill="url(#b)"/>
      <g>
        <path d="M184.487,24.762v.009a1.75,1.75,0,0,0,1.75,1.75h19.924a1.7,1.7,0,0,0,0-3.322l-19.908-.187A1.75,1.75,0,0,0,184.487,24.762Z" fill="#66421f"/>
        <path d="M186.253,23.012a1.728,1.728,0,0,1,1.817,1.816,1.679,1.679,0,0,1-1.927,1.693s-1.844.062-1.844-1.688S185.6,23.012,186.253,23.012Z" fill="#5e3f1e"/>
      </g>
    </g>
    <rect x="218.237" y="184.667" width="146.667" height="6.667" rx="3.333" ry="3.333" fill="#754c24"/>
    <rect x="218.237" y="280.333" width="146.667" height="3.333" rx="1.667" ry="1.667" transform="translate(-15.602 17.08) rotate(-3.268)" fill="#754c24"/>
    <rect x="218.237" y="259.333" width="146.667" height="6.667" rx="3.333" ry="3.333" transform="translate(25.255 -25.574) rotate(5.249)" fill="#754c24"/>
    <g>
      <path d="M382.82,109.464v3.526h21.674a1.7,1.7,0,0,0,0-3.321Z" fill="#66421f"/>
      <polygon points="333.25 558.69 335.641 427.679 340.57 424.833 350.72 250.874 355.07 250.083 358.04 63.458 372.755 60.708 374.155 71.731 386.81 73.708 388.392 133.287 391.45 135.053 394.392 253.333 399.928 255.311 405.226 367.333 411.158 368.915 411.379 558.69 333.25 558.69" fill="url(#c)"/>
      <g>
        <path d="M343.487,111.231v.009a1.749,1.749,0,0,0,1.75,1.75h19.924a1.7,1.7,0,0,0,0-3.321l-19.908-.188A1.75,1.75,0,0,0,343.487,111.231Z" fill="#66421f"/>
        <path d="M345.253,109.481a1.728,1.728,0,0,1,1.817,1.816,1.678,1.678,0,0,1-1.927,1.693s-1.844.063-1.844-1.687S344.6,109.481,345.253,109.481Z" fill="#5e3f1e"/>
      </g>
    </g>
  </g>
</svg>
