<svg xmlns="http://www.w3.org/2000/svg" xmlns:xlink="http://www.w3.org/1999/xlink" width="612" height="900.13" viewBox="0 0 612 900.13">
  <defs>
    <style>
      .cls-1 {
        fill: #3b2612;
      }

      .cls-2 {
        fill: url(#linear-gradient);
      }

      .cls-3 {
        fill: #6d4722;
      }

      .cls-4 {
        fill: url(#linear-gradient-2);
      }

      .cls-5 {
        fill: url(#linear-gradient-3);
      }

      .cls-6 {
        fill: url(#linear-gradient-4);
      }

      .cls-7 {
        fill: #847263;
      }

      .cls-8 {
        fill: url(#linear-gradient-5);
      }
    </style>
    <linearGradient id="linear-gradient" x1="290.85" y1="494.84" x2="660.47" y2="494.84" gradientUnits="userSpaceOnUse">
      <stop offset="0" stop-color="#998675"/>
      <stop offset="1" stop-color="#c7b299"/>
    </linearGradient>
    <linearGradient id="linear-gradient-2" x1="290.85" y1="763.58" x2="660.47" y2="763.58" xlink:href="#linear-gradient"/>
    <linearGradient id="linear-gradient-3" x1="290.85" y1="720.97" x2="660.47" y2="720.97" xlink:href="#linear-gradient"/>
    <linearGradient id="linear-gradient-4" x1="290.85" y1="835.77" x2="660.47" y2="835.77" xlink:href="#linear-gradient"/>
    <linearGradient id="linear-gradient-5" x1="-184.81" y1="750.78" x2="795.15" y2="750.78" xlink:href="#linear-gradient"/>
  </defs>
  <title>Windmill_5</title>
  <g id="Layer_2" data-name="Layer 2">
    <g id="_0" data-name="0">
      <g>
        <path class="cls-1" d="M325,166.08s34.79,15.65,115.68,15.65,115.67-15.65,115.67-15.65L479.8,132.16H375.44Z"/>
        <polygon class="cls-2" points="536.34 160.86 452.84 89.54 428.49 89.54 345 160.86 306.73 894.91 306.73 900.13 428.49 900.13 452.84 900.13 574.61 900.13 574.61 894.91 536.34 160.86"/>
        <path class="cls-3" d="M440.67,0s-29.49,72.73-120.9,154.31l4.92,11.79S366,153,440.67,153s116,13.07,116,13.07l4.91-11.79C470.15,72.73,440.67,0,440.67,0Z"/>
        <polygon class="cls-1" points="371.96 282.62 371.96 294.8 294.55 300.88 283.25 300.88 283.25 286.1 371.96 282.62"/>
        <polygon class="cls-1" points="310.21 297.41 361.52 348.72 368.48 348.72 368.48 336.54 324.99 293.93 310.21 297.41"/>
        <polygon class="cls-4" points="283.25 900.13 310.21 627.03 333.69 627.03 333.69 900.13 283.25 900.13"/>
        <polygon class="cls-5" points="546.77 541.8 567.65 548.76 584.17 749.67 599.83 754.88 612 900.13 545.03 900.13 546.77 541.8"/>
        <polygon class="cls-6" points="303.25 771.41 285.86 771.41 278.9 900.13 319.34 900.13 303.25 771.41"/>
        <g>
          <g>
            <path class="cls-7" d="M259.08,645.21V657.1c73.35,7.67,108.83,47.59,126,85.34h21.13V645.21Z"/>
            <polygon class="cls-7" points="20.31 623.37 0 623.37 4.42 657.51 31.24 657.51 20.31 623.37"/>
            <polygon class="cls-7" points="41.66 601.83 37.8 606.71 37.8 740.82 30.48 743.25 11.79 900.13 84.32 900.13 65.42 601.43 41.66 601.83"/>
          </g>
          <path class="cls-8" d="M289.75,623.37l-1.22-4.87-179.22,1.18V606.3l-4.88-4.87h-39l-4.88,4.87v17.07H20.31l7.31,34.14H60.54V745.9l-6.09,1.83-6.1,152.4h71.93l-6.09-106.07-4.88-1.22V754.23s23.17-96.72,156.06-96.72c89.43,0,125.3,51.35,139.19,84.93h1.63V623.37Z"/>
        </g>
      </g>
    </g>
  </g>
</svg>
