<svg xmlns="http://www.w3.org/2000/svg" xmlns:xlink="http://www.w3.org/1999/xlink" width="612.004" height="900.13" viewBox="0 0 612.004 900.13">
  <defs>
    <linearGradient id="a" x1="290.854" y1="494.835" x2="660.473" y2="494.835" gradientUnits="userSpaceOnUse">
      <stop offset="0" stop-color="#998675"/>
      <stop offset="1" stop-color="#c7b299"/>
    </linearGradient>
    <linearGradient id="b" x1="290.854" y1="763.582" x2="660.473" y2="763.582" xlink:href="#a"/>
    <linearGradient id="c" x1="290.854" y1="720.966" x2="660.473" y2="720.966" xlink:href="#a"/>
    <linearGradient id="d" x1="290.854" y1="835.77" x2="660.473" y2="835.77" xlink:href="#a"/>
    <linearGradient id="e" x1="-184.806" y1="750.779" x2="795.149" y2="750.779" xlink:href="#a"/>
  </defs>
  <title>Windmill_5</title>
  <g>
    <path d="M324.993,166.077s34.789,15.655,115.674,15.655,115.674-15.655,115.674-15.655l-76.536-33.92H375.437Z" fill="#603813"/>
    <polygon points="536.337 160.858 452.843 89.54 428.491 89.54 344.996 160.858 306.728 894.912 306.728 900.13 428.491 900.13 452.843 900.13 574.606 900.13 574.606 894.912 536.337 160.858" fill="url(#a)"/>
    <path d="M440.667,0S411.181,72.732,319.774,154.31l4.915,11.795s41.28-13.074,115.978-13.074,115.978,13.074,115.978,13.074l4.915-11.795C470.153,72.732,440.667,0,440.667,0Z" fill="#754c24"/>
    <polygon points="371.958 282.621 371.958 294.797 294.552 300.885 283.245 300.885 283.245 286.1 371.958 282.621" fill="#66421f"/>
    <polygon points="310.207 297.406 361.521 348.72 368.479 348.72 368.479 336.544 324.993 293.927 310.207 297.406" fill="#66421f"/>
    <polygon points="283.245 900.13 310.207 627.035 333.69 627.035 333.69 900.13 283.245 900.13" fill="url(#b)"/>
    <polygon points="546.774 541.801 567.648 548.759 584.173 749.667 599.828 754.885 612.004 900.13 545.035 900.13 546.774 541.801" fill="url(#c)"/>
    <polygon points="303.249 771.41 285.855 771.41 278.897 900.13 319.339 900.13 303.249 771.41" fill="url(#d)"/>
    <g>
      <g>
        <path d="M259.079,645.212V657.1c73.356,7.673,108.832,47.593,125.985,85.343h21.13v-97.23Z" fill="#847263"/>
        <polygon points="20.309 623.373 0 623.373 4.42 657.511 31.242 657.511 20.309 623.373" fill="#847263"/>
        <polygon points="41.656 601.829 37.795 606.705 37.795 740.817 30.48 743.255 11.786 900.13 84.317 900.13 65.42 601.428 41.656 601.829" fill="#847263"/>
      </g>
      <path d="M289.751,623.373l-1.219-4.877-179.221,1.187V606.3l-4.877-4.877H65.42L60.543,606.3v17.068H20.309l7.316,34.138H60.543V745.9l-6.1,1.829-6.1,152.4h71.932l-6.1-106.07-4.876-1.219V754.233s23.164-96.722,156.056-96.722c89.434,0,125.3,51.345,139.2,84.931h1.63V623.373Z" fill="url(#e)"/>
    </g>
  </g>
</svg>
