<svg xmlns="http://www.w3.org/2000/svg" xmlns:xlink="http://www.w3.org/1999/xlink" width="555.48" height="754.39" viewBox="0 0 555.48 754.39">
  <defs>
    <style>
      .cls-1 {
        fill: #66421f;
      }

      .cls-2 {
        fill: url(#linear-gradient);
      }

      .cls-3 {
        fill: #5e3f1e;
      }

      .cls-4 {
        fill: #754c24;
      }

      .cls-5 {
        fill: url(#linear-gradient-2);
      }

      .cls-6 {
        fill: url(#linear-gradient-3);
      }
    </style>
    <linearGradient id="linear-gradient" x1="-30.11" y1="411.11" x2="135.1" y2="411.11" gradientUnits="userSpaceOnUse">
      <stop offset="0" stop-color="#998675"/>
      <stop offset="1" stop-color="#c7b299"/>
    </linearGradient>
    <linearGradient id="linear-gradient-2" x1="184.58" y1="377.19" x2="349.79" y2="377.19" xlink:href="#linear-gradient"/>
    <linearGradient id="linear-gradient-3" x1="426.47" y1="418.18" x2="555.48" y2="418.18" xlink:href="#linear-gradient"/>
  </defs>
  <title>Windmill_4</title>
  <g id="Layer_2" data-name="Layer 2">
    <g id="_0" data-name="0">
      <g>
        <g>
          <path class="cls-1" d="M87.53,117.81v4.76h29.26a2.3,2.3,0,0,0,0-4.49Z"/>
          <polygon class="cls-2" points="0 754.39 23.82 577.49 30.48 573.64 44.07 246.82 49.94 245.75 54.07 71.58 73.69 67.84 75.83 72.11 92.91 74.78 95.05 179.97 99.18 182.36 101.09 426.46 108.57 429.13 116.02 618.88 124.03 621.01 135.1 754.39 0 754.39"/>
          <g>
            <path class="cls-1" d="M34.41,120.19h0a2.37,2.37,0,0,0,2.37,2.37h26.9a2.3,2.3,0,0,0,0-4.49l-26.88-.25A2.37,2.37,0,0,0,34.41,120.19Z"/>
            <path class="cls-3" d="M36.8,117.83a2.33,2.33,0,0,1,2.45,2.45,2.27,2.27,0,0,1-2.6,2.29s-2.49.08-2.49-2.28S35.92,117.83,36.8,117.83Z"/>
          </g>
        </g>
        <rect class="cls-4" x="75.5" y="475.97" width="198.04" height="9" rx="4.5" transform="translate(44.69 -13.95) rotate(5.25)"/>
        <rect class="cls-4" x="75.5" y="249.35" width="198.04" height="9" rx="4.5"/>
        <g>
          <path class="cls-1" d="M302.22,31.05v4.76h29.27a2.3,2.3,0,0,0,0-4.48Z"/>
          <polygon class="cls-5" points="214.69 754.39 231.78 413.03 238.44 409.19 256.96 223.76 264.75 216.16 268.76 10.72 288.38 6.98 290.88 0 307.61 7.27 309.74 179.97 313.87 182.36 315.79 426.46 323.26 429.13 330.71 618.88 338.72 621.01 349.79 754.39 214.69 754.39"/>
          <g>
            <path class="cls-1" d="M249.11,33.44h0a2.36,2.36,0,0,0,2.36,2.36h26.9a2.3,2.3,0,0,0,0-4.48l-26.88-.26A2.36,2.36,0,0,0,249.11,33.44Z"/>
            <path class="cls-3" d="M251.49,31.07A2.34,2.34,0,0,1,254,33.52c0,2.54-2.61,2.29-2.61,2.29s-2.49.08-2.49-2.28S250.61,31.07,251.49,31.07Z"/>
          </g>
        </g>
        <rect class="cls-4" x="294.68" y="249.35" width="198.04" height="9" rx="4.5"/>
        <rect class="cls-4" x="294.68" y="378.53" width="198.04" height="4.5" rx="2.25" transform="matrix(1, -0.06, 0.06, 1, -21.07, 23.06)"/>
        <rect class="cls-4" x="294.68" y="350.17" width="198.04" height="9" rx="4.5" transform="translate(34.1 -34.53) rotate(5.25)"/>
        <g>
          <path class="cls-1" d="M516.91,147.81v4.76h29.27a2.3,2.3,0,0,0,0-4.49Z"/>
          <polygon class="cls-6" points="449.98 754.39 453.21 577.49 459.86 573.64 473.57 338.75 479.44 337.68 483.45 85.69 503.32 81.97 505.21 96.86 522.3 99.53 524.44 179.97 528.57 182.36 532.54 342.07 540.01 344.74 547.17 496 555.18 498.14 555.48 754.39 449.98 754.39"/>
          <g>
            <path class="cls-1" d="M463.8,150.19v0a2.37,2.37,0,0,0,2.37,2.36h26.9a2.3,2.3,0,0,0,0-4.49l-26.88-.25A2.36,2.36,0,0,0,463.8,150.19Z"/>
            <path class="cls-3" d="M466.19,147.83a2.33,2.33,0,0,1,2.45,2.45,2.27,2.27,0,0,1-2.6,2.29s-2.49.08-2.49-2.28S465.3,147.83,466.19,147.83Z"/>
          </g>
        </g>
      </g>
    </g>
  </g>
</svg>
