<svg xmlns="http://www.w3.org/2000/svg" xmlns:xlink="http://www.w3.org/1999/xlink" width="547.83" height="687.35" viewBox="0 0 547.83 687.35">
  <defs>
    <style>
      .cls-1 {
        fill: #66421f;
      }

      .cls-2 {
        fill: url(#linear-gradient);
      }

      .cls-3 {
        fill: #5e3f1e;
      }

      .cls-4 {
        fill: #754c24;
      }

      .cls-5 {
        fill: url(#linear-gradient-2);
      }

      .cls-6 {
        fill: url(#linear-gradient-3);
      }

      .cls-7 {
        fill: #333;
      }

      .cls-8 {
        fill: #847263;
      }
    </style>
    <linearGradient id="linear-gradient" x1="-30.11" y1="344.07" x2="135.1" y2="344.07" gradientUnits="userSpaceOnUse">
      <stop offset="0" stop-color="#998675"/>
      <stop offset="1" stop-color="#c7b299"/>
    </linearGradient>
    <linearGradient id="linear-gradient-2" x1="172.93" y1="346.65" x2="545.04" y2="346.65" xlink:href="#linear-gradient"/>
    <linearGradient id="linear-gradient-3" x1="269.32" y1="414.84" x2="547.83" y2="414.84" xlink:href="#linear-gradient"/>
  </defs>
  <title>Windmill_3</title>
  <g id="Layer_2" data-name="Layer 2">
    <g id="_0" data-name="0">
      <g>
        <g>
          <path class="cls-1" d="M87.53,50.76v4.76h29.26a2.3,2.3,0,0,0,0-4.48Z"/>
          <polygon class="cls-2" points="0 687.35 18.07 436.21 24.72 432.37 36.84 221.87 42.72 220.8 54.07 4.53 73.69 0.8 75.83 5.07 92.91 7.74 95.05 112.93 99.18 115.32 100.39 265.65 107.86 268.32 116.41 502.74 124.42 504.88 135.1 687.35 0 687.35"/>
          <g>
            <path class="cls-1" d="M31.83,53.15h0a2.35,2.35,0,0,0,2.36,2.36h26.9a2.3,2.3,0,0,0,0-4.48l-26.88-.25A2.35,2.35,0,0,0,31.83,53.15Z"/>
            <path class="cls-3" d="M34.21,50.79a2.33,2.33,0,0,1,2.45,2.45,2.26,2.26,0,0,1-2.6,2.28s-2.49.09-2.49-2.27S33.33,50.79,34.21,50.79Z"/>
          </g>
        </g>
        <polygon class="cls-4" points="229.87 181.86 79.75 181.86 77.04 182.78 75.71 185.69 77.09 187.94 79.96 188.84 229.87 188.39 229.87 181.86"/>
        <g>
          <polygon class="cls-5" points="320.08 142.33 266.97 5.95 219.26 142.33 204.59 459.58 193.89 463.94 176.76 687.35 470.42 687.35 320.08 142.33"/>
          <polygon class="cls-6" points="346.19 687.35 320.08 142.33 463.21 142.33 501.92 515 525.33 519.5 547.83 687.35 346.19 687.35"/>
          <g>
            <polygon class="cls-1" points="319.98 155.38 329.19 156.83 267.66 0 266.2 8.71 319.98 155.38"/>
            <polygon class="cls-1" points="216.73 155.38 210.49 156.83 267.64 0 268.63 8.71 216.73 155.38"/>
            <polygon class="cls-4" points="267.64 0 413.01 4.76 472.44 160.56 329.19 156.83 267.64 0"/>
          </g>
          <g>
            <polygon class="cls-7" points="378.06 199.2 382.51 257.28 427.89 256.33 427.89 200.15 378.06 199.2"/>
            <polygon class="cls-8" points="420.94 200.02 420.94 256.47 427.89 256.33 427.89 200.15 420.94 200.02"/>
          </g>
          <g>
            <polygon class="cls-7" points="385.84 397.25 388.94 455.86 452.94 453.53 448.96 397.42 385.84 397.25"/>
            <polygon class="cls-8" points="442.01 397.4 445.99 453.79 452.94 453.53 448.96 397.42 442.01 397.4"/>
          </g>
          <g>
            <polygon class="cls-7" points="286.1 306.76 289.1 248.82 243.71 249.78 243.71 305.95 286.1 306.76"/>
            <polygon class="cls-8" points="250.67 306.08 250.67 249.63 243.71 249.78 243.71 305.95 250.67 306.08"/>
          </g>
          <g>
            <polygon class="cls-8" points="237.34 542.58 231.87 687.35 243.01 687.35 247.17 542.58 237.34 542.58"/>
            <polygon class="cls-7" points="294.98 542.58 247.17 542.58 243.01 687.35 302.56 687.35 294.98 542.58"/>
          </g>
        </g>
      </g>
    </g>
  </g>
</svg>
