<svg xmlns="http://www.w3.org/2000/svg" xmlns:xlink="http://www.w3.org/1999/xlink" width="405.717" height="509.039" viewBox="0 0 405.717 509.039">
  <defs>
    <linearGradient id="a" x1="-22.302" y1="254.815" x2="100.052" y2="254.815" gradientUnits="userSpaceOnUse">
      <stop offset="0" stop-color="#998675"/>
      <stop offset="1" stop-color="#c7b299"/>
    </linearGradient>
    <linearGradient id="b" x1="128.069" y1="256.722" x2="403.648" y2="256.722" xlink:href="#a"/>
    <linearGradient id="c" x1="199.454" y1="307.222" x2="405.717" y2="307.222" xlink:href="#a"/>
  </defs>
  <title>Windmill_3</title>
  <g>
    <g>
      <path d="M64.82,37.6V41.12H86.494a1.7,1.7,0,0,0,0-3.321Z" fill="#66421f"/>
      <polygon points="0 509.039 13.38 323.053 18.309 320.207 27.287 164.311 31.637 163.52 40.04 3.358 54.574 0.59 56.155 3.754 68.81 5.731 70.392 83.637 73.45 85.402 74.347 196.739 79.883 198.716 86.211 372.323 92.142 373.905 100.052 509.039 0 509.039" fill="url(#a)"/>
      <g>
        <path d="M23.57,39.361v.009a1.75,1.75,0,0,0,1.75,1.75H45.244a1.7,1.7,0,0,0,0-3.321l-19.907-.188A1.751,1.751,0,0,0,23.57,39.361Z" fill="#66421f"/>
        <path d="M25.337,37.611a1.728,1.728,0,0,1,1.816,1.817,1.678,1.678,0,0,1-1.927,1.692s-1.844.063-1.844-1.687S24.682,37.611,25.337,37.611Z" fill="#5e3f1e"/>
      </g>
    </g>
    <polygon points="170.236 134.683 59.062 134.683 57.058 135.368 56.07 137.516 57.093 139.183 59.219 139.849 170.236 139.516 170.236 134.683" fill="#754c24"/>
    <g>
      <polygon points="237.051 105.405 197.717 4.405 162.384 105.405 151.518 340.363 143.592 343.584 130.903 509.039 348.384 509.039 237.051 105.405" fill="url(#b)"/>
      <polygon points="256.384 509.039 237.051 105.405 343.051 105.405 371.717 381.405 389.051 384.738 405.717 509.039 256.384 509.039" fill="url(#c)"/>
      <g>
        <polygon points="236.973 115.072 243.79 116.147 198.222 0 197.146 6.453 236.973 115.072" fill="#66421f"/>
        <polygon points="160.505 115.072 155.884 116.147 198.21 0 198.94 6.453 160.505 115.072" fill="#66421f"/>
        <polygon points="198.21 0 305.871 3.526 349.884 118.905 243.79 116.147 198.21 0" fill="#754c24"/>
      </g>
      <g>
        <polygon points="279.988 147.526 283.279 190.538 316.89 189.832 316.89 148.231 279.988 147.526" fill="#333"/>
        <polygon points="311.739 148.132 311.739 189.938 316.89 189.832 316.89 148.231 311.739 148.132" fill="#847263"/>
      </g>
      <g>
        <polygon points="285.751 294.195 288.046 337.605 335.442 335.881 332.497 294.321 285.751 294.195" fill="#333"/>
        <polygon points="327.345 294.308 330.294 336.071 335.442 335.881 332.497 294.321 327.345 294.308" fill="#847263"/>
      </g>
      <g>
        <polygon points="211.883 227.182 214.1 184.276 180.489 184.981 180.489 226.582 211.883 227.182" fill="#333"/>
        <polygon points="185.64 226.681 185.64 184.875 180.489 184.981 180.489 226.582 185.64 226.681" fill="#847263"/>
      </g>
      <g>
        <polygon points="175.771 401.825 171.72 509.039 179.971 509.039 183.05 401.825 175.771 401.825" fill="#847263"/>
        <polygon points="218.461 401.825 183.05 401.825 179.971 509.039 224.07 509.039 218.461 401.825" fill="#333"/>
      </g>
    </g>
  </g>
</svg>
