<svg xmlns="http://www.w3.org/2000/svg" width="725.157" height="725.157" viewBox="0 0 725.157 725.157">
  <title>Wings</title>
  <g>
    <g>
      <g>
        <path d="M300.523,377.637S116.9,390.665,27.3,440.088c0,0-2.482-51.838-23.455-76.994L300.1,365.2Z" fill="#c69c6d"/>
        <polygon points="0 363.994 1.618 359.142 365.018 359.142 365.018 366.69 0 363.994" fill="#66421f"/>
        <polygon points="28.037 438.939 4.583 362.916 0 363.994 27.498 443.791 29.115 442.174 28.037 438.939" fill="#66421f"/>
        <polygon points="297.43 364.667 299.532 378.681 302.335 378.681 303.035 364.667 297.43 364.667" fill="#66421f"/>
      </g>
      <g>
        <path d="M424.634,348.223S608.258,335.2,697.855,285.772c0,0,2.482,51.838,23.455,77l-296.254-2.1Z" fill="#c69c6d"/>
        <polygon points="725.157 361.866 723.539 366.719 360.139 366.719 360.139 359.17 725.157 361.866" fill="#66421f"/>
        <polygon points="697.12 286.922 720.574 362.944 725.157 361.866 697.659 282.069 696.042 283.687 697.12 286.922" fill="#66421f"/>
        <polygon points="427.727 361.193 425.625 347.18 422.822 347.18 422.122 361.193 427.727 361.193" fill="#66421f"/>
      </g>
    </g>
    <g>
      <g>
        <path d="M300.523,377.637S116.9,390.665,27.3,440.088c0,0-2.482-51.838-23.455-76.994L300.1,365.2Z" fill="#c69c6d"/>
        <polygon points="0 363.994 1.618 359.142 365.018 359.142 365.018 366.69 0 363.994" fill="#66421f"/>
        <polygon points="28.037 438.939 4.583 362.916 0 363.994 27.498 443.791 29.115 442.174 28.037 438.939" fill="#66421f"/>
        <polygon points="297.43 364.667 299.532 378.681 302.335 378.681 303.035 364.667 297.43 364.667" fill="#66421f"/>
      </g>
      <g>
        <path d="M424.634,348.223S608.258,335.2,697.855,285.772c0,0,2.482,51.838,23.455,77l-296.254-2.1Z" fill="#c69c6d"/>
        <polygon points="725.157 361.866 723.539 366.719 360.139 366.719 360.139 359.17 725.157 361.866" fill="#66421f"/>
        <polygon points="697.12 286.922 720.574 362.944 725.157 361.866 697.659 282.069 696.042 283.687 697.12 286.922" fill="#66421f"/>
        <polygon points="427.727 361.193 425.625 347.18 422.822 347.18 422.122 361.193 427.727 361.193" fill="#66421f"/>
      </g>
    </g>
    <g>
      <g>
        <path d="M316.152,406.524s-152.509,103.094-205.39,190.7c0,0-28.069-43.652-58.81-54.952L309.566,395.961Z" fill="#c69c6d"/>
        <polygon points="49.07 544.97 48.045 539.959 362.759 358.259 366.533 364.796 49.07 544.97" fill="#66421f"/>
        <polygon points="110.823 595.856 52.5 541.745 49.07 544.97 112.782 600.328 113.375 598.118 110.823 595.856" fill="#66421f"/>
        <polygon points="306.989 396.838 315.816 407.923 318.243 406.522 311.843 394.036 306.989 396.838" fill="#66421f"/>
      </g>
      <g>
        <path d="M408.929,319S561.438,215.9,614.319,128.3c0,0,28.069,43.652,58.81,54.952L415.515,329.558Z" fill="#c69c6d"/>
        <polygon points="676.011 180.549 677.036 185.56 362.322 367.26 358.548 360.723 676.011 180.549" fill="#66421f"/>
        <polygon points="614.258 129.663 672.581 183.774 676.011 180.549 612.298 125.191 611.706 127.401 614.258 129.663" fill="#66421f"/>
        <polygon points="418.092 328.681 409.265 317.596 406.838 318.997 413.238 331.483 418.092 328.681" fill="#66421f"/>
      </g>
    </g>
    <g>
      <g>
        <path d="M344.131,423.726S263.6,589.263,261.605,691.568c0,0-46.135-23.769-78.407-18.185L333.146,417.871Z" fill="#c69c6d"/>
        <polygon points="182.054 677.165 178.661 673.338 360.361 358.624 366.898 362.398 182.054 677.165" fill="#66421f"/>
        <polygon points="260.977 690.357 183.412 672.657 182.054 677.165 264.91 693.25 264.318 691.04 260.977 690.357" fill="#66421f"/>
        <polygon points="331.353 419.92 344.539 425.106 345.941 422.679 334.155 415.065 331.353 419.92" fill="#66421f"/>
      </g>
      <g>
        <path d="M380.714,301.535S461.243,136,463.24,33.694c0,0,46.134,23.769,78.407,18.185L391.7,307.39Z" fill="#c69c6d"/>
        <polygon points="542.79 48.097 546.184 51.924 364.484 366.638 357.946 362.863 542.79 48.097" fill="#66421f"/>
        <polygon points="463.868 34.905 541.432 52.605 542.79 48.097 459.935 32.012 460.527 34.221 463.868 34.905" fill="#66421f"/>
        <polygon points="393.492 305.342 380.305 300.156 378.904 302.583 390.689 310.196 393.492 305.342" fill="#66421f"/>
      </g>
    </g>
    <g>
      <g>
        <path d="M376.962,424.634s13.028,183.624,62.452,273.221c0,0-51.839,2.482-76.995,23.455l2.1-296.254Z" fill="#c69c6d"/>
        <polygon points="363.32 725.157 358.467 723.539 358.467 360.139 366.015 360.139 363.32 725.157" fill="#66421f"/>
        <polygon points="438.264 697.12 362.241 720.574 363.32 725.157 443.117 697.659 441.499 696.042 438.264 697.12" fill="#66421f"/>
        <polygon points="363.993 427.727 378.006 425.625 378.006 422.822 363.993 422.122 363.993 427.727" fill="#66421f"/>
      </g>
      <g>
        <path d="M347.549,300.523S334.521,116.9,285.1,27.3c0,0,51.839-2.482,77-23.455l-2.1,296.254Z" fill="#c69c6d"/>
        <polygon points="361.192 0 366.044 1.618 366.044 365.018 358.496 365.018 361.192 0" fill="#66421f"/>
        <polygon points="286.247 28.037 362.27 4.583 361.192 0 281.394 27.498 283.012 29.115 286.247 28.037" fill="#66421f"/>
        <polygon points="360.518 297.43 346.505 299.532 346.505 302.335 360.518 303.035 360.518 297.43" fill="#66421f"/>
      </g>
    </g>
    <g>
      <g>
        <path d="M405.849,409.005s103.1,152.509,190.7,205.39c0,0-43.652,28.069-54.952,58.81l-146.3-257.614Z" fill="#c69c6d"/>
        <polygon points="544.296 676.087 539.284 677.112 357.584 362.398 364.121 358.624 544.296 676.087" fill="#66421f"/>
        <polygon points="595.181 614.334 541.07 672.657 544.296 676.087 599.653 612.375 597.444 611.782 595.181 614.334" fill="#66421f"/>
        <polygon points="396.164 418.168 407.248 409.341 405.847 406.914 393.361 413.314 396.164 418.168" fill="#66421f"/>
      </g>
      <g>
        <path d="M318.32,316.228S215.226,163.719,127.626,110.838c0,0,43.652-28.069,54.952-58.81l146.3,257.614Z" fill="#c69c6d"/>
        <polygon points="179.874 49.146 184.885 48.121 366.586 362.835 360.048 366.609 179.874 49.146" fill="#66421f"/>
        <polygon points="128.989 110.899 183.1 52.576 179.874 49.146 124.517 112.859 126.726 113.451 128.989 110.899" fill="#66421f"/>
        <polygon points="328.006 307.065 316.921 315.892 318.323 318.319 330.809 311.919 328.006 307.065" fill="#66421f"/>
      </g>
    </g>
    <g>
      <g>
        <path d="M423.052,381.026s165.536,80.529,267.841,82.526c0,0-23.769,46.135-18.184,78.407L417.2,392.011Z" fill="#c69c6d"/>
        <polygon points="676.49 543.103 672.663 546.496 357.949 364.796 361.724 358.259 676.49 543.103" fill="#66421f"/>
        <polygon points="689.682 464.18 671.982 541.745 676.49 543.103 692.575 460.247 690.366 460.839 689.682 464.18" fill="#66421f"/>
        <polygon points="419.245 393.804 424.431 380.618 422.004 379.216 414.391 391.002 419.245 393.804" fill="#66421f"/>
      </g>
      <g>
        <path d="M300.861,344.443S135.324,263.914,33.019,261.917c0,0,23.769-46.134,18.185-78.407L306.716,333.459Z" fill="#c69c6d"/>
        <polygon points="47.422 182.367 51.249 178.973 365.963 360.673 362.189 367.211 47.422 182.367" fill="#66421f"/>
        <polygon points="34.23 261.289 51.93 183.725 47.422 182.367 31.337 265.222 33.547 264.63 34.23 261.289" fill="#66421f"/>
        <polygon points="304.667 331.665 299.481 344.852 301.908 346.253 309.522 334.468 304.667 331.665" fill="#66421f"/>
      </g>
    </g>
  </g>
</svg>
