<svg xmlns="http://www.w3.org/2000/svg" width="133.93" height="133.93" viewBox="0 0 133.93 133.93">
  <title>Wings_1</title>
  <g>
    <g>
      <g>
        <path d="M66.965,7.542c-9.813,0-14.438-4.375-14.438-4.375L66.965,64.25,81.4,3.167S76.777,7.542,66.965,7.542Z" fill="#c69c6d"/>
        <polygon points="83.027 0.875 81.402 0 66.965 63.075 52.527 0 50.902 0.875 65.777 67.375 66.965 67.93 68.152 67.375 83.027 0.875" fill="#754c24"/>
      </g>
      <g>
        <path d="M66.965,126.388c9.812,0,14.437,4.375,14.437,4.375L66.965,69.68,52.527,130.763S57.152,126.388,66.965,126.388Z" fill="#c69c6d"/>
        <polygon points="50.902 133.055 52.527 133.93 66.965 70.854 81.402 133.93 83.027 133.055 68.152 66.555 66.965 66 65.777 66.555 50.902 133.055" fill="#754c24"/>
      </g>
    </g>
    <g>
      <g>
        <path d="M7.542,66.965c0,9.812-4.375,14.437-4.375,14.437L64.25,66.965,3.167,52.527S7.542,57.152,7.542,66.965Z" fill="#c69c6d"/>
        <polygon points="0.875 50.902 0 52.527 63.075 66.965 0 81.402 0.875 83.027 67.375 68.152 67.93 66.965 67.375 65.777 0.875 50.902" fill="#754c24"/>
      </g>
      <g>
        <path d="M126.388,66.965c0-9.813,4.375-14.438,4.375-14.438L69.68,66.965,130.763,81.4S126.388,76.777,126.388,66.965Z" fill="#c69c6d"/>
        <polygon points="133.055 83.027 133.93 81.402 70.854 66.965 133.93 52.527 133.055 50.902 66.555 65.777 66 66.965 66.555 68.152 133.055 83.027" fill="#754c24"/>
      </g>
    </g>
    <g>
      <g>
        <path d="M24.946,108.983c6.939,6.939,7.116,13.3,7.116,13.3l32.983-53.4-53.4,32.983S18.008,102.045,24.946,108.983Z" fill="#c69c6d"/>
        <polygon points="8.874 102.34 9.405 104.107 64.215 69.715 29.822 124.525 31.59 125.055 68.095 67.515 67.647 66.283 66.415 65.835 8.874 102.34" fill="#754c24"/>
      </g>
      <g>
        <path d="M108.983,24.946c-6.938-6.938-7.115-13.3-7.115-13.3l-32.983,53.4,53.4-32.983S115.922,31.885,108.983,24.946Z" fill="#c69c6d"/>
        <polygon points="125.055 31.59 124.525 29.822 69.715 64.215 104.107 9.405 102.34 8.874 65.835 66.415 66.283 67.647 67.515 68.095 125.055 31.59" fill="#754c24"/>
      </g>
    </g>
    <g>
      <g>
        <path d="M24.946,24.946c-6.938,6.939-13.3,7.116-13.3,7.116l53.4,32.983-32.983-53.4S31.885,18.008,24.946,24.946Z" fill="#c69c6d"/>
        <polygon points="31.59 8.874 29.822 9.405 64.215 64.215 9.405 29.822 8.874 31.59 66.415 68.095 67.647 67.647 68.095 66.415 31.59 8.874" fill="#754c24"/>
      </g>
      <g>
        <path d="M108.983,108.983c6.939-6.938,13.3-7.115,13.3-7.115l-53.4-32.983,32.983,53.4S102.045,115.922,108.983,108.983Z" fill="#c69c6d"/>
        <polygon points="102.34 125.055 104.107 124.525 69.715 69.715 124.525 104.107 125.055 102.34 67.515 65.835 66.283 66.283 65.835 67.515 102.34 125.055" fill="#754c24"/>
      </g>
    </g>
  </g>
</svg>
