<svg xmlns="http://www.w3.org/2000/svg" width="884.11" height="884.11" viewBox="0 0 884.11 884.11">
  <defs>
    <style>
      .cls-1 {
        fill: #c69c6d;
      }

      .cls-2 {
        fill: #3b2612;
      }
    </style>
  </defs>
  <title>Wings</title>
  <g id="Layer_2" data-name="Layer 2">
    <g id="_0" data-name="0">
      <g>
        <g>
          <g>
            <path class="cls-1" d="M366.4,460.41S142.52,476.3,33.29,536.55c0,0-3-63.2-28.6-93.87l361.19,2.57Z"/>
            <polygon class="cls-2" points="0 443.78 1.97 437.86 445.03 437.86 445.03 447.07 0 443.78"/>
            <polygon class="cls-2" points="34.18 535.15 5.59 442.46 0 443.78 33.52 541.07 35.5 539.1 34.18 535.15"/>
            <polygon class="cls-2" points="362.63 444.6 365.19 461.69 368.61 461.69 369.46 444.6 362.63 444.6"/>
          </g>
          <g>
            <path class="cls-1" d="M517.71,424.55s223.87-15.88,333.11-76.14c0,0,3,63.2,28.6,93.87l-361.19-2.56Z"/>
            <polygon class="cls-2" points="884.11 441.19 882.13 447.1 439.08 447.1 439.08 437.9 884.11 441.19"/>
            <polygon class="cls-2" points="849.92 349.81 878.52 442.5 884.11 441.19 850.58 343.9 848.61 345.87 849.92 349.81"/>
            <polygon class="cls-2" points="521.48 440.36 518.92 423.28 515.5 423.28 514.65 440.36 521.48 440.36"/>
          </g>
        </g>
        <g>
          <g>
            <path class="cls-1" d="M366.4,460.41S142.52,476.3,33.29,536.55c0,0-3-63.2-28.6-93.87l361.19,2.57Z"/>
            <polygon class="cls-2" points="0 443.78 1.97 437.86 445.03 437.86 445.03 447.07 0 443.78"/>
            <polygon class="cls-2" points="34.18 535.15 5.59 442.46 0 443.78 33.52 541.07 35.5 539.1 34.18 535.15"/>
            <polygon class="cls-2" points="362.63 444.6 365.19 461.69 368.61 461.69 369.46 444.6 362.63 444.6"/>
          </g>
          <g>
            <path class="cls-1" d="M517.71,424.55s223.87-15.88,333.11-76.14c0,0,3,63.2,28.6,93.87l-361.19-2.56Z"/>
            <polygon class="cls-2" points="884.11 441.19 882.13 447.1 439.08 447.1 439.08 437.9 884.11 441.19"/>
            <polygon class="cls-2" points="849.92 349.81 878.52 442.5 884.11 441.19 850.58 343.9 848.61 345.87 849.92 349.81"/>
            <polygon class="cls-2" points="521.48 440.36 518.92 423.28 515.5 423.28 514.65 440.36 521.48 440.36"/>
          </g>
        </g>
        <g>
          <g>
            <path class="cls-1" d="M385.45,495.63S199.51,621.32,135,728.13c0,0-34.22-53.22-71.7-67L377.42,482.75Z"/>
            <polygon class="cls-2" points="59.83 664.42 58.58 658.32 442.27 436.79 446.88 444.76 59.83 664.42"/>
            <polygon class="cls-2" points="135.12 726.46 64.01 660.49 59.83 664.42 137.5 731.92 138.23 729.22 135.12 726.46"/>
            <polygon class="cls-2" points="374.28 483.82 385.04 497.34 388 495.63 380.2 480.41 374.28 483.82"/>
          </g>
          <g>
            <path class="cls-1" d="M498.56,388.92S684.5,263.23,749,156.42c0,0,34.23,53.22,71.71,67L506.59,401.8Z"/>
            <polygon class="cls-2" points="824.19 220.12 825.44 226.23 441.74 447.76 437.14 439.79 824.19 220.12"/>
            <polygon class="cls-2" points="748.9 158.09 820.01 224.06 824.19 220.12 746.51 152.63 745.79 155.33 748.9 158.09"/>
            <polygon class="cls-2" points="509.74 400.73 498.97 387.21 496.01 388.92 503.82 404.14 509.74 400.73"/>
          </g>
        </g>
        <g>
          <g>
            <path class="cls-1" d="M419.56,516.6S321.38,718.43,319,843.16c0,0-56.25-29-95.6-22.18L406.17,509.47Z"/>
            <polygon class="cls-2" points="221.96 825.6 217.82 820.93 439.35 437.23 447.32 441.83 221.96 825.6"/>
            <polygon class="cls-2" points="318.18 841.68 223.62 820.1 221.96 825.6 322.98 845.21 322.25 842.51 318.18 841.68"/>
            <polygon class="cls-2" points="403.98 511.96 420.06 518.29 421.77 515.33 407.4 506.05 403.98 511.96"/>
          </g>
          <g>
            <path class="cls-1" d="M464.16,367.63S562.34,165.81,564.78,41.08c0,0,56.25,29,95.59,22.17L477.56,374.77Z"/>
            <polygon class="cls-2" points="661.77 58.64 665.9 63.3 444.38 447 436.41 442.4 661.77 58.64"/>
            <polygon class="cls-2" points="565.54 42.56 660.11 64.14 661.77 58.64 560.75 39.03 561.47 41.72 565.54 42.56"/>
            <polygon class="cls-2" points="479.74 372.27 463.67 365.95 461.96 368.91 476.33 378.19 479.74 372.27"/>
          </g>
        </g>
        <g>
          <g>
            <path class="cls-1" d="M459.59,517.71s15.88,223.87,76.14,333.11c0,0-63.2,3-93.87,28.6l2.56-361.19Z"/>
            <polygon class="cls-2" points="442.96 884.11 437.04 882.13 437.04 439.08 446.24 439.08 442.96 884.11"/>
            <polygon class="cls-2" points="534.33 849.92 441.64 878.52 442.96 884.11 540.25 850.58 538.27 848.61 534.33 849.92"/>
            <polygon class="cls-2" points="443.78 521.48 460.86 518.92 460.86 515.5 443.78 514.65 443.78 521.48"/>
          </g>
          <g>
            <path class="cls-1" d="M423.73,366.4S407.85,142.52,347.59,33.29c0,0,63.2-3,93.87-28.6L438.9,365.88Z"/>
            <polygon class="cls-2" points="440.36 0 446.28 1.97 446.28 445.03 437.08 445.03 440.36 0"/>
            <polygon class="cls-2" points="348.99 34.18 441.68 5.59 440.36 0 343.07 33.52 345.05 35.5 348.99 34.18"/>
            <polygon class="cls-2" points="439.54 362.63 422.46 365.19 422.46 368.61 439.54 369.46 439.54 362.63"/>
          </g>
        </g>
        <g>
          <g>
            <path class="cls-1" d="M494.81,498.66S620.5,684.59,727.3,749.07c0,0-53.22,34.22-67,71.7L481.93,506.69Z"/>
            <polygon class="cls-2" points="663.6 824.28 657.49 825.53 435.96 441.83 443.94 437.23 663.6 824.28"/>
            <polygon class="cls-2" points="725.64 748.99 659.67 820.1 663.6 824.28 731.09 746.6 728.4 745.88 725.64 748.99"/>
            <polygon class="cls-2" points="483 509.83 496.51 499.07 494.81 496.11 479.58 503.91 483 509.83"/>
          </g>
          <g>
            <path class="cls-1" d="M388.09,385.54S262.4,199.61,155.6,135.13c0,0,53.22-34.22,67-71.7L401,377.51Z"/>
            <polygon class="cls-2" points="219.3 59.92 225.41 58.67 446.94 442.37 438.97 446.97 219.3 59.92"/>
            <polygon class="cls-2" points="157.26 135.21 223.23 64.1 219.3 59.92 151.81 137.6 154.5 138.32 157.26 135.21"/>
            <polygon class="cls-2" points="399.9 374.37 386.39 385.13 388.1 388.09 403.32 380.29 399.9 374.37"/>
          </g>
        </g>
        <g>
          <g>
            <path class="cls-1" d="M515.78,464.54S717.6,562.73,842.33,565.16c0,0-29,56.25-22.17,95.59L508.64,477.94Z"/>
            <polygon class="cls-2" points="824.77 662.15 820.11 666.28 436.41 444.76 441.01 436.79 824.77 662.15"/>
            <polygon class="cls-2" points="840.86 565.93 819.28 660.49 824.77 662.15 844.38 561.13 841.69 561.85 840.86 565.93"/>
            <polygon class="cls-2" points="511.14 480.12 517.46 464.05 514.5 462.34 505.22 476.71 511.14 480.12"/>
          </g>
          <g>
            <path class="cls-1" d="M366.81,419.94S165,321.76,40.26,319.33c0,0,29-56.25,22.17-95.6L374,406.55Z"/>
            <polygon class="cls-2" points="57.82 222.34 62.48 218.2 446.18 439.73 441.58 447.7 57.82 222.34"/>
            <polygon class="cls-2" points="41.73 318.56 63.31 224 57.82 222.34 38.21 323.36 40.9 322.63 41.73 318.56"/>
            <polygon class="cls-2" points="371.45 404.36 365.13 420.44 368.08 422.15 377.37 407.78 371.45 404.36"/>
          </g>
        </g>
      </g>
    </g>
  </g>
</svg>
