<svg xmlns="http://www.w3.org/2000/svg" width="163.29" height="163.29" viewBox="0 0 163.29 163.29">
  <defs>
    <style>
      .cls-1 {
        fill: #c69c6d;
      }

      .cls-2 {
        fill: #754c24;
      }
    </style>
  </defs>
  <title>Wings_1</title>
  <g id="Layer_2" data-name="Layer 2">
    <g id="_0" data-name="0">
      <g>
        <g>
          <g>
            <path class="cls-1" d="M81.64,9.19c-12,0-17.6-5.33-17.6-5.33l17.6,74.47L99.25,3.86S93.61,9.19,81.64,9.19Z"/>
            <polygon class="cls-2" points="101.23 1.07 99.25 0 81.64 76.9 64.04 0 62.06 1.07 80.19 82.14 81.64 82.82 83.09 82.14 101.23 1.07"/>
          </g>
          <g>
            <path class="cls-1" d="M81.64,154.09c12,0,17.61,5.34,17.61,5.34L81.64,85,64,159.43S69.68,154.09,81.64,154.09Z"/>
            <polygon class="cls-2" points="62.06 162.22 64.04 163.29 81.64 86.39 99.25 163.29 101.23 162.22 83.09 81.14 81.64 80.47 80.19 81.14 62.06 162.22"/>
          </g>
        </g>
        <g>
          <g>
            <path class="cls-1" d="M9.19,81.64c0,12-5.33,17.61-5.33,17.61L78.33,81.64,3.86,64S9.19,69.68,9.19,81.64Z"/>
            <polygon class="cls-2" points="1.07 62.06 0 64.04 76.9 81.64 0 99.25 1.07 101.23 82.14 83.09 82.82 81.64 82.14 80.19 1.07 62.06"/>
          </g>
          <g>
            <path class="cls-1" d="M154.09,81.64c0-12,5.34-17.6,5.34-17.6L85,81.64l74.48,17.61S154.09,93.61,154.09,81.64Z"/>
            <polygon class="cls-2" points="162.22 101.23 163.29 99.25 86.39 81.64 163.29 64.04 162.22 62.06 81.14 80.19 80.47 81.64 81.14 83.09 162.22 101.23"/>
          </g>
        </g>
        <g>
          <g>
            <path class="cls-1" d="M30.41,132.87c8.46,8.46,8.68,16.22,8.68,16.22L79.3,84,14.2,124.2S22,124.41,30.41,132.87Z"/>
            <polygon class="cls-2" points="10.82 124.77 11.47 126.93 78.29 85 36.36 151.82 38.52 152.47 83.02 82.31 82.47 80.81 80.97 80.27 10.82 124.77"/>
          </g>
          <g>
            <path class="cls-1" d="M132.87,30.41C124.41,22,124.2,14.2,124.2,14.2L84,79.3l65.11-40.21S141.33,38.87,132.87,30.41Z"/>
            <polygon class="cls-2" points="152.47 38.52 151.82 36.36 85 78.29 126.93 11.47 124.77 10.82 80.27 80.97 80.81 82.47 82.31 83.02 152.47 38.52"/>
          </g>
        </g>
        <g>
          <g>
            <path class="cls-1" d="M30.41,30.41C22,38.87,14.2,39.09,14.2,39.09L79.3,79.3,39.09,14.2S38.87,22,30.41,30.41Z"/>
            <polygon class="cls-2" points="38.52 10.82 36.36 11.47 78.29 78.29 11.47 36.36 10.82 38.52 80.97 83.02 82.47 82.47 83.02 80.97 38.52 10.82"/>
          </g>
          <g>
            <path class="cls-1" d="M132.87,132.87c8.46-8.46,16.22-8.67,16.22-8.67L84,84l40.22,65.11S124.41,141.33,132.87,132.87Z"/>
            <polygon class="cls-2" points="124.77 152.47 126.93 151.82 85 85 151.82 126.93 152.47 124.77 82.31 80.27 80.81 80.81 80.27 82.31 124.77 152.47"/>
          </g>
        </g>
      </g>
    </g>
  </g>
</svg>
