<svg xmlns="http://www.w3.org/2000/svg" width="192.71" height="91.2" viewBox="0 0 192.71 91.2">
  <defs>
    <style>
      .cls-1 {
        isolation: isolate;
      }

      .cls-2 {
        fill: #3b2612;
      }

      .cls-3 {
        fill: #6d4722;
      }
    </style>
  </defs>
  <title>WoodTrash_8</title>
  <g id="Layer_2" data-name="Layer 2">
    <g id="_0" data-name="0">
      <g>
        <g class="cls-1">
          <polygon class="cls-2" points="192.71 36.15 190.15 38.75 78.27 91.2 80.83 88.6 192.71 36.15"/>
          <polygon class="cls-2" points="80.83 88.6 78.27 91.2 59.59 61.21 62.16 58.6 80.83 88.6"/>
          <polygon class="cls-3" points="179.96 5.14 192.71 36.15 80.83 88.6 62.16 58.6 179.96 5.14"/>
        </g>
        <g class="cls-1">
          <polygon class="cls-2" points="75.08 28.87 72.52 31.47 74.81 21.15 77.37 18.54 75.08 28.87"/>
          <polygon class="cls-2" points="58.87 45.25 56.3 47.85 65.62 37.02 68.19 34.42 58.87 45.25"/>
          <polygon class="cls-2" points="17.17 52.04 14.61 54.64 17.14 42.3 19.7 39.7 17.17 52.04"/>
          <polygon class="cls-2" points="4.63 63.24 2.06 65.84 0 58.12 2.56 55.52 4.63 63.24"/>
          <polygon class="cls-2" points="192.57 31.43 190.01 34.03 2.06 65.84 4.63 63.24 192.57 31.43"/>
          <polygon class="cls-3" points="184.88 0 192.57 31.43 4.63 63.24 2.56 55.52 17.17 52.04 19.7 39.7 31.76 36.83 38.62 32.07 46.31 40.41 58.87 45.25 68.19 34.42 75.08 28.87 77.37 18.54 184.88 0"/>
        </g>
      </g>
    </g>
  </g>
</svg>
