<svg xmlns="http://www.w3.org/2000/svg" width="140.92" height="136.76" viewBox="0 0 140.92 136.76">
  <defs>
    <style>
      .cls-1 {
        isolation: isolate;
      }

      .cls-2 {
        fill: #3b2612;
      }

      .cls-3 {
        fill: #6d4722;
      }
    </style>
  </defs>
  <title>WoodTrash_5</title>
  <g id="Layer_2" data-name="Layer 2">
    <g id="_0" data-name="0">
      <g>
        <g class="cls-1">
          <polygon class="cls-2" points="29.7 62.72 27.13 65.32 26.79 54.17 29.36 51.57 29.7 62.72"/>
          <polygon class="cls-2" points="19.4 78.24 16.84 80.84 27.13 65.32 29.7 62.72 19.4 78.24"/>
          <polygon class="cls-2" points="2.56 93.61 0 96.21 12.63 80.84 15.19 78.24 2.56 93.61"/>
          <polygon class="cls-2" points="5.46 111.85 2.9 114.46 0 96.21 2.56 93.61 5.46 111.85"/>
          <polygon class="cls-2" points="123.12 26.03 120.55 28.64 2.9 114.46 5.46 111.85 123.12 26.03"/>
          <polygon class="cls-3" points="106.4 0 123.12 26.03 5.46 111.85 2.56 93.61 15.19 78.24 19.4 78.24 29.7 62.72 29.36 51.57 106.4 0"/>
        </g>
        <g class="cls-1">
          <polygon class="cls-2" points="97.58 95.86 95.02 98.46 84.48 90.72 87.05 88.12 97.58 95.86"/>
          <polygon class="cls-2" points="87.05 88.12 84.48 90.72 109.47 20.23 112.04 17.62 87.05 88.12"/>
          <polygon class="cls-2" points="109.52 134.16 106.95 136.76 95.87 126.12 98.43 123.51 109.52 134.16"/>
          <polygon class="cls-2" points="87.81 113.1 85.25 115.7 95.02 98.46 97.58 95.86 87.81 113.1"/>
          <polygon class="cls-2" points="98.43 123.51 95.87 126.12 85.25 115.7 87.81 113.1 98.43 123.51"/>
          <polygon class="cls-3" points="112.04 17.62 140.92 28.38 109.52 134.16 98.43 123.51 87.81 113.1 97.58 95.86 87.05 88.12 112.04 17.62"/>
        </g>
      </g>
    </g>
  </g>
</svg>
