<svg xmlns="http://www.w3.org/2000/svg" width="92.59" height="173.11" viewBox="0 0 92.59 173.11">
  <defs>
    <style>
      .cls-1 {
        isolation: isolate;
      }

      .cls-2 {
        fill: #3b2612;
      }

      .cls-3 {
        fill: #6d4722;
      }
    </style>
  </defs>
  <title>WoodTrash_1</title>
  <g id="Layer_2" data-name="Layer 2">
    <g id="_0" data-name="0">
      <g>
        <g class="cls-1">
          <polygon class="cls-2" points="71.01 162.2 68.44 164.8 37.23 173.11 39.79 170.51 71.01 162.2"/>
          <polygon class="cls-2" points="39.79 170.51 37.23 173.11 0 59.09 2.56 56.48 39.79 170.51"/>
          <polygon class="cls-3" points="31.62 42.35 71.01 162.2 39.79 170.51 2.56 56.48 31.62 42.35"/>
        </g>
        <g class="cls-1">
          <polygon class="cls-2" points="90.17 161.81 87.61 164.41 48.48 164.41 51.05 161.81 90.17 161.81"/>
          <polygon class="cls-2" points="51.05 161.81 48.48 164.41 45.8 2.6 48.36 0 51.05 161.81"/>
          <polygon class="cls-3" points="48.36 0 92.59 0 90.17 161.81 51.05 161.81 48.36 0"/>
        </g>
      </g>
    </g>
  </g>
</svg>
