<svg xmlns="http://www.w3.org/2000/svg" width="177.13" height="89.04" viewBox="0 0 177.13 89.04">
  <defs>
    <style>
      .cls-1 {
        isolation: isolate;
      }

      .cls-2 {
        fill: #3b2612;
      }

      .cls-3 {
        fill: #6d4722;
      }
    </style>
  </defs>
  <title>WoodTrash_7</title>
  <g id="Layer_2" data-name="Layer 2">
    <g id="_0" data-name="0">
      <g>
        <g class="cls-1">
          <polygon class="cls-2" points="177.13 45.72 174.57 48.32 162.6 54.55 165.16 51.95 177.13 45.72"/>
          <polygon class="cls-2" points="161.7 61.31 159.14 63.91 148.38 63.91 150.94 61.31 161.7 61.31"/>
          <polygon class="cls-2" points="150.94 61.31 148.38 63.91 129.25 65.79 131.81 63.19 150.94 61.31"/>
          <polygon class="cls-2" points="131.81 63.19 129.25 65.79 15.54 35.83 18.1 33.23 131.81 63.19"/>
          <polygon class="cls-2" points="18.1 33.23 15.54 35.83 22 2.6 24.56 0 18.1 33.23"/>
          <polygon class="cls-3" points="24.56 0 50.54 7.49 177.13 45.72 165.16 51.95 161.7 61.31 150.94 61.31 131.81 63.19 18.1 33.23 24.56 0"/>
        </g>
        <g class="cls-1">
          <polygon class="cls-2" points="122.06 73.95 119.5 76.55 108.37 84.83 110.94 82.23 122.06 73.95"/>
          <polygon class="cls-2" points="108.87 86.44 106.31 89.04 83.84 89.04 86.41 86.44 108.87 86.44"/>
          <polygon class="cls-2" points="86.41 86.44 83.84 89.04 0 40.89 2.56 38.28 86.41 86.44"/>
          <polygon class="cls-2" points="2.56 38.28 0 40.89 15.79 21.53 18.35 18.92 2.56 38.28"/>
          <polygon class="cls-3" points="18.35 18.92 119.03 66.78 122.06 73.95 110.94 82.23 108.87 86.44 86.41 86.44 2.56 38.28 18.35 18.92"/>
        </g>
      </g>
    </g>
  </g>
</svg>
