<svg xmlns="http://www.w3.org/2000/svg" width="101.41" height="193.79" viewBox="0 0 101.41 193.79">
  <defs>
    <style>
      .cls-1 {
        isolation: isolate;
      }

      .cls-2 {
        fill: #3b2612;
      }

      .cls-3 {
        fill: #6d4722;
      }
    </style>
  </defs>
  <title>WoodTrash_11</title>
  <g id="Layer_2" data-name="Layer 2">
    <g id="_0" data-name="0">
      <g>
        <g class="cls-1">
          <polygon class="cls-2" points="27.83 41.19 25.27 43.79 31.97 2.84 34.54 0.24 27.83 41.19"/>
          <polygon class="cls-2" points="32.65 68.56 30.09 71.17 25.27 43.79 27.83 41.19 32.65 68.56"/>
          <polygon class="cls-2" points="25.17 122.39 22.61 125 30.09 71.17 32.65 68.56 25.17 122.39"/>
          <polygon class="cls-2" points="7.94 155.62 5.37 158.22 6.97 133.89 9.53 131.28 7.94 155.62"/>
          <polygon class="cls-2" points="2.56 179.02 0 181.62 5.37 158.22 7.94 155.62 2.56 179.02"/>
          <polygon class="cls-2" points="13.24 191.19 10.67 193.79 0 181.62 2.56 179.02 13.24 191.19"/>
          <polygon class="cls-2" points="34.17 187.16 31.61 189.77 10.67 193.79 13.24 191.19 34.17 187.16"/>
          <polygon class="cls-3" points="34.54 0.24 64.56 2.58 34.17 187.16 13.24 191.19 2.56 179.02 7.94 155.62 9.53 131.28 17.81 126.6 25.17 122.39 32.65 68.56 27.83 41.19 34.54 0.24"/>
        </g>
        <g class="cls-1">
          <polygon class="cls-2" points="101.41 160.06 98.85 162.67 85.75 162.67 88.31 160.06 101.41 160.06"/>
          <polygon class="cls-2" points="88.31 160.06 85.75 162.67 82.21 154.13 84.77 151.53 88.31 160.06"/>
          <polygon class="cls-2" points="84.77 151.53 82.21 154.13 69.83 147.23 72.39 144.62 84.77 151.53"/>
          <polygon class="cls-2" points="72.39 144.62 69.83 147.23 50.89 2.6 53.45 0 72.39 144.62"/>
          <polygon class="cls-3" points="79.19 0 101.41 160.06 88.31 160.06 84.77 151.53 72.39 144.62 53.45 0 79.19 0"/>
        </g>
      </g>
    </g>
  </g>
</svg>
