<svg xmlns="http://www.w3.org/2000/svg" width="92.18" height="194.91" viewBox="0 0 92.18 194.91">
  <defs>
    <style>
      .cls-1 {
        isolation: isolate;
      }

      .cls-2 {
        fill: #3b2612;
      }

      .cls-3 {
        fill: #6d4722;
      }
    </style>
  </defs>
  <title>WoodTrash_2</title>
  <g id="Layer_2" data-name="Layer 2">
    <g id="_0" data-name="0">
      <g>
        <g class="cls-1">
          <polygon class="cls-2" points="64.02 187.96 61.45 190.56 28.7 194.91 31.27 192.31 64.02 187.96"/>
          <polygon class="cls-2" points="31.27 192.31 28.7 194.91 0 72.41 2.56 69.8 31.27 192.31"/>
          <polygon class="cls-3" points="35.51 59.42 64.02 187.96 31.27 192.31 2.56 69.8 35.51 59.42"/>
        </g>
        <g class="cls-1">
          <polygon class="cls-2" points="86.76 41.18 84.19 43.78 74.53 49.1 77.09 46.5 86.76 41.18"/>
          <polygon class="cls-2" points="88.72 191.85 86.16 194.46 54.01 193.78 56.57 191.17 88.72 191.85"/>
          <polygon class="cls-2" points="56.57 191.17 54.01 193.78 60.62 2.6 63.19 0 56.57 191.17"/>
          <polygon class="cls-3" points="71.13 0 71.59 15.12 83.1 20.78 83.48 33.26 86.76 41.18 77.09 46.5 69.87 57.46 78.54 69.35 82.58 77.49 92.18 82.41 88.72 191.85 56.57 191.17 63.19 0 71.13 0"/>
        </g>
      </g>
    </g>
  </g>
</svg>
