<svg xmlns="http://www.w3.org/2000/svg" width="86.2" height="125.11" viewBox="0 0 86.2 125.11">
  <defs>
    <style>
      .cls-1 {
        isolation: isolate;
      }

      .cls-2 {
        fill: #3b2612;
      }

      .cls-3 {
        fill: #6d4722;
      }
    </style>
  </defs>
  <title>WoodTrash_3</title>
  <g id="Layer_2" data-name="Layer 2">
    <g id="_0" data-name="0">
      <g>
        <g class="cls-1">
          <polygon class="cls-2" points="2.56 19.44 0 22.04 3.89 8.26 6.45 5.66 2.56 19.44"/>
          <polygon class="cls-2" points="19.02 36.22 16.45 38.83 11.14 34.05 13.7 31.45 19.02 36.22"/>
          <polygon class="cls-2" points="13.7 31.45 11.14 34.05 0 22.04 2.56 19.44 13.7 31.45"/>
          <polygon class="cls-2" points="14.15 46.04 11.58 48.64 16.45 38.83 19.02 36.22 14.15 46.04"/>
          <polygon class="cls-2" points="19.18 55.61 16.61 58.21 11.58 48.64 14.15 46.04 19.18 55.61"/>
          <polygon class="cls-2" points="14.74 65.49 12.18 68.09 16.61 58.21 19.18 55.61 14.74 65.49"/>
          <polygon class="cls-2" points="65.76 114.18 63.2 116.78 35.89 125.11 38.45 122.51 65.76 114.18"/>
          <polygon class="cls-3" points="16.19 0 65.76 114.18 38.45 122.51 14.74 65.49 19.18 55.61 14.15 46.04 19.02 36.22 13.7 31.45 2.56 19.44 6.45 5.66 16.19 0"/>
          <polygon class="cls-2" points="38.45 122.51 35.89 125.11 12.18 68.09 14.74 65.49 38.45 122.51"/>
        </g>
        <g class="cls-1">
          <polygon class="cls-2" points="86.2 120.71 83.64 123.31 53.49 123.31 56.06 120.71 86.2 120.71"/>
          <polygon class="cls-2" points="56.06 120.71 53.49 123.31 38.31 21.51 40.88 18.91 56.06 120.71"/>
          <polygon class="cls-3" points="75.27 16.91 86.2 120.71 56.06 120.71 40.88 18.91 75.27 16.91"/>
        </g>
      </g>
    </g>
  </g>
</svg>
