<svg xmlns="http://www.w3.org/2000/svg" width="176.93" height="165.58" viewBox="0 0 176.93 165.58">
  <defs>
    <style>
      .cls-1 {
        isolation: isolate;
      }

      .cls-2 {
        fill: #3b2612;
      }

      .cls-3 {
        fill: #6d4722;
      }
    </style>
  </defs>
  <title>WoodTrash_9</title>
  <g id="Layer_2" data-name="Layer 2">
    <g id="_0" data-name="0">
      <g>
        <g class="cls-1">
          <polygon class="cls-2" points="46.4 102.43 43.83 105.03 36.9 100.91 39.46 98.31 46.4 102.43"/>
          <polygon class="cls-2" points="39.46 98.31 36.9 100.91 26.77 107.5 29.33 104.89 39.46 98.31"/>
          <polygon class="cls-2" points="29.33 104.89 26.77 107.5 20.19 106.22 22.76 103.61 29.33 104.89"/>
          <polygon class="cls-2" points="2.56 128.12 0 130.73 37.84 26.45 40.41 23.85 2.56 128.12"/>
          <polygon class="cls-2" points="7.77 138.19 5.2 140.79 0 130.73 2.56 128.12 7.77 138.19"/>
          <polygon class="cls-2" points="19.2 135.65 16.64 138.25 5.2 140.79 7.77 138.19 19.2 135.65"/>
          <polygon class="cls-3" points="40.41 23.85 74.47 27.28 46.4 102.43 39.46 98.31 29.33 104.89 22.76 103.61 13.75 126.66 19.2 135.65 7.77 138.19 2.56 128.12 40.41 23.85"/>
        </g>
        <g class="cls-1">
          <polygon class="cls-2" points="101.93 162.97 99.36 165.58 60.29 159.86 62.85 157.25 101.93 162.97"/>
          <polygon class="cls-2" points="62.85 157.25 60.29 159.86 54.85 17.9 57.42 15.29 62.85 157.25"/>
          <polygon class="cls-3" points="57.42 15.29 88.87 18.15 101.93 162.97 62.85 157.25 57.42 15.29"/>
        </g>
        <g class="cls-1">
          <polygon class="cls-2" points="176.94 126.84 174.37 129.45 142.56 147.87 145.12 145.26 176.94 126.84"/>
          <polygon class="cls-2" points="145.12 145.26 142.56 147.87 70.14 23.09 72.71 20.48 145.12 145.26"/>
          <polygon class="cls-3" points="98.25 0 176.94 126.84 145.12 145.26 72.71 20.48 98.25 0"/>
        </g>
      </g>
    </g>
  </g>
</svg>
