<svg xmlns="http://www.w3.org/2000/svg" width="145.08" height="92.44" viewBox="0 0 145.08 92.44">
  <defs>
    <style>
      .cls-1 {
        isolation: isolate;
      }

      .cls-2 {
        fill: #3b2612;
      }

      .cls-3 {
        fill: #6d4722;
      }
    </style>
  </defs>
  <title>WoodTrash_6</title>
  <g id="Layer_2" data-name="Layer 2">
    <g id="_0" data-name="0">
      <g>
        <g class="cls-1">
          <polygon class="cls-2" points="15.63 28.5 13.07 31.1 6.66 20.58 9.22 17.98 15.63 28.5"/>
          <polygon class="cls-2" points="14.48 36.51 11.91 39.11 13.07 31.1 15.63 28.5 14.48 36.51"/>
          <polygon class="cls-2" points="2.71 49.76 0.15 52.36 0 47.54 2.56 44.94 2.71 49.76"/>
          <polygon class="cls-2" points="135.03 30.43 132.47 33.03 0.15 52.36 2.71 49.76 135.03 30.43"/>
          <polygon class="cls-3" points="128.49 0 135.03 30.43 2.71 49.76 2.56 44.94 14.48 36.51 15.63 28.5 9.22 17.98 128.49 0"/>
        </g>
        <g class="cls-1">
          <polygon class="cls-2" points="25.61 71.02 23.04 73.63 27.75 59.34 30.32 56.73 25.61 71.02"/>
          <polygon class="cls-2" points="27.37 82.82 24.8 85.42 17.14 79.48 19.71 76.87 27.37 82.82"/>
          <polygon class="cls-2" points="23.37 89.84 20.81 92.44 24.8 85.42 27.37 82.82 23.37 89.84"/>
          <polygon class="cls-2" points="145.08 44.44 142.51 47.05 20.81 92.44 23.37 89.84 145.08 44.44"/>
          <polygon class="cls-3" points="131.69 18.42 145.08 44.44 23.37 89.84 27.37 82.82 19.71 76.87 25.61 71.02 30.32 56.73 131.69 18.42"/>
        </g>
      </g>
    </g>
  </g>
</svg>
