<svg xmlns="http://www.w3.org/2000/svg" width="161.96" height="155.6" viewBox="0 0 161.96 155.6">
  <defs>
    <style>
      .cls-1 {
        isolation: isolate;
      }

      .cls-2 {
        fill: #3b2612;
      }

      .cls-3 {
        fill: #6d4722;
      }
    </style>
  </defs>
  <title>WoodTrash_4</title>
  <g id="Layer_2" data-name="Layer 2">
    <g id="_0" data-name="0">
      <g>
        <g class="cls-1">
          <polygon class="cls-2" points="64.36 153 61.79 155.6 34.13 139.69 36.69 137.09 64.36 153"/>
          <polygon class="cls-2" points="36.69 137.09 34.13 139.69 83.72 4.93 86.29 2.32 36.69 137.09"/>
          <polygon class="cls-3" points="86.29 2.32 119.74 24.03 64.36 153 36.69 137.09 86.29 2.32"/>
        </g>
        <g class="cls-1">
          <polygon class="cls-2" points="53.05 142.1 50.48 144.71 18.31 152.14 20.87 149.53 53.05 142.1"/>
          <polygon class="cls-2" points="20.87 149.53 18.31 152.14 0 5.53 2.56 2.92 20.87 149.53"/>
          <polygon class="cls-3" points="39.61 0 53.05 142.1 20.87 149.53 2.56 2.92 39.61 0"/>
        </g>
        <g class="cls-1">
          <polygon class="cls-2" points="151.08 72.37 148.51 74.97 147.32 64.64 149.88 62.03 151.08 72.37"/>
          <polygon class="cls-2" points="161.96 75.82 159.39 78.42 80.31 155.37 82.87 152.77 161.96 75.82"/>
          <polygon class="cls-2" points="82.87 152.77 80.31 155.37 50.48 137.85 53.05 135.24 82.87 152.77"/>
          <polygon class="cls-3" points="149.88 62.03 161.47 64.61 161.96 75.82 82.87 152.77 53.05 135.24 110.79 80.12 115.41 86.74 127.51 85.17 132.99 89.1 151.08 72.37 149.88 62.03"/>
        </g>
      </g>
    </g>
  </g>
</svg>
