<svg xmlns="http://www.w3.org/2000/svg" width="187.7" height="163.92" viewBox="0 0 187.7 163.92">
  <defs>
    <style>
      .cls-1 {
        isolation: isolate;
      }

      .cls-2 {
        fill: #3b2612;
      }

      .cls-3 {
        fill: #6d4722;
      }
    </style>
  </defs>
  <title>WoodTrash_10</title>
  <g id="Layer_2" data-name="Layer 2">
    <g id="_0" data-name="0">
      <g>
        <g class="cls-1">
          <polygon class="cls-2" points="187.7 52.89 185.14 55.49 169.23 55.49 171.79 52.89 187.7 52.89"/>
          <polygon class="cls-2" points="162.35 65.53 159.79 68.13 15.09 34.9 17.65 32.3 162.35 65.53"/>
          <polygon class="cls-2" points="17.65 32.3 15.09 34.9 29.08 2.6 31.64 0 17.65 32.3"/>
          <polygon class="cls-3" points="31.64 0 187.26 38.38 187.7 52.89 171.79 52.89 162.35 65.53 17.65 32.3 31.64 0"/>
        </g>
        <g class="cls-1">
          <polygon class="cls-2" points="63.27 124.57 60.71 127.17 38.13 123.42 40.7 120.82 63.27 124.57"/>
          <polygon class="cls-2" points="35.34 129.25 32.77 131.85 22.47 131.85 25.04 129.25 35.34 129.25"/>
          <polygon class="cls-2" points="25.04 129.25 22.47 131.85 0 9.23 2.56 6.62 25.04 129.25"/>
          <polygon class="cls-3" points="41 6.62 63.27 124.57 40.7 120.82 35.34 129.25 25.04 129.25 2.56 6.62 41 6.62"/>
        </g>
        <g class="cls-1">
          <polygon class="cls-2" points="152.04 156.16 149.47 158.77 141.2 163.92 143.77 161.31 152.04 156.16"/>
          <polygon class="cls-2" points="143.77 161.31 141.2 163.92 110.87 136.43 113.44 133.83 143.77 161.31"/>
          <polygon class="cls-2" points="113.44 133.83 110.87 136.43 12.45 9.47 15.02 6.87 113.44 133.83"/>
          <polygon class="cls-3" points="32.34 6.87 110.72 106.08 152.04 156.16 143.77 161.31 113.44 133.83 15.02 6.87 32.34 6.87"/>
        </g>
      </g>
    </g>
  </g>
</svg>
