<svg xmlns="http://www.w3.org/2000/svg" xmlns:xlink="http://www.w3.org/1999/xlink" width="114.668" height="346.745" viewBox="0 0 114.668 346.745">
  <defs>
    <linearGradient id="a" x1="8302.333" y1="-9044.993" x2="8302.333" y2="-9137.726" gradientTransform="matrix(1, 0, 0, -1, -8255, -8553.167)" gradientUnits="userSpaceOnUse">
      <stop offset="0" stop-color="#c5d654"/>
      <stop offset="1" stop-color="#a4bd47"/>
    </linearGradient>
    <linearGradient id="b" x1="8302.333" y1="-9011.41" x2="8302.333" y2="-9104.142" xlink:href="#a"/>
    <linearGradient id="c" x1="8302.333" y1="-8977.826" x2="8302.333" y2="-9070.559" xlink:href="#a"/>
    <linearGradient id="d" x1="8302.333" y1="-8944.243" x2="8302.333" y2="-9036.976" xlink:href="#a"/>
    <linearGradient id="e" x1="8302.333" y1="-8910.66" x2="8302.333" y2="-9003.392" xlink:href="#a"/>
    <linearGradient id="f" x1="8302.333" y1="-8877.076" x2="8302.333" y2="-8969.809" xlink:href="#a"/>
    <linearGradient id="g" x1="8302.333" y1="-8843.493" x2="8302.333" y2="-8936.226" xlink:href="#a"/>
    <linearGradient id="h" x1="8302.333" y1="-8809.91" x2="8302.333" y2="-8902.642" xlink:href="#a"/>
    <linearGradient id="i" x1="8302.333" y1="-8776.326" x2="8302.333" y2="-8869.059" xlink:href="#a"/>
    <linearGradient id="j" x1="8302.333" y1="-8742.743" x2="8302.333" y2="-8835.476" xlink:href="#a"/>
    <linearGradient id="k" x1="8302.333" y1="-8709.16" x2="8302.333" y2="-8801.892" xlink:href="#a"/>
    <linearGradient id="l" x1="8302.333" y1="-8675.576" x2="8302.333" y2="-8768.309" xlink:href="#a"/>
    <linearGradient id="m" x1="8302.333" y1="-8641.993" x2="8302.333" y2="-8734.726" xlink:href="#a"/>
    <linearGradient id="n" x1="8302.333" y1="-8608.41" x2="8302.333" y2="-8701.142" xlink:href="#a"/>
    <linearGradient id="o" x1="8302.333" y1="-8574.826" x2="8302.333" y2="-8667.559" xlink:href="#a"/>
    <linearGradient id="p" x1="8302.333" y1="-8541.243" x2="8302.333" y2="-8633.976" xlink:href="#a"/>
    <pattern id="q" data-name="New Pattern Swatch 2" width="94.667" height="537.417" patternTransform="translate(0 -503.286)" patternUnits="userSpaceOnUse" viewBox="0 0 94.667 537.417">
      <rect width="94.667" height="537.417" fill="none"/>
      <rect y="503.75" width="94.667" height="33.667" fill="url(#a)"/>
      <rect y="470.167" width="94.667" height="33.667" fill="url(#b)"/>
      <rect y="436.583" width="94.667" height="33.667" fill="url(#c)"/>
      <rect y="403" width="94.667" height="33.667" fill="url(#d)"/>
      <rect y="369.417" width="94.667" height="33.667" fill="url(#e)"/>
      <rect y="335.833" width="94.667" height="33.667" fill="url(#f)"/>
      <rect y="302.25" width="94.667" height="33.667" fill="url(#g)"/>
      <rect y="268.667" width="94.667" height="33.667" fill="url(#h)"/>
      <rect y="235.083" width="94.667" height="33.667" fill="url(#i)"/>
      <rect y="201.5" width="94.667" height="33.667" fill="url(#j)"/>
      <rect y="167.917" width="94.667" height="33.667" fill="url(#k)"/>
      <rect y="134.333" width="94.667" height="33.667" fill="url(#l)"/>
      <rect y="100.75" width="94.667" height="33.667" fill="url(#m)"/>
      <rect y="67.167" width="94.667" height="33.667" fill="url(#n)"/>
      <rect y="33.583" width="94.667" height="33.667" fill="url(#o)"/>
      <rect width="94.667" height="33.667" fill="url(#p)"/>
    </pattern>
    <linearGradient id="r" x1="0" y1="249.912" x2="54.753" y2="249.912" gradientTransform="matrix(1, 0, 0, 1, 0, 0)" xlink:href="#a"/>
    <linearGradient id="s" x1="62.965" y1="79.842" x2="103.284" y2="79.842" gradientTransform="matrix(1, 0, 0, 1, 0, 0)" xlink:href="#a"/>
    <linearGradient id="t" x1="57" y1="195.796" x2="85.349" y2="195.796" gradientTransform="matrix(1, 0, 0, 1, 0, 0)" xlink:href="#a"/>
    <linearGradient id="u" x1="52" y1="287.298" x2="100" y2="287.298" gradientTransform="matrix(1, 0, 0, 1, 0, 0)" xlink:href="#a"/>
    <linearGradient id="v" x1="13.5" y1="118.798" x2="61.5" y2="118.798" gradientTransform="matrix(1, 0, 0, 1, 0, 0)" xlink:href="#a"/>
    <linearGradient id="w" x1="57.963" y1="156.082" x2="114.668" y2="156.082" gradientTransform="matrix(1, 0, 0, 1, 0, 0)" xlink:href="#a"/>
  </defs>
  <title>Bamboo_1</title>
  <g>
    <polygon points="44.5 346.745 62.5 4.745 69.5 7.745 53 346.745 44.5 346.745" fill="url(#q)"/>
    <path d="M54.333,227.745c6,35-54.333,44.333-54.333,44.333C19.75,236.245,54.333,227.745,54.333,227.745Z" fill="url(#r)"/>
    <path d="M65.6,52.387c-14.812,30.3,37.686,54.911,37.686,54.911C94.849,69.366,65.6,52.387,65.6,52.387Z" fill="url(#s)"/>
    <path d="M57.862,166.4s-8.437,30.555,27.487,58.8C85.349,225.207,79.888,165.187,57.862,166.4Z" fill="url(#t)"/>
    <path d="M52,266.028s3.972,31.448,48,43.7C100,309.725,71.862,256.428,52,266.028Z" fill="url(#u)"/>
    <path d="M61.5,97.528s-3.972,31.448-48,43.7C13.5,141.225,41.638,87.928,61.5,97.528Z" fill="url(#v)"/>
    <path d="M57.963,142.276s6.622,24.213,56.705,29.387C114.668,171.663,83,131.721,57.963,142.276Z" fill="url(#w)"/>
    <g>
      <path d="M65.715,1.753C72.824,5.58,55.992,16.59,55.992,16.59S56.686-3.109,65.715,1.753Z" fill="#fff"/>
      <path d="M69.476,1.19c8.484-2.879,4.7,19.118,4.7,19.118S58.7,4.848,69.476,1.19Z" fill="#fff"/>
      <path d="M67.616,0c6.539.15-1.565,14.287-1.565,14.287S59.309-.188,67.616,0Z" fill="#fff"/>
    </g>
  </g>
</svg>
