<svg xmlns="http://www.w3.org/2000/svg" xmlns:xlink="http://www.w3.org/1999/xlink" width="129.304" height="473.429" viewBox="0 0 129.304 473.429">
  <defs>
    <linearGradient id="a" x1="8302.333" y1="-9044.993" x2="8302.333" y2="-9137.726" gradientTransform="matrix(1, 0, 0, -1, -8255, -8553.167)" gradientUnits="userSpaceOnUse">
      <stop offset="0" stop-color="#c5d654"/>
      <stop offset="1" stop-color="#a4bd47"/>
    </linearGradient>
    <linearGradient id="b" x1="8302.333" y1="-9011.41" x2="8302.333" y2="-9104.142" xlink:href="#a"/>
    <linearGradient id="c" x1="8302.333" y1="-8977.826" x2="8302.333" y2="-9070.559" xlink:href="#a"/>
    <linearGradient id="d" x1="8302.333" y1="-8944.243" x2="8302.333" y2="-9036.976" xlink:href="#a"/>
    <linearGradient id="e" x1="8302.333" y1="-8910.66" x2="8302.333" y2="-9003.392" xlink:href="#a"/>
    <linearGradient id="f" x1="8302.333" y1="-8877.076" x2="8302.333" y2="-8969.809" xlink:href="#a"/>
    <linearGradient id="g" x1="8302.333" y1="-8843.493" x2="8302.333" y2="-8936.226" xlink:href="#a"/>
    <linearGradient id="h" x1="8302.333" y1="-8809.91" x2="8302.333" y2="-8902.642" xlink:href="#a"/>
    <linearGradient id="i" x1="8302.333" y1="-8776.326" x2="8302.333" y2="-8869.059" xlink:href="#a"/>
    <linearGradient id="j" x1="8302.333" y1="-8742.743" x2="8302.333" y2="-8835.476" xlink:href="#a"/>
    <linearGradient id="k" x1="8302.333" y1="-8709.16" x2="8302.333" y2="-8801.892" xlink:href="#a"/>
    <linearGradient id="l" x1="8302.333" y1="-8675.576" x2="8302.333" y2="-8768.309" xlink:href="#a"/>
    <linearGradient id="m" x1="8302.333" y1="-8641.993" x2="8302.333" y2="-8734.726" xlink:href="#a"/>
    <linearGradient id="n" x1="8302.333" y1="-8608.41" x2="8302.333" y2="-8701.142" xlink:href="#a"/>
    <linearGradient id="o" x1="8302.333" y1="-8574.826" x2="8302.333" y2="-8667.559" xlink:href="#a"/>
    <linearGradient id="p" x1="8302.333" y1="-8541.243" x2="8302.333" y2="-8633.976" xlink:href="#a"/>
    <pattern id="q" data-name="New Pattern Swatch 2" width="94.667" height="537.417" patternTransform="translate(0 -503.286)" patternUnits="userSpaceOnUse" viewBox="0 0 94.667 537.417">
      <rect width="94.667" height="537.417" fill="none"/>
      <rect y="503.75" width="94.667" height="33.667" fill="url(#a)"/>
      <rect y="470.167" width="94.667" height="33.667" fill="url(#b)"/>
      <rect y="436.583" width="94.667" height="33.667" fill="url(#c)"/>
      <rect y="403" width="94.667" height="33.667" fill="url(#d)"/>
      <rect y="369.417" width="94.667" height="33.667" fill="url(#e)"/>
      <rect y="335.833" width="94.667" height="33.667" fill="url(#f)"/>
      <rect y="302.25" width="94.667" height="33.667" fill="url(#g)"/>
      <rect y="268.667" width="94.667" height="33.667" fill="url(#h)"/>
      <rect y="235.083" width="94.667" height="33.667" fill="url(#i)"/>
      <rect y="201.5" width="94.667" height="33.667" fill="url(#j)"/>
      <rect y="167.917" width="94.667" height="33.667" fill="url(#k)"/>
      <rect y="134.333" width="94.667" height="33.667" fill="url(#l)"/>
      <rect y="100.75" width="94.667" height="33.667" fill="url(#m)"/>
      <rect y="67.167" width="94.667" height="33.667" fill="url(#n)"/>
      <rect y="33.583" width="94.667" height="33.667" fill="url(#o)"/>
      <rect width="94.667" height="33.667" fill="url(#p)"/>
    </pattern>
    <linearGradient id="r" x1="59.256" y1="405.814" x2="111.256" y2="405.814" gradientTransform="matrix(1, 0, 0, 1, 0, 0)" xlink:href="#a"/>
    <linearGradient id="s" x1="57.929" y1="185.884" x2="129.304" y2="185.884" gradientTransform="matrix(1, 0, 0, 1, 0, 0)" xlink:href="#a"/>
    <linearGradient id="t" x1="56.057" y1="216.811" x2="104.057" y2="216.811" gradientTransform="matrix(1, 0, 0, 1, 0, 0)" xlink:href="#a"/>
    <linearGradient id="u" x1="8.705" y1="171.481" x2="56.705" y2="171.481" gradientTransform="matrix(1, 0, 0, 1, 0, 0)" xlink:href="#a"/>
    <linearGradient id="v" x1="11.256" y1="390.974" x2="59.256" y2="390.974" gradientTransform="matrix(1, 0, 0, 1, 0, 0)" xlink:href="#a"/>
    <linearGradient id="w" x1="56.057" y1="113.919" x2="112.762" y2="113.919" gradientTransform="matrix(1, 0, 0, 1, 0, 0)" xlink:href="#a"/>
    <linearGradient id="x" x1="58.339" y1="275.221" x2="115.045" y2="275.221" gradientTransform="matrix(1, 0, 0, 1, 0, 0)" xlink:href="#a"/>
    <linearGradient id="y" x1="0" y1="87.302" x2="56.705" y2="87.302" gradientTransform="matrix(1, 0, 0, 1, 0, 0)" xlink:href="#a"/>
    <linearGradient id="z" x1="3.756" y1="318.01" x2="60.461" y2="318.01" gradientTransform="matrix(1, 0, 0, 1, 0, 0)" xlink:href="#a"/>
  </defs>
  <title>Bamboo</title>
  <g>
    <polygon points="55.256 473.429 64.256 473.429 58.423 5.595 52.423 7.595 55.256 473.429" fill="url(#q)"/>
    <path d="M59.654,384.762c-5.7,33.24,51.6,42.1,51.6,42.1C92.5,392.835,59.654,384.762,59.654,384.762Z" fill="url(#r)"/>
    <path d="M57.929,173.432c0,25.372,71.375,26.856,71.375,26.856C76.359,160.7,57.929,173.432,57.929,173.432Z" fill="url(#s)"/>
    <path d="M56.057,195.541s3.972,31.449,48,43.7C104.057,239.238,75.919,185.941,56.057,195.541Z" fill="url(#t)"/>
    <path d="M56.705,150.211s-3.972,31.448-48,43.7C8.705,193.908,36.843,140.611,56.705,150.211Z" fill="url(#u)"/>
    <path d="M59.256,369.7s-3.972,31.448-48,43.7C11.256,413.4,39.394,360.1,59.256,369.7Z" fill="url(#v)"/>
    <path d="M56.057,100.113s6.622,24.214,56.705,29.388C112.762,129.5,81.1,89.558,56.057,100.113Z" fill="url(#w)"/>
    <path d="M58.339,261.416s6.623,24.213,56.706,29.387C115.045,290.8,83.381,250.861,58.339,261.416Z" fill="url(#x)"/>
    <path d="M56.705,73.5S50.083,97.71,0,102.884C0,102.884,31.664,62.942,56.705,73.5Z" fill="url(#y)"/>
    <path d="M60.461,304.205s-6.622,24.213-56.7,29.387C3.756,333.592,35.42,293.65,60.461,304.205Z" fill="url(#z)"/>
    <g>
      <path d="M54.954,1.753C62.063,5.58,45.231,16.59,45.231,16.59S45.925-3.109,54.954,1.753Z" fill="#fff"/>
      <path d="M58.715,1.19c8.484-2.879,4.7,19.118,4.7,19.118S47.938,4.848,58.715,1.19Z" fill="#fff"/>
      <path d="M56.855,0c6.539.15-1.565,14.287-1.565,14.287S48.549-.188,56.855,0Z" fill="#fff"/>
    </g>
  </g>
</svg>
