<svg xmlns="http://www.w3.org/2000/svg" xmlns:xlink="http://www.w3.org/1999/xlink" width="111.577" height="402.808" viewBox="0 0 111.577 402.808">
  <defs>
    <linearGradient id="a" x1="8302.333" y1="-9044.993" x2="8302.333" y2="-9137.726" gradientTransform="matrix(1, 0, 0, -1, -8255, -8553.167)" gradientUnits="userSpaceOnUse">
      <stop offset="0" stop-color="#c5d654"/>
      <stop offset="1" stop-color="#a4bd47"/>
    </linearGradient>
    <linearGradient id="b" x1="8302.333" y1="-9011.41" x2="8302.333" y2="-9104.142" xlink:href="#a"/>
    <linearGradient id="c" x1="8302.333" y1="-8977.826" x2="8302.333" y2="-9070.559" xlink:href="#a"/>
    <linearGradient id="d" x1="8302.333" y1="-8944.243" x2="8302.333" y2="-9036.976" xlink:href="#a"/>
    <linearGradient id="e" x1="8302.333" y1="-8910.66" x2="8302.333" y2="-9003.392" xlink:href="#a"/>
    <linearGradient id="f" x1="8302.333" y1="-8877.076" x2="8302.333" y2="-8969.809" xlink:href="#a"/>
    <linearGradient id="g" x1="8302.333" y1="-8843.493" x2="8302.333" y2="-8936.226" xlink:href="#a"/>
    <linearGradient id="h" x1="8302.333" y1="-8809.91" x2="8302.333" y2="-8902.642" xlink:href="#a"/>
    <linearGradient id="i" x1="8302.333" y1="-8776.326" x2="8302.333" y2="-8869.059" xlink:href="#a"/>
    <linearGradient id="j" x1="8302.333" y1="-8742.743" x2="8302.333" y2="-8835.476" xlink:href="#a"/>
    <linearGradient id="k" x1="8302.333" y1="-8709.16" x2="8302.333" y2="-8801.892" xlink:href="#a"/>
    <linearGradient id="l" x1="8302.333" y1="-8675.576" x2="8302.333" y2="-8768.309" xlink:href="#a"/>
    <linearGradient id="m" x1="8302.333" y1="-8641.993" x2="8302.333" y2="-8734.726" xlink:href="#a"/>
    <linearGradient id="n" x1="8302.333" y1="-8608.41" x2="8302.333" y2="-8701.142" xlink:href="#a"/>
    <linearGradient id="o" x1="8302.333" y1="-8574.826" x2="8302.333" y2="-8667.559" xlink:href="#a"/>
    <linearGradient id="p" x1="8302.333" y1="-8541.243" x2="8302.333" y2="-8633.976" xlink:href="#a"/>
    <pattern id="q" data-name="New Pattern Swatch 2" width="94.667" height="537.417" patternTransform="translate(0 -503.286)" patternUnits="userSpaceOnUse" viewBox="0 0 94.667 537.417">
      <rect width="94.667" height="537.417" fill="none"/>
      <rect y="503.75" width="94.667" height="33.667" fill="url(#a)"/>
      <rect y="470.167" width="94.667" height="33.667" fill="url(#b)"/>
      <rect y="436.583" width="94.667" height="33.667" fill="url(#c)"/>
      <rect y="403" width="94.667" height="33.667" fill="url(#d)"/>
      <rect y="369.417" width="94.667" height="33.667" fill="url(#e)"/>
      <rect y="335.833" width="94.667" height="33.667" fill="url(#f)"/>
      <rect y="302.25" width="94.667" height="33.667" fill="url(#g)"/>
      <rect y="268.667" width="94.667" height="33.667" fill="url(#h)"/>
      <rect y="235.083" width="94.667" height="33.667" fill="url(#i)"/>
      <rect y="201.5" width="94.667" height="33.667" fill="url(#j)"/>
      <rect y="167.917" width="94.667" height="33.667" fill="url(#k)"/>
      <rect y="134.333" width="94.667" height="33.667" fill="url(#l)"/>
      <rect y="100.75" width="94.667" height="33.667" fill="url(#m)"/>
      <rect y="67.167" width="94.667" height="33.667" fill="url(#n)"/>
      <rect y="33.583" width="94.667" height="33.667" fill="url(#o)"/>
      <rect width="94.667" height="33.667" fill="url(#p)"/>
    </pattern>
    <linearGradient id="r" x1="54.661" y1="216.859" x2="96.898" y2="216.859" gradientTransform="matrix(1, 0, 0, 1, 0, 0)" xlink:href="#a"/>
    <linearGradient id="s" x1="58.756" y1="112.276" x2="106.756" y2="112.276" gradientTransform="matrix(1, 0, 0, 1, 0, 0)" xlink:href="#a"/>
    <linearGradient id="t" x1="26.677" y1="91.416" x2="58.243" y2="91.416" gradientTransform="matrix(1, 0, 0, 1, 0, 0)" xlink:href="#a"/>
    <linearGradient id="u" x1="10.897" y1="182.686" x2="58.897" y2="182.686" gradientTransform="matrix(1, 0, 0, 1, 0, 0)" xlink:href="#a"/>
    <linearGradient id="v" x1="2.955" y1="59.874" x2="59.661" y2="59.874" gradientTransform="matrix(1, 0, 0, 1, 0, 0)" xlink:href="#a"/>
    <linearGradient id="w" x1="54.872" y1="297.926" x2="111.577" y2="297.926" gradientTransform="matrix(1, 0, 0, 1, 0, 0)" xlink:href="#a"/>
    <linearGradient id="x" x1="0" y1="256.526" x2="56.705" y2="256.526" gradientTransform="matrix(1, 0, 0, 1, 0, 0)" xlink:href="#a"/>
  </defs>
  <title>Bamboo_3</title>
  <g>
    <polygon points="48.455 402.808 56.955 402.808 64.955 7.808 56.705 6.308 48.455 402.808" fill="url(#q)"/>
    <path d="M56.833,190.259c-13.465,30.92,40.065,53.2,40.065,53.2C86.8,205.935,56.833,190.259,56.833,190.259Z" fill="url(#r)"/>
    <path d="M58.756,91.006s3.972,31.448,48,43.7C106.756,134.7,78.618,81.406,58.756,91.006Z" fill="url(#s)"/>
    <path d="M57.816,62.98s6.493,31.026-31.139,56.954C26.677,119.934,35.909,60.377,57.816,62.98Z" fill="url(#t)"/>
    <path d="M58.9,161.416s-3.972,31.449-48,43.7C10.9,205.113,39.035,151.816,58.9,161.416Z" fill="url(#u)"/>
    <path d="M59.661,46.068S53.038,70.282,2.955,75.456C2.955,75.456,34.619,35.514,59.661,46.068Z" fill="url(#v)"/>
    <path d="M54.872,284.12s6.623,24.214,56.705,29.388C111.577,313.508,79.913,273.565,54.872,284.12Z" fill="url(#w)"/>
    <path d="M56.705,242.72S50.083,266.934,0,272.108C0,272.108,31.664,232.166,56.705,242.72Z" fill="url(#x)"/>
    <g>
      <path d="M59.455,1.355c4.625,4.625-11,9.25-11,9.25S53.58-4.52,59.455,1.355Z" fill="#fff"/>
      <path d="M60.538,3.094c7.766,2.207-6.3,16.583-6.3,16.583S50.674.29,60.538,3.094Z" fill="#fff"/>
      <path d="M64.09,1.735c7.664-4.639,8.7,17.658,8.7,17.658S54.353,7.628,64.09,1.735Z" fill="#fff"/>
      <path d="M62.017.975c6.418-1.262,1.548,14.289,1.548,14.289S53.864,2.577,62.017.975Z" fill="#fff"/>
      <path d="M64.958,1.141C68.822-4.136,75.779,10.6,75.779,10.6S60.049,7.845,64.958,1.141Z" fill="#fff"/>
    </g>
  </g>
</svg>
