<svg xmlns="http://www.w3.org/2000/svg" xmlns:xlink="http://www.w3.org/1999/xlink" width="135" height="398.272" viewBox="0 0 135 398.272">
  <defs>
    <linearGradient id="a" x1="8302.333" y1="-9044.993" x2="8302.333" y2="-9137.726" gradientTransform="matrix(1, 0, 0, -1, -8255, -8553.167)" gradientUnits="userSpaceOnUse">
      <stop offset="0" stop-color="#c5d654"/>
      <stop offset="1" stop-color="#a4bd47"/>
    </linearGradient>
    <linearGradient id="b" x1="8302.333" y1="-9011.41" x2="8302.333" y2="-9104.142" xlink:href="#a"/>
    <linearGradient id="c" x1="8302.333" y1="-8977.826" x2="8302.333" y2="-9070.559" xlink:href="#a"/>
    <linearGradient id="d" x1="8302.333" y1="-8944.243" x2="8302.333" y2="-9036.976" xlink:href="#a"/>
    <linearGradient id="e" x1="8302.333" y1="-8910.66" x2="8302.333" y2="-9003.392" xlink:href="#a"/>
    <linearGradient id="f" x1="8302.333" y1="-8877.076" x2="8302.333" y2="-8969.809" xlink:href="#a"/>
    <linearGradient id="g" x1="8302.333" y1="-8843.493" x2="8302.333" y2="-8936.226" xlink:href="#a"/>
    <linearGradient id="h" x1="8302.333" y1="-8809.91" x2="8302.333" y2="-8902.642" xlink:href="#a"/>
    <linearGradient id="i" x1="8302.333" y1="-8776.326" x2="8302.333" y2="-8869.059" xlink:href="#a"/>
    <linearGradient id="j" x1="8302.333" y1="-8742.743" x2="8302.333" y2="-8835.476" xlink:href="#a"/>
    <linearGradient id="k" x1="8302.333" y1="-8709.16" x2="8302.333" y2="-8801.892" xlink:href="#a"/>
    <linearGradient id="l" x1="8302.333" y1="-8675.576" x2="8302.333" y2="-8768.309" xlink:href="#a"/>
    <linearGradient id="m" x1="8302.333" y1="-8641.993" x2="8302.333" y2="-8734.726" xlink:href="#a"/>
    <linearGradient id="n" x1="8302.333" y1="-8608.41" x2="8302.333" y2="-8701.142" xlink:href="#a"/>
    <linearGradient id="o" x1="8302.333" y1="-8574.826" x2="8302.333" y2="-8667.559" xlink:href="#a"/>
    <linearGradient id="p" x1="8302.333" y1="-8541.243" x2="8302.333" y2="-8633.976" xlink:href="#a"/>
    <pattern id="q" data-name="New Pattern Swatch 2" width="94.667" height="537.417" patternTransform="translate(3.205 -502.4)" patternUnits="userSpaceOnUse" viewBox="0 0 94.667 537.417">
      <rect width="94.667" height="537.417" fill="none"/>
      <rect y="503.75" width="94.667" height="33.667" fill="url(#a)"/>
      <rect y="470.167" width="94.667" height="33.667" fill="url(#b)"/>
      <rect y="436.583" width="94.667" height="33.667" fill="url(#c)"/>
      <rect y="403" width="94.667" height="33.667" fill="url(#d)"/>
      <rect y="369.417" width="94.667" height="33.667" fill="url(#e)"/>
      <rect y="335.833" width="94.667" height="33.667" fill="url(#f)"/>
      <rect y="302.25" width="94.667" height="33.667" fill="url(#g)"/>
      <rect y="268.667" width="94.667" height="33.667" fill="url(#h)"/>
      <rect y="235.083" width="94.667" height="33.667" fill="url(#i)"/>
      <rect y="201.5" width="94.667" height="33.667" fill="url(#j)"/>
      <rect y="167.917" width="94.667" height="33.667" fill="url(#k)"/>
      <rect y="134.333" width="94.667" height="33.667" fill="url(#l)"/>
      <rect y="100.75" width="94.667" height="33.667" fill="url(#m)"/>
      <rect y="67.167" width="94.667" height="33.667" fill="url(#n)"/>
      <rect y="33.583" width="94.667" height="33.667" fill="url(#o)"/>
      <rect width="94.667" height="33.667" fill="url(#p)"/>
    </pattern>
    <linearGradient id="r" x1="7" y1="308.939" x2="61.753" y2="308.939" gradientTransform="matrix(1, 0, 0, 1, 0, 0)" xlink:href="#a"/>
    <linearGradient id="s" x1="63.625" y1="261.727" x2="135" y2="261.727" gradientTransform="matrix(1, 0, 0, 1, 0, 0)" xlink:href="#a"/>
    <linearGradient id="t" x1="0" y1="222.483" x2="64.463" y2="222.483" gradientTransform="matrix(1, 0, 0, 1, 0, 0)" xlink:href="#a"/>
    <linearGradient id="u" x1="69" y1="158.825" x2="117" y2="158.825" gradientTransform="matrix(1, 0, 0, 1, 0, 0)" xlink:href="#a"/>
    <linearGradient id="v" x1="72.939" y1="85.313" x2="106.003" y2="85.313" gradientTransform="matrix(1, 0, 0, 1, 0, 0)" xlink:href="#a"/>
    <linearGradient id="w" x1="61.753" y1="292.654" x2="109.753" y2="292.654" gradientTransform="matrix(1, 0, 0, 1, 0, 0)" xlink:href="#a"/>
    <linearGradient id="x" x1="14" y1="105.055" x2="70.705" y2="105.055" gradientTransform="matrix(1, 0, 0, 1, 0, 0)" xlink:href="#a"/>
  </defs>
  <title>Bamboo_5</title>
  <g>
    <polygon points="71 3.272 52.5 398.272 62 398.272 78 3.272 71 3.272" fill="url(#q)"/>
    <path d="M61.333,286.772c6,35-54.333,44.333-54.333,44.333C26.75,295.272,61.333,286.772,61.333,286.772Z" fill="url(#r)"/>
    <path d="M63.625,249.275C63.625,274.646,135,276.13,135,276.13,82.055,236.541,63.625,249.275,63.625,249.275Z" fill="url(#s)"/>
    <path d="M64.224,213.4S71.908,232.055,0,232.691C0,232.691,29.463,206.619,64.224,213.4Z" fill="url(#t)"/>
    <path d="M69,137.555s3.972,31.449,48,43.7C117,181.252,88.862,127.955,69,137.555Z" fill="url(#u)"/>
    <path d="M73.224,57.364S67.634,88.566,106,113.39C106,113.39,95.045,54.126,73.224,57.364Z" fill="url(#v)"/>
    <path d="M61.753,271.384s3.972,31.448,48,43.7C109.753,315.081,81.615,261.784,61.753,271.384Z" fill="url(#w)"/>
    <path d="M70.705,91.249S64.083,115.463,14,120.637C14,120.637,45.664,80.695,70.705,91.249Z" fill="url(#x)"/>
    <g>
      <path d="M72.083,1.355c4.625,4.625-11,9.25-11,9.25S66.208-4.52,72.083,1.355Z" fill="#fff"/>
      <path d="M73.166,3.094c7.766,2.207-6.3,16.583-6.3,16.583S63.3.29,73.166,3.094Z" fill="#fff"/>
      <path d="M76.717,1.735c7.665-4.639,8.706,17.658,8.706,17.658S66.981,7.628,76.717,1.735Z" fill="#fff"/>
      <path d="M74.645.975c6.418-1.262,1.548,14.289,1.548,14.289S66.492,2.577,74.645.975Z" fill="#fff"/>
      <path d="M77.586,1.141C81.45-4.136,88.407,10.6,88.407,10.6S72.677,7.845,77.586,1.141Z" fill="#fff"/>
    </g>
  </g>
</svg>
