<svg xmlns="http://www.w3.org/2000/svg" xmlns:xlink="http://www.w3.org/1999/xlink" width="112.225" height="346.745" viewBox="0 0 112.225 346.745">
  <defs>
    <linearGradient id="a" x1="8302.333" y1="-9044.993" x2="8302.333" y2="-9137.726" gradientTransform="matrix(1, 0, 0, -1, -8255, -8553.167)" gradientUnits="userSpaceOnUse">
      <stop offset="0" stop-color="#c5d654"/>
      <stop offset="1" stop-color="#a4bd47"/>
    </linearGradient>
    <linearGradient id="b" x1="8302.333" y1="-9011.41" x2="8302.333" y2="-9104.142" xlink:href="#a"/>
    <linearGradient id="c" x1="8302.333" y1="-8977.826" x2="8302.333" y2="-9070.559" xlink:href="#a"/>
    <linearGradient id="d" x1="8302.333" y1="-8944.243" x2="8302.333" y2="-9036.976" xlink:href="#a"/>
    <linearGradient id="e" x1="8302.333" y1="-8910.66" x2="8302.333" y2="-9003.392" xlink:href="#a"/>
    <linearGradient id="f" x1="8302.333" y1="-8877.076" x2="8302.333" y2="-8969.809" xlink:href="#a"/>
    <linearGradient id="g" x1="8302.333" y1="-8843.493" x2="8302.333" y2="-8936.226" xlink:href="#a"/>
    <linearGradient id="h" x1="8302.333" y1="-8809.91" x2="8302.333" y2="-8902.642" xlink:href="#a"/>
    <linearGradient id="i" x1="8302.333" y1="-8776.326" x2="8302.333" y2="-8869.059" xlink:href="#a"/>
    <linearGradient id="j" x1="8302.333" y1="-8742.743" x2="8302.333" y2="-8835.476" xlink:href="#a"/>
    <linearGradient id="k" x1="8302.333" y1="-8709.16" x2="8302.333" y2="-8801.892" xlink:href="#a"/>
    <linearGradient id="l" x1="8302.333" y1="-8675.576" x2="8302.333" y2="-8768.309" xlink:href="#a"/>
    <linearGradient id="m" x1="8302.333" y1="-8641.993" x2="8302.333" y2="-8734.726" xlink:href="#a"/>
    <linearGradient id="n" x1="8302.333" y1="-8608.41" x2="8302.333" y2="-8701.142" xlink:href="#a"/>
    <linearGradient id="o" x1="8302.333" y1="-8574.826" x2="8302.333" y2="-8667.559" xlink:href="#a"/>
    <linearGradient id="p" x1="8302.333" y1="-8541.243" x2="8302.333" y2="-8633.976" xlink:href="#a"/>
    <pattern id="q" data-name="New Pattern Swatch 2" width="94.667" height="537.417" patternTransform="translate(0 -503.286)" patternUnits="userSpaceOnUse" viewBox="0 0 94.667 537.417">
      <rect width="94.667" height="537.417" fill="none"/>
      <rect y="503.75" width="94.667" height="33.667" fill="url(#a)"/>
      <rect y="470.167" width="94.667" height="33.667" fill="url(#b)"/>
      <rect y="436.583" width="94.667" height="33.667" fill="url(#c)"/>
      <rect y="403" width="94.667" height="33.667" fill="url(#d)"/>
      <rect y="369.417" width="94.667" height="33.667" fill="url(#e)"/>
      <rect y="335.833" width="94.667" height="33.667" fill="url(#f)"/>
      <rect y="302.25" width="94.667" height="33.667" fill="url(#g)"/>
      <rect y="268.667" width="94.667" height="33.667" fill="url(#h)"/>
      <rect y="235.083" width="94.667" height="33.667" fill="url(#i)"/>
      <rect y="201.5" width="94.667" height="33.667" fill="url(#j)"/>
      <rect y="167.917" width="94.667" height="33.667" fill="url(#k)"/>
      <rect y="134.333" width="94.667" height="33.667" fill="url(#l)"/>
      <rect y="100.75" width="94.667" height="33.667" fill="url(#m)"/>
      <rect y="67.167" width="94.667" height="33.667" fill="url(#n)"/>
      <rect y="33.583" width="94.667" height="33.667" fill="url(#o)"/>
      <rect width="94.667" height="33.667" fill="url(#p)"/>
    </pattern>
    <linearGradient id="r" x1="57.472" y1="268.412" x2="112.225" y2="268.412" gradientTransform="matrix(1, 0, 0, 1, 0, 0)" xlink:href="#a"/>
    <linearGradient id="s" x1="58.25" y1="44.797" x2="110.25" y2="44.797" gradientTransform="matrix(1, 0, 0, 1, 0, 0)" xlink:href="#a"/>
    <linearGradient id="t" x1="56.5" y1="192.296" x2="84.849" y2="192.296" gradientTransform="matrix(1, 0, 0, 1, 0, 0)" xlink:href="#a"/>
    <linearGradient id="u" x1="10.391" y1="141.798" x2="58.391" y2="141.798" gradientTransform="matrix(1, 0, 0, 1, 0, 0)" xlink:href="#a"/>
    <linearGradient id="v" x1="8.5" y1="84.29" x2="56.5" y2="84.29" gradientTransform="matrix(1, 0, 0, 1, 0, 0)" xlink:href="#a"/>
    <linearGradient id="w" x1="0" y1="239.028" x2="56.705" y2="239.028" gradientTransform="matrix(1, 0, 0, 1, 0, 0)" xlink:href="#a"/>
  </defs>
  <title>Bamboo_4</title>
  <g>
    <polygon points="51 346.745 60.5 346.745 62 4.745 52.5 4.745 51 346.745" fill="url(#q)"/>
    <path d="M57.892,246.245c-6,35,54.333,44.333,54.333,44.333C92.475,254.745,57.892,246.245,57.892,246.245Z" fill="url(#r)"/>
    <path d="M58.648,23.745c-5.7,33.24,51.6,42.1,51.6,42.1C91.493,31.818,58.648,23.745,58.648,23.745Z" fill="url(#s)"/>
    <path d="M57.362,162.9s-8.437,30.555,27.487,58.8C84.849,221.707,79.388,161.687,57.362,162.9Z" fill="url(#t)"/>
    <path d="M58.391,120.528s-3.972,31.448-48,43.7C10.391,164.225,38.529,110.928,58.391,120.528Z" fill="url(#u)"/>
    <path d="M56.5,63.02s-3.972,31.448-48,43.7C8.5,106.716,36.638,53.42,56.5,63.02Z" fill="url(#v)"/>
    <path d="M56.705,225.222S50.083,249.436,0,254.61C0,254.61,31.664,214.668,56.705,225.222Z" fill="url(#w)"/>
    <g>
      <path d="M53.838,1.355c4.625,4.625-11,9.25-11,9.25S47.963-4.52,53.838,1.355Z" fill="#fff"/>
      <path d="M54.921,3.094c7.765,2.207-6.3,16.583-6.3,16.583S45.056.29,54.921,3.094Z" fill="#fff"/>
      <path d="M58.472,1.735c7.665-4.639,8.705,17.658,8.705,17.658S48.736,7.628,58.472,1.735Z" fill="#fff"/>
      <path d="M56.4.975c6.417-1.262,1.547,14.289,1.547,14.289S48.247,2.577,56.4.975Z" fill="#fff"/>
      <path d="M59.34,1.141C63.2-4.136,70.162,10.6,70.162,10.6S54.432,7.845,59.34,1.141Z" fill="#fff"/>
    </g>
  </g>
</svg>
