<svg xmlns="http://www.w3.org/2000/svg" xmlns:xlink="http://www.w3.org/1999/xlink" width="1867.399" height="339.769" viewBox="0 0 1867.399 339.769">
  <defs>
    <linearGradient id="a" y1="169.884" x2="1867.399" y2="169.884" gradientUnits="userSpaceOnUse">
      <stop offset="0" stop-color="#c5d654"/>
      <stop offset="1" stop-color="#a4bd47"/>
    </linearGradient>
  </defs>
  <title>BgBush_1</title>
  <path d="M1847.514,293.22s14.2-14.111-1.939-26.3-36.407,1.907-36.407,1.907-3.993-16.19-34.326-16.286-38.493,22.122-38.493,22.122-1.977-14.161-22.212-10.181-22.3,18.13-22.3,18.13,2.086-20.216-22.161-26.36-34.41,10-34.41,10-1.964-18.206-26.231-18.283a33.171,33.171,0,0,0-11.295,1.838,25.775,25.775,0,0,0-10.112-1.369s4.609-3.668-.281-9.812-11.505,2.883-11.505,2.883,2.791-12.258-9.467-15.048c-9.933-2.263-17.19,12.295-19.585,17.9.625-2.616.239-7.045-7.878-9.843-10.445-3.6-22.052,3.075-25.033,4.969,2.359-1.694,9.562-8.053,8.827-22.181-.876-16.866-23.1-18-23.1-18s20.441-20.03,8.216-35.393S1467,178.84,1467,178.84s.66-18.089-22.507-10.943c-9.3,2.868-11.813,9.434-11.494,16.266-5.4-8.952-18.137-7.715-18.137-7.715s4.609-3.668-.281-9.813-11.5,2.883-11.5,2.883,2.79-12.257-9.467-15.048c-9.933-2.262-17.19,12.295-19.585,17.9.624-2.616.239-7.046-7.878-9.843-10.445-3.6-22.052,3.074-25.033,4.969,2.359-1.694,9.562-8.054,8.827-22.181-.876-16.866-23.1-18-23.1-18s20.441-20.031,8.216-35.393-40.818,14.919-40.818,14.919.66-18.088-22.508-10.942-4.234,37.242-4.234,37.242-15.3-12.917-27.9-.378,5.61,24.391,5.61,24.391-15.566-6.418-28.156.768a32.848,32.848,0,0,0-.227-8.881c-2.581-16.69-24.808-15.563-24.808-15.563s18.307-22,4.588-36.043-39.1,18.978-39.1,18.978-1.177-18.062-23.5-8.605c-7.175,3.039-9.779,8-10.015,13.326a39.556,39.556,0,0,0-5.715,1.282s-9.989-8-33.576-7.217-28.584,17.619-28.584,17.619-10.03-12.24-21.9-18.1a20.179,20.179,0,0,0-1.814-4.358c-5.7-9.974-16.72-10.823-25.762-9.446a37.98,37.98,0,0,0-9.835-3.133c3.482-7.375,6.486-19.58-1.786-32.815-13.352-21.362-26.7-13.351-26.7-13.351S976.319,3.553,954.957.883,933.6,16.9,933.6,16.9,901.553-12.468,882.861,6.223s8.011,50.734,8.011,50.734-21.362-8.01-32.043,5.341,0,29.372,0,29.372-8.011-5.34-16.022-2.67c-5.119,1.707-8.055,6.683-9.509,10.054-.537.084-1.059.178-1.572.28-1.039-4.641-4.785-13-18.291-13-14.852,0-17.9,6.739-18.526,9.51.036-2.223-1.352-6.84-13.517-6.84-16.021,0-13.351,13.351-13.351,13.351a13.415,13.415,0,0,0-13.351-2.67c-8.01,2.67-5.34,16.022-5.34,16.022s-8.011-8.011-21.362,5.34-2.67,26.7-2.67,26.7a52.2,52.2,0,0,0-7.433,7.756,15.365,15.365,0,0,0-8.9-.7c-12.478,3.12-10.918,14.038-10.918,14.038a13.679,13.679,0,0,0-14.038,7.8c-4.68,9.358,4.679,15.6,4.679,15.6-1.471,2.943,1.219,10.043,1.528,10.839-.239-.589-2.109-4.484-9.327-3.04-7.8,1.56-7.8,6.239-7.8,6.239a11.842,11.842,0,0,0-14.037-4.679c-9.359,3.119-6.24,12.478-6.24,12.478s-3.119-4.679-10.918,1.56,3.119,17.157,3.119,17.157-21.836-4.679-24.956,14.038c-.087.528-.153,1.041-.207,1.547-15.125-1.829-31.569,5.638-31.569,5.638s20.582-24.012,3.43-51.453-34.3-17.151-34.3-17.151,10.291-61.745-17.151-65.175-27.442,20.582-27.442,20.582-41.163-37.733-65.175-13.721,10.291,65.174,10.291,65.174-27.441-10.291-41.162,6.86,0,37.733,0,37.733S406.5,230,396.209,233.432a16.21,16.21,0,0,0-5.744,3.435,20.022,20.022,0,0,0-7.516-4.471s12.494,0,9.718-18.047-22.212-13.882-22.212-13.882,4.165-4.165-1.388-9.718-11.106,4.164-11.106,4.164,1.388-12.494-11.106-13.882c-10.126-1.125-15.691,14.159-17.438,20,.325-2.67-.559-7.028-8.939-8.89-10.786-2.4-21.564,5.547-24.312,7.765,2.153-1.949,8.591-9.081,6.265-23.035-2.776-16.66-24.988-15.271-24.988-15.271s18.047-22.212,4.164-36.095-38.87,19.436-38.87,19.436-1.389-18.047-23.6-8.33,0,37.483,0,37.483-16.66-11.106-27.766,2.777,8.33,23.6,8.33,23.6-29.153-8.33-37.482,18.047c-3.043,9.636-.9,16.49,3.052,21.313a78.684,78.684,0,0,0-4.931,17.867s-4.131-9.732-12.47-6.985c-7.534,2.483-4.885,9.533-4.3,10.87-.557-1.147-3.548-6.284-11-2.593-8.344,4.136-4.218,15.257-4.218,15.257s-6.922-5.578-12.47-6.985-11.13,6.9-11.13,6.9-2.709-19.445-24.921-19.521S51.967,283.7,51.967,283.7s-4.141-6.956-16.644-4.223S26.9,305.823,26.9,305.823s-13.849-9.766-23.629,8.248S8.745,337.69,8.745,337.69s136.869,3.684,227.876,1.243a11.61,11.61,0,0,0,1.8.836H626.034s.141-.281.388-.794l6.987.022a19.7,19.7,0,0,0,2.267.772h439.852c.167-.167.321-.33.485-.5l425.129.495a29.773,29.773,0,0,0,7.494-1.095l138.047,1.1c.444-.218.853-.442,1.245-.67l211.571.67c12.153-6.028,4.1-16.165,4.1-16.165C1877.834,297.36,1847.514,293.22,1847.514,293.22Z" fill="url(#a)"/>
</svg>
