<svg xmlns="http://www.w3.org/2000/svg" xmlns:xlink="http://www.w3.org/1999/xlink" width="463.833" height="137.815" viewBox="0 0 463.833 137.815">
  <defs>
    <linearGradient id="a" y1="68.908" x2="463.833" y2="68.908" gradientUnits="userSpaceOnUse">
      <stop offset="0" stop-color="#005437"/>
      <stop offset="1" stop-color="#006837"/>
    </linearGradient>
  </defs>
  <title>Bush_4</title>
  <path d="M453.468,111.554s12.493.147,9.929-17.932S441.349,79.48,441.349,79.48s4.213-4.115-1.274-9.733-11.154,4.034-11.154,4.034,1.535-12.477-10.943-14.012c-10.111-1.243-15.856,13.975-17.671,19.79.357-2.665-.476-7.033-8.834-8.994-10.757-2.523-21.628,5.294-24.4,7.48,2.175-1.924,8.7-8.98,6.535-22.961C371.025,38.394,348.8,39.521,348.8,39.521s18.306-22,4.588-36.043-39.1,18.979-39.1,18.979-1.176-18.063-23.5-8.606c-7.176,3.039-9.78,8-10.016,13.326a39.4,39.4,0,0,0-5.714,1.282s-9.99-8-33.577-7.218S212.9,38.86,212.9,38.86s-18.822-22.987-35.425-21.046-19.7,33.992-19.7,33.992-4.485-9.574-12.718-6.522c-7.438,2.757-4.533,9.7-3.9,11.019-.6-1.127-3.777-6.149-11.082-2.187-8.187,4.439-3.655,15.4-3.655,15.4s-7.122-5.32-12.718-6.523-10.87,7.307-10.87,7.307S99.4,50.969,77.2,51.707s-26.781,30.06-26.781,30.06-4.393-6.8-16.788-3.609S26.187,104.8,26.187,104.8s-14.2-9.251-23.31,9.109,6.334,23.4,6.334,23.4l434.23.506s15.27.179,19.565-10.877S453.468,111.554,453.468,111.554Z" fill="url(#a)"/>
</svg>
