<svg xmlns="http://www.w3.org/2000/svg" xmlns:xlink="http://www.w3.org/1999/xlink" width="301.681" height="165.895" viewBox="0 0 301.681 165.895">
  <defs>
    <linearGradient id="a" x1="517.808" y1="767.361" x2="532.525" y2="653.116" gradientTransform="translate(-247.332 -581.767) rotate(5.433)" gradientUnits="userSpaceOnUse">
      <stop offset="0" stop-color="#66421f"/>
      <stop offset="1" stop-color="#754c24"/>
    </linearGradient>
    <linearGradient id="b" x1="385.619" y1="746.71" x2="400.527" y2="630.978" xlink:href="#a"/>
    <linearGradient id="c" x1="460.823" y1="756.475" x2="475.381" y2="643.458" xlink:href="#a"/>
    <linearGradient id="d" x1="12264.148" y1="-5320.728" x2="12562.287" y2="-5320.728" gradientTransform="translate(11935.957 -6517.481) rotate(173.959)" gradientUnits="userSpaceOnUse">
      <stop offset="0" stop-color="#5a8539"/>
      <stop offset="1" stop-color="#46952f"/>
    </linearGradient>
  </defs>
  <title>Bush_21</title>
  <g>
    <path d="M203.168,165.9h25a113.651,113.651,0,0,0-2.846-15.564c-1.387-5.595-10.988-12.774-24.737-20.441.511,3.444,1,6.888,1.275,10.319C202.548,148.761,202.768,157.326,203.168,165.9Z" fill="url(#a)"/>
    <path d="M83.791,165.9h23.285a237.413,237.413,0,0,0-12.188-46.107A311.354,311.354,0,0,0,75.575,77.706c-.985-.343-1.516-.525-1.516-.525L55.746,93.068S83.725,133.207,83.791,165.9Z" fill="url(#b)"/>
    <path d="M172.958,165.9c.328-13.793.213-27.606.281-41.4q.021-4.112.021-8.227c-9.734-4.451-20.04-8.852-30.187-13.01-2.711,18.8-6.57,37.327-10.694,55.762q-.768,3.441-1.572,6.875Z" fill="url(#c)"/>
    <path d="M205.669,54.643s22.777-17.572,39.447-21.231,23.878,10.739,23.194,22.182c0,0,34.132.179,33.358,28.688s-35.1,26.457-35.1,26.457,8.4,25.643-20.6,38.188-53.072-.07-53.072-.07-11.929,12.634-25.643,8.4-16.779-15.281-16.779-15.281-23.372,11.949-32.654-4.125-35.52-13.3-42.135-22.074-5.136-12.722-5.136-12.722-12.128,10.759-36.6-5.6S-8.781,69.756,4.428,51.3,35.495,40.434,35.495,40.434s-9.678-19.823,6.991-23.482,33.646,13.5,33.646,13.5S62.507,9.148,83.123,6.966,114.5,16.912,114.5,16.912s9.064-21.806,24.85-15.9,19.843,26.327,19.843,26.327,17.155-16.976,24.364-2.578S171.626,37.4,178.24,46.174,205.669,54.643,205.669,54.643Z" fill="url(#d)"/>
  </g>
</svg>
