<svg xmlns="http://www.w3.org/2000/svg" xmlns:xlink="http://www.w3.org/1999/xlink" width="345.526" height="91.794" viewBox="0 0 345.526 91.794">
  <defs>
    <linearGradient id="a" x1="160.588" y1="616.62" x2="506.107" y2="616.62" gradientTransform="translate(-158.573 -571.901) rotate(0.181)" gradientUnits="userSpaceOnUse">
      <stop offset="0" stop-color="#5a8539"/>
      <stop offset="1" stop-color="#46952f"/>
    </linearGradient>
  </defs>
  <title>Bush_23</title>
  <path d="M24.183,90.8S-.077,88.7,0,64.436s22.321-24.2,22.321-24.2S12.249,28.074,30.487,16s26.27,6.149,26.27,6.149S62.894-.077,87.16,0s26.231,18.283,26.231,18.283,10.163-16.145,34.41-10S169.962,34.64,169.962,34.64s2.067-14.149,22.3-18.129,22.212,10.181,22.212,10.181,8.16-22.218,38.493-22.122S287.3,20.856,287.3,20.856,307.562,6.765,323.7,18.949s1.939,26.3,1.939,26.3,30.321,4.14,16.082,30.384c0,0,8.057,10.137-4.1,16.165Z" fill="url(#a)"/>
</svg>
