<svg xmlns="http://www.w3.org/2000/svg" xmlns:xlink="http://www.w3.org/1999/xlink" width="232.667" height="136.655" viewBox="0 0 232.667 136.655">
  <defs>
    <linearGradient id="a" y1="68.328" x2="232.667" y2="68.328" gradientUnits="userSpaceOnUse">
      <stop offset="0" stop-color="#2b773e"/>
      <stop offset="1" stop-color="#27954f"/>
    </linearGradient>
  </defs>
  <title>Bush_16</title>
  <path d="M23.651,128.326S-6.89,122.773,1.439,96.4,38.922,78.349,38.922,78.349s-19.435-9.718-8.33-23.6,27.765-2.776,27.765-2.776-22.212-27.765,0-37.483,23.6,8.329,23.6,8.329S106.946-10.5,120.828,3.384s-4.164,36.094-4.164,36.094,22.212-1.388,24.988,15.271-6.941,23.6-6.941,23.6S147.205,67.243,159.7,70.02s8.33,11.106,8.33,11.106,5.553-23.6,18.047-22.212S197.182,72.8,197.182,72.8s5.553-9.718,11.106-4.165,1.388,9.718,1.388,9.718,19.435-4.165,22.212,13.883-9.718,18.047-9.718,18.047,13.883,4.165,9.718,15.27-19.436,11.106-19.436,11.106H22.263S18.1,132.491,23.651,128.326Z" fill="url(#a)"/>
</svg>
