<svg xmlns="http://www.w3.org/2000/svg" xmlns:xlink="http://www.w3.org/1999/xlink" width="229.713" height="400" viewBox="0 0 229.713 400">
  <defs>
    <linearGradient id="a" x1="-30.318" y1="-163.091" x2="-120.985" y2="145.576" gradientTransform="translate(104.85 151.33) rotate(-4.297)" gradientUnits="userSpaceOnUse">
      <stop offset="0" stop-color="#5a8539"/>
      <stop offset="1" stop-color="#46952f"/>
    </linearGradient>
    <linearGradient id="b" x1="473.701" y1="460.337" x2="383.034" y2="769.004" gradientTransform="translate(-236.502 -512.528) rotate(10.379)" xlink:href="#a"/>
    <linearGradient id="c" x1="1929.874" y1="1286.584" x2="1839.207" y2="1595.251" gradientTransform="matrix(0.769, 0.64, -0.64, 0.769, -283.688, -2404.386)" xlink:href="#a"/>
    <linearGradient id="d" x1="6817.058" y1="-676.913" x2="6726.391" y2="-368.247" gradientTransform="matrix(-0.922, 0.386, 0.386, 0.922, 7076.275, -1348.796)" xlink:href="#a"/>
    <linearGradient id="e" x1="1634.722" y1="1168.544" x2="1544.055" y2="1477.211" gradientTransform="translate(-333.315 -1962.768) rotate(31.525)" xlink:href="#a"/>
    <linearGradient id="f" x1="4996.623" y1="10.932" x2="4905.956" y2="319.599" gradientTransform="matrix(-1, 0, 0, 1, 4979.651, 0)" xlink:href="#a"/>
    <linearGradient id="g" x1="193.521" y1="58.608" x2="102.854" y2="367.274" gradientTransform="matrix(1, 0, 0, 1, 0, 0)" xlink:href="#a"/>
  </defs>
  <title>HugeVine_6</title>
  <g>
    <path d="M44.492,187.765c-.887-11.8-8.153-30.308-21.814-25.271s.2,16.03,3.891,11.742a6.051,6.051,0,0,0,.4-8.053c.768-1.567,17.914,8.338,1.5,19.944-9.522,6.733-23.932,1.8-27.823-9.943-2.29-6.911.294-36.124,28.815-30.244S44.492,187.765,44.492,187.765Z" fill="url(#a)"/>
    <path d="M117.341,136.049c2.132-11.64-.208-31.385-14.7-29.972s-3.866,15.558.789,12.344a6.05,6.05,0,0,0,2.425-7.689c1.14-1.322,15.218,12.6-3.6,19.673-10.918,4.1-23.608-4.324-24.4-16.668-.464-7.266,9.437-34.871,35.538-21.957S117.341,136.049,117.341,136.049Z" fill="url(#b)"/>
    <path d="M55.771,57.253s3.54-13.835-6.271-15.771-4.695,10.63-4.695,10.63-5.517,1.638-12.47-6.227-.623-19.211,5.3-22.586,14-1.847,21.256,3.157S73.268,47.062,55.771,57.253Z" fill="url(#c)"/>
    <path d="M143.869,242.991s1.183-25.177,18.741-23.37,2.423,20.367,2.423,20.367,8.463,5.618,24.265-4.056,10.99-32.1,2.738-40.857-22.668-10.358-37.5-5.67S119.614,216.743,143.869,242.991Z" fill="url(#d)"/>
    <path d="M162.958,129.023s10.3-34.771,35.021-19.607-1,32.233-1,32.233,12.457,6.468,25.085-4.556,10.242-30.085-11.784-40.077S152.876,88.848,162.958,129.023Z" fill="url(#e)"/>
    <path d="M47.3,400s22-195-40-400h17s66,121,66,400Z" fill="url(#f)"/>
    <path d="M146.884,400s-33.9-195,61.64-400h-26.2S80.62,121,80.62,400Z" fill="url(#g)"/>
  </g>
</svg>
