<svg xmlns="http://www.w3.org/2000/svg" xmlns:xlink="http://www.w3.org/1999/xlink" width="451.98" height="399" viewBox="0 0 451.98 399">
  <defs>
    <linearGradient id="a" x1="-369.708" y1="-901.362" x2="-369.708" y2="-594.859" gradientTransform="translate(959.288 744.337) rotate(-28.802)" gradientUnits="userSpaceOnUse">
      <stop offset="0" stop-color="#5a8539"/>
      <stop offset="1" stop-color="#46952f"/>
    </linearGradient>
    <linearGradient id="b" x1="577.789" y1="301.059" x2="577.789" y2="607.562" gradientTransform="matrix(0.996, 0.087, -0.087, 0.996, -126.655, -184.027)" xlink:href="#a"/>
    <linearGradient id="c" x1="1172.571" y1="566.063" x2="1172.571" y2="872.567" gradientTransform="matrix(0.623, -0.782, 0.782, 0.623, -1029.134, 639.519)" xlink:href="#a"/>
    <linearGradient id="d" x1="213.959" y1="-681.163" x2="213.959" y2="1323.672" gradientTransform="matrix(1, 0, 0, 1, 0, 0)" xlink:href="#a"/>
  </defs>
  <title>HugeVine_13</title>
  <g>
    <path d="M301.605,253.217s-19.4-26.99-47.445-11.573-7.583,23.569-.573,19.715,3.551-12.223,3.551-12.223,9.244-3.941,16.471,9.2-3.509,24.753-12.271,29.57-25.675,7.269-35.792-11.133-3.236-37.021,16.918-48.1,54.808-6.169,54.808-6.169l22.515,26.422,1.138,6.221Z" fill="url(#a)"/>
    <path d="M393.7,252.311s-6.332-35.708,22.559-33.2,13.516,29.28,13.516,29.28,14.034.216,20.4-15.291-4.29-31.489-28.459-30.579S366.716,220.883,393.7,252.311Z" fill="url(#b)"/>
    <path d="M151.41,127s-53.167-35.977-28.7-66.672,41.348.665,32,12.395-25.289,6.06-25.289,6.06,19.272,33.581,41.086,6.209,3.044-42.328-7.123-50.43-30.763-12.744-49.941,11.321S98.129,113.63,151.41,127Z" fill="url(#c)"/>
    <path d="M1.251,0S-28.821,159.025,205.918,197.35C369.251,224.017,303.251,399,303.251,399H427.918s-7.334-264.317-169.334-264.317S39.918,57.317,39.918,0Z" fill="url(#d)"/>
  </g>
</svg>
