<svg xmlns="http://www.w3.org/2000/svg" xmlns:xlink="http://www.w3.org/1999/xlink" width="206.977" height="400" viewBox="0 0 206.977 400">
  <defs>
    <linearGradient id="a" x1="-279.853" y1="-262.874" x2="-279.853" y2="43.63" gradientTransform="translate(342.042 287.188) rotate(-6.966)" gradientUnits="userSpaceOnUse">
      <stop offset="0" stop-color="#005437"/>
      <stop offset="1" stop-color="#006837"/>
    </linearGradient>
    <linearGradient id="b" x1="48" y1="59" x2="48" y2="365.504" gradientTransform="matrix(1, 0, 0, 1, 0, 0)" xlink:href="#a"/>
    <linearGradient id="c" x1="137.427" y1="59" x2="137.427" y2="365.504" gradientTransform="matrix(1, 0, 0, 1, 0, 0)" xlink:href="#a"/>
    <linearGradient id="d" x1="2291.151" y1="986.013" x2="2291.151" y2="1292.517" gradientTransform="matrix(0.799, 0.601, -0.601, 0.799, -1135.725, -2101.208)" xlink:href="#a"/>
    <linearGradient id="e" x1="6178.38" y1="-1118.97" x2="6178.38" y2="-812.466" gradientTransform="matrix(-0.922, 0.386, 0.386, 0.922, 6259.347, -1184.582)" xlink:href="#a"/>
    <linearGradient id="f" x1="2019.232" y1="941.747" x2="2019.232" y2="1248.251" gradientTransform="translate(-1026.709 -1789.056) rotate(31.525)" xlink:href="#a"/>
    <linearGradient id="g" x1="118.494" y1="59" x2="118.494" y2="365.504" gradientTransform="matrix(1, 0, 0, 1, 0, 0)" xlink:href="#a"/>
  </defs>
  <title>HugeVine_3</title>
  <g>
    <path d="M64.648,165.4c-1.435-11.746-9.555-29.9-22.967-24.227s.948,16,4.434,11.547a6.05,6.05,0,0,0,.022-8.062c.7-1.6,18.283,7.494,2.426,19.853-9.2,7.168-23.823,2.91-28.257-8.637-2.609-6.8-1.388-36.1,27.376-31.553S64.648,165.4,64.648,165.4Z" fill="url(#a)"/>
    <path d="M78,241.5s-4-33-36-33-18,17-10,17,9-9,9-9,10,1,10,16-15,20-25,20-26-6-26-27,15-34,38-34,51,21,51,21l7,34-2,6Z" fill="url(#b)"/>
    <path d="M128.485,287.308S124.5,266.5,138.5,264.5s18,10,18,10,3-22-17-22-21,15-21,15S115.471,287.308,128.485,287.308Z" fill="url(#c)"/>
    <path d="M106.775,88.016s2.848-13.993-7.047-15.44-4.161,10.85-4.161,10.85-5.429,1.91-12.764-5.6-1.577-19.156,4.173-22.822,13.89-2.54,21.387,2.1S123.744,76.969,106.775,88.016Z" fill="url(#d)"/>
    <path d="M125.464,242.991s1.183-25.177,18.74-23.37,2.424,20.367,2.424,20.367,8.463,5.618,24.265-4.056,10.99-32.1,2.737-40.857-22.667-10.358-37.5-5.67S101.208,216.743,125.464,242.991Z" fill="url(#e)"/>
    <path d="M140.221,129.023s10.3-34.771,35.021-19.607-1,32.233-1,32.233,12.457,6.468,25.085-4.556,10.242-30.085-11.784-40.077S130.14,88.848,140.221,129.023Z" fill="url(#f)"/>
    <path d="M154.5,400s-29-71-29-167,56-233,56-233h-11s-44,82-51,152c0,0-7-77,29-152h-10s-42,58-42,198c0,0-29-58-29-198h-11s-8,103,21,240-20,160-20,160Z" fill="url(#g)"/>
  </g>
</svg>
