<svg xmlns="http://www.w3.org/2000/svg" xmlns:xlink="http://www.w3.org/1999/xlink" width="205.383" height="399" viewBox="0 0 205.383 399">
  <defs>
    <linearGradient id="a" x1="-1068.042" y1="-1305.872" x2="-1068.042" y2="-999.368" gradientTransform="matrix(0.947, 0.321, -0.321, 0.947, 683.261, 1689.784)" gradientUnits="userSpaceOnUse">
      <stop offset="0" stop-color="#005437"/>
      <stop offset="1" stop-color="#006837"/>
    </linearGradient>
    <linearGradient id="b" x1="407.887" y1="317.567" x2="407.887" y2="624.071" gradientTransform="matrix(0.996, 0.087, -0.087, 0.996, -224.459, -212.975)" xlink:href="#a"/>
    <linearGradient id="c" x1="161.643" y1="85.669" x2="161.643" y2="392.173" gradientTransform="matrix(1, 0, 0, 1, 0, 0)" xlink:href="#a"/>
    <linearGradient id="d" x1="80.79" y1="57.893" x2="80.79" y2="364.493" gradientTransform="matrix(1, 0, 0, 1, 0, 0)" xlink:href="#a"/>
  </defs>
  <title>HugeVine_19</title>
  <g>
    <path d="M70.564,265.486s6.821-32.534-23.481-42.821-22.509,10.311-14.934,12.883,11.416-5.629,11.416-5.629,9.147,4.162,4.325,18.366-20.633,14.116-30.1,10.9S-4.9,245.147,1.848,225.261s25.133-27.373,46.913-19.979S90.3,241.562,90.3,241.562L86,276.008l-3.822,5.038Z" fill="url(#a)"/>
    <path d="M125.2,225.1s-6.332-35.708,22.559-33.2,13.516,29.28,13.516,29.28,14.034.216,20.4-15.291-4.29-31.49-28.46-30.579S98.219,193.672,125.2,225.1Z" fill="url(#b)"/>
    <path d="M125.633,123.418s-5-64,34.25-64,25.25,32.75,10.25,32.75-20.5-16-20.5-16-14.25,36,20.75,36,35-24,35-37-9.206-32-39.978-32S102.883,73.418,125.633,123.418Z" fill="url(#c)"/>
    <path d="M66.088,0s41,218.65-32,399h64s43-69.35,25-399Z" fill="url(#d)"/>
  </g>
</svg>
