<svg xmlns="http://www.w3.org/2000/svg" xmlns:xlink="http://www.w3.org/1999/xlink" width="223.928" height="173.722" viewBox="0 0 223.928 173.722">
  <defs>
    <linearGradient id="a" x1="64.367" y1="105.401" x2="181.481" y2="105.401" gradientUnits="userSpaceOnUse">
      <stop offset="0" stop-color="#5c596c"/>
      <stop offset="1" stop-color="#b4a0a1"/>
    </linearGradient>
    <linearGradient id="b" x1="0" y1="86.861" x2="155.1" y2="86.861" xlink:href="#a"/>
    <linearGradient id="c" x1="110.534" y1="128.386" x2="223.928" y2="128.386" xlink:href="#a"/>
  </defs>
  <title>Rocks_6</title>
  <g>
    <path d="M75.1,173.722s-11.683-29.716-10.667-49.78,10.16-24.636,17.779-34.795,30.985-33.272,42.16-40.637,13.715-11.429,17.525-11.429,32.763,23.112,34.795,34.8,6.858,44.954,3.81,55.114-12.953,46.732-12.953,46.732Z" fill="url(#a)"/>
    <path d="M.681,173.722s-3.556-37.589,5.587-57.907,9.235-49,20.826-69.083S56.048,0,70.271,0s33.017,17.108,38.1,25.906,27.937,49.78,30.477,69.59.08,30.725,6.1,41.145S155.1,173.722,155.1,173.722Z" fill="url(#b)"/>
    <path d="M125.638,118.608s37.589-35.557,53.59-35.557S197.26,97.02,207.42,106.417s9.651,8.382,10.667,16,3.048,39.113,5.841,51.3H111.416S105.228,136.086,125.638,118.608Z" fill="url(#c)"/>
  </g>
</svg>
