<svg xmlns="http://www.w3.org/2000/svg" xmlns:xlink="http://www.w3.org/1999/xlink" width="285.134" height="179.525" viewBox="0 0 285.134 179.525">
  <defs>
    <linearGradient id="a" x1="43.589" y1="89.762" x2="285.134" y2="89.762" gradientUnits="userSpaceOnUse">
      <stop offset="0" stop-color="#5c596c"/>
      <stop offset="1" stop-color="#b4a0a1"/>
    </linearGradient>
    <linearGradient id="b" x1="0" y1="130.508" x2="170.843" y2="130.508" xlink:href="#a"/>
  </defs>
  <title>Rocks</title>
  <g>
    <path d="M224.856,179.525s26.414-50.2,35.557-61.587S285.134,86.23,285.134,81.15s-32.848-34.2-38.605-42.668S223.5,9.7,215.374,6.65s-47.07.338-59.6-1.016S128.683-1.139,122.587.216,96.593,23.384,79.242,33.4,43.684,55.752,43.684,60.155s-.822,11.74,2.371,17.27,16.932,24.382,19.98,31.155,49.1,35.557,49.78,46.732-3.048,24.213-3.048,24.213Z" fill="url(#a)"/>
    <path d="M0,179.525s11.344-15.006,14.9-21.165-.339-4.741,2.371-8.635,19.81-29.97,23.7-35.219S85,91.309,95.5,88.262s24.89-8.128,30.647-6.434,24.551,23.7,27.768,31.493,16.932,66.2,16.932,66.2Z" fill="url(#b)"/>
  </g>
</svg>
