<svg xmlns="http://www.w3.org/2000/svg" xmlns:xlink="http://www.w3.org/1999/xlink" width="718.867" height="1143.633" viewBox="0 0 718.867 1143.633">
  <defs>
    <linearGradient id="a" x1="236.638" y1="875.896" x2="400.129" y2="875.896" gradientUnits="userSpaceOnUse">
      <stop offset="0" stop-color="#66421f"/>
      <stop offset="1" stop-color="#754c24"/>
    </linearGradient>
    <linearGradient id="b" y1="342.405" x2="718.867" y2="342.405" gradientUnits="userSpaceOnUse">
      <stop offset="0" stop-color="#005437"/>
      <stop offset="1" stop-color="#006837"/>
    </linearGradient>
  </defs>
  <title>Tree_28</title>
  <g>
    <path d="M236.638,1143.633h78s63-78,85.5-535.474h-37.5S333.383,1046.887,236.638,1143.633Z" fill="url(#a)"/>
    <path d="M684.557,426.836s3.32,29.611-18.48,36c-21.26,6.23-27.79-3.98-28.09-4.48.24.73,6,18.79-10.77,25.01,0,0,3.14,22.52-23.32,23.52a14.893,14.893,0,0,1-3.17,3.87c-2.18,4.12-6.6,10.39-14.11,12.661.84,2.879.6,5.949-2.39,8.339-7.5,6.01-10.67,1.9-10.9,1.58.14.44,2.88,9.42-6.25,12.46a11.844,11.844,0,0,1-14.04-4.68s0,4.68-7.8,6.24c-6.84,1.36-8.88-2.05-9.28-2.919.46,1.219,2.89,7.889,1.48,10.719,0,0,9.36,6.24,4.68,15.6a13.681,13.681,0,0,1-14.04,7.8s1.56,10.91-10.92,14.03-26.51-14.03-26.51-14.03,0,4.671-3.12,6.23a15.545,15.545,0,0,1-6.24,1.56s4.68,6.24,0,12.48c-4.59,6.121-16.69,1.73-17.15,1.57.43.61,15.39,22.031,1.55,35.87-14.04,14.03-32.75,6.24-34.31-3.12,0,0-4.68-9.36-15.6-4.68,0,0-3.12,18.711-26.52,20.27s-29.63-18.71-29.63-18.71-7.8,14.04-23.4,15.6-29.63-6.24-29.63-6.24,7.8,32.75-24.96,43.67-38.99-32.76-38.99-32.76-29.64,3.121-35.88-18.71c-6.09-21.31,4.16-27.77,4.66-28.07-.73.231-18.83,5.88-24.93-10.93,0,0-23.4,3.121-23.4-24.95,0,0-28.08-9.36-12.48-37.439,0,0-15.07-8.22-15.24-23.76-8.31-6.6-8.24-17.531-8.24-17.531s-12.21,10.011-24.2-8.28,6.27-26.24,6.27-26.24a33.823,33.823,0,0,1-14.95-10,26.416,26.416,0,0,1-10.98-2.54c-24.82-11.05-14.1-38.28-13.72-39.25-.53.8-12.12,17.89-24.37,5.581-12.28-12.331-.15-27.26.36-27.881-.88.54-30.19,18.56-37.22-4.25-7.15-23.17,10.94-22.51,10.94-22.51s-30.28-28.6-14.92-40.82,35.39,8.221,35.39,8.221,1.13-22.23,18-23.111a34.929,34.929,0,0,1,3.84.02c3.22-3.46,8.03-5.74,12.45-7.22a20.928,20.928,0,0,1,.92-9,14.566,14.566,0,0,1,3.8-6.35,9.788,9.788,0,0,1-5.89-6,7.024,7.024,0,0,1-.41-2.88c-3.83-3.3-6.64-7.459-5.55-12.24a15.152,15.152,0,0,1,.53-1.83c-7.35-2.07-15.36-6.61-17.47-16.52-4.13-19.419,12.61-30.869,21.3-27.079,0,0,10.4,1.169,12.42-10.54,0,0-14-12.811-2.56-33.281s31.83-14.659,31.83-14.659-7.52-14.19-.34-28.121,21.38-21.45,21.38-21.45-31.72-11.3-23.04-44.719,48.7-14.871,48.7-14.871,13.53-26.549,35.24-19.89,21,19.21,21,19.21,4.96-19.09,22.75-14.98c0,0,10.12-21.32,33.67-6.03,0,0,15.12-12.06,28.87-1.68,7.04-.23,14.37,3.71,20.41,8.261a25.24,25.24,0,0,1,18.78,4.629c4.16-4.39,11.35-8.96,23.38-9.359,23.59-.79,33.58,7.21,33.58,7.21a38.935,38.935,0,0,1,5.71-1.281c.24-5.329,2.84-10.289,10.02-13.329,22.32-9.451,23.5,8.61,23.5,8.61s25.37-33.02,39.09-18.98-4.58,36.049-4.58,36.049,22.22-1.13,24.8,15.56c2.17,13.98-4.36,21.04-6.53,22.96,2.77-2.19,13.64-10,24.4-7.48.14.031.27.071.41.11a18.378,18.378,0,0,1,16.33-6.489c2.63-2.931,5.87-4.9,9.77-4.42,12.47,1.54,10.94,14.009,10.94,14.009s5.66-9.65,11.15-4.029c5.28,5.409,1.58,9.42,1.3,9.719.71-.13,19.51-3.579,22.02,14.16,1.86,13.081-4.17,16.621-7.65,17.57a8.668,8.668,0,0,1-.45,1.08c3.61,1.641,11.01,6.161,7.71,14.661a14.3,14.3,0,0,1-4.36,5.959c2.31-.589,4.99-.979,6.54-.22,0,0,6.17-9.4,15.56-4.78a13.7,13.7,0,0,1,7.9,13.991s10.9-1.64,14.11,10.82-13.86,26.609-13.86,26.609c.18,0,4.71.031,6.26,3.08a15.546,15.546,0,0,1,1.6,6.23s6.21-4.73,12.48-.089c6.15,4.549,1.84,16.69,1.68,17.139.61-.429,21.92-15.53,35.85-1.789,14.13,13.939,6.46,32.709-2.89,34.329,0,0-9.32,4.75-4.57,15.63,0,0,18.74,3,20.45,26.381s-18.52,29.759-18.52,29.759,14.09,7.711,15.76,23.29-6.05,29.681-6.05,29.681,32.71-8.02,43.84,24.659S684.557,426.836,684.557,426.836Z" fill="url(#b)"/>
  </g>
</svg>
