<svg xmlns="http://www.w3.org/2000/svg" xmlns:xlink="http://www.w3.org/1999/xlink" width="860.361" height="1455.776" viewBox="0 0 860.361 1455.776">
  <defs>
    <linearGradient id="a" x1="256.655" y1="1173.79" x2="497.538" y2="1173.79" gradientUnits="userSpaceOnUse">
      <stop offset="0" stop-color="#66421f"/>
      <stop offset="1" stop-color="#754c24"/>
    </linearGradient>
    <linearGradient id="b" y1="511.487" x2="860.361" y2="511.487" gradientUnits="userSpaceOnUse">
      <stop offset="0" stop-color="#2b773e"/>
      <stop offset="1" stop-color="#27954f"/>
    </linearGradient>
  </defs>
  <title>Tree_12</title>
  <g>
    <path d="M259.655,1455.776s48-57,48-191.99-51-368.982-51-368.982h30s75,235.488,88.5,398.98,88.5-130.493,88.5-401.98h30s25.5,431.979-54,563.972Z" fill="url(#a)"/>
    <path d="M828.238,671.274s5.5,29.29-15.76,37.27c-20.59,7.74-27.9-1.75-28.35-2.36.33.79,7.34,18.29-8.88,25.73,0,0,4.88,22.56-22.11,25.24,4.95,22.5-25.89,35.9-25.89,35.9s10.85,27.76-8.56,39.55c-18.79,11.43-27.74,3.46-28.28,2.96a27.251,27.251,0,0,1,3.49,8.89,13.371,13.371,0,0,1,1.55,5.37c.43,6.66-3.13,13.46-7.55,19.23.41,5.43-.92,13.1-9.64,18.53,4.74,3.92,10.7,11.7,10.43,25.99-.44,23.59-8.95,33.15-8.95,33.15s9.09,33.5-22.81,31.51c0,0-1.7,16.63-21.14,16.26s-20.5-17.05-20.5-17.05-11.84,15.16-26.13,6.22a38.619,38.619,0,0,1-6.55,2.64c3.7,9.44,6.13,23.28-8.6,27.95-23.11,7.31-22.58-10.78-22.58-10.78s-28.37,30.49-40.71,15.22,7.95-35.45,7.95-35.45-22.23-.97-23.23-17.83a.375.375,0,0,0-.01-.11c-5.68-4.74-8.36-9.39-9.5-13.34-3.71,8.35-12.09,21.77-27.44,20.65a28.986,28.986,0,0,1-10.97-2.84c-13.8,4.5-31.56,6.03-53.72.39a8.532,8.532,0,0,1-3.46,1.67c-6.36,1.62-9.89-3.56-11.27-6.27-.31-.12-.64-.25-.96-.37-1.37,5.74-8.14,30.37-22.91,30.53-16.72.17-33-24.67-33-24.67s-6.75,16.21-30.29,14.5-32.62-10.73-32.62-10.73a39.666,39.666,0,0,1-5.82.67c-.8,5.28-3.91,9.93-11.37,12.2-23.2,7.04-22.46-11.05-22.46-11.05s-28.72,30.16-40.88,14.75,8.37-35.36,8.37-35.36-22.22-1.23-23.03-18.1c-.67-14.13,6.56-20.46,8.93-22.14-2.99,1.88-14.63,8.51-25.06,4.86-8.1-2.83-8.47-7.26-7.83-9.88-2.42,5.59-9.74,20.12-19.66,17.81-8.82-2.04-9.81-8.96-9.68-12.67-3.53,3.02-9.62,5.13-19.43-.08-10.91-5.78-11.75-13.14-10.69-18.08a16.627,16.627,0,0,1-1.53-4.99c-6.78.63-20.54.7-22.68-8.65-2.85-12.47,4.06-16.68,4.06-16.68s-29.18-5.38-29.31-27.59,19.28-25.1,19.28-25.1-8.36-5.51-7.01-11.07c.85-3.47,3.32-7.5,5.05-10.03a18.225,18.225,0,0,1,.73-2.16c-2.89.81-10.79,2.31-14.21-4.42-3.63-7.16,1.02-10.24,2.36-10.96-1.59.68-8.29,3.04-10.78-4.26-2.82-8.31,6.87-12.53,6.87-12.53s-31.96-3.98-33.44-20.63,22-34.84,22-34.84-16.69-5.45-16.83-29.05,8.13-33.37,8.13-33.37-5.68-19.06,5.41-27.8a28.508,28.508,0,0,1-14.67-15.71c-6.64-17,5.05-31.38,17.28-41.04a23.479,23.479,0,0,1-3.36-5.22c-7.74-16.26,10.39-24.89,12.25-25.73v-.11c-1.67-.33-14.85-3.26-12.21-12.24,2.71-9.22,7.67-7.67,8.04-7.54-.42-.33-7.73-6.11-2.01-13.8a11.847,11.847,0,0,1,14.17-4.21c-.15-.23-2.49-4,2.84-9.57,4.79-5.01,8.41-3.41,9.25-2.93-1.13-.78-6.87-4.82-7.33-7.93,0,0-11.24.25-12.76-10.11a13.667,13.667,0,0,1,7.04-14.43s-7.53-8.06.91-17.76S68,421.624,68,421.624s-2.68-3.84-1.02-6.9a15.614,15.614,0,0,1,4.23-4.86s-7.41-2.43-7.15-10.23,13.17-11.1,13.17-11.1-25.29-8.97-21.82-28.52,23.28-23.87,29.92-17.09c0,0,9.2,5,15.47-5.09,0,0-8.16-17.13,10.13-31.81s35.01-1.62,35.01-1.62-1.65-15.98,10.25-26.19,27.87-11.85,27.87-11.85-25.15-22.39-4.55-50.1,50.72,4.53,50.72,4.53a46.26,46.26,0,0,1,4.75-3.46c-3.69-4.08-5.48-12.4,11.83-27.54,0,0-13.72-17.15,3.43-34.3s27.44-6.86,27.44-6.86-3.43-17.15,6.86-20.58a17.232,17.232,0,0,1,17.15,3.43s-3.43-17.15,17.15-17.15c15.63,0,17.41,5.93,17.36,8.78.81-3.56,4.72-12.21,23.8-12.21,24.02,0,24.02,20.58,24.02,20.58s3.43-13.72,13.72-17.15,20.58,3.43,20.58,3.43-13.72-20.58,0-37.74,41.16-6.86,41.16-6.86-34.3-41.16-10.29-65.17,65.17,13.72,65.17,13.72,0-24.01,27.45-20.58c7.59.95,12.3,6.37,15.13,13.72,18.95,1.99,16.02,17.89,16.02,17.89s19.74-13.58,27.45-3.36,3.12,16.89,3.12,16.89,28.83-7.04,38.04,13.17-7.32,30.8-7.32,30.8,9.88,1.6,10.92,7.23c1.02,5.5-1.04,13.87-1.12,14.23.38-.37,8.54-8.24,15.61-2.53,6.25,5.04,3.27,9.76,2.33,10.96,1.2-1.29,6.34-6.15,11.59-.52,5.98,6.43-1.14,14.25-1.14,14.25s30.78-9.45,38.95,5.13-5.81,40.79-5.81,40.79,17.46-1.85,27.25,19.62,6.24,33.77,6.24,33.77a39.5,39.5,0,0,1,3.37,4.78c5.01-1.83,10.59-1.33,16.16,4.13,17.31,16.98,1.08,25,1.08,25s40.24,10.74,32.55,28.81-35.04,9.61-35.04,9.61,9.58,20.09-4.84,28.88c-12.07,7.37-21.09,4.06-23.71,2.79,3.09,1.72,14.48,8.76,16.29,19.66,1.4,8.47-2.32,10.91-4.91,11.61,6.06-.56,22.32-1.1,25.06,8.71,3.38,12.11-8.73,15.49-8.73,15.49s11.08,1.52,8.01,8.74-8.5,4.92-8.5,4.92,11.12,16.47-4.58,25.79a28.3,28.3,0,0,1-6.9,3.04,15.232,15.232,0,0,1,.82,3.45s5.84-5.17,12.44-1.01,2.94,16.98,2.94,16.98,20.5-17.31,35.63-4.46,8.87,32.15-.33,34.46c0,0-8.95,5.42-3.41,15.92,0,0,18.91,1.6,22.36,24.79s-16.26,31.05-16.26,31.05,14.62,6.64,17.44,22.06c2.76,15.15-3.6,29.52-3.82,30.03.78-.24,32.18-10.02,45.54,21.36C871.258,661.524,828.238,671.274,828.238,671.274Z" fill="url(#b)"/>
  </g>
</svg>
