<svg xmlns="http://www.w3.org/2000/svg" xmlns:xlink="http://www.w3.org/1999/xlink" width="1016.825" height="1056.21" viewBox="0 0 1016.825 1056.21">
  <defs>
    <linearGradient id="a" x1="352.629" y1="833.293" x2="737.629" y2="833.293" gradientUnits="userSpaceOnUse">
      <stop offset="0" stop-color="#66421f"/>
      <stop offset="1" stop-color="#754c24"/>
    </linearGradient>
    <linearGradient id="b" y1="384.282" x2="1016.825" y2="384.282" gradientUnits="userSpaceOnUse">
      <stop offset="0" stop-color="#5a8539"/>
      <stop offset="1" stop-color="#46952f"/>
    </linearGradient>
  </defs>
  <title>Tree_1</title>
  <g>
    <path d="M415.629,770.377c30.927,28.994,54.378,69.606,67.15,94.833,17.082,101.591,4.709,145.308-11.15,161.167-17,17-44,8-55,11-8.844,2.412-6.707,11.288-14.883,18.833H697.884a81.938,81.938,0,0,0-12.255-3.833c-35-8-67-110-78-148s13-37,33-51,36-60,15-131l-9,3s15,75-2,91-51,20-51,20-25-78-25-169l-174-57s44.712,83.567,72.009,181.661c-28.1-26.1-86.227-85.738-90.009-135.661h-7S367.629,725.377,415.629,770.377Z" fill="url(#a)"/>
    <path d="M1016.819,531.078c.556-24.238-33.987-15.807-33.987-15.807s17.1-10.422,9.192-26.346-24.912-2.4-24.912-2.4,19.847-22.922-.556-41.6a26.552,26.552,0,0,0-9.614-5.887,33.839,33.839,0,0,0-11.02-14.214s19.84-1.753,14.259-22.9-20.335-15.517-20.335-15.517,7.043-20.6-15.066-28.653c11.017-17.362-7.165-37.89-7.165-37.89s31.9-30.469,3.977-50.77-50.043,5.089-50.043,5.089-1.817-15.956-12.155-27.739-26.293-9.966-26.293-9.966,12.869-16.866-2-34.994-31.915-9.784-31.915-9.784c-10.155-6.162-5.261-15.411-5.261-15.411,6.707-6.71,2.169-26.472-17.414-29.732s-28.28,22.128-28.28,22.128-3.448-12.873-11.245-13.052-10.152,7.255-10.152,7.255a15.544,15.544,0,0,0-4.9-4.169c-2.5-1.32-5.462.209-6.5.841q-.1-.256-.2-.514c.912-3.857,4.517-21.564-4.185-28.973a17,17,0,0,0-5.287-3.166c-5.072-6.982-13.31-9.731-13.31-9.731,0-28.075-23.4-24.956-23.4-24.956C663.67,77.41,649,80.029,645.081,81.024c-.124-.054-.248-.1-.372-.153,2.205-1.719,9.4-8.983,4.069-27.647C642.539,31.388,612.9,34.507,612.9,34.507S606.664-9.166,573.909,1.752s-24.956,43.673-24.956,43.673-14.038-7.8-29.635-6.238-23.4,15.6-23.4,15.6-6.239-20.277-29.635-18.717S439.77,56.344,439.77,56.344c-10.918,4.679-15.6-4.679-15.6-4.679-1.559-9.359-20.277-17.158-34.314-3.12-11.717,11.716-2.794,28.855.479,34.207-.388.324-.78.645-1.164.975-3.81-1.018-11.47-2.338-14.913,2.252-4.679,6.239,0,12.478,0,12.478a15.539,15.539,0,0,0-6.239,1.56c-3.12,1.56-3.12,6.239-3.12,6.239S350.864,89.1,338.386,92.218s-10.919,14.038-10.919,14.038a13.679,13.679,0,0,0-14.038,7.8c-4.679,9.359,4.68,15.6,4.68,15.6-1.472,2.943,1.218,10.043,1.528,10.839-.239-.589-2.109-4.483-9.327-3.04-7.8,1.56-7.8,6.24-7.8,6.24a11.844,11.844,0,0,0-14.038-4.68c-9.358,3.12-6.239,12.478-6.239,12.478a4.475,4.475,0,0,0-3.641-1.683c-11.4-4.661-22.97,3.179-22.97,3.179-22.288-17.074-34.039,3.4-34.039,3.4-17.414-5.481-23.844,13.171-23.844,13.171s1.687-12.461-19.442-20.788-36.675,17.1-36.675,17.1S103.16,144.254,91.908,176.9s19.492,46.37,19.492,46.37S96.673,229.667,88.425,243s-1.846,28.059-1.846,28.059S66.689,263.677,53.7,283.2s-.029,33.38-.029,33.38c-2.925,11.513-13.2,9.537-13.2,9.537-8.377-4.453-25.951,5.662-23.344,25.343,1.494,11.279,10.937,16.383,18.731,18.69-1.273,1.515-2.5,3.019-3.7,4.5-7.572,9.346-6.147,23.129-2.154,35.671-4.107,1.855-7.782,4.573-9.509,8.561-5.112,11.8,4.5,17.2,4.5,17.2a13.651,13.651,0,0,0-2.777,14.926C11.759,458.736,1.3,471.675.1,492.79c-1.837,32.266,22.416,42.418,35.134,45.516a17.859,17.859,0,0,0,4.248,7.113,21.744,21.744,0,0,0,6.838,5.056c1.008,2.852,2.216,6.133,3.606,9.674-3.412,3.1-7.071,8.567-9.317,18.217-5.148,22.119,22.275,33.781,22.275,33.781s-15.75,41.209,18.186,47.567,43.022-26.063,43.022-26.063,8.485,13.634,22.878,19.843S175,651.218,175,651.218s-4.391,20.756,16.82,30.752,33.026-4.852,33.026-4.852c11.817,1.21,11.364,11.664,11.364,11.664-3.181,8.938,9.4,24.844,28.484,19.388s16.054-32.12,16.054-32.12,8.637,10.149,15.757,6.967,6.058-10.909,6.058-10.909a15.539,15.539,0,0,0,6.212,1.666c3.484.151,5.756-3.94,5.756-3.94s3.942,21.815,16.365,25.147,16.361-6.972,16.361-6.972a13.679,13.679,0,0,0,16.059,0c8.634-5.909,3.482-15.907,3.482-15.907,2.715-1.859,3.811-9.372,3.926-10.217-.077.63-.333,4.943,6.679,7.185,7.575,2.423,9.847-1.667,9.847-1.667a11.843,11.843,0,0,0,10,10.906c5.7,1.069,8.679-1.846,10.164-4.428.04.351.076.7.127,1.062,2.565,18.078,22.048,14.142,22.048,14.142s-4.213,4.116,1.274,9.734,11.154-4.035,11.154-4.035-1.535,12.477,10.943,14.012c10.111,1.243,15.856-13.975,17.671-19.79-.357,2.666.476,7.033,8.834,8.994,10.757,2.523,21.628-5.294,24.4-7.48-2.175,1.924-8.7,8.981-6.535,22.961,2.582,16.691,24.808,15.563,24.808,15.563s-18.306,22-4.588,36.043,39.1-18.978,39.1-18.978,1.176,18.062,23.5,8.606c7.176-3.04,9.78-8,10.016-13.327a39.4,39.4,0,0,0,5.714-1.282s9.99,8,33.577,7.218S658.034,729.7,658.034,729.7s18.822,22.987,35.425,21.046,19.705-33.991,19.705-33.991,4.485,9.574,12.718,6.522c7.438-2.757,4.533-9.7,3.9-11.02.6,1.127,3.777,6.149,11.082,2.187,6.71-3.638,4.877-11.653,4-14.429.241-.071.486-.141.725-.214,2.188,1.51,7.362,4.843,11.651,5.765,5.6,1.2,10.87-7.307,10.87-7.307s3.421,19.333,25.62,18.6,26.781-30.06,26.781-30.06,4.393,6.8,16.788,3.608c4.754-1.223,6.952-5.43,7.861-10.148,4.261,2.636,10.314,3.684,18.076-1.595,8.7-5.915,11.016-15.166,11.243-22.687,16.423,3.754,20.622-14.623,20.622-14.623s2.02,5.532,9.4,2.839.908-11.826.908-11.826,10.743,6.527,17.271-4.216c4.15-6.83-2.039-15.372-7.1-20.691,13.24,1.244,24.686-5.766,33.767-17.2,13.5.339,20.227-16.846,20.227-16.846s12.529,25.731,30.971,19-1.23-43.442-1.23-43.442S1016.263,555.317,1016.819,531.078Z" fill="url(#b)"/>
  </g>
</svg>
