<svg xmlns="http://www.w3.org/2000/svg" xmlns:xlink="http://www.w3.org/1999/xlink" width="1109.504" height="1498.993" viewBox="0 0 1109.504 1498.993">
  <defs>
    <linearGradient id="a" x1="333.831" y1="1207.258" x2="651.489" y2="1207.258" gradientUnits="userSpaceOnUse">
      <stop offset="0" stop-color="#66421f"/>
      <stop offset="1" stop-color="#754c24"/>
    </linearGradient>
    <linearGradient id="b" y1="499.585" x2="1109.504" y2="499.585" gradientUnits="userSpaceOnUse">
      <stop offset="0" stop-color="#2b773e"/>
      <stop offset="1" stop-color="#27954f"/>
    </linearGradient>
  </defs>
  <title>Tree_23</title>
  <g>
    <path d="M431,1498.993H651.489s-1.5-55.5-66-122.993S486.5,1352,471.5,1248.506s121.494-172.491,93-332.983h-87s-1.5,107.994-57,146.992-103.495,163.492-81,251.988S441.5,1430,431,1498.993Z" fill="url(#a)"/>
    <path d="M1077.894,512.167s6.02,29.19-15.1,37.54c-20.649,8.17-28.069-1.45-28.389-1.89.23.54,7.79,18.13-8.42,25.9,0,0,5.4,22.98-22.54,25.73,0,0-3.661,16.11-17.8,18.93,3.55,3.09,6.74,9.1,3.45,20.63-5.92,20.73-23.46,12.65-23.95,12.42.26.57,9.52,21.08-8.7,36.58-18.49,15.73-31.82,3.17-31.82,3.17s2.78,18.87-19.64,29.97c-21.451,10.62-32.951-4.22-33.911-5.52.661,1.15,6.911,12.83-5.219,28.18-12.561,15.88-23.11,7.05-23.49,6.72.2.57,7.939,22.44-14.87,41.83-23.1,19.65-36.661,9.94-36.661,9.94s-6.239,23.89-26.419,25.12a23.969,23.969,0,0,1-6.04-.34c-7.341,3.9-16.75,1.89-16.75,1.89s10.919,10.91,3.12,17.15c-7.5,6.01-10.671,1.9-10.9,1.58.14.44,2.88,9.42-6.25,12.46a11.847,11.847,0,0,1-14.041-4.68s0,4.68-7.8,6.24c-6.84,1.36-8.88-2.05-9.28-2.92.46,1.22,2.89,7.89,1.48,10.72,0,0,9.359,6.24,4.68,15.6a13.681,13.681,0,0,1-14.04,7.8s1.56,10.91-10.92,14.03-26.51-14.03-26.51-14.03,0,4.67-3.121,6.23a15.542,15.542,0,0,1-6.24,1.56s4.681,6.24,0,12.48c-4.589,6.12-16.689,1.73-17.149,1.57.429.61,15.389,22.03,1.55,35.87-14.04,14.03-32.75,6.24-34.31-3.12,0,0-4.68-9.36-15.6-4.68,0,0-3.119,18.71-26.519,20.27s-29.63-18.71-29.63-18.71-7.8,14.04-23.4,15.6-29.63-6.24-29.63-6.24,7.8,32.75-24.96,43.67-38.99-32.76-38.99-32.76-29.64,3.12-35.881-18.71c-6.089-21.31,4.161-27.77,4.661-28.07-.73.23-18.83,5.88-24.93-10.93,0,0-23.4,3.12-23.4-24.95,0,0-28.081-9.36-12.48-37.44,0,0-16.44-8.97-15.17-25.88-7.921,2.26-17.631,2.57-25.49-4.84-16.151-15.25-4.83-31.29-4.83-31.29s-9.76,2.25-12.841-2.57-4.319-13.63-4.319-13.63-4.6,10.94-13.51,8.25c-7.74-2.33-6.7-7.87-6.29-9.3-.6,1.61-3.52,8.14-10.54,4.88-7.96-3.7-4.321-13.63-4.321-13.63s-24.939,20.36-38.01,9.94-9.99-39.98-9.99-39.98-15.479,8.31-32.639-7.89-18.51-28.93-18.51-28.93a39.069,39.069,0,0,1-4.93-3.16c-3.951,3.59-9.31,5.23-16.52,2.27-22.431-9.19-10.431-22.75-10.431-22.75s-41.319,5.23-41-14.4,28.82-22.12,28.82-22.12-16.45-14.99-6.41-28.57c8.41-11.38,18.01-11.72,20.91-11.53-3.51-.43-16.71-2.64-22.49-12.06-4.49-7.32-1.98-10.98.169-12.61-5.409,2.81-20.259,9.44-26.5,1.39-7.48-9.68,1.73-17.22,2.23-17.63-.53.13-10.83,2.56-10.7-5.09.13-7.67,5.76-7.76,6.01-7.76-.54-.38-16.32-11.31-5.47-25.61,5.63-7.43,10.65-8.72,14.22-8.21a11.174,11.174,0,0,1,3.49-5.45,9.584,9.584,0,0,1,3.23-7.67,14.047,14.047,0,0,1,.38-4.79c1.68-7.17,6.01-7.25,6.639-7.23-.839-.05-8.429-.54-10.5-3.1,0,0-9.56,5.92-16.13-2.22a13.652,13.652,0,0,1-1.27-16s-10.59-3.11-8.25-15.76,23.77-18.31,23.77-18.31-4.25-1.94-4.38-5.42a15.655,15.655,0,0,1,1.17-6.33s-7.62,1.67-11.35-5.17,5.7-16.26,5.7-16.26-26.34,5.13-33.29-13.46,7.91-32.4,17.07-29.93c0,0,10.46-.38,10.73-12.25,0,0-15.74-10.61-7.45-32.54s29.32-19.2,29.32-19.2-9.54-12.92-4.48-27.76,17.97-24.38,17.97-24.38-33.04-6.49-29.39-40.82,45.979-21.9,45.979-21.9,9.461-28.25,31.911-24.87,23.609,15.9,23.609,15.9,2.091-19.62,20.291-18.18c0,0,6.86-22.58,32.41-10.93,0,0,18.73-20.12,37.16,1.56a25.859,25.859,0,0,1,9.69-2.24s-10.01-12.21,8.28-24.2,26.24,6.27,26.24,6.27a33.919,33.919,0,0,1,10-14.95,26.432,26.432,0,0,1,2.54-10.98c11.06-24.82,38.28-14.1,39.25-13.72-.8-.53-17.891-12.12-5.58-24.37,12.33-12.28,27.26-.15,27.88.36-.54-.88-18.56-30.19,4.26-37.22,23.16-7.15,22.5,10.94,22.5,10.94s28.6-30.28,40.819-14.92-8.209,35.39-8.209,35.39,22.219,1.13,23.1,18c.73,14.13-6.47,20.48-8.83,22.18,2.98-1.9,14.59-8.57,25.04-4.97,8.11,2.8,8.5,7.23,7.87,9.84,2.4-5.6,9.65-20.16,19.59-17.89,12.26,2.79,9.459,15.04,9.459,15.04s6.621-9.02,11.51-2.88.281,9.81.281,9.81,10.189-.98,16.209,5.21c9.73.15,15.591,4.3,19.061,8.64a24.145,24.145,0,0,1,9.9,4.35,7.274,7.274,0,0,1,5.77-1.69c5.591,1.2,12.721,6.52,12.721,6.52s-4.54-10.96,3.65-15.4c7.3-3.96,10.48,1.06,11.08,2.19-.63-1.32-3.53-8.27,3.91-11.02,8.23-3.06,12.71,6.52,12.71,6.52s3.1-32.05,19.709-33.99,35.421,21.04,35.421,21.04,5-16.83,28.59-17.62,33.57,7.22,33.57,7.22a39.4,39.4,0,0,1,5.72-1.28c.23-5.33,2.84-10.29,10.01-13.33,22.33-9.45,23.5,8.61,23.5,8.61s25.38-33.02,39.1-18.98-4.59,36.04-4.59,36.04,22.23-1.12,24.81,15.57c2.16,13.98-4.36,21.03-6.54,22.96,2.78-2.19,13.649-10.01,24.409-7.48,8.351,1.96,9.191,6.33,8.831,8.99,1.81-5.81,7.56-21.03,17.669-19.79,12.48,1.54,10.941,14.01,10.941,14.01s5.67-9.65,11.16-4.03c5.27,5.41,1.57,9.42,1.29,9.72.71-.13,19.51-3.58,22.03,14.16,2.52,17.79-9.55,17.93-9.921,17.93.421.14,10.381,3.42,10.351,11.32,18.379,1.62,15.93,23.41,15.93,23.41s9.79-11.94,16.77-4.79c6.73,6.9,2.909,10.46,2.64,10.7.509-.22,9.11-3.74,13.009,4.99A11.833,11.833,0,0,1,938.754,214s4.66-.46,6.98,7.15c2.079,6.81-1.3,9.13-2.04,9.54,1.03-.51,7.57-3.69,10.57-2.54,0,0,5.289-9.93,15.059-6.19a13.682,13.682,0,0,1,9.141,13.2s10.71-2.62,15.04,9.49-11.36,27.77-11.36,27.77,4.649-.46,6.51,2.49a15.546,15.546,0,0,1,2.169,6.05s5.74-5.27,12.411-1.22,3.24,16.92,3.24,16.92,20.2-17.67,35.55-5.08,9.42,31.99.259,34.46c0,0-8.849,5.58-3.119,15.98,0,0,18.93,1.27,22.78,24.4s-15.71,31.33-15.71,31.33,14.73,6.38,17.819,21.75-3.3,30.1-3.3,30.1,31.829-10.97,45.91,20.55S1077.894,512.167,1077.894,512.167Z" fill="url(#b)"/>
  </g>
</svg>
