<svg xmlns="http://www.w3.org/2000/svg" xmlns:xlink="http://www.w3.org/1999/xlink" width="747.756" height="1428.2" viewBox="0 0 747.756 1428.2">
  <defs>
    <linearGradient id="a" x1="293.878" y1="1153.7" x2="373.878" y2="1153.7" gradientUnits="userSpaceOnUse">
      <stop offset="0" stop-color="#66421f"/>
      <stop offset="1" stop-color="#754c24"/>
    </linearGradient>
    <linearGradient id="b" y1="478.241" x2="747.756" y2="478.241" gradientUnits="userSpaceOnUse">
      <stop offset="0" stop-color="#2b773e"/>
      <stop offset="1" stop-color="#27954f"/>
    </linearGradient>
  </defs>
  <title>Tree_22</title>
  <g>
    <path d="M293.878,1428.2h57s23-361,23-549h-26s-11,238-25,283S293.878,1428.2,293.878,1428.2Z" fill="url(#a)"/>
    <path d="M747.7,499.639c-1.51,16.65-27.87,30.36-27.87,30.36s15.45,8.34,11.38,31.59-13.95,31.38-13.95,31.38a38.935,38.935,0,0,1,.08,5.85c5.17,1.33,9.49,4.89,10.99,12.54,4.68,23.79-13.24,21.24-13.24,21.24s27.11,31.61,10.55,42.15-34.33-11.88-34.33-11.88-3.46,21.99-20.32,21.09c-14.13-.75-19.7-8.58-21.13-11.11,1.57,3.16,6.99,15.41,2.31,25.42-3.63,7.78-8.08,7.7-10.61,6.8,5.31,2.97,19.03,11.71,15.74,21.35-3.96,11.6-15.36,8.04-15.94,7.85.43.41,8.08,7.64,1.64,11.73-6.62,4.22-9.79-.75-9.79-.75s-.12,16.04-13.36,18.43a21.829,21.829,0,0,1,.16,8.56c-3.12,18.72-24.96,14.04-24.96,14.04s10.92,10.92,3.12,17.16c-7.51,6.01-10.68,1.9-10.91,1.58.14.44,2.88,9.42-6.25,12.46a11.845,11.845,0,0,1-14.04-4.68s0,4.68-7.8,6.24c-6.83,1.36-8.87-2.06-9.27-2.92.46,1.21,2.89,7.88,1.48,10.71,0,0,9.35,6.24,4.67,15.6a13.665,13.665,0,0,1-14.03,7.8s1.56,10.92-10.92,14.04-26.52-14.04-26.52-14.04,0,4.68-3.12,6.24a15.545,15.545,0,0,1-6.24,1.56s4.68,6.24,0,12.48c-4.58,6.12-16.68,1.73-17.14,1.57.43.61,15.38,22.02,1.55,35.86-14.04,14.04-32.76,6.24-34.32-3.12,0,0-4.68-9.36-15.6-4.68,0,0-3.12,18.72-26.51,20.28s-29.64-18.72-29.64-18.72-7.8,14.04-23.39,15.6-29.64-6.24-29.64-6.24,7.8,32.76-24.95,43.67-39-32.75-39-32.75-29.63,3.12-35.87-18.72c-6.09-21.3,4.16-27.76,4.66-28.06-.73.23-18.83,5.88-24.94-10.93,0,0-23.4,3.12-23.4-24.96,0,0-28.07-9.36-12.47-37.43,0,0-24.75-13.51-11.18-38.61-16.55-7.11-9.73-21.13-9.73-21.13s-22.66,7.81-27.36-4.09,1.5-17.11,1.5-17.11-29.66-.91-33.15-22.84,15.28-27.73,15.28-27.73-9.1-4.18-8.6-9.88c.49-5.61,4.75-13.19,4.88-13.42-.38.21-10.4,5.71-15.72-1.73-4.84-6.75-.25-10.53.79-11.27-1.23.79-7.76,4.54-11.42-2.5-4.04-7.79,4.9-13.43,4.9-13.43s-32.19.9-36.17-15.34,16.49-37.76,16.49-37.76-17.33-2.87-21.03-26.18,3-34.21,3-34.21a39.331,39.331,0,0,1-1.98-5.51c-5.32.43-10.56-1.54-14.47-8.29-12.15-20.98,5.63-24.38,5.63-24.38s-35.92-21.09-23.68-36.44,36.33.08,36.33.08-3.88-21.919,12.37-26.55c13.6-3.88,21.41,1.72,23.59,3.64-2.51-2.48-11.62-12.3-10.45-23.29.91-8.53,5.14-9.9,7.83-9.88-5.99-1.08-21.81-4.89-21.83-15.08-.02-12.57,12.55-12.59,12.55-12.59s-10.28-4.43-5.39-10.57,9.5-2.47,9.5-2.47-6.32-18.85,11.3-23.629,19.03,7.629,19.03,7.629,1.74-9.62,8.74-11.46a6.73,6.73,0,0,1-2.47-2.58s-10.83,3.06-14.91-6.57a13.688,13.688,0,0,1,3.19-15.74s-9.32-5.9-3.59-17.42,27.89-11.05,27.89-11.05-3.56-3.04-2.72-6.43a15.51,15.51,0,0,1,2.87-5.75s-7.79-.5-9.49-8.11,9.95-14.06,9.95-14.06-26.74-2.31-28.3-22.1,16.52-28.97,24.65-24.08c0,0,10.16,2.52,13.69-8.82,0,0-12.21-14.53,1.79-33.33,13.79-18.53,32.91-10.629,33.47-10.4-.18-.51-5.45-15.26,3.33-27.91,8.94-12.88,23.99-18.49,23.99-18.49s-29.98-15.34-17.01-47.34,50.22-8.39,50.22-8.39,16.87-24.57,37.53-15.13,18.32,21.781,18.32,21.781,7.4-18.281,24.5-11.891c0,0,12.82-19.819,34.18-1.59,0,0,25.34-15.28,36.57,14.81,0,0,12.9-4.93,24.17,1.24a22.408,22.408,0,0,1,6.49-2.94c18.25-5.18,23.35,16.56,23.35,16.56s5.21-14.53,14.18-10.149,6.08,9.21,6.08,9.21,7.13-6.821,13.95.309a11.853,11.853,0,0,1,1.76,14.691s4.23-2,8.98,4.379c4.39,5.911,1.66,9.27,1.23,9.73.59-.609,5.86-6.08,9.15-6.01,0,0,1.64-11.13,12.1-10.89a13.679,13.679,0,0,1,13.05,9.36s9.21-6.08,17.36,3.87-1.36,29.97-1.36,29.97,4.23-2,6.97.16a15.6,15.6,0,0,1,4.08,4.971s3.64-6.9,11.28-5.331,8.74,14.84,8.74,14.84,13.08-23.43,31.77-16.73,19.63,26.94,11.84,32.35c0,0-6.46,8.23,2.43,16.1,0,0,18.26-5.17,29.66,15.31s-4.26,34.8-4.26,34.8,16.03,1.05,24.1,14.48,7.02,29.46,7.02,29.46,26.29-21.04,50.15,3.91-12.95,49.25-12.95,49.25,12.34,20.32,2.79,35.33a16.25,16.25,0,0,1-4.27,10.231c.22,0,23.97.029,24.55,12.75.58,12.789-6.98,15.689-6.98,15.689s27.76,10.5,23.93,32.38-23.46,21.26-23.46,21.26,7.25,6.91,4.92,12.14-8.99,11.11-8.99,11.11,11.66-2.19,14.32,6.74c2.32,7.75-2.9,9.931-4.31,10.36,1.63-.37,8.74-1.56,9.88,6.11,1.3,8.69-8.99,11.11-8.99,11.11S749.2,482.989,747.7,499.639Z" fill="url(#b)"/>
  </g>
</svg>
