<svg xmlns="http://www.w3.org/2000/svg" width="688.43" height="352.73" viewBox="0 0 688.43 352.73">
  <defs>
    <style>
      .cls-1 {
        font-size: 30px;
        font-family: WorkSans-Regular, Work Sans;
      }

      .cls-1, .cls-10 {
        fill: #fff;
      }

      .cls-2 {
        letter-spacing: -0.03em;
      }

      .cls-3 {
        letter-spacing: -0.03em;
      }

      .cls-4 {
        letter-spacing: -0.07em;
      }

      .cls-5 {
        letter-spacing: 0em;
      }

      .cls-6 {
        letter-spacing: -0.02em;
      }

      .cls-7 {
        letter-spacing: 0em;
      }

      .cls-8 {
        letter-spacing: -0.03em;
      }

      .cls-9 {
        letter-spacing: -0.02em;
      }
    </style>
  </defs>
  <title>BestPlayed</title>
  <g id="Layer_2" data-name="Layer 2">
    <g id="Layer_1-2" data-name="Layer 1">
      <g>
        <text class="cls-1" transform="translate(0 342.62)">BE<tspan class="cls-2" x="38.73" y="0">S</tspan><tspan class="cls-3" x="57.06" y="0">T</tspan><tspan x="74.37" y="0" xml:space="preserve"> PL</tspan><tspan class="cls-4" x="120.84" y="0">A</tspan><tspan class="cls-5" x="138.69" y="0">YED</tspan><tspan class="cls-6" x="196.62" y="0"> </tspan><tspan class="cls-7" x="206.13" y="0">WITH MOUSE OR</tspan><tspan class="cls-8" x="454.85" y="0"> </tspan><tspan class="cls-9" x="464.27" y="0">T</tspan><tspan class="cls-5" x="481.73" y="0">OUCHSCREEN</tspan></text>
        <g>
          <path class="cls-10" d="M483.47,0H70a4.65,4.65,0,0,0-4.65,4.65V254.44A4.65,4.65,0,0,0,70,259.09H483.47a4.65,4.65,0,0,0,4.65-4.65V4.65A4.65,4.65,0,0,0,483.47,0ZM475,246.27H78.52V12.83H475ZM480.67,133l-3.23-.34v-2.91l3.23,0Zm0-3.77-3.23,0v-2.91l3.23-.34Zm4.82,4.29-4.18-.45v-3.29l4.18,0Zm0-4.32-4.18,0V126l4.18-.44Z"/>
          <path class="cls-10" d="M591.57,160.3h0a31.5,31.5,0,0,0-31.5,31.5v35.79a31.5,31.5,0,0,0,31.5,31.5h0a31.5,31.5,0,0,0,31.5-31.5V191.8A31.5,31.5,0,0,0,591.57,160.3Zm4,36.63a4,4,0,1,1-8,0V183.14a4,4,0,1,1,8,0Z"/>
        </g>
      </g>
    </g>
  </g>
</svg>
