<svg xmlns="http://www.w3.org/2000/svg" xmlns:xlink="http://www.w3.org/1999/xlink" width="388.07" height="296.06" viewBox="0 0 388.07 296.06">
  <defs>
    <style>
      .cls-1 {
        fill: url(#linear-gradient);
      }

      .cls-2 {
        fill: url(#linear-gradient-2);
      }

      .cls-3 {
        fill: url(#linear-gradient-3);
      }

      .cls-4 {
        fill: url(#linear-gradient-4);
      }

      .cls-5 {
        fill: url(#linear-gradient-5);
      }

      .cls-6 {
        fill: url(#linear-gradient-6);
      }

      .cls-7 {
        fill: url(#linear-gradient-7);
      }

      .cls-8 {
        fill: url(#linear-gradient-8);
      }

      .cls-9 {
        fill: url(#linear-gradient-9);
      }

      .cls-10 {
        fill: url(#linear-gradient-10);
      }

      .cls-11 {
        fill: url(#linear-gradient-11);
      }

      .cls-12 {
        fill: url(#linear-gradient-12);
      }

      .cls-13 {
        fill: url(#linear-gradient-13);
      }

      .cls-14 {
        fill: url(#linear-gradient-14);
      }

      .cls-15 {
        fill: url(#linear-gradient-15);
      }

      .cls-16 {
        fill: url(#linear-gradient-16);
      }

      .cls-17 {
        fill: url(#linear-gradient-17);
      }

      .cls-18 {
        fill: url(#linear-gradient-18);
      }

      .cls-19 {
        fill: url(#linear-gradient-19);
      }

      .cls-20 {
        fill: url(#linear-gradient-20);
      }

      .cls-21 {
        fill: url(#linear-gradient-21);
      }

      .cls-22 {
        fill: url(#linear-gradient-22);
      }

      .cls-23 {
        fill: url(#linear-gradient-23);
      }

      .cls-24 {
        fill: url(#linear-gradient-24);
      }

      .cls-25 {
        fill: url(#linear-gradient-25);
      }

      .cls-26 {
        fill: #f2fbf8;
      }

      .cls-27 {
        fill: #c8d760;
      }
    </style>
    <linearGradient id="linear-gradient" x1="399.66" y1="44.98" x2="399.66" y2="114.34" gradientTransform="translate(-137 23.64) rotate(-6.97)" gradientUnits="userSpaceOnUse">
      <stop offset="0" stop-color="#5a8539"/>
      <stop offset="1" stop-color="#46952f"/>
    </linearGradient>
    <linearGradient id="linear-gradient-2" x1="230.53" y1="73.22" x2="240.96" y2="73.22" gradientTransform="matrix(1, 0, 0, 1, 0, 0)" xlink:href="#linear-gradient"/>
    <linearGradient id="linear-gradient-3" x1="196.32" y1="66.11" x2="231.33" y2="66.11" gradientTransform="matrix(1, 0, 0, 1, 0, 0)" xlink:href="#linear-gradient"/>
    <linearGradient id="linear-gradient-4" x1="118.4" y1="139.67" x2="128.82" y2="139.67" gradientUnits="userSpaceOnUse">
      <stop offset="0" stop-color="#005437"/>
      <stop offset="1" stop-color="#006837"/>
    </linearGradient>
    <linearGradient id="linear-gradient-5" x1="84.18" y1="132.56" x2="119.2" y2="132.56" xlink:href="#linear-gradient-4"/>
    <linearGradient id="linear-gradient-6" x1="240.03" y1="190.58" x2="247.28" y2="190.58" gradientTransform="translate(505.75 273.11) rotate(161.96)" xlink:href="#linear-gradient-4"/>
    <linearGradient id="linear-gradient-7" x1="227.72" y1="176.48" x2="249.69" y2="176.48" gradientTransform="matrix(-0.61, 0.2, -0.31, -0.95, 424.34, 299.62)" xlink:href="#linear-gradient-4"/>
    <linearGradient id="linear-gradient-8" x1="375.9" y1="332.6" x2="383.15" y2="332.6" gradientTransform="matrix(0.95, 0.31, 0.31, -0.95, -368.85, 273.11)" xlink:href="#linear-gradient-4"/>
    <linearGradient id="linear-gradient-9" x1="441.11" y1="318.5" x2="463.07" y2="318.5" gradientTransform="matrix(0.61, 0.2, 0.31, -0.95, -287.43, 299.62)" xlink:href="#linear-gradient-4"/>
    <linearGradient id="linear-gradient-10" x1="68.03" y1="240.78" x2="75.28" y2="240.78" gradientTransform="translate(609.74 88.01) rotate(109.22)" xlink:href="#linear-gradient-4"/>
    <linearGradient id="linear-gradient-11" x1="-42.39" y1="226.68" x2="-20.43" y2="226.68" gradientTransform="matrix(-0.21, 0.6, -0.94, -0.33, 581.55, 168.86)" xlink:href="#linear-gradient-4"/>
    <linearGradient id="linear-gradient-12" x1="37.96" y1="325.75" x2="45.21" y2="325.75" gradientTransform="translate(490.73 -216.48) rotate(48.17)" xlink:href="#linear-gradient"/>
    <linearGradient id="linear-gradient-13" x1="-89.62" y1="311.65" x2="-67.65" y2="311.65" gradientTransform="matrix(0.42, 0.47, -0.75, 0.67, 547.83, -152.68)" xlink:href="#linear-gradient"/>
    <linearGradient id="linear-gradient-14" x1="228.15" y1="82.68" x2="228.15" y2="124.02" xlink:href="#linear-gradient-4"/>
    <linearGradient id="linear-gradient-15" x1="166.4" y1="90.04" x2="166.4" y2="159.4" gradientTransform="matrix(1, 0, 0, 1, 0, 0)" xlink:href="#linear-gradient"/>
    <linearGradient id="linear-gradient-16" x1="-293.28" y1="265.86" x2="-293.28" y2="335.23" gradientTransform="matrix(0.8, 0.6, -0.6, 0.8, 667.1, 106.48)" xlink:href="#linear-gradient"/>
    <linearGradient id="linear-gradient-17" x1="-45.84" y1="119.12" x2="-45.84" y2="162.98" gradientTransform="matrix(-0.92, 0.39, 0.39, 0.92, 167.15, 40.03)" xlink:href="#linear-gradient-4"/>
    <linearGradient id="linear-gradient-18" x1="102.93" y1="-25.18" x2="102.93" y2="18.68" gradientTransform="matrix(0.4, 0.91, 0.91, -0.4, 42.45, -38.02)" xlink:href="#linear-gradient-4"/>
    <linearGradient id="linear-gradient-19" x1="-192.48" y1="136.48" x2="-192.48" y2="205.85" gradientTransform="translate(560.74 -88.8) rotate(1.26)" xlink:href="#linear-gradient-4"/>
    <linearGradient id="linear-gradient-20" x1="119.45" y1="196.43" x2="213.19" y2="46.37" xlink:href="#linear-gradient-4"/>
    <linearGradient id="linear-gradient-21" x1="244.44" y1="101.77" x2="230.54" y2="-13" gradientTransform="matrix(1, 0, 0, 1, 0, 0)" xlink:href="#linear-gradient"/>
    <linearGradient id="linear-gradient-22" x1="209.26" y1="285.19" x2="194.29" y2="196.44" gradientTransform="matrix(1, 0, 0, 1, 0, 0)" xlink:href="#linear-gradient"/>
    <linearGradient id="linear-gradient-23" x1="76.52" y1="249.71" x2="158.8" y2="249.71" gradientTransform="matrix(1, 0, 0, 1, 0, 0)" xlink:href="#linear-gradient"/>
    <linearGradient id="linear-gradient-24" x1="143.5" y1="270.51" x2="215.28" y2="270.51" xlink:href="#linear-gradient-4"/>
    <linearGradient id="linear-gradient-25" x1="238.34" y1="269.77" x2="340.26" y2="269.77" gradientUnits="userSpaceOnUse">
      <stop offset="0" stop-color="#2b773e"/>
      <stop offset="1" stop-color="#27954f"/>
    </linearGradient>
  </defs>
  <title>3</title>
  <g id="Layer_2" data-name="Layer 2">
    <g id="Layer_2-2" data-name="Layer 2">
      <g>
        <path class="cls-1" d="M272.46,43.62c-.32-2.66-2.16-6.76-5.19-5.48s.21,3.62,1,2.61a1.36,1.36,0,0,0,0-1.82c.16-.37,4.14,1.69.55,4.49a4.23,4.23,0,0,1-6.39-2c-.59-1.53-.32-8.16,6.19-7.14S272.46,43.62,272.46,43.62Z"/>
        <g>
          <path class="cls-2" d="M239.6,79.06s-1.94-8.3-9.07-10.44V67.37A13.6,13.6,0,0,1,241,77.4Z"/>
          <path class="cls-3" d="M231.25,68.09s1.56,8.59-8.78,6.86-6.77-6.51-26.15-2.9C196.32,72.05,219.11,41.1,231.25,68.09Z"/>
        </g>
        <g>
          <path class="cls-4" d="M127.46,145.52s-1.93-8.31-9.06-10.44v-1.25a13.57,13.57,0,0,1,10.42,10Z"/>
          <path class="cls-5" d="M119.11,134.54s1.56,8.6-8.78,6.86-6.77-6.5-26.15-2.89C84.18,138.51,107,107.56,119.11,134.54Z"/>
        </g>
        <g>
          <path class="cls-6" d="M219.66,169.76s-4-4.74-8.38-5.55c-1.63-.31-.94,1.49,1.16,1.86,3.08.55,6.5,4.59,6.5,4.59Z"/>
          <path class="cls-7" d="M218.38,169s5.34-6,9-1.61,4.27,9,4.57,14a17.14,17.14,0,0,0,2.32,8,8.87,8.87,0,0,0-6.32-1.45,8.24,8.24,0,0,1-8.63-4.92A19.3,19.3,0,0,1,218.38,169Z"/>
        </g>
        <g>
          <path class="cls-8" d="M90.42,76.79s4-4.74,8.38-5.56c1.63-.3.94,1.5-1.16,1.87-3.08.55-6.5,4.59-6.5,4.59Z"/>
          <path class="cls-9" d="M91.7,76.07s-5.34-6-9-1.62-4.27,9-4.57,14a17.07,17.07,0,0,1-2.33,8,8.91,8.91,0,0,1,6.33-1.45,8.24,8.24,0,0,0,8.63-4.92A19.3,19.3,0,0,0,91.7,76.07Z"/>
        </g>
        <g>
          <path class="cls-10" d="M363.49,74.18s-6.21.33-9.49,3.31c-1.23,1.11.62,1.65,2.19.2,2.29-2.11,7.58-2.39,7.58-2.39Z"/>
          <path class="cls-11" d="M362.14,74.77s-1.51-7.86,4.18-8.17,9.74,2,13.95,4.87a17.09,17.09,0,0,0,7.8,3,8.88,8.88,0,0,0-5,4.16A8.25,8.25,0,0,1,374,82.53,19.29,19.29,0,0,1,362.14,74.77Z"/>
        </g>
        <g>
          <path class="cls-12" d="M276.08,26.56s-2.72,5.6-1.7,9.91c.38,1.62,1.75.26,1.24-1.82-.74-3,1.58-7.79,1.58-7.79Z"/>
          <path class="cls-13" d="M275.94,28s-7.61-2.47-5.12-7.6,6.5-7.54,11-9.86a17,17,0,0,0,6.41-5.36,8.89,8.89,0,0,0,1.23,6.36,8.25,8.25,0,0,1-1,9.89A19.28,19.28,0,0,1,275.94,28Z"/>
        </g>
        <path class="cls-14" d="M232.2,107.3s-.54-4.46-4.86-4.46-2.43,2.3-1.35,2.3,1.22-1.22,1.22-1.22,1.35.14,1.35,2.16-2,2.7-3.38,2.7a3.39,3.39,0,0,1-3.5-3.64c0-2.84,2-4.59,5.12-4.59s6.88,2.83,6.88,2.83l.95,4.59-.27.81Z"/>
        <path class="cls-15" d="M164.37,141.7s-.9-4.7,2.27-5.16a3.6,3.6,0,0,1,4.07,2.27s.68-5-3.85-5-4.75,3.39-4.75,3.39S161.43,141.7,164.37,141.7Z"/>
        <path class="cls-16" d="M273.68,148.35s.64-3.17-1.6-3.5-.94,2.46-.94,2.46-1.23.43-2.89-1.27-.35-4.34.95-5.16,3.14-.58,4.84.47S277.52,145.85,273.68,148.35Z"/>
        <path class="cls-17" d="M255,142.52s.17-3.6,2.68-3.34.35,2.91.35,2.91,1.21.81,3.47-.58,1.58-4.59.4-5.84-3.25-1.49-5.37-.82S251.56,138.77,255,142.52Z"/>
        <path class="cls-18" d="M71.27,66.55s-3.6-.1-3.39-2.62,2.91-.4,2.91-.4.78-1.22-.65-3.46-4.62-1.48-5.85-.28-1.42,3.27-.71,5.38S67.58,70.09,71.27,66.55Z"/>
        <path class="cls-19" d="M360,62.12s-1.95-8,4.61-7.83,3.48,6.42,3.48,6.42A5.2,5.2,0,0,0,372.48,57c1.21-3.6-1.43-7.05-6.87-6.49S353.46,55.42,360,62.12Z"/>
        <path class="cls-20" d="M359.72,59.07a18.54,18.54,0,0,0-2.63-6c-5-7.37-13.36-10.12-17.6-15.83a10.41,10.41,0,0,1-2-4.65,14.86,14.86,0,0,1,.19-5.26,37.94,37.94,0,0,1,4.25-10.45l0,0a1.55,1.55,0,0,0-2.71-1.51,41,41,0,0,0-4.81,11.31,18.45,18.45,0,0,0-.33,6.48,13.92,13.92,0,0,0,2.5,6.17,24.79,24.79,0,0,0,4.4,4.61c1.58,1.32,3.21,2.5,4.78,3.67,3.11,2.33,6.11,4.68,8,7.67a14.67,14.67,0,0,1,2,4.77,17.86,17.86,0,0,1,.26,5.28,20.47,20.47,0,0,1-3.36,10,24.19,24.19,0,0,1-8,7.09,44.29,44.29,0,0,1-10.4,4.14,89,89,0,0,1-22.79,2.7,134.14,134.14,0,0,1-23.08-1.92,102.87,102.87,0,0,1-11.2-2.54c-.91-.27-1.8-.57-2.69-.86s-1.67-.62-2.77-1a30.48,30.48,0,0,0-6.36-1.5,34.39,34.39,0,0,0-6.49-.23,37.63,37.63,0,0,0-6.41,1,35.71,35.71,0,0,0-6.15,2.18,31.24,31.24,0,0,0-5.67,3.45,25.58,25.58,0,0,0-4.75,4.88,20.51,20.51,0,0,0-3.12,6.3,21.61,21.61,0,0,0-.72,3.49,23.39,23.39,0,0,0,0,3.55,26.68,26.68,0,0,0,.49,3.46c.14.56.31,1.1.47,1.66a12.68,12.68,0,0,0,.54,1.61,37.16,37.16,0,0,0,6.89,11.06L242.2,126c.62.68,1.11,1.43,1.65,2.14s1,1.47,1.43,2.21.79,1.51,1.19,2.26l.45,1.15.22.58.16.58.31,1.14.17,1.15a11.24,11.24,0,0,1-.31,4.38,13.43,13.43,0,0,1-2,4A20.85,20.85,0,0,1,242,149a35.88,35.88,0,0,1-9.31,5A60,60,0,0,1,222,156.79a81.88,81.88,0,0,1-11.19,1.11l-2.82,0-2.83,0-2.82-.14c-.44,0-1,0-1.57,0l-1.64,0a43.73,43.73,0,0,0-13,2,50.26,50.26,0,0,0-11.77,5.45,70.82,70.82,0,0,0-15.26,13.23,28.92,28.92,0,0,0-3-8.46,42.71,42.71,0,0,0-8.2-10.53l-4.29-4-1.83-1.91c-.58-.65-1.1-1.33-1.67-2a25.65,25.65,0,0,1-4.57-8.82,27.27,27.27,0,0,1-.78-10.07,100.56,100.56,0,0,1,1.89-11.16,61.65,61.65,0,0,0,1.56-12.57,28.38,28.38,0,0,0-.86-6.85,24.85,24.85,0,0,0-2.71-6.46,12,12,0,0,0-.94-1.45l-1-1.4-1.83-2.34c-1.2-1.56-2.49-3.13-3.74-4.69a85.45,85.45,0,0,0-8.5-9c-.75-.73-1.65-1.34-2.46-2l-1.25-1c-.42-.32-.89-.59-1.34-.89-.9-.58-1.79-1.18-2.71-1.72L108,69.56a23.1,23.1,0,0,0-3-1.23l-1.5-.56-.75-.27-.77-.2A44.77,44.77,0,0,0,95.87,66l-3.1-.46-3.09-.19c-1,0-2.06-.15-3.08-.14l-3.06.06c-1,0-2,0-3.05.09l-3,.26-3,.26c-1,.09-2,.27-3,.4-2,.3-4,.53-5.94.9l-5.88,1.13-1.47.29-1.48.36c-1,.25-2,.47-3,.74-1.95.59-3.9,1.16-5.81,1.9a59.91,59.91,0,0,0-11,5.42A47.79,47.79,0,0,0,20.38,94.74a48.8,48.8,0,0,0-4.33,11.33,46.88,46.88,0,0,0-1.45,12,1,1,0,0,0,1,1,1,1,0,0,0,1-1V118a44.65,44.65,0,0,1,2-11.28,43.8,43.8,0,0,1,2-5.38,47.85,47.85,0,0,1,2.59-5.1,44.06,44.06,0,0,1,16-15.76,55.48,55.48,0,0,1,10.37-4.57c1.79-.62,3.64-1.06,5.48-1.54.93-.21,1.87-.38,2.8-.57l1.4-.28,1.44-.22,5.76-.9c1.92-.29,3.84-.44,5.76-.66,1-.1,1.92-.24,2.87-.29l2.88-.15,2.87-.15c1,0,1.9,0,2.85,0l2.84,0c1,0,1.88.16,2.81.23l2.8.26,2.73.51a39.32,39.32,0,0,1,5.31,1.35l.66.19.62.26,1.25.52a18,18,0,0,1,2.45,1.11L107.4,77c.76.48,1.48,1,2.22,1.53.37.26.75.49,1.1.78l1,.88c.68.61,1.41,1.12,2,1.8a76.49,76.49,0,0,1,7.41,8.42c1.16,1.56,2.32,3.06,3.47,4.66l1.73,2.38.67,1a7.49,7.49,0,0,1,.63,1,18.06,18.06,0,0,1,2.16,9.3,54.36,54.36,0,0,1-1.67,10.77,108.07,108.07,0,0,0-2.34,12.07,36.32,36.32,0,0,0,.75,13.36,35,35,0,0,0,5.87,12.19c.68.86,1.35,1.75,2.05,2.59l2.19,2.41,4.28,4.17a32.5,32.5,0,0,1,6.07,8.15,19.3,19.3,0,0,1,2.13,9.05,27.6,27.6,0,0,1-2,9.67c-2.49,6.57-6.66,13-10.9,19.48s-8.84,13-13,20c-1,1.74-2.07,3.48-3.06,5.27l-.74,1.33-.75,1.48c-.49,1-1,1.95-1.41,3A41.91,41.91,0,0,0,114,256.9a38.17,38.17,0,0,0,1.34,13.75,44.08,44.08,0,0,0,5.79,12.18,57.29,57.29,0,0,0,7.47,8.75c5,.74,10.71.3,15.93-.28l-.35-.24-1.07-.78c-.71-.54-1.41-1.1-2.1-1.69-1.39-1.15-2.73-2.36-4-3.62a47.62,47.62,0,0,1-6.62-8.22,34.38,34.38,0,0,1-4.1-9.17,28,28,0,0,1-.78-9.64,31.82,31.82,0,0,1,2.56-9.6,24.79,24.79,0,0,1,1.1-2.34l.58-1.16.69-1.24c.91-1.67,1.89-3.31,2.86-5,4-6.57,8.23-13.07,12.54-19.78,2.15-3.36,4.26-6.81,6.24-10.42a78.54,78.54,0,0,0,5-10.89l.12-.21a102.23,102.23,0,0,1,6.28-9.34,65.65,65.65,0,0,1,15.84-15.22,37.25,37.25,0,0,1,19.87-6.41h1.31c.45,0,.85,0,1.4,0l3.08.09h3.09l3.09-.11a91.88,91.88,0,0,0,12.33-1.44,69.05,69.05,0,0,0,12.1-3.4,43.68,43.68,0,0,0,11.34-6.39,28.47,28.47,0,0,0,4.79-5,21,21,0,0,0,3.14-6.59,19,19,0,0,0,.4-7.34l-.31-1.78c-.15-.57-.32-1.13-.48-1.69l-.26-.85-.32-.8-.66-1.59c-.53-1-1-2-1.61-2.95s-1.16-1.88-1.84-2.71-1.28-1.75-2-2.52l-2-2.3a30,30,0,0,1-5.76-8.78,7.56,7.56,0,0,1-.42-1.18c-.12-.39-.25-.79-.36-1.18a16.58,16.58,0,0,1-.38-2.38,15.64,15.64,0,0,1,0-2.37,15.05,15.05,0,0,1,.44-2.3,13.91,13.91,0,0,1,2-4.29,19.78,19.78,0,0,1,3.42-3.62,27.56,27.56,0,0,1,19.9-5.45,24.89,24.89,0,0,1,5.15,1.12c.77.24,1.85.63,2.82,1s2,.61,3,.88a106.06,106.06,0,0,0,11.92,2.48,138.46,138.46,0,0,0,24.06,1.57,94.5,94.5,0,0,0,24-3.31,48.6,48.6,0,0,0,11.43-4.81,28.66,28.66,0,0,0,9.37-8.62,24.76,24.76,0,0,0,3.88-12.2A21.89,21.89,0,0,0,359.72,59.07Z"/>
        <path class="cls-21" d="M327.44,181.85a90.13,90.13,0,0,0-11-7.35,94.23,94.23,0,0,0-12-5.77,72.57,72.57,0,0,0-12.95-3.9,54.38,54.38,0,0,0-13.84-1.07c-.86.05-1.72.13-2.57.23a36.86,36.86,0,0,0,5.12-16.35,40.44,40.44,0,0,0-.68-10.27,50.7,50.7,0,0,0-2.88-9.71,77.9,77.9,0,0,0-10.15-16.94c-3.91-5.16-8.11-10-12.09-14.81-2-2.43-3.92-4.86-5.66-7.36a36.54,36.54,0,0,1-4.29-7.69,11.94,11.94,0,0,1-.64-7.64,13.69,13.69,0,0,1,4.56-6.44,38.44,38.44,0,0,1,7.44-4.85c1.36-.69,2.74-1.35,4.16-2s3-1.24,4.46-2c.76-.39,1.51-.78,2.24-1.25.36-.22.73-.44,1.09-.68l1.06-.76c.72-.48,1.36-1.11,2-1.66a22.66,22.66,0,0,0,1.84-2,16.39,16.39,0,0,0,3.94-10.07,21.13,21.13,0,0,0-2.51-10.22,37.69,37.69,0,0,0-5.85-8.19,64.3,64.3,0,0,0-15.54-11.91,86.75,86.75,0,0,0-17.89-7.49A89.6,89.6,0,0,0,196.52.91,83.8,83.8,0,0,0,160.88,15a1.29,1.29,0,0,0-.33,1.75,1.26,1.26,0,0,0,1.76.35A81,81,0,0,1,197,4a86.2,86.2,0,0,1,36.84,3.3,82.64,82.64,0,0,1,17,7.42A59.75,59.75,0,0,1,265.15,26a33.73,33.73,0,0,1,5.06,7.3,16.71,16.71,0,0,1,1.9,8.06,10.74,10.74,0,0,1-.86,3.85,11.62,11.62,0,0,1-2.12,3.39,21.12,21.12,0,0,1-6.84,5c-1.32.66-2.67,1.18-4.22,1.83s-3,1.3-4.48,2a43.26,43.26,0,0,0-8.51,5.38,23.33,23.33,0,0,0-3.71,3.84,16,16,0,0,0-2.57,5,15.63,15.63,0,0,0-.6,5.67,20.85,20.85,0,0,0,1.21,5.32,42.27,42.27,0,0,0,4.78,9C246,94.41,248,97,250,99.47c4,5,8.05,9.82,11.72,14.82A71.52,71.52,0,0,1,270.86,130a39.62,39.62,0,0,1,2.84,17.16,30.55,30.55,0,0,1-6.05,15.8,37.63,37.63,0,0,1-3,3.54l-1,.38c-1.1.52-2.21,1-3.3,1.59s-2.12,1.22-3.14,1.89-2,1.4-3,2.14-1.82,1.48-2.7,2.28a37.43,37.43,0,0,0-9.05,11.76,27.48,27.48,0,0,0-2.29,15.54,40.62,40.62,0,0,0,4.9,14,88.81,88.81,0,0,0,7.66,11.45c2.72,3.56,5.57,6.92,8.42,10.19l4.24,4.88c.68.79,1.43,1.64,2,2.39a25.45,25.45,0,0,1,1.61,2.14,28.07,28.07,0,0,1,2.59,4.64,30.65,30.65,0,0,1,1.63,5.13,38.34,38.34,0,0,1,.6,11.17,57.81,57.81,0,0,1-2.28,11.53c-.57,1.91-1.25,3.8-2,5.67-.36.93-.75,1.85-1.15,2.76l-.62,1.35-.17.33c3.54.4,7.06.93,10.6,1.36.29-.59.58-1.18.85-1.78,1-2.1,1.78-4.25,2.53-6.44a63.74,63.74,0,0,0,3.12-13.7,52.46,52.46,0,0,0,.3-7.22,47.07,47.07,0,0,0-.86-7.34,42.38,42.38,0,0,0-2.21-7.2,36.73,36.73,0,0,0-3.63-6.66,37.27,37.27,0,0,0-2.29-3c-.75-.92-1.44-1.68-2.16-2.52l-4.25-4.88c-2.8-3.23-5.56-6.42-8.13-9.66a80.11,80.11,0,0,1-6.86-9.92,32.06,32.06,0,0,1-3.92-10.19,18.32,18.32,0,0,1-.15-4.95,18.1,18.1,0,0,1,1.29-4.76,29.27,29.27,0,0,1,6.38-8.78c.68-.68,1.43-1.32,2.15-2s1.47-1.15,2.2-1.75,1.56-1,2.33-1.54,1.65-.88,2.47-1.33a34.45,34.45,0,0,1,10.94-3.15,52.23,52.23,0,0,1,11.92,0,79.21,79.21,0,0,1,12.09,2.44,106.54,106.54,0,0,1,11.88,4.14,117.58,117.58,0,0,1,11.46,5.41l.05,0a1.48,1.48,0,0,0,1.63-2.45Z"/>
        <path class="cls-22" d="M225,225.49a40.77,40.77,0,0,0-1.16-7.63c-2.53-10-8.63-18.34-15.25-25.21s-13.27-13.4-19.83-20-12.88-13.43-18.11-21a67,67,0,0,1-11-24.89,73.66,73.66,0,0,1,0-27.49h0a1,1,0,0,0-.78-1.15,1,1,0,0,0-1.19.78,76.26,76.26,0,0,0-1,28.42,70.53,70.53,0,0,0,10.67,26.56c5.18,8.07,11.46,15.26,17.82,22.21s12.88,13.66,19,20.64c.78.87,1.54,1.74,2.24,2.6s1.44,1.73,2.09,2.64,1.36,1.78,1.94,2.72,1.24,1.84,1.77,2.81a40.31,40.31,0,0,1,4.83,12,35.15,35.15,0,0,1,.73,6.28,34.71,34.71,0,0,1-.54,6.27,40.22,40.22,0,0,1-4.44,12,67,67,0,0,1-7.61,10.8q-2.19,2.55-4.55,5c-.8.82-1.59,1.63-2.41,2.43s-1.6,1.52-2.53,2.53a31.74,31.74,0,0,0-8.47,14,21.64,21.64,0,0,0-.26,9,19,19,0,0,0,.48,2c3.66,0,7.32,0,11,.06l0-.07c.07.08,0,0,0,0a1.63,1.63,0,0,1-.14-.18,3.94,3.94,0,0,1-.31-.45,11,11,0,0,1-.58-1,11.44,11.44,0,0,1-.79-2.26,11.93,11.93,0,0,1,0-4.91,22.73,22.73,0,0,1,5.75-9.92c.62-.75,1.56-1.67,2.36-2.53s1.64-1.76,2.45-2.66c1.61-1.8,3.2-3.66,4.72-5.57a75,75,0,0,0,8.12-12.46,47.78,47.78,0,0,0,4.76-14.48A41.76,41.76,0,0,0,225,225.49Z"/>
        <path class="cls-23" d="M92.26,296.06S65.41,280.37,66.6,254.47s19.72-22.58,34.22-3.57c0,0-4.75-11.82,2.14-15.06S126,249.48,126,262.07c0,0,1.91-58.7,25.67-58.7s6.66,58.23,6.66,58.23,11.41-17.35,18.78-10-8.56,21.86-8.56,21.86,8.79-3.09,11.88,3.33-14,19.25-14,19.25Z"/>
        <path class="cls-24" d="M158.62,296.06s-14.62-4.1-17.3-18S156.83,275.38,159,282c0,0-2.14-24.07,11.77-22.64s7.31,22.82,7.31,22.82,6.95-31.55,32.26-36.72,15.15,32.44-5.88,41.35c0,0,17.65-8.73,13.19,9.27Z"/>
        <path class="cls-25" d="M247.63,296.06h88.68s6.59-9.71,2.75-14.84-11.91-3.85-11.91-3.85,11.54-16.49,1.46-22.9-28.94,15.39-28.94,15.39-19.42-35-36.1-24.37.92,26.2.92,26.2-21.8-6.59-25.47,4.95S247.63,296.06,247.63,296.06Z"/>
        <g>
          <path class="cls-26" d="M14,124s-3.77,10.89-10.37,4.78,5.69-8.19,5.69-8.19S0,123.44,0,117.22s9-2.49,9-2.49-6-3.88-1.81-7.07,7.92,5.1,7.92,5.1,2.66-8,7.81-4.2-1.38,7.34-1.38,7.34,8.4.16,8.4,5.1-8.83,1.38-8.83,1.38,6.91,6.43.54,9.2S14,124,14,124Z"/>
          <path class="cls-27" d="M11.69,118.87c1,3.41,7,2.39,6.38-.42S10.68,115.26,11.69,118.87Z"/>
        </g>
        <g>
          <path class="cls-26" d="M327.57,17.79c-.73-5,5.9-4.23,5.9-4.23s-6.78-2.87-3.75-7.25,8.69,3.43,8.69,3.43-.15-8.45,5.51-6.94,2.55,7.49,2.55,7.49,7.25-1.35,8,2.56-7.87,3.58-7.87,3.58,5.85,4.73,2.34,7.66-7.33-3.51-7.33-3.51S340,28.82,334,25.89,335.23,19,335.23,19,328.26,22.49,327.57,17.79Z"/>
          <path class="cls-27" d="M338.45,15.56c1.5,3.31,6.18,1.55,5.15-1.36S336.78,11.85,338.45,15.56Z"/>
        </g>
        <g>
          <path class="cls-26" d="M144.57,102.79c-.73-5,5.9-4.23,5.9-4.23s-6.78-2.87-3.75-7.25,8.69,3.43,8.69,3.43-.15-8.45,5.51-6.94,2.55,7.49,2.55,7.49,7.25-1.35,8.05,2.56-7.87,3.58-7.87,3.58,5.85,4.73,2.34,7.66-7.33-3.51-7.33-3.51-1.7,8.24-7.66,5.31,1.23-6.85,1.23-6.85S145.26,107.49,144.57,102.79Z"/>
          <path class="cls-27" d="M155.45,100.56c1.5,3.31,6.18,1.55,5.15-1.36S153.78,96.85,155.45,100.56Z"/>
        </g>
        <g>
          <path class="cls-26" d="M313.57,187.79c-.73-5,5.9-4.23,5.9-4.23s-6.78-2.87-3.75-7.25,8.69,3.43,8.69,3.43-.15-8.45,5.51-6.94,2.55,7.49,2.55,7.49,7.25-1.35,8,2.56-7.87,3.58-7.87,3.58,5.85,4.73,2.34,7.66-7.33-3.51-7.33-3.51-1.7,8.24-7.66,5.31,1.23-6.85,1.23-6.85S314.26,192.49,313.57,187.79Z"/>
          <path class="cls-27" d="M324.45,185.56c1.5,3.31,6.18,1.55,5.15-1.36S322.78,181.85,324.45,185.56Z"/>
        </g>
        <g>
          <path class="cls-26" d="M162.16,21.2s-2.55,8-7.39,5.87,1.66-7.67,1.66-7.67-6.7,5.88-9.05,1,6.29-5.18,6.29-5.18-6.22-2.21-4-6.42,9,2,9,2-1.17-7,5-7,2.91,6.43,2.91,6.43,7.39-3.32,8.49,1.1-7.46,4.32-7.46,4.32,7.46,4,2.07,7.91S162.16,21.2,162.16,21.2Z"/>
          <path class="cls-27" d="M158.2,16.56c1,2.88,7.1,1.67,5.74-1.16S156.85,12.53,158.2,16.56Z"/>
        </g>
      </g>
    </g>
  </g>
</svg>
