<svg xmlns="http://www.w3.org/2000/svg" xmlns:xlink="http://www.w3.org/1999/xlink" width="331.27" height="350.46" viewBox="0 0 331.27 350.46">
  <defs>
    <style>
      .cls-1 {
        fill: url(#linear-gradient);
      }

      .cls-2 {
        fill: url(#linear-gradient-2);
      }

      .cls-3 {
        fill: url(#linear-gradient-3);
      }

      .cls-4 {
        fill: url(#linear-gradient-4);
      }

      .cls-5 {
        fill: #f2fbf8;
      }

      .cls-6 {
        fill: #c8d760;
      }
    </style>
    <linearGradient id="linear-gradient" x1="150.62" y1="187" x2="214.62" y2="187" gradientUnits="userSpaceOnUse">
      <stop offset="0" stop-color="#5a8539"/>
      <stop offset="1" stop-color="#46952f"/>
    </linearGradient>
    <linearGradient id="linear-gradient-2" x1="263.58" y1="234.21" x2="321.58" y2="234.21" xlink:href="#linear-gradient"/>
    <linearGradient id="linear-gradient-3" x1="8.62" y1="283.69" x2="123.26" y2="283.69" xlink:href="#linear-gradient"/>
    <linearGradient id="linear-gradient-4" x1="268.8" y1="42.08" x2="291.81" y2="42.08" xlink:href="#linear-gradient"/>
  </defs>
  <title>1</title>
  <g id="Layer_2" data-name="Layer 2">
    <g id="Layer_3" data-name="Layer 3">
      <g>
        <path class="cls-1" d="M209,242.29c-.93-.15-1.57-.3-2.33-.47s-1.45-.35-2.16-.53c-1.43-.39-2.83-.81-4.23-1.29a60.81,60.81,0,0,1-8.15-3.41,43.65,43.65,0,0,1-14.28-11.07,33.06,33.06,0,0,1-4.83-8,31.54,31.54,0,0,1-2.28-9,39,39,0,0,1,.16-9l.37-2.18.19-1.1.26-1.06,1-4.07a52.74,52.74,0,0,0-.64-30.6,57.23,57.23,0,0,0-7-14.05,63.54,63.54,0,0,0-4.86-6.26,50.88,50.88,0,0,0-5.61-5.49l-.08-.06a1.7,1.7,0,0,1,2.09-2.67A52.49,52.49,0,0,1,163,137.6a65.77,65.77,0,0,1,5.51,6.39,61.93,61.93,0,0,1,8.29,14.8,58.59,58.59,0,0,1,2.41,33.87l-.79,3.91-.18.93-.11.93-.22,1.87a31.57,31.57,0,0,0,.23,7.29,24.13,24.13,0,0,0,2.06,6.73,25.05,25.05,0,0,0,3.93,5.77A35,35,0,0,0,196,228.31a53.71,53.71,0,0,0,7.08,2.55c1.21.34,2.43.64,3.66.91q.91.19,1.83.36c.58.1,1.27.21,1.7.25a5,5,0,1,1-1,10l-.29,0Z"/>
        <path class="cls-2" d="M263.69,271.52c.46-2.2,1-4.12,1.5-6.15s1.12-4,1.73-5.94c1.21-3.93,2.57-7.81,4-11.64a156.52,156.52,0,0,1,10.58-22.23,123,123,0,0,1,6.75-10.34,101,101,0,0,1,7.91-9.49,83.63,83.63,0,0,1,9.21-8.24A69.78,69.78,0,0,1,315.94,191a1.48,1.48,0,0,1,1.41,2.59l0,0a66.5,66.5,0,0,0-9.49,6.82,78.37,78.37,0,0,0-8.1,8.4,96.72,96.72,0,0,0-6.81,9.51c-2.07,3.31-3.93,6.75-5.66,10.25a148.29,148.29,0,0,0-8.5,21.86c-1.14,3.75-2.16,7.53-3,11.34-.44,1.9-.85,3.81-1.22,5.71s-.71,3.88-.94,5.63v0a5,5,0,1,1-9.92-1.32C263.64,271.76,263.67,271.63,263.69,271.52Z"/>
        <path class="cls-3" d="M111.65,344.82c1-9.08,1.64-18.43,2-27.68s.31-18.53-.25-27.73c-.3-4.59-.72-9.17-1.38-13.68-.37-2.24-.63-4.52-1.17-6.7l-.7-3.32c-.25-1.1-.58-2.21-.87-3.32-2.36-8.83-5.47-17.47-10.72-24.42-.69-.83-1.33-1.72-2.06-2.51l-2.28-2.3A35.54,35.54,0,0,0,89,229.29l-1.38-.87c-.46-.29-1-.49-1.46-.74-1-.46-2-1-3-1.4a51.55,51.55,0,0,0-6.34-2.05,77.22,77.22,0,0,0-13.4-2.16c-2.29-.14-4.59-.21-6.89-.31l-3.35.06c-1.1.11-2.22.16-3.32.32a36,36,0,0,0-18.2,7.59,40.68,40.68,0,0,0-4.86,4.61,46.91,46.91,0,0,0-4.11,5.38,54.81,54.81,0,0,0-3.34,5.94,56.59,56.59,0,0,0-2.6,6.34A49.53,49.53,0,0,0,15,258.55v.06a1.41,1.41,0,0,1-2.77-.49,52.44,52.44,0,0,1,1.7-7.07,61.87,61.87,0,0,1,2.53-6.76,52.22,52.22,0,0,1,7.59-12.37,44.11,44.11,0,0,1,5.18-5.23,40.37,40.37,0,0,1,20-9.12c1.22-.21,2.44-.3,3.67-.46s2.45-.13,3.68-.19c2.39,0,4.79,0,7.19.1a81.7,81.7,0,0,1,14.42,1.86,56.91,56.91,0,0,1,7.11,2.06c1.17.43,2.3,1,3.44,1.49.57.27,1.16.48,1.71.8l1.63,1a42.32,42.32,0,0,1,6.22,4.35l2.76,2.62c.89.9,1.66,1.9,2.49,2.85a28.6,28.6,0,0,1,2.26,3,31.73,31.73,0,0,1,2,3.15c.61,1.07,1.26,2.14,1.83,3.24l1.59,3.32a108.79,108.79,0,0,1,5,13.64c.34,1.16.72,2.29,1,3.47l.88,3.54c.65,2.36,1,4.74,1.48,7.12.85,4.75,1.43,9.51,1.9,14.27.89,9.53,1.2,19.05,1.17,28.55s-.39,18.93-1.14,28.54a5,5,0,0,1-10-.79c0-.05,0-.09,0-.14Z"/>
        <path class="cls-4" d="M273.63,72.5c-.52-.77-.86-1.36-1.25-2s-.69-1.35-1-2a33.55,33.55,0,0,1-1.6-4.26,27.43,27.43,0,0,1-1.12-9.2,22.24,22.24,0,0,1,2.5-9.17A25,25,0,0,1,277,38.54l3.06-2.61c.24-.2.48-.4.71-.61l.61-.68,1.23-1.35A19.39,19.39,0,0,0,285.92,27a16.8,16.8,0,0,0,.34-7.18c-.07-.62-.23-1.22-.35-1.84s-.33-1.22-.53-1.82-.43-1.19-.7-1.77a18.42,18.42,0,0,0-.8-1.66l-.07-.13a1.54,1.54,0,0,1,2.56-1.69,20.45,20.45,0,0,1,2.4,3.82c.33.66.62,1.35.91,2s.53,1.41.71,2.15a21.66,21.66,0,0,1,.43,9.19,23.38,23.38,0,0,1-3.7,8.54l-1.44,1.79-.73.89-.81.79c-1.07,1-2.25,2.17-3.08,2.9a19.56,19.56,0,0,0-4.28,5.64A17.34,17.34,0,0,0,275,55.33a22.29,22.29,0,0,0,.83,7.11,27.75,27.75,0,0,0,1.19,3.5c.23.58.49,1.14.76,1.7s.57,1.15.8,1.53l.08.15a3,3,0,0,1-5.07,3.18Z"/>
        <g>
          <path class="cls-5" d="M321.46,186.2s7.53-3.59,9.34,1.35-6.72,4-6.72,4,8.87.86,6.91,5.93-8.08-1-8.08-1,2.65,6.05-1.93,7.32-4.7-7.91-4.7-7.91-4.33,5.69-8.59,1.16,2.69-6.52,2.69-6.52-7.48-3.1-5-6.94,8.26,2.47,8.26,2.47-2.22-8.15,4.34-6.93S321.46,186.2,321.46,186.2Z"/>
          <path class="cls-6" d="M320.79,192.26c1.44-2.68-3.64-6.31-4.78-3.38S318.79,196,320.79,192.26Z"/>
        </g>
        <g>
          <path class="cls-5" d="M15.19,263.48s-2.56,7.94-7.39,5.87,1.65-7.67,1.65-7.67-6.7,5.87-9,1,6.29-5.18,6.29-5.18-6.22-2.21-4-6.43,9,2,9,2-1.18-7.05,5-7.05,2.9,6.42,2.9,6.42,7.39-3.31,8.5,1.11-7.46,4.32-7.46,4.32,7.46,4,2.07,7.91S15.19,263.48,15.19,263.48Z"/>
          <path class="cls-6" d="M11.23,258.83c1,2.89,7.09,1.68,5.74-1.15S9.87,254.81,11.23,258.83Z"/>
        </g>
        <g>
          <path class="cls-5" d="M284.91,15.7s-4.15,7.77-9.22,4.09,3.16-6.43,3.16-6.43-7.52,1.66-7.52-2.48,7.1-2.8,7.1-2.8-5.9-3.89-1.81-6.53,7.36,5,7.36,5,3.42-8.92,8.91-5.91-1,7-1,7,7.77-1.5,7.77,4-9.37,1.71-9.37,1.71,6.06,4.87,1.45,7.21S284.91,15.7,284.91,15.7Z"/>
          <path class="cls-6" d="M281.1,12.59c1.88,3.27,7.25.44,5.74-2.19S279.22,9.35,281.1,12.59Z"/>
        </g>
        <g>
          <path class="cls-5" d="M156.91,137.7s-4.15,7.77-9.22,4.09,3.16-6.43,3.16-6.43-7.52,1.66-7.52-2.48,7.1-2.8,7.1-2.8-5.9-3.89-1.81-6.53,7.36,5,7.36,5,3.42-8.92,8.91-5.91-1,7-1,7,7.77-1.5,7.77,4-9.37,1.71-9.37,1.71,6.06,4.87,1.45,7.21S156.91,137.7,156.91,137.7Z"/>
          <path class="cls-6" d="M153.1,134.59c1.88,3.27,7.25.44,5.74-2.19S151.22,131.35,153.1,134.59Z"/>
        </g>
      </g>
    </g>
  </g>
</svg>
