<svg xmlns="http://www.w3.org/2000/svg" width="330.59" height="329.63" viewBox="0 0 330.59 329.63">
  <defs>
    <style>
      .cls-1 {
        fill: #3d3d3d;
      }

      .cls-2 {
        fill: #918e8f;
      }

      .cls-3 {
        fill: #bbb;
      }

      .cls-4 {
        fill: #fff;
      }
    </style>
  </defs>
  <title>2</title>
  <g id="Layer_2" data-name="Layer 2">
    <g id="Layer_1-2" data-name="Layer 1">
      <g>
        <path class="cls-1" d="M102.78,162s0-47-6-49-83-12-89-6-8,141,0,146,60-2,64-7,0-82,5-84,15,5,15,5Z"/>
        <path d="M20.17,257.26c-5.89,0-11.18-.52-13.72-2.11-1.78-1.11-3.22-4-4.41-14.46C.23,224.75-.45,194.06.31,162.52c.35-14.74,1-27.76,1.82-37.63,1.45-17.19,3-18.77,3.88-19.62,1.42-1.43,4.75-4.75,46.51-.72,20.23,1.94,41.68,5,45,6.11,2.59.86,5.47,3.77,7,27.47.75,11.94.76,23.79.76,23.9v1.61L91.52,169.9l-1.17-.82c-3.37-2.35-9.29-5.33-12.12-4.87-1.62,4.18-1.75,26-1.85,42.15-.16,27.15-.44,38.47-2.65,41.23-3.52,4.41-25.5,7.37-32.15,8.18A193.51,193.51,0,0,1,20.17,257.26ZM9.25,251c2.64,1.42,13.39,2,31.19-.13,16.69-2,27.64-4.94,29.35-6.37,1.39-3.09,1.51-23.34,1.59-38.17.23-38.22.9-45.19,4.47-46.62,5.13-2.05,12.9,2.37,16.16,4.47l8.27-3.75c-.09-19.88-1.79-42.17-4.48-45.08-3.31-1-22.68-3.77-43-5.76-36.24-3.53-42.31-1.29-43.16-.81C7.62,112.41,5.33,140.36,5,180,4.71,222.44,6.9,247.73,9.25,251Z"/>
        <path class="cls-2" d="M227.73,81s-21.84-10-20.22-21.93,3.47-32.84,12-43.78C224.77,8.61,233.05,5,235.62,8.4A49.81,49.81,0,0,1,244.49,47C240.39,69.61,227.73,81,227.73,81Z"/>
        <path d="M228.18,84l-1.5-.69c-2.4-1.1-23.47-11.2-21.65-24.54.17-1.24.34-2.58.53-4,1.56-12.21,3.93-30.65,12-41,4.24-5.41,10.47-9.2,15.08-9.14a6,6,0,0,1,5,2.28A52.54,52.54,0,0,1,247,47.4c-4.21,23.23-17,35-17.55,35.46Zm4.41-74.35c-2.68,0-7.54,2.69-11.08,7.22-7.24,9.26-9.5,26.88-11,38.54-.18,1.43-.35,2.78-.52,4C209,67,220.9,74.73,227.21,78c3.11-3.38,11.65-14,14.82-31.46a47.42,47.42,0,0,0-8.4-36.59,1.42,1.42,0,0,0-1-.31Z"/>
        <path class="cls-2" d="M165.91,238.13s3.7,71.79,6,81c2,8-4,8-4,8h-57v-97h55Z"/>
        <path d="M167.91,329.63h-59.5v-102h60v10.43c1.28,24.77,4.16,73.37,5.93,80.46.9,3.59.54,6.44-1.05,8.48A7.17,7.17,0,0,1,167.91,329.63Zm-54.5-5h54.5a2.19,2.19,0,0,0,1.46-.73c.56-.75.6-2.23.12-4.17-2.33-9.33-5.92-78.53-6.07-81.47v-5.63h-50Z"/>
        <path class="cls-2" d="M186.94,239s-14,32-14,60,6,28,6,28h45V240Z"/>
        <path d="M226.44,329.52h-47.5c-3.18,0-8.5-4-8.5-30.5,0-28.2,13.62-59.68,14.2-61l.68-1.55,41.12,1.11Zm-47-5h42V242.45l-32.86-.89c-2.72,6.68-13.14,33.75-13.14,57.46C175.44,319.5,178.71,323.82,179.43,324.52Z"/>
        <path class="cls-3" d="M326.78,79c-1.42-7.07-37-22-37-22l-73-24-26,67-2,28,3,.56-2.81,20.57c-12.71.88-87.84,6.21-95.16,9.87-8,4-12,16-12,35s4,25,4,35-7,14-7,14-2,23-3,39-.83,45,5,45c4.77,0,45.78.19,50,0,5-.22-5-7-5-46s2-50,2-50,35.09,8.4,47,10c8.56,1.15,28.63,2.1,41.18,2.6.54,24.58,2.49,83.4,8.82,83.4h41s7,0,6-4c-1.21-4.82-12.43-45-13-86.85,3.65-5.5,8-15.16,8-30.15,0-25.75-10.78-36.8-4.19-71,26.31-1.48,60.21-5.1,62.19-14C328.78,103,328.78,89,326.78,79Z"/>
        <path d="M114.6,329.63c-13.54,0-30.86-.07-33.84-.1A4.48,4.48,0,0,1,77.44,328c-6.52-7-4.26-44.51-4.16-46.1,1-15.85,3-38.83,3-39.06l.11-1.31,1.14-.65c.22-.13,5.74-3.5,5.74-11.83a54.76,54.76,0,0,0-1.48-11.26A107.65,107.65,0,0,1,79.28,194c0-20.27,4.5-32.79,13.38-37.23,7.27-3.63,71.35-8.4,94.08-10l2.21-16.2-2.82-.53,2.18-30.6,27-69.56,75.44,24.81c11.06,4.64,37,16.26,38.48,23.81h0c2.34,11.7,1.65,26.58-2,43-1.15,5.19-8.77,8.91-24,11.69a330.3,330.3,0,0,1-38.57,4.14c-3.46,19.4-1.11,30.78,1.36,42.81,1.59,7.7,3.23,15.67,3.23,25.81,0,15.05-4.23,25-8,30.88.28,17.76,2.72,46.55,12.51,84.06.17.64.29,1.13.37,1.46a4.9,4.9,0,0,1-.83,4.3c-2.09,2.67-6.69,2.8-7.59,2.8h-41c-3.52,0-6.64-2.61-9.07-34.79-1.29-17-1.91-37-2.19-48.7-12-.5-30.82-1.42-39.07-2.53-10.09-1.36-36-7.39-44.55-9.4-.56,5.17-1.62,18.71-1.62,46.92,0,23.35,3.62,34.89,5.36,40.44,1,3.18,1.54,4.93.41,6.55a3.81,3.81,0,0,1-3.16,1.51C129.28,329.6,122.6,329.63,114.6,329.63Zm-33.55-5.09c5.26,0,40.26.16,48.31,0-.15-.5-.33-1.07-.49-1.61-1.82-5.78-5.59-17.82-5.59-41.93,0-38.78,2-50,2-50.44l.47-2.6,2.57.61c.35.09,35.11,8.39,46.75,10,8.61,1.15,29.36,2.11,41,2.58l2.34.09.05,2.35c1.19,54.33,4.42,77.38,6.91,80.95h40.41a7.3,7.3,0,0,0,3.59-.82.25.25,0,0,0,0-.07c-.08-.32-.2-.79-.36-1.4-10.06-38.54-12.45-68.06-12.68-86v-.77l.42-.64c3.45-5.19,7.56-14.39,7.56-28.77,0-9.63-1.52-17-3.12-24.8-2.55-12.35-5.18-25.12-1-46.68l.37-1.91,1.94-.11c55.14-3.09,59.56-10.57,59.89-12,4.43-19.93,3.52-33.28,2-41-.68-3.14-16.89-12.36-35.43-20.14L218.25,36.15l-25,64.44L191.43,126l3.12.58-3.4,24.95-2,.14c-43.33,3-89.26,7.14-94.22,9.62-7,3.47-10.62,14.8-10.62,32.76a102.09,102.09,0,0,0,2.42,22.75A58.19,58.19,0,0,1,88.28,229a18.91,18.91,0,0,1-7.11,15.38c-.42,4.88-2,24-2.9,37.78C76.92,303.89,78.61,322.21,81.05,324.54Z"/>
        <path class="cls-1" d="M194.78,60s-17,16-17,21-6,96,2,101,41,6,44,2-7-91-12-97S194.78,60,194.78,60Z"/>
        <path d="M208.76,189c-1.77,0-3.52,0-5.2-.1-9-.36-20.36-1.79-25.11-4.76-4.18-2.61-7.5-16-3.5-95.89.19-3.8.33-6.55.33-7.23,0-5.48,12.44-17.78,17.79-22.82L195.38,56,197,58.79c.12.21,12,20.88,16.75,26.64,3.71,4.45,7.92,36.84,9.56,50.56,1.42,11.83,2.52,23.15,3.11,31.88,1,15.49.1,16.75-.59,17.66C223.72,188.28,216.18,189,208.76,189ZM181.17,180c7.38,4.52,36.33,5,40.5,2.61,2-9-8-88.76-11.82-93.94-4-4.82-12.18-18.61-15.64-24.57-7.65,7.48-13.82,15-13.93,17,0,.8-.13,3.31-.34,7.47-.57,11.49-1.64,32.89-1.8,52.59C177.87,174.45,180.55,179.29,181.17,180Z"/>
        <path class="cls-1" d="M216.78,31s65-3,69,2,9,14,9,22-6,17-6,17-36-11-64-11C224.78,61,224.78,39,216.78,31Z"/>
        <path d="M289.83,75l-1.78-.55c-.36-.1-36-10.89-63.27-10.89h-2.5V61c0-5.83-1.32-22.28-7.27-28.23l-4-4,5.65-.26c.17,0,16.49-.76,33.1-.88,34.72-.26,36.75,2.29,38,3.81,4.41,5.51,9.55,15,9.55,23.56s-6.16,18-6.42,18.39ZM227.22,58.56c24.25.51,52.85,8.34,60.42,10.53,1.59-2.77,4.64-8.76,4.64-14.06,0-6.76-4.18-15.05-8.36-20.31-3.76-2.37-33.75-2.56-62.37-1.39C226,41.26,227,53.37,227.22,58.56Z"/>
        <path class="cls-3" d="M208.78,80s-21.17-6-21-18-1-33,6-45c4.27-7.33,12-12,15-9s22,21,15,49"/>
        <path d="M208.78,82.53a2.72,2.72,0,0,1-.69-.09c-.94-.27-23-6.74-22.81-20.44,0-1.67,0-3.52,0-5.49,0-12.59,0-29.83,6.32-40.74,3.46-5.93,9.1-10.49,13.7-11.09a6,6,0,0,1,5.23,1.59l.23.23C225.36,21,230.83,39.13,226.2,57.64c-.33,1.34-2.58,6.23-3.92,5.89s-1.26-5.76-.93-7.1c4.19-16.73-.82-33.2-14.09-46.38L207,9.8c-.23-.23-.75-.2-1-.16-2.64.34-7.12,3.67-10,8.65-5.68,9.74-5.66,26.2-5.64,38.21,0,2,0,3.88,0,5.57-.12,8.23,13.87,13.82,19.19,15.56,5.81,1.9,6.81,16.9,6.81,16.9S209.87,82.53,208.78,82.53Z"/>
        <path class="cls-3" d="M267.93,42.88c3.48-16.23,7.79-39.75,3.7-40.33-4.38-.63-15.73,23.61-22.18,38.3A89.11,89.11,0,0,1,267.93,42.88Z"/>
        <path d="M269.83,45.92l-2.51-.62a86,86,0,0,0-17.93-1.95l-3.74-.08,1.51-3.43C265.07-.92,269.57-.27,272,.07a3.7,3.7,0,0,1,2.52,1.6c1.1,1.59,3.69,5.29-4.13,41.73Zm-16.6-7.45A91.11,91.11,0,0,1,266,39.89c4.84-23,5-31.21,4.7-34C268.7,8,263.69,15.05,253.23,38.47Z"/>
        <ellipse class="cls-4" cx="254.28" cy="91.03" rx="14.88" ry="18.6" transform="translate(-9.74 34.11) rotate(-7.53)"/>
        <path d="M255.11,112.08a16.26,16.26,0,0,1-11.27-4.82A24.54,24.54,0,0,1,240,78.08a15.38,15.38,0,0,1,24.74-3.27A24.54,24.54,0,0,1,268.58,104a15.94,15.94,0,0,1-11.53,8A14.15,14.15,0,0,1,255.11,112.08ZM253.42,75a8.75,8.75,0,0,0-1.25.08,11.07,11.07,0,0,0-7.91,5.59,19.53,19.53,0,0,0,3,23,10.4,10.4,0,0,0,17-2.25,18.54,18.54,0,0,0,2.25-12h0a18.49,18.49,0,0,0-5.29-11A11.39,11.39,0,0,0,253.42,75Z"/>
        <ellipse cx="255.74" cy="89.99" rx="9.31" ry="11.63" transform="translate(-9.59 34.3) rotate(-7.53)"/>
        <path d="M306.64,82.42s6-1,8,1S316.25,86.71,316,87s-2.12,2-4.79.11A21.45,21.45,0,0,1,306.64,82.42Z"/>
        <path d="M326.73,111.11a15,15,0,0,0-5.54.3c-2.64.64-5.79,2.15-5.72,3.07,0,.57,1.24.64,5.68,1.43,2,.35,3.64.67,4.69.88Z"/>
        <path d="M269.28,37.22A23.27,23.27,0,0,1,253,30.64l2.93-2.72a19.58,19.58,0,0,0,13.35,5.3Z"/>
        <path d="M271.77,22.67A16.71,16.71,0,0,1,260.11,18L263,15.22a12.62,12.62,0,0,0,8.73,3.45Z"/>
        <path d="M208.91,8a71.29,71.29,0,0,0-5.31,13.23,53.46,53.46,0,0,0-2.06,14.05A84.4,84.4,0,0,0,203,49.61c.84,4.79,1.85,9.5,3.06,14.28a.7.7,0,0,1-1.34.38l0-.07C203.29,59.57,202,54.78,201,50a85.28,85.28,0,0,1-2.13-14.69,56.42,56.42,0,0,1,1.51-14.93,75.16,75.16,0,0,1,5-14.15A2,2,0,1,1,209,7.9l0,.08Z"/>
      </g>
    </g>
  </g>
</svg>
