<svg xmlns="http://www.w3.org/2000/svg" viewBox="0 0 368.41 329.63"><defs><style>.cls-1{fill:#fbb03b;}.cls-2{fill:#8c6239;}.cls-3{fill:#ffe2c5;}.cls-4{fill:#c69c6d;}.cls-5{fill:#dcf2bb;}.cls-6{fill:#fff;}</style></defs><title>Green</title><g id="Layer_2" data-name="Layer 2"><g id="Layer_1-2" data-name="Layer 1"><path class="cls-1" d="M134.41,165.13s-18-40-59-40-69.06,37.42-63,81c5,36,27,31,27,55s-36,27-36,3c0,0-10,40,37,40s62-39,43-67c-12.92-19-14-83,41-58Z"/><path d="M40.41,306.63c-15.74,0-27.12-4.36-33.83-12.95C-3.26,281.08.8,264.23,1,263.52a2.5,2.5,0,0,1,4.93.61c0,4.49,1.44,8.18,4.18,10.65a14.29,14.29,0,0,0,9.64,3.42c8.32,0,17.18-6,17.18-17.07,0-10.21-4.31-14.56-9.75-20.07-6.44-6.52-14.46-14.62-17.23-34.59-3.23-23.25,3-45.81,17-61.89a63.44,63.44,0,0,1,48.53-22c42.12,0,61.09,41.06,61.28,41.47a2.51,2.51,0,0,1-.25,2.48l-10,14a2.49,2.49,0,0,1-3.07.82c-17.11-7.78-30.09-7.22-37.54,1.62-11,13.1-8.12,41.26-.36,52.7,9.73,14.33,11.12,32,3.64,46.13C80.76,297.6,63,306.63,40.41,306.63ZM5.27,277a26.9,26.9,0,0,0,5.27,13.64c5.72,7.3,15.77,11,29.87,11,20.69,0,36.83-8.07,44.28-22.12,6.61-12.49,5.33-28.19-3.35-41C72.77,225.9,69.19,195,82,179.79c6.14-7.28,18.31-13.72,41.54-3.77l8-11.12c-3.46-6.65-21.28-37.27-56.09-37.27a58.48,58.48,0,0,0-44.76,20.24c-13,15-18.8,36.1-15.77,57.91,2.55,18.32,9.61,25.46,15.84,31.76,5.75,5.82,11.19,11.32,11.19,23.59,0,14.33-11.43,22.07-22.18,22.07a19.27,19.27,0,0,1-13-4.71A17.34,17.34,0,0,1,5.27,277Z"/><path class="cls-2" d="M252.64,81s-21.85-10-20.22-21.93,3.47-32.84,12-43.78C249.67,8.61,258,5,260.53,8.4A49.82,49.82,0,0,1,269.39,47C265.29,69.61,252.64,81,252.64,81Z"/><path d="M253.08,84l-1.49-.69c-2.41-1.1-23.47-11.2-21.65-24.54.17-1.24.34-2.58.52-4,1.57-12.21,3.93-30.65,12-41,4.23-5.41,10.47-9.2,15.08-9.14a6,6,0,0,1,5,2.28,52.55,52.55,0,0,1,9.33,40.51c-4.2,23.23-17,35-17.54,35.46Zm4.41-74.35c-2.67,0-7.53,2.69-11.07,7.22-7.24,9.26-9.5,26.88-11,38.54-.18,1.43-.36,2.78-.53,4C233.86,67,245.8,74.73,252.11,78c3.12-3.38,11.66-14,14.82-31.46a47.43,47.43,0,0,0-8.39-36.59,1.43,1.43,0,0,0-1-.31Z"/><path class="cls-2" d="M190.82,238.13s3.7,71.79,6,81c2,8-4,8-4,8h-57v-97h55Z"/><path d="M192.82,329.63h-59.5v-102h60v10.43c1.28,24.77,4.15,73.37,5.93,80.46.89,3.59.54,6.44-1.05,8.48A7.18,7.18,0,0,1,192.82,329.63Zm-54.5-5h54.5a2.19,2.19,0,0,0,1.46-.73c.56-.75.6-2.23.11-4.17-2.33-9.33-5.92-78.53-6.07-81.47v-5.63h-50Z"/><path class="cls-2" d="M211.84,239s-14,32-14,60,6,28,6,28h45V240Z"/><path d="M251.34,329.52h-47.5c-3.17,0-8.5-4-8.5-30.5,0-28.2,13.63-59.68,14.21-61l.67-1.55,41.12,1.11Zm-47-5h42V242.45l-32.85-.89c-2.73,6.68-13.15,33.75-13.15,57.46C200.34,319.5,203.62,323.82,204.34,324.52Z"/><path class="cls-3" d="M267,278.32c-11,6.6-2.85,14.71-15.06,16.4a14,14,0,0,0-8.42,4.73c1.35,15.5,3.32,27.58,6.18,27.58h41s7,0,6-4c-.72-2.9-5.07-18.6-8.54-39.76C283,279.21,274.21,274,267,278.32Z"/><path class="cls-4" d="M351.68,79c-1.41-7.07-37-22-37-22l-73-24S230,53.19,227.91,61.63a236.16,236.16,0,0,0-5.72,81.83,5,5,0,0,1-4.6,5.55l-2.56.19c1.53,6.71,2.8,19.26-7.87,22.79-7.43,2.45-17.1-2-22.34,6.41-3.91,6.3,1.34,14.52-9.74,23.57-10.15,8.28-23.29-1.66-32.79,2.48s.47,13,0,25.68-8.8,17.9-21.63,15c-5-1.1-9-4.21-12-7.6a15.79,15.79,0,0,1-3.49,4.38,4.87,4.87,0,0,0-1.64,3.29c-.31,3.55-.93,10.95-1.56,19.08-.45,5.92-.91,12.23-1.26,17.71-1,16-.83,45,5,45,4.78,0,45.79.19,50,0,5-.22-5-7-5-46s2-50,2-50,35.1,8.4,47,10c8.56,1.15,28.64,2.1,41.19,2.6.29,13.44,1,37.12,2.63,55.82a14,14,0,0,1,8.42-4.73c12.21-1.69,4.1-9.8,15.06-16.4,7.23-4.35,16,.89,21.16,4.95a321.24,321.24,0,0,1-4.43-47.09c3.66-5.5,8-15.16,8-30.15,0-25.75-10.77-36.8-4.18-71,26.3-1.48,60.21-5.1,62.18-14C353.68,103,353.68,89,351.68,79Z"/><path class="cls-3" d="M120.66,245.17c12.83,2.86,21.15-2.37,21.63-15s-9.51-21.55,0-25.68,22.64,5.8,32.79-2.48c11.08-9.05,5.83-17.27,9.74-23.57,5.24-8.42,14.91-4,22.34-6.41,10.67-3.53,9.4-16.08,7.87-22.79l-2.89.21C186,151.34,124.83,156,118.68,159c-8,4-12,16-12,35s4,25,4,35a17.76,17.76,0,0,1-2.05,8.54C111.68,241,115.68,244.07,120.66,245.17Z"/><path class="cls-5" d="M193.2,178.43c-4.1,0-7.4,8,0,9.18S201.13,178.34,193.2,178.43Z"/><path class="cls-3" d="M144.57,207.7c-3.33.54-2.38,12.83,3.68,11.52S151.88,206.51,144.57,207.7Z"/><path class="cls-3" d="M254.58,285.92c2.63,2.36-2,6.59-4.5,4.19S252,283.56,254.58,285.92Z"/><path class="cls-3" d="M272.48,272.2c4.29,0,5.08-4,4.15-6.28s-3.57-3.7-6.82-1.82A4.43,4.43,0,0,0,272.48,272.2Z"/><path class="cls-3" d="M124.32,249.18c6.24,0,7.31,8.49,1.25,8.49S119.15,249.18,124.32,249.18Z"/><path class="cls-5" d="M204.54,180.33c-4.13,9.2,7.49,11.88,11.65,4.52S208.23,172.14,204.54,180.33Z"/><path d="M139.5,329.63c-13.54,0-30.85-.07-33.84-.1a4.46,4.46,0,0,1-3.31-1.55c-6.52-7-4.26-44.51-4.16-46.1C99,268.59,100.55,250.31,101,245a7.37,7.37,0,0,1,2.5-5,14.16,14.16,0,0,0,4.68-11,54.75,54.75,0,0,0-1.47-11.26A106.9,106.9,0,0,1,104.18,194c0-20.26,4.51-32.79,13.39-37.23,4.76-2.38,35-5.51,98-10.15l1.86-.13a2.49,2.49,0,0,0,2.29-2.77A239,239,0,0,1,225.48,61c2.17-8.67,13.56-28.4,14-29.24l1-1.76,75.11,24.71c11.07,4.64,37,16.26,38.49,23.81h0c2.34,11.7,1.64,26.58-2,43-1.16,5.19-8.77,8.91-24,11.69a330.3,330.3,0,0,1-38.57,4.14c-3.46,19.4-1.12,30.78,1.36,42.81,1.58,7.7,3.22,15.67,3.22,25.81,0,15.05-4.23,25-8,30.87.29,17.77,2.72,46.57,12.52,84.08.16.63.29,1.12.37,1.45a4.91,4.91,0,0,1-.84,4.3c-2.08,2.67-6.68,2.8-7.59,2.8h-41c-3.52,0-6.63-2.61-9.07-34.79-1.28-17-1.91-37-2.19-48.7-13.93-.58-31.17-1.47-39.07-2.53-10.09-1.36-36-7.39-44.54-9.4-.56,5.17-1.63,18.71-1.63,46.92,0,23.35,3.62,34.89,5.36,40.44,1,3.18,1.55,4.93.42,6.55a3.81,3.81,0,0,1-3.16,1.51C154.18,329.6,147.49,329.63,139.5,329.63ZM106,324.54c5.27,0,40.26.16,48.31,0-.14-.5-.32-1.07-.49-1.61-1.81-5.78-5.59-17.81-5.59-41.93,0-38.78,2-50,2-50.44l.48-2.6,2.57.61c.35.09,35.1,8.39,46.75,10,8.59,1.15,29.34,2.11,40.95,2.58l2.35.09.05,2.35c1.19,54.33,4.41,77.38,6.91,80.95h40.4a7.3,7.3,0,0,0,3.59-.82.2.2,0,0,0,0-.07c-.08-.32-.2-.79-.36-1.4-10.06-38.54-12.45-68.05-12.69-86v-.77l.43-.64c3.45-5.19,7.55-14.39,7.55-28.77,0-9.63-1.51-17-3.12-24.8-2.54-12.35-5.17-25.12-1-46.68l.37-1.91,1.95-.11c55.14-3.09,59.56-10.57,59.88-12,4.43-19.93,3.53-33.28,2-41-.68-3.14-16.89-12.36-35.42-20.14l-71-23.33c-2.85,5-10.87,19.6-12.52,26.18a233.71,233.71,0,0,0-5.66,80.94,7.48,7.48,0,0,1-6.89,8.33l-1.87.14c-59.79,4.4-92.13,7.64-96.11,9.63-6.94,3.47-10.62,14.8-10.62,32.76a101.37,101.37,0,0,0,2.43,22.75A58.85,58.85,0,0,1,113.18,229a19.11,19.11,0,0,1-6.4,14.81,2.33,2.33,0,0,0-.79,1.61c-.45,5.27-2,23.51-2.81,36.74C101.82,303.89,103.51,322.21,106,324.54Z"/><path class="cls-1" d="M232.57,79.46s-4.16,36.67.84,58.67,8,51-8,61c-26.29,16.43-42-9-42-25,0,0,12,5,18-1s-13-14-13-50,30-67,30-67Z"/><path d="M209.14,207a23.67,23.67,0,0,1-11.6-3c-10.81-6-16.63-19.83-16.63-29.81a2.5,2.5,0,0,1,3.46-2.31c2.91,1.2,11.34,3.47,15.27-.46.87-.87.49-2-2.39-6.82-4.24-7.17-11.34-19.17-11.34-41.41,0-36.59,29.45-67.45,30.7-68.74a2.48,2.48,0,0,1,2.07-.75,2.52,2.52,0,0,1,1.86,1.19l14.17,23.33a2.51,2.51,0,0,1,.35,1.58c0,.36-4.06,36.51.78,57.83,7.66,33.69,4.59,55.11-9.11,63.68C220,205.46,214.09,207,209.14,207Zm-23-29.32c1.11,8,5.87,17.54,13.8,21.94,7,3.9,15.16,3,24.12-2.56,14.58-9.11,11.79-36.75,6.89-58.33-4.67-20.55-1.58-52.85-1-58.65L218,60.31c-6.8,7.89-27.11,33.91-27.11,62.82,0,20.88,6.66,32.14,10.64,38.86,2.9,4.9,5.4,9.13,1.62,12.91C198.32,179.75,190.69,178.8,186.16,177.63Z"/><path class="cls-1" d="M238.41,36.13s6.07-19,56.37-19,71.13,49,71.13,49-15.62-11-42.5-1c-11.09,4.12-46,11-76.33-7l-7.81-18Z"/><path d="M292.76,72.49c-14.55,0-31.4-3-47-12.21a2.53,2.53,0,0,1-1-1.16l-7.81-18a1.9,1.9,0,0,1-.15-.46l-.87-4a2.56,2.56,0,0,1,.06-1.29c.28-.85,7.22-20.74,58.76-20.74,21.28,0,40.73,8.74,56.25,25.29a95.48,95.48,0,0,1,17.18,25.23,2.5,2.5,0,0,1-3.74,3c-.6-.41-15-10.07-40.19-.7C317.53,70,306.11,72.49,292.76,72.49ZM249.05,56.38c29.09,16.84,62.85,10.36,73.48,6.4,17.44-6.48,30.37-4.51,37.75-2-7.56-12.94-28.31-41.13-65.5-41.13-42.59,0-52.22,13.88-53.76,16.77l.64,3Z"/><ellipse class="cls-6" cx="279.18" cy="91.03" rx="14.88" ry="18.6" transform="translate(-9.52 37.38) rotate(-7.53)"/><path d="M280,112.08a16.24,16.24,0,0,1-11.27-4.82,24.5,24.5,0,0,1-3.86-29.18,15.37,15.37,0,0,1,24.73-3.27A24.5,24.5,0,0,1,293.48,104,15.92,15.92,0,0,1,282,112,14,14,0,0,1,280,112.08ZM278.33,75a8.88,8.88,0,0,0-1.26.08,11,11,0,0,0-7.9,5.59,19.53,19.53,0,0,0,3,23,10.39,10.39,0,0,0,17-2.25,18.54,18.54,0,0,0,2.26-12h0a18.56,18.56,0,0,0-5.3-11A11.35,11.35,0,0,0,278.33,75Z"/><ellipse cx="280.65" cy="89.99" rx="9.31" ry="11.63" transform="translate(-9.37 37.56) rotate(-7.53)"/><path d="M331.55,82.42s6-1,8,1,1.6,3.33,1.35,3.58-2.11,2-4.79.11A21.54,21.54,0,0,1,331.55,82.42Z"/><path d="M351.63,111.11a15,15,0,0,0-5.53.3c-2.64.64-5.8,2.15-5.73,3.07,0,.57,1.25.64,5.69,1.43,2,.35,3.63.67,4.69.88Z"/><path class="cls-4" d="M292.83,42.88c3.48-16.23,7.8-39.75,3.7-40.33-4.37-.63-15.72,23.61-22.18,38.3A89,89,0,0,1,292.83,42.88Z"/><path d="M294.73,45.92l-2.5-.62a86,86,0,0,0-17.93-1.95l-3.74-.08,1.5-3.43C290-.92,294.47-.27,296.89.07a3.7,3.7,0,0,1,2.52,1.6c1.1,1.59,3.68,5.29-4.13,41.73Zm-16.59-7.45a91.29,91.29,0,0,1,12.77,1.42c4.84-23,5-31.21,4.69-34C293.61,8,288.6,15.05,278.14,38.47Z"/><path d="M294.18,37.22a23.27,23.27,0,0,1-16.28-6.58l2.93-2.72a19.61,19.61,0,0,0,13.35,5.3Z"/><path d="M296.68,22.67A16.71,16.71,0,0,1,285,18L288,15.22a12.6,12.6,0,0,0,8.73,3.45Z"/><path class="cls-4" d="M233.68,80s-21.17-6-21-18-1-33,6-45c4.28-7.33,12-12,15-9s22,21,15,49"/><path d="M233.69,82.53a2.72,2.72,0,0,1-.69-.09c-.94-.27-23-6.74-22.82-20.44,0-1.67,0-3.52,0-5.49,0-12.59,0-29.83,6.32-40.74,3.47-5.93,9.1-10.49,13.71-11.09a5.91,5.91,0,0,1,5.22,1.59l.24.23C250.26,21,255.74,39.13,251.11,57.64c-.33,1.34-2.58,6.23-3.93,5.89s-1.26-5.76-.92-7.1c4.18-16.73-.82-33.2-14.09-46.38l-.25-.25c-.23-.23-.76-.2-1-.16-2.65.34-7.12,3.67-10,8.65-5.67,9.74-5.65,26.2-5.64,38.21,0,2,0,3.88,0,5.57-.11,8.23,13.88,13.82,19.19,15.56,5.81,1.9,6.81,16.9,6.81,16.9S234.77,82.53,233.69,82.53Z"/><path d="M233.81,8a71.25,71.25,0,0,0-5.3,13.23,53,53,0,0,0-2.06,14.05,82.41,82.41,0,0,0,1.44,14.34c.83,4.79,1.85,9.5,3.06,14.28a.7.7,0,0,1-.51.85.69.69,0,0,1-.83-.47l0-.07c-1.4-4.63-2.65-9.42-3.7-14.2a84.32,84.32,0,0,1-2.14-14.69,56.43,56.43,0,0,1,1.52-14.93,74.43,74.43,0,0,1,4.95-14.15,2,2,0,0,1,3.64,1.67l0,.08Z"/></g></g></svg>