<svg xmlns="http://www.w3.org/2000/svg" width="330.588" height="329.627" viewBox="0 0 330.588 329.627">
  <title>Merky</title>
  <g>
    <g>
      <path d="M102.779,162.033s0-47-6-49-83-12-89-6-8,141,0,146,60-2,64-7,0-82,5-84,15,5,15,5Z" fill="#333842"/>
      <path d="M20.168,257.262c-5.888,0-11.178-.523-13.714-2.108-1.786-1.117-3.219-4-4.41-14.461C.228,224.747-.454,194.064.307,162.521c.355-14.744.984-27.759,1.818-37.636C3.576,107.7,5.16,106.117,6.011,105.266c1.42-1.421,4.747-4.746,46.508-.721,20.229,1.95,41.679,4.993,45.05,6.117,2.589.863,5.474,3.767,6.955,27.466.746,11.94.755,23.787.755,23.905v1.61L91.516,169.9l-1.17-.817c-3.367-2.351-9.287-5.334-12.116-4.87-1.624,4.182-1.752,26.04-1.847,42.152-.158,27.141-.443,38.47-2.652,41.231-3.524,4.406-25.5,7.368-32.153,8.171A193.2,193.2,0,0,1,20.168,257.262ZM9.247,251c2.641,1.424,13.393,1.979,31.2-.131,16.688-1.976,27.636-4.934,29.347-6.369,1.388-3.086,1.506-23.334,1.593-38.162.224-38.22.892-45.191,4.467-46.622,5.125-2.049,12.9,2.367,16.163,4.469l8.262-3.756c-.088-19.873-1.781-42.161-4.478-45.079-3.307-.951-22.679-3.77-43.043-5.755-36.246-3.533-42.31-1.294-43.163-.807-1.974,3.621-4.259,31.572-4.559,71.175C4.711,222.443,6.9,247.726,9.247,251Z"/>
      <path d="M227.73,81s-21.842-10.047-20.219-21.936,3.472-32.832,12.031-43.775c5.227-6.684,13.512-10.267,16.079-6.889a49.813,49.813,0,0,1,8.867,38.554C240.387,69.61,227.73,81,227.73,81Z" fill="#918e8f"/>
      <path d="M228.179,83.961l-1.494-.687c-2.408-1.108-23.472-11.2-21.652-24.545.169-1.239.341-2.577.522-3.991,1.566-12.2,3.932-30.648,12.017-40.986,4.234-5.414,10.471-9.2,15.078-9.14a5.957,5.957,0,0,1,4.961,2.279A52.545,52.545,0,0,1,246.948,47.4c-4.205,23.228-17,34.97-17.546,35.459Zm4.408-74.349c-2.674,0-7.535,2.692-11.076,7.22-7.239,9.256-9.5,26.88-11,38.542-.183,1.429-.357,2.78-.528,4.031-1.029,7.544,10.908,15.327,17.222,18.562,3.114-3.378,11.653-13.969,14.819-31.456a47.429,47.429,0,0,0-8.4-36.595c-.2-.26-.721-.3-1.015-.3Z"/>
      <path d="M165.914,238.127s3.7,71.8,6,81c2,8-4,8-4,8h-57v-97h55Z" fill="#918e8f"/>
      <path d="M167.914,329.627h-59.5v-102h60v10.436c1.277,24.768,4.154,73.371,5.926,80.458.9,3.588.545,6.441-1.047,8.479A7.159,7.159,0,0,1,167.914,329.627Zm-54.5-5h54.5a2.184,2.184,0,0,0,1.457-.729c.561-.748.6-2.227.118-4.164-2.333-9.331-5.92-78.536-6.071-81.478l0-.129v-5.5h-50Z"/>
      <path d="M186.935,239.018s-14,32-14,60,6,28,6,28h45v-87Z" fill="#918e8f"/>
      <path d="M226.435,329.518h-47.5c-3.174,0-8.5-3.963-8.5-30.5,0-28.2,13.63-59.676,14.21-61l.674-1.543,41.116,1.111Zm-47-5h42V242.451l-32.854-.888c-2.725,6.674-13.146,33.747-13.146,57.455C175.435,319.5,178.714,323.82,179.433,324.518Z"/>
      <path d="M324.78,121.037c-1.98,8.89-35.88,12.52-62.19,13.99-6.59,34.21,4.19,45.26,4.19,71.01,0,14.98-4.32,24.64-7.97,30.14.54,41.89,11.76,82.03,12.97,86.86,1,4-6,4-6,4h-41c-6.33,0-8.28-58.83-8.82-83.4-12.55-.51-32.62-1.45-41.18-2.6-11.91-1.6-47-10-47-10s-2,11-2,50c0,1.88.02,3.68.07,5.41.86,34.23,9.68,40.37,4.93,40.59-4.22.18-45.23.04-50,0-5.83-.05-6-29-5-45,.12-1.88.25-3.86.39-5.89,1.05-15.2,2.61-33.11,2.61-33.11s7-4,7-14-4-16-4-35,4-31,12-35c7.32-3.66,82.45-9,95.16-9.88l2.81-20.57-2.97-.55,2-28,26-67,73,24s35.58,14.93,37,22C328.78,89.037,328.78,103.037,324.78,121.037Z" fill="#bbb"/>
      <path d="M130.78,327.037c-4.22.18-45.23.04-50,0-5.83-.05-6-29-5-45,.12-1.88.25-3.86.39-5.89,1.98-1.58,7.2-4.92,13.78-2.7,8.44,2.85,6.3,14.62,16.4,17.11s19.24-5.11,19.24-5.11l.26,1C126.71,320.677,135.53,326.817,130.78,327.037Z" fill="#b1b1b2"/>
      <path d="M114.6,329.627c-13.536,0-30.857-.069-33.842-.094a4.509,4.509,0,0,1-3.317-1.552c-6.521-7-4.257-44.51-4.157-46.1.99-15.846,2.984-38.83,3-39.06l.114-1.305,1.137-.649c.217-.129,5.74-3.5,5.74-11.83a54.594,54.594,0,0,0-1.477-11.26,107.413,107.413,0,0,1-2.523-23.74c0-20.268,4.5-32.795,13.382-37.236,7.265-3.632,71.349-8.4,94.08-9.99l2.209-16.2-2.824-.525,2.186-30.6,26.994-69.562,75.44,24.81c11.068,4.643,36.973,16.258,38.485,23.815h0c2.339,11.7,1.644,26.582-2.012,43.033-1.154,5.2-8.767,8.912-23.96,11.7a330.909,330.909,0,0,1-38.567,4.137c-3.459,19.405-1.115,30.786,1.361,42.811,1.586,7.7,3.226,15.669,3.226,25.813,0,15.044-4.231,25.011-7.963,30.873.289,17.759,2.721,46.553,12.513,84.068.166.638.293,1.126.375,1.453a4.9,4.9,0,0,1-.838,4.3c-2.085,2.671-6.686,2.805-7.587,2.805h-41c-3.523,0-6.637-2.618-9.072-34.794-1.286-17-1.911-36.974-2.188-48.7-11.962-.5-30.823-1.415-39.073-2.524-10.09-1.356-36.029-7.394-44.543-9.4-.561,5.172-1.624,18.711-1.624,46.926,0,23.347,3.619,34.889,5.358,40.435,1,3.183,1.547,4.935.415,6.55a3.828,3.828,0,0,1-3.162,1.513C129.276,329.6,122.6,329.627,114.6,329.627Zm-33.553-5.092c5.267.038,40.26.165,48.312.034-.146-.5-.325-1.068-.493-1.605-1.813-5.783-5.587-17.819-5.587-41.931,0-38.779,1.957-49.989,2.04-50.447l.473-2.6,2.569.614c.35.084,35.107,8.388,46.751,9.954,8.612,1.157,29.355,2.112,40.954,2.579l2.347.095.051,2.348c1.189,54.335,4.413,77.381,6.909,80.955h40.406a7.4,7.4,0,0,0,3.59-.822l-.015-.071c-.079-.316-.2-.787-.363-1.4-10.059-38.54-12.451-68.052-12.686-86.024l-.009-.772.427-.644c3.447-5.186,7.556-14.388,7.556-28.764,0-9.634-1.517-17-3.124-24.8-2.542-12.349-5.172-25.117-1.018-46.675l.369-1.914,1.946-.109c55.139-3.089,59.56-10.57,59.886-12.039,4.43-19.932,3.527-33.28,1.989-40.967-.679-3.144-16.891-12.363-35.424-20.147L218.252,36.149l-25.006,64.438-1.814,25.4,3.116.58-3.4,24.949-2.03.141c-43.322,3-89.257,7.134-94.219,9.616-6.946,3.472-10.618,14.8-10.618,32.763A101.726,101.726,0,0,0,86.7,216.782a58.435,58.435,0,0,1,1.576,12.251,18.928,18.928,0,0,1-7.109,15.378c-.418,4.874-2.037,24.033-2.9,37.779C76.918,303.891,78.609,322.209,81.047,324.535Z"/>
      <path d="M194.779,60.033s-17,16-17,21-6,96,2,101,41,6,44,2-7-91-12-97S194.779,60.033,194.779,60.033Z" fill="#333842"/>
      <path d="M208.761,189.013c-1.767,0-3.526-.041-5.2-.106-9.022-.352-20.354-1.785-25.1-4.753-4.185-2.617-7.506-16.044-3.5-95.9.19-3.8.328-6.543.328-7.223,0-5.487,12.438-17.787,17.787-22.82l2.31-2.174,1.573,2.754c.119.208,11.948,20.877,16.75,26.64,3.707,4.448,7.922,36.835,9.562,50.554,1.415,11.836,2.518,23.157,3.106,31.878,1.044,15.493.1,16.75-.588,17.668C223.717,188.282,216.182,189.013,208.761,189.013Zm-27.6-9.062c7.387,4.518,36.339,4.951,40.5,2.606,1.972-8.956-8-88.754-11.82-93.938-4.015-4.818-12.172-18.612-15.637-24.573-7.652,7.484-13.822,14.956-13.93,17,0,.8-.126,3.306-.335,7.465-.576,11.495-1.648,32.893-1.806,52.6C177.871,174.448,180.554,179.286,181.165,179.951Z"/>
      <path d="M216.779,31.033s65-3,69,2,9,14,9,22-6,17-6,17-36-11-64-11C224.779,61.033,224.779,39.033,216.779,31.033Z" fill="#333842"/>
      <path d="M289.827,74.968l-1.779-.543c-.356-.109-35.975-10.892-63.269-10.892h-2.5v-2.5c0-5.835-1.316-22.282-7.268-28.233l-4-4,5.657-.261c.163-.007,16.49-.754,33.1-.878,34.718-.254,36.753,2.291,37.971,3.814,4.4,5.5,9.548,14.979,9.548,23.561,0,8.658-6.158,17.994-6.42,18.387ZM227.216,58.559c24.256.509,52.858,8.338,60.427,10.531,1.591-2.771,4.636-8.764,4.636-14.057,0-6.768-4.181-15.052-8.356-20.317-3.766-2.368-33.749-2.553-62.376-1.387C226,41.261,226.994,53.368,227.216,58.559Z"/>
      <path d="M208.779,80.033s-21.17-6.054-21-18c.171-12-1-33,6-45,4.275-7.329,12-12,15-9s22,21,15,49" fill="#bbb"/>
      <path d="M208.78,82.534a2.492,2.492,0,0,1-.689-.1c-.939-.269-23.007-6.738-22.812-20.439.024-1.67.021-3.516.019-5.488-.017-12.59-.039-29.833,6.321-40.736,3.463-5.937,9.1-10.5,13.7-11.095a5.95,5.95,0,0,1,5.224,1.587l.239.237C225.356,20.969,230.832,39.13,226.2,57.64c-.334,1.339-2.582,6.228-3.925,5.893s-1.26-5.767-.925-7.106c4.182-16.731-.822-33.2-14.092-46.376l-.251-.25a1.412,1.412,0,0,0-1.047-.163c-2.646.342-7.12,3.673-10.025,8.655-5.678,9.733-5.657,26.192-5.641,38.211,0,2,0,3.871-.02,5.565-.117,8.23,13.874,13.82,19.188,15.561,5.813,1.9,6.813,16.9,6.813,16.9S209.868,82.534,208.78,82.534Z"/>
      <path d="M267.926,42.876c3.481-16.228,7.8-39.746,3.7-40.331-4.374-.625-15.725,23.611-22.181,38.3A89.453,89.453,0,0,1,267.926,42.876Z" fill="#bbb"/>
      <path d="M269.828,45.923l-2.5-.62a85.788,85.788,0,0,0-17.93-1.957l-3.741-.08,1.506-3.425C265.071-.921,269.569-.272,271.982.07A3.717,3.717,0,0,1,274.5,1.675c1.1,1.583,3.687,5.289-4.131,41.725Zm-16.6-7.448A89.615,89.615,0,0,1,266,39.893c4.84-23.049,5.008-31.217,4.7-34.019C268.7,7.991,263.7,15.047,253.232,38.475Z"/>
      <ellipse cx="254.279" cy="91.033" rx="14.882" ry="18.603" transform="translate(-9.738 34.114) rotate(-7.531)" fill="#fff"/>
      <path d="M255.11,112.082a16.263,16.263,0,0,1-11.27-4.824,24.52,24.52,0,0,1-3.857-29.178,15.377,15.377,0,0,1,24.735-3.271,24.52,24.52,0,0,1,3.857,29.178,15.922,15.922,0,0,1-11.53,7.967A15.007,15.007,0,0,1,255.11,112.082Zm-1.688-37.094a9.6,9.6,0,0,0-1.254.082,11.033,11.033,0,0,0-7.906,5.6,19.538,19.538,0,0,0,3.039,22.984,10.4,10.4,0,0,0,17-2.247,18.55,18.55,0,0,0,2.258-11.992h0a18.538,18.538,0,0,0-5.3-10.992A11.37,11.37,0,0,0,253.422,74.988Z"/>
      <ellipse cx="255.743" cy="89.992" rx="9.307" ry="11.634" transform="translate(-9.589 34.297) rotate(-7.531)"/>
      <path d="M306.639,82.425s6-1.033,8.006.956,1.6,3.325,1.353,3.576-2.114,2.012-4.791.11A21.33,21.33,0,0,1,306.639,82.425Z"/>
      <path d="M326.728,111.11a14.986,14.986,0,0,0-5.538.3c-2.637.642-5.791,2.147-5.722,3.076.041.563,1.247.641,5.683,1.424,2,.354,3.636.67,4.693.88Z"/>
      <path d="M269.279,37.221A23.271,23.271,0,0,1,253,30.642l2.929-2.723a19.576,19.576,0,0,0,13.351,5.3Z"/>
      <path d="M271.77,22.673a16.678,16.678,0,0,1-11.655-4.724l2.927-2.727a12.6,12.6,0,0,0,8.728,3.451Z"/>
      <path d="M208.908,7.993a71.04,71.04,0,0,0-5.3,13.223A53.387,53.387,0,0,0,201.54,35.27a83.274,83.274,0,0,0,1.445,14.336c.832,4.794,1.846,9.5,3.056,14.289a.694.694,0,0,1-1.336.372l-.021-.071c-1.4-4.623-2.654-9.414-3.7-14.2a85.488,85.488,0,0,1-2.135-14.69,56.464,56.464,0,0,1,1.516-14.924,74.8,74.8,0,0,1,4.956-14.153A2,2,0,1,1,208.951,7.9c-.011.025-.023.049-.035.073Z"/>
    </g>
    <path d="M109.97,280.964c2.133.756,5.233.544,6.773-1.426,2.1-2.688.518-7.652-2.852-9.535-2.8-1.565-6.93-1.052-8.465,1.337C103.5,274.334,106.093,279.589,109.97,280.964Z" fill="#b1b1b2"/>
  </g>
</svg>
