<svg xmlns="http://www.w3.org/2000/svg" width="422.99" height="331.26">
  <defs>
    <style>
      .cls-1 {
        fill: #262626;
      }

      .cls-2 {
        fill: #88345d;
      }

      .cls-3 {
        fill: #ddb2ac;
      }

      .cls-4 {
        fill: #f8eadf;
      }

      .cls-5 {
        fill: #fd5a70;
      }

      .cls-6 {
        fill: #fc9171;
      }

      .cls-7 {
        fill: #fff;
      }
    </style>
  </defs>
  <title>Red</title>
  <g id="Layer_2" data-name="Layer 2">
    <g id="Layer_1-2" data-name="Layer 1">
      <g>
        <g>
          <path class="cls-1" d="M180.42,159.56S162,106.09,115,106.09s-65.58,17.82-65.58,57.27S81.45,283,51,292.46,2.56,275.75,2.56,275.75s-5.23,53,88.39,53,63.69-92,50.85-129.56,19.73-56,37.2-33.23Z"/>
          <path d="M91,331.26c-37.52,0-64.1-8.33-79-24.76-13.33-14.7-12-30.34-11.89-31a2.5,2.5,0,0,1,4.54-1.18c.7,1,17.44,24.5,45.68,15.74,18.19-5.64,10.52-43.92,3.74-77.69-3.68-18.37-7.16-35.72-7.16-49,0-20.88,5.23-35.69,16-45.3,10.91-9.74,28-14.47,52.1-14.47,20,0,38.14,9.57,52.35,27.69a104.18,104.18,0,0,1,15.48,27.46,2.52,2.52,0,0,1,.08,1.36l-1.42,6.41a2.5,2.5,0,0,1-4.43,1c-6.57-8.58-16.07-11.31-24.21-7-9.08,4.86-15.27,18.45-8.63,37.86,8,23.46,26.81,78.38,4.38,109.77C137.59,323.49,118.21,331.26,91,331.26ZM5.55,282.88a40.84,40.84,0,0,0,10.21,20.37c13.92,15.27,39.22,23,75.19,23,25.55,0,43.56-7.07,53.53-21,20.94-29.29,2.73-82.51-5-105.24-7.59-22.19.05-38,11-43.88,8.9-4.77,19.33-2.88,27.17,4.56l.21-1c-2.27-5.94-20.91-51.14-62.87-51.14-44.8,0-63.08,15.87-63.08,54.77,0,12.81,3.43,29.92,7.07,48,7.54,37.59,15.33,76.47-7.17,83.45S13.25,290.37,5.55,282.88Z"/>
        </g>
        <g>
          <path class="cls-2" d="M183,160.15s-37.31-.08-42.84-22.57,21.07-19.64,28.69-8.2c10.83,16.26,9.19,22.92,9.19,22.92l-2.82,1.94S163.52,128,152.2,132.72C143.35,136.38,171.73,155.15,183,160.15Z"/>
          <path d="M183,162.65h0c-1.61,0-39.33-.36-45.27-24.48-3.15-12.82,3.6-17.32,6.65-18.66,8.31-3.65,21.21.47,26.55,8.48,11.12,16.7,9.74,24.12,9.54,24.91a2.55,2.55,0,0,1-1,1.47l-1,.7c1.95,1.07,3.83,2,5.58,2.79a2.5,2.5,0,0,1-1,4.79Zm-31.69-39.5a12.4,12.4,0,0,0-4.92.93c-5.2,2.29-4.94,8.28-3.8,12.9,3.08,12.51,17.51,17.45,28.26,19.4-10.36-6.3-22.94-15.58-22.87-21.56a4.79,4.79,0,0,1,3.23-4.41c10.41-4.32,20,10.62,24.18,18.51-.6-3.13-2.53-9-8.62-18.16C163.75,126.2,157.06,123.15,151.34,123.15ZM153,135.08c.4,2.57,8.47,9.3,17.36,15.12-4.15-7.44-11.39-17.59-17.24-15.17Z"/>
        </g>
        <g>
          <path class="cls-2" d="M180.06,161.81s27.44-22.18,18-43.34-28.42-2.6-27.68,11.12c1.4,26,6.7,29.37,6.7,29.37l3.52-5.82s-6.81-27.9,5-31.14C194.85,119.46,185.92,150.93,180.06,161.81Z"/>
          <path d="M180.06,164.31a2.44,2.44,0,0,1-1.59-.58,2.49,2.49,0,0,1-.88-2.32,2.48,2.48,0,0,1-1.82-.33c-1.51-.94-6.51-6-7.88-31.35-.52-9.71,7.25-20.88,16-23,3.19-.77,11.16-1.26,16.49,10.7,10.09,22.66-17.55,45.35-18.73,46.31A2.46,2.46,0,0,1,180.06,164.31Zm6.73-52.92a7.29,7.29,0,0,0-1.75.22c-6.41,1.55-12.55,10.55-12.15,17.85.77,14.3,2.73,21.4,4.14,24.76l.91-1.51c-1.31-5.85-5.77-29.62,7-33.12a5,5,0,0,1,5.46,1.6c3.71,4.66.44,18.94-3.29,29.92,6.61-7.93,13.8-20.12,8.67-31.63C194.09,115.66,191.2,111.39,186.79,111.39Zm-.25,13a1.74,1.74,0,0,0-.27.06c-6.79,1.86-5.39,17-3.86,25.2,1.1-3.26,2.12-6.72,2.91-10C187.86,129.13,187.08,125.1,186.54,124.35Z"/>
        </g>
        <g>
          <path class="cls-1" d="M281.07,25.19,399.86,44.51s53.23,56.92-11.14,146.17c-39.08,54.19-31.63,129.74,13.52,129.74,0,0-18.41,8.23-72.65,8.23S223.07,225.85,285.8,134.13,281.07,25.19,281.07,25.19Z"/>
          <path d="M329.59,331.15c-22.35,0-45.21-17-59.66-44.39-19.27-36.53-25.76-96.18,13.81-154,23.13-33.82,31.06-61,23.59-80.81-7.19-19.07-26.68-24.24-26.88-24.29a2.5,2.5,0,0,1,1-4.89L400.26,42a2.54,2.54,0,0,1,1.43.76c.56.61,13.85,15,19.19,40.82,4.9,23.65,3.65,61.68-30.13,108.52-27.57,38.23-29.84,83.51-18,106.7,4.45,8.7,13.18,19.08,29.46,19.08a2.5,2.5,0,0,1,1,4.79C402.49,323.05,383.74,331.15,329.59,331.15ZM296.76,30.28A43.52,43.52,0,0,1,312,50.14c8.08,21.43,0,50.16-24.14,85.4-38.32,56-32.11,113.65-13.52,148.89,13.58,25.74,34.75,41.72,55.24,41.72,31.22,0,50.43-2.74,61-5-9.38-3.05-17.08-9.9-22.26-20-6.95-13.57-9.12-32.13-6.11-52.23a139.27,139.27,0,0,1,24.47-59.66c25.82-35.8,36-71.87,29.35-104.31-4.41-21.62-15-35.11-17.47-38.07Z"/>
        </g>
        <g>
          <path class="cls-3" d="M298.31,82.64s-21.84-10-20.22-21.94,3.47-32.83,12-43.77c5.23-6.69,13.52-10.27,16.08-6.89a49.8,49.8,0,0,1,8.87,38.55C311,71.25,298.31,82.64,298.31,82.64Z"/>
          <path d="M298.76,85.6l-1.49-.69c-2.41-1.11-23.47-11.2-21.65-24.54.16-1.24.34-2.58.52-4,1.56-12.2,3.93-30.64,12-41,4.24-5.42,10.47-9.2,15.08-9.14a5.94,5.94,0,0,1,5,2.28A52.52,52.52,0,0,1,317.53,49c-4.21,23.23-17,35-17.55,35.46Zm4.41-74.35c-2.67,0-7.54,2.69-11.08,7.22-7.24,9.25-9.5,26.88-11,38.54-.19,1.43-.36,2.78-.53,4-1,7.55,10.91,15.33,17.22,18.56,3.12-3.37,11.65-14,14.82-31.45a47.42,47.42,0,0,0-8.4-36.6c-.19-.26-.72-.3-1-.3Z"/>
        </g>
        <path class="cls-3" d="M236.5,239.76s3.7,71.8,6,81c2,8-4,8-4,8h-57v-97h55Z"/>
        <path d="M238.5,331.26H179v-102h60V239.7c1.27,24.77,4.15,73.37,5.92,80.46.9,3.59.55,6.44-1,8.48A7.17,7.17,0,0,1,238.5,331.26Zm-54.5-5h54.5a2.13,2.13,0,0,0,1.45-.73c.56-.74.61-2.22.12-4.16-2.33-9.33-5.92-78.54-6.07-81.48v-5.63H184Z"/>
        <path class="cls-3" d="M257.52,240.65s-14,32-14,60,6,28,6,28h45v-87Z"/>
        <path d="M297,331.15h-47.5c-3.18,0-8.5-4-8.5-30.5,0-28.19,13.63-59.67,14.21-61l.67-1.54L297,239.22Zm-47-5h42V244.09l-32.86-.89C256.44,249.87,246,277,246,300.65,246,321.14,249.3,325.46,250,326.15Z"/>
        <g>
          <g>
            <path class="cls-4" d="M204.18,184.23s15.33-4.48,18.3-19.33a50.78,50.78,0,0,0,.87-12.09c-3.47-.71-6.92-1.35-10.35-1.88a34.64,34.64,0,0,1,1.64,10.88A30.46,30.46,0,0,1,204.18,184.23Z"/>
            <path class="cls-4" d="M392.87,122.91c-2,8.9-33.39,12.28-59.7,13.75-6.59,34.21,4.19,45.26,4.19,71,0,15-4.31,24.64-8,30.14.31,23.94,4.11,47.31,7.53,63.84.63,3.06,1.25,5.88,1.84,8.43.46,2,.9,3.87,1.3,5.53,1.15,4.73,2,7.9,2.3,9.06,1,4-6,4-6,4h-41c-1.73,0-3.14-4.42-4.28-11.34-3-18.34-4.15-54.22-4.53-72.06-12.56-.51-32.63-1.45-41.19-2.6-11.91-1.6-47-10-47-10s-2,11-2,50,10,45.77,5,46c-4.21.18-45.22,0-50,0-5.83-.05-6-29-5-45,.81-13,2.29-30.68,2.81-36.8a4.86,4.86,0,0,1,1.64-3.28,16.63,16.63,0,0,0,5.55-12.92c0-6.1-1.48-10.71-2.64-17.67,15.73,6.32,49.62,15.6,72.8-9.13,9.94-10.62,11.48-35.43,11.59-48,10.26,2.11,20.57,3.87,30.7,3.61a281.67,281.67,0,0,1-1.61-53.17c.33-5.44.83-11.1,1.55-16.89a222.33,222.33,0,0,1,4.83-26.19c2.11-8.43,13.78-28.59,13.78-28.59l70.4,11.25s5.8,2.94,7.85,8.91c3.08,9,4,25.29,10.27,28.7,7.34,4,20,7.42,21.43,10S396.87,104.91,392.87,122.91Z"/>
            <path class="cls-5" d="M223.35,152.8a50.82,50.82,0,0,1-.87,12.1c-3,14.85-18.3,19.32-18.3,19.32a30.45,30.45,0,0,0,10.46-22.41A34.71,34.71,0,0,0,213,150.92a103.09,103.09,0,0,0-15.3-1.35c-11.75,0-23,2.67-33.34,11.1-4.92,4-8.91,10.4-10.8,20.58a79.11,79.11,0,0,0-1.2,14.42A101.54,101.54,0,0,0,153.72,213c15.73,6.32,49.62,15.6,72.8-9.13,9.94-10.62,11.48-35.43,11.59-48C233.17,154.89,228.24,153.79,223.35,152.8Zm-19.76,54.87c-.77.17-1.52.32-2.26.45a66,66,0,0,1-10.57,1.21h-.13c-8.57.21-14.94-1.67-21.86-4.11h0L165.33,204a156.93,156.93,0,0,0,21.52-1.09h.1A69.68,69.68,0,0,0,210.78,195l1.42-.77a42.88,42.88,0,0,0,14-12.08C223,193.54,216.6,204.87,203.59,207.67Z"/>
            <path class="cls-4" d="M226.2,182.16c-3.16,11.38-9.6,22.71-22.61,25.51-.75.16-1.5.31-2.26.45a84.69,84.69,0,0,1-10.57,1.21h-.13c-8.57.21-14.94-1.67-21.86-4.11h0L165.33,204a156.93,156.93,0,0,0,21.52-1.09h.1A69.68,69.68,0,0,0,210.78,195l1.42-.77A42.88,42.88,0,0,0,226.2,182.16Z"/>
            <path class="cls-4" d="M176.69,184.94c-10.46,1.4-18.15-.14-23.13-3.69,1.89-10.18,5.88-16.57,10.8-20.58,10.34-8.43,21.59-11.15,33.34-11.1C204.62,162.37,197.5,182.16,176.69,184.94Z"/>
            <path class="cls-6" d="M339.53,309.31c-11-2.55-18-3.26-31.45-2.73,0,0,6.77-5.6,29.61-5.7C338.32,303.94,338.94,306.76,339.53,309.31Z"/>
            <path class="cls-5" d="M336.36,328.67h-41c-1.73,0-3.14-4.42-4.28-11.34,19.43-5.56,38.95-3.48,49-1.72,1.15,4.73,2,7.9,2.3,9.06C343.36,328.67,336.36,328.67,336.36,328.67Z"/>
            <path class="cls-5" d="M298.39,94.21c0,22.32,17.59,28,33.81,25.53S353.42,100,346.34,79.6C338.6,57.32,298.44,50.9,298.39,94.21Z"/>
            <path class="cls-6" d="M248.6,168.31s1.46,36.65-21,49.12c0,0,20.87-3.7,25.86-16.89S248.6,168.31,248.6,168.31Z"/>
            <path class="cls-6" d="M155.53,222.43a83.19,83.19,0,0,0,19.24,4.72,43,43,0,0,1-18.42,4Z"/>
          </g>
          <path d="M185.18,331.26c-13.53,0-30.85-.07-33.84-.09a4.53,4.53,0,0,1-3.32-1.55c-6.52-7-4.25-44.51-4.15-46.11.8-12.89,2.23-30.07,2.81-36.85a7.36,7.36,0,0,1,2.49-5,14.16,14.16,0,0,0,4.69-11,54.09,54.09,0,0,0-1.48-11.26,107.72,107.72,0,0,1-2.52-23.74c0-17.77,4.23-29.85,12.92-36.94,20.83-17,45.36-11.75,69.07-6.7,11.27,2.4,22.89,4.88,34.11,5-1.35-11.18-5.22-52.72,5.2-94.38,2.16-8.68,13.55-28.41,14-29.24l.86-1.49,72.49,11.59.35.17c.27.14,6.72,3.49,9.07,10.34a92,92,0,0,1,2.58,10.3c1.45,6.78,3.25,15.22,6.53,17A102.27,102.27,0,0,0,387.89,86c6.79,2.65,10.38,4.13,11.59,6.25h0c1.74,3.06.68,9.4-4.17,31.19-1.26,5.69-9.28,12.58-60,15.59-3.45,19.4-1.11,30.78,1.36,42.81,1.59,7.7,3.23,15.67,3.23,25.81,0,15-4.23,25-8,30.87.29,17.76,2.72,46.55,12.51,84.07.17.64.29,1.13.38,1.45a4.92,4.92,0,0,1-.84,4.3c-2.09,2.68-6.69,2.81-7.59,2.81h-41c-3.52,0-6.64-2.62-9.07-34.79-1.29-17-1.91-37-2.19-48.71-12-.5-30.82-1.41-39.07-2.52-10.09-1.36-36-7.4-44.55-9.41-.56,5.18-1.62,18.71-1.62,46.93,0,23.35,3.62,34.89,5.36,40.43,1,3.19,1.55,4.94.41,6.55a3.82,3.82,0,0,1-3.16,1.52C199.86,331.24,193.18,331.26,185.18,331.26Zm-33.55-5.09c5.27,0,40.26.17,48.31,0-.15-.5-.32-1.07-.49-1.61-1.82-5.78-5.59-17.82-5.59-41.93,0-38.78,2-50,2-50.45l.47-2.6,2.57.62c.35.08,35.11,8.39,46.75,9.95,8.62,1.16,29.36,2.12,41,2.58l2.35.1.05,2.35c1.18,54.33,4.41,77.38,6.91,81h40.4a7.42,7.42,0,0,0,3.59-.82.25.25,0,0,0,0-.07c-.07-.32-.2-.79-.36-1.41-10.06-38.54-12.45-68.05-12.68-86v-.77l.43-.65c3.44-5.18,7.55-14.38,7.55-28.76,0-9.63-1.52-17-3.12-24.81-2.55-12.34-5.17-25.11-1-46.67l.37-1.91,1.94-.11c51.47-2.89,57-9.76,57.4-11.79,2.49-11.22,5.59-25.14,4.72-27.58-1-1-5.64-2.78-9.07-4.12a105.49,105.49,0,0,1-11.39-5c-5.3-2.89-7.2-11.77-9-20.35a89.07,89.07,0,0,0-2.42-9.73c-1.43-4.18-5.22-6.68-6.31-7.33L288.68,37.41c-2.7,4.77-11,19.75-12.67,26.46-11.81,47.25-4.81,94.76-4.74,95.22l.48,2.84-2.88.09c-12.66.3-25.57-2.44-38.06-5.1-23.6-5-45.89-9.78-64.87,5.69-7.35,6-11.08,17.11-11.08,33.06a102.17,102.17,0,0,0,2.42,22.75,58.11,58.11,0,0,1,1.58,12.25,19.11,19.11,0,0,1-6.41,14.81,2.39,2.39,0,0,0-.79,1.6c-.45,5.28-2,23.54-2.8,36.75C147.5,305.53,149.19,323.85,151.63,326.17ZM395.21,94.86Z"/>
        </g>
        <g>
          <ellipse class="cls-7" cx="324.86" cy="92.67" rx="14.88" ry="18.6" transform="translate(-9.34 43.38) rotate(-7.53)"/>
          <path d="M325.69,113.72a16.29,16.29,0,0,1-11.27-4.83,24.53,24.53,0,0,1-3.86-29.17,15.38,15.38,0,0,1,24.74-3.27,24.53,24.53,0,0,1,3.86,29.17,15.91,15.91,0,0,1-11.53,8A14.05,14.05,0,0,1,325.69,113.72ZM324,76.62a8.86,8.86,0,0,0-1.25.09,11,11,0,0,0-7.91,5.59,19.58,19.58,0,0,0,3,23,10.41,10.41,0,0,0,17-2.25,18.62,18.62,0,0,0,2.26-12h0a18.58,18.58,0,0,0-5.3-11A11.43,11.43,0,0,0,324,76.62Z"/>
          <ellipse cx="326.33" cy="91.63" rx="9.31" ry="11.63" transform="translate(-9.19 43.56) rotate(-7.53)"/>
        </g>
        <g>
          <path class="cls-2" d="M333.93,184.64s17.37,9,22.38,35.32c0,0,5,6.3-18.36,11.27l-10.69-48.09Z"/>
          <path d="M338,233.73a2.52,2.52,0,0,1-2.44-2l-10.69-48.08a2.5,2.5,0,0,1,3-3l6.67,1.5a2.12,2.12,0,0,1,.61.22c.75.39,18.31,9.79,23.6,36.62a5.42,5.42,0,0,1,.23,4.33c-1.56,4.34-8.25,7.71-20.44,10.3A2.31,2.31,0,0,1,338,233.73Zm-7.4-47.29,9.3,41.8c12.45-3,14.14-6,14.36-6.57,0-.06.18-.1.14-.16a2.59,2.59,0,0,1-.5-1.09c-4.4-23.1-18.74-32.21-20.82-33.42Z"/>
        </g>
        <g>
          <path class="cls-2" d="M333.93,184.64l-7.42-3.37-5.74,2.49s2.1,30.69-5.28,46.84c-5.9,12.89,25.16,13.15,27,10.64S345.86,201.28,333.93,184.64Z"/>
          <path d="M335,245c-6.22,0-13.84-1.34-17.89-3.75-4.64-2.75-6.07-7-3.94-11.67,7.05-15.4,5.08-45.33,5.06-45.63a2.5,2.5,0,0,1,1.5-2.46l5.74-2.5a2.52,2.52,0,0,1,2,0l7.42,3.37a2.42,2.42,0,0,1,1,.82c12.34,17.21,11.45,55.72,8.57,59.56C343.39,244.27,339.58,245,335,245Zm-11.68-59.62c.33,6.89,1,31.82-5.6,46.28-1,2.29-.3,3.44.56,4.27,4.51,4.33,18.7,4.67,22.21,3.6,1.21-5.16,2.07-37.67-8.26-52.88L326.48,184Z"/>
        </g>
        <path d="M394.35,114.06a15,15,0,0,0-5.54.3c-2.63.64-5.79,2.14-5.72,3.07,0,.57,1.25.64,5.68,1.43,2,.35,3.64.67,4.7.88Z"/>
        <g>
          <path class="cls-2" d="M274.81,152.31s22.41,38.49,64.06,38.49A36,36,0,0,0,332,170.46s-23.68.2-48.1-25.46Z"/>
          <path d="M338.87,193.3c-42.6,0-65.27-38.11-66.22-39.74a2.49,2.49,0,0,1,.6-3.2l9.09-7.31a2.51,2.51,0,0,1,3.38.23C309,167.73,331.49,168,332,168h0a2.52,2.52,0,0,1,2,1,38.25,38.25,0,0,1,7.37,21.89A2.5,2.5,0,0,1,338.87,193.3Zm-60.74-40.45c4.89,7.26,25.09,34,58.09,35.4a34,34,0,0,0-5.53-15.33c-5.36-.34-25.69-3.07-47-24.55Z"/>
        </g>
        <g>
          <path class="cls-1" d="M282.17,78.3s-6.82,12.87-4.16,32.48c3.77,27.84,16.24,34.42,5.18,44.56-5.35,4.9-14.38,4.18-14.38,4.18a130.22,130.22,0,0,1-26.43-2.65s-39.74-60.81,23.46-124.3Z"/>
          <path d="M270.06,162.06c-.63,0-1.08,0-1.3,0a132.65,132.65,0,0,1-26.87-2.7,2.47,2.47,0,0,1-1.6-1.08c-.42-.64-10.31-16-12.37-39.49-1.9-21.64,2.82-54.46,36.15-87.94a2.5,2.5,0,0,1,4.13.92l16.33,45.73a2.54,2.54,0,0,1-.14,2h0c-.07.12-6.41,12.49-3.91,31A102.41,102.41,0,0,0,287,134.77c3.32,8.83,5.72,15.2-2.14,22.41C280.11,161.55,273.08,162.06,270.06,162.06Zm-1.25-5h.2c.07,0,8,.55,12.49-3.54,5.37-4.92,4.14-8.19.84-17a108.36,108.36,0,0,1-6.81-25.42c-2.34-17.25,2.35-29.44,3.94-33l-14.63-41c-23.67,24.94-34.41,52.13-32,80.88a90.88,90.88,0,0,0,11.06,36.56,127.58,127.58,0,0,0,24.8,2.39Z"/>
        </g>
        <g>
          <path class="cls-1" d="M372.3,57.32s-35.64,9.08-53.91,9.08a42.24,42.24,0,0,1-29.32-12.11l-8-29.1S360.33-6.14,401.73,46.76"/>
          <path d="M318.39,68.9A44.46,44.46,0,0,1,287.22,56a2.61,2.61,0,0,1-.56-1l-8-29.09a2.51,2.51,0,0,1,1.49-3,157,157,0,0,1,45.6-9.23c33.55-1.64,60.5,9.28,77.95,31.58a2.5,2.5,0,1,1-3.93,3.08c-16.62-21.23-41.4-31.22-73.63-29.67a157.53,157.53,0,0,0-42.05,8.13L291.31,53a40.24,40.24,0,0,0,27.08,10.9c17.75,0,52.94-8.92,53.29-9a2.5,2.5,0,0,1,1.24,4.85C371.45,60.11,336.76,68.9,318.39,68.9Z"/>
        </g>
        <g>
          <path class="cls-4" d="M294.36,58.67c7-28-12-46-15-49s-10.72,1.67-15,9c-7,12-5.83,33-6,45s21,18,21,18l4.07,3.93,12.47-6Z"/>
          <path d="M279.36,84.17a2.35,2.35,0,0,1-.69-.1c-.94-.26-23-6.73-22.81-20.44,0-1.67,0-3.51,0-5.48,0-12.59,0-29.84,6.32-40.74,3.46-5.94,9.1-10.5,13.7-11.09a6,6,0,0,1,5.23,1.58l.24.24c14.57,14.47,20,32.63,15.42,51.14-.34,1.34-2.59,6.22-3.93,5.89s-1.26-5.77-.92-7.11c4.18-16.73-.83-33.2-14.1-46.37l-.25-.25c-.23-.23-.75-.2-1-.17-2.65.35-7.12,3.68-10,8.66-5.68,9.73-5.66,26.19-5.64,38.21,0,2,0,3.87,0,5.57-.12,8.23,13.87,13.82,19.19,15.56,5.81,1.9,6.81,16.9,6.81,16.9S280.45,84.17,279.36,84.17Z"/>
          <path d="M279.49,9.63a71.16,71.16,0,0,0-5.3,13.22,53.48,53.48,0,0,0-2.07,14.06,83.2,83.2,0,0,0,1.45,14.33c.83,4.8,1.84,9.51,3.05,14.29a.68.68,0,0,1-.5.84.67.67,0,0,1-.83-.47l0-.07c-1.4-4.62-2.66-9.41-3.71-14.19a85.25,85.25,0,0,1-2.13-14.7A56.35,56.35,0,0,1,270.94,22a75.16,75.16,0,0,1,5-14.15,2,2,0,0,1,3.63,1.67l0,.07Z"/>
        </g>
        <path d="M381,95.92s6-1,8,1,1.6,3.33,1.35,3.58-2.11,2-4.79.11A21.28,21.28,0,0,1,381,95.92Z"/>
        <g>
          <path class="cls-4" d="M344.51,42.88c3.49-16.23,7.8-39.75,3.71-40.33-4.38-.63-15.73,23.61-22.18,38.3A89,89,0,0,1,344.51,42.88Z"/>
          <path d="M346.42,45.92l-2.51-.62A86,86,0,0,0,326,43.35l-3.74-.08,1.51-3.43C341.66-.92,346.16-.27,348.57.07a3.7,3.7,0,0,1,2.52,1.6C352.19,3.26,354.78,7,347,43.4Zm-16.6-7.45a91.11,91.11,0,0,1,12.77,1.42c4.84-23,5-31.21,4.7-34C345.29,8,340.28,15.05,329.82,38.47Z"/>
          <path d="M345.87,37.22a23.27,23.27,0,0,1-16.28-6.58l2.93-2.72a19.58,19.58,0,0,0,13.35,5.3Z"/>
          <path d="M348.36,22.67A16.71,16.71,0,0,1,336.7,18l2.93-2.73a12.6,12.6,0,0,0,8.73,3.45Z"/>
        </g>
      </g>
    </g>
  </g>
</svg>
